<?xml version="1.0" standalone="no"?><!DOCTYPE svg PUBLIC "-//W3C//DTD SVG 1.1//EN" "http://www.w3.org/Graphics/SVG/1.1/DTD/svg11.dtd"><svg xmlns:xlink="http://www.w3.org/1999/xlink" version="1.1" class="highcharts-root" style="font-family:&quot;Lucida Grande&quot;, &quot;Lucida Sans Unicode&quot;, Arial, Helvetica, sans-serif;font-size:12px;" xmlns="http://www.w3.org/2000/svg" width="600" height="400"><desc>Created with Highstock 6.2.0</desc><defs><clipPath id="highcharts-zlfcamd-673"><rect x="0" y="0" width="558" height="299" fill="none"></rect></clipPath><clipPath id="highcharts-zlfcamd-1340"><rect x="0" y="0" width="558" height="299" fill="none"></rect></clipPath><clipPath id="highcharts-zlfcamd-1341"><rect x="32" y="63" width="558" height="299" fill="none"></rect></clipPath></defs><rect fill="#ffffff" class="highcharts-background" x="0" y="0" width="600" height="400" rx="0" ry="0"></rect><rect fill="none" class="highcharts-plot-background" x="32" y="63" width="558" height="299"></rect><g class="highcharts-pane-group" data-z-index="0"></g><g class="highcharts-grid highcharts-xaxis-grid " data-z-index="1"><path fill="none" data-z-index="1" class="highcharts-grid-line" d="M 49.5 63 L 49.5 362" opacity="1"></path><path fill="none" data-z-index="1" class="highcharts-grid-line" d="M 151.5 63 L 151.5 362" opacity="1"></path><path fill="none" data-z-index="1" class="highcharts-grid-line" d="M 254.5 63 L 254.5 362" opacity="1"></path><path fill="none" data-z-index="1" class="highcharts-grid-line" d="M 357.5 63 L 357.5 362" opacity="1"></path><path fill="none" data-z-index="1" class="highcharts-grid-line" d="M 459.5 63 L 459.5 362" opacity="1"></path><path fill="none" data-z-index="1" class="highcharts-grid-line" d="M 562.5 63 L 562.5 362" opacity="1"></path></g><g class="highcharts-grid highcharts-yaxis-grid " data-z-index="1"><path fill="none" stroke="#e6e6e6" stroke-width="1" data-z-index="1" class="highcharts-grid-line" d="M 32 362.5 L 590 362.5" opacity="1"></path><path fill="none" stroke="#e6e6e6" stroke-width="1" data-z-index="1" class="highcharts-grid-line" d="M 32 312.5 L 590 312.5" opacity="1"></path><path fill="none" stroke="#e6e6e6" stroke-width="1" data-z-index="1" class="highcharts-grid-line" d="M 32 262.5 L 590 262.5" opacity="1"></path><path fill="none" stroke="#e6e6e6" stroke-width="1" data-z-index="1" class="highcharts-grid-line" d="M 32 213.5 L 590 213.5" opacity="1"></path><path fill="none" stroke="#e6e6e6" stroke-width="1" data-z-index="1" class="highcharts-grid-line" d="M 32 163.5 L 590 163.5" opacity="1"></path><path fill="none" stroke="#e6e6e6" stroke-width="1" data-z-index="1" class="highcharts-grid-line" d="M 32 113.5 L 590 113.5" opacity="1"></path><path fill="none" stroke="#e6e6e6" stroke-width="1" data-z-index="1" class="highcharts-grid-line" d="M 32 62.5 L 590 62.5" opacity="1"></path></g><rect fill="none" class="highcharts-plot-border" data-z-index="1" x="32" y="63" width="558" height="299"></rect><g class="highcharts-axis highcharts-xaxis " data-z-index="2"><path fill="none" class="highcharts-tick" stroke="#ccd6eb" stroke-width="1" d="M 49.5 362 L 49.5 372" opacity="1"></path><path fill="none" class="highcharts-tick" stroke="#ccd6eb" stroke-width="1" d="M 151.5 362 L 151.5 372" opacity="1"></path><path fill="none" class="highcharts-tick" stroke="#ccd6eb" stroke-width="1" d="M 254.5 362 L 254.5 372" opacity="1"></path><path fill="none" class="highcharts-tick" stroke="#ccd6eb" stroke-width="1" d="M 357.5 362 L 357.5 372" opacity="1"></path><path fill="none" class="highcharts-tick" stroke="#ccd6eb" stroke-width="1" d="M 459.5 362 L 459.5 372" opacity="1"></path><path fill="none" class="highcharts-tick" stroke="#ccd6eb" stroke-width="1" d="M 562.5 362 L 562.5 372" opacity="1"></path><path fill="none" class="highcharts-axis-line" stroke="#ccd6eb" stroke-width="1" data-z-index="7" d="M 32 362.5 L 590 362.5"></path></g><g class="highcharts-axis highcharts-yaxis " data-z-index="2"><path fill="none" class="highcharts-axis-line" data-z-index="7" d="M 32 63 L 32 362"></path></g><g class="highcharts-series-group" data-z-index="3"><g data-z-index="0.1" class="highcharts-series highcharts-series-0 highcharts-spline-series highcharts-color-0 " transform="translate(32,63) scale(1 1)" clip-path="url(#highcharts-zlfcamd-1340)"><path fill="none" d="M 5.4705882352941 174.41666666666666 C 5.4705882352941 174.41666666666666 5.67239225657688 199.33333333333331 5.8069282707654 199.33333333333331 C 6.16660140846536 199.33333333333331 6.3464379773153405 149.5 6.7061111150153 149.5 C 9.583106030959181 149.5 11.02160348893112 199.33333333333331 13.898598404875 199.33333333333331 C 14.271693929141401 199.33333333333331 14.4582416912746 149.5 14.831337215541 149.5 C 14.971569940307 149.5 15.04168630269 149.5 15.181919027456 149.5 C 15.259956158656001 149.5 15.298974724255999 199.33333333333331 15.377011855456 199.33333333333331 C 15.50670956751 199.33333333333331 15.571558423536999 199.33333333333331 15.701256135591 199.33333333333331 C 16.2163012015098 199.33333333333331 16.4738237344692 199.33333333333331 16.988868800388 199.33333333333331 C 17.435943525031597 199.33333333333331 17.659480887353403 199.33333333333331 18.106555611997 199.33333333333331 C 18.4606881133818 199.33333333333331 18.6377543640742 175.69930488510562 18.991886865459 149.5 C 19.446062969042202 115.89930488510561 19.673151020833803 49.833333333333314 20.127327124417 49.833333333333314 C 23.3821778296302 49.833333333333314 25.0096031822368 199.33333333333331 28.26445388745 199.33333333333331 C 37.351409592882 199.33333333333331 41.894887445598 116.27777777777777 50.98184315103 116.27777777777777 C 51.094216619958004 116.27777777777777 51.150403354422 157.80555555552561 51.26277682335 174.41666666666666 C 51.3751502922776 191.02777777774784 51.4313370267414 199.33333333333331 51.543710495669 199.33333333333331 C 51.6560839645966 199.33333333333331 51.7122706990604 199.33333333333331 51.824644167988 199.33333333333331 C 51.937017636915996 199.33333333333331 51.99320437138 215.94444444444446 52.105577840308 215.94444444444446 C 52.2179513092356 215.94444444444446 52.274138043699395 191.02777777777777 52.386511512627 186.875 C 52.4988849815546 182.72222222222223 52.5550717160184 182.72222222222223 52.667445184946 182.72222222222223 C 52.779818653873996 182.72222222222223 52.836005388338 186.875 52.948378857266 186.875 C 53.060752326193594 186.875 53.1169390606574 186.875 53.229312529585 186.875 C 53.341685998513 186.875 53.397872732977 179.4 53.510246201905 179.4 C 53.62261967083259 179.4 53.678806405296406 229.23333333333335 53.791179874224 229.23333333333335 C 53.9035533431516 229.23333333333335 53.9597400776154 226.90777777777316 54.072113546543 224.25 C 54.18448701547099 221.5922222222176 54.240673749935 224.25 54.353047218863 215.94444444444446 C 54.4654206877906 207.6388888888889 54.5216074222544 173.52678571428567 54.633980891182 170.85714285714283 C 54.746354360109606 168.1875 54.80254109457341 168.1875 54.914914563501 168.1875 C 55.02728803242901 168.1875 55.083474766893005 171.64814814814815 55.195848235821 171.64814814814815 C 55.3082217047486 171.64814814814815 55.3644084392124 171.64814814814815 55.47678190814 170.85714285714283 C 55.5891553770676 170.0661375661375 55.6453421115314 143.05726190473985 55.757715580459 130.8125 C 55.870089049387005 118.56773809521603 55.926275783851 109.63333333333333 56.038649252779 109.63333333333333 C 56.1510227217066 109.63333333333333 56.2072094561704 199.33333333333334 56.319582925098 224.25 C 56.4319563940256 249.16666666666666 56.4881431284894 249.16666666666666 56.600516597417 249.16666666666666 C 56.712890066345 249.16666666666666 56.769076800809 149.5 56.881450269737 149.5 C 56.9938237386646 149.5 57.050010473128395 242.9375 57.162383942056 242.9375 C 57.274757410984 242.9375 57.33094414544801 235.57575757575756 57.443317614376 235.57575757575756 C 57.5556910833036 235.57575757575756 57.6118778177674 249.16666666666666 57.724251286695 249.16666666666666 C 57.836624755622594 249.16666666666666 57.8928114900864 249.16666666666666 58.005184959014 244.63636363636363 C 58.117558427942 240.1060606060606 58.173745162406 166.11111111111111 58.286118631334 166.11111111111111 C 58.39849210026159 166.11111111111111 58.45467883472541 196.45086269619904 58.567052303653 207.63888888888889 C 58.788365607735805 229.67308491842127 58.8990222597772 249.16666666666666 59.12033556386 249.16666666666666 C 59.123769197632804 249.16666666666666 59.1254860145192 229.23333333333335 59.128919648292 229.23333333333335 C 59.2412931172196 229.23333333333335 59.2974798516834 240.86111111111111 59.409853320611 240.86111111111111 C 59.52222678953861 240.86111111111111 59.57841352400241 238.9626984126809 59.69078699293 229.23333333333335 C 59.803160461858 219.50396825395072 59.859347196322005 192.21428571428572 59.97172066525 192.21428571428572 C 60.0840941341776 192.21428571428572 60.1402808686414 239.2 60.252654337569 239.2 C 60.3650278064966 239.2 60.4212145409604 232.40454545451848 60.533588009888 217.45454545454544 C 60.645961478816005 202.5045454545185 60.70214821328 164.45 60.814521682208 164.45 C 60.926895151135604 164.45 60.983081885599404 219.26666666666665 61.095455354527 219.26666666666665 C 61.207828823454996 219.26666666666665 61.264015557919 199.33333333333331 61.376389026847 199.33333333333331 C 61.48876249577461 199.33333333333331 61.5449492302384 217.60555555555553 61.657322699166 224.25 C 61.7696961680936 230.89444444444445 61.825882902557396 232.55555555555554 61.938256371485 232.55555555555554 C 62.05062984041299 232.55555555555554 62.10681657487701 189.36666666666665 62.219190043805 189.36666666666665 C 62.3315635127326 189.36666666666665 62.3877502471964 211.73629629629605 62.500123716124 219.26666666666665 C 62.612497185051595 226.7970370370368 62.6686839195154 222.1459259259346 62.781057388443 227.01851851851853 C 62.893430857371 231.89111111111976 62.949617591835 243.62962962962962 63.061991060763 243.62962962962962 C 63.17436452969059 243.62962962962962 63.23055126415441 243.22693602693565 63.342924733082 231.04545454545456 C 63.4552982020096 218.86397306397268 63.5114849364734 191.0277777777778 63.623858405401 182.72222222222223 C 63.73623187432899 174.41666666666666 63.792418608793 174.41666666666666 63.904792077721 174.41666666666666 C 64.01716554664861 174.41666666666666 64.07335228111239 231.91666666666663 64.18572575004 236.70833333333331 C 64.298099218968 241.5 64.354285953432 241.5 64.46665942236 241.5 C 64.5790328912876 241.5 64.63521962575139 241.40416666666695 64.747593094679 236.70833333333331 C 64.8599665636066 232.01250000000024 64.9161532980704 218.02083333333331 65.028526766998 218.02083333333331 C 65.14090023592601 218.02083333333331 65.19708697039 224.25 65.309460439318 224.25 C 65.42183390824559 224.25 65.4780206427094 155.03703703703704 65.590394111637 155.03703703703704 C 65.7027675805646 155.03703703703704 65.7589543150284 199.6101851852141 65.871327783956 215.94444444444446 C 65.983701252884 232.27870370373262 66.039887987348 234.85389007332384 66.152261456276 236.70833333333331 C 66.8451531441992 248.14277896221273 67.19159898816079 249.16666666666666 67.884490676084 249.16666666666666 C 94.8598979664504 249.16666666666666 108.3476016116336 149.5 135.323008902 149.5 C 147.969584126072 149.5 154.29287173810798 249.16666666666666 166.93944696218 249.16666666666666 C 173.48430930268802 249.16666666666666 176.756740472942 249.16666666666666 183.30160281345 249.16666666666666 C 183.417248639414 249.16666666666666 183.475071552396 249.16666666666666 183.59071737836 249.16666666666666 C 219.80321731149198 249.16666666666666 237.90946727805803 199.33333333333331 274.12196721119 199.33333333333331 C 295.249049483618 199.33333333333331 305.812590619832 199.33333333333331 326.93967289226 199.33333333333331 C 327.052046361188 199.33333333333331 327.108233095652 199.33333333333331 327.22060656458 199.33333333333331 C 327.332980033508 199.33333333333331 327.389166767972 199.33333333333331 327.5015402369 199.33333333333331 C 327.613913705828 199.33333333333331 327.670100440292 199.33333333333331 327.78247390922 199.33333333333331 C 327.89484737814803 199.33333333333331 327.951034112612 99.66666666666666 328.06340758154 99.66666666666666 C 328.175781050468 99.66666666666666 328.231967784932 149.5 328.34434125386 149.5 C 328.456714722788 149.5 328.512901457252 149.5 328.62527492618 149.5 C 328.73764839510795 149.5 328.793835129572 49.833333333333314 328.9062085985 49.833333333333314 C 329.018582067428 49.833333333333314 329.074768801892 79.73333333297538 329.18714227082 99.66666666666666 C 329.299515739744 119.59999999964205 329.355702474206 149.5 329.46807594313 149.5 C 329.580449412058 149.5 329.636636146522 149.5 329.74900961545 149.5 C 329.861383084378 149.5 329.917569818842 99.66666666666666 330.02994328777 99.66666666666666 C 330.142316756698 99.66666666666666 330.198503491162 99.66666666666666 330.31087696009 99.66666666666666 C 330.423250429018 99.66666666666666 330.479437163482 99.66666666666666 330.59181063241 99.66666666666666 C 330.704184101338 99.66666666666666 330.760370835802 199.33333333333331 330.87274430473 199.33333333333331 C 330.98511777365803 199.33333333333331 331.041304508122 149.5 331.15367797705 149.5 C 331.266051445978 149.5 331.322238180442 199.33333333333331 331.43461164937 199.33333333333331 C 331.54698511829804 199.33333333333331 331.603171852762 169.43333333333837 331.71554532169 149.5 C 331.82791879061796 129.5666666666717 331.88410552508196 99.66666666666666 331.99647899401 99.66666666666666 C 332.108852462938 99.66666666666666 332.165039197402 129.5666666666633 332.27741266633 149.5 C 332.502159604186 189.3666666666633 332.61453307311405 249.16666666666666 332.83928001097 249.16666666666666 C 332.951653479898 249.16666666666666 333.00784021436203 99.66666666666666 333.12021368329 99.66666666666666 C 333.232587152218 99.66666666666666 333.288773886682 149.5 333.40114735561 149.5 C 333.51352082453803 149.5 333.56970755900204 149.5 333.68208102793 149.5 C 333.794454496854 149.5 333.850641231316 191.36000000022503 333.96301470024 199.33333333333331 C 334.412508575952 231.22666666689167 334.637255513808 249.16666666666666 335.08674938952 249.16666666666666 C 335.536243265232 249.16666666666666 335.760990203088 249.16666666666666 336.2104840788 249.16666666666666 C 336.322857547728 249.16666666666666 336.379044282192 149.5 336.49141775112 149.5 C 336.716164688976 149.5 336.828538157904 199.33333333333331 337.05328509576 199.33333333333331 C 337.165658564688 199.33333333333331 337.221845299152 99.66666666666666 337.33421876808 99.66666666666666 C 337.558965705936 99.66666666666666 337.671339174864 149.5 337.89608611272 149.5 C 338.12083305057206 149.5 338.233206519498 149.5 338.45795345735 149.5 C 338.57032692627797 149.5 338.626513660742 149.5 338.73888712967 149.5 C 338.851260598598 149.5 338.907447333062 199.33333333333331 339.01982080199 199.33333333333331 C 339.132194270918 199.33333333333331 339.188381005382 199.33333333333331 339.30075447431 199.33333333333331 C 339.52550141216597 199.33333333333331 339.63787488109404 249.16666666666666 339.86262181895 249.16666666666666 C 339.974995287878 249.16666666666666 340.031182022342 99.66666666666666 340.14355549127 99.66666666666666 C 340.255928960198 99.66666666666666 340.312115694662 99.66666666666666 340.42448916359 99.66666666666666 C 340.536862632518 99.66666666666666 340.593049366982 149.5 340.70542283591 149.5 C 340.817796304838 149.5 340.873983039302 149.5 340.98635650823 149.5 C 341.09872997715803 149.5 341.154916711622 99.66666666666666 341.26729018055 99.66666666666666 C 341.379663649478 99.66666666666666 341.435850383942 149.5 341.54822385287 149.5 C 341.66059732179804 149.5 341.716784056262 149.5 341.82915752519 149.5 C 342.16627793196994 149.5 342.33483813536 169.4333333334228 342.67195854214 199.33333333333331 C 342.784332011068 209.30000000008945 342.840518745532 249.16666666666666 342.95289221446 249.16666666666666 C 343.065265683388 249.16666666666666 343.121452417852 199.33333333333331 343.23382588678 199.33333333333331 C 343.346199355708 199.33333333333331 343.402386090172 199.33333333333331 343.5147595591 199.33333333333331 C 343.627133028028 199.33333333333331 343.68331976249203 249.16666666666666 343.79569323142 249.16666666666666 C 343.908066700348 249.16666666666666 343.96425343481206 249.16666666666666 344.07662690374 249.16666666666666 C 344.18900037266803 249.16666666666666 344.245187107132 149.5 344.35756057606 149.5 C 344.582307513916 149.5 344.69468098284403 149.5 344.9194279207 149.5 C 345.256548327484 149.5 345.42510853087595 149.5 345.76222893766 149.5 C 345.874602406588 149.5 345.930789141052 249.16666666666666 346.04316260998 249.16666666666666 C 346.15553607890797 249.16666666666666 346.21172281337203 249.16666666666666 346.3240962823 249.16666666666666 C 346.436469751228 249.16666666666666 346.492656485692 249.16666666666666 346.60502995462 249.16666666666666 C 346.71740342354803 249.16666666666666 346.77359015801204 249.16666666666666 346.88596362694 249.16666666666666 C 346.99833709586403 249.16666666666666 347.05452383032605 199.33333333333331 347.16689729925 199.33333333333331 C 347.27927076817804 199.33333333333331 347.33545750264204 199.33333333333331 347.44783097157 199.33333333333331 C 347.560204440498 199.33333333333331 347.61639117496196 199.33333333333331 347.72876464389 199.33333333333331 C 347.841138112818 199.33333333333331 347.897324847282 249.16666666666666 348.00969831621 249.16666666666666 C 348.23444525406603 249.16666666666666 348.34681872299404 249.16666666666666 348.57156566085 249.16666666666666 C 348.68393912977797 249.16666666666666 348.740125864242 249.16666666666666 348.85249933317 249.16666666666666 C 349.07724627102596 249.16666666666666 349.189619739954 225.91111111110885 349.41436667781 199.33333333333331 C 349.526740146738 186.0444444444422 349.582926881202 149.5 349.69530035013 149.5 C 349.807673819058 149.5 349.86386055352204 249.16666666666666 349.97623402245 249.16666666666666 C 350.088607491378 249.16666666666666 350.144794225842 249.16666666666666 350.25716769477 249.16666666666666 C 350.369541163698 249.16666666666666 350.42572789816205 149.5 350.53810136709 149.5 C 350.76284830494603 149.5 350.875221773874 149.5 351.09996871173 149.5 C 351.212342180654 149.5 351.268528915116 149.5 351.38090238404 149.5 C 351.713340562952 149.5 351.879559652408 99.66666666666666 352.21199783132 99.66666666666666 C 352.324371300248 99.66666666666666 352.380558034712 99.66666666666666 352.49293150364 99.66666666666666 C 352.60530497256804 99.66666666666666 352.66149170703204 99.66666666666666 352.77386517596 99.66666666666666 C 352.886238644888 99.66666666666666 352.94242537935196 99.66666666666666 353.05479884828 99.66666666666666 C 353.167172317208 99.66666666666666 353.223359051672 149.5 353.3357325206 149.5 C 353.448105989528 149.5 353.50429272399197 149.5 353.61666619292 149.5 C 353.72903966184793 149.5 353.785226396312 199.33333333333331 353.89759986524 199.33333333333331 C 354.00997333416797 199.33333333333331 354.066160068632 149.5 354.17853353756 149.5 C 354.290907006488 149.5 354.347093740952 149.5 354.45946720988 149.5 C 354.571840678808 149.5 354.628027413272 199.33333333333331 354.7404008822 199.33333333333331 C 355.07752128898403 199.33333333333331 355.246081492376 99.66666666666666 355.58320189916 99.66666666666666 C 355.69557536808395 99.66666666666666 355.751762102546 149.5 355.86413557147 149.5 C 355.976509040398 149.5 356.03269577486196 149.5 356.14506924379 149.5 C 356.257442712718 149.5 356.313629447182 149.5 356.42600291611 149.5 C 356.538376385038 149.5 356.59456311950197 199.33333333333331 356.70693658843 199.33333333333331 C 356.819310057358 199.33333333333331 356.875496791822 199.33333333333331 356.98787026075 199.33333333333331 C 357.21261719860604 199.33333333333331 357.32499066753405 199.33333333333331 357.54973760539 199.33333333333331 C 357.662111074318 199.33333333333331 357.718297808782 249.16666666666666 357.83067127771 249.16666666666666 C 357.943044746638 249.16666666666666 357.999231481102 219.26666666667168 358.11160495003 199.33333333333331 C 358.223978418958 179.40000000000504 358.280165153422 149.5 358.39253862235 149.5 C 358.504912091278 149.5 358.561098825742 199.33333333333331 358.67347229467 199.33333333333331 C 358.785845763598 199.33333333333331 358.842032498062 99.66666666666666 358.95440596699 99.66666666666666 C 359.40389984270206 99.66666666666666 359.62864678055803 149.5 360.07814065627 149.5 C 360.302887594122 149.5 360.415261063048 99.66666666666666 360.6400080009 99.66666666666666 C 360.864754938756 99.66666666666666 360.977128407684 249.16666666666666 361.20187534554 249.16666666666666 C 361.314248814468 249.16666666666666 361.370435548932 199.33333333333331 361.48280901786 199.33333333333331 C 361.59518248678796 199.33333333333331 361.651369221252 199.33333333333331 361.76374269018 199.33333333333331 C 361.876116159108 199.33333333333331 361.932302893572 99.66666666666666 362.0446763625 99.66666666666666 C 362.157049831428 99.66666666666666 362.21323656589203 249.16666666666666 362.32561003482 249.16666666666666 C 362.410280322172 249.16666666666666 362.452615465848 49.833333333333314 362.5372857532 49.833333333333314 C 362.64965922212804 49.833333333333314 362.70584595659204 96.3444444444537 362.81821942552 132.88888888888889 C 362.930592894448 169.43333333334257 362.98677962891196 232.55555555555554 363.09915309784 232.55555555555554 C 363.211526566768 232.55555555555554 363.267713301232 218.3978414279814 363.38008677016 199.33333333333331 C 363.581032383 165.24228587242584 363.68150518942 99.66666666666666 363.88245080226 99.66666666666666 C 363.906252127276 99.66666666666666 363.918152789784 143.16701388888927 363.9419541148 149.5 C 364.14289972764 202.96701388888926 364.24337253406003 249.16666666666666 364.4443181469 249.16666666666666 C 364.468119471912 249.16666666666666 364.480020134418 174.41666666666666 364.50382145943 174.41666666666666 C 364.64858033780604 174.41666666666666 364.720959776994 249.16666666666666 364.86571865537 249.16666666666666 C 365.034278858762 249.16666666666666 365.118558960458 149.5 365.28711916385 149.5 C 365.3109204888659 149.5 365.322821151374 149.5 365.34662247639 149.5 C 365.79611635210205 149.5 366.020863289958 249.16666666666666 366.47035716567 249.16666666666666 C 366.582730634598 249.16666666666666 366.63891736906197 224.25 366.75129083799 224.25 C 366.863664306918 224.25 366.919851041382 249.16666666666666 367.03222451031 249.16666666666666 C 367.14459797923803 249.16666666666666 367.200784713702 249.16666666666666 367.31315818263 224.25 C 367.457917061006 199.33333333333334 367.53029650019397 99.66666666666666 367.67505537857 99.66666666666666 C 367.787428847498 99.66666666666666 367.84361558196207 249.16666666666666 367.95598905089 249.16666666666666 C 368.14835057929804 249.16666666666666 368.244531343502 249.16666666666666 368.43689287191 249.16666666666666 C 368.58165175028597 249.16666666666666 368.65403118947404 249.16666666666666 368.79879006785 249.16666666666666 C 368.991151596254 249.16666666666666 369.087332360456 224.25 369.27969388886 224.25 C 369.59301297062797 224.25 369.749672511512 249.16666666666666 370.06299159328 249.16666666666666 C 370.08679291829606 249.16666666666666 370.098693580804 249.16666666666666 370.12249490582 249.16666666666666 C 370.379627253124 249.16666666666666 370.5081934267761 249.16666666666666 370.76532577408 249.16666666666666 C 370.84531383356 249.16666666666666 370.8853078633 249.16666666666666 370.96529592278 249.16666666666666 C 371.07766939170796 249.16666666666666 371.13385612617196 249.16666666666666 371.2462295951 249.16666666666666 C 371.44717520794 249.16666666666666 371.54764801436 171.8328498912284 371.7485936272 149.5 C 372.085714033984 112.03284989122841 372.254274237376 99.66666666666666 372.59139464416 99.66666666666666 C 373.265635457724 99.66666666666666 373.60275586450604 199.33333333333331 374.27699667807 199.33333333333331 C 374.333183412534 199.33333333333331 374.361276779766 99.66666666666666 374.41746351423 99.66666666666666 C 374.586023717622 99.66666666666666 374.67030381931806 199.33333333333331 374.83886402271 199.33333333333331 C 374.862665347726 199.33333333333331 374.874566010234 199.33333333333331 374.89836733525 199.33333333333331 C 375.010740804178 199.33333333333331 375.066927538642 199.33333333333331 375.17930100757 199.33333333333331 C 375.291674476498 199.33333333333331 375.34786121096204 199.33333333333331 375.46023467989 199.33333333333331 C 375.572608148818 199.33333333333331 375.628794883282 199.33333333333331 375.74116835221 199.33333333333331 C 375.85354182113804 199.33333333333331 375.90972855560204 149.5 376.02210202453 149.5 C 376.134475493458 149.5 376.19066222792196 199.33333333333331 376.30303569685 199.33333333333331 C 376.415409165778 199.33333333333331 376.471595900242 199.33333333333331 376.58396936917 199.33333333333331 C 376.728728247546 199.33333333333331 376.80110768673404 199.33333333333331 376.94586656511 199.33333333333331 C 377.058240034038 199.33333333333331 377.114426768502 149.5 377.22680023743 149.5 C 377.95722778545803 149.5 378.32244155947194 149.5 379.0528691075 149.5 C 379.0766704325159 149.5 379.088571095024 149.5 379.11237242004 149.5 C 379.224745888968 149.5 379.280932623432 149.5 379.39330609236 149.5 C 379.505679561288 149.5 379.56186629575205 149.5 379.67423976468 149.5 C 379.786613233608 149.5 379.842799968072 149.5 379.955173437 149.5 C 380.067546905928 149.5 380.123733640392 149.5 380.23610710932 149.5 C 380.34848057824803 149.5 380.404667312712 149.5 380.51704078164 149.5 C 380.629414250568 149.5 380.685600985032 149.5 380.79797445396 149.5 C 380.91034792288804 149.5 380.966534657352 149.5 381.07890812628 149.5 C 381.19128159520795 149.5 381.24746832967196 174.41666666666666 381.3598417986 174.41666666666666 C 381.472215267528 174.41666666666666 381.528402001992 149.5 381.64077547092 149.5 C 381.75314893984796 149.5 381.809335674312 149.5 381.92170914324 149.5 C 382.034082612164 149.5 382.090269346626 134.54999999982354 382.20264281555 124.58333333333331 C 382.315016284478 114.61666666649018 382.371203018942 99.66666666666666 382.48357648787 99.66666666666666 C 382.628335366246 99.66666666666666 382.70071480543396 99.66666666666666 382.84547368381 99.66666666666666 C 383.46352776291394 99.66666666666666 383.77255480246606 199.33333333333331 384.39060888157 199.33333333333331 C 384.414410206586 199.33333333333331 384.426310869094 199.33333333333331 384.45011219411 199.33333333333331 C 384.562485663038 199.33333333333331 384.618672397502 249.16666666666666 384.73104586643 249.16666666666666 C 384.84341933535796 249.16666666666666 384.89960606982197 149.5 385.01197953875 149.5 C 385.124353007678 149.5 385.180539742142 149.5 385.29291321107 149.5 C 385.40528667999797 149.5 385.46147341446203 124.58333333333331 385.57384688339 124.58333333333331 C 385.686220352318 124.58333333333331 385.742407086782 124.58333333333331 385.85478055571 124.58333333333331 C 385.96715402463803 124.58333333333331 386.02334075910204 199.33333333333331 386.13571422803 199.33333333333331 C 386.24808769695403 199.33333333333331 386.30427443141605 199.33333333333331 386.41664790034 199.33333333333331 C 386.52902136926804 199.33333333333331 386.58520810373204 224.25 386.69758157266 224.25 C 387.010900654428 224.25 387.16756019531203 216.74428329707587 387.48087927708 199.33333333333331 C 387.705626214936 186.84428329707586 387.81799968386406 149.5 388.04274662172 149.5 C 388.267493559576 149.5 388.379867028504 199.33333333333331 388.60461396636 199.33333333333331 C 388.628415291376 199.33333333333331 388.64031595388394 199.33333333333331 388.6641172789 199.33333333333331 C 389.53930370530395 199.33333333333331 389.976896918506 249.16666666666666 390.85208334491 249.16666666666666 C 390.908270079374 249.16666666666666 390.936363446606 201.1454545454547 390.99255018107 199.33333333333331 C 392.172471604814 161.27878787878805 392.762432316686 149.5 393.94235374043 149.5 C 397.313557808262 149.5 398.999159842178 249.16666666666666 402.37036391001 249.16666666666666 C 403.718845537142 249.16666666666666 404.393086350708 206.9079999999929 405.74156797784 149.5 C 405.797754712304 147.10799999999293 405.825848079536 99.66666666666666 405.882034814 99.66666666666666 C 406.174324189528 99.66666666666666 406.320468877292 249.16666666666666 406.61275825282 249.16666666666666 C 406.82614948746806 249.16666666666666 406.93284510479197 249.16666666666666 407.14623633944 249.16666666666666 C 407.370983277296 249.16666666666666 407.48335674622405 149.5 407.70810368408 149.5 C 407.731905009096 149.5 407.743805671604 174.41666666666666 407.76760699662 174.41666666666666 C 407.88819777545996 174.41666666666666 407.94849316488 149.5 408.06908394372 149.5 C 408.17324010273194 149.5 408.22531818223797 199.33333333333331 408.32947434125 199.33333333333331 C 408.441847810178 199.33333333333331 408.498034544642 141.19444444445074 408.61040801357 116.27777777777777 C 408.72278148249796 91.3611111111174 408.77896821696197 74.75 408.89134168589 74.75 C 409.11608862374595 74.75 409.228462092674 136.4268398268427 409.45320903053 170.85714285714283 C 409.565582499458 188.07229437229725 409.621769233922 203.86363636363637 409.73414270285 203.86363636363637 C 409.84651617177803 203.86363636363637 409.90270290624204 143.63725490196077 410.01507637517 143.63725490196077 C 410.127449844098 143.63725490196077 410.18363657856196 150.0862745098039 410.29601004749 152.43137254901958 C 410.408383516418 154.77647058823527 410.46457025088205 152.43137254901958 410.57694371981 155.3627450980392 C 410.689317188738 158.2941176470588 410.74550392320197 174.41666666666666 410.85787739213 174.41666666666666 C 410.97025086105805 174.41666666666666 411.026437595522 116.27777777777777 411.13881106445 116.27777777777777 C 411.251184533378 116.27777777777777 411.307371267842 161.95833333333331 411.41974473677 161.95833333333331 C 411.53211820569794 161.95833333333331 411.588304940162 143.96296296296296 411.70067840909 143.96296296296296 C 411.813051878018 143.96296296296296 411.869238612482 156.61904761904762 411.98161208141 156.61904761904762 C 412.09398555033806 156.61904761904762 412.150172284802 155.03703703703704 412.26254575373 155.03703703703704 C 412.374919222658 155.03703703703704 412.43110595712204 155.03703703703704 412.54347942605 161.95833333333331 C 412.65585289497403 168.8796296296296 412.712039629436 188.2592592592593 412.82441309836 193.7962962962963 C 412.936786567288 199.33333333333331 412.99297330175204 193.7962962962963 413.10534677068 199.33333333333331 C 413.217720239608 204.87037037037032 413.273906974072 224.25 413.386280443 224.25 C 413.498653911928 224.25 413.55484064639205 174.41666666666666 413.66721411532 174.41666666666666 C 413.779587584248 174.41666666666666 413.83577431871197 199.33333333333331 413.94814778764 199.33333333333331 C 414.060521256568 199.33333333333331 414.11670799103194 149.5 414.22908145996 149.5 C 414.341454928888 149.5 414.397641663352 199.33333333333331 414.51001513228 199.33333333333331 C 414.62238860120794 199.33333333333331 414.678575335672 199.33333333333331 414.7909488046 199.33333333333331 C 414.90332227352803 199.33333333333331 414.959509007992 224.25 415.07188247692 224.25 C 415.18425594584795 224.25 415.240442680312 224.25 415.35281614924 224.25 C 415.465189618168 224.25 415.521376352632 174.41666666666666 415.63374982156 174.41666666666666 C 415.74612329048796 174.41666666666666 415.802310024952 224.25 415.91468349388 224.25 C 416.027056962808 224.25 416.083243697272 199.33333333333331 416.1956171662 199.33333333333331 C 416.39656277904 199.33333333333331 416.49703558545997 249.16666666666666 416.6979811983 249.16666666666666 C 416.81035466722795 249.16666666666666 416.86654140169196 224.00725883475704 416.97891487062 199.33333333333331 C 417.002716195636 194.10725883475703 417.01461685814394 174.41666666666666 417.03841818316 174.41666666666666 C 417.15079165208397 174.41666666666666 417.20697838654604 174.41666666666666 417.31935185547 174.41666666666666 C 417.43172532439803 174.41666666666666 417.487912058862 124.58333333333331 417.60028552779 124.58333333333331 C 417.712658996718 124.58333333333331 417.76884573118207 124.58333333333331 417.88121920011 124.58333333333331 C 418.08216481295005 124.58333333333331 418.18263761937004 199.33333333333331 418.38358323221 199.33333333333331 C 418.4397699666741 199.33333333333331 418.467863333906 49.833333333333314 418.52405006837 49.833333333333314 C 418.60403812785006 49.833333333333314 418.64403215758995 174.41666666666666 418.72402021707 174.41666666666666 C 418.83639368599796 174.41666666666666 418.892580420462 149.5 419.00495388939 149.5 C 419.117327358318 149.5 419.173514092782 199.33333333333331 419.28588756171 199.33333333333331 C 419.48683317455 199.33333333333331 419.58730598097 199.33333333333331 419.78825159381 199.33333333333331 C 419.812052918826 199.33333333333331 419.82395358133397 174.41666666666666 419.84775490635 174.41666666666666 C 419.997280552822 174.41666666666666 420.072043376058 199.33333333333331 420.22156902253 199.33333333333331 C 420.33088603715396 199.33333333333331 420.38554454446603 149.5 420.49486155909 149.5 C 420.66171144869 149.5 420.74513639349 149.5 420.91198628309 149.5 C 421.024359752018 149.5 421.08054648648204 149.5 421.19291995541 149.5 C 421.216721280426 149.5 421.228621942934 99.66666666666666 421.25242326795 99.66666666666666 C 421.364796736874 99.66666666666666 421.42098347133594 99.66666666666666 421.53335694026 99.66666666666666 C 421.64573040918793 99.66666666666666 421.701917143652 99.66666666666666 421.81429061258 99.66666666666666 C 421.92666408150797 99.66666666666666 421.982850815972 114.61666666666412 422.0952242849 124.58333333333331 C 422.20759775382794 134.54999999999748 422.263784488292 134.54999999999623 422.37615795722 149.5 C 422.488531426148 164.44999999999624 422.544718160612 179.4 422.65709162954 199.33333333333331 C 422.769465098468 219.26666666666665 422.825651832932 249.16666666666666 422.93802530186 249.16666666666666 C 423.050398770788 249.16666666666666 423.10658550525204 209.29999999999998 423.21895897418 199.33333333333331 C 423.331332443108 189.36666666666665 423.387519177572 189.36666666666665 423.4998926465 189.36666666666665 C 423.612266115428 189.36666666666665 423.66845284989205 189.69716637447445 423.78082631882 199.33333333333331 C 423.947399176604 213.61716637447444 424.030685605496 249.16666666666666 424.19725846328 249.16666666666666 C 424.25543254335196 249.16666666666666 424.28451958338803 166.11111111111111 424.34269366346 166.11111111111111 C 424.455067132388 166.11111111111111 424.511253866852 199.33333333333331 424.62362733578 199.33333333333331 C 424.82457294861996 199.33333333333331 424.92504575504 149.5 425.12599136788 149.5 C 425.14979269289597 149.5 425.161693355404 249.16666666666666 425.18549468042 249.16666666666666 C 425.33608683435193 249.16666666666666 425.411382911318 219.36789062484257 425.56197506525 199.33333333333331 C 425.636129849174 189.46789062484257 425.67320724113597 187.2669575372373 425.74736202506 174.41666666666666 C 425.90326460576796 147.40029087057061 425.981215896122 99.66666666666666 426.13711847683 99.66666666666666 C 426.205962833974 99.66666666666666 426.24038501254597 151.93770058237553 426.30922936969 166.11111111111111 C 426.53085092044205 211.7377005823755 426.641661695818 249.16666666666666 426.86328324657 249.16666666666666 C 427.315902509386 249.16666666666666 427.542212140794 249.16666666666666 427.99483140361 249.16666666666666 C 428.434860675926 249.16666666666666 428.654875312084 243.61373473404626 429.0949045844 199.33333333333331 C 429.24912806617203 183.81373473404625 429.326239807058 99.66666666666666 429.48046328883 99.66666666666666 C 429.59283675775805 99.66666666666666 429.649023492222 143.03804592522832 429.76139696115 149.5 C 430.515625834194 192.87137925856166 430.892740270716 189.55289659314843 431.64696914376 224.25 C 431.75934261268793 229.41956325981508 431.815529347152 249.16666666666666 431.92790281608 249.16666666666666 C 432.12884842892 249.16666666666666 432.22932123534 194.05584490740773 432.43026684818 149.5 C 432.454068173196 144.22251157407442 432.465968835704 124.58333333333331 432.48977016072 124.58333333333331 C 432.622355246628 124.58333333333331 432.688647789582 199.33333333333331 432.82123287549 199.33333333333331 C 432.96667848062197 199.33333333333331 433.039401283188 49.833333333333314 433.18484688832 49.833333333333314 C 433.29942750744004 49.833333333333314 433.356717817 125.35963286816971 433.47129843612 149.5 C 433.6405544706 185.15963286816972 433.72518248784 177.84494653487081 433.89443852232 199.33333333333331 C 434.039197400696 217.71161320153746 434.11157683988404 249.16666666666666 434.25633571826 249.16666666666666 C 434.33632377774 249.16666666666666 434.37631780747995 232.970833333585 434.45630586696 215.94444444444446 C 434.657251479796 173.170833333585 434.75772428621406 99.66666666666666 434.95866989905 99.66666666666666 C 434.982471224066 99.66666666666666 434.994371886574 149.5 435.01817321159 149.5 C 435.21911882443 149.5 435.31959163085 99.66666666666666 435.52053724369 99.66666666666666 C 435.88145897549003 99.66666666666666 436.06191984139 99.66666666666666 436.42284157319 99.66666666666666 C 436.535215042118 99.66666666666666 436.591401776582 134.5500000000038 436.70377524551 149.5 C 436.816148714438 164.45000000000377 436.87233544890205 161.12777777778447 436.98470891783 174.41666666666666 C 437.2094558556861 200.99444444445115 437.321829324614 249.16666666666666 437.54657626247 249.16666666666666 C 437.658949731398 249.16666666666666 437.715136465862 232.89387384318 437.82750993479 224.25 C 437.97427696867396 212.96054050984665 438.04766048561595 199.33333333333331 438.1944275195 199.33333333333331 C 438.2724074234719 199.33333333333331 438.311397375458 209.3 438.38937727943 209.3 C 438.50175074835806 209.3 438.557937482822 209.3 438.67031095175 199.33333333333331 C 438.842720986946 189.36666666666662 438.928926004544 99.66666666666666 439.10133603974 99.66666666666666 C 439.15367294239593 99.66666666666666 439.179841393724 199.33333333333331 439.23217829638 199.33333333333331 C 439.344551765308 199.33333333333331 439.400738499772 99.66666666666666 439.5131119687 99.66666666666666 C 439.62548543762796 99.66666666666666 439.681672172092 199.33333333333331 439.79404564102 199.33333333333331 C 439.99499125386 199.33333333333331 440.09546406028005 149.5 440.29640967312 149.5 C 440.320210998136 149.5 440.33211166064405 174.41666666666666 440.35591298566 174.41666666666666 C 441.030153799228 174.41666666666666 441.367274206012 99.66666666666666 442.04151501958 99.66666666666666 C 442.15388848850796 99.66666666666666 442.21007522297197 199.33333333333331 442.3224486919 199.33333333333331 C 442.43482216082793 199.33333333333331 442.491008895292 199.33333333333331 442.60338236422 199.33333333333331 C 442.71575583314797 199.33333333333331 442.771942567612 99.66666666666666 442.88431603654 99.66666666666666 C 443.08526164937604 99.66666666666666 443.18573445579403 249.16666666666666 443.38668006863 249.16666666666666 C 443.410481393646 249.16666666666666 443.42238205615405 124.58333333333331 443.44618338117 124.58333333333331 C 443.558556850098 124.58333333333331 443.614743584562 174.41666666666663 443.72711705349 199.33333333333331 C 443.951863991346 224.25 444.06423746027406 224.25 444.28898439813 224.25 C 444.48993001097006 224.25 444.59040281739 199.33333333333331 444.79134843023 199.33333333333331 C 444.81514975524595 199.33333333333331 444.827050417754 199.33333333333331 444.85085174277 199.33333333333331 C 444.96322521169805 199.33333333333331 445.019411946162 194.35 445.13178541509 174.41666666666666 C 445.244158884018 154.48333333333332 445.30034561848197 99.66666666666666 445.41271908741 99.66666666666666 C 445.52509255633794 99.66666666666666 445.581279290802 199.33333333333331 445.69365275973 199.33333333333331 C 445.80602622865797 199.33333333333331 445.862212963122 166.11111111111111 445.97458643205 166.11111111111111 C 446.08695990097806 166.11111111111111 446.143146635442 199.33333333333331 446.25552010437 199.33333333333331 C 446.367893573298 199.33333333333331 446.42408030776204 174.41666666666666 446.53645377669 174.41666666666666 C 446.648827245618 174.41666666666666 446.705013980082 215.94444444444446 446.81738744901 215.94444444444446 C 446.929760917938 215.94444444444446 446.98594765240205 149.5 447.09832112133 149.5 C 447.210694590258 149.5 447.266881324722 199.33333333333331 447.37925479365 199.33333333333331 C 447.491628262578 199.33333333333331 447.54781499704205 199.33333333333331 447.66018846597 199.33333333333331 C 447.77256193489404 199.33333333333331 447.828748669356 174.41666666636837 447.94112213828 157.80555555555554 C 448.053495607208 141.19444444414614 448.10968234167194 127.90555555555848 448.2220558106 116.27777777777777 C 448.334429279528 104.65000000000295 448.390616013992 99.66666666666666 448.50298948292 99.66666666666666 C 448.61536295184794 99.66666666666666 448.671549686312 99.66666666666666 448.78392315524 99.66666666666666 C 448.89629662416803 99.66666666666666 448.952483358632 149.5 449.06485682756 149.5 C 449.17723029648795 149.5 449.233417030952 99.66666666666666 449.34579049988 99.66666666666666 C 449.458163968808 99.66666666666666 449.514350703272 149.5 449.6267241722 149.5 C 449.73909764112796 149.5 449.795284375592 146.1777777777744 449.90765784452 132.88888888888889 C 450.020031313448 119.59999999999664 450.076218047912 83.05555555555557 450.18859151684 83.05555555555557 C 450.300964985768 83.05555555555557 450.357151720232 99.66666666666666 450.46952518916 99.66666666666666 C 450.8066455959441 99.66666666666666 450.9752057993361 99.66666666666666 451.31232620612 99.66666666666666 C 451.42469967504803 99.66666666666666 451.480886409512 99.66666666666666 451.59325987844 99.66666666666666 C 451.705633347368 99.66666666666666 451.76182008183207 99.66666666666666 451.87419355076 99.66666666666666 C 451.986567019684 99.66666666666666 452.042753754146 174.41666666666666 452.15512722307 174.41666666666666 C 452.26750069199807 174.41666666666666 452.323687426462 174.41666666666666 452.43606089539 174.41666666666666 C 452.54843436431804 174.41666666666666 452.604621098782 124.58333333333331 452.71699456771 124.58333333333331 C 452.82936803663796 124.58333333333331 452.885554771102 132.88888888888889 452.99792824003 132.88888888888889 C 453.110301708958 132.88888888888889 453.166488443422 124.58333333333331 453.27886191235 124.58333333333331 C 453.39123538127797 124.58333333333331 453.44742211574203 149.5 453.55979558467 149.5 C 453.672169053598 149.5 453.728355788062 99.66666666666666 453.84072925699 99.66666666666666 C 453.953102725918 99.66666666666666 454.00928946038204 99.66666666666666 454.12166292931 99.66666666666666 C 454.234036398238 99.66666666666666 454.29022313270195 99.66666666666666 454.40259660163 99.66666666666666 C 454.51497007055804 99.66666666666666 454.57115680502204 129.5666666666717 454.68353027395 149.5 C 454.795903742878 169.43333333333837 454.85209047734196 199.33333333333331 454.96446394627 199.33333333333331 C 455.33425329741004 199.33333333333331 455.51914797297997 149.5 455.88893732412 149.5 C 456.193388786544 149.5 456.34561451775596 149.5 456.65006598018 149.5 C 456.85101159301996 149.5 456.95148439943995 199.33333333333331 457.15243001228 199.33333333333331 C 457.26480348120793 199.33333333333331 457.320990215672 199.33333333333331 457.4333636846 199.33333333333331 C 457.45716500961606 199.33333333333331 457.469065672124 224.25 457.49286699714 224.25 C 457.637625875516 224.25 457.710005314704 224.25 457.85476419308 199.33333333333331 C 457.93475225256 174.41666666666663 457.9747462822999 124.58333333333331 458.05473434178 124.58333333333331 C 458.199493220156 124.58333333333331 458.271872659344 249.16666666666666 458.41663153772 249.16666666666666 C 458.4966195972 249.16666666666666 458.53661362694004 174.41666666666666 458.61660168642 174.41666666666666 C 458.841348624276 174.41666666666666 458.95372209320396 199.33333333333331 459.17846903106 199.33333333333331 C 459.29084249998795 199.33333333333331 459.347029234452 174.41666666666666 459.45940270338 174.41666666666666 C 459.571776172308 174.41666666666666 459.627962906772 189.36666666666665 459.7403363757 189.36666666666665 C 459.85270984462807 189.36666666666665 459.908896579092 124.58333333333331 460.02127004802 124.58333333333331 C 460.133643516948 124.58333333333331 460.18983025141205 149.5 460.30220372034 149.5 C 460.51690988064803 149.5 460.62426296080196 149.5 460.83896912111 149.5 C 460.849009898658 149.5 460.854030287432 215.94444444444446 460.86407106498 215.94444444444446 C 461.00882994335205 215.94444444444446 461.08120938253796 99.66666666666666 461.22596826091 99.66666666666666 C 461.30595632039 99.66666666666666 461.34595035013007 224.25 461.42593840961 224.25 C 461.538311878538 224.25 461.594498613002 197.67222222222225 461.70687208193 182.72222222222223 C 461.819245550858 167.77222222222224 461.87543228532195 149.5 461.98780575425 149.5 C 462.10017922317803 149.5 462.156365957642 189.36666666666665 462.26873942657 189.36666666666665 C 462.413498304946 189.36666666666665 462.485877744134 99.66666666666666 462.63063662251 99.66666666666666 C 462.743010091438 99.66666666666666 462.7991968259021 132.03306288032755 462.91157029483 149.5 C 462.99155835431003 161.93306288032753 463.03155238405 174.41666666666666 463.11154044353 174.41666666666666 C 463.25629932190594 174.41666666666666 463.32867876109395 149.5 463.47343763947 149.5 C 463.58581110839805 149.5 463.641997842862 149.5 463.75437131179 149.5 C 463.866744780718 149.5 463.922931515182 249.16666666666666 464.03530498411 249.16666666666666 C 464.11529304358993 249.16666666666666 464.15528707333 199.33333333333331 464.23527513281 199.33333333333331 C 464.388688329034 199.33333333333331 464.465394927146 199.33333333333331 464.61880812337 199.33333333333331 C 464.747333977838 199.33333333333331 464.811596905072 199.33333333333331 464.94012275954 199.33333333333331 C 465.37439159095203 199.33333333333331 465.591526006658 249.16666666666666 466.02579483807 249.16666666666666 C 466.15491897721006 249.16666666666666 466.21948104678006 199.33333333333331 466.34860518592 199.33333333333331 C 466.43464632554407 199.33333333333331 466.47766689535604 199.33333333333331 466.56370803498 199.33333333333331 C 466.676081503908 199.33333333333331 466.73226823837194 149.5 466.8446417073 149.5 C 466.957015176228 149.5 467.013201910692 149.5 467.12557537962 149.5 C 467.411585367324 149.5 467.554590361176 149.5 467.84060034888 149.5 C 468.00408423688805 149.5 468.085826180892 149.5 468.2493100689 149.5 C 468.32929812838 149.5 468.36929215811995 186.90027045300428 468.4492802176 199.33333333333331 C 468.561653686528 216.8002704530043 468.61784042099197 224.25 468.73021388992 224.25 C 468.84258735884794 224.25 468.898774093312 215.94444444444446 469.01114756224 215.94444444444446 C 469.123521031168 215.94444444444446 469.179707765632 249.16666666666666 469.29208123456 249.16666666666666 C 469.40445470348794 249.16666666666666 469.460641437952 249.16666666666666 469.57301490688 249.16666666666666 C 469.9101353136601 249.16666666666666 470.07869551705 232.55555555555554 470.41581592383 232.55555555555554 C 470.56057480220596 232.55555555555554 470.632954241394 249.16666666666666 470.77771311977 249.16666666666666 C 470.89008658869795 249.16666666666666 470.94627332316196 199.33333333333331 471.05864679209 199.33333333333331 C 471.13863485157 199.33333333333331 471.1786288813099 217.17736398775645 471.25861694079 224.25 C 471.40406514715795 237.1106973210898 471.476789250342 249.16666666666666 471.62223745671 249.16666666666666 C 471.733921597646 249.16666666666666 471.789763668114 199.33333333333331 471.90144780905 199.33333333333331 C 472.01382127797797 199.33333333333331 472.07000801244203 199.33333333333331 472.18238148137 199.33333333333331 C 472.36710837710996 199.33333333333331 472.45947182498 199.33333333333331 472.64419872072 199.33333333333331 C 472.684218762836 199.33333333333331 472.704228783894 149.5 472.74424882601 149.5 C 472.98159355807803 149.5 473.10026592411197 249.16666666666666 473.33761065618 249.16666666666666 C 473.51737439037595 249.16666666666666 473.607256257474 248.85509892446643 473.78701999167 224.25 C 474.04415233897 189.05509892446645 474.17271851262 99.66666666666666 474.42985085992 99.66666666666666 C 474.54222432884796 99.66666666666666 474.59841106331197 99.66666666666666 474.71078453224 99.66666666666666 C 474.82315800116794 99.66666666666666 474.879344735632 249.16666666666666 474.99171820456 249.16666666666666 C 475.106865893504 249.16666666666666 475.16443973797595 249.16666666666666 475.27958742692 249.16666666666666 C 475.39500044210797 249.16666666666666 475.452706949702 249.16666666666666 475.56811996489 249.16666666666666 C 475.67512447919 249.16666666666666 475.72862673634 249.16666666666666 475.83563125064 249.16666666666666 C 475.94755990792 249.16666666666666 476.00352423655994 249.16666666666666 476.11545289384 249.16666666666666 C 476.228113799536 249.16666666666666 476.28444425238405 249.16666666666666 476.39710515808 249.16666666666666 C 476.476805780792 249.16666666666666 476.51665609214797 249.16666666666666 476.59635671486 249.16666666666666 C 476.75152184468 249.16666666666666 476.82910440959006 249.16666666666666 476.98426953941 249.16666666666666 C 477.086236756894 249.16666666666666 477.1372203656359 99.66666666666666 477.23918758312 99.66666666666666 C 477.31917564260004 99.66666666666666 477.35916967234 249.16666666666666 477.43915773182 249.16666666666666 C 477.551531200748 249.16666666666666 477.607717935212 249.16666666666666 477.72009140414 224.25 C 477.83246487306803 199.33333333333334 477.88865160753204 99.66666666666666 478.00102507646 99.66666666666666 C 478.113398545388 99.66666666666666 478.1695852798521 99.66666666666666 478.28195874878 99.66666666666666 C 478.426717627152 99.66666666666666 478.499097066338 99.66666666666666 478.64385594471 99.66666666666666 C 478.757336240282 99.66666666666666 478.814076388068 249.16666666666666 478.92755668364 249.16666666666666 C 479.55064415770795 249.16666666666666 479.86218789474196 99.66666666666666 480.48527536881 99.66666666666666 C 480.8724422884499 99.66666666666666 481.0660257482699 99.66666666666666 481.45319266791 99.66666666666666 C 481.677939605766 99.66666666666666 481.7903130746939 249.16666666666666 482.01506001255 249.16666666666666 C 482.57692735718604 249.16666666666666 482.85786102950397 199.33333333333331 483.41972837414 199.33333333333331 C 483.532101843068 199.33333333333331 483.58828857753207 199.33333333333331 483.70066204646 199.33333333333331 C 483.78065010594 199.33333333333331 483.82064413568 199.33333333333331 483.90063219516 199.33333333333331 C 484.013005664088 199.33333333333331 484.069192398552 199.33333333333331 484.18156586748 199.33333333333331 C 484.390762606324 199.33333333333331 484.495360975746 199.33333333333331 484.70455771459 199.33333333333331 C 484.72010791360196 199.33333333333331 484.727883013108 249.16666666666666 484.74343321212 249.16666666666666 C 484.91459075136 249.16666666666666 485.00016952098 225.870175686733 485.17132706022 199.33333333333331 C 485.25730186828406 186.00350902006636 485.300289272316 149.5 485.38626408038 149.5 C 485.52222427221204 149.5 485.59020436812796 175.21607638909472 485.72616455996 199.33333333333331 C 485.814951305984 215.08274305576137 485.8593446789961 249.16666666666666 485.94813142502 249.16666666666666 C 486.132522761092 249.16666666666666 486.224718429128 237.5481884150178 486.4091097652 199.33333333333331 C 486.41707995753603 197.68152174835114 486.42106505370396 149.5 486.42903524604 149.5 C 486.57379412441594 149.5 486.64617356360395 149.5 486.79093244198 149.5 C 487.20804090824004 149.5 487.41659514137 99.66666666666666 487.83370360763 99.66666666666666 C 487.978631566458 99.66666666666666 488.051095545872 99.66666666666666 488.1960235047 99.66666666666666 C 488.30822789317597 99.66666666666666 488.364330087414 149.5 488.47653447589 149.5 C 488.58926301376596 149.5 488.645627282704 149.5 488.75835582058 149.5 C 488.90671611256005 149.5 488.98089625855 199.33333333333331 489.12925655053 199.33333333333331 C 489.17290271800994 199.33333333333331 489.19472580175 167.83112922854136 489.23837196923 159.46666666666667 C 489.350745438158 137.93112922854135 489.40693217262196 143.64012253782255 489.51930564155 124.58333333333331 C 489.665525114898 99.78678920448918 489.738634851572 49.833333333333314 489.88485432492 49.833333333333314 C 489.995767198876 49.833333333333314 490.05122363585406 149.5 490.16213650981 149.5 C 490.499256916594 149.5 490.667817119986 99.66666666666666 491.00493752677 99.66666666666666 C 491.11731099569806 99.66666666666666 491.173497730162 199.33333333333331 491.28587119909 199.33333333333331 C 491.398244668014 199.33333333333331 491.45443140247596 179.3999999994782 491.5668048714 149.5 C 491.67917834032795 119.59999999947819 491.735365074792 49.833333333333314 491.84773854372 49.833333333333314 C 491.960112012648 49.833333333333314 492.016298747112 99.66666666666666 492.12867221604 99.66666666666666 C 492.24104568496796 99.66666666666666 492.297232419432 99.66666666666666 492.40960588836 99.66666666666666 C 492.521979357288 99.66666666666666 492.578166091752 199.33333333333331 492.69053956068 199.33333333333331 C 493.364780374248 199.33333333333331 493.70190078103207 149.5 494.3761415946 149.5 C 494.48851506352804 149.5 494.544701797992 249.16666666666666 494.65707526692 249.16666666666666 C 494.76944873584796 249.16666666666666 494.82563547031197 199.33333333333331 494.93800893924 199.33333333333331 C 495.05038240816793 199.33333333333331 495.106569142632 199.33333333333331 495.21894261156 199.33333333333331 C 495.55606301833996 199.33333333333331 495.72462322173 199.33333333333331 496.06174362851 199.33333333333331 C 496.174117097438 199.33333333333331 496.230303831902 199.33333333333331 496.34267730083 199.33333333333331 C 496.45505076975803 199.33333333333331 496.51123750422204 99.66666666666666 496.62361097315 99.66666666666666 C 496.735984442078 99.66666666666666 496.79217117654207 199.33333333333331 496.90454464547 199.33333333333331 C 497.01691811439804 199.33333333333331 497.07310484886204 199.33333333333331 497.18547831779 199.33333333333331 C 497.410225255646 199.33333333333331 497.522598724574 149.5 497.74734566243 149.5 C 497.859719131358 149.5 497.91590586582197 199.33333333333331 498.02827933475 199.33333333333331 C 498.14065280367794 199.33333333333331 498.196839538142 199.33333333333331 498.30921300707 199.33333333333331 C 498.53395994492604 199.33333333333331 498.646333413854 199.33333333333331 498.87108035171 199.33333333333331 C 498.983453820638 199.33333333333331 499.03964055510204 169.4333333333283 499.15201402403 149.5 C 499.264387492958 129.56666666666163 499.320574227422 99.66666666666666 499.43294769635 99.66666666666666 C 499.657694634206 99.66666666666666 499.77006810313395 199.33333333333331 499.99481504099 199.33333333333331 C 500.2195619788419 199.33333333333331 500.33193544776793 176.07777777762092 500.55668238562 149.5 C 500.669055854548 136.21111111095425 500.72524258901194 99.66666666666666 500.83761605794 99.66666666666666 C 500.949989526868 99.66666666666666 501.006176261332 99.66666666666666 501.11854973026 99.66666666666666 C 501.23092319918794 99.66666666666666 501.287109933652 199.33333333333331 501.39948340258 199.33333333333331 C 501.51185687150803 199.33333333333331 501.568043605972 199.33333333333331 501.6804170749 199.33333333333331 C 501.79279054382795 199.33333333333331 501.848977278292 199.33333333333331 501.96135074722 199.33333333333331 C 502.073724216148 199.33333333333331 502.129910950612 99.66666666666666 502.24228441954 99.66666666666666 C 502.46703135739597 99.66666666666666 502.57940482632404 99.66666666666666 502.80415176418 99.66666666666666 C 502.916525233108 99.66666666666666 502.972711967572 129.5666666666717 503.0850854365 149.5 C 503.197458905428 169.43333333333837 503.25364563989206 199.33333333333331 503.36601910882 199.33333333333331 C 503.478392577748 199.33333333333331 503.53457931221203 199.33333333333331 503.64695278114 199.33333333333331 C 503.759326250068 199.33333333333331 503.81551298453206 149.5 503.92788645346 149.5 C 504.26500686024 149.5 504.43356706363 199.33333333333331 504.77068747041 199.33333333333331 C 504.88306093933807 199.33333333333331 504.939247673802 149.5 505.05162114273 149.5 C 505.16399461165804 149.5 505.220181346122 199.33333333333331 505.33255481505 199.33333333333331 C 505.44492828397796 199.33333333333331 505.501115018442 149.5 505.61348848737 149.5 C 506.0629823630819 149.5 506.287729300938 149.5 506.73722317665 149.5 C 506.961970114506 149.5 507.074343583434 99.66666666666666 507.29909052129 99.66666666666666 C 507.52383745914597 99.66666666666666 507.636210928074 199.33333333333331 507.86095786593 199.33333333333331 C 508.08570480378603 199.33333333333331 508.198078272714 149.5 508.42282521057 149.5 C 508.64757214842604 149.5 508.759945617354 149.5 508.98469255521 149.5 C 509.097066024134 149.5 509.15325275859595 149.5 509.26562622752 149.5 C 509.377999696448 149.5 509.434186430912 199.33333333333331 509.54655989984 199.33333333333331 C 509.88368030662406 199.33333333333331 510.0522405100161 199.33333333333331 510.3893609168 199.33333333333331 C 510.726481323584 199.33333333333331 510.895041526976 199.33333333333331 511.23216193376 199.33333333333331 C 511.456908871616 199.33333333333331 511.56928234054396 199.33333333333331 511.7940292784 199.33333333333331 C 512.018776216256 199.33333333333331 512.131149685184 149.5 512.35589662304 149.5 C 512.4682700919681 149.5 512.524456826432 199.33333333333331 512.63683029536 199.33333333333331 C 512.749203764288 199.33333333333331 512.8053904987521 199.33333333333331 512.91776396768 199.33333333333331 C 513.0301374366079 199.33333333333331 513.086324171072 199.33333333333331 513.19869764 199.33333333333331 C 513.311071108928 199.33333333333331 513.3672578433919 199.33333333333331 513.47963131232 199.33333333333331 C 513.592004781244 199.33333333333331 513.648191515706 199.33333333333331 513.76056498463 199.33333333333331 C 513.8729384535579 199.33333333333331 513.929125188022 249.16666666666666 514.04149865695 249.16666666666666 C 514.153872125878 249.16666666666666 514.210058860342 149.5 514.32243232927 149.5 C 514.547179267126 149.5 514.659552736054 199.33333333333331 514.88429967391 199.33333333333331 C 514.9966731428381 199.33333333333331 515.052859877302 199.33333333333331 515.16523334623 199.33333333333331 C 515.277606815158 199.33333333333331 515.333793549622 199.33333333333331 515.44616701855 199.33333333333331 C 515.558540487478 199.33333333333331 515.614727221942 199.33333333333331 515.72710069087 199.33333333333331 C 515.839474159798 199.33333333333331 515.8956608942619 199.33333333333331 516.00803436319 199.33333333333331 C 516.120407832118 199.33333333333331 516.176594566582 199.33333333333331 516.28896803551 199.33333333333331 C 516.401341504438 199.33333333333331 516.457528238902 199.33333333333331 516.56990170783 199.33333333333331 C 516.682275176758 199.33333333333331 516.738461911222 199.33333333333331 516.85083538015 199.33333333333331 C 516.963208849078 199.33333333333331 517.019395583542 199.33333333333331 517.13176905247 199.33333333333331 C 517.244142521398 199.33333333333331 517.300329255862 199.33333333333331 517.41270272479 199.33333333333331 C 517.5250761937181 199.33333333333331 517.581262928182 199.33333333333331 517.69363639711 199.33333333333331 C 517.8060098660341 199.33333333333331 517.862196600496 199.33333333333331 517.97457006942 199.33333333333331 C 518.086943538348 199.33333333333331 518.143130272812 199.33333333333331 518.25550374174 199.33333333333331 C 518.367877210668 199.33333333333331 518.424063945132 99.66666666666666 518.53643741406 99.66666666666666 C 518.648810882988 99.66666666666666 518.7049976174519 199.33333333333331 518.81737108638 199.33333333333331 C 519.042118024236 199.33333333333331 519.154491493164 99.66666666666666 519.37923843102 99.66666666666666 C 519.4916118999479 99.66666666666666 519.547798634412 136.2111111111111 519.66017210334 149.5 C 519.884919041196 176.07777777777778 519.997292510124 199.33333333333331 520.22203944798 199.33333333333331 C 520.3344129169079 199.33333333333331 520.390599651372 199.33333333333331 520.5029731203 199.33333333333331 C 520.615346589228 199.33333333333331 520.671533323692 199.33333333333331 520.78390679262 199.33333333333331 C 520.896280261548 199.33333333333331 520.9524669960119 199.33333333333331 521.06484046494 199.33333333333331 C 521.177213933868 199.33333333333331 521.233400668332 199.33333333333331 521.34577413726 199.33333333333331 C 521.458147606188 199.33333333333331 521.514334340652 199.33333333333331 521.62670780958 199.33333333333331 C 521.739081278508 199.33333333333331 521.795268012972 199.33333333333331 521.9076414819 199.33333333333331 C 522.132388419752 199.33333333333331 522.244761888678 199.33333333333331 522.46950882653 199.33333333333331 C 522.5818822954581 199.33333333333331 522.638069029922 199.33333333333331 522.75044249885 199.33333333333331 C 522.862815967778 199.33333333333331 522.919002702242 199.33333333333331 523.03137617117 199.33333333333331 C 523.143749640098 199.33333333333331 523.199936374562 199.33333333333331 523.31230984349 199.33333333333331 C 523.424683312418 199.33333333333331 523.4808700468819 199.33333333333331 523.59324351581 199.33333333333331 C 523.705616984738 199.33333333333331 523.761803719202 199.33333333333331 523.87417718813 199.33333333333331 C 523.986550657058 199.33333333333331 524.042737391522 99.66666666666666 524.15511086045 99.66666666666666 C 524.267484329378 99.66666666666666 524.323671063842 99.66666666666666 524.43604453277 99.66666666666666 C 524.548418001698 99.66666666666666 524.604604736162 149.5 524.71697820509 149.5 C 524.829351674018 149.5 524.885538408482 119.6 524.99791187741 99.66666666666666 C 525.1102853463381 79.73333333333332 525.166472080802 49.833333333333314 525.27884554973 49.833333333333314 C 525.391219018658 49.833333333333314 525.447405753122 99.66666666666666 525.55977922205 99.66666666666666 C 525.672152690978 99.66666666666666 525.7283394254421 99.66666666666666 525.84071289437 99.66666666666666 C 525.9530863632979 99.66666666666666 526.0092730977619 99.66666666666666 526.12164656669 99.66666666666666 C 526.2340200356181 99.66666666666666 526.2902067700819 99.66666666666666 526.40258023901 99.66666666666666 C 526.73970064579 99.66666666666666 526.90826084918 199.33333333333331 527.24538125596 199.33333333333331 C 527.3577547248881 199.33333333333331 527.413941459352 99.66666666666666 527.52631492828 99.66666666666666 C 528.08818227292 99.66666666666666 528.3691159452401 199.33333333333331 528.93098328988 199.33333333333331 C 529.043356758808 199.33333333333331 529.099543493272 199.33333333333331 529.2119169622 199.33333333333331 C 529.324290431128 199.33333333333331 529.380477165592 159.46666666666667 529.49285063452 149.5 C 529.829971041304 119.6 529.998531244696 99.66666666666666 530.33565165148 99.66666666666666 C 530.448025120408 99.66666666666666 530.504211854872 149.5 530.6165853238 149.5 C 530.728958792728 149.5 530.785145527192 99.66666666666666 530.89751899612 99.66666666666666 C 531.009892465044 99.66666666666666 531.066079199506 99.66666666666666 531.17845266843 99.66666666666666 C 531.2908261373581 99.66666666666666 531.347012871822 99.66666666666666 531.45938634075 99.66666666666666 C 531.571759809678 99.66666666666666 531.627946544142 99.66666666666666 531.74032001307 99.66666666666666 C 531.852693481998 99.66666666666666 531.908880216462 99.66666666666666 532.02125368539 99.66666666666666 C 532.133627154318 99.66666666666666 532.189813888782 99.66666666666666 532.30218735771 99.66666666666666 C 532.414560826638 99.66666666666666 532.4707475611019 199.33333333333331 532.58312103003 199.33333333333331 C 532.695494498958 199.33333333333331 532.751681233422 99.66666666666666 532.86405470235 99.66666666666666 C 532.976428171278 99.66666666666666 533.0326149057421 99.66666666666666 533.14498837467 99.66666666666666 C 533.2573618435979 99.66666666666666 533.313548578062 99.66666666666666 533.42592204699 99.66666666666666 C 533.5382955159181 99.66666666666666 533.5944822503819 149.5 533.70685571931 149.5 C 533.8192291882381 149.5 533.8754159227021 99.66666666666666 533.98778939163 99.66666666666666 C 534.1001628605579 99.66666666666666 534.156349595022 199.33333333333331 534.26872306395 199.33333333333331 C 534.381096532878 199.33333333333331 534.437283267342 199.33333333333331 534.54965673627 199.33333333333331 C 534.662030205198 199.33333333333331 534.7182169396619 199.33333333333331 534.83059040859 199.33333333333331 C 534.942963877518 199.33333333333331 534.999150611982 199.33333333333331 535.11152408091 199.33333333333331 C 535.2238975498381 199.33333333333331 535.280084284302 199.33333333333331 535.39245775323 199.33333333333331 C 535.504831222154 199.33333333333331 535.561017956616 199.33333333333331 535.67339142554 199.33333333333331 C 535.785764894468 199.33333333333331 535.841951628932 199.33333333333331 535.95432509786 199.33333333333331 C 536.066698566788 199.33333333333331 536.122885301252 199.33333333333331 536.23525877018 199.33333333333331 C 536.3476322391081 199.33333333333331 536.403818973572 149.5 536.5161924425 149.5 C 536.628565911428 149.5 536.684752645892 179.4 536.79712611482 199.33333333333331 C 536.909499583748 219.26666666666665 536.965686318212 249.16666666666666 537.07805978714 249.16666666666666 C 537.190433256068 249.16666666666666 537.2466199905319 199.33333333333331 537.35899345946 199.33333333333331 C 537.471366928388 199.33333333333331 537.527553662852 249.16666666666666 537.63992713178 249.16666666666666 C 537.752300600708 249.16666666666666 537.808487335172 249.16666666666666 537.9208608041 249.16666666666666 C 538.033234273028 249.16666666666666 538.089421007492 249.16666666666666 538.20179447642 249.16666666666666 C 538.314167945348 249.16666666666666 538.370354679812 199.33333333333331 538.48272814874 199.33333333333331 C 538.595101617668 199.33333333333331 538.651288352132 199.33333333333331 538.76366182106 199.33333333333331 C 538.8760352899881 199.33333333333331 538.932222024452 249.16666666666666 539.04459549338 249.16666666666666 C 539.156968962308 249.16666666666666 539.213155696772 249.16666666666666 539.3255291657 249.16666666666666 C 539.437902634628 249.16666666666666 539.4940893690921 149.5 539.60646283802 149.5 C 539.7188363069439 149.5 539.775023041406 179.40000000037307 539.88739651033 199.33333333333331 C 539.9997699792581 219.26666666703971 540.0559567137219 249.16666666666666 540.16833018265 249.16666666666666 C 540.280703651578 249.16666666666666 540.3368903860421 249.16666666666666 540.44926385497 249.16666666666666 C 540.5616373238979 249.16666666666666 540.617824058362 249.16666666666666 540.73019752729 249.16666666666666 C 540.842570996218 249.16666666666666 540.898757730682 219.26666666665656 541.01113119961 199.33333333333331 C 541.1235046685381 179.39999999998992 541.179691403002 149.5 541.29206487193 149.5 C 541.404438340858 149.5 541.460625075322 149.5 541.57299854425 149.5 C 541.685372013178 149.5 541.741558747642 99.66666666666666 541.85393221657 99.66666666666666 C 541.966305685498 99.66666666666666 542.022492419962 249.16666666666666 542.13486588889 249.16666666666666 C 542.247239357818 249.16666666666666 542.3034260922819 199.33333333333331 542.41579956121 199.33333333333331 C 542.528173030138 199.33333333333331 542.584359764602 199.33333333333331 542.69673323353 199.33333333333331 C 542.809106702458 199.33333333333331 542.865293436922 149.5 542.97766690585 149.5 C 543.090040374778 149.5 543.146227109242 149.5 543.25860057817 149.5 C 543.370974047098 149.5 543.427160781562 249.16666666666666 543.53953425049 249.16666666666666 C 543.651907719418 249.16666666666666 543.708094453882 149.5 543.82046792281 149.5 C 543.9328413917381 149.5 543.989028126202 149.5 544.10140159513 149.5 C 544.2137750640541 149.5 544.2699617985161 149.5 544.38233526744 149.5 C 544.494708736368 149.5 544.550895470832 149.5 544.66326893976 149.5 C 544.775642408688 149.5 544.8318291431519 149.5 544.94420261208 149.5 C 545.056576081008 149.5 545.112762815472 149.5 545.2251362844 149.5 C 545.337509753328 149.5 545.393696487792 149.5 545.50606995672 149.5 C 545.618443425648 149.5 545.674630160112 149.5 545.78700362904 149.5 C 545.899377097968 149.5 545.9555638324321 149.5 546.06793730136 149.5 C 546.180310770288 149.5 546.2364975047519 249.16666666666666 546.34887097368 249.16666666666666 C 546.4612444426081 249.16666666666666 546.517431177072 249.16666666666666 546.629804646 249.16666666666666 C 546.742178114928 249.16666666666666 546.7983648493921 199.33333333333331 546.91073831832 199.33333333333331 C 547.0231117872479 199.33333333333331 547.079298521712 249.16666666666666 547.19167199064 249.16666666666666 C 547.304045459568 249.16666666666666 547.3602321940319 249.16666666666666 547.47260566296 249.16666666666666 C 547.5849791318881 249.16666666666666 547.641165866352 249.16666666666666 547.75353933528 249.16666666666666 C 547.8659128042079 249.16666666666666 547.922099538672 199.33333333333331 548.0344730076 199.33333333333331 C 548.146846476528 199.33333333333331 548.203033210992 199.33333333333331 548.31540667992 199.33333333333331 C 548.427780148844 199.33333333333331 548.4839668833059 199.33333333333331 548.59634035223 199.33333333333331 C 548.708713821158 199.33333333333331 548.764900555622 199.33333333333331 548.87727402455 199.33333333333331 C 548.9896474934781 199.33333333333331 549.045834227942 199.33333333333331 549.15820769687 199.33333333333331 C 549.270581165798 199.33333333333331 549.326767900262 199.33333333333331 549.43914136919 199.33333333333331 C 549.551514838118 199.33333333333331 549.607701572582 199.33333333333331 549.72007504151 199.33333333333331 C 549.832448510438 199.33333333333331 549.8886352449019 149.5 550.00100871383 149.5 C 550.113382182758 149.5 550.169568917222 149.5 550.28194238615 149.5 C 550.394315855078 149.5 550.450502589542 149.5 550.56287605847 149.5 C 550.675249527398 149.5 550.731436261862 149.5 550.84380973079 149.5 C 550.956183199718 149.5 551.012369934182 249.16666666666666 551.12474340311 249.16666666666666 C 551.237116872038 249.16666666666666 551.293303606502 249.16666666666666 551.40567707543 249.16666666666666 C 551.5180505443581 249.16666666666666 551.574237278822 249.16666666666666 551.68661074775 249.16666666666666 C 551.798984216678 249.16666666666666 551.855170951142 249.16666666666666 551.96754442007 249.16666666666666 C 552.1922913579259 249.16666666666666 552.52941176471 149.5 552.52941176471 149.5" class="highcharts-graph" data-z-index="1" stroke="#000000" stroke-width="2" stroke-linejoin="round" stroke-linecap="round"></path></g><g data-z-index="0.1" class="highcharts-markers highcharts-series-0 highcharts-spline-series highcharts-color-0 " transform="translate(32,63) scale(1 1)" clip-path="none"></g></g><text x="300" text-anchor="middle" class="highcharts-title" data-z-index="4" style="color:#333333;font-size:18px;fill:#333333;" y="24"><tspan>Hostility Over Time (Smoothed)</tspan></text><text x="300" text-anchor="middle" class="highcharts-subtitle" data-z-index="4" style="color:#666666;fill:#666666;" y="46"><tspan>This chart shows how your Hostility changes over time.</tspan></text><g class="highcharts-axis-labels highcharts-xaxis-labels " data-z-index="7"><text x="49.900927771286" style="color:#666666;cursor:default;font-size:11px;fill:#666666;" text-anchor="middle" transform="translate(0,0)" y="381" opacity="1">2014</text><text x="152.44171816785" style="color:#666666;cursor:default;font-size:11px;fill:#666666;" text-anchor="middle" transform="translate(0,0)" y="381" opacity="1">2015</text><text x="254.98250856442" style="color:#666666;cursor:default;font-size:11px;fill:#666666;" text-anchor="middle" transform="translate(0,0)" y="381" opacity="1">2016</text><text x="357.8042326333" style="color:#666666;cursor:default;font-size:11px;fill:#666666;" text-anchor="middle" transform="translate(0,0)" y="381" opacity="1">2017</text><text x="460.34502302987" style="color:#666666;cursor:default;font-size:11px;fill:#666666;" text-anchor="middle" transform="translate(0,0)" y="381" opacity="1">2018</text><text x="562.88581342644" style="color:#666666;cursor:default;font-size:11px;fill:#666666;" text-anchor="middle" transform="translate(0,0)" y="381" opacity="1">2019</text></g><g class="highcharts-axis-labels highcharts-yaxis-labels " data-z-index="7"><text x="17" style="color:#666666;cursor:default;font-size:11px;fill:#666666;" text-anchor="end" transform="translate(0,0)" y="366" opacity="1">0</text><text x="17" style="color:#666666;cursor:default;font-size:11px;fill:#666666;" text-anchor="end" transform="translate(0,0)" y="316" opacity="1">1</text><text x="17" style="color:#666666;cursor:default;font-size:11px;fill:#666666;" text-anchor="end" transform="translate(0,0)" y="266" opacity="1">2</text><text x="17" style="color:#666666;cursor:default;font-size:11px;fill:#666666;" text-anchor="end" transform="translate(0,0)" y="216" opacity="1">3</text><text x="17" style="color:#666666;cursor:default;font-size:11px;fill:#666666;" text-anchor="end" transform="translate(0,0)" y="166" opacity="1">4</text><text x="17" style="color:#666666;cursor:default;font-size:11px;fill:#666666;" text-anchor="end" transform="translate(0,0)" y="116" opacity="1">5</text><text x="17" style="color:#666666;cursor:default;font-size:11px;fill:#666666;" text-anchor="end" transform="translate(0,0)" y="67" opacity="1">6</text></g><a xlink:href="https://quantimo.do" target="_blank">
                    <text x="590" class="highcharts-credits" text-anchor="end" data-z-index="8"
                          style="cursor:pointer;color:#999999;font-size:9px;fill:#999999;" y="295">https://quantimo.do
                    </text>
                </a></svg>