<?xml version="1.0" standalone="no"?><!DOCTYPE svg PUBLIC "-//W3C//DTD SVG 1.1//EN" "http://www.w3.org/Graphics/SVG/1.1/DTD/svg11.dtd"><svg xmlns:xlink="http://www.w3.org/1999/xlink" version="1.1" class="highcharts-root" style="font-family:&quot;Lucida Grande&quot;, &quot;Lucida Sans Unicode&quot;, Arial, Helvetica, sans-serif;font-size:12px;" xmlns="http://www.w3.org/2000/svg" width="600" height="400"><desc>Created with Highstock 6.2.0</desc><defs><clipPath id="highcharts-aq2gw1u-378"><rect x="0" y="0" width="542" height="299" fill="none"></rect></clipPath><clipPath id="highcharts-aq2gw1u-750"><rect x="0" y="0" width="542" height="299" fill="none"></rect></clipPath><clipPath id="highcharts-aq2gw1u-751"><rect x="48" y="63" width="542" height="299" fill="none"></rect></clipPath></defs><rect fill="#ffffff" class="highcharts-background" x="0" y="0" width="600" height="400" rx="0" ry="0"></rect><rect fill="none" class="highcharts-plot-background" x="48" y="63" width="542" height="299"></rect><g class="highcharts-pane-group" data-z-index="0"></g><g class="highcharts-grid highcharts-xaxis-grid " data-z-index="1"><path fill="none" data-z-index="1" class="highcharts-grid-line" d="M 59.5 63 L 59.5 362" opacity="1"></path><path fill="none" data-z-index="1" class="highcharts-grid-line" d="M 148.5 63 L 148.5 362" opacity="1"></path><path fill="none" data-z-index="1" class="highcharts-grid-line" d="M 236.5 63 L 236.5 362" opacity="1"></path><path fill="none" data-z-index="1" class="highcharts-grid-line" d="M 324.5 63 L 324.5 362" opacity="1"></path><path fill="none" data-z-index="1" class="highcharts-grid-line" d="M 408.5 63 L 408.5 362" opacity="1"></path><path fill="none" data-z-index="1" class="highcharts-grid-line" d="M 496.5 63 L 496.5 362" opacity="1"></path><path fill="none" data-z-index="1" class="highcharts-grid-line" d="M 584.5 63 L 584.5 362" opacity="1"></path></g><g class="highcharts-grid highcharts-yaxis-grid " data-z-index="1"><path fill="none" stroke="#e6e6e6" stroke-width="1" data-z-index="1" class="highcharts-grid-line" d="M 48 362.5 L 590 362.5" opacity="1"></path><path fill="none" stroke="#e6e6e6" stroke-width="1" data-z-index="1" class="highcharts-grid-line" d="M 48 287.5 L 590 287.5" opacity="1"></path><path fill="none" stroke="#e6e6e6" stroke-width="1" data-z-index="1" class="highcharts-grid-line" d="M 48 213.5 L 590 213.5" opacity="1"></path><path fill="none" stroke="#e6e6e6" stroke-width="1" data-z-index="1" class="highcharts-grid-line" d="M 48 138.5 L 590 138.5" opacity="1"></path><path fill="none" stroke="#e6e6e6" stroke-width="1" data-z-index="1" class="highcharts-grid-line" d="M 48 62.5 L 590 62.5" opacity="1"></path></g><rect fill="none" class="highcharts-plot-border" data-z-index="1" x="48" y="63" width="542" height="299"></rect><g class="highcharts-axis highcharts-xaxis " data-z-index="2"><path fill="none" class="highcharts-tick" stroke="#ccd6eb" stroke-width="1" d="M 59.5 362 L 59.5 372" opacity="1"></path><path fill="none" class="highcharts-tick" stroke="#ccd6eb" stroke-width="1" d="M 148.5 362 L 148.5 372" opacity="1"></path><path fill="none" class="highcharts-tick" stroke="#ccd6eb" stroke-width="1" d="M 236.5 362 L 236.5 372" opacity="1"></path><path fill="none" class="highcharts-tick" stroke="#ccd6eb" stroke-width="1" d="M 324.5 362 L 324.5 372" opacity="1"></path><path fill="none" class="highcharts-tick" stroke="#ccd6eb" stroke-width="1" d="M 408.5 362 L 408.5 372" opacity="1"></path><path fill="none" class="highcharts-tick" stroke="#ccd6eb" stroke-width="1" d="M 496.5 362 L 496.5 372" opacity="1"></path><path fill="none" class="highcharts-tick" stroke="#ccd6eb" stroke-width="1" d="M 584.5 362 L 584.5 372" opacity="1"></path><path fill="none" class="highcharts-axis-line" stroke="#ccd6eb" stroke-width="1" data-z-index="7" d="M 48 362.5 L 590 362.5"></path></g><g class="highcharts-axis highcharts-yaxis " data-z-index="2"><path fill="none" class="highcharts-axis-line" data-z-index="7" d="M 48 63 L 48 362"></path></g><g class="highcharts-series-group" data-z-index="3"><g data-z-index="0.1" class="highcharts-series highcharts-series-0 highcharts-spline-series highcharts-color-0 " transform="translate(48,63) scale(1 1)" clip-path="url(#highcharts-aq2gw1u-750)"><path fill="none" d="M 5.3137254901961 299 C 5.3137254901961 299 6.175410704822481 297.60666 6.7498675145734 297.0266 C 7.32432432432432 296.44653999999997 7.611552729199779 296.0997 8.1860095389507 296.0997 C 8.76046634870162 296.0997 9.04769475357708 299 9.622151563328 299 C 10.1966083730788 299 10.483836777954199 293.1396 11.058293587705 293.1396 C 11.632750397456201 293.1396 11.919978802331801 294.6944 12.494435612083 294.6944 C 13.0688924218338 294.6944 13.356120826709201 244.3727 13.93057763646 244.3727 C 14.7723164340812 244.3727 15.1931858328918 296.01 16.034924630513 297.505 C 16.3420994523938 299 16.4956868633342 299 16.802861685215 299 C 17.3773184949658 299 17.664546899841202 299 18.239003709592 299 C 18.8134605193428 299 19.1006889242182 299 19.675145733969 299 C 20.503719896366597 299 20.918006977565398 298.5515 21.746581139963 298.5515 C 22.0669205970674 298.5515 22.2270903256196 299 22.547429782724 299 C 23.1218865924748 299 23.4091149973502 293.2592 23.983571807101 293.2592 C 24.5580286168522 293.2592 24.8452570217278 299 25.419713831479 299 C 25.9941706412298 299 26.2813990461052 299 26.855855855856 299 C 27.4303126656068 299 27.717541070482202 277.8607 28.291997880233 277.8607 C 28.8664546899838 277.8607 29.1536830948592 298.16279999999995 29.72813990461 298.5814 C 30.302596714361197 299 30.5898251192368 299 31.164281928988 299 C 31.7387387387388 299 32.0259671436142 299 32.600423953365 299 C 33.1748807631158 299 33.4621091679912 299 34.036565977742 299 C 34.6110227874932 299 34.8982511923688 299 35.47270800212 299 C 36.0471648118708 299 36.3343932167462 292.3024 36.908850026497 292.3024 C 37.4833068362478 292.3024 37.7705352411232 299 38.344992050874 299 C 38.919448860625195 299 39.2066772655008 299 39.781134075252 299 C 40.3555908850028 299 40.6428192898782 297.3256 41.217276099629 297.3256 C 41.7917329093798 297.3256 42.078961314255196 299 42.653418124006 299 C 43.2278749337572 299 43.5151033386328 299 44.089560148384 299 C 44.6640169581348 299 44.95124536301021 297.79204 45.525702172761 296.5183 C 46.1001589825118 295.24456 46.3873873873872 292.6313 46.961844197138 292.6313 C 47.5363010068892 292.6313 47.823529411764795 296.9369 48.397986221516 297.6246 C 48.9724430312668 298.3123 49.2596714361422 298.3123 49.834128245893 298.3123 C 50.4085850556438 298.3123 50.6958134605192 254.5088 51.27027027027 254.5088 C 51.8447270800212 254.5088 52.1319554848968 290.17949999999996 52.706412294648 294.5449 C 53.56650179591399 298.9103 53.996546546546995 298.8206 54.856636047813 298.9103 C 55.1454601660486 299 55.289872225166405 299 55.578696343402 299 C 56.1531531531532 299 56.4403815580288 298.1628 57.01483836778 298.1628 C 57.5892951775308 298.1628 57.87652358240621 299 58.450980392157 299 C 59.0254372019078 299 59.3126656067832 297.5169599999982 59.887122416534 292.3622 C 60.461579226285195 287.2074399999982 60.7488076311608 273.2262 61.323264440912 273.2262 C 61.8977212506628 273.2262 62.1849496555382 299 62.759406465289 299 C 63.33386327503979 299 63.621091679915196 292.7509 64.195548489666 292.7509 C 64.7700052994168 292.7509 65.0572337042922 295.711 65.631690514043 295.711 C 66.2061473237942 295.711 66.4933757286698 275.3192 67.067832538421 275.3192 C 67.64228934817181 275.3192 67.92951775304721 299 68.503974562798 299 C 69.0784313725488 299 69.36565977742421 299 69.940116587175 299 C 70.5983483483482 299 70.9274642289348 298.9402 71.585695990108 298.9402 C 72.0763778484368 298.9402 72.3217187776012 299 72.81240063593 299 C 73.3868574456808 299 73.6740858505562 259.7114 74.248542660307 259.7114 C 74.82299947005819 259.7114 75.1102278749338 298.22260000000006 75.684684684685 298.6113 C 76.2591414944358 299 76.5463698993112 299 77.120826709062 299 C 77.69528351881281 299 77.98251192368821 295.0532 78.556968733439 295.0532 C 79.1314255431902 295.0532 79.4186539480658 299 79.993110757817 299 C 80.5675675675678 299 80.85479597244321 286.26259999999996 81.429252782194 281.0301 C 82.0037095919448 275.79759999999993 82.2909379968202 272.8375 82.865394806571 272.8375 C 83.4398516163222 272.8375 83.72708002119779 287.8472999999981 84.301536830949 293.0798 C 84.8759936406998 298.3122999999981 85.1632220455752 299 85.737678855326 299 C 86.3121356650768 299 86.5993640699522 299 87.173820879703 298.5216 C 87.7482776894542 298.04319999999996 88.0355060943298 278.5783 88.609962904081 278.5783 C 89.18441971383182 278.5783 89.47164811870721 299 90.046104928458 299 C 90.6205617382088 299 90.90779014308421 299 91.482246952835 298.5814 C 92.0567037625862 298.16279999999995 92.3439321674618 294.45520000000005 92.918388977213 293.4087 C 93.4928457869638 292.3622 93.7800741918392 292.3622 94.35453100159 292.3622 C 94.92898781134082 292.3622 95.2162162162162 297.2359 95.790673025967 298.0731 C 96.6766928693398 298.9103 97.1197027910262 298.62437709722224 98.005722634399 298.9103 C 98.2686164105282 298.99513709722225 98.40006329859281 299 98.662957074722 299 C 99.2374138844732 299 99.5246422893488 299 100.0990990991 299 C 100.67355590885201 299 100.960784313728 299 101.53524112348 299 C 102.10969793322802 299 102.396926338102 299 102.97138314785 299 C 103.545839957602 299 103.833068362478 299 104.40752517223 299 C 104.98198198198199 299 105.269210386858 299 105.84366719661 299 C 106.41812400636199 299 106.70535241123801 297.78008000000256 107.27980922099 297.0266 C 107.85426603073802 296.27312000000256 108.141494435612 295.2326 108.71595124536 295.2326 C 109.29040805511201 295.2326 109.577636459988 299 110.15209326974 299 C 110.726550079492 299 111.013778484368 299 111.58823529412 299 C 112.162692103868 299 112.449920508742 299 113.02437731849 299 C 113.59883412824199 299 113.88606253311801 299 114.46051934287 299 C 115.034976152622 299 115.322204557498 299 115.89666136725 299 C 116.47111817700201 299 116.758346581878 299 117.33280339163 299 C 117.907260201378 299 118.19448860625198 299 118.768945416 299 C 119.34340222575199 299 119.630630630628 299 120.20508744038 299 C 120.77954425013199 299 121.06677265500801 299 121.64122946476 299 C 122.21568627451202 299 122.502914679388 299 123.07737148914 299 C 124.14530265560002 299 124.67926823882999 281.06 125.74719940529 281.06 C 125.851718630398 281.06 125.90397824295201 298.8804 126.00849746806 298.8804 C 126.559417505744 298.8804 126.834877524586 281.4188 127.38579756227 281.4188 C 128.390698050994 281.4188 128.893148295356 298.9402 129.89804878408 298.9402 C 130.43899561326 298.9402 130.70946902785 298.3422 131.25041585703 298.3422 C 131.427938968378 298.3422 131.51670052405197 299 131.6942236354 299 C 132.268680445152 299 132.555908850028 267.7545 133.13036565978 267.7545 C 133.704822469528 267.7545 133.992050874402 299 134.56650768415 299 C 135.140964493902 299 135.42819289877798 299 136.00264970853 299 C 136.577106518282 299 136.864334923158 299 137.43879173291 299 C 138.01324854266198 299 138.300476947538 299 138.87493375729 299 C 139.449390567038 299 139.736618971912 299 140.31107578166 299 C 140.885532591412 299 141.172760996288 299 141.74721780604 299 C 142.321674615792 299 142.608903020668 299 143.18335983042 299 C 143.757816640172 299 144.045045045048 299 144.6195018548 299 C 145.472809574284 299 145.899463434026 298.7608 146.75277115351 298.7608 C 147.048377053526 298.7608 147.196180003534 299 147.49178590355 299 C 148.06624271330202 299 148.353471118178 299 148.92792792793 299 C 149.502384737682 299 149.78961314255798 282.6746 150.36406995231 282.6746 C 150.98161102279 282.6746 151.29038155803 297.7442 151.90792262851 298.3721 C 152.43929517753 299 152.70498145204 299 153.23635400106 299 C 153.810810810812 299 154.098039215688 299 154.67249602544 299 C 155.24695283518798 299 155.534181240062 299 156.10863804981 299 C 156.683094859562 299 156.970323264438 299 157.54478007419 299 C 158.119236883942 299 158.406465288818 299 158.98092209857 299 C 159.555378908322 299 159.84260731319802 299 160.41706412295 299 C 160.991520932698 299 161.278749337572 299 161.85320614732 299 C 162.42766295707202 299 162.714891361948 299 163.2893481717 299 C 163.863804981452 299 164.15103338632798 299 164.72549019608 299 C 165.299947005832 299 165.587175410708 299 166.16163222046 299 C 166.736089030208 299 167.023317435082 299 167.59777424483 299 C 168.172231054582 299 168.459459459458 299 169.03391626921 299 C 169.608373078962 299 169.895601483838 299 170.47005829359 299 C 171.044515103342 299 171.331743508218 299 171.90620031797 299 C 172.480657127718 299 172.767885532592 299 173.34234234234 299 C 173.916799152092 299 174.20402755696801 299 174.77848436672 299 C 175.352941176472 299 175.64016958134803 299 176.2146263911 299 C 176.789083200848 299 177.076311605722 299 177.65076841547 299 C 178.225225225222 299 178.51245363009798 299 179.08691043985 299 C 179.66136724960197 299 179.948595654478 299 180.52305246423 299 C 181.09750927398198 299 181.384737678858 299 181.95919448861 299 C 182.533651298358 299 182.820879703232 299 183.39533651298 299 C 183.969793322732 299 184.257021727608 299 184.83147853736 299 C 185.405935347112 299 185.693163751988 299 186.26762056174 299 C 186.842077371492 299 187.129305776368 299 187.70376258612 299 C 188.278219395868 299 188.565447800742 299 189.13990461049 299 C 189.714361420242 299 190.00158982511803 299 190.57604663487 299 C 191.15050344462202 299 191.437731849498 299 192.01218865925 299 C 192.586645468998 299 192.873873873872 299 193.44833068362 299 C 194.02278749337196 299 194.310015898248 298.5814 194.884472708 298.5814 C 195.45892951775198 298.5814 195.746157922628 299 196.32061473238 299 C 197.23136813284 299 197.68674483307 299 198.59749823353 298.8804 C 198.83565845257 298.7608 198.95473856209 280.2826 199.19289878113 280.2826 C 199.767355590882 280.2826 200.054583995758 280.2826 200.62904080551 282.3158 C 201.203497615262 284.34900000000005 201.490726020138 296.36879999999996 202.06518282989 297.6844 C 202.639639639642 299 202.92686804451802 299 203.50132485427 299 C 204.075781664018 299 204.36301006889204 299 204.93746687864 299 C 205.51192368839202 299 205.799152093268 299 206.37360890302 299 C 206.948065712772 299 207.23529411764798 293.8572 207.8097509274 293.8572 C 208.38420773715197 293.8572 208.671436142028 299 209.24589295178 299 C 209.820349761528 299 210.107578166402 299 210.68203497615 299 C 211.25649178590203 299 211.543720190778 299 212.11817700053 299 C 212.692633810282 299 212.97986221515802 299 213.55431902491 299 C 214.12877583465797 299 214.41600423953201 299 214.99046104928 299 C 215.564917859032 299 215.85214626390797 285.9636 216.42660307366 285.9636 C 217.001059883412 285.9636 217.28828828828802 299 217.86274509804 299 C 218.437201907792 299 218.72443031266803 299 219.29888712242 299 C 219.873343932168 299 220.160572337042 299 220.73502914679 299 C 221.309485956542 299 221.59671436141798 299 222.17117117117 299 C 222.74562798092197 299 223.032856385798 299 223.60731319555 299 C 224.18177000530198 299 224.468998410178 292.63130000005265 225.04345521993 277.6514 C 225.61791202967797 262.6715000000526 225.905140434552 224.1005 226.4795972443 224.1005 C 227.054054054052 224.1005 227.341282458928 290.329 227.91573926868 290.329 C 228.490196078432 290.329 228.777424483308 285.3058 229.35188129306 285.3058 C 229.926338102812 285.3058 230.21356650768803 298.2824 230.78802331744 298.2824 C 231.362480127188 298.2824 231.649708532062 20.481499999999983 232.22416534181 20.481499999999983 C 232.798622151562 20.481499999999983 233.08585055643803 299 233.66030736619 299 C 234.23476417594202 299 234.521992580818 299 235.09644939057 299 C 236.24257051168996 299 236.81563107225003 298.5814 237.96175219337 298.5814 C 238.051112141554 298.5814 238.09579211564602 298.9103 238.18515206383 298.9103 C 238.67304142377802 298.9103 238.91698610375198 290.3888 239.4048754637 290.3888 C 239.97933227345203 290.3888 240.266560678328 297.4751 240.84101748808 297.4751 C 241.41547429782798 297.4751 241.70270270270203 292.0691799999925 242.27715951245 289.9403 C 242.85161632220198 287.81141999999255 243.138844727078 286.8307 243.71330153683 286.8307 C 244.287758346582 286.8307 244.57498675145797 299 245.14944356121 299 C 246.28958075723003 299 246.85964935523998 298.3123 247.99978655126 298.3123 C 248.00856297474002 298.3123 248.01295118648005 298.701 248.02172760996 298.8505 C 248.59618441971202 299 248.883412824588 299 249.45786963434 299 C 250.032326444092 299 250.31955484896798 299 250.89401165872 299 C 251.46846846846796 299 251.755696873342 299 252.33015368309 299 C 252.90461049284198 299 253.191838897718 299 253.76629570747 299 C 254.34075251722197 299 254.627980922098 299 255.20243773185 299 C 255.776894541602 299 256.064122946478 299 256.63857975623 299 C 257.36183683683805 299 257.723465377142 286.8008 258.44672245775 286.8008 C 258.872378996642 286.8008 259.085207266088 299 259.51086380498 299 C 260.26842872284 299 260.64721118177 299 261.40477609963 298.9103 C 261.796124801274 298.8206 261.991799152096 259.3227 262.38314785374 259.3227 C 262.95760466348804 259.3227 263.244833068362 292.123 263.81928987811 292.123 C 264.393746687862 292.123 264.680975092738 265.4821 265.25543190249 265.4821 C 265.829888712242 265.4821 266.11711711711797 297.8638 266.69157392687 297.8638 C 267.266030736622 297.8638 267.55325914149796 276.4554 268.12771595125 276.4554 C 268.702172760998 276.4554 268.989401165872 293.7077 269.56385797562 293.7077 C 270.138314785372 293.7077 270.42554319024805 293.27714 271 291.8539 C 271.57445680975195 290.43066 271.861685214628 286.5915 272.43614202438 286.5915 C 273.010598834128 286.5915 273.297827239002 297.9236 273.87228404875 297.9236 C 274.44674085850204 297.9236 274.733969263378 297.9236 275.30842607313 297.8339 C 275.88288288288203 297.74420000000003 276.170111287758 297.3555 276.74456809751 296.6977 C 277.319024907262 296.0399 277.606253312138 296.6977 278.18071012189 294.5449 C 278.755166931638 292.39209999999997 279.04239533651196 245.2398 279.61685214626 245.2398 C 280.191308956012 245.2398 280.478537360888 299 281.05299417064 299 C 281.627450980392 299 281.914679385268 215.3099 282.48913619502 215.3099 C 283.06359300477203 215.3099 283.350821409648 287.39880000000005 283.9252782194 290.8373 C 284.499735029148 294.2758 284.78696343402197 294.2758 285.36142024377 294.2758 C 285.935877053522 294.2758 286.223105458398 280.9404 286.79756226815 280.9404 C 287.372019077902 280.9404 287.65924748277797 286.2626 288.23370429253 286.2626 C 288.808161102282 286.2626 289.095389507158 262.9645200000316 289.66984631691 253.9706 C 290.244303126658 244.97668000003162 290.53153153153204 241.293 291.10598834128 241.293 C 291.680445151032 241.293 291.967673555908 273.1066 292.54213036566 273.1066 C 293.116587175412 273.1066 293.403815580288 273.1066 293.97827239004 272.8674 C 294.55272919978796 272.62819999999994 294.83995760466195 165.1676 295.41441441441 165.1676 C 295.988871224162 165.1676 296.27609962903796 264.6449 296.85055643879 264.6449 C 297.42501324854203 264.6449 297.712241653418 233.5788 298.28669846317 233.5788 C 298.861155272922 233.5788 299.14838367779805 272.06009999995484 299.72284048755 285.0965 C 300.297297297298 298.1328999999548 300.584525702172 298.7608 301.15898251192 298.7608 C 301.733439321672 298.7608 302.02066772654797 298.7608 302.5951245363 298.4319 C 303.16958134605204 298.10299999999995 303.456809750928 281.1497 304.03126656068 281.1497 C 305.151058411352 281.1497 305.71095433668796 299 306.83074618736 299 C 306.859867956188 299 306.87442884060204 298.3936406477245 306.90355060943 297.8339 C 307.478007419182 286.7924406477245 307.765235824058 269.997 308.33969263381 269.997 C 308.914149443562 269.997 309.201377848438 288.1164 309.77583465819 293.5582 C 310.350291467938 299 310.63751987281205 299 311.21197668256 299 C 311.786433492312 299 312.073661897188 283.3324 312.64811870694 283.3324 C 313.222575516692 283.3324 313.509803921568 290.0599 314.08426073132 290.0599 C 314.658717541072 290.0599 314.945945945948 181.4332 315.5204027557 181.4332 C 316.094859565448 181.4332 316.382087970322 181.4332 316.95654478007 201.43630000000002 C 317.531001589822 221.43940000000003 317.818229994698 281.23940000000005 318.39268680445 287.7576 C 318.967143614202 294.2758 319.254372019078 292.02732 319.82882882883 294.2758 C 320.403285638582 296.52428 320.690514043458 299 321.26497085321 299 C 321.839427662958 299 322.12665606783196 281.0002 322.70111287758 281.0002 C 323.275569687332 281.0002 323.56279809220797 298.7608 324.13725490196 298.7608 C 324.711711711712 298.7608 324.99894011658796 280.97029999999995 325.57339692634 275.08 C 326.14785373609203 269.1897 326.435082140968 275.08 327.00953895072 269.1897 C 327.583995760468 263.29940000000005 327.871224165342 214.4727 328.44568097509 214.4727 C 329.02013778484195 214.4727 329.307366189718 296.5183 329.88182299947 296.5183 C 330.78898604487006 296.5183 331.24256756757006 296.5183 332.14973061297 277.4421 C 332.39148118707004 258.36589999999995 332.51235647412005 193.9314 332.75410704822 193.9314 C 333.32856385797203 193.9314 333.615792262848 290.8373 334.1902490726 290.8373 C 334.764705882352 290.8373 335.051934287228 255.3161 335.62639109698 255.3161 C 336.200847906732 255.3161 336.488076311608 299 337.06253312136 299 C 337.63698993110796 299 337.924218335982 254.2098 338.49867514573 254.2098 C 339.073131955482 254.2098 339.360360360358 298.10299999999995 339.93481717011 298.5515 C 340.50927397986203 299 340.796502384738 299 341.37095919449 299 C 341.945416004242 299 342.232644409118 299 342.80710121887 299 C 343.38155802861803 299 343.668786433492 289.8207 344.24324324324 288.0566 C 344.817700052992 286.2925 345.1049284578679 288.0566 345.67938526762 286.2925 C 346.253842077372 284.52840000000003 346.541070482248 263.419 347.115527292 263.419 C 347.689984101752 263.419 347.977212506628 265.105359999978 348.55166931638 271.4621 C 349.12612612612804 277.818839999978 349.413354531002 291.4054 349.98781134075 295.2027 C 350.56226815050206 299 350.849496555378 299 351.42395336513 299 C 351.998410174882 299 352.285638579758 292.6014 352.86009538951 292.6014 C 353.434552199258 292.6014 353.721780604132 298.6412 354.29623741388 298.6412 C 354.87069422363203 298.6412 355.157922628508 296.39272 355.73237943826 291.226 C 356.306836248012 286.05928000000006 356.59406465288805 272.8076 357.16852146264 272.8076 C 357.74297827239195 272.8076 358.030206677268 277.1430999999862 358.60466348702 281.1198 C 359.179120296768 285.09649999998624 359.466348701642 290.1559129930482 360.04080551139 292.6911 C 361.013791732906 296.9850729930483 361.50028484366396 298.1927 362.47327106518 298.1927 C 362.649198463168 298.1927 362.737162162162 295.16035358852935 362.91308956015 293.1695 C 363.487546369902 286.66875358852934 363.77477477477794 276.9637 364.34923158453 276.9637 C 364.923688394278 276.9637 365.21091679915196 294.0366 365.7853736089 296.5183 C 366.359830418652 299 366.647058823528 299 367.22151563328 299 C 368.34968497909597 299 368.91376965200396 299 370.04193899782 298.9402 C 370.062683271504 298.8804 370.073055408346 291.5848 370.09379968203 288.1164 C 370.668256491782 284.648 370.955484896658 284.648 371.52994170641 284.648 C 372.104398516162 284.648 372.391626921038 292.78079999999994 372.96608373079 294.5748 C 373.540540540542 296.3688 373.8277689454179 295.51963999999697 374.40222575517 296.3688 C 374.97668256491795 297.217959999997 375.263910969792 298.6412 375.83836777954 298.8206 C 376.412824589292 299 376.700052994168 299 377.27450980392 299 C 377.848966613672 299 378.136195018548 299 378.7106518283 299 C 379.28510863805207 299 379.572337042928 192.7354 380.14679385268 192.7354 C 381.028824412652 192.7354 381.469839692638 298.7309 382.35187025261 298.7309 C 382.618753312138 298.7309 382.752194841902 293.2293 383.01907790143 291.9137 C 383.59353471118203 290.5981 383.880763116058 291.9137 384.45521992581 290.5981 C 385.029676735562 289.28249999999997 385.31690514043805 273.6149 385.89136195019 273.6149 C 386.465818759938 273.6149 386.753047164812 299 387.32750397456 299 C 387.901960784312 299 388.18918918918797 232.8313 388.76364599894 232.8313 C 389.33810280869204 232.8313 389.625331213568 274.75109999999995 390.19978802332 279.0268 C 390.77424483306805 283.3025 391.06147323794204 279.30786000001405 391.63593004769 283.3025 C 392.210386857442 287.29714000001405 392.49761526231794 299 393.07207207207 299 C 393.646528881822 299 393.933757286698 299 394.50821409645 299 C 395.082670906202 299 395.36989931107803 299 395.94435612083 299 C 396.518812930578 299 396.80604133545205 299 397.3804981452 299 C 397.9549549549521 299 398.242183359828 299 398.81664016958 299 C 399.391096979332 299 399.678325384208 299 400.25278219396 299 C 400.827239003712 299 401.114467408588 299 401.68892421834 299 C 402.263381028088 299 402.55060943296195 299 403.12506624271 299 C 403.699523052462 299 403.986751457338 295.9502 404.56120826709 295.9502 C 405.135665076842 295.9502 405.422893481718 299 405.99735029147 299 C 406.571807101222 299 406.859035506098 299 407.43349231585 299 C 408.00794912559803 299 408.29517753047196 293.6957399999922 408.86963434022 291.4652 C 409.444091149972 289.2346599999923 409.73131955484797 288.6845 410.3057763646 287.8473 C 410.880233174352 287.0101 411.16746157922796 287.0101 411.74191838898 287.0101 C 412.316375198728 287.0101 412.603603603602 291.7881200000083 413.17806041335 294.1861 C 413.752517223102 296.5840800000083 414.03974562797805 299 414.61420243773 299 C 415.18865924748195 299 415.475887652358 293.9768 416.05034446211 293.9768 C 416.624801271862 293.9768 416.912029676738 299 417.48648648649 299 C 418.060943296238 299 418.348171701112 284.7975 418.92262851086 284.7975 C 419.49708532061203 284.7975 419.784313725488 299 420.35877053524 299 C 420.93322734499196 299 421.22045574986794 299 421.79491255962 299 C 422.369369369372 299 422.656597774248 299 423.231054584 299 C 423.805511393748 299 424.092739798622 299 424.66719660837 299 C 425.24165341812204 299 425.528881822998 299 426.10333863275 299 C 426.6777954425021 299 426.96502384737795 299 427.53948065713 299 C 428.447840487546 299 428.902020402754 299 429.81038023317 298.8804 C 430.050934022254 298.7608 430.171210916796 298.53843356828224 430.41176470588 298.2525 C 430.98622151563194 297.56967356828227 431.2734499205079 298.2465200000001 431.84790673026 296.4585 C 432.422363540012 294.6704800000001 432.7095919448881 289.3124 433.28404875464 289.3124 C 433.858505564388 289.3124 434.1457339692621 294.0665 434.72019077901 294.0665 C 435.294647588762 294.0665 435.581875993638 292.10505999999987 436.15633280339 290.03 C 436.73078961314206 287.95493999999985 437.0180180180179 287.8592600000002 437.59247482777 283.6912 C 438.166931637522 279.5231400000002 438.454160042398 269.1897 439.02861685215 269.1897 C 439.603073661898 269.1897 439.890302066772 284.1995 440.46475887652 284.1995 C 441.03921568627203 284.1995 441.326444091148 283.1769200000001 441.9009009009 280.5517 C 442.47535771065196 277.92648000000014 442.76258611552805 271.0734 443.33704292528 271.0734 C 443.91149973503195 271.0734 444.19872813990804 289.5815 444.77318494966 289.5815 C 445.347641759408 289.5815 445.634870164282 281.5384 446.20932697403 281.5384 C 446.78378378378204 281.5384 447.071012188658 296.1296 447.64546899841 296.1296 C 448.21992580816203 296.1296 448.507154213038 291.6147 449.08161102279 291.6147 C 449.65606783253804 291.6147 449.94329623741197 292.2306400000051 450.51775304716 293.7077 C 451.092209856912 295.1847600000051 451.379438261788 299 451.95389507154 299 C 452.52835188129194 299 452.81558028616803 297.6545 453.39003709592 297.6545 C 453.96449390567193 297.6545 454.251722310548 299 454.8261791203 299 C 455.40063593004805 299 455.68786433492204 299 456.26232114467 299 C 456.836777954422 299 457.124006359298 284.7377 457.69846316905 284.7377 C 458.58390456633003 284.7377 459.02662526497005 298.16279999999995 459.91206666225 298.5814 C 460.175538884474 299 460.307274995586 299 460.57074721781 299 C 461.14520402755795 299 461.43243243243194 299 462.00688924218 299 C 462.581346051932 299 462.868574456808 299 463.44303126656 299 C 464.017488076312 299 464.304716481188 299 464.87917329094 299 C 465.45363010069207 299 465.74085850556804 299 466.31531531532 299 C 466.88977212506796 299 467.17700052994195 299 467.75145733969 299 C 468.325914149442 299 468.61314255431796 299 469.18759936407 299 C 469.76205617382203 299 470.049284578698 299 470.62374138845 299 C 471.19819819819804 299 471.485426603072 299 472.05988341282 299 C 472.63434022257195 299 472.921568627448 299 473.4960254372 299 C 474.070482246952 299 474.357710651828 299 474.93216746158 297.8638 C 475.50662427133204 296.72760000000005 475.793852676208 284.0799 476.36830948596 284.0799 C 476.94276629570805 284.0799 477.22999470058204 288.39148000001035 477.80445151033 291.3755 C 478.37890832008196 294.3595200000103 478.66613672495794 299 479.24059353471 299 C 479.815050344462 299 480.102278749338 299 480.67673555909 299 C 481.251192368842 299 481.53842077371803 299 482.11287758347 299 C 482.68733439321807 299 482.97456279809205 299 483.54901960784 299 C 484.1234764175921 299 484.41070482246795 299 484.98516163222 299 C 485.559618441972 299 485.846846846848 299 486.4213036566 299 C 486.995760466352 299 487.282988871228 299 487.85744568098 299 C 488.43190249072796 299 488.71913089560195 299 489.29358770535 299 C 489.868044515102 299 490.1552729199781 295.0532 490.72972972973 295.0532 C 491.304186539482 295.0532 491.59141494435806 299 492.16587175411 299 C 492.74032856385804 299 493.02755696873203 299 493.60201377848 299 C 494.17647058823206 299 494.4636989931079 299 495.03815580286 299 C 495.612612612612 299 495.899841017488 299 496.47429782724 299 C 497.048754636992 299 497.33598304186796 299 497.91043985162 299 C 498.484896661368 299 498.772125066242 299 499.34658187599 299 C 499.92103868574196 299 500.20826709061805 299 500.78272390037 299 C 501.35718071012195 299 501.64440911499804 299 502.21886592475 296.1894 C 502.793322734502 293.37879999999996 503.080551139378 267.2761 503.65500794913 267.2761 C 504.229464758878 267.2761 504.516693163752 267.2761 505.0911499735 268.4721 C 505.66560678325203 269.66810000000004 505.952835188128 285.246 506.52729199788 288.9237 C 507.1017488076321 292.6014 507.38897721250794 291.3276599999955 507.96343402226 292.6014 C 508.537890832008 293.8751399999955 508.82511923688196 294.01268000000437 509.39957604663 295.2924 C 509.97403285638194 296.57212000000436 510.261261261258 299 510.83571807101 299 C 511.41017488076193 299 511.697403285638 299 512.27186009539 299 C 512.846316905142 299 513.133545310018 299 513.70800211977 299 C 514.282458929518 299 514.569687334392 299 515.14414414414 297.8638 C 515.7186009538921 296.72760000000005 516.005829358768 287.9071 516.58028616852 287.9071 C 517.154742978272 287.9071 517.4419713831479 295.5316 518.0164281929 295.5316 C 518.5908850026519 295.5316 518.878113407528 278.1597 519.45257021728 278.1597 C 520.027027027028 278.1597 520.314255431902 293.49839999999995 520.88871224165 295.4419 C 521.4631690514019 297.3854 521.750397456278 297.3854 522.32485426603 297.3854 C 522.8993110757821 297.3854 523.186539480658 279.4753 523.76099629041 279.4753 C 524.335453100162 279.4753 524.622681505038 290.99875999998653 525.19713831479 294.9037 C 525.771595124538 298.8086399999865 526.0588235294119 299 526.63328033916 299 C 527.207737148912 299 527.4949655537879 298.8206 528.06942236354 298.8206 C 528.6438791732919 298.8206 528.9311075781679 299 529.50556438792 299 C 530.0800211976681 299 530.3672496025421 290.6878 530.94170641229 290.6878 C 531.918203203202 290.6878 532.406451598658 298.5515 533.38294838957 298.5515 C 533.5553652181619 298.5515 533.641573632458 284.58820000000003 533.81399046105 284.58820000000003 C 534.388447270802 284.58820000000003 534.675675675678 299 535.25013248543 299 C 535.8245892951779 299 536.6862745098 299 536.6862745098 299" class="highcharts-graph" data-z-index="1" stroke="#000000" stroke-width="2" stroke-linejoin="round" stroke-linecap="round"></path></g><g data-z-index="0.1" class="highcharts-markers highcharts-series-0 highcharts-spline-series highcharts-color-0 " transform="translate(48,63) scale(1 1)" clip-path="none"></g></g><text x="300" text-anchor="middle" class="highcharts-title" data-z-index="4" style="color:#333333;font-size:18px;fill:#333333;" y="24"><tspan>BeyondPod Usage (Android) Over Time</tspan></text><text x="300" text-anchor="middle" class="highcharts-subtitle" data-z-index="4" style="color:#666666;fill:#666666;" y="46"><tspan>This chart shows how your BeyondPod Usage (Android) changes over time.</tspan></text><g class="highcharts-axis-labels highcharts-xaxis-labels " data-z-index="7"><text x="63.40667137726" style="color:#666666;cursor:default;font-size:11px;fill:#666666;" text-anchor="middle" transform="translate(0,0)" y="381" opacity="1"><tspan>Jul '14</tspan></text><text x="152.44747688865" style="color:#666666;cursor:default;font-size:11px;fill:#666666;" text-anchor="middle" transform="translate(0,0)" y="381" opacity="1"><tspan>Sep '14</tspan></text><text x="240.05214037567" style="color:#666666;cursor:default;font-size:11px;fill:#666666;" text-anchor="middle" transform="translate(0,0)" y="381" opacity="1"><tspan>Nov '14</tspan></text><text x="327.65680386269" style="color:#666666;cursor:default;font-size:11px;fill:#666666;" text-anchor="middle" transform="translate(0,0)" y="381" opacity="1"><tspan>Jan '15</tspan></text><text x="412.38918330095" style="color:#666666;cursor:default;font-size:11px;fill:#666666;" text-anchor="middle" transform="translate(0,0)" y="381" opacity="1"><tspan>Mar '15</tspan></text><text x="499.99384678796" style="color:#666666;cursor:default;font-size:11px;fill:#666666;" text-anchor="middle" transform="translate(0,0)" y="381" opacity="1"><tspan>May '15</tspan></text><text x="573.5" style="color:#666666;cursor:default;font-size:11px;fill:#666666;" text-anchor="middle" transform="translate(0,0)" y="381" opacity="1"><tspan>Jul '15</tspan></text></g><g class="highcharts-axis-labels highcharts-yaxis-labels " data-z-index="7"><text x="33" style="color:#666666;cursor:default;font-size:11px;fill:#666666;" text-anchor="end" transform="translate(0,0)" y="366" opacity="1">0</text><text x="33" style="color:#666666;cursor:default;font-size:11px;fill:#666666;" text-anchor="end" transform="translate(0,0)" y="291" opacity="1">2.5k</text><text x="33" style="color:#666666;cursor:default;font-size:11px;fill:#666666;" text-anchor="end" transform="translate(0,0)" y="216" opacity="1">5k</text><text x="33" style="color:#666666;cursor:default;font-size:11px;fill:#666666;" text-anchor="end" transform="translate(0,0)" y="141" opacity="1">7.5k</text><text x="33" style="color:#666666;cursor:default;font-size:11px;fill:#666666;" text-anchor="end" transform="translate(0,0)" y="67" opacity="1">10k</text></g><a xlink:href="https://quantimo.do" target="_blank">
                    <text x="590" class="highcharts-credits" text-anchor="end" data-z-index="8"
                          style="cursor:pointer;color:#999999;font-size:9px;fill:#999999;" y="395">https://quantimo.do
                    </text>
                </a></svg>