<?xml version="1.0" standalone="no"?><!DOCTYPE svg PUBLIC "-//W3C//DTD SVG 1.1//EN" "http://www.w3.org/Graphics/SVG/1.1/DTD/svg11.dtd"><svg xmlns:xlink="http://www.w3.org/1999/xlink" version="1.1" class="highcharts-root" style="font-family:&quot;Lucida Grande&quot;, &quot;Lucida Sans Unicode&quot;, Arial, Helvetica, sans-serif;font-size:12px;" xmlns="http://www.w3.org/2000/svg" width="600" height="400"><desc>Created with Highstock 6.2.0</desc><defs><clipPath id="highcharts-cld6qms-111"><rect x="0" y="0" width="460" height="260" fill="none"></rect></clipPath><clipPath id="highcharts-cld6qms-163"><rect x="0" y="0" width="460" height="260" fill="none"></rect></clipPath><clipPath id="highcharts-cld6qms-215"><rect x="0" y="0" width="460" height="260" fill="none"></rect></clipPath><clipPath id="highcharts-cld6qms-216"><rect x="72" y="63" width="460" height="260" fill="none"></rect></clipPath></defs><rect fill="#ffffff" class="highcharts-background" x="0" y="0" width="600" height="400" rx="0" ry="0"></rect><rect fill="none" class="highcharts-plot-background" x="72" y="63" width="460" height="260"></rect><g class="highcharts-pane-group" data-z-index="0"></g><g class="highcharts-grid highcharts-xaxis-grid " data-z-index="1"><path fill="none" data-z-index="1" class="highcharts-grid-line" d="M 121.5 63 L 121.5 323" opacity="1"></path><path fill="none" data-z-index="1" class="highcharts-grid-line" d="M 193.5 63 L 193.5 323" opacity="1"></path><path fill="none" data-z-index="1" class="highcharts-grid-line" d="M 265.5 63 L 265.5 323" opacity="1"></path><path fill="none" data-z-index="1" class="highcharts-grid-line" d="M 338.5 63 L 338.5 323" opacity="1"></path><path fill="none" data-z-index="1" class="highcharts-grid-line" d="M 410.5 63 L 410.5 323" opacity="1"></path><path fill="none" data-z-index="1" class="highcharts-grid-line" d="M 482.5 63 L 482.5 323" opacity="1"></path></g><g class="highcharts-grid highcharts-yaxis-grid " data-z-index="1"><path fill="none" stroke="#e6e6e6" stroke-width="1" data-z-index="1" class="highcharts-grid-line" d="M 72 323.5 L 532 323.5" opacity="1"></path><path fill="none" stroke="#e6e6e6" stroke-width="1" data-z-index="1" class="highcharts-grid-line" d="M 72 258.5 L 532 258.5" opacity="1"></path><path fill="none" stroke="#e6e6e6" stroke-width="1" data-z-index="1" class="highcharts-grid-line" d="M 72 193.5 L 532 193.5" opacity="1"></path><path fill="none" stroke="#e6e6e6" stroke-width="1" data-z-index="1" class="highcharts-grid-line" d="M 72 128.5 L 532 128.5" opacity="1"></path><path fill="none" stroke="#e6e6e6" stroke-width="1" data-z-index="1" class="highcharts-grid-line" d="M 72 62.5 L 532 62.5" opacity="1"></path></g><g class="highcharts-grid highcharts-yaxis-grid " data-z-index="1"><path fill="none" stroke="#e6e6e6" stroke-width="1" data-z-index="1" class="highcharts-grid-line" d="M 72 323.5 L 532 323.5" opacity="1"></path><path fill="none" stroke="#e6e6e6" stroke-width="1" data-z-index="1" class="highcharts-grid-line" d="M 72 258.5 L 532 258.5" opacity="1"></path><path fill="none" stroke="#e6e6e6" stroke-width="1" data-z-index="1" class="highcharts-grid-line" d="M 72 193.5 L 532 193.5" opacity="1"></path><path fill="none" stroke="#e6e6e6" stroke-width="1" data-z-index="1" class="highcharts-grid-line" d="M 72 128.5 L 532 128.5" opacity="1"></path><path fill="none" stroke="#e6e6e6" stroke-width="1" data-z-index="1" class="highcharts-grid-line" d="M 72 62.5 L 532 62.5" opacity="1"></path></g><rect fill="none" class="highcharts-plot-border" data-z-index="1" x="72" y="63" width="460" height="260"></rect><g class="highcharts-axis highcharts-xaxis " data-z-index="2"><path fill="none" class="highcharts-tick" stroke="#ccd6eb" stroke-width="1" d="M 121.5 323 L 121.5 333" opacity="1"></path><path fill="none" class="highcharts-tick" stroke="#ccd6eb" stroke-width="1" d="M 193.5 323 L 193.5 333" opacity="1"></path><path fill="none" class="highcharts-tick" stroke="#ccd6eb" stroke-width="1" d="M 265.5 323 L 265.5 333" opacity="1"></path><path fill="none" class="highcharts-tick" stroke="#ccd6eb" stroke-width="1" d="M 338.5 323 L 338.5 333" opacity="1"></path><path fill="none" class="highcharts-tick" stroke="#ccd6eb" stroke-width="1" d="M 410.5 323 L 410.5 333" opacity="1"></path><path fill="none" class="highcharts-tick" stroke="#ccd6eb" stroke-width="1" d="M 482.5 323 L 482.5 333" opacity="1"></path><path fill="none" class="highcharts-axis-line" stroke="#ccd6eb" stroke-width="1" data-z-index="7" d="M 72 323.5 L 532 323.5"></path></g><g class="highcharts-axis highcharts-yaxis " data-z-index="2"><text x="26" data-z-index="7" text-anchor="middle" transform="translate(0,0) rotate(270 26 193)" class="highcharts-axis-title" style="color:#666666;fill:#666666;" y="193"><tspan>SUM Adderall Xr intake (mg)</tspan></text><path fill="none" class="highcharts-axis-line" stroke="#ccd6eb" stroke-width="1" data-z-index="7" d="M 71.5 63 L 71.5 323"></path></g><g class="highcharts-axis highcharts-yaxis " data-z-index="2"><text x="574" data-z-index="7" text-anchor="middle" transform="translate(0,0) rotate(90 574 193)" class="highcharts-axis-title" style="color:#666666;fill:#666666;" y="193"><tspan>MEAN Inflammatory Pain (/5)</tspan></text><path fill="none" class="highcharts-axis-line" stroke="#ccd6eb" stroke-width="1" data-z-index="7" d="M 532.5 63 L 532.5 323"></path></g><g class="highcharts-series-group" data-z-index="3"><g data-z-index="0.1" class="highcharts-series highcharts-series-0 highcharts-spline-series highcharts-color-0 " transform="translate(72,63) scale(1 1)" clip-path="url(#highcharts-cld6qms-163)"><path fill="none" d="M 4.5098039215686 260 C 4.5098039215686 260 7.604475937258739 260 9.6675906143855 260 C 12.455660865558098 260 13.849695991144397 260 16.637766242317 260 C 18.8498836461254 260 19.955942348029602 260 22.168059751838 260 C 23.3572161282372 260 23.9517943164368 260 25.140950692836 260 C 27.2040653699628 260 28.2356227085262 260 30.298737385653 260 C 32.361852062779796 260 33.39340940134319 227.5 35.45652407847 227.5 C 37.5196387555968 227.5 38.551196094160204 227.5 40.614310771287 227.5 C 42.67742544841381 227.5 43.708982786977195 227.5 45.772097464104 227.5 C 47.8352121412308 227.5 48.8667694797942 195 50.929884156921 195 C 52.992998834047796 195 54.0245561726112 195 56.087670849738 195 C 60.1451297147536 195 62.173859147261396 195 66.231318012277 195 C 68.33311608960021 195 69.38401512826181 227.5 71.485813205585 227.5 C 71.5159002946262 227.5 71.5309438391468 227.5 71.561030928188 227.5 C 73.6241456053148 227.5 74.6557029438782 227.5 76.718817621005 227.5 C 78.7819322981318 227.5 79.81348963669521 227.5 81.876604313822 227.5 C 85.6675775330424 227.5 87.56306414265259 260 91.354037361873 260 C 91.6892934969062 260 91.85692156442279 260 92.192177699456 260 C 94.25529237658279 260 95.28684971514619 260 97.349964392273 260 C 101.00196391449178 260 102.8279636756012 243.75 106.47996319782 243.75 C 106.95419302985601 243.75 107.191307945874 243.75 107.66553777791 243.75 C 109.728652455034 243.75 110.760209793596 233.9999999999937 112.82332447072 227.5 C 114.886439147848 220.9999999999937 115.917996486412 211.25 117.98111116354 211.25 C 120.04422584066802 211.25 121.075783179232 211.25 123.13889785636 211.25 C 126.31523482802 211.25 127.90340331385 211.25 131.07974028551 211.25 C 134.09274734523 211.25 135.59925087509 211.25 138.61225793481 211.25 C 141.964819285142 211.25 143.641099960308 243.75 146.99366131064 243.75 C 154.83349708372 243.75 158.75341497026 214.64589505397655 166.59325074334 195 C 187.286004411216 143.14589505397655 197.63238124515402 111.51645030225201 218.32513491303 65 C 226.54750653249397 46.516450302252025 230.658692342226 32.50000000000003 238.88106396169 32.50000000000003 C 243.02018778267802 32.50000000000003 245.089749693172 43.60111343075731 249.22887351416 47.666666666666686 C 257.442648822472 55.734446764090634 261.549536476628 62.83333333333334 269.76331178494 62.83333333333334 C 271.82069558796 62.83333333333334 272.84938748947 62.83333333333334 274.90677129249 62.83333333333334 C 277.38394162356997 62.83333333333334 278.62252678911 62.83333333333334 281.09969712019 62.83333333333334 C 282.755919735994 62.83333333333334 283.584031043896 50.19572063949961 285.2402536597 47.666666666666686 C 291.529887987884 38.062387306166286 294.674705151976 32.50000000000003 300.96433948016 32.50000000000003 C 302.955818231 32.50000000000003 303.95155760642 32.50000000000003 305.94303635726 32.50000000000003 C 308.026209093748 32.50000000000003 309.067795461992 32.50000000000003 311.15096819848 32.50000000000003 C 313.20835200150395 32.50000000000003 314.237043903016 32.50000000000003 316.29442770604 32.50000000000003 C 318.308829953288 32.50000000000003 319.316031076912 32.50000000000003 321.33043332416 32.50000000000003 C 323.460885772 32.50000000000003 324.52611199592 32.50000000000003 326.65656444376 32.50000000000003 C 339.01949260273597 32.50000000000003 345.200956682224 32.50000000000003 357.5638848412 32.50000000000003 C 365.826372579388 32.50000000000003 369.957616448482 32.50000000000003 378.22010418667 32.50000000000003 C 382.334871792718 32.50000000000003 384.39225559574203 32.50000000000003 388.50702320179 32.50000000000003 C 390.58016690859404 32.50000000000003 391.61673876199603 32.50000000000003 393.6898824688 32.50000000000003 C 395.738669960672 32.50000000000003 396.763063706608 32.50000000000003 398.81185119848 32.50000000000003 C 400.82911888278005 32.50000000000003 401.83775272493 32.50000000000003 403.85502040923 32.50000000000003 C 405.932462271614 32.50000000000003 406.97118320280595 32.50000000000003 409.04862506519 32.50000000000003 C 411.098845275586 32.50000000000003 412.12395538078397 32.50000000000003 414.17417559118 32.50000000000003 C 424.489748976812 32.50000000000003 429.647535669628 32.50000000000003 439.96310905526 32.50000000000003 C 446.173943864528 32.50000000000003 455.49019607843 32.50000000000003 455.49019607843 32.50000000000003" class="highcharts-graph" data-z-index="1" stroke="#000000" stroke-width="2" stroke-linejoin="round" stroke-linecap="round"></path></g><g data-z-index="0.1" class="highcharts-markers highcharts-series-0 highcharts-spline-series highcharts-color-0 " transform="translate(72,63) scale(1 1)" clip-path="none"></g><g data-z-index="0.1" class="highcharts-series highcharts-series-1 highcharts-spline-series highcharts-color-1 " transform="translate(72,63) scale(1 1)" clip-path="url(#highcharts-cld6qms-215)"><path fill="none" d="M 4.5098039215686 32.49999999999997 C 4.5098039215686 32.49999999999997 7.604475937258739 108.33333333333329 9.6675906143855 129.99999999999997 C 12.455660865558098 151.66666666666666 13.849695991144397 151.66666666666666 16.637766242317 151.66666666666666 C 18.8498836461254 151.66666666666666 19.955942348029602 151.66666666666666 22.168059751838 151.66666666666666 C 23.3572161282372 151.66666666666666 23.9517943164368 173.33333333333334 25.140950692836 173.33333333333334 C 27.2040653699628 173.33333333333334 28.2356227085262 54.166666666666686 30.298737385653 54.166666666666686 C 32.361852062779796 54.166666666666686 33.39340940134319 70.05555555555556 35.45652407847 79.44444444444446 C 37.5196387555968 88.83333333333334 38.551196094160204 79.44444444444446 40.614310771287 101.11111111111114 C 42.67742544841381 122.77777777777783 43.708982786977195 195 45.772097464104 195 C 47.8352121412308 195 48.8667694797942 195 50.929884156921 195 C 52.992998834047796 195 54.0245561726112 163.35205992509444 56.087670849738 151.66666666666666 C 60.1451297147536 128.68539325842778 62.173859147261396 142.58874156780365 66.231318012277 108.33333333333334 C 68.33311608960021 90.58874156780365 69.38401512826181 21.666666666666686 71.485813205585 21.666666666666686 C 71.5159002946262 21.666666666666686 71.5309438391468 56.3333333333334 71.561030928188 56.3333333333334 C 73.6241456053148 56.3333333333334 74.6557029438782 50.5555555555556 76.718817621005 50.5555555555556 C 78.7819322981318 50.5555555555556 79.81348963669521 151.66666666666666 81.876604313822 151.66666666666666 C 85.6675775330424 151.66666666666666 87.56306414265259 21.666666666666686 91.354037361873 21.666666666666686 C 91.6892934969062 21.666666666666686 91.85692156442279 49.83333333333326 92.192177699456 73.66666666666666 C 94.25529237658279 97.50000000000006 95.28684971514619 86.2370268237638 97.349964392273 97.50000000000006 C 101.00196391449178 117.4370268237638 102.8279636756012 151.66666666666666 106.47996319782 151.66666666666666 C 106.95419302985601 151.66666666666666 107.191307945874 129.99999999999997 107.66553777791 129.99999999999997 C 109.728652455034 129.99999999999997 110.760209793596 195 112.82332447072 195 C 114.886439147848 195 115.917996486412 171.8888888888889 117.98111116354 158.8888888888889 C 120.04422584066802 145.8888888888889 121.075783179232 129.99999999999997 123.13889785636 129.99999999999997 C 126.31523482802 129.99999999999997 127.90340331385 151.66666666666666 131.07974028551 151.66666666666666 C 134.09274734523 151.66666666666666 135.59925087509 151.66666666666666 138.61225793481 151.66666666666666 C 141.964819285142 151.66666666666666 143.641099960308 151.66666666666666 146.99366131064 151.66666666666666 C 154.83349708372 151.66666666666666 158.75341497026 195 166.59325074334 195 C 187.286004411216 195 197.63238124515402 195 218.32513491303 195 C 226.54750653249397 195 230.658692342226 195 238.88106396169 195 C 243.02018778267802 195 245.089749693172 195 249.22887351416 195 C 257.442648822472 195 261.549536476628 151.66666666666666 269.76331178494 151.66666666666666 C 271.82069558796 151.66666666666666 272.84938748947 195 274.90677129249 195 C 277.38394162356997 195 278.62252678911 108.33333333333334 281.09969712019 108.33333333333334 C 282.755919735994 108.33333333333334 283.584031043896 144.4407981728583 285.2402536597 151.66666666666666 C 291.529887987884 179.10746483952497 294.674705151976 195 300.96433948016 195 C 302.955818231 195 303.95155760642 151.66666666666666 305.94303635726 151.66666666666666 C 308.026209093748 151.66666666666666 309.067795461992 195 311.15096819848 195 C 313.20835200150395 195 314.237043903016 151.66666666666666 316.29442770604 151.66666666666666 C 318.308829953288 151.66666666666666 319.316031076912 151.66666666666666 321.33043332416 151.66666666666666 C 323.460885772 151.66666666666666 324.52611199592 151.66666666666666 326.65656444376 151.66666666666666 C 339.01949260273597 151.66666666666666 345.200956682224 238.33333333333334 357.5638848412 238.33333333333334 C 365.826372579388 238.33333333333334 369.957616448482 151.66666666666666 378.22010418667 151.66666666666666 C 382.334871792718 151.66666666666666 384.39225559574203 195 388.50702320179 195 C 390.58016690859404 195 391.61673876199603 195 393.6898824688 195 C 395.738669960672 195 396.763063706608 195 398.81185119848 195 C 400.82911888278005 195 401.83775272493 238.33333333333334 403.85502040923 238.33333333333334 C 405.932462271614 238.33333333333334 406.97118320280595 195 409.04862506519 195 C 411.098845275586 195 412.12395538078397 238.33333333333334 414.17417559118 238.33333333333334 C 424.489748976812 238.33333333333334 429.647535669628 238.33333333333334 439.96310905526 238.33333333333334 C 446.173943864528 238.33333333333334 455.49019607843 238.33333333333334 455.49019607843 238.33333333333334" class="highcharts-graph" data-z-index="1" stroke="#5D83FF" stroke-width="2" stroke-linejoin="round" stroke-linecap="round"></path></g><g data-z-index="0.1" class="highcharts-markers highcharts-series-1 highcharts-spline-series highcharts-color-1 " transform="translate(72,63) scale(1 1)" clip-path="none"></g></g><text x="300" text-anchor="middle" class="highcharts-title" data-z-index="4" style="color:#333333;font-size:18px;fill:#333333;" y="24"><tspan>Adderall Xr Intake &amp; Inflammatory Pain Over Time</tspan></text><text x="300" text-anchor="middle" class="highcharts-subtitle" data-z-index="4" style="color:#666666;fill:#666666;" y="46"><tspan>Black represents the sum of Adderall Xr intake over the previous 7 days</tspan></text><g class="highcharts-legend" data-z-index="7" transform="translate(107,358)"><rect fill="none" class="highcharts-legend-box" rx="0" ry="0" x="0" y="0" width="387" height="27" visibility="visible"></rect><g data-z-index="1"><g><g class="highcharts-legend-item highcharts-spline-series highcharts-color-0 highcharts-series-0" data-z-index="1" transform="translate(8,3)"><path fill="none" d="M 0 11 L 16 11" class="highcharts-graph" stroke="#000000" stroke-width="2"></path><path fill="#000000" d="M 12 11 A 4 4 0 1 1 11.999998000000167 10.996000000666664 Z" class="highcharts-point"></path><text x="21" style="color:#333333;font-size:12px;font-weight:bold;cursor:pointer;fill:#333333;" text-anchor="start" data-z-index="2" y="15"><tspan>Adderall Xr intake (mg)</tspan></text></g><g class="highcharts-legend-item highcharts-spline-series highcharts-color-1 highcharts-series-1" data-z-index="1" transform="translate(207,3)"><path fill="none" d="M 0 11 L 16 11" class="highcharts-graph" stroke="#5D83FF" stroke-width="2"></path><path fill="#5D83FF" d="M 8 7 L 12 11 8 15 4 11 Z" class="highcharts-point"></path><text x="21" y="15" style="color:#333333;font-size:12px;font-weight:bold;cursor:pointer;fill:#333333;" text-anchor="start" data-z-index="2"><tspan>Inflammatory Pain (/5)</tspan></text></g></g></g></g><g class="highcharts-axis-labels highcharts-xaxis-labels " data-z-index="7"><text x="124.89832681836" style="color:#666666;cursor:default;font-size:11px;fill:#666666;" text-anchor="start" transform="translate(0,0)" y="342" opacity="1"><tspan>21. Jan</tspan></text><text x="197.10734051779" style="color:#666666;cursor:default;font-size:11px;fill:#666666;" text-anchor="start" transform="translate(0,0)" y="342" opacity="1"><tspan>4. Feb</tspan></text><text x="269.31635421723" style="color:#666666;cursor:default;font-size:11px;fill:#666666;" text-anchor="start" transform="translate(0,0)" y="342" opacity="1"><tspan>18. Feb</tspan></text><text x="341.52536791667" style="color:#666666;cursor:default;font-size:11px;fill:#666666;" text-anchor="start" transform="translate(0,0)" y="342" opacity="1"><tspan>4. Mar</tspan></text><text x="413.7343816161" style="color:#666666;cursor:default;font-size:11px;fill:#666666;" text-anchor="start" transform="translate(0,0)" y="342" opacity="1"><tspan>18. Mar</tspan></text><text x="485.94339531554" style="color:#666666;cursor:default;font-size:11px;fill:#666666;" text-anchor="start" transform="translate(0,0)" y="342" opacity="1"><tspan>1. Apr</tspan></text></g><g class="highcharts-axis-labels highcharts-yaxis-labels " data-z-index="7"><text x="57" style="color:#666666;cursor:default;font-size:11px;fill:#666666;" text-anchor="end" transform="translate(0,0)" y="327" opacity="1">0</text><text x="57" style="color:#666666;cursor:default;font-size:11px;fill:#666666;" text-anchor="end" transform="translate(0,0)" y="262" opacity="1">30</text><text x="57" style="color:#666666;cursor:default;font-size:11px;fill:#666666;" text-anchor="end" transform="translate(0,0)" y="197" opacity="1">60</text><text x="57" style="color:#666666;cursor:default;font-size:11px;fill:#666666;" text-anchor="end" transform="translate(0,0)" y="132" opacity="1">90</text><text x="57" style="color:#666666;cursor:default;font-size:11px;fill:#666666;" text-anchor="end" transform="translate(0,0)" y="67" opacity="1">120</text></g><g class="highcharts-axis-labels highcharts-yaxis-labels " data-z-index="7"><text x="547" style="color:#666666;cursor:default;font-size:11px;fill:#666666;" text-anchor="start" transform="translate(0,0)" y="327" opacity="1">1.2</text><text x="547" style="color:#666666;cursor:default;font-size:11px;fill:#666666;" text-anchor="start" transform="translate(0,0)" y="262" opacity="1">1.8</text><text x="547" style="color:#666666;cursor:default;font-size:11px;fill:#666666;" text-anchor="start" transform="translate(0,0)" y="197" opacity="1">2.4</text><text x="547" style="color:#666666;cursor:default;font-size:11px;fill:#666666;" text-anchor="start" transform="translate(0,0)" y="132" opacity="1">3</text><text x="547" style="color:#666666;cursor:default;font-size:11px;fill:#666666;" text-anchor="start" transform="translate(0,0)" y="67" opacity="1">3.6</text></g><a xlink:href="https://quantimo.do" target="_blank">
                    <text x="590" class="highcharts-credits" text-anchor="end" data-z-index="8"
                          style="cursor:pointer;color:#999999;font-size:9px;fill:#999999;" y="395">https://quantimo.do
                    </text>
                </a></svg>