<?xml version="1.0" standalone="no"?><!DOCTYPE svg PUBLIC "-//W3C//DTD SVG 1.1//EN" "http://www.w3.org/Graphics/SVG/1.1/DTD/svg11.dtd"><svg xmlns:xlink="http://www.w3.org/1999/xlink" version="1.1" class="highcharts-root" style="font-family:&quot;Lucida Grande&quot;, &quot;Lucida Sans Unicode&quot;, Arial, Helvetica, sans-serif;font-size:12px;" xmlns="http://www.w3.org/2000/svg" width="600" height="400"><desc>Created with Highstock 6.2.0</desc><defs><clipPath id="highcharts-1kzi9d9-58"><rect x="0" y="0" width="522" height="263" fill="none"></rect></clipPath><clipPath id="highcharts-1kzi9d9-110"><rect x="0" y="0" width="522" height="263" fill="none"></rect></clipPath><clipPath id="highcharts-1kzi9d9-111"><rect x="68" y="78" width="522" height="263" fill="none"></rect></clipPath></defs><rect fill="#ffffff" class="highcharts-background" x="0" y="0" width="600" height="400" rx="0" ry="0"></rect><rect fill="none" class="highcharts-plot-background" x="68" y="78" width="522" height="263"></rect><g class="highcharts-pane-group" data-z-index="0"></g><g class="highcharts-grid highcharts-xaxis-grid " data-z-index="1"><path fill="none" data-z-index="1" class="highcharts-grid-line" d="M 72.5 78 L 72.5 341" opacity="1"></path><path fill="none" data-z-index="1" class="highcharts-grid-line" d="M 170.5 78 L 170.5 341" opacity="1"></path><path fill="none" data-z-index="1" class="highcharts-grid-line" d="M 267.5 78 L 267.5 341" opacity="1"></path><path fill="none" data-z-index="1" class="highcharts-grid-line" d="M 365.5 78 L 365.5 341" opacity="1"></path><path fill="none" data-z-index="1" class="highcharts-grid-line" d="M 462.5 78 L 462.5 341" opacity="1"></path><path fill="none" data-z-index="1" class="highcharts-grid-line" d="M 560.5 78 L 560.5 341" opacity="1"></path></g><g class="highcharts-grid highcharts-yaxis-grid " data-z-index="1"><path fill="none" stroke="#e6e6e6" stroke-width="1" data-z-index="1" class="highcharts-grid-line" d="M 68 341.5 L 590 341.5" opacity="1"></path><path fill="none" stroke="#e6e6e6" stroke-width="1" data-z-index="1" class="highcharts-grid-line" d="M 68 288.5 L 590 288.5" opacity="1"></path><path fill="none" stroke="#e6e6e6" stroke-width="1" data-z-index="1" class="highcharts-grid-line" d="M 68 236.5 L 590 236.5" opacity="1"></path><path fill="none" stroke="#e6e6e6" stroke-width="1" data-z-index="1" class="highcharts-grid-line" d="M 68 183.5 L 590 183.5" opacity="1"></path><path fill="none" stroke="#e6e6e6" stroke-width="1" data-z-index="1" class="highcharts-grid-line" d="M 68 131.5 L 590 131.5" opacity="1"></path><path fill="none" stroke="#e6e6e6" stroke-width="1" data-z-index="1" class="highcharts-grid-line" d="M 68 77.5 L 590 77.5" opacity="1"></path></g><rect fill="none" class="highcharts-plot-border" data-z-index="1" x="68" y="78" width="522" height="263"></rect><g class="highcharts-axis highcharts-xaxis " data-z-index="2"><path fill="none" class="highcharts-tick" stroke="#ccd6eb" stroke-width="1" d="M 72.5 341 L 72.5 351" opacity="1"></path><path fill="none" class="highcharts-tick" stroke="#ccd6eb" stroke-width="1" d="M 170.5 341 L 170.5 351" opacity="1"></path><path fill="none" class="highcharts-tick" stroke="#ccd6eb" stroke-width="1" d="M 267.5 341 L 267.5 351" opacity="1"></path><path fill="none" class="highcharts-tick" stroke="#ccd6eb" stroke-width="1" d="M 365.5 341 L 365.5 351" opacity="1"></path><path fill="none" class="highcharts-tick" stroke="#ccd6eb" stroke-width="1" d="M 462.5 341 L 462.5 351" opacity="1"></path><path fill="none" class="highcharts-tick" stroke="#ccd6eb" stroke-width="1" d="M 560.5 341 L 560.5 351" opacity="1"></path><text x="329" data-z-index="7" text-anchor="middle" transform="translate(0,0)" class="highcharts-axis-title" style="color:#666666;fill:#666666;" y="381"><tspan>Adderall Xr intake (mg) over previous 7 days</tspan></text><path fill="none" class="highcharts-axis-line" stroke="#ccd6eb" stroke-width="1" data-z-index="7" d="M 68 341.5 L 590 341.5"></path></g><g class="highcharts-axis highcharts-yaxis " data-z-index="2"><text x="26" data-z-index="7" text-anchor="middle" transform="translate(0,0) rotate(270 26 209.5)" class="highcharts-axis-title" style="color:#666666;fill:#666666;" y="209.5"><tspan>Inflammatory Pain (/5)</tspan></text><path fill="none" class="highcharts-axis-line" data-z-index="7" d="M 68 78 L 68 341"></path></g><g class="highcharts-series-group" data-z-index="3"><g data-z-index="0.1" class="highcharts-series highcharts-series-0 highcharts-scatter-series highcharts-color-0 " transform="translate(68,78) scale(1 1)" clip-path="url(#highcharts-1kzi9d9-110)"></g><g data-z-index="0.1" class="highcharts-markers highcharts-series-0 highcharts-scatter-series highcharts-color-0 " transform="translate(68,78) scale(1 1)" clip-path="none"><path fill="#000000" d="M 9 21 A 4 4 0 1 1 8.999998000000167 20.996000000666665 Z" class="highcharts-point highcharts-color-0"></path><path fill="#000000" d="M 9 116 A 4 4 0 1 1 8.999998000000167 115.99600000066667 Z" class="highcharts-point highcharts-color-0"></path><path fill="#000000" d="M 9 137 A 4 4 0 1 1 8.999998000000167 136.99600000066667 Z" class="highcharts-point highcharts-color-0"></path><path fill="#000000" d="M 9 137 A 4 4 0 1 1 8.999998000000167 136.99600000066667 Z" class="highcharts-point highcharts-color-0"></path><path fill="#000000" d="M 9 158 A 4 4 0 1 1 8.999998000000167 157.99600000066667 Z" class="highcharts-point highcharts-color-0"></path><path fill="#000000" d="M 9 42 A 4 4 0 1 1 8.999998000000167 41.99600000066666 Z" class="highcharts-point highcharts-color-0"></path><path fill="#000000" d="M 82 67 A 4 4 0 1 1 81.99999800000016 66.99600000066667 Z" class="highcharts-point highcharts-color-0"></path><path fill="#000000" d="M 82 88 A 4 4 0 1 1 81.99999800000016 87.99600000066667 Z" class="highcharts-point highcharts-color-0"></path><path fill="#000000" d="M 82 179 A 4 4 0 1 1 81.99999800000016 178.99600000066667 Z" class="highcharts-point highcharts-color-0"></path><path fill="#000000" d="M 155 179 A 4 4 0 1 1 154.99999800000018 178.99600000066667 Z" class="highcharts-point highcharts-color-0"></path><path fill="#000000" d="M 155 137 A 4 4 0 1 1 154.99999800000018 136.99600000066667 Z" class="highcharts-point highcharts-color-0"></path><path fill="#000000" d="M 155 95 A 4 4 0 1 1 154.99999800000018 94.99600000066667 Z" class="highcharts-point highcharts-color-0"></path><path fill="#000000" d="M 82 11 A 4 4 0 1 1 81.99999800000016 10.996000000666664 Z" class="highcharts-point highcharts-color-0"></path><path fill="#000000" d="M 82 44 A 4 4 0 1 1 81.99999800000016 43.99600000066666 Z" class="highcharts-point highcharts-color-0"></path><path fill="#000000" d="M 82 39 A 4 4 0 1 1 81.99999800000016 38.99600000066666 Z" class="highcharts-point highcharts-color-0"></path><path fill="#000000" d="M 82 137 A 4 4 0 1 1 81.99999800000016 136.99600000066667 Z" class="highcharts-point highcharts-color-0"></path><path fill="#000000" d="M 9 11 A 4 4 0 1 1 8.999998000000167 10.996000000666664 Z" class="highcharts-point highcharts-color-0"></path><path fill="#000000" d="M 9 61 A 4 4 0 1 1 8.999998000000167 60.99600000066666 Z" class="highcharts-point highcharts-color-0"></path><path fill="#000000" d="M 9 84 A 4 4 0 1 1 8.999998000000167 83.99600000066667 Z" class="highcharts-point highcharts-color-0"></path><path fill="#000000" d="M 45 137 A 4 4 0 1 1 44.99999800000017 136.99600000066667 Z" class="highcharts-point highcharts-color-0"></path><path fill="#000000" d="M 45 116 A 4 4 0 1 1 44.99999800000017 115.99600000066667 Z" class="highcharts-point highcharts-color-0"></path><path fill="#000000" d="M 82 179 A 4 4 0 1 1 81.99999800000016 178.99600000066667 Z" class="highcharts-point highcharts-color-0"></path><path fill="#000000" d="M 118 144 A 4 4 0 1 1 117.99999800000016 143.99600000066667 Z" class="highcharts-point highcharts-color-0"></path><path fill="#000000" d="M 118 116 A 4 4 0 1 1 117.99999800000016 115.99600000066667 Z" class="highcharts-point highcharts-color-0"></path><path fill="#000000" d="M 118 137 A 4 4 0 1 1 117.99999800000016 136.99600000066667 Z" class="highcharts-point highcharts-color-0"></path><path fill="#000000" d="M 118 137 A 4 4 0 1 1 117.99999800000016 136.99600000066667 Z" class="highcharts-point highcharts-color-0"></path><path fill="#000000" d="M 45 137 A 4 4 0 1 1 44.99999800000017 136.99600000066667 Z" class="highcharts-point highcharts-color-0"></path><path fill="#000000" d="M 155 179 A 4 4 0 1 1 154.99999800000018 178.99600000066667 Z" class="highcharts-point highcharts-color-0"></path><path fill="#000000" d="M 447 179 A 4 4 0 1 1 446.9999980000002 178.99600000066667 Z" class="highcharts-point highcharts-color-0"></path><path fill="#000000" d="M 520 179 A 4 4 0 1 1 519.9999980000001 178.99600000066667 Z" class="highcharts-point highcharts-color-0"></path><path fill="#000000" d="M 486 179 A 4 4 0 1 1 485.9999980000002 178.99600000066667 Z" class="highcharts-point highcharts-color-0"></path><path fill="#000000" d="M 452 137 A 4 4 0 1 1 451.9999980000002 136.99600000066667 Z" class="highcharts-point highcharts-color-0"></path><path fill="#000000" d="M 452 179 A 4 4 0 1 1 451.9999980000002 178.99600000066667 Z" class="highcharts-point highcharts-color-0"></path><path fill="#000000" d="M 452 95 A 4 4 0 1 1 451.9999980000002 94.99600000066667 Z" class="highcharts-point highcharts-color-0"></path><path fill="#000000" d="M 486 137 A 4 4 0 1 1 485.9999980000002 136.99600000066667 Z" class="highcharts-point highcharts-color-0"></path><path fill="#000000" d="M 520 179 A 4 4 0 1 1 519.9999980000001 178.99600000066667 Z" class="highcharts-point highcharts-color-0"></path><path fill="#000000" d="M 520 137 A 4 4 0 1 1 519.9999980000001 136.99600000066667 Z" class="highcharts-point highcharts-color-0"></path><path fill="#000000" d="M 520 179 A 4 4 0 1 1 519.9999980000001 178.99600000066667 Z" class="highcharts-point highcharts-color-0"></path><path fill="#000000" d="M 520 137 A 4 4 0 1 1 519.9999980000001 136.99600000066667 Z" class="highcharts-point highcharts-color-0"></path><path fill="#000000" d="M 520 137 A 4 4 0 1 1 519.9999980000001 136.99600000066667 Z" class="highcharts-point highcharts-color-0"></path><path fill="#000000" d="M 520 137 A 4 4 0 1 1 519.9999980000001 136.99600000066667 Z" class="highcharts-point highcharts-color-0"></path><path fill="#000000" d="M 520 221 A 4 4 0 1 1 519.9999980000001 220.99600000066667 Z" class="highcharts-point highcharts-color-0"></path><path fill="#000000" d="M 520 137 A 4 4 0 1 1 519.9999980000001 136.99600000066667 Z" class="highcharts-point highcharts-color-0"></path><path fill="#000000" d="M 520 179 A 4 4 0 1 1 519.9999980000001 178.99600000066667 Z" class="highcharts-point highcharts-color-0"></path><path fill="#000000" d="M 520 179 A 4 4 0 1 1 519.9999980000001 178.99600000066667 Z" class="highcharts-point highcharts-color-0"></path><path fill="#000000" d="M 520 179 A 4 4 0 1 1 519.9999980000001 178.99600000066667 Z" class="highcharts-point highcharts-color-0"></path><path fill="#000000" d="M 520 221 A 4 4 0 1 1 519.9999980000001 220.99600000066667 Z" class="highcharts-point highcharts-color-0"></path><path fill="#000000" d="M 520 179 A 4 4 0 1 1 519.9999980000001 178.99600000066667 Z" class="highcharts-point highcharts-color-0"></path><path fill="#000000" d="M 520 221 A 4 4 0 1 1 519.9999980000001 220.99600000066667 Z" class="highcharts-point highcharts-color-0"></path><path fill="#000000" d="M 520 221 A 4 4 0 1 1 519.9999980000001 220.99600000066667 Z" class="highcharts-point highcharts-color-0"></path><path fill="#000000" d="M 520 221 A 4 4 0 1 1 519.9999980000001 220.99600000066667 Z" class="highcharts-point highcharts-color-0"></path></g></g><text x="300" text-anchor="middle" class="highcharts-title" data-z-index="4" style="color:#333333;font-size:18px;fill:#333333;" y="24"><tspan>Inflammatory Pain Following Adderall Xr Intake</tspan></text><text x="300" text-anchor="middle" class="highcharts-subtitle" data-z-index="4" style="color:#666666;fill:#666666;" y="46"><tspan>An increase in 7 days cumulative Adderall Xr intake is usually followed by an decrease in</tspan><tspan dy="15" x="300">Inflammatory Pain. (R = -0.623)</tspan></text><g class="highcharts-axis-labels highcharts-xaxis-labels " data-z-index="7"><text x="73.117647058824" style="color:#666666;cursor:default;font-size:11px;fill:#666666;" text-anchor="middle" transform="translate(0,0)" y="360" opacity="1">0</text><text x="170.59663865546" style="color:#666666;cursor:default;font-size:11px;fill:#666666;" text-anchor="middle" transform="translate(0,0)" y="360" opacity="1">20</text><text x="268.0756302521" style="color:#666666;cursor:default;font-size:11px;fill:#666666;" text-anchor="middle" transform="translate(0,0)" y="360" opacity="1">40</text><text x="365.55462184874" style="color:#666666;cursor:default;font-size:11px;fill:#666666;" text-anchor="middle" transform="translate(0,0)" y="360" opacity="1">60</text><text x="463.03361344538" style="color:#666666;cursor:default;font-size:11px;fill:#666666;" text-anchor="middle" transform="translate(0,0)" y="360" opacity="1">80</text><text x="560.51260504202" style="color:#666666;cursor:default;font-size:11px;fill:#666666;" text-anchor="middle" transform="translate(0,0)" y="360" opacity="1">100</text></g><g class="highcharts-axis-labels highcharts-yaxis-labels " data-z-index="7"><text x="53" style="color:#666666;cursor:default;font-size:11px;fill:#666666;" text-anchor="end" transform="translate(0,0)" y="345" opacity="1">1</text><text x="53" style="color:#666666;cursor:default;font-size:11px;fill:#666666;" text-anchor="end" transform="translate(0,0)" y="292" opacity="1">1.5</text><text x="53" style="color:#666666;cursor:default;font-size:11px;fill:#666666;" text-anchor="end" transform="translate(0,0)" y="239" opacity="1">2</text><text x="53" style="color:#666666;cursor:default;font-size:11px;fill:#666666;" text-anchor="end" transform="translate(0,0)" y="187" opacity="1">2.5</text><text x="53" style="color:#666666;cursor:default;font-size:11px;fill:#666666;" text-anchor="end" transform="translate(0,0)" y="134" opacity="1">3</text><text x="53" style="color:#666666;cursor:default;font-size:11px;fill:#666666;" text-anchor="end" transform="translate(0,0)" y="82" opacity="1">3.5</text></g><a xlink:href="https://quantimo.do" target="_blank">
                    <text x="590" class="highcharts-credits" text-anchor="end" data-z-index="8"
                          style="cursor:pointer;color:#999999;font-size:9px;fill:#999999;" y="395">https://quantimo.do
                    </text>
                </a></svg>