<?xml version="1.0" standalone="no"?><!DOCTYPE svg PUBLIC "-//W3C//DTD SVG 1.1//EN" "http://www.w3.org/Graphics/SVG/1.1/DTD/svg11.dtd"><svg xmlns:xlink="http://www.w3.org/1999/xlink" version="1.1" class="highcharts-root" style="font-family:&quot;Lucida Grande&quot;, &quot;Lucida Sans Unicode&quot;, Arial, Helvetica, sans-serif;font-size:12px;" xmlns="http://www.w3.org/2000/svg" width="600" height="400"><desc>Created with Highstock 6.2.0</desc><defs><clipPath id="highcharts-1ocpivn-1167"><rect x="0" y="0" width="477" height="260" fill="none"></rect></clipPath><clipPath id="highcharts-1ocpivn-1747"><rect x="0" y="0" width="477" height="260" fill="none"></rect></clipPath><clipPath id="highcharts-1ocpivn-2327"><rect x="0" y="0" width="477" height="260" fill="none"></rect></clipPath><clipPath id="highcharts-1ocpivn-2328"><rect x="65" y="63" width="477" height="260" fill="none"></rect></clipPath></defs><rect fill="#ffffff" class="highcharts-background" x="0" y="0" width="600" height="400" rx="0" ry="0"></rect><rect fill="none" class="highcharts-plot-background" x="65" y="63" width="477" height="260"></rect><g class="highcharts-pane-group" data-z-index="0"></g><g class="highcharts-grid highcharts-xaxis-grid " data-z-index="1"><path fill="none" data-z-index="1" class="highcharts-grid-line" d="M 141.5 63 L 141.5 323" opacity="1"></path><path fill="none" data-z-index="1" class="highcharts-grid-line" d="M 232.5 63 L 232.5 323" opacity="1"></path><path fill="none" data-z-index="1" class="highcharts-grid-line" d="M 322.5 63 L 322.5 323" opacity="1"></path><path fill="none" data-z-index="1" class="highcharts-grid-line" d="M 411.5 63 L 411.5 323" opacity="1"></path><path fill="none" data-z-index="1" class="highcharts-grid-line" d="M 502.5 63 L 502.5 323" opacity="1"></path></g><g class="highcharts-grid highcharts-yaxis-grid " data-z-index="1"><path fill="none" stroke="#e6e6e6" stroke-width="1" data-z-index="1" class="highcharts-grid-line" d="M 65 323.5 L 542 323.5" opacity="1"></path><path fill="none" stroke="#e6e6e6" stroke-width="1" data-z-index="1" class="highcharts-grid-line" d="M 65 258.5 L 542 258.5" opacity="1"></path><path fill="none" stroke="#e6e6e6" stroke-width="1" data-z-index="1" class="highcharts-grid-line" d="M 65 193.5 L 542 193.5" opacity="1"></path><path fill="none" stroke="#e6e6e6" stroke-width="1" data-z-index="1" class="highcharts-grid-line" d="M 65 128.5 L 542 128.5" opacity="1"></path><path fill="none" stroke="#e6e6e6" stroke-width="1" data-z-index="1" class="highcharts-grid-line" d="M 65 62.5 L 542 62.5" opacity="1"></path></g><g class="highcharts-grid highcharts-yaxis-grid " data-z-index="1"><path fill="none" stroke="#e6e6e6" stroke-width="1" data-z-index="1" class="highcharts-grid-line" d="M 65 323.5 L 542 323.5" opacity="1"></path><path fill="none" stroke="#e6e6e6" stroke-width="1" data-z-index="1" class="highcharts-grid-line" d="M 65 258.5 L 542 258.5" opacity="1"></path><path fill="none" stroke="#e6e6e6" stroke-width="1" data-z-index="1" class="highcharts-grid-line" d="M 65 193.5 L 542 193.5" opacity="1"></path><path fill="none" stroke="#e6e6e6" stroke-width="1" data-z-index="1" class="highcharts-grid-line" d="M 65 128.5 L 542 128.5" opacity="1"></path><path fill="none" stroke="#e6e6e6" stroke-width="1" data-z-index="1" class="highcharts-grid-line" d="M 65 62.5 L 542 62.5" opacity="1"></path></g><rect fill="none" class="highcharts-plot-border" data-z-index="1" x="65" y="63" width="477" height="260"></rect><g class="highcharts-axis highcharts-xaxis " data-z-index="2"><path fill="none" class="highcharts-tick" stroke="#ccd6eb" stroke-width="1" d="M 141.5 323 L 141.5 333" opacity="1"></path><path fill="none" class="highcharts-tick" stroke="#ccd6eb" stroke-width="1" d="M 232.5 323 L 232.5 333" opacity="1"></path><path fill="none" class="highcharts-tick" stroke="#ccd6eb" stroke-width="1" d="M 322.5 323 L 322.5 333" opacity="1"></path><path fill="none" class="highcharts-tick" stroke="#ccd6eb" stroke-width="1" d="M 411.5 323 L 411.5 333" opacity="1"></path><path fill="none" class="highcharts-tick" stroke="#ccd6eb" stroke-width="1" d="M 502.5 323 L 502.5 333" opacity="1"></path><path fill="none" class="highcharts-axis-line" stroke="#ccd6eb" stroke-width="1" data-z-index="7" d="M 65 323.5 L 542 323.5"></path></g><g class="highcharts-axis highcharts-yaxis " data-z-index="2"><text x="26" data-z-index="7" text-anchor="middle" transform="translate(0,0) rotate(270 26 193)" class="highcharts-axis-title" style="color:#666666;fill:#666666;" y="193"><tspan>SUM Cold Shower (min)</tspan></text><path fill="none" class="highcharts-axis-line" stroke="#ccd6eb" stroke-width="1" data-z-index="7" d="M 64.5 63 L 64.5 323"></path></g><g class="highcharts-axis highcharts-yaxis " data-z-index="2"><text x="574" data-z-index="7" text-anchor="middle" transform="translate(0,0) rotate(90 574 193)" class="highcharts-axis-title" style="color:#666666;fill:#666666;" y="193"><tspan>MEAN Overall Mood (/5)</tspan></text><path fill="none" class="highcharts-axis-line" stroke="#ccd6eb" stroke-width="1" data-z-index="7" d="M 542.5 63 L 542.5 323"></path></g><g class="highcharts-series-group" data-z-index="3"><g data-z-index="0.1" class="highcharts-series highcharts-series-0 highcharts-spline-series highcharts-color-0 " transform="translate(65,63) scale(1 1)" clip-path="url(#highcharts-1ocpivn-1747)"><path fill="none" d="M 4.6764705882353 260 C 4.6764705882353 260 5.121063155407221 260 5.4174582001885 260 C 5.713853244969741 260 5.86205076736036 260 6.1584458121416 260 C 6.45484085692288 260 6.60303837931352 260 6.8994334240948 260 C 7.19582846887608 260 7.3440259912667205 260 7.640421036048 260 C 7.93681608082928 260 8.08501360321992 260 8.3814086480012 260 C 8.67780369278248 260 8.826001215173118 260 9.1223962599544 260 C 9.41879130473564 260 9.56698882712626 260 9.8633838719075 260 C 10.159778916688898 260 10.3079764390796 260 10.604371483861 260 C 10.9007665286422 260 11.0489640510328 260 11.345359095814 260 C 11.6417541405952 260 11.7899516629858 260 12.086346707767 260 C 12.382741752548199 260 12.530939274938799 260 12.82733431972 260 C 13.123729364501198 260 13.2719268868918 260 13.568321931673 260 C 13.864716976454599 260 14.012914498845399 260 14.309309543627 260 C 14.605704588408198 260 14.7539021107988 260 15.05029715558 260 C 15.3466922003612 260 15.494889722751799 260 15.791284767533 260 C 16.0876798123142 260 16.2358773347048 260 16.532272379486 260 C 16.828667424267202 260 16.9768649466578 260 17.273259991439 260 C 17.5696550362202 260 17.7178525586108 260 18.014247603392 260 C 18.3106426481736 260 18.4588401705644 260 18.755235215346 260 C 19.0516302601272 260 19.1998277825178 260 19.496222827299 260 C 19.7926178720802 260 19.9408153944708 260 20.237210439252 260 C 20.5336054840332 260 20.6818030064238 260 20.978198051205 260 C 21.274593095986198 260 21.4227906183768 260 21.719185663158 260 C 22.0155807079396 260 22.1637782303304 260 22.460173275112 260 C 22.756568319893198 260 22.9047658422838 260 23.201160887065 260 C 23.4975559318462 260 23.6457534542368 260 23.942148499018 260 C 24.2385435437992 260 24.386741066189803 260 24.683136110971 260 C 24.979531155752202 260 25.127728678142798 260 25.424123722924 260 C 25.720518767705197 260 25.8687162900958 260 26.165111334877 260 C 26.4615063796586 260 26.609703902049397 260 26.906098946831 247 C 27.202493991612197 234 27.3506915140028 208 27.647086558784 195 C 27.943481603565203 182 28.0916791259558 182 28.388074170737 182 C 28.6844692155182 182 28.832666737908802 182 29.12906178269 182 C 29.425456827471198 182 29.5736543498618 182 29.870049394643 182 C 30.7557354208194 182 31.198578433907603 195 32.084264460084 195 C 32.0877635682516 195 32.0895131223354 195 32.093012230503 195 C 32.3894072752842 195 32.5376047976748 234 32.833999842456 247 C 33.1303948872372 260 33.2785924096278 260 33.574987454409 260 C 33.871382499190204 260 34.0195800215808 260 34.315975066362 260 C 34.6123701111436 260 34.7605676335344 260 35.056962678316 260 C 35.353357723097204 260 35.5015552454878 260 35.797950290269 260 C 36.0943453350502 260 36.242542857440796 260 36.538937902222 260 C 36.8353329470032 260 36.9835304693938 260 37.279925514175 260 C 37.5763205589562 260 37.7245180813468 260 38.020913126128 260 C 38.3173081709092 260 38.465505693299804 260 38.761900738081 260 C 39.0582957828626 260 39.2064933052534 260 39.502888350035 260 C 39.7992833948162 260 39.9474809172068 260 40.243875961988 260 C 40.5402710067692 260 40.6884685291598 260 40.984863573941 260 C 41.2812586187222 260 41.4294561411128 260 41.725851185894 260 C 42.0222462306752 260 42.1704437530658 260 42.466838797847 260 C 42.763233842628196 260 42.9114313650188 260 43.2078264098 260 C 43.504221454581604 260 43.6524189769724 260 43.948814021754 260 C 44.245209066535196 260 44.3934065889258 260 44.689801633707 260 C 44.986196678488206 260 45.134394200878795 260 45.43078924566 260 C 45.7271842904412 260 45.875381812831804 260 46.171776857613 260 C 46.4681719023942 260 46.61636942478479 260 46.912764469566 260 C 47.2091595143476 260 47.3573570367384 260 47.65375208152 260 C 47.9501471263012 260 48.09834464869179 260 48.394739693473 260 C 48.6911347382542 260 48.8393322606448 260 49.135727305426 260 C 49.4321223502072 260 49.5803198725978 260 49.876714917379 260 C 50.1731099621602 260 50.3213074845508 260 50.617702529332 260 C 50.9140975741132 260 51.0622950965038 260 51.358690141285 260 C 51.65508518606661 260 51.8032827084574 260 52.099677753239 260 C 52.3960727980202 260 52.5442703204108 260 52.840665365192 260 C 53.137060409973195 260 53.2852579323638 260 53.581652977145 260 C 53.878048021926205 260 54.026245544316794 260 54.322640589098 260 C 54.61903563387921 260 54.767233156269796 260 55.063628201051 260 C 55.3600232458322 260 55.508220768222806 260 55.804615813004 260 C 56.1010108577856 260 56.2492083801764 260 56.545603424958 260 C 56.8419984697392 260 56.99019599212979 260 57.286591036911 260 C 57.5829860816922 260 57.7311836040828 260 58.027578648864 260 C 58.3239736936452 260 58.472171216035804 260 58.768566260817 260 C 59.064961305598196 260 59.2131588279888 260 59.50955387277 260 C 59.805948917551596 260 59.954146439942406 260 60.250541484724 260 C 60.5469365295052 260 60.6951340518958 260 60.991529096677 260 C 61.2879241414582 260 61.4361216638488 260 61.73251670863 260 C 62.02891175341121 260 62.1771092758018 260 62.473504320583 260 C 62.769899365364196 260 62.9180968877548 260 63.214491932536 260 C 63.510886977317206 260 63.659084499707795 260 63.955479544489 260 C 64.2518745892706 260 64.4000721116614 260 64.696467156443 260 C 65.001712886589 260 65.154335751662 244.55299349982573 65.459581481808 234 C 65.7559765265892 223.75299349982572 65.9041740489798 208 66.200569093761 208 C 66.4881134531774 208 66.6318856328856 208 66.919429992302 208 C 67.21582503708319 208 67.3640225594738 192.4 67.660417604255 182 C 67.95681264903621 171.6 68.10501017142681 166.3999999999928 68.401405216208 156 C 68.69780026098961 145.59999999999278 68.8459977833804 140.2470065001815 69.142392828162 130 C 69.447638558308 119.44700650018149 69.600261423381 104 69.905507153527 104 C 70.1930515129434 104 70.33682369265159 104 70.624368052068 104 C 70.92076309684919 104 71.06896061923979 104 71.365355664021 104 C 71.6617507088022 104 71.8099482311928 104 72.106343275974 104 C 72.4027383207552 104 72.5509358431458 104 72.847330887927 104 C 73.14372593270859 104 73.29192345509941 104 73.588318499881 104 C 73.8847135446622 104 74.03291106705281 104 74.329306111834 104 C 74.6257011566152 104 74.7738986790058 104 75.070293723787 104 C 75.3666887685682 104 75.5148862909588 88.4 75.81128133574 78 C 76.10767638052121 67.6 76.2558739029118 52 76.552268947693 52 C 76.8486639924746 52 76.9968615148654 52 77.293256559647 52 C 77.5896516044282 52 77.7378491268188 67.60000000000025 78.0342441716 78 C 78.3306392163812 88.40000000000026 78.47883673877179 104 78.775231783553 104 C 79.07162682833419 104 79.21982435072479 104 79.516219395506 104 C 79.8126144402872 104 79.96081196267781 114.40000000000038 80.257207007459 130 C 80.55360205224021 145.6000000000004 80.70179957463081 161.20000000001446 80.998194619412 182 C 81.29458966419361 202.80000000001448 81.44278718658441 234 81.739182231366 234 C 82.03557727614721 234 82.1837747985378 234 82.480169843319 234 C 82.77656488810021 234 82.9247624104908 215.80000000000018 83.221157455272 208 C 83.5175525000532 200.2000000000002 83.6657500224438 195 83.962145067225 195 C 84.2585401120062 195 84.40673763439679 208 84.703132679178 208 C 84.9995277239592 208 85.1477252463498 208 85.444120291131 208 C 85.74051533591259 208 85.88871285830339 208 86.185107903085 208 C 86.48150294786619 208 86.6297004702568 182 86.926095515038 182 C 87.22249055981919 182 87.37068808220981 182 87.667083126991 182 C 87.96347817177221 182 88.11167569416281 200.2000000000002 88.408070738944 208 C 88.70446578372521 215.80000000000018 88.8526633061158 215.80000000000362 89.149058350897 221 C 89.4454533956786 226.2000000000036 89.5936509180694 234 89.890045962851 234 C 90.1864410076322 234 90.33463853002279 218.40000000000026 90.631033574804 208 C 90.92742861958519 197.60000000000025 91.07562614197579 182 91.372021186757 182 C 91.66841623153819 182 91.8166137539288 208 92.11300879871 208 C 92.4094038434912 208 92.55760136588181 208 92.853996410663 208 C 93.1503914554442 208 93.2985889778348 208 93.594984022616 208 C 93.8913790673976 208 94.03957658978841 208 94.33597163457 208 C 94.63236667935121 208 94.7805642017418 182 95.076959246523 182 C 95.3733542913042 182 95.5215518136948 208 95.817946858476 208 C 96.1143419032572 208 96.2625394256478 208 96.558934470429 208 C 96.8553295152102 208 97.00352703760079 182 97.299922082382 182 C 97.59631712716319 182 97.74451464955379 182 98.040909694335 182 C 98.3373047391166 182 98.48550226150739 182 98.781897306289 182 C 99.07829235107019 182 99.2264898734608 182 99.522884918242 182 C 99.8192799630252 182 99.96747748541681 208 100.2638725302 208 C 100.56026757498 208 100.70846509737001 195 101.00486014215 195 C 101.30125518692999 195 101.44945270932 210.6 101.7458477541 221 C 102.04224279888 231.4 102.19044032127 247 102.48683536605 247 C 102.783230410834 247 102.93142793322599 247 103.22782297801 247 C 103.52421802279 247 103.67241554518 247 103.96881058996 247 C 104.26520563474 247 104.41340315713 247 104.70979820191 247 C 105.00619324669401 247 105.154390769086 247 105.45078581387 247 C 105.74718085865001 247 105.89537838104002 260 106.19177342582 260 C 106.48816847060002 260 106.63636599299002 260 106.93276103777 260 C 107.229156082554 260 107.37735360494601 234 107.67374864973 234 C 107.97014369451001 234 108.1183412169 234 108.41473626168 234 C 108.71113130645999 234 108.85932882885 234 109.15572387363 234 C 109.452118918414 234 109.600316440806 234 109.89671148559 234 C 110.486002466982 234 110.780647957678 234 111.36993893907 234 C 111.37343804723801 234 111.375187601322 234 111.37868670949 234 C 111.67508175427399 234 111.823279276666 234 112.11967432145 234 C 112.41606936623 234 112.56426688862 260 112.8606619334 260 C 113.15705697817998 260 113.30525450056999 260 113.60164954535 260 C 113.89804459013399 260 114.04624211252599 260 114.34263715731 260 C 114.63903220209 260 114.78722972448 260 115.08362476926 260 C 115.38001981404 260 115.52821733643 260 115.82461238121 260 C 116.12100742599 260 116.26920494838001 260 116.56559999316 260 C 116.86199503794401 260 117.01019256033601 260 117.30658760512 260 C 117.60298264990001 260 117.75118017229002 260 118.04757521707 260 C 118.34397026184999 260 118.49216778424 260 118.78856282902 260 C 119.084957873804 260 119.233155396196 260 119.52955044098 260 C 119.82594548575999 260 119.97414300815001 260 120.27053805293 260 C 120.56693309770999 260 120.71513062009998 260 121.01152566488 260 C 121.30792070966399 260 121.456118232056 260 121.75251327684 260 C 122.04890832162 260 122.19710584401 260 122.49350088879 260 C 122.78989593357001 260 122.93809345596 260 123.23448850074 260 C 123.530883545524 260 123.67908106791599 260 123.9754761127 260 C 124.27187115747999 260 124.42006867987 260 124.71646372465 260 C 125.01285876943 260 125.16105629182 260 125.4574513366 260 C 125.75384638138401 260 125.90204390377599 260 126.19843894856 260 C 126.49483399334 260 126.64303151572999 260 126.93942656051 260 C 127.23582160529 260 127.38401912767999 260 127.68041417246 260 C 127.976809217244 260 128.125006739636 260 128.42140178442 260 C 128.7177968292 260 128.86599435159002 260 129.16238939637 260 C 129.45878444115002 260 129.60698196354002 260 129.90337700832 260 C 130.199772053104 260 130.347969575496 260 130.64436462028 260 C 130.94075966505997 260 131.08895718744998 260 131.38535223223 260 C 131.68174727700998 260 131.82994479939998 260 132.12633984418 260 C 132.42273488895998 260 132.57093241135 260 132.86732745613 260 C 133.163722500914 260 133.311920023306 260 133.60831506809 260 C 133.90471011287 260 134.05290763526 260 134.34930268004 260 C 134.64569772482 260 134.79389524721 260 135.09029029199 260 C 135.386685336774 260 135.534882859166 260 135.83127790395 260 C 136.12767294873 260 136.27587047112002 260 136.5722655159 260 C 136.86866056068 260 137.01685808307002 260 137.31325312785 260 C 137.60964817263402 260 137.75784569502602 260 138.05424073981 260 C 138.35063578459 260 138.49883330697998 260 138.79522835176 260 C 139.09162339654 260 139.23982091892998 260 139.53621596371 260 C 139.83261100849398 260 139.980808530886 260 140.27720357567 260 C 140.57359862045 260 140.72179614284 260 141.01819118762 260 C 141.31458623240002 260 141.46278375479 260 141.75917879957 260 C 142.055573844354 260 142.203771366746 260 142.50016641153 260 C 142.79656145630997 260 142.94475897869998 260 143.24115402348 260 C 143.53754906825998 260 143.68574659064998 260 143.98214163543 260 C 144.278536680214 260 144.42673420260599 260 144.72312924739 260 C 145.01952429217 260 145.16772181456 260 145.46411685934 260 C 145.76051190412 260 145.90870942651 260 146.20510447129 260 C 146.501499516074 260 146.649697038466 260 146.94609208325 260 C 147.24248712803 260 147.39068465042 260 147.6870796952 260 C 147.98347473998 260 148.13167226237002 260 148.42806730715 260 C 148.72446235193001 260 148.87265987432002 260 149.1690549191 260 C 149.465449963884 260 149.613647486276 260 149.91004253106 260 C 150.20643757583997 260 150.35463509822998 260 150.65103014301 260 C 150.94742518778997 260 151.09562271017998 260 151.39201775496 260 C 151.688412799744 260 151.83661032213598 260 152.13300536692 260 C 152.4294004117 260 152.57759793409 260 152.87399297887 260 C 153.17038802365 260 153.31858554604 260 153.61498059082 260 C 153.911375635604 260 154.059573157996 260 154.35596820278 260 C 154.65236324756 260 154.80056076994998 260 155.09695581473 260 C 155.39335085951 260 155.5415483819 260 155.83794342668 260 C 156.134338471464 260 156.28253599385602 260 156.57893103864 260 C 156.87532608342002 260 157.02352360581 260 157.31991865059 260 C 157.61631369537 260 157.76451121776 260 158.06090626254 260 C 158.357301307324 260 158.505498829716 260 158.8018938745 260 C 159.09828891928 260 159.24648644167002 234 159.54288148645 234 C 159.83927653123 234 159.98747405362002 234 160.2838690984 234 C 160.58026414318402 234 160.72846166557602 234 161.02485671036 234 C 161.32125175514 234 161.46944927753 234 161.76584432231 234 C 162.06223936708997 234 162.21043688947998 234 162.50683193426 234 C 162.848746259704 234 163.019703422426 234 163.36161774787 234 C 163.61249351199 234 163.73793139405 234 163.98880715817 234 C 164.28520220295 234 164.43339972534 260 164.72979477012 260 C 165.0261898149 260 165.17438733729 260 165.47078238207 260 C 166.05578524071402 260 166.348286670036 260 166.93328952868 260 C 166.94107675959998 260 166.94497037506 260 166.95275760598 260 C 167.24915265076 260 167.39735017315002 260 167.69374521793 260 C 167.99014026271402 260 168.13833778510602 260 168.43473282989 260 C 169.262566934362 260 169.676483986598 260 170.50431809107 260 C 170.565669120942 260 170.59634463587798 260 170.65769566575 260 C 170.95409071053 260 171.10228823292 260 171.3986832777 260 C 171.69507832248001 260 171.84327584487 260 172.13967088965 260 C 172.436065934434 260 172.584263456826 260 172.88065850161 260 C 173.17705354638997 260 173.32525106877998 260 173.62164611356 260 C 173.91804115833997 260 174.06623868072998 260 174.36263372551 260 C 174.659028770294 260 174.80722629268598 260 175.10362133747 260 C 175.40001638225 260 175.54821390464 260 175.84460894942 260 C 176.1410039942 260 176.28920151659 260 176.58559656137 260 C 176.881991606154 260 177.030189128546 260 177.32658417333 260 C 177.62297921810998 260 177.77117674049998 260 178.06757178528 260 C 178.36396683005998 260 178.51216435245 260 178.80855939723 260 C 179.10495444200998 260 179.2531519644 260 179.54954700918 260 C 179.845942053964 260 179.994139576356 260 180.29053462114 260 C 180.776567606608 260 181.019584099342 260 181.50561708481 260 C 181.612374188902 260 181.665752740948 260 181.77250984504 260 C 182.06890488982398 260 182.21710241221598 260 182.513497457 260 C 182.80989250177998 260 182.95809002417 260 183.25448506895 260 C 183.55088011373 260 183.69907763612 260 183.9954726809 260 C 184.291867725684 260 184.440065248076 260 184.73646029286 260 C 185.03285533764 260 185.18105286002998 260 185.47744790481 260 C 185.77384294959 260 185.92204047197998 260 186.21843551676 260 C 186.514830561544 260 186.663028083936 260 186.95942312872 260 C 187.25581817350002 260 187.40401569589 260 187.70041074067 260 C 187.99680578545002 260 188.14500330784 260 188.44139835262 260 C 188.737793397404 260 188.885990919796 260 189.18238596458 260 C 189.47878100936 260 189.62697853175 260 189.92337357653 260 C 190.21976862131 260 190.36796614370002 260 190.66436118848 260 C 190.96075623326402 260 191.10895375565602 260 191.40534880044 260 C 191.70174384522002 260 191.84994136761003 260 192.14633641239 260 C 192.44273145717 260 192.59092897956003 260 192.88732402434 260 C 193.183719069124 260 193.331916591516 260 193.6283116363 260 C 193.92470668108 260 194.07290420347002 260 194.36929924825 260 C 194.66569429303001 260 194.81389181542002 260 195.1102868602 260 C 195.40668190498002 260 195.55487942737003 260 195.85127447215 260 C 196.147669516934 260 196.295867039326 260 196.59226208411 260 C 197.15369398959402 260 197.434409942336 260 197.99584184782 260 C 198.02720003189603 260 198.04287912393403 260 198.07423730801 260 C 198.37063235279402 260 198.51882987518601 260 198.81522491997 260 C 199.11161996475002 260 199.25981748714003 260 199.55621253192 260 C 199.8526075767 260 200.00080509908997 260 200.29720014387 260 C 200.59359518865398 260 200.741792711046 260 201.03818775583 260 C 201.33458280061 260 201.482780323 260 201.77917536778 260 C 202.07557041256 260 202.22376793495 260 202.52016297973 260 C 202.816558024514 260 202.96475554690602 260 203.26115059169 260 C 203.55754563647002 260 203.70574315886 260 204.00213820364 260 C 204.29853324841997 260 204.44673077080998 260 204.74312581559 260 C 205.03952086037398 260 205.18771838276598 260 205.48411342755 260 C 205.78050847232998 260 205.92870599472 260 206.2251010395 260 C 206.52149608428 260 206.66969360667 260 206.96608865145 260 C 207.262483696234 260 207.410681218626 260 207.70707626341 260 C 208.00347130819 260 208.15166883058 260 208.44806387536 260 C 208.74445892014 260 208.89265644253 260 209.18905148731 260 C 209.48544653209402 260 209.633644054486 260 209.93003909927 260 C 210.22643414405002 260 210.37463166644002 260 210.67102671122 260 C 210.96742175600002 260 211.11561927839003 260 211.41201432317 260 C 211.70840936794997 260 211.85660689034003 260 212.15300193512 260 C 212.44939697990398 260 212.59759450229598 260 212.89398954708 260 C 213.19038459185998 260 213.33858211425 260 213.63497715903 260 C 213.93137220380999 260 214.0795697262 260 214.37596477098 260 C 214.672359815764 260 214.820557338156 260 215.11695238294 260 C 215.41334742772 260 215.56154495011 260 215.85793999489 260 C 216.15433503966997 260 216.30253256205998 260 216.59892760684 260 C 216.89532265162399 260 217.04352017401598 260 217.3399152188 260 C 217.63631026358 260 217.78450778597 260 218.08090283075 260 C 218.37729787553 260 218.52549539792 260 218.8218904427 260 C 219.118285487484 260 219.266483009876 260 219.56287805466 260 C 219.85927309944 260 220.00747062183 260 220.30386566661 260 C 220.60026071139 260 220.74845823378 260 221.04485327856 260 C 221.34124832334402 260 221.48944584573601 260 221.78584089052 260 C 222.08223593530002 260 222.23043345769003 260 222.52682850247 260 C 222.82322354725002 260 222.97142106964003 260 223.26781611442 260 C 223.56421115920404 260 223.71240868159603 260 224.00880372638 260 C 224.30519877116004 260 224.45339629355004 260 224.74979133833 260 C 225.04618638311004 260 225.19438390550005 260 225.49077895028 260 C 225.78717399506004 260 225.93537151745005 260 226.23176656223 260 C 226.528161607014 260 226.676359129406 260 226.97275417419 260 C 227.26914921897 260 227.41734674136 260 227.71374178614 260 C 228.01013683092 260 228.15833435331 260 228.45472939809 260 C 228.75112444287402 260 228.899321965266 260 229.19571701005 260 C 229.49211205483002 260 229.64030957722002 260 229.936704622 260 C 230.23309966678002 260 230.38129718917003 260 230.67769223395 260 C 230.97408727873398 260 231.122284801126 260 231.41867984591 260 C 231.71507489069 260 231.86327241307998 260 232.15966745786 260 C 232.45606250264 260 232.60426002503 260 232.90065506981 260 C 233.197050114594 260 233.34524763698602 260 233.64164268177 260 C 233.93803772655002 260 234.08623524894 260 234.38263029372 260 C 234.67902533850003 260 234.82722286089 260 235.12361790567 260 C 235.42001295045398 260 235.56821047284598 260 235.86460551763 260 C 236.16100056240998 260 236.3091980848 260 236.60559312958 260 C 236.90198817435999 260 237.05018569675 260 237.34658074153 260 C 237.642975786314 260 237.791173308706 260 238.08756835349 260 C 238.38396339827 260 238.53216092066 260 238.82855596544 260 C 239.12495101021995 260 239.27314853260995 260 239.56954357739 260 C 239.86593862217396 260 240.01413614456595 260 240.31053118935 260 C 240.60692623412996 260 240.75512375651996 260 241.0515188013 260 C 241.34791384607996 260 241.49611136846997 260 241.79250641325 260 C 242.08890145802997 260 242.23709898041997 260 242.5334940252 260 C 242.82988906998398 260 242.97808659237597 260 243.27448163716 260 C 243.57087668193998 260 243.71907420432998 260 244.01546924911 260 C 244.31186429388998 260 244.46006181628 260 244.75645686106 260 C 245.052851905844 260 245.201049428236 260 245.49744447302 260 C 245.7938395178 260 245.94203704019 260 246.23843208497 260 C 246.53482712975 260 246.68302465214 260 246.97941969692 260 C 247.275814741704 260 247.424012264096 260 247.72040730888 260 C 248.01680235366 260 248.16499987605002 260 248.46139492083 260 C 248.75778996561002 260 248.90598748800002 260 249.20238253278 260 C 249.498777577564 260 249.646975099956 260 249.94337014474 260 C 250.23976518952 260 250.38796271191 260 250.68435775669 260 C 250.98075280147 260 251.12895032386 260 251.42534536864 260 C 251.72174041342402 260 251.869937935816 260 252.1663329806 260 C 252.46272802538002 260 252.61092554777002 260 252.90732059255 260 C 253.20371563733002 260 253.35191315972003 260 253.6483082045 260 C 253.94470324928398 260 254.09290077167603 260 254.38929581646 260 C 255.0063738333 260 255.31491284171997 260 255.93199085856 260 C 256.20409797606396 260 256.340151534816 260 256.61225865232 260 C 256.9086536971 260 257.05685121949 169 257.35324626427 169 C 257.658491994414 169 257.81111485948605 169 258.11636058963 169 C 258.467664188658 169 258.643315988172 169 258.9946195872 169 C 259.227255392372 169 259.343573294958 169 259.57620910013 169 C 260.165500081526 169 260.46014557222395 169 261.04943655362 169 C 261.3458315984 169 261.49402912079006 169 261.79042416557 169 C 262.11460624579803 169 262.276697285912 260 262.60087936614 260 C 263.09178365906 260 263.33723580552 260 263.82814009844 260 C 264.22642093986394 260 264.425561360576 260 264.823842202 260 C 265.392344364284 260 265.676595445426 260 266.24509760771 260 C 266.54149265249004 260 266.68969017488 260 266.98608521966 260 C 267.28248026444 260 267.43067778682996 260 267.72707283161 260 C 268.02346787639397 260 268.171665398786 260 268.46806044357 260 C 268.76445548835 260 268.91265301074 260 269.20904805552 260 C 269.801838145084 260 270.098233189866 195 270.69102327943 195 C 270.98741832421 195 271.1356158466 195 271.43201089138 195 C 271.737256621524 195 271.889879486596 195 272.19512521674 195 C 272.48266957616 195 272.62644175587 195 272.91398611529 195 C 273.21038116007 195 273.35857868246 195 273.65497372724 195 C 273.95136877202003 195 274.09956629441 195 274.39596133919 195 C 274.69235638397004 195 274.84055390636 260 275.13694895114 260 C 275.433343995924 260 275.581541518316 260 275.8779365631 260 C 276.17433160787994 260 276.32252913026997 260 276.61892417505 260 C 276.91531921982994 260 277.06351674222 260 277.359911787 260 C 278.12404497033197 260 278.50611156199795 260 279.27024474533 260 C 279.395296696342 260 279.457822671848 260 279.58287462286 260 C 279.879269667644 260 280.02746719003596 195 280.32386223482 195 C 280.62025727959997 195 280.76845480199 195 281.06484984677 195 C 281.606100131322 195 281.876725273598 195 282.41797555815 195 C 282.46951536316203 195 282.49528526566803 195 282.54682507068 195 C 282.84322011546 195 282.99141763785 195 283.28781268263 195 C 283.58420772741 195 283.7324052498 195 284.02880029458 195 C 284.32519533936403 195 284.473392861756 195 284.76978790654 195 C 285.06618295132 195 285.21438047371004 260 285.51077551849 260 C 285.80717056327 260 285.95536808566004 260 286.25176313044 260 C 286.54815817522405 260 286.696355697616 260 286.9927507424 260 C 287.28914578718 260 287.43734330957005 260 287.73373835435 260 C 288.03013339913 260 288.17833092152006 260 288.4747259663 260 C 288.77112101108 260 288.91931853347006 260 289.21571357825 260 C 289.51210862303407 260 289.66030614542603 260 289.95670119021 260 C 290.25309623499004 260 290.40129375737996 260 290.69768880216 260 C 292.179664026068 260 292.920651638022 260 294.40262686193 260 C 294.69902190671 260 294.8472194291 260 295.14361447388 260 C 295.44000951866 260 295.58820704105 260 295.88460208583 260 C 296.180997130614 260 296.329194653006 260 296.62558969779 260 C 296.92198474257003 260 297.07018226496 260 297.36657730974 260 C 297.66297235452004 260 297.81116987691 260 298.10756492169 260 C 298.403959966474 260 298.552157488866 260 298.84855253365 260 C 299.14494757842994 260 299.29314510081997 260 299.5895401456 260 C 299.88593519037994 260 300.03413271277 260 300.33052775755 260 C 300.626922802334 260 300.77512032472595 260 301.07151536951 260 C 301.36791041428995 260 301.51610793668 260 301.81250298146 260 C 302.10889802623996 260 302.25709554863 260 302.55349059341 260 C 302.849885638194 260 302.99808316058596 260 303.29447820537 260 C 303.59087325014997 260 303.73907077254 260 304.03546581732 260 C 304.3318608621 260 304.48005838449 260 304.77645342927 260 C 305.07284847405 260 305.22104599644 260 305.51744104122 260 C 305.813836086004 260 305.962033608396 260 306.25842865318 260 C 306.55482369796 260 306.70302122035 260 306.99941626513 260 C 307.29581130991 260 307.4440088323 260 307.74040387708 260 C 308.03679892186403 260 308.184996444256 260 308.48139148904 260 C 308.77778653382 260 308.92598405621004 260 309.22237910099 260 C 309.51877414577 260 309.66697166816004 260 309.96336671294 260 C 310.25976175772405 260 310.407959280116 260 310.7043543249 260 C 311.00074936968 260 311.14894689207006 260 311.44534193685 260 C 311.74173698163 260 311.88993450402006 260 312.1863295488 260 C 312.48272459358407 260 312.63092211597603 260 312.92731716076 260 C 313.22371220554 260 313.37190972793 260 313.66830477271 260 C 313.96469981749 260 314.11289733987996 260 314.40929238466 260 C 314.70568742944397 260 314.853884951836 260 315.15027999662 260 C 315.690171803884 260 315.960117707516 260 316.50000951478 260 C 316.552924949568 260 316.57938266696203 260 316.63229810175 260 C 317.81786112838597 260 318.410642641704 260 319.59620566834 260 C 319.89260071312003 260 320.04079823551 260 320.33719328029 260 C 320.827685913422 260 321.07293222998806 260 321.56342486312 260 C 321.665722319548 260 321.716871047762 260 321.81916850419 260 C 322.11556354897397 260 322.263761071366 260 322.56015611615 260 C 322.85655116093 260 323.00474868332 260 323.3011437281 260 C 323.59753877288 260 323.74573629527 260 324.04213134005 260 C 324.532623973186 260 324.777870289754 260 325.26836292289 260 C 325.370660379318 260 325.421809107532 260 325.52410656396 260 C 325.82050160874 260 325.96869913113 260 326.26509417591 260 C 326.561489220694 260 326.709686743086 260 327.00608178787 260 C 327.30247683265003 260 327.45067435504 260 327.74706939982 260 C 328.04346444460003 260 328.19166196699 260 328.48805701177 260 C 329.374494317054 260 329.817712969696 260 330.70415027498 260 C 331.299688193604 260 331.59745715291604 260 332.19299507154 260 C 332.48939011632 260 332.63758763871 260 332.93398268349 260 C 333.230377728274 260 333.378575250666 260 333.67497029545 260 C 333.97136534023 260 334.11956286262 260 334.4159579074 260 C 334.71235295218 260 334.86055047457 260 335.15694551935 260 C 335.453340564134 260 335.60153808652603 260 335.89793313131 260 C 336.19432817609 260 336.34252569848 260 336.63892074326 260 C 336.93531578803993 260 337.08351331042996 260 337.37990835521 260 C 337.67630339998993 260 337.82450092237997 260 338.12089596716 260 C 338.417291011944 260 338.56548853433594 260 338.86188357912 260 C 339.15827862389995 260 339.30647614629 260 339.60287119107 260 C 339.89926623584995 260 340.04746375824 260 340.34385880302 260 C 340.640253847804 260 340.78845137019596 260 341.08484641498 260 C 341.38124145975996 260 341.52943898215005 260 341.82583402693 260 C 342.12222907171 260 342.27042659410006 260 342.56682163888 260 C 342.86321668366406 260 343.01141420605603 260 343.30780925084 260 C 343.60420429562004 260 343.75240181801007 260 344.04879686279 260 C 344.34519190757 260 344.49338942996 260 344.78978447474 260 C 345.086179519524 260 345.234377041916 260 345.5307720867 260 C 345.82716713148 260 345.97536465387003 260 346.27175969865 260 C 346.56815474343 260 346.71635226582003 260 347.0127473106 260 C 347.30914235538404 260 347.457339877776 260 347.75373492256 260 C 348.05012996734 260 348.19832748973005 260 348.49472253451 260 C 348.79111757929 260 348.93931510168005 260 349.23571014646 260 C 349.53210519124406 260 349.680302713636 260 349.97669775842 260 C 350.27309280320003 260 350.42129032559006 260 350.71768537037 260 C 351.01408041515003 260 351.16227793754007 260 351.45867298232 260 C 351.75506802710004 260 351.90326554948996 260 352.19966059427 260 C 352.49605563905396 260 352.644253161446 260 352.94064820623 260 C 353.23704325101 260 353.38524077339997 260 353.68163581818 260 C 355.147762140388 260 355.880825301492 260 357.3469516237 260 C 357.3628005254 260 357.37072497625 260 357.38657387795 260 C 357.68296892273 260 357.83116644512 260 358.1275614899 260 C 358.42395653468003 260 358.57215405707 260 358.86854910185 260 C 359.164944146634 260 359.313141669026 260 359.60953671381 260 C 359.90593175858993 260 360.05412928097996 260 360.35052432576 260 C 360.64691937053993 260 360.79511689292997 260 361.09151193771 260 C 361.387906982494 260 361.53610450488594 260 361.83249954967 260 C 362.12889459444995 260 362.27709211684 260 362.57348716162 260 C 362.86988220639995 260 363.01807972879 260 363.31447477357 260 C 363.610869818354 260 363.75906734074596 260 364.05546238553 260 C 364.35185743030996 260 364.5000549527 260 364.79644999748 260 C 365.09284504225997 260 365.24104256465 260 365.53743760943 260 C 366.115401085758 260 366.40438282392205 260 366.98234630025 260 C 367.277719056566 260 367.425405434724 260 367.72077819104 260 C 368.03302213752 260 368.1891441107599 260 368.50138805724 260 C 369.07832924510393 260 369.366799839036 260 369.9437410269 260 C 370.24531612396805 260 370.39610367250197 260 370.69767876957 260 C 370.98889376206597 260 371.13450125831406 260 371.42571625081 260 C 371.72638569635 260 371.87672041912003 260 372.17738986466 260 C 372.46951050868 260 372.61557083069 260 372.90769147471 260 C 373.204086519494 260 373.35228404188604 260 373.64867908667 260 C 373.94507413145 260 374.09327165383996 260 374.38966669862 260 C 374.40551560032 260 374.41344005116997 260 374.42928895287 260 C 375.006230140734 260 375.294700734666 260 375.87164192253 260 C 376.16803696731 260 376.3162344897 260 376.61262953448 260 C 376.90902457926 260 377.05722210165 260 377.35361714643 260 C 377.66586109291404 260 377.821983066156 260 378.13422701264 260 C 378.717895407476 260 379.009729604894 260 379.59339799973 260 C 379.883065837538 260 380.027899756442 260 380.31756759425 260 C 380.62981154073003 260 380.78593351397 260 381.09817746045 260 C 381.67511864831005 260 381.96358924223995 260 382.5405304301 260 C 382.55637933180395 260 382.56430378265594 260 382.58015268436 260 C 383.15709387221995 260 383.44556446614996 260 384.02250565401 260 C 384.31890069879 260 384.46709822118 260 384.76349326596 260 C 385.06170304429196 260 385.210807933458 260 385.50901771179 260 C 385.52305187994205 260 385.530068964018 260 385.54410313217 260 C 386.418080867978 260 386.855069735882 260 387.72904747169 260 C 387.945350674914 260 388.05350227652605 260 388.26980547975 260 C 388.365104719842 260 388.412754339888 260 388.50805357998 260 C 388.821889277628 260 388.978807126452 260 389.2926428241 260 C 389.571597216016 260 389.711074411974 260 389.99002880389 260 C 390.28642384867 260 390.43462137105996 260 390.73101641584 260 C 391.307957603704 260 391.59642819763604 260 392.1733693855 260 C 392.46976443028 260 392.61796195267004 260 392.91435699745 260 C 393.21075204223 260 393.35894956462005 260 393.6553446094 260 C 394.248134698964 260 394.544529743746 260 395.13731983331 260 C 395.15316873501007 260 395.16109318586 260 395.17694208756 260 C 395.75388327542396 260 396.04235386935596 260 396.61929505722 260 C 396.915690102 260 397.06388762439 260 397.36028266917 260 C 397.65667771395 260 397.80487523634 260 398.10127028112 260 C 398.3976653259 260 398.54586284829 260 398.84225789307 260 C 399.13865293785403 260 399.286850460246 260 399.58324550503 260 C 401.658010818498 260 402.695393475232 260 404.7701587887 260 C 405.06655383348 260 405.21475135586996 260 405.51114640065 260 C 406.202456968118 260 406.548112251852 260 407.23942281932 260 C 407.519574455108 260 407.659650273002 260 407.93980190879 260 C 408.52506891579395 260 408.817702419296 260 409.4029694263 260 C 409.640459386428 260 409.75920436649204 260 409.99669432662 260 C 410.60696280453203 260 410.912097043488 260 411.5223655214 260 C 411.849405206632 260 412.01292504924805 260 412.33996473448 260 C 412.88463179524405 260 413.15696532562595 260 413.70163238639 260 C 413.99802743117 260 414.14622495355997 260 414.44261999834 260 C 414.73901504312 260 414.88721256550997 260 415.18360761029 260 C 415.480002655074 260 415.628200177466 260 415.92459522225 260 C 416.22099026703 260 416.36918778942 260 416.6655828342 260 C 416.96197787898 260 417.11017540137 260 417.40657044615 260 C 417.702965490934 260 417.851163013326 260 418.14755805811 260 C 418.73684903950596 260 419.031494530204 260 419.6207855116 260 C 419.62428461976396 260 419.626034173846 260 419.62953328201 260 C 419.92630225109804 260 420.074686735642 260 420.37145570473 260 C 420.951209901118 260 421.241086999312 260 421.8208411957 260 C 422.129898209352 260 422.28442671617796 260 422.59348372983 260 C 422.88987877460994 260 423.038076297 260 423.33447134178 260 C 423.63086638655994 260 423.77906390895 260 424.07545895373 260 C 424.371853998514 260 424.52005152090595 260 424.81644656569 260 C 425.39338775355 260 425.68185834748 260 426.25879953534 260 C 426.55519458012407 260 426.70339210251603 260 426.9997871473 260 C 428.19340155321595 260 428.7902087561741 260 429.98382316209 260 C 429.99163783699805 260 429.99554517445193 260 430.00335984936 260 C 430.87669608200395 260 431.31336419832604 260 432.18670043097 260 C 432.48309547575 260 432.63129299814 260 432.92768804292 260 C 433.2240830877 260 433.37228061009 260 433.66867565487 260 C 433.965070699654 260 434.11326822204603 260 434.40966326683 260 C 434.7219072133101 260 434.87802918654995 260 435.19027313303 260 C 435.48666817781 260 435.63486570019995 260 435.93126074498 260 C 436.22765578976396 260 436.375853312156 260 436.67224835694 260 C 437.261539338332 260 437.556184829028 260 438.14547581042 260 C 438.441870855204 260 438.59006837759597 260 438.88646342238 260 C 439.18285846716 260 439.33105598955 260 439.62745103433 260 C 440.22024112389397 260 440.516636168676 260 441.10942625824 260 C 441.40582130301993 260 441.5540188254099 260 441.85041387019 260 C 442.14680891496994 260 442.2950064373599 260 442.59140148214 260 C 443.48058661648395 260 443.9251791836559 260 444.814364318 260 C 445.11075936278394 260 445.25895688517596 260 445.55535192996 260 C 446.74093210908393 260 447.33372219864594 260 448.51930237777 260 C 448.81569742255 260 448.96389494493997 260 449.26028998972 260 C 449.263789097888 260 449.265538651972 260 449.26903776014 260 C 449.5654328049201 260 449.71363032731006 260 450.01002537209 260 C 450.30642041687406 260 450.4546179392661 260 450.75101298405 260 C 451.32795417191 260 451.61642476584 260 452.1933659537 260 C 452.505609900184 260 452.66173187342594 260 452.97397581991 260 C 453.27037086469 260 453.41856838708 260 453.71496343186 260 C 454.01135847664 260 454.15955599903 260 454.45595104381 260 C 454.752346088594 260 454.900543610986 260 455.19693865577 260 C 455.49333370055 260 455.64153122294 260 455.93792626772 260 C 456.527217249116 260 456.821862739814 260 457.41115372121 260 C 458.30033885555406 260 458.74493142272604 260 459.63411655707 260 C 459.637615665238 260 459.63936521932203 260 459.64286432749 260 C 460.232155308882 260 460.526800799578 260 461.11609178097 260 C 461.41248682575406 260 461.5606843481461 260 461.85707939293 260 C 462.10919699739804 260 462.23525579963206 260 462.4873734041 260 C 462.74015652522 260 462.86654808578004 260 463.1193312069 260 C 463.218256483592 260 463.267719121938 260 463.36664439863 260 C 463.948398575474 260 464.2392756638959 260 464.82102984074 260 C 465.12092399368794 260 465.27087107016206 260 465.57076522311 260 C 465.86716026789 260 466.01535779028 260 466.31175283506 260 C 466.608147879844 260 466.756345402236 260 467.05274044702 260 C 467.3491354918 260 467.49733301419 260 467.79372805897 260 C 468.09012310375 260 468.23832062614 260 468.53471567092 260 C 468.831110715704 260 468.979308238096 260 469.27570328288 260 C 469.57209832766 260 469.72029585005004 260 470.01669089483 260 C 470.31308593961 260 470.46128346200004 260 470.75767850678 260 C 471.05407355156404 260 471.202271073956 260 471.49866611874 260 C 471.828611435948 260 472.32352941176 260 472.32352941176 260" class="highcharts-graph" data-z-index="1" stroke="#000000" stroke-width="2" stroke-linejoin="round" stroke-linecap="round"></path></g><g data-z-index="0.1" class="highcharts-markers highcharts-series-0 highcharts-spline-series highcharts-color-0 " transform="translate(65,63) scale(1 1)" clip-path="none"></g><g data-z-index="0.1" class="highcharts-series highcharts-series-1 highcharts-spline-series highcharts-color-1 " transform="translate(65,63) scale(1 1)" clip-path="url(#highcharts-1ocpivn-2327)"><path fill="none" d="M 4.6764705882353 167.91666666666666 C 4.6764705882353 167.91666666666666 5.121063155407221 162.5 5.4174582001885 162.5 C 5.713853244969741 162.5 5.86205076736036 166.5625 6.1584458121416 166.5625 C 6.45484085692288 166.5625 6.60303837931352 162.5 6.8994334240948 162.5 C 7.19582846887608 162.5 7.3440259912667205 162.5 7.640421036048 162.5 C 7.93681608082928 162.5 8.08501360321992 162.5 8.3814086480012 162.5 C 8.67780369278248 162.5 8.826001215173118 157.08333333333334 9.1223962599544 157.08333333333334 C 9.41879130473564 157.08333333333334 9.56698882712626 162.5 9.8633838719075 162.5 C 10.159778916688898 162.5 10.3079764390796 162.5 10.604371483861 162.5 C 10.9007665286422 162.5 11.0489640510328 162.5 11.345359095814 162.5 C 11.6417541405952 162.5 11.7899516629858 162.5 12.086346707767 162.5 C 12.382741752548199 162.5 12.530939274938799 162.5 12.82733431972 162.5 C 13.123729364501198 162.5 13.2719268868918 162.5 13.568321931673 162.5 C 13.864716976454599 162.5 14.012914498845399 162.5 14.309309543627 162.5 C 14.605704588408198 162.5 14.7539021107988 162.5 15.05029715558 162.5 C 15.3466922003612 162.5 15.494889722751799 162.5 15.791284767533 162.5 C 16.0876798123142 162.5 16.2358773347048 162.5 16.532272379486 162.5 C 16.828667424267202 162.5 16.9768649466578 171.36363636363637 17.273259991439 171.36363636363637 C 17.5696550362202 171.36363636363637 17.7178525586108 162.5 18.014247603392 162.5 C 18.3106426481736 162.5 18.4588401705644 170.2380952380952 18.755235215346 171.78571428571428 C 19.0516302601272 173.33333333333334 19.1998277825178 173.33333333333334 19.496222827299 173.33333333333334 C 19.7926178720802 173.33333333333334 19.9408153944708 160 20.237210439252 160 C 20.5336054840332 160 20.6818030064238 162.5 20.978198051205 162.5 C 21.274593095986198 162.5 21.4227906183768 162.5 21.719185663158 162.5 C 22.0155807079396 162.5 22.1637782303304 162.5 22.460173275112 162.5 C 22.756568319893198 162.5 22.9047658422838 162.5 23.201160887065 162.5 C 23.4975559318462 162.5 23.6457534542368 162.5 23.942148499018 162.5 C 24.2385435437992 162.5 24.386741066189803 164.30555555555557 24.683136110971 165.75 C 24.979531155752202 167.19444444444449 25.127728678142798 167.7722222222222 25.424123722924 169.72222222222223 C 25.720518767705197 171.67222222222222 25.8687162900958 175.5 26.165111334877 175.5 C 26.4615063796586 175.5 26.609703902049397 172.5 26.906098946831 172.5 C 27.202493991612197 172.5 27.3506915140028 176.94444444444446 27.647086558784 176.94444444444446 C 27.943481603565203 176.94444444444446 28.0916791259558 176.22222222222223 28.388074170737 173.33333333333334 C 28.6844692155182 170.44444444444446 28.832666737908802 162.5 29.12906178269 162.5 C 29.425456827471198 162.5 29.5736543498618 162.5 29.870049394643 162.5 C 30.7557354208194 162.5 31.198578433907603 162.5 32.084264460084 162.5 C 32.0877635682516 162.5 32.0895131223354 162.5 32.093012230503 162.5 C 32.3894072752842 162.5 32.5376047976748 167.91666666666666 32.833999842456 167.91666666666666 C 33.1303948872372 167.91666666666666 33.2785924096278 167.14285714285714 33.574987454409 167.14285714285714 C 33.871382499190204 167.14285714285714 34.0195800215808 174.6875 34.315975066362 174.6875 C 34.6123701111436 174.6875 34.7605676335344 166.7676767676768 35.056962678316 166.11111111111111 C 35.353357723097204 165.45454545454544 35.5015552454878 166.11111111111111 35.797950290269 165.45454545454544 C 36.0943453350502 164.79797979797976 36.242542857440796 162.5 36.538937902222 162.5 C 36.8353329470032 162.5 36.9835304693938 162.5 37.279925514175 162.5 C 37.5763205589562 162.5 37.7245180813468 162.5 38.020913126128 162.5 C 38.3173081709092 162.5 38.465505693299804 162.5 38.761900738081 162.5 C 39.0582957828626 162.5 39.2064933052534 172.25 39.502888350035 172.25 C 39.7992833948162 172.25 39.9474809172068 162.5 40.243875961988 162.5 C 40.5402710067692 162.5 40.6884685291598 162.5 40.984863573941 162.5 C 41.2812586187222 162.5 41.4294561411128 162.5 41.725851185894 162.5 C 42.0222462306752 162.5 42.1704437530658 167.14285714285714 42.466838797847 167.14285714285714 C 42.763233842628196 167.14285714285714 42.9114313650188 165.20833333333334 43.2078264098 165.20833333333334 C 43.504221454581604 165.20833333333334 43.6524189769724 167.91666666666666 43.948814021754 167.91666666666666 C 44.245209066535196 167.91666666666666 44.3934065889258 162.5 44.689801633707 162.5 C 44.986196678488206 162.5 45.134394200878795 165.20833333333334 45.43078924566 165.20833333333334 C 45.7271842904412 165.20833333333334 45.875381812831804 162.5 46.171776857613 162.5 C 46.4681719023942 162.5 46.61636942478479 162.5 46.912764469566 162.5 C 47.2091595143476 162.5 47.3573570367384 162.5 47.65375208152 162.5 C 47.9501471263012 162.5 48.09834464869179 162.5 48.394739693473 162.5 C 48.6911347382542 162.5 48.8393322606448 173.33333333333334 49.135727305426 173.33333333333334 C 49.4321223502072 173.33333333333334 49.5803198725978 167.08823529411765 49.876714917379 165.75 C 50.1731099621602 164.41176470588235 50.3213074845508 165.06176470588233 50.617702529332 164.41176470588235 C 50.9140975741132 163.76176470588234 51.0622950965038 162.5 51.358690141285 162.5 C 51.65508518606661 162.5 51.8032827084574 162.5 52.099677753239 162.5 C 52.3960727980202 162.5 52.5442703204108 162.5 52.840665365192 162.5 C 53.137060409973195 162.5 53.2852579323638 162.5 53.581652977145 162.5 C 53.878048021926205 162.5 54.026245544316794 162.5 54.322640589098 162.5 C 54.61903563387921 162.5 54.767233156269796 162.5 55.063628201051 162.5 C 55.3600232458322 162.5 55.508220768222806 162.5 55.804615813004 162.5 C 56.1010108577856 162.5 56.2492083801764 162.5 56.545603424958 162.5 C 56.8419984697392 162.5 56.99019599212979 162.5 57.286591036911 162.5 C 57.5829860816922 162.5 57.7311836040828 166.5625 58.027578648864 166.5625 C 58.3239736936452 166.5625 58.472171216035804 162.5 58.768566260817 162.5 C 59.064961305598196 162.5 59.2131588279888 162.5 59.50955387277 162.5 C 59.805948917551596 162.5 59.954146439942406 162.5 60.250541484724 162.5 C 60.5469365295052 162.5 60.6951340518958 167.14285714285714 60.991529096677 167.14285714285714 C 61.2879241414582 167.14285714285714 61.4361216638488 167.14285714285714 61.73251670863 167.14285714285714 C 62.02891175341121 167.14285714285714 62.1771092758018 165.75 62.473504320583 165.75 C 62.769899365364196 165.75 62.9180968877548 167.14285714285714 63.214491932536 167.14285714285714 C 63.510886977317206 167.14285714285714 63.659084499707795 162.5 63.955479544489 162.5 C 64.2518745892706 162.5 64.4000721116614 162.5 64.696467156443 162.5 C 65.001712886589 162.5 65.154335751662 162.5 65.459581481808 162.5 C 65.7559765265892 162.5 65.9041740489798 195 66.200569093761 195 C 66.4881134531774 195 66.6318856328856 162.5 66.919429992302 162.5 C 67.21582503708319 162.5 67.3640225594738 162.5 67.660417604255 162.5 C 67.95681264903621 162.5 68.10501017142681 162.5 68.401405216208 162.5 C 68.69780026098961 162.5 68.8459977833804 162.5 69.142392828162 162.5 C 69.447638558308 162.5 69.600261423381 162.5 69.905507153527 162.5 C 70.1930515129434 162.5 70.33682369265159 162.5 70.624368052068 162.5 C 70.92076309684919 162.5 71.06896061923979 162.5 71.365355664021 162.5 C 71.6617507088022 162.5 71.8099482311928 162.5 72.106343275974 162.5 C 72.4027383207552 162.5 72.5509358431458 162.5 72.847330887927 162.5 C 73.14372593270859 162.5 73.29192345509941 162.5 73.588318499881 162.5 C 73.8847135446622 162.5 74.03291106705281 162.5 74.329306111834 162.5 C 74.6257011566152 162.5 74.7738986790058 162.5 75.070293723787 162.5 C 75.3666887685682 162.5 75.5148862909588 174.6875 75.81128133574 174.6875 C 76.10767638052121 174.6875 76.2558739029118 169.72222222222223 76.552268947693 169.72222222222223 C 76.8486639924746 169.72222222222223 76.9968615148654 170.625 77.293256559647 170.625 C 77.5896516044282 170.625 77.7378491268188 162.5 78.0342441716 162.5 C 78.3306392163812 162.5 78.47883673877179 176.04166666666666 78.775231783553 176.04166666666666 C 79.07162682833419 176.04166666666666 79.21982435072479 176.04166666666666 79.516219395506 173.33333333333334 C 79.8126144402872 170.625 79.96081196267781 162.5 80.257207007459 162.5 C 80.55360205224021 162.5 80.70179957463081 166.11111111111111 80.998194619412 166.11111111111111 C 81.29458966419361 166.11111111111111 81.44278718658441 162.5 81.739182231366 162.5 C 82.03557727614721 162.5 82.1837747985378 176.04166666666666 82.480169843319 176.04166666666666 C 82.77656488810021 176.04166666666666 82.9247624104908 176.04166666666666 83.221157455272 176.04166666666666 C 83.5175525000532 176.04166666666666 83.6657500224438 170 83.962145067225 170 C 84.2585401120062 170 84.40673763439679 185.71428571428572 84.703132679178 185.71428571428572 C 84.9995277239592 185.71428571428572 85.1477252463498 168.4090909090909 85.444120291131 168.4090909090909 C 85.74051533591259 168.4090909090909 85.88871285830339 178.75 86.185107903085 178.75 C 86.48150294786619 178.75 86.6297004702568 168.4090909090909 86.926095515038 168.4090909090909 C 87.22249055981919 168.4090909090909 87.37068808220981 189.0909090909091 87.667083126991 189.0909090909091 C 87.96347817177221 189.0909090909091 88.11167569416281 179.19318181818173 88.408070738944 174.6875 C 88.70446578372521 170.18181818181807 88.8526633061158 168.9999999999983 89.149058350897 166.5625 C 89.4454533956786 164.1249999999983 89.5936509180694 162.5 89.890045962851 162.5 C 90.1864410076322 162.5 90.33463853002279 162.5 90.631033574804 162.5 C 90.92742861958519 162.5 91.07562614197579 182 91.372021186757 182 C 91.66841623153819 182 91.8166137539288 177.23333333333326 92.11300879871 173.33333333333334 C 92.4094038434912 169.43333333333325 92.55760136588181 162.5 92.853996410663 162.5 C 93.1503914554442 162.5 93.2985889778348 171.78571428571428 93.594984022616 171.78571428571428 C 93.8913790673976 171.78571428571428 94.03957658978841 162.5 94.33597163457 162.5 C 94.63236667935121 162.5 94.7805642017418 178.75 95.076959246523 178.75 C 95.3733542913042 178.75 95.5215518136948 169.7222222222222 95.817946858476 167.91666666666666 C 96.1143419032572 166.11111111111111 96.2625394256478 166.11111111111111 96.558934470429 166.11111111111111 C 96.8553295152102 166.11111111111111 97.00352703760079 169 97.299922082382 169 C 97.59631712716319 169 97.74451464955379 162.5 98.040909694335 162.5 C 98.3373047391166 162.5 98.48550226150739 162.5 98.781897306289 162.5 C 99.07829235107019 162.5 99.2264898734608 162.5 99.522884918242 162.5 C 99.8192799630252 162.5 99.96747748541681 162.5 100.2638725302 162.5 C 100.56026757498 162.5 100.70846509737001 162.5 101.00486014215 162.5 C 101.30125518692999 162.5 101.44945270932 166.5625 101.7458477541 166.5625 C 102.04224279888 166.5625 102.19044032127 162.5 102.48683536605 162.5 C 102.783230410834 162.5 102.93142793322599 162.5 103.22782297801 162.5 C 103.52421802279 162.5 103.67241554518 162.5 103.96881058996 162.5 C 104.26520563474 162.5 104.41340315713 162.5 104.70979820191 162.5 C 105.00619324669401 162.5 105.154390769086 169 105.45078581387 169 C 105.74718085865001 169 105.89537838104002 162.5 106.19177342582 162.5 C 106.48816847060002 162.5 106.63636599299002 162.5 106.93276103777 162.5 C 107.229156082554 162.5 107.37735360494601 162.5 107.67374864973 162.5 C 107.97014369451001 162.5 108.1183412169 162.5 108.41473626168 162.5 C 108.71113130645999 162.5 108.85932882885 162.5 109.15572387363 162.5 C 109.452118918414 162.5 109.600316440806 162.5 109.89671148559 162.5 C 110.486002466982 162.5 110.780647957678 162.5 111.36993893907 162.5 C 111.37343804723801 162.5 111.375187601322 162.5 111.37868670949 162.5 C 111.67508175427399 162.5 111.823279276666 162.5 112.11967432145 162.5 C 112.41606936623 162.5 112.56426688862 162.5 112.8606619334 162.5 C 113.15705697817998 162.5 113.30525450056999 162.5 113.60164954535 162.5 C 113.89804459013399 162.5 114.04624211252599 162.5 114.34263715731 162.5 C 114.63903220209 162.5 114.78722972448 162.5 115.08362476926 162.5 C 115.38001981404 162.5 115.52821733643 162.5 115.82461238121 162.5 C 116.12100742599 162.5 116.26920494838001 162.5 116.56559999316 162.5 C 116.86199503794401 162.5 117.01019256033601 178.75 117.30658760512 178.75 C 117.60298264990001 178.75 117.75118017229002 169 118.04757521707 169 C 118.34397026184999 169 118.49216778424 178.75 118.78856282902 178.75 C 119.084957873804 178.75 119.233155396196 165.83333333333331 119.52955044098 164.16666666666666 C 119.82594548575999 162.5 119.97414300815001 162.5 120.27053805293 162.5 C 120.56693309770999 162.5 120.71513062009998 162.5 121.01152566488 162.5 C 121.30792070966399 162.5 121.456118232056 154.375 121.75251327684 154.375 C 122.04890832162 154.375 122.19710584401 162.5 122.49350088879 162.5 C 122.78989593357001 162.5 122.93809345596 146.25 123.23448850074 146.25 C 123.530883545524 146.25 123.67908106791599 166.5625 123.9754761127 166.5625 C 124.27187115747999 166.5625 124.42006867987 162.5 124.71646372465 162.5 C 125.01285876943 162.5 125.16105629182 162.5 125.4574513366 162.5 C 125.75384638138401 162.5 125.90204390377599 162.5 126.19843894856 162.5 C 126.49483399334 162.5 126.64303151572999 162.5 126.93942656051 162.5 C 127.23582160529 162.5 127.38401912767999 162.5 127.68041417246 162.5 C 127.976809217244 162.5 128.125006739636 162.5 128.42140178442 162.5 C 128.7177968292 162.5 128.86599435159002 162.5 129.16238939637 162.5 C 129.45878444115002 162.5 129.60698196354002 162.5 129.90337700832 162.5 C 130.199772053104 162.5 130.347969575496 162.5 130.64436462028 162.5 C 130.94075966505997 162.5 131.08895718744998 166.3235294117647 131.38535223223 166.3235294117647 C 131.68174727700998 166.3235294117647 131.82994479939998 162.5 132.12633984418 162.5 C 132.42273488895998 162.5 132.57093241135 162.5 132.86732745613 162.5 C 133.163722500914 162.5 133.311920023306 162.5 133.60831506809 162.5 C 133.90471011287 162.5 134.05290763526 162.5 134.34930268004 162.5 C 134.64569772482 162.5 134.79389524721 166.5625 135.09029029199 166.5625 C 135.386685336774 166.5625 135.534882859166 162.5 135.83127790395 162.5 C 136.12767294873 162.5 136.27587047112002 167.14285714285714 136.5722655159 167.14285714285714 C 136.86866056068 167.14285714285714 137.01685808307002 166.6785714285651 137.31325312785 165.75 C 137.60964817263402 164.82142857142225 137.75784569502602 162.5 138.05424073981 162.5 C 138.35063578459 162.5 138.49883330697998 162.5 138.79522835176 162.5 C 139.09162339654 162.5 139.23982091892998 162.5 139.53621596371 162.5 C 139.83261100849398 162.5 139.980808530886 162.5 140.27720357567 162.5 C 140.57359862045 162.5 140.72179614284 162.5 141.01819118762 162.5 C 141.31458623240002 162.5 141.46278375479 162.5 141.75917879957 162.5 C 142.055573844354 162.5 142.203771366746 162.5 142.50016641153 162.5 C 142.79656145630997 162.5 142.94475897869998 162.5 143.24115402348 162.5 C 143.53754906825998 162.5 143.68574659064998 184.16666666666666 143.98214163543 184.16666666666666 C 144.278536680214 184.16666666666666 144.42673420260599 176.42857142857142 144.72312924739 176.42857142857142 C 145.01952429217 176.42857142857142 145.16772181456 189.58333333333334 145.46411685934 189.58333333333334 C 145.76051190412 189.58333333333334 145.90870942651 162.5 146.20510447129 162.5 C 146.501499516074 162.5 146.649697038466 162.5 146.94609208325 162.5 C 147.24248712803 162.5 147.39068465042 162.5 147.6870796952 162.5 C 147.98347473998 162.5 148.13167226237002 162.5 148.42806730715 162.5 C 148.72446235193001 162.5 148.87265987432002 162.5 149.1690549191 162.5 C 149.465449963884 162.5 149.613647486276 162.5 149.91004253106 162.5 C 150.20643757583997 162.5 150.35463509822998 162.5 150.65103014301 162.5 C 150.94742518778997 162.5 151.09562271017998 162.5 151.39201775496 162.5 C 151.688412799744 162.5 151.83661032213598 162.5 152.13300536692 162.5 C 152.4294004117 162.5 152.57759793409 162.5 152.87399297887 162.5 C 153.17038802365 162.5 153.31858554604 162.5 153.61498059082 162.5 C 153.911375635604 162.5 154.059573157996 162.5 154.35596820278 162.5 C 154.65236324756 162.5 154.80056076994998 162.5 155.09695581473 162.5 C 155.39335085951 162.5 155.5415483819 162.5 155.83794342668 162.5 C 156.134338471464 162.5 156.28253599385602 162.5 156.57893103864 162.5 C 156.87532608342002 162.5 157.02352360581 175.5 157.31991865059 175.5 C 157.61631369537 175.5 157.76451121776 162.5 158.06090626254 162.5 C 158.357301307324 162.5 158.505498829716 166.11111111111111 158.8018938745 166.11111111111111 C 159.09828891928 166.11111111111111 159.24648644167002 162.5 159.54288148645 162.5 C 159.83927653123 162.5 159.98747405362002 166.11111111111111 160.2838690984 166.11111111111111 C 160.58026414318402 166.11111111111111 160.72846166557602 162.5 161.02485671036 162.5 C 161.32125175514 162.5 161.46944927753 176.42857142857142 161.76584432231 176.42857142857142 C 162.06223936708997 176.42857142857142 162.21043688947998 162.5 162.50683193426 162.5 C 162.848746259704 162.5 163.019703422426 162.5 163.36161774787 162.5 C 163.61249351199 162.5 163.73793139405 162.5 163.98880715817 162.5 C 164.28520220295 162.5 164.43339972534 173.33333333333334 164.72979477012 173.33333333333334 C 165.0261898149 173.33333333333334 165.17438733729 162.5 165.47078238207 162.5 C 166.05578524071402 162.5 166.348286670036 162.5 166.93328952868 162.5 C 166.94107675959998 162.5 166.94497037506 170.625 166.95275760598 170.625 C 167.24915265076 170.625 167.39735017315002 162.5 167.69374521793 162.5 C 167.99014026271402 162.5 168.13833778510602 162.5 168.43473282989 162.5 C 169.262566934362 162.5 169.676483986598 162.5 170.50431809107 162.5 C 170.565669120942 162.5 170.59634463587798 162.5 170.65769566575 162.5 C 170.95409071053 162.5 171.10228823292 162.5 171.3986832777 162.5 C 171.69507832248001 162.5 171.84327584487 162.5 172.13967088965 162.5 C 172.436065934434 162.5 172.584263456826 162.5 172.88065850161 162.5 C 173.17705354638997 162.5 173.32525106877998 162.5 173.62164611356 162.5 C 173.91804115833997 162.5 174.06623868072998 162.5 174.36263372551 162.5 C 174.659028770294 162.5 174.80722629268598 162.5 175.10362133747 162.5 C 175.40001638225 162.5 175.54821390464 151.66666666666666 175.84460894942 151.66666666666666 C 176.1410039942 151.66666666666666 176.28920151659 162.5 176.58559656137 162.5 C 176.881991606154 162.5 177.030189128546 162.5 177.32658417333 162.5 C 177.62297921810998 162.5 177.77117674049998 162.5 178.06757178528 162.5 C 178.36396683005998 162.5 178.51216435245 162.5 178.80855939723 162.5 C 179.10495444200998 162.5 179.2531519644 162.5 179.54954700918 162.5 C 179.845942053964 162.5 179.994139576356 162.5 180.29053462114 162.5 C 180.776567606608 162.5 181.019584099342 162.5 181.50561708481 162.5 C 181.612374188902 162.5 181.665752740948 162.5 181.77250984504 162.5 C 182.06890488982398 162.5 182.21710241221598 162.5 182.513497457 162.5 C 182.80989250177998 162.5 182.95809002417 162.5 183.25448506895 162.5 C 183.55088011373 162.5 183.69907763612 162.5 183.9954726809 162.5 C 184.291867725684 162.5 184.440065248076 162.5 184.73646029286 162.5 C 185.03285533764 162.5 185.18105286002998 178.75 185.47744790481 178.75 C 185.77384294959 178.75 185.92204047197998 162.5 186.21843551676 162.5 C 186.514830561544 162.5 186.663028083936 162.5 186.95942312872 162.5 C 187.25581817350002 162.5 187.40401569589 173.33333333333334 187.70041074067 173.33333333333334 C 187.99680578545002 173.33333333333334 188.14500330784 167.26666666663468 188.44139835262 162.5 C 188.737793397404 157.73333333330135 188.885990919796 149.5 189.18238596458 149.5 C 189.47878100936 149.5 189.62697853175 162.5 189.92337357653 162.5 C 190.21976862131 162.5 190.36796614370002 162.5 190.66436118848 162.5 C 190.96075623326402 162.5 191.10895375565602 180.55555555555554 191.40534880044 180.55555555555554 C 191.70174384522002 180.55555555555554 191.84994136761003 174.23611111111111 192.14633641239 170.625 C 192.44273145717 167.01388888888889 192.59092897956003 162.5 192.88732402434 162.5 C 193.183719069124 162.5 193.331916591516 162.5 193.6283116363 162.5 C 193.92470668108 162.5 194.07290420347002 162.5 194.36929924825 162.5 C 194.66569429303001 162.5 194.81389181542002 162.5 195.1102868602 162.5 C 195.40668190498002 162.5 195.55487942737003 162.5 195.85127447215 162.5 C 196.147669516934 162.5 196.295867039326 162.5 196.59226208411 162.5 C 197.15369398959402 162.5 197.434409942336 162.5 197.99584184782 162.5 C 198.02720003189603 162.5 198.04287912393403 162.5 198.07423730801 162.5 C 198.37063235279402 162.5 198.51882987518601 167.14285714285714 198.81522491997 167.14285714285714 C 199.11161996475002 167.14285714285714 199.25981748714003 162.5 199.55621253192 162.5 C 199.8526075767 162.5 200.00080509908997 162.5 200.29720014387 162.5 C 200.59359518865398 162.5 200.741792711046 169 201.03818775583 169 C 201.33458280061 169 201.482780323 162.5 201.77917536778 162.5 C 202.07557041256 162.5 202.22376793495 162.5 202.52016297973 162.5 C 202.816558024514 162.5 202.96475554690602 162.5 203.26115059169 162.5 C 203.55754563647002 162.5 203.70574315886 162.5 204.00213820364 162.5 C 204.29853324841997 162.5 204.44673077080998 162.5 204.74312581559 162.5 C 205.03952086037398 162.5 205.18771838276598 162.5 205.48411342755 162.5 C 205.78050847232998 162.5 205.92870599472 162.5 206.2251010395 162.5 C 206.52149608428 162.5 206.66969360667 165.45454545454544 206.96608865145 165.45454545454544 C 207.262483696234 165.45454545454544 207.410681218626 154.375 207.70707626341 154.375 C 208.00347130819 154.375 208.15166883058 160.0625000000001 208.44806387536 162.5 C 208.74445892014 164.9375000000001 208.89265644253 163.77678571430468 209.18905148731 166.5625 C 209.48544653209402 169.34821428573326 209.633644054486 176.42857142857142 209.93003909927 176.42857142857142 C 210.22643414405002 176.42857142857142 210.37463166644002 162.5 210.67102671122 162.5 C 210.96742175600002 162.5 211.11561927839003 165.59523809523796 211.41201432317 167.91666666666666 C 211.70840936794997 170.23809523809513 211.85660689034003 174.10714285714286 212.15300193512 174.10714285714286 C 212.44939697990398 174.10714285714286 212.59759450229598 172.25 212.89398954708 172.25 C 213.19038459185998 172.25 213.33858211425 175 213.63497715903 175 C 213.93137220380999 175 214.0795697262 162.5 214.37596477098 162.5 C 214.672359815764 162.5 214.820557338156 165.75 215.11695238294 165.75 C 215.41334742772 165.75 215.56154495011 162.5 215.85793999489 162.5 C 216.15433503966997 162.5 216.30253256205998 162.5 216.59892760684 162.5 C 216.89532265162399 162.5 217.04352017401598 164.30555555555554 217.3399152188 164.30555555555554 C 217.63631026358 164.30555555555554 217.78450778597 162.5 218.08090283075 162.5 C 218.37729787553 162.5 218.52549539792 165 218.8218904427 165 C 219.118285487484 165 219.266483009876 162.5 219.56287805466 162.5 C 219.85927309944 162.5 220.00747062183 162.5 220.30386566661 162.5 C 220.60026071139 162.5 220.74845823378 162.5 221.04485327856 162.5 C 221.34124832334402 162.5 221.48944584573601 162.5 221.78584089052 162.5 C 222.08223593530002 162.5 222.23043345769003 162.5 222.52682850247 162.5 C 222.82322354725002 162.5 222.97142106964003 166.11111111111111 223.26781611442 166.11111111111111 C 223.56421115920404 166.11111111111111 223.71240868159603 162.5 224.00880372638 162.5 C 224.30519877116004 162.5 224.45339629355004 162.5 224.74979133833 162.5 C 225.04618638311004 162.5 225.19438390550005 162.5 225.49077895028 162.5 C 225.78717399506004 162.5 225.93537151745005 162.5 226.23176656223 162.5 C 226.528161607014 162.5 226.676359129406 162.5 226.97275417419 162.5 C 227.26914921897 162.5 227.41734674136 162.5 227.71374178614 162.5 C 228.01013683092 162.5 228.15833435331 162.5 228.45472939809 162.5 C 228.75112444287402 162.5 228.899321965266 156.5909090909091 229.19571701005 156.5909090909091 C 229.49211205483002 156.5909090909091 229.64030957722002 158.31818181818204 229.936704622 162.5 C 230.23309966678002 166.6818181818184 230.38129718917003 177.5 230.67769223395 177.5 C 230.97408727873398 177.5 231.122284801126 170.625 231.41867984591 170.625 C 231.71507489069 170.625 231.86327241307998 174.6875 232.15966745786 174.6875 C 232.45606250264 174.6875 232.60426002503 162.5 232.90065506981 162.5 C 233.197050114594 162.5 233.34524763698602 162.5 233.64164268177 162.5 C 233.93803772655002 162.5 234.08623524894 169 234.38263029372 169 C 234.67902533850003 169 234.82722286089 162.5 235.12361790567 162.5 C 235.42001295045398 162.5 235.56821047284598 162.5 235.86460551763 162.5 C 236.16100056240998 162.5 236.3091980848 162.5 236.60559312958 162.5 C 236.90198817435999 162.5 237.05018569675 168.4090909090909 237.34658074153 168.4090909090909 C 237.642975786314 168.4090909090909 237.791173308706 162.5 238.08756835349 162.5 C 238.38396339827 162.5 238.53216092066 162.5 238.82855596544 162.5 C 239.12495101021995 162.5 239.27314853260995 175.500000000043 239.56954357739 182 C 239.86593862217396 188.500000000043 240.01413614456595 195 240.31053118935 195 C 240.60692623412996 195 240.75512375651996 195 241.0515188013 195 C 241.34791384607996 195 241.49611136846997 185.25000000000094 241.79250641325 178.75 C 242.08890145802997 172.25000000000094 242.23709898041997 162.5 242.5334940252 162.5 C 242.82988906998398 162.5 242.97808659237597 167.91666666666666 243.27448163716 167.91666666666666 C 243.57087668193998 167.91666666666666 243.71907420432998 162.5 244.01546924911 162.5 C 244.31186429388998 162.5 244.46006181628 162.5 244.75645686106 162.5 C 245.052851905844 162.5 245.201049428236 162.5 245.49744447302 162.5 C 245.7938395178 162.5 245.94203704019 172.25 246.23843208497 175.5 C 246.53482712975 178.75 246.68302465214 178.75 246.97941969692 178.75 C 247.275814741704 178.75 247.424012264096 170.62500000005454 247.72040730888 162.5 C 248.01680235366 154.37500000005454 248.16499987605002 138.125 248.46139492083 138.125 C 248.75778996561002 138.125 248.90598748800002 157.08333333333334 249.20238253278 157.08333333333334 C 249.498777577564 157.08333333333334 249.646975099956 149.5 249.94337014474 149.5 C 250.23976518952 149.5 250.38796271191 162.5 250.68435775669 162.5 C 250.98075280147 162.5 251.12895032386 162.5 251.42534536864 162.5 C 251.72174041342402 162.5 251.869937935816 181.07142857142858 252.1663329806 181.07142857142858 C 252.46272802538002 181.07142857142858 252.61092554777002 162.5 252.90732059255 162.5 C 253.20371563733002 162.5 253.35191315972003 162.5 253.6483082045 162.5 C 253.94470324928398 162.5 254.09290077167603 227.5 254.38929581646 227.5 C 255.0063738333 227.5 255.31491284171997 175.26527777763187 255.93199085856 148.2 C 256.20409797606396 136.26527777763187 256.340151534816 130 256.61225865232 130 C 256.9086536971 130 257.05685121949 136.27062093738286 257.35324626427 142.675 C 257.658491994414 149.27062093738286 257.81111485948605 162.5 258.11636058963 162.5 C 258.467664188658 162.5 258.643315988172 162.5 258.9946195872 162.5 C 259.227255392372 162.5 259.343573294958 162.5 259.57620910013 162.5 C 260.165500081526 162.5 260.46014557222395 162.5 261.04943655362 162.5 C 261.3458315984 162.5 261.49402912079006 130 261.79042416557 130 C 262.11460624579803 130 262.276697285912 152.1590909091326 262.60087936614 162.5 C 263.09178365906 178.1590909091326 263.33723580552 195 263.82814009844 195 C 264.22642093986394 195 264.425561360576 162.5 264.823842202 162.5 C 265.392344364284 162.5 265.676595445426 178.75 266.24509760771 178.75 C 266.54149265249004 178.75 266.68969017488 162.5 266.98608521966 162.5 C 267.28248026444 162.5 267.43067778682996 162.5 267.72707283161 162.5 C 268.02346787639397 162.5 268.171665398786 162.5 268.46806044357 162.5 C 268.76445548835 162.5 268.91265301074 162.5 269.20904805552 162.5 C 269.801838145084 162.5 270.098233189866 184.16666666666666 270.69102327943 184.16666666666666 C 270.98741832421 184.16666666666666 271.1356158466 162.5 271.43201089138 162.5 C 271.737256621524 162.5 271.889879486596 195 272.19512521674 195 C 272.48266957616 195 272.62644175587 162.5 272.91398611529 162.5 C 273.21038116007 162.5 273.35857868246 195 273.65497372724 195 C 273.95136877202003 195 274.09956629441 162.5 274.39596133919 162.5 C 274.69235638397004 162.5 274.84055390636 162.5 275.13694895114 162.5 C 275.433343995924 162.5 275.581541518316 164.66666666666669 275.8779365631 164.66666666666669 C 276.17433160787994 164.66666666666669 276.32252913026997 162.5 276.61892417505 162.5 C 276.91531921982994 162.5 277.06351674222 162.5 277.359911787 162.5 C 278.12404497033197 162.5 278.50611156199795 162.5 279.27024474533 162.5 C 279.395296696342 162.5 279.457822671848 183.52941176470588 279.58287462286 183.52941176470588 C 279.879269667644 183.52941176470588 280.02746719003596 162.5 280.32386223482 162.5 C 280.62025727959997 162.5 280.76845480199 162.5 281.06484984677 162.5 C 281.606100131322 162.5 281.876725273598 162.5 282.41797555815 162.5 C 282.46951536316203 162.5 282.49528526566803 162.5 282.54682507068 162.5 C 282.84322011546 162.5 282.99141763785 162.5 283.28781268263 162.5 C 283.58420772741 162.5 283.7324052498 162.5 284.02880029458 162.5 C 284.32519533936403 162.5 284.473392861756 162.5 284.76978790654 162.5 C 285.06618295132 162.5 285.21438047371004 162.5 285.51077551849 162.5 C 285.80717056327 162.5 285.95536808566004 162.5 286.25176313044 162.5 C 286.54815817522405 162.5 286.696355697616 162.5 286.9927507424 162.5 C 287.28914578718 162.5 287.43734330957005 162.5 287.73373835435 162.5 C 288.03013339913 162.5 288.17833092152006 162.5 288.4747259663 162.5 C 288.77112101108 162.5 288.91931853347006 162.5 289.21571357825 162.5 C 289.51210862303407 162.5 289.66030614542603 173.33333333333334 289.95670119021 173.33333333333334 C 290.25309623499004 173.33333333333334 290.40129375737996 162.5 290.69768880216 162.5 C 292.179664026068 162.5 292.920651638022 162.5 294.40262686193 162.5 C 294.69902190671 162.5 294.8472194291 166.4 295.14361447388 169 C 295.44000951866 171.6 295.58820704105 173.55000000001309 295.88460208583 175.5 C 296.180997130614 177.4500000000131 296.329194653006 178.75 296.62558969779 178.75 C 296.92198474257003 178.75 297.07018226496 162.5 297.36657730974 162.5 C 297.66297235452004 162.5 297.81116987691 169 298.10756492169 169 C 298.403959966474 169 298.552157488866 162.5 298.84855253365 162.5 C 299.14494757842994 162.5 299.29314510081997 162.5 299.5895401456 162.5 C 299.88593519037994 162.5 300.03413271277 162.5 300.33052775755 162.5 C 300.626922802334 162.5 300.77512032472595 146.25 301.07151536951 146.25 C 301.36791041428995 146.25 301.51610793668 162.5 301.81250298146 162.5 C 302.10889802623996 162.5 302.25709554863 162.5 302.55349059341 162.5 C 302.849885638194 162.5 302.99808316058596 162.5 303.29447820537 162.5 C 303.59087325014997 162.5 303.73907077254 162.5 304.03546581732 162.5 C 304.3318608621 162.5 304.48005838449 162.5 304.77645342927 162.5 C 305.07284847405 162.5 305.22104599644 162.5 305.51744104122 162.5 C 305.813836086004 162.5 305.962033608396 162.5 306.25842865318 162.5 C 306.55482369796 162.5 306.70302122035 162.5 306.99941626513 162.5 C 307.29581130991 162.5 307.4440088323 162.5 307.74040387708 162.5 C 308.03679892186403 162.5 308.184996444256 156 308.48139148904 156 C 308.77778653382 156 308.92598405621004 160.1166666666669 309.22237910099 162.5 C 309.51877414577 164.88333333333355 309.66697166816004 167.91666666666666 309.96336671294 167.91666666666666 C 310.25976175772405 167.91666666666666 310.407959280116 162.5 310.7043543249 162.5 C 311.00074936968 162.5 311.14894689207006 186.875 311.44534193685 186.875 C 311.74173698163 186.875 311.88993450402006 186.44166666665095 312.1863295488 184.16666666666666 C 312.48272459358407 181.89166666665093 312.63092211597603 179.83333333336282 312.92731716076 175.5 C 313.22371220554 171.1666666666962 313.37190972793 162.5 313.66830477271 162.5 C 313.96469981749 162.5 314.11289733987996 164.12500000004363 314.40929238466 170.625 C 314.70568742944397 177.12500000004363 314.853884951836 195 315.15027999662 195 C 315.690171803884 195 315.960117707516 195 316.50000951478 195 C 316.552924949568 195 316.57938266696203 195 316.63229810175 195 C 317.81786112838597 195 318.410642641704 178.75 319.59620566834 178.75 C 319.89260071312003 178.75 320.04079823551 195 320.33719328029 195 C 320.827685913422 195 321.07293222998806 195 321.56342486312 195 C 321.665722319548 195 321.716871047762 178.75 321.81916850419 178.75 C 322.11556354897397 178.75 322.263761071366 183.62499999997817 322.56015611615 186.875 C 322.85655116093 190.12499999997817 323.00474868332 195 323.3011437281 195 C 323.59753877288 195 323.74573629527 184.16666666666666 324.04213134005 184.16666666666666 C 324.532623973186 184.16666666666666 324.777870289754 195 325.26836292289 195 C 325.370660379318 195 325.421809107532 195 325.52410656396 195 C 325.82050160874 195 325.96869913113 195 326.26509417591 195 C 326.561489220694 195 326.709686743086 195 327.00608178787 192.96875 C 327.30247683265003 190.9375 327.45067435504 162.5 327.74706939982 162.5 C 328.04346444460003 162.5 328.19166196699 170.0757832824476 328.48805701177 173.33333333333334 C 329.374494317054 183.0757832824476 329.817712969696 195 330.70415027498 195 C 331.299688193604 195 331.59745715291604 184.53667774355668 332.19299507154 178.75 C 332.48939011632 175.87001107689002 332.63758763871 176.58333333331151 332.93398268349 173.33333333333334 C 333.230377728274 170.08333333331151 333.378575250666 169.00000000004363 333.67497029545 162.5 C 333.97136534023 156.00000000004363 334.11956286262 140.83333333333334 334.4159579074 140.83333333333334 C 334.71235295218 140.83333333333334 334.86055047457 146.83333333336577 335.15694551935 151.66666666666666 C 335.453340564134 156.50000000003243 335.60153808652603 165 335.89793313131 165 C 336.19432817609 165 336.34252569848 164.85714285714286 336.63892074326 162.5 C 336.93531578803993 160.14285714285714 337.08351331042996 156.058035714286 337.37990835521 153.21428571428572 C 337.67630339998993 150.370535714286 337.82450092237997 148.28125 338.12089596716 148.28125 C 338.417291011944 148.28125 338.56548853433594 162.5 338.86188357912 162.5 C 339.15827862389995 162.5 339.30647614629 162.5 339.60287119107 162.5 C 339.89926623584995 162.5 340.04746375824 162.5 340.34385880302 162.5 C 340.640253847804 162.5 340.78845137019596 162.5 341.08484641498 162.5 C 341.38124145975996 162.5 341.52943898215005 162.5 341.82583402693 162.5 C 342.12222907171 162.5 342.27042659410006 154.375 342.56682163888 154.375 C 342.86321668366406 154.375 343.01141420605603 157.6249999999673 343.30780925084 162.5 C 343.60420429562004 167.3749999999673 343.75240181801007 178.75 344.04879686279 178.75 C 344.34519190757 178.75 344.49338942996 162.5 344.78978447474 162.5 C 345.086179519524 162.5 345.234377041916 162.5 345.5307720867 162.5 C 345.82716713148 162.5 345.97536465387003 162.5 346.27175969865 162.5 C 346.56815474343 162.5 346.71635226582003 162.5 347.0127473106 162.5 C 347.30914235538404 162.5 347.457339877776 162.5 347.75373492256 162.5 C 348.05012996734 162.5 348.19832748973005 162.5 348.49472253451 162.5 C 348.79111757929 162.5 348.93931510168005 175.5 349.23571014646 175.5 C 349.53210519124406 175.5 349.680302713636 162.5 349.97669775842 162.5 C 350.27309280320003 162.5 350.42129032559006 162.5 350.71768537037 162.5 C 351.01408041515003 162.5 351.16227793754007 162.5 351.45867298232 162.5 C 351.75506802710004 162.5 351.90326554948996 162.5 352.19966059427 162.5 C 352.49605563905396 162.5 352.644253161446 162.5 352.94064820623 162.5 C 353.23704325101 162.5 353.38524077339997 162.5 353.68163581818 162.5 C 355.147762140388 162.5 355.880825301492 162.5 357.3469516237 162.5 C 357.3628005254 162.5 357.37072497625 162.5 357.38657387795 162.5 C 357.68296892273 162.5 357.83116644512 162.5 358.1275614899 162.5 C 358.42395653468003 162.5 358.57215405707 162.5 358.86854910185 162.5 C 359.164944146634 162.5 359.313141669026 162.5 359.60953671381 162.5 C 359.90593175858993 162.5 360.05412928097996 162.5 360.35052432576 162.5 C 360.64691937053993 162.5 360.79511689292997 162.5 361.09151193771 162.5 C 361.387906982494 162.5 361.53610450488594 162.5 361.83249954967 162.5 C 362.12889459444995 162.5 362.27709211684 162.5 362.57348716162 162.5 C 362.86988220639995 162.5 363.01807972879 162.5 363.31447477357 162.5 C 363.610869818354 162.5 363.75906734074596 162.5 364.05546238553 162.5 C 364.35185743030996 162.5 364.5000549527 162.5 364.79644999748 162.5 C 365.09284504225997 162.5 365.24104256465 162.5 365.53743760943 162.5 C 366.115401085758 162.5 366.40438282392205 162.5 366.98234630025 162.5 C 367.277719056566 162.5 367.425405434724 162.5 367.72077819104 162.5 C 368.03302213752 162.5 368.1891441107599 162.5 368.50138805724 162.5 C 369.07832924510393 162.5 369.366799839036 162.5 369.9437410269 162.5 C 370.24531612396805 162.5 370.39610367250197 162.5 370.69767876957 162.5 C 370.98889376206597 162.5 371.13450125831406 162.5 371.42571625081 162.5 C 371.72638569635 162.5 371.87672041912003 162.5 372.17738986466 162.5 C 372.46951050868 162.5 372.61557083069 162.5 372.90769147471 162.5 C 373.204086519494 162.5 373.35228404188604 162.5 373.64867908667 162.5 C 373.94507413145 162.5 374.09327165383996 162.5 374.38966669862 162.5 C 374.40551560032 162.5 374.41344005116997 178.75 374.42928895287 178.75 C 375.006230140734 178.75 375.294700734666 162.5 375.87164192253 162.5 C 376.16803696731 162.5 376.3162344897 162.5 376.61262953448 162.5 C 376.90902457926 162.5 377.05722210165 162.5 377.35361714643 162.5 C 377.66586109291404 162.5 377.821983066156 162.5 378.13422701264 162.5 C 378.717895407476 162.5 379.009729604894 195 379.59339799973 195 C 379.883065837538 195 380.027899756442 162.5 380.31756759425 162.5 C 380.62981154073003 162.5 380.78593351397 162.5 381.09817746045 162.5 C 381.67511864831005 162.5 381.96358924223995 162.5 382.5405304301 162.5 C 382.55637933180395 162.5 382.56430378265594 178.75 382.58015268436 178.75 C 383.15709387221995 178.75 383.44556446614996 162.5 384.02250565401 162.5 C 384.31890069879 162.5 384.46709822118 195 384.76349326596 195 C 385.06170304429196 195 385.210807933458 162.5 385.50901771179 162.5 C 385.52305187994205 162.5 385.530068964018 162.5 385.54410313217 162.5 C 386.418080867978 162.5 386.855069735882 162.5 387.72904747169 162.5 C 387.945350674914 162.5 388.05350227652605 162.5 388.26980547975 162.5 C 388.365104719842 162.5 388.412754339888 162.5 388.50805357998 162.5 C 388.821889277628 162.5 388.978807126452 162.5 389.2926428241 162.5 C 389.571597216016 162.5 389.711074411974 173.33333333333334 389.99002880389 173.33333333333334 C 390.28642384867 173.33333333333334 390.43462137105996 152.75 390.73101641584 152.75 C 391.307957603704 152.75 391.59642819763604 162.5 392.1733693855 162.5 C 392.46976443028 162.5 392.61796195267004 162.5 392.91435699745 162.5 C 393.21075204223 162.5 393.35894956462005 162.5 393.6553446094 162.5 C 394.248134698964 162.5 394.544529743746 162.5 395.13731983331 162.5 C 395.15316873501007 162.5 395.16109318586 178.75 395.17694208756 178.75 C 395.75388327542396 178.75 396.04235386935596 162.5 396.61929505722 162.5 C 396.915690102 162.5 397.06388762439 162.5 397.36028266917 162.5 C 397.65667771395 162.5 397.80487523634 162.5 398.10127028112 162.5 C 398.3976653259 162.5 398.54586284829 162.5 398.84225789307 162.5 C 399.13865293785403 162.5 399.286850460246 162.5 399.58324550503 162.5 C 401.658010818498 162.5 402.695393475232 195 404.7701587887 195 C 405.06655383348 195 405.21475135586996 162.5 405.51114640065 162.5 C 406.202456968118 162.5 406.548112251852 162.5 407.23942281932 162.5 C 407.519574455108 162.5 407.659650273002 162.5 407.93980190879 162.5 C 408.52506891579395 162.5 408.817702419296 195 409.4029694263 195 C 409.640459386428 195 409.75920436649204 182.39180330519793 409.99669432662 178.75 C 410.60696280453203 169.39180330519793 410.912097043488 162.5 411.5223655214 162.5 C 411.849405206632 162.5 412.01292504924805 162.5 412.33996473448 162.5 C 412.88463179524405 162.5 413.15696532562595 162.5 413.70163238639 162.5 C 413.99802743117 162.5 414.14622495355997 162.5 414.44261999834 162.5 C 414.73901504312 162.5 414.88721256550997 162.5 415.18360761029 162.5 C 415.480002655074 162.5 415.628200177466 162.5 415.92459522225 162.5 C 416.22099026703 162.5 416.36918778942 162.5 416.6655828342 162.5 C 416.96197787898 162.5 417.11017540137 162.5 417.40657044615 162.5 C 417.702965490934 162.5 417.851163013326 162.5 418.14755805811 162.5 C 418.73684903950596 162.5 419.031494530204 162.5 419.6207855116 162.5 C 419.62428461976396 162.5 419.626034173846 184.16666666666663 419.62953328201 205.83333333333331 C 419.92630225109804 227.5 420.074686735642 227.5 420.37145570473 227.5 C 420.951209901118 227.5 421.241086999312 227.5 421.8208411957 227.5 C 422.129898209352 227.5 422.28442671617796 179.08984027522172 422.59348372983 162.5 C 422.88987877460994 146.58984027522172 423.038076297 146.25 423.33447134178 146.25 C 423.63086638655994 146.25 423.77906390895 182.00000000008725 424.07545895373 195 C 424.371853998514 208.00000000008725 424.52005152090595 211.25 424.81644656569 211.25 C 425.39338775355 211.25 425.68185834748 162.5 426.25879953534 162.5 C 426.55519458012407 162.5 426.70339210251603 162.5 426.9997871473 162.5 C 428.19340155321595 162.5 428.7902087561741 162.5 429.98382316209 162.5 C 429.99163783699805 162.5 429.99554517445193 162.5 430.00335984936 162.5 C 430.87669608200395 162.5 431.31336419832604 162.5 432.18670043097 162.5 C 432.48309547575 162.5 432.63129299814 195 432.92768804292 195 C 433.2240830877 195 433.37228061009 195 433.66867565487 195 C 433.965070699654 195 434.11326822204603 162.5 434.40966326683 162.5 C 434.7219072133101 162.5 434.87802918654995 195 435.19027313303 195 C 435.48666817781 195 435.63486570019995 177.66666666661015 435.93126074498 169 C 436.22765578976396 160.3333333332768 436.375853312156 151.66666666666666 436.67224835694 151.66666666666666 C 437.261539338332 151.66666666666666 437.556184829028 162.5 438.14547581042 162.5 C 438.441870855204 162.5 438.59006837759597 130 438.88646342238 130 C 439.18285846716 130 439.33105598955 130 439.62745103433 130 C 440.22024112389397 130 440.516636168676 162.5 441.10942625824 162.5 C 441.40582130301993 162.5 441.5540188254099 162.5 441.85041387019 162.5 C 442.14680891496994 162.5 442.2950064373599 130 442.59140148214 130 C 443.48058661648395 130 443.9251791836559 195 444.814364318 195 C 445.11075936278394 195 445.25895688517596 162.5 445.55535192996 162.5 C 446.74093210908393 162.5 447.33372219864594 174.19999999998603 448.51930237777 195 C 448.81569742255 200.19999999998603 448.96389494493997 227.5 449.26028998972 227.5 C 449.263789097888 227.5 449.265538651972 195.3033630748505 449.26903776014 195 C 449.5654328049201 169.3033630748505 449.71363032731006 172.2499999999327 450.01002537209 162.5 C 450.30642041687406 152.7499999999327 450.4546179392661 146.25 450.75101298405 146.25 C 451.32795417191 146.25 451.61642476584 154.0650462963342 452.1933659537 162.5 C 452.505609900184 167.0650462963342 452.66173187342594 178.75 452.97397581991 178.75 C 453.27037086469 178.75 453.41856838708 178.75 453.71496343186 178.75 C 454.01135847664 178.75 454.15955599903 157.08333333333334 454.45595104381 157.08333333333334 C 454.752346088594 157.08333333333334 454.900543610986 157.08333333333334 455.19693865577 157.85714285714286 C 455.49333370055 158.63095238095238 455.64153122294 162.5 455.93792626772 162.5 C 456.527217249116 162.5 456.821862739814 162.5 457.41115372121 162.5 C 458.30033885555406 162.5 458.74493142272604 162.5 459.63411655707 162.5 C 459.637615665238 162.5 459.63936521932203 146.25 459.64286432749 146.25 C 460.232155308882 146.25 460.526800799578 195 461.11609178097 195 C 461.41248682575406 195 461.5606843481461 195 461.85707939293 195 C 462.10919699739804 195 462.23525579963206 227.5 462.4873734041 227.5 C 462.74015652522 227.5 462.86654808578004 227.5 463.1193312069 227.5 C 463.218256483592 227.5 463.267719121938 162.5 463.36664439863 162.5 C 463.948398575474 162.5 464.2392756638959 195 464.82102984074 195 C 465.12092399368794 195 465.27087107016206 195 465.57076522311 195 C 465.86716026789 195 466.01535779028 195 466.31175283506 195 C 466.608147879844 195 466.756345402236 195 467.05274044702 195 C 467.3491354918 195 467.49733301419 195 467.79372805897 195 C 468.09012310375 195 468.23832062614 162.5 468.53471567092 162.5 C 468.831110715704 162.5 468.979308238096 219.375 469.27570328288 219.375 C 469.57209832766 219.375 469.72029585005004 184.16666666666666 470.01669089483 178.75 C 470.31308593961 173.33333333333334 470.46128346200004 176.58333333331092 470.75767850678 173.33333333333334 C 471.05407355156404 170.08333333331092 471.202271073956 162.5 471.49866611874 162.5 C 471.828611435948 162.5 472.32352941176 162.5 472.32352941176 162.5" class="highcharts-graph" data-z-index="1" stroke="#5D83FF" stroke-width="2" stroke-linejoin="round" stroke-linecap="round"></path></g><g data-z-index="0.1" class="highcharts-markers highcharts-series-1 highcharts-spline-series highcharts-color-1 " transform="translate(65,63) scale(1 1)" clip-path="none"></g></g><text x="300" text-anchor="middle" class="highcharts-title" data-z-index="4" style="color:#333333;font-size:18px;fill:#333333;" y="24"><tspan>Cold Shower &amp; Overall Mood Over Time</tspan></text><text x="300" text-anchor="middle" class="highcharts-subtitle" data-z-index="4" style="color:#666666;fill:#666666;" y="46"><tspan>Black represents the sum of Cold Shower over the previous 7 days</tspan></text><g class="highcharts-legend" data-z-index="7" transform="translate(141,358)"><rect fill="none" class="highcharts-legend-box" rx="0" ry="0" x="0" y="0" width="318" height="27" visibility="visible"></rect><g data-z-index="1"><g><g class="highcharts-legend-item highcharts-spline-series highcharts-color-0 highcharts-series-0" data-z-index="1" transform="translate(8,3)"><path fill="none" d="M 0 11 L 16 11" class="highcharts-graph" stroke="#000000" stroke-width="2"></path><path fill="#000000" d="M 12 11 A 4 4 0 1 1 11.999998000000167 10.996000000666664 Z" class="highcharts-point"></path><text x="21" style="color:#333333;font-size:12px;font-weight:bold;cursor:pointer;fill:#333333;" text-anchor="start" data-z-index="2" y="15"><tspan>Cold Shower (min)</tspan></text></g><g class="highcharts-legend-item highcharts-spline-series highcharts-color-1 highcharts-series-1" data-z-index="1" transform="translate(170,3)"><path fill="none" d="M 0 11 L 16 11" class="highcharts-graph" stroke="#5D83FF" stroke-width="2"></path><path fill="#5D83FF" d="M 8 7 L 12 11 8 15 4 11 Z" class="highcharts-point"></path><text x="21" y="15" style="color:#333333;font-size:12px;font-weight:bold;cursor:pointer;fill:#333333;" text-anchor="start" data-z-index="2"><tspan>Overall Mood (/5)</tspan></text></g></g></g></g><g class="highcharts-axis-labels highcharts-xaxis-labels " data-z-index="7"><text x="144.51264669344" style="color:#666666;cursor:default;font-size:11px;fill:#666666;" text-anchor="start" transform="translate(0,0)" y="342" opacity="1"><tspan>May '17</tspan></text><text x="235.65412296368" style="color:#666666;cursor:default;font-size:11px;fill:#666666;" text-anchor="start" transform="translate(0,0)" y="342" opacity="1"><tspan>Sep '17</tspan></text><text x="326.05461162197" style="color:#666666;cursor:default;font-size:11px;fill:#666666;" text-anchor="start" transform="translate(0,0)" y="342" opacity="1"><tspan>Jan '18</tspan></text><text x="414.97312505635" style="color:#666666;cursor:default;font-size:11px;fill:#666666;" text-anchor="start" transform="translate(0,0)" y="342" opacity="1"><tspan>May '18</tspan></text><text x="506.11460132659" style="color:#666666;cursor:default;font-size:11px;fill:#666666;" text-anchor="start" transform="translate(0,0)" y="342" opacity="1"><tspan>Sep '18</tspan></text></g><g class="highcharts-axis-labels highcharts-yaxis-labels " data-z-index="7"><text x="50" style="color:#666666;cursor:default;font-size:11px;fill:#666666;" text-anchor="end" transform="translate(0,0)" y="327" opacity="1">0</text><text x="50" style="color:#666666;cursor:default;font-size:11px;fill:#666666;" text-anchor="end" transform="translate(0,0)" y="262" opacity="1">5</text><text x="50" style="color:#666666;cursor:default;font-size:11px;fill:#666666;" text-anchor="end" transform="translate(0,0)" y="197" opacity="1">10</text><text x="50" style="color:#666666;cursor:default;font-size:11px;fill:#666666;" text-anchor="end" transform="translate(0,0)" y="132" opacity="1">15</text><text x="50" style="color:#666666;cursor:default;font-size:11px;fill:#666666;" text-anchor="end" transform="translate(0,0)" y="67" opacity="1">20</text></g><g class="highcharts-axis-labels highcharts-yaxis-labels " data-z-index="7"><text x="557" style="color:#666666;cursor:default;font-size:11px;fill:#666666;" text-anchor="start" transform="translate(0,0)" y="327" opacity="1">0</text><text x="557" style="color:#666666;cursor:default;font-size:11px;fill:#666666;" text-anchor="start" transform="translate(0,0)" y="262" opacity="1">2</text><text x="557" style="color:#666666;cursor:default;font-size:11px;fill:#666666;" text-anchor="start" transform="translate(0,0)" y="197" opacity="1">4</text><text x="557" style="color:#666666;cursor:default;font-size:11px;fill:#666666;" text-anchor="start" transform="translate(0,0)" y="132" opacity="1">6</text><text x="557" style="color:#666666;cursor:default;font-size:11px;fill:#666666;" text-anchor="start" transform="translate(0,0)" y="67" opacity="1">8</text></g><a xlink:href="https://quantimo.do" target="_blank">
                    <text x="590" class="highcharts-credits" text-anchor="end" data-z-index="8"
                          style="cursor:pointer;color:#999999;font-size:9px;fill:#999999;" y="395">https://quantimo.do
                    </text>
                </a></svg>