<?xml version="1.0" standalone="no"?><!DOCTYPE svg PUBLIC "-//W3C//DTD SVG 1.1//EN" "http://www.w3.org/Graphics/SVG/1.1/DTD/svg11.dtd"><svg xmlns:xlink="http://www.w3.org/1999/xlink" version="1.1" class="highcharts-root" style="font-family:&quot;Lucida Grande&quot;, &quot;Lucida Sans Unicode&quot;, Arial, Helvetica, sans-serif;font-size:12px;" xmlns="http://www.w3.org/2000/svg" width="600" height="400"><desc>Created with Highstock 6.2.0</desc><defs><clipPath id="highcharts-f2tx20i-45"><rect x="0" y="0" width="457" height="260" fill="none"></rect></clipPath><clipPath id="highcharts-f2tx20i-64"><rect x="0" y="0" width="457" height="260" fill="none"></rect></clipPath><clipPath id="highcharts-f2tx20i-83"><rect x="0" y="0" width="457" height="260" fill="none"></rect></clipPath><clipPath id="highcharts-f2tx20i-84"><rect x="68" y="63" width="457" height="260" fill="none"></rect></clipPath></defs><rect fill="#ffffff" class="highcharts-background" x="0" y="0" width="600" height="400" rx="0" ry="0"></rect><rect fill="none" class="highcharts-plot-background" x="68" y="63" width="457" height="260"></rect><g class="highcharts-pane-group" data-z-index="0"></g><g class="highcharts-grid highcharts-xaxis-grid " data-z-index="1"><path fill="none" data-z-index="1" class="highcharts-grid-line" d="M 80.5 63 L 80.5 323" opacity="1"></path><path fill="none" data-z-index="1" class="highcharts-grid-line" d="M 182.5 63 L 182.5 323" opacity="1"></path><path fill="none" data-z-index="1" class="highcharts-grid-line" d="M 287.5 63 L 287.5 323" opacity="1"></path><path fill="none" data-z-index="1" class="highcharts-grid-line" d="M 389.5 63 L 389.5 323" opacity="1"></path><path fill="none" data-z-index="1" class="highcharts-grid-line" d="M 494.5 63 L 494.5 323" opacity="1"></path></g><g class="highcharts-grid highcharts-yaxis-grid " data-z-index="1"><path fill="none" stroke="#e6e6e6" stroke-width="1" data-z-index="1" class="highcharts-grid-line" d="M 68 323.5 L 525 323.5" opacity="1"></path><path fill="none" stroke="#e6e6e6" stroke-width="1" data-z-index="1" class="highcharts-grid-line" d="M 68 258.5 L 525 258.5" opacity="1"></path><path fill="none" stroke="#e6e6e6" stroke-width="1" data-z-index="1" class="highcharts-grid-line" d="M 68 193.5 L 525 193.5" opacity="1"></path><path fill="none" stroke="#e6e6e6" stroke-width="1" data-z-index="1" class="highcharts-grid-line" d="M 68 128.5 L 525 128.5" opacity="1"></path><path fill="none" stroke="#e6e6e6" stroke-width="1" data-z-index="1" class="highcharts-grid-line" d="M 68 62.5 L 525 62.5" opacity="1"></path></g><g class="highcharts-grid highcharts-yaxis-grid " data-z-index="1"><path fill="none" stroke="#e6e6e6" stroke-width="1" data-z-index="1" class="highcharts-grid-line" d="M 68 323.5 L 525 323.5" opacity="1"></path><path fill="none" stroke="#e6e6e6" stroke-width="1" data-z-index="1" class="highcharts-grid-line" d="M 68 258.5 L 525 258.5" opacity="1"></path><path fill="none" stroke="#e6e6e6" stroke-width="1" data-z-index="1" class="highcharts-grid-line" d="M 68 193.5 L 525 193.5" opacity="1"></path><path fill="none" stroke="#e6e6e6" stroke-width="1" data-z-index="1" class="highcharts-grid-line" d="M 68 128.5 L 525 128.5" opacity="1"></path><path fill="none" stroke="#e6e6e6" stroke-width="1" data-z-index="1" class="highcharts-grid-line" d="M 68 62.5 L 525 62.5" opacity="1"></path></g><rect fill="none" class="highcharts-plot-border" data-z-index="1" x="68" y="63" width="457" height="260"></rect><g class="highcharts-axis highcharts-xaxis " data-z-index="2"><path fill="none" class="highcharts-tick" stroke="#ccd6eb" stroke-width="1" d="M 80.5 323 L 80.5 333" opacity="1"></path><path fill="none" class="highcharts-tick" stroke="#ccd6eb" stroke-width="1" d="M 182.5 323 L 182.5 333" opacity="1"></path><path fill="none" class="highcharts-tick" stroke="#ccd6eb" stroke-width="1" d="M 287.5 323 L 287.5 333" opacity="1"></path><path fill="none" class="highcharts-tick" stroke="#ccd6eb" stroke-width="1" d="M 389.5 323 L 389.5 333" opacity="1"></path><path fill="none" class="highcharts-tick" stroke="#ccd6eb" stroke-width="1" d="M 494.5 323 L 494.5 333" opacity="1"></path><path fill="none" class="highcharts-axis-line" stroke="#ccd6eb" stroke-width="1" data-z-index="7" d="M 68 323.5 L 525 323.5"></path></g><g class="highcharts-axis highcharts-yaxis " data-z-index="2"><text x="26" data-z-index="7" text-anchor="middle" transform="translate(0,0) rotate(270 26 193)" class="highcharts-axis-title" style="color:#666666;fill:#666666;" y="193"><tspan>MEAN Alertness (/5)</tspan></text><path fill="none" class="highcharts-axis-line" stroke="#ccd6eb" stroke-width="1" data-z-index="7" d="M 67.5 63 L 67.5 323"></path></g><g class="highcharts-axis highcharts-yaxis " data-z-index="2"><text x="574" data-z-index="7" text-anchor="middle" transform="translate(0,0) rotate(90 574 193)" class="highcharts-axis-title" style="color:#666666;fill:#666666;" y="193"><tspan>MEAN Deep Sleep (/1)</tspan></text><path fill="none" class="highcharts-axis-line" stroke="#ccd6eb" stroke-width="1" data-z-index="7" d="M 525.5 63 L 525.5 323"></path></g><g class="highcharts-series-group" data-z-index="3"><g data-z-index="0.1" class="highcharts-series highcharts-series-0 highcharts-spline-series highcharts-color-0 " transform="translate(68,63) scale(1 1)" clip-path="url(#highcharts-f2tx20i-64)"><path fill="none" d="M 4.4803921568627 117.8125 C 4.4803921568627 117.8125 5.627401124541559 112.96065964958174 6.3920737696608 97.5 C 6.832970365908679 88.58565964958174 7.05341866403262 56.875 7.4943152602805 56.875 C 7.756299580253339 56.875 7.88729174023976 90.90637207031124 8.1492760602126 97.5 C 9.178612768649561 123.40637207031124 9.69328112286804 138.125 10.722617831305 138.125 C 18.6803521424894 138.125 22.659219298081602 138.125 30.616953609266 138.125 C 36.9595908431684 138.125 40.130909460119604 158.4375 46.473546694022 158.4375 C 61.681878337209604 158.4375 69.28604415880339 154.53976009196825 84.494375801991 138.125 C 106.92524628803861 113.91476009196825 118.14068153106241 56.875 140.57155201711 56.875 C 223.96249830893402 56.875 265.657971454846 69.50821228915947 349.04891774667 97.5 C 386.684796468718 110.13321228915947 405.502735829742 158.4375 443.13861455179 158.4375 C 443.813578847634 158.4375 444.15106099555595 97.5 444.8260252914 97.5 C 444.8354280379 97.5 444.84012941115 97.5 444.84953215765 97.5 C 445.073125213406 97.5 445.18492174128403 158.4375 445.40851479704 158.4375 C 445.63550482156404 158.4375 445.748999833826 97.5 445.97598985835 97.5 C 446.26490297174195 97.5 446.4093595284379 97.5 446.69827264183 97.5 C 446.887735750726 97.5 446.98246730517405 97.5 447.17193041407 97.5 C 449.311001385698 97.5 452.51960784314 138.125 452.51960784314 138.125" class="highcharts-graph" data-z-index="1" stroke="#000000" stroke-width="2" stroke-linejoin="round" stroke-linecap="round"></path></g><g data-z-index="0.1" class="highcharts-markers highcharts-series-0 highcharts-spline-series highcharts-color-0 " transform="translate(68,63) scale(1 1)" clip-path="none"></g><g data-z-index="0.1" class="highcharts-series highcharts-series-1 highcharts-spline-series highcharts-color-1 " transform="translate(68,63) scale(1 1)" clip-path="url(#highcharts-f2tx20i-83)"><path fill="none" d="M 4.4803921568627 164.490625 C 4.4803921568627 164.490625 5.627401124541559 117.1625 6.3920737696608 117.1625 C 6.832970365908679 117.1625 7.05341866403262 140.359375 7.4943152602805 140.359375 C 7.756299580253339 140.359375 7.88729174023976 112.30380950927854 8.1492760602126 106.23437500000003 C 9.178612768649561 82.38755950927855 9.69328112286804 65.56875000000002 10.722617831305 65.56875000000002 C 18.6803521424894 65.56875000000002 22.659219298081602 117.446875 30.616953609266 117.446875 C 36.9595908431684 117.446875 40.130909460119604 99.99843750000002 46.473546694022 99.99843750000002 C 61.681878337209604 99.99843750000002 69.28604415880339 117.040625 84.494375801991 117.040625 C 106.92524628803861 117.040625 118.14068153106241 80.35624999999999 140.57155201711 75.725 C 223.96249830893402 71.09375 265.657971454846 71.09375 349.04891774667 71.09375 C 386.684796468718 71.09375 405.502735829742 92.70276954834038 443.13861455179 107.00625000000002 C 443.813578847634 107.2627695483404 444.15106099555595 107.49375 444.8260252914 107.49375 C 444.8354280379 107.49375 444.84012941115 107.49375 444.84953215765 107.49375 C 445.073125213406 107.49375 445.18492174128403 131.7875 445.40851479704 131.7875 C 445.63550482156404 131.7875 445.748999833826 119.9473306130799 445.97598985835 107.00625000000002 C 446.26490297174195 90.53483061307992 446.4093595284379 58.25625000000002 446.69827264183 58.25625000000002 C 446.887735750726 58.25625000000002 446.98246730517405 77.61539394439251 447.17193041407 79.4625 C 449.311001385698 100.3166439443925 452.51960784314 115.009375 452.51960784314 115.009375" class="highcharts-graph" data-z-index="1" stroke="#5D83FF" stroke-width="2" stroke-linejoin="round" stroke-linecap="round"></path></g><g data-z-index="0.1" class="highcharts-markers highcharts-series-1 highcharts-spline-series highcharts-color-1 " transform="translate(68,63) scale(1 1)" clip-path="none"></g></g><text x="300" text-anchor="middle" class="highcharts-title" data-z-index="4" style="color:#333333;font-size:18px;fill:#333333;" y="24"><tspan>Alertness &amp; Deep Sleep Over Time</tspan></text><text x="300" text-anchor="middle" class="highcharts-subtitle" data-z-index="4" style="color:#666666;fill:#666666;" y="46"><tspan>Black represents the mean of Alertness over the previous 24 hours</tspan></text><g class="highcharts-legend" data-z-index="7" transform="translate(161,358)"><rect fill="none" class="highcharts-legend-box" rx="0" ry="0" x="0" y="0" width="278" height="27" visibility="visible"></rect><g data-z-index="1"><g><g class="highcharts-legend-item highcharts-spline-series highcharts-color-0 highcharts-series-0" data-z-index="1" transform="translate(8,3)"><path fill="none" d="M 0 11 L 16 11" class="highcharts-graph" stroke="#000000" stroke-width="2"></path><path fill="#000000" d="M 12 11 A 4 4 0 1 1 11.999998000000167 10.996000000666664 Z" class="highcharts-point"></path><text x="21" style="color:#333333;font-size:12px;font-weight:bold;cursor:pointer;fill:#333333;" text-anchor="start" data-z-index="2" y="15"><tspan>Alertness (/5)</tspan></text></g><g class="highcharts-legend-item highcharts-spline-series highcharts-color-1 highcharts-series-1" data-z-index="1" transform="translate(142,3)"><path fill="none" d="M 0 11 L 16 11" class="highcharts-graph" stroke="#5D83FF" stroke-width="2"></path><path fill="#5D83FF" d="M 8 7 L 12 11 8 15 4 11 Z" class="highcharts-point"></path><text x="21" y="15" style="color:#333333;font-size:12px;font-weight:bold;cursor:pointer;fill:#333333;" text-anchor="start" data-z-index="2"><tspan>Deep Sleep (/1)</tspan></text></g></g></g></g><g class="highcharts-axis-labels highcharts-xaxis-labels " data-z-index="7"><text x="83.592526974312" style="color:#666666;cursor:default;font-size:11px;fill:#666666;" text-anchor="start" transform="translate(0,0)" y="342" opacity="1"><tspan>Jan '14</tspan></text><text x="290.72092435355" style="color:#666666;cursor:default;font-size:11px;fill:#666666;" text-anchor="start" transform="translate(0,0)" y="342" opacity="1"><tspan>Jan '15</tspan></text><text x="497.84932173278" style="color:#666666;cursor:default;font-size:11px;fill:#666666;" text-anchor="start" transform="translate(0,0)" y="342" opacity="1"><tspan>Jan '16</tspan></text><text x="186.30551307196" style="color:#666666;cursor:default;font-size:11px;fill:#666666;" text-anchor="start" transform="translate(0,0)" y="342" opacity="1"><tspan>Jul '14</tspan></text><text x="393.43391045119" style="color:#666666;cursor:default;font-size:11px;fill:#666666;" text-anchor="start" transform="translate(0,0)" y="342" opacity="1"><tspan>Jul '15</tspan></text></g><g class="highcharts-axis-labels highcharts-yaxis-labels " data-z-index="7"><text x="53" style="color:#666666;cursor:default;font-size:11px;fill:#666666;" text-anchor="end" transform="translate(0,0)" y="327" opacity="1">0</text><text x="53" style="color:#666666;cursor:default;font-size:11px;fill:#666666;" text-anchor="end" transform="translate(0,0)" y="262" opacity="1">1.6</text><text x="53" style="color:#666666;cursor:default;font-size:11px;fill:#666666;" text-anchor="end" transform="translate(0,0)" y="197" opacity="1">3.2</text><text x="53" style="color:#666666;cursor:default;font-size:11px;fill:#666666;" text-anchor="end" transform="translate(0,0)" y="132" opacity="1">4.8</text><text x="53" style="color:#666666;cursor:default;font-size:11px;fill:#666666;" text-anchor="end" transform="translate(0,0)" y="67" opacity="1">6.4</text></g><g class="highcharts-axis-labels highcharts-yaxis-labels " data-z-index="7"><text x="540" style="color:#666666;cursor:default;font-size:11px;fill:#666666;" text-anchor="start" transform="translate(0,0)" y="327" opacity="1">0.16</text><text x="540" style="color:#666666;cursor:default;font-size:11px;fill:#666666;" text-anchor="start" transform="translate(0,0)" y="262" opacity="1">0.32</text><text x="540" style="color:#666666;cursor:default;font-size:11px;fill:#666666;" text-anchor="start" transform="translate(0,0)" y="197" opacity="1">0.48</text><text x="540" style="color:#666666;cursor:default;font-size:11px;fill:#666666;" text-anchor="start" transform="translate(0,0)" y="132" opacity="1">0.64</text><text x="540" style="color:#666666;cursor:default;font-size:11px;fill:#666666;" text-anchor="start" transform="translate(0,0)" y="67" opacity="1">0.8</text></g><a xlink:href="https://quantimo.do" target="_blank">
                    <text x="590" class="highcharts-credits" text-anchor="end" data-z-index="8"
                          style="cursor:pointer;color:#999999;font-size:9px;fill:#999999;" y="395">https://quantimo.do
                    </text>
                </a></svg>