<?xml version="1.0" standalone="no"?><!DOCTYPE svg PUBLIC "-//W3C//DTD SVG 1.1//EN" "http://www.w3.org/Graphics/SVG/1.1/DTD/svg11.dtd"><svg xmlns:xlink="http://www.w3.org/1999/xlink" version="1.1" class="highcharts-root" style="font-family:&quot;Lucida Grande&quot;, &quot;Lucida Sans Unicode&quot;, Arial, Helvetica, sans-serif;font-size:12px;" xmlns="http://www.w3.org/2000/svg" width="600" height="400"><desc>Created with Highstock 6.2.0</desc><defs><clipPath id="highcharts-hocisry-600"><rect x="0" y="0" width="551" height="299" fill="none"></rect></clipPath><clipPath id="highcharts-hocisry-1194"><rect x="0" y="0" width="551" height="299" fill="none"></rect></clipPath><clipPath id="highcharts-hocisry-1195"><rect x="39" y="63" width="551" height="299" fill="none"></rect></clipPath></defs><rect fill="#ffffff" class="highcharts-background" x="0" y="0" width="600" height="400" rx="0" ry="0"></rect><rect fill="none" class="highcharts-plot-background" x="39" y="63" width="551" height="299"></rect><g class="highcharts-pane-group" data-z-index="0"></g><g class="highcharts-grid highcharts-xaxis-grid " data-z-index="1"><path fill="none" data-z-index="1" class="highcharts-grid-line" d="M 74.5 63 L 74.5 362" opacity="1"></path><path fill="none" data-z-index="1" class="highcharts-grid-line" d="M 149.5 63 L 149.5 362" opacity="1"></path><path fill="none" data-z-index="1" class="highcharts-grid-line" d="M 224.5 63 L 224.5 362" opacity="1"></path><path fill="none" data-z-index="1" class="highcharts-grid-line" d="M 299.5 63 L 299.5 362" opacity="1"></path><path fill="none" data-z-index="1" class="highcharts-grid-line" d="M 373.5 63 L 373.5 362" opacity="1"></path><path fill="none" data-z-index="1" class="highcharts-grid-line" d="M 449.5 63 L 449.5 362" opacity="1"></path><path fill="none" data-z-index="1" class="highcharts-grid-line" d="M 523.5 63 L 523.5 362" opacity="1"></path></g><g class="highcharts-grid highcharts-yaxis-grid " data-z-index="1"><path fill="none" stroke="#e6e6e6" stroke-width="1" data-z-index="1" class="highcharts-grid-line" d="M 39 362.5 L 590 362.5" opacity="1"></path><path fill="none" stroke="#e6e6e6" stroke-width="1" data-z-index="1" class="highcharts-grid-line" d="M 39 287.5 L 590 287.5" opacity="1"></path><path fill="none" stroke="#e6e6e6" stroke-width="1" data-z-index="1" class="highcharts-grid-line" d="M 39 213.5 L 590 213.5" opacity="1"></path><path fill="none" stroke="#e6e6e6" stroke-width="1" data-z-index="1" class="highcharts-grid-line" d="M 39 138.5 L 590 138.5" opacity="1"></path><path fill="none" stroke="#e6e6e6" stroke-width="1" data-z-index="1" class="highcharts-grid-line" d="M 39 62.5 L 590 62.5" opacity="1"></path></g><rect fill="none" class="highcharts-plot-border" data-z-index="1" x="39" y="63" width="551" height="299"></rect><g class="highcharts-axis highcharts-xaxis " data-z-index="2"><path fill="none" class="highcharts-tick" stroke="#ccd6eb" stroke-width="1" d="M 74.5 362 L 74.5 372" opacity="1"></path><path fill="none" class="highcharts-tick" stroke="#ccd6eb" stroke-width="1" d="M 149.5 362 L 149.5 372" opacity="1"></path><path fill="none" class="highcharts-tick" stroke="#ccd6eb" stroke-width="1" d="M 224.5 362 L 224.5 372" opacity="1"></path><path fill="none" class="highcharts-tick" stroke="#ccd6eb" stroke-width="1" d="M 299.5 362 L 299.5 372" opacity="1"></path><path fill="none" class="highcharts-tick" stroke="#ccd6eb" stroke-width="1" d="M 373.5 362 L 373.5 372" opacity="1"></path><path fill="none" class="highcharts-tick" stroke="#ccd6eb" stroke-width="1" d="M 449.5 362 L 449.5 372" opacity="1"></path><path fill="none" class="highcharts-tick" stroke="#ccd6eb" stroke-width="1" d="M 523.5 362 L 523.5 372" opacity="1"></path><path fill="none" class="highcharts-axis-line" stroke="#ccd6eb" stroke-width="1" data-z-index="7" d="M 39 362.5 L 590 362.5"></path></g><g class="highcharts-axis highcharts-yaxis " data-z-index="2"><path fill="none" class="highcharts-axis-line" data-z-index="7" d="M 39 63 L 39 362"></path></g><g class="highcharts-series-group" data-z-index="3"><g data-z-index="0.1" class="highcharts-series highcharts-series-0 highcharts-spline-series highcharts-color-0 " transform="translate(39,63) scale(1 1)" clip-path="url(#highcharts-hocisry-1194)"><path fill="none" d="M 5.4019607843137 250.33775 C 5.4019607843137 250.33775 5.757534387603161 287.7875 5.9945834564628 287.7875 C 6.328933031263401 287.7875 6.4961078186637 283.1112702981654 6.8304573934643 276.1601375 C 7.091518633965501 270.7326702981654 7.2220492542161 256.841 7.4831104947173 256.841 C 7.8059660916231 256.841 7.967393890075999 256.860089479638 8.2902494869818 257.775375 C 8.621298810703681 258.713889479638 8.78682347256462 258.66731177848396 9.1178727962865 261.4755 C 9.2702533547133 262.76809677848394 9.3464436339267 264.6067717414824 9.4988241923535 268.0273375 C 9.730524578430499 273.2284367414824 9.846374771468998 283.02966250000003 10.078075157546 283.02966250000003 C 11.245567427076 283.02966250000003 11.829313561841001 257.66325000000006 12.996805831371 256.654125 C 13.140309852413802 255.64499999999998 13.212061862935201 255.64499999999998 13.355565883978 255.64499999999998 C 13.6275520935672 255.64499999999998 13.7635451983618 258.85925 14.035531407951 258.85925 C 14.187342957571001 258.85925 14.263248732381001 258.85925 14.415060282001 258.672375 C 14.825884640418598 258.4855 15.0312968196274 255.42075 15.442121178045 255.42075 C 15.686794964913798 255.42075 15.8091318583482 261.13912500000004 16.053805645217 261.13912500000004 C 16.2988208373702 261.13912500000004 16.4213284334468 255.607625 16.6663436256 255.607625 C 16.821910633343997 255.607625 16.899694137216 258.223875 17.05526114496 258.223875 C 17.2162906372484 258.223875 17.296805383392602 256.728875 17.457834875681 256.728875 C 17.6391210814866 256.728875 17.729764184389403 261.139125 17.911050390195 261.139125 C 18.0723074860058 261.139125 18.1529360339112 257.81275 18.314193129722 257.81275 C 18.4763606396236 257.81275 18.5574443945744 259.9805 18.719611904476 259.9805 C 18.8847382601724 259.9805 18.9673014380206 256.130875 19.132427793717 256.130875 C 19.375849761211402 256.130875 19.497560744958598 257.65691988560394 19.740982712453 258.5041875 C 20.161594022345 259.9681898856039 20.371899677291 261.90905 20.792510987183 261.90905 C 21.276623679899803 261.90905 21.518680026258203 259.1266846835444 22.002792718975 257.476375 C 22.1659844447286 256.92006468354435 22.2475803076054 256.3925 22.410772033359 256.3925 C 22.5902374109834 256.3925 22.6799700997956 259.6042648950172 22.85943547742 260.840125 C 22.999753049145202 261.8063998950172 23.0699118350078 261.8978375 23.210229406733 261.8978375 C 23.3871911456082 261.8978375 23.4756720150458 260.1194972500868 23.652633753921 259.345125 C 23.804672907063797 258.6798122500868 23.880692483635197 259.09361323529424 24.032731636778 258.298625 C 24.2037756840636 257.40426323529425 24.289297707706403 255.68237499999998 24.460341754992 255.12175 C 24.6258095159724 254.561125 24.708543396462602 254.561125 24.874011157443 254.561125 C 25.2116609833222 254.561125 25.3804858962618 259.793625 25.718135722141 259.793625 C 25.881213646133396 259.793625 25.9627526081296 259.00875 26.125830532122 259.00875 C 26.2859496103192 259.00875 26.3660091494178 260.95225 26.526128227615 260.95225 C 26.6811262265526 260.95225 26.7586252260214 257.439 26.913623224959 257.439 C 27.0800014000302 257.439 27.1631904875658 260.316875 27.329568662637 260.316875 C 27.571625008995 260.316875 27.692653182174002 260.316875 27.934709528532 259.868375 C 28.1841629893772 259.41987500000005 28.3088897197998 256.46725000000004 28.558343180645 256.46725000000004 C 28.884157623345402 256.46725000000004 29.047064844695598 259.046125 29.372879287396 259.046125 C 29.5628144270632 259.046125 29.6577819968968 259.046125 29.847717136564 259.046125 C 29.988603717095998 259.046125 30.059047007362 259.644125 30.199933587894 259.644125 C 30.3671083752944 259.644125 30.450695768994603 253.888375 30.617870556395 253.888375 C 30.789028405442203 253.888375 30.8746073299658 255.41768024904053 31.045765179013 258.448125 C 31.260736706173798 262.25431524904053 31.368222469754198 270.9799625 31.583193996915 270.9799625 C 31.708944943189397 270.9799625 31.7718204163266 257.8875 31.897571362601 257.8875 C 32.0482448946078 257.8875 32.1235816606112 257.8875 32.274255192618 258.4855 C 32.424245914056804 259.0835 32.499241274776196 262.8845375 32.649231996215 262.8845375 C 32.8293801844074 262.8845375 32.9194542785036 256.130875 33.099602466696 256.130875 C 33.7572628454476 256.130875 34.0860930348234 256.4924828922196 34.743753413575 257.401625 C 35.1567400054578 257.9725328922196 35.363233301399205 259.831 35.776219893282 259.831 C 36.024649138275194 259.831 36.1488637607718 258.037 36.397293005765 258.037 C 36.7267491048282 258.037 36.891477154359805 258.037 37.220933253423 258.85925 C 37.4235003885982 259.68149999999997 37.5247839561858 263.91235 37.727351091361 263.91235 C 38.2193161056098 263.91235 38.4652986127342 263.2028470511895 38.957263626983 259.644125 C 39.0877942472334 258.6999070511895 39.153059557358596 252.655 39.283590177609 252.655 C 39.7867077644686 252.655 40.038266557898396 254.8284360437535 40.541384144758 257.476375 C 40.6859123816528 258.2370360437535 40.7581765001002 261.17650000000003 40.902704736995 261.17650000000003 C 41.287240888544204 261.17650000000003 41.4795089643188 261.17650000000003 41.864045115868 260.66259375 C 42.156401840735995 260.14868749999994 42.302580203169995 258.9930292508104 42.594936928038 258.448125 C 43.0746113520628 257.5540917508104 43.3144485640752 257.06525 43.7941229881 257.06525 C 43.918849718522395 257.06525 43.98121308373361 257.06525 44.105939814156 257.06525 C 44.304296284162 257.06525 44.403474519165 256.91575 44.601830989171 256.91575 C 44.751252701803004 256.91575 44.825963558119 259.60675000000003 44.975385270751 259.60675000000003 C 45.152347009626205 259.60675000000003 45.240827879063794 257.0471513034512 45.417789617939 256.728875 C 46.454409861934195 254.86445130345115 46.9727199839318 254.15 48.009340227927 254.15 C 48.3473314590906 254.15 48.516327074672404 254.15 48.854318305836 254.29950000000002 C 49.47761055266441 254.44900000000004 49.7892566760786 254.29950000000002 50.412548922907 258.672375 C 50.5212296049814 263.04524999999995 50.5755699460186 271.34997500000003 50.684250628093 271.34997500000003 C 50.8893214020178 271.34997500000003 50.9918567889802 262.8088753096134 51.196927562905 258.41075 C 51.324499337361 255.67473530961342 51.388285224589005 253.514625 51.515856999045 253.514625 C 51.69054270269339 253.514625 51.777885554517596 254.710625 51.952571258166 254.710625 C 52.1169010015328 254.710625 52.199065873216206 252.954 52.363395616583 252.954 C 52.50120954955899 252.954 52.57011651604701 272.815075 52.707930449023 272.815075 C 52.914480645845 272.815075 53.017755744256 259.70018749999997 53.224305941078 257.21475 C 53.43256316432 254.7293125 53.536691775940994 254.7293125 53.744948999183 254.7293125 C 53.9833636891786 254.7293125 54.1025710341764 256.0692163859548 54.340985724172 256.878375 C 54.501218604130806 257.4221913859548 54.58133504411021 258.11175000000003 54.741567924069 258.11175000000003 C 54.93594133242821 258.11175000000003 55.0331280366078 257.93779403839926 55.227501444967 257.476375 C 55.38579969498339 257.1005940383992 55.46494881999159 256.2721291365003 55.623247070008 256.01875 C 56.109408194428795 255.24057913650034 56.3524887566392 255.51335457142875 56.83864988106 254.8975 C 56.989778620112 254.70605457142872 57.065342989638 254.0005 57.21647172869 254.0005 C 57.6304825364248 254.0005 57.837487940292206 257.28031608467506 58.251498748027 258.6163125 C 58.862272801109 260.58725608467506 59.167659827650006 262.26785 59.778433880732 262.26785 C 59.930245430352 262.26785 60.006151205162 259.270375 60.157962754782 259.270375 C 60.3257065509888 259.270375 60.4095784490922 260.13 60.577322245299 260.13 C 60.706145839129796 260.13 60.770557636045204 256.91575 60.899381229876 256.91575 C 61.064166180288 256.91575 61.146558655494005 256.91575 61.311343605906 256.91575 C 62.0065585658984 256.91575 62.3541660458946 256.91575 63.049381005887 256.579375 C 63.345834594163 256.24300000000005 63.494061388301 253.738875 63.790514976577 253.738875 C 64.24959128180019 253.738875 64.47912943441179 258.597625 64.938205739635 258.597625 C 65.6642609769486 258.597625 66.0272885956054 258.597625 66.753343832919 258.298625 C 67.06447784840739 257.99962500000004 67.22004485615159 255.4955 67.53117887164 255.4955 C 67.70939242989 255.4955 67.79849920901499 287.7875 67.976712767265 287.7875 C 68.0957494096206 287.7875 68.15526773079839 224.960125 68.274304373154 224.960125 C 68.6191237099972 224.960125 68.7915333784188 241.22356941861767 69.136352715262 257.102625 C 69.305348330844 264.88493441861766 69.38984613863501 284.1135375 69.558841754217 284.1135375 C 69.95214064138861 284.1135375 70.1487900849744 257.0465625 70.542088972146 257.0465625 C 70.79256664884319 257.0465625 70.9178054871918 257.6338255039265 71.168283163889 258.223875 C 71.3525282154894 258.65790050392656 71.4446507412896 259.2098321580849 71.62889579289 259.60675000000003 C 71.7916323115984 259.9573321580849 71.8730005709526 259.60675000000003 72.035737089661 260.092625 C 72.674506376031 260.57849999999996 72.993891019216 279.4790375 73.632660305586 279.4790375 C 74.3825001110188 279.4790375 74.7574200137352 263.74789999999996 75.507259819168 262.08844999999997 C 76.4341751652368 260.429 76.89763283827119 262.08844999999997 77.82454818434 260.429 C 77.9574686415788 258.76955 78.0239288701982 254.112625 78.156849327437 254.112625 C 78.5277292676258 254.112625 78.7131692377202 281.172125 79.084049177909 281.172125 C 79.1962577145846 281.172125 79.2523619829224 254.0005 79.364570519598 254.0005 C 79.5399390338144 254.0005 79.6276232909226 257.66325 79.802991805139 257.66325 C 79.95468955299779 257.66325 80.03053842692721 255.383375 80.182236174786 255.383375 C 80.363180975308 255.383375 80.453653375569 255.383375 80.634598176091 259.120875 C 80.77935401650821 262.858375 80.8517319367168 287.7875 80.996487777134 287.7875 C 81.33846206994401 287.7875 81.509449216349 287.7875 81.851423509159 279.7743 C 81.9975449707126 271.76109999999994 82.0706057014894 253.215625 82.216727163043 253.215625 C 82.5521009536954 253.215625 82.7197878490216 253.52457594637244 83.055161639674 254.15 C 83.6216668075968 255.20645094637248 83.9049193915582 257.4203125 84.471424559481 257.4203125 C 84.724519676689 257.4203125 84.851067235293 254.76480553809935 85.104162352501 253.92575 C 85.43054580400819 252.84373053809938 85.5937375297618 252.617625 85.920120981269 252.617625 C 86.12439514286419 252.617625 86.22653222366179 258.26125 86.430806385257 258.26125 C 86.5661166794838 258.26125 86.6337718265972 257.4094392120468 86.769082120824 256.654125 C 86.90962729607199 255.86958921204675 86.97989988369599 254.41162500000002 87.120445058944 254.41162500000002 C 87.2953583661148 254.41162500000002 87.38281501970019 254.41162500000002 87.557728326871 254.561125 C 87.70771904830978 254.710625 87.7827144090292 257.5885 87.932705130468 257.5885 C 88.285604392366 257.5885 88.462054023315 254.486375 88.814953285213 254.486375 C 89.10958604530819 254.486375 89.25690242535579 254.59842647110474 89.551535185451 254.748 C 89.904775852633 254.92732647110472 90.081396186224 255.308625 90.434636853406 255.308625 C 90.5767752533128 255.308625 90.6478444532662 254.67325 90.789982853173 254.67325 C 90.9775281558522 254.67325 91.0713008071918 256.355125 91.258846109871 256.355125 C 91.40724360665101 256.355125 91.48144235504101 255.7945 91.629839851821 255.7945 C 91.79098314587061 255.7945 91.87155479289541 257.2844158659918 92.032698086945 258.26125 C 92.2316235657574 259.46711586599184 92.33108630516361 261.25125 92.530011783976 261.25125 C 92.66031480070401 261.25125 92.725466309068 255.458125 92.855769325796 255.458125 C 93.0239683290484 255.458125 93.1080678306746 255.50545341532313 93.276266833927 255.64499999999998 C 93.7928130286238 256.07355341532315 94.0510861259722 256.878375 94.567632320669 256.878375 C 94.86932078996661 256.878375 95.02016502461541 254.710625 95.321853493913 254.67325 C 95.48163116682659 254.635875 95.5615200032834 254.635875 95.721297676197 254.635875 C 95.8875620495066 254.635875 95.97069423616139 275.5397125 96.136958609471 275.5397125 C 96.2950292559646 275.5397125 96.3740645792114 254.635875 96.532135225705 254.635875 C 96.7072761363986 254.635875 96.79484659174541 260.3595606903814 96.969987502439 266.7678 C 97.12123004325261 272.30162069038136 97.19685131365941 282.70076249999994 97.348093854473 284.491025 C 97.5195931088038 286.2812875 97.6053427359692 286.2812875 97.7768419903 286.2812875 C 97.93570924912319 286.2812875 98.0151428785348 260.2795 98.174010137358 258.448125 C 98.56981266327921 256.61675 98.7677139262398 256.61675 99.163516452161 256.61675 C 99.32340792683581 256.61675 99.40335366417321 261.587625 99.563245138848 261.587625 C 99.6877442657476 261.587625 99.7499938291974 261.587625 99.874492956097 260.728 C 100.0253940916262 259.868375 100.1008446593908 256.280375 100.25174579492 256.280375 C 100.417782564708 256.280375 100.500800949602 257.738 100.66683771939 257.738 C 100.83480911911799 257.738 100.918794818982 257.177375 101.08676621871 257.177375 C 101.24301603702199 257.177375 101.321140946178 287.7875 101.47739076449 287.7875 C 101.67210557813401 287.7875 101.769462984956 267.12660000000005 101.9641777986 262.9368625 C 102.09880528226 258.747125 102.16611902409002 258.747125 102.30074650775 258.747125 C 102.961479534058 258.747125 103.29184604721199 258.747125 103.95257907352 259.56937500000004 C 104.11269815171599 260.3916250000001 104.192757690814 261.5210315587047 104.35287676901 261.976325 C 104.70748305733 262.9846365587047 104.88478620148999 261.976325 105.23939248981 263.2283875 C 105.397804541586 264.48045 105.47701056747401 287.7875 105.63542261925 287.7875 C 106.11395902566201 287.7875 106.353227228868 266.0502 106.83176363528 263.1461625 C 107.18625612183601 260.242125 107.36350236511399 260.242125 107.71799485167 260.242125 C 107.86684755549399 260.242125 107.941273907406 287.7875 108.09012661123 287.7875 C 108.24512461017 287.7875 108.32262360964 261.7259125 108.47762160858 261.7259125 C 108.67404344864401 261.7259125 108.772254368676 261.7259125 108.96867620874 264.6860125 C 109.140175463068 267.6461125 109.225925090232 282.2859 109.39742434456 282.2859 C 109.530117198276 282.2859 109.59646362513399 264.19835980428786 109.72915647885 260.167375 C 110.11403403568602 248.47544480428783 110.30647281410401 242.9786125 110.69135037094 242.9786125 C 110.95787409598401 242.9786125 111.09113595850599 259.345125 111.35765968355 260.05525 C 111.528931334358 260.765375 111.614567159762 260.05525 111.78583881057 260.765375 C 111.94106441302999 261.4755 112.01867721426001 287.7875 112.17390281672 287.7875 C 113.05575266529999 287.7875 113.49667758958999 280.84328694751116 114.37852743817 275.6518375 C 115.165125212514 271.02113694751114 115.558424099686 263.232125 116.34502187403 263.232125 C 116.48841209330999 263.232125 116.56010720295001 265.7773625 116.70349742223 265.7773625 C 117.034546745954 265.7773625 117.200071407816 261.21387500000003 117.53112073154 261.21387500000003 C 117.98632777687598 261.21387500000003 118.21393129954399 287.7875 118.66913834488 287.7875 C 118.85315579295998 287.7875 118.94516451700001 264.218825 119.12918196508 264.218825 C 119.28270054112 264.218825 119.35945982914 267.0029959496091 119.51297840518 269.1859625 C 119.91731606319999 274.9354659496091 120.11948489221 284.05 120.52382255023 284.05 C 120.945332894038 284.05 121.156088065942 281.60162536310924 121.57759840975 276.575 C 121.78290816737399 274.12662536310927 121.88556304618601 265.3625 122.09087280381 265.3625 C 122.39643053299001 265.3625 122.54920939757999 273.08904689538923 122.85476712676 276.575 C 123.33546576663998 282.05904689538926 123.57581508658 287.7875 124.05651372646 287.7875 C 124.282182619184 287.7875 124.39501706554601 282.1014736273639 124.62068595827 278.44375 C 124.94843503091401 273.1314736273639 125.11230956723598 265.3625 125.44005863988 265.3625 C 125.871777001676 265.3625 126.08763618257399 265.3625 126.51935454437 265.3625 C 126.743134327858 265.3625 126.855024219602 263.49375 127.07880400309 263.49375 C 127.33950487135 263.49375 127.46985530548 265.9664866177697 127.73055617374 269.1 C 127.905186873204 271.1989866177698 127.992502222936 276.575 128.1671329224 276.575 C 128.50455514475598 276.575 128.673266255934 269.46409114479707 129.01068847829 265.3625 C 129.16521799331 263.48409114479705 129.24248275082 261.625 129.39701226584 261.625 C 129.699229913328 261.625 129.850338737072 261.625 130.15255638456 261.625 C 130.397926258868 261.625 130.520611196022 274.70625 130.76598107033 274.70625 C 131.09373014297404 274.70625 131.25760467929598 261.625 131.58535375194 261.625 C 131.877829968656 261.625 132.024068077014 261.625 132.31654429373 261.625 C 132.47349588957 261.625 132.55197168749 265.3625 132.70892328333 265.3625 C 133.02935110932998 265.3625 133.18956502233 265.3625 133.50999284833 265.3625 C 133.696957762026 265.3625 133.790440218874 265.3625 133.97740513257 265.3625 C 134.12816780929 265.3625 134.20354914765 265.3625 134.35431182437 265.3625 C 134.693465730194 265.3625 134.86304268310602 261.625 135.20219658893 261.625 C 135.332435117994 261.625 135.397554382526 261.625 135.52779291159 261.625 C 136.159237157922 261.625 136.47495928108802 261.625 137.10640352742 261.625 C 137.28611357883202 261.625 137.375968604538 257.8875 137.55567865595 257.8875 C 137.71557013062198 257.8875 137.79551586795802 261.625 137.95540734263 261.625 C 138.289132904442 261.625 138.455995685348 261.625 138.78972124716 261.625 C 138.99086396362 261.625 139.09143532185 265.3625 139.29257803831 265.3625 C 139.42379146912998 265.3625 139.48939818454 265.3625 139.62061161536 265.3625 C 140.262453549288 265.3625 140.58337451625198 272.8375 141.22521645018 272.8375 C 141.381352466728 272.8375 141.459420475002 268.9161036035734 141.61555649155 265.3625 C 141.78785235821 261.44110360357337 141.87400029154 254.15 142.0462961582 254.15 C 142.195554754976 254.15 142.270184053364 256.67107738119034 142.41944265014 257.8875 C 142.63706575834001 259.66107738119035 142.74587731244 261.625 142.96350042064 261.625 C 143.074563352916 261.625 143.13009481905402 257.8875 143.24115775133 257.8875 C 143.41571827304202 257.8875 143.50299853389802 257.8875 143.67755905561 257.8875 C 143.83532243735 257.8875 143.91420412821998 257.8875 144.07196750996 257.8875 C 144.23411794959597 257.8875 144.315193169414 257.8875 144.47734360905 257.8875 C 144.664900291906 257.8875 144.758678633334 257.8875 144.94623531619 257.8875 C 145.09133825197802 257.8875 145.163889719872 254.15 145.30899265566 254.15 C 145.62627196626 254.15 145.78491162156 254.15 146.10219093216 254.15 C 146.26777249490402 254.15 146.35056327627598 257.8875 146.51614483902 257.8875 C 146.713475196476 257.8875 146.812140375204 257.8875 147.00947073266 257.8875 C 147.143825092092 257.8875 147.211002271808 254.15 147.34535663124 254.15 C 147.59633693238402 254.15 147.721827082956 254.15 147.9728073841 254.15 C 148.20958143203603 254.15 148.32796845600402 272.8375 148.56474250394 272.8375 C 148.749603981748 272.8375 148.842034720652 261.9002057848635 149.02689619846 257.8875 C 149.18640074714398 254.42520578486355 149.266153021486 254.15 149.42565757017 254.15 C 149.575011001746 254.15 149.649687717534 254.15 149.79904114911 254.15 C 149.97993473883798 254.15 150.070381533702 254.15 150.25127512343 254.15 C 150.412221161094 254.15 150.492694179926 254.15 150.65364021759 254.15 C 150.898850769434 254.15 151.021456045356 265.3625 151.2666665972 265.3625 C 151.42399373885198 265.3625 151.502657309678 261.55291853405834 151.65998445133 259.75625 C 151.895390981434 257.0679185340583 152.013094246486 254.15 152.24850077659 254.15 C 152.735572315102 254.15 152.979108084358 254.15 153.46617962287 254.15 C 153.63430844836998 254.15 153.71837286112 254.15 153.88650168662 254.15 C 154.207743195212 254.15 154.36836394950802 254.15 154.6896054581 254.15 C 154.863031755588 254.15 154.94974490433202 254.15 155.12317120182 254.15 C 155.285109211504 254.15 155.366078216346 257.8875 155.52801622603 257.8875 C 155.850061933734 257.8875 156.011084787586 257.42518213516445 156.33313049529 254.15 C 156.599092798314 251.4451821351645 156.732073949826 242.9375 156.99803625285 242.9375 C 157.161724912962 242.9375 157.243569243018 254.15 157.40725790313 254.15 C 157.64897284420198 254.15 157.76983031473802 250.4125 158.01154525581 250.4125 C 158.334173249194 250.4125 158.495487245886 254.15 158.81811523927 254.15 C 158.99151877640602 254.15 159.07822054497402 254.15 159.25162408211 254.15 C 159.39969724387 254.15 159.47373382474998 265.3625 159.62180698651 265.3625 C 159.95898453508198 265.3625 160.12757330936802 250.4125 160.46475085794 250.4125 C 160.77799589609998 250.4125 160.93461841518 287.7875 161.24786345334 287.7875 C 161.573027329304 287.7875 161.735609267286 257.88750000000005 162.06077314325 254.15 C 162.55948470525 250.4125 162.80884048624998 250.4125 163.30755204825 250.4125 C 163.64099689904998 250.4125 163.80771932445 287.7875 164.14116417525 287.7875 C 164.315102580666 287.7875 164.402071783374 268.93767508226404 164.57601018879 261.625 C 164.72211078668602 255.482675082264 164.795161085634 254.15 164.94126168353 254.15 C 165.283370641758 254.15 165.45442512087203 287.7875 165.7965340791 287.7875 C 166.13918359569203 287.7875 166.310508353988 254.15 166.65315787058 254.15 C 166.794389649788 254.15 166.865005539392 287.7875 167.0062373186 287.7875 C 167.32770453402 287.7875 167.48843814173 250.4125 167.80990535715 250.4125 C 168.24171665705398 250.4125 168.457622307006 254.15 168.88943360691 254.15 C 169.279767958198 254.15 169.474935133842 250.4125 169.86526948513 250.4125 C 170.121384142406 250.4125 170.249441471044 257.8875 170.50555612832 257.8875 C 170.847964764516 257.8875 171.019169082614 250.4125 171.36157771881 250.4125 C 171.52085656067 250.4125 171.60049598159998 252.94050467245344 171.75977482346 254.15 C 171.99425007582 255.9305046724534 172.11148770200003 257.8875 172.34596295436 257.8875 C 172.66616317683201 257.8875 172.826263288068 250.4125 173.14646351054 250.4125 C 173.985425268668 250.4125 174.404906147732 250.4125 175.24386790586 250.4125 C 175.56431280211999 250.4125 175.72453525025 246.675 176.04498014651 246.675 C 176.779278424738 246.675 177.146427563852 257.8875 177.88072584208 257.8875 C 178.449897764608 257.8875 178.734483725872 253.29395778604618 179.3036556484 250.4125 C 179.62040198742002 248.80895778604622 179.77877515692998 246.675 180.09552149595 246.675 C 180.248852299082 246.675 180.32551770064802 246.675 180.47884850378 246.675 C 180.81102446494 246.675 180.97711244552 254.15 181.30928840668 254.15 C 181.668617468092 254.15 181.84828199879803 246.675 182.20761106021 246.675 C 182.46497753686202 246.675 182.593660775188 254.15 182.85102725184 254.15 C 183.06010764115598 254.15 183.164647835814 254.15 183.37372822513 254.15 C 183.58190578713803 254.15 183.685994568142 250.4125 183.89417213015 250.4125 C 184.86682061070601 250.4125 185.35314485098402 250.4125 186.32579333154 250.4125 C 186.552679903116 250.4125 186.666123188904 261.625 186.89300976048 261.625 C 187.133890155304 261.625 187.25433035271598 250.4125 187.49521074754 250.4125 C 187.74396622424803 250.4125 187.868343962602 287.7875 188.11709943931 287.7875 C 188.187865167898 287.7875 188.22324803219198 250.4125 188.29401376078 250.4125 C 188.613978792948 250.4125 188.773961309032 269.1 189.0939263412 269.1 C 189.31328492626 269.1 189.42296421879 257.88750000000005 189.64232280385 254.15 C 189.949991555706 250.4125 190.103825931634 250.4125 190.41149468349 250.4125 C 190.580086302822 250.4125 190.664382112488 254.15 190.83297373182 254.15 C 191.22348257914 254.15 191.41873700280001 254.15 191.80924585012 254.15 C 192.047470870516 254.15 192.16658338071397 254.15 192.40480840111 254.15 C 192.575270162714 254.15 192.66050104351604 250.4125 192.83096280512 250.4125 C 193.23204193937602 250.4125 193.43258150650402 287.7875 193.83366064076 287.7875 C 193.9196606318 287.7875 193.96266062732 246.675 194.04866061836 246.675 C 194.210930549848 246.675 194.29206551559201 254.15 194.45433544708 254.15 C 195.297320097468 254.15 195.71881242266198 250.4125 196.56179707305 250.4125 C 197.25775174449 250.4125 197.60572908020998 250.4125 198.30168375165 250.4125 C 198.41643386099798 250.4125 198.473808915672 242.9375 198.58855902502 242.9375 C 198.868460147108 242.9375 199.00841070815198 287.7875 199.28831183024 287.7875 C 200.08375958822398 287.7875 200.481483467216 254.15 201.2769312252 254.15 C 201.44032969082 254.15 201.52202892363002 257.8875 201.68542738925 257.8875 C 202.014900558578 257.8875 202.17963714324202 254.15 202.50911031257 254.15 C 202.81765154459399 254.15 202.97192216060597 272.8375 203.28046339263 272.8375 C 203.53804988602198 272.8375 203.66684313271801 254.15 203.92442962611 254.15 C 204.15846674168603 254.15 204.27548529947398 269.1 204.50952241505 269.1 C 204.78671126182599 269.1 204.92530568521403 250.4125 205.20249453199 250.4125 C 205.416929294178 250.4125 205.524146675272 257.8875 205.73858143746 257.8875 C 205.9705852949 257.8875 206.08658722361997 250.4125 206.31859108106 250.4125 C 206.50627104915597 250.4125 206.60011103320403 280.3125 206.7877910013 280.3125 C 206.965943865276 280.3125 207.05502029726398 194.35000000000002 207.23317316124 194.35000000000002 C 207.36552650636798 194.35000000000002 207.431703178932 246.675 207.56405652406 254.15 C 207.81711370734803 261.625 207.94364229899202 261.625 208.19669948228 261.625 C 208.446297092024 261.625 208.571095896896 250.4125 208.82069350664 250.4125 C 209.00022716531998 250.4125 209.08999399466 250.4125 209.26952765334 250.4125 C 209.40195117621997 250.4125 209.46816293766 250.4125 209.60058646054 250.4125 C 209.77727697188402 250.4125 209.865622227556 250.4125 210.0423127389 250.4125 C 210.19419446627597 250.4125 210.27013532996403 254.15 210.42201705734 254.15 C 210.60902180165203 254.15 210.70252417380797 254.15 210.88952891812 254.15 C 212.47333458435597 254.15 213.26523741747397 231.72500000000002 214.84904308371 231.72500000000002 C 215.07195228372197 231.72500000000002 215.183406883728 250.4125 215.40631608374 250.4125 C 215.581259738048 250.4125 215.668731565202 250.4125 215.84367521951 250.4125 C 215.97667344128598 250.4125 216.043172552174 242.9375 216.17617077395 242.9375 C 216.35128702759403 242.9375 216.43884515441596 250.4125 216.61396140806 250.4125 C 216.92986371734796 250.4125 217.08781487199204 250.4125 217.40371718128 250.4125 C 217.56337156895202 250.4125 217.64319876278802 250.4125 217.80285315046 250.4125 C 217.974528797524 250.4125 218.06036662105598 246.675 218.23204226812 246.675 C 218.39457204696 246.675 218.47583693638003 246.675 218.63836671522 246.675 C 218.974575052124 246.675 219.14267922057599 242.9375 219.47888755748 242.9375 C 219.721780346784 242.9375 219.843226741436 272.8375 220.08611953074 272.8375 C 220.319231058656 272.8375 220.435786822614 242.9375 220.66889835053 242.9375 C 220.829901289074 242.9375 220.91040275834598 246.675 221.07140569689 246.675 C 221.562723937794 246.675 221.808383058246 242.9375 222.29970129915 242.9375 C 223.29103033883 242.9375 223.78669485867 242.9375 224.77802389835 242.9375 C 225.44156972486198 242.9375 225.77334263811798 242.9375 226.43688846463 242.9375 C 226.59811141991 242.9375 226.67872289755002 242.9375 226.83994585283 242.9375 C 227.316739195598 242.9375 227.55513586698197 265.3625 228.03192920975 265.3625 C 228.46328340591398 265.3625 228.678960503996 235.4625 229.11031470016 235.4625 C 229.511805417448 235.4625 229.71255077609197 242.9375 230.11404149338 242.9375 C 230.26655292383603 242.9375 230.342808639064 194.35000000000002 230.49532006952 194.35000000000002 C 232.61369243936002 194.35000000000002 233.67287862428003 242.9375 235.79125099412 242.9375 C 236.843858488884 242.9375 237.37016223626597 242.9375 238.42276973103 242.9375 C 242.324146370146 242.9375 244.274834689704 242.9375 248.17621132882 242.9375 C 252.300590106056 242.9375 254.36277949467404 243.80553432510314 258.48715827191 246.675 C 258.660406279974 246.79553432510315 258.747030284006 250.4125 258.92027829207 250.4125 C 259.04321264475004 250.4125 259.10467982109003 242.9375 259.22761417377 242.9375 C 259.62731441001796 242.9375 259.82716452814196 250.4125 260.22686476439 250.4125 C 260.484538505794 250.4125 260.613375376496 242.9375 260.8710491179 242.9375 C 261.01857034112 242.9375 261.09233095273 250.4125 261.23985217595 250.4125 C 261.417800196754 250.4125 261.50677420715596 246.675 261.68472222796 246.675 C 262.035138714764 246.675 262.210346958166 269.766092397349 262.56076344497 280.3125 C 262.756750941646 286.21109239734903 262.854744689984 287.7875 263.05073218666 287.7875 C 263.15648626677205 287.7875 263.209363306828 287.7875 263.31511738694 287.7875 C 263.64729903818795 287.7875 263.81338986381195 246.675 264.14557151506 246.675 C 264.44985656121196 246.675 264.60199908428797 246.675 264.90628413044 246.675 C 265.126941952276 246.675 265.237270863194 246.675 265.45792868503 250.4125 C 265.739316816802 254.14999999999998 265.880010882688 287.7875 266.16139901446 287.7875 C 267.22895057718404 287.7875 267.76272635854605 246.675 268.83027792127 246.675 C 269.229708826682 246.675 269.42942427938794 246.675 269.8288551848 246.675 C 270.004893232712 246.675 270.092912256668 246.675 270.26895030458 246.675 C 270.676728569184 246.675 270.88061770148596 259.75625 271.28839596609 259.75625 C 271.70251109210596 259.75625 271.90956865511396 242.9375 272.32368378113 242.9375 C 272.647823441246 242.9375 272.809893271304 242.9375 273.13403293142 242.9375 C 273.293687319092 242.9375 273.37351451292795 246.675 273.5331689006 246.675 C 273.689629252168 246.675 273.767859427952 242.9375 273.92431977952 242.9375 C 274.281446776852 242.9375 274.460010275518 287.7875 274.81713727285 287.7875 C 274.978310914038 287.7875 275.058897734632 269.1 275.22007137582 269.1 C 275.39659877130396 269.1 275.484862469046 280.3125 275.66138986453 280.3125 C 275.803348078314 280.3125 275.874327185206 246.675 276.01628539899 246.675 C 276.255498598014 246.675 276.375105197526 254.15 276.61431839655 254.15 C 278.001432891886 254.15 278.694990139554 242.9375 280.08210463489 242.9375 C 280.24797639212204 242.9375 280.330912270738 242.9375 280.49678402797 242.9375 C 281.98601853384196 242.9375 282.730635786778 239.2 284.21987029265 239.2 C 284.372609326626 239.2 284.448978843614 287.7875 284.60171787759 287.7875 C 285.09525714953395 287.7875 285.342026785506 242.9375 285.83556605745 242.9375 C 286.02092636631403 242.9375 286.113606520746 287.7875 286.29896682961 287.7875 C 286.44040155529 287.7875 286.51111891812997 246.675 286.65255364381 242.9375 C 286.818838880778 239.2 286.901981499262 239.2 287.06826673623 239.2 C 287.387970024346 239.2 287.547821668404 254.15 287.86752495652 254.15 C 288.046225965648 254.15 288.13557647021196 242.9375 288.31427747934 242.9375 C 288.48023648459196 242.9375 288.563215987218 242.9375 288.72917499247 242.9375 C 289.398003117398 242.9375 289.732417179862 287.7875 290.40124530479 287.7875 C 290.646655009718 287.7875 290.769359862182 216.775 291.01476956711 216.775 C 291.738918624918 216.775 292.10099315382206 246.675 292.82514221163 246.675 C 293.31228961798604 246.675 293.555863321164 242.9375 294.04301072752 242.9375 C 294.242514698616 242.9375 294.342266684164 272.8375 294.54177065526 272.8375 C 294.830434512976 272.8375 294.974766441834 246.675 295.26343029955 246.675 C 296.731076611294 246.675 297.464899767166 246.675 298.93254607891 246.675 C 299.08963044346996 246.675 299.16817262574995 259.12293237984665 299.32525699031 265.3625 C 299.50690925845004 272.5779323798467 299.59773539252 280.3125 299.77938766066 280.3125 C 300.14419248348804 280.3125 300.326594894902 272.2029994587499 300.69139971773 265.3625 C 300.96442342004605 260.2429994587499 301.100935271204 250.4125 301.37395897352 250.4125 C 301.695335147528 250.4125 301.856023234532 250.4125 302.17739940854 250.4125 C 302.298044449124 250.4125 302.358366969416 257.8875 302.47901201 257.8875 C 303.44026893424405 257.8875 303.92089739636606 257.8875 304.88215432061 257.8875 C 305.15485558460205 257.8875 305.291206216598 257.8875 305.56390748059 261.625 C 305.87585517867 265.3625 306.03182902771 287.7875 306.34377672579 287.7875 C 306.490472886238 287.7875 306.563820966462 280.3125 306.71051712691 280.3125 C 306.884112230346 280.3125 306.970909782064 287.7875 307.1445048855 287.7875 C 308.670611162044 287.7875 309.433664300316 257.8875 310.95977057686 257.8875 C 311.07572698487604 257.8875 311.133705188884 257.8875 311.2496615969 257.8875 C 312.067323458696 257.8875 312.476154389594 287.7875 313.29381625139 287.7875 C 314.290932110634 287.7875 314.789490040256 287.7875 315.7866058995 287.7875 C 315.982849450136 287.7875 316.08097122545394 287.7875 316.27721477609 287.7875 C 316.595996269942 287.7875 316.755387016868 250.41250000000002 317.07416851072 246.675 C 317.350482980632 242.9375 317.488640215588 242.9375 317.7649546855 242.9375 C 318.12204564560795 242.9375 318.300591125662 257.8875 318.65768208577 257.8875 C 318.826213010826 257.8875 318.910478473354 246.675 319.07900939841 246.675 C 319.554751971578 246.675 319.792623258162 246.675 320.26836583133 246.675 C 320.619286839278 246.675 320.794747343252 242.9375 321.1456683512 242.9375 C 322.403921318788 242.9375 323.033047802582 242.9375 324.29130077017 242.9375 C 324.808300275214 242.9375 325.066800027736 246.675 325.58379953278 246.675 C 327.64849730188797 246.675 328.68084618644195 245.62800148253305 330.74554395555 242.9375 C 330.975379889438 242.6380014825331 331.090297856382 239.2 331.32013379027 239.2 C 331.638934251078 239.2 331.798334481482 241.51693348654626 332.11713494229 242.9375 C 332.469343806838 244.50693348654622 332.645448239112 242.9375 332.99765710366 246.675 C 333.162235314204 250.41250000000002 333.244524419476 261.22785929721715 333.40910263002 269.1 C 333.557075266892 276.1778592972172 333.631061585328 284.05 333.7790342222 284.05 C 333.972973287168 284.05 334.069942819652 250.41250000000002 334.26388188462 246.675 C 334.404686907224 242.9375 334.475089418526 242.9375 334.61589444113 242.9375 C 334.777650367994 242.9375 334.858528331426 242.9375 335.02028425829 242.9375 C 335.34482791465797 242.9375 335.507099742842 261.625 335.83164339921 261.625 C 336.35770342115404 261.625 336.62073343212603 242.93749999999997 337.14679345407 239.2 C 338.477327610366 235.4625 339.142594688514 235.4625 340.47312884481 235.4625 C 341.33171002659003 235.4625 341.76100061748 250.4125 342.61958179926 250.4125 C 343.756099126052 250.4125 344.324357789448 123.3375 345.46087511624 123.3375 C 345.77811649292 123.3375 345.93673718126 242.9375 346.25397855794 242.9375 C 346.473942189032 242.9375 346.58392400457797 239.2 346.80388763567 239.2 C 347.171546986014 239.2 347.35537666118597 242.9375 347.72303601153 242.9375 C 348.04340693664597 242.9375 348.203592399204 239.2 348.52396332432 239.2 C 349.093647354776 239.2 349.378489370004 263.49375 349.94817340046 263.49375 C 350.36612174913597 263.49375 350.57509592347395 239.2 350.99304427215 239.2 C 351.17153664471397 239.2 351.26078283099594 242.9375 351.43927520356 242.9375 C 352.211693278444 242.9375 352.597902315886 235.4625 353.37032039077 235.4625 C 353.726459209474 235.4625 353.904528618826 269.1 354.26066743753 269.1 C 354.593294812342 269.1 354.75960849974797 242.9375 355.09223587456 242.9375 C 355.744107537052 242.9375 356.07004336829795 287.7875 356.72191503079 287.7875 C 356.883041254574 287.7875 356.96360436646603 239.2 357.12473059025 239.2 C 357.424969983786 239.2 357.575089680554 239.2 357.87532907409 239.2 C 358.072708745646 239.2 358.171398581424 254.04171639033916 358.36877825298 265.3625 C 358.51025091258396 273.47671639033916 358.58098724238596 287.7875 358.72245990199 287.7875 C 358.88950571405803 287.7875 358.973028620092 287.7875 359.14007443216 287.7875 C 359.32719108154004 287.7875 359.42074940622996 269.1 359.60786605561 269.1 C 359.756961536526 269.1 359.831509276984 276.575 359.9806047579 276.575 C 360.625919542244 276.575 360.948576934416 239.2 361.59389171876 239.2 C 361.769899419536 239.2 361.857903269924 239.2 362.0339109707 239.2 C 362.184051531124 239.2 362.259121811336 239.2 362.40926237176 239.2 C 362.584445009764 239.2 362.672036328766 242.9375 362.84721896677 242.9375 C 363.01313624471004 242.9375 363.09609488368 239.2 363.26201216162 239.2 C 363.584262712492 239.2 363.745387987928 239.9987295969935 364.0676385388 242.9375 C 364.810959400004 249.7162295969935 365.18261983060603 253.26759617100151 365.92594069181 263.49375 C 366.160639754298 266.72259617100156 366.27798928554205 276.575 366.51268834803 276.575 C 366.99246329694597 276.575 367.23235077140396 265.3625 367.71212572032 265.3625 C 367.896296800776 265.3625 367.988382341004 269.1 368.17255342146 269.1 C 368.65424213666 269.1 368.89508649426 246.675 369.37677520946 246.675 C 369.87800368707997 246.675 370.12861792589 257.8875 370.62984640351 257.8875 C 370.78705595001003 257.8875 370.86566072326 246.675 371.02287026976 242.9375 C 371.197537006448 239.2 371.284870374792 239.2 371.45953711148 239.2 C 371.779731643868 239.2 371.93982891006203 242.9375 372.26002344245 242.9375 C 372.927798901086 242.9375 373.261686630404 242.9375 373.92946208904 242.9375 C 374.09004206437197 242.9375 374.17033205203796 239.2 374.33091202737 239.2 C 374.518252486878 239.2 374.611922716632 242.14559615494275 374.79926317614 246.675 C 375.41577283799205 261.5805961549427 375.724027668918 287.7875 376.34053733077 287.7875 C 377.049097443978 287.7875 377.40337750058205 287.7875 378.11193761379 287.7875 C 378.221896668982 287.7875 378.276876196578 239.2 378.38683525177 239.2 C 378.57229987891395 239.2 378.66503219248597 239.32088895764454 378.85049681963 246.675 C 379.155166895074 258.7558889576445 379.307501932796 287.7875 379.61217200824 287.7875 C 379.824531784976 287.7875 379.93071167334404 287.7875 380.14307145008 287.7875 C 380.434845889272 287.7875 380.580733108868 278.63642125567503 380.87250754806 269.1 C 381.03814032159204 263.68642125567504 381.120956708358 250.4125 381.28658948189 250.4125 C 381.448609049502 250.4125 381.529618833308 287.7875 381.69163840092 287.7875 C 381.85615971058394 287.7875 381.938420365416 287.7875 382.10294167508 287.7875 C 382.44411366547604 287.7875 382.614699660674 242.9375 382.95587165107 242.9375 C 383.135388239486 242.9375 383.225146533694 257.8875 383.40466312211 257.8875 C 383.544225808818 257.8875 383.61400715217195 246.675 383.75356983888 246.675 C 383.926408160604 246.675 384.01282732146603 284.05 384.18566564319 284.05 C 384.329913169074 284.05 384.402036932016 250.4125 384.5462844579 250.4125 C 385.048226093224 250.4125 385.299196910886 250.4125 385.80113854621 250.4125 C 388.11430728762195 250.4125 389.270891658328 284.05 391.58406039974 284.05 C 392.729533925148 284.05 393.302270687852 263.5969563553819 394.44774421326 250.4125 C 394.601135710668 248.64695635538192 394.677831459372 246.675 394.83122295678 246.675 C 394.9867046132 246.675 395.06444544141004 246.675 395.21992709783 246.675 C 395.71442040787804 246.675 395.961667062902 246.675 396.45616037295 250.4125 C 396.81344858944203 254.14999999999998 396.992092697688 284.05 397.34938091418 284.05 C 397.81435025394404 284.05 398.046834923826 284.05 398.51180426359 272.8375 C 398.66466089272205 261.62499999999994 398.74108920728804 246.675 398.89394583642 246.675 C 399.062742298916 246.675 399.147140530164 287.7875 399.31593699266 287.7875 C 399.667112157876 287.7875 399.842699740484 246.675 400.1938749057 246.675 C 400.511937551756 246.675 400.670968874784 248.38793368099877 400.98903152084 250.4125 C 401.14070271495603 251.37793368099872 401.216538312014 254.15 401.36820950613 254.15 C 401.538087085362 254.15 401.623025874978 246.675 401.79290345421 246.675 C 403.10772538065805 246.675 403.765136343882 287.7875 405.07995827033 287.7875 C 405.22747001007 287.7875 405.30122587994003 242.9375 405.44873761968 242.9375 C 405.640169252508 242.9375 405.735885068922 242.9375 405.92731670175 242.9375 C 406.246634960574 242.9375 406.406294089986 276.575 406.72561234881 276.575 C 406.88664563449004 276.575 406.96716227733003 261.625 407.12819556301 261.625 C 407.320067229318 261.625 407.416003062472 287.7875 407.60787472878 287.7875 C 407.742985869924 287.7875 407.810541440496 246.675 407.94565258164 246.675 C 408.13641088738 246.675 408.23179004024996 269.1 408.42254834599 269.1 C 408.55955428645797 269.1 408.62805725669193 253.45018860755638 408.76506319716 250.4125 C 409.10005006182394 242.98518860755638 409.26754349415603 242.9375 409.60253035882 242.9375 C 409.772062739376 242.9375 409.85682892965394 287.7875 410.02636131021 287.7875 C 410.18520960207405 287.7875 410.26463374800596 246.675 410.42348203987 246.675 C 410.72628007634194 246.675 410.87767909457796 265.3625 411.18047713105 265.3625 C 411.36750653240995 265.3625 411.4610212330899 246.675 411.64805063445 246.675 C 411.97098968598203 246.675 412.132459211748 261.625 412.45539826328 261.625 C 412.620145279772 261.625 412.702518788018 257.08822752445207 412.86726580451 254.15 C 413.037818607526 251.1082275244521 413.12309500903393 246.675 413.29364781205 246.675 C 413.49248224945393 246.675 413.59189946815593 250.4125 413.79073390556 250.4125 C 413.89538031519197 250.4125 413.94770352000796 250.4125 414.05234992964 250.4125 C 414.239041719112 250.4125 414.332387613848 246.675 414.51907940332 246.675 C 415.175231908732 246.675 415.503308161438 250.4125 416.15946066685 250.4125 C 416.30918016075805 250.4125 416.384039907712 246.675 416.53375940162 246.675 C 416.87906429264405 246.675 417.051716738156 246.675 417.39702162918 246.675 C 417.53256142362795 246.675 417.600331320852 242.9375 417.7358711153 242.9375 C 417.928861832256 242.9375 418.0253571907339 246.17375859195027 418.21834790769 246.675 C 419.7521964973979 250.6587585919503 420.519120792252 254.15 422.05296938196 254.15 C 422.28668026582 254.15 422.40353570775005 250.4125 422.63724659161 250.4125 C 422.83743526997404 250.4125 422.937529609156 257.8875 423.13771828752 257.8875 C 425.569026534068 257.8875 426.78468065734194 256.269761248857 429.21598890389 254.15 C 430.21412897898597 253.279761248857 430.7131990165341 253.01758283816352 431.71133909163 250.4125 C 431.858820484234 250.02758283816357 431.932561180536 246.675 432.08004257314 246.675 C 432.248744200836 246.675 432.33309501468403 254.15 432.50179664238 254.15 C 432.66489922342 254.15 432.74645051394 254.15 432.90955309498 254.15 C 433.567742651924 254.15 433.89683743039603 250.4125 434.55502698734 250.4125 C 434.71396632061203 250.4125 434.793435987248 250.4125 434.95237532052 250.4125 C 435.12172182486404 250.4125 435.206395077036 250.4125 435.37574158138 250.4125 C 435.532059680748 250.4125 435.610218730432 250.4125 435.7665368298 250.4125 C 435.933135021612 250.4125 436.0164341175179 250.4125 436.18303230933 250.4125 C 436.35128442007 250.4125 436.43541047544005 287.7875 436.60366258618 287.7875 C 436.846743148392 287.7875 436.968283429498 250.4125 437.21136399171 250.4125 C 437.45628055567005 250.4125 437.57873883764995 250.4125 437.82365540161 250.4125 C 438.150076787034 250.4125 438.313287479746 250.4125 438.63970886517 250.4125 C 440.12930374328596 250.4125 440.874101182344 287.7875 442.36369606046 287.7875 C 443.01575928925195 287.7875 443.34179090364796 250.4125 443.99385413244 250.4125 C 444.138756018448 250.4125 444.211206961452 250.4125 444.35610884746 250.4125 C 444.52261599786397 250.4125 444.60586957306606 287.7875 444.77237672347 287.7875 C 444.951599324002 287.7875 445.04121062426805 246.675 445.2204332248 246.675 C 445.40013948281995 246.675 445.48999261182996 287.7875 445.66969886985 287.7875 C 445.96694338036593 287.7875 446.11556563562397 250.4125 446.41281014614 250.4125 C 447.88402034971205 250.4125 448.619625451498 287.7875 450.09083565507 287.7875 C 450.414958244918 287.7875 450.57701953984196 246.675 450.90114212969 246.675 C 451.244239266546 246.675 451.4157878349741 246.675 451.75888497183 246.675 C 452.08776068191 246.675 452.25219853695 220.5125 452.58107424703 220.5125 C 453.234702250038 220.5125 453.561516251542 250.4125 454.21514425455 250.4125 C 455.851344251706 250.4125 456.6694442502841 250.4125 458.30564424744 250.4125 C 458.8984414156201 250.4125 459.19483999971 239.2 459.78763716789 239.2 C 460.024189302394 239.2 460.142465369646 250.41250000000002 460.37901750415 254.15 C 461.022226955906 257.8875 461.343831681784 257.8875 461.98704113354 257.8875 C 462.329457356524 257.8875 462.500665468016 257.8875 462.843081691 250.4125 C 464.255173776256 242.9375 464.961219818884 18.6875 466.37331190414 18.6875 C 468.44959848594 18.6875 469.48774177684 287.7875 471.56402835864 287.7875 C 471.674084145332 287.7875 471.72911203867795 254.15 471.83916782537 254.15 C 472.02464383269 254.15 472.11738183635 287.7875 472.30285784367 287.7875 C 472.43490392404203 287.7875 472.500926964228 254.15 472.6329730446 254.15 C 472.95808001968396 254.15 473.120633507226 254.15 473.44574048231 254.15 C 473.62415888373 254.15 473.71336808444005 254.15 473.89178648586 254.15 C 474.053777603032 254.15 474.134773161618 254.15 474.29676427879 254.15 C 474.948214874766 254.15 475.273940172754 252.78958688829476 475.92539076873 250.4125 C 476.09336216845793 249.7995868882948 476.177347868322 246.675 476.34531926805 246.675 C 476.70479058166603 246.675 476.884526238474 261.625 477.24399755209 261.625 C 477.69714478554596 261.625 477.92371840227395 261.625 478.37686563573 261.625 C 478.53217848620596 261.625 478.60983491144395 246.675 478.76514776192 246.675 C 478.92844949604404 246.675 479.010100363106 249.45828806906266 479.17340209723 250.4125 C 479.521802396166 252.4482880690626 479.69600254563403 254.15 480.04440284457 254.15 C 480.62083531947 254.15 480.90905155691996 254.15 481.48548403182 254.15 C 481.72673238567603 254.15 481.847356562604 254.63152525599912 482.08860491646 257.8875 C 482.73352139463594 266.5915252559991 483.055979633724 284.05 483.7008961119 284.05 C 484.1917306953201 284.05 484.43714798703 250.4125 484.92798257045 250.4125 C 485.44207823388604 250.4125 485.699126065604 250.4125 486.21322172904 250.4125 C 487.498441920672 250.4125 488.141052016488 250.4125 489.42627220812 250.4125 C 489.597198660252 250.4125 489.682661886318 287.7875 489.85358833845 287.7875 C 490.00552507000594 287.7875 490.08149343578395 254.15 490.23343016734 254.15 C 490.503254143464 254.15 490.63816613152596 254.15 490.90799010765 254.15 C 494.591838473366 254.15 496.433762656224 242.9375 500.11761102194 242.9375 C 500.41404374656 242.9375 500.56226010887 250.4125 500.85869283349 250.4125 C 501.047825670742 250.4125 501.14239208936795 246.675 501.33152492662 246.675 C 501.83155279566 246.675 502.08156673018004 247.66156077910182 502.58159459922 254.15 C 502.772834665748 256.6315607791018 502.868454699012 268.3203447138463 503.05969476554 269.1 C 506.1688044059039 281.77534471384627 507.723359226086 287.7875 510.83246886645 287.7875 C 510.97985732094605 287.7875 511.053551548194 250.4125 511.20094000269 250.4125 C 511.60741334042996 250.4125 511.81065000930005 257.8875 512.21712334704 257.8875 C 512.5740492945961 257.8875 512.7525122683741 257.8875 513.10943821593 257.8875 C 513.737451339158 257.8875 514.051457900772 213.03750000000002 514.679471024 213.03750000000002 C 516.091386716524 213.03750000000002 516.7973445627861 269.1 518.20926025531 269.1 C 518.340731636786 269.1 518.406467327524 246.675 518.537938709 246.675 C 518.6934810596961 246.675 518.771252235044 272.8375 518.92679458574 272.8375 C 519.136055161176 272.8375 519.2406854488939 254.15 519.44994602433 254.15 C 519.6011487345299 254.15 519.67675008963 280.3125 519.82795279983 280.3125 C 520.45011461583 280.3125 520.76119552383 250.4125 521.38335733983 250.4125 C 521.746565144606 250.4125 521.928169046994 287.7875 522.29137685177 287.7875 C 522.622765684082 287.7875 522.788460100238 287.7875 523.11984893255 284.05 C 523.774926011318 280.3125 524.102464550702 250.4125 524.75754162947 250.4125 C 525.81438634315 250.4125 526.34280869999 276.575 527.39965341367 276.575 C 528.359982853562 276.575 528.8401475735079 276.575 529.8004770134 276.575 C 530.066416556072 276.575 530.1993863274081 287.7875 530.46532587008 287.7875 C 530.614415660908 287.7875 530.6889605563221 287.7875 530.83805034715 287.7875 C 531.021718803162 287.7875 531.113553031168 287.7875 531.29722148718 287.7875 C 532.272274978292 287.7875 532.759801723848 246.675 533.73485521496 246.675 C 534.231780089308 246.675 534.480242526482 246.675 534.97716740083 246.675 C 535.528483827006 246.675 535.8041420400939 246.675 536.35545846627 246.675 C 536.891908589022 246.675 537.1601336503979 257.8875 537.69658377315 257.8875 C 538.4711299409701 257.8875 538.8584030248801 252.28125 539.6329491927 252.28125 C 540.55534850554 252.28125 541.01654816196 254.15 541.9389474748 254.15 C 542.19726229946 254.15 542.32641971179 254.15 542.58473453645 254.15 C 542.977635117458 254.15 543.174085407962 250.4125 543.56698598897 250.4125 C 543.8863554585861 250.4125 544.046040193394 250.4125 544.36540966301 250.4125 C 544.858461484082 250.4125 545.59803921569 269.1 545.59803921569 269.1" class="highcharts-graph" data-z-index="1" stroke="#000000" stroke-width="2" stroke-linejoin="round" stroke-linecap="round"></path></g><g data-z-index="0.1" class="highcharts-markers highcharts-series-0 highcharts-spline-series highcharts-color-0 " transform="translate(39,63) scale(1 1)" clip-path="none"></g></g><text x="300" text-anchor="middle" class="highcharts-title" data-z-index="4" style="color:#333333;font-size:18px;fill:#333333;" y="24"><tspan>Body Fat Over Time</tspan></text><text x="300" text-anchor="middle" class="highcharts-subtitle" data-z-index="4" style="color:#666666;fill:#666666;" y="46"><tspan>This chart shows how your Body Fat changes over time.</tspan></text><g class="highcharts-axis-labels highcharts-xaxis-labels " data-z-index="7"><text x="78.092304285388" style="color:#666666;cursor:default;font-size:11px;fill:#666666;" text-anchor="middle" transform="translate(0,0)" y="381" opacity="1"><tspan>Jul '13</tspan></text><text x="153.47459099332" style="color:#666666;cursor:default;font-size:11px;fill:#666666;" text-anchor="middle" transform="translate(0,0)" y="381" opacity="1"><tspan>Jan '14</tspan></text><text x="227.62781867884" style="color:#666666;cursor:default;font-size:11px;fill:#666666;" text-anchor="middle" transform="translate(0,0)" y="381" opacity="1"><tspan>Jul '14</tspan></text><text x="303.01010538677" style="color:#666666;cursor:default;font-size:11px;fill:#666666;" text-anchor="middle" transform="translate(0,0)" y="381" opacity="1"><tspan>Jan '15</tspan></text><text x="377.16333307229" style="color:#666666;cursor:default;font-size:11px;fill:#666666;" text-anchor="middle" transform="translate(0,0)" y="381" opacity="1"><tspan>Jul '15</tspan></text><text x="452.54561978022" style="color:#666666;cursor:default;font-size:11px;fill:#666666;" text-anchor="middle" transform="translate(0,0)" y="381" opacity="1"><tspan>Jan '16</tspan></text><text x="527.10853380655" style="color:#666666;cursor:default;font-size:11px;fill:#666666;" text-anchor="middle" transform="translate(0,0)" y="381" opacity="1"><tspan>Jul '16</tspan></text></g><g class="highcharts-axis-labels highcharts-yaxis-labels " data-z-index="7"><text x="24" style="color:#666666;cursor:default;font-size:11px;fill:#666666;" text-anchor="end" transform="translate(0,0)" y="366" opacity="1">0</text><text x="24" style="color:#666666;cursor:default;font-size:11px;fill:#666666;" text-anchor="end" transform="translate(0,0)" y="291" opacity="1">20</text><text x="24" style="color:#666666;cursor:default;font-size:11px;fill:#666666;" text-anchor="end" transform="translate(0,0)" y="216" opacity="1">40</text><text x="24" style="color:#666666;cursor:default;font-size:11px;fill:#666666;" text-anchor="end" transform="translate(0,0)" y="141" opacity="1">60</text><text x="24" style="color:#666666;cursor:default;font-size:11px;fill:#666666;" text-anchor="end" transform="translate(0,0)" y="67" opacity="1">80</text></g><a xlink:href="https://quantimo.do" target="_blank">
                    <text x="590" class="highcharts-credits" text-anchor="end" data-z-index="8"
                          style="cursor:pointer;color:#999999;font-size:9px;fill:#999999;" y="395">https://quantimo.do
                    </text>
                </a></svg>