<?xml version="1.0" standalone="no"?><!DOCTYPE svg PUBLIC "-//W3C//DTD SVG 1.1//EN" "http://www.w3.org/Graphics/SVG/1.1/DTD/svg11.dtd"><svg xmlns:xlink="http://www.w3.org/1999/xlink" version="1.1" class="highcharts-root" style="font-family:&quot;Lucida Grande&quot;, &quot;Lucida Sans Unicode&quot;, Arial, Helvetica, sans-serif;font-size:12px;" xmlns="http://www.w3.org/2000/svg" width="600" height="400"><desc>Created with Highstock 6.2.0</desc><defs><clipPath id="highcharts-qcecjn5-821"><rect x="0" y="0" width="537" height="299" fill="none"></rect></clipPath><clipPath id="highcharts-qcecjn5-1636"><rect x="0" y="0" width="537" height="299" fill="none"></rect></clipPath><clipPath id="highcharts-qcecjn5-1637"><rect x="53" y="63" width="537" height="299" fill="none"></rect></clipPath></defs><rect fill="#ffffff" class="highcharts-background" x="0" y="0" width="600" height="400" rx="0" ry="0"></rect><rect fill="none" class="highcharts-plot-background" x="53" y="63" width="537" height="299"></rect><g class="highcharts-pane-group" data-z-index="0"></g><g class="highcharts-grid highcharts-xaxis-grid " data-z-index="1"><path fill="none" data-z-index="1" class="highcharts-grid-line" d="M 170.5 63 L 170.5 362" opacity="1"></path><path fill="none" data-z-index="1" class="highcharts-grid-line" d="M 287.5 63 L 287.5 362" opacity="1"></path><path fill="none" data-z-index="1" class="highcharts-grid-line" d="M 406.5 63 L 406.5 362" opacity="1"></path><path fill="none" data-z-index="1" class="highcharts-grid-line" d="M 523.5 63 L 523.5 362" opacity="1"></path></g><g class="highcharts-grid highcharts-yaxis-grid " data-z-index="1"><path fill="none" stroke="#e6e6e6" stroke-width="1" data-z-index="1" class="highcharts-grid-line" d="M 53 362.5 L 590 362.5" opacity="1"></path><path fill="none" stroke="#e6e6e6" stroke-width="1" data-z-index="1" class="highcharts-grid-line" d="M 53 302.5 L 590 302.5" opacity="1"></path><path fill="none" stroke="#e6e6e6" stroke-width="1" data-z-index="1" class="highcharts-grid-line" d="M 53 242.5 L 590 242.5" opacity="1"></path><path fill="none" stroke="#e6e6e6" stroke-width="1" data-z-index="1" class="highcharts-grid-line" d="M 53 183.5 L 590 183.5" opacity="1"></path><path fill="none" stroke="#e6e6e6" stroke-width="1" data-z-index="1" class="highcharts-grid-line" d="M 53 123.5 L 590 123.5" opacity="1"></path><path fill="none" stroke="#e6e6e6" stroke-width="1" data-z-index="1" class="highcharts-grid-line" d="M 53 62.5 L 590 62.5" opacity="1"></path></g><rect fill="none" class="highcharts-plot-border" data-z-index="1" x="53" y="63" width="537" height="299"></rect><g class="highcharts-axis highcharts-xaxis " data-z-index="2"><path fill="none" class="highcharts-tick" stroke="#ccd6eb" stroke-width="1" d="M 170.5 362 L 170.5 372" opacity="1"></path><path fill="none" class="highcharts-tick" stroke="#ccd6eb" stroke-width="1" d="M 287.5 362 L 287.5 372" opacity="1"></path><path fill="none" class="highcharts-tick" stroke="#ccd6eb" stroke-width="1" d="M 406.5 362 L 406.5 372" opacity="1"></path><path fill="none" class="highcharts-tick" stroke="#ccd6eb" stroke-width="1" d="M 523.5 362 L 523.5 372" opacity="1"></path><path fill="none" class="highcharts-axis-line" stroke="#ccd6eb" stroke-width="1" data-z-index="7" d="M 53 362.5 L 590 362.5"></path></g><g class="highcharts-axis highcharts-yaxis " data-z-index="2"><path fill="none" class="highcharts-axis-line" data-z-index="7" d="M 53 63 L 53 362"></path></g><g class="highcharts-series-group" data-z-index="3"><g data-z-index="0.1" class="highcharts-series highcharts-series-0 highcharts-spline-series highcharts-color-0 " transform="translate(53,63) scale(1 1)" clip-path="url(#highcharts-qcecjn5-1636)"><path fill="none" d="M 5.2647058823529 299 C 5.2647058823529 299 5.65324506186234 299 5.9122711815353 299 C 6.17129730120826 299 6.300810361044741 299 6.5598364807177 299 C 6.8188626003907 299 6.9483756602271995 299 7.2074017799002 299 C 7.466427899573159 299 7.59594095940964 299 7.8549670790826 299 C 8.11399319875556 299 8.24350625859204 299 8.502532378265 299 C 8.76155849793796 299 8.891071557774442 299 9.1500976774474 299 C 9.409123797120362 299 9.538636856956838 299 9.7976629766298 299 C 10.05668909630268 299 10.186202156139121 299 10.445228275812 299 C 10.704254395485199 299 10.8337674553218 299 11.092793574995 299 C 11.3518196946678 299 11.4813327545042 299 11.740358874177 299 C 11.9993849938498 299 12.1288980536862 299 12.387924173359 299 C 12.646950293032202 299 12.7764633528688 299 13.035489472542 299 C 13.294515592214802 299 13.4240286520512 299 13.683054771724 299 C 13.9420808913972 299 14.0715939512338 299 14.330620070907 299 C 14.5896461905798 299 14.719159250416201 299 14.978185370089 299 C 15.2372114897618 299 15.3667245495982 299 15.625750669271 299 C 15.8847767889442 299 16.0142898487808 299 16.273315968454 299 C 16.5323420881268 299 16.6618551479632 299 16.920881267636 299 C 17.179907387309196 299 17.3094204471458 299 17.568446566819 299 C 17.8274726864918 299 17.9569857463282 299 18.216011866001 299 C 18.4750379856738 299 18.6045510455102 299 18.863577165183 299 C 19.1226032848562 299 19.252116344692798 299 19.511142464366 299 C 19.7701685840388 299 19.8996816438752 299 20.158707763548 299 C 20.4177338832212 299 20.547246943057804 299 20.806273062731 299 C 21.0652991824038 299 21.1948122422402 299 21.453838361913 299 C 21.7128644815858 299 21.842377541422202 299 22.101403661095 299 C 22.3604297807682 299 22.489942840604797 299 22.748968960278 299 C 23.007995079950796 299 23.1375081397872 299 23.39653425946 299 C 23.655560379133203 299 23.7850734389698 299 24.044099558643 299 C 24.3031256783158 299 24.4326387381522 239.2 24.691664857825 239.2 C 24.9506909774978 239.2 25.080204037334205 299 25.339230157007 299 C 25.5982562766802 299 25.727769336516804 299 25.98679545619 299 C 26.2458215758628 299 26.375334635699197 299 26.634360755372 299 C 26.893386875045202 299 27.0228999348818 299 27.281926054555 299 C 27.5409521742278 299 27.6704652340642 299 27.929491353737 299 C 28.188517473409796 299 28.3180305332462 299 28.577056652919 299 C 28.836082772592203 299 28.9655958324288 299 29.224621952102 299 C 29.4836480717748 299 29.6131611316112 299 29.872187251284 299 C 30.131213370957198 299 30.260726430793802 299 30.519752550467 299 C 30.778778670139797 299 30.908291729976202 299 31.167317849649 299 C 31.4263439693218 299 31.555857029158197 299 31.814883148831 299 C 32.0739092685042 299 32.2034223283408 299 32.462448448014 299 C 32.7214745676868 299 32.850987627523196 299 33.110013747196 299 C 33.369039866869194 299 33.498552926705806 299 33.757579046379 299 C 34.016605166051804 299 34.1461182258882 299 34.405144345561 299 C 34.6641704652342 299 34.7936835250708 299 35.052709644744 299 C 35.3117357644168 299 35.4412488242532 299 35.700274943926 299 C 35.9593010635988 299 36.0888141234352 299 36.347840243108 299 C 36.606866362781204 299 36.7363794226178 299 36.995405542291 299 C 37.25443166196381 299 37.383944721800205 299 37.642970841473 299 C 37.901996961146196 299 38.0315100209828 299 38.290536140656 299 C 38.5495622603288 299 38.679075320165204 299 38.938101439838 299 C 39.197127559510804 299 39.3266406193472 299 39.58566673902 299 C 39.8446928586932 299 39.9742059185298 299 40.233232038203 299 C 40.4922581578758 299 40.6217712177122 299 40.880797337385 299 C 41.1398234570582 299 41.269336516894796 299 41.528362636568 299 C 41.787388756240794 299 41.9169018160772 299 42.17592793575 299 C 42.43495405542281 299 42.5644671152592 299 42.823493234932 299 C 43.082519354605196 299 43.2120324144418 299 43.471058534115 299 C 43.7300846537878 299 43.859597713624204 299 44.118623833297 299 C 44.3776499529702 299 44.5071630128068 299 44.76618913248 299 C 45.0252152521528 299 45.154728311989196 299 45.413754431662 299 C 45.6727805513348 299 45.8022936111712 299 46.061319730844 299 C 46.3203458505172 299 46.4498589103538 299 46.708885030027 299 C 46.967911149699795 299 47.0974242095362 299 47.356450329209 299 C 47.6154764488822 299 47.7449895087188 299 48.004015628392 299 C 48.2630417480648 299 48.3925548079012 299 48.651580927574 299 C 48.9106070472468 299 49.040120107083204 299 49.299146226756 299 C 49.64523390331921 299 49.818277741600795 298.701 50.164365418164 298.701 C 50.3363299809468 298.701 50.422312262338195 299 50.594276825121 299 C 50.9403645016842 299 51.1134083399658 298.701 51.459496016529 298.701 C 51.631460579311806 298.701 51.7174428607032 299 51.889407423486 299 C 52.148433543158795 299 52.2779466029952 299 52.536972722668 299 C 52.79599884234119 299 52.9255119021778 299 53.184538021851 299 C 53.4435641415238 299 53.573077201360206 299 53.832103321033 299 C 54.09112944070621 299 54.22064250054281 299 54.479668620216 299 C 54.73869473988881 299 54.8682077997252 299 55.127233919398 299 C 55.38626003907079 299 55.5157730989072 299 55.77479921858 299 C 56.0338253382532 299 56.1633383980898 299 56.422364517763 299 C 56.6813906374358 299 56.810903697272195 299 57.069929816945 299 C 57.32895593661819 299 57.458468996454805 299 57.717495116128 299 C 57.9765212358008 299 58.1060342956372 299 58.36506041531 299 C 58.6240865349828 299 58.75359959481921 299 59.012625714492 299 C 59.27165183416521 299 59.40116489400181 299 59.660191013675 299 C 59.91921713334781 299 60.0487301931842 299 60.307756312857 299 C 60.5667824325302 299 60.6962954923668 299 60.95532161204 299 C 61.214347731712806 299 61.3438607915492 299 61.602886911222 299 C 61.8619130308948 299 61.991426090731196 299 62.250452210404 299 C 62.509478330077194 299 62.638991389913805 299 62.898017509587 299 C 63.1570436292598 299 63.2865566890962 299 63.545582808769 299 C 63.8046089284422 299 63.9341219882788 299 64.193148107952 299 C 64.4521742276248 299 64.58168728746121 299 64.840713407134 299 C 65.0997395268068 299 65.2292525866432 299 65.488278706316 299 C 65.74730482598919 299 65.87681788582579 299 66.135844005499 299 C 66.39487012517179 299 66.52438318500819 299 66.783409304681 299 C 67.0424354243542 299 67.1719484841908 299 67.430974603864 299 C 67.69000072353681 299 67.8195137833732 299 68.078539903046 299 C 68.3375660227188 299 68.46707908255522 299 68.726105202228 299 C 68.9851313219012 299 69.1146443817378 299 69.373670501411 299 C 69.6326966210838 299 69.76220968092021 299 70.021235800593 299 C 70.28026192026621 299 70.40977498010281 299 70.668801099776 299 C 70.9278272194488 299 71.0573402792852 299 71.316366398958 299 C 71.57539251863079 299 71.70490557846719 299 71.96393169814 299 C 72.2229578178132 299 72.35247087764981 299 72.611496997323 299 C 72.8705231169958 299 73.0000361768322 299 73.259062296505 299 C 73.51808841617819 299 73.64760147601478 299 73.906627595688 299 C 74.16565371536079 299 74.2951667751972 299 74.55419289487 299 C 74.8132190145432 299 74.94273207437979 299 75.201758194053 299 C 75.4607843137258 299 75.59029737356221 299 75.849323493235 299 C 76.1083496129078 299 76.2378626727442 299 76.496888792417 299 C 76.7559149120902 299 76.8854279719268 299 77.1444540916 299 C 77.40348021127281 299 77.53299327110919 299 77.792019390782 299 C 78.0510455104552 299 78.18055857029181 299 78.439584689965 299 C 78.69861080963781 299 78.82812386947418 299 79.087149989147 299 C 79.34617610881979 299 79.4756891686562 299 79.734715288329 299 C 79.9937414080022 299 80.12325446783879 299 80.382280587512 299 C 80.6413067071848 299 80.77081976702121 299 81.029845886694 299 C 81.2888720063672 299 81.4183850662038 299 81.677411185877 299 C 81.93643730554979 299 82.0659503653862 299 82.324976485059 299 C 82.58400260473181 299 82.71351566456819 299 82.972541784241 299 C 83.2315679039142 299 83.36108096375081 299 83.620107083424 299 C 83.87913320309681 299 84.00864626293318 299 84.267672382606 299 C 84.52669850227919 299 84.6562115621158 299 84.915237681789 299 C 85.1742638014618 299 85.30377686129819 299 85.562802980971 299 C 85.8218291006438 299 85.95134216048021 299 86.210368280153 299 C 86.4693943998262 299 86.5989074596628 299 86.857933579336 299 C 87.11695969900879 299 87.2464727588452 299 87.505498878518 299 C 87.7645249981912 299 87.89403805802779 299 88.153064177701 299 C 88.4120902973738 299 88.5416033572102 299 88.800629476883 299 C 89.05965559655581 299 89.18916865639218 299 89.448194776065 299 C 89.70722089573819 299 89.8367339555748 299 90.095760075248 299 C 90.3547861949208 299 90.48429925475719 299 90.74332537443 299 C 91.0023514941032 299 91.13186455393979 299 91.390890673613 299 C 91.6499167932858 299 91.7794298531222 299 92.038455972795 299 C 92.29748209246779 299 92.4269951523042 299 92.686021271977 299 C 92.9450473916502 299 93.07456045148679 299 93.33358657116 299 C 93.5926126908328 299 93.7221257506692 299 93.981151870342 299 C 94.24017799001521 299 94.36969104985181 299 94.628717169525 299 C 94.8877432891978 299 95.0172563490342 299 95.276282468707 299 C 95.5353085883798 299 95.66482164821619 299 95.923847767889 299 C 96.1828738875622 299 96.31238694739879 299 96.571413067072 299 C 96.8304391867448 299 96.9599522465812 299 97.218978366254 299 C 97.4780044859272 299 97.60751754576381 299 97.866543665437 299 C 98.1255697851098 299 98.2550828449462 299 98.514108964619 299 C 98.7731350842918 299 98.90264814412821 299 99.161674263801 299 C 99.42070038347421 299 99.55021344331081 299 99.809239562984 299 C 100.0682656826584 299 100.19777874249561 299 100.45680486217 299 C 100.715830981842 299 100.845344041678 299 101.10437016135 299 C 101.363396281022 299 101.492909340858 299 101.75193546053 299 C 102.01096158020201 299 102.140474640038 299 102.39950075971 299 C 102.658526879386 299 102.78803993922399 299 103.0470660589 299 C 103.306092178572 299 103.43560523840799 299 103.69463135808 299 C 103.95365747775199 299 104.08317053758802 299 104.34219665726 299 C 104.60122277693202 299 104.730735836768 299 104.98976195644 299 C 105.24878807611599 299 105.378301135954 299 105.63732725563 299 C 105.89635337530198 299 106.025866435138 299 106.28489255481 299 C 106.543918674482 299 106.673431734318 299 106.93245785399 299 C 107.191483973662 299 107.320997033498 299 107.58002315317 299 C 107.839049272846 299 107.968562332684 299 108.22758845236 299 C 108.486614572032 299 108.616127631868 299 108.87515375154 299 C 109.134179871212 299 109.26369293104798 299 109.52271905072 299 C 109.78174517039199 299 109.91125823022801 299 110.1702843499 299 C 110.42931046957202 299 110.558823529408 299 110.81784964908 299 C 111.07687576875601 299 111.206388828594 299 111.46541494827 299 C 111.72444106794201 299 111.853954127778 299 112.11298024745 299 C 112.372006367122 299 112.501519426958 299 112.76054554663 299 C 113.019571666302 299 113.149084726138 299 113.40811084581 299 C 113.667136965486 299 113.79665002532401 299 114.055676145 299 C 114.314702264672 299 114.44421532450801 299 114.70324144418 299 C 114.962267563852 299 115.09178062368798 299 115.35080674336 299 C 115.60983286303198 299 115.73934592286801 299 115.99837204254 299 C 116.257398162216 299 116.38691122205401 299 116.64593734173 299 C 116.904963461402 299 117.034476521238 299 117.29350264091 299 C 117.552528760582 299 117.682041820418 299 117.94106794009 299 C 118.200094059762 299 118.329607119598 299 118.58863323927 299 C 118.847659358946 299 118.977172418784 299 119.23619853846 299 C 119.495224658132 299 119.62473771796799 299 119.88376383764 299 C 120.14278995731202 299 120.272303017148 299 120.53132913682 299 C 120.790355256492 299 120.91986831632798 298.402 121.178894436 298.402 C 121.43792055567599 298.402 121.567433615514 299 121.82645973519 299 C 122.08548585486201 299 122.214998914698 299 122.47402503437 299 C 122.733051154042 299 122.862564213878 299 123.12159033355 299 C 123.380616453222 299 123.51012951305799 299 123.76915563273 299 C 124.028181752406 299 124.15769481224399 299 124.41672093192 299 C 124.675747051592 299 124.805260111428 299 125.0642862311 299 C 125.323312350772 299 125.45282541060801 299 125.71185153028 299 C 125.97087764995199 299 126.100390709788 299 126.35941682946 299 C 126.618442949132 299 126.747956008968 299 127.00698212864 299 C 127.26600824831601 299 127.395521308154 299 127.65454742783 299 C 127.91357354750201 299 128.043086607338 299 128.30211272701 299 C 128.561138846682 299 128.690651906518 299 128.94967802619 299 C 129.20870414586201 299 129.338217205698 299 129.59724332537 299 C 129.856269445046 299 129.98578250488399 299 130.24480862456 299 C 130.503834744232 299 130.633347804068 299 130.89237392374 299 C 131.151400043412 299 131.280913103248 299 131.53993922292 299 C 131.798965342592 299 131.928478402428 299 132.1875045221 299 C 132.446530641776 299 132.576043701614 299 132.83506982129 299 C 133.094095940962 299 133.223609000798 299 133.48263512047 299 C 133.741661240142 299 133.871174299978 299 134.13020041965 299 C 134.389226539322 299 134.518739599158 299 134.77776571883 299 C 135.036791838506 299 135.166304898344 299 135.42533101802 299 C 135.684357137692 299 135.813870197528 299 136.0728963172 299 C 136.331922436872 299 136.461435496708 299 136.72046161638 299 C 136.979487736052 299 137.109000795888 299 137.36802691556 299 C 137.62705303523597 299 137.756566095074 299 138.01559221475 299 C 138.274618334422 299 138.404131394258 299 138.66315751393 299 C 138.922183633602 299 139.051696693438 299 139.31072281311 299 C 139.569748932782 299 139.699261992618 299 139.95828811229 299 C 140.21731423196601 299 140.346827291804 299 140.60585341148 299 C 140.864879531152 299 140.99439259098799 299 141.25341871066 299 C 141.512444830332 299 141.641957890168 299 141.90098400984 299 C 142.160010129512 299 142.289523189348 299 142.54854930902 299 C 142.807575428692 299 142.937088488528 299 143.1961146082 299 C 143.455140727876 299 143.584653787714 299 143.84367990739 299 C 144.102706027062 299 144.232219086898 299 144.49124520657 299 C 144.750271326242 299 144.879784386078 299 145.13881050575 299 C 145.397836625422 299 145.527349685258 299 145.78637580493 299 C 146.04540192460598 299 146.174914984444 299 146.43394110412 299 C 146.692967223792 299 146.822480283628 299 147.0815064033 299 C 147.340532522972 299 147.470045582808 299 147.72907170248 299 C 147.98809782215199 299 148.117610881988 299 148.37663700166 299 C 148.635663121336 299 148.765176181174 299 149.02420230085 299 C 149.283228420522 299 149.412741480358 299 149.67176760003 299 C 149.930793719702 299 150.060306779538 299 150.31933289921 299 C 150.578359018882 299 150.707872078718 299 150.96689819839 299 C 151.225924318066 299 151.355437377904 299 151.61446349758 299 C 151.873489617252 299 152.003002677088 299 152.26202879676 299 C 152.521054916432 299 152.650567976268 299 152.90959409594 299 C 153.168620215612 299 153.298133275448 299 153.55715939512 299 C 153.81618551479602 299 153.94569857463398 299 154.20472469431 299 C 154.463750813982 299 154.593263873818 299 154.85228999349 299 C 155.111316113162 299 155.240829172998 299 155.49985529267 299 C 155.758881412342 299 155.888394472178 299 156.14742059185 299 C 156.406446711526 299 156.535959771364 299 156.79498589104 299 C 157.054012010712 299 157.183525070548 299 157.44255119022 299 C 157.701577309892 299 157.831090369728 299 158.0901164894 299 C 158.349142609072 299 158.478655668908 299 158.73768178858 299 C 158.996707908252 299 159.126220968088 299 159.38524708776 299 C 159.64427320743602 299 159.773786267274 299 160.03281238695 299 C 160.291838506622 299 160.421351566458 299 160.68037768613 299 C 160.939403805802 299 161.068916865638 299 161.32794298531 299 C 161.586969104982 299 161.716482164818 299 161.97550828449 299 C 162.234534404166 299 162.364047464004 299 162.62307358368 299 C 162.882099703352 299 163.011612763188 299 163.27063888286 299 C 163.529665002532 299 163.659178062368 299 163.91820418204 299 C 164.177230301712 299 164.306743361548 299 164.56576948122 299 C 164.824795600896 299 164.954308660734 299 165.21333478041 299 C 165.472360900082 299 165.601873959918 299 165.86090007959 299 C 166.119926199262 299 166.249439259098 299 166.50846537877 299 C 166.767491498442 299 166.897004558278 299 167.15603067795 299 C 167.415056797626 299 167.544569857464 299 167.80359597714 299 C 168.062622096812 299 168.192135156648 299 168.45116127632 299 C 168.710187395992 299 168.839700455828 299 169.0987265755 299 C 169.357752695172 299 169.487265755008 299 169.74629187468 299 C 170.005317994356 299 170.134831054194 299 170.39385717387 299 C 170.652883293542 299 170.782396353378 299 171.04142247305 299 C 171.300448592722 299 171.429961652558 299 171.68898777223 299 C 171.948013891902 299 172.077526951738 299 172.33655307141 299 C 172.59557919108602 299 172.72509225092398 299 172.9841183706 299 C 173.243144490272 299 173.372657550108 299 173.63168366978 299 C 173.89070978945202 299 174.020222849288 299 174.27924896896 299 C 174.538275088632 299 174.667788148468 299 174.92681426814 299 C 175.185840387816 299 175.315353447654 299 175.57437956733 299 C 175.833405687002 299 175.96291874683797 299 176.22194486651 299 C 176.480970986182 299 176.610484046018 299 176.86951016569 299 C 177.128536285362 299 177.258049345198 299 177.51707546487 299 C 177.776101584542 299 177.905614644378 299 178.16464076405 299 C 178.423666883726 299 178.553179943564 299 178.81220606324 299 C 179.07123218291204 299 179.200745242748 299 179.45977136242 299 C 179.718797482092 299 179.84831054192802 299 180.1073366616 299 C 180.366362781272 299 180.495875841108 299 180.75490196078 299 C 181.01392808045597 299 181.143441140294 299 181.40246725997 299 C 181.661493379642 299 181.791006439478 299 182.05003255915 299 C 182.30905867882203 299 182.438571738658 299 182.69759785833 299 C 182.956623978002 299 183.086137037838 299 183.34516315751 299 C 183.604189277186 299 183.733702337024 299 183.9927284567 299 C 184.251754576372 299 184.38126763620798 299 184.64029375588 299 C 184.899319875552 299 185.028832935388 299 185.28785905506 299 C 185.546885174732 299 185.676398234568 299 185.93542435424 299 C 186.194450473916 299 186.323963533754 299 186.58298965343 299 C 186.842015773102 299 186.971528832938 299 187.23055495261 299 C 187.489581072282 299 187.61909413211797 299 187.87812025179 299 C 188.137146371462 299 188.266659431298 299 188.52568555097 299 C 188.784711670646 299 188.91422473048402 299 189.17325085016 299 C 189.432276969832 299 189.561790029668 299 189.82081614934 299 C 190.079842269012 299 190.209355328848 299 190.46838144852 299 C 190.72740756819204 299 190.856920628028 299 191.1159467477 299 C 191.37497286737602 299 191.504485927214 299 191.76351204689 299 C 192.02253816656201 299 192.152051226398 299 192.41107734607 299 C 192.670103465742 299 192.799616525578 299 193.05864264525 299 C 193.317668764922 299 193.447181824758 299 193.70620794443 299 C 193.96523406410202 299 194.094747123938 299 194.35377324361 299 C 194.612799363286 299 194.742312423124 299 195.0013385428 299 C 195.260364662472 299 195.389877722308 299 195.64890384198 299 C 195.907929961652 299 196.03744302148797 299 196.29646914116 299 C 196.555495260832 299 196.685008320668 299 196.94403444034 299 C 197.203060560016 299 197.33257361985403 299 197.59159973953 299 C 197.850625859202 299 197.980138919038 299 198.23916503871 299 C 198.49819115838199 299 198.627704218218 299 198.88673033789 299 C 199.145756457562 299 199.27526951739796 299 199.53429563707 299 C 199.793321756746 299 199.922834816584 299 200.18186093626 299 C 200.440887055932 299 200.570400115768 299 200.82942623544 299 C 201.088452355112 299 201.217965414948 299 201.47699153462 299 C 201.736017654292 299 201.865530714128 299 202.1245568338 299 C 202.38358295347604 299 202.513096013314 299 202.77212213299 299 C 203.031148252662 299 203.160661312498 299 203.41968743217 299 C 203.678713551842 299 203.808226611678 299 204.06725273135 299 C 204.326278851022 299 204.45579191085798 299 204.71481803053 299 C 204.97384415020596 299 205.10335721004404 299 205.36238332972 299 C 205.62140944939202 299 205.750922509228 299 206.0099486289 299 C 206.26897474857196 299 206.398487808408 299 206.65751392808 299 C 206.916540047752 299 207.04605310758797 299 207.30507922726 299 C 207.564105346936 299 207.69361840677396 299 207.95264452645 299 C 208.211670646122 299 208.34118370595797 299 208.60020982563 299 C 208.859235945302 299 208.988749005138 299 209.24777512481 299 C 209.506801244482 299 209.636314304318 299 209.89534042399 299 C 210.15436654366204 299 210.283879603498 299 210.54290572317 299 C 210.801931842846 299 210.93144490268395 299 211.19047102236 299 C 211.449497142032 299 211.57901020186802 299 211.83803632154 299 C 212.097062441212 299 212.226575501048 299 212.48560162072 299 C 212.744627740392 299 212.874140800228 299 213.1331669199 299 C 213.39219303957597 299 213.521706099414 299 213.78073221909 299 C 214.03975833876203 299 214.169271398598 299 214.42829751827 299 C 214.68732363794197 299 214.816836697778 299 215.07586281745 299 C 215.334888937122 299 215.46440199695797 299 215.72342811663 299 C 215.982454236306 299 216.11196729614397 299 216.37099341582 299 C 216.630019535492 299 216.75953259532798 299 217.018558715 299 C 217.277584834672 299 217.407097894508 299 217.66612401418 299 C 217.92515013385201 299 218.054663193688 299 218.31368931336 299 C 218.572715433036 299 218.702228492874 299 218.96125461255 299 C 219.220280732222 299 219.34979379205797 299 219.60881991173 299 C 219.867846031402 299 219.99735909123802 299 220.25638521091 299 C 220.515411330582 299 220.644924390418 299 220.90395051009 299 C 221.16297662976598 299 221.292489689604 299 221.55151580928 299 C 221.81054192895198 299 221.940054988788 299 222.19908110846 299 C 222.45810722813204 299 222.587620287968 299 222.84664640764 299 C 223.10567252731198 299 223.235185587148 299 223.49421170682 299 C 223.75323782649602 299 223.882750886334 299 224.14177700601 299 C 224.400803125682 299 224.530316185518 299 224.78934230519 299 C 225.04836842486202 299 225.177881484698 299 225.43690760437 299 C 225.69593372404202 299 225.825446783878 299 226.08447290355 299 C 226.34349902322202 299 226.473012083058 299 226.73203820273 299 C 226.991064322406 299 227.12057738224402 299 227.37960350192 299 C 227.638629621592 299 227.76814268142797 299 228.0271688011 299 C 228.286194920772 299 228.41570798060803 299 228.67473410028 299 C 228.933760219952 299 229.063273279788 299 229.32229939946 299 C 229.581325519136 299 229.710838578974 299 229.96986469865 299 C 230.228890818322 299 230.35840387815801 299 230.61742999783 299 C 230.876456117502 299 231.00596917733796 299 231.26499529701 299 C 231.524021416682 299 231.65353447651796 299 231.91256059619 299 C 232.171586715866 299 232.30109977570402 299 232.56012589538 299 C 232.819152015052 299 232.948665074888 299 233.20769119456 299 C 233.46671731423203 299 233.596230374068 299 233.85525649374 299 C 234.11428261341203 299 234.243795673248 299 234.50282179292 299 C 234.761847912596 299 234.891360972434 299 235.15038709211 299 C 235.409413211782 299 235.53892627161804 299 235.79795239129 299 C 236.056978510962 299 236.18649157079798 299 236.44551769047 299 C 236.70454381014196 299 236.83405686997804 299 237.09308298965 299 C 237.35210910932602 299 237.48162216916398 299 237.74064828884 299 C 237.99967440851196 299 238.129187468348 299 238.38821358802 299 C 238.647239707692 299 238.77675276752797 299 239.0357788872 299 C 239.294805006872 299 239.42431806670797 299 239.68334418638 299 C 239.942370306056 299 240.07188336589397 299 240.33090948557 299 C 240.589935605242 299 240.719448665078 299 240.97847478475 299 C 241.237500904422 299 241.367013964258 299 241.62604008393 299 C 241.88506620360204 299 242.014579263438 299 242.27360538311 299 C 242.532631502786 299 242.66214456262395 299 242.9211706823 299 C 243.180196801972 299 243.30970986180802 299 243.56873598148 299 C 243.827762101152 299 243.957275160988 299 244.21630128066 299 C 244.475327400332 299 244.604840460168 299 244.86386657984 299 C 245.12289269951197 299 245.252405759348 299 245.51143187902 299 C 245.77045799869603 299 245.899971058534 299 246.15899717821 299 C 246.41802329788197 299 246.547536357718 299 246.80656247739 299 C 247.065588597062 299 247.19510165689798 299 247.45412777657 299 C 247.713153896242 299 247.84266695607798 299 248.10169307575 299 C 248.50750066323798 299 248.710404456982 298.701 249.11621204447 298.701 C 249.22845669632997 298.701 249.28457902226 299 249.39682367412 299 C 249.65584979379202 299 249.785362853628 299 250.0443889733 299 C 250.303415092972 299 250.43292815280802 299 250.69195427248 299 C 250.950980392156 299 251.08049345199396 299 251.33951957167 299 C 251.598545691342 299 251.72805875117803 299 251.98708487085 299 C 252.246110990522 299 252.375624050358 299 252.63465017003 299 C 253.13669315614598 299 253.387714649204 298.701 253.88975763532 298.701 C 253.905766888552 298.701 253.91377151516798 299 253.9297807684 299 C 254.18880688807204 299 254.318319947908 299 254.57734606758 299 C 254.83637218725198 299 254.965885247088 299 255.22491136676 299 C 255.483937486432 299 255.61345054626798 299 255.87247666594 299 C 256.131502785616 299 256.261015845454 299 256.52004196513 299 C 256.779068084802 299 256.908581144638 299 257.16760726431 299 C 257.426633383982 299 257.556146443818 299 257.81517256349 299 C 258.074198683162 299 258.203711742998 299 258.46273786267 299 C 258.721763982346 299 258.851277042184 299 259.11030316186 299 C 259.52060773059196 299 259.725760014958 298.701 260.13606458369 298.701 C 260.341666566178 298.701 260.444467557422 298.701 260.65006953991 298.701 C 260.909095659582 298.701 261.038608719418 298.701 261.29763483909 298.701 C 261.55684083801395 298.701 261.68644383747596 298.701 261.9456498364 298.701 C 262.20791378256797 298.701 262.339045755652 298.701 262.60130970182 298.701 C 262.856918115748 298.701 262.98472232271195 298.701 263.24033073664 298.701 C 263.499356856312 298.701 263.628869916148 298.701 263.88789603582 298.701 C 264.14692215549604 298.701 264.276435215334 298.701 264.53546133501 298.701 C 264.794487454682 298.701 264.924000514518 298.701 265.18302663419 298.701 C 265.442052753862 298.701 265.571565813698 298.701 265.83059193337 298.701 C 266.089618053042 298.701 266.219131112878 298.701 266.47815723255 298.701 C 266.737183352226 298.701 266.866696412064 298.701 267.12572253174 298.701 C 267.286894339536 298.701 267.367480243434 299 267.52865205123 299 C 267.885532482778 299 268.063972698552 298.701 268.4208531301 298.701 C 268.582024937896 298.701 268.662610841794 299 268.82378264959 299 C 269.082808769262 299 269.21232182909796 299 269.47134794877 299 C 269.828228380322 299 270.006668596098 299 270.36354902765 299 C 270.622575147322 299 270.75208820715795 298.701 271.01111432683 298.701 C 271.270140446502 298.701 271.39965350633804 298.701 271.65867962601 298.701 C 271.917705745682 298.701 272.047218805518 298.701 272.30624492519 298.701 C 272.46741673299005 298.701 272.54800263689003 299 272.70917444469 299 C 273.066054876238 299 273.244495092012 298.701 273.60137552356 298.701 C 273.762547331356 298.701 273.843133235254 299 274.00430504305 299 C 274.263331162722 299 274.392844222558 299 274.65187034223 299 C 275.00875077378197 299 275.18719098955796 298.701 275.54407142111 298.701 C 275.803097540782 298.701 275.932610600618 298.701 276.19163672029 298.701 C 276.450662839962 298.701 276.580175899798 298.701 276.83920201947 298.701 C 277.09822813914195 298.701 277.227741198978 298.701 277.48676731865 298.701 C 277.740936698582 298.701 277.868021388548 298.701 278.12219076848 298.701 C 278.386073627896 298.701 278.518015057604 298.701 278.78189791702 298.701 C 279.040924036692 298.701 279.17043709652796 299 279.4294632162 299 C 279.590635023996 299 279.671220927894 299 279.83239273569 299 C 280.091418855362 299 280.220931915198 298.402 280.47995803487 298.402 C 280.738984154546 298.402 280.86849721438404 299 281.12752333406 299 C 281.484403765608 299 281.662843981382 284.05 282.01972441293 284.05 C 282.180896220726 284.05 282.261482124624 299 282.42265393242 299 C 282.681680052092 299 282.811193111928 299 283.0702192316 299 C 283.427099663152 299 283.60553987892797 284.05 283.96242031048 284.05 C 284.123592118276 284.05 284.204178022174 299 284.36534982997 299 C 284.722230261518 299 284.900670477292 284.05 285.25755090884 284.05 C 285.51657702851196 284.05 285.646090088348 284.05 285.90511620802 284.05 C 286.22350248012 284.05 286.38269561617 284.05 286.70108188827 284.05 C 286.80289354364197 284.05 286.853799371328 299 286.9556110267 299 C 287.312491458248 299 287.49093167402197 284.05 287.84781210557 284.05 C 288.106838225242 284.05 288.236351285078 299 288.49537740475 299 C 288.79055925363 299 288.93815017807003 284.05 289.23333202695 284.05 C 289.456202417418 284.05 289.567637612652 284.05 289.79050800312 284.05 C 289.951679810916 284.05 290.032265714814 299 290.19343752261 299 C 290.550317954158 299 290.728758169932 284.05 291.08563860148 284.05 C 291.344664721156 284.05 291.47417778099395 284.05 291.73320390067 284.05 C 291.894375708466 284.05 291.974961612364 299 292.13613342016 299 C 292.395159539832 299 292.52467259966795 299 292.78369871934 299 C 293.140579150888 299 293.319019366662 284.05 293.67589979821 284.05 C 293.934925917886 284.05 294.064438977724 284.05 294.3234650974 284.05 C 294.582491217072 284.05 294.71200427690803 284.05 294.97103039658 284.05 C 295.132202204376 284.05 295.21278810827397 299 295.37395991607 299 C 295.730840347618 299 295.909280563392 284.05 296.26616099494 284.05 C 296.52518711461596 284.05 296.654700174454 284.05 296.91372629413 284.05 C 297.074898101926 284.05 297.155484005824 299 297.31665581362 299 C 297.575681933292 299 297.705194993128 299 297.9642211128 299 C 298.223247232472 299 298.352760292308 299 298.61178641198 299 C 298.87081253165195 299 299.000325591488 299 299.25935171116 299 C 299.518377830836 299 299.647890890674 299 299.90691701035 299 C 300.16594313002196 299 300.29545618985804 299 300.55448230953 299 C 300.813508429202 299 300.94302148903796 299 301.20204760871 299 C 301.461073728382 299 301.59058678821805 299 301.84961290789 299 C 302.108639027566 299 302.23815208740405 299 302.49717820708 299 C 302.756204326752 299 302.885717386588 215.28 303.14474350626 179.4 C 303.403769625932 143.52 303.533282685768 119.6 303.79230880544 119.6 C 304.051334925112 119.6 304.180847984948 119.6 304.43987410462 119.6 C 304.698900224296 119.6 304.82841328413394 179.4 305.08743940381 179.4 C 305.346465523482 179.4 305.475978583318 179.4 305.73500470299 179.4 C 305.994030822662 179.4 306.123543882498 179.4 306.38257000217 179.4 C 306.641596121842 179.4 306.771109181678 59.80000000000001 307.03013530135 59.80000000000001 C 307.289161421026 59.80000000000001 307.418674480864 119.6 307.67770060054 119.6 C 307.93672672021205 119.6 308.066239780048 119.6 308.32526589972 119.6 C 308.58429201939197 119.6 308.71380507922805 239.2 308.9728311989 239.2 C 309.231857318572 239.2 309.36137037840797 239.2 309.62039649808 239.2 C 309.879422617756 239.2 310.008935677594 239.2 310.26796179727 239.2 C 310.526987916942 239.2 310.656500976778 299 310.91552709645 299 C 311.261614773014 299 311.43465861129596 239.2 311.78074628786 239.2 C 311.95271085063996 239.2 312.03869313203 299 312.21065769481 299 C 312.469683814482 299 312.599196874318 299 312.85822299399 299 C 313.117249113666 299 313.24676217350395 299 313.50578829318 299 C 313.764814412852 299 313.894327472688 299 314.15335359236 299 C 314.412379712032 299 314.541892771868 299 314.80091889154 299 C 315.059945011212 299 315.189458071048 299 315.44848419072 299 C 315.707510310396 299 315.837023370234 299 316.09604948991 299 C 316.355075609582 299 316.48458866941803 299 316.74361478909 299 C 317.002640908762 299 317.132153968598 299 317.39118008827 299 C 317.650206207942 299 317.779719267778 299 318.03874538745 299 C 318.29777150712596 299 318.427284566964 299 318.68631068664 299 C 318.945336806312 299 319.074849866148 299 319.33387598582 299 C 319.592902105492 299 319.722415165328 299 319.981441285 299 C 320.240467404672 299 320.369980464508 299 320.62900658418 299 C 320.888032703856 299 321.01754576369405 299 321.27657188337 299 C 321.535598003042 299 321.665111062878 299 321.92413718255 299 C 322.18316330222194 299 322.31267636205797 299 322.57170248173 299 C 322.83072860140203 299 322.960241661238 299 323.21926778091 299 C 323.478293900586 299 323.607806960424 299 323.8668330801 299 C 324.125859199772 299 324.25537225960795 299 324.51439837928 299 C 324.773424498952 299 324.90293755878804 299 325.16196367846 299 C 325.420989798132 299 325.550502857968 299 325.80952897764 299 C 326.06855509731605 299 326.198068157154 299 326.45709427683 299 C 326.716120396502 299 326.845633456338 299 327.10465957601 299 C 327.363685695682 299 327.493198755518 299 327.75222487519 299 C 328.011250994862 299 328.140764054698 299 328.39979017437 299 C 328.658816294042 299 328.788329353878 299 329.04735547355 299 C 329.306381593226 299 329.43589465306394 299 329.69492077274 299 C 329.953946892412 299 330.083459952248 299 330.34248607192 299 C 330.60151219159195 299 330.731025251428 299 330.9900513711 299 C 331.24907749077204 299 331.378590550608 299 331.63761667028 299 C 331.896642789956 299 332.026155849794 299 332.28518196947 299 C 332.544208089142 299 332.67372114897796 299 332.93274726865 299 C 333.191773388322 299 333.32128644815805 299 333.58031256783 299 C 333.839338687502 299 333.968851747338 299 334.22787786701 299 C 334.48690398668606 299 334.616417046524 299 334.8754431662 299 C 335.134469285872 299 335.263982345708 299 335.52300846538 299 C 335.782034585052 299 335.911547644888 299 336.17057376456 299 C 336.429599884232 299 336.559112944068 299 336.81813906374 299 C 337.077165183416 299 337.20667824325403 299 337.46570436293 299 C 337.724730482602 299 337.854243542438 299 338.11326966211 299 C 338.372295781782 299 338.501808841618 299 338.76083496129 299 C 339.01986108096196 299 339.149374140798 299 339.40840026047 299 C 339.667426380146 299 339.796939439984 299 340.05596555966 299 C 340.31499167933197 299 340.44450473916805 299 340.70353085884 299 C 340.962556978512 299 341.09207003834797 299 341.35109615802 299 C 341.610122277692 299 341.73963533752806 299 341.9986614572 299 C 342.25768757687604 299 342.387200636714 299 342.64622675639 299 C 342.905252876062 299 343.034765935898 299 343.29379205557 299 C 343.552818175242 299 343.682331235078 299 343.94135735475 299 C 344.200383474422 299 344.329896534258 299 344.58892265393 299 C 344.847948773602 299 344.977461833438 299 345.23648795311 299 C 345.49551407278597 299 345.62502713262404 299 345.8840532523 299 C 346.143079371972 299 346.272592431808 299 346.53161855148 299 C 346.790644671152 299 346.920157730988 299 347.17918385066 299 C 347.43820997033197 299 347.567723030168 299 347.82674914984 299 C 348.085775269516 299 348.215288329354 299 348.47431444903 299 C 348.733340568702 299 348.862853628538 299 349.12187974821 299 C 349.380905867882 299 349.510418927718 299 349.76944504739 299 C 350.028471167062 299 350.15798422689807 299 350.41701034657 299 C 350.67603646624605 299 350.805549526084 299 351.06457564576 299 C 351.323601765432 299 351.453114825268 299 351.71214094494 299 C 351.971167064612 299 352.100680124448 299 352.35970624412 299 C 352.618732363792 299 352.748245423628 299 353.0072715433 299 C 353.266297662976 299 353.39581072281396 299 353.65483684249 299 C 353.91386296216194 299 354.043376021998 299 354.30240214167 299 C 354.56142826134203 299 354.690941321178 299 354.94996744085 299 C 355.20899356052195 299 355.33850662035803 299 355.59753274003 299 C 355.856558859706 299 355.986071919544 299 356.24509803922 299 C 356.504124158892 299 356.63363721872804 299 356.8926633384 299 C 357.151689458072 299 357.281202517908 299 357.54022863758 299 C 357.799254757252 299 357.928767817088 299 358.18779393676 299 C 358.44682005643597 299 358.57633311627404 299 358.83535923595 299 C 359.094385355622 299 359.223898415458 299 359.48292453513 299 C 359.741950654802 299 359.871463714638 299 360.13048983431 299 C 360.389515953982 299 360.519029013818 299 360.77805513349 299 C 361.037081253162 299 361.166594312998 299 361.42562043267 299 C 361.68464655234595 299 361.81415961218397 299 362.07318573186 299 C 362.33221185153195 299 362.461724911368 299 362.72075103104 299 C 362.97977715071204 299 363.109290210548 299 363.36831633022 299 C 363.62734244989196 299 363.75685550972804 299 364.0158816294 299 C 364.274907749076 299 364.404420808914 299 364.66344692859 299 C 364.922473048262 299 365.05198610809805 299 365.31101222777 299 C 365.570038347442 299 365.699551407278 299 365.95857752695 299 C 366.217603646622 299 366.347116706458 299 366.60614282613 299 C 366.865168945806 299 366.994682005644 299 367.25370812532 299 C 367.512734244992 299 367.642247304828 299 367.9012734245 299 C 368.160299544172 299 368.289812604008 299 368.54883872368 299 C 368.8078648433519 299 368.937377903188 299 369.19640402286 299 C 369.455430142536 299 369.58494320237395 299 369.84396932205 299 C 370.102995441722 299 370.232508501558 299 370.49153462123 299 C 370.75056074090196 299 370.880073800738 299 371.13909992041 299 C 371.39812604008205 299 371.527639099918 299 371.78666521959 299 C 372.045691339266 299 372.175204399104 299 372.43423051878 299 C 372.693256638452 299 372.82276969828797 299 373.08179581796 299 C 373.34082193763203 299 373.47033499746806 299 373.72936111714 299 C 373.988387236812 299 374.117900296648 299 374.37692641632 299 C 374.63595253599595 299 374.765465595834 299 375.02449171551 299 C 375.283517835182 299 375.413030895018 299 375.67205701469 299 C 375.931083134362 299 376.060596194198 299 376.31962231387 299 C 376.578648433542 299 376.708161493378 299 376.96718761305 299 C 377.22621373272193 299 377.355726792558 299 377.61475291223 299 C 377.873779031906 299 378.00329209174396 299 378.26231821142 299 C 378.521344331092 299 378.650857390928 299 378.9098835106 299 C 379.16890963027197 299 379.298422690108 299 379.55744880978 299 C 379.816474929452 299 379.945987989288 299 380.20501410896 299 C 380.464040228636 299 380.593553288474 299 380.85257940815 299 C 381.111605527822 299 381.241118587658 299 381.50014470733 299 C 381.759170827002 299 381.88868388683807 299 382.14771000651 299 C 382.406736126182 299 382.536249186018 299 382.79527530569 299 C 383.05430142536596 299 383.183814485204 299 383.44284060488 299 C 383.701866724552 299 383.831379784388 299 384.09040590406 299 C 384.349432023732 299 384.478945083568 299 384.73797120324 299 C 384.996997322912 299 385.126510382748 299 385.38553650242 299 C 385.644562622096 299 385.774075681934 299 386.03310180161 299 C 386.29212792128203 299 386.421640981118 299 386.68066710079 299 C 386.93969322046195 299 387.06920628029803 299 387.32823239997 299 C 387.587258519642 299 387.71677157947795 299 387.97579769915 299 C 388.234823818826 299 388.364336878664 299 388.62336299834 299 C 388.882389118012 299 389.011902177848 299 389.27092829752 299 C 389.606223219096 299 389.773870679884 284.05 390.10916560146 284.05 C 390.368191721132 284.05 390.497704780968 284.05 390.75673090064 284.05 C 390.939488218412 284.05 391.030866877298 299 391.21362419507 299 C 391.548919116646 299 391.716566577434 284.05 392.05186149901 284.05 C 392.31088761868193 284.05 392.440400678518 284.05 392.69942679819 284.05 C 392.958452917862 284.05 393.087965977698 284.05 393.34699209737 284.05 C 393.606018217042 284.05 393.735531276878 284.05 393.99455739655 284.05 C 394.253583516226 284.05 394.383096576064 284.05 394.64212269574 284.05 C 394.901148815412 284.05 395.03066187524803 284.05 395.28968799492 284.05 C 395.561665420576 284.05 395.697654133404 284.05 395.96963155906 284.05 C 396.215706372748 284.05 396.338743779592 284.05 396.58481859328 284.05 C 396.874064426916 284.05 397.01868734373403 284.05 397.30793317737 284.05 C 397.536739583082 284.05 397.651142785938 284.05 397.87994919165 284.05 C 398.138975311322 284.05 398.268488371158 284.05 398.52751449083 284.05 C 398.786540610502 284.05 398.916053670338 284.05 399.17507979001 284.05 C 399.434105909686 284.05 399.56361896952404 284.05 399.8226450892 284.05 C 400.103076839596 284.05 400.243292714794 284.05 400.52372446519 284.05 C 400.761344954138 284.05 400.880155198612 284.05 401.11777568756 284.05 C 401.376801807232 284.05 401.506314867068 284.05 401.76534098674 284.05 C 402.024367106416 284.05 402.153880166254 284.05 402.41290628593 284.05 C 402.671932405602 284.05 402.80144546543795 299 403.06047158511 299 C 403.319497704782 299 403.44901076461804 284.05 403.70803688429 284.05 C 403.967063003962 284.05 404.096576063798 284.05 404.35560218347 284.05 C 404.61462830314605 284.05 404.744141362984 284.05 405.00316748266 284.05 C 405.273525995068 284.05 405.408705251272 284.05 405.67906376368 284.05 C 405.93017519636 284.05 406.05573091269997 284.05 406.30684234538 284.05 C 406.486181957404 284.05 406.575851763416 299 406.75519137544 299 C 407.090486297016 299 407.258133757804 299 407.59342867938 299 C 407.852454799056 299 407.98196785889394 284.05 408.24099397857 284.05 C 408.501099373742 284.05 408.63115207132796 284.05 408.8912574665 284.05 C 409.14920431067196 284.05 409.278177732758 284.05 409.53612457693 284.05 C 409.718881894702 284.05 409.81026055358797 299 409.99301787136 299 C 410.32831279293595 299 410.49596025372404 284.05 410.8312551753 284.05 C 411.090281294972 284.05 411.21979435480796 299 411.47882047448 299 C 411.73784659415196 299 411.86735965398805 284.05 412.12638577366 284.05 C 412.408976075052 284.05 412.5502712257479 284.05 412.83286152714 284.05 C 413.068323465096 284.05 413.186054434074 284.05 413.42151637203 284.05 C 413.680542491702 284.05 413.81005555153797 299 414.06908167121 299 C 414.25183898897797 299 414.343217647862 299 414.52597496563 299 C 414.785001085302 299 414.91451414513796 299 415.17354026481 299 C 415.50883518639 299 415.67648264718 284.05 416.01177756876 284.05 C 416.28285559816806 284.05 416.418394612872 284.05 416.68947264228 284.05 C 416.8601780503121 284.05 416.94553075432793 299 417.11623616236 299 C 417.45153108393595 299 417.6191785447239 284.05 417.9544734663 284.05 C 418.137230784072 284.05 418.228609442958 299 418.41136676073 299 C 418.67039288040195 299 418.79990594023803 299 419.05893205991 299 C 419.317958179582 299 419.44747123941795 299 419.70649735909 299 C 419.96552347876207 299 420.09503653859804 299 420.35406265827 299 C 420.613088777946 299 420.74260183778404 299 421.00162795746 299 C 421.260654077132 299 421.390167136968 299 421.64919325664 299 C 421.908219376312 299 422.0377324361481 299 422.29675855582 299 C 422.555784675492 299 422.685297735328 299 422.944323855 299 C 423.203349974676 299 423.33286303451405 299 423.59188915419 299 C 423.85091527386203 299 423.980428333698 299 424.23945445337 299 C 424.498480573042 299 424.627993632878 299 424.88701975255 299 C 425.14604587222203 299 425.275558932058 299 425.53458505173 299 C 425.793611171406 299 425.92312423124406 299 426.18215035092 299 C 426.44117647059204 299 426.570689530428 299 426.8297156501 299 C 427.08874176977196 299 427.21825482960804 299 427.47728094928 299 C 427.736307068952 299 427.86582012878796 299 428.12484624846 299 C 428.38387236813196 299 428.51338542796805 299 428.77241154764 299 C 429.031437667316 299 429.160950727154 299 429.41997684683 299 C 429.679002966502 299 429.808516026338 299 430.06754214601 299 C 430.326568265682 299 430.45608132551797 299 430.71510744519 299 C 430.974133564862 299 431.103646624698 299 431.36267274437 299 C 431.621698864046 299 431.75121192388394 299 432.01023804356 299 C 432.2692641632319 299 432.398777223068 299 432.65780334274 299 C 432.916829462412 299 433.046342522248 299 433.30536864192 299 C 433.5643947615919 299 433.693907821428 299 433.9529339411 299 C 434.211960060776 299 434.34147312061395 299 434.60049924029 299 C 434.85952535996205 299 434.989038419798 299 435.24806453947 299 C 435.50709065914197 299 435.63660371897805 299 435.89562983865 299 C 436.154655958322 299 436.28416901815797 299 436.54319513783 299 C 436.80222125750606 299 436.931734317344 299 437.19076043702 299 C 437.449786556692 299 437.579299616528 299 437.8383257362 299 C 438.097351855872 299 438.226864915708 299 438.48589103538 299 C 438.744917155052 299 438.874430214888 299 439.13345633456 299 C 439.3924824542361 299 439.52199551407404 299 439.78102163375 299 C 440.040047753422 299 440.169560813258 299 440.42858693293 299 C 440.68761305260193 299 440.817126112438 299 441.07615223211 299 C 441.335178351782 299 441.464691411618 299 441.72371753129 299 C 441.98274365096603 299 442.112256710804 299 442.37128283048 299 C 442.63030895015197 299 442.75982200998806 299 443.01884812966 299 C 443.27787424933194 299 443.40738730916803 299 443.66641342884 299 C 443.925439548512 299 444.05495260834795 299 444.31397872802 299 C 444.573004847692 299 444.702517907528 299 444.9615440272 299 C 445.22057014687596 299 445.35008320671403 299 445.60910932639 299 C 445.868135446062 299 445.997648505898 299 446.25667462557 299 C 446.515700745242 299 446.64521380507796 299 446.90423992475 299 C 447.163266044422 299 447.292779104258 299 447.55180522393 299 C 447.81083134360597 299 447.94034440344404 299 448.19937052312 299 C 448.458396642792 299 448.587909702628 299 448.8469358223 299 C 449.10596194197194 299 449.235475001808 299 449.49450112148 299 C 449.753527241152 299 449.883040300988 299 450.14206642066 299 C 450.401092540336 299 450.530605600174 299 450.78963171985 299 C 451.048657839522 299 451.17817089935795 299 451.43719701903 299 C 451.69622313870207 299 451.82573619853804 299 452.08476231821 299 C 452.343788437882 299 452.47330149771807 299 452.73232761739 299 C 452.99135373706605 299 453.120866796904 299 453.37989291658 299 C 453.638919036252 299 453.7684320960881 299 454.02745821576 299 C 454.286484335432 299 454.415997395268 299 454.67502351494 299 C 454.934049634612 299 455.063562694448 299 455.32258881412 299 C 455.581614933796 299 455.711127993634 299 455.97015411331 299 C 456.229180232982 299 456.358693292818 299 456.61771941249 299 C 456.87674553216203 299 457.006258591998 299 457.26528471167 299 C 457.52431083134195 299 457.65382389117804 299 457.91285001085 299 C 458.171876130526 299 458.301389190364 299 458.56041531004 299 C 458.81944142971196 299 458.94895448954804 299 459.20798060922 299 C 459.467006728892 299 459.59651978872796 299 459.8555459084 299 C 460.11457202807196 299 460.24408508790805 299 460.50311120758 299 C 460.762137327256 299 460.891650387094 299 461.15067650677 299 C 461.409702626442 299 461.539215686278 299 461.79824180595 299 C 462.057267925622 299 462.186780985458 299 462.44580710513 299 C 462.704833224802 299 462.834346284638 299 463.09337240431 299 C 463.352398523982 299 463.481911583818 299 463.74093770349 299 C 463.99996382316596 299 464.12947688300403 299 464.38850300268 299 C 464.647529122352 299 464.777042182188 299 465.03606830186 299 C 465.2950944215319 299 465.424607481368 299 465.68363360104 299 C 465.94265972071196 299 466.07217278054793 299 466.33119890022 299 C 466.590225019896 299 466.719738079734 299 466.97876419941 299 C 467.23779031908197 299 467.36730337891805 299 467.62632949859 299 C 467.885355618262 299 468.01486867809797 299 468.27389479777 299 C 468.5329209174421 299 468.66243397727806 299 468.92146009695 299 C 469.18048621662604 299 469.309999276464 299 469.56902539614 299 C 469.828051515812 299 469.957564575648 299 470.21659069532 299 C 470.475616814992 299 470.605129874828 299 470.8641559945 299 C 471.12318211417204 299 471.252695174008 299 471.51172129368 299 C 471.770747413356 299 471.90026047319395 299 472.15928659287 299 C 472.41831271254193 299 472.547825772378 299 472.80685189205 299 C 473.065878011722 299 473.195391071558 299 473.45441719123 299 C 473.71344331090205 299 473.842956370738 299 474.10198249041 299 C 474.361008610086 299 474.4905216699241 299 474.7495477896 299 C 475.00857390927195 299 475.13808696910803 299 475.39711308878 299 C 475.656139208452 299 475.78565226828795 299 476.04467838796 299 C 476.303704507632 299 476.433217567468 299 476.69224368714 299 C 476.95126980681596 299 477.08078286665403 299 477.33980898633 299 C 477.598835106002 299 477.728348165838 299 477.98737428551 299 C 478.246400405182 299 478.37591346501796 299 478.63493958469 299 C 478.893965704362 299 479.023478764198 299 479.28250488387 299 C 479.541531003542 299 479.671044063378 299 479.93007018305 299 C 480.189096302726 299 480.31860936256396 299 480.57763548224 299 C 480.83666160191194 299 480.966174661748 299 481.22520078142 299 C 481.48422690109203 299 481.613739960928 299 481.8727660806 299 C 482.13179220027195 299 482.26130526010803 299 482.52033137978 299 C 482.779357499456 299 482.908870559294 299 483.16789667897 299 C 483.42692279864207 299 483.55643585847804 299 483.81546197815 299 C 484.074488097822 299 484.20400115765807 299 484.46302727733 299 C 484.722053397002 299 484.851566456838 299 485.11059257651 299 C 485.36961869618597 299 485.49913175602404 299 485.7581578757 299 C 486.017183995372 299 486.146697055208 299 486.40572317488 299 C 486.664749294552 299 486.794262354388 299 487.05328847406 299 C 487.312314593732 299 487.441827653568 299 487.70085377324 299 C 487.959879892916 299 488.08939295275394 299 488.34841907243 299 C 488.60744519210203 299 488.736958251938 299 488.99598437161 299 C 489.25501049128195 299 489.38452355111804 299 489.64354967079 299 C 489.90257579046204 299 490.032088850298 299 490.29111496997 299 C 490.550141089646 299 490.679654149484 299 490.93868026916 299 C 491.197706388832 299 491.32721944866796 299 491.58624556834 299 C 491.84527168801196 299 491.97478474784805 299 492.23381086752 299 C 492.492836987192 299 492.62235004702796 299 492.8813761667 299 C 493.14040228637606 299 493.269915346214 299 493.52894146589 299 C 493.787967585562 299 493.917480645398 299 494.17650676507 299 C 494.435532884742 299 494.565045944578 299 494.82407206425 299 C 495.083098183922 299 495.212611243758 299 495.47163736343 299 C 495.7306634831019 299 495.860176542938 299 496.11920266261 299 C 496.378228782286 299 496.50774184212395 299 496.7667679618 299 C 497.02579408147193 299 497.155307141308 299 497.41433326098 299 C 497.67335938065196 299 497.80287244048793 299 498.06189856016 299 C 498.32092467983205 299 498.450437739668 299 498.70946385934 299 C 498.968489979016 299 499.098003038854 299 499.35702915853 299 C 499.616055278202 299 499.74556833803797 299 500.00459445771 299 C 500.2636205773821 299 500.39313363721806 299 500.65215975689 299 C 500.911185876562 299 501.040698936398 299 501.29972505607 299 C 501.55875117574595 299 501.68826423558403 299 501.94729035526 299 C 502.206316474932 299 502.335829534768 299 502.59485565444 299 C 502.85388177411204 299 502.983394833948 299 503.24242095362 299 C 503.501447073292 299 503.630960133128 299 503.8899862528 299 C 504.14901237247597 299 504.27852543231404 299 504.53755155199 299 C 504.947856120722 299 505.153008405088 284.05 505.56331297382 284.05 C 505.671060644432 284.05 505.724934479738 299 505.83268215035 299 C 506.167977071926 299 506.33562453271406 284.05 506.67091945429 284.05 C 506.92994557396196 284.05 507.05945863379804 284.05 507.31848475347 284.05 C 507.501242071242 284.05 507.592620730128 299 507.7753780479 299 C 508.148627491176 299 508.335252212814 284.05 508.70850165609 284.05 C 508.986235217742 284.05 509.1251019985681 284.05 509.40283556022 284.05 C 509.52893091431196 284.05 509.59197859135804 299 509.71807394545 299 C 510.053368867026 299 510.22101632781397 284.05 510.55631124939 284.05 C 510.8153373690619 284.05 510.944850428898 284.05 511.20387654857 284.05 C 511.462902668242 284.05 511.592415728078 284.05 511.85144184775 284.05 C 512.110467967422 284.05 512.239981027258 284.05 512.49900714693 284.05 C 512.6817644647019 284.05 512.7731431235879 299 512.95590044136 299 C 513.214926561032 299 513.344439620868 299 513.60346574054 299 C 513.862491860212 299 513.992004920048 299 514.25103103972 299 C 514.510057159392 299 514.639570219228 299 514.8985963389 299 C 515.157622458576 299 515.2871355184141 299 515.54616163809 299 C 515.805187757762 299 515.934700817598 299 516.19372693727 299 C 516.4527530569419 299 516.582266116778 299 516.84129223645 299 C 517.1003183561221 299 517.2298314159581 299 517.48885753563 299 C 517.747883655306 299 517.877396715144 299 518.13642283482 299 C 518.3954489544919 299 518.5249620143279 299 518.783988134 299 C 519.0430142536719 299 519.172527313508 299 519.43155343318 299 C 519.6905795528521 299 519.8200926126881 299 520.07911873236 299 C 520.3381448520361 299 520.467657911874 299 520.72668403155 299 C 520.985710151222 299 521.115223211058 299 521.37424933073 299 C 521.6332754504019 299 521.762788510238 299 522.02181462991 299 C 522.280840749582 299 522.410353809418 299 522.66937992909 299 C 522.928406048766 299 523.0579191086041 299 523.31694522828 299 C 523.575971347952 299 523.705484407788 299 523.96451052746 299 C 524.223536647132 299 524.353049706968 299 524.61207582664 299 C 524.871101946312 299 525.000615006148 299 525.25964112582 299 C 525.518667245496 299 525.6481803053341 299 525.90720642501 299 C 526.1662325446821 299 526.2957456045181 299 526.55477172419 299 C 526.813797843862 299 526.9433109036979 299 527.20233702337 299 C 527.4613631430419 299 527.5908762028779 299 527.84990232255 299 C 528.108928442226 299 528.238441502064 299 528.49746762174 299 C 528.756493741412 299 528.886006801248 299 529.14503292092 299 C 529.404059040592 299 529.5335721004279 299 529.7925982201 299 C 530.051624339772 299 530.181137399608 299 530.44016351928 299 C 530.699189638952 299 530.828702698788 299 531.08772881846 299 C 531.346754938136 299 531.73529411765 299 531.73529411765 299" class="highcharts-graph" data-z-index="1" stroke="#000000" stroke-width="2" stroke-linejoin="round" stroke-linecap="round"></path></g><g data-z-index="0.1" class="highcharts-markers highcharts-series-0 highcharts-spline-series highcharts-color-0 " transform="translate(53,63) scale(1 1)" clip-path="none"></g></g><text x="300" text-anchor="middle" class="highcharts-title" data-z-index="4" style="color:#333333;font-size:18px;fill:#333333;" y="24"><tspan>5 HTP Over Time</tspan></text><text x="300" text-anchor="middle" class="highcharts-subtitle" data-z-index="4" style="color:#666666;fill:#666666;" y="46"><tspan>This chart shows how your 5 HTP changes over time.</tspan></text><g class="highcharts-axis-labels highcharts-xaxis-labels " data-z-index="7"><text x="173.59210219553" style="color:#666666;cursor:default;font-size:11px;fill:#666666;" text-anchor="middle" transform="translate(0,0)" y="381" opacity="1"><tspan>Jan '13</tspan></text><text x="290.80142134755" style="color:#666666;cursor:default;font-size:11px;fill:#666666;" text-anchor="middle" transform="translate(0,0)" y="381" opacity="1"><tspan>Jul '13</tspan></text><text x="409.95343639711" style="color:#666666;cursor:default;font-size:11px;fill:#666666;" text-anchor="middle" transform="translate(0,0)" y="381" opacity="1"><tspan>Jan '14</tspan></text><text x="527.16275554912" style="color:#666666;cursor:default;font-size:11px;fill:#666666;" text-anchor="middle" transform="translate(0,0)" y="381" opacity="1"><tspan>Jul '14</tspan></text></g><g class="highcharts-axis-labels highcharts-yaxis-labels " data-z-index="7"><text x="38" style="color:#666666;cursor:default;font-size:11px;fill:#666666;" text-anchor="end" transform="translate(0,0)" y="366" opacity="1">0</text><text x="38" style="color:#666666;cursor:default;font-size:11px;fill:#666666;" text-anchor="end" transform="translate(0,0)" y="306" opacity="1">200</text><text x="38" style="color:#666666;cursor:default;font-size:11px;fill:#666666;" text-anchor="end" transform="translate(0,0)" y="246" opacity="1">400</text><text x="38" style="color:#666666;cursor:default;font-size:11px;fill:#666666;" text-anchor="end" transform="translate(0,0)" y="186" opacity="1">600</text><text x="38" style="color:#666666;cursor:default;font-size:11px;fill:#666666;" text-anchor="end" transform="translate(0,0)" y="126" opacity="1">800</text><text x="38" style="color:#666666;cursor:default;font-size:11px;fill:#666666;" text-anchor="end" transform="translate(0,0)" y="67" opacity="1">1000</text></g><a xlink:href="https://quantimo.do" target="_blank">
                    <text x="590" class="highcharts-credits" text-anchor="end" data-z-index="8"
                          style="cursor:pointer;color:#999999;font-size:9px;fill:#999999;" y="395">https://quantimo.do
                    </text>
                </a></svg>