<?xml version="1.0" standalone="no"?><!DOCTYPE svg PUBLIC "-//W3C//DTD SVG 1.1//EN" "http://www.w3.org/Graphics/SVG/1.1/DTD/svg11.dtd"><svg xmlns:xlink="http://www.w3.org/1999/xlink" version="1.1" class="highcharts-root" style="font-family:&quot;Lucida Grande&quot;, &quot;Lucida Sans Unicode&quot;, Arial, Helvetica, sans-serif;font-size:12px;" xmlns="http://www.w3.org/2000/svg" width="600" height="400"><desc>Created with Highstock 6.2.0</desc><defs><clipPath id="highcharts-0gdkbmc-339"><rect x="0" y="0" width="551" height="299" fill="none"></rect></clipPath><clipPath id="highcharts-0gdkbmc-672"><rect x="0" y="0" width="551" height="299" fill="none"></rect></clipPath><clipPath id="highcharts-0gdkbmc-673"><rect x="39" y="63" width="551" height="299" fill="none"></rect></clipPath></defs><rect fill="#ffffff" class="highcharts-background" x="0" y="0" width="600" height="400" rx="0" ry="0"></rect><rect fill="none" class="highcharts-plot-background" x="39" y="63" width="551" height="299"></rect><g class="highcharts-pane-group" data-z-index="0"></g><g class="highcharts-grid highcharts-xaxis-grid " data-z-index="1"><path fill="none" data-z-index="1" class="highcharts-grid-line" d="M 88.5 63 L 88.5 362" opacity="1"></path><path fill="none" data-z-index="1" class="highcharts-grid-line" d="M 186.5 63 L 186.5 362" opacity="1"></path><path fill="none" data-z-index="1" class="highcharts-grid-line" d="M 286.5 63 L 286.5 362" opacity="1"></path><path fill="none" data-z-index="1" class="highcharts-grid-line" d="M 386.5 63 L 386.5 362" opacity="1"></path><path fill="none" data-z-index="1" class="highcharts-grid-line" d="M 487.5 63 L 487.5 362" opacity="1"></path><path fill="none" data-z-index="1" class="highcharts-grid-line" d="M 586.5 63 L 586.5 362" opacity="1"></path></g><g class="highcharts-grid highcharts-yaxis-grid " data-z-index="1"><path fill="none" stroke="#e6e6e6" stroke-width="1" data-z-index="1" class="highcharts-grid-line" d="M 39 362.5 L 590 362.5" opacity="1"></path><path fill="none" stroke="#e6e6e6" stroke-width="1" data-z-index="1" class="highcharts-grid-line" d="M 39 312.5 L 590 312.5" opacity="1"></path><path fill="none" stroke="#e6e6e6" stroke-width="1" data-z-index="1" class="highcharts-grid-line" d="M 39 262.5 L 590 262.5" opacity="1"></path><path fill="none" stroke="#e6e6e6" stroke-width="1" data-z-index="1" class="highcharts-grid-line" d="M 39 213.5 L 590 213.5" opacity="1"></path><path fill="none" stroke="#e6e6e6" stroke-width="1" data-z-index="1" class="highcharts-grid-line" d="M 39 163.5 L 590 163.5" opacity="1"></path><path fill="none" stroke="#e6e6e6" stroke-width="1" data-z-index="1" class="highcharts-grid-line" d="M 39 113.5 L 590 113.5" opacity="1"></path><path fill="none" stroke="#e6e6e6" stroke-width="1" data-z-index="1" class="highcharts-grid-line" d="M 39 62.5 L 590 62.5" opacity="1"></path></g><rect fill="none" class="highcharts-plot-border" data-z-index="1" x="39" y="63" width="551" height="299"></rect><g class="highcharts-axis highcharts-xaxis " data-z-index="2"><path fill="none" class="highcharts-tick" stroke="#ccd6eb" stroke-width="1" d="M 88.5 362 L 88.5 372" opacity="1"></path><path fill="none" class="highcharts-tick" stroke="#ccd6eb" stroke-width="1" d="M 186.5 362 L 186.5 372" opacity="1"></path><path fill="none" class="highcharts-tick" stroke="#ccd6eb" stroke-width="1" d="M 286.5 362 L 286.5 372" opacity="1"></path><path fill="none" class="highcharts-tick" stroke="#ccd6eb" stroke-width="1" d="M 386.5 362 L 386.5 372" opacity="1"></path><path fill="none" class="highcharts-tick" stroke="#ccd6eb" stroke-width="1" d="M 487.5 362 L 487.5 372" opacity="1"></path><path fill="none" class="highcharts-tick" stroke="#ccd6eb" stroke-width="1" d="M 586.5 362 L 586.5 372" opacity="1"></path><path fill="none" class="highcharts-axis-line" stroke="#ccd6eb" stroke-width="1" data-z-index="7" d="M 39 362.5 L 590 362.5"></path></g><g class="highcharts-axis highcharts-yaxis " data-z-index="2"><path fill="none" class="highcharts-axis-line" data-z-index="7" d="M 39 63 L 39 362"></path></g><g class="highcharts-series-group" data-z-index="3"><g data-z-index="0.1" class="highcharts-series highcharts-series-0 highcharts-spline-series highcharts-color-0 " transform="translate(39,63) scale(1 1)" clip-path="url(#highcharts-0gdkbmc-672)"><path fill="none" d="M 5.4019607843137 299 C 5.4019607843137 299 6.3811681772407 299 7.0339731058587 299 C 7.68677803447666 299 8.01318049878564 299 8.6659854274036 299 C 9.31879035602176 299 9.64519282033084 299 10.297997748949 299 C 10.9508026775666 299 11.277205141875399 299 11.930010070493 299 C 12.582814999111 299 12.909217463419997 299 13.562022392038 299 C 14.214827320656 299 14.541229784964997 299 15.194034713583 299 C 15.846839642201 299 16.17324210651 299 16.826047035128 299 C 17.478851963746003 299 17.805254428055 299 18.458059356673 299 C 19.110864285291 299 19.437266749600003 299 20.090071678218 299 C 20.742876606836 299 21.069279071145 299 21.722083999763 299 C 22.374888928381 299 22.701291392690003 299 23.354096321308 299 C 24.006901249926 299 24.333303714235 299 24.986108642853 299 C 25.638913571471 299 25.96531603578 299 26.618120964398 299 C 27.270925893016 299 27.597328357325 299 28.250133285943 299 C 28.902938214560997 299 29.22934067887 299 29.882145607488 299 C 30.534950536106 299 30.861353000415 299 31.514157929033 299 C 32.166962857651 299 32.493365321960006 299 33.146170250578 299 C 33.798975179196006 299 34.125377643505 299 34.778182572123 299 C 35.4309875007406 299 35.7573899650494 299 36.410194893667 299 C 37.06299982228499 299 37.389402286594 299 38.042207215212 299 C 38.69501214383 299 39.021414608139004 299 39.674219536757 299 C 40.327024465375004 299 40.653426929683995 299 41.306231858302 299 C 41.95903678692 299 42.28543925122899 299 42.938244179847 299 C 43.59104910846499 299 43.917451572774 299 44.570256501392 299 C 45.22306143001 299 45.549463894319004 299 46.202268822937 299 C 46.855073751555 299 47.181476215864 299 47.834281144482 299 C 48.4870860731 299 48.813488537409 299 49.466293466027 299 C 50.119098394645 299 50.445500858954 299 51.098305787572 299 C 51.75111071619 299 52.077513180499 299 52.730318109117 299 C 53.383123037735004 299 53.709525502044 244.18333333333337 54.362330430662 224.25 C 55.015135359279995 204.31666666666666 55.341537823589 218.93328599045316 55.994342752207 199.33333333333331 C 57.0013094658254 169.0999526571198 57.5047928226346 135.42613936848534 58.511759536253 99.66666666666666 C 59.188727313965 75.62613936848535 59.527211202821 49.83333333333334 60.204178980533 49.83333333333334 C 60.4786592750562 49.83333333333334 60.61589942231781 299 60.890379716841 299 C 61.54318464545899 299 61.869587109768005 299 62.522392038386 299 C 63.175196967004 299 63.501599431313004 299 64.154404359931 299 C 65.0264202769054 299 65.4624282353926 49.83333333333334 66.334444152367 49.83333333333334 C 66.894073266405 49.83333333333334 67.173887823424 49.83333333333334 67.733516937462 49.83333333333334 C 68.2602866923036 49.83333333333334 68.52367156972439 299 69.050441324566 299 C 70.26118290999959 299 70.8665537027164 49.83333333333334 72.07729528815 49.83333333333334 C 72.1721635599524 49.83333333333334 72.2195976958536 299 72.314465967656 299 C 72.967270896274 299 73.293673360583 299 73.946478289201 299 C 74.59928321781899 299 74.925685682128 299 75.578490610746 299 C 76.5324698132024 299 77.00945941443061 49.83333333333334 77.963438616887 49.83333333333334 C 78.3150692716666 49.83333333333334 78.4908845990564 299 78.842515253836 299 C 79.495320182454 299 79.821722646763 299 80.474527575381 299 C 81.127332503999 299 81.453734968308 299 82.106539896926 299 C 82.7593448255436 299 83.0857472898524 299 83.73855221847 299 C 84.391357147088 299 84.717759611397 299 85.370564540015 299 C 86.02336946863299 299 86.349771932942 299 87.00257686156 299 C 87.65538179017801 299 87.981784254487 299 88.634589183105 299 C 89.287394111723 299 89.613796576032 299 90.26660150465 299 C 90.919406433268 299 91.245808897577 299 91.898613826195 299 C 92.551418754813 299 92.877821219122 299 93.53062614774 299 C 94.18343107635799 299 94.509833540667 299 95.162638469285 299 C 95.81544339790301 299 96.141845862212 299 96.79465079083 299 C 97.447455719448 299 97.77385818375701 299 98.426663112375 299 C 99.079468040993 299 99.40587050530199 299 100.05867543392 299 C 101.24149147518399 299 101.83289949581601 299 103.01571553708 299 C 103.62293745488401 299 103.92654841378601 299 104.53377033159 299 C 104.702147158374 299 104.78633557176599 299 104.95471239855 299 C 105.60751732716999 299 105.93391979148001 299 106.5867247201 299 C 107.239529648716 299 107.56593211302399 49.83333333333334 108.21873704164 49.83333333333334 C 108.87154197026 49.83333333333334 109.19794443456999 299 109.85074936319 299 C 110.503554291806 299 110.829956756114 299 111.48276168473 299 C 112.13556661335 299 112.46196907766 299 113.11477400628 299 C 113.76757893489601 299 114.093981399204 299 114.74678632782 299 C 115.39959125644 299 115.72599372075001 299 116.37879864937 299 C 117.03160357798602 299 117.35800604229398 299 118.01081097091 299 C 118.82680202045799 299 119.234797545232 49.83333333333334 120.05078859478 49.83333333333334 C 120.540407402468 49.83333333333334 120.785216806312 299 121.274835614 299 C 121.92764054262 299 122.25404300693 299 122.90684793555 299 C 123.559652864166 299 123.886055328474 299 124.53886025709 299 C 125.27443692173799 299 125.64222525406198 99.66666666666666 126.37780191871 99.66666666666666 C 126.94783511129799 99.66666666666666 127.232851707592 299 127.80288490018 299 C 128.4556898288 299 128.78209229311 299 129.43489722173 299 C 130.08770215034602 299 130.414104614654 299 131.06690954327 299 C 131.71971447188997 299 132.0461169362 49.83333333333334 132.69892186482 49.83333333333334 C 133.351726793436 49.83333333333334 133.67812925774402 299 134.33093418636 299 C 134.98373911498 299 135.31014157929 299 135.96294650791 299 C 136.61575143652598 299 136.942153900834 299 137.59495882945 299 C 138.24776375807 299 138.57416622238 299 139.226971151 299 C 139.87977607961597 299 140.20617854392398 299 140.85898347254 299 C 141.643203171108 299 142.035313020392 49.83333333333334 142.81953271896 49.83333333333334 C 143.340922877628 49.83333333333334 143.601617956962 299 144.12300811563 299 C 144.941401849986 299 145.35059871716402 299 146.16899245152 299 C 146.6562085744 299 146.89981663584 299 147.38703275872 299 C 148.03983768734003 299 148.36624015165 299 149.01904508027 299 C 149.671850008886 299 149.998252473194 299 150.65105740181 299 C 151.30386233043 299 151.63026479474001 299 152.28306972336 299 C 153.074965924324 299 153.470914024806 299 154.26281022577 299 C 154.776523882042 299 155.03338071017802 299 155.54709436645 299 C 156.19989929506602 299 156.526301759374 299 157.17910668799 299 C 157.83191161660997 299 158.15831408091998 299 158.81111900954 299 C 159.463923938156 299 159.79032640246402 299 160.44313133108 299 C 161.0959362597 299 161.42233872401 299 162.07514365263 299 C 162.727948581246 299 163.054351045554 299 163.70715597417 299 C 164.35996090279 299 164.6863633671 299 165.33916829572 299 C 165.99197322433596 299 166.31837568864398 299 166.97118061726 299 C 167.62398554587998 299 167.95038801019 299 168.60319293881 299 C 169.255997867426 299 169.58240033173402 299 170.23520526035 299 C 170.88801018897001 299 171.21441265328 299 171.8672175819 299 C 172.520022510516 299 172.846424974824 299 173.49922990344 299 C 174.15203483206 299 174.47843729636998 299 175.13124222499 299 C 175.78404715360597 299 176.11044961791399 299 176.76325454653 299 C 177.41605947515 299 177.74246193946001 299 178.39526686808 299 C 179.048071796696 299 179.374474261004 299 180.02727918962 299 C 180.68008411824002 299 181.00648658255 299 181.65929151117 299 C 182.312096439786 299 182.638498904094 299 183.29130383271 299 C 183.94410876133003 299 184.27051122564 299 184.92331615426 299 C 185.576121082876 299 185.902523547184 299 186.5553284758 299 C 187.20813340442 299 187.53453586873002 299 188.18734079735 299 C 188.840145725966 299 189.166548190274 299 189.81935311889 299 C 190.47215804751 299 190.79856051182 299 191.45136544044 299 C 192.104170369056 299 192.43057283336398 299 193.08337776198 299 C 193.73618269059997 299 194.06258515490998 299 194.71539008353 299 C 195.368195012146 299 195.69459747645402 299 196.34740240507 299 C 197.00020733369 299 197.326609798 299 197.97941472662 299 C 198.632219655236 299 198.958622119544 299 199.61142704816 299 C 200.26423197678 299 200.59063444109 299 201.24343936971 299 C 201.89624429832597 299 202.22264676263399 299 202.87545169125 299 C 203.52825661986998 299 203.85465908418 299 204.5074640128 299 C 205.626601351072 299 206.186170020208 299 207.30530735848 299 C 207.491779877444 299 207.58501613692601 299 207.77148865589 299 C 208.424293584506 299 208.750696048814 299 209.40350097743 299 C 210.16533339586204 299 210.546249605078 299 211.30808202351 299 C 211.96377319614197 299 212.291618782458 299 212.94730995509 299 C 213.48820114988203 299 213.758646747278 299 214.29953794207 299 C 214.952342870686 299 215.27874533499397 299 215.93155026361 299 C 216.75001199847802 299 217.15924286591198 299 217.97770460078 299 C 218.93217491805598 299 219.40941007669397 299 220.36388039397 299 C 220.983712629202 299 221.293628746818 299 221.91346098205 299 C 222.61207558985797 299 222.961382893762 299 223.65999750157 299 C 223.832643249474 299 223.91896612342597 299 224.09161187133 299 C 225.28678133919803 299 225.884366073132 299 227.079535541 299 C 227.68910725432002 299 227.99389311098003 299 228.6034648243 299 C 229.241052749144 299 229.55984671156602 299 230.19743463641 299 C 230.870103270554 299 231.206437587626 299 231.87910622177 299 C 232.02813312468598 299 232.10264657614402 299 232.25167347906 299 C 232.904478407676 299 233.23088087198403 299 233.8836858006 299 C 235.051058169712 299 235.634744354268 299 236.80211672338 299 C 237.401835917872 299 237.701695515118 299 238.30141470961 299 C 238.97177888190998 299 239.30696096806 299 239.97732514036 299 C 240.669033918256 299 241.014888307204 299 241.7065970851 299 C 241.841457214392 299 241.90888727903803 299 242.04374740833 299 C 242.696552336946 299 243.022954801254 299 243.67575972987 299 C 244.32856465849 299 244.6549671228 299 245.30777205142 299 C 245.96057698003597 299 246.28697944434398 299 246.93978437296 299 C 247.59258930157998 299 247.91899176588998 299 248.57179669451 299 C 249.224601623126 299 249.55100408743402 299 250.20380901605 299 C 250.85661394467002 299 251.18301640898 299 251.8358213376 299 C 252.48862626621604 299 252.815028730524 299 253.46783365914 299 C 254.12063858776 299 254.44704105207 299 255.09984598069 299 C 255.75265090930597 299 256.07905337361404 299 256.73185830223 299 C 257.38466323085004 299 257.71106569515996 299 258.36387062378 299 C 259.01667555239595 299 259.343078016704 299 259.99588294532 299 C 260.64868787394 299 260.97509033824997 299 261.62789526687 299 C 262.280700195486 299 262.60710265979395 299 263.25990758841 299 C 263.91271251703 299 264.23911498134 299 264.89191990996 299 C 265.544724838576 299 265.871127302884 299 266.5239322315 299 C 267.17673716012 299 267.50313962443 299 268.15594455305 299 C 268.80874948166604 299 269.13515194597403 299 269.78795687459 299 C 270.44076180320997 299 270.76716426752 299 271.41996919614 299 C 272.072774124756 299 272.39917658906404 299 273.05198151768 299 C 273.70478644630003 299 274.03118891061 299 274.68399383923 299 C 275.79421555463404 299 276.349326412336 299 277.45954812774 299 C 277.654936269572 299 277.752630340488 299 277.94801848232 299 C 278.60082341093596 299 278.927225875244 299 279.58003080386 299 C 280.23283573248 299 280.55923819679003 299 281.21204312541 299 C 281.86484805402597 299 282.19125051833396 299 282.84405544695 299 C 283.49686037557 299 283.82326283988 299 284.4760677685 299 C 285.128872697116 299 285.455275161424 299 286.10808009004 299 C 286.76088501866 299 287.08728748297 299 287.74009241159 299 C 288.39289734020605 299 288.719299804514 299 289.37210473313 299 C 290.48232644853795 299 291.037437306242 299 292.14765902165 299 C 292.343047163478 299 292.440741234392 299 292.63612937622 299 C 293.28893430484004 299 293.61533676914996 299 294.26814169777 299 C 295.378363413174 299 295.933474270876 299 297.04369598628 299 C 297.239084128112 299 297.336778199028 299 297.53216634086 299 C 298.184971269476 299 298.51137373378396 299 299.1641786624 299 C 299.81698359102 299 300.14338605533 299 300.79619098395 299 C 301.448995912566 299 301.775398376874 299 302.42820330549 299 C 303.08100823411 299 303.40741069842 299 304.06021562704 299 C 304.71302055565604 299 305.03942301996403 299 305.69222794858 299 C 306.802449663988 299 307.357560521692 299 308.4677822371 299 C 308.663170378928 299 308.760864449842 299 308.95625259167 299 C 310.066474307078 299 310.621585164782 299 311.73180688019 299 C 312.38461180880597 299 312.711014273114 299 313.36381920173 299 C 314.01662413035 299 314.34302659466005 299 314.99583152328 299 C 315.648636451896 299 315.97503891620397 299 316.62784384482 299 C 317.28064877344 299 317.60705123775 299 318.25985616637 299 C 318.912661094986 299 319.23906355929404 299 319.89186848791 299 C 320.54467341653003 299 320.87107588084 299 321.52388080946 299 C 321.719268951288 299 321.816963022202 299 322.01235116403 299 C 323.12257287943805 299 323.677683737142 299 324.78790545255 299 C 325.440710381166 299 325.767112845474 299 326.41991777409 299 C 327.07272270270994 299 327.39912516702 299 328.05193009564 299 C 328.70473502425597 299 329.031137488564 299 329.68394241718 299 C 330.3367473458 299 330.66314981011 299 331.31595473873 299 C 331.96875966734603 299 332.29516213165397 299 332.94796706027 299 C 333.60077198889 299 333.9271744532 299 334.57997938182 299 C 335.232784310436 299 335.55918677474403 299 336.21199170336 299 C 336.86479663198 299 337.19119909629 299 337.84400402491 299 C 338.49680895352606 299 338.82321141783405 299 339.47601634645 299 C 340.12882127507 299 340.45522373938 299 341.108028668 299 C 341.76083359661595 299 342.087236060924 299 342.74004098954 299 C 343.39284591816 299 343.71924838246997 299 344.37205331109 299 C 344.567441452918 299 344.665135523832 299 344.86052366566 299 C 345.970745381068 299 346.525856238772 299 347.63607795418 299 C 348.288882882796 299 348.615285347104 299 349.26809027572 299 C 349.92089520434 299 350.24729766865005 299 350.90010259727 299 C 351.552907525886 299 351.879309990194 299 352.53211491881 299 C 353.18491984743 299 353.51132231174006 299 354.16412724036 299 C 354.816932168976 299 355.14333463328404 299 355.7961395619 299 C 356.44894449052003 299 356.77534695483 299 357.42815188345 299 C 357.623540025278 299 357.721234096192 299 357.91662223802 299 C 359.02684395342806 299 359.581954811132 299 360.69217652654 299 C 361.344981455156 299 361.671383919464 299 362.32418884808 299 C 362.97699377669994 299 363.30339624101 299 363.95620116963 299 C 364.60900609824597 299 364.935408562554 299 365.58821349117 299 C 366.24101841979 299 366.5674208841 299 367.22022581272 299 C 367.87303074133604 299 368.19943320564397 299 368.85223813426 299 C 369.50504306288 299 369.83144552719 299 370.48425045581 299 C 371.137055384426 299 371.46345784873404 299 372.11626277735 299 C 372.769067705966 299 373.09547017027404 299 373.74827509889 299 C 374.54187886830607 299 374.93868075301395 299 375.73228452243 299 C 376.24429061025 299 376.50029365416003 299 377.01229974198 299 C 377.6651046706 299 377.99150713490997 299 378.64431206353 299 C 379.297116992146 299 379.62351945645395 299 380.27632438507 299 C 380.92912931369 299 381.255531778 299 381.90833670662 299 C 382.56114163523597 299 382.887544099544 299 383.54034902816 299 C 384.19315395677995 299 384.51955642109 299 385.17236134971 299 C 385.82516627832604 299 386.151568742634 299 386.80437367125 299 C 387.45717859986996 299 387.78358106418 299 388.4363859928 299 C 389.089190921416 299 389.41559338572404 299 390.06839831434 299 C 390.72120324296003 299 391.04760570727 299 391.70041063589 299 C 392.35321556450606 299 392.679618028814 299 393.33242295743 299 C 393.98522788605 299 394.31163035035996 299 394.96443527898 299 C 395.61724020759596 299 395.943642671904 299 396.59644760052 299 C 397.24925252914 299 397.57565499345003 299 398.22845992207 299 C 398.88126485068597 299 399.20766731499396 299 399.86047224361 299 C 400.51327717223 299 400.83967963654004 299 401.49248456516 299 C 402.145289493776 299 402.471691958084 299 403.1244968867 299 C 403.77730181532 299 404.10370427963 299 404.75650920825 299 C 405.40931413686604 299 405.735716601174 299 406.38852152979 299 C 407.04132645841 299 407.36772892272 299 408.02053385134 299 C 408.673338779956 299 408.99974124426404 299 409.65254617288 299 C 410.30535110150004 299 410.63175356580996 299 411.28455849443 299 C 411.937363423046 299 412.263765887354 299 412.91657081597 299 C 413.56937574459 299 413.89577820889997 299 414.54858313752 299 C 415.20138806613596 299 415.52779053044395 299 416.18059545906 299 C 416.83340038768 299 417.15980285199004 299 417.81260778061 299 C 418.465412709226 299 418.791815173534 299 419.44462010215 299 C 419.640008243982 299 419.737702314898 299 419.93309045673 299 C 420.58589538534596 299 420.912297849654 299 421.56510277827 299 C 422.675324493678 299 423.230435351382 299 424.34065706679 299 C 424.99346199540594 299 425.31986445971404 299 425.97266938833 299 C 426.62547431695003 299 426.95187678126 299 427.60468170988 299 C 428.257486638496 299 428.583889102804 299 429.23669403142 299 C 429.88949896004 299 430.21590142434997 299 430.86870635297 299 C 431.52151128158596 299 431.84791374589406 299 432.50071867451 299 C 432.696106816342 299 432.79380088725804 299 432.98918902909 299 C 433.641993957706 299 433.96839642201405 299 434.62120135063 299 C 435.27400627925 299 435.60040874356 299 436.25321367218 299 C 436.90601860079596 299 437.23242106510395 299 437.88522599372 299 C 438.53803092233994 299 438.86443338665003 299 439.51723831527 299 C 440.17004324388597 299 440.496445708194 299 441.14925063681 299 C 441.80205556543007 299 442.12845802974 299 442.78126295836 299 C 443.43406788697604 299 443.76047035128397 299 444.4132752799 299 C 445.06608020852 299 445.39248267283 299 446.04528760145 299 C 446.698092530066 299 447.0244949943741 299 447.67729992299 299 C 448.33010485161003 299 448.65650731592007 299 449.30931224454 299 C 449.962117173156 299 450.288519637464 299 450.94132456608 299 C 452.051546281488 299 452.60665713919195 299 453.7168788546 299 C 454.369683783216 299 454.696086247524 299 455.34889117614 299 C 456.00169610475996 299 456.32809856907005 299 456.98090349769 299 C 457.17629163951807 299 457.27398571043193 299 457.46937385226 299 C 458.12217878087597 299 458.44858124518396 299 459.1013861738 299 C 459.75419110242 299 460.08059356673004 299 460.73339849535 299 C 461.386203423966 299 461.71260588827397 299 462.36541081689 299 C 463.01821574550996 299 463.34461820982006 299 463.99742313844 299 C 464.650228067056 299 464.97663053136404 299 465.62943545998 299 C 466.2822403886001 299 466.60864285291 299 467.26144778153 299 C 467.91425271014606 299 468.240655174454 299 468.89346010307 299 C 470.00368181847796 299 470.558792676182 49.83333333333334 471.66901439159 49.83333333333334 C 471.864402533418 49.83333333333334 471.962096604332 299 472.15748474616 299 C 472.81028967477994 299 473.13669213909 299 473.78949706771 299 C 474.899718783118 299 475.454829640822 299 476.56505135623 299 C 477.21785628484605 299 477.544258749154 299 478.19706367777 299 C 478.84986860639003 299 479.1762710707 299 479.82907599932 299 C 480.481880927936 299 480.808283392244 299 481.46108832086 299 C 482.11389324947993 299 482.44029571378996 299 483.09310064241 299 C 483.288488784238 299 483.386182855152 299 483.58157099698 299 C 484.23437592559605 299 484.56077838990404 299 485.21358331852 299 C 485.86638824714 299 486.19279071145 299 486.84559564007 299 C 487.90141694475807 299 488.42932759710203 299 489.48514890179 299 C 489.73493745433797 299 489.859831730612 299 490.10962028316 299 C 490.762425211776 299 491.08882767608395 299 491.7416326047 299 C 492.39443753332 299 492.72083999763 299 493.37364492625 299 C 494.026449854866 299 494.3528523191741 299 495.00565724779 299 C 496.061478552478 299 496.58938920482194 299 497.64521050951 299 C 497.894999062058 299 498.019893338332 299 498.26968189088 299 C 498.9224868195 299 499.24888928381006 299 499.90169421243 299 C 500.554499141046 299 500.88090160535404 299 501.53370653397 299 C 502.18651146259 299 502.5129139269 299 503.16571885552 299 C 503.81852378413606 299 504.144926248444 299 504.79773117706 299 C 505.45053610567993 299 505.77693856998997 299 506.42974349861 299 C 507.082548427226 299 507.408950891534 299 508.06175582015 299 C 508.71456074876994 299 509.04096321308 299 509.6937681417 299 C 510.3465730703159 299 510.672975534624 299 511.32578046324 299 C 511.97858539186 299 512.30498785617 299 512.95779278479 299 C 513.6105977134059 299 513.937000177714 299 514.58980510633 299 C 515.24261003495 299 515.56901249926 299 516.22181742788 299 C 516.874622356496 299 517.201024820804 299 517.85382974942 299 C 518.50663467804 299 518.83303714235 299 519.48584207097 299 C 520.138646999586 299 520.4650494638939 299 521.11785439251 299 C 521.77065932113 299 522.09706178544 299 522.74986671406 299 C 523.4026716426761 299 523.7290741069841 299 524.3818790356 299 C 525.03468396422 299 525.3610864285299 299 526.01389135715 299 C 526.666696285766 299 526.9930987500741 299 527.64590367869 299 C 528.2987086073101 299 528.62511107162 299 529.27791600024 299 C 529.930720928856 299 530.257123393164 299 530.90992832178 299 C 531.5627332504 299 531.88913571471 299 532.54194064333 299 C 533.194745571946 299 533.521148036254 299 534.17395296487 299 C 534.8267578934899 299 535.1531603578 299 535.80596528642 299 C 536.458770215036 299 536.785172679344 299 537.43797760796 299 C 538.09078253658 299 538.41718500089 299 539.06998992951 299 C 539.722794858126 299 540.049197322434 299 540.70200225105 299 C 541.35480717967 299 541.6812096439801 299 542.3340145726 299 C 542.986819501216 299 543.313221965524 299 543.96602689414 299 C 544.61883182276 299 545.59803921569 299 545.59803921569 299" class="highcharts-graph" data-z-index="1" stroke="#000000" stroke-width="2" stroke-linejoin="round" stroke-linecap="round"></path></g><g data-z-index="0.1" class="highcharts-markers highcharts-series-0 highcharts-spline-series highcharts-color-0 " transform="translate(39,63) scale(1 1)" clip-path="none"></g></g><text x="300" text-anchor="middle" class="highcharts-title" data-z-index="4" style="color:#333333;font-size:18px;fill:#333333;" y="24"><tspan>TDCS F3/FP2 Over Time</tspan></text><text x="300" text-anchor="middle" class="highcharts-subtitle" data-z-index="4" style="color:#666666;fill:#666666;" y="46"><tspan>This chart shows how your TDCS F3/FP2 changes over time.</tspan></text><g class="highcharts-axis-labels highcharts-xaxis-labels " data-z-index="7"><text x="92.473834406203" style="color:#666666;cursor:default;font-size:11px;fill:#666666;" text-anchor="middle" transform="translate(0,0)" y="381" opacity="1"><tspan>Jan '16</tspan></text><text x="190.3945736989" style="color:#666666;cursor:default;font-size:11px;fill:#666666;" text-anchor="middle" transform="translate(0,0)" y="381" opacity="1"><tspan>Mar '16</tspan></text><text x="289.94732531314" style="color:#666666;cursor:default;font-size:11px;fill:#666666;" text-anchor="middle" transform="translate(0,0)" y="381" opacity="1"><tspan>May '16</tspan></text><text x="389.50007692738" style="color:#666666;cursor:default;font-size:11px;fill:#666666;" text-anchor="middle" transform="translate(0,0)" y="381" opacity="1"><tspan>Jul '16</tspan></text><text x="490.68484086317" style="color:#666666;cursor:default;font-size:11px;fill:#666666;" text-anchor="middle" transform="translate(0,0)" y="381" opacity="1"><tspan>Sep '16</tspan></text><text x="569.5" style="color:#666666;cursor:default;font-size:11px;fill:#666666;" text-anchor="middle" transform="translate(0,0)" y="381" opacity="1"><tspan>Nov '16</tspan></text></g><g class="highcharts-axis-labels highcharts-yaxis-labels " data-z-index="7"><text x="24" style="color:#666666;cursor:default;font-size:11px;fill:#666666;" text-anchor="end" transform="translate(0,0)" y="366" opacity="1">0</text><text x="24" style="color:#666666;cursor:default;font-size:11px;fill:#666666;" text-anchor="end" transform="translate(0,0)" y="316" opacity="1">5</text><text x="24" style="color:#666666;cursor:default;font-size:11px;fill:#666666;" text-anchor="end" transform="translate(0,0)" y="266" opacity="1">10</text><text x="24" style="color:#666666;cursor:default;font-size:11px;fill:#666666;" text-anchor="end" transform="translate(0,0)" y="216" opacity="1">15</text><text x="24" style="color:#666666;cursor:default;font-size:11px;fill:#666666;" text-anchor="end" transform="translate(0,0)" y="166" opacity="1">20</text><text x="24" style="color:#666666;cursor:default;font-size:11px;fill:#666666;" text-anchor="end" transform="translate(0,0)" y="116" opacity="1">25</text><text x="24" style="color:#666666;cursor:default;font-size:11px;fill:#666666;" text-anchor="end" transform="translate(0,0)" y="67" opacity="1">30</text></g><a xlink:href="https://quantimo.do" target="_blank">
                    <text x="590" class="highcharts-credits" text-anchor="end" data-z-index="8"
                          style="cursor:pointer;color:#999999;font-size:9px;fill:#999999;" y="395">https://quantimo.do
                    </text>
                </a></svg>