<?xml version="1.0" standalone="no"?><!DOCTYPE svg PUBLIC "-//W3C//DTD SVG 1.1//EN" "http://www.w3.org/Graphics/SVG/1.1/DTD/svg11.dtd"><svg xmlns:xlink="http://www.w3.org/1999/xlink" version="1.1" class="highcharts-root" style="font-family:&quot;Lucida Grande&quot;, &quot;Lucida Sans Unicode&quot;, Arial, Helvetica, sans-serif;font-size:12px;" xmlns="http://www.w3.org/2000/svg" width="600" height="400"><desc>Created with Highstock 6.2.0</desc><defs><clipPath id="highcharts-8ob662n-467"><rect x="0" y="0" width="558" height="299" fill="none"></rect></clipPath><clipPath id="highcharts-8ob662n-928"><rect x="0" y="0" width="558" height="299" fill="none"></rect></clipPath><clipPath id="highcharts-8ob662n-929"><rect x="32" y="63" width="558" height="299" fill="none"></rect></clipPath></defs><rect fill="#ffffff" class="highcharts-background" x="0" y="0" width="600" height="400" rx="0" ry="0"></rect><rect fill="none" class="highcharts-plot-background" x="32" y="63" width="558" height="299"></rect><g class="highcharts-pane-group" data-z-index="0"></g><g class="highcharts-grid highcharts-xaxis-grid " data-z-index="1"><path fill="none" data-z-index="1" class="highcharts-grid-line" d="M 47.5 63 L 47.5 362" opacity="1"></path><path fill="none" data-z-index="1" class="highcharts-grid-line" d="M 150.5 63 L 150.5 362" opacity="1"></path><path fill="none" data-z-index="1" class="highcharts-grid-line" d="M 253.5 63 L 253.5 362" opacity="1"></path><path fill="none" data-z-index="1" class="highcharts-grid-line" d="M 356.5 63 L 356.5 362" opacity="1"></path><path fill="none" data-z-index="1" class="highcharts-grid-line" d="M 458.5 63 L 458.5 362" opacity="1"></path><path fill="none" data-z-index="1" class="highcharts-grid-line" d="M 561.5 63 L 561.5 362" opacity="1"></path></g><g class="highcharts-grid highcharts-yaxis-grid " data-z-index="1"><path fill="none" stroke="#e6e6e6" stroke-width="1" data-z-index="1" class="highcharts-grid-line" d="M 32 362.5 L 590 362.5" opacity="1"></path><path fill="none" stroke="#e6e6e6" stroke-width="1" data-z-index="1" class="highcharts-grid-line" d="M 32 312.5 L 590 312.5" opacity="1"></path><path fill="none" stroke="#e6e6e6" stroke-width="1" data-z-index="1" class="highcharts-grid-line" d="M 32 262.5 L 590 262.5" opacity="1"></path><path fill="none" stroke="#e6e6e6" stroke-width="1" data-z-index="1" class="highcharts-grid-line" d="M 32 213.5 L 590 213.5" opacity="1"></path><path fill="none" stroke="#e6e6e6" stroke-width="1" data-z-index="1" class="highcharts-grid-line" d="M 32 163.5 L 590 163.5" opacity="1"></path><path fill="none" stroke="#e6e6e6" stroke-width="1" data-z-index="1" class="highcharts-grid-line" d="M 32 113.5 L 590 113.5" opacity="1"></path><path fill="none" stroke="#e6e6e6" stroke-width="1" data-z-index="1" class="highcharts-grid-line" d="M 32 62.5 L 590 62.5" opacity="1"></path></g><rect fill="none" class="highcharts-plot-border" data-z-index="1" x="32" y="63" width="558" height="299"></rect><g class="highcharts-axis highcharts-xaxis " data-z-index="2"><path fill="none" class="highcharts-tick" stroke="#ccd6eb" stroke-width="1" d="M 47.5 362 L 47.5 372" opacity="1"></path><path fill="none" class="highcharts-tick" stroke="#ccd6eb" stroke-width="1" d="M 150.5 362 L 150.5 372" opacity="1"></path><path fill="none" class="highcharts-tick" stroke="#ccd6eb" stroke-width="1" d="M 253.5 362 L 253.5 372" opacity="1"></path><path fill="none" class="highcharts-tick" stroke="#ccd6eb" stroke-width="1" d="M 356.5 362 L 356.5 372" opacity="1"></path><path fill="none" class="highcharts-tick" stroke="#ccd6eb" stroke-width="1" d="M 458.5 362 L 458.5 372" opacity="1"></path><path fill="none" class="highcharts-tick" stroke="#ccd6eb" stroke-width="1" d="M 561.5 362 L 561.5 372" opacity="1"></path><path fill="none" class="highcharts-axis-line" stroke="#ccd6eb" stroke-width="1" data-z-index="7" d="M 32 362.5 L 590 362.5"></path></g><g class="highcharts-axis highcharts-yaxis " data-z-index="2"><path fill="none" class="highcharts-axis-line" data-z-index="7" d="M 32 63 L 32 362"></path></g><g class="highcharts-series-group" data-z-index="3"><g data-z-index="0.1" class="highcharts-series highcharts-series-0 highcharts-spline-series highcharts-color-0 " transform="translate(32,63) scale(1 1)" clip-path="url(#highcharts-8ob662n-928)"><path fill="none" d="M 5.4705882352941 249.16666666666666 C 5.4705882352941 249.16666666666666 5.63939109963198 249.16666666666666 5.7519263425239 249.16666666666666 C 5.96754074192586 249.16666666666666 6.075347941626839 249.16666666666666 6.2909623410288 249.16666666666666 C 6.403497583920759 249.16666666666666 6.459765205366739 249.16666666666666 6.5723004482587 249.16666666666666 C 6.79651128982602 249.16666666666666 6.908616710609681 249.16666666666666 7.132827552177 249.16666666666666 C 7.2976447933291215 249.16666666666666 7.380053413905179 249.16666666666666 7.5448706550573 249.16666666666666 C 7.61543963028746 249.16666666666666 7.65072411790254 209.3 7.7212930931327 209.3 C 7.91783902082242 209.3 8.01611198466728 249.16666666666666 8.212657912357 249.16666666666666 C 8.34308938484768 249.16666666666666 8.408305121093019 129.56666666666666 8.5387365935837 129.56666666666666 C 8.663385004981379 129.56666666666666 8.725709210680218 157.8430242272335 8.8503576220779 169.4333333333333 C 9.068707253077939 189.73635756056686 9.17788206857796 209.3 9.396231699578 209.3 C 9.62638190118684 209.3 9.74145700199126 129.56666666666666 9.9716072036001 129.56666666666666 C 10.08976920863646 129.56666666666666 10.148850211154642 249.16666666666666 10.267012216191 249.16666666666666 C 10.3829860359494 249.16666666666666 10.4409729458286 249.16666666666666 10.556946765587 249.16666666666666 C 10.6658871326642 249.16666666666666 10.720357316202799 169.4333333333333 10.82929768328 169.4333333333333 C 11.0487414069192 169.4333333333333 11.1584632687388 188.21796610170136 11.377906992378 209.3 C 11.490442235269999 220.1112994350347 11.546709856716001 249.16666666666666 11.659245099608 249.16666666666666 C 11.764434291922 249.16666666666666 11.817028888079 249.16666666666666 11.922218080393 249.16666666666666 C 12.1454911282698 249.16666666666666 12.2571276522082 249.16666666666666 12.480400700085 249.16666666666666 C 12.6069246988642 249.16666666666666 12.670186698253799 220.76177728450065 12.796710697033 209.3 C 13.0222500796622 188.8684439511673 13.1350197709768 169.4333333333333 13.360559153606 169.4333333333333 C 13.5811751193588 169.4333333333333 13.6914831022352 169.4333333333333 13.912099067988 169.4333333333333 C 14.0290888309108 169.4333333333333 14.087583712372199 209.3 14.204573475295 209.3 C 14.6489313857698 209.3 14.8711103410072 209.3 15.315468251482 209.3 C 15.430738725972 209.3 15.488373963217 249.16666666666666 15.603644437707 249.16666666666666 C 15.717117474289799 249.16666666666666 15.7738539925812 209.3 15.887327029164 209.3 C 16.3427821649792 209.3 16.570509732886798 209.3 17.025964868702 209.3 C 17.132170004181198 209.3 17.185272571920798 209.3 17.2914777074 209.3 C 18.2992151776024 209.3 18.8030839127036 169.4333333333333 19.810821382906 169.4333333333333 C 19.9265607542416 169.4333333333333 19.9844304399094 189.36666666666665 20.100169811245 189.36666666666665 C 20.544684020667802 189.36666666666665 20.7669411253792 169.4333333333333 21.211455334802 169.4333333333333 C 21.3278980514056 169.4333333333333 21.386119409707398 169.4333333333333 21.502562126311 169.4333333333333 C 21.6157225649966 169.4333333333333 21.6723027843394 249.16666666666666 21.785463223025 249.16666666666666 C 22.0312433194802 249.16666666666666 22.1541333677078 249.16666666666666 22.399913464163 249.16666666666666 C 22.687425379856997 249.16666666666666 22.831181337704002 249.16666666666666 23.118693253398 249.16666666666666 C 23.1527664241624 249.16666666666666 23.1698030095446 169.4333333333333 23.203876180309 169.4333333333333 C 23.321178541129 169.4333333333333 23.379829721539 196.63100917430788 23.497132082359 209.3 C 23.6013053315082 220.55100917430792 23.6533919560828 229.23333333333335 23.757565205232 229.23333333333335 C 24.438559723676804 229.23333333333335 24.779056982899203 196.44508462276107 25.460051501344 169.4333333333333 C 25.784137370977998 156.5784179560944 25.946180305795004 129.56666666666666 26.270266175429 129.56666666666666 C 26.390538216269398 129.56666666666666 26.4506742366896 249.16666666666666 26.57094627753 249.16666666666666 C 26.7945319233036 249.16666666666666 26.9063247461904 169.4333333333333 27.129910391964 169.4333333333333 C 27.5365221063852 169.4333333333333 27.739827963595797 249.16666666666666 28.146439678017 249.16666666666666 C 28.2421727839494 249.16666666666666 28.2900393369156 249.16666666666666 28.385772442848 249.16666666666666 C 28.468845333955198 249.16666666666666 28.510381779508805 169.4333333333333 28.593454670616 169.4333333333333 C 28.7959399583472 169.4333333333333 28.8971826022128 169.4333333333333 29.099667889944 169.4333333333333 C 29.296448266056398 169.4333333333333 29.394838454112595 249.16666666666666 29.591618830225 249.16666666666666 C 29.684460405611 249.16666666666666 29.730881193303997 249.16666666666666 29.82372276869 249.16666666666666 C 30.0904469242384 249.16666666666666 30.223809002012597 249.16666666666666 30.490533157561 249.16666666666666 C 30.7248252813042 249.16666666666666 30.8419713431758 216.6426672810136 31.076263466919 209.3 C 31.859633796605795 184.74933394768024 32.2513189614492 169.4333333333333 33.034689291136 169.4333333333333 C 33.15003791509999 169.4333333333333 33.207712227082006 249.16666666666666 33.323060851046 249.16666666666666 C 33.540316389406804 249.16666666666666 33.6489441585872 169.4333333333333 33.866199696948 169.4333333333333 C 33.984908748304 169.4333333333333 34.044263273982004 169.4333333333333 34.162972325338 169.4333333333333 C 34.27550756823 169.4333333333333 34.331775189676 169.4333333333333 34.444310432568 169.4333333333333 C 34.5300404057988 169.4333333333333 34.5729053924142 249.16666666666666 34.658635365645 249.16666666666666 C 35.0199203850126 249.16666666666666 35.200562894696404 169.4333333333333 35.561847914064 169.4333333333333 C 35.666411910584806 169.4333333333333 35.7186939088452 249.16666666666666 35.823257905366 249.16666666666666 C 36.0541896017168 249.16666666666666 36.1696554498922 195.7117183433435 36.400587146243 169.4333333333333 C 36.5199995428674 155.84505167667683 36.5797057411796 149.5 36.699118137804 149.5 C 36.91434178983481 149.5 37.0219536158502 149.5 37.237177267881 169.4333333333333 C 37.352838489742204 189.36666666666662 37.410669100672806 249.16666666666666 37.526330322534 249.16666666666666 C 37.6380059212092 249.16666666666666 37.6938437205468 249.16666666666666 37.805519319222 249.16666666666666 C 37.9168041705264 249.16666666666666 37.9724465961786 129.56666666666666 38.083731447483 129.56666666666666 C 38.1953288966842 129.56666666666666 38.251127621284795 249.16666666666666 38.362725070486 249.16666666666666 C 38.473931772316 249.16666666666666 38.529535123231 169.4333333333333 38.640741825061 169.4333333333333 C 38.75046368688059 169.4333333333333 38.8053246177904 169.4333333333333 38.91504647961 169.4333333333333 C 38.9289570860228 169.4333333333333 38.9359123892292 89.69999999999999 38.949822995642 89.69999999999999 C 39.165515544518406 89.69999999999999 39.273361818956595 249.16666666666666 39.489054367833 249.16666666666666 C 39.4984323047406 249.16666666666666 39.5031212731944 169.4333333333333 39.512499210102 169.4333333333333 C 39.7235809399988 169.4333333333333 39.8291218049472 249.16666666666666 40.040203534844 249.16666666666666 C 40.054192290731194 249.16666666666666 40.0611866686748 154.48333333333332 40.075175424562 154.48333333333332 C 40.509452052860794 154.48333333333332 40.7265903670102 249.16666666666666 41.160866995309 249.16666666666666 C 41.1767313385778 249.16666666666666 41.184663510212204 204.31666666666666 41.200527853481 204.31666666666666 C 41.410749939161 204.31666666666666 41.515860982001 249.16666666666666 41.726083067681 249.16666666666666 C 41.838618310573004 249.16666666666666 41.894885932019 249.16666666666666 42.007421174911 249.16666666666666 C 42.022269575014604 249.16666666666666 42.029693775066406 114.61666666666665 42.04454217517 114.61666666666665 C 42.157077418062 114.61666666666665 42.213345039508 114.61666666666665 42.3258802824 114.61666666666665 C 42.438415525292 114.61666666666665 42.494683146738 114.61666666666665 42.60721838963 114.61666666666665 C 42.817362325836 114.61666666666665 42.922434293939 249.16666666666666 43.132578230145 249.16666666666666 C 43.147504779723 249.16666666666666 43.154968054512 194.35 43.16989460409 194.35 C 43.3773033086976 194.35 43.4810076610014 249.16666666666666 43.688416365609 249.16666666666666 C 43.807672463284604 249.16666666666666 43.8673005121224 249.16666666666666 43.986556609798 249.16666666666666 C 44.110032779082395 249.16666666666666 44.1717708637246 207.09545253863928 44.295247033009 189.36666666666667 C 44.407782275901 173.2087858719726 44.464049897347 164.45 44.576585140239 164.45 C 44.8991861698626 164.45 45.0604866846744 249.16666666666666 45.383087714298 249.16666666666666 C 45.605579267432 249.16666666666666 45.716825043999 249.16666666666666 45.939316597133 249.16666666666666 C 46.2798920058298 249.16666666666666 46.450179710178205 249.16666666666666 46.790755118875 249.16666666666666 C 46.9029777638698 249.16666666666666 46.9590890863672 249.16666666666666 47.071311731362 249.16666666666666 C 47.2925528929088 249.16666666666666 47.4031734736822 249.16666666666666 47.624414635229 249.16666666666666 C 47.8530799968274 249.16666666666666 47.9674126776266 249.16666666666666 48.196078039225 249.16666666666666 C 48.3057999010446 249.16666666666666 48.3606608319544 249.16666666666666 48.470382693774 249.16666666666666 C 48.488357072846796 249.16666666666666 48.4973442623832 204.31666666666663 48.515318641456 199.33333333333331 C 48.627853884348 194.35 48.684121505793996 194.35 48.796656748686 194.35 C 48.909191991578 194.35 48.965459613023995 249.16666666666666 49.077994855916 249.16666666666666 C 49.4073948897976 249.16666666666666 49.5720949067384 249.16666666666666 49.90149494062 249.16666666666666 C 50.0258307541208 249.16666666666666 50.0879986608712 249.16666666666666 50.212334474372 249.16666666666666 C 50.5463453272332 249.16666666666666 50.7133507536638 154.48333333333332 51.047361606525 154.48333333333332 C 51.370822280365005 154.48333333333332 51.532552617285 249.16666666666666 51.856013291125 249.16666666666666 C 51.964797359253794 249.16666666666666 52.0191893933182 249.16666666666666 52.127973461447 249.16666666666666 C 52.243243935936995 249.16666666666666 52.300879173182 249.16666666666666 52.416149647672 249.16666666666666 C 52.499144389304796 249.16666666666666 52.540641760121204 249.16666666666666 52.623636501754 249.16666666666666 C 52.7656340964308 249.16666666666666 52.83663289376919 249.16666666666666 52.978630488446 249.16666666666666 C 53.218940121704804 249.16666666666666 53.33909493833421 249.16666666666666 53.579404571593 249.16666666666666 C 56.7257805535874 249.16666666666666 58.2989685445846 249.16666666666666 61.445344526579 249.16666666666666 C 61.55858311473901 249.16666666666666 61.615202408819 249.16666666666666 61.728440996979 249.16666666666666 C 61.7586066940318 249.16666666666666 61.7736895425582 249.16666666666666 61.803855239611 249.16666666666666 C 63.463750072267 249.16666666666666 64.293697488595 249.16666666666666 65.953592321251 249.16666666666666 C 65.95546790863258 249.16666666666666 65.9564057023234 139.5333333333333 65.958281289705 139.5333333333333 C 66.0714417283906 139.5333333333333 66.1280219477334 154.82900337322772 66.241182386419 169.4333333333333 C 66.4678158616878 198.68233670656107 66.5811325993222 249.16666666666666 66.807766074591 249.16666666666666 C 66.9181131322042 249.16666666666666 66.9732866610108 149.5 67.083633718624 149.5 C 67.30870420440799 149.5 67.4212394473 249.16666666666666 67.646309933084 249.16666666666666 C 67.8669258988368 249.16666666666666 67.9772338817132 249.16666666666666 68.197849847466 249.16666666666666 C 68.29209811338801 249.16666666666666 68.33922224634901 249.16666666666666 68.433470512271 249.16666666666666 C 69.476375245877 249.16666666666666 69.99782761268 249.16666666666666 71.040732346286 249.16666666666666 C 71.48102648410081 249.16666666666666 71.7011735530082 249.16666666666666 72.141467690823 249.16666666666666 C 72.7066446884578 249.16666666666666 72.9892331872752 197.00357243318314 73.55441018491 162.7888888888889 C 73.77948067069399 149.16357243318313 73.892015913586 149.05703703703745 74.11708639937 129.56666666666666 C 74.22962164226199 119.82148148148188 74.28588926370799 89.69999999999999 74.3984245066 89.69999999999999 C 74.5109597494916 89.69999999999999 74.56722737093739 139.9560764501199 74.679762613829 156.14444444444445 C 75.010647487721 203.74274311678656 75.17608992466701 249.16666666666666 75.506974798559 249.16666666666666 C 75.626230896235 249.16666666666666 75.68585894507301 199.33333333333334 75.805115042749 189.36666666666667 C 75.91765028564059 179.4 75.97391790708639 179.4 76.086453149978 179.4 C 76.2028958665816 179.4 76.2611172248834 209.3 76.377559941487 209.3 C 76.7112581964514 209.3 76.87810732393359 156.14444444444445 77.211805578898 156.14444444444445 C 77.4366416162592 156.14444444444445 77.5490596349398 249.16666666666666 77.773895672301 249.16666666666666 C 77.8669716961094 249.16666666666666 77.9135097080136 249.16666666666666 78.006585731822 249.16666666666666 C 78.25134988511199 249.16666666666666 78.37373196175699 156.14444444444445 78.618496115047 156.14444444444445 C 78.9457861131242 156.14444444444445 79.1094311121628 249.16666666666666 79.43672111024 249.16666666666666 C 79.5595720837304 249.16666666666666 79.6209975704756 169.4333333333333 79.743848543966 169.4333333333333 C 80.08145427264199 169.4333333333333 80.25025713698001 169.4333333333333 80.587862865656 169.4333333333333 C 80.7977723534388 169.4333333333333 80.9027270973302 249.16666666666666 81.112636585113 249.16666666666666 C 81.22056100902539 249.16666666666666 81.27452322098159 249.16666666666666 81.382447644894 249.16666666666666 C 81.7331043357664 249.16666666666666 81.9084326812026 249.16666666666666 82.259089372075 249.16666666666666 C 82.4755634156934 249.16666666666666 82.5838004375026 249.16666666666666 82.800274481121 249.16666666666666 C 83.1401465445494 249.16666666666666 83.3100825762636 249.16666666666666 83.649954639692 249.16666666666666 C 83.76186468679 249.16666666666666 83.817819710339 249.16666666666666 83.929729757437 249.16666666666666 C 83.9434059154274 249.16666666666666 83.9502439944226 156.14444444444445 83.963920152413 156.14444444444445 C 84.17359519177339 156.14444444444445 84.27843271145359 249.16666666666666 84.488107750814 249.16666666666666 C 84.6160384401296 249.16666666666666 84.6800037847874 156.14444444444445 84.807934474103 156.14444444444445 C 84.92046971699502 156.14444444444445 84.97673733844101 164.7822222221964 85.089272581333 179.4 C 85.2018078242246 194.01777777775195 85.2580754456704 219.49373081275309 85.370610688562 229.23333333333335 C 85.5805201763452 247.40039747941972 85.68547492023681 249.16666666666666 85.89538440802 249.16666666666666 C 86.5716118085368 249.16666666666666 86.90972550879519 249.16666666666666 87.585952909312 249.16666666666666 C 87.70747534174039 249.16666666666666 87.7682365579546 249.16666666666666 87.889758990383 249.16666666666666 C 88.3450578272498 249.16666666666666 88.57270724568319 202.6555555555555 89.02800608255 196.0111111111111 C 89.253076568334 189.36666666666667 89.36561181122599 196.0111111111111 89.59068229701 189.36666666666667 C 89.9282880256856 182.72222222222226 90.0970908900234 129.56666666666666 90.434696618699 129.56666666666666 C 90.6494513738846 129.56666666666666 90.75682875147739 249.16666666666666 90.971583506663 249.16666666666666 C 90.98189923726139 249.16666666666666 90.9870571025606 162.7888888888889 90.997372833159 156.14444444444445 C 91.109908076051 149.5 91.166175697497 149.5 91.278710940389 149.5 C 91.48932377344019 149.5 91.5946301899658 249.16666666666666 91.805243023017 249.16666666666666 C 92.26984164731701 249.16666666666666 92.502140959467 139.5333333333333 92.966739583767 139.5333333333333 C 93.3788217613846 139.5333333333333 93.58486285019339 161.15200231482055 93.996945027811 179.4 C 94.0350038217614 181.08533564815392 94.0540332187366 189.36666666666665 94.092092012687 189.36666666666665 C 94.20462725557901 189.36666666666665 94.26089487702501 149.5 94.373430119917 149.5 C 94.59850060570061 149.5 94.7110358485924 149.5 94.936106334376 149.5 C 95.048641577268 149.5 95.10490919871401 189.36666666666665 95.217444441606 189.36666666666665 C 95.66758541317361 189.36666666666665 95.8926558989574 189.36666666666665 96.342796870525 179.4 C 96.567867356309 169.43333333333337 96.680402599201 109.63333333333333 96.905473084985 109.63333333333333 C 97.018008327877 109.63333333333333 97.074275949323 140.19777777776605 97.186811192215 149.5 C 97.4118816779986 168.1044444444327 97.5244169208904 179.4 97.749487406674 179.4 C 97.862022649566 179.4 97.91829027101201 129.56666666666666 98.030825513904 129.56666666666666 C 98.48096648547161 129.56666666666666 98.70603697125541 169.4333333333333 99.156177942823 169.4333333333333 C 99.26871318571501 169.4333333333333 99.32498080716101 145.1146666666782 99.437516050053 139.5333333333333 C 99.88765702161982 117.20800000001154 100.1127275074032 99.66666666666666 100.56286847897 99.66666666666666 C 100.85796089366599 99.66666666666666 101.00550710101399 149.5 101.30059951571 149.5 C 101.34311282969 149.5 101.36436948667999 139.5333333333333 101.40688280066 139.5333333333333 C 101.63195328644399 139.5333333333333 101.744488529336 146.3106666666666 101.96955901512 149.5 C 102.307164743796 154.28399999999996 102.47596760813398 159.46666666666667 102.81357333681 159.46666666666667 C 103.03864382259398 159.46666666666667 103.151179065486 129.56666666666666 103.37624955127 129.56666666666666 C 103.488784794162 129.56666666666666 103.54505241560801 139.5333333333333 103.6575876585 139.5333333333333 C 103.88265814428401 139.5333333333333 103.995193387176 139.5333333333333 104.22026387296 139.5333333333333 C 104.332799115852 139.5333333333333 104.38906673729801 179.4 104.50160198019 179.4 C 104.614137223082 179.4 104.67040484452801 129.56666666666666 104.78294008742 129.56666666666666 C 104.895475330312 129.56666666666666 104.951742951758 135.54666666666665 105.06427819465 139.5333333333333 C 105.176813437542 143.51999999999998 105.233081058988 149.5 105.34561630188 149.5 C 105.795757273448 149.5 106.02082775923199 149.5 106.4709687308 149.5 C 106.696039216584 149.5 106.80857445947599 129.56666666666666 107.03364494526 129.56666666666666 C 107.483785916828 129.56666666666666 107.70885640261199 129.56666666666666 108.15899737418 139.5333333333333 C 108.27153261707201 149.49999999999994 108.32780023851801 169.4333333333333 108.44033548141 169.4333333333333 C 108.665405967194 169.4333333333333 108.77794121008601 139.5333333333333 109.00301169587 139.5333333333333 C 109.11554693876201 139.5333333333333 109.171814560208 139.5333333333333 109.2843498031 139.5333333333333 C 109.509420288884 139.5333333333333 109.62195553177601 149.5 109.84702601756 149.5 C 109.959561260452 149.5 110.015828881898 139.5333333333333 110.12836412479 139.5333333333333 C 110.240899367682 139.5333333333333 110.297166989128 149.5 110.40970223202 149.5 C 110.522237474912 149.5 110.578505096358 129.56666666666663 110.69104033925 124.58333333333331 C 110.803575582142 119.6 110.859843203588 119.6 110.97237844648 119.6 C 111.64758990382799 119.6 111.985195632502 129.56666666666666 112.66040708985 129.56666666666666 C 113.44815379009401 129.56666666666666 113.84202714021599 119.6 114.62977384046 119.6 C 114.74230908335201 119.6 114.79857670479801 149.5 114.91111194769 149.5 C 115.02364719058201 149.5 115.07991481202801 149.5 115.19245005492 149.5 C 115.30498529781201 149.5 115.361252919258 139.5333333333333 115.47378816215 139.5333333333333 C 115.811393890826 139.5333333333333 115.980196755164 179.4 116.31780248384 179.4 C 116.430337726732 179.4 116.486605348178 139.5333333333333 116.59914059107 139.5333333333333 C 116.93674631974599 139.5333333333333 117.105549184084 179.4 117.44315491276 179.4 C 117.668225398544 179.4 117.78076064143599 139.5333333333333 118.00583112722 139.5333333333333 C 118.23090161300402 139.5333333333333 118.34343685589602 148.835555555556 118.56850734168 159.46666666666667 C 118.68104258457201 164.78222222222269 118.737310206018 179.4 118.84984544891 179.4 C 118.962380691802 179.4 119.01864831324801 139.5333333333333 119.13118355614 139.5333333333333 C 119.35625404192402 139.5333333333333 119.46878928481601 159.46666666666667 119.6938597706 159.46666666666667 C 119.80639501349201 159.46666666666667 119.86266263493799 129.56666666666666 119.97519787783 129.56666666666666 C 120.20026836361399 129.56666666666666 120.31280360650598 169.4333333333333 120.53787409229 169.4333333333333 C 120.76294457807398 169.4333333333333 120.87547982096598 154.2840000000001 121.10055030675 149.5 C 121.438156035426 142.32400000000013 121.60695889976401 139.5333333333333 121.94456462844 139.5333333333333 C 122.057099871332 139.5333333333333 122.113367492778 149.5 122.22590273567 149.5 C 122.338437978562 149.5 122.394705600008 129.56666666666666 122.5072408429 129.56666666666666 C 122.844846571576 129.56666666666666 123.013649435914 149.5 123.35125516459 149.5 C 123.463790407482 149.5 123.52005802892799 139.5333333333333 123.63259327182 139.5333333333333 C 123.745128514712 139.5333333333333 123.80139613615799 159.46666666666667 123.91393137905 159.46666666666667 C 124.02646662194199 159.46666666666667 124.08273424338799 109.63333333333333 124.19526948628 109.63333333333333 C 124.420339972064 109.63333333333333 124.532875214956 133.55333333333303 124.75794570074 149.5 C 124.87048094363199 157.473333333333 124.92674856507799 169.4333333333333 125.03928380797 169.4333333333333 C 125.37688953664602 169.4333333333333 125.545692400984 163.95166666666682 125.88329812966 159.46666666666667 C 126.44597434411999 151.99166666666682 126.72731245135 139.5333333333333 127.28998866581 139.5333333333333 C 127.852664880266 139.5333333333333 128.13400298749397 139.5333333333333 128.69667920195 139.5333333333333 C 128.80921444484198 139.5333333333333 128.865482066288 169.4333333333333 128.97801730918 169.4333333333333 C 129.09055255207198 169.4333333333333 129.14682017351797 169.4333333333333 129.25935541641 169.4333333333333 C 129.37189065930198 169.4333333333333 129.428158280748 149.5 129.54069352364 149.5 C 129.65322876653198 149.5 129.70949638797796 149.5 129.82203163087 149.5 C 129.93456687376198 149.5 129.990834495208 149.5 130.1033697381 149.5 C 130.215904980992 149.5 130.27217260243802 139.5333333333333 130.38470784533 139.5333333333333 C 130.72231357400602 139.5333333333333 130.891116438344 139.5333333333333 131.22872216702 139.5333333333333 C 131.678863138588 139.5333333333333 131.903933624372 149.5 132.35407459594 149.5 C 132.466609838832 149.5 132.522877460278 99.66666666666666 132.63541270317 99.66666666666666 C 132.747947946062 99.66666666666666 132.804215567508 139.5333333333333 132.9167508104 139.5333333333333 C 133.704497510644 139.5333333333333 134.098370860766 139.5333333333333 134.88611756101 139.5333333333333 C 134.998652803902 139.5333333333333 135.054920425348 149.5 135.16745566824 149.5 C 135.39252615402398 149.5 135.505061396916 149.5 135.7301318827 149.5 C 136.067737611376 149.5 136.23654047571398 169.4333333333333 136.57414620439 169.4333333333333 C 136.79921669017398 169.4333333333333 136.911751933066 150.1644444444444 137.13682241885 139.5333333333333 C 137.24935766174198 134.21777777777777 137.305625283188 129.56666666666666 137.41816052608 129.56666666666666 C 138.318442469216 129.56666666666666 138.768583440784 139.5333333333333 139.66886538392 139.5333333333333 C 140.23154159838 139.5333333333333 140.51287970561003 129.56666666666666 141.07555592007 129.56666666666666 C 141.18809116296202 129.56666666666666 141.244358784408 139.5333333333333 141.3568940273 139.5333333333333 C 141.76327520077203 139.5333333333333 141.966465787508 139.5333333333333 142.37284696098 139.5333333333333 C 143.95448030515598 139.5333333333333 144.745296977244 149.5 146.32693032142 149.5 C 148.68358111898402 149.5 149.86190651776602 142.87454476521324 152.21855731533 139.5333333333333 C 155.485723729678 134.90121143187991 157.11930693685198 129.56666666666666 160.3864733512 129.56666666666666 C 161.61718950626 129.56666666666666 162.23254758379 179.4 163.46326373885 179.4 C 163.57107093855 179.4 163.62497453839998 129.56666666666666 163.7327817381 129.56666666666666 C 163.85486163677598 129.56666666666666 163.915901586114 129.56666666666666 164.03798148479 129.56666666666666 C 164.36934697795 129.56666666666666 164.53502972453003 139.5333333333333 164.86639521769 139.5333333333333 C 165.08880601636602 139.5333333333333 165.200011415704 139.5333333333333 165.42242221438 139.5333333333333 C 165.769792719864 139.5333333333333 165.943477972606 139.5333333333333 166.29084847809 139.5333333333333 C 166.619244291226 139.5333333333333 166.78344219779402 149.5 167.11183801093 149.5 C 169.51991767498998 149.5 170.72395750701997 129.56666666666666 173.13203717108 129.56666666666666 C 175.554747719208 129.56666666666666 176.766102993272 149.5 179.1888135414 149.5 C 179.41829816998802 149.5 179.53304048428203 149.5 179.76252511287 149.5 C 179.87904988642202 149.5 179.937312273198 139.5333333333333 180.05383704675 139.5333333333333 C 182.070830691938 139.5333333333333 183.079327514532 139.5333333333333 185.09632115972 139.5333333333333 C 197.71177717618798 139.5333333333333 204.019505184422 139.5333333333333 216.63496120089 139.5333333333333 C 216.877383474934 139.5333333333333 216.998594611956 139.5333333333333 217.241016886 139.5333333333333 C 218.921211044588 139.5333333333333 219.761308123882 129.56666666666666 221.44150228247 129.56666666666666 C 222.008312604114 129.56666666666666 222.29171776493598 139.5333333333333 222.85852808658 139.5333333333333 C 222.96361047461602 139.5333333333333 223.01615166863402 129.56666666666666 223.12123405667 129.56666666666666 C 223.241250809226 129.56666666666666 223.30125918550402 139.5333333333333 223.42127593806 139.5333333333333 C 223.75547825713602 139.5333333333333 223.92257941667398 139.5333333333333 224.25678173575 139.5333333333333 C 224.362995988666 139.5333333333333 224.416103115124 139.5333333333333 224.52231736804 139.5333333333333 C 224.639257636296 139.5333333333333 224.697727770424 129.56666666666666 224.81466803868 129.56666666666666 C 224.926275907812 129.56666666666666 224.98207984237797 129.56666666666666 225.09368771151 129.56666666666666 C 225.438678565498 129.56666666666666 225.611173992492 129.56666666666666 225.95616484648 139.5333333333333 C 226.170336085592 149.49999999999994 226.277421705148 179.4 226.49159294426 179.4 C 226.607879361916 179.4 226.66602257074402 139.5333333333333 226.7823089884 139.5333333333333 C 226.891670060148 139.5333333333333 226.946350596022 139.5333333333333 227.05571166777 139.5333333333333 C 227.167316931918 139.5333333333333 227.223119563992 139.5333333333333 227.33472482814 139.5333333333333 C 227.44663227025598 139.5333333333333 227.50258599131402 139.5333333333333 227.61449343343 139.5333333333333 C 227.728329865066 139.5333333333333 227.785248080884 139.5333333333333 227.89908451252 139.5333333333333 C 228.119959674028 139.5333333333333 228.23039725478202 139.5333333333333 228.45127241629 139.5333333333333 C 228.67708532208198 139.5333333333333 228.78999177497798 139.5333333333333 229.01580468077 139.5333333333333 C 229.35288550547403 139.5333333333333 229.52142591782598 139.5333333333333 229.85850674253 139.5333333333333 C 230.079913320466 139.5333333333333 230.19061660943402 139.5333333333333 230.41202318737 139.5333333333333 C 230.533476587762 139.5333333333333 230.594203287958 139.5333333333333 230.71565668835 139.5333333333333 C 230.82123793052602 139.5333333333333 230.874028551614 129.56666666666666 230.97960979379 129.56666666666666 C 231.09974898052596 129.56666666666666 231.15981857389403 139.5333333333333 231.27995776063 139.5333333333333 C 231.390216248838 139.5333333333333 231.44534549294204 139.5333333333333 231.55560398115 139.5333333333333 C 231.68548710483 139.5333333333333 231.75042866667 139.5333333333333 231.88031179035 139.5333333333333 C 232.08874555556199 139.5333333333333 232.19296243816797 139.5333333333333 232.40139620338 139.5333333333333 C 232.61896824711198 139.5333333333333 232.72775426897798 119.6 232.94532631271 119.6 C 233.061223285486 119.6 233.11917177187397 125.46541703758005 233.23506874465 129.56666666666666 C 233.34448973099398 133.4387503709134 233.399200224166 139.5333333333333 233.50862121051 139.5333333333333 C 233.856822705398 139.5333333333333 234.030923452842 139.5333333333333 234.37912494773 139.5333333333333 C 234.93403049947 139.5333333333333 235.21148327534002 139.5333333333333 235.76638882708 139.5333333333333 C 235.89018410671602 139.5333333333333 235.952081746534 139.5333333333333 236.07587702617 139.5333333333333 C 236.175119043498 139.5333333333333 236.224740052162 139.5333333333333 236.32398206949 139.5333333333333 C 236.66079327850997 139.5333333333333 236.82919888302004 139.5333333333333 237.16601009204 139.5333333333333 C 237.621181284764 139.5333333333333 237.84876688112598 129.56666666666666 238.30393807385 129.56666666666666 C 238.63784863488598 129.56666666666666 238.804803915404 139.5333333333333 239.13871447644 139.5333333333333 C 239.58914329857197 139.5333333333333 239.814357709638 129.56666666666666 240.26478653177 129.56666666666666 C 240.604563513338 129.56666666666666 240.774452004122 139.5333333333333 241.11422898569 139.5333333333333 C 241.23126824328202 139.5333333333333 241.28978787207802 139.5333333333333 241.40682712967 139.5333333333333 C 241.73887252325403 139.5333333333333 241.904895220046 122.97599844540788 242.23694061363 119.6 C 243.473325210554 107.02933177874121 244.091517509016 110.62884709442513 245.32790210594 99.66666666666666 C 245.44044255879598 98.6688470944251 245.49671278522402 89.69999999999999 245.60925323808 89.69999999999999 C 245.72480895814797 89.69999999999999 245.78258681818198 91.28685300708452 245.89814253825 99.66666666666666 C 246.002487716246 107.23351967375119 246.05466030524403 129.56666666666666 246.15900548324 129.56666666666666 C 246.27263742375197 129.56666666666666 246.329453394008 99.66666666666666 246.44308533452 99.66666666666666 C 246.780090614736 99.66666666666666 246.94859325484398 117.80319881166844 247.28559853506 129.56666666666666 C 247.405440753792 133.74986547833512 247.46536186315797 139.5333333333333 247.58520408189 139.5333333333333 C 247.92055129076198 139.5333333333333 248.08822489519798 99.66666666666666 248.42357210407 99.66666666666666 C 248.757460522754 99.66666666666666 248.92440473209598 105.64045984944681 249.25829315078 129.56666666666666 C 249.36947380278397 137.53379318278016 249.425064128786 179.4 249.53624478079 179.4 C 249.761565344894 179.4 249.87422562694601 139.5333333333333 250.09954619105 139.5333333333333 C 250.22142029611 139.5333333333333 250.28235734863998 139.5333333333333 250.4042314537 139.5333333333333 C 250.62665788227196 139.5333333333333 250.73787109655797 179.4 250.96029752513 179.4 C 251.415334561258 179.4 251.642853079322 139.5333333333333 252.09789011545 139.5333333333333 C 252.202527051482 139.5333333333333 252.25484551949802 139.5333333333333 252.35948245553 139.5333333333333 C 252.58538262822998 139.5333333333333 252.69833271458 139.5333333333333 252.92423288728 139.5333333333333 C 253.369070114532 139.5333333333333 253.591488728158 89.69999999999999 254.03632595541 89.69999999999999 C 254.14993966104603 89.69999999999999 254.20674651386398 99.66666666666666 254.3203602195 99.66666666666666 C 254.546128840584 99.66666666666666 254.659013151126 99.66666666666666 254.88478177221 99.66666666666666 C 254.998404595286 99.66666666666666 255.055216006824 189.36666666666665 255.1688388299 189.36666666666665 C 255.5107961818 189.36666666666665 255.68177485774999 109.63333333333333 256.02373220965 99.66666666666666 C 256.246581947874 89.69999999999999 256.358006816986 89.69999999999999 256.58085655521 89.69999999999999 C 256.81758173258606 89.69999999999999 256.935944321274 139.5333333333333 257.17266949865 139.5333333333333 C 258.069605341794 139.5333333333333 258.51807326336603 118.04325198119187 259.41500910651 109.63333333333333 C 260.64400597313795 98.10991864785855 261.258504406452 89.69999999999999 262.48750127308 89.69999999999999 C 263.164592225288 89.69999999999999 263.503137701392 89.69999999999999 264.1802286536 89.69999999999999 C 265.417887086952 89.69999999999999 266.036716303628 139.5333333333333 267.27437473698 139.5333333333333 C 268.9756705561 139.5333333333333 269.82631846566 99.66666666666666 271.52761428478 99.66666666666666 C 274.00331017644004 99.66666666666666 275.24115812227 122.53687823594237 277.71685401393 129.56666666666666 C 280.857130429458 138.48354490260905 282.427268637222 139.5333333333333 285.56754505275 139.5333333333333 C 288.504720102194 139.5333333333333 289.973307626916 139.5333333333333 292.91048267636 139.5333333333333 C 294.13464078804 139.5333333333333 294.74671984388 139.5333333333333 295.97087795556 139.5333333333333 C 296.314049229292 139.5333333333333 296.48563486615797 139.5333333333333 296.82880613989 139.5333333333333 C 296.87203061409 139.5333333333333 296.89364285119 139.5333333333333 296.93686732539 139.5333333333333 C 297.61207878273797 139.5333333333333 297.94968451141193 139.5333333333333 298.62489596876 139.5333333333333 C 299.810462567576 139.5333333333333 300.403245866984 129.56666666666666 301.5888124658 129.56666666666666 C 302.316344996148 129.56666666666666 302.680111261322 139.5333333333333 303.40764379167 139.5333333333333 C 306.296555028322 139.5333333333333 307.741010646648 119.6 310.6299218833 119.6 C 310.856447251796 119.6 310.969709936044 139.5333333333333 311.19623530454 139.5333333333333 C 311.531942000992 139.5333333333333 311.699795349218 129.56666666666666 312.03550204567 129.56666666666666 C 312.74816273107 129.56666666666666 313.10449307377 133.23432298234283 313.81715375917 139.5333333333333 C 314.006584177234 141.20765631567616 314.101299386266 149.5 314.29072980433 149.5 C 315.339187058078 149.5 315.863415684952 149.0910959647175 316.9118729387 139.5333333333333 C 318.487366339188 125.17109596471752 319.27511303943203 89.69999999999999 320.85060643992 89.69999999999999 C 323.2896593456 89.69999999999999 324.50918579844 139.5333333333333 326.94823870412 139.5333333333333 C 327.285422425636 139.5333333333333 327.454014286394 99.66666666666666 327.79119800791 99.66666666666666 C 328.02287472925 99.66666666666666 328.13871308992003 129.56666666666666 328.37038981126 129.56666666666666 C 328.73853374948004 129.56666666666666 328.92260571859003 49.833333333333314 329.29074965681 49.833333333333314 C 330.380644366782 49.833333333333314 330.925591721768 49.833333333333314 332.01548643174 49.833333333333314 C 332.276014636472 49.833333333333314 332.406278738838 139.5333333333333 332.66680694357 139.5333333333333 C 332.77934218646203 139.5333333333333 332.835609807908 139.5333333333333 332.9481450508 139.5333333333333 C 334.861244179964 139.5333333333333 335.817793744546 149.5 337.73089287371 149.5 C 339.98159773155004 149.5 341.10695016047003 129.56666666666666 343.35765501831 129.56666666666666 C 345.11054121284207 129.56666666666666 345.98698431010797 139.29170827628886 347.73987050464 139.5333333333333 C 403.830099156556 147.2650416096222 431.875213482514 149.5 487.96544213443 149.5 C 488.12830563872603 149.5 488.209737390874 149.5 488.37260089517 149.5 C 488.485136138062 149.5 488.541403759508 149.5 488.6539390024 149.5 C 488.76978257303597 149.5 488.827704358354 149.5 488.94354792899 149.5 C 489.277845329922 149.5 489.444994030388 199.33333333333331 489.77929143132 199.33333333333331 C 489.891826674212 199.33333333333331 489.94809429565805 199.33333333333331 490.06062953855 199.33333333333331 C 490.17316478144204 199.33333333333331 490.22943240288805 199.33333333333331 490.34196764578 199.33333333333331 C 490.567038131564 199.33333333333331 490.679573374456 169.4333333333308 490.90464386024 149.5 C 491.12971434602406 129.56666666666413 491.242249588916 99.66666666666666 491.4673200747 99.66666666666666 C 492.25506677494405 99.66666666666666 492.648940125066 199.33333333333331 493.43668682531 199.33333333333331 C 493.549222068202 199.33333333333331 493.60548968964804 199.33333333333331 493.71802493254 199.33333333333331 C 493.830560175432 199.33333333333331 493.886827796878 199.33333333333331 493.99936303977 199.33333333333331 C 494.11189828266197 199.33333333333331 494.168165904108 199.33333333333331 494.280701147 199.33333333333331 C 494.618306875676 199.33333333333331 494.787109740014 99.66666666666666 495.12471546869 99.66666666666666 C 495.23725071158196 99.66666666666666 495.293518333028 99.66666666666666 495.40605357592 99.66666666666666 C 495.743659304596 99.66666666666666 495.912462168934 129.566666666665 496.25006789761 149.5 C 496.58767362628595 169.43333333333166 496.75647649062404 199.33333333333331 497.0940822193 199.33333333333331 C 498.331969891112 199.33333333333331 498.950913727018 149.5 500.18880139883 149.5 C 500.30133664171797 149.5 500.357604263162 149.5 500.47013950605 149.5 C 500.582674748942 149.5 500.63894237038795 99.66666666666666 500.75147761328 99.66666666666666 C 501.201618584848 99.66666666666666 501.426689070632 149.5 501.8768300422 149.5 C 502.21443577087604 149.5 502.383238635214 149.5 502.72084436389 149.5 C 502.833379606782 149.5 502.889647228228 199.33333333333331 503.00218247112 199.33333333333331 C 503.33978819979603 199.33333333333331 503.508591064134 149.5 503.84619679281 149.5 C 503.958732035702 149.5 504.014999657148 199.33333333333331 504.12753490004 199.33333333333331 C 505.02781684317597 199.33333333333331 505.47795781474395 199.33333333333331 506.37823975788 199.33333333333331 C 506.60331024366405 199.33333333333331 506.715845486556 149.5 506.94091597234 149.5 C 507.391056943908 149.5 507.616127429692 149.5 508.06626840126 149.5 C 508.966550344396 149.5 509.416691315964 149.5 510.3169732591 149.5 C 511.10471995934404 149.5 511.498593309466 199.33333333333331 512.28634000971 199.33333333333331 C 512.398875252602 199.33333333333331 512.4551428740481 149.5 512.56767811694 149.5 C 512.6802133598319 149.5 512.736480981278 199.33333333333331 512.84901622417 199.33333333333331 C 512.961551467062 199.33333333333331 513.017819088508 199.33333333333331 513.1303543314 199.33333333333331 C 513.4679600600759 199.33333333333331 513.6367629244139 149.5 513.97436865309 149.5 C 514.086903895982 149.5 514.143171517428 149.5 514.25570676032 149.5 C 514.368242003212 149.5 514.424509624658 149.5 514.53704486755 149.5 C 514.649580110442 149.5 514.7058477318881 149.5 514.81838297478 149.5 C 514.9309182176719 149.5 514.987185839118 149.5 515.09972108201 149.5 C 515.212256324902 149.5 515.268523946348 149.5 515.38105918924 149.5 C 515.493594432132 149.5 515.549862053578 149.5 515.66239729647 149.5 C 515.774932539358 149.5 515.8312001608019 149.5 515.94373540369 149.5 C 516.056270646582 149.5 516.112538268028 149.5 516.22507351092 149.5 C 516.337608753812 149.5 516.393876375258 149.5 516.50641161815 149.5 C 516.618946861042 149.5 516.675214482488 149.5 516.78774972538 149.5 C 516.900284968272 149.5 516.9565525897181 149.5 517.06908783261 149.5 C 517.1816230755019 149.5 517.2378906969479 149.5 517.35042593984 149.5 C 517.462961182732 149.5 517.5192288041779 149.5 517.63176404707 149.5 C 517.744299289962 149.5 517.8005669114079 149.5 517.9131021543 149.5 C 519.4885955547879 149.5 520.2763422550319 149.5 521.85183565552 149.5 C 521.964370898412 149.5 522.0206385198579 149.5 522.13317376275 149.5 C 522.245709005642 149.5 522.3019766270879 149.5 522.41451186998 149.5 C 522.527047112872 149.5 522.5833147343179 149.5 522.69584997721 149.5 C 522.808385220102 149.5 522.8646528415479 149.5 522.97718808444 149.5 C 523.089723327332 149.5 523.1459909487779 149.5 523.25852619167 149.5 C 523.3710614345621 149.5 523.427329056008 149.5 523.5398642989 149.5 C 523.6523995417921 149.5 523.708667163238 149.5 523.82120240613 149.5 C 523.9337376490221 149.5 523.9900052704681 149.5 524.10254051336 149.5 C 524.215075756252 149.5 524.271343377698 149.5 524.38387862059 149.5 C 524.4964138634821 149.5 524.552681484928 149.5 524.66521672782 149.5 C 524.7777519707121 149.5 524.834019592158 149.5 524.94655483505 149.5 C 525.0590900779421 149.5 525.115357699388 149.5 525.22789294228 149.5 C 525.3404281851721 149.5 525.396695806618 149.5 525.50923104951 149.5 C 526.522048235538 149.5 527.0284568285521 99.66666666666666 528.04127401458 99.66666666666666 C 528.1538092574721 99.66666666666666 528.210076878918 99.66666666666666 528.32261212181 99.66666666666666 C 532.491105077262 99.66666666666666 534.5753515549881 149.5 538.74384451044 149.5 C 538.856379753332 149.5 538.912647374778 149.5 539.02518261767 149.5 C 539.137717860562 149.5 539.193985482008 149.5 539.3065207249 149.5 C 539.419055967792 149.5 539.475323589238 149.5 539.58785883213 149.5 C 539.700394075022 149.5 539.756661696468 149.5 539.86919693936 149.5 C 539.981732182252 149.5 540.0379998036981 149.5 540.15053504659 149.5 C 540.2630702894819 149.5 540.319337910928 149.5 540.43187315382 149.5 C 540.544408396712 149.5 540.600676018158 149.5 540.71321126105 149.5 C 540.825746503942 149.5 540.882014125388 149.5 540.99454936828 149.5 C 541.107084611172 149.5 541.163352232618 149.5 541.27588747551 149.5 C 541.388422718402 149.5 541.444690339848 149.5 541.55722558274 149.5 C 541.669760825632 149.5 541.726028447078 199.33333333333331 541.83856368997 199.33333333333331 C 541.951098932862 199.33333333333331 542.007366554308 149.5 542.1199017972 149.5 C 542.232437040092 149.5 542.2887046615381 149.5 542.40123990443 149.5 C 542.5137751473219 149.5 542.570042768768 149.5 542.68257801166 149.5 C 542.795113254552 149.5 542.851380875998 149.5 542.96391611889 149.5 C 543.076451361782 149.5 543.132718983228 149.5 543.24525422612 149.5 C 543.357789469012 149.5 543.414057090458 149.5 543.52659233335 149.5 C 543.639127576242 149.5 543.695395197688 149.5 543.80793044058 149.5 C 543.920465683472 149.5 543.976733304918 149.5 544.08926854781 149.5 C 544.201803790702 149.5 544.258071412148 149.5 544.37060665504 149.5 C 544.483141897932 149.5 544.5394095193781 149.5 544.65194476227 149.5 C 544.7644800051619 149.5 544.820747626608 149.5 544.9332828695 149.5 C 545.045818112392 149.5 545.102085733838 149.5 545.21462097673 149.5 C 545.327156219622 149.5 545.383423841068 149.5 545.49595908396 149.5 C 545.608494326852 149.5 545.664761948298 149.5 545.77729719119 149.5 C 545.889832434082 149.5 545.946100055528 149.5 546.05863529842 149.5 C 546.171170541312 149.5 546.227438162758 149.5 546.33997340565 149.5 C 546.452508648542 149.5 546.508776269988 199.33333333333331 546.62131151288 199.33333333333331 C 546.733846755772 199.33333333333331 546.7901143772181 149.5 546.90264962011 149.5 C 547.0151848630019 149.5 547.071452484448 149.5 547.18398772734 149.5 C 547.296522970232 149.5 547.352790591678 149.5 547.46532583457 149.5 C 547.577861077462 149.5 547.634128698908 149.5 547.7466639418 149.5 C 547.859199184692 149.5 547.9154668061379 149.5 548.02800204903 149.5 C 548.140537291922 149.5 548.1968049133679 149.5 548.30934015626 149.5 C 548.421875399152 149.5 548.4781430205979 149.5 548.59067826349 149.5 C 548.703213506382 149.5 548.7594811278279 149.5 548.87201637072 149.5 C 548.984551613612 149.5 549.040819235058 149.5 549.15335447795 149.5 C 549.2658897208419 149.5 549.3221573422879 99.66666666666666 549.43469258518 99.66666666666666 C 549.547227828072 99.66666666666666 549.6034954495179 149.5 549.71603069241 149.5 C 549.828565935302 149.5 549.8848335567479 149.5 549.99736879964 149.5 C 550.109904042532 149.5 550.1661716639779 149.5 550.27870690687 149.5 C 550.391242149762 149.5 550.4475097712079 149.5 550.5600450141 149.5 C 550.672580256992 149.5 550.7288478784379 199.33333333333331 550.84138312133 199.33333333333331 C 551.0664536071139 199.33333333333331 551.1789888500059 149.5 551.40405933579 149.5 C 551.5165945786819 149.5 551.5728622001279 149.5 551.68539744302 149.5 C 551.797932685912 149.5 551.8542003073579 149.5 551.96673555025 149.5 C 552.079270793142 149.5 552.1355384145879 149.5 552.24807365748 149.5 C 552.360608900372 149.5 552.52941176471 149.5 552.52941176471 149.5" class="highcharts-graph" data-z-index="1" stroke="#000000" stroke-width="2" stroke-linejoin="round" stroke-linecap="round"></path></g><g data-z-index="0.1" class="highcharts-markers highcharts-series-0 highcharts-spline-series highcharts-color-0 " transform="translate(32,63) scale(1 1)" clip-path="none"></g></g><text x="300" text-anchor="middle" class="highcharts-title" data-z-index="4" style="color:#333333;font-size:18px;fill:#333333;" y="24"><tspan>Sleep Quality Rating Over Time</tspan></text><text x="300" text-anchor="middle" class="highcharts-subtitle" data-z-index="4" style="color:#666666;fill:#666666;" y="46"><tspan>This chart shows how your Sleep Quality Rating changes over time.</tspan></text><g class="highcharts-axis-labels highcharts-xaxis-labels " data-z-index="7"><text x="48.275534542404" style="color:#666666;cursor:default;font-size:11px;fill:#666666;" text-anchor="middle" transform="translate(0,0)" y="381" opacity="1">2014</text><text x="150.96394368129" style="color:#666666;cursor:default;font-size:11px;fill:#666666;" text-anchor="middle" transform="translate(0,0)" y="381" opacity="1">2015</text><text x="253.65235282017" style="color:#666666;cursor:default;font-size:11px;fill:#666666;" text-anchor="middle" transform="translate(0,0)" y="381" opacity="1">2016</text><text x="356.62210006628" style="color:#666666;cursor:default;font-size:11px;fill:#666666;" text-anchor="middle" transform="translate(0,0)" y="381" opacity="1">2017</text><text x="459.31050920517" style="color:#666666;cursor:default;font-size:11px;fill:#666666;" text-anchor="middle" transform="translate(0,0)" y="381" opacity="1">2018</text><text x="561.99891834405" style="color:#666666;cursor:default;font-size:11px;fill:#666666;" text-anchor="middle" transform="translate(0,0)" y="381" opacity="1">2019</text></g><g class="highcharts-axis-labels highcharts-yaxis-labels " data-z-index="7"><text x="17" style="color:#666666;cursor:default;font-size:11px;fill:#666666;" text-anchor="end" transform="translate(0,0)" y="366" opacity="1">0</text><text x="17" style="color:#666666;cursor:default;font-size:11px;fill:#666666;" text-anchor="end" transform="translate(0,0)" y="316" opacity="1">1</text><text x="17" style="color:#666666;cursor:default;font-size:11px;fill:#666666;" text-anchor="end" transform="translate(0,0)" y="266" opacity="1">2</text><text x="17" style="color:#666666;cursor:default;font-size:11px;fill:#666666;" text-anchor="end" transform="translate(0,0)" y="216" opacity="1">3</text><text x="17" style="color:#666666;cursor:default;font-size:11px;fill:#666666;" text-anchor="end" transform="translate(0,0)" y="166" opacity="1">4</text><text x="17" style="color:#666666;cursor:default;font-size:11px;fill:#666666;" text-anchor="end" transform="translate(0,0)" y="116" opacity="1">5</text><text x="17" style="color:#666666;cursor:default;font-size:11px;fill:#666666;" text-anchor="end" transform="translate(0,0)" y="67" opacity="1">6</text></g><a xlink:href="https://quantimo.do" target="_blank">
                    <text x="590" class="highcharts-credits" text-anchor="end" data-z-index="8"
                          style="cursor:pointer;color:#999999;font-size:9px;fill:#999999;" y="395">https://quantimo.do
                    </text>
                </a></svg>