<?xml version="1.0" standalone="no"?><!DOCTYPE svg PUBLIC "-//W3C//DTD SVG 1.1//EN" "http://www.w3.org/Graphics/SVG/1.1/DTD/svg11.dtd"><svg xmlns:xlink="http://www.w3.org/1999/xlink" version="1.1" class="highcharts-root" style="font-family:&quot;Lucida Grande&quot;, &quot;Lucida Sans Unicode&quot;, Arial, Helvetica, sans-serif;font-size:12px;" xmlns="http://www.w3.org/2000/svg" width="600" height="400"><desc>Created with Highstock 6.2.0</desc><defs><clipPath id="highcharts-z0cgafv-372"><rect x="0" y="0" width="541" height="299" fill="none"></rect></clipPath><clipPath id="highcharts-z0cgafv-738"><rect x="0" y="0" width="541" height="299" fill="none"></rect></clipPath><clipPath id="highcharts-z0cgafv-739"><rect x="49" y="63" width="541" height="299" fill="none"></rect></clipPath></defs><rect fill="#ffffff" class="highcharts-background" x="0" y="0" width="600" height="400" rx="0" ry="0"></rect><rect fill="none" class="highcharts-plot-background" x="49" y="63" width="541" height="299"></rect><g class="highcharts-pane-group" data-z-index="0"></g><g class="highcharts-grid highcharts-xaxis-grid " data-z-index="1"><path fill="none" data-z-index="1" class="highcharts-grid-line" d="M 90.5 63 L 90.5 362" opacity="1"></path><path fill="none" data-z-index="1" class="highcharts-grid-line" d="M 179.5 63 L 179.5 362" opacity="1"></path><path fill="none" data-z-index="1" class="highcharts-grid-line" d="M 268.5 63 L 268.5 362" opacity="1"></path><path fill="none" data-z-index="1" class="highcharts-grid-line" d="M 358.5 63 L 358.5 362" opacity="1"></path><path fill="none" data-z-index="1" class="highcharts-grid-line" d="M 447.5 63 L 447.5 362" opacity="1"></path><path fill="none" data-z-index="1" class="highcharts-grid-line" d="M 536.5 63 L 536.5 362" opacity="1"></path></g><g class="highcharts-grid highcharts-yaxis-grid " data-z-index="1"><path fill="none" stroke="#e6e6e6" stroke-width="1" data-z-index="1" class="highcharts-grid-line" d="M 49 362.5 L 590 362.5" opacity="1"></path><path fill="none" stroke="#e6e6e6" stroke-width="1" data-z-index="1" class="highcharts-grid-line" d="M 49 302.5 L 590 302.5" opacity="1"></path><path fill="none" stroke="#e6e6e6" stroke-width="1" data-z-index="1" class="highcharts-grid-line" d="M 49 242.5 L 590 242.5" opacity="1"></path><path fill="none" stroke="#e6e6e6" stroke-width="1" data-z-index="1" class="highcharts-grid-line" d="M 49 183.5 L 590 183.5" opacity="1"></path><path fill="none" stroke="#e6e6e6" stroke-width="1" data-z-index="1" class="highcharts-grid-line" d="M 49 123.5 L 590 123.5" opacity="1"></path><path fill="none" stroke="#e6e6e6" stroke-width="1" data-z-index="1" class="highcharts-grid-line" d="M 49 62.5 L 590 62.5" opacity="1"></path></g><rect fill="none" class="highcharts-plot-border" data-z-index="1" x="49" y="63" width="541" height="299"></rect><g class="highcharts-axis highcharts-xaxis " data-z-index="2"><path fill="none" class="highcharts-tick" stroke="#ccd6eb" stroke-width="1" d="M 90.5 362 L 90.5 372" opacity="1"></path><path fill="none" class="highcharts-tick" stroke="#ccd6eb" stroke-width="1" d="M 179.5 362 L 179.5 372" opacity="1"></path><path fill="none" class="highcharts-tick" stroke="#ccd6eb" stroke-width="1" d="M 268.5 362 L 268.5 372" opacity="1"></path><path fill="none" class="highcharts-tick" stroke="#ccd6eb" stroke-width="1" d="M 358.5 362 L 358.5 372" opacity="1"></path><path fill="none" class="highcharts-tick" stroke="#ccd6eb" stroke-width="1" d="M 447.5 362 L 447.5 372" opacity="1"></path><path fill="none" class="highcharts-tick" stroke="#ccd6eb" stroke-width="1" d="M 536.5 362 L 536.5 372" opacity="1"></path><path fill="none" class="highcharts-axis-line" stroke="#ccd6eb" stroke-width="1" data-z-index="7" d="M 49 362.5 L 590 362.5"></path></g><g class="highcharts-axis highcharts-yaxis " data-z-index="2"><path fill="none" class="highcharts-axis-line" data-z-index="7" d="M 49 63 L 49 362"></path></g><g class="highcharts-series-group" data-z-index="3"><g data-z-index="0.1" class="highcharts-series highcharts-series-0 highcharts-spline-series highcharts-color-0 " transform="translate(49,63) scale(1 1)" clip-path="url(#highcharts-z0cgafv-738)"><path fill="none" d="M 5.3039215686275 299 C 5.3039215686275 299 6.1781943546649405 299 6.7610428786899 299 C 7.3438914027149 299 7.6353156647274005 299 8.2181641887524 299 C 8.8010127127774 299 9.0924369747899 299 9.6752854988149 299 C 10.258134022839739 299 10.549558284852159 299 11.132406808877 299 C 11.7152553329022 299 12.0066795949148 299 12.58952811894 299 C 13.172376642964801 299 13.4638009049772 299 14.046649429002 299 C 14.629497953027201 299 14.9209222150398 299 15.503770739065 299 C 16.0866192630898 299 16.378043525102203 299 16.960892049127 299 C 17.5437405731522 299 17.8351648351648 299 18.41801335919 299 C 19.0008618832148 299 19.2922861452272 299 19.875134669252 299 C 20.457983193277197 299 20.7494074552898 299 21.332255979315 299 C 21.9151045033398 299 22.2065287653522 299 22.789377289377 299 C 23.372225813402203 299 23.6636500754148 299 24.24649859944 299 C 24.8293471234648 299 25.1207713854772 299 25.703619909502 299 C 26.286468433527197 299 26.5778926955398 299 27.160741219565 299 C 27.7435897435898 299 28.0350140056022 299 28.617862529627 299 C 29.200711053652196 299 29.492135315664804 299 30.07498383969 299 C 30.6578323637148 299 30.949256625727195 299 31.532105149752 299 C 32.1149536737772 299 32.4063779357898 299 32.989226459815 299 C 33.5720749838398 299 33.863499245852196 299 34.446347769877 299 C 35.0291962939022 299 35.3206205559148 299 35.90346907994 299 C 36.4863176039648 299 36.777741865977205 299 37.360590390002 299 C 37.9434389140272 299 38.2348631760398 299 38.817711700065 299 C 39.4005602240898 299 39.69198448610219 299 40.274833010127 299 C 40.8576815341522 299 41.1491057961648 299 41.73195432019 299 C 42.314802844214796 299 42.606227106227195 299 43.189075630252 299 C 43.7719241542772 299 44.0633484162898 299 44.646196940315 299 C 45.2290454643398 299 45.520469726352204 299 46.103318250377 299 C 46.686166774402196 299 46.97759103641481 299 47.56043956044 299 C 48.1432880844648 299 48.434712346477205 59.80000000000001 49.017560870502 59.80000000000001 C 49.600409394527205 59.80000000000001 49.8918336565398 59.80000000000001 50.474682180565 59.80000000000001 C 51.057530704589794 59.80000000000001 51.34895496660219 299 51.931803490627 299 C 52.5146520146522 299 52.8060762766648 299 53.38892480069 299 C 53.971773324714796 299 54.2631975867272 299 54.846046110752 299 C 55.428894634776796 299 55.720318896789195 299 56.303167420814 299 C 56.8860159448392 299 57.177440206851806 299 57.760288730877 299 C 58.343137254901805 299 58.6345615169142 299 59.217410040939 299 C 59.8002585649642 299 60.09168282697681 299 60.674531351002 299 C 61.2573798750268 299 61.5488041370392 299 62.131652661064 299 C 62.71450118508919 299 63.0059254471018 299 63.588773971127 299 C 64.1716224951518 299 64.4630467571642 299 65.045895281189 299 C 65.62874380521421 299 65.92016806722681 299 66.503016591252 299 C 67.0858651152768 299 67.3772893772892 299 67.960137901314 299 C 68.5429864253392 299 68.8344106873518 299 69.417259211377 299 C 70.0001077354018 299 70.2915319974142 299 70.874380521439 299 C 71.45722904546419 299 71.7486533074768 299 72.331501831502 299 C 72.91435035552679 299 73.20577461753919 299 73.788623141564 299 C 74.37147166558921 299 74.66289592760181 299 75.245744451627 299 C 75.8285929756518 299 76.1200172376642 299 76.702865761689 299 C 77.28571428571419 299 77.5771385477268 299 78.159987071752 299 C 78.7428355957768 299 79.0342598577892 299 79.617108381814 299 C 80.1999569058392 299 80.4913811678518 299 81.074229691877 299 C 81.65707821590179 299 81.94850247791419 299 82.531351001939 299 C 83.11419952596421 299 83.40562378797681 299 83.988472312002 299 C 84.5713208360268 299 84.8627450980392 299 85.445593622064 299 C 86.02844214608919 299 86.3198664081018 299 86.902714932127 299 C 87.48556345615181 299 87.77698771816421 299 88.359836242189 299 C 88.94268476621421 299 89.23410902822681 299 89.816957552252 299 C 90.3998060762768 299 90.6912303382892 299 91.274078862314 299 C 91.85692738633921 299 92.1483516483518 299 92.731200172377 299 C 93.3140486964018 299 93.6054729584142 299 94.188321482439 299 C 94.77117000646419 299 95.0625942684768 299 95.645442792502 299 C 96.2282913165268 299 96.5197155785392 299 97.102564102564 299 C 97.68541262658921 299 97.97683688860181 299 98.559685412627 299 C 99.70109710550821 299 100.2718029519488 59.80000000000001 101.41321464483 59.80000000000001 C 101.437499999998 59.80000000000001 101.449642677582 299 101.47392803275 299 C 102.056776556774 299 102.348200818786 299 102.93104934281 299 C 103.513897866838 299 103.805322128852 299 104.38817065288 299 C 104.971019176904 299 105.262443438916 299 105.84529196294 299 C 106.98670365582 299 107.55740950226 59.80000000000001 108.69882119514 59.80000000000001 C 109.28166971916801 59.80000000000001 109.573093981182 59.80000000000001 110.15594250521 59.80000000000001 C 110.180227860378 59.80000000000001 110.192370537962 299 110.21665589313 299 C 110.799504417154 299 111.090928679166 299 111.67377720319 299 C 112.81518889607 299 113.38589474251 59.80000000000001 114.52730643539 59.80000000000001 C 114.55159179055799 59.80000000000001 114.563734468142 299 114.58801982331 299 C 115.170868347338 299 115.46229260935199 299 116.04514113338 299 C 116.62798965740399 299 116.919413919416 299 117.50226244344 299 C 118.64367413631999 299 119.21437998276001 59.80000000000001 120.35579167564 59.80000000000001 C 120.380077030808 59.80000000000001 120.39221970839199 299 120.41650506356 299 C 121.120780363424 299 121.47291801335601 59.80000000000001 122.17719331322 59.80000000000001 C 122.63861506140799 59.80000000000001 122.869325935502 299 123.33074768369 299 C 123.913596207714 299 124.205020469726 299 124.78786899375 299 C 125.37071751777398 299 125.662141779786 299 126.24499030381 299 C 127.38640199669399 299 127.95710784313601 59.80000000000001 129.09851953602 59.80000000000001 C 129.122804891188 59.80000000000001 129.13494756877202 299 129.15923292394 299 C 129.742081447964 299 130.033505709976 299 130.616354234 299 C 131.199202758024 299 131.490627020036 299 132.07347554406 299 C 132.656324068088 299 132.947748330102 299 133.53059685413 299 C 134.113445378154 299 134.404869640166 299 134.98771816419 299 C 135.570566688214 299 135.861990950226 299 136.44483947425 299 C 137.027687998274 299 137.319112260286 299 137.90196078431 299 C 138.48480930833801 299 138.776233570352 299 139.35908209438 299 C 139.941930618404 299 140.233354880416 299 140.81620340444 299 C 141.399051928464 299 141.690476190476 299 142.2733247145 299 C 143.414736407384 299 143.98544225382602 59.80000000000001 145.12685394671 59.80000000000001 C 145.151139301878 59.80000000000001 145.163281979462 299 145.18756733463 299 C 145.770415858654 299 146.061840120666 299 146.64468864469 299 C 147.227537168714 299 147.518961430726 299 148.10180995475 299 C 148.684658478774 299 148.976082740786 299 149.55893126481 299 C 150.14177978883802 299 150.433204050852 299 151.01605257488 299 C 151.598901098904 299 151.890325360916 299 152.47317388494 299 C 153.056022408964 299 153.347446670976 299 153.930295195 299 C 154.51314371902401 299 154.804567981036 299 155.38741650506 299 C 155.970265029088 299 156.261689291102 299 156.84453781513 299 C 157.427386339154 299 157.718810601166 299 158.30165912519 299 C 158.88450764921402 299 159.175931911226 299 159.75878043525 299 C 160.341628959274 299 160.633053221286 299 161.21590174531 299 C 161.798750269338 299 162.09017453135203 299 162.67302305538 299 C 163.25587157940402 299 163.547295841416 299 164.13014436544 299 C 164.712992889464 299 165.004417151476 299 165.5872656755 299 C 166.170114199524 299 166.461538461536 299 167.04438698556 299 C 167.62723550958802 299 167.918659771602 299 168.50150829563 299 C 169.084356819654 299 169.375781081666 299 169.95862960569 299 C 170.541478129714 299 170.832902391726 299 171.41575091575 299 C 171.998599439774 299 172.290023701786 299 172.87287222581 299 C 173.455720749838 299 173.74714501185198 299 174.32999353588 299 C 174.912842059904 299 175.204266321916 299 175.78711484594 299 C 176.369963369964 299 176.661387631976 299 177.244236156 299 C 177.82708468002403 299 178.118508942036 299 178.70135746606 299 C 179.284205990088 299 179.57563025210203 299 180.15847877613 299 C 180.741327300154 299 181.032751562166 299 181.61560008619 299 C 182.19844861021403 299 182.489872872226 299 183.07272139625 299 C 183.655569920274 299 183.946994182286 299 184.52984270631 299 C 185.11269123033802 299 185.404115492352 299 185.98696401638 299 C 186.56981254040403 299 186.861236802416 299 187.44408532644 299 C 188.026933850464 299 188.318358112476 299 188.9012066365 299 C 189.484055160524 299 189.775479422536 299 190.35832794656 299 C 190.941176470588 299 191.23260073260198 299 191.81544925663 299 C 192.398297780654 299 192.689722042666 299 193.27257056669 299 C 193.855419090714 299 194.146843352726 299 194.72969187675 299 C 195.31254040077403 299 195.603964662786 299 196.18681318681 299 C 196.769661710838 299 197.06108597285203 299 197.64393449688 299 C 198.226783020904 299 198.518207282916 299 199.10105580694 299 C 199.68390433096403 299 199.975328592976 299 200.558177117 299 C 201.141025641024 299 201.432449903036 299 202.01529842706 299 C 202.598146951088 299 202.889571213102 299 203.47241973713 299 C 204.05526826115403 299 204.346692523166 299 204.92954104719 299 C 205.512389571214 299 205.803813833226 299 206.38666235725 299 C 206.96951088127398 299 207.260935143286 299 207.84378366731 299 C 208.426632191338 299 208.71805645335198 299 209.30090497738 299 C 209.883753501404 299 210.175177763416 299 210.75802628744 299 C 211.34087481146398 299 211.632299073476 299 212.2151475975 299 C 212.79799612152402 299 213.08942038353598 299 213.67226890756 299 C 214.255117431588 299 214.54654169360202 299 215.12939021763 299 C 215.71223874165398 299 216.003663003666 299 216.58651152769 299 C 217.16936005171402 299 217.46078431372598 299 218.04363283775 299 C 218.62648136177398 299 218.917905623786 299 219.50075414781 299 C 220.08360267183798 299 220.37502693385198 299 220.95787545788 299 C 221.54072398190402 299 221.83214824391598 299 222.41499676794 299 C 222.99784529196398 299 223.289269553976 299 223.872118078 299 C 224.45496660202397 299 224.746390864036 299 225.32923938806 299 C 225.912087912088 299 226.20351217410197 299 226.78636069813 299 C 227.36920922215398 299 227.660633484166 299 228.24348200819 299 C 228.82633053221397 299 229.117754794226 299 229.70060331825 299 C 230.28345184227402 299 230.57487610428598 299 231.15772462831 299 C 231.740573152338 299 232.03199741435202 299 232.61484593838 299 C 233.19769446240397 299 233.489118724416 299 234.07196724844 299 C 234.65481577246402 299 234.94624003447598 299 235.5290885585 299 C 236.11193708252398 299 236.403361344536 299 236.98620986856 299 C 237.56905839258798 299 237.86048265460198 299 238.44333117863 299 C 239.02617970265402 299 239.31760396466598 299 239.90045248869 299 C 240.48330101271398 299 240.774725274726 299 241.35757379875 299 C 241.94042232277403 299 242.23184658478598 299 242.81469510881 299 C 243.397543632838 299 243.68896789485203 299 244.27181641888 299 C 244.85466494290398 299 245.146089204916 299 245.72893772894 299 C 246.31178625296403 299 246.60321051497598 299 247.186059039 299 C 247.76890756302402 299 248.06033182503603 299 248.64318034906 299 C 249.22602887308798 299 249.51745313510202 299 250.10030165913 299 C 250.68315018315397 299 250.97457444516598 299 251.55742296919 299 C 252.14027149321402 299 252.43169575522597 299 253.01454427925 299 C 253.59739280327398 299 253.888817065286 299 254.47166558931 299 C 255.05451411333797 299 255.34593837535198 299 255.92878689938 299 C 256.511635423404 299 256.803059685416 299 257.38590820944 299 C 257.96875673346403 299 258.260180995476 299 258.8430295195 299 C 259.425878043524 299 259.717302305536 299 260.30015082956 299 C 260.882999353588 299 261.174423615602 299 261.75727213963 299 C 262.34012066365403 299 262.631544925666 299 263.21439344969 299 C 263.797241973714 299 264.088666235726 299 264.67151475975 299 C 265.254363283774 299 265.54578754578597 299 266.12863606981 299 C 266.711484593838 299 267.002908855852 299 267.58575737988 299 C 268.168605903904 299 268.460030165916 299 269.04287868994 299 C 269.625727213964 299 269.91715147597597 299 270.5 299 C 271.08284852402403 299 271.374272786036 299 271.95712131006 299 C 272.539969834084 299 272.831394096096 299 273.41424262012 299 C 273.997091144148 299 274.288515406162 299 274.87136393019 299 C 275.45421245421403 299 275.745636716226 299 276.32848524025 299 C 276.911333764274 299 277.202758026286 299 277.78560655031 299 C 278.368455074334 299 278.65987933634597 299 279.24272786037 299 C 279.825576384398 299 280.117000646412 299 280.69984917044 299 C 281.282697694464 299 281.574121956476 299 282.1569704805 299 C 282.739819004524 299 283.03124326653597 299 283.61409179056 299 C 284.196940314584 299 284.488364576596 299 285.07121310062 299 C 285.65406162464797 299 285.945485886662 299 286.52833441069 299 C 287.111182934714 299 287.40260719672597 299 287.98545572075 299 C 288.568304244774 299 288.859728506786 299 289.44257703081 299 C 290.025425554834 299 290.316849816846 299 290.89969834087 299 C 291.482546864898 299 291.773971126912 299 292.35681965094 299 C 292.939668174964 299 293.231092436976 299 293.813940961 299 C 294.396789485024 299 294.688213747036 299 295.27106227106 299 C 295.853910795084 299 296.14533505709596 299 296.72818358112 299 C 297.311032105148 299 297.602456367162 299 298.18530489119 299 C 298.768153415214 299 299.059577677226 299 299.64242620125 299 C 300.225274725274 299 300.51669898728596 299 301.09954751131 299 C 301.682396035334 299 301.973820297346 299 302.55666882137 299 C 303.13951734539796 299 303.430941607412 299 304.01379013144 299 C 304.596638655464 299 304.88806291747596 299 305.4709114415 299 C 306.053759965524 299 306.345184227536 299 306.92803275156 299 C 307.510881275584 299 307.802305537596 299 308.38515406162 299 C 308.968002585648 299 309.259426847662 299 309.84227537169 299 C 310.425123895714 299 310.716548157726 299 311.29939668175 299 C 311.882245205774 299 312.173669467786 299 312.75651799181 299 C 313.339366515834 299 313.63079077784596 299 314.21363930187 299 C 314.796487825898 299 315.087912087912 299 315.67076061194 299 C 316.253609135964 299 316.545033397976 299 317.127881922 299 C 317.710730446024 299 318.00215470803596 299 318.58500323206 299 C 319.167851756084 299 319.459276018096 299 320.04212454212 299 C 320.62497306614796 299 320.916397328162 299 321.49924585219 299 C 322.082094376214 299 322.37351863822596 299 322.95636716225 299 C 323.539215686274 299 323.830639948286 299 324.41348847231 299 C 324.996336996334 299 325.287761258346 299 325.87060978237 299 C 326.453458306398 299 326.744882568412 299 327.32773109244 299 C 327.910579616464 299 328.202003878476 299 328.7848524025 299 C 329.367700926524 299 329.659125188536 299 330.24197371256 299 C 330.824822236584 299 331.116246498596 299 331.69909502262 299 C 332.281943546648 299 332.573367808662 299 333.15621633269 299 C 333.739064856714 299 334.030489118726 299 334.61333764275 299 C 335.196186166774 299 335.487610428786 299 336.07045895281 299 C 336.653307476834 299 336.944731738846 299 337.52758026287 299 C 338.110428786898 299 338.401853048912 299 338.98470157294 299 C 339.567550096964 299 339.858974358976 299 340.441822883 299 C 341.024671407024 299 341.316095669036 299 341.89894419306 299 C 342.481792717084 299 342.773216979096 299 343.35606550312 299 C 343.938914027148 299 344.230338289162 299 344.81318681319 299 C 345.396035337214 299 345.687459599226 299 346.27030812325 299 C 346.853156647274 299 347.144580909286 299 347.72742943331 299 C 348.310277957334 299 348.601702219346 299 349.18455074337 299 C 349.767399267398 299 350.058823529412 299 350.64167205344 299 C 351.224520577464 299 351.515944839476 299 352.0987933635 299 C 352.681641887524 299 352.973066149536 299 353.55591467356 299 C 354.138763197584 299 354.43018745959597 299 355.01303598362 299 C 355.595884507648 299 355.887308769662 299 356.47015729369 299 C 357.053005817714 299 357.344430079726 299 357.92727860375 299 C 358.510127127774 299 358.80155138978597 299 359.38439991381 299 C 359.967248437834 299 360.258672699846 299 360.84152122387 299 C 361.42436974789797 299 361.715794009912 299 362.29864253394 299 C 362.881491057964 299 363.17291531997597 299 363.755763844 299 C 364.338612368024 299 364.630036630036 299 365.21288515406 299 C 365.795733678084 299 366.087157940096 299 366.67000646412 299 C 367.252854988148 299 367.544279250162 299 368.12712777419 299 C 368.709976298214 299 369.001400560226 299 369.58424908425 299 C 370.167097608274 299 370.458521870286 299 371.04137039431 299 C 371.624218918334 299 371.91564318034597 299 372.49849170437 299 C 373.081340228398 299 373.372764490412 299 373.95561301444 299 C 374.538461538464 299 374.829885800476 299 375.4127343245 299 C 375.995582848524 299 376.28700711053597 299 376.86985563456 299 C 377.45270415858397 299 377.744128420596 299 378.32697694462 299 C 378.90982546864797 299 379.20124973066197 299 379.78409825469 299 C 380.366946778714 299 380.65837104072597 299 381.24121956475 299 C 381.82406808877397 299 382.115492350786 299 382.69834087481 299 C 383.281189398834 299 383.572613660846 299 384.15546218487 299 C 384.738310708898 299 385.029734970912 299 385.61258349494 299 C 386.19543201896397 299 386.486856280976 299 387.069704805 299 C 387.652553329024 299 387.943977591036 299 388.52682611506 299 C 389.109674639084 299 389.40109890109596 299 389.98394742512 299 C 390.566795949148 299 390.858220211162 299 391.44106873519 299 C 392.023917259214 299 392.315341521226 299 392.89819004525 299 C 394.03960173813 299 394.61030758457 59.80000000000001 395.75171927745 59.80000000000001 C 395.776004632618 59.80000000000001 395.78814731020196 299 395.81243266537 299 C 396.39528118939796 299 396.68670545141197 299 397.26955397544 299 C 397.852402499464 299 398.14382676147596 299 398.7266752855 299 C 399.30952380952397 299 399.600948071536 299 400.18379659556 299 C 400.766645119584 299 401.058069381596 299 401.64091790562 299 C 402.223766429648 299 402.515190691662 299 403.09803921569 299 C 403.68088773971397 299 403.972312001726 299 404.55516052575 299 C 405.138009049774 299 405.429433311786 299 406.01228183581 299 C 406.595130359834 299 406.88655462184596 299 407.46940314587 299 C 408.052251669898 299 408.343675931912 299 408.92652445594 299 C 409.509372979964 299 409.80079724197606 299 410.383645766 299 C 410.966494290024 299 411.25791855203596 299 411.84076707606 299 C 412.42361560008396 299 412.715039862096 299 413.29788838612 299 C 413.88073691014796 299 414.17216117216196 299 414.75500969619 299 C 415.337858220214 299 415.62928248222596 299 416.21213100625 299 C 416.794979530274 299 417.086403792286 299 417.66925231631 299 C 418.252100840334 299 418.54352510234605 299 419.12637362637 299 C 419.709222150398 299 420.000646412412 299 420.58349493644 299 C 421.16634346046396 299 421.457767722476 299 422.0406162465 299 C 422.623464770524 299 422.91488903253605 299 423.49773755656 299 C 424.080586080584 299 424.37201034259596 299 424.95485886662 299 C 425.53770739064805 299 425.829131652662 299 426.41198017669 299 C 426.994828700714 299 427.28625296272605 299 427.86910148675 299 C 428.451950010774 299 428.74337427278596 299 429.32622279681 299 C 429.90907132083396 299 430.200495582846 299 430.78334410687 299 C 431.36619263089796 299 431.657616892912 299 432.24046541694 299 C 432.823313940964 299 433.11473820297596 299 433.697586727 299 C 434.280435251024 299 434.571859513036 299 435.15470803706 299 C 435.737556561084 299 436.02898082309605 299 436.61182934712 299 C 437.194677871148 299 437.486102133162 299 438.06895065719 299 C 438.65179918121396 299 438.943223443226 299 439.52607196725 299 C 440.108920491274 299 440.40034475328605 299 440.98319327731 299 C 441.566041801334 299 441.85746606334595 299 442.44031458737 299 C 443.02316311139805 299 443.314587373412 299 443.89743589744 299 C 444.480284421464 299 444.77170868347605 299 445.3545572075 299 C 445.937405731524 299 446.22882999353595 299 446.81167851756 299 C 447.39452704158396 299 447.68595130359597 299 448.26879982762 299 C 448.85164835164795 299 449.143072613662 299 449.72592113769 299 C 450.308769661714 299 450.60019392372595 299 451.18304244775 299 C 451.765890971774 299 452.05731523378597 299 452.64016375781 299 C 453.36872441284197 299 453.73300474035807 59.80000000000001 454.46156539539 59.80000000000001 C 454.89870178841 59.80000000000001 455.11726998492 299 455.55440637794 299 C 456.13725490196396 299 456.42867916397597 299 457.011527688 299 C 457.594376212024 299 457.88580047403605 299 458.46864899806 299 C 459.051497522084 299 459.34292178409595 299 459.92577030812 299 C 460.50861883214804 299 460.800043094162 299 461.38289161819 299 C 461.965740142214 299 462.25716440422605 299 462.84001292825 299 C 463.422861452274 299 463.71428571428595 299 464.29713423831 299 C 464.87998276233395 299 465.17140702434597 299 465.75425554837 299 C 466.33710407239795 299 466.628528334412 299 467.21137685844 299 C 467.794225382464 299 468.08564964447595 299 468.6684981685 299 C 469.251346692524 299 469.54277095453597 299 470.12561947856 299 C 470.70846800258397 299 470.99989226459604 299 471.58274078862 299 C 472.16558931264797 299 472.45701357466197 299 473.03986209869 299 C 473.62271062271395 299 473.91413488472597 299 474.49698340875 299 C 475.07983193277397 299 475.37125619478604 299 475.95410471881 299 C 476.536953242834 299 476.82837750484595 299 477.41122602887 299 C 477.99407455289804 299 478.285498814912 299 478.86834733894 299 C 479.45119586296397 299 479.74262012497604 299 480.325468649 299 C 480.908317173024 299 481.19974143503595 299 481.78258995906 299 C 482.36543848308395 299 482.65686274509596 299 483.23971126912 299 C 483.82255979314795 299 484.113984055162 299 484.69683257919 299 C 485.279681103214 299 485.57110536522595 299 486.15395388925 299 C 486.736802413274 299 487.02822667528596 299 487.61107519931 299 C 488.19392372333397 299 488.48534798534604 299 489.06819650937 299 C 489.65104503339796 299 489.94246929541197 299 490.52531781944 299 C 491.10816634346395 299 491.39959060547596 59.80000000000001 491.9824391295 59.80000000000001 C 492.56528765352397 59.80000000000001 492.85671191553604 299 493.43956043956 299 C 494.022408963584 299 494.31383322559594 299 494.89668174962 299 C 495.47953027364804 299 495.770954535662 299 496.35380305969 299 C 496.93665158371397 299 497.22807584572604 299 497.81092436975 299 C 498.393772893774 299 498.68519715578594 299 499.26804567981 299 C 499.85089420383395 299 500.14231846584596 299 500.72516698987 299 C 501.30801551389794 299 501.599439775912 299 502.18228829994 299 C 502.765136823964 299 503.05656108597594 299 503.63940961 299 C 504.222258134024 299 504.51368239603596 299 505.09653092006 299 C 505.67937944408396 299 505.97080370609604 299 506.55365223012 299 C 507.13650075414796 299 507.42792501616196 299 508.01077354019 299 C 508.59362206421395 299 508.88504632622596 299 509.46789485025 299 C 510.05074337427396 299 510.34216763628604 299 510.92501616031 299 C 511.507864684334 299 511.79928894634605 299 512.38213747037 299 C 512.964985994398 299 513.256410256412 299 513.83925878044 299 C 514.4221073044639 299 514.713531566476 299 515.2963800905 299 C 515.879228614524 299 516.170652876536 299 516.75350140056 299 C 517.336349924584 299 517.627774186596 299 518.21062271062 299 C 518.793471234648 299 519.0848954966619 299 519.66774402069 299 C 520.250592544714 299 520.542016806726 299 521.12486533075 299 C 521.707713854774 299 521.999138116786 299 522.58198664081 299 C 523.1648351648339 299 523.456259426846 299 524.03910795087 299 C 524.621956474898 299 524.913380736912 299 525.49622926094 299 C 526.079077784964 299 526.370502046976 299 526.953350571 299 C 527.5361990950239 299 527.8276233570359 299 528.41047188106 299 C 528.993320405084 299 529.284744667096 299 529.86759319112 299 C 530.450441715148 299 530.741865977162 299 531.32471450119 299 C 531.9075630252139 299 532.198987287226 299 532.78183581125 299 C 533.364684335274 299 533.656108597286 299 534.23895712131 299 C 534.821805645334 299 535.69607843137 299 535.69607843137 299" class="highcharts-graph" data-z-index="1" stroke="#000000" stroke-width="2" stroke-linejoin="round" stroke-linecap="round"></path></g><g data-z-index="0.1" class="highcharts-markers highcharts-series-0 highcharts-spline-series highcharts-color-0 " transform="translate(49,63) scale(1 1)" clip-path="none"></g></g><text x="300" text-anchor="middle" class="highcharts-title" data-z-index="4" style="color:#333333;font-size:18px;fill:#333333;" y="24"><tspan>Gluten Free Pasta With Olive Oil Over Time</tspan></text><text x="300" text-anchor="middle" class="highcharts-subtitle" data-z-index="4" style="color:#666666;fill:#666666;" y="46"><tspan>This chart shows how your Gluten Free Pasta With Olive Oil changes over time.</tspan></text><g class="highcharts-axis-labels highcharts-xaxis-labels " data-z-index="7"><text x="94.096234647705" style="color:#666666;cursor:default;font-size:11px;fill:#666666;" text-anchor="middle" transform="translate(0,0)" y="381" opacity="1"><tspan>Mar '13</tspan></text><text x="182.98063456152" style="color:#666666;cursor:default;font-size:11px;fill:#666666;" text-anchor="middle" transform="translate(0,0)" y="381" opacity="1"><tspan>May '13</tspan></text><text x="271.86503447533" style="color:#666666;cursor:default;font-size:11px;fill:#666666;" text-anchor="middle" transform="translate(0,0)" y="381" opacity="1"><tspan>Jul '13</tspan></text><text x="362.2065556992" style="color:#666666;cursor:default;font-size:11px;fill:#666666;" text-anchor="middle" transform="translate(0,0)" y="381" opacity="1"><tspan>Sep '13</tspan></text><text x="451.09095561301" style="color:#666666;cursor:default;font-size:11px;fill:#666666;" text-anchor="middle" transform="translate(0,0)" y="381" opacity="1"><tspan>Nov '13</tspan></text><text x="539.97535552683" style="color:#666666;cursor:default;font-size:11px;fill:#666666;" text-anchor="middle" transform="translate(0,0)" y="381" opacity="1"><tspan>Jan '14</tspan></text></g><g class="highcharts-axis-labels highcharts-yaxis-labels " data-z-index="7"><text x="34" style="color:#666666;cursor:default;font-size:11px;fill:#666666;" text-anchor="end" transform="translate(0,0)" y="366" opacity="1">0</text><text x="34" style="color:#666666;cursor:default;font-size:11px;fill:#666666;" text-anchor="end" transform="translate(0,0)" y="306" opacity="1">0.25</text><text x="34" style="color:#666666;cursor:default;font-size:11px;fill:#666666;" text-anchor="end" transform="translate(0,0)" y="246" opacity="1">0.5</text><text x="34" style="color:#666666;cursor:default;font-size:11px;fill:#666666;" text-anchor="end" transform="translate(0,0)" y="186" opacity="1">0.75</text><text x="34" style="color:#666666;cursor:default;font-size:11px;fill:#666666;" text-anchor="end" transform="translate(0,0)" y="126" opacity="1">1</text><text x="34" style="color:#666666;cursor:default;font-size:11px;fill:#666666;" text-anchor="end" transform="translate(0,0)" y="67" opacity="1">1.25</text></g><a xlink:href="https://quantimo.do" target="_blank">
                    <text x="590" class="highcharts-credits" text-anchor="end" data-z-index="8"
                          style="cursor:pointer;color:#999999;font-size:9px;fill:#999999;" y="395">https://quantimo.do
                    </text>
                </a></svg>