<?xml version="1.0" standalone="no"?><!DOCTYPE svg PUBLIC "-//W3C//DTD SVG 1.1//EN" "http://www.w3.org/Graphics/SVG/1.1/DTD/svg11.dtd"><svg xmlns:xlink="http://www.w3.org/1999/xlink" version="1.1" class="highcharts-root" style="font-family:&quot;Lucida Grande&quot;, &quot;Lucida Sans Unicode&quot;, Arial, Helvetica, sans-serif;font-size:12px;" xmlns="http://www.w3.org/2000/svg" width="600" height="400"><desc>Created with Highstock 6.2.0</desc><defs><clipPath id="highcharts-4arfmzy-116"><rect x="0" y="0" width="532" height="263" fill="none"></rect></clipPath><clipPath id="highcharts-4arfmzy-226"><rect x="0" y="0" width="532" height="263" fill="none"></rect></clipPath><clipPath id="highcharts-4arfmzy-227"><rect x="58" y="78" width="532" height="263" fill="none"></rect></clipPath></defs><rect fill="#ffffff" class="highcharts-background" x="0" y="0" width="600" height="400" rx="0" ry="0"></rect><rect fill="none" class="highcharts-plot-background" x="58" y="78" width="532" height="263"></rect><g class="highcharts-pane-group" data-z-index="0"></g><g class="highcharts-grid highcharts-xaxis-grid " data-z-index="1"><path fill="none" data-z-index="1" class="highcharts-grid-line" d="M 62.5 78 L 62.5 341" opacity="1"></path><path fill="none" data-z-index="1" class="highcharts-grid-line" d="M 167.5 78 L 167.5 341" opacity="1"></path><path fill="none" data-z-index="1" class="highcharts-grid-line" d="M 271.5 78 L 271.5 341" opacity="1"></path><path fill="none" data-z-index="1" class="highcharts-grid-line" d="M 375.5 78 L 375.5 341" opacity="1"></path><path fill="none" data-z-index="1" class="highcharts-grid-line" d="M 479.5 78 L 479.5 341" opacity="1"></path><path fill="none" data-z-index="1" class="highcharts-grid-line" d="M 584.5 78 L 584.5 341" opacity="1"></path></g><g class="highcharts-grid highcharts-yaxis-grid " data-z-index="1"><path fill="none" stroke="#e6e6e6" stroke-width="1" data-z-index="1" class="highcharts-grid-line" d="M 58 341.5 L 590 341.5" opacity="1"></path><path fill="none" stroke="#e6e6e6" stroke-width="1" data-z-index="1" class="highcharts-grid-line" d="M 58 275.5 L 590 275.5" opacity="1"></path><path fill="none" stroke="#e6e6e6" stroke-width="1" data-z-index="1" class="highcharts-grid-line" d="M 58 210.5 L 590 210.5" opacity="1"></path><path fill="none" stroke="#e6e6e6" stroke-width="1" data-z-index="1" class="highcharts-grid-line" d="M 58 144.5 L 590 144.5" opacity="1"></path><path fill="none" stroke="#e6e6e6" stroke-width="1" data-z-index="1" class="highcharts-grid-line" d="M 58 77.5 L 590 77.5" opacity="1"></path></g><rect fill="none" class="highcharts-plot-border" data-z-index="1" x="58" y="78" width="532" height="263"></rect><g class="highcharts-axis highcharts-xaxis " data-z-index="2"><path fill="none" class="highcharts-tick" stroke="#ccd6eb" stroke-width="1" d="M 62.5 341 L 62.5 351" opacity="1"></path><path fill="none" class="highcharts-tick" stroke="#ccd6eb" stroke-width="1" d="M 167.5 341 L 167.5 351" opacity="1"></path><path fill="none" class="highcharts-tick" stroke="#ccd6eb" stroke-width="1" d="M 271.5 341 L 271.5 351" opacity="1"></path><path fill="none" class="highcharts-tick" stroke="#ccd6eb" stroke-width="1" d="M 375.5 341 L 375.5 351" opacity="1"></path><path fill="none" class="highcharts-tick" stroke="#ccd6eb" stroke-width="1" d="M 479.5 341 L 479.5 351" opacity="1"></path><path fill="none" class="highcharts-tick" stroke="#ccd6eb" stroke-width="1" d="M 584.5 341 L 584.5 351" opacity="1"></path><text x="324" data-z-index="7" text-anchor="middle" transform="translate(0,0)" class="highcharts-axis-title" style="color:#666666;fill:#666666;" y="381"><tspan>Purelife Energy Boost (tablets) over previous 7 days</tspan></text><path fill="none" class="highcharts-axis-line" stroke="#ccd6eb" stroke-width="1" data-z-index="7" d="M 58 341.5 L 590 341.5"></path></g><g class="highcharts-axis highcharts-yaxis " data-z-index="2"><text x="26" data-z-index="7" text-anchor="middle" transform="translate(0,0) rotate(270 26 209.5)" class="highcharts-axis-title" style="color:#666666;fill:#666666;" y="209.5"><tspan>Overall Mood (/5)</tspan></text><path fill="none" class="highcharts-axis-line" data-z-index="7" d="M 58 78 L 58 341"></path></g><g class="highcharts-series-group" data-z-index="3"><g data-z-index="0.1" class="highcharts-series highcharts-series-0 highcharts-scatter-series highcharts-color-0 " transform="translate(58,78) scale(1 1)" clip-path="url(#highcharts-4arfmzy-226)"></g><g data-z-index="0.1" class="highcharts-markers highcharts-series-0 highcharts-scatter-series highcharts-color-0 " transform="translate(58,78) scale(1 1)" clip-path="none"><path fill="#000000" d="M 9 197 A 4 4 0 1 1 8.999998000000167 196.99600000066667 Z" class="highcharts-point highcharts-color-0"></path><path fill="#000000" d="M 9 138 A 4 4 0 1 1 8.999998000000167 137.99600000066667 Z" class="highcharts-point highcharts-color-0"></path><path fill="#000000" d="M 9 161 A 4 4 0 1 1 8.999998000000167 160.99600000066667 Z" class="highcharts-point highcharts-color-0"></path><path fill="#000000" d="M 9 153 A 4 4 0 1 1 8.999998000000167 152.99600000066667 Z" class="highcharts-point highcharts-color-0"></path><path fill="#000000" d="M 9 153 A 4 4 0 1 1 8.999998000000167 152.99600000066667 Z" class="highcharts-point highcharts-color-0"></path><path fill="#000000" d="M 9 197 A 4 4 0 1 1 8.999998000000167 196.99600000066667 Z" class="highcharts-point highcharts-color-0"></path><path fill="#000000" d="M 9 208 A 4 4 0 1 1 8.999998000000167 207.99600000066667 Z" class="highcharts-point highcharts-color-0"></path><path fill="#000000" d="M 9 252 A 4 4 0 1 1 8.999998000000167 251.99600000066667 Z" class="highcharts-point highcharts-color-0"></path><path fill="#000000" d="M 9 175 A 4 4 0 1 1 8.999998000000167 174.99600000066667 Z" class="highcharts-point highcharts-color-0"></path><path fill="#000000" d="M 9 158 A 4 4 0 1 1 8.999998000000167 157.99600000066667 Z" class="highcharts-point highcharts-color-0"></path><path fill="#000000" d="M 9 151 A 4 4 0 1 1 8.999998000000167 150.99600000066667 Z" class="highcharts-point highcharts-color-0"></path><path fill="#000000" d="M 9 175 A 4 4 0 1 1 8.999998000000167 174.99600000066667 Z" class="highcharts-point highcharts-color-0"></path><path fill="#000000" d="M 9 175 A 4 4 0 1 1 8.999998000000167 174.99600000066667 Z" class="highcharts-point highcharts-color-0"></path><path fill="#000000" d="M 9 173 A 4 4 0 1 1 8.999998000000167 172.99600000066667 Z" class="highcharts-point highcharts-color-0"></path><path fill="#000000" d="M 9 153 A 4 4 0 1 1 8.999998000000167 152.99600000066667 Z" class="highcharts-point highcharts-color-0"></path><path fill="#000000" d="M 9 164 A 4 4 0 1 1 8.999998000000167 163.99600000066667 Z" class="highcharts-point highcharts-color-0"></path><path fill="#000000" d="M 9 175 A 4 4 0 1 1 8.999998000000167 174.99600000066667 Z" class="highcharts-point highcharts-color-0"></path><path fill="#000000" d="M 9 178 A 4 4 0 1 1 8.999998000000167 177.99600000066667 Z" class="highcharts-point highcharts-color-0"></path><path fill="#000000" d="M 9 132 A 4 4 0 1 1 8.999998000000167 131.99600000066667 Z" class="highcharts-point highcharts-color-0"></path><path fill="#000000" d="M 9 164 A 4 4 0 1 1 8.999998000000167 163.99600000066667 Z" class="highcharts-point highcharts-color-0"></path><path fill="#000000" d="M 9 197 A 4 4 0 1 1 8.999998000000167 196.99600000066667 Z" class="highcharts-point highcharts-color-0"></path><path fill="#000000" d="M 9 164 A 4 4 0 1 1 8.999998000000167 163.99600000066667 Z" class="highcharts-point highcharts-color-0"></path><path fill="#000000" d="M 9 122 A 4 4 0 1 1 8.999998000000167 121.99600000066667 Z" class="highcharts-point highcharts-color-0"></path><path fill="#000000" d="M 9 113 A 4 4 0 1 1 8.999998000000167 112.99600000066667 Z" class="highcharts-point highcharts-color-0"></path><path fill="#000000" d="M 9 115 A 4 4 0 1 1 8.999998000000167 114.99600000066667 Z" class="highcharts-point highcharts-color-0"></path><path fill="#000000" d="M 9 74 A 4 4 0 1 1 8.999998000000167 73.99600000066667 Z" class="highcharts-point highcharts-color-0"></path><path fill="#000000" d="M 9 66 A 4 4 0 1 1 8.999998000000167 65.99600000066667 Z" class="highcharts-point highcharts-color-0"></path><path fill="#000000" d="M 9 77 A 4 4 0 1 1 8.999998000000167 76.99600000066667 Z" class="highcharts-point highcharts-color-0"></path><path fill="#000000" d="M 9 132 A 4 4 0 1 1 8.999998000000167 131.99600000066667 Z" class="highcharts-point highcharts-color-0"></path><path fill="#000000" d="M 9 122 A 4 4 0 1 1 8.999998000000167 121.99600000066667 Z" class="highcharts-point highcharts-color-0"></path><path fill="#000000" d="M 83 115 A 4 4 0 1 1 82.99999800000016 114.99600000066667 Z" class="highcharts-point highcharts-color-0"></path><path fill="#000000" d="M 158 74 A 4 4 0 1 1 157.99999800000018 73.99600000066667 Z" class="highcharts-point highcharts-color-0"></path><path fill="#000000" d="M 232 66 A 4 4 0 1 1 231.99999800000018 65.99600000066667 Z" class="highcharts-point highcharts-color-0"></path><path fill="#000000" d="M 307 66 A 4 4 0 1 1 306.9999980000002 65.99600000066667 Z" class="highcharts-point highcharts-color-0"></path><path fill="#000000" d="M 381 72 A 4 4 0 1 1 380.9999980000002 71.99600000066667 Z" class="highcharts-point highcharts-color-0"></path><path fill="#000000" d="M 456 123 A 4 4 0 1 1 455.9999980000002 122.99600000066667 Z" class="highcharts-point highcharts-color-0"></path><path fill="#000000" d="M 530 138 A 4 4 0 1 1 529.9999980000001 137.99600000066667 Z" class="highcharts-point highcharts-color-0"></path><path fill="#000000" d="M 530 90 A 4 4 0 1 1 529.9999980000001 89.99600000066667 Z" class="highcharts-point highcharts-color-0"></path><path fill="#000000" d="M 530 99 A 4 4 0 1 1 529.9999980000001 98.99600000066667 Z" class="highcharts-point highcharts-color-0"></path><path fill="#000000" d="M 530 90 A 4 4 0 1 1 529.9999980000001 89.99600000066667 Z" class="highcharts-point highcharts-color-0"></path><path fill="#000000" d="M 530 102 A 4 4 0 1 1 529.9999980000001 101.99600000066667 Z" class="highcharts-point highcharts-color-0"></path><path fill="#000000" d="M 530 105 A 4 4 0 1 1 529.9999980000001 104.99600000066667 Z" class="highcharts-point highcharts-color-0"></path><path fill="#000000" d="M 530 178 A 4 4 0 1 1 529.9999980000001 177.99600000066667 Z" class="highcharts-point highcharts-color-0"></path><path fill="#000000" d="M 530 158 A 4 4 0 1 1 529.9999980000001 157.99600000066667 Z" class="highcharts-point highcharts-color-0"></path><path fill="#000000" d="M 530 105 A 4 4 0 1 1 529.9999980000001 104.99600000066667 Z" class="highcharts-point highcharts-color-0"></path><path fill="#000000" d="M 530 132 A 4 4 0 1 1 529.9999980000001 131.99600000066667 Z" class="highcharts-point highcharts-color-0"></path><path fill="#000000" d="M 530 132 A 4 4 0 1 1 529.9999980000001 131.99600000066667 Z" class="highcharts-point highcharts-color-0"></path><path fill="#000000" d="M 530 90 A 4 4 0 1 1 529.9999980000001 89.99600000066667 Z" class="highcharts-point highcharts-color-0"></path><path fill="#000000" d="M 530 85 A 4 4 0 1 1 529.9999980000001 84.99600000066667 Z" class="highcharts-point highcharts-color-0"></path><path fill="#000000" d="M 530 99 A 4 4 0 1 1 529.9999980000001 98.99600000066667 Z" class="highcharts-point highcharts-color-0"></path><path fill="#000000" d="M 530 90 A 4 4 0 1 1 529.9999980000001 89.99600000066667 Z" class="highcharts-point highcharts-color-0"></path><path fill="#000000" d="M 530 132 A 4 4 0 1 1 529.9999980000001 131.99600000066667 Z" class="highcharts-point highcharts-color-0"></path><path fill="#000000" d="M 530 85 A 4 4 0 1 1 529.9999980000001 84.99600000066667 Z" class="highcharts-point highcharts-color-0"></path><path fill="#000000" d="M 530 90 A 4 4 0 1 1 529.9999980000001 89.99600000066667 Z" class="highcharts-point highcharts-color-0"></path><path fill="#000000" d="M 530 90 A 4 4 0 1 1 529.9999980000001 89.99600000066667 Z" class="highcharts-point highcharts-color-0"></path><path fill="#000000" d="M 530 85 A 4 4 0 1 1 529.9999980000001 84.99600000066667 Z" class="highcharts-point highcharts-color-0"></path><path fill="#000000" d="M 530 171 A 4 4 0 1 1 529.9999980000001 170.99600000066667 Z" class="highcharts-point highcharts-color-0"></path><path fill="#000000" d="M 530 153 A 4 4 0 1 1 529.9999980000001 152.99600000066667 Z" class="highcharts-point highcharts-color-0"></path><path fill="#000000" d="M 530 99 A 4 4 0 1 1 529.9999980000001 98.99600000066667 Z" class="highcharts-point highcharts-color-0"></path><path fill="#000000" d="M 530 132 A 4 4 0 1 1 529.9999980000001 131.99600000066667 Z" class="highcharts-point highcharts-color-0"></path><path fill="#000000" d="M 530 90 A 4 4 0 1 1 529.9999980000001 89.99600000066667 Z" class="highcharts-point highcharts-color-0"></path><path fill="#000000" d="M 530 142 A 4 4 0 1 1 529.9999980000001 141.99600000066667 Z" class="highcharts-point highcharts-color-0"></path><path fill="#000000" d="M 530 214 A 4 4 0 1 1 529.9999980000001 213.99600000066667 Z" class="highcharts-point highcharts-color-0"></path><path fill="#000000" d="M 530 99 A 4 4 0 1 1 529.9999980000001 98.99600000066667 Z" class="highcharts-point highcharts-color-0"></path><path fill="#000000" d="M 530 95 A 4 4 0 1 1 529.9999980000001 94.99600000066667 Z" class="highcharts-point highcharts-color-0"></path><path fill="#000000" d="M 530 80 A 4 4 0 1 1 529.9999980000001 79.99600000066667 Z" class="highcharts-point highcharts-color-0"></path><path fill="#000000" d="M 530 82 A 4 4 0 1 1 529.9999980000001 81.99600000066667 Z" class="highcharts-point highcharts-color-0"></path><path fill="#000000" d="M 530 102 A 4 4 0 1 1 529.9999980000001 101.99600000066667 Z" class="highcharts-point highcharts-color-0"></path><path fill="#000000" d="M 530 95 A 4 4 0 1 1 529.9999980000001 94.99600000066667 Z" class="highcharts-point highcharts-color-0"></path><path fill="#000000" d="M 530 105 A 4 4 0 1 1 529.9999980000001 104.99600000066667 Z" class="highcharts-point highcharts-color-0"></path><path fill="#000000" d="M 530 132 A 4 4 0 1 1 529.9999980000001 131.99600000066667 Z" class="highcharts-point highcharts-color-0"></path><path fill="#000000" d="M 530 186 A 4 4 0 1 1 529.9999980000001 185.99600000066667 Z" class="highcharts-point highcharts-color-0"></path><path fill="#000000" d="M 530 153 A 4 4 0 1 1 529.9999980000001 152.99600000066667 Z" class="highcharts-point highcharts-color-0"></path><path fill="#000000" d="M 456 141 A 4 4 0 1 1 455.9999980000002 140.99600000066667 Z" class="highcharts-point highcharts-color-0"></path><path fill="#000000" d="M 381 132 A 4 4 0 1 1 380.9999980000002 131.99600000066667 Z" class="highcharts-point highcharts-color-0"></path><path fill="#000000" d="M 381 99 A 4 4 0 1 1 380.9999980000002 98.99600000066667 Z" class="highcharts-point highcharts-color-0"></path><path fill="#000000" d="M 307 132 A 4 4 0 1 1 306.9999980000002 131.99600000066667 Z" class="highcharts-point highcharts-color-0"></path><path fill="#000000" d="M 232 164 A 4 4 0 1 1 231.99999800000018 163.99600000066667 Z" class="highcharts-point highcharts-color-0"></path><path fill="#000000" d="M 158 77 A 4 4 0 1 1 157.99999800000018 76.99600000066667 Z" class="highcharts-point highcharts-color-0"></path><path fill="#000000" d="M 158 132 A 4 4 0 1 1 157.99999800000018 131.99600000066667 Z" class="highcharts-point highcharts-color-0"></path><path fill="#000000" d="M 158 132 A 4 4 0 1 1 157.99999800000018 131.99600000066667 Z" class="highcharts-point highcharts-color-0"></path><path fill="#000000" d="M 83 197 A 4 4 0 1 1 82.99999800000016 196.99600000066667 Z" class="highcharts-point highcharts-color-0"></path><path fill="#000000" d="M 83 142 A 4 4 0 1 1 82.99999800000016 141.99600000066667 Z" class="highcharts-point highcharts-color-0"></path><path fill="#000000" d="M 83 132 A 4 4 0 1 1 82.99999800000016 131.99600000066667 Z" class="highcharts-point highcharts-color-0"></path><path fill="#000000" d="M 83 77 A 4 4 0 1 1 82.99999800000016 76.99600000066667 Z" class="highcharts-point highcharts-color-0"></path><path fill="#000000" d="M 83 132 A 4 4 0 1 1 82.99999800000016 131.99600000066667 Z" class="highcharts-point highcharts-color-0"></path><path fill="#000000" d="M 9 132 A 4 4 0 1 1 8.999998000000167 131.99600000066667 Z" class="highcharts-point highcharts-color-0"></path><path fill="#000000" d="M 9 132 A 4 4 0 1 1 8.999998000000167 131.99600000066667 Z" class="highcharts-point highcharts-color-0"></path><path fill="#000000" d="M 9 132 A 4 4 0 1 1 8.999998000000167 131.99600000066667 Z" class="highcharts-point highcharts-color-0"></path><path fill="#000000" d="M 9 132 A 4 4 0 1 1 8.999998000000167 131.99600000066667 Z" class="highcharts-point highcharts-color-0"></path><path fill="#000000" d="M 9 66 A 4 4 0 1 1 8.999998000000167 65.99600000066667 Z" class="highcharts-point highcharts-color-0"></path><path fill="#000000" d="M 9 132 A 4 4 0 1 1 8.999998000000167 131.99600000066667 Z" class="highcharts-point highcharts-color-0"></path><path fill="#000000" d="M 9 132 A 4 4 0 1 1 8.999998000000167 131.99600000066667 Z" class="highcharts-point highcharts-color-0"></path><path fill="#000000" d="M 9 132 A 4 4 0 1 1 8.999998000000167 131.99600000066667 Z" class="highcharts-point highcharts-color-0"></path><path fill="#000000" d="M 9 132 A 4 4 0 1 1 8.999998000000167 131.99600000066667 Z" class="highcharts-point highcharts-color-0"></path><path fill="#000000" d="M 9 132 A 4 4 0 1 1 8.999998000000167 131.99600000066667 Z" class="highcharts-point highcharts-color-0"></path><path fill="#000000" d="M 9 66 A 4 4 0 1 1 8.999998000000167 65.99600000066667 Z" class="highcharts-point highcharts-color-0"></path><path fill="#000000" d="M 9 132 A 4 4 0 1 1 8.999998000000167 131.99600000066667 Z" class="highcharts-point highcharts-color-0"></path><path fill="#000000" d="M 9 132 A 4 4 0 1 1 8.999998000000167 131.99600000066667 Z" class="highcharts-point highcharts-color-0"></path><path fill="#000000" d="M 9 132 A 4 4 0 1 1 8.999998000000167 131.99600000066667 Z" class="highcharts-point highcharts-color-0"></path><path fill="#000000" d="M 9 132 A 4 4 0 1 1 8.999998000000167 131.99600000066667 Z" class="highcharts-point highcharts-color-0"></path><path fill="#000000" d="M 9 132 A 4 4 0 1 1 8.999998000000167 131.99600000066667 Z" class="highcharts-point highcharts-color-0"></path><path fill="#000000" d="M 9 66 A 4 4 0 1 1 8.999998000000167 65.99600000066667 Z" class="highcharts-point highcharts-color-0"></path><path fill="#000000" d="M 9 66 A 4 4 0 1 1 8.999998000000167 65.99600000066667 Z" class="highcharts-point highcharts-color-0"></path><path fill="#000000" d="M 9 132 A 4 4 0 1 1 8.999998000000167 131.99600000066667 Z" class="highcharts-point highcharts-color-0"></path><path fill="#000000" d="M 9 132 A 4 4 0 1 1 8.999998000000167 131.99600000066667 Z" class="highcharts-point highcharts-color-0"></path><path fill="#000000" d="M 9 66 A 4 4 0 1 1 8.999998000000167 65.99600000066667 Z" class="highcharts-point highcharts-color-0"></path><path fill="#000000" d="M 9 66 A 4 4 0 1 1 8.999998000000167 65.99600000066667 Z" class="highcharts-point highcharts-color-0"></path><path fill="#000000" d="M 9 66 A 4 4 0 1 1 8.999998000000167 65.99600000066667 Z" class="highcharts-point highcharts-color-0"></path></g></g><text x="300" text-anchor="middle" class="highcharts-title" data-z-index="4" style="color:#333333;font-size:18px;fill:#333333;" y="24"><tspan>Overall Mood Following Purelife Energy Boost</tspan></text><text x="300" text-anchor="middle" class="highcharts-subtitle" data-z-index="4" style="color:#666666;fill:#666666;" y="46"><tspan>An increase in 7 days cumulative Purelife Energy Boost is usually followed by an increase in</tspan><tspan dy="15" x="300">Overall Mood. (R = 0.226)</tspan></text><g class="highcharts-axis-labels highcharts-xaxis-labels " data-z-index="7"><text x="63.21568627451" style="color:#666666;cursor:default;font-size:11px;fill:#666666;" text-anchor="middle" transform="translate(0,0)" y="360" opacity="1">0</text><text x="167.52941176471" style="color:#666666;cursor:default;font-size:11px;fill:#666666;" text-anchor="middle" transform="translate(0,0)" y="360" opacity="1">0.2</text><text x="271.8431372549" style="color:#666666;cursor:default;font-size:11px;fill:#666666;" text-anchor="middle" transform="translate(0,0)" y="360" opacity="1">0.4</text><text x="376.1568627451" style="color:#666666;cursor:default;font-size:11px;fill:#666666;" text-anchor="middle" transform="translate(0,0)" y="360" opacity="1">0.6</text><text x="480.47058823529" style="color:#666666;cursor:default;font-size:11px;fill:#666666;" text-anchor="middle" transform="translate(0,0)" y="360" opacity="1">0.8</text><text x="584.78431372549" style="color:#666666;cursor:default;font-size:11px;fill:#666666;" text-anchor="middle" transform="translate(0,0)" y="360" opacity="1">1</text></g><g class="highcharts-axis-labels highcharts-yaxis-labels " data-z-index="7"><text x="43" style="color:#666666;cursor:default;font-size:11px;fill:#666666;" text-anchor="end" transform="translate(0,0)" y="345" opacity="1">2</text><text x="43" style="color:#666666;cursor:default;font-size:11px;fill:#666666;" text-anchor="end" transform="translate(0,0)" y="279" opacity="1">3</text><text x="43" style="color:#666666;cursor:default;font-size:11px;fill:#666666;" text-anchor="end" transform="translate(0,0)" y="213" opacity="1">4</text><text x="43" style="color:#666666;cursor:default;font-size:11px;fill:#666666;" text-anchor="end" transform="translate(0,0)" y="147" opacity="1">5</text><text x="43" style="color:#666666;cursor:default;font-size:11px;fill:#666666;" text-anchor="end" transform="translate(0,0)" y="82" opacity="1">6</text></g><a xlink:href="https://quantimo.do" target="_blank">
                    <text x="590" class="highcharts-credits" text-anchor="end" data-z-index="8"
                          style="cursor:pointer;color:#999999;font-size:9px;fill:#999999;" y="395">https://quantimo.do
                    </text>
                </a></svg>