<?xml version="1.0" standalone="no"?><!DOCTYPE svg PUBLIC "-//W3C//DTD SVG 1.1//EN" "http://www.w3.org/Graphics/SVG/1.1/DTD/svg11.dtd"><svg xmlns:xlink="http://www.w3.org/1999/xlink" version="1.1" class="highcharts-root" style="font-family:&quot;Lucida Grande&quot;, &quot;Lucida Sans Unicode&quot;, Arial, Helvetica, sans-serif;font-size:12px;" xmlns="http://www.w3.org/2000/svg" width="600" height="400"><desc>Created with Highstock 6.2.0</desc><defs><clipPath id="highcharts-nqod3kv-227"><rect x="0" y="0" width="464" height="260" fill="none"></rect></clipPath><clipPath id="highcharts-nqod3kv-337"><rect x="0" y="0" width="464" height="260" fill="none"></rect></clipPath><clipPath id="highcharts-nqod3kv-447"><rect x="0" y="0" width="464" height="260" fill="none"></rect></clipPath><clipPath id="highcharts-nqod3kv-448"><rect x="68" y="63" width="464" height="260" fill="none"></rect></clipPath></defs><rect fill="#ffffff" class="highcharts-background" x="0" y="0" width="600" height="400" rx="0" ry="0"></rect><rect fill="none" class="highcharts-plot-background" x="68" y="63" width="464" height="260"></rect><g class="highcharts-pane-group" data-z-index="0"></g><g class="highcharts-grid highcharts-xaxis-grid " data-z-index="1"><path fill="none" data-z-index="1" class="highcharts-grid-line" d="M 95.5 63 L 95.5 323" opacity="1"></path><path fill="none" data-z-index="1" class="highcharts-grid-line" d="M 206.5 63 L 206.5 323" opacity="1"></path><path fill="none" data-z-index="1" class="highcharts-grid-line" d="M 328.5 63 L 328.5 323" opacity="1"></path><path fill="none" data-z-index="1" class="highcharts-grid-line" d="M 447.5 63 L 447.5 323" opacity="1"></path></g><g class="highcharts-grid highcharts-yaxis-grid " data-z-index="1"><path fill="none" stroke="#e6e6e6" stroke-width="1" data-z-index="1" class="highcharts-grid-line" d="M 68 323.5 L 532 323.5" opacity="1"></path><path fill="none" stroke="#e6e6e6" stroke-width="1" data-z-index="1" class="highcharts-grid-line" d="M 68 258.5 L 532 258.5" opacity="1"></path><path fill="none" stroke="#e6e6e6" stroke-width="1" data-z-index="1" class="highcharts-grid-line" d="M 68 193.5 L 532 193.5" opacity="1"></path><path fill="none" stroke="#e6e6e6" stroke-width="1" data-z-index="1" class="highcharts-grid-line" d="M 68 128.5 L 532 128.5" opacity="1"></path><path fill="none" stroke="#e6e6e6" stroke-width="1" data-z-index="1" class="highcharts-grid-line" d="M 68 62.5 L 532 62.5" opacity="1"></path></g><g class="highcharts-grid highcharts-yaxis-grid " data-z-index="1"><path fill="none" stroke="#e6e6e6" stroke-width="1" data-z-index="1" class="highcharts-grid-line" d="M 68 323.5 L 532 323.5" opacity="1"></path><path fill="none" stroke="#e6e6e6" stroke-width="1" data-z-index="1" class="highcharts-grid-line" d="M 68 258.5 L 532 258.5" opacity="1"></path><path fill="none" stroke="#e6e6e6" stroke-width="1" data-z-index="1" class="highcharts-grid-line" d="M 68 193.5 L 532 193.5" opacity="1"></path><path fill="none" stroke="#e6e6e6" stroke-width="1" data-z-index="1" class="highcharts-grid-line" d="M 68 128.5 L 532 128.5" opacity="1"></path><path fill="none" stroke="#e6e6e6" stroke-width="1" data-z-index="1" class="highcharts-grid-line" d="M 68 62.5 L 532 62.5" opacity="1"></path></g><rect fill="none" class="highcharts-plot-border" data-z-index="1" x="68" y="63" width="464" height="260"></rect><g class="highcharts-axis highcharts-xaxis " data-z-index="2"><path fill="none" class="highcharts-tick" stroke="#ccd6eb" stroke-width="1" d="M 95.5 323 L 95.5 333" opacity="1"></path><path fill="none" class="highcharts-tick" stroke="#ccd6eb" stroke-width="1" d="M 206.5 323 L 206.5 333" opacity="1"></path><path fill="none" class="highcharts-tick" stroke="#ccd6eb" stroke-width="1" d="M 328.5 323 L 328.5 333" opacity="1"></path><path fill="none" class="highcharts-tick" stroke="#ccd6eb" stroke-width="1" d="M 447.5 323 L 447.5 333" opacity="1"></path><path fill="none" class="highcharts-axis-line" stroke="#ccd6eb" stroke-width="1" data-z-index="7" d="M 68 323.5 L 532 323.5"></path></g><g class="highcharts-axis highcharts-yaxis " data-z-index="2"><text x="26" data-z-index="7" text-anchor="middle" transform="translate(0,0) rotate(270 26 193)" class="highcharts-axis-title" style="color:#666666;fill:#666666;" y="193"><tspan>MEAN Purelife Energy Boost (tablets)</tspan></text><path fill="none" class="highcharts-axis-line" stroke="#ccd6eb" stroke-width="1" data-z-index="7" d="M 67.5 63 L 67.5 323"></path></g><g class="highcharts-axis highcharts-yaxis " data-z-index="2"><text x="574" data-z-index="7" text-anchor="middle" transform="translate(0,0) rotate(90 574 193)" class="highcharts-axis-title" style="color:#666666;fill:#666666;" y="193"><tspan>MEAN Overall Mood (/5)</tspan></text><path fill="none" class="highcharts-axis-line" stroke="#ccd6eb" stroke-width="1" data-z-index="7" d="M 532.5 63 L 532.5 323"></path></g><g class="highcharts-series-group" data-z-index="3"><g data-z-index="0.1" class="highcharts-series highcharts-series-0 highcharts-spline-series highcharts-color-0 " transform="translate(68,63) scale(1 1)" clip-path="url(#highcharts-nqod3kv-337)"><path fill="none" d="M 4.5490196078431 260 C 4.5490196078431 260 6.92242114237 260 8.5046888320546 260 C 10.08695652173916 260 10.878090366581437 260 12.460358056266 260 C 14.042625745950398 260 14.833759590792601 260 16.416027280477 260 C 17.9982949701618 260 18.789428815004204 260 20.371696504689 260 C 21.953964194373402 260 22.7450980392156 260 24.3273657289 260 C 25.909633418584804 260 26.700767263427203 260 28.283034953112 260 C 29.8653026427964 260 30.656436487638597 260 32.238704177323 260 C 33.8209718670078 260 34.6121057118502 260 36.194373401535 260 C 37.7766410912194 260 38.5677749360616 260 40.150042625746 260 C 41.732310315430404 260 42.5234441602726 260 44.105711849957 260 C 45.6879795396418 260 46.479113384484194 260 48.061381074169 260 C 49.6436487638534 260 50.43478260869559 260 52.01705029838 260 C 53.5993179880648 260 54.3904518329072 260 55.972719522592 260 C 57.5549872122764 260 58.3461210571186 260 59.928388746803 260 C 61.510656436487395 260 62.3017902813296 260 63.884057971014 260 C 65.4663256606988 260 66.2574595055412 260 67.839727195226 260 C 69.42199488491039 260 70.2131287297526 260 71.795396419437 260 C 73.3776641091218 260 74.1687979539642 260 75.751065643649 260 C 77.3333333333334 260 78.1244671781756 260 79.70673486786 260 C 81.2890025575448 260 82.0801364023872 260 83.662404092072 260 C 85.2446717817564 260 86.0358056265986 260 87.618073316283 260 C 89.2003410059674 260 89.9914748508096 260 91.573742540494 260 C 93.1560102301788 260 93.9471440750212 260 95.529411764706 260 C 97.1116794543904 260 97.9028132992326 260 99.485080988917 260 C 101.0673486786022 260 101.8584825234448 260 103.44075021313 260 C 105.02301790281399 260 105.814151747656 260 107.39641943734 260 C 108.978687127024 260 109.76982097186601 260 111.35208866155 260 C 112.93435635123402 260 113.725490196076 260 115.30775788576 260 C 116.890025575444 260 117.68115942028598 260 119.26342710997 260 C 120.84569479965799 260 121.636828644502 241.42857142858705 123.21909633419 229.04761904761904 C 124.801364023874 216.6666666666823 125.59249786871601 210.47619047619037 127.1747655584 198.0952380952381 C 128.757033248084 185.71428571428564 129.548167092926 179.52380952380955 131.13043478261 167.14285714285714 C 132.71270247229398 154.76190476190476 133.50383631713598 148.5714285714287 135.08610400682 136.1904761904762 C 136.66837169650398 123.80952380952392 137.459505541346 117.6190476190476 139.04177323103 105.23809523809521 C 140.62404092071398 92.85714285714283 141.415174765556 86.66666666666654 142.99744245524 74.28571428571428 C 144.579710144924 61.904761904761784 145.370843989766 43.333333333333314 146.95311167945 43.333333333333314 C 148.53537936913798 43.333333333333314 149.32651321398197 43.333333333333314 150.90878090367 43.333333333333314 C 152.49104859335398 43.333333333333314 153.282182438196 43.333333333333314 154.86445012788 43.333333333333314 C 156.44671781756398 43.333333333333314 157.237851662406 43.333333333333314 158.82011935209 43.333333333333314 C 160.402387041774 43.333333333333314 161.193520886616 43.333333333333314 162.7757885763 43.333333333333314 C 164.35805626598398 43.333333333333314 165.14919011082597 43.333333333333314 166.73145780051 43.333333333333314 C 168.313725490194 43.333333333333314 169.104859335036 43.333333333333314 170.68712702472 43.333333333333314 C 172.269394714404 43.333333333333314 173.060528559246 43.333333333333314 174.64279624893 43.333333333333314 C 176.225063938618 43.333333333333314 177.016197783462 43.333333333333314 178.59846547315 43.333333333333314 C 180.18073316283397 43.333333333333314 180.971867007676 43.333333333333314 182.55413469736 43.333333333333314 C 184.13640238704403 43.333333333333314 184.927536231886 43.333333333333314 186.50980392157 43.333333333333314 C 188.092071611254 43.333333333333314 188.883205456096 43.333333333333314 190.46547314578 43.333333333333314 C 192.047740835464 43.333333333333314 192.83887468030602 43.333333333333314 194.42114236999 43.333333333333314 C 196.00341005967402 43.333333333333314 196.79454390451602 43.333333333333314 198.3768115942 43.333333333333314 C 199.95907928388402 43.333333333333314 200.750213128726 43.333333333333314 202.33248081841 43.333333333333314 C 203.914748508098 43.333333333333314 204.70588235294198 43.333333333333314 206.28815004263 43.333333333333314 C 207.870417732314 43.333333333333314 208.66155157715602 43.333333333333314 210.24381926684 43.333333333333314 C 211.82608695652402 43.333333333333314 212.61722080136602 43.333333333333314 214.19948849105 43.333333333333314 C 215.78175618073402 43.333333333333314 216.572890025576 43.333333333333314 218.15515771526 43.333333333333314 C 219.737425404944 43.333333333333314 220.52855924978599 43.333333333333314 222.11082693947 43.333333333333314 C 223.693094629154 43.333333333333314 224.484228473996 43.333333333333314 226.06649616368 43.333333333333314 C 227.64876385336402 43.333333333333314 228.439897698206 43.333333333333314 230.02216538789 43.333333333333314 C 231.604433077578 43.333333333333314 232.395566922422 43.333333333333314 233.97783461211 43.333333333333314 C 235.560102301794 43.333333333333314 236.35123614663598 43.333333333333314 237.93350383632 43.333333333333314 C 239.515771526004 43.333333333333314 240.306905370846 43.333333333333314 241.88917306053 43.333333333333314 C 243.47144075021401 43.333333333333314 244.262574595056 43.333333333333314 245.84484228474 43.333333333333314 C 247.427109974424 43.333333333333314 248.21824381926598 43.333333333333314 249.80051150895 43.333333333333314 C 251.38277919863398 43.333333333333314 252.17391304347598 43.333333333333314 253.75618073316 43.333333333333314 C 255.33844842284398 43.333333333333314 256.12958226768603 43.333333333333314 257.71184995737 43.333333333333314 C 259.294117647058 43.333333333333314 260.085251491902 43.333333333333314 261.66751918159 43.333333333333314 C 263.24978687127407 43.333333333333314 264.04092071611603 43.333333333333314 265.6231884058 43.333333333333314 C 267.205456095484 43.333333333333314 267.99658994032603 43.333333333333314 269.57885763001 43.333333333333314 C 271.161125319694 43.333333333333314 271.95225916453603 43.333333333333314 273.53452685422 43.333333333333314 C 275.116794543904 43.333333333333314 275.90792838874603 43.333333333333314 277.49019607843 43.333333333333314 C 279.072463768114 43.333333333333314 279.863597612956 43.333333333333314 281.44586530264 43.333333333333314 C 283.028132992324 43.333333333333314 283.819266837166 43.333333333333314 285.40153452685 43.333333333333314 C 286.98380221653804 43.333333333333314 287.774936061382 43.333333333333314 289.35720375107 43.333333333333314 C 290.939471440754 43.333333333333314 291.73060528559597 61.90476190476189 293.31287297528 74.28571428571428 C 294.89514066496406 86.66666666666666 295.686274509806 105.23809523809521 297.26854219949 105.23809523809521 C 298.850809889174 105.23809523809521 299.641943734016 105.23809523809521 301.2242114237 105.23809523809521 C 302.806479113384 105.23809523809521 303.597612958226 123.80952380952381 305.17988064791 136.1904761904762 C 306.762148337594 148.57142857142858 307.553282182436 154.76190476190473 309.13554987212 167.14285714285714 C 310.717817561804 179.52380952380952 311.508951406646 198.0952380952381 313.09121909633 198.0952380952381 C 314.67348678601803 198.0952380952381 315.464620630862 198.0952380952381 317.04688832055 198.0952380952381 C 318.629156010234 198.0952380952381 319.420289855076 198.0952380952381 321.00255754476 198.0952380952381 C 324.082485554612 198.0952380952381 325.62244955953804 229.04761904761904 328.70237756939 229.04761904761904 C 328.786984938906 229.04761904761904 328.829288623664 229.04761904761904 328.91389599318 229.04761904761904 C 330.496163682864 229.04761904761904 331.287297527706 229.04761904761904 332.86956521739 229.04761904761904 C 334.451832907074 229.04761904761904 335.242966751916 229.04761904761904 336.8252344416 229.04761904761904 C 338.407502131284 229.04761904761904 339.198635976126 229.04761904761904 340.78090366581 229.04761904761904 C 342.36317135549797 229.04761904761904 343.15430520034204 260 344.73657289003 260 C 346.318840579714 260 347.109974424556 260 348.69224211424 260 C 350.27450980392405 260 351.065643648766 260 352.64791133845 260 C 354.230179028134 260 355.02131287297595 260 356.60358056266 260 C 358.18584825234404 260 358.976982097186 260 360.55924978687 260 C 362.141517476554 260 362.93265132139595 260 364.51491901108 260 C 367.67945439045195 260 369.261722080138 260 372.42625745951 260 C 374.008525149194 260 374.799658994036 260 376.38192668372 260 C 377.964194373404 260 378.755328218246 260 380.33759590793 260 C 381.91986359761404 260 382.710997442456 260 384.29326513214 260 C 387.45780051150797 260 389.040068201192 260 392.20460358056 260 C 393.786871270244 260 394.57800511508594 260 396.16027280477 260 C 397.742540494458 260 398.53367433930197 260 400.11594202899 260 C 401.698209718674 260 402.489343563516 260 404.0716112532 260 C 407.23614663256797 260 408.818414322252 260 411.98294970162 260 C 413.56521739130403 260 414.35635123614594 260 415.93861892583 260 C 417.520886615514 260 418.31202046035594 260 419.89428815004 260 C 421.476555839724 260 422.267689684566 260 423.84995737425 260 C 427.014492753622 260 428.59676044330797 260 431.76129582268 260 C 433.343563512364 260 434.134697357206 260 435.71696504689 260 C 440.463768115942 260 442.83716965046796 260 447.58397271952 260 C 450.74850809889193 260 452.330775788578 260 455.49531116795 260 C 457.077578857634 260 459.45098039216 260 459.45098039216 260" class="highcharts-graph" data-z-index="1" stroke="#000000" stroke-width="2" stroke-linejoin="round" stroke-linecap="round"></path></g><g data-z-index="0.1" class="highcharts-markers highcharts-series-0 highcharts-spline-series highcharts-color-0 " transform="translate(68,63) scale(1 1)" clip-path="none"></g><g data-z-index="0.1" class="highcharts-series highcharts-series-1 highcharts-spline-series highcharts-color-1 " transform="translate(68,63) scale(1 1)" clip-path="url(#highcharts-nqod3kv-447)"><path fill="none" d="M 4.5490196078431 138.125 C 4.5490196078431 138.125 6.92242114237 101.5625 8.5046888320546 101.5625 C 10.08695652173916 101.5625 10.878090366581437 115.9659090909091 12.460358056266 115.9659090909091 C 14.042625745950398 115.9659090909091 14.833759590792601 111.04166666666669 16.416027280477 111.04166666666669 C 17.9982949701618 111.04166666666669 18.789428815004204 111.04166666666669 20.371696504689 111.04166666666669 C 21.953964194373402 111.04166666666669 22.7450980392156 131.35416666666669 24.3273657289 138.125 C 25.909633418584804 144.89583333333331 26.700767263427203 138.125 28.283034953112 144.89583333333331 C 29.8653026427964 151.66666666666663 30.656436487638597 171.97916666666669 32.238704177323 171.97916666666669 C 33.8209718670078 171.97916666666669 34.6121057118502 135.41666666666663 36.194373401535 124.58333333333331 C 37.7766410912194 113.75 38.5677749360616 116.72916666666667 40.150042625746 113.75 C 41.732310315430404 110.77083333333334 42.5234441602726 109.6875 44.105711849957 109.6875 C 45.6879795396418 109.6875 46.479113384484194 124.58333333333331 48.061381074169 124.58333333333331 C 49.6436487638534 124.58333333333331 50.43478260869559 124.58333333333331 52.01705029838 124.58333333333331 C 53.5993179880648 124.58333333333331 54.3904518329072 124.58333333333331 55.972719522592 122.890625 C 57.5549872122764 121.19791666666669 58.3461210571186 111.04166666666669 59.928388746803 111.04166666666669 C 61.510656436487395 111.04166666666669 62.3017902813296 115.10416666666701 63.884057971014 117.8125 C 65.4663256606988 120.52083333333367 66.2574595055412 122.84226190476167 67.839727195226 124.58333333333331 C 69.42199488491039 126.32440476190452 70.2131287297526 126.51785714285714 71.795396419437 126.51785714285714 C 73.3776641091218 126.51785714285714 74.1687979539642 97.5 75.751065643649 97.5 C 77.3333333333334 97.5 78.1244671781756 109.68750000000102 79.70673486786 117.8125 C 81.2890025575448 125.93750000000102 82.0801364023872 138.125 83.662404092072 138.125 C 85.2446717817564 138.125 86.0358056265986 127.09821428571429 87.618073316283 117.8125 C 89.2003410059674 108.52678571428571 89.9914748508096 97.49999999999997 91.573742540494 91.69642857142856 C 93.1560102301788 85.89285714285714 93.9471440750212 85.89285714285714 95.529411764706 85.89285714285714 C 97.1116794543904 85.89285714285714 97.9028132992326 87.34375 99.485080988917 87.34375 C 101.0673486786022 87.34375 101.8584825234448 67.03125 103.44075021313 61.953125 C 105.02301790281399 56.875 105.814151747656 56.875 107.39641943734 56.875 C 108.978687127024 56.875 109.76982097186601 56.875 111.35208866155 63.64583333333334 C 112.93435635123402 70.41666666666669 113.725490196076 97.5 115.30775788576 97.5 C 116.890025575444 97.5 117.68115942028598 93.727678571426 119.26342710997 91.69642857142856 C 120.84569479965799 89.665178571426 121.636828644502 91.69642857142856 123.21909633419 87.34375 C 124.801364023874 82.99107142857144 125.59249786871601 67.03125 127.1747655584 61.953125 C 128.757033248084 56.875 129.548167092926 56.875 131.13043478261 56.875 C 132.71270247229398 56.875 133.50383631713598 56.875 135.08610400682 56.875 C 136.66837169650398 56.875 137.459505541346 56.875 139.04177323103 60.93749999999997 C 140.62404092071398 64.99999999999994 141.415174765556 84.29687500000007 142.99744245524 92.421875 C 144.579710144924 100.54687500000009 145.370843989766 101.5625 146.95311167945 101.5625 C 148.53537936913798 101.5625 149.32651321398197 72.109375 150.90878090367 72.109375 C 152.49104859335398 72.109375 153.282182438196 77.1875 154.86445012788 77.1875 C 156.44671781756398 77.1875 157.237851662406 72.109375 158.82011935209 72.109375 C 160.402387041774 72.109375 161.193520886616 77.20596590909095 162.7757885763 79.03409090909093 C 164.35805626598398 80.86221590909093 165.14919011082597 79.03409090909093 166.73145780051 81.24999999999997 C 168.313725490194 83.46590909090901 169.104859335036 125.9375 170.68712702472 125.9375 C 172.269394714404 125.9375 173.060528559246 122.68749999998877 174.64279624893 113.75 C 176.225063938618 104.81249999998876 177.016197783462 81.24999999999997 178.59846547315 81.24999999999997 C 180.18073316283397 81.24999999999997 180.971867007676 97.5 182.55413469736 97.5 C 184.13640238704403 97.5 184.927536231886 97.5 186.50980392157 97.5 C 188.092071611254 97.5 188.883205456096 75.73660714285714 190.46547314578 72.109375 C 192.047740835464 68.48214285714286 192.83887468030602 68.48214285714286 194.42114236999 68.48214285714286 C 196.00341005967402 68.48214285714286 196.79454390451602 77.1875 198.3768115942 77.1875 C 199.95907928388402 77.1875 200.750213128726 72.109375 202.33248081841 72.109375 C 203.914748508098 72.109375 204.70588235294198 97.5 206.28815004263 97.5 C 207.870417732314 97.5 208.66155157715602 68.48214285714286 210.24381926684 68.48214285714286 C 211.82608695652402 68.48214285714286 212.61722080136602 72.109375 214.19948849105 72.109375 C 215.78175618073402 72.109375 216.572890025576 72.109375 218.15515771526 72.109375 C 219.737425404944 72.109375 220.52855924978599 68.48214285714286 222.11082693947 68.48214285714286 C 223.693094629154 68.48214285714286 224.484228473996 121.875 226.06649616368 121.875 C 227.64876385336402 121.875 228.439897698206 119.97916666665536 230.02216538789 111.04166666666669 C 231.604433077578 102.10416666665537 232.395566922422 77.1875 233.97783461211 77.1875 C 235.560102301794 77.1875 236.35123614663598 97.5 237.93350383632 97.5 C 239.515771526004 97.5 240.306905370846 72.109375 241.88917306053 72.109375 C 243.47144075021401 72.109375 244.262574595056 88.51562500000014 245.84484228474 103.75 C 247.427109974424 118.98437500000014 248.21824381926598 148.28125 249.80051150895 148.28125 C 251.38277919863398 148.28125 252.17391304347598 79.44444444444443 253.75618073316 77.1875 C 255.33844842284398 74.93055555555557 256.12958226768603 77.18749999999717 257.71184995737 74.93055555555557 C 259.294117647058 72.67361111110829 260.085251491902 65.90277777777777 261.66751918159 65.90277777777777 C 263.24978687127407 65.90277777777777 264.04092071611603 65.90277777777777 265.6231884058 67.03125 C 267.205456095484 68.15972222222223 267.99658994032603 79.44444444444443 269.57885763001 79.44444444444443 C 271.161125319694 79.44444444444443 271.95225916453603 74.93055555555557 273.53452685422 74.93055555555557 C 275.116794543904 74.93055555555557 275.90792838874603 76.7361111111111 277.49019607843 81.24999999999997 C 279.072463768114 85.76388888888886 279.863597612956 87.47916666666666 281.44586530264 97.5 C 283.028132992324 107.52083333333334 283.819266837166 131.35416666666669 285.40153452685 131.35416666666669 C 286.98380221653804 131.35416666666669 287.774936061382 116.6517857142929 289.35720375107 111.04166666666669 C 290.939471440754 105.43154761905478 291.73060528559597 106.01190476190474 293.31287297528 103.30357142857142 C 294.89514066496406 100.59523809523807 295.686274509806 102.72321428571429 297.26854219949 97.5 C 298.850809889174 92.27678571428572 299.641943734016 77.1875 301.2242114237 77.1875 C 302.806479113384 77.1875 303.597612958226 89.375 305.17988064791 97.5 C 306.762148337594 105.625 307.553282182436 117.8125 309.13554987212 117.8125 C 310.717817561804 117.8125 311.508951406646 63.64583333333334 313.09121909633 63.64583333333334 C 314.67348678601803 63.64583333333334 315.464620630862 97.5 317.04688832055 97.5 C 318.629156010234 97.5 319.420289855076 97.5 321.00255754476 97.5 C 324.082485554612 97.5 325.62244955953804 138.125 328.70237756939 138.125 C 328.786984938906 138.125 328.829288623664 111.04166666666663 328.91389599318 104.27083333333331 C 330.496163682864 97.5 331.287297527706 104.27083333333331 332.86956521739 97.5 C 334.451832907074 90.72916666666669 335.242966751916 63.64583333333334 336.8252344416 63.64583333333334 C 338.407502131284 63.64583333333334 339.198635976126 97.5 340.78090366581 97.5 C 342.36317135549797 97.5 343.15430520034204 97.5 344.73657289003 97.5 C 346.318840579714 97.5 347.109974424556 97.5 348.69224211424 97.5 C 350.27450980392405 97.5 351.065643648766 97.5 352.64791133845 97.5 C 354.230179028134 97.5 355.02131287297595 97.5 356.60358056266 97.5 C 358.18584825234404 97.5 358.976982097186 56.875 360.55924978687 56.875 C 362.141517476554 56.875 362.93265132139595 97.5 364.51491901108 97.5 C 367.67945439045195 97.5 369.261722080138 97.5 372.42625745951 97.5 C 374.008525149194 97.5 374.799658994036 97.5 376.38192668372 97.5 C 377.964194373404 97.5 378.755328218246 97.5 380.33759590793 97.5 C 381.91986359761404 97.5 382.710997442456 97.5 384.29326513214 97.5 C 387.45780051150797 97.5 389.040068201192 56.875 392.20460358056 56.875 C 393.786871270244 56.875 394.57800511508594 97.5 396.16027280477 97.5 C 397.742540494458 97.5 398.53367433930197 97.5 400.11594202899 97.5 C 401.698209718674 97.5 402.489343563516 97.5 404.0716112532 97.5 C 407.23614663256797 97.5 408.818414322252 97.5 411.98294970162 97.5 C 413.56521739130403 97.5 414.35635123614594 97.5 415.93861892583 97.5 C 417.520886615514 97.5 418.31202046035594 56.875 419.89428815004 56.875 C 421.476555839724 56.875 422.267689684566 56.875 423.84995737425 56.875 C 427.014492753622 56.875 428.59676044330797 97.5 431.76129582268 97.5 C 433.343563512364 97.5 434.134697357206 97.5 435.71696504689 97.5 C 440.463768115942 97.5 442.83716965046796 56.875 447.58397271952 56.875 C 450.74850809889193 56.875 452.330775788578 56.875 455.49531116795 56.875 C 457.077578857634 56.875 459.45098039216 56.875 459.45098039216 56.875" class="highcharts-graph" data-z-index="1" stroke="#5D83FF" stroke-width="2" stroke-linejoin="round" stroke-linecap="round"></path></g><g data-z-index="0.1" class="highcharts-markers highcharts-series-1 highcharts-spline-series highcharts-color-1 " transform="translate(68,63) scale(1 1)" clip-path="none"></g></g><text x="300" text-anchor="middle" class="highcharts-title" data-z-index="4" style="color:#333333;font-size:18px;fill:#333333;" y="24"><tspan>Purelife Energy Boost &amp; Overall Mood Over Time</tspan></text><text x="300" text-anchor="middle" class="highcharts-subtitle" data-z-index="4" style="color:#666666;fill:#666666;" y="46"><tspan>Black represents the mean of Purelife Energy Boost over the previous 7 days</tspan></text><g class="highcharts-legend" data-z-index="7" transform="translate(100,358)"><rect fill="none" class="highcharts-legend-box" rx="0" ry="0" x="0" y="0" width="400" height="27" visibility="visible"></rect><g data-z-index="1"><g><g class="highcharts-legend-item highcharts-spline-series highcharts-color-0 highcharts-series-0" data-z-index="1" transform="translate(8,3)"><path fill="none" d="M 0 11 L 16 11" class="highcharts-graph" stroke="#000000" stroke-width="2"></path><path fill="#000000" d="M 12 11 A 4 4 0 1 1 11.999998000000167 10.996000000666664 Z" class="highcharts-point"></path><text x="21" style="color:#333333;font-size:12px;font-weight:bold;cursor:pointer;fill:#333333;" text-anchor="start" data-z-index="2" y="15"><tspan>Purelife Energy Boost (tablets)</tspan></text></g><g class="highcharts-legend-item highcharts-spline-series highcharts-color-1 highcharts-series-1" data-z-index="1" transform="translate(252,3)"><path fill="none" d="M 0 11 L 16 11" class="highcharts-graph" stroke="#5D83FF" stroke-width="2"></path><path fill="#5D83FF" d="M 8 7 L 12 11 8 15 4 11 Z" class="highcharts-point"></path><text x="21" y="15" style="color:#333333;font-size:12px;font-weight:bold;cursor:pointer;fill:#333333;" text-anchor="start" data-z-index="2"><tspan>Overall Mood (/5)</tspan></text></g></g></g></g><g class="highcharts-axis-labels highcharts-xaxis-labels " data-z-index="7"><text x="332.45600075779" style="color:#666666;cursor:default;font-size:11px;fill:#666666;" text-anchor="start" transform="translate(0,0)" y="342" opacity="1"><tspan>Apr '13</tspan></text><text x="99.071516529317" style="color:#666666;cursor:default;font-size:11px;fill:#666666;" text-anchor="start" transform="translate(0,0)" y="342" opacity="1"><tspan>Feb '13</tspan></text><text x="209.83025480724" style="color:#666666;cursor:default;font-size:11px;fill:#666666;" text-anchor="start" transform="translate(0,0)" y="342" opacity="1"><tspan>Mar '13</tspan></text><text x="451.12607748413" style="color:#666666;cursor:default;font-size:11px;fill:#666666;" text-anchor="start" transform="translate(0,0)" y="342" opacity="1"><tspan>May '13</tspan></text></g><g class="highcharts-axis-labels highcharts-yaxis-labels " data-z-index="7"><text x="53" style="color:#666666;cursor:default;font-size:11px;fill:#666666;" text-anchor="end" transform="translate(0,0)" y="327" opacity="1">0</text><text x="53" style="color:#666666;cursor:default;font-size:11px;fill:#666666;" text-anchor="end" transform="translate(0,0)" y="262" opacity="1">0.3</text><text x="53" style="color:#666666;cursor:default;font-size:11px;fill:#666666;" text-anchor="end" transform="translate(0,0)" y="197" opacity="1">0.6</text><text x="53" style="color:#666666;cursor:default;font-size:11px;fill:#666666;" text-anchor="end" transform="translate(0,0)" y="132" opacity="1">0.9</text><text x="53" style="color:#666666;cursor:default;font-size:11px;fill:#666666;" text-anchor="end" transform="translate(0,0)" y="67" opacity="1">1.2</text></g><g class="highcharts-axis-labels highcharts-yaxis-labels " data-z-index="7"><text x="547" style="color:#666666;cursor:default;font-size:11px;fill:#666666;" text-anchor="start" transform="translate(0,0)" y="327" opacity="1">0</text><text x="547" style="color:#666666;cursor:default;font-size:11px;fill:#666666;" text-anchor="start" transform="translate(0,0)" y="262" opacity="1">1.6</text><text x="547" style="color:#666666;cursor:default;font-size:11px;fill:#666666;" text-anchor="start" transform="translate(0,0)" y="197" opacity="1">3.2</text><text x="547" style="color:#666666;cursor:default;font-size:11px;fill:#666666;" text-anchor="start" transform="translate(0,0)" y="132" opacity="1">4.8</text><text x="547" style="color:#666666;cursor:default;font-size:11px;fill:#666666;" text-anchor="start" transform="translate(0,0)" y="67" opacity="1">6.4</text></g><a xlink:href="https://quantimo.do" target="_blank">
                    <text x="590" class="highcharts-credits" text-anchor="end" data-z-index="8"
                          style="cursor:pointer;color:#999999;font-size:9px;fill:#999999;" y="395">https://quantimo.do
                    </text>
                </a></svg>