<?xml version="1.0" standalone="no"?><!DOCTYPE svg PUBLIC "-//W3C//DTD SVG 1.1//EN" "http://www.w3.org/Graphics/SVG/1.1/DTD/svg11.dtd"><svg xmlns:xlink="http://www.w3.org/1999/xlink" version="1.1" class="highcharts-root" style="font-family:&quot;Lucida Grande&quot;, &quot;Lucida Sans Unicode&quot;, Arial, Helvetica, sans-serif;font-size:12px;" xmlns="http://www.w3.org/2000/svg" width="600" height="400"><desc>Created with Highstock 6.2.0</desc><defs><clipPath id="highcharts-v3sutqr-255"><rect x="0" y="0" width="532" height="263" fill="none"></rect></clipPath><clipPath id="highcharts-v3sutqr-504"><rect x="0" y="0" width="532" height="263" fill="none"></rect></clipPath><clipPath id="highcharts-v3sutqr-505"><rect x="58" y="78" width="532" height="263" fill="none"></rect></clipPath></defs><rect fill="#ffffff" class="highcharts-background" x="0" y="0" width="600" height="400" rx="0" ry="0"></rect><rect fill="none" class="highcharts-plot-background" x="58" y="78" width="532" height="263"></rect><g class="highcharts-pane-group" data-z-index="0"></g><g class="highcharts-grid highcharts-xaxis-grid " data-z-index="1"><path fill="none" data-z-index="1" class="highcharts-grid-line" d="M 62.5 78 L 62.5 341" opacity="1"></path><path fill="none" data-z-index="1" class="highcharts-grid-line" d="M 167.5 78 L 167.5 341" opacity="1"></path><path fill="none" data-z-index="1" class="highcharts-grid-line" d="M 271.5 78 L 271.5 341" opacity="1"></path><path fill="none" data-z-index="1" class="highcharts-grid-line" d="M 375.5 78 L 375.5 341" opacity="1"></path><path fill="none" data-z-index="1" class="highcharts-grid-line" d="M 479.5 78 L 479.5 341" opacity="1"></path><path fill="none" data-z-index="1" class="highcharts-grid-line" d="M 584.5 78 L 584.5 341" opacity="1"></path></g><g class="highcharts-grid highcharts-yaxis-grid " data-z-index="1"><path fill="none" stroke="#e6e6e6" stroke-width="1" data-z-index="1" class="highcharts-grid-line" d="M 58 341.5 L 590 341.5" opacity="1"></path><path fill="none" stroke="#e6e6e6" stroke-width="1" data-z-index="1" class="highcharts-grid-line" d="M 58 288.5 L 590 288.5" opacity="1"></path><path fill="none" stroke="#e6e6e6" stroke-width="1" data-z-index="1" class="highcharts-grid-line" d="M 58 236.5 L 590 236.5" opacity="1"></path><path fill="none" stroke="#e6e6e6" stroke-width="1" data-z-index="1" class="highcharts-grid-line" d="M 58 183.5 L 590 183.5" opacity="1"></path><path fill="none" stroke="#e6e6e6" stroke-width="1" data-z-index="1" class="highcharts-grid-line" d="M 58 131.5 L 590 131.5" opacity="1"></path><path fill="none" stroke="#e6e6e6" stroke-width="1" data-z-index="1" class="highcharts-grid-line" d="M 58 77.5 L 590 77.5" opacity="1"></path></g><rect fill="none" class="highcharts-plot-border" data-z-index="1" x="58" y="78" width="532" height="263"></rect><g class="highcharts-axis highcharts-xaxis " data-z-index="2"><path fill="none" class="highcharts-tick" stroke="#ccd6eb" stroke-width="1" d="M 62.5 341 L 62.5 351" opacity="1"></path><path fill="none" class="highcharts-tick" stroke="#ccd6eb" stroke-width="1" d="M 167.5 341 L 167.5 351" opacity="1"></path><path fill="none" class="highcharts-tick" stroke="#ccd6eb" stroke-width="1" d="M 271.5 341 L 271.5 351" opacity="1"></path><path fill="none" class="highcharts-tick" stroke="#ccd6eb" stroke-width="1" d="M 375.5 341 L 375.5 351" opacity="1"></path><path fill="none" class="highcharts-tick" stroke="#ccd6eb" stroke-width="1" d="M 479.5 341 L 479.5 351" opacity="1"></path><path fill="none" class="highcharts-tick" stroke="#ccd6eb" stroke-width="1" d="M 584.5 341 L 584.5 351" opacity="1"></path><text x="324" data-z-index="7" text-anchor="middle" transform="translate(0,0)" class="highcharts-axis-title" style="color:#666666;fill:#666666;" y="381"><tspan>Vitamin D3 By NatureMade (mcg) over previous 7 days</tspan></text><path fill="none" class="highcharts-axis-line" stroke="#ccd6eb" stroke-width="1" data-z-index="7" d="M 58 341.5 L 590 341.5"></path></g><g class="highcharts-axis highcharts-yaxis " data-z-index="2"><text x="26" data-z-index="7" text-anchor="middle" transform="translate(0,0) rotate(270 26 209.5)" class="highcharts-axis-title" style="color:#666666;fill:#666666;" y="209.5"><tspan>Overall Mood (/5)</tspan></text><path fill="none" class="highcharts-axis-line" data-z-index="7" d="M 58 78 L 58 341"></path></g><g class="highcharts-series-group" data-z-index="3"><g data-z-index="0.1" class="highcharts-series highcharts-series-0 highcharts-scatter-series highcharts-color-0 " transform="translate(58,78) scale(1 1)" clip-path="url(#highcharts-v3sutqr-504)"></g><g data-z-index="0.1" class="highcharts-markers highcharts-series-0 highcharts-scatter-series highcharts-color-0 " transform="translate(58,78) scale(1 1)" clip-path="none"><path fill="#000000" d="M 9 120 A 4 4 0 1 1 8.999998000000167 119.99600000066667 Z" class="highcharts-point highcharts-color-0"></path><path fill="#000000" d="M 9 139 A 4 4 0 1 1 8.999998000000167 138.99600000066667 Z" class="highcharts-point highcharts-color-0"></path><path fill="#000000" d="M 9 122 A 4 4 0 1 1 8.999998000000167 121.99600000066667 Z" class="highcharts-point highcharts-color-0"></path><path fill="#000000" d="M 9 94 A 4 4 0 1 1 8.999998000000167 93.99600000066667 Z" class="highcharts-point highcharts-color-0"></path><path fill="#000000" d="M 9 108 A 4 4 0 1 1 8.999998000000167 107.99600000066667 Z" class="highcharts-point highcharts-color-0"></path><path fill="#000000" d="M 9 110 A 4 4 0 1 1 8.999998000000167 109.99600000066667 Z" class="highcharts-point highcharts-color-0"></path><path fill="#000000" d="M 9 113 A 4 4 0 1 1 8.999998000000167 112.99600000066667 Z" class="highcharts-point highcharts-color-0"></path><path fill="#000000" d="M 9 105 A 4 4 0 1 1 8.999998000000167 104.99600000066667 Z" class="highcharts-point highcharts-color-0"></path><path fill="#000000" d="M 9 105 A 4 4 0 1 1 8.999998000000167 104.99600000066667 Z" class="highcharts-point highcharts-color-0"></path><path fill="#000000" d="M 9 109 A 4 4 0 1 1 8.999998000000167 108.99600000066667 Z" class="highcharts-point highcharts-color-0"></path><path fill="#000000" d="M 9 105 A 4 4 0 1 1 8.999998000000167 104.99600000066667 Z" class="highcharts-point highcharts-color-0"></path><path fill="#000000" d="M 9 116 A 4 4 0 1 1 8.999998000000167 115.99600000066667 Z" class="highcharts-point highcharts-color-0"></path><path fill="#000000" d="M 9 132 A 4 4 0 1 1 8.999998000000167 131.99600000066667 Z" class="highcharts-point highcharts-color-0"></path><path fill="#000000" d="M 9 116 A 4 4 0 1 1 8.999998000000167 115.99600000066667 Z" class="highcharts-point highcharts-color-0"></path><path fill="#000000" d="M 9 124 A 4 4 0 1 1 8.999998000000167 123.99600000066667 Z" class="highcharts-point highcharts-color-0"></path><path fill="#000000" d="M 9 127 A 4 4 0 1 1 8.999998000000167 126.99600000066667 Z" class="highcharts-point highcharts-color-0"></path><path fill="#000000" d="M 9 109 A 4 4 0 1 1 8.999998000000167 108.99600000066667 Z" class="highcharts-point highcharts-color-0"></path><path fill="#000000" d="M 9 116 A 4 4 0 1 1 8.999998000000167 115.99600000066667 Z" class="highcharts-point highcharts-color-0"></path><path fill="#000000" d="M 9 136 A 4 4 0 1 1 8.999998000000167 135.99600000066667 Z" class="highcharts-point highcharts-color-0"></path><path fill="#000000" d="M 9 123 A 4 4 0 1 1 8.999998000000167 122.99600000066667 Z" class="highcharts-point highcharts-color-0"></path><path fill="#000000" d="M 9 110 A 4 4 0 1 1 8.999998000000167 109.99600000066667 Z" class="highcharts-point highcharts-color-0"></path><path fill="#000000" d="M 9 109 A 4 4 0 1 1 8.999998000000167 108.99600000066667 Z" class="highcharts-point highcharts-color-0"></path><path fill="#000000" d="M 9 109 A 4 4 0 1 1 8.999998000000167 108.99600000066667 Z" class="highcharts-point highcharts-color-0"></path><path fill="#000000" d="M 9 130 A 4 4 0 1 1 8.999998000000167 129.99600000066667 Z" class="highcharts-point highcharts-color-0"></path><path fill="#000000" d="M 9 90 A 4 4 0 1 1 8.999998000000167 89.99600000066667 Z" class="highcharts-point highcharts-color-0"></path><path fill="#000000" d="M 9 124 A 4 4 0 1 1 8.999998000000167 123.99600000066667 Z" class="highcharts-point highcharts-color-0"></path><path fill="#000000" d="M 9 147 A 4 4 0 1 1 8.999998000000167 146.99600000066667 Z" class="highcharts-point highcharts-color-0"></path><path fill="#000000" d="M 9 136 A 4 4 0 1 1 8.999998000000167 135.99600000066667 Z" class="highcharts-point highcharts-color-0"></path><path fill="#000000" d="M 9 130 A 4 4 0 1 1 8.999998000000167 129.99600000066667 Z" class="highcharts-point highcharts-color-0"></path><path fill="#000000" d="M 9 138 A 4 4 0 1 1 8.999998000000167 137.99600000066667 Z" class="highcharts-point highcharts-color-0"></path><path fill="#000000" d="M 11 123 A 4 4 0 1 1 10.999998000000167 122.99600000066667 Z" class="highcharts-point highcharts-color-0"></path><path fill="#000000" d="M 11 105 A 4 4 0 1 1 10.999998000000167 104.99600000066667 Z" class="highcharts-point highcharts-color-0"></path><path fill="#000000" d="M 12 125 A 4 4 0 1 1 11.999998000000167 124.99600000066667 Z" class="highcharts-point highcharts-color-0"></path><path fill="#000000" d="M 12 105 A 4 4 0 1 1 11.999998000000167 104.99600000066667 Z" class="highcharts-point highcharts-color-0"></path><path fill="#000000" d="M 12 92 A 4 4 0 1 1 11.999998000000167 91.99600000066667 Z" class="highcharts-point highcharts-color-0"></path><path fill="#000000" d="M 12 109 A 4 4 0 1 1 11.999998000000167 108.99600000066667 Z" class="highcharts-point highcharts-color-0"></path><path fill="#000000" d="M 12 135 A 4 4 0 1 1 11.999998000000167 134.99600000066667 Z" class="highcharts-point highcharts-color-0"></path><path fill="#000000" d="M 11 123 A 4 4 0 1 1 10.999998000000167 122.99600000066667 Z" class="highcharts-point highcharts-color-0"></path><path fill="#000000" d="M 10 110 A 4 4 0 1 1 9.999998000000167 109.99600000066667 Z" class="highcharts-point highcharts-color-0"></path><path fill="#000000" d="M 9 129 A 4 4 0 1 1 8.999998000000167 128.99600000066667 Z" class="highcharts-point highcharts-color-0"></path><path fill="#000000" d="M 9 145 A 4 4 0 1 1 8.999998000000167 144.99600000066667 Z" class="highcharts-point highcharts-color-0"></path><path fill="#000000" d="M 9 124 A 4 4 0 1 1 8.999998000000167 123.99600000066667 Z" class="highcharts-point highcharts-color-0"></path><path fill="#000000" d="M 9 128 A 4 4 0 1 1 8.999998000000167 127.99600000066667 Z" class="highcharts-point highcharts-color-0"></path><path fill="#000000" d="M 9 118 A 4 4 0 1 1 8.999998000000167 117.99600000066667 Z" class="highcharts-point highcharts-color-0"></path><path fill="#000000" d="M 9 135 A 4 4 0 1 1 8.999998000000167 134.99600000066667 Z" class="highcharts-point highcharts-color-0"></path><path fill="#000000" d="M 9 132 A 4 4 0 1 1 8.999998000000167 131.99600000066667 Z" class="highcharts-point highcharts-color-0"></path><path fill="#000000" d="M 9 171 A 4 4 0 1 1 8.999998000000167 170.99600000066667 Z" class="highcharts-point highcharts-color-0"></path><path fill="#000000" d="M 9 153 A 4 4 0 1 1 8.999998000000167 152.99600000066667 Z" class="highcharts-point highcharts-color-0"></path><path fill="#000000" d="M 9 184 A 4 4 0 1 1 8.999998000000167 183.99600000066667 Z" class="highcharts-point highcharts-color-0"></path><path fill="#000000" d="M 9 165 A 4 4 0 1 1 8.999998000000167 164.99600000066667 Z" class="highcharts-point highcharts-color-0"></path><path fill="#000000" d="M 9 158 A 4 4 0 1 1 8.999998000000167 157.99600000066667 Z" class="highcharts-point highcharts-color-0"></path><path fill="#000000" d="M 9 158 A 4 4 0 1 1 8.999998000000167 157.99600000066667 Z" class="highcharts-point highcharts-color-0"></path><path fill="#000000" d="M 9 137 A 4 4 0 1 1 8.999998000000167 136.99600000066667 Z" class="highcharts-point highcharts-color-0"></path><path fill="#000000" d="M 9 145 A 4 4 0 1 1 8.999998000000167 144.99600000066667 Z" class="highcharts-point highcharts-color-0"></path><path fill="#000000" d="M 9 125 A 4 4 0 1 1 8.999998000000167 124.99600000066667 Z" class="highcharts-point highcharts-color-0"></path><path fill="#000000" d="M 9 158 A 4 4 0 1 1 8.999998000000167 157.99600000066667 Z" class="highcharts-point highcharts-color-0"></path><path fill="#000000" d="M 9 158 A 4 4 0 1 1 8.999998000000167 157.99600000066667 Z" class="highcharts-point highcharts-color-0"></path><path fill="#000000" d="M 9 114 A 4 4 0 1 1 8.999998000000167 113.99600000066667 Z" class="highcharts-point highcharts-color-0"></path><path fill="#000000" d="M 9 114 A 4 4 0 1 1 8.999998000000167 113.99600000066667 Z" class="highcharts-point highcharts-color-0"></path><path fill="#000000" d="M 9 105 A 4 4 0 1 1 8.999998000000167 104.99600000066667 Z" class="highcharts-point highcharts-color-0"></path><path fill="#000000" d="M 9 116 A 4 4 0 1 1 8.999998000000167 115.99600000066667 Z" class="highcharts-point highcharts-color-0"></path><path fill="#000000" d="M 9 53 A 4 4 0 1 1 8.999998000000167 52.99600000066666 Z" class="highcharts-point highcharts-color-0"></path><path fill="#000000" d="M 9 105 A 4 4 0 1 1 8.999998000000167 104.99600000066667 Z" class="highcharts-point highcharts-color-0"></path><path fill="#000000" d="M 9 53 A 4 4 0 1 1 8.999998000000167 52.99600000066666 Z" class="highcharts-point highcharts-color-0"></path><path fill="#000000" d="M 9 105 A 4 4 0 1 1 8.999998000000167 104.99600000066667 Z" class="highcharts-point highcharts-color-0"></path><path fill="#000000" d="M 9 105 A 4 4 0 1 1 8.999998000000167 104.99600000066667 Z" class="highcharts-point highcharts-color-0"></path><path fill="#000000" d="M 9 140 A 4 4 0 1 1 8.999998000000167 139.99600000066667 Z" class="highcharts-point highcharts-color-0"></path><path fill="#000000" d="M 9 123 A 4 4 0 1 1 8.999998000000167 122.99600000066667 Z" class="highcharts-point highcharts-color-0"></path><path fill="#000000" d="M 9 120 A 4 4 0 1 1 8.999998000000167 119.99600000066667 Z" class="highcharts-point highcharts-color-0"></path><path fill="#000000" d="M 9 105 A 4 4 0 1 1 8.999998000000167 104.99600000066667 Z" class="highcharts-point highcharts-color-0"></path><path fill="#000000" d="M 9 158 A 4 4 0 1 1 8.999998000000167 157.99600000066667 Z" class="highcharts-point highcharts-color-0"></path><path fill="#000000" d="M 9 154 A 4 4 0 1 1 8.999998000000167 153.99600000066667 Z" class="highcharts-point highcharts-color-0"></path><path fill="#000000" d="M 9 105 A 4 4 0 1 1 8.999998000000167 104.99600000066667 Z" class="highcharts-point highcharts-color-0"></path><path fill="#000000" d="M 9 114 A 4 4 0 1 1 8.999998000000167 113.99600000066667 Z" class="highcharts-point highcharts-color-0"></path><path fill="#000000" d="M 9 127 A 4 4 0 1 1 8.999998000000167 126.99600000066667 Z" class="highcharts-point highcharts-color-0"></path><path fill="#000000" d="M 9 122 A 4 4 0 1 1 8.999998000000167 121.99600000066667 Z" class="highcharts-point highcharts-color-0"></path><path fill="#000000" d="M 9 148 A 4 4 0 1 1 8.999998000000167 147.99600000066667 Z" class="highcharts-point highcharts-color-0"></path><path fill="#000000" d="M 9 145 A 4 4 0 1 1 8.999998000000167 144.99600000066667 Z" class="highcharts-point highcharts-color-0"></path><path fill="#000000" d="M 9 137 A 4 4 0 1 1 8.999998000000167 136.99600000066667 Z" class="highcharts-point highcharts-color-0"></path><path fill="#000000" d="M 9 143 A 4 4 0 1 1 8.999998000000167 142.99600000066667 Z" class="highcharts-point highcharts-color-0"></path><path fill="#000000" d="M 9 154 A 4 4 0 1 1 8.999998000000167 153.99600000066667 Z" class="highcharts-point highcharts-color-0"></path><path fill="#000000" d="M 9 121 A 4 4 0 1 1 8.999998000000167 120.99600000066667 Z" class="highcharts-point highcharts-color-0"></path><path fill="#000000" d="M 9 109 A 4 4 0 1 1 8.999998000000167 108.99600000066667 Z" class="highcharts-point highcharts-color-0"></path><path fill="#000000" d="M 9 105 A 4 4 0 1 1 8.999998000000167 104.99600000066667 Z" class="highcharts-point highcharts-color-0"></path><path fill="#000000" d="M 9 105 A 4 4 0 1 1 8.999998000000167 104.99600000066667 Z" class="highcharts-point highcharts-color-0"></path><path fill="#000000" d="M 9 105 A 4 4 0 1 1 8.999998000000167 104.99600000066667 Z" class="highcharts-point highcharts-color-0"></path><path fill="#000000" d="M 9 105 A 4 4 0 1 1 8.999998000000167 104.99600000066667 Z" class="highcharts-point highcharts-color-0"></path><path fill="#000000" d="M 9 134 A 4 4 0 1 1 8.999998000000167 133.99600000066667 Z" class="highcharts-point highcharts-color-0"></path><path fill="#000000" d="M 9 148 A 4 4 0 1 1 8.999998000000167 147.99600000066667 Z" class="highcharts-point highcharts-color-0"></path><path fill="#000000" d="M 9 140 A 4 4 0 1 1 8.999998000000167 139.99600000066667 Z" class="highcharts-point highcharts-color-0"></path><path fill="#000000" d="M 9 145 A 4 4 0 1 1 8.999998000000167 144.99600000066667 Z" class="highcharts-point highcharts-color-0"></path><path fill="#000000" d="M 9 133 A 4 4 0 1 1 8.999998000000167 132.99600000066667 Z" class="highcharts-point highcharts-color-0"></path><path fill="#000000" d="M 9 158 A 4 4 0 1 1 8.999998000000167 157.99600000066667 Z" class="highcharts-point highcharts-color-0"></path><path fill="#000000" d="M 9 140 A 4 4 0 1 1 8.999998000000167 139.99600000066667 Z" class="highcharts-point highcharts-color-0"></path><path fill="#000000" d="M 9 119 A 4 4 0 1 1 8.999998000000167 118.99600000066667 Z" class="highcharts-point highcharts-color-0"></path><path fill="#000000" d="M 9 105 A 4 4 0 1 1 8.999998000000167 104.99600000066667 Z" class="highcharts-point highcharts-color-0"></path><path fill="#000000" d="M 9 134 A 4 4 0 1 1 8.999998000000167 133.99600000066667 Z" class="highcharts-point highcharts-color-0"></path><path fill="#000000" d="M 9 158 A 4 4 0 1 1 8.999998000000167 157.99600000066667 Z" class="highcharts-point highcharts-color-0"></path><path fill="#000000" d="M 9 132 A 4 4 0 1 1 8.999998000000167 131.99600000066667 Z" class="highcharts-point highcharts-color-0"></path><path fill="#000000" d="M 9 180 A 4 4 0 1 1 8.999998000000167 179.99600000066667 Z" class="highcharts-point highcharts-color-0"></path><path fill="#000000" d="M 9 146 A 4 4 0 1 1 8.999998000000167 145.99600000066667 Z" class="highcharts-point highcharts-color-0"></path><path fill="#000000" d="M 9 167 A 4 4 0 1 1 8.999998000000167 166.99600000066667 Z" class="highcharts-point highcharts-color-0"></path><path fill="#000000" d="M 9 150 A 4 4 0 1 1 8.999998000000167 149.99600000066667 Z" class="highcharts-point highcharts-color-0"></path><path fill="#000000" d="M 9 149 A 4 4 0 1 1 8.999998000000167 148.99600000066667 Z" class="highcharts-point highcharts-color-0"></path><path fill="#000000" d="M 9 149 A 4 4 0 1 1 8.999998000000167 148.99600000066667 Z" class="highcharts-point highcharts-color-0"></path><path fill="#000000" d="M 9 117 A 4 4 0 1 1 8.999998000000167 116.99600000066667 Z" class="highcharts-point highcharts-color-0"></path><path fill="#000000" d="M 9 151 A 4 4 0 1 1 8.999998000000167 150.99600000066667 Z" class="highcharts-point highcharts-color-0"></path><path fill="#000000" d="M 9 105 A 4 4 0 1 1 8.999998000000167 104.99600000066667 Z" class="highcharts-point highcharts-color-0"></path><path fill="#000000" d="M 9 126 A 4 4 0 1 1 8.999998000000167 125.99600000066667 Z" class="highcharts-point highcharts-color-0"></path><path fill="#000000" d="M 9 151 A 4 4 0 1 1 8.999998000000167 150.99600000066667 Z" class="highcharts-point highcharts-color-0"></path><path fill="#000000" d="M 9 164 A 4 4 0 1 1 8.999998000000167 163.99600000066667 Z" class="highcharts-point highcharts-color-0"></path><path fill="#000000" d="M 9 143 A 4 4 0 1 1 8.999998000000167 142.99600000066667 Z" class="highcharts-point highcharts-color-0"></path><path fill="#000000" d="M 9 140 A 4 4 0 1 1 8.999998000000167 139.99600000066667 Z" class="highcharts-point highcharts-color-0"></path><path fill="#000000" d="M 9 149 A 4 4 0 1 1 8.999998000000167 148.99600000066667 Z" class="highcharts-point highcharts-color-0"></path><path fill="#000000" d="M 9 135 A 4 4 0 1 1 8.999998000000167 134.99600000066667 Z" class="highcharts-point highcharts-color-0"></path><path fill="#000000" d="M 9 105 A 4 4 0 1 1 8.999998000000167 104.99600000066667 Z" class="highcharts-point highcharts-color-0"></path><path fill="#000000" d="M 9 145 A 4 4 0 1 1 8.999998000000167 144.99600000066667 Z" class="highcharts-point highcharts-color-0"></path><path fill="#000000" d="M 9 115 A 4 4 0 1 1 8.999998000000167 114.99600000066667 Z" class="highcharts-point highcharts-color-0"></path><path fill="#000000" d="M 9 158 A 4 4 0 1 1 8.999998000000167 157.99600000066667 Z" class="highcharts-point highcharts-color-0"></path><path fill="#000000" d="M 9 142 A 4 4 0 1 1 8.999998000000167 141.99600000066667 Z" class="highcharts-point highcharts-color-0"></path><path fill="#000000" d="M 9 145 A 4 4 0 1 1 8.999998000000167 144.99600000066667 Z" class="highcharts-point highcharts-color-0"></path><path fill="#000000" d="M 9 162 A 4 4 0 1 1 8.999998000000167 161.99600000066667 Z" class="highcharts-point highcharts-color-0"></path><path fill="#000000" d="M 9 154 A 4 4 0 1 1 8.999998000000167 153.99600000066667 Z" class="highcharts-point highcharts-color-0"></path><path fill="#000000" d="M 9 119 A 4 4 0 1 1 8.999998000000167 118.99600000066667 Z" class="highcharts-point highcharts-color-0"></path><path fill="#000000" d="M 9 160 A 4 4 0 1 1 8.999998000000167 159.99600000066667 Z" class="highcharts-point highcharts-color-0"></path><path fill="#000000" d="M 9 125 A 4 4 0 1 1 8.999998000000167 124.99600000066667 Z" class="highcharts-point highcharts-color-0"></path><path fill="#000000" d="M 9 193 A 4 4 0 1 1 8.999998000000167 192.99600000066667 Z" class="highcharts-point highcharts-color-0"></path><path fill="#000000" d="M 9 204 A 4 4 0 1 1 8.999998000000167 203.99600000066667 Z" class="highcharts-point highcharts-color-0"></path><path fill="#000000" d="M 9 186 A 4 4 0 1 1 8.999998000000167 185.99600000066667 Z" class="highcharts-point highcharts-color-0"></path><path fill="#000000" d="M 9 120 A 4 4 0 1 1 8.999998000000167 119.99600000066667 Z" class="highcharts-point highcharts-color-0"></path><path fill="#000000" d="M 9 158 A 4 4 0 1 1 8.999998000000167 157.99600000066667 Z" class="highcharts-point highcharts-color-0"></path><path fill="#000000" d="M 9 105 A 4 4 0 1 1 8.999998000000167 104.99600000066667 Z" class="highcharts-point highcharts-color-0"></path><path fill="#000000" d="M 9 105 A 4 4 0 1 1 8.999998000000167 104.99600000066667 Z" class="highcharts-point highcharts-color-0"></path><path fill="#000000" d="M 9 158 A 4 4 0 1 1 8.999998000000167 157.99600000066667 Z" class="highcharts-point highcharts-color-0"></path><path fill="#000000" d="M 9 126 A 4 4 0 1 1 8.999998000000167 125.99600000066667 Z" class="highcharts-point highcharts-color-0"></path><path fill="#000000" d="M 9 109 A 4 4 0 1 1 8.999998000000167 108.99600000066667 Z" class="highcharts-point highcharts-color-0"></path><path fill="#000000" d="M 9 116 A 4 4 0 1 1 8.999998000000167 115.99600000066667 Z" class="highcharts-point highcharts-color-0"></path><path fill="#000000" d="M 9 105 A 4 4 0 1 1 8.999998000000167 104.99600000066667 Z" class="highcharts-point highcharts-color-0"></path><path fill="#000000" d="M 9 153 A 4 4 0 1 1 8.999998000000167 152.99600000066667 Z" class="highcharts-point highcharts-color-0"></path><path fill="#000000" d="M 9 132 A 4 4 0 1 1 8.999998000000167 131.99600000066667 Z" class="highcharts-point highcharts-color-0"></path><path fill="#000000" d="M 9 210 A 4 4 0 1 1 8.999998000000167 209.99600000066667 Z" class="highcharts-point highcharts-color-0"></path><path fill="#000000" d="M 9 158 A 4 4 0 1 1 8.999998000000167 157.99600000066667 Z" class="highcharts-point highcharts-color-0"></path><path fill="#000000" d="M 9 158 A 4 4 0 1 1 8.999998000000167 157.99600000066667 Z" class="highcharts-point highcharts-color-0"></path><path fill="#000000" d="M 9 158 A 4 4 0 1 1 8.999998000000167 157.99600000066667 Z" class="highcharts-point highcharts-color-0"></path><path fill="#000000" d="M 9 158 A 4 4 0 1 1 8.999998000000167 157.99600000066667 Z" class="highcharts-point highcharts-color-0"></path><path fill="#000000" d="M 9 164 A 4 4 0 1 1 8.999998000000167 163.99600000066667 Z" class="highcharts-point highcharts-color-0"></path><path fill="#000000" d="M 9 145 A 4 4 0 1 1 8.999998000000167 144.99600000066667 Z" class="highcharts-point highcharts-color-0"></path><path fill="#000000" d="M 9 113 A 4 4 0 1 1 8.999998000000167 112.99600000066667 Z" class="highcharts-point highcharts-color-0"></path><path fill="#000000" d="M 9 112 A 4 4 0 1 1 8.999998000000167 111.99600000066667 Z" class="highcharts-point highcharts-color-0"></path><path fill="#000000" d="M 9 113 A 4 4 0 1 1 8.999998000000167 112.99600000066667 Z" class="highcharts-point highcharts-color-0"></path><path fill="#000000" d="M 9 116 A 4 4 0 1 1 8.999998000000167 115.99600000066667 Z" class="highcharts-point highcharts-color-0"></path><path fill="#000000" d="M 9 114 A 4 4 0 1 1 8.999998000000167 113.99600000066667 Z" class="highcharts-point highcharts-color-0"></path><path fill="#000000" d="M 9 105 A 4 4 0 1 1 8.999998000000167 104.99600000066667 Z" class="highcharts-point highcharts-color-0"></path><path fill="#000000" d="M 9 105 A 4 4 0 1 1 8.999998000000167 104.99600000066667 Z" class="highcharts-point highcharts-color-0"></path><path fill="#000000" d="M 9 126 A 4 4 0 1 1 8.999998000000167 125.99600000066667 Z" class="highcharts-point highcharts-color-0"></path><path fill="#000000" d="M 9 158 A 4 4 0 1 1 8.999998000000167 157.99600000066667 Z" class="highcharts-point highcharts-color-0"></path><path fill="#000000" d="M 9 158 A 4 4 0 1 1 8.999998000000167 157.99600000066667 Z" class="highcharts-point highcharts-color-0"></path><path fill="#000000" d="M 9 147 A 4 4 0 1 1 8.999998000000167 146.99600000066667 Z" class="highcharts-point highcharts-color-0"></path><path fill="#000000" d="M 9 158 A 4 4 0 1 1 8.999998000000167 157.99600000066667 Z" class="highcharts-point highcharts-color-0"></path><path fill="#000000" d="M 9 143 A 4 4 0 1 1 8.999998000000167 142.99600000066667 Z" class="highcharts-point highcharts-color-0"></path><path fill="#000000" d="M 9 171 A 4 4 0 1 1 8.999998000000167 170.99600000066667 Z" class="highcharts-point highcharts-color-0"></path><path fill="#000000" d="M 9 137 A 4 4 0 1 1 8.999998000000167 136.99600000066667 Z" class="highcharts-point highcharts-color-0"></path><path fill="#000000" d="M 9 180 A 4 4 0 1 1 8.999998000000167 179.99600000066667 Z" class="highcharts-point highcharts-color-0"></path><path fill="#000000" d="M 9 158 A 4 4 0 1 1 8.999998000000167 157.99600000066667 Z" class="highcharts-point highcharts-color-0"></path><path fill="#000000" d="M 9 149 A 4 4 0 1 1 8.999998000000167 148.99600000066667 Z" class="highcharts-point highcharts-color-0"></path><path fill="#000000" d="M 9 146 A 4 4 0 1 1 8.999998000000167 145.99600000066667 Z" class="highcharts-point highcharts-color-0"></path><path fill="#000000" d="M 83 119 A 4 4 0 1 1 82.99999800000016 118.99600000066667 Z" class="highcharts-point highcharts-color-0"></path><path fill="#000000" d="M 83 108 A 4 4 0 1 1 82.99999800000016 107.99600000066667 Z" class="highcharts-point highcharts-color-0"></path><path fill="#000000" d="M 83 110 A 4 4 0 1 1 82.99999800000016 109.99600000066667 Z" class="highcharts-point highcharts-color-0"></path><path fill="#000000" d="M 83 133 A 4 4 0 1 1 82.99999800000016 132.99600000066667 Z" class="highcharts-point highcharts-color-0"></path><path fill="#000000" d="M 83 111 A 4 4 0 1 1 82.99999800000016 110.99600000066667 Z" class="highcharts-point highcharts-color-0"></path><path fill="#000000" d="M 83 138 A 4 4 0 1 1 82.99999800000016 137.99600000066667 Z" class="highcharts-point highcharts-color-0"></path><path fill="#000000" d="M 158 148 A 4 4 0 1 1 157.99999800000018 147.99600000066667 Z" class="highcharts-point highcharts-color-0"></path><path fill="#000000" d="M 183 169 A 4 4 0 1 1 182.99999800000018 168.99600000066667 Z" class="highcharts-point highcharts-color-0"></path><path fill="#000000" d="M 270 158 A 4 4 0 1 1 269.9999980000002 157.99600000066667 Z" class="highcharts-point highcharts-color-0"></path><path fill="#000000" d="M 270 140 A 4 4 0 1 1 269.9999980000002 139.99600000066667 Z" class="highcharts-point highcharts-color-0"></path><path fill="#000000" d="M 356 135 A 4 4 0 1 1 355.9999980000002 134.99600000066667 Z" class="highcharts-point highcharts-color-0"></path><path fill="#000000" d="M 443 124 A 4 4 0 1 1 442.9999980000002 123.99600000066667 Z" class="highcharts-point highcharts-color-0"></path><path fill="#000000" d="M 456 137 A 4 4 0 1 1 455.9999980000002 136.99600000066667 Z" class="highcharts-point highcharts-color-0"></path><path fill="#000000" d="M 456 124 A 4 4 0 1 1 455.9999980000002 123.99600000066667 Z" class="highcharts-point highcharts-color-0"></path><path fill="#000000" d="M 456 112 A 4 4 0 1 1 455.9999980000002 111.99600000066667 Z" class="highcharts-point highcharts-color-0"></path><path fill="#000000" d="M 456 117 A 4 4 0 1 1 455.9999980000002 116.99600000066667 Z" class="highcharts-point highcharts-color-0"></path><path fill="#000000" d="M 530 129 A 4 4 0 1 1 529.9999980000001 128.99600000066667 Z" class="highcharts-point highcharts-color-0"></path><path fill="#000000" d="M 530 109 A 4 4 0 1 1 529.9999980000001 108.99600000066667 Z" class="highcharts-point highcharts-color-0"></path><path fill="#000000" d="M 530 110 A 4 4 0 1 1 529.9999980000001 109.99600000066667 Z" class="highcharts-point highcharts-color-0"></path><path fill="#000000" d="M 530 133 A 4 4 0 1 1 529.9999980000001 132.99600000066667 Z" class="highcharts-point highcharts-color-0"></path><path fill="#000000" d="M 530 158 A 4 4 0 1 1 529.9999980000001 157.99600000066667 Z" class="highcharts-point highcharts-color-0"></path><path fill="#000000" d="M 530 142 A 4 4 0 1 1 529.9999980000001 141.99600000066667 Z" class="highcharts-point highcharts-color-0"></path><path fill="#000000" d="M 530 123 A 4 4 0 1 1 529.9999980000001 122.99600000066667 Z" class="highcharts-point highcharts-color-0"></path><path fill="#000000" d="M 530 109 A 4 4 0 1 1 529.9999980000001 108.99600000066667 Z" class="highcharts-point highcharts-color-0"></path><path fill="#000000" d="M 530 155 A 4 4 0 1 1 529.9999980000001 154.99600000066667 Z" class="highcharts-point highcharts-color-0"></path><path fill="#000000" d="M 530 105 A 4 4 0 1 1 529.9999980000001 104.99600000066667 Z" class="highcharts-point highcharts-color-0"></path><path fill="#000000" d="M 530 141 A 4 4 0 1 1 529.9999980000001 140.99600000066667 Z" class="highcharts-point highcharts-color-0"></path><path fill="#000000" d="M 530 122 A 4 4 0 1 1 529.9999980000001 121.99600000066667 Z" class="highcharts-point highcharts-color-0"></path><path fill="#000000" d="M 530 137 A 4 4 0 1 1 529.9999980000001 136.99600000066667 Z" class="highcharts-point highcharts-color-0"></path><path fill="#000000" d="M 530 142 A 4 4 0 1 1 529.9999980000001 141.99600000066667 Z" class="highcharts-point highcharts-color-0"></path><path fill="#000000" d="M 465 123 A 4 4 0 1 1 464.9999980000002 122.99600000066667 Z" class="highcharts-point highcharts-color-0"></path><path fill="#000000" d="M 456 132 A 4 4 0 1 1 455.9999980000002 131.99600000066667 Z" class="highcharts-point highcharts-color-0"></path><path fill="#000000" d="M 456 184 A 4 4 0 1 1 455.9999980000002 183.99600000066667 Z" class="highcharts-point highcharts-color-0"></path><path fill="#000000" d="M 456 132 A 4 4 0 1 1 455.9999980000002 131.99600000066667 Z" class="highcharts-point highcharts-color-0"></path><path fill="#000000" d="M 456 133 A 4 4 0 1 1 455.9999980000002 132.99600000066667 Z" class="highcharts-point highcharts-color-0"></path><path fill="#000000" d="M 400 142 A 4 4 0 1 1 399.9999980000002 141.99600000066667 Z" class="highcharts-point highcharts-color-0"></path><path fill="#000000" d="M 381 146 A 4 4 0 1 1 380.9999980000002 145.99600000066667 Z" class="highcharts-point highcharts-color-0"></path><path fill="#000000" d="M 443 133 A 4 4 0 1 1 442.9999980000002 132.99600000066667 Z" class="highcharts-point highcharts-color-0"></path><path fill="#000000" d="M 456 132 A 4 4 0 1 1 455.9999980000002 131.99600000066667 Z" class="highcharts-point highcharts-color-0"></path><path fill="#000000" d="M 456 132 A 4 4 0 1 1 455.9999980000002 131.99600000066667 Z" class="highcharts-point highcharts-color-0"></path><path fill="#000000" d="M 456 150 A 4 4 0 1 1 455.9999980000002 149.99600000066667 Z" class="highcharts-point highcharts-color-0"></path><path fill="#000000" d="M 381 105 A 4 4 0 1 1 380.9999980000002 104.99600000066667 Z" class="highcharts-point highcharts-color-0"></path><path fill="#000000" d="M 443 105 A 4 4 0 1 1 442.9999980000002 104.99600000066667 Z" class="highcharts-point highcharts-color-0"></path><path fill="#000000" d="M 456 105 A 4 4 0 1 1 455.9999980000002 104.99600000066667 Z" class="highcharts-point highcharts-color-0"></path><path fill="#000000" d="M 456 105 A 4 4 0 1 1 455.9999980000002 104.99600000066667 Z" class="highcharts-point highcharts-color-0"></path><path fill="#000000" d="M 456 105 A 4 4 0 1 1 455.9999980000002 104.99600000066667 Z" class="highcharts-point highcharts-color-0"></path><path fill="#000000" d="M 456 112 A 4 4 0 1 1 455.9999980000002 111.99600000066667 Z" class="highcharts-point highcharts-color-0"></path><path fill="#000000" d="M 456 123 A 4 4 0 1 1 455.9999980000002 122.99600000066667 Z" class="highcharts-point highcharts-color-0"></path><path fill="#000000" d="M 530 140 A 4 4 0 1 1 529.9999980000001 139.99600000066667 Z" class="highcharts-point highcharts-color-0"></path><path fill="#000000" d="M 530 105 A 4 4 0 1 1 529.9999980000001 104.99600000066667 Z" class="highcharts-point highcharts-color-0"></path><path fill="#000000" d="M 530 105 A 4 4 0 1 1 529.9999980000001 104.99600000066667 Z" class="highcharts-point highcharts-color-0"></path><path fill="#000000" d="M 530 105 A 4 4 0 1 1 529.9999980000001 104.99600000066667 Z" class="highcharts-point highcharts-color-0"></path><path fill="#000000" d="M 530 114 A 4 4 0 1 1 529.9999980000001 113.99600000066667 Z" class="highcharts-point highcharts-color-0"></path><path fill="#000000" d="M 530 100 A 4 4 0 1 1 529.9999980000001 99.99600000066667 Z" class="highcharts-point highcharts-color-0"></path><path fill="#000000" d="M 530 111 A 4 4 0 1 1 529.9999980000001 110.99600000066667 Z" class="highcharts-point highcharts-color-0"></path><path fill="#000000" d="M 530 120 A 4 4 0 1 1 529.9999980000001 119.99600000066667 Z" class="highcharts-point highcharts-color-0"></path><path fill="#000000" d="M 530 116 A 4 4 0 1 1 529.9999980000001 115.99600000066667 Z" class="highcharts-point highcharts-color-0"></path><path fill="#000000" d="M 530 137 A 4 4 0 1 1 529.9999980000001 136.99600000066667 Z" class="highcharts-point highcharts-color-0"></path><path fill="#000000" d="M 465 127 A 4 4 0 1 1 464.9999980000002 126.99600000066667 Z" class="highcharts-point highcharts-color-0"></path><path fill="#000000" d="M 456 134 A 4 4 0 1 1 455.9999980000002 133.99600000066667 Z" class="highcharts-point highcharts-color-0"></path><path fill="#000000" d="M 456 125 A 4 4 0 1 1 455.9999980000002 124.99600000066667 Z" class="highcharts-point highcharts-color-0"></path><path fill="#000000" d="M 456 113 A 4 4 0 1 1 455.9999980000002 112.99600000066667 Z" class="highcharts-point highcharts-color-0"></path><path fill="#000000" d="M 456 109 A 4 4 0 1 1 455.9999980000002 108.99600000066667 Z" class="highcharts-point highcharts-color-0"></path><path fill="#000000" d="M 400 125 A 4 4 0 1 1 399.9999980000002 124.99600000066667 Z" class="highcharts-point highcharts-color-0"></path><path fill="#000000" d="M 381 118 A 4 4 0 1 1 380.9999980000002 117.99600000066667 Z" class="highcharts-point highcharts-color-0"></path><path fill="#000000" d="M 443 123 A 4 4 0 1 1 442.9999980000002 122.99600000066667 Z" class="highcharts-point highcharts-color-0"></path><path fill="#000000" d="M 456 121 A 4 4 0 1 1 455.9999980000002 120.99600000066667 Z" class="highcharts-point highcharts-color-0"></path><path fill="#000000" d="M 456 143 A 4 4 0 1 1 455.9999980000002 142.99600000066667 Z" class="highcharts-point highcharts-color-0"></path><path fill="#000000" d="M 456 137 A 4 4 0 1 1 455.9999980000002 136.99600000066667 Z" class="highcharts-point highcharts-color-0"></path><path fill="#000000" d="M 456 147 A 4 4 0 1 1 455.9999980000002 146.99600000066667 Z" class="highcharts-point highcharts-color-0"></path><path fill="#000000" d="M 530 145 A 4 4 0 1 1 529.9999980000001 144.99600000066667 Z" class="highcharts-point highcharts-color-0"></path><path fill="#000000" d="M 456 113 A 4 4 0 1 1 455.9999980000002 112.99600000066667 Z" class="highcharts-point highcharts-color-0"></path><path fill="#000000" d="M 456 118 A 4 4 0 1 1 455.9999980000002 117.99600000066667 Z" class="highcharts-point highcharts-color-0"></path><path fill="#000000" d="M 456 113 A 4 4 0 1 1 455.9999980000002 112.99600000066667 Z" class="highcharts-point highcharts-color-0"></path><path fill="#000000" d="M 456 132 A 4 4 0 1 1 455.9999980000002 131.99600000066667 Z" class="highcharts-point highcharts-color-0"></path><path fill="#000000" d="M 456 125 A 4 4 0 1 1 455.9999980000002 124.99600000066667 Z" class="highcharts-point highcharts-color-0"></path><path fill="#000000" d="M 456 105 A 4 4 0 1 1 455.9999980000002 104.99600000066667 Z" class="highcharts-point highcharts-color-0"></path><path fill="#000000" d="M 232 105 A 4 4 0 1 1 231.99999800000018 104.99600000066667 Z" class="highcharts-point highcharts-color-0"></path><path fill="#000000" d="M 530 105 A 4 4 0 1 1 529.9999980000001 104.99600000066667 Z" class="highcharts-point highcharts-color-0"></path><path fill="#000000" d="M 400 105 A 4 4 0 1 1 399.9999980000002 104.99600000066667 Z" class="highcharts-point highcharts-color-0"></path><path fill="#000000" d="M 9 105 A 4 4 0 1 1 8.999998000000167 104.99600000066667 Z" class="highcharts-point highcharts-color-0"></path><path fill="#000000" d="M 9 132 A 4 4 0 1 1 8.999998000000167 131.99600000066667 Z" class="highcharts-point highcharts-color-0"></path></g></g><text x="300" text-anchor="middle" class="highcharts-title" data-z-index="4" style="color:#333333;font-size:18px;fill:#333333;" y="24"><tspan>Overall Mood Following Vitamin D3 by NatureMade</tspan></text><text x="300" text-anchor="middle" class="highcharts-subtitle" data-z-index="4" style="color:#666666;fill:#666666;" y="46"><tspan>An increase in 7 days cumulative Vitamin D3 By NatureMade is usually followed by an</tspan><tspan dy="15" x="300">increase in Overall Mood. (R = 0.139)</tspan></text><g class="highcharts-axis-labels highcharts-xaxis-labels " data-z-index="7"><text x="63.21568627451" style="color:#666666;cursor:default;font-size:11px;fill:#666666;" text-anchor="middle" transform="translate(0,0)" y="360" opacity="1">0</text><text x="167.52941176471" style="color:#666666;cursor:default;font-size:11px;fill:#666666;" text-anchor="middle" transform="translate(0,0)" y="360" opacity="1">200</text><text x="271.8431372549" style="color:#666666;cursor:default;font-size:11px;fill:#666666;" text-anchor="middle" transform="translate(0,0)" y="360" opacity="1">400</text><text x="376.1568627451" style="color:#666666;cursor:default;font-size:11px;fill:#666666;" text-anchor="middle" transform="translate(0,0)" y="360" opacity="1">600</text><text x="480.47058823529" style="color:#666666;cursor:default;font-size:11px;fill:#666666;" text-anchor="middle" transform="translate(0,0)" y="360" opacity="1">800</text><text x="576" style="color:#666666;cursor:default;font-size:11px;fill:#666666;" text-anchor="middle" transform="translate(0,0)" y="360" opacity="1">1000</text></g><g class="highcharts-axis-labels highcharts-yaxis-labels " data-z-index="7"><text x="43" style="color:#666666;cursor:default;font-size:11px;fill:#666666;" text-anchor="end" transform="translate(0,0)" y="345" opacity="1">0</text><text x="43" style="color:#666666;cursor:default;font-size:11px;fill:#666666;" text-anchor="end" transform="translate(0,0)" y="292" opacity="1">1</text><text x="43" style="color:#666666;cursor:default;font-size:11px;fill:#666666;" text-anchor="end" transform="translate(0,0)" y="239" opacity="1">2</text><text x="43" style="color:#666666;cursor:default;font-size:11px;fill:#666666;" text-anchor="end" transform="translate(0,0)" y="187" opacity="1">3</text><text x="43" style="color:#666666;cursor:default;font-size:11px;fill:#666666;" text-anchor="end" transform="translate(0,0)" y="134" opacity="1">4</text><text x="43" style="color:#666666;cursor:default;font-size:11px;fill:#666666;" text-anchor="end" transform="translate(0,0)" y="82" opacity="1">5</text></g><a xlink:href="https://quantimo.do" target="_blank">
                    <text x="590" class="highcharts-credits" text-anchor="end" data-z-index="8"
                          style="cursor:pointer;color:#999999;font-size:9px;fill:#999999;" y="395">https://quantimo.do
                    </text>
                </a></svg>