<?xml version="1.0" standalone="no"?><!DOCTYPE svg PUBLIC "-//W3C//DTD SVG 1.1//EN" "http://www.w3.org/Graphics/SVG/1.1/DTD/svg11.dtd"><svg xmlns:xlink="http://www.w3.org/1999/xlink" version="1.1" class="highcharts-root" style="font-family:&quot;Lucida Grande&quot;, &quot;Lucida Sans Unicode&quot;, Arial, Helvetica, sans-serif;font-size:12px;" xmlns="http://www.w3.org/2000/svg" width="600" height="400"><desc>Created with Highstock 6.2.0</desc><defs><clipPath id="highcharts-slajpsc-177"><rect x="0" y="0" width="477" height="260" fill="none"></rect></clipPath><clipPath id="highcharts-slajpsc-262"><rect x="0" y="0" width="477" height="260" fill="none"></rect></clipPath><clipPath id="highcharts-slajpsc-347"><rect x="0" y="0" width="477" height="260" fill="none"></rect></clipPath><clipPath id="highcharts-slajpsc-348"><rect x="65" y="63" width="477" height="260" fill="none"></rect></clipPath></defs><rect fill="#ffffff" class="highcharts-background" x="0" y="0" width="600" height="400" rx="0" ry="0"></rect><rect fill="none" class="highcharts-plot-background" x="65" y="63" width="477" height="260"></rect><g class="highcharts-pane-group" data-z-index="0"></g><g class="highcharts-grid highcharts-xaxis-grid " data-z-index="1"><path fill="none" data-z-index="1" class="highcharts-grid-line" d="M 112.5 63 L 112.5 323" opacity="1"></path><path fill="none" data-z-index="1" class="highcharts-grid-line" d="M 188.5 63 L 188.5 323" opacity="1"></path><path fill="none" data-z-index="1" class="highcharts-grid-line" d="M 264.5 63 L 264.5 323" opacity="1"></path><path fill="none" data-z-index="1" class="highcharts-grid-line" d="M 341.5 63 L 341.5 323" opacity="1"></path><path fill="none" data-z-index="1" class="highcharts-grid-line" d="M 417.5 63 L 417.5 323" opacity="1"></path><path fill="none" data-z-index="1" class="highcharts-grid-line" d="M 493.5 63 L 493.5 323" opacity="1"></path></g><g class="highcharts-grid highcharts-yaxis-grid " data-z-index="1"><path fill="none" stroke="#e6e6e6" stroke-width="1" data-z-index="1" class="highcharts-grid-line" d="M 65 323.5 L 542 323.5" opacity="1"></path><path fill="none" stroke="#e6e6e6" stroke-width="1" data-z-index="1" class="highcharts-grid-line" d="M 65 258.5 L 542 258.5" opacity="1"></path><path fill="none" stroke="#e6e6e6" stroke-width="1" data-z-index="1" class="highcharts-grid-line" d="M 65 193.5 L 542 193.5" opacity="1"></path><path fill="none" stroke="#e6e6e6" stroke-width="1" data-z-index="1" class="highcharts-grid-line" d="M 65 128.5 L 542 128.5" opacity="1"></path><path fill="none" stroke="#e6e6e6" stroke-width="1" data-z-index="1" class="highcharts-grid-line" d="M 65 62.5 L 542 62.5" opacity="1"></path></g><g class="highcharts-grid highcharts-yaxis-grid " data-z-index="1"><path fill="none" stroke="#e6e6e6" stroke-width="1" data-z-index="1" class="highcharts-grid-line" d="M 65 323.5 L 542 323.5" opacity="1"></path><path fill="none" stroke="#e6e6e6" stroke-width="1" data-z-index="1" class="highcharts-grid-line" d="M 65 258.5 L 542 258.5" opacity="1"></path><path fill="none" stroke="#e6e6e6" stroke-width="1" data-z-index="1" class="highcharts-grid-line" d="M 65 193.5 L 542 193.5" opacity="1"></path><path fill="none" stroke="#e6e6e6" stroke-width="1" data-z-index="1" class="highcharts-grid-line" d="M 65 128.5 L 542 128.5" opacity="1"></path><path fill="none" stroke="#e6e6e6" stroke-width="1" data-z-index="1" class="highcharts-grid-line" d="M 65 62.5 L 542 62.5" opacity="1"></path></g><rect fill="none" class="highcharts-plot-border" data-z-index="1" x="65" y="63" width="477" height="260"></rect><g class="highcharts-axis highcharts-xaxis " data-z-index="2"><path fill="none" class="highcharts-tick" stroke="#ccd6eb" stroke-width="1" d="M 112.5 323 L 112.5 333" opacity="1"></path><path fill="none" class="highcharts-tick" stroke="#ccd6eb" stroke-width="1" d="M 188.5 323 L 188.5 333" opacity="1"></path><path fill="none" class="highcharts-tick" stroke="#ccd6eb" stroke-width="1" d="M 264.5 323 L 264.5 333" opacity="1"></path><path fill="none" class="highcharts-tick" stroke="#ccd6eb" stroke-width="1" d="M 341.5 323 L 341.5 333" opacity="1"></path><path fill="none" class="highcharts-tick" stroke="#ccd6eb" stroke-width="1" d="M 417.5 323 L 417.5 333" opacity="1"></path><path fill="none" class="highcharts-tick" stroke="#ccd6eb" stroke-width="1" d="M 493.5 323 L 493.5 333" opacity="1"></path><path fill="none" class="highcharts-axis-line" stroke="#ccd6eb" stroke-width="1" data-z-index="7" d="M 65 323.5 L 542 323.5"></path></g><g class="highcharts-axis highcharts-yaxis " data-z-index="2"><text x="26" data-z-index="7" text-anchor="middle" transform="translate(0,0) rotate(270 26 193)" class="highcharts-axis-title" style="color:#666666;fill:#666666;" y="193"><tspan>MEAN Body Mass Index Or BMI (index)</tspan></text><path fill="none" class="highcharts-axis-line" stroke="#ccd6eb" stroke-width="1" data-z-index="7" d="M 64.5 63 L 64.5 323"></path></g><g class="highcharts-axis highcharts-yaxis " data-z-index="2"><text x="574" data-z-index="7" text-anchor="middle" transform="translate(0,0) rotate(90 574 193)" class="highcharts-axis-title" style="color:#666666;fill:#666666;" y="193"><tspan>MEAN Inflammatory Pain (/5)</tspan></text><path fill="none" class="highcharts-axis-line" stroke="#ccd6eb" stroke-width="1" data-z-index="7" d="M 542.5 63 L 542.5 323"></path></g><g class="highcharts-series-group" data-z-index="3"><g data-z-index="0.1" class="highcharts-series highcharts-series-0 highcharts-spline-series highcharts-color-0 " transform="translate(65,63) scale(1 1)" clip-path="url(#highcharts-slajpsc-262)"><path fill="none" d="M 4.6764705882353 95.38878440856703 C 4.6764705882353 95.38878440856703 7.93912448700392 95.38878440856703 10.114227086183 95.38878440856703 C 12.2893296853622 95.38878440856703 13.3768809849518 95.38878440856703 15.551983584131 95.38878440856703 C 17.7270861833102 95.38878440856703 18.8146374828998 95.38878440856703 20.989740082079 95.38878440856703 C 23.1648426812582 95.38878440856703 24.252393980847803 95.38878440856703 26.427496580027 95.38878440856703 C 28.6025991792062 95.38878440856703 29.6901504787958 95.38878440856703 31.865253077975 95.29679298400879 C 34.0403556771542 95.20480155945054 35.1279069767438 89.73540306091309 37.303009575923 86.02785110473633 C 39.4781121751022 82.32029914855957 40.5656634746918 80.46658515930176 42.740766073871 76.759033203125 C 44.915868673050205 73.05148124694824 46.003419972639804 71.19766807556152 48.178522571819 67.49009132385254 C 50.3536251709982 63.782514572143555 51.4411764705878 61.92870140075684 53.616279069767 58.22114944458008 C 55.7913816689462 54.51359748840333 56.8789329685358 52.6598834991455 59.054035567715 48.95233154296875 C 61.2291381668942 45.244779586791985 62.31668946648381 43.39094161987305 64.491792065663 39.68338966369629 C 66.6668946648422 35.97583770751953 67.75444596443181 34.12214851379358 69.929548563611 30.41457176208496 C 72.1046511627906 26.706995010375614 73.1922024623804 24.853082656860703 75.36730506156 21.145505905151367 C 77.5424076607392 17.437929153442735 78.6299589603288 11.876688003542569 80.805061559508 11.876688003540039 C 82.9801641586872 11.87668800353751 84.06771545827681 11.87668800353751 86.242818057456 11.87668800353751 C 88.41792065663519 11.87668800353751 89.5054719562248 11.87668800353751 91.680574555404 11.87668800353751 C 93.85567715458319 11.87668800353751 94.9432284541728 11.87668800353751 97.118331053352 11.87668800353751 C 99.29343365253119 11.87668800353751 100.3809849521208 11.87668800353751 102.5560875513 11.87668800353751 C 104.73119015048 11.87668800353751 105.81874145007001 11.87668800353751 107.99384404925 11.87668800353751 C 110.16894664843001 11.87668800353751 111.25649794802 11.87668800353751 113.4316005472 11.87668800353751 C 115.606703146376 11.87668800353751 116.69425444596399 11.87668800353751 118.86935704514 11.87668800353751 C 121.04445964432 11.87668800353751 122.13201094390999 11.87668800353751 124.30711354309 11.87668800353751 C 126.48221614227 11.87668800353751 127.56976744186 11.87668800353751 129.74487004104 11.87668800353751 C 131.91997264022 11.87668800353751 133.00752393981003 11.87668800353751 135.18262653899 11.87668800353751 C 137.35772913817 11.87668800353751 138.44528043776 11.87668800353751 140.62038303694 11.87668800353751 C 142.795485636116 11.87668800353751 143.883036935704 11.87668800353751 146.05813953488 11.87668800353751 C 148.23324213406 11.87668800353751 149.32079343364998 11.87668800353751 151.49589603283 11.87668800353751 C 153.67099863201 11.87668800353751 154.7585499316 11.87668800353751 156.93365253078 11.87668800353751 C 159.10875512996 11.87668800353751 160.19630642955 11.87668800353751 162.37140902873 11.87668800353751 C 164.54651162791 11.87668800353751 165.6340629275 11.87668800353751 167.80916552668 11.87668800353751 C 176.509575923396 11.87668800353751 180.859781121754 11.87668800353751 189.56019151847 11.87668800353751 C 191.73529411764997 11.87668800353751 192.82284541724 11.87668800353751 194.99794801642 11.87668800353751 C 197.173050615596 11.87668800353751 198.260601915184 11.87668800353751 200.43570451436 11.87668800353751 C 202.61080711354003 11.87668800353751 203.69835841313 11.87668800353751 205.87346101231 11.87668800353751 C 208.04856361149 11.87668800353751 209.13611491108 11.87668800353751 211.31121751026 11.87668800353751 C 213.48632010944002 11.87668800353751 214.57387140903 11.87668800353751 216.74897400821 11.87668800353751 C 218.92407660739 11.87668800353751 220.01162790697998 11.87668800353751 222.18673050616 11.87668800353751 C 224.36183310533596 11.87668800353751 225.44938440492396 11.87668800353751 227.6244870041 11.87668800353751 C 229.79958960328 11.87668800353751 230.88714090287 13.498786926269025 233.06224350205 14.580144882202148 C 235.23734610123 15.661502838135272 236.32489740082002 16.20209503173828 238.5 17.283477783203125 C 240.67510259917998 18.36486053466797 241.76265389877 18.905675888061523 243.93775649795 19.987058639526367 C 246.11285909713 21.06844139099121 247.20041039672 21.60903358459374 249.3755129959 22.690391540527344 C 251.55061559507604 23.771749496458973 252.63816689466404 24.31246566772561 254.81326949384 25.393848419189453 C 256.98837209302 26.4752311706553 258.07592339261 27.01594734191893 260.25102599179 28.097305297851562 C 262.42612859097 29.178663253784165 263.51367989055996 29.719255447387695 265.68878248974 30.80063819885254 C 267.86388508892003 31.882020950317383 268.95143638851 32.42283630371092 271.12653898769 33.50421905517578 C 273.30164158687 34.58560180664061 274.38919288646 35.12619400024315 276.56429548564 36.20755195617676 C 278.739398084816 37.28890991210839 279.826949384404 37.82965087890724 282.00205198358 38.91100883483887 C 284.17715458275995 39.99236679077247 285.26470588235 40.53298377990721 287.43980848153 41.614341735839844 C 289.61491108071 42.69569969177245 290.7024623803 43.2363910675049 292.87756497948 44.31779861450195 C 295.05266757866 45.39920616149904 296.14021887825004 45.93999671936035 298.31532147743 47.021379470825195 C 300.49042407661 48.10276222229004 301.5779753762 48.64335441589257 303.75307797538 49.72471237182617 C 305.928180574556 50.8060703277578 307.015731874144 51.346811294556666 309.19083447332 52.42816925048828 C 311.36593707250006 53.5095272064219 312.45348837209 54.050144195556655 314.62859097127 55.13150215148926 C 316.80369357045004 56.21286010742189 317.89124487004 56.75355148315431 320.06634746922 57.83495903015137 C 322.2414500684 58.91636657714845 323.32900136799 59.45715713500975 325.50410396717 60.53853988647461 C 327.67920656635 61.61992263793944 328.76675786593995 62.16051483154196 330.94186046512 63.241872787475586 C 333.116963064296 64.3232307434072 334.204514363884 64.86397171020607 336.37961696306 65.9453296661377 C 338.55471956224 67.02668762207131 339.64227086183 67.56730461120605 341.81737346101 68.64866256713867 C 343.99247606019 69.73002052307129 345.08002735978005 70.27076148986818 347.25512995896 71.35211944580078 C 349.43023255814006 72.43347740173341 350.51778385773 72.97406959533693 352.69288645691 74.05545234680176 C 354.86798905609004 75.13683509826662 355.95554035568 75.67762565612693 358.13064295486 76.759033203125 C 360.305745554036 77.84044075012108 361.393296853624 78.3811321258555 363.5683994528 79.46249008178711 C 365.74350205198004 80.54384803772074 366.83105335157 81.08446502685548 369.00615595075 82.16582298278809 C 371.18125854993 83.24718093872072 372.26880984952 83.78792190551756 374.4439124487 84.8692798614502 C 376.61901504788 85.9506378173828 377.70656634747 86.49123001098633 379.88166894665 87.57261276245117 C 382.05677154583 88.65399551391602 383.14432284542 89.19478607177635 385.3194254446 90.27619361877441 C 387.494528043776 91.35760116577049 388.58207934336394 91.89829254150489 390.75718194254 92.97965049743652 C 392.93228454172 94.06100845337012 394.01983584131 94.6016254425049 396.19493844049 95.6829833984375 C 398.37004103967 96.76434135437013 399.45759233926003 97.30508232116699 401.63269493844 98.38644027709961 C 403.80779753762 99.46779823303223 404.89534883721 100.00839042663576 407.07045143639 101.08977317810059 C 409.24555403557 102.17115592956544 410.33310533516 102.71197128295796 412.50820793434 103.79335403442383 C 414.68331053351596 104.87473678588765 415.77086183310405 105.41532897949321 417.94596443228 106.4966869354248 C 420.12106703146003 107.57804489135845 421.20861833105 108.11876106262206 423.38372093023 109.20014381408691 C 425.55882352941 110.28152656555174 426.64637482899997 110.82224273681639 428.82147742818 111.90360069274902 C 430.99658002736 112.98495864868163 432.08413132694994 113.52555084228516 434.25923392613 114.60693359375 C 436.43433652531 115.68831634521484 437.52188782490003 116.2291316986074 439.69699042408 117.31051445007324 C 441.872093023256 118.39189720153709 442.959644322844 118.9324893951426 445.13474692202 120.01384735107422 C 447.30984952119996 121.09520530700783 448.39740082079004 121.6359214782715 450.57250341997 122.71730422973633 C 452.74760601915006 123.79868698120119 453.83515731874 124.22906303405763 456.01025991792 125.42076110839844 C 458.18536251710003 126.61245918273927 459.27291381669 128.21596145629883 461.44801641587 128.67579460144043 C 463.62311901505 129.13562774658203 464.71067031463997 128.95169448852522 466.88577291382 129.13562774658203 C 469.06087551299606 129.3195610046385 472.32352941176 129.59546089172363 472.32352941176 129.59546089172363" class="highcharts-graph" data-z-index="1" stroke="#000000" stroke-width="2" stroke-linejoin="round" stroke-linecap="round"></path></g><g data-z-index="0.1" class="highcharts-markers highcharts-series-0 highcharts-spline-series highcharts-color-0 " transform="translate(65,63) scale(1 1)" clip-path="none"></g><g data-z-index="0.1" class="highcharts-series highcharts-series-1 highcharts-spline-series highcharts-color-1 " transform="translate(65,63) scale(1 1)" clip-path="url(#highcharts-slajpsc-347)"><path fill="none" d="M 4.6764705882353 98.11904761904762 C 4.6764705882353 98.11904761904762 7.93912448700392 101.8333333333334 10.114227086183 103.6904761904762 C 12.2893296853622 105.54761904761911 13.3768809849518 107.4047619047619 15.551983584131 107.4047619047619 C 17.7270861833102 107.4047619047619 18.8146374828998 107.4047619047619 20.989740082079 107.4047619047619 C 23.1648426812582 107.4047619047619 24.252393980847803 103.63888888888889 26.427496580027 103.63888888888889 C 28.6025991792062 103.63888888888889 29.6901504787958 109.05555555555557 31.865253077975 109.05555555555557 C 34.0403556771542 109.05555555555557 35.1279069767438 100.33111111111111 37.303009575923 97.06666666666666 C 39.4781121751022 93.80222222222221 40.5656634746918 94.34285714285713 42.740766073871 92.73333333333332 C 44.915868673050205 91.1238095238095 46.003419972639804 91.5612698412698 48.178522571819 89.0190476190476 C 50.3536251709982 86.47682539682538 51.4411764705878 84.33079365079368 53.616279069767 80.02222222222224 C 55.7913816689462 75.71365079365083 56.8789329685358 67.47619047619048 59.054035567715 67.47619047619048 C 61.2291381668942 67.47619047619048 62.31668946648381 68.52857142857142 64.491792065663 69.60416666666666 C 66.6668946648422 70.6797619047619 67.75444596443181 69.97404761904792 69.929548563611 72.85416666666669 C 72.1046511627906 75.73428571428602 73.1922024623804 79.29845238095193 75.36730506156 84.00476190476189 C 77.5424076607392 88.71107142857097 78.6299589603288 95.76666666666671 80.805061559508 96.3857142857143 C 82.9801641586872 97.00476190476189 84.06771545827681 96.70607142857142 86.242818057456 97.00476190476189 C 88.41792065663519 97.30345238095236 89.5054719562248 97.00476190476189 91.680574555404 97.87916666666666 C 93.85567715458319 98.75357142857143 94.9432284541728 109.00757936507934 97.118331053352 112.97619047619045 C 99.29343365253119 116.94480158730155 100.3809849521208 117.72222222222223 102.5560875513 117.72222222222223 C 104.73119015048 117.72222222222223 105.81874145007001 117.72222222222223 107.99384404925 117.72222222222223 C 110.16894664843001 117.72222222222223 111.25649794802 119.88888888888889 113.4316005472 119.88888888888889 C 115.606703146376 119.88888888888889 116.69425444596399 116.49444444444333 118.86935704514 115.26666666666668 C 121.04445964432 114.03888888888778 122.13201094390999 113.75 124.30711354309 113.75 C 126.48221614227 113.75 127.56976744186 114.61666666666667 129.74487004104 117 C 131.91997264022 119.38333333333333 133.00752393981003 125.66666666666666 135.18262653899 125.66666666666666 C 137.35772913817 125.66666666666666 138.44528043776 125.66666666666666 140.62038303694 125.66666666666666 C 142.795485636116 125.66666666666666 143.883036935704 126.53333333333651 146.05813953488 130 C 148.23324213406 133.46666666666985 149.32079343364998 143 151.49589603283 143 C 153.67099863201 143 154.7585499316 143 156.93365253078 143 C 159.10875512996 143 160.19630642955 143 162.37140902873 143 C 164.54651162791 143 165.6340629275 143 167.80916552668 143 C 176.509575923396 143 180.859781121754 143 189.56019151847 143 C 191.73529411764997 143 192.82284541724 143 194.99794801642 143 C 197.173050615596 143 198.260601915184 143 200.43570451436 143 C 202.61080711354003 143 203.69835841313 143 205.87346101231 143 C 208.04856361149 143 209.13611491108 143 211.31121751026 143 C 213.48632010944002 143 214.57387140903 143 216.74897400821 143 C 218.92407660739 143 220.01162790697998 143 222.18673050616 143 C 224.36183310533596 143 225.44938440492396 143 227.6244870041 143 C 229.79958960328 143 230.88714090287 143 233.06224350205 143 C 235.23734610123 143 236.32489740082002 143 238.5 143 C 240.67510259917998 143 241.76265389877 134.33333333333331 243.93775649795 134.33333333333331 C 246.11285909713 134.33333333333331 247.20041039672 134.33333333333331 249.3755129959 134.33333333333331 C 251.55061559507604 134.33333333333331 252.63816689466404 126.96666666666344 254.81326949384 123.5 C 256.98837209302 120.03333333333012 258.07592339261 117 260.25102599179 117 C 262.42612859097 117 263.51367989055996 117 265.68878248974 117 C 267.86388508892003 117 268.95143638851 117 271.12653898769 117 C 273.30164158687 117 274.38919288646 122.19999999999999 276.56429548564 122.19999999999999 C 278.739398084816 122.19999999999999 279.826949384404 122.19999999999999 282.00205198358 122.19999999999999 C 284.17715458275995 122.19999999999999 285.26470588235 122.19999999999999 287.43980848153 122.19999999999999 C 289.61491108071 122.19999999999999 290.7024623803 127.4 292.87756497948 127.4 C 295.05266757866 127.4 296.14021887825004 127.4 298.31532147743 127.4 C 300.49042407661 127.4 301.5779753762 125.66666666666669 303.75307797538 125.66666666666669 C 305.928180574556 125.66666666666669 307.015731874144 125.66666666666669 309.19083447332 125.66666666666669 C 311.36593707250006 125.66666666666669 312.45348837209 122.19999999999999 314.62859097127 122.19999999999999 C 316.80369357045004 122.19999999999999 317.89124487004 123.5 320.06634746922 123.5 C 322.2414500684 123.5 323.32900136799 117 325.50410396717 117 C 327.67920656635 117 328.76675786593995 117 330.94186046512 117 C 333.116963064296 117 334.204514363884 132.60000000000952 336.37961696306 143 C 338.55471956224 153.40000000000953 339.64227086183 169 341.81737346101 169 C 343.99247606019 169 345.08002735978005 169 347.25512995896 169 C 349.43023255814006 169 350.51778385773 169 352.69288645691 169 C 354.86798905609004 169 355.95554035568 143 358.13064295486 143 C 360.305745554036 143 361.393296853624 143 363.5683994528 143 C 365.74350205198004 143 366.83105335157 143 369.00615595075 143 C 371.18125854993 143 372.26880984952 134.33333333333331 374.4439124487 134.33333333333331 C 376.61901504788 134.33333333333331 377.70656634747 134.76666666666668 379.88166894665 136.5 C 382.05677154583 138.23333333333335 383.14432284542 143 385.3194254446 143 C 387.494528043776 143 388.58207934336394 143 390.75718194254 143 C 392.93228454172 143 394.01983584131 151.66666666666663 396.19493844049 151.66666666666663 C 398.37004103967 151.66666666666663 399.45759233926003 151.66666666666663 401.63269493844 151.66666666666663 C 403.80779753762 151.66666666666663 404.89534883721 152.53333333333333 407.07045143639 153.4 C 409.24555403557 154.26666666666668 410.33310533516 154.613333333332 412.50820793434 156 C 414.68331053351596 157.38666666666538 415.77086183310405 160.33333333333334 417.94596443228 160.33333333333334 C 420.12106703146003 160.33333333333334 421.20861833105 160.33333333333334 423.38372093023 160.33333333333334 C 425.55882352941 160.33333333333334 426.64637482899997 169 428.82147742818 169 C 430.99658002736 169 432.08413132694994 169 434.25923392613 169 C 436.43433652531 169 437.52188782490003 169 439.69699042408 169 C 441.872093023256 169 442.959644322844 169 445.13474692202 169 C 447.30984952119996 169 448.39740082079004 169 450.57250341997 169 C 452.74760601915006 169 453.83515731874 169 456.01025991792 169 C 458.18536251710003 169 459.27291381669 169 461.44801641587 169 C 463.62311901505 169 464.71067031463997 169 466.88577291382 169 C 469.06087551299606 169 472.32352941176 169 472.32352941176 169" class="highcharts-graph" data-z-index="1" stroke="#5D83FF" stroke-width="2" stroke-linejoin="round" stroke-linecap="round"></path></g><g data-z-index="0.1" class="highcharts-markers highcharts-series-1 highcharts-spline-series highcharts-color-1 " transform="translate(65,63) scale(1 1)" clip-path="none"></g></g><text x="300" text-anchor="middle" class="highcharts-title" data-z-index="4" style="color:#333333;font-size:18px;fill:#333333;" y="24"><tspan>Body Mass Index or BMI &amp; Inflammatory Pain Over Time</tspan></text><text x="300" text-anchor="middle" class="highcharts-subtitle" data-z-index="4" style="color:#666666;fill:#666666;" y="46"><tspan>Black represents the mean of Body Mass Index Or BMI over the previous 7 days</tspan></text><g class="highcharts-legend" data-z-index="7" transform="translate(79,358)"><rect fill="none" class="highcharts-legend-box" rx="0" ry="0" x="0" y="0" width="442" height="27" visibility="visible"></rect><g data-z-index="1"><g><g class="highcharts-legend-item highcharts-spline-series highcharts-color-0 highcharts-series-0" data-z-index="1" transform="translate(8,3)"><path fill="none" d="M 0 11 L 16 11" class="highcharts-graph" stroke="#000000" stroke-width="2"></path><path fill="#000000" d="M 12 11 A 4 4 0 1 1 11.999998000000167 10.996000000666664 Z" class="highcharts-point"></path><text x="21" style="color:#333333;font-size:12px;font-weight:bold;cursor:pointer;fill:#333333;" text-anchor="start" data-z-index="2" y="15"><tspan>Body Mass Index Or BMI (index)</tspan></text></g><g class="highcharts-legend-item highcharts-spline-series highcharts-color-1 highcharts-series-1" data-z-index="1" transform="translate(262,3)"><path fill="none" d="M 0 11 L 16 11" class="highcharts-graph" stroke="#5D83FF" stroke-width="2"></path><path fill="#5D83FF" d="M 8 7 L 12 11 8 15 4 11 Z" class="highcharts-point"></path><text x="21" y="15" style="color:#333333;font-size:12px;font-weight:bold;cursor:pointer;fill:#333333;" text-anchor="start" data-z-index="2"><tspan>Inflammatory Pain (/5)</tspan></text></g></g></g></g><g class="highcharts-axis-labels highcharts-xaxis-labels " data-z-index="7"><text x="116.17852257182" style="color:#666666;cursor:default;font-size:11px;fill:#666666;" text-anchor="start" transform="translate(0,0)" y="342" opacity="1"><tspan>21. Jan</tspan></text><text x="192.30711354309" style="color:#666666;cursor:default;font-size:11px;fill:#666666;" text-anchor="start" transform="translate(0,0)" y="342" opacity="1"><tspan>4. Feb</tspan></text><text x="268.43570451436" style="color:#666666;cursor:default;font-size:11px;fill:#666666;" text-anchor="start" transform="translate(0,0)" y="342" opacity="1"><tspan>18. Feb</tspan></text><text x="344.56429548564" style="color:#666666;cursor:default;font-size:11px;fill:#666666;" text-anchor="start" transform="translate(0,0)" y="342" opacity="1"><tspan>4. Mar</tspan></text><text x="420.69288645691" style="color:#666666;cursor:default;font-size:11px;fill:#666666;" text-anchor="start" transform="translate(0,0)" y="342" opacity="1"><tspan>18. Mar</tspan></text><text x="496.82147742818" style="color:#666666;cursor:default;font-size:11px;fill:#666666;" text-anchor="start" transform="translate(0,0)" y="342" opacity="1"><tspan>1. Apr</tspan></text></g><g class="highcharts-axis-labels highcharts-yaxis-labels " data-z-index="7"><text x="50" style="color:#666666;cursor:default;font-size:11px;fill:#666666;" text-anchor="end" transform="translate(0,0)" y="327" opacity="1">18</text><text x="50" style="color:#666666;cursor:default;font-size:11px;fill:#666666;" text-anchor="end" transform="translate(0,0)" y="262" opacity="1">19</text><text x="50" style="color:#666666;cursor:default;font-size:11px;fill:#666666;" text-anchor="end" transform="translate(0,0)" y="197" opacity="1">20</text><text x="50" style="color:#666666;cursor:default;font-size:11px;fill:#666666;" text-anchor="end" transform="translate(0,0)" y="132" opacity="1">21</text><text x="50" style="color:#666666;cursor:default;font-size:11px;fill:#666666;" text-anchor="end" transform="translate(0,0)" y="67" opacity="1">22</text></g><g class="highcharts-axis-labels highcharts-yaxis-labels " data-z-index="7"><text x="557" style="color:#666666;cursor:default;font-size:11px;fill:#666666;" text-anchor="start" transform="translate(0,0)" y="327" opacity="1">0</text><text x="557" style="color:#666666;cursor:default;font-size:11px;fill:#666666;" text-anchor="start" transform="translate(0,0)" y="262" opacity="1">1</text><text x="557" style="color:#666666;cursor:default;font-size:11px;fill:#666666;" text-anchor="start" transform="translate(0,0)" y="197" opacity="1">2</text><text x="557" style="color:#666666;cursor:default;font-size:11px;fill:#666666;" text-anchor="start" transform="translate(0,0)" y="132" opacity="1">3</text><text x="557" style="color:#666666;cursor:default;font-size:11px;fill:#666666;" text-anchor="start" transform="translate(0,0)" y="67" opacity="1">4</text></g><a xlink:href="https://quantimo.do" target="_blank">
                    <text x="590" class="highcharts-credits" text-anchor="end" data-z-index="8"
                          style="cursor:pointer;color:#999999;font-size:9px;fill:#999999;" y="395">https://quantimo.do
                    </text>
                </a></svg>