<?xml version="1.0" standalone="no"?><!DOCTYPE svg PUBLIC "-//W3C//DTD SVG 1.1//EN" "http://www.w3.org/Graphics/SVG/1.1/DTD/svg11.dtd"><svg xmlns:xlink="http://www.w3.org/1999/xlink" version="1.1" class="highcharts-root" style="font-family:&quot;Lucida Grande&quot;, &quot;Lucida Sans Unicode&quot;, Arial, Helvetica, sans-serif;font-size:12px;" xmlns="http://www.w3.org/2000/svg" width="600" height="400"><desc>Created with Highstock 6.2.0</desc><defs><clipPath id="highcharts-owsshal-129"><rect x="0" y="0" width="552" height="299" fill="none"></rect></clipPath><clipPath id="highcharts-owsshal-252"><rect x="0" y="0" width="552" height="299" fill="none"></rect></clipPath><clipPath id="highcharts-owsshal-253"><rect x="38" y="63" width="552" height="299" fill="none"></rect></clipPath></defs><rect fill="#ffffff" class="highcharts-background" x="0" y="0" width="600" height="400" rx="0" ry="0"></rect><rect fill="none" class="highcharts-plot-background" x="38" y="63" width="552" height="299"></rect><g class="highcharts-pane-group" data-z-index="0"></g><g class="highcharts-grid highcharts-xaxis-grid " data-z-index="1"><path fill="none" data-z-index="1" class="highcharts-grid-line" d="M 65.5 63 L 65.5 362" opacity="1"></path><path fill="none" data-z-index="1" class="highcharts-grid-line" d="M 178.5 63 L 178.5 362" opacity="1"></path><path fill="none" data-z-index="1" class="highcharts-grid-line" d="M 295.5 63 L 295.5 362" opacity="1"></path><path fill="none" data-z-index="1" class="highcharts-grid-line" d="M 412.5 63 L 412.5 362" opacity="1"></path><path fill="none" data-z-index="1" class="highcharts-grid-line" d="M 517.5 63 L 517.5 362" opacity="1"></path></g><g class="highcharts-grid highcharts-yaxis-grid " data-z-index="1"><path fill="none" stroke="#e6e6e6" stroke-width="1" data-z-index="1" class="highcharts-grid-line" d="M 38 362.5 L 590 362.5" opacity="1"></path><path fill="none" stroke="#e6e6e6" stroke-width="1" data-z-index="1" class="highcharts-grid-line" d="M 38 287.5 L 590 287.5" opacity="1"></path><path fill="none" stroke="#e6e6e6" stroke-width="1" data-z-index="1" class="highcharts-grid-line" d="M 38 213.5 L 590 213.5" opacity="1"></path><path fill="none" stroke="#e6e6e6" stroke-width="1" data-z-index="1" class="highcharts-grid-line" d="M 38 138.5 L 590 138.5" opacity="1"></path><path fill="none" stroke="#e6e6e6" stroke-width="1" data-z-index="1" class="highcharts-grid-line" d="M 38 62.5 L 590 62.5" opacity="1"></path></g><rect fill="none" class="highcharts-plot-border" data-z-index="1" x="38" y="63" width="552" height="299"></rect><g class="highcharts-axis highcharts-xaxis " data-z-index="2"><path fill="none" class="highcharts-tick" stroke="#ccd6eb" stroke-width="1" d="M 65.5 362 L 65.5 372" opacity="1"></path><path fill="none" class="highcharts-tick" stroke="#ccd6eb" stroke-width="1" d="M 178.5 362 L 178.5 372" opacity="1"></path><path fill="none" class="highcharts-tick" stroke="#ccd6eb" stroke-width="1" d="M 295.5 362 L 295.5 372" opacity="1"></path><path fill="none" class="highcharts-tick" stroke="#ccd6eb" stroke-width="1" d="M 412.5 362 L 412.5 372" opacity="1"></path><path fill="none" class="highcharts-tick" stroke="#ccd6eb" stroke-width="1" d="M 517.5 362 L 517.5 372" opacity="1"></path><path fill="none" class="highcharts-axis-line" stroke="#ccd6eb" stroke-width="1" data-z-index="7" d="M 38 362.5 L 590 362.5"></path></g><g class="highcharts-axis highcharts-yaxis " data-z-index="2"><path fill="none" class="highcharts-axis-line" data-z-index="7" d="M 38 63 L 38 362"></path></g><g class="highcharts-series-group" data-z-index="3"><g data-z-index="0.1" class="highcharts-series highcharts-series-0 highcharts-spline-series highcharts-color-0 " transform="translate(38,63) scale(1 1)" clip-path="url(#highcharts-owsshal-252)"><path fill="none" d="M 5.4117647058824 135.2975 C 5.4117647058824 135.2975 7.67276239756724 135.2975 9.1800941920238 132.3075 C 10.68742598648028 129.3175 11.44109188370852 79.23500000000001 12.948423678165 79.23500000000001 C 14.4557554726218 79.23500000000001 15.209421369850201 121.095 16.716753164307 121.095 C 18.2240849587634 121.095 18.977750855991598 121.095 20.485082650448 119.6 C 21.992414444904398 118.10499999999999 22.7460803421326 109.13500000000002 24.253412136589 109.13500000000002 C 25.760743931045802 109.13500000000002 26.5144098282742 137.54000000000002 28.021741622731 137.54000000000002 C 29.529073417187398 137.54000000000002 30.282739314415597 137.54000000000002 31.790071108872 130.8125 C 33.2974029033288 124.08499999999998 34.051068800557196 88.20500000000001 35.558400595014 88.20500000000001 C 37.0657323894704 88.20500000000001 37.81939828669859 136.79250000000002 39.326730081155 136.79250000000002 C 40.834061875611795 136.79250000000002 41.587727772840196 73.255 43.095059567297 73.255 C 44.6023913617534 73.255 45.3560572589816 136.04500000000002 46.863389053438 136.04500000000002 C 48.3707208478944 136.04500000000002 49.1243867451226 136.04500000000002 50.631718539579 133.8025 C 52.1390503340358 131.56 52.892716231264195 76.9925 54.400048025721 76.9925 C 55.907379820177404 76.9925 56.6610457174056 147.2575 58.168377511862 147.2575 C 59.6757093063188 147.2575 60.429375203547195 98.67000000000002 61.936706998004 98.67000000000002 C 63.444038792460404 98.67000000000002 64.19770468968859 141.2775 65.705036484145 141.2775 C 67.2123682786018 141.2775 67.9660341758302 136.04500000000002 69.473365970287 136.04500000000002 C 70.9806977647434 136.04500000000002 71.73436366197161 143.52 73.241695456428 143.52 C 74.74902725088441 143.52 75.5026931481126 133.055 77.010024942569 133.055 C 78.5173567370258 133.055 79.2710226342542 139.035 80.778354428711 139.035 C 82.2856862231674 139.035 83.03935212039559 98.67000000000002 84.546683914852 98.67000000000002 C 86.0540157093088 98.67000000000002 86.8076816065372 122.58999999999997 88.315013400994 129.3175 C 89.82234519545041 136.04500000000002 90.5760110926786 136.04500000000002 92.083342887135 136.04500000000002 C 93.5906746815918 136.04500000000002 94.3443405788202 134.5500000000001 95.851672373277 133.8025 C 97.3590041677334 133.0550000000001 98.11267006496159 132.3075 99.620001859418 132.3075 C 101.1273336538748 132.3075 101.8809995511032 145.01500000000001 103.38833134556 145.01500000000001 C 104.895663140016 145.01500000000001 105.649329037244 123.3375 107.1566608317 123.3375 C 108.663992626156 123.3375 109.41765852338399 147.2575 110.92499031784 147.2575 C 112.43232211229599 147.2575 113.185988009524 147.2575 114.69331980398 145.76250000000002 C 116.20065159844 144.26750000000004 116.95431749566998 135.2975 118.46164929013 135.2975 C 119.96898108458599 135.2975 120.722646981814 146.51 122.22997877627 148.005 C 123.73731057072601 149.5 124.49097646795401 149.5 125.99830826241 149.5 C 127.50564005686601 149.5 128.259305954094 139.035 129.76663774855 139.035 C 131.273969543006 139.035 132.027635440234 140.53 133.53496723469 140.53 C 135.042299029146 140.53 135.79596492637398 140.53 137.30329672083 140.53 C 138.810628515286 140.53 139.564294412514 152.49 141.07162620697 152.49 C 142.57895800143 152.49 143.33262389866 148.60300000000777 144.83995569312 142.7725 C 146.347287487576 136.94200000000777 147.100953384804 123.3375 148.60828517926 123.3375 C 150.11561697371602 123.3375 150.869282870944 149.5 152.3766146654 149.5 C 153.883946459856 149.5 154.63761235708398 139.7825 156.14494415154 139.7825 C 157.652275945996 139.7825 158.40594184322399 155.48000000000002 159.91327363768 155.48000000000002 C 161.420605432136 155.48000000000002 162.174271329364 143.52 163.68160312382 143.52 C 165.188934918276 143.52 165.94260081550402 148.7525 167.44993260996 148.7525 C 168.95726440442 148.7525 169.71093030165 124.83250000000001 171.21826209611 124.83250000000001 C 172.72559389056602 124.83250000000001 173.47925978779404 141.2775 174.98659158225 141.2775 C 176.49392337670602 141.2775 177.247589273934 88.20500000000001 178.75492106839 88.20500000000001 C 180.26225286284597 88.20500000000001 181.015918760074 129.31750000000002 182.52325055453 135.2975 C 184.030582348986 141.2775 184.78424824621402 139.7825 186.29158004067 141.2775 C 187.798911835126 142.7725 188.552577732354 142.7725 190.05990952681 142.7725 C 191.567241321266 142.7725 192.320907218494 142.7725 193.82823901295 140.53 C 195.33557080741 138.2875 196.08923670464 119.74950000001402 197.5965684991 109.13500000000002 C 199.103900293556 98.52050000001402 199.85756619078398 87.45750000000001 201.36489798524 87.45750000000001 C 202.872229779696 87.45750000000001 203.625895676924 118.85249999999999 205.13322747138 130.8125 C 206.640559265836 142.7725 207.394225163064 147.2575 208.90155695752 147.2575 C 210.40888875197598 147.2575 211.162554649204 134.40050000000002 212.66988644366 129.3175 C 214.17721823811598 124.23450000000005 214.930884135344 121.8425 216.4382159298 121.8425 C 217.945547724256 121.8425 218.69921362148403 144.86550000001114 220.20654541594 153.2375 C 221.7138772104 161.60950000001114 222.46754310762998 163.70250000000001 223.97487490209 163.70250000000001 C 225.48220669654597 163.70250000000001 226.235872593774 160.2639999999999 227.74320438823 150.2475 C 229.25053618268603 140.2309999999999 230.00420207991402 118.85249999999999 231.51153387437 113.62 C 233.01886566882598 108.38750000000002 233.77253156605403 108.38750000000002 235.27986336051 108.38750000000002 C 236.787195154966 108.38750000000002 237.54086105219403 142.7725 239.04819284665 142.7725 C 240.55552464110602 142.7725 241.309190538334 127.673 242.81652233279 113.62 C 244.32385412724597 99.56700000000002 245.07752002447396 72.50750000000002 246.58485181893 72.50750000000002 C 248.09218361338998 72.50750000000002 248.84584951062 117.01840754920968 250.35318130508 145.79987500000001 C 252.64036539749605 189.47208754920968 253.783957443704 253.64170000000001 256.07114153612 253.64170000000001 C 257.613330378324 253.64170000000001 258.38442479942603 252.75841292180942 259.92661364163 235.843725 C 262.126567884834 211.71468292180944 263.226545006436 172.57882091751952 265.42649924964 151.032375 C 268.44116283855203 121.50663091751952 269.948494633008 108.16325 272.96315822192 108.16325 C 275.27919794846 108.16325 276.43721781173 166.46824999999998 278.75325753827 166.46824999999998 C 280.95921319510205 166.46824999999998 282.06219102351804 113.657375 284.26814668035 113.657375 C 286.584727231954 113.657375 287.743017507756 147.33225000000002 290.05959805936 147.33225000000002 C 292.265012891124 147.33225000000002 293.367720307006 111.3775 295.57313513877 111.3775 C 297.080466933226 111.3775 297.834132830454 140.30575000000002 299.34146462491 140.30575000000002 C 302.35612821382597 140.30575000000002 303.863460008284 122.21625 306.8781235972 122.21625 C 309.275496435148 122.21625 310.474182854122 141.09235561595548 312.87155569207 156.078 C 314.453922602822 165.9691556159555 315.245106058198 181.76957500000003 316.82747296895 184.40825 C 318.877060398074 187.046925 319.901854112636 187.046925 321.95144154176 187.046925 C 324.273308222228 187.046925 325.43424156246203 170.20575 327.75610824293 170.20575 C 329.32498941899405 170.20575 330.109430007026 175.3635 331.67831118309 175.3635 C 333.816890504386 175.3635 334.88618016503403 101.66000000000003 337.02475948633 91.19500000000002 C 338.532091280786 80.73000000000002 339.285757178014 80.73000000000002 340.79308897247 80.73000000000002 C 342.300420766926 80.73000000000002 343.05408666415394 177.30700000000002 344.56141845861 178.27875 C 346.87093339243 179.2505 348.02569085934 179.2505 350.33520579316 179.2505 C 352.547686242712 179.2505 353.6539264674881 112.125 355.86640691704 112.125 C 357.373738711496 112.125 358.127404608724 134.17254187904646 359.63473640318 144.716 C 361.94036088572403 160.84334187904648 363.093173126996 168.58932229328278 365.39879760954 178.80200000000002 C 367.615168510364 188.61933229328275 368.72335396077597 183.51569026656057 370.9397248616 194.791025 C 373.25246729983996 206.55663026656055 374.40883851896 236.40435 376.7215809572 236.40435 C 378.930833902332 236.40435 380.035460374898 204.62850305864228 382.24471332003 193.4343125 C 384.629961208938 181.3483630586423 385.82258515339197 193.41961045544298 388.2078330423 178.204 C 390.34458053675996 164.57358545544298 391.41295428398996 121.31925000000001 393.54970177845 121.31925000000001 C 395.835280841642 121.31925000000001 396.978070373238 173.42000000000002 399.26364943643 173.42000000000002 C 400.79709784774195 173.42000000000002 401.563822053398 147.2575 403.09727046471 147.2575 C 404.614075420794 147.2575 405.37247789883594 162.43175 406.88928285492 162.43175 C 409.09010939661596 162.43175 410.19052266746405 154.52491520609135 412.39134920916 142.809875 C 415.40601279807197 126.7627652060914 416.913344592528 93.026375 419.92800818144 93.026375 C 422.2173730200881 93.026375 423.3620554394121 135.2975 425.65142027806 135.2975 C 427.17563977132806 135.2975 427.93774951796206 122.88900000000001 429.46196901123 122.88900000000001 C 431.359008880042 122.88900000000001 432.30752881444795 174.76550000000003 434.20456868326 174.76550000000003 C 436.030603454816 174.76550000000003 436.943620840594 106.14500000000001 438.76965561215 106.14500000000001 C 441.08995215532997 106.14500000000001 442.25010042692 142.324 444.5703969701 142.324 C 446.772095810288 142.324 447.872945230382 60.62225000000001 450.07464407057 60.62225000000001 C 452.38407177453803 60.62225000000001 453.538785626522 212.36475000000002 455.84821333049 212.36475000000002 C 458.06078100989 212.36475000000002 459.16706484958996 75.983375 461.37963252899 75.983375 C 464.39429611790604 75.983375 465.901627912364 92.51807499999097 468.91629150128 106.18237500000001 C 471.930955090192 119.846674999991 473.438286884648 144.304875 476.45295047356 144.304875 C 479.46761406247197 144.304875 480.974945856928 143.6695 483.98960944584 143.6695 C 486.30474198194804 143.6695 487.462308250002 239.3794 489.77744078611 239.3794 C 491.984303633374 239.3794 493.087735057006 152.42198922354834 495.29459790427 110.63 C 496.80192969872604 82.08522922354837 497.55559559595395 63.53750000000002 499.06292739041 63.53750000000002 C 500.57025918486596 63.53750000000002 501.323925082094 88.08539999999975 502.83125687655 101.66 C 504.338588671006 115.23459999999974 505.09225456823407 122.52473908301832 506.59958636269 131.4105 C 508.89123662339006 144.91983908301833 510.03706175374 157.64775 512.32871201444 157.64775 C 514.559057137112 157.64775 515.674229698448 147.33225000000002 517.90457482112 147.33225000000002 C 520.2213996163 147.33225000000002 521.37981201389 212.4395 523.69663680907 212.4395 C 525.901807397258 212.4395 527.004392691352 118.10500000000002 529.20956327954 118.10500000000002 C 530.716895073996 118.10500000000002 531.470560971224 128.2709999999995 532.97789276568 142.025 C 534.485224560136 155.77899999999948 535.2388904573639 186.875 536.74622225182 186.875 C 539.040524299936 186.875 540.187675323994 163.62775 542.48197737211 163.62775 C 544.124480540914 163.62775 546.58823529412 298.50074475 546.58823529412 298.50074475" class="highcharts-graph" data-z-index="1" stroke="#000000" stroke-width="2" stroke-linejoin="round" stroke-linecap="round"></path></g><g data-z-index="0.1" class="highcharts-markers highcharts-series-0 highcharts-spline-series highcharts-color-0 " transform="translate(38,63) scale(1 1)" clip-path="none"></g></g><text x="300" text-anchor="middle" class="highcharts-title" data-z-index="4" style="color:#333333;font-size:18px;fill:#333333;" y="24"><tspan>Calories Burned Over Time</tspan></text><text x="300" text-anchor="middle" class="highcharts-subtitle" data-z-index="4" style="color:#666666;fill:#666666;" y="46"><tspan>This chart shows how your Calories Burned changes over time.</tspan></text><g class="highcharts-axis-labels highcharts-xaxis-labels " data-z-index="7"><text x="66.021741622731" style="color:#666666;cursor:default;font-size:11px;fill:#666666;" text-anchor="middle" transform="translate(0,0)" y="381" opacity="1"><tspan>Nov '18</tspan></text><text x="179.07162620697" style="color:#666666;cursor:default;font-size:11px;fill:#666666;" text-anchor="middle" transform="translate(0,0)" y="381" opacity="1"><tspan>Dec '18</tspan></text><text x="295.88984027736" style="color:#666666;cursor:default;font-size:11px;fill:#666666;" text-anchor="middle" transform="translate(0,0)" y="381" opacity="1"><tspan>Jan '19</tspan></text><text x="412.70805434774" style="color:#666666;cursor:default;font-size:11px;fill:#666666;" text-anchor="middle" transform="translate(0,0)" y="381" opacity="1"><tspan>Feb '19</tspan></text><text x="518.2212799597" style="color:#666666;cursor:default;font-size:11px;fill:#666666;" text-anchor="middle" transform="translate(0,0)" y="381" opacity="1"><tspan>Mar '19</tspan></text></g><g class="highcharts-axis-labels highcharts-yaxis-labels " data-z-index="7"><text x="23" style="color:#666666;cursor:default;font-size:11px;fill:#666666;" text-anchor="end" transform="translate(0,0)" y="366" opacity="1">0</text><text x="23" style="color:#666666;cursor:default;font-size:11px;fill:#666666;" text-anchor="end" transform="translate(0,0)" y="291" opacity="1">1k</text><text x="23" style="color:#666666;cursor:default;font-size:11px;fill:#666666;" text-anchor="end" transform="translate(0,0)" y="216" opacity="1">2k</text><text x="23" style="color:#666666;cursor:default;font-size:11px;fill:#666666;" text-anchor="end" transform="translate(0,0)" y="141" opacity="1">3k</text><text x="23" style="color:#666666;cursor:default;font-size:11px;fill:#666666;" text-anchor="end" transform="translate(0,0)" y="67" opacity="1">4k</text></g><a xlink:href="https://quantimo.do" target="_blank">
                    <text x="590" class="highcharts-credits" text-anchor="end" data-z-index="8"
                          style="cursor:pointer;color:#999999;font-size:9px;fill:#999999;" y="395">https://quantimo.do
                    </text>
                </a></svg>