<?xml version="1.0" standalone="no"?><!DOCTYPE svg PUBLIC "-//W3C//DTD SVG 1.1//EN" "http://www.w3.org/Graphics/SVG/1.1/DTD/svg11.dtd"><svg xmlns:xlink="http://www.w3.org/1999/xlink" version="1.1" class="highcharts-root" style="font-family:&quot;Lucida Grande&quot;, &quot;Lucida Sans Unicode&quot;, Arial, Helvetica, sans-serif;font-size:12px;" xmlns="http://www.w3.org/2000/svg" width="600" height="400"><desc>Created with Highstock 6.2.0</desc><defs><clipPath id="highcharts-kk9dg0e-718"><rect x="0" y="0" width="541" height="299" fill="none"></rect></clipPath><clipPath id="highcharts-kk9dg0e-1430"><rect x="0" y="0" width="541" height="299" fill="none"></rect></clipPath><clipPath id="highcharts-kk9dg0e-1431"><rect x="49" y="63" width="541" height="299" fill="none"></rect></clipPath></defs><rect fill="#ffffff" class="highcharts-background" x="0" y="0" width="600" height="400" rx="0" ry="0"></rect><rect fill="none" class="highcharts-plot-background" x="49" y="63" width="541" height="299"></rect><g class="highcharts-pane-group" data-z-index="0"></g><g class="highcharts-grid highcharts-xaxis-grid " data-z-index="1"><path fill="none" data-z-index="1" class="highcharts-grid-line" d="M 62.5 63 L 62.5 362" opacity="1"></path><path fill="none" data-z-index="1" class="highcharts-grid-line" d="M 152.5 63 L 152.5 362" opacity="1"></path><path fill="none" data-z-index="1" class="highcharts-grid-line" d="M 244.5 63 L 244.5 362" opacity="1"></path><path fill="none" data-z-index="1" class="highcharts-grid-line" d="M 335.5 63 L 335.5 362" opacity="1"></path><path fill="none" data-z-index="1" class="highcharts-grid-line" d="M 425.5 63 L 425.5 362" opacity="1"></path><path fill="none" data-z-index="1" class="highcharts-grid-line" d="M 516.5 63 L 516.5 362" opacity="1"></path></g><g class="highcharts-grid highcharts-yaxis-grid " data-z-index="1"><path fill="none" stroke="#e6e6e6" stroke-width="1" data-z-index="1" class="highcharts-grid-line" d="M 49 362.5 L 590 362.5" opacity="1"></path><path fill="none" stroke="#e6e6e6" stroke-width="1" data-z-index="1" class="highcharts-grid-line" d="M 49 302.5 L 590 302.5" opacity="1"></path><path fill="none" stroke="#e6e6e6" stroke-width="1" data-z-index="1" class="highcharts-grid-line" d="M 49 242.5 L 590 242.5" opacity="1"></path><path fill="none" stroke="#e6e6e6" stroke-width="1" data-z-index="1" class="highcharts-grid-line" d="M 49 183.5 L 590 183.5" opacity="1"></path><path fill="none" stroke="#e6e6e6" stroke-width="1" data-z-index="1" class="highcharts-grid-line" d="M 49 123.5 L 590 123.5" opacity="1"></path><path fill="none" stroke="#e6e6e6" stroke-width="1" data-z-index="1" class="highcharts-grid-line" d="M 49 62.5 L 590 62.5" opacity="1"></path></g><rect fill="none" class="highcharts-plot-border" data-z-index="1" x="49" y="63" width="541" height="299"></rect><g class="highcharts-axis highcharts-xaxis " data-z-index="2"><path fill="none" class="highcharts-tick" stroke="#ccd6eb" stroke-width="1" d="M 62.5 362 L 62.5 372" opacity="1"></path><path fill="none" class="highcharts-tick" stroke="#ccd6eb" stroke-width="1" d="M 152.5 362 L 152.5 372" opacity="1"></path><path fill="none" class="highcharts-tick" stroke="#ccd6eb" stroke-width="1" d="M 244.5 362 L 244.5 372" opacity="1"></path><path fill="none" class="highcharts-tick" stroke="#ccd6eb" stroke-width="1" d="M 335.5 362 L 335.5 372" opacity="1"></path><path fill="none" class="highcharts-tick" stroke="#ccd6eb" stroke-width="1" d="M 425.5 362 L 425.5 372" opacity="1"></path><path fill="none" class="highcharts-tick" stroke="#ccd6eb" stroke-width="1" d="M 516.5 362 L 516.5 372" opacity="1"></path><path fill="none" class="highcharts-axis-line" stroke="#ccd6eb" stroke-width="1" data-z-index="7" d="M 49 362.5 L 590 362.5"></path></g><g class="highcharts-axis highcharts-yaxis " data-z-index="2"><path fill="none" class="highcharts-axis-line" data-z-index="7" d="M 49 63 L 49 362"></path></g><g class="highcharts-series-group" data-z-index="3"><g data-z-index="0.1" class="highcharts-series highcharts-series-0 highcharts-spline-series highcharts-color-0 " transform="translate(49,63) scale(1 1)" clip-path="url(#highcharts-kk9dg0e-1430)"><path fill="none" d="M 5.3039215686275 299 C 5.3039215686275 299 5.75214029273684 299 6.0509527754764 299 C 6.34976525821596 299 6.4991714995857395 299 6.7979839823253 299 C 7.0967964650649 299 7.246202706434699 299 7.5450151891743 299 C 7.84382767191386 299 7.993233913283639 299 8.2920463960232 299 C 8.59085887876276 299 8.74026512013254 299 9.0390776028721 299 C 9.3378900856117 299 9.487296326981498 299 9.7861088097211 299 C 10.08492129246066 299 10.23432753383044 299 10.53314001657 299 C 10.8319524993096 299 10.9813587406794 299 11.280171223419 299 C 11.5789837061586 299 11.7283899475284 299 12.027202430268 299 C 12.3260149130076 299 12.4754211543774 299 12.774233637117 299 C 13.073046119856599 299 13.222452361226399 299 13.521264843966 299 C 13.820077326705597 299 13.9694835680754 299 14.268296050815 299 C 14.567108533554599 299 14.7165147749244 299 15.015327257664 299 C 15.3141397404036 299 15.463545981773398 299 15.762358464513 299 C 16.0611709472526 299 16.210577188622402 299 16.509389671362 299 C 16.808202154101203 299 16.9576083954708 299 17.25642087821 299 C 17.5552333609496 299 17.7046396023194 299 18.003452085059 299 C 18.302264567798602 299 18.451670809168398 299 18.750483291908 299 C 19.0492957746476 299 19.1987020160174 299 19.497514498757 299 C 19.7963269814966 299 19.9457332228664 299 20.244545705606 299 C 20.5433581883456 299 20.6927644297154 299 20.991576912455 299 C 21.290389395194598 299 21.4397956365644 299 21.738608119304 299 C 22.0374206020436 299 22.1868268434134 299 22.485639326153 299 C 22.784451808892598 299 22.9338580502624 299 23.232670533002 299 C 23.5314830157416 299 23.6808892571114 299 23.979701739851 299 C 24.278514222590598 299 24.4279204639604 299 24.7267329467 299 C 25.0255454294396 299 25.1749516708094 299 25.473764153549 299 C 25.7725766362886 299 25.9219828776584 299 26.220795360398 299 C 26.5196078431376 299 26.6690140845074 299 26.967826567247 299 C 27.2666390499866 299 27.416045291356397 59.80000000000001 27.714857774096 59.80000000000001 C 28.0136702568352 59.80000000000001 28.1630764982048 299 28.461888980944 299 C 28.760701463683603 299 28.9101077050534 299 29.208920187793 299 C 29.5077326705326 299 29.6571389119024 59.80000000000001 29.955951394642 59.80000000000001 C 30.2547638773816 59.80000000000001 30.404170118751402 299 30.702982601491 299 C 31.0017950842306 299 31.151201325600404 299 31.45001380834 299 C 31.7488262910796 299 31.898232532449402 299 32.197045015189 299 C 32.495857497928604 299 32.6452637392984 59.80000000000001 32.944076222038 59.80000000000001 C 33.2428887047776 59.80000000000001 33.3922949461474 299 33.691107428887 299 C 33.9899199116266 299 34.1393261529964 59.80000000000001 34.438138635736 59.80000000000001 C 34.7369511184756 59.80000000000001 34.8863573598454 299 35.185169842585 299 C 35.4839823253246 299 35.63338856669439 299 35.932201049434 299 C 36.2310135321736 299 36.3804197735434 59.80000000000001 36.679232256283 59.80000000000001 C 36.9780447390226 59.80000000000001 37.1274509803924 299 37.426263463132 299 C 37.7250759458716 299 37.8744821872414 299 38.173294669981 299 C 38.472107152720596 299 38.6215133940904 299 38.92032587683 299 C 39.219138359569605 299 39.3685446009394 299 39.667357083679 299 C 39.9661695664182 299 40.1155758077878 299 40.414388290527 299 C 40.7132007732666 299 40.862607014636396 59.80000000000001 41.161419497376 59.80000000000001 C 41.4602319801156 59.80000000000001 41.6096382214854 299 41.908450704225 299 C 42.207263186964596 299 42.3566694283344 59.80000000000001 42.655481911074 59.80000000000001 C 42.9542943938136 59.80000000000001 43.103700635183394 299 43.402513117923 299 C 43.7013256006626 299 43.8507318420324 59.80000000000001 44.149544324772 59.80000000000001 C 44.4483568075116 59.80000000000001 44.59776304888139 299 44.896575531621 299 C 45.195388014360596 299 45.3447942557304 299 45.64360673847 299 C 45.9424192212096 299 46.0918254625794 59.80000000000001 46.390637945319 59.80000000000001 C 46.689450428058606 59.80000000000001 46.8388566694284 299 47.137669152168 299 C 47.4364816349076 299 47.5858878762774 59.80000000000001 47.884700359017 59.80000000000001 C 48.1835128417566 59.80000000000001 48.3329190831264 59.80000000000001 48.631731565866 59.80000000000001 C 48.9305440486056 59.80000000000001 49.0799502899754 299 49.378762772715 299 C 49.6775752554546 299 49.826981496824395 299 50.125793979564 299 C 50.4246064623036 299 50.574012703673404 299 50.872825186413 299 C 51.1716376691526 299 51.32104391052239 59.80000000000001 51.619856393262 59.80000000000001 C 51.9186688760012 59.80000000000001 52.06807511737079 299 52.36688760011 299 C 52.6657000828496 299 52.8151063242194 299 53.113918806959 299 C 53.412731289698606 299 53.5621375310684 299 53.860950013808 299 C 54.1597624965476 299 54.3091687379174 299 54.607981220657 299 C 54.9067937033966 299 55.0561999447664 299 55.355012427506 299 C 55.6538249102456 299 55.8032311516154 299 56.102043634355 299 C 56.4008561170946 299 56.550262358464394 299 56.849074841204 299 C 57.1478873239436 299 57.29729356531341 299 57.596106048053 299 C 57.894918530792594 299 58.0443247721624 299 58.343137254902 299 C 58.641949737641596 299 58.79135597901139 299 59.090168461751 299 C 59.3889809444906 299 59.5383871858604 299 59.8371996686 299 C 60.13601215133961 299 60.2854183927094 59.80000000000001 60.584230875449 59.80000000000001 C 60.883043358188594 59.80000000000001 61.032449599558404 299 61.331262082298 299 C 61.6300745650376 299 61.7794808064074 59.80000000000001 62.078293289147 59.80000000000001 C 62.377105771886605 59.80000000000001 62.5265120132564 59.80000000000001 62.825324495996 59.80000000000001 C 63.1241369787356 59.80000000000001 63.273543220105395 59.80000000000001 63.572355702845 59.80000000000001 C 63.8711681855842 59.80000000000001 64.0205744269538 59.80000000000001 64.319386909693 59.80000000000001 C 64.90456135505819 59.80000000000001 65.19714857774079 59.80000000000001 65.782323023106 59.80000000000001 C 65.79477354322 59.80000000000001 65.800998803277 299 65.813449323391 299 C 66.11226180613059 299 66.2616680475004 299 66.56048053024 299 C 66.8592930129796 299 67.00869925434941 299 67.307511737089 299 C 67.8926861824542 299 68.1852734051368 59.80000000000001 68.770447850502 59.80000000000001 C 69.0692603332416 59.80000000000001 69.21866657461139 59.80000000000001 69.517479057351 59.80000000000001 C 69.529929577465 59.80000000000001 69.536154837522 299 69.548605357636 299 C 70.1337798030012 299 70.4263670256838 59.80000000000001 71.011541471049 59.80000000000001 C 71.31035395378821 59.80000000000001 71.45976019515781 59.80000000000001 71.758572677897 59.80000000000001 C 72.0573851606366 59.80000000000001 72.2067914020064 59.80000000000001 72.505603884746 59.80000000000001 C 72.5180544048604 59.80000000000001 72.5242796649176 299 72.536730185032 299 C 72.83554266777159 299 72.9849489091414 299 73.283761391881 299 C 73.5825738746206 299 73.73198011599041 299 74.03079259873 299 C 74.32960508146961 299 74.4790113228394 299 74.777823805579 299 C 75.07663628831861 299 75.2260425296884 299 75.524855012428 299 C 75.8236674951672 299 75.9730737365368 299 76.271886219276 299 C 76.5706987020156 299 76.7201049433854 299 77.018917426125 299 C 77.3177299088646 299 77.4671361502344 299 77.765948632974 299 C 78.0647611157136 299 78.2141673570834 299 78.512979839823 299 C 78.81179232256261 299 78.96119856393241 299 79.260011046672 299 C 79.55882352941161 299 79.7082297707814 299 80.007042253521 299 C 80.5922166988862 299 80.8848039215688 59.80000000000001 81.469978366934 59.80000000000001 C 81.48242888704799 59.80000000000001 81.488654147105 299 81.501104667219 299 C 81.79991714995859 299 81.9493233913284 299 82.248135874068 299 C 82.54694835680759 299 82.69635459817741 299 82.995167080917 299 C 83.2939795636566 299 83.4433858050264 299 83.742198287766 299 C 84.04101077050561 299 84.1904170118754 299 84.489229494615 299 C 85.0744039399798 299 85.3669911626622 59.80000000000001 85.952165608027 59.80000000000001 C 85.96461612814139 59.80000000000001 85.97084138819861 299 85.983291908313 299 C 86.2821043910526 299 86.4315106324224 299 86.730323115162 299 C 87.0291355979012 299 87.17854183927079 299 87.47735432201 299 C 87.7761668047496 299 87.92557304611941 299 88.224385528859 299 C 88.52319801159861 299 88.6726042529684 299 88.971416735708 299 C 89.27022921844761 299 89.4196354598174 299 89.718447942557 299 C 90.0172604252966 299 90.1666666666664 299 90.465479149406 299 C 90.76429163214559 299 90.91369787351539 299 91.212510356255 299 C 91.5113228389946 299 91.6607290803644 299 91.959541563104 299 C 92.2583540458436 299 92.40776028721339 299 92.706572769953 299 C 93.0053852526926 299 93.1547914940624 299 93.453603976802 299 C 93.75241645954159 299 93.90182270091141 299 94.200635183651 299 C 94.4994476663906 299 94.64885390776041 299 94.9476663905 299 C 95.24647887323961 299 95.3958851146094 299 95.694697597349 299 C 95.99351008008861 299 96.1429163214584 299 96.441728804198 299 C 96.7405412869376 299 96.88994752830739 299 97.188760011047 299 C 97.48757249378659 299 97.63697873515639 299 97.935791217896 299 C 98.2346037006356 299 98.3840099420054 299 98.682822424745 299 C 98.9816349074842 299 99.1310411488538 299 99.429853631593 299 C 99.7286661143318 299 99.8780723557012 299 100.17688483844 299 C 100.47569732118 299 100.62510356255 299 100.92391604529 299 C 101.22272852802999 299 101.3721347694 299 101.67094725214 299 C 101.96975973488 299 102.11916597625 299 102.41797845899 299 C 102.71679094173001 299 102.86619718310001 299 103.16500966584 299 C 103.46382214858 299 103.61322838995 299 103.91204087269 299 C 104.21085335543 299 104.3602595968 299 104.65907207954 299 C 104.95788456227599 299 105.10729080364399 299 105.40610328638 299 C 105.70491576911999 299 105.85432201049 299 106.15313449323 299 C 106.45194697596999 299 106.60135321734 299 106.90016570008 299 C 107.19897818282 299 107.34838442419 299 107.64719690693 299 C 107.94600938967001 299 108.09541563104001 299 108.39422811378 299 C 108.69304059651999 299 108.84244683789 299 109.14125932063 299 C 109.44007180336999 299 109.58947804474 299 109.88829052748 299 C 110.18710301022001 299 110.33650925159 299 110.63532173433 299 C 110.93413421707001 299 111.08354045844001 299 111.38235294118 299 C 111.68116542391999 299 111.83057166529 299 112.12938414803 299 C 112.428196630766 299 112.57760287213401 299 112.87641535487 299 C 113.17522783761001 299 113.32463407897998 299 113.62344656172 299 C 113.92225904445999 299 114.07166528583 299 114.37047776857 299 C 114.66929025130999 299 114.81869649268 299 115.11750897542 299 C 115.41632145816 299 115.56572769953 299 115.86454018227 299 C 116.16335266501001 299 116.31275890638001 299 116.61157138912 299 C 116.91038387185999 299 117.05979011323 299 117.35860259597 299 C 117.65741507870999 299 117.80682132008 299 118.10563380282 299 C 118.40444628556001 299 118.55385252693 299 118.85266500967 299 C 119.151477492406 299 119.300883733774 299 119.59969621651 299 C 119.89850869924999 299 120.04791494061999 299 120.34672742336 299 C 120.6455399061 299 120.79494614747 299 121.09375863021 299 C 121.39257111295001 299 121.54197735431998 299 121.84078983706 299 C 122.13960231979999 299 122.28900856117 299 122.58782104391 299 C 122.88663352664999 299 123.03603976802 299 123.33485225076 299 C 123.6336647335 299 123.78307097487 299 124.08188345761 299 C 124.38069594035001 299 124.53010218172001 299 124.82891466446 299 C 125.12772714719999 299 125.27713338857 299 125.57594587131 299 C 125.87475835404999 299 126.02416459542 299 126.32297707816 299 C 126.62178956089602 299 126.77119580226399 299 127.070008285 299 C 127.36882076774 299 127.51822700911 299 127.81703949185 299 C 128.11585197459 299 128.26525821596 299 128.5640706987 299 C 128.86288318144 299 129.01228942281 299 129.31110190555 299 C 129.60991438829 299 129.75932062965998 299 130.0581331124 299 C 130.35694559514 299 130.50635183650996 299 130.80516431925 299 C 131.10397680198997 299 131.25338304336 299 131.5521955261 299 C 131.85100800883998 299 132.00041425020999 299 132.29922673295 299 C 132.59803921569 299 132.74744545706 299 133.0462579398 299 C 133.345070422536 299 133.494476663904 299 133.79328914664 299 C 134.09210162938 299 134.24150787075 299 134.54032035349 299 C 134.83913283623002 299 134.9885390776 299 135.28735156034 299 C 135.58616404308 299 135.73557028445003 299 136.03438276719 299 C 136.33319524993001 299 136.48260149130002 299 136.78141397404 299 C 137.08022645678 299 137.22963269815 299 137.52844518089 299 C 137.82725766363 299 137.976663905 299 138.27547638774 299 C 138.57428887048 299 138.72369511185 299 139.02250759459 299 C 139.32132007732997 299 139.4707263187 299 139.76953880144 299 C 140.06835128417998 299 140.21775752554998 299 140.51657000829 299 C 140.815382491026 299 140.96478873239397 299 141.26360121513 299 C 141.56241369787 299 141.71181993924 299 142.01063242198 299 C 142.30944490472 299 142.45885114609 299 142.75766362883 299 C 143.05647611157002 299 143.20588235294 299 143.50469483568 299 C 143.80350731842 299 143.95291355979003 299 144.25172604253 299 C 144.55053852527 299 144.69994476664002 299 144.99875724938 299 C 145.29756973212 299 145.44697597349 299 145.74578845623 299 C 146.04460093897 299 146.19400718034 299 146.49281966308 299 C 146.79163214582 299 146.94103838719 299 147.23985086993 299 C 147.538663352666 299 147.688069594034 299 147.98688207677 299 C 148.28569455951 299 148.43510080087998 299 148.73391328362 299 C 149.03272576636 299 149.18213200773 299 149.48094449047 299 C 149.77975697321 299 149.92916321458 299 150.22797569732 299 C 150.52678818006 299 150.67619442143 299 150.97500690417 299 C 151.27381938691002 299 151.42322562828 299 151.72203811102 299 C 152.02085059376 299 152.17025683513003 299 152.46906931787 299 C 152.76788180061 299 152.91728804198002 299 153.21610052472 299 C 153.51491300746 299 153.66431924883 299 153.96313173157 299 C 154.261944214306 299 154.411350455674 299 154.71016293841 299 C 155.00897542114998 299 155.15838166252 299 155.45719414526 299 C 155.75600662799997 299 155.90541286937 299 156.20422535211 299 C 156.50303783485 299 156.65244407621998 299 156.95125655896 299 C 157.2500690417 299 157.39947528307 299 157.69828776581 299 C 157.99710024855 299 158.14650648992 299 158.44531897266 299 C 158.7441314554 299 158.89353769677 299 159.19235017951 299 C 159.49116266225002 299 159.64056890362 299 159.93938138636 299 C 160.2381938691 299 160.38760011047003 299 160.68641259321 299 C 160.98522507595 299 161.13463131732001 299 161.43344380006 299 C 161.732256282796 299 161.881662524164 299 162.1804750069 299 C 162.47928748964 299 162.62869373101 299 162.92750621375 299 C 163.22631869648998 299 163.37572493785999 299 163.6745374206 299 C 163.97334990333997 299 164.12275614471 299 164.42156862745 299 C 164.72038111019 299 164.86978735155998 299 165.1685998343 299 C 165.46741231704 299 165.61681855841 299 165.91563104115 299 C 166.21444352389 299 166.36384976526 299 166.662662248 299 C 166.96147473074 299 167.11088097211 299 167.40969345485 299 C 167.70850593759002 299 167.85791217896 299 168.1567246617 299 C 168.455537144436 299 168.604943385804 299 168.90375586854 299 C 169.20256835128004 299 169.35197459265 299 169.65078707539 299 C 169.94959955813002 299 170.0990057995 299 170.39781828224 299 C 170.69663076498 299 170.84603700635 299 171.14484948909 299 C 171.44366197182998 299 171.59306821319998 299 171.89188069594 299 C 172.19069317867996 299 172.34009942005 299 172.63891190279 299 C 172.93772438553 299 173.08713062689998 299 173.38594310964 299 C 173.68475559238 299 173.83416183375002 299 174.13297431649 299 C 174.718148761854 299 175.01073598453598 59.80000000000001 175.5959104299 59.80000000000001 C 175.608360950016 59.80000000000001 175.614586210074 299 175.62703673019 299 C 175.925849212926 299 176.075255454294 299 176.37406793703 299 C 176.67288041977 299 176.82228666114003 299 177.12109914388 299 C 177.41991162662003 299 177.56931786799 299 177.86813035073 299 C 178.16694283347002 299 178.31634907484 299 178.61516155758 299 C 178.91397404032 299 179.06338028169 299 179.36219276443 299 C 179.66100524716998 299 179.81041148853998 299 180.10922397128 299 C 180.40803645401996 299 180.55744269539 299 180.85625517813 299 C 181.15506766087 299 181.30447390223998 299 181.60328638498 299 C 181.90209886771999 299 182.05150510909002 299 182.35031759183 299 C 182.64913007456602 299 182.79853631593397 299 183.09734879867 299 C 183.39616128141 299 183.54556752278 299 183.84438000552 299 C 184.14319248826 299 184.29259872963001 299 184.59141121237 299 C 184.89022369511 299 185.03962993648003 299 185.33844241922 299 C 185.63725490196003 299 185.78666114333 299 186.08547362607 299 C 186.38428610881002 299 186.53369235018 299 186.83250483292 299 C 187.13131731566 299 187.28072355703 299 187.57953603977 299 C 187.87834852250998 299 188.02775476387998 299 188.32656724662 299 C 188.62537972935996 299 188.77478597073 299 189.07359845347 299 C 189.372410936206 299 189.52181717757398 299 189.82062966031 299 C 190.11944214304998 299 190.26884838442 299 190.56766086716 299 C 190.8664733499 299 191.01587959127 299 191.31469207401 299 C 191.61350455675 299 191.76291079812 299 192.06172328086 299 C 192.3605357636 299 192.50994200497001 299 192.80875448771 299 C 193.10756697045 299 193.25697321182002 299 193.55578569456 299 C 193.85459817730003 299 194.00400441867 299 194.30281690141 299 C 194.60162938415002 299 194.75103562552 299 195.04984810826 299 C 195.348660591 299 195.49806683237 299 195.79687931511 299 C 196.09569179784998 299 196.24509803921998 299 196.54391052196 299 C 196.84272300469598 299 196.992129246064 299 197.2909417288 299 C 197.58975421154 299 197.73916045290997 299 198.03797293565 299 C 198.33678541838998 299 198.48619165976 299 198.7850041425 299 C 199.08381662524 299 199.23322286661 299 199.53203534935 299 C 199.83084783209 299 199.98025407346 299 200.2790665562 299 C 200.57787903894 299 200.72728528031 299 201.02609776305 299 C 201.32491024579 299 201.47431648716002 299 201.7731289699 299 C 202.07194145264003 299 202.22134769401 299 202.52016017675 299 C 202.81897265949002 299 202.96837890086 299 203.2671913836 299 C 203.566003866336 299 203.715410107704 299 204.01422259044 299 C 204.31303507318 299 204.46244131455 299 204.76125379729 299 C 205.06006628003001 299 205.2094725214 299 205.50828500414 299 C 205.80709748688 299 205.95650372824997 299 206.25531621099 299 C 206.55412869372998 299 206.7035349351 299 207.00234741784 299 C 207.30115990058002 299 207.45056614195 299 207.74937862469 299 C 208.04819110743 299 208.1975973488 299 208.49640983154 299 C 208.79522231428 299 208.94462855564998 299 209.24344103839 299 C 209.54225352113 299 209.69165976250002 299 209.99047224524 299 C 210.28928472798003 299 210.43869096935 299 210.73750345209 299 C 211.036315934826 299 211.185722176194 299 211.48453465893 299 C 211.78334714167 299 211.93275338304002 299 212.23156586578 299 C 212.53037834852003 299 212.67978458989 299 212.97859707263 299 C 213.27740955537 299 213.42681579674 299 213.72562827948 299 C 214.02444076222 299 214.17384700358997 299 214.47265948633 299 C 214.77147196906998 299 214.92087821044 299 215.21969069318 299 C 215.51850317592 299 215.66790941729 299 215.96672190003 299 C 216.26553438276997 299 216.41494062414003 299 216.71375310688 299 C 217.01256558962 299 217.16197183099 299 217.46078431373 299 C 217.75959679646598 299 217.909003037834 299 218.20781552057 299 C 218.50662800331003 299 218.65603424468 299 218.95484672742 299 C 219.25365921016 299 219.40306545152998 299 219.70187793427 299 C 220.00069041701 299 220.15009665837997 299 220.44890914112 299 C 220.74772162385997 299 220.89712786523 299 221.19594034797 299 C 221.49475283071 299 221.64415907208 299 221.94297155482 299 C 222.24178403756 299 222.39119027892997 299 222.69000276167 299 C 222.98881524440998 299 223.13822148578 299 223.43703396852 299 C 223.73584645126002 299 223.88525269263 299 224.18406517537 299 C 224.48287765810602 299 224.63228389947398 299 224.93109638221 299 C 225.22990886495 299 225.37931510631998 299 225.67812758906 299 C 225.9769400718 299 226.12634631317002 299 226.42515879591 299 C 226.72397127865003 299 226.87337752002 299 227.17219000276 299 C 227.4710024855 299 227.62040872686998 299 227.91922120961 299 C 228.21803369235 299 228.36743993372002 299 228.66625241646 299 C 228.96506489920003 299 229.11447114057 299 229.41328362331 299 C 229.71209610605 299 229.86150234742 299 230.16031483016 299 C 230.4591273129 299 230.60853355426997 299 230.90734603701 299 C 231.20615851974998 299 231.35556476112 299 231.65437724386 299 C 231.95318972659598 299 232.102595967964 299 232.4014084507 299 C 232.70022093343997 299 232.84962717481002 299 233.14843965755 299 C 233.44725214029003 299 233.59665838166 299 233.8954708644 299 C 234.19428334714 299 234.34368958851002 299 234.64250207125 299 C 234.94131455399003 299 235.09072079536 299 235.3895332781 299 C 235.68834576084 299 235.83775200220998 299 236.13656448495 299 C 236.43537696769 299 236.58478320905996 299 236.8835956918 299 C 237.18240817453997 299 237.33181441591 299 237.63062689865 299 C 237.92943938139 299 238.07884562275999 299 238.3776581055 299 C 238.676470588236 299 238.82587682960397 299 239.12468931234 299 C 239.42350179507997 299 239.57290803645 299 239.87172051919 299 C 240.17053300193 299 240.31993924329998 299 240.61875172604 299 C 240.91756420878 299 241.06697045015 299 241.36578293289 299 C 241.66459541563 299 241.81400165699998 299 242.11281413974 299 C 242.41162662248 299 242.56103286385002 299 242.85984534659 299 C 243.15865782933002 299 243.3080640707 299 243.60687655344 299 C 243.90568903618 299 244.05509527755004 299 244.35390776029 299 C 244.65272024303005 299 244.80212648440002 299 245.10093896714 299 C 245.39975144988003 299 245.54915769125 299 245.84797017399 299 C 246.146782656726 299 246.296188898094 299 246.59500138083 299 C 246.89381386357 299 247.04322010493996 299 247.34203258768 299 C 247.64084507041997 299 247.79025131179 299 248.08906379453 299 C 248.38787627726998 299 248.53728251863998 299 248.83609500138 299 C 249.13490748411996 299 249.28431372549002 299 249.58312620823 299 C 249.88193869097003 299 250.03134493234 299 250.33015741508 299 C 250.62896989781999 299 250.77837613919002 299 251.07718862193 299 C 251.37600110467002 299 251.52540734604 299 251.82421982878 299 C 252.12303231152 299 252.27243855289004 299 252.57125103563 299 C 252.87006351836598 299 253.01946975973402 299 253.31828224247 299 C 253.61709472520997 299 253.76650096658 299 254.06531344932 299 C 254.36412593206 299 254.51353217343004 299 254.81234465617 299 C 255.11115713891 299 255.26056338028002 299 255.55937586302 299 C 255.85818834575997 299 256.00759458713003 299 256.30640706987 299 C 256.60521955261004 299 256.75462579398 299 257.05343827672 299 C 257.35225075946 299 257.50165700083 299 257.80046948357 299 C 258.09928196631 299 258.24868820767995 299 258.54750069042 299 C 258.84631317315996 299 258.9957194145301 299 259.29453189727 299 C 259.59334438000604 299 259.74275062137406 299 260.04156310411 299 C 260.34037558685 299 260.48978182822003 299 260.78859431096 299 C 261.0874067937 299 261.23681303507 299 261.53562551781 299 C 261.83443800055 299 261.98384424192 299 262.28265672466 299 C 262.5814692074 299 262.73087544877 299 263.02968793151 299 C 263.32850041425 299 263.47790665562 299 263.77671913836 299 C 264.07553162109997 299 264.22493786247003 299 264.52375034521 299 C 264.82256282795 299 264.9719690693199 299 265.27078155206 299 C 265.56959403479993 299 265.71900027617005 299 266.01781275891 299 C 266.31662524165006 299 266.46603148302 299 266.76484396576 299 C 267.06365644849603 299 267.213062689864 299 267.5118751726 299 C 267.81068765534 299 267.96009389670996 299 268.25890637945 299 C 268.55771886219 299 268.70712510356 299 269.0059375863 299 C 269.30475006904 299 269.45415631041 299 269.75296879315 299 C 270.05178127589 299 270.20118751726 299 270.5 299 C 270.79881248274 299 270.94821872411 299 271.24703120685 299 C 271.54584368959 299 271.69524993096 299 271.9940624137 299 C 272.29287489644 299 272.44228113781 299 272.74109362055 299 C 273.03990610329004 299 273.18931234466 299 273.4881248274 299 C 273.786937310136 299 273.93634355150397 299 274.23515603424 299 C 274.53396851698 299 274.68337475834994 299 274.98218724109 299 C 275.28099972382995 299 275.43040596520007 299 275.72921844794 299 C 276.0280309306801 299 276.17743717205 299 276.47624965479 299 C 276.77506213752997 299 276.92446837890003 299 277.22328086164 299 C 277.52209334438 299 277.67149958575 299 277.97031206849 299 C 278.26912455123 299 278.4185307926 299 278.71734327534 299 C 279.01615575808 299 279.16556199945 299 279.46437448219 299 C 279.76318696493 299 279.9125932063 299 280.21140568904 299 C 280.51021817177997 299 280.65962441315 299 280.95843689589 299 C 281.25724937862594 299 281.40665561999396 299 281.70546810273 299 C 282.0042805854699 299 282.15368682684004 299 282.45249930958 299 C 282.75131179232005 299 282.90071803369 299 283.19953051643 299 C 283.49834299917 299 283.64774924054 299 283.94656172328 299 C 284.24537420602 299 284.39478044738996 299 284.69359293013 299 C 284.99240541286997 299 285.14181165424 299 285.44062413698 299 C 285.73943661972 299 285.88884286109 299 286.18765534383 299 C 286.48646782657 299 286.63587406794 299 286.93468655068 299 C 287.23349903342 299 287.38290527479 299 287.68171775753 299 C 287.98053024026603 299 288.129936481634 299 288.42874896437 299 C 288.72756144711 299 288.87696768848 299 289.17578017122 299 C 289.47459265396003 299 289.62399889533 299 289.92281137807 299 C 290.22162386081 299 290.37103010218 299 290.66984258492 299 C 290.96865506766 299 291.11806130902994 299 291.41687379177 299 C 291.71568627450995 299 291.86509251588006 299 292.16390499862 299 C 292.4627174813601 299 292.61212372273 299 292.91093620547 299 C 293.20974868820997 299 293.35915492958003 299 293.65796741232 299 C 293.95677989506 299 294.10618613643 299 294.40499861917 299 C 294.703811101906 299 294.85321734327397 299 295.15202982601 299 C 295.45084230875 299 295.60024855012 299 295.89906103286 299 C 296.1978735156 299 296.34727975697 299 296.64609223971 299 C 296.94490472245 299 297.09431096382 299 297.39312344656 299 C 297.69193592930003 299 297.84134217067 299 298.14015465341 299 C 298.4389671361499 299 298.58837337752004 299 298.88718586026 299 C 299.18599834300005 299 299.33540458437 299 299.63421706711 299 C 299.93302954985 299 300.08243579122 299 300.38124827396 299 C 300.6800607567 299 300.82946699806996 299 301.12827948081 299 C 301.42709196354997 299 301.57649820492 299 301.87531068766 299 C 302.174123170396 299 302.32352941176396 299 302.6223418945 299 C 302.92115437724 299 303.07056061861 299 303.36937310135 299 C 303.66818558409 299 303.81759182546 299 304.1164043082 299 C 304.41521679094 299 304.56462303231 299 304.86343551505 299 C 305.16224799779 299 305.31165423916 299 305.6104667219 299 C 305.90927920464003 299 306.05868544601 299 306.35749792875 299 C 306.65631041149 299 306.80571665286 299 307.1045291356 299 C 307.40334161834 299 307.55274785970994 299 307.85156034245 299 C 308.15037282518995 299 308.29977906656006 299 308.5985915493 299 C 308.89740403203604 299 309.04681027340405 299 309.34562275614 299 C 309.64443523888 299 309.79384148025 299 310.09265396299 299 C 310.39146644573003 299 310.5408726871 299 310.83968516984 299 C 311.13849765258 299 311.28790389395 59.80000000000001 311.58671637669 59.80000000000001 C 311.88552885943 59.80000000000001 312.0349351008 299 312.33374758354 299 C 312.63256006628 299 312.78196630765 299 313.08077879039 299 C 313.37959127313 299 313.5289975145 299 313.82780999724 299 C 314.12662247998 299 314.27602872135 299 314.57484120409 299 C 314.8736536868299 299 315.02305992820004 299 315.32187241094 299 C 315.62068489368005 299 315.77009113505 299 316.06890361779 299 C 316.367716100526 299 316.517122341894 299 316.81593482463 299 C 317.11474730737 299 317.26415354873996 299 317.56296603148 299 C 317.86177851421996 299 318.0111847555901 299 318.30999723833 299 C 318.60880972107003 299 318.75821596244 299 319.05702844518 299 C 319.35584092792 299 319.50524716929 299 319.80405965203 299 C 320.10287213477 299 320.25227837614 299 320.55109085888 299 C 320.84990334162 299 320.99930958299 299 321.29812206573 299 C 321.59693454847 299 321.74634078984 299 322.04515327258 299 C 322.34396575532 299 322.49337199669 299 322.79218447943 299 C 323.090996962166 299 323.24040320353396 299 323.53921568627 299 C 323.83802816901 299 323.98743441037993 299 324.28624689312 299 C 324.58505937585994 299 324.73446561723006 299 325.03327809997 299 C 325.33209058271007 299 325.48149682408 299 325.78030930682 299 C 326.07912178956 299 326.22852803093 299 326.52734051367 299 C 326.82615299641003 299 326.97555923778 299 327.27437172052 299 C 327.57318420326 299 327.72259044463 299 328.02140292737 299 C 328.32021541011 299 328.46962165148 299 328.76843413422 299 C 329.06724661696 299 329.21665285833 299 329.51546534107 299 C 329.81427782380604 299 329.96368406517405 299 330.26249654791 299 C 330.56130903065 299 330.71071527201997 299 331.00952775476 299 C 331.3083402374999 299 331.45774647887004 299 331.75655896161 299 C 332.05537144435004 299 332.20477768572 299 332.50359016846 299 C 332.8024026512 299 332.95180889257 299 333.25062137531 299 C 333.54943385805 299 333.69884009941995 299 333.99765258216 299 C 334.29646506489996 299 334.4458713062701 299 334.74468378901 299 C 335.04349627175003 299 335.19290251312 299 335.49171499586 299 C 335.7905274786 299 335.93993371997 299 336.23874620271 299 C 336.53755868545 299 336.68696492682 299 336.98577740956 299 C 337.284589892296 299 337.433996133664 299 337.7328086164 299 C 338.03162109914 299 338.18102734051 299 338.47983982325 299 C 338.77865230599 299 338.92805854736 299 339.2268710301 299 C 339.52568351284 299 339.67508975421003 299 339.97390223695 299 C 340.27271471969 299 340.42212096105993 299 340.7209334438 299 C 341.01974592653994 299 341.16915216791006 299 341.46796465065 299 C 341.76677713339006 299 341.91618337476 299 342.2149958575 299 C 342.51380834024 299 342.66321458161 299 342.96202706435 299 C 343.26083954709003 299 343.41024578846 299 343.7090582712 299 C 344.007870753936 299 344.15727699530396 299 344.45608947804 299 C 344.75490196078 299 344.90430820215 299 345.20312068489 299 C 345.50193316763 299 345.651339409 299 345.95015189174 299 C 346.24896437448 299 346.39837061585 299 346.69718309859 299 C 346.99599558133 299 347.1454018227 299 347.44421430544 299 C 347.74302678818003 299 347.89243302955003 299 348.19124551229 299 C 348.49005799503004 299 348.6394642364 299 348.93827671914 299 C 349.23708920188 299 349.38649544325 299 349.68530792599 299 C 349.98412040873 299 350.13352665009995 299 350.43233913284 299 C 350.73115161557996 299 350.8805578569501 299 351.17937033969 299 C 351.478182822426 299 351.62758906379395 299 351.92640154653 299 C 352.22521402927 299 352.37462027064 299 352.67343275338 299 C 352.97224523612 299 353.12165147749 299 353.42046396023 299 C 353.71927644297 299 353.86868268434 299 354.16749516708 299 C 354.46630764982 299 354.61571389119 299 354.91452637393 299 C 355.21333885667 299 355.36274509804 299 355.66155758078 299 C 355.96037006352 299 356.10977630489003 299 356.40858878763 299 C 356.70740127037 299 356.85680751173993 299 357.15561999448 299 C 357.45443247721994 299 357.60383871859005 299 357.90265120133 299 C 358.201463684066 299 358.35086992543404 299 358.64968240817 299 C 358.94849489091 299 359.09790113228 299 359.39671361502 299 C 359.69552609776 299 359.84493233912997 299 360.14374482187 299 C 360.44255730461 299 360.59196354598 299 360.89077602872 299 C 361.18958851146 299 361.33899475283 299 361.63780723557 299 C 361.93661971831 299 362.08602595968 299 362.38483844242 299 C 362.68365092516 299 362.83305716653 299 363.13186964927 299 C 363.43068213201 299 363.58008837338 299 363.87890085612 299 C 364.17771333886003 299 364.32711958023003 299 364.62593206297 299 C 364.924744545706 299 365.074150787074 299 365.37296326981 299 C 365.67177575255 299 365.82118199392 299 366.11999447666 299 C 366.4188069594 299 366.56821320076995 299 366.86702568351 299 C 367.16583816624996 299 367.31524440762007 299 367.61405689036 299 C 367.9128693731 299 368.06227561446997 299 368.36108809721 299 C 368.65990057995 299 368.80930682132 299 369.10811930406 299 C 369.4069317868 299 369.55633802817 299 369.85515051091 299 C 370.15396299365 299 370.30336923502 299 370.60218171776 299 C 370.9009942005 299 371.05040044187 299 371.34921292461 299 C 371.64802540735 299 371.79743164872 299 372.09624413146 299 C 372.395056614196 299 372.544462855564 299 372.8432753383 299 C 373.14208782104 299 373.2914940624099 299 373.59030654515 299 C 373.88911902788993 299 374.03852526926005 299 374.337337752 299 C 374.63615023474006 299 374.78555647611 299 375.08436895885 299 C 375.38318144159 299 375.53258768296 299 375.8314001657 299 C 376.13021264844 299 376.27961888980997 299 376.57843137255 299 C 376.87724385529 299 377.02665009666 299 377.3254625794 299 C 377.62427506214 299 377.77368130351 299 378.07249378625 299 C 378.37130626899 299 378.52071251036 299 378.8195249931 299 C 379.11833747583603 299 379.26774371720404 299 379.56655619994 299 C 379.86536868268 299 380.01477492405 299 380.31358740679 299 C 380.61239988953 299 380.7618061309 299 381.06061861364 299 C 381.35943109638004 299 381.50883733775 299 381.80764982049 299 C 382.10646230323 299 382.2558685446 299 382.55468102734 299 C 382.85349351008 299 383.00289975144995 299 383.30171223419 299 C 383.60052471692995 299 383.74993095830007 299 384.04874344104 299 C 384.3475559237801 299 384.49696216515 299 384.79577464789 299 C 385.09458713063 299 385.24399337200003 299 385.54280585474 299 C 385.84161833748 299 385.99102457885 299 386.28983706159 299 C 386.588649544326 299 386.738055785694 299 387.03686826843 299 C 387.33568075117 299 387.48508699254 299 387.78389947528 299 C 388.08271195802 299 388.23211819939 299 388.53093068213 299 C 388.82974316486997 299 388.97914940624 299 389.27796188898 299 C 389.57677437172 299 389.7261806130899 299 390.02499309583 299 C 390.32380557856993 299 390.47321181994005 299 390.77202430268 299 C 391.07083678542006 299 391.22024302679 299 391.51905550953 299 C 391.81786799227 299 391.96727423364 299 392.26608671638 299 C 392.56489919912 299 392.71430544048997 299 393.01311792323 299 C 393.311930405966 299 393.46133664733395 299 393.76014913007 299 C 394.05896161281 299 394.20836785418 299 394.50718033692 299 C 394.80599281966 299 394.95539906103 299 395.25421154377 299 C 395.55302402651 299 395.70243026788 299 396.00124275062 299 C 396.30005523336 299 396.44946147473 299 396.74827395747 299 C 397.04708644021 299 397.19649268158 299 397.49530516432 299 C 397.79411764706003 299 397.94352388843 299 398.24233637117 299 C 398.54114885391 299 398.69055509528 299 398.98936757802 299 C 399.28818006076 299 399.43758630212994 299 399.73639878487 299 C 400.03521126760995 299 400.18461750898007 299 400.48342999172 299 C 400.78224247445604 299 400.93164871582405 299 401.23046119856 299 C 401.52927368129997 299 401.67867992267 299 401.97749240541 299 C 402.27630488815 299 402.42571112952 299 402.72452361226 299 C 403.023336095 299 403.17274233637 299 403.47155481911 299 C 403.77036730185 299 403.91977354322 299 404.21858602596 299 C 404.5173985087 299 404.66680475007 299 404.96561723281 299 C 405.26442971554997 299 405.41383595692 299 405.71264843966 299 C 406.0114609224 299 406.1608671637699 299 406.45967964651 299 C 406.75849212924993 299 406.90789837062005 299 407.20671085336 299 C 407.505523336096 299 407.65492957746403 299 407.9537420602 299 C 408.25255454294 299 408.40196078431 299 408.70077326705 299 C 408.99958574979 299 409.14899199115996 299 409.4478044739 299 C 409.74661695663997 299 409.89602319800997 299 410.19483568075 299 C 410.49364816349 299 410.64305440486 299 410.9418668876 299 C 411.24067937034 299 411.39008561170994 299 411.68889809445 299 C 411.98771057719006 299 412.13711681856 299 412.4359293013 299 C 412.73474178404 299 412.88414802541 299 413.18296050815 299 C 413.48177299089 299 413.63117923226 299 413.929991715 299 C 414.228804197736 299 414.378210439104 299 414.67702292184 299 C 414.97583540458 299 415.12524164595 299 415.42405412869 299 C 415.72286661143 299 415.87227285279994 299 416.17108533554 299 C 416.46989781827995 299 416.61930405965006 299 416.91811654239 299 C 417.21692902513007 299 417.3663352665 299 417.66514774924 299 C 417.96396023197997 299 418.11336647335 299 418.41217895609 299 C 418.71099143883004 299 418.8603976802 299 419.15921016294 299 C 419.45802264568 299 419.60742888705 299 419.90624136979 299 C 420.20505385253 299 420.3544600939 299 420.65327257664 299 C 420.95208505938 299 421.10149130075007 299 421.40030378349 299 C 421.699116266226 299 421.84852250759405 299 422.14733499033 299 C 422.44614747307 299 422.59555371444003 299 422.89436619718 299 C 423.1931786799199 299 423.34258492129004 299 423.64139740403 299 C 423.94020988677005 299 424.08961612814 299 424.38842861088 299 C 424.68724109362 299 424.83664733499 299 425.13545981773 299 C 425.43427230047 299 425.58367854183996 299 425.88249102458 299 C 426.18130350731997 299 426.33070974868997 299 426.62952223143 299 C 426.92833471417 299 427.07774095554 299 427.37655343828 299 C 427.67536592102 299 427.82477216239005 299 428.12358464513 299 C 428.42239712786596 299 428.57180336923403 299 428.87061585197 299 C 429.16942833471 299 429.31883457608 299 429.61764705882 299 C 429.91645954156 299 430.06586578293 299 430.36467826567 299 C 430.66349074841 299 430.81289698978 299 431.11170947252 299 C 431.41052195526 299 431.55992819663 299 431.85874067937 299 C 432.15755316211 299 432.30695940347994 299 432.60577188622 299 C 432.90458436895995 299 433.05399061033006 299 433.35280309307 299 C 433.65161557581007 299 433.80102181718 299 434.09983429992 299 C 434.39864678266 299 434.54805302403 299 434.84686550677 299 C 435.1456779895099 299 435.29508423088 299 435.59389671362 299 C 435.892709196356 299 436.04211543772396 299 436.34092792046 299 C 436.6397404032 299 436.78914664457 299 437.08795912731 299 C 437.38677161005 299 437.53617785141995 299 437.83499033416 299 C 438.1338028169001 299 438.28320905827 299 438.58202154101 299 C 438.88083402375 299 439.0302402651199 299 439.32905274786 299 C 439.6278652305999 299 439.77727147197004 299 440.07608395471 299 C 440.37489643745005 299 440.52430267882 299 440.82311516156 299 C 441.1219276443 299 441.27133388567 299 441.57014636841 299 C 441.86895885115 299 442.01836509251996 299 442.31717757526 299 C 442.615990057996 299 442.76539629936406 299 443.0642087821 299 C 443.3630212648401 299 443.51242750621 299 443.81123998895 299 C 444.11005247169 299 444.2594587130599 299 444.5582711958 299 C 444.85708367854005 299 445.00648991991 299 445.30530240265 299 C 445.60411488539 299 445.75352112676 299 446.0523336095 299 C 446.35114609224 299 446.50055233361 299 446.79936481635 299 C 447.09817729909 299 447.24758354045997 299 447.5463960232 299 C 447.84520850594 299 447.99461474731 299 448.29342723005 299 C 448.59223971279 299 448.74164595415994 299 449.0404584369 299 C 449.33927091963596 299 449.48867716100403 299 449.78748964374 299 C 450.08630212648006 299 450.23570836785 299 450.53452085059 299 C 450.83333333333 299 450.9827395747 299 451.28155205744 299 C 451.58036454018 299 451.72977078155 299 452.02858326429 299 C 452.32739574703 299 452.4768019884 299 452.77561447114 299 C 453.07442695388 299 453.22383319525 299 453.52264567799 299 C 453.82145816073 299 453.97086440210006 299 454.26967688484 299 C 454.56848936757996 299 454.71789560895 299 455.01670809169 299 C 455.31552057443 299 455.4649268158 299 455.76373929854 299 C 456.0625517812799 299 456.21195802265004 299 456.51077050539 299 C 456.809582988126 299 456.958989229494 299 457.25780171223 299 C 457.55661419497 299 457.70602043634 299 458.00483291908 299 C 458.30364540182 299 458.45305164318995 299 458.75186412593 299 C 459.05067660866996 299 459.2000828500401 299 459.49889533278 299 C 459.79770781551997 299 459.94711405689 299 460.24592653963 299 C 460.54473902237 299 460.69414526374004 299 460.99295774648 299 C 461.29177022921994 299 461.44117647059 299 461.73998895333 299 C 462.03880143607 299 462.18820767744 299 462.48702016018 299 C 462.78583264292 299 462.93523888429 299 463.23405136703 299 C 463.532863849766 299 463.682270091134 299 463.98108257387 299 C 464.27989505661 299 464.42930129798003 299 464.72811378072 299 C 465.02692626346 299 465.17633250482993 299 465.47514498757 299 C 465.77395747030994 299 465.92336371168005 299 466.22217619442 299 C 466.52098867716006 299 466.67039491853 299 466.96920740127 299 C 467.26801988401 299 467.41742612538 299 467.71623860812 299 C 468.01505109086 299 468.16445733223 299 468.46326981497 299 C 468.76208229771 299 468.91148853908 299 469.21030102182 299 C 469.50911350456 299 469.65851974593 299 469.95733222867 299 C 470.25614471141 299 470.40555095277995 299 470.70436343552 299 C 471.00317591825603 299 471.15258215962405 299 471.45139464236 299 C 471.7502071251 299 471.89961336647 299 472.19842584921 299 C 472.49723833195003 299 472.64664457332003 299 472.94545705606 299 C 473.24426953880004 299 473.39367578017 299 473.69248826291 299 C 473.99130074565 299 474.14070698702 299 474.43951946976 299 C 474.7383319525 299 474.88773819386995 299 475.18655067661 299 C 475.48536315934996 299 475.6347694007201 299 475.93358188346 299 C 476.2323943662001 299 476.38180060756997 299 476.68061309031 299 C 476.97942557305 299 477.1288318144199 299 477.42764429716 299 C 477.726456779896 299 477.875863021264 299 478.174675504 299 C 478.47348798674 299 478.62289422811 299 478.92170671085 299 C 479.22051919359 299 479.36992543496 299 479.6687379177 299 C 479.96755040044 299 480.1169566418101 299 480.41576912455 299 C 480.71458160729 299 480.86398784866 299 481.1628003314 299 C 481.46161281414 299 481.6110190555099 299 481.90983153825 299 C 482.20864402098994 299 482.35805026236005 299 482.6568627451 299 C 482.95567522784006 299 483.10508146921 299 483.40389395195 299 C 483.70270643469 299 483.85211267606 299 484.1509251588 299 C 484.449737641536 299 484.599143882904 299 484.89795636564 299 C 485.19676884838 299 485.34617508975 299 485.64498757249 299 C 485.94380005523 299 486.0932062966 299 486.39201877934 299 C 486.69083126208 299 486.84023750345006 299 487.13904998619 299 C 487.43786246892995 299 487.5872687103 299 487.88608119304 299 C 488.18489367578 299 488.33429991715 299 488.63311239989 299 C 488.93192488263 299 489.08133112400003 299 489.38014360674 299 C 489.67895608948004 299 489.82836233085 299 490.12717481359 299 C 490.42598729633 299 490.5753935377 299 490.87420602044 299 C 491.17301850318 299 491.32242474454995 299 491.62123722729 299 C 491.920049710026 299 492.06945595139405 299 492.36826843413 299 C 492.6670809168701 299 492.81648715824 299 493.11529964098 299 C 493.41411212372003 299 493.56351836509003 299 493.86233084783 299 C 494.1611433305699 299 494.31054957194 299 494.60936205468 299 C 494.90817453742 299 495.05758077879 299 495.35639326153 299 C 495.65520574427 299 495.80461198564 299 496.10342446838 299 C 496.40223695112 299 496.55164319248996 299 496.85045567523 299 C 497.14926815796997 299 497.29867439934003 299 497.59748688208 299 C 497.89629936482 299 498.0457056061899 299 498.34451808893 299 C 498.64333057166596 299 498.792736813034 299 499.09154929577 299 C 499.39036177851006 299 499.53976801988 299 499.83858050262 299 C 500.13739298536 299 500.28679922673 299 500.58561170947 299 C 500.88442419221 299 501.03383043357996 299 501.33264291632 299 C 501.63145539906 299 501.78086164043 299 502.07967412317 299 C 502.37848660591 299 502.52789284728 299 502.82670533002 299 C 503.12551781276 299 503.27492405412994 299 503.57373653687 299 C 503.87254901961006 299 504.02195526098 299 504.32076774372 299 C 504.61958022646 299 504.76898646783 299 505.06779895057 299 C 505.36661143331 299 505.51601767468003 299 505.81483015742 299 C 506.113642640156 299 506.263048881524 299 506.56186136426 299 C 506.860673847 299 507.01008008837 299 507.30889257111 299 C 507.60770505385 299 507.75711129521994 299 508.05592377796 299 C 508.35473626069995 299 508.50414250207007 299 508.80295498481 299 C 509.1017674675501 299 509.25117370892 299 509.54998619166 299 C 509.8487986744 299 509.99820491577003 299 510.29701739851 299 C 510.59582988125004 299 510.74523612262 299 511.04404860536 299 C 511.3428610881 299 511.49226732947 299 511.79107981221 299 C 512.08989229495 299 512.23929853632 299 512.53811101906 299 C 512.941300362088 299 513.1428950336019 59.80000000000001 513.54608437663 59.80000000000001 C 513.7405199990781 59.80000000000001 513.8377378103021 299 514.03217343275 299 C 514.33098591549 299 514.48039215686 299 514.7792046396 299 C 515.07801712234 299 515.22742336371 299 515.52623584645 299 C 515.82504832919 299 515.97445457056 299 516.2732670533 299 C 516.57207953604 299 516.72148577741 299 517.02029826015 299 C 517.31911074289 299 517.46851698426 299 517.767329467 299 C 518.06614194974 299 518.21554819111 299 518.51436067385 299 C 518.81317315659 299 518.96257939796 299 519.2613918807 299 C 519.560204363436 299 519.7096106048041 299 520.00842308754 299 C 520.30723557028 299 520.45664181165 299 520.75545429439 299 C 521.05426677713 299 521.2036730185 299 521.50248550124 299 C 521.80129798398 299 521.95070422535 299 522.24951670809 299 C 522.54832919083 299 522.6977354322 299 522.99654791494 299 C 523.29536039768 299 523.44476663905 299 523.74357912179 299 C 524.0423916045299 299 524.1917978458999 299 524.49061032864 299 C 524.78942281138 299 524.93882905275 299 525.23764153549 299 C 525.53645401823 299 525.6858602596 299 525.98467274234 299 C 526.28348522508 299 526.43289146645 299 526.73170394919 299 C 527.0305164319259 299 527.179922673294 299 527.47873515603 299 C 527.77754763877 299 527.92695388014 299 528.22576636288 299 C 528.52457884562 299 528.67398508699 299 528.97279756973 299 C 529.27161005247 299 529.42101629384 299 529.71982877658 299 C 530.01864125932 299 530.16804750069 299 530.46685998343 299 C 530.76567246617 299 530.91507870754 299 531.21389119028 299 C 531.51270367302 299 531.66210991439 299 531.96092239713 299 C 532.2597348798699 299 532.4091411212399 299 532.70795360398 299 C 533.00676608672 299 533.15617232809 299 533.45498481083 299 C 533.7537972935659 299 533.9032035349339 299 534.20201601767 299 C 534.50082850041 299 534.65023474178 299 534.94904722452 299 C 535.24785970726 299 535.69607843137 299 535.69607843137 299" class="highcharts-graph" data-z-index="1" stroke="#000000" stroke-width="2" stroke-linejoin="round" stroke-linecap="round"></path></g><g data-z-index="0.1" class="highcharts-markers highcharts-series-0 highcharts-spline-series highcharts-color-0 " transform="translate(49,63) scale(1 1)" clip-path="none"></g></g><text x="300" text-anchor="middle" class="highcharts-title" data-z-index="4" style="color:#333333;font-size:18px;fill:#333333;" y="24"><tspan>Microwave Popcorn - Butter Over Time</tspan></text><text x="300" text-anchor="middle" class="highcharts-subtitle" data-z-index="4" style="color:#666666;fill:#666666;" y="46"><tspan>This chart shows how your Microwave Popcorn - Butter changes over time.</tspan></text><g class="highcharts-axis-labels highcharts-xaxis-labels " data-z-index="7"><text x="66.268296050815" style="color:#666666;cursor:default;font-size:11px;fill:#666666;" text-anchor="middle" transform="translate(0,0)" y="381" opacity="1"><tspan>Jan '14</tspan></text><text x="155.91204087269" style="color:#666666;cursor:default;font-size:11px;fill:#666666;" text-anchor="middle" transform="translate(0,0)" y="381" opacity="1"><tspan>May '14</tspan></text><text x="247.79687931511" style="color:#666666;cursor:default;font-size:11px;fill:#666666;" text-anchor="middle" transform="translate(0,0)" y="381" opacity="1"><tspan>Sep '14</tspan></text><text x="338.93468655068" style="color:#666666;cursor:default;font-size:11px;fill:#666666;" text-anchor="middle" transform="translate(0,0)" y="381" opacity="1"><tspan>Jan '15</tspan></text><text x="428.57843137255" style="color:#666666;cursor:default;font-size:11px;fill:#666666;" text-anchor="middle" transform="translate(0,0)" y="381" opacity="1"><tspan>May '15</tspan></text><text x="520.46326981497" style="color:#666666;cursor:default;font-size:11px;fill:#666666;" text-anchor="middle" transform="translate(0,0)" y="381" opacity="1"><tspan>Sep '15</tspan></text></g><g class="highcharts-axis-labels highcharts-yaxis-labels " data-z-index="7"><text x="34" style="color:#666666;cursor:default;font-size:11px;fill:#666666;" text-anchor="end" transform="translate(0,0)" y="366" opacity="1">0</text><text x="34" style="color:#666666;cursor:default;font-size:11px;fill:#666666;" text-anchor="end" transform="translate(0,0)" y="306" opacity="1">0.25</text><text x="34" style="color:#666666;cursor:default;font-size:11px;fill:#666666;" text-anchor="end" transform="translate(0,0)" y="246" opacity="1">0.5</text><text x="34" style="color:#666666;cursor:default;font-size:11px;fill:#666666;" text-anchor="end" transform="translate(0,0)" y="186" opacity="1">0.75</text><text x="34" style="color:#666666;cursor:default;font-size:11px;fill:#666666;" text-anchor="end" transform="translate(0,0)" y="126" opacity="1">1</text><text x="34" style="color:#666666;cursor:default;font-size:11px;fill:#666666;" text-anchor="end" transform="translate(0,0)" y="67" opacity="1">1.25</text></g><a xlink:href="https://quantimo.do" target="_blank">
                    <text x="590" class="highcharts-credits" text-anchor="end" data-z-index="8"
                          style="cursor:pointer;color:#999999;font-size:9px;fill:#999999;" y="395">https://quantimo.do
                    </text>
                </a></svg>