<?xml version="1.0" standalone="no"?><!DOCTYPE svg PUBLIC "-//W3C//DTD SVG 1.1//EN" "http://www.w3.org/Graphics/SVG/1.1/DTD/svg11.dtd"><svg xmlns:xlink="http://www.w3.org/1999/xlink" version="1.1" class="highcharts-root" style="font-family:&quot;Lucida Grande&quot;, &quot;Lucida Sans Unicode&quot;, Arial, Helvetica, sans-serif;font-size:12px;" xmlns="http://www.w3.org/2000/svg" width="600" height="300"><desc>Created with Highstock 6.2.0</desc><defs><clipPath id="highcharts-erxgr7x-27"><rect x="0" y="0" width="507" height="153" fill="none"></rect></clipPath><clipPath id="highcharts-erxgr7x-48"><rect x="0" y="0" width="507" height="153" fill="none"></rect></clipPath><clipPath id="highcharts-erxgr7x-49"><rect x="83" y="78" width="507" height="153" fill="none"></rect></clipPath></defs><rect fill="#ffffff" class="highcharts-background" x="0" y="0" width="600" height="300" rx="0" ry="0"></rect><rect fill="none" class="highcharts-plot-background" x="83" y="78" width="507" height="153"></rect><g class="highcharts-pane-group" data-z-index="0"></g><g class="highcharts-grid highcharts-xaxis-grid " data-z-index="1"><path fill="none" data-z-index="1" class="highcharts-grid-line" d="M 107.5 78 L 107.5 231" opacity="1"></path><path fill="none" data-z-index="1" class="highcharts-grid-line" d="M 133.5 78 L 133.5 231" opacity="1"></path><path fill="none" data-z-index="1" class="highcharts-grid-line" d="M 158.5 78 L 158.5 231" opacity="1"></path><path fill="none" data-z-index="1" class="highcharts-grid-line" d="M 183.5 78 L 183.5 231" opacity="1"></path><path fill="none" data-z-index="1" class="highcharts-grid-line" d="M 209.5 78 L 209.5 231" opacity="1"></path><path fill="none" data-z-index="1" class="highcharts-grid-line" d="M 234.5 78 L 234.5 231" opacity="1"></path><path fill="none" data-z-index="1" class="highcharts-grid-line" d="M 259.5 78 L 259.5 231" opacity="1"></path><path fill="none" data-z-index="1" class="highcharts-grid-line" d="M 285.5 78 L 285.5 231" opacity="1"></path><path fill="none" data-z-index="1" class="highcharts-grid-line" d="M 310.5 78 L 310.5 231" opacity="1"></path><path fill="none" data-z-index="1" class="highcharts-grid-line" d="M 336.5 78 L 336.5 231" opacity="1"></path><path fill="none" data-z-index="1" class="highcharts-grid-line" d="M 361.5 78 L 361.5 231" opacity="1"></path><path fill="none" data-z-index="1" class="highcharts-grid-line" d="M 386.5 78 L 386.5 231" opacity="1"></path><path fill="none" data-z-index="1" class="highcharts-grid-line" d="M 412.5 78 L 412.5 231" opacity="1"></path><path fill="none" data-z-index="1" class="highcharts-grid-line" d="M 437.5 78 L 437.5 231" opacity="1"></path><path fill="none" data-z-index="1" class="highcharts-grid-line" d="M 462.5 78 L 462.5 231" opacity="1"></path><path fill="none" data-z-index="1" class="highcharts-grid-line" d="M 488.5 78 L 488.5 231" opacity="1"></path><path fill="none" data-z-index="1" class="highcharts-grid-line" d="M 513.5 78 L 513.5 231" opacity="1"></path><path fill="none" data-z-index="1" class="highcharts-grid-line" d="M 538.5 78 L 538.5 231" opacity="1"></path><path fill="none" data-z-index="1" class="highcharts-grid-line" d="M 564.5 78 L 564.5 231" opacity="1"></path><path fill="none" data-z-index="1" class="highcharts-grid-line" d="M 589.5 78 L 589.5 231" opacity="1"></path><path fill="none" data-z-index="1" class="highcharts-grid-line" d="M 82.5 78 L 82.5 231" opacity="1"></path></g><g class="highcharts-grid highcharts-yaxis-grid " data-z-index="1"><path fill="none" stroke="#e6e6e6" stroke-width="1" data-z-index="1" class="highcharts-grid-line" d="M 83 231.5 L 590 231.5" opacity="1"></path><path fill="none" stroke="#e6e6e6" stroke-width="1" data-z-index="1" class="highcharts-grid-line" d="M 83 180.5 L 590 180.5" opacity="1"></path><path fill="none" stroke="#e6e6e6" stroke-width="1" data-z-index="1" class="highcharts-grid-line" d="M 83 129.5 L 590 129.5" opacity="1"></path><path fill="none" stroke="#e6e6e6" stroke-width="1" data-z-index="1" class="highcharts-grid-line" d="M 83 77.5 L 590 77.5" opacity="1"></path></g><rect fill="none" class="highcharts-plot-border" data-z-index="1" x="83" y="78" width="507" height="153"></rect><g class="highcharts-axis highcharts-xaxis " data-z-index="2"><path fill="none" class="highcharts-tick" stroke="#ccd6eb" stroke-width="1" d="M 107.5 231 L 107.5 241" opacity="1"></path><path fill="none" class="highcharts-tick" stroke="#ccd6eb" stroke-width="1" d="M 133.5 231 L 133.5 241" opacity="1"></path><path fill="none" class="highcharts-tick" stroke="#ccd6eb" stroke-width="1" d="M 158.5 231 L 158.5 241" opacity="1"></path><path fill="none" class="highcharts-tick" stroke="#ccd6eb" stroke-width="1" d="M 183.5 231 L 183.5 241" opacity="1"></path><path fill="none" class="highcharts-tick" stroke="#ccd6eb" stroke-width="1" d="M 209.5 231 L 209.5 241" opacity="1"></path><path fill="none" class="highcharts-tick" stroke="#ccd6eb" stroke-width="1" d="M 234.5 231 L 234.5 241" opacity="1"></path><path fill="none" class="highcharts-tick" stroke="#ccd6eb" stroke-width="1" d="M 259.5 231 L 259.5 241" opacity="1"></path><path fill="none" class="highcharts-tick" stroke="#ccd6eb" stroke-width="1" d="M 285.5 231 L 285.5 241" opacity="1"></path><path fill="none" class="highcharts-tick" stroke="#ccd6eb" stroke-width="1" d="M 310.5 231 L 310.5 241" opacity="1"></path><path fill="none" class="highcharts-tick" stroke="#ccd6eb" stroke-width="1" d="M 336.5 231 L 336.5 241" opacity="1"></path><path fill="none" class="highcharts-tick" stroke="#ccd6eb" stroke-width="1" d="M 361.5 231 L 361.5 241" opacity="1"></path><path fill="none" class="highcharts-tick" stroke="#ccd6eb" stroke-width="1" d="M 386.5 231 L 386.5 241" opacity="1"></path><path fill="none" class="highcharts-tick" stroke="#ccd6eb" stroke-width="1" d="M 412.5 231 L 412.5 241" opacity="1"></path><path fill="none" class="highcharts-tick" stroke="#ccd6eb" stroke-width="1" d="M 437.5 231 L 437.5 241" opacity="1"></path><path fill="none" class="highcharts-tick" stroke="#ccd6eb" stroke-width="1" d="M 462.5 231 L 462.5 241" opacity="1"></path><path fill="none" class="highcharts-tick" stroke="#ccd6eb" stroke-width="1" d="M 488.5 231 L 488.5 241" opacity="1"></path><path fill="none" class="highcharts-tick" stroke="#ccd6eb" stroke-width="1" d="M 513.5 231 L 513.5 241" opacity="1"></path><path fill="none" class="highcharts-tick" stroke="#ccd6eb" stroke-width="1" d="M 538.5 231 L 538.5 241" opacity="1"></path><path fill="none" class="highcharts-tick" stroke="#ccd6eb" stroke-width="1" d="M 564.5 231 L 564.5 241" opacity="1"></path><path fill="none" class="highcharts-tick" stroke="#ccd6eb" stroke-width="1" d="M 590.5 231 L 590.5 241" opacity="1"></path><path fill="none" class="highcharts-tick" stroke="#ccd6eb" stroke-width="1" d="M 82.5 231 L 82.5 241" opacity="1"></path><text x="336.5" data-z-index="7" text-anchor="middle" transform="translate(0,0)" class="highcharts-axis-title" style="color:#666666;fill:#666666;" y="281.4558441227157"><tspan>Average Daily Cardio Heart Rate Zone (Minutes)</tspan></text><path fill="none" class="highcharts-axis-line" stroke="#ccd6eb" stroke-width="1" data-z-index="7" d="M 83 231.5 L 590 231.5"></path></g><g class="highcharts-axis highcharts-yaxis " data-z-index="2"><text x="26" data-z-index="7" text-anchor="middle" transform="translate(0,0) rotate(270 26 154.5)" class="highcharts-axis-title" style="color:#666666;fill:#666666;" y="154.5"><tspan>Average Daily Guiltiness</tspan><tspan dy="15" x="26">(1 to 5 Rating)</tspan></text><path fill="none" class="highcharts-axis-line" data-z-index="7" d="M 83 78 L 83 231"></path></g><g class="highcharts-series-group" data-z-index="3"><g data-z-index="0.1" class="highcharts-series highcharts-series-0 highcharts-column-series highcharts-color-0 " transform="translate(83,78) scale(1 1)" clip-path="url(#highcharts-erxgr7x-48)"><rect x="6.5" y="91.5" width="13" height="62" fill="#000000" stroke="#ffffff" stroke-width="1" class="highcharts-point highcharts-color-0"></rect><rect x="31.5" y="92.5" width="13" height="61" fill="#000000" stroke="#ffffff" stroke-width="1" class="highcharts-point highcharts-color-0"></rect><rect x="56.5" y="93.5" width="13" height="60" fill="#000000" stroke="#ffffff" stroke-width="1" class="highcharts-point highcharts-color-0"></rect><rect x="82.5" y="94.5" width="13" height="59" fill="#000000" stroke="#ffffff" stroke-width="1" class="highcharts-point highcharts-color-0"></rect><rect x="107.5" y="98.5" width="13" height="55" fill="#000000" stroke="#ffffff" stroke-width="1" class="highcharts-point highcharts-color-0"></rect><rect x="132.5" y="103.5" width="13" height="50" fill="#000000" stroke="#ffffff" stroke-width="1" class="highcharts-point highcharts-color-0"></rect><rect x="158.5" y="131.5" width="13" height="22" fill="#000000" stroke="#ffffff" stroke-width="1" class="highcharts-point highcharts-color-0"></rect><rect x="183.5" y="97.5" width="13" height="56" fill="#000000" stroke="#ffffff" stroke-width="1" class="highcharts-point highcharts-color-0"></rect><rect x="208.5" y="108.5" width="13" height="45" fill="#000000" stroke="#ffffff" stroke-width="1" class="highcharts-point highcharts-color-0"></rect><rect x="234.5" y="75.5" width="13" height="78" fill="#000000" stroke="#ffffff" stroke-width="1" class="highcharts-point highcharts-color-0"></rect><rect x="259.5" y="67.5" width="13" height="86" fill="#000000" stroke="#ffffff" stroke-width="1" class="highcharts-point highcharts-color-0"></rect><rect x="284.5" y="78.5" width="13" height="75" fill="#000000" stroke="#ffffff" stroke-width="1" class="highcharts-point highcharts-color-0"></rect><rect x="310.5" y="74.5" width="13" height="79" fill="#000000" stroke="#ffffff" stroke-width="1" class="highcharts-point highcharts-color-0"></rect><rect x="335.5" y="64.5" width="13" height="89" fill="#000000" stroke="#ffffff" stroke-width="1" class="highcharts-point highcharts-color-0"></rect><rect x="360.5" y="73.5" width="13" height="80" fill="#000000" stroke="#ffffff" stroke-width="1" class="highcharts-point highcharts-color-0"></rect><rect x="386.5" y="64.5" width="13" height="89" fill="#000000" stroke="#ffffff" stroke-width="1" class="highcharts-point highcharts-color-0"></rect><rect x="411.5" y="62.5" width="13" height="91" fill="#000000" stroke="#ffffff" stroke-width="1" class="highcharts-point highcharts-color-0"></rect><rect x="437.5" y="79.5" width="13" height="74" fill="#000000" stroke="#ffffff" stroke-width="1" class="highcharts-point highcharts-color-0"></rect><rect x="462.5" y="61.5" width="13" height="92" fill="#000000" stroke="#ffffff" stroke-width="1" class="highcharts-point highcharts-color-0"></rect><rect x="487.5" y="42.5" width="13" height="111" fill="#000000" stroke="#ffffff" stroke-width="1" class="highcharts-point highcharts-color-0"></rect></g><g data-z-index="0.1" class="highcharts-markers highcharts-series-0 highcharts-column-series highcharts-color-0 " transform="translate(83,78) scale(1 1)" clip-path="none"></g></g><text x="300" text-anchor="middle" class="highcharts-title" data-z-index="4" style="color:#333333;font-size:18px;fill:#333333;" y="24"><tspan>Average Guiltiness by Previous Cardio Heart Rate Zone</tspan></text><text x="300" text-anchor="middle" class="highcharts-subtitle" data-z-index="4" style="color:#666666;fill:#666666;" y="46"><tspan>Typical values for Guiltiness following a given amount of Cardio Heart Rate Zone over the</tspan><tspan dy="15" x="300">previous 7 days.</tspan></text><g class="highcharts-axis-labels highcharts-xaxis-labels " data-z-index="7"><text x="98.26772486435067" style="color:#666666;cursor:default;font-size:11px;fill:#666666;" text-anchor="end" transform="translate(0,0) rotate(-45 98.26772486435067 247)" y="247" opacity="1">0</text><text x="123.61772486435068" style="color:#666666;cursor:default;font-size:11px;fill:#666666;" text-anchor="end" transform="translate(0,0) rotate(-45 123.61772486435068 247)" y="247" opacity="1">1</text><text x="148.96772486435069" style="color:#666666;cursor:default;font-size:11px;fill:#666666;" text-anchor="end" transform="translate(0,0) rotate(-45 148.96772486435069 247)" y="247" opacity="1">2</text><text x="174.31772486435068" style="color:#666666;cursor:default;font-size:11px;fill:#666666;" text-anchor="end" transform="translate(0,0) rotate(-45 174.31772486435068 247)" y="247" opacity="1">3</text><text x="199.66772486435067" style="color:#666666;cursor:default;font-size:11px;fill:#666666;" text-anchor="end" transform="translate(0,0) rotate(-45 199.66772486435067 247)" y="247" opacity="1">4</text><text x="225.01772486435067" style="color:#666666;cursor:default;font-size:11px;fill:#666666;" text-anchor="end" transform="translate(0,0) rotate(-45 225.01772486435067 247)" y="247" opacity="1">5</text><text x="250.36772486435063" style="color:#666666;cursor:default;font-size:11px;fill:#666666;" text-anchor="end" transform="translate(0,0) rotate(-45 250.36772486435063 247)" y="247" opacity="1">6</text><text x="275.71772486435066" style="color:#666666;cursor:default;font-size:11px;fill:#666666;" text-anchor="end" transform="translate(0,0) rotate(-45 275.71772486435066 247)" y="247" opacity="1">7</text><text x="301.0677248643506" style="color:#666666;cursor:default;font-size:11px;fill:#666666;" text-anchor="end" transform="translate(0,0) rotate(-45 301.0677248643506 247)" y="247" opacity="1">8</text><text x="326.41772486435065" style="color:#666666;cursor:default;font-size:11px;fill:#666666;" text-anchor="end" transform="translate(0,0) rotate(-45 326.41772486435065 247)" y="247" opacity="1">9</text><text x="351.76772486435067" style="color:#666666;cursor:default;font-size:11px;fill:#666666;" text-anchor="end" transform="translate(0,0) rotate(-45 351.76772486435067 247)" y="247" opacity="1">10</text><text x="377.11772486435063" style="color:#666666;cursor:default;font-size:11px;fill:#666666;" text-anchor="end" transform="translate(0,0) rotate(-45 377.11772486435063 247)" y="247" opacity="1">20</text><text x="402.46772486435066" style="color:#666666;cursor:default;font-size:11px;fill:#666666;" text-anchor="end" transform="translate(0,0) rotate(-45 402.46772486435066 247)" y="247" opacity="1">30</text><text x="427.8177248643506" style="color:#666666;cursor:default;font-size:11px;fill:#666666;" text-anchor="end" transform="translate(0,0) rotate(-45 427.8177248643506 247)" y="247" opacity="1">40</text><text x="453.16772486435065" style="color:#666666;cursor:default;font-size:11px;fill:#666666;" text-anchor="end" transform="translate(0,0) rotate(-45 453.16772486435065 247)" y="247" opacity="1">50</text><text x="478.51772486435067" style="color:#666666;cursor:default;font-size:11px;fill:#666666;" text-anchor="end" transform="translate(0,0) rotate(-45 478.51772486435067 247)" y="247" opacity="1">60</text><text x="503.8677248643507" style="color:#666666;cursor:default;font-size:11px;fill:#666666;" text-anchor="end" transform="translate(0,0) rotate(-45 503.8677248643507 247)" y="247" opacity="1">70</text><text x="529.2177248643507" style="color:#666666;cursor:default;font-size:11px;fill:#666666;" text-anchor="end" transform="translate(0,0) rotate(-45 529.2177248643507 247)" y="247" opacity="1">80</text><text x="554.5677248643507" style="color:#666666;cursor:default;font-size:11px;fill:#666666;" text-anchor="end" transform="translate(0,0) rotate(-45 554.5677248643507 247)" y="247" opacity="1">90</text><text x="579.9177248643507" style="color:#666666;cursor:default;font-size:11px;fill:#666666;" text-anchor="end" transform="translate(0,0) rotate(-45 579.9177248643507 247)" y="247" opacity="1">100</text></g><g class="highcharts-axis-labels highcharts-yaxis-labels " data-z-index="7"><text x="68" style="color:#666666;cursor:default;font-size:11px;fill:#666666;" text-anchor="end" transform="translate(0,0)" y="235" opacity="1">1.5</text><text x="68" style="color:#666666;cursor:default;font-size:11px;fill:#666666;" text-anchor="end" transform="translate(0,0)" y="184" opacity="1">2</text><text x="68" style="color:#666666;cursor:default;font-size:11px;fill:#666666;" text-anchor="end" transform="translate(0,0)" y="133" opacity="1">2.5</text><text x="68" style="color:#666666;cursor:default;font-size:11px;fill:#666666;" text-anchor="end" transform="translate(0,0)" y="82" opacity="1">3</text></g><a xlink:href="https://quantimo.do" target="_blank">
                    <text x="590" class="highcharts-credits" text-anchor="end" data-z-index="8"
                          style="cursor:pointer;color:#999999;font-size:9px;fill:#999999;" y="295">https://quantimo.do
                    </text>
                </a></svg>