<?xml version="1.0" standalone="no"?><!DOCTYPE svg PUBLIC "-//W3C//DTD SVG 1.1//EN" "http://www.w3.org/Graphics/SVG/1.1/DTD/svg11.dtd"><svg xmlns:xlink="http://www.w3.org/1999/xlink" version="1.1" class="highcharts-root" style="font-family:&quot;Lucida Grande&quot;, &quot;Lucida Sans Unicode&quot;, Arial, Helvetica, sans-serif;font-size:12px;" xmlns="http://www.w3.org/2000/svg" width="600" height="400"><desc>Created with Highstock 6.2.0</desc><defs><clipPath id="highcharts-0omel6o-251"><rect x="0" y="0" width="464" height="260" fill="none"></rect></clipPath><clipPath id="highcharts-0omel6o-373"><rect x="0" y="0" width="464" height="260" fill="none"></rect></clipPath><clipPath id="highcharts-0omel6o-495"><rect x="0" y="0" width="464" height="260" fill="none"></rect></clipPath><clipPath id="highcharts-0omel6o-496"><rect x="68" y="63" width="464" height="260" fill="none"></rect></clipPath></defs><rect fill="#ffffff" class="highcharts-background" x="0" y="0" width="600" height="400" rx="0" ry="0"></rect><rect fill="none" class="highcharts-plot-background" x="68" y="63" width="464" height="260"></rect><g class="highcharts-pane-group" data-z-index="0"></g><g class="highcharts-grid highcharts-xaxis-grid " data-z-index="1"><path fill="none" data-z-index="1" class="highcharts-grid-line" d="M 75.5 63 L 75.5 323" opacity="1"></path><path fill="none" data-z-index="1" class="highcharts-grid-line" d="M 192.5 63 L 192.5 323" opacity="1"></path><path fill="none" data-z-index="1" class="highcharts-grid-line" d="M 297.5 63 L 297.5 323" opacity="1"></path><path fill="none" data-z-index="1" class="highcharts-grid-line" d="M 413.5 63 L 413.5 323" opacity="1"></path><path fill="none" data-z-index="1" class="highcharts-grid-line" d="M 526.5 63 L 526.5 323" opacity="1"></path></g><g class="highcharts-grid highcharts-yaxis-grid " data-z-index="1"><path fill="none" stroke="#e6e6e6" stroke-width="1" data-z-index="1" class="highcharts-grid-line" d="M 68 323.5 L 532 323.5" opacity="1"></path><path fill="none" stroke="#e6e6e6" stroke-width="1" data-z-index="1" class="highcharts-grid-line" d="M 68 258.5 L 532 258.5" opacity="1"></path><path fill="none" stroke="#e6e6e6" stroke-width="1" data-z-index="1" class="highcharts-grid-line" d="M 68 193.5 L 532 193.5" opacity="1"></path><path fill="none" stroke="#e6e6e6" stroke-width="1" data-z-index="1" class="highcharts-grid-line" d="M 68 128.5 L 532 128.5" opacity="1"></path><path fill="none" stroke="#e6e6e6" stroke-width="1" data-z-index="1" class="highcharts-grid-line" d="M 68 62.5 L 532 62.5" opacity="1"></path></g><g class="highcharts-grid highcharts-yaxis-grid " data-z-index="1"><path fill="none" stroke="#e6e6e6" stroke-width="1" data-z-index="1" class="highcharts-grid-line" d="M 68 323.5 L 532 323.5" opacity="1"></path><path fill="none" stroke="#e6e6e6" stroke-width="1" data-z-index="1" class="highcharts-grid-line" d="M 68 258.5 L 532 258.5" opacity="1"></path><path fill="none" stroke="#e6e6e6" stroke-width="1" data-z-index="1" class="highcharts-grid-line" d="M 68 193.5 L 532 193.5" opacity="1"></path><path fill="none" stroke="#e6e6e6" stroke-width="1" data-z-index="1" class="highcharts-grid-line" d="M 68 128.5 L 532 128.5" opacity="1"></path><path fill="none" stroke="#e6e6e6" stroke-width="1" data-z-index="1" class="highcharts-grid-line" d="M 68 62.5 L 532 62.5" opacity="1"></path></g><rect fill="none" class="highcharts-plot-border" data-z-index="1" x="68" y="63" width="464" height="260"></rect><g class="highcharts-axis highcharts-xaxis " data-z-index="2"><path fill="none" class="highcharts-tick" stroke="#ccd6eb" stroke-width="1" d="M 75.5 323 L 75.5 333" opacity="1"></path><path fill="none" class="highcharts-tick" stroke="#ccd6eb" stroke-width="1" d="M 192.5 323 L 192.5 333" opacity="1"></path><path fill="none" class="highcharts-tick" stroke="#ccd6eb" stroke-width="1" d="M 297.5 323 L 297.5 333" opacity="1"></path><path fill="none" class="highcharts-tick" stroke="#ccd6eb" stroke-width="1" d="M 413.5 323 L 413.5 333" opacity="1"></path><path fill="none" class="highcharts-tick" stroke="#ccd6eb" stroke-width="1" d="M 526.5 323 L 526.5 333" opacity="1"></path><path fill="none" class="highcharts-axis-line" stroke="#ccd6eb" stroke-width="1" data-z-index="7" d="M 68 323.5 L 532 323.5"></path></g><g class="highcharts-axis highcharts-yaxis " data-z-index="2"><text x="26" data-z-index="7" text-anchor="middle" transform="translate(0,0) rotate(270 26 193)" class="highcharts-axis-title" style="color:#666666;fill:#666666;" y="193"><tspan>MEAN Probiotic Plus (tablets)</tspan></text><path fill="none" class="highcharts-axis-line" stroke="#ccd6eb" stroke-width="1" data-z-index="7" d="M 67.5 63 L 67.5 323"></path></g><g class="highcharts-axis highcharts-yaxis " data-z-index="2"><text x="574" data-z-index="7" text-anchor="middle" transform="translate(0,0) rotate(90 574 193)" class="highcharts-axis-title" style="color:#666666;fill:#666666;" y="193"><tspan>MEAN Overall Mood (/5)</tspan></text><path fill="none" class="highcharts-axis-line" stroke="#ccd6eb" stroke-width="1" data-z-index="7" d="M 532.5 63 L 532.5 323"></path></g><g class="highcharts-series-group" data-z-index="3"><g data-z-index="0.1" class="highcharts-series highcharts-series-0 highcharts-spline-series highcharts-color-0 " transform="translate(68,63) scale(1 1)" clip-path="url(#highcharts-0omel6o-373)"><path fill="none" d="M 4.5490196078431 260 C 4.5490196078431 260 6.8047318100794 260 8.3085399449036 260 C 9.81234807972776 260 10.56425214713984 260 12.068060281964 260 C 13.867408487729199 260 14.767082590611798 260 16.566430796377 260 C 19.1980950323194 260 20.5139271502906 260 23.145591386233 260 C 23.2260033489978 260 23.2662093303802 260 23.346621293145 260 C 24.850429427969395 260 25.6023334953816 260 27.106141630206 260 C 28.609949765030002 260 29.361853832442 260 30.865661967266 260 C 32.3694701020904 260 33.1213741695026 260 34.625182304327 260 C 36.128990439150996 260 36.880894506562996 260 38.384702641387 260 C 39.8885107762114 260 40.6404148436236 260 42.144222978448 260 C 43.648031113272 260 44.399935180684004 260 45.903743315508 260 C 47.40755145033201 260 48.15945551774401 260 49.663263652568 260 C 51.1670717873924 260 51.9189758548046 260 53.422783989629 260 C 54.926592124452995 260 55.678496191864994 260 57.182304326689 260 C 58.6861124615134 260 59.438016528925594 260 60.94182466375 260 C 62.445632798574 260 63.19753686598599 260 64.70134500081 260 C 66.20515313563439 260 66.9570572030466 260 68.460865337871 260 C 69.964673472695 260 70.71657754010701 260 72.220385674931 260 C 73.7241938097554 260 74.4760978771676 260 75.979906011992 260 C 77.483714146816 260 78.235618214228 260 79.739426349052 260 C 81.243234483876 260 81.99513855128801 260 83.498946686112 260 C 85.00275482093642 260 85.7546588883486 260 87.258467023173 260 C 88.76227515799698 260 89.514179225409 260 91.017987360233 260 C 92.52179549505739 260 93.2736995624696 260 94.777507697294 260 C 96.281315832118 260 97.03321989953 260 98.537028034354 260 C 100.0408361691764 260 100.7927402365876 260 102.29654837141 260 C 103.80035650623799 260 104.552260573652 260 106.05606870848 260 C 107.55987684330401 260 108.311780910716 260 109.81558904554 260 C 111.319397180364 260 112.071301247776 260 113.5751093826 260 C 115.078917517424 260 115.83082158483599 229.04761904761904 117.33462971966 229.04761904761904 C 118.83843785448398 229.04761904761904 119.59034192189601 229.04761904761904 121.09415005672 229.04761904761904 C 122.59795819154401 229.04761904761904 123.349862258956 229.04761904761904 124.85367039378 229.04761904761904 C 126.35747852860399 229.04761904761904 127.109382596016 198.0952380952381 128.61319073084 198.0952380952381 C 130.11699886566402 198.0952380952381 130.86890293307601 198.0952380952381 132.3727110679 198.0952380952381 C 133.876519202724 198.0952380952381 134.628423270136 198.0952380952381 136.13223140496 198.0952380952381 C 137.636039539784 198.0952380952381 138.387943607196 198.0952380952381 139.89175174202 198.0952380952381 C 141.395559876844 198.0952380952381 142.147463944256 198.0952380952381 143.65127207908 198.0952380952381 C 145.155080213904 198.0952380952381 145.906984281316 198.0952380952381 147.41079241614 198.0952380952381 C 148.914600550964 198.0952380952381 149.666504618376 198.0952380952381 151.1703127532 198.0952380952381 C 152.674120888024 198.0952380952381 153.426024955436 229.04761904761904 154.92983309026 229.04761904761904 C 156.433641225084 229.04761904761904 157.185545292496 229.04761904761904 158.68935342732 229.04761904761904 C 160.19316156214398 229.04761904761904 160.945065629556 223.88888888888889 162.44887376438 223.88888888888889 C 163.95268189920404 223.88888888888889 164.704585966616 223.88888888888889 166.20839410144 229.04761904761904 C 167.712202236264 234.2063492063492 168.464106303676 260 169.9679144385 260 C 171.471722573324 260 172.22362664073597 260 173.72743477556 260 C 175.23124291038397 260 175.98314697779603 260 177.48695511262 260 C 178.99076324744402 260 179.742667314856 260 181.24647544968 260 C 182.750283584504 260 183.502187651916 260 185.00599578674 260 C 186.50980392156401 260 187.261707988976 236.78571428571428 188.7655161238 232.91666666666666 C 190.26932425862802 229.04761904761904 191.021228326042 232.91666666666666 192.52503646087 229.04761904761904 C 194.028844595694 225.17857142857142 194.780748663106 210.47619047619048 196.28455679793 198.0952380952381 C 197.788364932754 185.71428571428575 198.540269000166 167.14285714285714 200.04407713499 167.14285714285714 C 201.547885269814 167.14285714285714 202.299789337226 167.14285714285714 203.80359747205 167.14285714285714 C 205.307405606874 167.14285714285714 206.059309674286 167.14285714285714 207.56311780911 167.14285714285714 C 209.066925943934 167.14285714285714 209.81883001134602 167.14285714285714 211.32263814617 167.14285714285714 C 212.82644628099396 167.14285714285714 213.578350348406 198.0952380952381 215.08215848323 198.0952380952381 C 216.585966618054 198.0952380952381 217.337870685466 167.14285714285714 218.84167882029 167.14285714285714 C 220.34548695511404 167.14285714285714 221.097391022526 167.14285714285714 222.60119915735 167.14285714285714 C 224.105007292174 167.14285714285714 224.856911359586 167.14285714285714 226.36071949441 167.14285714285714 C 227.864527629234 167.14285714285714 228.61643169664598 148.57142857142884 230.12023983147 136.1904761904762 C 231.62404796629397 123.80952380952405 232.37595203370603 117.61904761904736 233.87976016853 105.23809523809521 C 235.38356830335402 92.85714285714259 236.135472370766 86.66666666666666 237.63928050559 74.28571428571428 C 239.143088640414 61.9047619047619 239.894992707826 43.333333333333314 241.39880084265 43.333333333333314 C 242.902608977474 43.333333333333314 243.65451304488596 43.333333333333314 245.15832117971 43.333333333333314 C 246.662129314534 43.333333333333314 247.414033381946 43.333333333333314 248.91784151677 43.333333333333314 C 250.421649651594 43.333333333333314 251.17355371900604 43.333333333333314 252.67736185383 43.333333333333314 C 254.18116998865398 43.333333333333314 254.933074056066 43.333333333333314 256.43688219089 43.333333333333314 C 257.940690325714 43.333333333333314 258.692594393126 43.333333333333314 260.19640252795 43.333333333333314 C 261.700210662774 43.333333333333314 262.452114730186 43.333333333333314 263.95592286501 43.333333333333314 C 265.459730999834 43.333333333333314 266.211635067246 74.28571428571428 267.71544320207 74.28571428571428 C 269.219251336894 74.28571428571428 269.971155404306 74.28571428571428 271.47496353913 74.28571428571428 C 272.978771673958 74.28571428571428 273.730675741372 74.28571428571428 275.2344838762 74.28571428571428 C 276.738292011024 74.28571428571428 277.490196078436 74.28571428571428 278.99400421326 74.28571428571428 C 280.497812348084 74.28571428571428 281.249716415496 74.28571428571428 282.75352455032 74.28571428571428 C 284.257332685144 74.28571428571428 285.009236752556 74.28571428571428 286.51304488738 74.28571428571428 C 288.016853022204 74.28571428571428 288.768757089616 74.28571428571428 290.27256522444 74.28571428571428 C 291.776373359264 74.28571428571428 292.528277426676 43.333333333333314 294.0320855615 43.333333333333314 C 295.535893696324 43.333333333333314 296.287797763736 43.333333333333314 297.79160589856 43.333333333333314 C 299.295414033384 43.333333333333314 300.047318100796 43.333333333333314 301.55112623562 43.333333333333314 C 303.054934370444 43.333333333333314 303.806838437856 43.333333333333314 305.31064657268 43.333333333333314 C 306.814454707504 43.333333333333314 307.566358774916 43.333333333333314 309.07016690974 43.333333333333314 C 310.573975044564 43.333333333333314 311.325879111976 43.333333333333314 312.8296872468 43.333333333333314 C 314.333495381624 43.333333333333314 315.085399449036 61.90476190476189 316.58920758386 74.28571428571428 C 318.093015718684 86.66666666666666 318.844919786096 105.23809523809521 320.34872792092 105.23809523809521 C 321.852536055744 105.23809523809521 322.604440123156 105.23809523809521 324.10824825798 105.23809523809521 C 325.612056392804 105.23809523809521 326.363960460216 123.80952380952381 327.86776859504 136.1904761904762 C 329.371576729864 148.57142857142858 330.123480797276 154.76190476190473 331.6272889321 167.14285714285714 C 333.131097066924 179.52380952380952 333.883001134336 198.0952380952381 335.38680926916 198.0952380952381 C 336.890617403984 198.0952380952381 337.642521471396 198.0952380952381 339.14632960622 198.0952380952381 C 340.650137741044 198.0952380952381 341.402041808456 198.0952380952381 342.90584994328 198.0952380952381 C 344.409658078104 198.0952380952381 345.16156214551603 198.0952380952381 346.66537028034 198.0952380952381 C 348.169178415164 198.0952380952381 348.921082482576 229.04761904761904 350.4248906174 229.04761904761904 C 351.928698752224 229.04761904761904 352.680602819636 229.04761904761904 354.18441095446 229.04761904761904 C 355.688219089284 229.04761904761904 356.44012315669596 229.04761904761904 357.94393129152 229.04761904761904 C 359.447739426348 229.04761904761904 360.199643493762 229.04761904761904 361.70345162859 229.04761904761904 C 363.207259763414 229.04761904761904 363.959163830826 260 365.46297196565 260 C 366.966780100474 260 367.718684167886 260 369.22249230271 260 C 370.726300437534 260 371.478204504946 260 372.98201263977 260 C 374.48582077459406 260 375.237724842006 260 376.74153297683 260 C 378.245341111654 260 378.997245179066 260 380.50105331389 260 C 382.004861448714 260 382.756765516126 260 384.26057365095 260 C 385.764381785774 260 386.51628585318593 260 388.02009398801 260 C 389.523902122834 260 390.275806190246 260 391.77961432507 260 C 393.283422459894 260 394.035326527306 260 395.53913466213 260 C 397.042942796954 260 397.794846864366 260 399.29865499919 260 C 400.802463134014 260 401.554367201426 260 403.05817533625 260 C 405.985379643134 260 407.448981796576 260 410.37618610346 260 C 410.456598066224 260 410.496804047606 260 410.57721601037 260 C 412.08102414519396 260 412.832928212606 260 414.33673634743 260 C 415.8405444822541 260 416.592448549666 260 418.09625668449 260 C 419.60006481931396 260 420.351968886726 260 421.85577702155 260 C 423.359585156374 260 424.11148922378595 260 425.61529735861 260 C 427.119105493434 260 427.87100956084595 260 429.37481769567 260 C 430.878625830494 260 431.63052989790594 260 433.13433803273 260 C 434.638146167554 260 435.390050234966 260 436.89385836979 260 C 438.397666504614 260 439.149570572026 260 440.65337870685 260 C 442.157186841678 260 442.909090909092 260 444.41289904392 260 C 447.420515313568 260 448.924323448392 260 451.93193971804 260 C 453.435747852864 260 454.18765192027604 260 455.6914600551 260 C 457.195268189924 260 459.45098039216 260 459.45098039216 260" class="highcharts-graph" data-z-index="1" stroke="#000000" stroke-width="2" stroke-linejoin="round" stroke-linecap="round"></path></g><g data-z-index="0.1" class="highcharts-markers highcharts-series-0 highcharts-spline-series highcharts-color-0 " transform="translate(68,63) scale(1 1)" clip-path="none"></g><g data-z-index="0.1" class="highcharts-series highcharts-series-1 highcharts-spline-series highcharts-color-1 " transform="translate(68,63) scale(1 1)" clip-path="url(#highcharts-0omel6o-495)"><path fill="none" d="M 4.5490196078431 138.125 C 4.5490196078431 138.125 6.8047318100794 158.4375 8.3085399449036 158.4375 C 9.81234807972776 158.4375 10.56425214713984 158.4375 12.068060281964 158.4375 C 13.867408487729199 158.4375 14.767082590611798 138.125 16.566430796377 138.125 C 19.1980950323194 138.125 20.5139271502906 138.125 23.145591386233 138.125 C 23.2260033489978 138.125 23.2662093303802 132.5570910631883 23.346621293145 132.32142857142856 C 24.850429427969395 127.91423392033114 25.6023334953816 126.51785714285714 27.106141630206 126.51785714285714 C 28.609949765030002 126.51785714285714 29.361853832442 132.32142857142856 30.865661967266 132.32142857142856 C 32.3694701020904 132.32142857142856 33.1213741695026 132.32142857142856 34.625182304327 132.32142857142856 C 36.128990439150996 132.32142857142856 36.880894506562996 97.5 38.384702641387 97.5 C 39.8885107762114 97.5 40.6404148436236 97.5 42.144222978448 97.5 C 43.648031113272 97.5 44.399935180684004 123.50000000000003 45.903743315508 138.125 C 47.40755145033201 152.75000000000003 48.15945551774401 170.625 49.663263652568 170.625 C 51.1670717873924 170.625 51.9189758548046 124.58333333333331 53.422783989629 124.58333333333331 C 54.926592124452995 124.58333333333331 55.678496191864994 134.4318181818182 57.182304326689 134.4318181818182 C 58.6861124615134 134.4318181818182 59.438016528925594 133.05303030303057 60.94182466375 131.35416666666669 C 62.445632798574 129.65530303030326 63.19753686598599 125.9375 64.70134500081 125.9375 C 66.20515313563439 125.9375 66.9570572030466 130.73863636363637 68.460865337871 130.73863636363637 C 69.964673472695 130.73863636363637 70.71657754010701 125.9375 72.220385674931 125.9375 C 73.7241938097554 125.9375 74.4760978771676 132.32142857142856 75.979906011992 132.32142857142856 C 77.483714146816 132.32142857142856 78.235618214228 111.04166666666669 79.739426349052 111.04166666666669 C 81.243234483876 111.04166666666669 81.99513855128801 119.16666666666666 83.498946686112 119.16666666666666 C 85.00275482093642 119.16666666666666 85.7546588883486 106.34722222222281 87.258467023173 102.01388888888889 C 88.76227515799698 97.68055555555614 89.514179225409 97.5 91.017987360233 97.5 C 92.52179549505739 97.5 93.2736995624696 97.5 94.777507697294 97.5 C 96.281315832118 97.5 97.03321989953 97.5 98.537028034354 101.5625 C 100.0408361691764 105.625 100.7927402365876 138.125 102.29654837141 138.125 C 103.80035650623799 138.125 104.552260573652 101.5625 106.05606870848 101.5625 C 107.55987684330401 101.5625 108.311780910716 115.9659090909091 109.81558904554 115.9659090909091 C 111.319397180364 115.9659090909091 112.071301247776 111.04166666666669 113.5751093826 111.04166666666669 C 115.078917517424 111.04166666666669 115.83082158483599 111.04166666666669 117.33462971966 111.04166666666669 C 118.83843785448398 111.04166666666669 119.59034192189601 131.35416666666669 121.09415005672 138.125 C 122.59795819154401 144.89583333333331 123.349862258956 138.125 124.85367039378 144.89583333333331 C 126.35747852860399 151.66666666666663 127.109382596016 171.97916666666669 128.61319073084 171.97916666666669 C 130.11699886566402 171.97916666666669 130.86890293307601 135.41666666666663 132.3727110679 124.58333333333331 C 133.876519202724 113.75 134.628423270136 116.72916666666667 136.13223140496 113.75 C 137.636039539784 110.77083333333334 138.387943607196 109.6875 139.89175174202 109.6875 C 141.395559876844 109.6875 142.147463944256 124.58333333333331 143.65127207908 124.58333333333331 C 145.155080213904 124.58333333333331 145.906984281316 124.58333333333331 147.41079241614 124.58333333333331 C 148.914600550964 124.58333333333331 149.666504618376 124.58333333333331 151.1703127532 122.890625 C 152.674120888024 121.19791666666669 153.426024955436 111.04166666666669 154.92983309026 111.04166666666669 C 156.433641225084 111.04166666666669 157.185545292496 115.10416666666667 158.68935342732 117.8125 C 160.19316156214398 120.52083333333333 160.945065629556 122.84226190476191 162.44887376438 124.58333333333331 C 163.95268189920404 126.32440476190476 164.704585966616 126.51785714285714 166.20839410144 126.51785714285714 C 167.712202236264 126.51785714285714 168.464106303676 97.5 169.9679144385 97.5 C 171.471722573324 97.5 172.22362664073597 109.68749999999984 173.72743477556 117.8125 C 175.23124291038397 125.93749999999984 175.98314697779603 138.125 177.48695511262 138.125 C 178.99076324744402 138.125 179.742667314856 127.09821428571429 181.24647544968 117.8125 C 182.750283584504 108.52678571428571 183.502187651916 97.49999999999997 185.00599578674 91.69642857142856 C 186.50980392156401 85.89285714285714 187.261707988976 85.89285714285714 188.7655161238 85.89285714285714 C 190.26932425862802 85.89285714285714 191.021228326042 87.34375 192.52503646087 87.34375 C 194.028844595694 87.34375 194.780748663106 67.03125 196.28455679793 61.953125 C 197.788364932754 56.875 198.540269000166 56.875 200.04407713499 56.875 C 201.547885269814 56.875 202.299789337226 56.875 203.80359747205 63.64583333333334 C 205.307405606874 70.41666666666669 206.059309674286 97.5 207.56311780911 97.5 C 209.066925943934 97.5 209.81883001134602 93.72767857142856 211.32263814617 91.69642857142856 C 212.82644628099396 89.66517857142856 213.578350348406 91.69642857142856 215.08215848323 87.34375 C 216.585966618054 82.99107142857144 217.337870685466 67.03125 218.84167882029 61.953125 C 220.34548695511404 56.875 221.097391022526 56.875 222.60119915735 56.875 C 224.105007292174 56.875 224.856911359586 56.875 226.36071949441 56.875 C 227.864527629234 56.875 228.61643169664598 56.875 230.12023983147 60.93749999999997 C 231.62404796629397 64.99999999999994 232.37595203370603 84.29687500000014 233.87976016853 92.421875 C 235.38356830335402 100.54687500000016 236.135472370766 101.5625 237.63928050559 101.5625 C 239.143088640414 101.5625 239.894992707826 72.109375 241.39880084265 72.109375 C 242.902608977474 72.109375 243.65451304488596 77.1875 245.15832117971 77.1875 C 246.662129314534 77.1875 247.414033381946 72.109375 248.91784151677 72.109375 C 250.421649651594 72.109375 251.17355371900604 77.20596590909095 252.67736185383 79.03409090909093 C 254.18116998865398 80.86221590909093 254.933074056066 79.03409090909093 256.43688219089 81.24999999999997 C 257.940690325714 83.46590909090901 258.692594393126 125.9375 260.19640252795 125.9375 C 261.700210662774 125.9375 262.452114730186 122.68750000000001 263.95592286501 113.75 C 265.459730999834 104.8125 266.211635067246 81.24999999999997 267.71544320207 81.24999999999997 C 269.219251336894 81.24999999999997 269.971155404306 97.5 271.47496353913 97.5 C 272.978771673958 97.5 273.730675741372 97.5 275.2344838762 97.5 C 276.738292011024 97.5 277.490196078436 75.73660714285714 278.99400421326 72.109375 C 280.497812348084 68.48214285714286 281.249716415496 68.48214285714286 282.75352455032 68.48214285714286 C 284.257332685144 68.48214285714286 285.009236752556 77.1875 286.51304488738 77.1875 C 288.016853022204 77.1875 288.768757089616 72.109375 290.27256522444 72.109375 C 291.776373359264 72.109375 292.528277426676 97.5 294.0320855615 97.5 C 295.535893696324 97.5 296.287797763736 68.48214285714286 297.79160589856 68.48214285714286 C 299.295414033384 68.48214285714286 300.047318100796 72.109375 301.55112623562 72.109375 C 303.054934370444 72.109375 303.806838437856 72.109375 305.31064657268 72.109375 C 306.814454707504 72.109375 307.566358774916 68.48214285714286 309.07016690974 68.48214285714286 C 310.573975044564 68.48214285714286 311.325879111976 121.875 312.8296872468 121.875 C 314.333495381624 121.875 315.085399449036 119.97916666666667 316.58920758386 111.04166666666669 C 318.093015718684 102.10416666666669 318.844919786096 77.1875 320.34872792092 77.1875 C 321.852536055744 77.1875 322.604440123156 97.5 324.10824825798 97.5 C 325.612056392804 97.5 326.363960460216 72.109375 327.86776859504 72.109375 C 329.371576729864 72.109375 330.123480797276 88.515625 331.6272889321 103.75 C 333.131097066924 118.984375 333.883001134336 148.28125 335.38680926916 148.28125 C 336.890617403984 148.28125 337.642521471396 79.44444444444443 339.14632960622 77.1875 C 340.650137741044 74.93055555555557 341.402041808456 77.1875 342.90584994328 74.93055555555557 C 344.409658078104 72.67361111111114 345.16156214551603 65.90277777777777 346.66537028034 65.90277777777777 C 348.169178415164 65.90277777777777 348.921082482576 65.90277777777777 350.4248906174 67.03125 C 351.928698752224 68.15972222222223 352.680602819636 79.44444444444443 354.18441095446 79.44444444444443 C 355.688219089284 79.44444444444443 356.44012315669596 74.93055555555557 357.94393129152 74.93055555555557 C 359.447739426348 74.93055555555557 360.199643493762 76.73611111110503 361.70345162859 81.24999999999997 C 363.207259763414 85.76388888888279 363.959163830826 87.47916666666666 365.46297196565 97.5 C 366.966780100474 107.52083333333334 367.718684167886 131.35416666666669 369.22249230271 131.35416666666669 C 370.726300437534 131.35416666666669 371.478204504946 116.65178571428564 372.98201263977 111.04166666666669 C 374.48582077459406 105.43154761904752 375.237724842006 106.01190476190474 376.74153297683 103.30357142857142 C 378.245341111654 100.59523809523807 378.997245179066 102.72321428571429 380.50105331389 97.5 C 382.004861448714 92.27678571428572 382.756765516126 77.1875 384.26057365095 77.1875 C 385.764381785774 77.1875 386.51628585318593 89.37499999999984 388.02009398801 97.5 C 389.523902122834 105.62499999999984 390.275806190246 117.8125 391.77961432507 117.8125 C 393.283422459894 117.8125 394.035326527306 63.64583333333334 395.53913466213 63.64583333333334 C 397.042942796954 63.64583333333334 397.794846864366 97.5 399.29865499919 97.5 C 400.802463134014 97.5 401.554367201426 97.5 403.05817533625 97.5 C 405.985379643134 97.5 407.448981796576 138.125 410.37618610346 138.125 C 410.456598066224 138.125 410.496804047606 111.04166666666663 410.57721601037 104.27083333333331 C 412.08102414519396 97.5 412.832928212606 104.27083333333331 414.33673634743 97.5 C 415.8405444822541 90.72916666666669 416.592448549666 63.64583333333334 418.09625668449 63.64583333333334 C 419.60006481931396 63.64583333333334 420.351968886726 97.5 421.85577702155 97.5 C 423.359585156374 97.5 424.11148922378595 97.5 425.61529735861 97.5 C 427.119105493434 97.5 427.87100956084595 97.5 429.37481769567 97.5 C 430.878625830494 97.5 431.63052989790594 97.5 433.13433803273 97.5 C 434.638146167554 97.5 435.390050234966 97.5 436.89385836979 97.5 C 438.397666504614 97.5 439.149570572026 56.875 440.65337870685 56.875 C 442.157186841678 56.875 442.909090909092 97.5 444.41289904392 97.5 C 447.420515313568 97.5 448.924323448392 97.5 451.93193971804 97.5 C 453.435747852864 97.5 454.18765192027604 97.5 455.6914600551 97.5 C 457.195268189924 97.5 459.45098039216 97.5 459.45098039216 97.5" class="highcharts-graph" data-z-index="1" stroke="#5D83FF" stroke-width="2" stroke-linejoin="round" stroke-linecap="round"></path></g><g data-z-index="0.1" class="highcharts-markers highcharts-series-1 highcharts-spline-series highcharts-color-1 " transform="translate(68,63) scale(1 1)" clip-path="none"></g></g><text x="300" text-anchor="middle" class="highcharts-title" data-z-index="4" style="color:#333333;font-size:18px;fill:#333333;" y="24"><tspan>Probiotic Plus &amp; Overall Mood Over Time</tspan></text><text x="300" text-anchor="middle" class="highcharts-subtitle" data-z-index="4" style="color:#666666;fill:#666666;" y="46"><tspan>Black represents the mean of Probiotic Plus over the previous 7 days</tspan></text><g class="highcharts-legend" data-z-index="7" transform="translate(126,358)"><rect fill="none" class="highcharts-legend-box" rx="0" ry="0" x="0" y="0" width="349" height="27" visibility="visible"></rect><g data-z-index="1"><g><g class="highcharts-legend-item highcharts-spline-series highcharts-color-0 highcharts-series-0" data-z-index="1" transform="translate(8,3)"><path fill="none" d="M 0 11 L 16 11" class="highcharts-graph" stroke="#000000" stroke-width="2"></path><path fill="#000000" d="M 12 11 A 4 4 0 1 1 11.999998000000167 10.996000000666664 Z" class="highcharts-point"></path><text x="21" style="color:#333333;font-size:12px;font-weight:bold;cursor:pointer;fill:#333333;" text-anchor="start" data-z-index="2" y="15"><tspan>Probiotic Plus (tablets)</tspan></text></g><g class="highcharts-legend-item highcharts-spline-series highcharts-color-1 highcharts-series-1" data-z-index="1" transform="translate(201,3)"><path fill="none" d="M 0 11 L 16 11" class="highcharts-graph" stroke="#5D83FF" stroke-width="2"></path><path fill="#5D83FF" d="M 8 7 L 12 11 8 15 4 11 Z" class="highcharts-point"></path><text x="21" y="15" style="color:#333333;font-size:12px;font-weight:bold;cursor:pointer;fill:#333333;" text-anchor="start" data-z-index="2"><tspan>Overall Mood (/5)</tspan></text></g></g></g></g><g class="highcharts-axis-labels highcharts-xaxis-labels " data-z-index="7"><text x="76.107510037991" style="color:#666666;cursor:default;font-size:11px;fill:#666666;" text-anchor="middle" transform="translate(0,0)" y="342" opacity="1"><tspan>Jan '13</tspan></text><text x="192.65264048687" style="color:#666666;cursor:default;font-size:11px;fill:#666666;" text-anchor="middle" transform="translate(0,0)" y="342" opacity="1"><tspan>Feb '13</tspan></text><text x="297.91920992456" style="color:#666666;cursor:default;font-size:11px;fill:#666666;" text-anchor="middle" transform="translate(0,0)" y="342" opacity="1"><tspan>Mar '13</tspan></text><text x="414.46434037343" style="color:#666666;cursor:default;font-size:11px;fill:#666666;" text-anchor="middle" transform="translate(0,0)" y="342" opacity="1"><tspan>Apr '13</tspan></text><text x="527.24995048524" style="color:#666666;cursor:default;font-size:11px;fill:#666666;" text-anchor="middle" transform="translate(0,0)" y="342" opacity="1"><tspan>May '13</tspan></text></g><g class="highcharts-axis-labels highcharts-yaxis-labels " data-z-index="7"><text x="53" style="color:#666666;cursor:default;font-size:11px;fill:#666666;" text-anchor="end" transform="translate(0,0)" y="327" opacity="1">0</text><text x="53" style="color:#666666;cursor:default;font-size:11px;fill:#666666;" text-anchor="end" transform="translate(0,0)" y="262" opacity="1">0.3</text><text x="53" style="color:#666666;cursor:default;font-size:11px;fill:#666666;" text-anchor="end" transform="translate(0,0)" y="197" opacity="1">0.6</text><text x="53" style="color:#666666;cursor:default;font-size:11px;fill:#666666;" text-anchor="end" transform="translate(0,0)" y="132" opacity="1">0.9</text><text x="53" style="color:#666666;cursor:default;font-size:11px;fill:#666666;" text-anchor="end" transform="translate(0,0)" y="67" opacity="1">1.2</text></g><g class="highcharts-axis-labels highcharts-yaxis-labels " data-z-index="7"><text x="547" style="color:#666666;cursor:default;font-size:11px;fill:#666666;" text-anchor="start" transform="translate(0,0)" y="327" opacity="1">0</text><text x="547" style="color:#666666;cursor:default;font-size:11px;fill:#666666;" text-anchor="start" transform="translate(0,0)" y="262" opacity="1">1.6</text><text x="547" style="color:#666666;cursor:default;font-size:11px;fill:#666666;" text-anchor="start" transform="translate(0,0)" y="197" opacity="1">3.2</text><text x="547" style="color:#666666;cursor:default;font-size:11px;fill:#666666;" text-anchor="start" transform="translate(0,0)" y="132" opacity="1">4.8</text><text x="547" style="color:#666666;cursor:default;font-size:11px;fill:#666666;" text-anchor="start" transform="translate(0,0)" y="67" opacity="1">6.4</text></g><a xlink:href="https://quantimo.do" target="_blank">
                    <text x="590" class="highcharts-credits" text-anchor="end" data-z-index="8"
                          style="cursor:pointer;color:#999999;font-size:9px;fill:#999999;" y="395">https://quantimo.do
                    </text>
                </a></svg>