<?xml version="1.0" standalone="no"?><!DOCTYPE svg PUBLIC "-//W3C//DTD SVG 1.1//EN" "http://www.w3.org/Graphics/SVG/1.1/DTD/svg11.dtd"><svg xmlns:xlink="http://www.w3.org/1999/xlink" version="1.1" class="highcharts-root" style="font-family:&quot;Lucida Grande&quot;, &quot;Lucida Sans Unicode&quot;, Arial, Helvetica, sans-serif;font-size:12px;" xmlns="http://www.w3.org/2000/svg" width="600" height="300"><desc>Created with Highstock 6.2.0</desc><defs><clipPath id="highcharts-63ockz1-27"><rect x="0" y="0" width="518" height="168" fill="none"></rect></clipPath><clipPath id="highcharts-63ockz1-48"><rect x="0" y="0" width="518" height="168" fill="none"></rect></clipPath><clipPath id="highcharts-63ockz1-49"><rect x="72" y="63" width="518" height="168" fill="none"></rect></clipPath></defs><rect fill="#ffffff" class="highcharts-background" x="0" y="0" width="600" height="300" rx="0" ry="0"></rect><rect fill="none" class="highcharts-plot-background" x="72" y="63" width="518" height="168"></rect><g class="highcharts-pane-group" data-z-index="0"></g><g class="highcharts-grid highcharts-xaxis-grid " data-z-index="1"><path fill="none" data-z-index="1" class="highcharts-grid-line" d="M 97.5 63 L 97.5 231" opacity="1"></path><path fill="none" data-z-index="1" class="highcharts-grid-line" d="M 123.5 63 L 123.5 231" opacity="1"></path><path fill="none" data-z-index="1" class="highcharts-grid-line" d="M 149.5 63 L 149.5 231" opacity="1"></path><path fill="none" data-z-index="1" class="highcharts-grid-line" d="M 175.5 63 L 175.5 231" opacity="1"></path><path fill="none" data-z-index="1" class="highcharts-grid-line" d="M 201.5 63 L 201.5 231" opacity="1"></path><path fill="none" data-z-index="1" class="highcharts-grid-line" d="M 226.5 63 L 226.5 231" opacity="1"></path><path fill="none" data-z-index="1" class="highcharts-grid-line" d="M 252.5 63 L 252.5 231" opacity="1"></path><path fill="none" data-z-index="1" class="highcharts-grid-line" d="M 278.5 63 L 278.5 231" opacity="1"></path><path fill="none" data-z-index="1" class="highcharts-grid-line" d="M 304.5 63 L 304.5 231" opacity="1"></path><path fill="none" data-z-index="1" class="highcharts-grid-line" d="M 330.5 63 L 330.5 231" opacity="1"></path><path fill="none" data-z-index="1" class="highcharts-grid-line" d="M 356.5 63 L 356.5 231" opacity="1"></path><path fill="none" data-z-index="1" class="highcharts-grid-line" d="M 382.5 63 L 382.5 231" opacity="1"></path><path fill="none" data-z-index="1" class="highcharts-grid-line" d="M 408.5 63 L 408.5 231" opacity="1"></path><path fill="none" data-z-index="1" class="highcharts-grid-line" d="M 434.5 63 L 434.5 231" opacity="1"></path><path fill="none" data-z-index="1" class="highcharts-grid-line" d="M 459.5 63 L 459.5 231" opacity="1"></path><path fill="none" data-z-index="1" class="highcharts-grid-line" d="M 485.5 63 L 485.5 231" opacity="1"></path><path fill="none" data-z-index="1" class="highcharts-grid-line" d="M 511.5 63 L 511.5 231" opacity="1"></path><path fill="none" data-z-index="1" class="highcharts-grid-line" d="M 537.5 63 L 537.5 231" opacity="1"></path><path fill="none" data-z-index="1" class="highcharts-grid-line" d="M 563.5 63 L 563.5 231" opacity="1"></path><path fill="none" data-z-index="1" class="highcharts-grid-line" d="M 589.5 63 L 589.5 231" opacity="1"></path><path fill="none" data-z-index="1" class="highcharts-grid-line" d="M 71.5 63 L 71.5 231" opacity="1"></path></g><g class="highcharts-grid highcharts-yaxis-grid " data-z-index="1"><path fill="none" stroke="#e6e6e6" stroke-width="1" data-z-index="1" class="highcharts-grid-line" d="M 72 231.5 L 590 231.5" opacity="1"></path><path fill="none" stroke="#e6e6e6" stroke-width="1" data-z-index="1" class="highcharts-grid-line" d="M 72 189.5 L 590 189.5" opacity="1"></path><path fill="none" stroke="#e6e6e6" stroke-width="1" data-z-index="1" class="highcharts-grid-line" d="M 72 147.5 L 590 147.5" opacity="1"></path><path fill="none" stroke="#e6e6e6" stroke-width="1" data-z-index="1" class="highcharts-grid-line" d="M 72 105.5 L 590 105.5" opacity="1"></path><path fill="none" stroke="#e6e6e6" stroke-width="1" data-z-index="1" class="highcharts-grid-line" d="M 72 62.5 L 590 62.5" opacity="1"></path></g><rect fill="none" class="highcharts-plot-border" data-z-index="1" x="72" y="63" width="518" height="168"></rect><g class="highcharts-axis highcharts-xaxis " data-z-index="2"><path fill="none" class="highcharts-tick" stroke="#ccd6eb" stroke-width="1" d="M 97.5 231 L 97.5 241" opacity="1"></path><path fill="none" class="highcharts-tick" stroke="#ccd6eb" stroke-width="1" d="M 123.5 231 L 123.5 241" opacity="1"></path><path fill="none" class="highcharts-tick" stroke="#ccd6eb" stroke-width="1" d="M 149.5 231 L 149.5 241" opacity="1"></path><path fill="none" class="highcharts-tick" stroke="#ccd6eb" stroke-width="1" d="M 175.5 231 L 175.5 241" opacity="1"></path><path fill="none" class="highcharts-tick" stroke="#ccd6eb" stroke-width="1" d="M 201.5 231 L 201.5 241" opacity="1"></path><path fill="none" class="highcharts-tick" stroke="#ccd6eb" stroke-width="1" d="M 226.5 231 L 226.5 241" opacity="1"></path><path fill="none" class="highcharts-tick" stroke="#ccd6eb" stroke-width="1" d="M 252.5 231 L 252.5 241" opacity="1"></path><path fill="none" class="highcharts-tick" stroke="#ccd6eb" stroke-width="1" d="M 278.5 231 L 278.5 241" opacity="1"></path><path fill="none" class="highcharts-tick" stroke="#ccd6eb" stroke-width="1" d="M 304.5 231 L 304.5 241" opacity="1"></path><path fill="none" class="highcharts-tick" stroke="#ccd6eb" stroke-width="1" d="M 330.5 231 L 330.5 241" opacity="1"></path><path fill="none" class="highcharts-tick" stroke="#ccd6eb" stroke-width="1" d="M 356.5 231 L 356.5 241" opacity="1"></path><path fill="none" class="highcharts-tick" stroke="#ccd6eb" stroke-width="1" d="M 382.5 231 L 382.5 241" opacity="1"></path><path fill="none" class="highcharts-tick" stroke="#ccd6eb" stroke-width="1" d="M 408.5 231 L 408.5 241" opacity="1"></path><path fill="none" class="highcharts-tick" stroke="#ccd6eb" stroke-width="1" d="M 434.5 231 L 434.5 241" opacity="1"></path><path fill="none" class="highcharts-tick" stroke="#ccd6eb" stroke-width="1" d="M 460.5 231 L 460.5 241" opacity="1"></path><path fill="none" class="highcharts-tick" stroke="#ccd6eb" stroke-width="1" d="M 485.5 231 L 485.5 241" opacity="1"></path><path fill="none" class="highcharts-tick" stroke="#ccd6eb" stroke-width="1" d="M 511.5 231 L 511.5 241" opacity="1"></path><path fill="none" class="highcharts-tick" stroke="#ccd6eb" stroke-width="1" d="M 537.5 231 L 537.5 241" opacity="1"></path><path fill="none" class="highcharts-tick" stroke="#ccd6eb" stroke-width="1" d="M 563.5 231 L 563.5 241" opacity="1"></path><path fill="none" class="highcharts-tick" stroke="#ccd6eb" stroke-width="1" d="M 590.5 231 L 590.5 241" opacity="1"></path><path fill="none" class="highcharts-tick" stroke="#ccd6eb" stroke-width="1" d="M 71.5 231 L 71.5 241" opacity="1"></path><text x="331" data-z-index="7" text-anchor="middle" transform="translate(0,0)" class="highcharts-axis-title" style="color:#666666;fill:#666666;" y="281.4558441227157"><tspan>Daily Values (min)</tspan></text><path fill="none" class="highcharts-axis-line" stroke="#ccd6eb" stroke-width="1" data-z-index="7" d="M 72 231.5 L 590 231.5"></path></g><g class="highcharts-axis highcharts-yaxis " data-z-index="2"><text x="26" data-z-index="7" text-anchor="middle" transform="translate(0,0) rotate(270 26 147)" class="highcharts-axis-title" style="color:#666666;fill:#666666;" y="147"><tspan>Number of Days</tspan></text><path fill="none" class="highcharts-axis-line" data-z-index="7" d="M 72 63 L 72 231"></path></g><g class="highcharts-series-group" data-z-index="3"><g data-z-index="0.1" class="highcharts-series highcharts-series-0 highcharts-column-series highcharts-color-0 " transform="translate(72,63) scale(1 1)" clip-path="url(#highcharts-63ockz1-48)"><rect x="6.5" y="29.5" width="13" height="139" fill="#000000" stroke="#ffffff" stroke-width="1" class="highcharts-point highcharts-color-0"></rect><rect x="32.5" y="120.5" width="13" height="48" fill="#000000" stroke="#ffffff" stroke-width="1" class="highcharts-point highcharts-color-0"></rect><rect x="58.5" y="131.5" width="13" height="37" fill="#000000" stroke="#ffffff" stroke-width="1" class="highcharts-point highcharts-color-0"></rect><rect x="83.5" y="142.5" width="13" height="26" fill="#000000" stroke="#ffffff" stroke-width="1" class="highcharts-point highcharts-color-0"></rect><rect x="109.5" y="144.5" width="13" height="24" fill="#000000" stroke="#ffffff" stroke-width="1" class="highcharts-point highcharts-color-0"></rect><rect x="135.5" y="152.5" width="13" height="16" fill="#000000" stroke="#ffffff" stroke-width="1" class="highcharts-point highcharts-color-0"></rect><rect x="161.5" y="158.5" width="13" height="10" fill="#000000" stroke="#ffffff" stroke-width="1" class="highcharts-point highcharts-color-0"></rect><rect x="187.5" y="159.5" width="13" height="9" fill="#000000" stroke="#ffffff" stroke-width="1" class="highcharts-point highcharts-color-0"></rect><rect x="213.5" y="162.5" width="13" height="6" fill="#000000" stroke="#ffffff" stroke-width="1" class="highcharts-point highcharts-color-0"></rect><rect x="239.5" y="163.5" width="13" height="5" fill="#000000" stroke="#ffffff" stroke-width="1" class="highcharts-point highcharts-color-0"></rect><rect x="265.5" y="137.5" width="13" height="31" fill="#000000" stroke="#ffffff" stroke-width="1" class="highcharts-point highcharts-color-0"></rect><rect x="291.5" y="114.5" width="13" height="54" fill="#000000" stroke="#ffffff" stroke-width="1" class="highcharts-point highcharts-color-0"></rect><rect x="317.5" y="93.5" width="13" height="75" fill="#000000" stroke="#ffffff" stroke-width="1" class="highcharts-point highcharts-color-0"></rect><rect x="342.5" y="91.5" width="13" height="77" fill="#000000" stroke="#ffffff" stroke-width="1" class="highcharts-point highcharts-color-0"></rect><rect x="368.5" y="135.5" width="13" height="33" fill="#000000" stroke="#ffffff" stroke-width="1" class="highcharts-point highcharts-color-0"></rect><rect x="394.5" y="151.5" width="13" height="17" fill="#000000" stroke="#ffffff" stroke-width="1" class="highcharts-point highcharts-color-0"></rect><rect x="420.5" y="161.5" width="13" height="7" fill="#000000" stroke="#ffffff" stroke-width="1" class="highcharts-point highcharts-color-0"></rect><rect x="446.5" y="165.5" width="13" height="3" fill="#000000" stroke="#ffffff" stroke-width="1" class="highcharts-point highcharts-color-0"></rect><rect x="472.5" y="167.5" width="13" height="1" fill="#000000" stroke="#ffffff" stroke-width="1" class="highcharts-point highcharts-color-0"></rect><rect x="498.5" y="167.5" width="13" height="1" fill="#000000" stroke="#ffffff" stroke-width="1" class="highcharts-point highcharts-color-0"></rect></g><g data-z-index="0.1" class="highcharts-markers highcharts-series-0 highcharts-column-series highcharts-color-0 " transform="translate(72,63) scale(1 1)" clip-path="none"></g></g><text x="300" text-anchor="middle" class="highcharts-title" data-z-index="4" style="color:#333333;font-size:18px;fill:#333333;" y="24"><tspan>Daily Cardio Heart Rate Zone Distribution</tspan></text><text x="300" text-anchor="middle" class="highcharts-subtitle" data-z-index="4" style="color:#666666;fill:#666666;" y="46"><tspan>Each column represents the number of days this value occurred.</tspan></text><g class="highcharts-axis-labels highcharts-xaxis-labels " data-z-index="7"><text x="87.54272486435067" style="color:#666666;cursor:default;font-size:11px;fill:#666666;" text-anchor="end" transform="translate(0,0) rotate(-45 87.54272486435067 247)" y="247" opacity="1">0</text><text x="113.44272486435067" style="color:#666666;cursor:default;font-size:11px;fill:#666666;" text-anchor="end" transform="translate(0,0) rotate(-45 113.44272486435067 247)" y="247" opacity="1">1</text><text x="139.34272486435069" style="color:#666666;cursor:default;font-size:11px;fill:#666666;" text-anchor="end" transform="translate(0,0) rotate(-45 139.34272486435069 247)" y="247" opacity="1">2</text><text x="165.2427248643507" style="color:#666666;cursor:default;font-size:11px;fill:#666666;" text-anchor="end" transform="translate(0,0) rotate(-45 165.2427248643507 247)" y="247" opacity="1">3</text><text x="191.1427248643507" style="color:#666666;cursor:default;font-size:11px;fill:#666666;" text-anchor="end" transform="translate(0,0) rotate(-45 191.1427248643507 247)" y="247" opacity="1">4</text><text x="217.0427248643507" style="color:#666666;cursor:default;font-size:11px;fill:#666666;" text-anchor="end" transform="translate(0,0) rotate(-45 217.0427248643507 247)" y="247" opacity="1">5</text><text x="242.9427248643507" style="color:#666666;cursor:default;font-size:11px;fill:#666666;" text-anchor="end" transform="translate(0,0) rotate(-45 242.9427248643507 247)" y="247" opacity="1">6</text><text x="268.84272486435066" style="color:#666666;cursor:default;font-size:11px;fill:#666666;" text-anchor="end" transform="translate(0,0) rotate(-45 268.84272486435066 247)" y="247" opacity="1">7</text><text x="294.7427248643507" style="color:#666666;cursor:default;font-size:11px;fill:#666666;" text-anchor="end" transform="translate(0,0) rotate(-45 294.7427248643507 247)" y="247" opacity="1">8</text><text x="320.64272486435067" style="color:#666666;cursor:default;font-size:11px;fill:#666666;" text-anchor="end" transform="translate(0,0) rotate(-45 320.64272486435067 247)" y="247" opacity="1">9</text><text x="346.54272486435065" style="color:#666666;cursor:default;font-size:11px;fill:#666666;" text-anchor="end" transform="translate(0,0) rotate(-45 346.54272486435065 247)" y="247" opacity="1">10</text><text x="372.4427248643507" style="color:#666666;cursor:default;font-size:11px;fill:#666666;" text-anchor="end" transform="translate(0,0) rotate(-45 372.4427248643507 247)" y="247" opacity="1">20</text><text x="398.34272486435066" style="color:#666666;cursor:default;font-size:11px;fill:#666666;" text-anchor="end" transform="translate(0,0) rotate(-45 398.34272486435066 247)" y="247" opacity="1">30</text><text x="424.2427248643507" style="color:#666666;cursor:default;font-size:11px;fill:#666666;" text-anchor="end" transform="translate(0,0) rotate(-45 424.2427248643507 247)" y="247" opacity="1">40</text><text x="450.14272486435067" style="color:#666666;cursor:default;font-size:11px;fill:#666666;" text-anchor="end" transform="translate(0,0) rotate(-45 450.14272486435067 247)" y="247" opacity="1">50</text><text x="476.04272486435065" style="color:#666666;cursor:default;font-size:11px;fill:#666666;" text-anchor="end" transform="translate(0,0) rotate(-45 476.04272486435065 247)" y="247" opacity="1">60</text><text x="501.9427248643506" style="color:#666666;cursor:default;font-size:11px;fill:#666666;" text-anchor="end" transform="translate(0,0) rotate(-45 501.9427248643506 247)" y="247" opacity="1">70</text><text x="527.8427248643507" style="color:#666666;cursor:default;font-size:11px;fill:#666666;" text-anchor="end" transform="translate(0,0) rotate(-45 527.8427248643507 247)" y="247" opacity="1">80</text><text x="553.7427248643506" style="color:#666666;cursor:default;font-size:11px;fill:#666666;" text-anchor="end" transform="translate(0,0) rotate(-45 553.7427248643506 247)" y="247" opacity="1">90</text><text x="579.6427248643506" style="color:#666666;cursor:default;font-size:11px;fill:#666666;" text-anchor="end" transform="translate(0,0) rotate(-45 579.6427248643506 247)" y="247" opacity="1">100</text></g><g class="highcharts-axis-labels highcharts-yaxis-labels " data-z-index="7"><text x="57" style="color:#666666;cursor:default;font-size:11px;fill:#666666;" text-anchor="end" transform="translate(0,0)" y="235" opacity="1">0</text><text x="57" style="color:#666666;cursor:default;font-size:11px;fill:#666666;" text-anchor="end" transform="translate(0,0)" y="193" opacity="1">100</text><text x="57" style="color:#666666;cursor:default;font-size:11px;fill:#666666;" text-anchor="end" transform="translate(0,0)" y="151" opacity="1">200</text><text x="57" style="color:#666666;cursor:default;font-size:11px;fill:#666666;" text-anchor="end" transform="translate(0,0)" y="109" opacity="1">300</text><text x="57" style="color:#666666;cursor:default;font-size:11px;fill:#666666;" text-anchor="end" transform="translate(0,0)" y="67" opacity="1">400</text></g><a xlink:href="https://quantimo.do" target="_blank">
                    <text x="590" class="highcharts-credits" text-anchor="end" data-z-index="8"
                          style="cursor:pointer;color:#999999;font-size:9px;fill:#999999;" y="295">https://quantimo.do
                    </text>
                </a></svg>