<?xml version="1.0" standalone="no"?><!DOCTYPE svg PUBLIC "-//W3C//DTD SVG 1.1//EN" "http://www.w3.org/Graphics/SVG/1.1/DTD/svg11.dtd"><svg xmlns:xlink="http://www.w3.org/1999/xlink" version="1.1" class="highcharts-root" style="font-family:&quot;Lucida Grande&quot;, &quot;Lucida Sans Unicode&quot;, Arial, Helvetica, sans-serif;font-size:12px;" xmlns="http://www.w3.org/2000/svg" width="600" height="300"><desc>Created with Highstock 6.2.0</desc><defs><clipPath id="highcharts-uuy3k6v-24"><rect x="0" y="0" width="507" height="141" fill="none"></rect></clipPath><clipPath id="highcharts-uuy3k6v-42"><rect x="0" y="0" width="507" height="141" fill="none"></rect></clipPath><clipPath id="highcharts-uuy3k6v-43"><rect x="83" y="78" width="507" height="141" fill="none"></rect></clipPath></defs><rect fill="#ffffff" class="highcharts-background" x="0" y="0" width="600" height="300" rx="0" ry="0"></rect><rect fill="none" class="highcharts-plot-background" x="83" y="78" width="507" height="141"></rect><g class="highcharts-pane-group" data-z-index="0"></g><g class="highcharts-grid highcharts-xaxis-grid " data-z-index="1"><path fill="none" data-z-index="1" class="highcharts-grid-line" d="M 112.5 78 L 112.5 219" opacity="1"></path><path fill="none" data-z-index="1" class="highcharts-grid-line" d="M 142.5 78 L 142.5 219" opacity="1"></path><path fill="none" data-z-index="1" class="highcharts-grid-line" d="M 171.5 78 L 171.5 219" opacity="1"></path><path fill="none" data-z-index="1" class="highcharts-grid-line" d="M 201.5 78 L 201.5 219" opacity="1"></path><path fill="none" data-z-index="1" class="highcharts-grid-line" d="M 231.5 78 L 231.5 219" opacity="1"></path><path fill="none" data-z-index="1" class="highcharts-grid-line" d="M 261.5 78 L 261.5 219" opacity="1"></path><path fill="none" data-z-index="1" class="highcharts-grid-line" d="M 291.5 78 L 291.5 219" opacity="1"></path><path fill="none" data-z-index="1" class="highcharts-grid-line" d="M 321.5 78 L 321.5 219" opacity="1"></path><path fill="none" data-z-index="1" class="highcharts-grid-line" d="M 350.5 78 L 350.5 219" opacity="1"></path><path fill="none" data-z-index="1" class="highcharts-grid-line" d="M 380.5 78 L 380.5 219" opacity="1"></path><path fill="none" data-z-index="1" class="highcharts-grid-line" d="M 410.5 78 L 410.5 219" opacity="1"></path><path fill="none" data-z-index="1" class="highcharts-grid-line" d="M 440.5 78 L 440.5 219" opacity="1"></path><path fill="none" data-z-index="1" class="highcharts-grid-line" d="M 470.5 78 L 470.5 219" opacity="1"></path><path fill="none" data-z-index="1" class="highcharts-grid-line" d="M 500.5 78 L 500.5 219" opacity="1"></path><path fill="none" data-z-index="1" class="highcharts-grid-line" d="M 529.5 78 L 529.5 219" opacity="1"></path><path fill="none" data-z-index="1" class="highcharts-grid-line" d="M 559.5 78 L 559.5 219" opacity="1"></path><path fill="none" data-z-index="1" class="highcharts-grid-line" d="M 589.5 78 L 589.5 219" opacity="1"></path><path fill="none" data-z-index="1" class="highcharts-grid-line" d="M 82.5 78 L 82.5 219" opacity="1"></path></g><g class="highcharts-grid highcharts-yaxis-grid " data-z-index="1"><path fill="none" stroke="#e6e6e6" stroke-width="1" data-z-index="1" class="highcharts-grid-line" d="M 83 219.5 L 590 219.5" opacity="1"></path><path fill="none" stroke="#e6e6e6" stroke-width="1" data-z-index="1" class="highcharts-grid-line" d="M 83 172.5 L 590 172.5" opacity="1"></path><path fill="none" stroke="#e6e6e6" stroke-width="1" data-z-index="1" class="highcharts-grid-line" d="M 83 125.5 L 590 125.5" opacity="1"></path><path fill="none" stroke="#e6e6e6" stroke-width="1" data-z-index="1" class="highcharts-grid-line" d="M 83 77.5 L 590 77.5" opacity="1"></path></g><rect fill="none" class="highcharts-plot-border" data-z-index="1" x="83" y="78" width="507" height="141"></rect><g class="highcharts-axis highcharts-xaxis " data-z-index="2"><path fill="none" class="highcharts-tick" stroke="#ccd6eb" stroke-width="1" d="M 112.5 219 L 112.5 229" opacity="1"></path><path fill="none" class="highcharts-tick" stroke="#ccd6eb" stroke-width="1" d="M 142.5 219 L 142.5 229" opacity="1"></path><path fill="none" class="highcharts-tick" stroke="#ccd6eb" stroke-width="1" d="M 171.5 219 L 171.5 229" opacity="1"></path><path fill="none" class="highcharts-tick" stroke="#ccd6eb" stroke-width="1" d="M 201.5 219 L 201.5 229" opacity="1"></path><path fill="none" class="highcharts-tick" stroke="#ccd6eb" stroke-width="1" d="M 231.5 219 L 231.5 229" opacity="1"></path><path fill="none" class="highcharts-tick" stroke="#ccd6eb" stroke-width="1" d="M 261.5 219 L 261.5 229" opacity="1"></path><path fill="none" class="highcharts-tick" stroke="#ccd6eb" stroke-width="1" d="M 291.5 219 L 291.5 229" opacity="1"></path><path fill="none" class="highcharts-tick" stroke="#ccd6eb" stroke-width="1" d="M 321.5 219 L 321.5 229" opacity="1"></path><path fill="none" class="highcharts-tick" stroke="#ccd6eb" stroke-width="1" d="M 350.5 219 L 350.5 229" opacity="1"></path><path fill="none" class="highcharts-tick" stroke="#ccd6eb" stroke-width="1" d="M 380.5 219 L 380.5 229" opacity="1"></path><path fill="none" class="highcharts-tick" stroke="#ccd6eb" stroke-width="1" d="M 410.5 219 L 410.5 229" opacity="1"></path><path fill="none" class="highcharts-tick" stroke="#ccd6eb" stroke-width="1" d="M 440.5 219 L 440.5 229" opacity="1"></path><path fill="none" class="highcharts-tick" stroke="#ccd6eb" stroke-width="1" d="M 470.5 219 L 470.5 229" opacity="1"></path><path fill="none" class="highcharts-tick" stroke="#ccd6eb" stroke-width="1" d="M 500.5 219 L 500.5 229" opacity="1"></path><path fill="none" class="highcharts-tick" stroke="#ccd6eb" stroke-width="1" d="M 529.5 219 L 529.5 229" opacity="1"></path><path fill="none" class="highcharts-tick" stroke="#ccd6eb" stroke-width="1" d="M 559.5 219 L 559.5 229" opacity="1"></path><path fill="none" class="highcharts-tick" stroke="#ccd6eb" stroke-width="1" d="M 590.5 219 L 590.5 229" opacity="1"></path><path fill="none" class="highcharts-tick" stroke="#ccd6eb" stroke-width="1" d="M 82.5 219 L 82.5 229" opacity="1"></path><text x="336.5" data-z-index="7" text-anchor="middle" transform="translate(0,0)" class="highcharts-axis-title" style="color:#666666;fill:#666666;" y="281.47665940288704"><tspan>Average Daily Patientslikeme.com Usage (Hours)</tspan></text><path fill="none" class="highcharts-axis-line" stroke="#ccd6eb" stroke-width="1" data-z-index="7" d="M 83 219.5 L 590 219.5"></path></g><g class="highcharts-axis highcharts-yaxis " data-z-index="2"><text x="26" data-z-index="7" text-anchor="middle" transform="translate(0,0) rotate(270 26 148.5)" class="highcharts-axis-title" style="color:#666666;fill:#666666;" y="148.5"><tspan>Average Daily Overall</tspan><tspan dy="15" x="26">Mood (1 to 5 Rating)</tspan></text><path fill="none" class="highcharts-axis-line" data-z-index="7" d="M 83 78 L 83 219"></path></g><g class="highcharts-series-group" data-z-index="3"><g data-z-index="0.1" class="highcharts-series highcharts-series-0 highcharts-column-series highcharts-color-0 " transform="translate(83,78) scale(1 1)" clip-path="url(#highcharts-uuy3k6v-42)"><rect x="7.5" y="66.5" width="15" height="75" fill="#000000" stroke="#ffffff" stroke-width="1" class="highcharts-point highcharts-color-0"></rect><rect x="37.5" y="53.5" width="15" height="88" fill="#000000" stroke="#ffffff" stroke-width="1" class="highcharts-point highcharts-color-0"></rect><rect x="66.5" y="60.5" width="15" height="81" fill="#000000" stroke="#ffffff" stroke-width="1" class="highcharts-point highcharts-color-0"></rect><rect x="96.5" y="56.5" width="15" height="85" fill="#000000" stroke="#ffffff" stroke-width="1" class="highcharts-point highcharts-color-0"></rect><rect x="126.5" y="80.5" width="15" height="61" fill="#000000" stroke="#ffffff" stroke-width="1" class="highcharts-point highcharts-color-0"></rect><rect x="156.5" y="74.5" width="15" height="67" fill="#000000" stroke="#ffffff" stroke-width="1" class="highcharts-point highcharts-color-0"></rect><rect x="186.5" y="92.5" width="15" height="49" fill="#000000" stroke="#ffffff" stroke-width="1" class="highcharts-point highcharts-color-0"></rect><rect x="216.5" y="47.5" width="15" height="94" fill="#000000" stroke="#ffffff" stroke-width="1" class="highcharts-point highcharts-color-0"></rect><rect x="245.5" y="79.5" width="15" height="62" fill="#000000" stroke="#ffffff" stroke-width="1" class="highcharts-point highcharts-color-0"></rect><rect x="275.5" y="67.5" width="15" height="74" fill="#000000" stroke="#ffffff" stroke-width="1" class="highcharts-point highcharts-color-0"></rect><rect x="305.5" y="101.5" width="15" height="40" fill="#000000" stroke="#ffffff" stroke-width="1" class="highcharts-point highcharts-color-0"></rect><rect x="335.5" y="104.5" width="15" height="37" fill="#000000" stroke="#ffffff" stroke-width="1" class="highcharts-point highcharts-color-0"></rect><rect x="365.5" y="114.5" width="15" height="27" fill="#000000" stroke="#ffffff" stroke-width="1" class="highcharts-point highcharts-color-0"></rect><rect x="394.5" y="81.5" width="15" height="60" fill="#000000" stroke="#ffffff" stroke-width="1" class="highcharts-point highcharts-color-0"></rect><rect x="424.5" y="114.5" width="15" height="27" fill="#000000" stroke="#ffffff" stroke-width="1" class="highcharts-point highcharts-color-0"></rect><rect x="454.5" y="70.5" width="15" height="71" fill="#000000" stroke="#ffffff" stroke-width="1" class="highcharts-point highcharts-color-0"></rect><rect x="484.5" y="129.5" width="15" height="12" fill="#000000" stroke="#ffffff" stroke-width="1" class="highcharts-point highcharts-color-0"></rect></g><g data-z-index="0.1" class="highcharts-markers highcharts-series-0 highcharts-column-series highcharts-color-0 " transform="translate(83,78) scale(1 1)" clip-path="none"></g></g><text x="300" text-anchor="middle" class="highcharts-title" data-z-index="4" style="color:#333333;font-size:18px;fill:#333333;" y="24"><tspan>Average Overall Mood by Previous Patientslikeme.com Usage</tspan></text><text x="300" text-anchor="middle" class="highcharts-subtitle" data-z-index="4" style="color:#666666;fill:#666666;" y="46"><tspan>Typical values for Overall Mood following a given amount of Patientslikeme.com Usage over</tspan><tspan dy="15" x="300">the previous 7 days.</tspan></text><g class="highcharts-axis-labels highcharts-xaxis-labels " data-z-index="7"><text x="100.50448957022833" style="color:#666666;cursor:default;font-size:11px;fill:#666666;" text-anchor="end" transform="translate(0,0) rotate(-45 100.50448957022833 235)" y="235" opacity="1">0</text><text x="130.32801898199833" style="color:#666666;cursor:default;font-size:11px;fill:#666666;" text-anchor="end" transform="translate(0,0) rotate(-45 130.32801898199833 235)" y="235" opacity="1">0.0003</text><text x="160.15154839375833" style="color:#666666;cursor:default;font-size:11px;fill:#666666;" text-anchor="end" transform="translate(0,0) rotate(-45 160.15154839375833 235)" y="235" opacity="1">0.0008</text><text x="189.97507780552834" style="color:#666666;cursor:default;font-size:11px;fill:#666666;" text-anchor="end" transform="translate(0,0) rotate(-45 189.97507780552834 235)" y="235" opacity="1">0.001</text><text x="219.79860721728835" style="color:#666666;cursor:default;font-size:11px;fill:#666666;" text-anchor="end" transform="translate(0,0) rotate(-45 219.79860721728835 235)" y="235" opacity="1">0.002</text><text x="249.6221366290583" style="color:#666666;cursor:default;font-size:11px;fill:#666666;" text-anchor="end" transform="translate(0,0) rotate(-45 249.6221366290583 235)" y="235" opacity="1">0.003</text><text x="279.44566604081825" style="color:#666666;cursor:default;font-size:11px;fill:#666666;" text-anchor="end" transform="translate(0,0) rotate(-45 279.44566604081825 235)" y="235" opacity="1">0.004</text><text x="309.2691954525883" style="color:#666666;cursor:default;font-size:11px;fill:#666666;" text-anchor="end" transform="translate(0,0) rotate(-45 309.2691954525883 235)" y="235" opacity="1">0.005</text><text x="339.09272486434827" style="color:#666666;cursor:default;font-size:11px;fill:#666666;" text-anchor="end" transform="translate(0,0) rotate(-45 339.09272486434827 235)" y="235" opacity="1">0.006</text><text x="368.9162542761183" style="color:#666666;cursor:default;font-size:11px;fill:#666666;" text-anchor="end" transform="translate(0,0) rotate(-45 368.9162542761183 235)" y="235" opacity="1">0.007</text><text x="398.7397836878783" style="color:#666666;cursor:default;font-size:11px;fill:#666666;" text-anchor="end" transform="translate(0,0) rotate(-45 398.7397836878783 235)" y="235" opacity="1">0.008</text><text x="428.56331309964827" style="color:#666666;cursor:default;font-size:11px;fill:#666666;" text-anchor="end" transform="translate(0,0) rotate(-45 428.56331309964827 235)" y="235" opacity="1">0.01</text><text x="458.3868425114083" style="color:#666666;cursor:default;font-size:11px;fill:#666666;" text-anchor="end" transform="translate(0,0) rotate(-45 458.3868425114083 235)" y="235" opacity="1">0.02</text><text x="488.2103719231783" style="color:#666666;cursor:default;font-size:11px;fill:#666666;" text-anchor="end" transform="translate(0,0) rotate(-45 488.2103719231783 235)" y="235" opacity="1">0.03</text><text x="518.0339013349384" style="color:#666666;cursor:default;font-size:11px;fill:#666666;" text-anchor="end" transform="translate(0,0) rotate(-45 518.0339013349384 235)" y="235" opacity="1">0.04</text><text x="547.8574307467084" style="color:#666666;cursor:default;font-size:11px;fill:#666666;" text-anchor="end" transform="translate(0,0) rotate(-45 547.8574307467084 235)" y="235" opacity="1">0.05</text><text x="577.6809601584683" style="color:#666666;cursor:default;font-size:11px;fill:#666666;" text-anchor="end" transform="translate(0,0) rotate(-45 577.6809601584683 235)" y="235" opacity="1">0.06</text></g><g class="highcharts-axis-labels highcharts-yaxis-labels " data-z-index="7"><text x="68" style="color:#666666;cursor:default;font-size:11px;fill:#666666;" text-anchor="end" transform="translate(0,0)" y="223" opacity="1">2</text><text x="68" style="color:#666666;cursor:default;font-size:11px;fill:#666666;" text-anchor="end" transform="translate(0,0)" y="176" opacity="1">2.5</text><text x="68" style="color:#666666;cursor:default;font-size:11px;fill:#666666;" text-anchor="end" transform="translate(0,0)" y="129" opacity="1">3</text><text x="68" style="color:#666666;cursor:default;font-size:11px;fill:#666666;" text-anchor="end" transform="translate(0,0)" y="82" opacity="1">3.5</text></g><a xlink:href="https://quantimo.do" target="_blank">
                    <text x="590" class="highcharts-credits" text-anchor="end" data-z-index="8"
                          style="cursor:pointer;color:#999999;font-size:9px;fill:#999999;" y="295">https://quantimo.do
                    </text>
                </a></svg>