<?xml version="1.0" standalone="no"?><!DOCTYPE svg PUBLIC "-//W3C//DTD SVG 1.1//EN" "http://www.w3.org/Graphics/SVG/1.1/DTD/svg11.dtd"><svg xmlns:xlink="http://www.w3.org/1999/xlink" version="1.1" class="highcharts-root" style="font-family:&quot;Lucida Grande&quot;, &quot;Lucida Sans Unicode&quot;, Arial, Helvetica, sans-serif;font-size:12px;" xmlns="http://www.w3.org/2000/svg" width="600" height="300"><desc>Created with Highstock 6.2.0</desc><defs><clipPath id="highcharts-k8ibdt2-29"><rect x="0" y="0" width="507" height="150" fill="none"></rect></clipPath><clipPath id="highcharts-k8ibdt2-52"><rect x="0" y="0" width="507" height="150" fill="none"></rect></clipPath><clipPath id="highcharts-k8ibdt2-53"><rect x="83" y="78" width="507" height="150" fill="none"></rect></clipPath></defs><rect fill="#ffffff" class="highcharts-background" x="0" y="0" width="600" height="300" rx="0" ry="0"></rect><rect fill="none" class="highcharts-plot-background" x="83" y="78" width="507" height="150"></rect><g class="highcharts-pane-group" data-z-index="0"></g><g class="highcharts-grid highcharts-xaxis-grid " data-z-index="1"><path fill="none" data-z-index="1" class="highcharts-grid-line" d="M 105.5 78 L 105.5 228" opacity="1"></path><path fill="none" data-z-index="1" class="highcharts-grid-line" d="M 128.5 78 L 128.5 228" opacity="1"></path><path fill="none" data-z-index="1" class="highcharts-grid-line" d="M 151.5 78 L 151.5 228" opacity="1"></path><path fill="none" data-z-index="1" class="highcharts-grid-line" d="M 174.5 78 L 174.5 228" opacity="1"></path><path fill="none" data-z-index="1" class="highcharts-grid-line" d="M 197.5 78 L 197.5 228" opacity="1"></path><path fill="none" data-z-index="1" class="highcharts-grid-line" d="M 220.5 78 L 220.5 228" opacity="1"></path><path fill="none" data-z-index="1" class="highcharts-grid-line" d="M 243.5 78 L 243.5 228" opacity="1"></path><path fill="none" data-z-index="1" class="highcharts-grid-line" d="M 266.5 78 L 266.5 228" opacity="1"></path><path fill="none" data-z-index="1" class="highcharts-grid-line" d="M 289.5 78 L 289.5 228" opacity="1"></path><path fill="none" data-z-index="1" class="highcharts-grid-line" d="M 312.5 78 L 312.5 228" opacity="1"></path><path fill="none" data-z-index="1" class="highcharts-grid-line" d="M 336.5 78 L 336.5 228" opacity="1"></path><path fill="none" data-z-index="1" class="highcharts-grid-line" d="M 359.5 78 L 359.5 228" opacity="1"></path><path fill="none" data-z-index="1" class="highcharts-grid-line" d="M 382.5 78 L 382.5 228" opacity="1"></path><path fill="none" data-z-index="1" class="highcharts-grid-line" d="M 405.5 78 L 405.5 228" opacity="1"></path><path fill="none" data-z-index="1" class="highcharts-grid-line" d="M 428.5 78 L 428.5 228" opacity="1"></path><path fill="none" data-z-index="1" class="highcharts-grid-line" d="M 451.5 78 L 451.5 228" opacity="1"></path><path fill="none" data-z-index="1" class="highcharts-grid-line" d="M 474.5 78 L 474.5 228" opacity="1"></path><path fill="none" data-z-index="1" class="highcharts-grid-line" d="M 497.5 78 L 497.5 228" opacity="1"></path><path fill="none" data-z-index="1" class="highcharts-grid-line" d="M 520.5 78 L 520.5 228" opacity="1"></path><path fill="none" data-z-index="1" class="highcharts-grid-line" d="M 543.5 78 L 543.5 228" opacity="1"></path><path fill="none" data-z-index="1" class="highcharts-grid-line" d="M 566.5 78 L 566.5 228" opacity="1"></path><path fill="none" data-z-index="1" class="highcharts-grid-line" d="M 589.5 78 L 589.5 228" opacity="1"></path><path fill="none" data-z-index="1" class="highcharts-grid-line" d="M 82.5 78 L 82.5 228" opacity="1"></path></g><g class="highcharts-grid highcharts-yaxis-grid " data-z-index="1"><path fill="none" stroke="#e6e6e6" stroke-width="1" data-z-index="1" class="highcharts-grid-line" d="M 83 228.5 L 590 228.5" opacity="1"></path><path fill="none" stroke="#e6e6e6" stroke-width="1" data-z-index="1" class="highcharts-grid-line" d="M 83 191.5 L 590 191.5" opacity="1"></path><path fill="none" stroke="#e6e6e6" stroke-width="1" data-z-index="1" class="highcharts-grid-line" d="M 83 153.5 L 590 153.5" opacity="1"></path><path fill="none" stroke="#e6e6e6" stroke-width="1" data-z-index="1" class="highcharts-grid-line" d="M 83 116.5 L 590 116.5" opacity="1"></path><path fill="none" stroke="#e6e6e6" stroke-width="1" data-z-index="1" class="highcharts-grid-line" d="M 83 77.5 L 590 77.5" opacity="1"></path></g><rect fill="none" class="highcharts-plot-border" data-z-index="1" x="83" y="78" width="507" height="150"></rect><g class="highcharts-axis highcharts-xaxis " data-z-index="2"><path fill="none" class="highcharts-tick" stroke="#ccd6eb" stroke-width="1" d="M 105.5 228 L 105.5 238" opacity="1"></path><path fill="none" class="highcharts-tick" stroke="#ccd6eb" stroke-width="1" d="M 128.5 228 L 128.5 238" opacity="1"></path><path fill="none" class="highcharts-tick" stroke="#ccd6eb" stroke-width="1" d="M 151.5 228 L 151.5 238" opacity="1"></path><path fill="none" class="highcharts-tick" stroke="#ccd6eb" stroke-width="1" d="M 174.5 228 L 174.5 238" opacity="1"></path><path fill="none" class="highcharts-tick" stroke="#ccd6eb" stroke-width="1" d="M 197.5 228 L 197.5 238" opacity="1"></path><path fill="none" class="highcharts-tick" stroke="#ccd6eb" stroke-width="1" d="M 220.5 228 L 220.5 238" opacity="1"></path><path fill="none" class="highcharts-tick" stroke="#ccd6eb" stroke-width="1" d="M 243.5 228 L 243.5 238" opacity="1"></path><path fill="none" class="highcharts-tick" stroke="#ccd6eb" stroke-width="1" d="M 266.5 228 L 266.5 238" opacity="1"></path><path fill="none" class="highcharts-tick" stroke="#ccd6eb" stroke-width="1" d="M 289.5 228 L 289.5 238" opacity="1"></path><path fill="none" class="highcharts-tick" stroke="#ccd6eb" stroke-width="1" d="M 312.5 228 L 312.5 238" opacity="1"></path><path fill="none" class="highcharts-tick" stroke="#ccd6eb" stroke-width="1" d="M 336.5 228 L 336.5 238" opacity="1"></path><path fill="none" class="highcharts-tick" stroke="#ccd6eb" stroke-width="1" d="M 359.5 228 L 359.5 238" opacity="1"></path><path fill="none" class="highcharts-tick" stroke="#ccd6eb" stroke-width="1" d="M 382.5 228 L 382.5 238" opacity="1"></path><path fill="none" class="highcharts-tick" stroke="#ccd6eb" stroke-width="1" d="M 405.5 228 L 405.5 238" opacity="1"></path><path fill="none" class="highcharts-tick" stroke="#ccd6eb" stroke-width="1" d="M 428.5 228 L 428.5 238" opacity="1"></path><path fill="none" class="highcharts-tick" stroke="#ccd6eb" stroke-width="1" d="M 451.5 228 L 451.5 238" opacity="1"></path><path fill="none" class="highcharts-tick" stroke="#ccd6eb" stroke-width="1" d="M 474.5 228 L 474.5 238" opacity="1"></path><path fill="none" class="highcharts-tick" stroke="#ccd6eb" stroke-width="1" d="M 497.5 228 L 497.5 238" opacity="1"></path><path fill="none" class="highcharts-tick" stroke="#ccd6eb" stroke-width="1" d="M 520.5 228 L 520.5 238" opacity="1"></path><path fill="none" class="highcharts-tick" stroke="#ccd6eb" stroke-width="1" d="M 543.5 228 L 543.5 238" opacity="1"></path><path fill="none" class="highcharts-tick" stroke="#ccd6eb" stroke-width="1" d="M 566.5 228 L 566.5 238" opacity="1"></path><path fill="none" class="highcharts-tick" stroke="#ccd6eb" stroke-width="1" d="M 590.5 228 L 590.5 238" opacity="1"></path><path fill="none" class="highcharts-tick" stroke="#ccd6eb" stroke-width="1" d="M 82.5 228 L 82.5 238" opacity="1"></path><text x="336.5" data-z-index="7" text-anchor="middle" transform="translate(0,0)" class="highcharts-axis-title" style="color:#666666;fill:#666666;" y="280.57716446627535"><tspan>Average Daily Saturated Fat (Grams)</tspan></text><path fill="none" class="highcharts-axis-line" stroke="#ccd6eb" stroke-width="1" data-z-index="7" d="M 83 228.5 L 590 228.5"></path></g><g class="highcharts-axis highcharts-yaxis " data-z-index="2"><text x="26" data-z-index="7" text-anchor="middle" transform="translate(0,0) rotate(270 26 153)" class="highcharts-axis-title" style="color:#666666;fill:#666666;" y="153"><tspan>Average Daily Overall</tspan><tspan dy="15" x="26">Mood (1 to 5 Rating)</tspan></text><path fill="none" class="highcharts-axis-line" data-z-index="7" d="M 83 78 L 83 228"></path></g><g class="highcharts-series-group" data-z-index="3"><g data-z-index="0.1" class="highcharts-series highcharts-series-0 highcharts-column-series highcharts-color-0 " transform="translate(83,78) scale(1 1)" clip-path="url(#highcharts-k8ibdt2-52)"><rect x="5.5" y="78.5" width="12" height="72" fill="#000000" stroke="#ffffff" stroke-width="1" class="highcharts-point highcharts-color-0"></rect><rect x="28.5" y="125.5" width="12" height="25" fill="#000000" stroke="#ffffff" stroke-width="1" class="highcharts-point highcharts-color-0"></rect><rect x="51.5" y="31.5" width="12" height="119" fill="#000000" stroke="#ffffff" stroke-width="1" class="highcharts-point highcharts-color-0"></rect><rect x="74.5" y="37.5" width="12" height="113" fill="#000000" stroke="#ffffff" stroke-width="1" class="highcharts-point highcharts-color-0"></rect><rect x="97.5" y="12.5" width="12" height="138" fill="#000000" stroke="#ffffff" stroke-width="1" class="highcharts-point highcharts-color-0"></rect><rect x="120.5" y="54.5" width="12" height="96" fill="#000000" stroke="#ffffff" stroke-width="1" class="highcharts-point highcharts-color-0"></rect><rect x="143.5" y="43.5" width="12" height="107" fill="#000000" stroke="#ffffff" stroke-width="1" class="highcharts-point highcharts-color-0"></rect><rect x="166.5" y="18.5" width="12" height="132" fill="#000000" stroke="#ffffff" stroke-width="1" class="highcharts-point highcharts-color-0"></rect><rect x="189.5" y="56.5" width="12" height="94" fill="#000000" stroke="#ffffff" stroke-width="1" class="highcharts-point highcharts-color-0"></rect><rect x="212.5" y="30.5" width="12" height="120" fill="#000000" stroke="#ffffff" stroke-width="1" class="highcharts-point highcharts-color-0"></rect><rect x="235.5" y="52.5" width="12" height="98" fill="#000000" stroke="#ffffff" stroke-width="1" class="highcharts-point highcharts-color-0"></rect><rect x="258.5" y="54.5" width="12" height="96" fill="#000000" stroke="#ffffff" stroke-width="1" class="highcharts-point highcharts-color-0"></rect><rect x="282.5" y="91.5" width="12" height="59" fill="#000000" stroke="#ffffff" stroke-width="1" class="highcharts-point highcharts-color-0"></rect><rect x="305.5" y="87.5" width="12" height="63" fill="#000000" stroke="#ffffff" stroke-width="1" class="highcharts-point highcharts-color-0"></rect><rect x="328.5" y="101.5" width="12" height="49" fill="#000000" stroke="#ffffff" stroke-width="1" class="highcharts-point highcharts-color-0"></rect><rect x="351.5" y="108.5" width="12" height="42" fill="#000000" stroke="#ffffff" stroke-width="1" class="highcharts-point highcharts-color-0"></rect><rect x="374.5" y="112.5" width="12" height="38" fill="#000000" stroke="#ffffff" stroke-width="1" class="highcharts-point highcharts-color-0"></rect><rect x="397.5" y="94.5" width="12" height="56" fill="#000000" stroke="#ffffff" stroke-width="1" class="highcharts-point highcharts-color-0"></rect><rect x="420.5" y="122.5" width="12" height="28" fill="#000000" stroke="#ffffff" stroke-width="1" class="highcharts-point highcharts-color-0"></rect><rect x="443.5" y="124.5" width="12" height="26" fill="#000000" stroke="#ffffff" stroke-width="1" class="highcharts-point highcharts-color-0"></rect><rect x="466.5" y="120.5" width="12" height="30" fill="#000000" stroke="#ffffff" stroke-width="1" class="highcharts-point highcharts-color-0"></rect><rect x="489.5" y="83.5" width="12" height="67" fill="#000000" stroke="#ffffff" stroke-width="1" class="highcharts-point highcharts-color-0"></rect></g><g data-z-index="0.1" class="highcharts-markers highcharts-series-0 highcharts-column-series highcharts-color-0 " transform="translate(83,78) scale(1 1)" clip-path="none"></g></g><text x="300" text-anchor="middle" class="highcharts-title" data-z-index="4" style="color:#333333;font-size:18px;fill:#333333;" y="24"><tspan>Average Overall Mood by Previous Saturated Fat Intake</tspan></text><text x="300" text-anchor="middle" class="highcharts-subtitle" data-z-index="4" style="color:#666666;fill:#666666;" y="46"><tspan>Typical values for Overall Mood following a given amount of Saturated Fat intake over the</tspan><tspan dy="15" x="300">previous 7 days.</tspan></text><g class="highcharts-axis-labels highcharts-xaxis-labels " data-z-index="7"><text x="97.11545213707339" style="color:#666666;cursor:default;font-size:11px;fill:#666666;" text-anchor="end" transform="translate(0,0) rotate(-45 97.11545213707339 244)" y="244" opacity="1">0</text><text x="120.16090668253341" style="color:#666666;cursor:default;font-size:11px;fill:#666666;" text-anchor="end" transform="translate(0,0) rotate(-45 120.16090668253341 244)" y="244" opacity="1">0.03</text><text x="143.2063612279834" style="color:#666666;cursor:default;font-size:11px;fill:#666666;" text-anchor="end" transform="translate(0,0) rotate(-45 143.2063612279834 244)" y="244" opacity="1">1</text><text x="166.2518157734434" style="color:#666666;cursor:default;font-size:11px;fill:#666666;" text-anchor="end" transform="translate(0,0) rotate(-45 166.2518157734434 244)" y="244" opacity="1">2</text><text x="189.2972703188934" style="color:#666666;cursor:default;font-size:11px;fill:#666666;" text-anchor="end" transform="translate(0,0) rotate(-45 189.2972703188934 244)" y="244" opacity="1">3</text><text x="212.3427248643534" style="color:#666666;cursor:default;font-size:11px;fill:#666666;" text-anchor="end" transform="translate(0,0) rotate(-45 212.3427248643534 244)" y="244" opacity="1">4</text><text x="235.3881794098034" style="color:#666666;cursor:default;font-size:11px;fill:#666666;" text-anchor="end" transform="translate(0,0) rotate(-45 235.3881794098034 244)" y="244" opacity="1">5</text><text x="258.4336339552634" style="color:#666666;cursor:default;font-size:11px;fill:#666666;" text-anchor="end" transform="translate(0,0) rotate(-45 258.4336339552634 244)" y="244" opacity="1">6</text><text x="281.47908850071343" style="color:#666666;cursor:default;font-size:11px;fill:#666666;" text-anchor="end" transform="translate(0,0) rotate(-45 281.47908850071343 244)" y="244" opacity="1">7</text><text x="304.5245430461734" style="color:#666666;cursor:default;font-size:11px;fill:#666666;" text-anchor="end" transform="translate(0,0) rotate(-45 304.5245430461734 244)" y="244" opacity="1">8</text><text x="327.5699975916234" style="color:#666666;cursor:default;font-size:11px;fill:#666666;" text-anchor="end" transform="translate(0,0) rotate(-45 327.5699975916234 244)" y="244" opacity="1">9</text><text x="350.6154521370734" style="color:#666666;cursor:default;font-size:11px;fill:#666666;" text-anchor="end" transform="translate(0,0) rotate(-45 350.6154521370734 244)" y="244" opacity="1">10</text><text x="373.6609066825334" style="color:#666666;cursor:default;font-size:11px;fill:#666666;" text-anchor="end" transform="translate(0,0) rotate(-45 373.6609066825334 244)" y="244" opacity="1">20</text><text x="396.7063612279834" style="color:#666666;cursor:default;font-size:11px;fill:#666666;" text-anchor="end" transform="translate(0,0) rotate(-45 396.7063612279834 244)" y="244" opacity="1">30</text><text x="419.7518157734434" style="color:#666666;cursor:default;font-size:11px;fill:#666666;" text-anchor="end" transform="translate(0,0) rotate(-45 419.7518157734434 244)" y="244" opacity="1">40</text><text x="442.7972703188934" style="color:#666666;cursor:default;font-size:11px;fill:#666666;" text-anchor="end" transform="translate(0,0) rotate(-45 442.7972703188934 244)" y="244" opacity="1">50</text><text x="465.8427248643534" style="color:#666666;cursor:default;font-size:11px;fill:#666666;" text-anchor="end" transform="translate(0,0) rotate(-45 465.8427248643534 244)" y="244" opacity="1">60</text><text x="488.8881794098034" style="color:#666666;cursor:default;font-size:11px;fill:#666666;" text-anchor="end" transform="translate(0,0) rotate(-45 488.8881794098034 244)" y="244" opacity="1">70</text><text x="511.9336339552634" style="color:#666666;cursor:default;font-size:11px;fill:#666666;" text-anchor="end" transform="translate(0,0) rotate(-45 511.9336339552634 244)" y="244" opacity="1">80</text><text x="534.9790885007134" style="color:#666666;cursor:default;font-size:11px;fill:#666666;" text-anchor="end" transform="translate(0,0) rotate(-45 534.9790885007134 244)" y="244" opacity="1">90</text><text x="558.0245430461734" style="color:#666666;cursor:default;font-size:11px;fill:#666666;" text-anchor="end" transform="translate(0,0) rotate(-45 558.0245430461734 244)" y="244" opacity="1">100</text><text x="581.0699975916234" style="color:#666666;cursor:default;font-size:11px;fill:#666666;" text-anchor="end" transform="translate(0,0) rotate(-45 581.0699975916234 244)" y="244" opacity="1">300</text></g><g class="highcharts-axis-labels highcharts-yaxis-labels " data-z-index="7"><text x="68" style="color:#666666;cursor:default;font-size:11px;fill:#666666;" text-anchor="end" transform="translate(0,0)" y="232" opacity="1">2</text><text x="68" style="color:#666666;cursor:default;font-size:11px;fill:#666666;" text-anchor="end" transform="translate(0,0)" y="194" opacity="1">2.5</text><text x="68" style="color:#666666;cursor:default;font-size:11px;fill:#666666;" text-anchor="end" transform="translate(0,0)" y="157" opacity="1">3</text><text x="68" style="color:#666666;cursor:default;font-size:11px;fill:#666666;" text-anchor="end" transform="translate(0,0)" y="119" opacity="1">3.5</text><text x="68" style="color:#666666;cursor:default;font-size:11px;fill:#666666;" text-anchor="end" transform="translate(0,0)" y="82" opacity="1">4</text></g><a xlink:href="https://quantimo.do" target="_blank">
                    <text x="590" class="highcharts-credits" text-anchor="end" data-z-index="8"
                          style="cursor:pointer;color:#999999;font-size:9px;fill:#999999;" y="295">https://quantimo.do
                    </text>
                </a></svg>