<?xml version="1.0" standalone="no"?><!DOCTYPE svg PUBLIC "-//W3C//DTD SVG 1.1//EN" "http://www.w3.org/Graphics/SVG/1.1/DTD/svg11.dtd"><svg xmlns:xlink="http://www.w3.org/1999/xlink" version="1.1" class="highcharts-root" style="font-family:&quot;Lucida Grande&quot;, &quot;Lucida Sans Unicode&quot;, Arial, Helvetica, sans-serif;font-size:12px;" xmlns="http://www.w3.org/2000/svg" width="600" height="400"><desc>Created with Highstock 6.2.0</desc><defs><clipPath id="highcharts-2u921o7-139"><rect x="0" y="0" width="464" height="260" fill="none"></rect></clipPath><clipPath id="highcharts-2u921o7-205"><rect x="0" y="0" width="464" height="260" fill="none"></rect></clipPath><clipPath id="highcharts-2u921o7-271"><rect x="0" y="0" width="464" height="260" fill="none"></rect></clipPath><clipPath id="highcharts-2u921o7-272"><rect x="68" y="63" width="464" height="260" fill="none"></rect></clipPath></defs><rect fill="#ffffff" class="highcharts-background" x="0" y="0" width="600" height="400" rx="0" ry="0"></rect><rect fill="none" class="highcharts-plot-background" x="68" y="63" width="464" height="260"></rect><g class="highcharts-pane-group" data-z-index="0"></g><g class="highcharts-grid highcharts-xaxis-grid " data-z-index="1"><path fill="none" data-z-index="1" class="highcharts-grid-line" d="M 127.5 63 L 127.5 323" opacity="1"></path><path fill="none" data-z-index="1" class="highcharts-grid-line" d="M 225.5 63 L 225.5 323" opacity="1"></path><path fill="none" data-z-index="1" class="highcharts-grid-line" d="M 323.5 63 L 323.5 323" opacity="1"></path><path fill="none" data-z-index="1" class="highcharts-grid-line" d="M 421.5 63 L 421.5 323" opacity="1"></path><path fill="none" data-z-index="1" class="highcharts-grid-line" d="M 519.5 63 L 519.5 323" opacity="1"></path></g><g class="highcharts-grid highcharts-yaxis-grid " data-z-index="1"><path fill="none" stroke="#e6e6e6" stroke-width="1" data-z-index="1" class="highcharts-grid-line" d="M 68 323.5 L 532 323.5" opacity="1"></path><path fill="none" stroke="#e6e6e6" stroke-width="1" data-z-index="1" class="highcharts-grid-line" d="M 68 258.5 L 532 258.5" opacity="1"></path><path fill="none" stroke="#e6e6e6" stroke-width="1" data-z-index="1" class="highcharts-grid-line" d="M 68 193.5 L 532 193.5" opacity="1"></path><path fill="none" stroke="#e6e6e6" stroke-width="1" data-z-index="1" class="highcharts-grid-line" d="M 68 128.5 L 532 128.5" opacity="1"></path><path fill="none" stroke="#e6e6e6" stroke-width="1" data-z-index="1" class="highcharts-grid-line" d="M 68 62.5 L 532 62.5" opacity="1"></path></g><g class="highcharts-grid highcharts-yaxis-grid " data-z-index="1"><path fill="none" stroke="#e6e6e6" stroke-width="1" data-z-index="1" class="highcharts-grid-line" d="M 68 323.5 L 532 323.5" opacity="1"></path><path fill="none" stroke="#e6e6e6" stroke-width="1" data-z-index="1" class="highcharts-grid-line" d="M 68 258.5 L 532 258.5" opacity="1"></path><path fill="none" stroke="#e6e6e6" stroke-width="1" data-z-index="1" class="highcharts-grid-line" d="M 68 193.5 L 532 193.5" opacity="1"></path><path fill="none" stroke="#e6e6e6" stroke-width="1" data-z-index="1" class="highcharts-grid-line" d="M 68 128.5 L 532 128.5" opacity="1"></path><path fill="none" stroke="#e6e6e6" stroke-width="1" data-z-index="1" class="highcharts-grid-line" d="M 68 62.5 L 532 62.5" opacity="1"></path></g><rect fill="none" class="highcharts-plot-border" data-z-index="1" x="68" y="63" width="464" height="260"></rect><g class="highcharts-axis highcharts-xaxis " data-z-index="2"><path fill="none" class="highcharts-tick" stroke="#ccd6eb" stroke-width="1" d="M 127.5 323 L 127.5 333" opacity="1"></path><path fill="none" class="highcharts-tick" stroke="#ccd6eb" stroke-width="1" d="M 225.5 323 L 225.5 333" opacity="1"></path><path fill="none" class="highcharts-tick" stroke="#ccd6eb" stroke-width="1" d="M 323.5 323 L 323.5 333" opacity="1"></path><path fill="none" class="highcharts-tick" stroke="#ccd6eb" stroke-width="1" d="M 421.5 323 L 421.5 333" opacity="1"></path><path fill="none" class="highcharts-tick" stroke="#ccd6eb" stroke-width="1" d="M 519.5 323 L 519.5 333" opacity="1"></path><path fill="none" class="highcharts-axis-line" stroke="#ccd6eb" stroke-width="1" data-z-index="7" d="M 68 323.5 L 532 323.5"></path></g><g class="highcharts-axis highcharts-yaxis " data-z-index="2"><text x="26" data-z-index="7" text-anchor="middle" transform="translate(0,0) rotate(270 26 193)" class="highcharts-axis-title" style="color:#666666;fill:#666666;" y="193"><tspan>MEAN Opti-men Multivitamin (tablets)</tspan></text><path fill="none" class="highcharts-axis-line" stroke="#ccd6eb" stroke-width="1" data-z-index="7" d="M 67.5 63 L 67.5 323"></path></g><g class="highcharts-axis highcharts-yaxis " data-z-index="2"><text x="574" data-z-index="7" text-anchor="middle" transform="translate(0,0) rotate(90 574 193)" class="highcharts-axis-title" style="color:#666666;fill:#666666;" y="193"><tspan>MEAN Overall Mood (/5)</tspan></text><path fill="none" class="highcharts-axis-line" stroke="#ccd6eb" stroke-width="1" data-z-index="7" d="M 532.5 63 L 532.5 323"></path></g><g class="highcharts-series-group" data-z-index="3"><g data-z-index="0.1" class="highcharts-series highcharts-series-0 highcharts-spline-series highcharts-color-0 " transform="translate(68,63) scale(1 1)" clip-path="url(#highcharts-2u921o7-205)"><path fill="none" d="M 4.5490196078431 260 C 4.5490196078431 260 8.748114630467441 260 11.547511312217 260 C 14.346907993966601 260 15.746606334841402 260 18.546003016591 260 C 21.3453996983406 260 22.7450980392154 260 25.544494720965 260 C 28.343891402714597 260 29.743589743589403 260 32.542986425339 260 C 35.3423831070886 260 36.7420814479634 260 39.541478129713 260 C 42.3408748114626 260 43.740573152337404 260 46.539969834087 260 C 49.339366515837 260 50.739064856712005 260 53.538461538462 260 C 56.3378582202116 260 57.7375565610864 260 60.536953242836 260 C 63.336349924585605 260 64.7360482654604 260 67.53544494721 260 C 70.3348416289596 260 71.7345399698344 260 74.533936651584 260 C 77.3333333333336 260 78.7330316742084 260 81.532428355958 260 C 84.3318250377076 260 85.7315233785824 260 88.530920060332 260 C 91.33031674208159 260 92.7300150829564 260 95.529411764706 260 C 98.32880844645561 260 99.7285067873304 260 102.52790346908 260 C 105.327300150828 260 106.72699849170199 260 109.52639517345 260 C 112.32579185520198 260 113.725490196078 260 116.52488687783 260 C 119.32428355957799 260 120.723981900452 260 123.5233785822 260 C 126.32277526395201 260 127.722473604828 260 130.52187028658 260 C 133.321266968328 260 134.72096530920197 260 137.52036199095 260 C 140.319758672698 260 141.719457013572 260 144.51885369532 260 C 147.318250377072 260 148.717948717948 260 151.5173453997 260 C 154.316742081448 260 155.716440422322 260 158.51583710407 260 C 161.315233785822 260 162.714932126698 260 165.51432880845 260 C 168.313725490198 260 169.71342383107202 260 172.51282051282 260 C 175.31221719456803 260 176.711915535442 260 179.51131221719 260 C 182.31070889894198 260 183.710407239818 260 186.50980392157 260 C 189.309200603318 260 190.70889894419201 260 193.50829562594 260 C 196.307692307692 260 197.70739064856804 260 200.50678733032 260 C 203.30618401206803 260 204.70588235294198 260 207.50527903469 260 C 210.304675716438 260 211.704374057312 260 214.50377073906 260 C 217.303167420812 260 218.702865761688 241.42857142858028 221.50226244344 229.04761904761904 C 224.301659125188 216.66666666667552 225.701357466062 210.47619047618153 228.50075414781 198.0952380952381 C 231.30015082956203 185.7142857142768 232.69984917043797 179.52380952381847 235.49924585219 167.14285714285714 C 238.298642533938 154.76190476191368 239.698340874812 148.57142857141974 242.49773755656 136.1904761904762 C 245.297134238312 123.80952380951496 246.696832579188 117.61904761905646 249.49622926094 105.23809523809521 C 252.295625942688 92.85714285715169 253.695324283562 86.66666666666679 256.49472096531 74.28571428571428 C 259.294117647058 61.90476190476202 260.693815987932 43.333333333333314 263.49321266968 43.333333333333314 C 266.292609351432 43.333333333333314 267.692307692308 43.333333333333314 270.49170437406 43.333333333333314 C 273.29110105580804 43.333333333333314 274.690799396682 43.333333333333314 277.49019607843 43.333333333333314 C 280.289592760182 43.333333333333314 281.689291101058 43.333333333333314 284.48868778281 43.333333333333314 C 287.288084464558 43.333333333333314 288.687782805432 43.333333333333314 291.48717948718 43.333333333333314 C 294.28657616892804 43.333333333333314 295.68627450980205 43.333333333333314 298.48567119155 43.333333333333314 C 301.285067873302 43.333333333333314 302.684766214178 43.333333333333314 305.48416289593 43.333333333333314 C 308.283559577678 43.333333333333314 309.683257918552 43.333333333333314 312.4826546003 43.333333333333314 C 315.282051282052 43.333333333333314 316.681749622928 43.333333333333314 319.48114630468 43.333333333333314 C 322.28054298642803 43.333333333333314 323.68024132730204 43.333333333333314 326.47963800905 43.333333333333314 C 329.279034690798 43.333333333333314 330.678733031672 43.333333333333314 333.47812971342 43.333333333333314 C 336.277526395172 43.333333333333314 337.677224736048 43.333333333333314 340.4766214178 43.333333333333314 C 343.27601809954797 43.333333333333314 344.675716440422 43.333333333333314 347.47511312217 43.333333333333314 C 350.27450980392194 43.333333333333314 351.674208144798 43.333333333333314 354.47360482655 43.333333333333314 C 357.273001508298 43.333333333333314 358.67269984917203 65.88195683647282 361.47209653092 74.28571428571428 C 366.921199932964 90.6438615983776 369.64575163398604 105.23809523809521 375.09485503603 105.23809523809521 C 375.24454499748606 105.23809523809521 375.319389978214 105.23809523809521 375.46907993967 105.23809523809521 C 378.268476621418 105.23809523809521 379.668174962292 136.1904761904762 382.46757164404 136.1904761904762 C 385.266968325792 136.1904761904762 386.666666666668 136.1904761904762 389.46606334842 136.1904761904762 C 392.265460030168 136.1904761904762 393.66515837104197 136.1904761904762 396.46455505279 136.1904761904762 C 399.26395173453795 136.1904761904762 400.66365007541197 136.1904761904762 403.46304675716 136.1904761904762 C 406.26244343891193 136.1904761904762 407.662141779788 136.1904761904762 410.46153846154 136.1904761904762 C 413.26093514328807 136.1904761904762 414.660633484162 167.14285714285714 417.46003016591 167.14285714285714 C 420.259426847662 167.14285714285714 421.65912518853804 167.14285714285714 424.45852187029 167.14285714285714 C 427.25791855203795 167.14285714285714 428.657616892912 167.14285714285714 431.45701357466 167.14285714285714 C 434.256410256408 167.14285714285714 435.656108597282 185.71428571429178 438.45550527903 198.0952380952381 C 444.05429864253 222.8571428571489 446.85369532427995 260 452.45248868778 260 C 455.2518853695319 260 459.45098039216 260 459.45098039216 260" class="highcharts-graph" data-z-index="1" stroke="#000000" stroke-width="2" stroke-linejoin="round" stroke-linecap="round"></path></g><g data-z-index="0.1" class="highcharts-markers highcharts-series-0 highcharts-spline-series highcharts-color-0 " transform="translate(68,63) scale(1 1)" clip-path="none"></g><g data-z-index="0.1" class="highcharts-series highcharts-series-1 highcharts-spline-series highcharts-color-1 " transform="translate(68,63) scale(1 1)" clip-path="url(#highcharts-2u921o7-271)"><path fill="none" d="M 4.5490196078431 118.39285714285711 C 4.5490196078431 118.39285714285711 8.748114630467441 118.39285714285711 11.547511312217 109.6875 C 14.346907993966601 100.98214285714289 15.746606334841402 69.0625 18.546003016591 58.90625 C 21.3453996983406 48.75 22.7450980392154 48.75 25.544494720965 48.75 C 28.343891402714597 48.75 29.743589743589403 48.75 32.542986425339 48.75 C 35.3423831070886 48.75 36.7420814479634 48.75 39.541478129713 56.87499999999997 C 42.3408748114626 64.99999999999994 43.740573152337404 103.59375000000115 46.539969834087 119.84375 C 49.339366515837 136.09375000000117 50.739064856712005 138.125 53.538461538462 138.125 C 56.3378582202116 138.125 57.7375565610864 79.21875 60.536953242836 79.21875 C 63.336349924585605 79.21875 64.7360482654604 89.375 67.53544494721 89.375 C 70.3348416289596 89.375 71.7345399698344 79.21875 74.533936651584 79.21875 C 77.3333333333336 79.21875 78.7330316742084 89.41193181818184 81.532428355958 93.06818181818184 C 84.3318250377076 96.72443181818184 85.7315233785824 93.06818181818184 88.530920060332 97.49999999999997 C 91.33031674208159 101.9318181818181 92.7300150829564 186.875 95.529411764706 186.875 C 98.32880844645561 186.875 99.7285067873304 180.37500000000512 102.52790346908 162.5 C 105.327300150828 144.62500000000512 106.72699849170199 97.49999999999997 109.52639517345 97.49999999999997 C 112.32579185520198 97.49999999999997 113.725490196078 130 116.52488687783 130 C 119.32428355957799 130 120.723981900452 130 123.5233785822 130 C 126.32277526395201 130 127.722473604828 86.4732142857143 130.52187028658 79.21875 C 133.321266968328 71.9642857142857 134.72096530920197 71.9642857142857 137.52036199095 71.9642857142857 C 140.319758672698 71.9642857142857 141.719457013572 89.375 144.51885369532 89.375 C 147.318250377072 89.375 148.717948717948 79.21875 151.5173453997 79.21875 C 154.316742081448 79.21875 155.716440422322 130 158.51583710407 130 C 161.315233785822 130 162.714932126698 71.9642857142857 165.51432880845 71.9642857142857 C 168.313725490198 71.9642857142857 169.71342383107202 79.21875 172.51282051282 79.21875 C 175.31221719456803 79.21875 176.711915535442 79.21875 179.51131221719 79.21875 C 182.31070889894198 79.21875 183.710407239818 71.9642857142857 186.50980392157 71.9642857142857 C 189.309200603318 71.9642857142857 190.70889894419201 178.75 193.50829562594 178.75 C 196.307692307692 178.75 197.70739064856804 174.95833333334596 200.50678733032 157.08333333333334 C 203.30618401206803 139.20833333334596 204.70588235294198 89.375 207.50527903469 89.375 C 210.304675716438 89.375 211.704374057312 130 214.50377073906 130 C 217.303167420812 130 218.702865761688 79.21875 221.50226244344 79.21875 C 224.301659125188 79.21875 225.701357466062 112.03125000002197 228.50075414781 142.5 C 231.30015082956203 172.96875000002197 232.69984917043797 231.5625 235.49924585219 231.5625 C 238.298642533938 231.5625 239.698340874812 93.88888888888889 242.49773755656 89.375 C 245.297134238312 84.86111111111111 246.696832579188 89.375 249.49622926094 84.86111111111111 C 252.295625942688 80.34722222222223 253.695324283562 66.80555555555554 256.49472096531 66.80555555555554 C 259.294117647058 66.80555555555554 260.693815987932 66.80555555555554 263.49321266968 69.0625 C 266.292609351432 71.31944444444446 267.692307692308 93.88888888888886 270.49170437406 93.88888888888886 C 273.29110105580804 93.88888888888886 274.690799396682 84.86111111111111 277.49019607843 84.86111111111111 C 280.289592760182 84.86111111111111 281.689291101058 88.47222222221569 284.48868778281 97.49999999999997 C 287.288084464558 106.52777777777123 288.687782805432 109.95833333333334 291.48717948718 130 C 294.28657616892804 150.04166666666669 295.68627450980205 197.70833333333334 298.48567119155 197.70833333333334 C 301.285067873302 197.70833333333334 302.684766214178 168.30357142857954 305.48416289593 157.08333333333334 C 308.283559577678 145.86309523810334 309.683257918552 147.02380952380565 312.4826546003 141.60714285714283 C 315.282051282052 136.1904761904723 316.681749622928 140.446428571436 319.48114630468 130 C 322.28054298642803 119.55357142857886 323.68024132730204 89.375 326.47963800905 89.375 C 329.279034690798 89.375 330.678733031672 113.75000000001154 333.47812971342 130 C 336.277526395172 146.25000000001154 337.677224736048 170.625 340.4766214178 170.625 C 343.27601809954797 170.625 344.675716440422 62.291666666666686 347.47511312217 62.291666666666686 C 350.27450980392194 62.291666666666686 351.674208144798 130 354.47360482655 130 C 357.273001508298 130 358.67269984917203 130 361.47209653092 130 C 366.921199932964 130 369.64575163398604 211.25 375.09485503603 211.25 C 375.24454499748606 211.25 375.319389978214 157.08333333333326 375.46907993967 143.54166666666663 C 378.268476621418 130 379.668174962292 143.54166666666663 382.46757164404 130 C 385.266968325792 116.45833333333337 386.666666666668 62.291666666666686 389.46606334842 62.291666666666686 C 392.265460030168 62.291666666666686 393.66515837104197 130 396.46455505279 130 C 399.26395173453795 130 400.66365007541197 130 403.46304675716 130 C 406.26244343891193 130 407.662141779788 130 410.46153846154 130 C 413.26093514328807 130 414.660633484162 130 417.46003016591 130 C 420.259426847662 130 421.65912518853804 130 424.45852187029 130 C 427.25791855203795 130 428.657616892912 48.75 431.45701357466 48.75 C 434.256410256408 48.75 435.656108597282 130 438.45550527903 130 C 444.05429864253 130 446.85369532427995 130 452.45248868778 130 C 455.2518853695319 130 459.45098039216 130 459.45098039216 130" class="highcharts-graph" data-z-index="1" stroke="#5D83FF" stroke-width="2" stroke-linejoin="round" stroke-linecap="round"></path></g><g data-z-index="0.1" class="highcharts-markers highcharts-series-1 highcharts-spline-series highcharts-color-1 " transform="translate(68,63) scale(1 1)" clip-path="none"></g></g><text x="300" text-anchor="middle" class="highcharts-title" data-z-index="4" style="color:#333333;font-size:18px;fill:#333333;" y="24"><tspan>Opti-Men Multivitamin &amp; Overall Mood Over Time</tspan></text><text x="300" text-anchor="middle" class="highcharts-subtitle" data-z-index="4" style="color:#666666;fill:#666666;" y="46"><tspan>Black represents the mean of Opti-men Multivitamin over the previous 7 days</tspan></text><g class="highcharts-legend" data-z-index="7" transform="translate(97,358)"><rect fill="none" class="highcharts-legend-box" rx="0" ry="0" x="0" y="0" width="407" height="27" visibility="visible"></rect><g data-z-index="1"><g><g class="highcharts-legend-item highcharts-spline-series highcharts-color-0 highcharts-series-0" data-z-index="1" transform="translate(8,3)"><path fill="none" d="M 0 11 L 16 11" class="highcharts-graph" stroke="#000000" stroke-width="2"></path><path fill="#000000" d="M 12 11 A 4 4 0 1 1 11.999998000000167 10.996000000666664 Z" class="highcharts-point"></path><text x="21" style="color:#333333;font-size:12px;font-weight:bold;cursor:pointer;fill:#333333;" text-anchor="start" data-z-index="2" y="15"><tspan>Opti-men Multivitamin (tablets)</tspan></text></g><g class="highcharts-legend-item highcharts-spline-series highcharts-color-1 highcharts-series-1" data-z-index="1" transform="translate(259,3)"><path fill="none" d="M 0 11 L 16 11" class="highcharts-graph" stroke="#5D83FF" stroke-width="2"></path><path fill="#5D83FF" d="M 8 7 L 12 11 8 15 4 11 Z" class="highcharts-point"></path><text x="21" y="15" style="color:#333333;font-size:12px;font-weight:bold;cursor:pointer;fill:#333333;" text-anchor="start" data-z-index="2"><tspan>Overall Mood (/5)</tspan></text></g></g></g></g><g class="highcharts-axis-labels highcharts-xaxis-labels " data-z-index="7"><text x="131.1627283392" style="color:#666666;cursor:default;font-size:11px;fill:#666666;" text-anchor="start" transform="translate(0,0)" y="342" opacity="1"><tspan>4. Mar</tspan></text><text x="229.14161220044" style="color:#666666;cursor:default;font-size:11px;fill:#666666;" text-anchor="start" transform="translate(0,0)" y="342" opacity="1"><tspan>18. Mar</tspan></text><text x="327.12049606167" style="color:#666666;cursor:default;font-size:11px;fill:#666666;" text-anchor="start" transform="translate(0,0)" y="342" opacity="1"><tspan>1. Apr</tspan></text><text x="425.09937992291" style="color:#666666;cursor:default;font-size:11px;fill:#666666;" text-anchor="start" transform="translate(0,0)" y="342" opacity="1"><tspan>15. Apr</tspan></text><text x="523.07826378415" style="color:#666666;cursor:default;font-size:11px;fill:#666666;" text-anchor="start" transform="translate(0,0)" y="342" opacity="1"><tspan>29. Apr</tspan></text></g><g class="highcharts-axis-labels highcharts-yaxis-labels " data-z-index="7"><text x="53" style="color:#666666;cursor:default;font-size:11px;fill:#666666;" text-anchor="end" transform="translate(0,0)" y="327" opacity="1">0</text><text x="53" style="color:#666666;cursor:default;font-size:11px;fill:#666666;" text-anchor="end" transform="translate(0,0)" y="262" opacity="1">0.3</text><text x="53" style="color:#666666;cursor:default;font-size:11px;fill:#666666;" text-anchor="end" transform="translate(0,0)" y="197" opacity="1">0.6</text><text x="53" style="color:#666666;cursor:default;font-size:11px;fill:#666666;" text-anchor="end" transform="translate(0,0)" y="132" opacity="1">0.9</text><text x="53" style="color:#666666;cursor:default;font-size:11px;fill:#666666;" text-anchor="end" transform="translate(0,0)" y="67" opacity="1">1.2</text></g><g class="highcharts-axis-labels highcharts-yaxis-labels " data-z-index="7"><text x="547" style="color:#666666;cursor:default;font-size:11px;fill:#666666;" text-anchor="start" transform="translate(0,0)" y="327" opacity="1">2.4</text><text x="547" style="color:#666666;cursor:default;font-size:11px;fill:#666666;" text-anchor="start" transform="translate(0,0)" y="262" opacity="1">3.2</text><text x="547" style="color:#666666;cursor:default;font-size:11px;fill:#666666;" text-anchor="start" transform="translate(0,0)" y="197" opacity="1">4</text><text x="547" style="color:#666666;cursor:default;font-size:11px;fill:#666666;" text-anchor="start" transform="translate(0,0)" y="132" opacity="1">4.8</text><text x="547" style="color:#666666;cursor:default;font-size:11px;fill:#666666;" text-anchor="start" transform="translate(0,0)" y="67" opacity="1">5.6</text></g><a xlink:href="https://quantimo.do" target="_blank">
                    <text x="590" class="highcharts-credits" text-anchor="end" data-z-index="8"
                          style="cursor:pointer;color:#999999;font-size:9px;fill:#999999;" y="395">https://quantimo.do
                    </text>
                </a></svg>