<?xml version="1.0" standalone="no"?><!DOCTYPE svg PUBLIC "-//W3C//DTD SVG 1.1//EN" "http://www.w3.org/Graphics/SVG/1.1/DTD/svg11.dtd"><svg xmlns:xlink="http://www.w3.org/1999/xlink" version="1.1" class="highcharts-root" style="font-family:&quot;Lucida Grande&quot;, &quot;Lucida Sans Unicode&quot;, Arial, Helvetica, sans-serif;font-size:12px;" xmlns="http://www.w3.org/2000/svg" width="600" height="300"><desc>Created with Highstock 6.2.0</desc><defs><clipPath id="highcharts-ompklv7-37"><rect x="0" y="0" width="500" height="127" fill="none"></rect></clipPath><clipPath id="highcharts-ompklv7-68"><rect x="0" y="0" width="500" height="127" fill="none"></rect></clipPath><clipPath id="highcharts-ompklv7-69"><rect x="90" y="99" width="500" height="127" fill="none"></rect></clipPath></defs><rect fill="#ffffff" class="highcharts-background" x="0" y="0" width="600" height="300" rx="0" ry="0"></rect><rect fill="none" class="highcharts-plot-background" x="90" y="99" width="500" height="127"></rect><g class="highcharts-pane-group" data-z-index="0"></g><g class="highcharts-grid highcharts-xaxis-grid " data-z-index="1"><path fill="none" data-z-index="1" class="highcharts-grid-line" d="M 97.5 99 L 97.5 226" opacity="1"></path><path fill="none" data-z-index="1" class="highcharts-grid-line" d="M 131.5 99 L 131.5 226" opacity="1"></path><path fill="none" data-z-index="1" class="highcharts-grid-line" d="M 164.5 99 L 164.5 226" opacity="1"></path><path fill="none" data-z-index="1" class="highcharts-grid-line" d="M 197.5 99 L 197.5 226" opacity="1"></path><path fill="none" data-z-index="1" class="highcharts-grid-line" d="M 231.5 99 L 231.5 226" opacity="1"></path><path fill="none" data-z-index="1" class="highcharts-grid-line" d="M 264.5 99 L 264.5 226" opacity="1"></path><path fill="none" data-z-index="1" class="highcharts-grid-line" d="M 297.5 99 L 297.5 226" opacity="1"></path><path fill="none" data-z-index="1" class="highcharts-grid-line" d="M 331.5 99 L 331.5 226" opacity="1"></path><path fill="none" data-z-index="1" class="highcharts-grid-line" d="M 364.5 99 L 364.5 226" opacity="1"></path><path fill="none" data-z-index="1" class="highcharts-grid-line" d="M 397.5 99 L 397.5 226" opacity="1"></path><path fill="none" data-z-index="1" class="highcharts-grid-line" d="M 431.5 99 L 431.5 226" opacity="1"></path><path fill="none" data-z-index="1" class="highcharts-grid-line" d="M 464.5 99 L 464.5 226" opacity="1"></path><path fill="none" data-z-index="1" class="highcharts-grid-line" d="M 497.5 99 L 497.5 226" opacity="1"></path><path fill="none" data-z-index="1" class="highcharts-grid-line" d="M 531.5 99 L 531.5 226" opacity="1"></path><path fill="none" data-z-index="1" class="highcharts-grid-line" d="M 564.5 99 L 564.5 226" opacity="1"></path></g><g class="highcharts-grid highcharts-yaxis-grid " data-z-index="1"><path fill="none" stroke="#e6e6e6" stroke-width="1" data-z-index="1" class="highcharts-grid-line" d="M 90 226.5 L 590 226.5" opacity="1"></path><path fill="none" stroke="#e6e6e6" stroke-width="1" data-z-index="1" class="highcharts-grid-line" d="M 90 194.5 L 590 194.5" opacity="1"></path><path fill="none" stroke="#e6e6e6" stroke-width="1" data-z-index="1" class="highcharts-grid-line" d="M 90 163.5 L 590 163.5" opacity="1"></path><path fill="none" stroke="#e6e6e6" stroke-width="1" data-z-index="1" class="highcharts-grid-line" d="M 90 131.5 L 590 131.5" opacity="1"></path><path fill="none" stroke="#e6e6e6" stroke-width="1" data-z-index="1" class="highcharts-grid-line" d="M 90 98.5 L 590 98.5" opacity="1"></path></g><rect fill="none" class="highcharts-plot-border" data-z-index="1" x="90" y="99" width="500" height="127"></rect><g class="highcharts-axis highcharts-xaxis " data-z-index="2"><path fill="none" class="highcharts-tick" stroke="#ccd6eb" stroke-width="1" d="M 97.5 226 L 97.5 236" opacity="1"></path><path fill="none" class="highcharts-tick" stroke="#ccd6eb" stroke-width="1" d="M 131.5 226 L 131.5 236" opacity="1"></path><path fill="none" class="highcharts-tick" stroke="#ccd6eb" stroke-width="1" d="M 164.5 226 L 164.5 236" opacity="1"></path><path fill="none" class="highcharts-tick" stroke="#ccd6eb" stroke-width="1" d="M 197.5 226 L 197.5 236" opacity="1"></path><path fill="none" class="highcharts-tick" stroke="#ccd6eb" stroke-width="1" d="M 231.5 226 L 231.5 236" opacity="1"></path><path fill="none" class="highcharts-tick" stroke="#ccd6eb" stroke-width="1" d="M 264.5 226 L 264.5 236" opacity="1"></path><path fill="none" class="highcharts-tick" stroke="#ccd6eb" stroke-width="1" d="M 297.5 226 L 297.5 236" opacity="1"></path><path fill="none" class="highcharts-tick" stroke="#ccd6eb" stroke-width="1" d="M 331.5 226 L 331.5 236" opacity="1"></path><path fill="none" class="highcharts-tick" stroke="#ccd6eb" stroke-width="1" d="M 364.5 226 L 364.5 236" opacity="1"></path><path fill="none" class="highcharts-tick" stroke="#ccd6eb" stroke-width="1" d="M 397.5 226 L 397.5 236" opacity="1"></path><path fill="none" class="highcharts-tick" stroke="#ccd6eb" stroke-width="1" d="M 431.5 226 L 431.5 236" opacity="1"></path><path fill="none" class="highcharts-tick" stroke="#ccd6eb" stroke-width="1" d="M 464.5 226 L 464.5 236" opacity="1"></path><path fill="none" class="highcharts-tick" stroke="#ccd6eb" stroke-width="1" d="M 497.5 226 L 497.5 236" opacity="1"></path><path fill="none" class="highcharts-tick" stroke="#ccd6eb" stroke-width="1" d="M 531.5 226 L 531.5 236" opacity="1"></path><path fill="none" class="highcharts-tick" stroke="#ccd6eb" stroke-width="1" d="M 564.5 226 L 564.5 236" opacity="1"></path><text x="340" data-z-index="7" text-anchor="middle" transform="translate(0,0)" class="highcharts-axis-title" style="color:#666666;fill:#666666;" y="281.40559159102156"><tspan>Average Daily BeyondPod Usage (Android) (Seconds)</tspan></text><path fill="none" class="highcharts-axis-line" stroke="#ccd6eb" stroke-width="1" data-z-index="7" d="M 90 226.5 L 590 226.5"></path></g><g class="highcharts-axis highcharts-yaxis " data-z-index="2"><text x="26" data-z-index="7" text-anchor="middle" transform="translate(0,0) rotate(270 26 162.5)" class="highcharts-axis-title" style="color:#666666;fill:#666666;" y="162.5"><tspan>Average Daily Overall</tspan><tspan dy="15" x="26">Mood (1 to 5 Rating)</tspan></text><path fill="none" class="highcharts-axis-line" data-z-index="7" d="M 90 99 L 90 226"></path></g><g class="highcharts-series-group" data-z-index="3"><g data-z-index="0.1" class="highcharts-series highcharts-series-0 highcharts-column-series highcharts-color-0 " transform="translate(90,99) scale(1 1)" clip-path="url(#highcharts-ompklv7-68)"><rect x="3.5" y="48.5" width="8" height="79" fill="#000000" stroke="#ffffff" stroke-width="1" class="highcharts-point highcharts-color-0"></rect><rect x="20.5" y="62.5" width="8" height="65" fill="#000000" stroke="#ffffff" stroke-width="1" class="highcharts-point highcharts-color-0"></rect><rect x="37.5" y="85.5" width="8" height="42" fill="#000000" stroke="#ffffff" stroke-width="1" class="highcharts-point highcharts-color-0"></rect><rect x="53.5" y="56.5" width="8" height="71" fill="#000000" stroke="#ffffff" stroke-width="1" class="highcharts-point highcharts-color-0"></rect><rect x="70.5" y="53.5" width="8" height="74" fill="#000000" stroke="#ffffff" stroke-width="1" class="highcharts-point highcharts-color-0"></rect><rect x="87.5" y="57.5" width="8" height="70" fill="#000000" stroke="#ffffff" stroke-width="1" class="highcharts-point highcharts-color-0"></rect><rect x="103.5" y="54.5" width="8" height="73" fill="#000000" stroke="#ffffff" stroke-width="1" class="highcharts-point highcharts-color-0"></rect><rect x="120.5" y="47.5" width="8" height="80" fill="#000000" stroke="#ffffff" stroke-width="1" class="highcharts-point highcharts-color-0"></rect><rect x="137.5" y="58.5" width="8" height="69" fill="#000000" stroke="#ffffff" stroke-width="1" class="highcharts-point highcharts-color-0"></rect><rect x="153.5" y="38.5" width="8" height="89" fill="#000000" stroke="#ffffff" stroke-width="1" class="highcharts-point highcharts-color-0"></rect><rect x="170.5" y="15.5" width="8" height="112" fill="#000000" stroke="#ffffff" stroke-width="1" class="highcharts-point highcharts-color-0"></rect><rect x="187.5" y="60.5" width="8" height="67" fill="#000000" stroke="#ffffff" stroke-width="1" class="highcharts-point highcharts-color-0"></rect><rect x="203.5" y="67.5" width="8" height="60" fill="#000000" stroke="#ffffff" stroke-width="1" class="highcharts-point highcharts-color-0"></rect><rect x="220.5" y="41.5" width="8" height="86" fill="#000000" stroke="#ffffff" stroke-width="1" class="highcharts-point highcharts-color-0"></rect><rect x="237.5" y="31.5" width="8" height="96" fill="#000000" stroke="#ffffff" stroke-width="1" class="highcharts-point highcharts-color-0"></rect><rect x="253.5" y="29.5" width="8" height="98" fill="#000000" stroke="#ffffff" stroke-width="1" class="highcharts-point highcharts-color-0"></rect><rect x="270.5" y="42.5" width="8" height="85" fill="#000000" stroke="#ffffff" stroke-width="1" class="highcharts-point highcharts-color-0"></rect><rect x="287.5" y="37.5" width="8" height="90" fill="#000000" stroke="#ffffff" stroke-width="1" class="highcharts-point highcharts-color-0"></rect><rect x="303.5" y="29.5" width="8" height="98" fill="#000000" stroke="#ffffff" stroke-width="1" class="highcharts-point highcharts-color-0"></rect><rect x="320.5" y="40.5" width="8" height="87" fill="#000000" stroke="#ffffff" stroke-width="1" class="highcharts-point highcharts-color-0"></rect><rect x="337.5" y="30.5" width="8" height="97" fill="#000000" stroke="#ffffff" stroke-width="1" class="highcharts-point highcharts-color-0"></rect><rect x="353.5" y="58.5" width="8" height="69" fill="#000000" stroke="#ffffff" stroke-width="1" class="highcharts-point highcharts-color-0"></rect><rect x="370.5" y="42.5" width="8" height="85" fill="#000000" stroke="#ffffff" stroke-width="1" class="highcharts-point highcharts-color-0"></rect><rect x="387.5" y="96.5" width="8" height="31" fill="#000000" stroke="#ffffff" stroke-width="1" class="highcharts-point highcharts-color-0"></rect><rect x="403.5" y="36.5" width="8" height="91" fill="#000000" stroke="#ffffff" stroke-width="1" class="highcharts-point highcharts-color-0"></rect><rect x="420.5" y="42.5" width="8" height="85" fill="#000000" stroke="#ffffff" stroke-width="1" class="highcharts-point highcharts-color-0"></rect><rect x="437.5" y="45.5" width="8" height="82" fill="#000000" stroke="#ffffff" stroke-width="1" class="highcharts-point highcharts-color-0"></rect><rect x="453.5" y="54.5" width="8" height="73" fill="#000000" stroke="#ffffff" stroke-width="1" class="highcharts-point highcharts-color-0"></rect><rect x="470.5" y="42.5" width="8" height="85" fill="#000000" stroke="#ffffff" stroke-width="1" class="highcharts-point highcharts-color-0"></rect><rect x="487.5" y="65.5" width="8" height="62" fill="#000000" stroke="#ffffff" stroke-width="1" class="highcharts-point highcharts-color-0"></rect></g><g data-z-index="0.1" class="highcharts-markers highcharts-series-0 highcharts-column-series highcharts-color-0 " transform="translate(90,99) scale(1 1)" clip-path="none"></g></g><text x="300" text-anchor="middle" class="highcharts-title" data-z-index="4" style="color:#333333;font-size:18px;fill:#333333;" y="24"><tspan>Average Overall Mood by Previous BeyondPod Usage</tspan><tspan dy="21" x="300">(Android)</tspan></text><text x="300" text-anchor="middle" class="highcharts-subtitle" data-z-index="4" style="color:#666666;fill:#666666;" y="67"><tspan>Typical values for Overall Mood following a given amount of BeyondPod Usage (Android) over</tspan><tspan dy="15" x="300">the previous 7 days.</tspan></text><g class="highcharts-axis-labels highcharts-xaxis-labels " data-z-index="7"><text x="100.92605819768367" style="color:#666666;cursor:default;font-size:11px;fill:#666666;" text-anchor="end" transform="translate(0,0) rotate(-45 100.92605819768367 242)" y="242" opacity="1">0</text><text x="134.2593915310207" style="color:#666666;cursor:default;font-size:11px;fill:#666666;" text-anchor="end" transform="translate(0,0) rotate(-45 134.2593915310207 242)" y="242" opacity="1">3</text><text x="167.59272486435069" style="color:#666666;cursor:default;font-size:11px;fill:#666666;" text-anchor="end" transform="translate(0,0) rotate(-45 167.59272486435069 242)" y="242" opacity="1">5</text><text x="200.92605819768067" style="color:#666666;cursor:default;font-size:11px;fill:#666666;" text-anchor="end" transform="translate(0,0) rotate(-45 200.92605819768067 242)" y="242" opacity="1">8</text><text x="234.2593915310207" style="color:#666666;cursor:default;font-size:11px;fill:#666666;" text-anchor="end" transform="translate(0,0) rotate(-45 234.2593915310207 242)" y="242" opacity="1">20</text><text x="267.59272486435066" style="color:#666666;cursor:default;font-size:11px;fill:#666666;" text-anchor="end" transform="translate(0,0) rotate(-45 267.59272486435066 242)" y="242" opacity="1">40</text><text x="300.9260581976807" style="color:#666666;cursor:default;font-size:11px;fill:#666666;" text-anchor="end" transform="translate(0,0) rotate(-45 300.9260581976807 242)" y="242" opacity="1">60</text><text x="334.25939153102064" style="color:#666666;cursor:default;font-size:11px;fill:#666666;" text-anchor="end" transform="translate(0,0) rotate(-45 334.25939153102064 242)" y="242" opacity="1">80</text><text x="367.59272486435066" style="color:#666666;cursor:default;font-size:11px;fill:#666666;" text-anchor="end" transform="translate(0,0) rotate(-45 367.59272486435066 242)" y="242" opacity="1">100</text><text x="400.9260581976807" style="color:#666666;cursor:default;font-size:11px;fill:#666666;" text-anchor="end" transform="translate(0,0) rotate(-45 400.9260581976807 242)" y="242" opacity="1">300</text><text x="434.25939153102064" style="color:#666666;cursor:default;font-size:11px;fill:#666666;" text-anchor="end" transform="translate(0,0) rotate(-45 434.25939153102064 242)" y="242" opacity="1">500</text><text x="467.59272486435066" style="color:#666666;cursor:default;font-size:11px;fill:#666666;" text-anchor="end" transform="translate(0,0) rotate(-45 467.59272486435066 242)" y="242" opacity="1">700</text><text x="500.9260581976807" style="color:#666666;cursor:default;font-size:11px;fill:#666666;" text-anchor="end" transform="translate(0,0) rotate(-45 500.9260581976807 242)" y="242" opacity="1">900</text><text x="534.2593915310207" style="color:#666666;cursor:default;font-size:11px;fill:#666666;" text-anchor="end" transform="translate(0,0) rotate(-45 534.2593915310207 242)" y="242" opacity="1">2000</text><text x="567.5927248643507" style="color:#666666;cursor:default;font-size:11px;fill:#666666;" text-anchor="end" transform="translate(0,0) rotate(-45 567.5927248643507 242)" y="242" opacity="1">4000</text></g><g class="highcharts-axis-labels highcharts-yaxis-labels " data-z-index="7"><text x="75" style="color:#666666;cursor:default;font-size:11px;fill:#666666;" text-anchor="end" transform="translate(0,0)" y="230" opacity="1">2.25</text><text x="75" style="color:#666666;cursor:default;font-size:11px;fill:#666666;" text-anchor="end" transform="translate(0,0)" y="198" opacity="1">2.5</text><text x="75" style="color:#666666;cursor:default;font-size:11px;fill:#666666;" text-anchor="end" transform="translate(0,0)" y="166" opacity="1">2.75</text><text x="75" style="color:#666666;cursor:default;font-size:11px;fill:#666666;" text-anchor="end" transform="translate(0,0)" y="134" opacity="1">3</text><text x="75" style="color:#666666;cursor:default;font-size:11px;fill:#666666;" text-anchor="end" transform="translate(0,0)" y="103" opacity="1">3.25</text></g><a xlink:href="https://quantimo.do" target="_blank">
                    <text x="590" class="highcharts-credits" text-anchor="end" data-z-index="8"
                          style="cursor:pointer;color:#999999;font-size:9px;fill:#999999;" y="295">https://quantimo.do
                    </text>
                </a></svg>