<?xml version="1.0" standalone="no"?><!DOCTYPE svg PUBLIC "-//W3C//DTD SVG 1.1//EN" "http://www.w3.org/Graphics/SVG/1.1/DTD/svg11.dtd"><svg xmlns:xlink="http://www.w3.org/1999/xlink" version="1.1" class="highcharts-root" style="font-family:&quot;Lucida Grande&quot;, &quot;Lucida Sans Unicode&quot;, Arial, Helvetica, sans-serif;font-size:12px;" xmlns="http://www.w3.org/2000/svg" width="600" height="400"><desc>Created with Highstock 6.2.0</desc><defs><clipPath id="highcharts-simk9ll-283"><rect x="0" y="0" width="532" height="263" fill="none"></rect></clipPath><clipPath id="highcharts-simk9ll-560"><rect x="0" y="0" width="532" height="263" fill="none"></rect></clipPath><clipPath id="highcharts-simk9ll-561"><rect x="58" y="78" width="532" height="263" fill="none"></rect></clipPath></defs><rect fill="#ffffff" class="highcharts-background" x="0" y="0" width="600" height="400" rx="0" ry="0"></rect><rect fill="none" class="highcharts-plot-background" x="58" y="78" width="532" height="263"></rect><g class="highcharts-pane-group" data-z-index="0"></g><g class="highcharts-grid highcharts-xaxis-grid " data-z-index="1"><path fill="none" data-z-index="1" class="highcharts-grid-line" d="M 62.5 78 L 62.5 341" opacity="1"></path><path fill="none" data-z-index="1" class="highcharts-grid-line" d="M 160.5 78 L 160.5 341" opacity="1"></path><path fill="none" data-z-index="1" class="highcharts-grid-line" d="M 258.5 78 L 258.5 341" opacity="1"></path><path fill="none" data-z-index="1" class="highcharts-grid-line" d="M 356.5 78 L 356.5 341" opacity="1"></path><path fill="none" data-z-index="1" class="highcharts-grid-line" d="M 454.5 78 L 454.5 341" opacity="1"></path><path fill="none" data-z-index="1" class="highcharts-grid-line" d="M 552.5 78 L 552.5 341" opacity="1"></path></g><g class="highcharts-grid highcharts-yaxis-grid " data-z-index="1"><path fill="none" stroke="#e6e6e6" stroke-width="1" data-z-index="1" class="highcharts-grid-line" d="M 58 341.5 L 590 341.5" opacity="1"></path><path fill="none" stroke="#e6e6e6" stroke-width="1" data-z-index="1" class="highcharts-grid-line" d="M 58 297.5 L 590 297.5" opacity="1"></path><path fill="none" stroke="#e6e6e6" stroke-width="1" data-z-index="1" class="highcharts-grid-line" d="M 58 253.5 L 590 253.5" opacity="1"></path><path fill="none" stroke="#e6e6e6" stroke-width="1" data-z-index="1" class="highcharts-grid-line" d="M 58 210.5 L 590 210.5" opacity="1"></path><path fill="none" stroke="#e6e6e6" stroke-width="1" data-z-index="1" class="highcharts-grid-line" d="M 58 166.5 L 590 166.5" opacity="1"></path><path fill="none" stroke="#e6e6e6" stroke-width="1" data-z-index="1" class="highcharts-grid-line" d="M 58 122.5 L 590 122.5" opacity="1"></path><path fill="none" stroke="#e6e6e6" stroke-width="1" data-z-index="1" class="highcharts-grid-line" d="M 58 77.5 L 590 77.5" opacity="1"></path></g><rect fill="none" class="highcharts-plot-border" data-z-index="1" x="58" y="78" width="532" height="263"></rect><g class="highcharts-axis highcharts-xaxis " data-z-index="2"><path fill="none" class="highcharts-tick" stroke="#ccd6eb" stroke-width="1" d="M 62.5 341 L 62.5 351" opacity="1"></path><path fill="none" class="highcharts-tick" stroke="#ccd6eb" stroke-width="1" d="M 160.5 341 L 160.5 351" opacity="1"></path><path fill="none" class="highcharts-tick" stroke="#ccd6eb" stroke-width="1" d="M 258.5 341 L 258.5 351" opacity="1"></path><path fill="none" class="highcharts-tick" stroke="#ccd6eb" stroke-width="1" d="M 356.5 341 L 356.5 351" opacity="1"></path><path fill="none" class="highcharts-tick" stroke="#ccd6eb" stroke-width="1" d="M 454.5 341 L 454.5 351" opacity="1"></path><path fill="none" class="highcharts-tick" stroke="#ccd6eb" stroke-width="1" d="M 552.5 341 L 552.5 351" opacity="1"></path><text x="324" data-z-index="7" text-anchor="middle" transform="translate(0,0)" class="highcharts-axis-title" style="color:#666666;fill:#666666;" y="381"><tspan>BeyondPod Usage (Android) (s) over previous 7 days</tspan></text><path fill="none" class="highcharts-axis-line" stroke="#ccd6eb" stroke-width="1" data-z-index="7" d="M 58 341.5 L 590 341.5"></path></g><g class="highcharts-axis highcharts-yaxis " data-z-index="2"><text x="26" data-z-index="7" text-anchor="middle" transform="translate(0,0) rotate(270 26 209.5)" class="highcharts-axis-title" style="color:#666666;fill:#666666;" y="209.5"><tspan>Overall Mood (/5)</tspan></text><path fill="none" class="highcharts-axis-line" data-z-index="7" d="M 58 78 L 58 341"></path></g><g class="highcharts-series-group" data-z-index="3"><g data-z-index="0.1" class="highcharts-series highcharts-series-0 highcharts-scatter-series highcharts-color-0 " transform="translate(58,78) scale(1 1)" clip-path="url(#highcharts-simk9ll-560)"></g><g data-z-index="0.1" class="highcharts-markers highcharts-series-0 highcharts-scatter-series highcharts-color-0 " transform="translate(58,78) scale(1 1)" clip-path="none"><path fill="#000000" d="M 9 123 A 4 4 0 1 1 8.999998000000167 122.99600000066667 Z" class="highcharts-point highcharts-color-0"></path><path fill="#000000" d="M 11 141 A 4 4 0 1 1 10.999998000000167 140.99600000066667 Z" class="highcharts-point highcharts-color-0"></path><path fill="#000000" d="M 15 139 A 4 4 0 1 1 14.999998000000167 138.99600000066667 Z" class="highcharts-point highcharts-color-0"></path><path fill="#000000" d="M 15 132 A 4 4 0 1 1 14.999998000000167 131.99600000066667 Z" class="highcharts-point highcharts-color-0"></path><path fill="#000000" d="M 23 142 A 4 4 0 1 1 22.99999800000017 141.99600000066667 Z" class="highcharts-point highcharts-color-0"></path><path fill="#000000" d="M 28 146 A 4 4 0 1 1 27.99999800000017 145.99600000066667 Z" class="highcharts-point highcharts-color-0"></path><path fill="#000000" d="M 100 142 A 4 4 0 1 1 99.99999800000016 141.99600000066667 Z" class="highcharts-point highcharts-color-0"></path><path fill="#000000" d="M 102 132 A 4 4 0 1 1 101.99999800000016 131.99600000066667 Z" class="highcharts-point highcharts-color-0"></path><path fill="#000000" d="M 99 147 A 4 4 0 1 1 98.99999800000016 146.99600000066667 Z" class="highcharts-point highcharts-color-0"></path><path fill="#000000" d="M 96 132 A 4 4 0 1 1 95.99999800000016 131.99600000066667 Z" class="highcharts-point highcharts-color-0"></path><path fill="#000000" d="M 96 153 A 4 4 0 1 1 95.99999800000016 152.99600000066667 Z" class="highcharts-point highcharts-color-0"></path><path fill="#000000" d="M 83 132 A 4 4 0 1 1 82.99999800000016 131.99600000066667 Z" class="highcharts-point highcharts-color-0"></path><path fill="#000000" d="M 83 175 A 4 4 0 1 1 82.99999800000016 174.99600000066667 Z" class="highcharts-point highcharts-color-0"></path><path fill="#000000" d="M 19 161 A 4 4 0 1 1 18.99999800000017 160.99600000066667 Z" class="highcharts-point highcharts-color-0"></path><path fill="#000000" d="M 17 153 A 4 4 0 1 1 16.99999800000017 152.99600000066667 Z" class="highcharts-point highcharts-color-0"></path><path fill="#000000" d="M 17 167 A 4 4 0 1 1 16.99999800000017 166.99600000066667 Z" class="highcharts-point highcharts-color-0"></path><path fill="#000000" d="M 45 153 A 4 4 0 1 1 44.99999800000017 152.99600000066667 Z" class="highcharts-point highcharts-color-0"></path><path fill="#000000" d="M 45 161 A 4 4 0 1 1 44.99999800000017 160.99600000066667 Z" class="highcharts-point highcharts-color-0"></path><path fill="#000000" d="M 45 132 A 4 4 0 1 1 44.99999800000017 131.99600000066667 Z" class="highcharts-point highcharts-color-0"></path><path fill="#000000" d="M 45 132 A 4 4 0 1 1 44.99999800000017 131.99600000066667 Z" class="highcharts-point highcharts-color-0"></path><path fill="#000000" d="M 37 132 A 4 4 0 1 1 36.99999800000017 131.99600000066667 Z" class="highcharts-point highcharts-color-0"></path><path fill="#000000" d="M 37 132 A 4 4 0 1 1 36.99999800000017 131.99600000066667 Z" class="highcharts-point highcharts-color-0"></path><path fill="#000000" d="M 46 141 A 4 4 0 1 1 45.99999800000017 140.99600000066667 Z" class="highcharts-point highcharts-color-0"></path><path fill="#000000" d="M 18 132 A 4 4 0 1 1 17.99999800000017 131.99600000066667 Z" class="highcharts-point highcharts-color-0"></path><path fill="#000000" d="M 17 132 A 4 4 0 1 1 16.99999800000017 131.99600000066667 Z" class="highcharts-point highcharts-color-0"></path><path fill="#000000" d="M 20 135 A 4 4 0 1 1 19.99999800000017 134.99600000066667 Z" class="highcharts-point highcharts-color-0"></path><path fill="#000000" d="M 20 163 A 4 4 0 1 1 19.99999800000017 162.99600000066667 Z" class="highcharts-point highcharts-color-0"></path><path fill="#000000" d="M 20 144 A 4 4 0 1 1 19.99999800000017 143.99600000066667 Z" class="highcharts-point highcharts-color-0"></path><path fill="#000000" d="M 23 140 A 4 4 0 1 1 22.99999800000017 139.99600000066667 Z" class="highcharts-point highcharts-color-0"></path><path fill="#000000" d="M 23 142 A 4 4 0 1 1 22.99999800000017 141.99600000066667 Z" class="highcharts-point highcharts-color-0"></path><path fill="#000000" d="M 24 142 A 4 4 0 1 1 23.99999800000017 141.99600000066667 Z" class="highcharts-point highcharts-color-0"></path><path fill="#000000" d="M 25 139 A 4 4 0 1 1 24.99999800000017 138.99600000066667 Z" class="highcharts-point highcharts-color-0"></path><path fill="#000000" d="M 81 167 A 4 4 0 1 1 80.99999800000016 166.99600000066667 Z" class="highcharts-point highcharts-color-0"></path><path fill="#000000" d="M 87 159 A 4 4 0 1 1 86.99999800000016 158.99600000066667 Z" class="highcharts-point highcharts-color-0"></path><path fill="#000000" d="M 87 175 A 4 4 0 1 1 86.99999800000016 174.99600000066667 Z" class="highcharts-point highcharts-color-0"></path><path fill="#000000" d="M 84 134 A 4 4 0 1 1 83.99999800000016 133.99600000066667 Z" class="highcharts-point highcharts-color-0"></path><path fill="#000000" d="M 77 151 A 4 4 0 1 1 76.99999800000016 150.99600000066667 Z" class="highcharts-point highcharts-color-0"></path><path fill="#000000" d="M 75 151 A 4 4 0 1 1 74.99999800000016 150.99600000066667 Z" class="highcharts-point highcharts-color-0"></path><path fill="#000000" d="M 83 132 A 4 4 0 1 1 82.99999800000016 131.99600000066667 Z" class="highcharts-point highcharts-color-0"></path><path fill="#000000" d="M 58 132 A 4 4 0 1 1 57.99999800000017 131.99600000066667 Z" class="highcharts-point highcharts-color-0"></path><path fill="#000000" d="M 52 138 A 4 4 0 1 1 51.99999800000017 137.99600000066667 Z" class="highcharts-point highcharts-color-0"></path><path fill="#000000" d="M 60 132 A 4 4 0 1 1 59.99999800000017 131.99600000066667 Z" class="highcharts-point highcharts-color-0"></path><path fill="#000000" d="M 65 132 A 4 4 0 1 1 64.99999800000016 131.99600000066667 Z" class="highcharts-point highcharts-color-0"></path><path fill="#000000" d="M 95 132 A 4 4 0 1 1 94.99999800000016 131.99600000066667 Z" class="highcharts-point highcharts-color-0"></path><path fill="#000000" d="M 95 153 A 4 4 0 1 1 94.99999800000016 152.99600000066667 Z" class="highcharts-point highcharts-color-0"></path><path fill="#000000" d="M 86 134 A 4 4 0 1 1 85.99999800000016 133.99600000066667 Z" class="highcharts-point highcharts-color-0"></path><path fill="#000000" d="M 52 170 A 4 4 0 1 1 51.99999800000017 169.99600000066667 Z" class="highcharts-point highcharts-color-0"></path><path fill="#000000" d="M 52 179 A 4 4 0 1 1 51.99999800000017 178.99600000066667 Z" class="highcharts-point highcharts-color-0"></path><path fill="#000000" d="M 96 167 A 4 4 0 1 1 95.99999800000016 166.99600000066667 Z" class="highcharts-point highcharts-color-0"></path><path fill="#000000" d="M 92 141 A 4 4 0 1 1 91.99999800000016 140.99600000066667 Z" class="highcharts-point highcharts-color-0"></path><path fill="#000000" d="M 61 141 A 4 4 0 1 1 60.99999800000017 140.99600000066667 Z" class="highcharts-point highcharts-color-0"></path><path fill="#000000" d="M 66 143 A 4 4 0 1 1 65.99999800000016 142.99600000066667 Z" class="highcharts-point highcharts-color-0"></path><path fill="#000000" d="M 66 138 A 4 4 0 1 1 65.99999800000016 137.99600000066667 Z" class="highcharts-point highcharts-color-0"></path><path fill="#000000" d="M 89 132 A 4 4 0 1 1 88.99999800000016 131.99600000066667 Z" class="highcharts-point highcharts-color-0"></path><path fill="#000000" d="M 124 162 A 4 4 0 1 1 123.99999800000016 161.99600000066667 Z" class="highcharts-point highcharts-color-0"></path><path fill="#000000" d="M 80 145 A 4 4 0 1 1 79.99999800000016 144.99600000066667 Z" class="highcharts-point highcharts-color-0"></path><path fill="#000000" d="M 80 150 A 4 4 0 1 1 79.99999800000016 149.99600000066667 Z" class="highcharts-point highcharts-color-0"></path><path fill="#000000" d="M 80 132 A 4 4 0 1 1 79.99999800000016 131.99600000066667 Z" class="highcharts-point highcharts-color-0"></path><path fill="#000000" d="M 102 132 A 4 4 0 1 1 101.99999800000016 131.99600000066667 Z" class="highcharts-point highcharts-color-0"></path><path fill="#000000" d="M 102 132 A 4 4 0 1 1 101.99999800000016 131.99600000066667 Z" class="highcharts-point highcharts-color-0"></path><path fill="#000000" d="M 79 146 A 4 4 0 1 1 78.99999800000016 145.99600000066667 Z" class="highcharts-point highcharts-color-0"></path><path fill="#000000" d="M 52 127 A 4 4 0 1 1 51.99999800000017 126.99600000066667 Z" class="highcharts-point highcharts-color-0"></path><path fill="#000000" d="M 53 134 A 4 4 0 1 1 52.99999800000017 133.99600000066667 Z" class="highcharts-point highcharts-color-0"></path><path fill="#000000" d="M 54 132 A 4 4 0 1 1 53.99999800000017 131.99600000066667 Z" class="highcharts-point highcharts-color-0"></path><path fill="#000000" d="M 53 132 A 4 4 0 1 1 52.99999800000017 131.99600000066667 Z" class="highcharts-point highcharts-color-0"></path><path fill="#000000" d="M 27 132 A 4 4 0 1 1 26.99999800000017 131.99600000066667 Z" class="highcharts-point highcharts-color-0"></path><path fill="#000000" d="M 27 132 A 4 4 0 1 1 26.99999800000017 131.99600000066667 Z" class="highcharts-point highcharts-color-0"></path><path fill="#000000" d="M 26 132 A 4 4 0 1 1 25.99999800000017 131.99600000066667 Z" class="highcharts-point highcharts-color-0"></path><path fill="#000000" d="M 19 132 A 4 4 0 1 1 18.99999800000017 131.99600000066667 Z" class="highcharts-point highcharts-color-0"></path><path fill="#000000" d="M 10 132 A 4 4 0 1 1 9.999998000000167 131.99600000066667 Z" class="highcharts-point highcharts-color-0"></path><path fill="#000000" d="M 9 132 A 4 4 0 1 1 8.999998000000167 131.99600000066667 Z" class="highcharts-point highcharts-color-0"></path><path fill="#000000" d="M 11 125 A 4 4 0 1 1 10.999998000000167 124.99600000066667 Z" class="highcharts-point highcharts-color-0"></path><path fill="#000000" d="M 16 132 A 4 4 0 1 1 15.999998000000167 131.99600000066667 Z" class="highcharts-point highcharts-color-0"></path><path fill="#000000" d="M 16 132 A 4 4 0 1 1 15.999998000000167 131.99600000066667 Z" class="highcharts-point highcharts-color-0"></path><path fill="#000000" d="M 16 132 A 4 4 0 1 1 15.999998000000167 131.99600000066667 Z" class="highcharts-point highcharts-color-0"></path><path fill="#000000" d="M 16 134 A 4 4 0 1 1 15.999998000000167 133.99600000066667 Z" class="highcharts-point highcharts-color-0"></path><path fill="#000000" d="M 16 129 A 4 4 0 1 1 15.999998000000167 128.99600000066667 Z" class="highcharts-point highcharts-color-0"></path><path fill="#000000" d="M 16 132 A 4 4 0 1 1 15.999998000000167 131.99600000066667 Z" class="highcharts-point highcharts-color-0"></path><path fill="#000000" d="M 14 141 A 4 4 0 1 1 13.999998000000167 140.99600000066667 Z" class="highcharts-point highcharts-color-0"></path><path fill="#000000" d="M 9 132 A 4 4 0 1 1 8.999998000000167 131.99600000066667 Z" class="highcharts-point highcharts-color-0"></path><path fill="#000000" d="M 9 132 A 4 4 0 1 1 8.999998000000167 131.99600000066667 Z" class="highcharts-point highcharts-color-0"></path><path fill="#000000" d="M 9 132 A 4 4 0 1 1 8.999998000000167 131.99600000066667 Z" class="highcharts-point highcharts-color-0"></path><path fill="#000000" d="M 9 132 A 4 4 0 1 1 8.999998000000167 131.99600000066667 Z" class="highcharts-point highcharts-color-0"></path><path fill="#000000" d="M 32 132 A 4 4 0 1 1 31.99999800000017 131.99600000066667 Z" class="highcharts-point highcharts-color-0"></path><path fill="#000000" d="M 32 132 A 4 4 0 1 1 31.99999800000017 131.99600000066667 Z" class="highcharts-point highcharts-color-0"></path><path fill="#000000" d="M 55 132 A 4 4 0 1 1 54.99999800000017 131.99600000066667 Z" class="highcharts-point highcharts-color-0"></path><path fill="#000000" d="M 56 132 A 4 4 0 1 1 55.99999800000017 131.99600000066667 Z" class="highcharts-point highcharts-color-0"></path><path fill="#000000" d="M 56 140 A 4 4 0 1 1 55.99999800000017 139.99600000066667 Z" class="highcharts-point highcharts-color-0"></path><path fill="#000000" d="M 56 132 A 4 4 0 1 1 55.99999800000017 131.99600000066667 Z" class="highcharts-point highcharts-color-0"></path><path fill="#000000" d="M 97 141 A 4 4 0 1 1 96.99999800000016 140.99600000066667 Z" class="highcharts-point highcharts-color-0"></path><path fill="#000000" d="M 74 132 A 4 4 0 1 1 73.99999800000016 131.99600000066667 Z" class="highcharts-point highcharts-color-0"></path><path fill="#000000" d="M 74 139 A 4 4 0 1 1 73.99999800000016 138.99600000066667 Z" class="highcharts-point highcharts-color-0"></path><path fill="#000000" d="M 51 168 A 4 4 0 1 1 50.99999800000017 167.99600000066667 Z" class="highcharts-point highcharts-color-0"></path><path fill="#000000" d="M 51 145 A 4 4 0 1 1 50.99999800000017 144.99600000066667 Z" class="highcharts-point highcharts-color-0"></path><path fill="#000000" d="M 50 139 A 4 4 0 1 1 49.99999800000017 138.99600000066667 Z" class="highcharts-point highcharts-color-0"></path><path fill="#000000" d="M 50 132 A 4 4 0 1 1 49.99999800000017 131.99600000066667 Z" class="highcharts-point highcharts-color-0"></path><path fill="#000000" d="M 9 138 A 4 4 0 1 1 8.999998000000167 137.99600000066667 Z" class="highcharts-point highcharts-color-0"></path><path fill="#000000" d="M 9 132 A 4 4 0 1 1 8.999998000000167 131.99600000066667 Z" class="highcharts-point highcharts-color-0"></path><path fill="#000000" d="M 9 146 A 4 4 0 1 1 8.999998000000167 145.99600000066667 Z" class="highcharts-point highcharts-color-0"></path><path fill="#000000" d="M 9 139 A 4 4 0 1 1 8.999998000000167 138.99600000066667 Z" class="highcharts-point highcharts-color-0"></path><path fill="#000000" d="M 9 136 A 4 4 0 1 1 8.999998000000167 135.99600000066667 Z" class="highcharts-point highcharts-color-0"></path><path fill="#000000" d="M 30 132 A 4 4 0 1 1 29.99999800000017 131.99600000066667 Z" class="highcharts-point highcharts-color-0"></path><path fill="#000000" d="M 31 132 A 4 4 0 1 1 30.99999800000017 131.99600000066667 Z" class="highcharts-point highcharts-color-0"></path><path fill="#000000" d="M 31 148 A 4 4 0 1 1 30.99999800000017 147.99600000066667 Z" class="highcharts-point highcharts-color-0"></path><path fill="#000000" d="M 31 132 A 4 4 0 1 1 30.99999800000017 131.99600000066667 Z" class="highcharts-point highcharts-color-0"></path><path fill="#000000" d="M 31 132 A 4 4 0 1 1 30.99999800000017 131.99600000066667 Z" class="highcharts-point highcharts-color-0"></path><path fill="#000000" d="M 31 132 A 4 4 0 1 1 30.99999800000017 131.99600000066667 Z" class="highcharts-point highcharts-color-0"></path><path fill="#000000" d="M 31 132 A 4 4 0 1 1 30.99999800000017 131.99600000066667 Z" class="highcharts-point highcharts-color-0"></path><path fill="#000000" d="M 10 132 A 4 4 0 1 1 9.999998000000167 131.99600000066667 Z" class="highcharts-point highcharts-color-0"></path><path fill="#000000" d="M 9 139 A 4 4 0 1 1 8.999998000000167 138.99600000066667 Z" class="highcharts-point highcharts-color-0"></path><path fill="#000000" d="M 9 142 A 4 4 0 1 1 8.999998000000167 141.99600000066667 Z" class="highcharts-point highcharts-color-0"></path><path fill="#000000" d="M 9 153 A 4 4 0 1 1 8.999998000000167 152.99600000066667 Z" class="highcharts-point highcharts-color-0"></path><path fill="#000000" d="M 9 138 A 4 4 0 1 1 8.999998000000167 137.99600000066667 Z" class="highcharts-point highcharts-color-0"></path><path fill="#000000" d="M 9 163 A 4 4 0 1 1 8.999998000000167 162.99600000066667 Z" class="highcharts-point highcharts-color-0"></path><path fill="#000000" d="M 9 136 A 4 4 0 1 1 8.999998000000167 135.99600000066667 Z" class="highcharts-point highcharts-color-0"></path><path fill="#000000" d="M 9 148 A 4 4 0 1 1 8.999998000000167 147.99600000066667 Z" class="highcharts-point highcharts-color-0"></path><path fill="#000000" d="M 9 155 A 4 4 0 1 1 8.999998000000167 154.99600000066667 Z" class="highcharts-point highcharts-color-0"></path><path fill="#000000" d="M 9 172 A 4 4 0 1 1 8.999998000000167 171.99600000066667 Z" class="highcharts-point highcharts-color-0"></path><path fill="#000000" d="M 9 144 A 4 4 0 1 1 8.999998000000167 143.99600000066667 Z" class="highcharts-point highcharts-color-0"></path><path fill="#000000" d="M 9 142 A 4 4 0 1 1 8.999998000000167 141.99600000066667 Z" class="highcharts-point highcharts-color-0"></path><path fill="#000000" d="M 9 139 A 4 4 0 1 1 8.999998000000167 138.99600000066667 Z" class="highcharts-point highcharts-color-0"></path><path fill="#000000" d="M 9 132 A 4 4 0 1 1 8.999998000000167 131.99600000066667 Z" class="highcharts-point highcharts-color-0"></path><path fill="#000000" d="M 9 125 A 4 4 0 1 1 8.999998000000167 124.99600000066667 Z" class="highcharts-point highcharts-color-0"></path><path fill="#000000" d="M 9 132 A 4 4 0 1 1 8.999998000000167 131.99600000066667 Z" class="highcharts-point highcharts-color-0"></path><path fill="#000000" d="M 9 132 A 4 4 0 1 1 8.999998000000167 131.99600000066667 Z" class="highcharts-point highcharts-color-0"></path><path fill="#000000" d="M 9 132 A 4 4 0 1 1 8.999998000000167 131.99600000066667 Z" class="highcharts-point highcharts-color-0"></path><path fill="#000000" d="M 9 132 A 4 4 0 1 1 8.999998000000167 131.99600000066667 Z" class="highcharts-point highcharts-color-0"></path><path fill="#000000" d="M 9 147 A 4 4 0 1 1 8.999998000000167 146.99600000066667 Z" class="highcharts-point highcharts-color-0"></path><path fill="#000000" d="M 9 132 A 4 4 0 1 1 8.999998000000167 131.99600000066667 Z" class="highcharts-point highcharts-color-0"></path><path fill="#000000" d="M 9 152 A 4 4 0 1 1 8.999998000000167 151.99600000066667 Z" class="highcharts-point highcharts-color-0"></path><path fill="#000000" d="M 9 142 A 4 4 0 1 1 8.999998000000167 141.99600000066667 Z" class="highcharts-point highcharts-color-0"></path><path fill="#000000" d="M 9 147 A 4 4 0 1 1 8.999998000000167 146.99600000066667 Z" class="highcharts-point highcharts-color-0"></path><path fill="#000000" d="M 9 132 A 4 4 0 1 1 8.999998000000167 131.99600000066667 Z" class="highcharts-point highcharts-color-0"></path><path fill="#000000" d="M 9 132 A 4 4 0 1 1 8.999998000000167 131.99600000066667 Z" class="highcharts-point highcharts-color-0"></path><path fill="#000000" d="M 9 151 A 4 4 0 1 1 8.999998000000167 150.99600000066667 Z" class="highcharts-point highcharts-color-0"></path><path fill="#000000" d="M 34 149 A 4 4 0 1 1 33.99999800000017 148.99600000066667 Z" class="highcharts-point highcharts-color-0"></path><path fill="#000000" d="M 56 150 A 4 4 0 1 1 55.99999800000017 149.99600000066667 Z" class="highcharts-point highcharts-color-0"></path><path fill="#000000" d="M 58 142 A 4 4 0 1 1 57.99999800000017 141.99600000066667 Z" class="highcharts-point highcharts-color-0"></path><path fill="#000000" d="M 58 132 A 4 4 0 1 1 57.99999800000017 131.99600000066667 Z" class="highcharts-point highcharts-color-0"></path><path fill="#000000" d="M 57 132 A 4 4 0 1 1 56.99999800000017 131.99600000066667 Z" class="highcharts-point highcharts-color-0"></path><path fill="#000000" d="M 57 163 A 4 4 0 1 1 56.99999800000017 162.99600000066667 Z" class="highcharts-point highcharts-color-0"></path><path fill="#000000" d="M 64 137 A 4 4 0 1 1 63.99999800000017 136.99600000066667 Z" class="highcharts-point highcharts-color-0"></path><path fill="#000000" d="M 39 146 A 4 4 0 1 1 38.99999800000017 145.99600000066667 Z" class="highcharts-point highcharts-color-0"></path><path fill="#000000" d="M 17 132 A 4 4 0 1 1 16.99999800000017 131.99600000066667 Z" class="highcharts-point highcharts-color-0"></path><path fill="#000000" d="M 15 137 A 4 4 0 1 1 14.999998000000167 136.99600000066667 Z" class="highcharts-point highcharts-color-0"></path><path fill="#000000" d="M 15 137 A 4 4 0 1 1 14.999998000000167 136.99600000066667 Z" class="highcharts-point highcharts-color-0"></path><path fill="#000000" d="M 15 132 A 4 4 0 1 1 14.999998000000167 131.99600000066667 Z" class="highcharts-point highcharts-color-0"></path><path fill="#000000" d="M 33 132 A 4 4 0 1 1 32.99999800000017 131.99600000066667 Z" class="highcharts-point highcharts-color-0"></path><path fill="#000000" d="M 26 149 A 4 4 0 1 1 25.99999800000017 148.99600000066667 Z" class="highcharts-point highcharts-color-0"></path><path fill="#000000" d="M 26 164 A 4 4 0 1 1 25.99999800000017 163.99600000066667 Z" class="highcharts-point highcharts-color-0"></path><path fill="#000000" d="M 26 145 A 4 4 0 1 1 25.99999800000017 144.99600000066667 Z" class="highcharts-point highcharts-color-0"></path><path fill="#000000" d="M 26 160 A 4 4 0 1 1 25.99999800000017 159.99600000066667 Z" class="highcharts-point highcharts-color-0"></path><path fill="#000000" d="M 26 142 A 4 4 0 1 1 25.99999800000017 141.99600000066667 Z" class="highcharts-point highcharts-color-0"></path><path fill="#000000" d="M 54 132 A 4 4 0 1 1 53.99999800000017 131.99600000066667 Z" class="highcharts-point highcharts-color-0"></path><path fill="#000000" d="M 135 138 A 4 4 0 1 1 134.99999800000018 137.99600000066667 Z" class="highcharts-point highcharts-color-0"></path><path fill="#000000" d="M 146 151 A 4 4 0 1 1 145.99999800000018 150.99600000066667 Z" class="highcharts-point highcharts-color-0"></path><path fill="#000000" d="M 164 157 A 4 4 0 1 1 163.99999800000018 156.99600000066667 Z" class="highcharts-point highcharts-color-0"></path><path fill="#000000" d="M 165 153 A 4 4 0 1 1 164.99999800000018 152.99600000066667 Z" class="highcharts-point highcharts-color-0"></path><path fill="#000000" d="M 530 163 A 4 4 0 1 1 529.9999980000001 162.99600000066667 Z" class="highcharts-point highcharts-color-0"></path><path fill="#000000" d="M 530 132 A 4 4 0 1 1 529.9999980000001 131.99600000066667 Z" class="highcharts-point highcharts-color-0"></path><path fill="#000000" d="M 502 135 A 4 4 0 1 1 501.9999980000002 134.99600000066667 Z" class="highcharts-point highcharts-color-0"></path><path fill="#000000" d="M 404 140 A 4 4 0 1 1 403.9999980000002 139.99600000066667 Z" class="highcharts-point highcharts-color-0"></path><path fill="#000000" d="M 393 158 A 4 4 0 1 1 392.9999980000002 157.99600000066667 Z" class="highcharts-point highcharts-color-0"></path><path fill="#000000" d="M 387 132 A 4 4 0 1 1 386.9999980000002 131.99600000066667 Z" class="highcharts-point highcharts-color-0"></path><path fill="#000000" d="M 388 140 A 4 4 0 1 1 387.9999980000002 139.99600000066667 Z" class="highcharts-point highcharts-color-0"></path><path fill="#000000" d="M 35 136 A 4 4 0 1 1 34.99999800000017 135.99600000066667 Z" class="highcharts-point highcharts-color-0"></path><path fill="#000000" d="M 51 175 A 4 4 0 1 1 50.99999800000017 174.99600000066667 Z" class="highcharts-point highcharts-color-0"></path><path fill="#000000" d="M 40 132 A 4 4 0 1 1 39.99999800000017 131.99600000066667 Z" class="highcharts-point highcharts-color-0"></path><path fill="#000000" d="M 26 132 A 4 4 0 1 1 25.99999800000017 131.99600000066667 Z" class="highcharts-point highcharts-color-0"></path><path fill="#000000" d="M 10 153 A 4 4 0 1 1 9.999998000000167 152.99600000066667 Z" class="highcharts-point highcharts-color-0"></path><path fill="#000000" d="M 25 132 A 4 4 0 1 1 24.99999800000017 131.99600000066667 Z" class="highcharts-point highcharts-color-0"></path><path fill="#000000" d="M 77 175 A 4 4 0 1 1 76.99999800000016 174.99600000066667 Z" class="highcharts-point highcharts-color-0"></path><path fill="#000000" d="M 117 88 A 4 4 0 1 1 116.99999800000016 87.99600000066667 Z" class="highcharts-point highcharts-color-0"></path><path fill="#000000" d="M 201 132 A 4 4 0 1 1 200.99999800000018 131.99600000066667 Z" class="highcharts-point highcharts-color-0"></path><path fill="#000000" d="M 235 132 A 4 4 0 1 1 234.99999800000018 131.99600000066667 Z" class="highcharts-point highcharts-color-0"></path><path fill="#000000" d="M 235 175 A 4 4 0 1 1 234.99999800000018 174.99600000066667 Z" class="highcharts-point highcharts-color-0"></path><path fill="#000000" d="M 258 132 A 4 4 0 1 1 257.9999980000002 131.99600000066667 Z" class="highcharts-point highcharts-color-0"></path><path fill="#000000" d="M 518 132 A 4 4 0 1 1 517.9999980000001 131.99600000066667 Z" class="highcharts-point highcharts-color-0"></path><path fill="#000000" d="M 369 132 A 4 4 0 1 1 368.9999980000002 131.99600000066667 Z" class="highcharts-point highcharts-color-0"></path><path fill="#000000" d="M 358 132 A 4 4 0 1 1 357.9999980000002 131.99600000066667 Z" class="highcharts-point highcharts-color-0"></path><path fill="#000000" d="M 358 175 A 4 4 0 1 1 357.9999980000002 174.99600000066667 Z" class="highcharts-point highcharts-color-0"></path><path fill="#000000" d="M 182 132 A 4 4 0 1 1 181.99999800000018 131.99600000066667 Z" class="highcharts-point highcharts-color-0"></path><path fill="#000000" d="M 139 142 A 4 4 0 1 1 138.99999800000018 141.99600000066667 Z" class="highcharts-point highcharts-color-0"></path><path fill="#000000" d="M 80 132 A 4 4 0 1 1 79.99999800000016 131.99600000066667 Z" class="highcharts-point highcharts-color-0"></path><path fill="#000000" d="M 80 132 A 4 4 0 1 1 79.99999800000016 131.99600000066667 Z" class="highcharts-point highcharts-color-0"></path><path fill="#000000" d="M 242 132 A 4 4 0 1 1 241.99999800000018 131.99600000066667 Z" class="highcharts-point highcharts-color-0"></path><path fill="#000000" d="M 345 132 A 4 4 0 1 1 344.9999980000002 131.99600000066667 Z" class="highcharts-point highcharts-color-0"></path><path fill="#000000" d="M 344 132 A 4 4 0 1 1 343.9999980000002 131.99600000066667 Z" class="highcharts-point highcharts-color-0"></path><path fill="#000000" d="M 396 132 A 4 4 0 1 1 395.9999980000002 131.99600000066667 Z" class="highcharts-point highcharts-color-0"></path><path fill="#000000" d="M 357 132 A 4 4 0 1 1 356.9999980000002 131.99600000066667 Z" class="highcharts-point highcharts-color-0"></path><path fill="#000000" d="M 305 132 A 4 4 0 1 1 304.9999980000002 131.99600000066667 Z" class="highcharts-point highcharts-color-0"></path><path fill="#000000" d="M 302 132 A 4 4 0 1 1 301.9999980000002 131.99600000066667 Z" class="highcharts-point highcharts-color-0"></path><path fill="#000000" d="M 274 132 A 4 4 0 1 1 273.9999980000002 131.99600000066667 Z" class="highcharts-point highcharts-color-0"></path><path fill="#000000" d="M 136 132 A 4 4 0 1 1 135.99999800000018 131.99600000066667 Z" class="highcharts-point highcharts-color-0"></path><path fill="#000000" d="M 140 132 A 4 4 0 1 1 139.99999800000018 131.99600000066667 Z" class="highcharts-point highcharts-color-0"></path><path fill="#000000" d="M 99 132 A 4 4 0 1 1 98.99999800000016 131.99600000066667 Z" class="highcharts-point highcharts-color-0"></path><path fill="#000000" d="M 146 132 A 4 4 0 1 1 145.99999800000018 131.99600000066667 Z" class="highcharts-point highcharts-color-0"></path><path fill="#000000" d="M 123 132 A 4 4 0 1 1 122.99999800000016 131.99600000066667 Z" class="highcharts-point highcharts-color-0"></path><path fill="#000000" d="M 127 146 A 4 4 0 1 1 126.99999800000016 145.99600000066667 Z" class="highcharts-point highcharts-color-0"></path><path fill="#000000" d="M 127 132 A 4 4 0 1 1 126.99999800000016 131.99600000066667 Z" class="highcharts-point highcharts-color-0"></path><path fill="#000000" d="M 136 132 A 4 4 0 1 1 135.99999800000018 131.99600000066667 Z" class="highcharts-point highcharts-color-0"></path><path fill="#000000" d="M 122 132 A 4 4 0 1 1 121.99999800000016 131.99600000066667 Z" class="highcharts-point highcharts-color-0"></path><path fill="#000000" d="M 115 132 A 4 4 0 1 1 114.99999800000016 131.99600000066667 Z" class="highcharts-point highcharts-color-0"></path><path fill="#000000" d="M 103 127 A 4 4 0 1 1 102.99999800000016 126.99600000066667 Z" class="highcharts-point highcharts-color-0"></path><path fill="#000000" d="M 58 132 A 4 4 0 1 1 57.99999800000017 131.99600000066667 Z" class="highcharts-point highcharts-color-0"></path><path fill="#000000" d="M 82 132 A 4 4 0 1 1 81.99999800000016 131.99600000066667 Z" class="highcharts-point highcharts-color-0"></path><path fill="#000000" d="M 54 132 A 4 4 0 1 1 53.99999800000017 131.99600000066667 Z" class="highcharts-point highcharts-color-0"></path><path fill="#000000" d="M 53 140 A 4 4 0 1 1 52.99999800000017 139.99600000066667 Z" class="highcharts-point highcharts-color-0"></path><path fill="#000000" d="M 59 132 A 4 4 0 1 1 58.99999800000017 131.99600000066667 Z" class="highcharts-point highcharts-color-0"></path><path fill="#000000" d="M 55 132 A 4 4 0 1 1 54.99999800000017 131.99600000066667 Z" class="highcharts-point highcharts-color-0"></path><path fill="#000000" d="M 62 132 A 4 4 0 1 1 61.99999800000017 131.99600000066667 Z" class="highcharts-point highcharts-color-0"></path><path fill="#000000" d="M 62 132 A 4 4 0 1 1 61.99999800000017 131.99600000066667 Z" class="highcharts-point highcharts-color-0"></path><path fill="#000000" d="M 71 132 A 4 4 0 1 1 70.99999800000016 131.99600000066667 Z" class="highcharts-point highcharts-color-0"></path><path fill="#000000" d="M 56 132 A 4 4 0 1 1 55.99999800000017 131.99600000066667 Z" class="highcharts-point highcharts-color-0"></path><path fill="#000000" d="M 40 122 A 4 4 0 1 1 39.99999800000017 121.99600000066667 Z" class="highcharts-point highcharts-color-0"></path><path fill="#000000" d="M 34 132 A 4 4 0 1 1 33.99999800000017 131.99600000066667 Z" class="highcharts-point highcharts-color-0"></path><path fill="#000000" d="M 34 132 A 4 4 0 1 1 33.99999800000017 131.99600000066667 Z" class="highcharts-point highcharts-color-0"></path><path fill="#000000" d="M 172 88 A 4 4 0 1 1 171.99999800000018 87.99600000066667 Z" class="highcharts-point highcharts-color-0"></path><path fill="#000000" d="M 138 219 A 4 4 0 1 1 137.99999800000018 218.99600000066667 Z" class="highcharts-point highcharts-color-0"></path><path fill="#000000" d="M 125 132 A 4 4 0 1 1 124.99999800000016 131.99600000066667 Z" class="highcharts-point highcharts-color-0"></path><path fill="#000000" d="M 101 88 A 4 4 0 1 1 100.99999800000016 87.99600000066667 Z" class="highcharts-point highcharts-color-0"></path><path fill="#000000" d="M 101 121 A 4 4 0 1 1 100.99999800000016 120.99600000066667 Z" class="highcharts-point highcharts-color-0"></path><path fill="#000000" d="M 66 121 A 4 4 0 1 1 65.99999800000016 120.99600000066667 Z" class="highcharts-point highcharts-color-0"></path><path fill="#000000" d="M 54 132 A 4 4 0 1 1 53.99999800000017 131.99600000066667 Z" class="highcharts-point highcharts-color-0"></path><path fill="#000000" d="M 31 132 A 4 4 0 1 1 30.99999800000017 131.99600000066667 Z" class="highcharts-point highcharts-color-0"></path><path fill="#000000" d="M 46 132 A 4 4 0 1 1 45.99999800000017 131.99600000066667 Z" class="highcharts-point highcharts-color-0"></path><path fill="#000000" d="M 30 132 A 4 4 0 1 1 29.99999800000017 131.99600000066667 Z" class="highcharts-point highcharts-color-0"></path><path fill="#000000" d="M 30 119 A 4 4 0 1 1 29.99999800000017 118.99600000066667 Z" class="highcharts-point highcharts-color-0"></path><path fill="#000000" d="M 28 132 A 4 4 0 1 1 27.99999800000017 131.99600000066667 Z" class="highcharts-point highcharts-color-0"></path><path fill="#000000" d="M 28 104 A 4 4 0 1 1 27.99999800000017 103.99600000066667 Z" class="highcharts-point highcharts-color-0"></path><path fill="#000000" d="M 28 132 A 4 4 0 1 1 27.99999800000017 131.99600000066667 Z" class="highcharts-point highcharts-color-0"></path><path fill="#000000" d="M 9 132 A 4 4 0 1 1 8.999998000000167 131.99600000066667 Z" class="highcharts-point highcharts-color-0"></path><path fill="#000000" d="M 9 132 A 4 4 0 1 1 8.999998000000167 131.99600000066667 Z" class="highcharts-point highcharts-color-0"></path><path fill="#000000" d="M 9 132 A 4 4 0 1 1 8.999998000000167 131.99600000066667 Z" class="highcharts-point highcharts-color-0"></path><path fill="#000000" d="M 9 132 A 4 4 0 1 1 8.999998000000167 131.99600000066667 Z" class="highcharts-point highcharts-color-0"></path><path fill="#000000" d="M 9 122 A 4 4 0 1 1 8.999998000000167 121.99600000066667 Z" class="highcharts-point highcharts-color-0"></path><path fill="#000000" d="M 10 135 A 4 4 0 1 1 9.999998000000167 134.99600000066667 Z" class="highcharts-point highcharts-color-0"></path><path fill="#000000" d="M 30 132 A 4 4 0 1 1 29.99999800000017 131.99600000066667 Z" class="highcharts-point highcharts-color-0"></path><path fill="#000000" d="M 40 132 A 4 4 0 1 1 39.99999800000017 131.99600000066667 Z" class="highcharts-point highcharts-color-0"></path><path fill="#000000" d="M 40 132 A 4 4 0 1 1 39.99999800000017 131.99600000066667 Z" class="highcharts-point highcharts-color-0"></path><path fill="#000000" d="M 38 132 A 4 4 0 1 1 37.99999800000017 131.99600000066667 Z" class="highcharts-point highcharts-color-0"></path><path fill="#000000" d="M 38 110 A 4 4 0 1 1 37.99999800000017 109.99600000066667 Z" class="highcharts-point highcharts-color-0"></path><path fill="#000000" d="M 19 44 A 4 4 0 1 1 18.99999800000017 43.99600000066666 Z" class="highcharts-point highcharts-color-0"></path><path fill="#000000" d="M 9 132 A 4 4 0 1 1 8.999998000000167 131.99600000066667 Z" class="highcharts-point highcharts-color-0"></path><path fill="#000000" d="M 9 132 A 4 4 0 1 1 8.999998000000167 131.99600000066667 Z" class="highcharts-point highcharts-color-0"></path><path fill="#000000" d="M 14 132 A 4 4 0 1 1 13.999998000000167 131.99600000066667 Z" class="highcharts-point highcharts-color-0"></path><path fill="#000000" d="M 14 144 A 4 4 0 1 1 13.999998000000167 143.99600000066667 Z" class="highcharts-point highcharts-color-0"></path><path fill="#000000" d="M 14 110 A 4 4 0 1 1 13.999998000000167 109.99600000066667 Z" class="highcharts-point highcharts-color-0"></path><path fill="#000000" d="M 14 132 A 4 4 0 1 1 13.999998000000167 131.99600000066667 Z" class="highcharts-point highcharts-color-0"></path><path fill="#000000" d="M 14 132 A 4 4 0 1 1 13.999998000000167 131.99600000066667 Z" class="highcharts-point highcharts-color-0"></path><path fill="#000000" d="M 14 132 A 4 4 0 1 1 13.999998000000167 131.99600000066667 Z" class="highcharts-point highcharts-color-0"></path><path fill="#000000" d="M 14 132 A 4 4 0 1 1 13.999998000000167 131.99600000066667 Z" class="highcharts-point highcharts-color-0"></path><path fill="#000000" d="M 9 132 A 4 4 0 1 1 8.999998000000167 131.99600000066667 Z" class="highcharts-point highcharts-color-0"></path><path fill="#000000" d="M 12 132 A 4 4 0 1 1 11.999998000000167 131.99600000066667 Z" class="highcharts-point highcharts-color-0"></path><path fill="#000000" d="M 54 146 A 4 4 0 1 1 53.99999800000017 145.99600000066667 Z" class="highcharts-point highcharts-color-0"></path><path fill="#000000" d="M 94 146 A 4 4 0 1 1 93.99999800000016 145.99600000066667 Z" class="highcharts-point highcharts-color-0"></path><path fill="#000000" d="M 107 135 A 4 4 0 1 1 106.99999800000016 134.99600000066667 Z" class="highcharts-point highcharts-color-0"></path><path fill="#000000" d="M 116 126 A 4 4 0 1 1 115.99999800000016 125.99600000066667 Z" class="highcharts-point highcharts-color-0"></path><path fill="#000000" d="M 120 93 A 4 4 0 1 1 119.99999800000016 92.99600000066667 Z" class="highcharts-point highcharts-color-0"></path><path fill="#000000" d="M 120 132 A 4 4 0 1 1 119.99999800000016 131.99600000066667 Z" class="highcharts-point highcharts-color-0"></path><path fill="#000000" d="M 117 125 A 4 4 0 1 1 116.99999800000016 124.99600000066667 Z" class="highcharts-point highcharts-color-0"></path><path fill="#000000" d="M 75 114 A 4 4 0 1 1 74.99999800000016 113.99600000066667 Z" class="highcharts-point highcharts-color-0"></path><path fill="#000000" d="M 37 115 A 4 4 0 1 1 36.99999800000017 114.99600000066667 Z" class="highcharts-point highcharts-color-0"></path><path fill="#000000" d="M 38 144 A 4 4 0 1 1 37.99999800000017 143.99600000066667 Z" class="highcharts-point highcharts-color-0"></path><path fill="#000000" d="M 34 132 A 4 4 0 1 1 33.99999800000017 131.99600000066667 Z" class="highcharts-point highcharts-color-0"></path><path fill="#000000" d="M 57 132 A 4 4 0 1 1 56.99999800000017 131.99600000066667 Z" class="highcharts-point highcharts-color-0"></path><path fill="#000000" d="M 63 132 A 4 4 0 1 1 62.99999800000017 131.99600000066667 Z" class="highcharts-point highcharts-color-0"></path><path fill="#000000" d="M 63 121 A 4 4 0 1 1 62.99999800000017 120.99600000066667 Z" class="highcharts-point highcharts-color-0"></path><path fill="#000000" d="M 89 121 A 4 4 0 1 1 88.99999800000016 120.99600000066667 Z" class="highcharts-point highcharts-color-0"></path><path fill="#000000" d="M 93 126 A 4 4 0 1 1 92.99999800000016 125.99600000066667 Z" class="highcharts-point highcharts-color-0"></path><path fill="#000000" d="M 78 132 A 4 4 0 1 1 77.99999800000016 131.99600000066667 Z" class="highcharts-point highcharts-color-0"></path><path fill="#000000" d="M 47 175 A 4 4 0 1 1 46.99999800000017 174.99600000066667 Z" class="highcharts-point highcharts-color-0"></path><path fill="#000000" d="M 53 132 A 4 4 0 1 1 52.99999800000017 131.99600000066667 Z" class="highcharts-point highcharts-color-0"></path><path fill="#000000" d="M 53 132 A 4 4 0 1 1 52.99999800000017 131.99600000066667 Z" class="highcharts-point highcharts-color-0"></path><path fill="#000000" d="M 45 132 A 4 4 0 1 1 44.99999800000017 131.99600000066667 Z" class="highcharts-point highcharts-color-0"></path><path fill="#000000" d="M 39 132 A 4 4 0 1 1 38.99999800000017 131.99600000066667 Z" class="highcharts-point highcharts-color-0"></path></g></g><text x="300" text-anchor="middle" class="highcharts-title" data-z-index="4" style="color:#333333;font-size:18px;fill:#333333;" y="24"><tspan>Overall Mood Following BeyondPod Usage (Android)</tspan></text><text x="300" text-anchor="middle" class="highcharts-subtitle" data-z-index="4" style="color:#666666;fill:#666666;" y="46"><tspan>An increase in 7 days cumulative BeyondPod Usage (Android) is usually followed by an</tspan><tspan dy="15" x="300">decrease in Overall Mood. (R = -0.041)</tspan></text><g class="highcharts-axis-labels highcharts-xaxis-labels " data-z-index="7"><text x="63.21568627451" style="color:#666666;cursor:default;font-size:11px;fill:#666666;" text-anchor="middle" transform="translate(0,0)" y="360" opacity="1">0</text><text x="161.21069368676" style="color:#666666;cursor:default;font-size:11px;fill:#666666;" text-anchor="middle" transform="translate(0,0)" y="360" opacity="1">2.5k</text><text x="259.20570109902" style="color:#666666;cursor:default;font-size:11px;fill:#666666;" text-anchor="middle" transform="translate(0,0)" y="360" opacity="1">5k</text><text x="357.20070851127" style="color:#666666;cursor:default;font-size:11px;fill:#666666;" text-anchor="middle" transform="translate(0,0)" y="360" opacity="1">7.5k</text><text x="455.19571592353" style="color:#666666;cursor:default;font-size:11px;fill:#666666;" text-anchor="middle" transform="translate(0,0)" y="360" opacity="1">10k</text><text x="553.19072333578" style="color:#666666;cursor:default;font-size:11px;fill:#666666;" text-anchor="middle" transform="translate(0,0)" y="360" opacity="1">12.5k</text></g><g class="highcharts-axis-labels highcharts-yaxis-labels " data-z-index="7"><text x="43" style="color:#666666;cursor:default;font-size:11px;fill:#666666;" text-anchor="end" transform="translate(0,0)" y="345" opacity="1">0</text><text x="43" style="color:#666666;cursor:default;font-size:11px;fill:#666666;" text-anchor="end" transform="translate(0,0)" y="301" opacity="1">1</text><text x="43" style="color:#666666;cursor:default;font-size:11px;fill:#666666;" text-anchor="end" transform="translate(0,0)" y="257" opacity="1">2</text><text x="43" style="color:#666666;cursor:default;font-size:11px;fill:#666666;" text-anchor="end" transform="translate(0,0)" y="213" opacity="1">3</text><text x="43" style="color:#666666;cursor:default;font-size:11px;fill:#666666;" text-anchor="end" transform="translate(0,0)" y="169" opacity="1">4</text><text x="43" style="color:#666666;cursor:default;font-size:11px;fill:#666666;" text-anchor="end" transform="translate(0,0)" y="125" opacity="1">5</text><text x="43" style="color:#666666;cursor:default;font-size:11px;fill:#666666;" text-anchor="end" transform="translate(0,0)" y="82" opacity="1">6</text></g><a xlink:href="https://quantimo.do" target="_blank">
                    <text x="590" class="highcharts-credits" text-anchor="end" data-z-index="8"
                          style="cursor:pointer;color:#999999;font-size:9px;fill:#999999;" y="395">https://quantimo.do
                    </text>
                </a></svg>