<?xml version="1.0" standalone="no"?><!DOCTYPE svg PUBLIC "-//W3C//DTD SVG 1.1//EN" "http://www.w3.org/Graphics/SVG/1.1/DTD/svg11.dtd"><svg xmlns:xlink="http://www.w3.org/1999/xlink" version="1.1" class="highcharts-root" style="font-family:&quot;Lucida Grande&quot;, &quot;Lucida Sans Unicode&quot;, Arial, Helvetica, sans-serif;font-size:12px;" xmlns="http://www.w3.org/2000/svg" width="600" height="400"><desc>Created with Highstock 6.2.0</desc><defs><clipPath id="highcharts-ucgkf7a-361"><rect x="0" y="0" width="453" height="299" fill="none"></rect></clipPath><clipPath id="highcharts-ucgkf7a-538"><rect x="0" y="0" width="453" height="299" fill="none"></rect></clipPath><clipPath id="highcharts-ucgkf7a-715"><rect x="0" y="0" width="453" height="299" fill="none"></rect></clipPath><clipPath id="highcharts-ucgkf7a-716"><rect x="79" y="63" width="453" height="299" fill="none"></rect></clipPath></defs><rect fill="#ffffff" class="highcharts-background" x="0" y="0" width="600" height="400" rx="0" ry="0"></rect><rect fill="none" class="highcharts-plot-background" x="79" y="63" width="453" height="299"></rect><g class="highcharts-pane-group" data-z-index="0"></g><g class="highcharts-grid highcharts-xaxis-grid " data-z-index="1"><path fill="none" data-z-index="1" class="highcharts-grid-line" d="M 94.5 63 L 94.5 362" opacity="1"></path><path fill="none" data-z-index="1" class="highcharts-grid-line" d="M 217.5 63 L 217.5 362" opacity="1"></path><path fill="none" data-z-index="1" class="highcharts-grid-line" d="M 340.5 63 L 340.5 362" opacity="1"></path><path fill="none" data-z-index="1" class="highcharts-grid-line" d="M 460.5 63 L 460.5 362" opacity="1"></path></g><g class="highcharts-grid highcharts-yaxis-grid " data-z-index="1"><path fill="none" stroke="#e6e6e6" stroke-width="1" data-z-index="1" class="highcharts-grid-line" d="M 79 362.5 L 532 362.5" opacity="1"></path><path fill="none" stroke="#e6e6e6" stroke-width="1" data-z-index="1" class="highcharts-grid-line" d="M 79 302.5 L 532 302.5" opacity="1"></path><path fill="none" stroke="#e6e6e6" stroke-width="1" data-z-index="1" class="highcharts-grid-line" d="M 79 242.5 L 532 242.5" opacity="1"></path><path fill="none" stroke="#e6e6e6" stroke-width="1" data-z-index="1" class="highcharts-grid-line" d="M 79 183.5 L 532 183.5" opacity="1"></path><path fill="none" stroke="#e6e6e6" stroke-width="1" data-z-index="1" class="highcharts-grid-line" d="M 79 123.5 L 532 123.5" opacity="1"></path><path fill="none" stroke="#e6e6e6" stroke-width="1" data-z-index="1" class="highcharts-grid-line" d="M 79 62.5 L 532 62.5" opacity="1"></path></g><g class="highcharts-grid highcharts-yaxis-grid " data-z-index="1"><path fill="none" stroke="#e6e6e6" stroke-width="1" data-z-index="1" class="highcharts-grid-line" d="M 79 362.5 L 532 362.5" opacity="1"></path><path fill="none" stroke="#e6e6e6" stroke-width="1" data-z-index="1" class="highcharts-grid-line" d="M 79 302.5 L 532 302.5" opacity="1"></path><path fill="none" stroke="#e6e6e6" stroke-width="1" data-z-index="1" class="highcharts-grid-line" d="M 79 242.5 L 532 242.5" opacity="1"></path><path fill="none" stroke="#e6e6e6" stroke-width="1" data-z-index="1" class="highcharts-grid-line" d="M 79 183.5 L 532 183.5" opacity="1"></path><path fill="none" stroke="#e6e6e6" stroke-width="1" data-z-index="1" class="highcharts-grid-line" d="M 79 123.5 L 532 123.5" opacity="1"></path><path fill="none" stroke="#e6e6e6" stroke-width="1" data-z-index="1" class="highcharts-grid-line" d="M 79 62.5 L 532 62.5" opacity="1"></path></g><rect fill="none" class="highcharts-plot-border" data-z-index="1" x="79" y="63" width="453" height="299"></rect><g class="highcharts-axis highcharts-xaxis " data-z-index="2"><path fill="none" class="highcharts-tick" stroke="#ccd6eb" stroke-width="1" d="M 94.5 362 L 94.5 372" opacity="1"></path><path fill="none" class="highcharts-tick" stroke="#ccd6eb" stroke-width="1" d="M 217.5 362 L 217.5 372" opacity="1"></path><path fill="none" class="highcharts-tick" stroke="#ccd6eb" stroke-width="1" d="M 340.5 362 L 340.5 372" opacity="1"></path><path fill="none" class="highcharts-tick" stroke="#ccd6eb" stroke-width="1" d="M 460.5 362 L 460.5 372" opacity="1"></path><path fill="none" class="highcharts-axis-line" stroke="#ccd6eb" stroke-width="1" data-z-index="7" d="M 79 362.5 L 532 362.5"></path></g><g class="highcharts-axis highcharts-yaxis " data-z-index="2"><text x="26" data-z-index="7" text-anchor="middle" transform="translate(0,0) rotate(270 26 212.5)" class="highcharts-axis-title" style="color:#666666;fill:#666666;" y="212.5"><tspan>SUM Alphalipoic Acid intake (mg)</tspan></text><path fill="none" class="highcharts-axis-line" stroke="#ccd6eb" stroke-width="1" data-z-index="7" d="M 78.5 63 L 78.5 362"></path></g><g class="highcharts-axis highcharts-yaxis " data-z-index="2"><text x="574" data-z-index="7" text-anchor="middle" transform="translate(0,0) rotate(90 574 212.5)" class="highcharts-axis-title" style="color:#666666;fill:#666666;" y="212.5"><tspan>MEAN Overall Mood (/5)</tspan></text><path fill="none" class="highcharts-axis-line" stroke="#ccd6eb" stroke-width="1" data-z-index="7" d="M 532.5 63 L 532.5 362"></path></g><g class="highcharts-series-group" data-z-index="3"><g data-z-index="0.1" class="highcharts-series highcharts-series-0 highcharts-spline-series highcharts-color-0 " transform="translate(79,63) scale(1 1)" clip-path="url(#highcharts-ucgkf7a-538)"><path fill="none" d="M 4.4411764705882 299 C 4.4411764705882 299 6.0413434735462 299 7.1081214755182 299 C 8.1748994774902 299 8.7082884784762 299 9.7750664804482 299 C 10.30845548143412 299 10.57514998192708 299 11.108538982913 299 C 11.137060478104598 299 11.1513212257004 299 11.179842720892 299 C 12.751488228658399 299 13.537310982541598 299 15.108956490308 299 C 15.642345491293998 299 15.909039991787001 299 16.442428992773 299 C 16.975817993759 299 17.242512494251997 299 17.775901495238 299 C 18.309290496223998 299 18.575984996717 299 19.109373997703 299 C 19.137895492894597 299 19.1521562404904 299 19.180677735682 299 C 19.714066736668002 299 19.980761237160998 299 20.514150238147 299 C 26.914818249979 299 30.115152255894998 299 36.515820267727 299 C 38.649376271670995 299 39.716154273643 299 41.849710277587 299 C 55.184435302237 299 61.851797814562005 299 75.186522839212 299 C 77.853467844142 299 79.186940346607 299 81.853885351537 299 C 82.38727435252301 299 82.653968853016 299 83.187357854002 299 C 84.254135855974 299 84.78752485696 299 85.854302858932 299 C 86.921080860904 299 87.45446986188999 299 88.521247863862 299 C 89.588025865834 299 90.12141486682 299 91.188192868792 299 C 91.721581869778 299 91.988276370271 299 92.521665371257 299 C 93.58844337322901 299 94.121832374215 299 95.188610376187 299 C 96.78877737914499 299 97.588860880624 299 99.189027883582 299 C 99.7224168845692 299 99.9891113850628 299 100.52250038605 299 C 101.055889387034 299 101.32258388752601 299 101.85597288851 299 C 102.38936188949799 299 102.656056389992 299 103.18944539098 299 C 105.32300139492399 299 106.389779396896 299 108.52333540084 299 C 110.656891404784 299 111.72366940675599 299 113.8572254107 299 C 114.39061441168401 299 114.65730891217599 299 115.19069791316 299 C 117.32425391710399 299 118.39103191907597 299 120.52458792302 299 C 121.05797692400799 299 121.324671424502 299 121.85806042549 299 C 124.52500543041799 299 125.85847793288198 299 128.52542293781 299 C 132.25914594471402 299 134.126007448166 299 137.85973045507 299 C 140.526675459998 299 141.860147962462 299 144.52709296739 299 C 186.664824045286 299 207.73368958423399 299 249.87142066213 299 C 250.40480966311398 299 250.67150416360602 299 251.20489316459 299 C 251.738282165578 299 252.00497666607197 299 252.53836566706 299 C 253.071754668044 299 253.338449168536 299 253.87183816952 299 C 254.405227170508 299 254.67192167100202 299 255.20531067199 299 C 255.73869967297395 299 256.005394173466 299 256.53878317445 299 C 257.17699793049 299 257.49610530851 299 258.13432006455 299 C 258.562883310482 299 258.77716493344803 299 259.20572817938 299 C 259.739117180368 299 260.005811680862 299 260.53920068185 299 C 261.072589682834 299 261.33928418332596 299 261.87267318431 299 C 262.406062185298 299 262.672756685792 299 263.20614568678 299 C 263.84436044282 299 264.16346782084 299 264.80168257688 299 C 265.735113328604 299 266.20182870446604 299 267.13525945619 299 C 267.16378095138197 299 267.178041698978 299 267.20656319417 299 C 267.739952195158 299 268.006646695652 299 268.54003569664 299 C 269.07342469762403 299 269.340119198116 299 269.8735081991 299 C 270.406897200088 299 270.673591700582 299 271.20698070157 299 C 271.74036970255395 299 272.00706420304596 299 272.54045320403 299 C 273.07384220501797 299 273.340536705512 299 273.8739257065 299 C 274.40731470748403 299 274.674009207976 299 275.20739820896 299 C 275.740787209948 299 276.007481710442 299 276.54087071143 299 C 277.074259712414 299 277.340954212906 299 277.87434321389 299 C 278.40773221487797 299 278.674426715372 299 279.20781571636 299 C 279.741204717344 299 280.007899217836 299 280.54128821882 299 C 281.074677219808 299 281.341371720302 299 281.87476072129 299 C 282.408149722274 299 282.674844222766 299 283.20823322375 299 C 283.741622224738 299 284.008316725232 299 284.54170572622 299 C 285.07509472720403 299 285.34178922769604 299 285.87517822868 299 C 286.408567229668 299 286.675261730162 299 287.20865073115 299 C 287.742039732134 299 288.008734232626 299 288.54212323361 299 C 289.075512234598 299 289.342206735092 299 289.87559573608 299 C 290.40898473706403 299 290.675679237556 299 291.20906823854 299 C 291.742457239528 299 292.009151740022 299 292.54254074101 299 C 293.07592974199395 299 293.342624242486 299 293.87601324347 299 C 294.409402244458 299 294.676096744952 299 295.20948574594 299 C 295.74287474692403 299 296.009569247416 299 296.5429582484 299 C 297.076347249388 299 297.343041749882 299 297.87643075087 299 C 298.409819751854 299 298.676514252346 299 299.20990325333 299 C 299.743292254318 299 300.009986754812 299 300.5433757558 299 C 301.076764756784 299 301.34345925727604 299 301.87684825826 299 C 302.410237259248 299 302.676931759742 299 303.21032076073 299 C 303.74370976171406 299 304.01040426220595 299 304.54379326319 299 C 305.077182264178 299 305.343876764672 299 305.87726576566 299 C 306.410654766644 299 306.67734926713604 299 307.21073826812 299 C 307.744127269108 299 308.010821769602 299 308.54421077059 299 C 309.077599771574 299 309.344294272066 299 309.87768327305 299 C 310.411072274038 299 310.677766774532 299 311.21115577552 299 C 311.74454477650403 299 312.011239276996 299 312.54462827798 299 C 313.078017278968 299 313.344711779462 299 313.87810078045 299 C 314.411489781434 299 314.67818428192606 299 315.21157328291 299 C 315.744962283898 299 316.011656784392 299 316.54504578538 299 C 317.078434786364 299 317.345129286856 299 317.87851828784 299 C 318.411907288828 299 318.678601789322 299 319.21199079031 299 C 319.745379791294 299 320.012074291786 299 320.54546329277 299 C 321.078852293758 299 321.345546794252 299 321.87893579524 299 C 322.41232479622397 299 322.679019296716 299 323.2124082977 299 C 323.745797298688 299 324.012491799182 299 324.54588080017 299 C 325.079269801154 299 325.345964301646 299 325.87935330263 299 C 326.412742303618 299 326.679436804112 299 327.2128258051 299 C 327.746214806084 299 328.01290930657603 299 328.54629830756 299 C 329.079687308548 299 329.346381809042 299 329.87977081003 299 C 330.413159811014 299 330.679854311506 299 331.21324331249 299 C 331.746632313478 299 332.013326813972 299 332.54671581496 299 C 333.080104815944 299 333.346799316436 299 333.88018831742 299 C 334.413577318408 299 334.680271818902 299 335.21366081989 299 C 335.74704982087394 299 336.013744321366 299 336.54713332235 299 C 337.080522323338 299 337.347216823832 299 337.88060582482 299 C 338.413994825804 299 338.680689326296 299 339.21407832728 299 C 339.747467328268 299 340.014161828762 299 340.54755082975 299 C 341.080939830734 299 341.347634331226 299 341.88102333221 299 C 342.414412333198 299 342.681106833692 299 343.21449583468 299 C 343.74788483566397 299 344.01457933615603 299 344.54796833714 299 C 345.081357338128 299 345.348051838622 299 345.88144083961 299 C 346.41482984059405 299 346.68152434108595 299 347.21491334207 299 C 347.748302343058 299 348.014996843552 299 348.54838584454 299 C 349.08177484552397 299 349.34846934601603 299 349.881858347 299 C 350.415247347988 299 350.681941848482 299 351.21533084947 299 C 351.748719850454 299 352.015414350946 299 352.54880335193 299 C 353.082192352918 299 353.348886853412 299 353.8822758544 299 C 354.415664855384 299 354.682359355876 299 355.21574835686 299 C 355.74913735784804 299 356.015831858342 299 356.54922085933 299 C 357.082609860314 299 357.34930436080606 299 357.88269336179 299 C 358.416082362778 299 358.682776863272 299 359.21616586426 299 C 359.749554865244 299 360.016249365736 299 360.54963836672 299 C 361.083027367708 299 361.349721868202 299 361.88311086919 299 C 362.416499870174 299 362.683194370666 299 363.21658337165 299 C 363.74997237263807 299 364.016666873132 277.4720000000543 364.55005587412 263.12 C 365.08344487510396 248.7680000000543 365.350139375596 241.5919999999465 365.88352837658 227.24 C 366.416917377568 212.8879999999465 366.683611878062 205.71200000005354 367.21700087905 191.36 C 367.750389880034 177.00800000005353 368.017084380526 169.83199999994645 368.55047338151 155.48 C 369.083862382498 141.12799999994644 369.350556882992 133.95200000005354 369.88394588398 119.6 C 370.417334884964 105.24800000005354 370.68402938545603 98.0719999999457 371.21741838644 83.72 C 371.750807387428 69.36799999994571 372.0175018879219 47.84 372.55089088891 47.84 C 373.084279889894 47.84 373.350974390386 47.84 373.88436339137 47.84 C 374.417752392358 47.84 374.684446892852 47.84 375.21783589384 47.84 C 375.751224894824 47.84 376.01791939531597 47.84 376.5513083963 47.84 C 377.084697397288 47.84 377.351391897782 47.84 377.88478089877 47.84 C 378.41816989975393 47.84 378.684864400246 47.84 379.21825340123 47.84 C 379.751642402218 47.84 380.01833690271195 47.84 380.5517259037 47.84 C 381.085114904684 47.84 381.35180940517597 47.84 381.88519840616 47.84 C 382.418587407148 47.84 382.685281907642 47.84 383.21867090863 47.84 C 383.752059909614 47.84 384.018754410106 47.84 384.55214341109 47.84 C 385.085532412078 47.84 385.352226912572 47.84 385.88561591356 47.84 C 386.41900491454396 47.84 386.685699415036 47.84 387.21908841602 47.84 C 387.752477417008 47.84 388.019171917502 47.84 388.55256091849 47.84 C 389.08594991947405 47.84 389.35264441996594 47.84 389.88603342095 47.84 C 390.419422421938 47.84 390.686116922432 47.84 391.21950592342 47.84 C 391.75289492440396 47.84 392.019589424896 47.84 392.55297842588 47.84 C 393.086367426868 47.84 393.353061927362 83.72 393.88645092835 83.72 C 394.419839929334 83.72 394.686534429826 83.72 395.21992343081 83.72 C 395.753312431798 83.72 396.020006932292 105.24799999994646 396.55339593328 119.6 C 397.086784934264 133.95199999994645 397.35347943475597 141.12800000005427 397.88686843574 155.48 C 398.42025743672804 169.83200000005428 398.686951937222 191.36 399.22034093821 191.36 C 399.753729939194 191.36 400.02042443968605 191.36 400.55381344067 191.36 C 401.087202441658 191.36 401.353896942152 227.24 401.88728594314 227.24 C 402.92554244992004 227.24 403.44467070330995 227.24 404.48292721009 227.24 C 404.51144870528196 227.24 404.525709452878 227.24 404.55423094807 227.24 C 405.08761994905404 227.24 405.354314449546 227.24 405.88770345053 227.24 C 406.42109245151806 227.24 406.687786952012 205.7120000000543 407.221175953 191.36 C 407.75456495398396 177.0080000000543 408.02125945447597 155.48 408.55464845546 155.48 C 409.088037456448 155.48 409.35473195694203 155.48 409.88812095793 155.48 C 410.42150995891404 155.48 410.688204459406 155.48 411.22159346039 155.48 C 411.75498246137795 155.48 412.021676961872 191.36 412.55506596286 191.36 C 413.088454963844 191.36 413.35514946433597 191.36 413.88853846532 191.36 C 414.421927466308 191.36 414.68862196680203 191.36 415.22201096779 191.36 C 415.755399968774 191.36 416.022094469266 212.8880000000357 416.55548347025 227.24 C 417.622261472222 255.94400000003571 418.15565047320797 299 419.22242847518 299 C 419.755817476168 299 420.02251197666203 299 420.55590097765 299 C 421.08928997863404 299 421.355984479126 299 421.88937348011 299 C 422.422762481098 299 422.68945698159195 299 423.22284598258 299 C 424.28962398455195 299 424.823012985538 299 425.88979098751 299 C 426.42317998849404 299 426.689874488986 299 427.22326348997 299 C 427.756652490958 299 428.02334699145194 299 428.55673599244 299 C 429.09012499342396 299 429.356819493916 299 429.8902084949 299 C 430.956986496872 299 431.490375497858 299 432.55715349983 299 C 433.090542500818 299 433.357237001312 299 433.8906260023 299 C 434.42401500328396 299 434.690709503776 299 435.22409850476 299 C 435.75748750574803 299 436.024182006242 299 436.55757100723 299 C 437.624349009202 299 438.15773801018804 299 439.22451601216 299 C 439.75790501314407 299 440.02459951363596 299 440.55798851462 299 C 442.15815551758004 299 442.95823901906004 299 444.55840602202 299 C 445.625184023992 299 446.15857302497807 299 447.22535102695 299 C 447.7587400279341 299 448.55882352941 299 448.55882352941 299" class="highcharts-graph" data-z-index="1" stroke="#000000" stroke-width="2" stroke-linejoin="round" stroke-linecap="round"></path></g><g data-z-index="0.1" class="highcharts-markers highcharts-series-0 highcharts-spline-series highcharts-color-0 " transform="translate(79,63) scale(1 1)" clip-path="none"></g><g data-z-index="0.1" class="highcharts-series highcharts-series-1 highcharts-spline-series highcharts-color-1 " transform="translate(79,63) scale(1 1)" clip-path="url(#highcharts-ucgkf7a-715)"><path fill="none" d="M 4.4411764705882 194.34999999999997 C 4.4411764705882 194.34999999999997 6.0413434735462 194.34999999999997 7.1081214755182 194.34999999999997 C 8.1748994774902 194.34999999999997 8.7082884784762 194.34999999999997 9.7750664804482 194.34999999999997 C 10.30845548143412 194.34999999999997 10.57514998192708 194.34999999999997 11.108538982913 194.34999999999997 C 11.137060478104598 194.34999999999997 11.1513212257004 269.1 11.179842720892 269.1 C 12.751488228658399 269.1 13.537310982541598 119.59999999999997 15.108956490308 119.59999999999997 C 15.642345491293998 119.59999999999997 15.909039991787001 269.1 16.442428992773 269.1 C 16.975817993759 269.1 17.242512494251997 224.25000000000006 17.775901495238 194.34999999999997 C 18.309290496223998 164.45000000000005 18.575984996717 119.59999999999997 19.109373997703 119.59999999999997 C 19.137895492894597 119.59999999999997 19.1521562404904 194.34999999999997 19.180677735682 194.34999999999997 C 19.714066736668002 194.34999999999997 19.980761237160998 194.34999999999997 20.514150238147 194.34999999999997 C 26.914818249979 194.34999999999997 30.115152255894998 194.34999999999997 36.515820267727 194.34999999999997 C 38.649376271670995 194.34999999999997 39.716154273643 269.1 41.849710277587 269.1 C 55.184435302237 269.1 61.851797814562005 269.1 75.186522839212 269.1 C 77.853467844142 269.1 79.186940346607 244.18333333333322 81.853885351537 194.34999999999997 C 82.38727435252301 184.3833333333332 82.653968853016 119.59999999999997 83.187357854002 119.59999999999997 C 84.254135855974 119.59999999999997 84.78752485696 119.59999999999997 85.854302858932 119.59999999999997 C 86.921080860904 119.59999999999997 87.45446986188999 119.59999999999997 88.521247863862 119.59999999999997 C 89.588025865834 119.59999999999997 90.12141486682 194.34999999999997 91.188192868792 194.34999999999997 C 91.721581869778 194.34999999999997 91.988276370271 194.34999999999997 92.521665371257 194.34999999999997 C 93.58844337322901 194.34999999999997 94.121832374215 119.59999999999997 95.188610376187 119.59999999999997 C 96.78877737914499 119.59999999999997 97.588860880624 119.59999999999997 99.189027883582 119.59999999999997 C 99.7224168845692 119.59999999999997 99.9891113850628 194.34999999999997 100.52250038605 194.34999999999997 C 101.055889387034 194.34999999999997 101.32258388752601 119.59999999999997 101.85597288851 119.59999999999997 C 102.38936188949799 119.59999999999997 102.656056389992 119.59999999999997 103.18944539098 119.59999999999997 C 105.32300139492399 119.59999999999997 106.389779396896 194.34999999999997 108.52333540084 194.34999999999997 C 110.656891404784 194.34999999999997 111.72366940675599 119.59999999999997 113.8572254107 119.59999999999997 C 114.39061441168401 119.59999999999997 114.65730891217599 119.59999999999997 115.19069791316 119.59999999999997 C 117.32425391710399 119.59999999999997 118.39103191907597 194.34999999999997 120.52458792302 194.34999999999997 C 121.05797692400799 194.34999999999997 121.324671424502 119.59999999999997 121.85806042549 119.59999999999997 C 124.52500543041799 119.59999999999997 125.85847793288198 119.59999999999997 128.52542293781 119.59999999999997 C 132.25914594471402 119.59999999999997 134.126007448166 44.849999999999966 137.85973045507 44.849999999999966 C 140.526675459998 44.849999999999966 141.860147962462 116.04047619047884 144.52709296739 119.59999999999997 C 186.664824045286 175.84047619047882 207.73368958423399 159.90270833333167 249.87142066213 194.34999999999997 C 250.40480966311398 194.786041666665 250.67150416360602 206.8083333333333 251.20489316459 206.8083333333333 C 251.738282165578 206.8083333333333 252.00497666607197 201.1130952381206 252.53836566706 194.34999999999997 C 253.071754668044 187.58690476193013 253.338449168536 187.9428571428014 253.87183816952 172.99285714285713 C 254.405227170508 158.04285714280138 254.67192167100202 119.59999999999997 255.20531067199 119.59999999999997 C 255.73869967297395 119.59999999999997 256.005394173466 119.59999999999997 256.53878317445 130.2785714285714 C 257.17699793049 140.95714285714286 257.49610530851 194.34999999999997 258.13432006455 194.34999999999997 C 258.562883310482 194.34999999999997 258.77716493344803 194.34999999999997 259.20572817938 194.34999999999997 C 259.739117180368 194.34999999999997 260.005811680862 194.34999999999997 260.53920068185 194.34999999999997 C 261.072589682834 194.34999999999997 261.33928418332596 231.725 261.87267318431 231.725 C 262.406062185298 231.725 262.672756685792 231.725 263.20614568678 231.725 C 263.84436044282 231.725 264.16346782084 194.34999999999997 264.80168257688 194.34999999999997 C 265.735113328604 194.34999999999997 266.20182870446604 194.34999999999997 267.13525945619 194.34999999999997 C 267.16378095138197 194.34999999999997 267.178041698978 184.1050475562706 267.20656319417 183.67142857142858 C 267.739952195158 175.56219041341348 268.006646695652 172.99285714285713 268.54003569664 172.99285714285713 C 269.07342469762403 172.99285714285713 269.340119198116 183.67142857142858 269.8735081991 183.67142857142858 C 270.406897200088 183.67142857142858 270.673591700582 183.67142857142858 271.20698070157 183.67142857142858 C 271.74036970255395 183.67142857142858 272.00706420304596 119.59999999999997 272.54045320403 119.59999999999997 C 273.07384220501797 119.59999999999997 273.340536705512 119.59999999999997 273.8739257065 119.59999999999997 C 274.40731470748403 119.59999999999997 274.674009207976 167.44000000010033 275.20739820896 194.34999999999997 C 275.740787209948 221.26000000010032 276.007481710442 254.14999999999998 276.54087071143 254.14999999999998 C 277.074259712414 254.14999999999998 277.340954212906 169.4333333333333 277.87434321389 169.4333333333333 C 278.40773221487797 169.4333333333333 278.674426715372 187.55454545454546 279.20781571636 187.55454545454546 C 279.741204717344 187.55454545454546 280.007899217836 185.0175757575641 280.54128821882 181.89166666666665 C 281.074677219808 178.7657575757459 281.341371720302 171.925 281.87476072129 171.925 C 282.408149722274 171.925 282.674844222766 180.7590909090909 283.20823322375 180.7590909090909 C 283.741622224738 180.7590909090909 284.008316725232 171.925 284.54170572622 171.925 C 285.07509472720403 171.925 285.34178922769604 183.67142857142858 285.87517822868 183.67142857142858 C 286.408567229668 183.67142857142858 286.675261730162 144.51666666666665 287.20865073115 144.51666666666665 C 287.742039732134 144.51666666666665 288.008734232626 159.46666666666664 288.54212323361 159.46666666666664 C 289.075512234598 159.46666666666664 289.342206735092 135.8788888889186 289.87559573608 127.90555555555554 C 290.40898473706403 119.93222222225194 290.675679237556 119.59999999999997 291.20906823854 119.59999999999997 C 291.742457239528 119.59999999999997 292.009151740022 119.59999999999997 292.54254074101 119.59999999999997 C 293.07592974199395 119.59999999999997 293.342624242486 119.59999999999997 293.87601324347 127.07499999999999 C 294.409402244458 134.55 294.676096744952 194.34999999999997 295.20948574594 194.34999999999997 C 295.74287474692403 194.34999999999997 296.009569247416 127.07499999999999 296.5429582484 127.07499999999999 C 297.076347249388 127.07499999999999 297.343041749882 153.5772727272727 297.87643075087 153.5772727272727 C 298.409819751854 153.5772727272727 298.676514252346 144.51666666666665 299.20990325333 144.51666666666665 C 299.743292254318 144.51666666666665 300.009986754812 144.51666666666665 300.5433757558 144.51666666666665 C 301.076764756784 144.51666666666665 301.34345925727604 181.89166666666662 301.87684825826 194.34999999999997 C 302.410237259248 206.8083333333333 302.676931759742 194.34999999999997 303.21032076073 206.8083333333333 C 303.74370976171406 219.26666666666665 304.01040426220595 256.64166666666665 304.54379326319 256.64166666666665 C 305.077182264178 256.64166666666665 305.343876764672 189.36666666666665 305.87726576566 169.4333333333333 C 306.410654766644 149.49999999999997 306.67734926713604 154.9816666666459 307.21073826812 149.49999999999997 C 307.744127269108 144.01833333331257 308.010821769602 142.02499999999998 308.54421077059 142.02499999999998 C 309.077599771574 142.02499999999998 309.344294272066 169.4333333333333 309.87768327305 169.4333333333333 C 310.411072274038 169.4333333333333 310.677766774532 169.4333333333333 311.21115577552 169.4333333333333 C 311.74454477650403 169.4333333333333 312.011239276996 169.4333333333333 312.54462827798 166.31875 C 313.078017278968 163.20416666666668 313.344711779462 144.51666666666665 313.87810078045 144.51666666666665 C 314.411489781434 144.51666666666665 314.67818428192606 151.9916666666855 315.21157328291 156.97499999999997 C 315.744962283898 161.95833333335216 316.011656784392 166.22976190474995 316.54504578538 169.4333333333333 C 317.078434786364 172.6369047618928 317.345129286856 172.99285714285713 317.87851828784 172.99285714285713 C 318.411907288828 172.99285714285713 318.678601789322 119.59999999999997 319.21199079031 119.59999999999997 C 319.745379791294 119.59999999999997 320.012074291786 142.0250000000557 320.54546329277 156.97499999999997 C 321.078852293758 171.92500000005572 321.345546794252 194.34999999999997 321.87893579524 194.34999999999997 C 322.41232479622397 194.34999999999997 322.679019296716 174.06071428565053 323.2124082977 156.97499999999997 C 323.745797298688 139.88928571422196 324.012491799182 119.59999999999991 324.54588080017 108.92142857142852 C 325.079269801154 98.24285714285713 325.345964301646 98.24285714285713 325.87935330263 98.24285714285713 C 326.412742303618 98.24285714285713 326.679436804112 100.91249999999997 327.2128258051 100.91249999999997 C 327.746214806084 100.91249999999997 328.01290930657603 63.537499999999966 328.54629830756 54.193749999999966 C 329.079687308548 44.849999999999966 329.346381809042 44.849999999999966 329.87977081003 44.849999999999966 C 330.413159811014 44.849999999999966 330.679854311506 44.849999999999966 331.21324331249 57.30833333333331 C 331.746632313478 69.76666666666665 332.013326813972 119.59999999999997 332.54671581496 119.59999999999997 C 333.080104815944 119.59999999999997 333.346799316436 112.65892857141458 333.88018831742 108.92142857142852 C 334.413577318408 105.18392857141458 334.680271818902 108.92142857142852 335.21366081989 100.91249999999997 C 335.74704982087394 92.90357142857141 336.013744321366 63.537499999999966 336.54713332235 54.193749999999966 C 337.080522323338 44.849999999999966 337.347216823832 44.849999999999966 337.88060582482 44.849999999999966 C 338.413994825804 44.849999999999966 338.680689326296 44.849999999999966 339.21407832728 44.849999999999966 C 339.747467328268 44.849999999999966 340.014161828762 44.849999999999966 340.54755082975 52.32499999999993 C 341.080939830734 59.7999999999999 341.347634331226 95.30625000005573 341.88102333221 110.25624999999997 C 342.414412333198 125.20625000005573 342.681106833692 127.07499999999999 343.21449583468 127.07499999999999 C 343.74788483566397 127.07499999999999 344.01457933615603 72.88124999999997 344.54796833714 72.88124999999997 C 345.081357338128 72.88124999999997 345.348051838622 82.22499999999997 345.88144083961 82.22499999999997 C 346.41482984059405 82.22499999999997 346.68152434108595 72.88124999999997 347.21491334207 72.88124999999997 C 347.748302343058 72.88124999999997 348.014996843552 82.25897727271456 348.54838584454 85.62272727272727 C 349.08177484552397 88.98647727271454 349.34846934601603 85.62272727272727 349.881858347 89.69999999999993 C 350.415247347988 93.77727272727259 350.681941848482 171.925 351.21533084947 171.925 C 351.748719850454 171.925 352.015414350946 165.94499999993863 352.54880335193 149.49999999999997 C 353.082192352918 133.05499999993862 353.348886853412 89.69999999999993 353.8822758544 89.69999999999993 C 354.415664855384 89.69999999999993 354.682359355876 119.59999999999997 355.21574835686 119.59999999999997 C 355.74913735784804 119.59999999999997 356.015831858342 119.59999999999997 356.54922085933 119.59999999999997 C 357.082609860314 119.59999999999997 357.34930436080606 79.55535714285713 357.88269336179 72.88124999999997 C 358.416082362778 66.2071428571428 358.682776863272 66.2071428571428 359.21616586426 66.2071428571428 C 359.749554865244 66.2071428571428 360.016249365736 82.22499999999997 360.54963836672 82.22499999999997 C 361.083027367708 82.22499999999997 361.349721868202 72.88124999999997 361.88311086919 72.88124999999997 C 362.416499870174 72.88124999999997 362.683194370666 119.59999999999997 363.21658337165 119.59999999999997 C 363.74997237263807 119.59999999999997 364.016666873132 66.2071428571428 364.55005587412 66.2071428571428 C 365.08344487510396 66.2071428571428 365.350139375596 72.88124999999997 365.88352837658 72.88124999999997 C 366.416917377568 72.88124999999997 366.683611878062 72.88124999999997 367.21700087905 72.88124999999997 C 367.750389880034 72.88124999999997 368.017084380526 66.2071428571428 368.55047338151 66.2071428571428 C 369.083862382498 66.2071428571428 369.350556882992 164.45 369.88394588398 164.45 C 370.417334884964 164.45 370.68402938545603 160.96166666660446 371.21741838644 144.51666666666665 C 371.750807387428 128.07166666660444 372.0175018879219 82.22499999999997 372.55089088891 82.22499999999997 C 373.084279889894 82.22499999999997 373.350974390386 119.59999999999997 373.88436339137 119.59999999999997 C 374.417752392358 119.59999999999997 374.684446892852 72.88124999999997 375.21783589384 72.88124999999997 C 375.751224894824 72.88124999999997 376.01791939531597 103.06875000010452 376.5513083963 131.09999999999997 C 377.084697397288 159.13125000010453 377.351391897782 213.0375 377.88478089877 213.0375 C 378.41816989975393 213.0375 378.684864400246 86.37777777777774 379.21825340123 82.22499999999997 C 379.751642402218 78.0722222222222 380.01833690271195 82.22499999999997 380.5517259037 78.0722222222222 C 381.085114904684 73.91944444444442 381.35180940517597 61.46111111111108 381.88519840616 61.46111111111108 C 382.418587407148 61.46111111111108 382.685281907642 61.46111111111108 383.21867090863 63.537499999999966 C 383.752059909614 65.61388888888885 384.018754410106 86.37777777777774 384.55214341109 86.37777777777774 C 385.085532412078 86.37777777777774 385.352226912572 78.0722222222222 385.88561591356 78.0722222222222 C 386.41900491454396 78.0722222222222 386.685699415036 81.39444444447581 387.21908841602 89.69999999999993 C 387.752477417008 98.00555555558691 388.019171917502 101.16166666659882 388.55256091849 119.59999999999997 C 389.08594991947405 138.0383333332655 389.35264441996594 181.89166666666665 389.88603342095 181.89166666666665 C 390.419422421938 181.89166666666665 390.686116922432 154.83928571432475 391.21950592342 144.51666666666665 C 391.75289492440396 134.19404761908666 392.019589424896 135.2619047618859 392.55297842588 130.2785714285714 C 393.086367426868 125.29523809521922 393.353061927362 129.2107142857501 393.88645092835 119.59999999999997 C 394.419839929334 109.98928571432151 394.686534429826 82.22499999999997 395.21992343081 82.22499999999997 C 395.753312431798 82.22499999999997 396.020006932292 104.64999999994421 396.55339593328 119.59999999999997 C 397.086784934264 134.54999999994422 397.35347943475597 156.97499999999997 397.88686843574 156.97499999999997 C 398.42025743672804 156.97499999999997 398.686951937222 57.30833333333331 399.22034093821 57.30833333333331 C 399.753729939194 57.30833333333331 400.02042443968605 119.59999999999997 400.55381344067 119.59999999999997 C 401.087202441658 119.59999999999997 401.353896942152 119.59999999999997 401.88728594314 119.59999999999997 C 402.92554244992004 119.59999999999997 403.44467070330995 194.34999999999997 404.48292721009 194.34999999999997 C 404.51144870528196 194.34999999999997 404.525709452878 144.51666666666665 404.55423094807 132.0583333333333 C 405.08761994905404 119.59999999999997 405.354314449546 132.0583333333333 405.88770345053 119.59999999999997 C 406.42109245151806 107.14166666666662 406.687786952012 57.30833333333331 407.221175953 57.30833333333331 C 407.75456495398396 57.30833333333331 408.02125945447597 119.59999999999997 408.55464845546 119.59999999999997 C 409.088037456448 119.59999999999997 409.35473195694203 119.59999999999997 409.88812095793 119.59999999999997 C 410.42150995891404 119.59999999999997 410.688204459406 119.59999999999997 411.22159346039 119.59999999999997 C 411.75498246137795 119.59999999999997 412.021676961872 119.59999999999997 412.55506596286 119.59999999999997 C 413.088454963844 119.59999999999997 413.35514946433597 119.59999999999997 413.88853846532 119.59999999999997 C 414.421927466308 119.59999999999997 414.68862196680203 44.849999999999966 415.22201096779 44.849999999999966 C 415.755399968774 44.849999999999966 416.022094469266 119.59999999999997 416.55548347025 119.59999999999997 C 417.622261472222 119.59999999999997 418.15565047320797 119.59999999999997 419.22242847518 119.59999999999997 C 419.755817476168 119.59999999999997 420.02251197666203 119.59999999999997 420.55590097765 119.59999999999997 C 421.08928997863404 119.59999999999997 421.355984479126 119.59999999999997 421.88937348011 119.59999999999997 C 422.422762481098 119.59999999999997 422.68945698159195 119.59999999999997 423.22284598258 119.59999999999997 C 424.28962398455195 119.59999999999997 424.823012985538 44.849999999999966 425.88979098751 44.849999999999966 C 426.42317998849404 44.849999999999966 426.689874488986 119.59999999999997 427.22326348997 119.59999999999997 C 427.756652490958 119.59999999999997 428.02334699145194 119.59999999999997 428.55673599244 119.59999999999997 C 429.09012499342396 119.59999999999997 429.356819493916 119.59999999999997 429.8902084949 119.59999999999997 C 430.956986496872 119.59999999999997 431.490375497858 119.59999999999997 432.55715349983 119.59999999999997 C 433.090542500818 119.59999999999997 433.357237001312 119.59999999999997 433.8906260023 119.59999999999997 C 434.42401500328396 119.59999999999997 434.690709503776 44.849999999999966 435.22409850476 44.849999999999966 C 435.75748750574803 44.849999999999966 436.024182006242 44.849999999999966 436.55757100723 44.849999999999966 C 437.624349009202 44.849999999999966 438.15773801018804 119.59999999999997 439.22451601216 119.59999999999997 C 439.75790501314407 119.59999999999997 440.02459951363596 119.59999999999997 440.55798851462 119.59999999999997 C 442.15815551758004 119.59999999999997 442.95823901906004 44.849999999999966 444.55840602202 44.849999999999966 C 445.625184023992 44.849999999999966 446.15857302497807 44.849999999999966 447.22535102695 44.849999999999966 C 447.7587400279341 44.849999999999966 448.55882352941 44.849999999999966 448.55882352941 44.849999999999966" class="highcharts-graph" data-z-index="1" stroke="#5D83FF" stroke-width="2" stroke-linejoin="round" stroke-linecap="round"></path></g><g data-z-index="0.1" class="highcharts-markers highcharts-series-1 highcharts-spline-series highcharts-color-1 " transform="translate(79,63) scale(1 1)" clip-path="none"></g></g><text x="300" text-anchor="middle" class="highcharts-title" data-z-index="4" style="color:#333333;font-size:18px;fill:#333333;" y="24"><tspan>Alphalipoic Acid Intake &amp; Overall Mood Over Time</tspan></text><text x="300" text-anchor="middle" class="highcharts-subtitle" data-z-index="4" style="color:#666666;fill:#666666;" y="46"><tspan>Blue represents the sum of Alphalipoic Acid intake over the previous 7 days</tspan></text><g class="highcharts-axis-labels highcharts-xaxis-labels " data-z-index="7"><text x="98.442428992773" style="color:#666666;cursor:default;font-size:11px;fill:#666666;" text-anchor="start" transform="translate(0,0)" y="381" opacity="1"><tspan>Jul '12</tspan></text><text x="343.80136944633" style="color:#666666;cursor:default;font-size:11px;fill:#666666;" text-anchor="start" transform="translate(0,0)" y="381" opacity="1"><tspan>Jan '13</tspan></text><text x="221.12189921955" style="color:#666666;cursor:default;font-size:11px;fill:#666666;" text-anchor="start" transform="translate(0,0)" y="381" opacity="1"><tspan>Oct '12</tspan></text><text x="463.81389466818" style="color:#666666;cursor:default;font-size:11px;fill:#666666;" text-anchor="start" transform="translate(0,0)" y="381" opacity="1"><tspan>Apr '13</tspan></text></g><g class="highcharts-axis-labels highcharts-yaxis-labels " data-z-index="7"><text x="64" style="color:#666666;cursor:default;font-size:11px;fill:#666666;" text-anchor="end" transform="translate(0,0)" y="366" opacity="1">0</text><text x="64" style="color:#666666;cursor:default;font-size:11px;fill:#666666;" text-anchor="end" transform="translate(0,0)" y="306" opacity="1">250</text><text x="64" style="color:#666666;cursor:default;font-size:11px;fill:#666666;" text-anchor="end" transform="translate(0,0)" y="246" opacity="1">500</text><text x="64" style="color:#666666;cursor:default;font-size:11px;fill:#666666;" text-anchor="end" transform="translate(0,0)" y="186" opacity="1">750</text><text x="64" style="color:#666666;cursor:default;font-size:11px;fill:#666666;" text-anchor="end" transform="translate(0,0)" y="126" opacity="1">1000</text><text x="64" style="color:#666666;cursor:default;font-size:11px;fill:#666666;" text-anchor="end" transform="translate(0,0)" y="67" opacity="1">1250</text></g><g class="highcharts-axis-labels highcharts-yaxis-labels " data-z-index="7"><text x="547" style="color:#666666;cursor:default;font-size:11px;fill:#666666;" text-anchor="start" transform="translate(0,0)" y="366" opacity="1">1.6</text><text x="547" style="color:#666666;cursor:default;font-size:11px;fill:#666666;" text-anchor="start" transform="translate(0,0)" y="306" opacity="1">2.4</text><text x="547" style="color:#666666;cursor:default;font-size:11px;fill:#666666;" text-anchor="start" transform="translate(0,0)" y="246" opacity="1">3.2</text><text x="547" style="color:#666666;cursor:default;font-size:11px;fill:#666666;" text-anchor="start" transform="translate(0,0)" y="186" opacity="1">4</text><text x="547" style="color:#666666;cursor:default;font-size:11px;fill:#666666;" text-anchor="start" transform="translate(0,0)" y="126" opacity="1">4.8</text><text x="547" style="color:#666666;cursor:default;font-size:11px;fill:#666666;" text-anchor="start" transform="translate(0,0)" y="67" opacity="1">5.6</text></g><a xlink:href="https://quantimo.do" target="_blank">
                    <text x="590" class="highcharts-credits" text-anchor="end" data-z-index="8"
                          style="cursor:pointer;color:#999999;font-size:9px;fill:#999999;" y="295">https://quantimo.do
                    </text>
                </a></svg>