<?xml version="1.0" standalone="no"?><!DOCTYPE svg PUBLIC "-//W3C//DTD SVG 1.1//EN" "http://www.w3.org/Graphics/SVG/1.1/DTD/svg11.dtd"><svg xmlns:xlink="http://www.w3.org/1999/xlink" version="1.1" class="highcharts-root" style="font-family:&quot;Lucida Grande&quot;, &quot;Lucida Sans Unicode&quot;, Arial, Helvetica, sans-serif;font-size:12px;" xmlns="http://www.w3.org/2000/svg" width="600" height="400"><desc>Created with Highstock 6.2.0</desc><defs><clipPath id="highcharts-1f5m9ui-30"><rect x="0" y="0" width="532" height="242" fill="none"></rect></clipPath><clipPath id="highcharts-1f5m9ui-54"><rect x="0" y="0" width="532" height="242" fill="none"></rect></clipPath><clipPath id="highcharts-1f5m9ui-55"><rect x="58" y="99" width="532" height="242" fill="none"></rect></clipPath></defs><rect fill="#ffffff" class="highcharts-background" x="0" y="0" width="600" height="400" rx="0" ry="0"></rect><rect fill="none" class="highcharts-plot-background" x="58" y="99" width="532" height="242"></rect><g class="highcharts-pane-group" data-z-index="0"></g><g class="highcharts-grid highcharts-xaxis-grid " data-z-index="1"><path fill="none" data-z-index="1" class="highcharts-grid-line" d="M 109.5 99 L 109.5 341" opacity="1"></path><path fill="none" data-z-index="1" class="highcharts-grid-line" d="M 221.5 99 L 221.5 341" opacity="1"></path><path fill="none" data-z-index="1" class="highcharts-grid-line" d="M 333.5 99 L 333.5 341" opacity="1"></path><path fill="none" data-z-index="1" class="highcharts-grid-line" d="M 445.5 99 L 445.5 341" opacity="1"></path><path fill="none" data-z-index="1" class="highcharts-grid-line" d="M 557.5 99 L 557.5 341" opacity="1"></path></g><g class="highcharts-grid highcharts-yaxis-grid " data-z-index="1"><path fill="none" stroke="#e6e6e6" stroke-width="1" data-z-index="1" class="highcharts-grid-line" d="M 58 341.5 L 590 341.5" opacity="1"></path><path fill="none" stroke="#e6e6e6" stroke-width="1" data-z-index="1" class="highcharts-grid-line" d="M 58 281.5 L 590 281.5" opacity="1"></path><path fill="none" stroke="#e6e6e6" stroke-width="1" data-z-index="1" class="highcharts-grid-line" d="M 58 220.5 L 590 220.5" opacity="1"></path><path fill="none" stroke="#e6e6e6" stroke-width="1" data-z-index="1" class="highcharts-grid-line" d="M 58 160.5 L 590 160.5" opacity="1"></path><path fill="none" stroke="#e6e6e6" stroke-width="1" data-z-index="1" class="highcharts-grid-line" d="M 58 98.5 L 590 98.5" opacity="1"></path></g><rect fill="none" class="highcharts-plot-border" data-z-index="1" x="58" y="99" width="532" height="242"></rect><g class="highcharts-axis highcharts-xaxis " data-z-index="2"><path fill="none" class="highcharts-tick" stroke="#ccd6eb" stroke-width="1" d="M 109.5 341 L 109.5 351" opacity="1"></path><path fill="none" class="highcharts-tick" stroke="#ccd6eb" stroke-width="1" d="M 221.5 341 L 221.5 351" opacity="1"></path><path fill="none" class="highcharts-tick" stroke="#ccd6eb" stroke-width="1" d="M 333.5 341 L 333.5 351" opacity="1"></path><path fill="none" class="highcharts-tick" stroke="#ccd6eb" stroke-width="1" d="M 445.5 341 L 445.5 351" opacity="1"></path><path fill="none" class="highcharts-tick" stroke="#ccd6eb" stroke-width="1" d="M 557.5 341 L 557.5 351" opacity="1"></path><text x="324" data-z-index="7" text-anchor="middle" transform="translate(0,0)" class="highcharts-axis-title" style="color:#666666;fill:#666666;" y="381"><tspan>Brain Performance Index From Lumosity BPI (index) over previous 24 hours</tspan></text><path fill="none" class="highcharts-axis-line" stroke="#ccd6eb" stroke-width="1" data-z-index="7" d="M 58 341.5 L 590 341.5"></path></g><g class="highcharts-axis highcharts-yaxis " data-z-index="2"><text x="26" data-z-index="7" text-anchor="middle" transform="translate(0,0) rotate(270 26 220)" class="highcharts-axis-title" style="color:#666666;fill:#666666;" y="220"><tspan>Overall Mood (/5)</tspan></text><path fill="none" class="highcharts-axis-line" data-z-index="7" d="M 58 99 L 58 341"></path></g><g class="highcharts-series-group" data-z-index="3"><g data-z-index="0.1" class="highcharts-series highcharts-series-0 highcharts-scatter-series highcharts-color-0 " transform="translate(58,99) scale(1 1)" clip-path="url(#highcharts-1f5m9ui-54)"></g><g data-z-index="0.1" class="highcharts-markers highcharts-series-0 highcharts-scatter-series highcharts-color-0 " transform="translate(58,99) scale(1 1)" clip-path="none"><path fill="#000000" d="M 121 182 A 4 4 0 1 1 120.99999800000016 181.99600000066667 Z" class="highcharts-point highcharts-color-0"></path><path fill="#000000" d="M 9 182 A 4 4 0 1 1 8.999998000000167 181.99600000066667 Z" class="highcharts-point highcharts-color-0"></path><path fill="#000000" d="M 42 182 A 4 4 0 1 1 41.99999800000017 181.99600000066667 Z" class="highcharts-point highcharts-color-0"></path><path fill="#000000" d="M 83 182 A 4 4 0 1 1 82.99999800000016 181.99600000066667 Z" class="highcharts-point highcharts-color-0"></path><path fill="#000000" d="M 89 121 A 4 4 0 1 1 88.99999800000016 120.99600000066667 Z" class="highcharts-point highcharts-color-0"></path><path fill="#000000" d="M 139 182 A 4 4 0 1 1 138.99999800000018 181.99600000066667 Z" class="highcharts-point highcharts-color-0"></path><path fill="#000000" d="M 127 182 A 4 4 0 1 1 126.99999800000016 181.99600000066667 Z" class="highcharts-point highcharts-color-0"></path><path fill="#000000" d="M 152 182 A 4 4 0 1 1 151.99999800000018 181.99600000066667 Z" class="highcharts-point highcharts-color-0"></path><path fill="#000000" d="M 141 182 A 4 4 0 1 1 140.99999800000018 181.99600000066667 Z" class="highcharts-point highcharts-color-0"></path><path fill="#000000" d="M 168 182 A 4 4 0 1 1 167.99999800000018 181.99600000066667 Z" class="highcharts-point highcharts-color-0"></path><path fill="#000000" d="M 219 182 A 4 4 0 1 1 218.99999800000018 181.99600000066667 Z" class="highcharts-point highcharts-color-0"></path><path fill="#000000" d="M 403 61 A 4 4 0 1 1 402.9999980000002 60.99600000066666 Z" class="highcharts-point highcharts-color-0"></path><path fill="#000000" d="M 400 121 A 4 4 0 1 1 399.9999980000002 120.99600000066667 Z" class="highcharts-point highcharts-color-0"></path><path fill="#000000" d="M 405 121 A 4 4 0 1 1 404.9999980000002 120.99600000066667 Z" class="highcharts-point highcharts-color-0"></path><path fill="#000000" d="M 418 121 A 4 4 0 1 1 417.9999980000002 120.99600000066667 Z" class="highcharts-point highcharts-color-0"></path><path fill="#000000" d="M 439 121 A 4 4 0 1 1 438.9999980000002 120.99600000066667 Z" class="highcharts-point highcharts-color-0"></path><path fill="#000000" d="M 434 151 A 4 4 0 1 1 433.9999980000002 150.99600000066667 Z" class="highcharts-point highcharts-color-0"></path><path fill="#000000" d="M 519 121 A 4 4 0 1 1 518.9999980000001 120.99600000066667 Z" class="highcharts-point highcharts-color-0"></path><path fill="#000000" d="M 530 121 A 4 4 0 1 1 529.9999980000001 120.99600000066667 Z" class="highcharts-point highcharts-color-0"></path><path fill="#000000" d="M 524 61 A 4 4 0 1 1 523.9999980000001 60.99600000066666 Z" class="highcharts-point highcharts-color-0"></path><path fill="#000000" d="M 515 61 A 4 4 0 1 1 514.9999980000001 60.99600000066666 Z" class="highcharts-point highcharts-color-0"></path><path fill="#000000" d="M 528 121 A 4 4 0 1 1 527.9999980000001 120.99600000066667 Z" class="highcharts-point highcharts-color-0"></path><path fill="#000000" d="M 524 23 A 4 4 0 1 1 523.9999980000001 22.996000000666665 Z" class="highcharts-point highcharts-color-0"></path></g></g><text x="300" text-anchor="middle" class="highcharts-title" data-z-index="4" style="color:#333333;font-size:18px;fill:#333333;" y="24"><tspan>Overall Mood Following Brain Performance Index From</tspan><tspan dy="21" x="300">Lumosity BPI</tspan></text><text x="300" text-anchor="middle" class="highcharts-subtitle" data-z-index="4" style="color:#666666;fill:#666666;" y="67"><tspan>An increase in 24 hours cumulative Brain Performance Index From Lumosity BPI is usually</tspan><tspan dy="15" x="300">followed by an increase in Overall Mood. (R = 0.787)</tspan></text><g class="highcharts-axis-labels highcharts-xaxis-labels " data-z-index="7"><text x="110.224017504" style="color:#666666;cursor:default;font-size:11px;fill:#666666;" text-anchor="middle" transform="translate(0,0)" y="360" opacity="1">950</text><text x="222.14861566944" style="color:#666666;cursor:default;font-size:11px;fill:#666666;" text-anchor="middle" transform="translate(0,0)" y="360" opacity="1">1000</text><text x="334.07321383489" style="color:#666666;cursor:default;font-size:11px;fill:#666666;" text-anchor="middle" transform="translate(0,0)" y="360" opacity="1">1050</text><text x="445.99781200034" style="color:#666666;cursor:default;font-size:11px;fill:#666666;" text-anchor="middle" transform="translate(0,0)" y="360" opacity="1">1100</text><text x="557.92241016578" style="color:#666666;cursor:default;font-size:11px;fill:#666666;" text-anchor="middle" transform="translate(0,0)" y="360" opacity="1">1150</text></g><g class="highcharts-axis-labels highcharts-yaxis-labels " data-z-index="7"><text x="43" style="color:#666666;cursor:default;font-size:11px;fill:#666666;" text-anchor="end" transform="translate(0,0)" y="345" opacity="1">1</text><text x="43" style="color:#666666;cursor:default;font-size:11px;fill:#666666;" text-anchor="end" transform="translate(0,0)" y="284" opacity="1">2</text><text x="43" style="color:#666666;cursor:default;font-size:11px;fill:#666666;" text-anchor="end" transform="translate(0,0)" y="224" opacity="1">3</text><text x="43" style="color:#666666;cursor:default;font-size:11px;fill:#666666;" text-anchor="end" transform="translate(0,0)" y="163" opacity="1">4</text><text x="43" style="color:#666666;cursor:default;font-size:11px;fill:#666666;" text-anchor="end" transform="translate(0,0)" y="103" opacity="1">5</text></g><a xlink:href="https://quantimo.do" target="_blank">
                    <text x="590" class="highcharts-credits" text-anchor="end" data-z-index="8"
                          style="cursor:pointer;color:#999999;font-size:9px;fill:#999999;" y="395">https://quantimo.do
                    </text>
                </a></svg>