<?xml version="1.0" standalone="no"?><!DOCTYPE svg PUBLIC "-//W3C//DTD SVG 1.1//EN" "http://www.w3.org/Graphics/SVG/1.1/DTD/svg11.dtd"><svg xmlns:xlink="http://www.w3.org/1999/xlink" version="1.1" class="highcharts-root" style="font-family:&quot;Lucida Grande&quot;, &quot;Lucida Sans Unicode&quot;, Arial, Helvetica, sans-serif;font-size:12px;" xmlns="http://www.w3.org/2000/svg" width="600" height="300"><desc>Created with Highstock 6.2.0</desc><defs><clipPath id="highcharts-fr9n3vu-23"><rect x="0" y="0" width="525" height="163" fill="none"></rect></clipPath><clipPath id="highcharts-fr9n3vu-40"><rect x="0" y="0" width="525" height="163" fill="none"></rect></clipPath><clipPath id="highcharts-fr9n3vu-41"><rect x="65" y="63" width="525" height="163" fill="none"></rect></clipPath></defs><rect fill="#ffffff" class="highcharts-background" x="0" y="0" width="600" height="300" rx="0" ry="0"></rect><rect fill="none" class="highcharts-plot-background" x="65" y="63" width="525" height="163"></rect><g class="highcharts-pane-group" data-z-index="0"></g><g class="highcharts-grid highcharts-xaxis-grid " data-z-index="1"><path fill="none" data-z-index="1" class="highcharts-grid-line" d="M 97.5 63 L 97.5 226" opacity="1"></path><path fill="none" data-z-index="1" class="highcharts-grid-line" d="M 130.5 63 L 130.5 226" opacity="1"></path><path fill="none" data-z-index="1" class="highcharts-grid-line" d="M 162.5 63 L 162.5 226" opacity="1"></path><path fill="none" data-z-index="1" class="highcharts-grid-line" d="M 195.5 63 L 195.5 226" opacity="1"></path><path fill="none" data-z-index="1" class="highcharts-grid-line" d="M 228.5 63 L 228.5 226" opacity="1"></path><path fill="none" data-z-index="1" class="highcharts-grid-line" d="M 261.5 63 L 261.5 226" opacity="1"></path><path fill="none" data-z-index="1" class="highcharts-grid-line" d="M 294.5 63 L 294.5 226" opacity="1"></path><path fill="none" data-z-index="1" class="highcharts-grid-line" d="M 327.5 63 L 327.5 226" opacity="1"></path><path fill="none" data-z-index="1" class="highcharts-grid-line" d="M 359.5 63 L 359.5 226" opacity="1"></path><path fill="none" data-z-index="1" class="highcharts-grid-line" d="M 392.5 63 L 392.5 226" opacity="1"></path><path fill="none" data-z-index="1" class="highcharts-grid-line" d="M 425.5 63 L 425.5 226" opacity="1"></path><path fill="none" data-z-index="1" class="highcharts-grid-line" d="M 458.5 63 L 458.5 226" opacity="1"></path><path fill="none" data-z-index="1" class="highcharts-grid-line" d="M 491.5 63 L 491.5 226" opacity="1"></path><path fill="none" data-z-index="1" class="highcharts-grid-line" d="M 523.5 63 L 523.5 226" opacity="1"></path><path fill="none" data-z-index="1" class="highcharts-grid-line" d="M 556.5 63 L 556.5 226" opacity="1"></path><path fill="none" data-z-index="1" class="highcharts-grid-line" d="M 589.5 63 L 589.5 226" opacity="1"></path><path fill="none" data-z-index="1" class="highcharts-grid-line" d="M 64.5 63 L 64.5 226" opacity="1"></path></g><g class="highcharts-grid highcharts-yaxis-grid " data-z-index="1"><path fill="none" stroke="#e6e6e6" stroke-width="1" data-z-index="1" class="highcharts-grid-line" d="M 65 226.5 L 590 226.5" opacity="1"></path><path fill="none" stroke="#e6e6e6" stroke-width="1" data-z-index="1" class="highcharts-grid-line" d="M 65 172.5 L 590 172.5" opacity="1"></path><path fill="none" stroke="#e6e6e6" stroke-width="1" data-z-index="1" class="highcharts-grid-line" d="M 65 117.5 L 590 117.5" opacity="1"></path><path fill="none" stroke="#e6e6e6" stroke-width="1" data-z-index="1" class="highcharts-grid-line" d="M 65 62.5 L 590 62.5" opacity="1"></path></g><rect fill="none" class="highcharts-plot-border" data-z-index="1" x="65" y="63" width="525" height="163"></rect><g class="highcharts-axis highcharts-xaxis " data-z-index="2"><path fill="none" class="highcharts-tick" stroke="#ccd6eb" stroke-width="1" d="M 97.5 226 L 97.5 236" opacity="1"></path><path fill="none" class="highcharts-tick" stroke="#ccd6eb" stroke-width="1" d="M 130.5 226 L 130.5 236" opacity="1"></path><path fill="none" class="highcharts-tick" stroke="#ccd6eb" stroke-width="1" d="M 162.5 226 L 162.5 236" opacity="1"></path><path fill="none" class="highcharts-tick" stroke="#ccd6eb" stroke-width="1" d="M 195.5 226 L 195.5 236" opacity="1"></path><path fill="none" class="highcharts-tick" stroke="#ccd6eb" stroke-width="1" d="M 228.5 226 L 228.5 236" opacity="1"></path><path fill="none" class="highcharts-tick" stroke="#ccd6eb" stroke-width="1" d="M 261.5 226 L 261.5 236" opacity="1"></path><path fill="none" class="highcharts-tick" stroke="#ccd6eb" stroke-width="1" d="M 294.5 226 L 294.5 236" opacity="1"></path><path fill="none" class="highcharts-tick" stroke="#ccd6eb" stroke-width="1" d="M 327.5 226 L 327.5 236" opacity="1"></path><path fill="none" class="highcharts-tick" stroke="#ccd6eb" stroke-width="1" d="M 359.5 226 L 359.5 236" opacity="1"></path><path fill="none" class="highcharts-tick" stroke="#ccd6eb" stroke-width="1" d="M 392.5 226 L 392.5 236" opacity="1"></path><path fill="none" class="highcharts-tick" stroke="#ccd6eb" stroke-width="1" d="M 425.5 226 L 425.5 236" opacity="1"></path><path fill="none" class="highcharts-tick" stroke="#ccd6eb" stroke-width="1" d="M 458.5 226 L 458.5 236" opacity="1"></path><path fill="none" class="highcharts-tick" stroke="#ccd6eb" stroke-width="1" d="M 491.5 226 L 491.5 236" opacity="1"></path><path fill="none" class="highcharts-tick" stroke="#ccd6eb" stroke-width="1" d="M 523.5 226 L 523.5 236" opacity="1"></path><path fill="none" class="highcharts-tick" stroke="#ccd6eb" stroke-width="1" d="M 556.5 226 L 556.5 236" opacity="1"></path><path fill="none" class="highcharts-tick" stroke="#ccd6eb" stroke-width="1" d="M 590.5 226 L 590.5 236" opacity="1"></path><path fill="none" class="highcharts-tick" stroke="#ccd6eb" stroke-width="1" d="M 64.5 226 L 64.5 236" opacity="1"></path><text x="327.5" data-z-index="7" text-anchor="middle" transform="translate(0,0)" class="highcharts-axis-title" style="color:#666666;fill:#666666;" y="281.40559159102156"><tspan>Daily Values (kcal)</tspan></text><path fill="none" class="highcharts-axis-line" stroke="#ccd6eb" stroke-width="1" data-z-index="7" d="M 65 226.5 L 590 226.5"></path></g><g class="highcharts-axis highcharts-yaxis " data-z-index="2"><text x="26" data-z-index="7" text-anchor="middle" transform="translate(0,0) rotate(270 26 144.5)" class="highcharts-axis-title" style="color:#666666;fill:#666666;" y="144.5"><tspan>Number of Days</tspan></text><path fill="none" class="highcharts-axis-line" data-z-index="7" d="M 65 63 L 65 226"></path></g><g class="highcharts-series-group" data-z-index="3"><g data-z-index="0.1" class="highcharts-series highcharts-series-0 highcharts-column-series highcharts-color-0 " transform="translate(65,63) scale(1 1)" clip-path="url(#highcharts-fr9n3vu-40)"><rect x="8.5" y="70.5" width="16" height="93" fill="#000000" stroke="#ffffff" stroke-width="1" class="highcharts-point highcharts-color-0"></rect><rect x="40.5" y="161.5" width="16" height="2" fill="#000000" stroke="#ffffff" stroke-width="1" class="highcharts-point highcharts-color-0"></rect><rect x="73.5" y="159.5" width="16" height="4" fill="#000000" stroke="#ffffff" stroke-width="1" class="highcharts-point highcharts-color-0"></rect><rect x="106.5" y="161.5" width="16" height="2" fill="#000000" stroke="#ffffff" stroke-width="1" class="highcharts-point highcharts-color-0"></rect><rect x="139.5" y="156.5" width="16" height="7" fill="#000000" stroke="#ffffff" stroke-width="1" class="highcharts-point highcharts-color-0"></rect><rect x="172.5" y="156.5" width="16" height="7" fill="#000000" stroke="#ffffff" stroke-width="1" class="highcharts-point highcharts-color-0"></rect><rect x="204.5" y="156.5" width="16" height="7" fill="#000000" stroke="#ffffff" stroke-width="1" class="highcharts-point highcharts-color-0"></rect><rect x="237.5" y="152.5" width="16" height="11" fill="#000000" stroke="#ffffff" stroke-width="1" class="highcharts-point highcharts-color-0"></rect><rect x="270.5" y="152.5" width="16" height="11" fill="#000000" stroke="#ffffff" stroke-width="1" class="highcharts-point highcharts-color-0"></rect><rect x="303.5" y="159.5" width="16" height="4" fill="#000000" stroke="#ffffff" stroke-width="1" class="highcharts-point highcharts-color-0"></rect><rect x="336.5" y="124.5" width="16" height="39" fill="#000000" stroke="#ffffff" stroke-width="1" class="highcharts-point highcharts-color-0"></rect><rect x="368.5" y="33.5" width="16" height="130" fill="#000000" stroke="#ffffff" stroke-width="1" class="highcharts-point highcharts-color-0"></rect><rect x="401.5" y="78.5" width="16" height="85" fill="#000000" stroke="#ffffff" stroke-width="1" class="highcharts-point highcharts-color-0"></rect><rect x="434.5" y="141.5" width="16" height="22" fill="#000000" stroke="#ffffff" stroke-width="1" class="highcharts-point highcharts-color-0"></rect><rect x="467.5" y="137.5" width="16" height="26" fill="#000000" stroke="#ffffff" stroke-width="1" class="highcharts-point highcharts-color-0"></rect><rect x="500.5" y="150.5" width="16" height="13" fill="#000000" stroke="#ffffff" stroke-width="1" class="highcharts-point highcharts-color-0"></rect></g><g data-z-index="0.1" class="highcharts-markers highcharts-series-0 highcharts-column-series highcharts-color-0 " transform="translate(65,63) scale(1 1)" clip-path="none"></g></g><text x="300" text-anchor="middle" class="highcharts-title" data-z-index="4" style="color:#333333;font-size:18px;fill:#333333;" y="24"><tspan>Daily Calories Distribution</tspan></text><text x="300" text-anchor="middle" class="highcharts-subtitle" data-z-index="4" style="color:#666666;fill:#666666;" y="46"><tspan>Each column represents the number of days this value occurred.</tspan></text><g class="highcharts-axis-labels highcharts-xaxis-labels " data-z-index="7"><text x="83.99897486435067" style="color:#666666;cursor:default;font-size:11px;fill:#666666;" text-anchor="end" transform="translate(0,0) rotate(-45 83.99897486435067 242)" y="242" opacity="1">0</text><text x="116.81147486435069" style="color:#666666;cursor:default;font-size:11px;fill:#666666;" text-anchor="end" transform="translate(0,0) rotate(-45 116.81147486435069 242)" y="242" opacity="1">100</text><text x="149.62397486435069" style="color:#666666;cursor:default;font-size:11px;fill:#666666;" text-anchor="end" transform="translate(0,0) rotate(-45 149.62397486435069 242)" y="242" opacity="1">200</text><text x="182.43647486435069" style="color:#666666;cursor:default;font-size:11px;fill:#666666;" text-anchor="end" transform="translate(0,0) rotate(-45 182.43647486435069 242)" y="242" opacity="1">300</text><text x="215.24897486435069" style="color:#666666;cursor:default;font-size:11px;fill:#666666;" text-anchor="end" transform="translate(0,0) rotate(-45 215.24897486435069 242)" y="242" opacity="1">400</text><text x="248.06147486435066" style="color:#666666;cursor:default;font-size:11px;fill:#666666;" text-anchor="end" transform="translate(0,0) rotate(-45 248.06147486435066 242)" y="242" opacity="1">500</text><text x="280.87397486435066" style="color:#666666;cursor:default;font-size:11px;fill:#666666;" text-anchor="end" transform="translate(0,0) rotate(-45 280.87397486435066 242)" y="242" opacity="1">600</text><text x="313.68647486435066" style="color:#666666;cursor:default;font-size:11px;fill:#666666;" text-anchor="end" transform="translate(0,0) rotate(-45 313.68647486435066 242)" y="242" opacity="1">700</text><text x="346.49897486435066" style="color:#666666;cursor:default;font-size:11px;fill:#666666;" text-anchor="end" transform="translate(0,0) rotate(-45 346.49897486435066 242)" y="242" opacity="1">800</text><text x="379.31147486435066" style="color:#666666;cursor:default;font-size:11px;fill:#666666;" text-anchor="end" transform="translate(0,0) rotate(-45 379.31147486435066 242)" y="242" opacity="1">900</text><text x="412.12397486435066" style="color:#666666;cursor:default;font-size:11px;fill:#666666;" text-anchor="end" transform="translate(0,0) rotate(-45 412.12397486435066 242)" y="242" opacity="1">1000</text><text x="444.93647486435066" style="color:#666666;cursor:default;font-size:11px;fill:#666666;" text-anchor="end" transform="translate(0,0) rotate(-45 444.93647486435066 242)" y="242" opacity="1">2000</text><text x="477.74897486435066" style="color:#666666;cursor:default;font-size:11px;fill:#666666;" text-anchor="end" transform="translate(0,0) rotate(-45 477.74897486435066 242)" y="242" opacity="1">3000</text><text x="510.56147486435066" style="color:#666666;cursor:default;font-size:11px;fill:#666666;" text-anchor="end" transform="translate(0,0) rotate(-45 510.56147486435066 242)" y="242" opacity="1">4000</text><text x="543.3739748643507" style="color:#666666;cursor:default;font-size:11px;fill:#666666;" text-anchor="end" transform="translate(0,0) rotate(-45 543.3739748643507 242)" y="242" opacity="1">5000</text><text x="576.1864748643507" style="color:#666666;cursor:default;font-size:11px;fill:#666666;" text-anchor="end" transform="translate(0,0) rotate(-45 576.1864748643507 242)" y="242" opacity="1">6000</text></g><g class="highcharts-axis-labels highcharts-yaxis-labels " data-z-index="7"><text x="50" style="color:#666666;cursor:default;font-size:11px;fill:#666666;" text-anchor="end" transform="translate(0,0)" y="230" opacity="1">0</text><text x="50" style="color:#666666;cursor:default;font-size:11px;fill:#666666;" text-anchor="end" transform="translate(0,0)" y="175" opacity="1">25</text><text x="50" style="color:#666666;cursor:default;font-size:11px;fill:#666666;" text-anchor="end" transform="translate(0,0)" y="121" opacity="1">50</text><text x="50" style="color:#666666;cursor:default;font-size:11px;fill:#666666;" text-anchor="end" transform="translate(0,0)" y="67" opacity="1">75</text></g><a xlink:href="https://quantimo.do" target="_blank">
                    <text x="590" class="highcharts-credits" text-anchor="end" data-z-index="8"
                          style="cursor:pointer;color:#999999;font-size:9px;fill:#999999;" y="295">https://quantimo.do
                    </text>
                </a></svg>