<?xml version="1.0" standalone="no"?><!DOCTYPE svg PUBLIC "-//W3C//DTD SVG 1.1//EN" "http://www.w3.org/Graphics/SVG/1.1/DTD/svg11.dtd"><svg xmlns:xlink="http://www.w3.org/1999/xlink" version="1.1" class="highcharts-root" style="font-family:&quot;Lucida Grande&quot;, &quot;Lucida Sans Unicode&quot;, Arial, Helvetica, sans-serif;font-size:12px;" xmlns="http://www.w3.org/2000/svg" width="600" height="300"><desc>Created with Highstock 6.2.0</desc><defs><clipPath id="highcharts-3cakvjv-20"><rect x="0" y="0" width="517" height="163" fill="none"></rect></clipPath><clipPath id="highcharts-3cakvjv-34"><rect x="0" y="0" width="517" height="163" fill="none"></rect></clipPath><clipPath id="highcharts-3cakvjv-35"><rect x="73" y="78" width="517" height="163" fill="none"></rect></clipPath></defs><rect fill="#ffffff" class="highcharts-background" x="0" y="0" width="600" height="300" rx="0" ry="0"></rect><rect fill="none" class="highcharts-plot-background" x="73" y="78" width="517" height="163"></rect><g class="highcharts-pane-group" data-z-index="0"></g><g class="highcharts-grid highcharts-xaxis-grid " data-z-index="1"><path fill="none" data-z-index="1" class="highcharts-grid-line" d="M 112.5 78 L 112.5 241" opacity="1"></path><path fill="none" data-z-index="1" class="highcharts-grid-line" d="M 152.5 78 L 152.5 241" opacity="1"></path><path fill="none" data-z-index="1" class="highcharts-grid-line" d="M 191.5 78 L 191.5 241" opacity="1"></path><path fill="none" data-z-index="1" class="highcharts-grid-line" d="M 231.5 78 L 231.5 241" opacity="1"></path><path fill="none" data-z-index="1" class="highcharts-grid-line" d="M 271.5 78 L 271.5 241" opacity="1"></path><path fill="none" data-z-index="1" class="highcharts-grid-line" d="M 311.5 78 L 311.5 241" opacity="1"></path><path fill="none" data-z-index="1" class="highcharts-grid-line" d="M 350.5 78 L 350.5 241" opacity="1"></path><path fill="none" data-z-index="1" class="highcharts-grid-line" d="M 390.5 78 L 390.5 241" opacity="1"></path><path fill="none" data-z-index="1" class="highcharts-grid-line" d="M 430.5 78 L 430.5 241" opacity="1"></path><path fill="none" data-z-index="1" class="highcharts-grid-line" d="M 470.5 78 L 470.5 241" opacity="1"></path><path fill="none" data-z-index="1" class="highcharts-grid-line" d="M 509.5 78 L 509.5 241" opacity="1"></path><path fill="none" data-z-index="1" class="highcharts-grid-line" d="M 549.5 78 L 549.5 241" opacity="1"></path><path fill="none" data-z-index="1" class="highcharts-grid-line" d="M 589.5 78 L 589.5 241" opacity="1"></path><path fill="none" data-z-index="1" class="highcharts-grid-line" d="M 72.5 78 L 72.5 241" opacity="1"></path></g><g class="highcharts-grid highcharts-yaxis-grid " data-z-index="1"><path fill="none" stroke="#e6e6e6" stroke-width="1" data-z-index="1" class="highcharts-grid-line" d="M 73 241.5 L 590 241.5" opacity="1"></path><path fill="none" stroke="#e6e6e6" stroke-width="1" data-z-index="1" class="highcharts-grid-line" d="M 73 187.5 L 590 187.5" opacity="1"></path><path fill="none" stroke="#e6e6e6" stroke-width="1" data-z-index="1" class="highcharts-grid-line" d="M 73 132.5 L 590 132.5" opacity="1"></path><path fill="none" stroke="#e6e6e6" stroke-width="1" data-z-index="1" class="highcharts-grid-line" d="M 73 77.5 L 590 77.5" opacity="1"></path></g><rect fill="none" class="highcharts-plot-border" data-z-index="1" x="73" y="78" width="517" height="163"></rect><g class="highcharts-axis highcharts-xaxis " data-z-index="2"><path fill="none" class="highcharts-tick" stroke="#ccd6eb" stroke-width="1" d="M 112.5 241 L 112.5 251" opacity="1"></path><path fill="none" class="highcharts-tick" stroke="#ccd6eb" stroke-width="1" d="M 152.5 241 L 152.5 251" opacity="1"></path><path fill="none" class="highcharts-tick" stroke="#ccd6eb" stroke-width="1" d="M 191.5 241 L 191.5 251" opacity="1"></path><path fill="none" class="highcharts-tick" stroke="#ccd6eb" stroke-width="1" d="M 231.5 241 L 231.5 251" opacity="1"></path><path fill="none" class="highcharts-tick" stroke="#ccd6eb" stroke-width="1" d="M 271.5 241 L 271.5 251" opacity="1"></path><path fill="none" class="highcharts-tick" stroke="#ccd6eb" stroke-width="1" d="M 311.5 241 L 311.5 251" opacity="1"></path><path fill="none" class="highcharts-tick" stroke="#ccd6eb" stroke-width="1" d="M 350.5 241 L 350.5 251" opacity="1"></path><path fill="none" class="highcharts-tick" stroke="#ccd6eb" stroke-width="1" d="M 390.5 241 L 390.5 251" opacity="1"></path><path fill="none" class="highcharts-tick" stroke="#ccd6eb" stroke-width="1" d="M 430.5 241 L 430.5 251" opacity="1"></path><path fill="none" class="highcharts-tick" stroke="#ccd6eb" stroke-width="1" d="M 470.5 241 L 470.5 251" opacity="1"></path><path fill="none" class="highcharts-tick" stroke="#ccd6eb" stroke-width="1" d="M 509.5 241 L 509.5 251" opacity="1"></path><path fill="none" class="highcharts-tick" stroke="#ccd6eb" stroke-width="1" d="M 549.5 241 L 549.5 251" opacity="1"></path><path fill="none" class="highcharts-tick" stroke="#ccd6eb" stroke-width="1" d="M 590.5 241 L 590.5 251" opacity="1"></path><path fill="none" class="highcharts-tick" stroke="#ccd6eb" stroke-width="1" d="M 72.5 241 L 72.5 251" opacity="1"></path><text x="331.5" data-z-index="7" text-anchor="middle" transform="translate(0,0)" class="highcharts-axis-title" style="color:#666666;fill:#666666;" y="281"><tspan>Average Daily Remeron (Milligrams)</tspan></text><path fill="none" class="highcharts-axis-line" stroke="#ccd6eb" stroke-width="1" data-z-index="7" d="M 73 241.5 L 590 241.5"></path></g><g class="highcharts-axis highcharts-yaxis " data-z-index="2"><text x="26" data-z-index="7" text-anchor="middle" transform="translate(0,0) rotate(270 26 159.5)" class="highcharts-axis-title" style="color:#666666;fill:#666666;" y="159.5"><tspan>Average Daily Overall Mood</tspan><tspan dy="15" x="26">(1 to 5 Rating)</tspan></text><path fill="none" class="highcharts-axis-line" data-z-index="7" d="M 73 78 L 73 241"></path></g><g class="highcharts-series-group" data-z-index="3"><g data-z-index="0.1" class="highcharts-series highcharts-series-0 highcharts-column-series highcharts-color-0 " transform="translate(73,78) scale(1 1)" clip-path="url(#highcharts-3cakvjv-34)"><rect x="9.5" y="114.5" width="20" height="49" fill="#000000" stroke="#ffffff" stroke-width="1" class="highcharts-point highcharts-color-0"></rect><rect x="49.5" y="68.5" width="20" height="95" fill="#000000" stroke="#ffffff" stroke-width="1" class="highcharts-point highcharts-color-0"></rect><rect x="89.5" y="77.5" width="20" height="86" fill="#000000" stroke="#ffffff" stroke-width="1" class="highcharts-point highcharts-color-0"></rect><rect x="129.5" y="83.5" width="20" height="80" fill="#000000" stroke="#ffffff" stroke-width="1" class="highcharts-point highcharts-color-0"></rect><rect x="168.5" y="61.5" width="20" height="102" fill="#000000" stroke="#ffffff" stroke-width="1" class="highcharts-point highcharts-color-0"></rect><rect x="208.5" y="44.5" width="20" height="119" fill="#000000" stroke="#ffffff" stroke-width="1" class="highcharts-point highcharts-color-0"></rect><rect x="248.5" y="109.5" width="20" height="54" fill="#000000" stroke="#ffffff" stroke-width="1" class="highcharts-point highcharts-color-0"></rect><rect x="288.5" y="60.5" width="20" height="103" fill="#000000" stroke="#ffffff" stroke-width="1" class="highcharts-point highcharts-color-0"></rect><rect x="327.5" y="115.5" width="20" height="48" fill="#000000" stroke="#ffffff" stroke-width="1" class="highcharts-point highcharts-color-0"></rect><rect x="367.5" y="116.5" width="20" height="47" fill="#000000" stroke="#ffffff" stroke-width="1" class="highcharts-point highcharts-color-0"></rect><rect x="407.5" y="120.5" width="20" height="43" fill="#000000" stroke="#ffffff" stroke-width="1" class="highcharts-point highcharts-color-0"></rect><rect x="447.5" y="146.5" width="20" height="17" fill="#000000" stroke="#ffffff" stroke-width="1" class="highcharts-point highcharts-color-0"></rect><rect x="487.5" y="109.5" width="20" height="54" fill="#000000" stroke="#ffffff" stroke-width="1" class="highcharts-point highcharts-color-0"></rect></g><g data-z-index="0.1" class="highcharts-markers highcharts-series-0 highcharts-column-series highcharts-color-0 " transform="translate(73,78) scale(1 1)" clip-path="none"></g></g><text x="300" text-anchor="middle" class="highcharts-title" data-z-index="4" style="color:#333333;font-size:18px;fill:#333333;" y="24"><tspan>Average Overall Mood by Previous Remeron Intake</tspan></text><text x="300" text-anchor="middle" class="highcharts-subtitle" data-z-index="4" style="color:#666666;fill:#666666;" y="46"><tspan>Typical values for Overall Mood following a given amount of Remeron intake over the</tspan><tspan dy="15" x="300">previous 7 days.</tspan></text><g class="highcharts-axis-labels highcharts-xaxis-labels " data-z-index="7"><text x="92.88461538461462" style="color:#666666;cursor:default;font-size:11px;fill:#666666;" text-anchor="middle" transform="translate(0,0)" y="260" opacity="1">0</text><text x="132.65384615384463" style="color:#666666;cursor:default;font-size:11px;fill:#666666;" text-anchor="middle" transform="translate(0,0)" y="260" opacity="1">0.5</text><text x="172.4230769230746" style="color:#666666;cursor:default;font-size:11px;fill:#666666;" text-anchor="middle" transform="translate(0,0)" y="260" opacity="1">1</text><text x="212.1923076923046" style="color:#666666;cursor:default;font-size:11px;fill:#666666;" text-anchor="middle" transform="translate(0,0)" y="260" opacity="1">2</text><text x="251.96153846153462" style="color:#666666;cursor:default;font-size:11px;fill:#666666;" text-anchor="middle" transform="translate(0,0)" y="260" opacity="1">7</text><text x="291.7307692307646" style="color:#666666;cursor:default;font-size:11px;fill:#666666;" text-anchor="middle" transform="translate(0,0)" y="260" opacity="1">8</text><text x="331.50000000000466" style="color:#666666;cursor:default;font-size:11px;fill:#666666;" text-anchor="middle" transform="translate(0,0)" y="260" opacity="1">10</text><text x="371.26923076923464" style="color:#666666;cursor:default;font-size:11px;fill:#666666;" text-anchor="middle" transform="translate(0,0)" y="260" opacity="1">20</text><text x="411.0384615384646" style="color:#666666;cursor:default;font-size:11px;fill:#666666;" text-anchor="middle" transform="translate(0,0)" y="260" opacity="1">30</text><text x="450.80769230769465" style="color:#666666;cursor:default;font-size:11px;fill:#666666;" text-anchor="middle" transform="translate(0,0)" y="260" opacity="1">60</text><text x="490.57692307692463" style="color:#666666;cursor:default;font-size:11px;fill:#666666;" text-anchor="middle" transform="translate(0,0)" y="260" opacity="1">70</text><text x="530.3461538461546" style="color:#666666;cursor:default;font-size:11px;fill:#666666;" text-anchor="middle" transform="translate(0,0)" y="260" opacity="1">100</text><text x="570.1153846153846" style="color:#666666;cursor:default;font-size:11px;fill:#666666;" text-anchor="middle" transform="translate(0,0)" y="260" opacity="1">300</text></g><g class="highcharts-axis-labels highcharts-yaxis-labels " data-z-index="7"><text x="58" style="color:#666666;cursor:default;font-size:11px;fill:#666666;" text-anchor="end" transform="translate(0,0)" y="245" opacity="1">2</text><text x="58" style="color:#666666;cursor:default;font-size:11px;fill:#666666;" text-anchor="end" transform="translate(0,0)" y="190" opacity="1">3</text><text x="58" style="color:#666666;cursor:default;font-size:11px;fill:#666666;" text-anchor="end" transform="translate(0,0)" y="136" opacity="1">4</text><text x="58" style="color:#666666;cursor:default;font-size:11px;fill:#666666;" text-anchor="end" transform="translate(0,0)" y="82" opacity="1">5</text></g><a xlink:href="https://quantimo.do" target="_blank">
                    <text x="590" class="highcharts-credits" text-anchor="end" data-z-index="8"
                          style="cursor:pointer;color:#999999;font-size:9px;fill:#999999;" y="295">https://quantimo.do
                    </text>
                </a></svg>