<?xml version="1.0" standalone="no"?><!DOCTYPE svg PUBLIC "-//W3C//DTD SVG 1.1//EN" "http://www.w3.org/Graphics/SVG/1.1/DTD/svg11.dtd"><svg xmlns:xlink="http://www.w3.org/1999/xlink" version="1.1" class="highcharts-root" style="font-family:&quot;Lucida Grande&quot;, &quot;Lucida Sans Unicode&quot;, Arial, Helvetica, sans-serif;font-size:12px;" xmlns="http://www.w3.org/2000/svg" width="600" height="400"><desc>Created with Highstock 6.2.0</desc><defs><clipPath id="highcharts-gn4jmqq-297"><rect x="0" y="0" width="463" height="260" fill="none"></rect></clipPath><clipPath id="highcharts-gn4jmqq-442"><rect x="0" y="0" width="463" height="260" fill="none"></rect></clipPath><clipPath id="highcharts-gn4jmqq-587"><rect x="0" y="0" width="463" height="260" fill="none"></rect></clipPath><clipPath id="highcharts-gn4jmqq-588"><rect x="79" y="63" width="463" height="260" fill="none"></rect></clipPath></defs><rect fill="#ffffff" class="highcharts-background" x="0" y="0" width="600" height="400" rx="0" ry="0"></rect><rect fill="none" class="highcharts-plot-background" x="79" y="63" width="463" height="260"></rect><g class="highcharts-pane-group" data-z-index="0"></g><g class="highcharts-grid highcharts-xaxis-grid " data-z-index="1"><path fill="none" data-z-index="1" class="highcharts-grid-line" d="M 122.5 63 L 122.5 323" opacity="1"></path><path fill="none" data-z-index="1" class="highcharts-grid-line" d="M 243.5 63 L 243.5 323" opacity="1"></path><path fill="none" data-z-index="1" class="highcharts-grid-line" d="M 366.5 63 L 366.5 323" opacity="1"></path><path fill="none" data-z-index="1" class="highcharts-grid-line" d="M 487.5 63 L 487.5 323" opacity="1"></path></g><g class="highcharts-grid highcharts-yaxis-grid " data-z-index="1"><path fill="none" stroke="#e6e6e6" stroke-width="1" data-z-index="1" class="highcharts-grid-line" d="M 79 323.5 L 542 323.5" opacity="1"></path><path fill="none" stroke="#e6e6e6" stroke-width="1" data-z-index="1" class="highcharts-grid-line" d="M 79 258.5 L 542 258.5" opacity="1"></path><path fill="none" stroke="#e6e6e6" stroke-width="1" data-z-index="1" class="highcharts-grid-line" d="M 79 193.5 L 542 193.5" opacity="1"></path><path fill="none" stroke="#e6e6e6" stroke-width="1" data-z-index="1" class="highcharts-grid-line" d="M 79 128.5 L 542 128.5" opacity="1"></path><path fill="none" stroke="#e6e6e6" stroke-width="1" data-z-index="1" class="highcharts-grid-line" d="M 79 62.5 L 542 62.5" opacity="1"></path></g><g class="highcharts-grid highcharts-yaxis-grid " data-z-index="1"><path fill="none" stroke="#e6e6e6" stroke-width="1" data-z-index="1" class="highcharts-grid-line" d="M 79 323.5 L 542 323.5" opacity="1"></path><path fill="none" stroke="#e6e6e6" stroke-width="1" data-z-index="1" class="highcharts-grid-line" d="M 79 258.5 L 542 258.5" opacity="1"></path><path fill="none" stroke="#e6e6e6" stroke-width="1" data-z-index="1" class="highcharts-grid-line" d="M 79 193.5 L 542 193.5" opacity="1"></path><path fill="none" stroke="#e6e6e6" stroke-width="1" data-z-index="1" class="highcharts-grid-line" d="M 79 128.5 L 542 128.5" opacity="1"></path><path fill="none" stroke="#e6e6e6" stroke-width="1" data-z-index="1" class="highcharts-grid-line" d="M 79 62.5 L 542 62.5" opacity="1"></path></g><rect fill="none" class="highcharts-plot-border" data-z-index="1" x="79" y="63" width="463" height="260"></rect><g class="highcharts-axis highcharts-xaxis " data-z-index="2"><path fill="none" class="highcharts-tick" stroke="#ccd6eb" stroke-width="1" d="M 122.5 323 L 122.5 333" opacity="1"></path><path fill="none" class="highcharts-tick" stroke="#ccd6eb" stroke-width="1" d="M 243.5 323 L 243.5 333" opacity="1"></path><path fill="none" class="highcharts-tick" stroke="#ccd6eb" stroke-width="1" d="M 366.5 323 L 366.5 333" opacity="1"></path><path fill="none" class="highcharts-tick" stroke="#ccd6eb" stroke-width="1" d="M 487.5 323 L 487.5 333" opacity="1"></path><path fill="none" class="highcharts-axis-line" stroke="#ccd6eb" stroke-width="1" data-z-index="7" d="M 79 323.5 L 542 323.5"></path></g><g class="highcharts-axis highcharts-yaxis " data-z-index="2"><text x="26" data-z-index="7" text-anchor="middle" transform="translate(0,0) rotate(270 26 193)" class="highcharts-axis-title" style="color:#666666;fill:#666666;" y="193"><tspan>SUM CoQ10 By Doctors Best intake (mg)</tspan></text><path fill="none" class="highcharts-axis-line" stroke="#ccd6eb" stroke-width="1" data-z-index="7" d="M 78.5 63 L 78.5 323"></path></g><g class="highcharts-axis highcharts-yaxis " data-z-index="2"><text x="574" data-z-index="7" text-anchor="middle" transform="translate(0,0) rotate(90 574 193)" class="highcharts-axis-title" style="color:#666666;fill:#666666;" y="193"><tspan>MEAN Scaredness (/5)</tspan></text><path fill="none" class="highcharts-axis-line" stroke="#ccd6eb" stroke-width="1" data-z-index="7" d="M 542.5 63 L 542.5 323"></path></g><g class="highcharts-series-group" data-z-index="3"><g data-z-index="0.1" class="highcharts-series highcharts-series-0 highcharts-spline-series highcharts-color-0 " transform="translate(79,63) scale(1 1)" clip-path="url(#highcharts-gn4jmqq-442)"><path fill="none" d="M 4.5392156862745 169 C 4.5392156862745 169 5.7311761257774405 169 6.5258164187794 169 C 7.31663985465628 169 7.71205157259472 169 8.5028750084716 169 C 9.29560687291096 169 9.691972805130641 169 10.48470466957 169 C 11.2774365340096 169 11.6738024662294 169 12.466534330669 169 C 13.2592661951082 169 13.6556321273278 169 14.448363991767 169 C 15.2436740697934 169 15.641329108806598 169 16.436639186833 169 C 17.2267928376854 169 17.6218696631116 169 18.412023313964 169 C 19.204755178403598 169 19.601121110623403 169 20.393852975063 169 C 21.186584839502604 169 21.582950771722402 169 22.375682636162 169 C 23.1684145006012 169 23.5647804328208 169 24.35751229726 169 C 25.1502441616996 169 25.5466100939194 169 26.339341958359 169 C 27.1320738227982 169 27.528439755017803 169 28.321171619457 169 C 29.1139034838966 169 29.510269416116397 169 30.303001280556 169 C 31.0957331449952 169 31.4920990772148 169 32.284830941654 169 C 33.0775628060936 169 33.4739287383134 169 34.266660602753 169 C 35.059392467192595 169 35.4557583994124 169 36.248490263852 169 C 37.0412221282912 169 37.437588060510805 169 38.23031992495 169 C 39.023051789389605 169 39.4194177216094 169 40.212149586049 169 C 41.0048814504882 169 41.4012473827078 169 42.193979247147 169 C 42.9867111115866 169 43.3830770438064 169 44.175808908246 169 C 44.9685407726852 169 45.364906704904804 169 46.157638569344 169 C 46.950370433783604 169 47.3467363660034 169 48.139468230443 169 C 48.932200094882596 169 49.328566027102404 169 50.121297891542 169 C 51.094256978356 169 51.580736521762994 169 52.553695608577 169 C 53.16620025064181 169 53.4724525716742 169 54.084957213739 169 C 54.87768907817819 169 55.274055010397795 169 56.066786874837 169 C 56.859518739276595 169 57.2558846714964 169 58.048616535936 169 C 58.8413484003752 169 59.237714332594805 169 60.030446197034 169 C 60.829674058696 169 61.229287989526995 169 62.028515851189 169 C 62.81475171840619 169 63.2078696520148 169 63.994105519232 169 C 67.1650329769896 169 68.7504967058684 221 71.921424163626 221 C 74.299619756944 221 75.488717553603 221 77.866913146921 221 C 78.6620305470638 221 79.0595892471352 213.93741518110195 79.854706647278 208 C 81.1486854386408 198.33741518110196 81.7956748343222 199.0015347165866 83.089653625685 182 C 83.37875302749781 178.2015347165866 83.5233027284042 161.55841538813795 83.812402130217 156 C 84.6051339946566 140.75841538813793 85.00149992687639 130 85.794231791316 130 C 86.5869636557552 130 86.9833295879748 143 87.776061452414 143 C 88.60653065665039 143 89.0217652587686 143 89.852234463005 143 C 90.4497836312382 143 90.7485582153548 134.46996772852444 91.346107383588 130 C 92.13883924802721 124.06996772852445 92.53520518024679 117 93.327937044686 117 C 94.2781142655352 117 94.7532028759598 124.3608356458442 95.703380096809 130 C 96.5055623526878 134.7608356458442 96.90665348062721 140.07571284307645 97.708835736506 143 C 99.7595523286036 150.47571284307642 100.78491062465238 147.93777981256093 102.83562721675 156 C 104.75294648734999 163.53777981256093 105.71160612264998 182 107.62892539325 182 C 108.87275288402199 182 109.49466662940799 156 110.73849412018 156 C 111.07771729717199 156 111.247328885668 182 111.58655206266 182 C 113.160601920712 182 113.947626849738 169 115.52167670779 169 C 116.156963215822 169 116.474606469838 169 117.10989297787 169 C 121.07355230006601 169 123.05538196116399 169 127.01904128336 169 C 128.797201246232 169 129.686281227668 169 131.46444119054 169 C 133.22885679770798 169 134.111064601292 156 135.87548020846 156 C 136.4567802085 156 136.74743020852 156 137.32873020856 156 C 138.118691181528 156 138.513671668012 156 139.30363264098 156 C 140.111998939412 156 140.516182088628 156 141.32454838706 156 C 142.894377681944 156 143.679292329386 130 145.24912162427 130 C 145.88440813230199 130 146.202051386318 169 146.83733789435 169 C 147.797708692762 169 148.277894091968 149.299643518529 149.23826489038 143 C 150.656089685284 133.699643518529 151.365002082736 136.0942466667561 152.78282687764 130 C 153.784559195092 125.69424666675611 154.28542535381797 117 155.28715767127 117 C 155.870889082698 117 156.162754788412 123.38434219210508 156.74648619984 130 C 157.53921806428002 138.9843421921051 157.93558399650001 156 158.72831586094 156 C 159.678493081788 156 160.153581692212 143 161.10375891306 143 C 161.91580444156 143 162.32182720581 154.38472135209287 163.13387273431 156 C 167.55019663132197 164.78472135209284 169.75835857982798 166.93204249192874 174.17468247684 169 C 191.968567614424 177.33204249192872 200.86551018321597 182 218.6593953208 182 C 220.105470363516 182 220.828507884874 182 222.27458292759 182 C 223.721896613842 182 224.44555345696799 195 225.89286714322 195 C 226.170405872008 195 226.309175236402 195 226.58671396519 195 C 227.38127168195797 195 227.778550540342 195 228.57310825711 195 C 229.36401426922197 195 229.75946727527798 195 230.55037328739 195 C 231.34562831459397 195 231.74325582819603 169 232.5385108554 169 C 233.138243706312 169 233.438110131768 182 234.03784298268 182 C 235.021050697884 182 235.512654555486 182 236.49586227069 182 C 237.288594135126 182 237.68496006734398 174.1661865912111 238.47769193178 169 C 239.28080087653197 163.76618659121112 239.682355348908 156 240.48546429366 156 C 243.64601467110796 156 245.226289859832 182 248.38684023728 182 C 249.17957210172 182 249.57593803394002 182 250.36866989838 182 C 251.161401762816 182 251.557767695034 182 252.35049955947 182 C 253.14323142390998 182 253.53959735612997 182 254.33232922057 182 C 255.12506108500997 182 255.52142701722997 182 256.31415888167 182 C 257.22858059238195 182 257.685791447738 169 258.60021315845 169 C 264.027646363254 169 266.74136296565604 208 272.16879617046 208 C 272.96152803489997 208 273.35789396712 208 274.15062583156 208 C 274.94335769599996 208 275.33972362822 208 276.13245549266 208 C 276.9251873571 208 277.32155328932004 200.20000000001303 278.11428515376 195 C 278.90701701819603 189.80000000001306 279.303382950414 182 280.09611481485 182 C 281.68157854373004 182 282.47431040817 182 284.05977413705 182 C 284.85250600149004 182 285.24887193371 182 286.04160379815 182 C 286.83433566259 182 287.23070159481 182 288.02343345925 182 C 288.81616532369 182 289.21253125591 182 290.00526312035 182 C 290.79799498478997 182 291.19436091701 182 291.98709278145 182 C 293.572556510326 182 294.36528837476396 195 295.95075210364 195 C 296.74348396808 195 297.1398499003 182 297.93258176474 182 C 298.72531362918 182 299.1216795614 182 299.91441142584 182 C 302.29260701916 182 303.48170481582 208 305.85990040914 208 C 306.652632273576 208 307.048998205794 208 307.84173007023 208 C 311.01265752799 208 312.59812125687006 221 315.76904871463 221 C 316.56178057907 221 316.95814651129 221 317.75087837573 221 C 318.54361024017 221 318.93997617239 208 319.73270803683 208 C 320.52543990126594 208 320.921805833484 208 321.71453769792 208 C 322.50726956235997 208 322.90363549458 195 323.69636735902 195 C 324.48909922346 195 324.88546515568 195 325.67819702012 195 C 328.84912447788 195 330.43458820676 169 333.60551566452 169 C 334.398247528956 169 334.794613461174 169 335.58734532561 169 C 336.38007719005 169 336.77644312227 169 337.56917498671 169 C 338.36190685114997 169 338.75827278337 169 339.55100464781 169 C 341.92920024113 169 343.11829803779 169 345.49649363111 169 C 346.28922549555 169 346.68559142777 169 347.47832329221 169 C 348.27105515664596 169 348.667421088864 169 349.4601529533 169 C 350.25288481774 169 350.64925074996 169 351.4419826144 169 C 354.61291007216005 169 356.19837380104 194.13333333332167 359.3693012588 208 C 360.954764987676 214.93333333332166 361.747496852114 221 363.33296058099 221 C 364.91842430987 221 365.71115617430996 221 367.29661990319 221 C 370.46754736095 221 372.05301108983 216.3200000000085 375.22393854759 208 C 376.016670412026 205.9200000000085 376.413036344244 195 377.20576820868 195 C 382.754891259756 195 385.52945278529404 201.38181818181994 391.07857583637 208 C 394.24950329413 211.78181818181992 395.83496702301 221 399.00589448077 221 C 399.79862634521 221 400.19499227743 221 400.98772414187 221 C 401.78045600631003 221 402.17682193853 221 402.96955380297 221 C 403.762285667406 221 404.15865159962397 208 404.95138346406 208 C 405.7441153285 208 406.14048126072004 208 406.93321312516 208 C 407.72594498960007 208 408.12231092182003 200.1999999999998 408.91504278626 195 C 409.70777465070006 189.7999999999998 410.10414058291997 187.2 410.89687244736 182 C 411.68960431180005 176.8 412.0859702440201 169 412.87870210846 169 C 414.46416583734 169 415.25689770177996 182 416.84236143066 182 C 417.635093295096 182 418.03145922731403 182 418.82419109175 182 C 419.61692295618997 182 420.01328888841 189.8000000000002 420.80602075285 195 C 421.59875261729 200.2000000000002 421.99511854951 202.7999999999998 422.78785041395 208 C 423.58058227839 213.1999999999998 423.97694821061003 221 424.76968007505 221 C 425.56241193949 221 425.95877787171 221 426.75150973615 221 C 427.54424160059006 221 427.94060753281 208 428.73333939725 208 C 429.52607126169005 208 429.92243719391 208 430.71516905835 208 C 431.507900922786 208 431.904266855004 208 432.69699871944 208 C 433.48973058388003 208 433.88609651610005 200.1999999999998 434.67882838054 195 C 435.47156024497997 189.7999999999998 435.86792617719993 187.2000000000002 436.66065804164 182 C 437.45338990607996 176.8000000000002 437.8497558383 169 438.64248770274 169 C 439.43521956718007 169 439.8315854994 169 440.62431736384 169 C 441.41704922828 169 441.81341516049997 169 442.60614702494 169 C 443.39887888938 169 443.79524482159997 169 444.58797668604 169 C 446.96617227935604 169 448.15527007601406 185.6400000000065 450.53346566933 195 C 452.11892939821 201.2400000000065 452.91166126265 201.06666666666683 454.49712499153 208 C 455.28985685597 211.4666666666668 455.68622278819004 215.8000000000002 456.47895465263 221 C 457.27168651707007 226.2000000000002 458.46078431373 234 458.46078431373 234" class="highcharts-graph" data-z-index="1" stroke="#000000" stroke-width="2" stroke-linejoin="round" stroke-linecap="round"></path></g><g data-z-index="0.1" class="highcharts-markers highcharts-series-0 highcharts-spline-series highcharts-color-0 " transform="translate(79,63) scale(1 1)" clip-path="none"></g><g data-z-index="0.1" class="highcharts-series highcharts-series-1 highcharts-spline-series highcharts-color-1 " transform="translate(79,63) scale(1 1)" clip-path="url(#highcharts-gn4jmqq-587)"><path fill="none" d="M 4.5392156862745 227.5 C 4.5392156862745 227.5 5.7311761257774405 227.5 6.5258164187794 227.5 C 7.31663985465628 227.5 7.71205157259472 227.5 8.5028750084716 227.5 C 9.29560687291096 227.5 9.691972805130641 227.5 10.48470466957 227.5 C 11.2774365340096 227.5 11.6738024662294 227.5 12.466534330669 227.5 C 13.2592661951082 227.5 13.6556321273278 227.5 14.448363991767 227.5 C 15.2436740697934 227.5 15.641329108806598 227.5 16.436639186833 227.5 C 17.2267928376854 227.5 17.6218696631116 227.5 18.412023313964 227.5 C 19.204755178403598 227.5 19.601121110623403 227.5 20.393852975063 227.5 C 21.186584839502604 227.5 21.582950771722402 227.5 22.375682636162 227.5 C 23.1684145006012 227.5 23.5647804328208 227.5 24.35751229726 227.5 C 25.1502441616996 227.5 25.5466100939194 227.5 26.339341958359 227.5 C 27.1320738227982 227.5 27.528439755017803 227.5 28.321171619457 227.5 C 29.1139034838966 227.5 29.510269416116397 227.5 30.303001280556 227.5 C 31.0957331449952 227.5 31.4920990772148 227.5 32.284830941654 227.5 C 33.0775628060936 227.5 33.4739287383134 227.5 34.266660602753 227.5 C 35.059392467192595 227.5 35.4557583994124 227.5 36.248490263852 227.5 C 37.0412221282912 227.5 37.437588060510805 227.5 38.23031992495 227.5 C 39.023051789389605 227.5 39.4194177216094 227.5 40.212149586049 227.5 C 41.0048814504882 227.5 41.4012473827078 227.5 42.193979247147 227.5 C 42.9867111115866 227.5 43.3830770438064 227.5 44.175808908246 227.5 C 44.9685407726852 227.5 45.364906704904804 227.5 46.157638569344 227.5 C 46.950370433783604 227.5 47.3467363660034 227.5 48.139468230443 227.5 C 48.932200094882596 227.5 49.328566027102404 227.5 50.121297891542 227.5 C 51.094256978356 227.5 51.580736521762994 227.5 52.553695608577 227.5 C 53.16620025064181 227.5 53.4724525716742 227.5 54.084957213739 227.5 C 54.87768907817819 227.5 55.274055010397795 227.5 56.066786874837 227.5 C 56.859518739276595 227.5 57.2558846714964 227.5 58.048616535936 227.5 C 58.8413484003752 227.5 59.237714332594805 227.5 60.030446197034 227.5 C 60.829674058696 227.5 61.229287989526995 227.5 62.028515851189 227.5 C 62.81475171840619 227.5 63.2078696520148 227.5 63.994105519232 227.5 C 67.1650329769896 227.5 68.7504967058684 227.5 71.921424163626 227.5 C 74.299619756944 227.5 75.488717553603 227.5 77.866913146921 227.5 C 78.6620305470638 227.5 79.0595892471352 227.5 79.854706647278 227.5 C 81.1486854386408 227.5 81.7956748343222 227.5 83.089653625685 227.5 C 83.37875302749781 227.5 83.5233027284042 227.5 83.812402130217 227.5 C 84.6051339946566 227.5 85.00149992687639 227.5 85.794231791316 227.5 C 86.5869636557552 227.5 86.9833295879748 227.5 87.776061452414 227.5 C 88.60653065665039 227.5 89.0217652587686 227.5 89.852234463005 227.5 C 90.4497836312382 227.5 90.7485582153548 227.5 91.346107383588 227.5 C 92.13883924802721 227.5 92.53520518024679 216.66666666666669 93.327937044686 216.66666666666669 C 94.2781142655352 216.66666666666669 94.7532028759598 227.5 95.703380096809 227.5 C 96.5055623526878 227.5 96.90665348062721 227.5 97.708835736506 227.5 C 99.7595523286036 227.5 100.78491062465238 227.5 102.83562721675 227.5 C 104.75294648734999 227.5 105.71160612264998 227.5 107.62892539325 227.5 C 108.87275288402199 227.5 109.49466662940799 227.5 110.73849412018 227.5 C 111.07771729717199 227.5 111.247328885668 227.5 111.58655206266 227.5 C 113.160601920712 227.5 113.947626849738 227.5 115.52167670779 227.5 C 116.156963215822 227.5 116.474606469838 227.5 117.10989297787 227.5 C 121.07355230006601 227.5 123.05538196116399 227.5 127.01904128336 227.5 C 128.797201246232 227.5 129.686281227668 195 131.46444119054 195 C 133.22885679770798 195 134.111064601292 227.5 135.87548020846 227.5 C 136.4567802085 227.5 136.74743020852 227.5 137.32873020856 227.5 C 138.118691181528 227.5 138.513671668012 227.5 139.30363264098 227.5 C 140.111998939412 227.5 140.516182088628 227.5 141.32454838706 227.5 C 142.894377681944 227.5 143.679292329386 227.5 145.24912162427 227.5 C 145.88440813230199 227.5 146.202051386318 227.5 146.83733789435 227.5 C 147.797708692762 227.5 148.277894091968 227.5 149.23826489038 227.5 C 150.656089685284 227.5 151.365002082736 227.5 152.78282687764 227.5 C 153.784559195092 227.5 154.28542535381797 227.5 155.28715767127 227.5 C 155.870889082698 227.5 156.162754788412 227.5 156.74648619984 227.5 C 157.53921806428002 227.5 157.93558399650001 227.5 158.72831586094 227.5 C 159.678493081788 227.5 160.153581692212 227.5 161.10375891306 227.5 C 161.91580444156 227.5 162.32182720581 227.5 163.13387273431 227.5 C 167.55019663132197 227.5 169.75835857982798 227.5 174.17468247684 227.5 C 191.968567614424 227.5 200.86551018321597 227.5 218.6593953208 227.5 C 220.105470363516 227.5 220.828507884874 227.5 222.27458292759 227.5 C 223.721896613842 227.5 224.44555345696799 227.5 225.89286714322 227.5 C 226.170405872008 227.5 226.309175236402 227.5 226.58671396519 227.5 C 227.38127168195797 227.5 227.778550540342 227.5 228.57310825711 227.5 C 229.36401426922197 227.5 229.75946727527798 227.5 230.55037328739 227.5 C 231.34562831459397 227.5 231.74325582819603 227.5 232.5385108554 227.5 C 233.138243706312 227.5 233.438110131768 227.5 234.03784298268 227.5 C 235.021050697884 227.5 235.512654555486 227.5 236.49586227069 227.5 C 237.288594135126 227.5 237.68496006734398 162.5 238.47769193178 162.5 C 239.28080087653197 162.5 239.682355348908 227.5 240.48546429366 227.5 C 243.64601467110796 227.5 245.226289859832 227.5 248.38684023728 227.5 C 249.17957210172 227.5 249.57593803394002 227.5 250.36866989838 227.5 C 251.161401762816 227.5 251.557767695034 195 252.35049955947 195 C 253.14323142390998 195 253.53959735612997 227.5 254.33232922057 227.5 C 255.12506108500997 227.5 255.52142701722997 227.5 256.31415888167 227.5 C 257.22858059238195 227.5 257.685791447738 227.5 258.60021315845 227.5 C 264.027646363254 227.5 266.74136296565604 227.5 272.16879617046 227.5 C 272.96152803489997 227.5 273.35789396712 227.5 274.15062583156 227.5 C 274.94335769599996 227.5 275.33972362822 227.5 276.13245549266 227.5 C 276.9251873571 227.5 277.32155328932004 227.5 278.11428515376 227.5 C 278.90701701819603 227.5 279.303382950414 227.5 280.09611481485 227.5 C 281.68157854373004 227.5 282.47431040817 227.5 284.05977413705 227.5 C 284.85250600149004 227.5 285.24887193371 227.5 286.04160379815 227.5 C 286.83433566259 227.5 287.23070159481 227.5 288.02343345925 227.5 C 288.81616532369 227.5 289.21253125591 227.5 290.00526312035 227.5 C 290.79799498478997 227.5 291.19436091701 227.5 291.98709278145 227.5 C 293.572556510326 227.5 294.36528837476396 227.5 295.95075210364 227.5 C 296.74348396808 227.5 297.1398499003 227.5 297.93258176474 227.5 C 298.72531362918 227.5 299.1216795614 227.5 299.91441142584 227.5 C 302.29260701916 227.5 303.48170481582 227.5 305.85990040914 227.5 C 306.652632273576 227.5 307.048998205794 227.5 307.84173007023 227.5 C 311.01265752799 227.5 312.59812125687006 227.5 315.76904871463 227.5 C 316.56178057907 227.5 316.95814651129 214.5 317.75087837573 195 C 318.54361024017 175.5 318.93997617239 130 319.73270803683 130 C 320.52543990126594 130 320.921805833484 227.5 321.71453769792 227.5 C 322.50726956235997 227.5 322.90363549458 227.5 323.69636735902 227.5 C 324.48909922346 227.5 324.88546515568 227.5 325.67819702012 227.5 C 328.84912447788 227.5 330.43458820676 227.5 333.60551566452 227.5 C 334.398247528956 227.5 334.794613461174 195 335.58734532561 195 C 336.38007719005 195 336.77644312227 227.5 337.56917498671 227.5 C 338.36190685114997 227.5 338.75827278337 227.5 339.55100464781 227.5 C 341.92920024113 227.5 343.11829803779 227.5 345.49649363111 227.5 C 346.28922549555 227.5 346.68559142777 208.00000000003308 347.47832329221 195 C 348.27105515664596 182.00000000003308 348.667421088864 162.5 349.4601529533 162.5 C 350.25288481774 162.5 350.64925074996 162.5 351.4419826144 162.5 C 354.61291007216005 162.5 356.19837380104 130 359.3693012588 130 C 360.954764987676 130 361.747496852114 130 363.33296058099 130 C 364.91842430987 130 365.71115617430996 195 367.29661990319 195 C 370.46754736095 195 372.05301108983 195 375.22393854759 195 C 376.016670412026 195 376.413036344244 162.5 377.20576820868 162.5 C 382.754891259756 162.5 385.52945278529404 227.5 391.07857583637 227.5 C 394.24950329413 227.5 395.83496702301 227.5 399.00589448077 227.5 C 399.79862634521 227.5 400.19499227743 227.5 400.98772414187 227.5 C 401.78045600631003 227.5 402.17682193853 227.5 402.96955380297 227.5 C 403.762285667406 227.5 404.15865159962397 227.5 404.95138346406 227.5 C 405.7441153285 227.5 406.14048126072004 227.5 406.93321312516 227.5 C 407.72594498960007 227.5 408.12231092182003 227.5 408.91504278626 227.5 C 409.70777465070006 227.5 410.10414058291997 208 410.89687244736 195 C 411.68960431180005 182 412.0859702440201 162.5 412.87870210846 162.5 C 414.46416583734 162.5 415.25689770177996 227.5 416.84236143066 227.5 C 417.635093295096 227.5 418.03145922731403 227.5 418.82419109175 227.5 C 419.61692295618997 227.5 420.01328888841 195 420.80602075285 195 C 421.59875261729 195 421.99511854951 227.5 422.78785041395 227.5 C 423.58058227839 227.5 423.97694821061003 195 424.76968007505 195 C 425.56241193949 195 425.95877787171 227.5 426.75150973615 227.5 C 427.54424160059006 227.5 427.94060753281 227.5 428.73333939725 227.5 C 429.52607126169005 227.5 429.92243719391 227.5 430.71516905835 227.5 C 431.507900922786 227.5 431.904266855004 227.5 432.69699871944 227.5 C 433.48973058388003 227.5 433.88609651610005 227.5 434.67882838054 227.5 C 435.47156024497997 227.5 435.86792617719993 227.5 436.66065804164 227.5 C 437.45338990607996 227.5 437.8497558383 227.5 438.64248770274 227.5 C 439.43521956718007 227.5 439.8315854994 227.5 440.62431736384 227.5 C 441.41704922828 227.5 441.81341516049997 227.5 442.60614702494 227.5 C 443.39887888938 227.5 443.79524482159997 195 444.58797668604 195 C 446.96617227935604 195 448.15527007601406 227.5 450.53346566933 227.5 C 452.11892939821 227.5 452.91166126265 195 454.49712499153 195 C 455.28985685597 195 455.68622278819004 195 456.47895465263 195 C 457.27168651707007 195 458.46078431373 195 458.46078431373 195" class="highcharts-graph" data-z-index="1" stroke="#5D83FF" stroke-width="2" stroke-linejoin="round" stroke-linecap="round"></path></g><g data-z-index="0.1" class="highcharts-markers highcharts-series-1 highcharts-spline-series highcharts-color-1 " transform="translate(79,63) scale(1 1)" clip-path="none"></g></g><text x="300" text-anchor="middle" class="highcharts-title" data-z-index="4" style="color:#333333;font-size:18px;fill:#333333;" y="24"><tspan>CoQ10 by Doctors Best Intake &amp; Scaredness Over Time</tspan></text><text x="300" text-anchor="middle" class="highcharts-subtitle" data-z-index="4" style="color:#666666;fill:#666666;" y="46"><tspan>Black represents the sum of CoQ10 By Doctors Best intake over the previous 7 days</tspan></text><g class="highcharts-legend" data-z-index="7" transform="translate(91,358)"><rect fill="none" class="highcharts-legend-box" rx="0" ry="0" x="0" y="0" width="419" height="27" visibility="visible"></rect><g data-z-index="1"><g><g class="highcharts-legend-item highcharts-spline-series highcharts-color-0 highcharts-series-0" data-z-index="1" transform="translate(8,3)"><path fill="none" d="M 0 11 L 16 11" class="highcharts-graph" stroke="#000000" stroke-width="2"></path><path fill="#000000" d="M 12 11 A 4 4 0 1 1 11.999998000000167 10.996000000666664 Z" class="highcharts-point"></path><text x="21" style="color:#333333;font-size:12px;font-weight:bold;cursor:pointer;fill:#333333;" text-anchor="start" data-z-index="2" y="15"><tspan>CoQ10 By Doctors Best intake (mg)</tspan></text></g><g class="highcharts-legend-item highcharts-spline-series highcharts-color-1 highcharts-series-1" data-z-index="1" transform="translate(284,3)"><path fill="none" d="M 0 11 L 16 11" class="highcharts-graph" stroke="#5D83FF" stroke-width="2"></path><path fill="#5D83FF" d="M 8 7 L 12 11 8 15 4 11 Z" class="highcharts-point"></path><text x="21" y="15" style="color:#333333;font-size:12px;font-weight:bold;cursor:pointer;fill:#333333;" text-anchor="start" data-z-index="2"><tspan>Scaredness (/5)</tspan></text></g></g></g></g><g class="highcharts-axis-labels highcharts-xaxis-labels " data-z-index="7"><text x="126.17580890825" style="color:#666666;cursor:default;font-size:11px;fill:#666666;" text-anchor="middle" transform="translate(0,0)" y="342" opacity="1"><tspan>May '18</tspan></text><text x="247.06741823526" style="color:#666666;cursor:default;font-size:11px;fill:#666666;" text-anchor="middle" transform="translate(0,0)" y="342" opacity="1"><tspan>Jul '18</tspan></text><text x="369.94085722337" style="color:#666666;cursor:default;font-size:11px;fill:#666666;" text-anchor="middle" transform="translate(0,0)" y="342" opacity="1"><tspan>Sep '18</tspan></text><text x="490.83246655038" style="color:#666666;cursor:default;font-size:11px;fill:#666666;" text-anchor="middle" transform="translate(0,0)" y="342" opacity="1"><tspan>Nov '18</tspan></text></g><g class="highcharts-axis-labels highcharts-yaxis-labels " data-z-index="7"><text x="64" style="color:#666666;cursor:default;font-size:11px;fill:#666666;" text-anchor="end" transform="translate(0,0)" y="327" opacity="1">0</text><text x="64" style="color:#666666;cursor:default;font-size:11px;fill:#666666;" text-anchor="end" transform="translate(0,0)" y="262" opacity="1">500</text><text x="64" style="color:#666666;cursor:default;font-size:11px;fill:#666666;" text-anchor="end" transform="translate(0,0)" y="197" opacity="1">1000</text><text x="64" style="color:#666666;cursor:default;font-size:11px;fill:#666666;" text-anchor="end" transform="translate(0,0)" y="132" opacity="1">1500</text><text x="64" style="color:#666666;cursor:default;font-size:11px;fill:#666666;" text-anchor="end" transform="translate(0,0)" y="67" opacity="1">2000</text></g><g class="highcharts-axis-labels highcharts-yaxis-labels " data-z-index="7"><text x="557" style="color:#666666;cursor:default;font-size:11px;fill:#666666;" text-anchor="start" transform="translate(0,0)" y="327" opacity="1">0</text><text x="557" style="color:#666666;cursor:default;font-size:11px;fill:#666666;" text-anchor="start" transform="translate(0,0)" y="262" opacity="1">2</text><text x="557" style="color:#666666;cursor:default;font-size:11px;fill:#666666;" text-anchor="start" transform="translate(0,0)" y="197" opacity="1">4</text><text x="557" style="color:#666666;cursor:default;font-size:11px;fill:#666666;" text-anchor="start" transform="translate(0,0)" y="132" opacity="1">6</text><text x="557" style="color:#666666;cursor:default;font-size:11px;fill:#666666;" text-anchor="start" transform="translate(0,0)" y="67" opacity="1">8</text></g><a xlink:href="https://quantimo.do" target="_blank">
                    <text x="590" class="highcharts-credits" text-anchor="end" data-z-index="8"
                          style="cursor:pointer;color:#999999;font-size:9px;fill:#999999;" y="395">https://quantimo.do
                    </text>
                </a></svg>