<?xml version="1.0" standalone="no"?><!DOCTYPE svg PUBLIC "-//W3C//DTD SVG 1.1//EN" "http://www.w3.org/Graphics/SVG/1.1/DTD/svg11.dtd"><svg xmlns:xlink="http://www.w3.org/1999/xlink" version="1.1" class="highcharts-root" style="font-family:&quot;Lucida Grande&quot;, &quot;Lucida Sans Unicode&quot;, Arial, Helvetica, sans-serif;font-size:12px;" xmlns="http://www.w3.org/2000/svg" width="600" height="400"><desc>Created with Highstock 6.2.0</desc><defs><clipPath id="highcharts-tf99i9o-109"><rect x="0" y="0" width="464" height="260" fill="none"></rect></clipPath><clipPath id="highcharts-tf99i9o-160"><rect x="0" y="0" width="464" height="260" fill="none"></rect></clipPath><clipPath id="highcharts-tf99i9o-211"><rect x="0" y="0" width="464" height="260" fill="none"></rect></clipPath><clipPath id="highcharts-tf99i9o-212"><rect x="68" y="63" width="464" height="260" fill="none"></rect></clipPath></defs><rect fill="#ffffff" class="highcharts-background" x="0" y="0" width="600" height="400" rx="0" ry="0"></rect><rect fill="none" class="highcharts-plot-background" x="68" y="63" width="464" height="260"></rect><g class="highcharts-pane-group" data-z-index="0"></g><g class="highcharts-grid highcharts-xaxis-grid " data-z-index="1"><path fill="none" data-z-index="1" class="highcharts-grid-line" d="M 119.5 63 L 119.5 323" opacity="1"></path><path fill="none" data-z-index="1" class="highcharts-grid-line" d="M 194.5 63 L 194.5 323" opacity="1"></path><path fill="none" data-z-index="1" class="highcharts-grid-line" d="M 270.5 63 L 270.5 323" opacity="1"></path><path fill="none" data-z-index="1" class="highcharts-grid-line" d="M 345.5 63 L 345.5 323" opacity="1"></path><path fill="none" data-z-index="1" class="highcharts-grid-line" d="M 421.5 63 L 421.5 323" opacity="1"></path><path fill="none" data-z-index="1" class="highcharts-grid-line" d="M 496.5 63 L 496.5 323" opacity="1"></path></g><g class="highcharts-grid highcharts-yaxis-grid " data-z-index="1"><path fill="none" stroke="#e6e6e6" stroke-width="1" data-z-index="1" class="highcharts-grid-line" d="M 68 323.5 L 532 323.5" opacity="1"></path><path fill="none" stroke="#e6e6e6" stroke-width="1" data-z-index="1" class="highcharts-grid-line" d="M 68 258.5 L 532 258.5" opacity="1"></path><path fill="none" stroke="#e6e6e6" stroke-width="1" data-z-index="1" class="highcharts-grid-line" d="M 68 193.5 L 532 193.5" opacity="1"></path><path fill="none" stroke="#e6e6e6" stroke-width="1" data-z-index="1" class="highcharts-grid-line" d="M 68 128.5 L 532 128.5" opacity="1"></path><path fill="none" stroke="#e6e6e6" stroke-width="1" data-z-index="1" class="highcharts-grid-line" d="M 68 62.5 L 532 62.5" opacity="1"></path></g><g class="highcharts-grid highcharts-yaxis-grid " data-z-index="1"><path fill="none" stroke="#e6e6e6" stroke-width="1" data-z-index="1" class="highcharts-grid-line" d="M 68 323.5 L 532 323.5" opacity="1"></path><path fill="none" stroke="#e6e6e6" stroke-width="1" data-z-index="1" class="highcharts-grid-line" d="M 68 258.5 L 532 258.5" opacity="1"></path><path fill="none" stroke="#e6e6e6" stroke-width="1" data-z-index="1" class="highcharts-grid-line" d="M 68 193.5 L 532 193.5" opacity="1"></path><path fill="none" stroke="#e6e6e6" stroke-width="1" data-z-index="1" class="highcharts-grid-line" d="M 68 128.5 L 532 128.5" opacity="1"></path><path fill="none" stroke="#e6e6e6" stroke-width="1" data-z-index="1" class="highcharts-grid-line" d="M 68 62.5 L 532 62.5" opacity="1"></path></g><rect fill="none" class="highcharts-plot-border" data-z-index="1" x="68" y="63" width="464" height="260"></rect><g class="highcharts-axis highcharts-xaxis " data-z-index="2"><path fill="none" class="highcharts-tick" stroke="#ccd6eb" stroke-width="1" d="M 119.5 323 L 119.5 333" opacity="1"></path><path fill="none" class="highcharts-tick" stroke="#ccd6eb" stroke-width="1" d="M 194.5 323 L 194.5 333" opacity="1"></path><path fill="none" class="highcharts-tick" stroke="#ccd6eb" stroke-width="1" d="M 270.5 323 L 270.5 333" opacity="1"></path><path fill="none" class="highcharts-tick" stroke="#ccd6eb" stroke-width="1" d="M 345.5 323 L 345.5 333" opacity="1"></path><path fill="none" class="highcharts-tick" stroke="#ccd6eb" stroke-width="1" d="M 421.5 323 L 421.5 333" opacity="1"></path><path fill="none" class="highcharts-tick" stroke="#ccd6eb" stroke-width="1" d="M 496.5 323 L 496.5 333" opacity="1"></path><path fill="none" class="highcharts-axis-line" stroke="#ccd6eb" stroke-width="1" data-z-index="7" d="M 68 323.5 L 532 323.5"></path></g><g class="highcharts-axis highcharts-yaxis " data-z-index="2"><text x="26" data-z-index="7" text-anchor="middle" transform="translate(0,0) rotate(270 26 193)" class="highcharts-axis-title" style="color:#666666;fill:#666666;" y="193"><tspan>MEAN Inflammatory Pain (/5)</tspan></text><path fill="none" class="highcharts-axis-line" stroke="#ccd6eb" stroke-width="1" data-z-index="7" d="M 67.5 63 L 67.5 323"></path></g><g class="highcharts-axis highcharts-yaxis " data-z-index="2"><text x="574" data-z-index="7" text-anchor="middle" transform="translate(0,0) rotate(90 574 193)" class="highcharts-axis-title" style="color:#666666;fill:#666666;" y="193"><tspan>MEAN Overall Mood (/5)</tspan></text><path fill="none" class="highcharts-axis-line" stroke="#ccd6eb" stroke-width="1" data-z-index="7" d="M 532.5 63 L 532.5 323"></path></g><g class="highcharts-series-group" data-z-index="3"><g data-z-index="0.1" class="highcharts-series highcharts-series-0 highcharts-spline-series highcharts-color-0 " transform="translate(68,63) scale(1 1)" clip-path="url(#highcharts-tf99i9o-160)"><path fill="none" d="M 4.5490196078431 32.49999999999997 C 4.5490196078431 32.49999999999997 7.781908993054179 108.33333333333329 9.9371685831949 129.99999999999997 C 12.84976244598214 151.66666666666666 14.30605937737576 151.66666666666666 17.218653240163 151.66666666666666 C 19.5295704673694 151.66666666666666 20.6850290809726 151.66666666666666 22.995946308179 151.66666666666666 C 24.238213988607402 151.66666666666666 24.8593478288216 173.33333333333334 26.10161550925 173.33333333333334 C 28.2568750993908 173.33333333333334 29.334504894461197 54.166666666666686 31.489764484602 54.166666666666686 C 33.6450240747428 54.166666666666686 34.7226538698132 70.05555555555468 36.877913459954 79.44444444444446 C 39.0331730500944 88.83333333333246 40.1108028451646 79.44444444444446 42.266062435305 101.11111111111114 C 44.421322025445804 122.77777777777783 45.4989518205162 195 47.654211410657 195 C 49.80947100079779 195 50.8871007958682 195 53.042360386009 195 C 55.197619976149404 195 56.275249771219606 163.35205992509214 58.43050936136 151.66666666666666 C 62.6691865553036 128.68539325842548 64.78852515227541 142.58874156780828 69.027202346219 108.33333333333334 C 71.2228730536746 90.5887415678083 72.32070840740239 21.666666666666686 74.516379114858 21.666666666666686 C 74.5478099838812 21.666666666666686 74.5635254183928 56.3333333333334 74.594956287416 56.3333333333334 C 76.7502158775564 56.3333333333334 77.8278456726266 50.5555555555556 79.983105262767 50.5555555555556 C 82.1383648529078 50.5555555555556 83.21599464797819 151.66666666666666 85.371254238119 151.66666666666666 C 89.33154373500261 151.66666666666666 91.31168848344439 21.666666666666686 95.271977980328 21.666666666666686 C 95.622207663726 21.666666666666686 95.797322505425 49.83333333333326 96.147552188823 73.66666666666666 C 98.3028117789618 97.50000000000006 99.38044157403121 86.23702682377404 101.53570116417 97.50000000000006 C 105.35080998033 117.43702682377405 107.25836438841002 151.66666666666666 111.07347320457 151.66666666666666 C 111.56888356869399 151.66666666666666 111.816588750756 129.99999999999997 112.31199911488 129.99999999999997 C 114.46725870502 129.99999999999997 115.54488850009 195 117.70014809023 195 C 119.85540768036999 195 120.93303747544 171.88888888888886 123.08829706558 158.8888888888889 C 125.24355665572 145.88888888888886 126.32118645079 129.99999999999997 128.47644604093 129.99999999999997 C 131.79464778491803 129.99999999999997 133.453748656912 151.66666666666666 136.7719504009 151.66666666666666 C 139.91952742733602 151.66666666666666 141.49331594055403 151.66666666666666 144.64089296699 151.66666666666666 C 148.143189800966 151.66666666666666 149.89433821795402 151.66666666666666 153.39663505193 151.66666666666666 C 161.586621494466 151.66666666666666 165.681614715734 195 173.87160115827 195 C 195.48855550577 195 206.29703267952 195 227.91398702702 195 C 236.50359451856002 195 240.79839826433 195 249.38800575587 195 C 253.71199530859002 195 255.87399008495004 195 260.19797963767 195 C 268.77860688091806 195 273.068920502542 151.66666666666666 281.64954774579 151.66666666666666 C 283.798820503738 151.66666666666666 284.873456882712 195 287.02272964066 195 C 289.610537856876 195 290.904441964984 108.33333333333334 293.4922501812 108.33333333333334 C 295.222444685508 108.33333333333334 296.08754193766197 144.44079817285544 297.81773644197 151.66666666666666 C 304.388284775802 179.1074648395221 307.67355894271793 195 314.24410727655 195 C 316.32453146425394 195 317.36474355810594 151.66666666666666 319.44516774581 151.66666666666666 C 321.621381248634 151.66666666666666 322.709488000046 195 324.88570150287 195 C 327.034974260814 195 328.109610639786 151.66666666666666 330.25888339773 151.66666666666666 C 332.36325491421803 151.66666666666666 333.41544067246207 151.66666666666666 335.51981218895 151.66666666666666 C 337.745417057378 151.66666666666666 338.85821949159197 151.66666666666666 341.08382436002 151.66666666666666 C 353.998918112328 151.66666666666666 360.456464988482 238.33333333333334 373.37155874079 238.33333333333334 C 382.003074057694 238.33333333333334 386.318831716146 151.66666666666666 394.95034703305 151.66666666666666 C 399.24889254894197 151.66666666666666 401.398165306888 195 405.69671082278 195 C 407.86244736926 195 408.9453156425 195 411.11105218898 195 C 413.25134469863605 195 414.32149095346404 195 416.46178346312 195 C 418.5691483957 195 419.62283086199005 238.33333333333334 421.73019579457 238.33333333333334 C 423.90042246519795 238.33333333333334 424.985535800512 195 427.15576247114 195 C 429.297551688844 195 430.36844629769604 238.33333333333334 432.5102355154 238.33333333333334 C 443.286533466104 238.33333333333334 459.45098039216 238.33333333333334 459.45098039216 238.33333333333334" class="highcharts-graph" data-z-index="1" stroke="#000000" stroke-width="2" stroke-linejoin="round" stroke-linecap="round"></path></g><g data-z-index="0.1" class="highcharts-markers highcharts-series-0 highcharts-spline-series highcharts-color-0 " transform="translate(68,63) scale(1 1)" clip-path="none"></g><g data-z-index="0.1" class="highcharts-series highcharts-series-1 highcharts-spline-series highcharts-color-1 " transform="translate(68,63) scale(1 1)" clip-path="url(#highcharts-tf99i9o-211)"><path fill="none" d="M 4.5490196078431 231.85343228200378 C 4.5490196078431 231.85343228200378 7.781908993054179 227.90313528622542 9.9371685831949 225.66295609152755 C 12.84976244598214 222.63560281869292 14.30605937737576 223.23256557150947 17.218653240163 218.68460111317256 C 19.5295704673694 215.07614421508808 20.6850290809726 212.14320958323822 22.995946308179 205.27190270047407 C 24.238213988607402 201.57813021815886 24.8593478288216 196.39554821795232 26.10161550925 192.2719027004742 C 28.2568750993908 185.1176261400303 29.334504894461197 182.34462997320142 31.489764484602 177.07709750566897 C 33.6450240747428 171.8095650381365 34.7226538698132 165.93424036281186 36.877913459954 165.93424036281186 C 39.0331730500944 165.93424036281186 40.1108028451646 168.58730158730162 42.266062435305 168.58730158730162 C 44.421322025445804 168.58730158730162 45.4989518205162 165.41327561327563 47.654211410657 164.25396825396825 C 49.80947100079779 163.09466089466088 50.8871007958682 162.79076479076474 53.042360386009 162.79076479076474 C 55.197619976149404 162.79076479076474 56.275249771219606 163.02261783160702 58.43050936136 166.91774891774884 C 62.6691865553036 174.57817338716256 64.78852515227541 179.93494228497653 69.027202346219 191.67965367965368 C 71.2228730536746 197.763513713548 72.32070840740239 211.48917748917754 74.516379114858 211.48917748917754 C 74.5478099838812 211.48917748917754 74.5635254183928 211.48917748917754 74.594956287416 211.48917748917754 C 76.7502158775564 211.48917748917754 77.8278456726266 221.7653679653685 79.983105262767 226.96536796536802 C 82.1383648529078 232.16536796536846 83.21599464797819 237.4891774891775 85.371254238119 237.4891774891775 C 89.33154373500261 237.4891774891775 91.31168848344439 237.07596320346326 95.271977980328 236.4761904761905 C 95.622207663726 236.42314935064937 95.797322505425 235.85714285714283 96.147552188823 235.85714285714283 C 98.3028117789618 235.85714285714283 99.38044157403121 242.04761904761907 101.53570116417 242.04761904761907 C 105.35080998033 242.04761904761907 107.25836438841002 241.61009424603017 111.07347320457 235.8571428571429 C 111.56888356869399 235.11009424603017 111.816588750756 228.6322699040162 112.31199911488 225.79761904761904 C 114.46725870502 213.46560323734948 115.54488850009 201.0357142857143 117.70014809023 197.94047619047618 C 119.85540768036999 194.84523809523805 120.93303747544 194.84523809523805 123.08829706558 194.84523809523805 C 125.24355665572 194.84523809523805 126.32118645079 197.80575552616511 128.47644604093 199.79761904761904 C 131.79464778491803 202.86425892752567 133.453748656912 207.49149659863946 136.7719504009 207.49149659863946 C 139.91952742733602 207.49149659863946 141.49331594055403 192.01530612244903 144.64089296699 192.01530612244903 C 148.143189800966 192.01530612244903 149.89433821795402 198.9795918367347 153.39663505193 198.9795918367347 C 161.586621494466 198.9795918367347 165.681614715734 170.62930997556214 173.87160115827 154.54081632653063 C 195.48855550577 112.07624875107233 206.29703267952 52.59693877551021 227.91398702702 52.59693877551021 C 236.50359451856002 52.59693877551021 240.79839826433 52.59693877551021 249.38800575587 54.785714285714334 C 253.71199530859002 56.97448979591846 255.87399008495004 64.98389230810947 260.19797963767 71.87987012987017 C 268.77860688091806 85.5644117886289 273.068920502542 92.2766558939761 281.64954774579 106.23701298701292 C 283.798820503738 109.73379875111895 284.873456882712 111.73098725918305 287.02272964066 115.52272727272728 C 289.610537856876 120.08813011632594 290.904441964984 127.12987012987014 293.4922501812 127.12987012987014 C 295.222444685508 127.12987012987014 296.08754193766197 127.12987012987014 297.81773644197 123.96428571428567 C 304.388284775802 120.79870129870119 307.67355894271793 76.80612244897964 314.24410727655 76.80612244897964 C 316.32453146425394 76.80612244897964 317.36474355810594 84.23469387755102 319.44516774581 84.23469387755102 C 321.621381248634 84.23469387755102 322.709488000046 75.97486053245193 324.88570150287 70.96938775510196 C 327.034974260814 66.02588094061518 328.109610639786 59.36224489795919 330.25888339773 59.36224489795919 C 332.36325491421803 59.36224489795919 333.41544067246207 59.36224489795919 335.51981218895 59.36224489795919 C 337.745417057378 59.36224489795919 338.85821949159197 59.36224489795919 341.08382436002 59.36224489795919 C 353.998918112328 59.36224489795919 360.456464988482 116.03231292517015 373.37155874079 116.03231292517015 C 382.003074057694 116.03231292517015 386.318831716146 114.74002564177259 394.95034703305 110.41666666666657 C 399.24889254894197 108.26360840821245 401.398165306888 106.15847289753461 405.69671082278 99.84126984126982 C 407.86244736926 96.65847289753461 408.9453156425 95.48194161686541 411.11105218898 86.6666666666666 C 413.25134469863605 77.95495748988131 414.32149095346404 56.02380952380955 416.46178346312 56.02380952380955 C 418.5691483957 56.02380952380955 419.62283086199005 58.396753196266964 421.73019579457 65.3095238095238 C 423.90042246519795 72.428499228013 424.985535800512 81.75622166025131 427.15576247114 91.10317460317464 C 429.297551688844 100.32765023167987 430.36844629769604 105.39514871641705 432.5102355154 111.73809523809518 C 443.286533466104 143.65229157355992 459.45098039216 186.74603174603178 459.45098039216 186.74603174603178" class="highcharts-graph" data-z-index="1" stroke="#5D83FF" stroke-width="2" stroke-linejoin="round" stroke-linecap="round"></path></g><g data-z-index="0.1" class="highcharts-markers highcharts-series-1 highcharts-spline-series highcharts-color-1 " transform="translate(68,63) scale(1 1)" clip-path="none"></g></g><text x="300" text-anchor="middle" class="highcharts-title" data-z-index="4" style="color:#333333;font-size:18px;fill:#333333;" y="24"><tspan>Inflammatory Pain &amp; Overall Mood Over Time</tspan></text><text x="300" text-anchor="middle" class="highcharts-subtitle" data-z-index="4" style="color:#666666;fill:#666666;" y="46"><tspan>Black represents the mean of Inflammatory Pain over the previous 7 days</tspan></text><g class="highcharts-legend" data-z-index="7" transform="translate(126,358)"><rect fill="none" class="highcharts-legend-box" rx="0" ry="0" x="0" y="0" width="348" height="27" visibility="visible"></rect><g data-z-index="1"><g><g class="highcharts-legend-item highcharts-spline-series highcharts-color-0 highcharts-series-0" data-z-index="1" transform="translate(8,3)"><path fill="none" d="M 0 11 L 16 11" class="highcharts-graph" stroke="#000000" stroke-width="2"></path><path fill="#000000" d="M 12 11 A 4 4 0 1 1 11.999998000000167 10.996000000666664 Z" class="highcharts-point"></path><text x="21" style="color:#333333;font-size:12px;font-weight:bold;cursor:pointer;fill:#333333;" text-anchor="start" data-z-index="2" y="15"><tspan>Inflammatory Pain (/5)</tspan></text></g><g class="highcharts-legend-item highcharts-spline-series highcharts-color-1 highcharts-series-1" data-z-index="1" transform="translate(200,3)"><path fill="none" d="M 0 11 L 16 11" class="highcharts-graph" stroke="#5D83FF" stroke-width="2"></path><path fill="#5D83FF" d="M 8 7 L 12 11 8 15 4 11 Z" class="highcharts-point"></path><text x="21" y="15" style="color:#333333;font-size:12px;font-weight:bold;cursor:pointer;fill:#333333;" text-anchor="start" data-z-index="2"><tspan>Overall Mood (/5)</tspan></text></g></g></g></g><g class="highcharts-axis-labels highcharts-xaxis-labels " data-z-index="7"><text x="122.96473059094" style="color:#666666;cursor:default;font-size:11px;fill:#666666;" text-anchor="start" transform="translate(0,0)" y="342" opacity="1"><tspan>21. Jan</tspan></text><text x="198.39881624586" style="color:#666666;cursor:default;font-size:11px;fill:#666666;" text-anchor="start" transform="translate(0,0)" y="342" opacity="1"><tspan>4. Feb</tspan></text><text x="273.83290190079" style="color:#666666;cursor:default;font-size:11px;fill:#666666;" text-anchor="start" transform="translate(0,0)" y="342" opacity="1"><tspan>18. Feb</tspan></text><text x="349.26698755571" style="color:#666666;cursor:default;font-size:11px;fill:#666666;" text-anchor="start" transform="translate(0,0)" y="342" opacity="1"><tspan>4. Mar</tspan></text><text x="424.70107321064" style="color:#666666;cursor:default;font-size:11px;fill:#666666;" text-anchor="start" transform="translate(0,0)" y="342" opacity="1"><tspan>18. Mar</tspan></text><text x="500.13515886556" style="color:#666666;cursor:default;font-size:11px;fill:#666666;" text-anchor="start" transform="translate(0,0)" y="342" opacity="1"><tspan>1. Apr</tspan></text></g><g class="highcharts-axis-labels highcharts-yaxis-labels " data-z-index="7"><text x="53" style="color:#666666;cursor:default;font-size:11px;fill:#666666;" text-anchor="end" transform="translate(0,0)" y="327" opacity="1">1.2</text><text x="53" style="color:#666666;cursor:default;font-size:11px;fill:#666666;" text-anchor="end" transform="translate(0,0)" y="262" opacity="1">1.8</text><text x="53" style="color:#666666;cursor:default;font-size:11px;fill:#666666;" text-anchor="end" transform="translate(0,0)" y="197" opacity="1">2.4</text><text x="53" style="color:#666666;cursor:default;font-size:11px;fill:#666666;" text-anchor="end" transform="translate(0,0)" y="132" opacity="1">3</text><text x="53" style="color:#666666;cursor:default;font-size:11px;fill:#666666;" text-anchor="end" transform="translate(0,0)" y="67" opacity="1">3.6</text></g><g class="highcharts-axis-labels highcharts-yaxis-labels " data-z-index="7"><text x="547" style="color:#666666;cursor:default;font-size:11px;fill:#666666;" text-anchor="start" transform="translate(0,0)" y="327" opacity="1">3</text><text x="547" style="color:#666666;cursor:default;font-size:11px;fill:#666666;" text-anchor="start" transform="translate(0,0)" y="262" opacity="1">3.5</text><text x="547" style="color:#666666;cursor:default;font-size:11px;fill:#666666;" text-anchor="start" transform="translate(0,0)" y="197" opacity="1">4</text><text x="547" style="color:#666666;cursor:default;font-size:11px;fill:#666666;" text-anchor="start" transform="translate(0,0)" y="132" opacity="1">4.5</text><text x="547" style="color:#666666;cursor:default;font-size:11px;fill:#666666;" text-anchor="start" transform="translate(0,0)" y="67" opacity="1">5</text></g><a xlink:href="https://quantimo.do" target="_blank">
                    <text x="590" class="highcharts-credits" text-anchor="end" data-z-index="8"
                          style="cursor:pointer;color:#999999;font-size:9px;fill:#999999;" y="395">https://quantimo.do
                    </text>
                </a></svg>