<?xml version="1.0" standalone="no"?><!DOCTYPE svg PUBLIC "-//W3C//DTD SVG 1.1//EN" "http://www.w3.org/Graphics/SVG/1.1/DTD/svg11.dtd"><svg xmlns:xlink="http://www.w3.org/1999/xlink" version="1.1" class="highcharts-root" style="font-family:&quot;Lucida Grande&quot;, &quot;Lucida Sans Unicode&quot;, Arial, Helvetica, sans-serif;font-size:12px;" xmlns="http://www.w3.org/2000/svg" width="600" height="400"><desc>Created with Highstock 6.2.0</desc><defs><clipPath id="highcharts-g4upsb5-57"><rect x="0" y="0" width="522" height="263" fill="none"></rect></clipPath><clipPath id="highcharts-g4upsb5-108"><rect x="0" y="0" width="522" height="263" fill="none"></rect></clipPath><clipPath id="highcharts-g4upsb5-109"><rect x="68" y="78" width="522" height="263" fill="none"></rect></clipPath></defs><rect fill="#ffffff" class="highcharts-background" x="0" y="0" width="600" height="400" rx="0" ry="0"></rect><rect fill="none" class="highcharts-plot-background" x="68" y="78" width="522" height="263"></rect><g class="highcharts-pane-group" data-z-index="0"></g><g class="highcharts-grid highcharts-xaxis-grid " data-z-index="1"><path fill="none" data-z-index="1" class="highcharts-grid-line" d="M 98.5 78 L 98.5 341" opacity="1"></path><path fill="none" data-z-index="1" class="highcharts-grid-line" d="M 226.5 78 L 226.5 341" opacity="1"></path><path fill="none" data-z-index="1" class="highcharts-grid-line" d="M 354.5 78 L 354.5 341" opacity="1"></path><path fill="none" data-z-index="1" class="highcharts-grid-line" d="M 482.5 78 L 482.5 341" opacity="1"></path></g><g class="highcharts-grid highcharts-yaxis-grid " data-z-index="1"><path fill="none" stroke="#e6e6e6" stroke-width="1" data-z-index="1" class="highcharts-grid-line" d="M 68 341.5 L 590 341.5" opacity="1"></path><path fill="none" stroke="#e6e6e6" stroke-width="1" data-z-index="1" class="highcharts-grid-line" d="M 68 275.5 L 590 275.5" opacity="1"></path><path fill="none" stroke="#e6e6e6" stroke-width="1" data-z-index="1" class="highcharts-grid-line" d="M 68 210.5 L 590 210.5" opacity="1"></path><path fill="none" stroke="#e6e6e6" stroke-width="1" data-z-index="1" class="highcharts-grid-line" d="M 68 144.5 L 590 144.5" opacity="1"></path><path fill="none" stroke="#e6e6e6" stroke-width="1" data-z-index="1" class="highcharts-grid-line" d="M 68 77.5 L 590 77.5" opacity="1"></path></g><rect fill="none" class="highcharts-plot-border" data-z-index="1" x="68" y="78" width="522" height="263"></rect><g class="highcharts-axis highcharts-xaxis " data-z-index="2"><path fill="none" class="highcharts-tick" stroke="#ccd6eb" stroke-width="1" d="M 98.5 341 L 98.5 351" opacity="1"></path><path fill="none" class="highcharts-tick" stroke="#ccd6eb" stroke-width="1" d="M 226.5 341 L 226.5 351" opacity="1"></path><path fill="none" class="highcharts-tick" stroke="#ccd6eb" stroke-width="1" d="M 354.5 341 L 354.5 351" opacity="1"></path><path fill="none" class="highcharts-tick" stroke="#ccd6eb" stroke-width="1" d="M 482.5 341 L 482.5 351" opacity="1"></path><text x="329" data-z-index="7" text-anchor="middle" transform="translate(0,0)" class="highcharts-axis-title" style="color:#666666;fill:#666666;" y="381"><tspan>Inflammatory Pain (/5) over previous 7 days</tspan></text><path fill="none" class="highcharts-axis-line" stroke="#ccd6eb" stroke-width="1" data-z-index="7" d="M 68 341.5 L 590 341.5"></path></g><g class="highcharts-axis highcharts-yaxis " data-z-index="2"><text x="26" data-z-index="7" text-anchor="middle" transform="translate(0,0) rotate(270 26 209.5)" class="highcharts-axis-title" style="color:#666666;fill:#666666;" y="209.5"><tspan>Overall Mood (/5)</tspan></text><path fill="none" class="highcharts-axis-line" data-z-index="7" d="M 68 78 L 68 341"></path></g><g class="highcharts-series-group" data-z-index="3"><g data-z-index="0.1" class="highcharts-series highcharts-series-0 highcharts-scatter-series highcharts-color-0 " transform="translate(68,78) scale(1 1)" clip-path="url(#highcharts-g4upsb5-108)"></g><g data-z-index="0.1" class="highcharts-markers highcharts-series-0 highcharts-scatter-series highcharts-color-0 " transform="translate(68,78) scale(1 1)" clip-path="none"><path fill="#000000" d="M 495 235 A 4 4 0 1 1 494.9999980000002 234.99600000066667 Z" class="highcharts-point highcharts-color-0"></path><path fill="#000000" d="M 265 228 A 4 4 0 1 1 264.9999980000002 227.99600000066667 Z" class="highcharts-point highcharts-color-0"></path><path fill="#000000" d="M 213 221 A 4 4 0 1 1 212.99999800000018 220.99600000066667 Z" class="highcharts-point highcharts-color-0"></path><path fill="#000000" d="M 213 208 A 4 4 0 1 1 212.99999800000018 207.99600000066667 Z" class="highcharts-point highcharts-color-0"></path><path fill="#000000" d="M 162 194 A 4 4 0 1 1 161.99999800000018 193.99600000066667 Z" class="highcharts-point highcharts-color-0"></path><path fill="#000000" d="M 444 179 A 4 4 0 1 1 443.9999980000002 178.99600000066667 Z" class="highcharts-point highcharts-color-0"></path><path fill="#000000" d="M 384 168 A 4 4 0 1 1 383.9999980000002 167.99600000066667 Z" class="highcharts-point highcharts-color-0"></path><path fill="#000000" d="M 333 171 A 4 4 0 1 1 332.9999980000002 170.99600000066667 Z" class="highcharts-point highcharts-color-0"></path><path fill="#000000" d="M 111 166 A 4 4 0 1 1 110.99999800000016 165.99600000066667 Z" class="highcharts-point highcharts-color-0"></path><path fill="#000000" d="M 111 165 A 4 4 0 1 1 110.99999800000016 164.99600000066667 Z" class="highcharts-point highcharts-color-0"></path><path fill="#000000" d="M 213 169 A 4 4 0 1 1 212.99999800000018 168.99600000066667 Z" class="highcharts-point highcharts-color-0"></path><path fill="#000000" d="M 316 194 A 4 4 0 1 1 315.9999980000002 193.99600000066667 Z" class="highcharts-point highcharts-color-0"></path><path fill="#000000" d="M 520 214 A 4 4 0 1 1 519.9999980000001 213.99600000066667 Z" class="highcharts-point highcharts-color-0"></path><path fill="#000000" d="M 439 214 A 4 4 0 1 1 438.9999980000002 213.99600000066667 Z" class="highcharts-point highcharts-color-0"></path><path fill="#000000" d="M 452 230 A 4 4 0 1 1 451.9999980000002 229.99600000066667 Z" class="highcharts-point highcharts-color-0"></path><path fill="#000000" d="M 213 240 A 4 4 0 1 1 212.99999800000018 239.99600000066667 Z" class="highcharts-point highcharts-color-0"></path><path fill="#000000" d="M 520 239 A 4 4 0 1 1 519.9999980000001 238.99600000066667 Z" class="highcharts-point highcharts-color-0"></path><path fill="#000000" d="M 398 239 A 4 4 0 1 1 397.9999980000002 238.99600000066667 Z" class="highcharts-point highcharts-color-0"></path><path fill="#000000" d="M 341 245 A 4 4 0 1 1 340.9999980000002 244.99600000066667 Z" class="highcharts-point highcharts-color-0"></path><path fill="#000000" d="M 213 239 A 4 4 0 1 1 212.99999800000018 238.99600000066667 Z" class="highcharts-point highcharts-color-0"></path><path fill="#000000" d="M 265 228 A 4 4 0 1 1 264.9999980000002 227.99600000066667 Z" class="highcharts-point highcharts-color-0"></path><path fill="#000000" d="M 111 200 A 4 4 0 1 1 110.99999800000016 199.99600000066667 Z" class="highcharts-point highcharts-color-0"></path><path fill="#000000" d="M 196 197 A 4 4 0 1 1 195.99999800000018 196.99600000066667 Z" class="highcharts-point highcharts-color-0"></path><path fill="#000000" d="M 265 202 A 4 4 0 1 1 264.9999980000002 201.99600000066667 Z" class="highcharts-point highcharts-color-0"></path><path fill="#000000" d="M 213 210 A 4 4 0 1 1 212.99999800000018 209.99600000066667 Z" class="highcharts-point highcharts-color-0"></path><path fill="#000000" d="M 213 194 A 4 4 0 1 1 212.99999800000018 193.99600000066667 Z" class="highcharts-point highcharts-color-0"></path><path fill="#000000" d="M 213 201 A 4 4 0 1 1 212.99999800000018 200.99600000066667 Z" class="highcharts-point highcharts-color-0"></path><path fill="#000000" d="M 111 156 A 4 4 0 1 1 110.99999800000016 155.99600000066667 Z" class="highcharts-point highcharts-color-0"></path><path fill="#000000" d="M 111 53 A 4 4 0 1 1 110.99999800000016 52.99600000066666 Z" class="highcharts-point highcharts-color-0"></path><path fill="#000000" d="M 111 55 A 4 4 0 1 1 110.99999800000016 54.99600000066666 Z" class="highcharts-point highcharts-color-0"></path><path fill="#000000" d="M 111 73 A 4 4 0 1 1 110.99999800000016 72.99600000066667 Z" class="highcharts-point highcharts-color-0"></path><path fill="#000000" d="M 213 107 A 4 4 0 1 1 212.99999800000018 106.99600000066667 Z" class="highcharts-point highcharts-color-0"></path><path fill="#000000" d="M 111 117 A 4 4 0 1 1 110.99999800000016 116.99600000066667 Z" class="highcharts-point highcharts-color-0"></path><path fill="#000000" d="M 316 129 A 4 4 0 1 1 315.9999980000002 128.99600000066667 Z" class="highcharts-point highcharts-color-0"></path><path fill="#000000" d="M 213 125 A 4 4 0 1 1 212.99999800000018 124.99600000066667 Z" class="highcharts-point highcharts-color-0"></path><path fill="#000000" d="M 111 78 A 4 4 0 1 1 110.99999800000016 77.99600000066667 Z" class="highcharts-point highcharts-color-0"></path><path fill="#000000" d="M 213 85 A 4 4 0 1 1 212.99999800000018 84.99600000066667 Z" class="highcharts-point highcharts-color-0"></path><path fill="#000000" d="M 111 72 A 4 4 0 1 1 110.99999800000016 71.99600000066667 Z" class="highcharts-point highcharts-color-0"></path><path fill="#000000" d="M 213 60 A 4 4 0 1 1 212.99999800000018 59.99600000066666 Z" class="highcharts-point highcharts-color-0"></path><path fill="#000000" d="M 213 60 A 4 4 0 1 1 212.99999800000018 59.99600000066666 Z" class="highcharts-point highcharts-color-0"></path><path fill="#000000" d="M 213 60 A 4 4 0 1 1 212.99999800000018 59.99600000066666 Z" class="highcharts-point highcharts-color-0"></path><path fill="#000000" d="M 9 117 A 4 4 0 1 1 8.999998000000167 116.99600000066667 Z" class="highcharts-point highcharts-color-0"></path><path fill="#000000" d="M 213 112 A 4 4 0 1 1 212.99999800000018 111.99600000066667 Z" class="highcharts-point highcharts-color-0"></path><path fill="#000000" d="M 111 101 A 4 4 0 1 1 110.99999800000016 100.99600000066667 Z" class="highcharts-point highcharts-color-0"></path><path fill="#000000" d="M 111 88 A 4 4 0 1 1 110.99999800000016 87.99600000066667 Z" class="highcharts-point highcharts-color-0"></path><path fill="#000000" d="M 111 57 A 4 4 0 1 1 110.99999800000016 56.99600000066666 Z" class="highcharts-point highcharts-color-0"></path><path fill="#000000" d="M 9 66 A 4 4 0 1 1 8.999998000000167 65.99600000066667 Z" class="highcharts-point highcharts-color-0"></path><path fill="#000000" d="M 111 92 A 4 4 0 1 1 110.99999800000016 91.99600000066667 Z" class="highcharts-point highcharts-color-0"></path><path fill="#000000" d="M 9 113 A 4 4 0 1 1 8.999998000000167 112.99600000066667 Z" class="highcharts-point highcharts-color-0"></path><path fill="#000000" d="M 9 189 A 4 4 0 1 1 8.999998000000167 188.99600000066667 Z" class="highcharts-point highcharts-color-0"></path></g></g><text x="300" text-anchor="middle" class="highcharts-title" data-z-index="4" style="color:#333333;font-size:18px;fill:#333333;" y="24"><tspan>Overall Mood Following Inflammatory Pain</tspan></text><text x="300" text-anchor="middle" class="highcharts-subtitle" data-z-index="4" style="color:#666666;fill:#666666;" y="46"><tspan>An increase in 7 days cumulative Inflammatory Pain is usually followed by an decrease in</tspan><tspan dy="15" x="300">Overall Mood. (R = -0.576)</tspan></text><g class="highcharts-axis-labels highcharts-xaxis-labels " data-z-index="7"><text x="98.705882352941" style="color:#666666;cursor:default;font-size:11px;fill:#666666;" text-anchor="middle" transform="translate(0,0)" y="360" opacity="1">1.5</text><text x="226.64705882353" style="color:#666666;cursor:default;font-size:11px;fill:#666666;" text-anchor="middle" transform="translate(0,0)" y="360" opacity="1">2</text><text x="354.58823529412" style="color:#666666;cursor:default;font-size:11px;fill:#666666;" text-anchor="middle" transform="translate(0,0)" y="360" opacity="1">2.5</text><text x="482.52941176471" style="color:#666666;cursor:default;font-size:11px;fill:#666666;" text-anchor="middle" transform="translate(0,0)" y="360" opacity="1">3</text></g><g class="highcharts-axis-labels highcharts-yaxis-labels " data-z-index="7"><text x="53" style="color:#666666;cursor:default;font-size:11px;fill:#666666;" text-anchor="end" transform="translate(0,0)" y="345" opacity="1">3</text><text x="53" style="color:#666666;cursor:default;font-size:11px;fill:#666666;" text-anchor="end" transform="translate(0,0)" y="279" opacity="1">3.5</text><text x="53" style="color:#666666;cursor:default;font-size:11px;fill:#666666;" text-anchor="end" transform="translate(0,0)" y="213" opacity="1">4</text><text x="53" style="color:#666666;cursor:default;font-size:11px;fill:#666666;" text-anchor="end" transform="translate(0,0)" y="147" opacity="1">4.5</text><text x="53" style="color:#666666;cursor:default;font-size:11px;fill:#666666;" text-anchor="end" transform="translate(0,0)" y="82" opacity="1">5</text></g><a xlink:href="https://quantimo.do" target="_blank">
                    <text x="590" class="highcharts-credits" text-anchor="end" data-z-index="8"
                          style="cursor:pointer;color:#999999;font-size:9px;fill:#999999;" y="295">https://quantimo.do
                    </text>
                </a></svg>