<?xml version="1.0" standalone="no"?><!DOCTYPE svg PUBLIC "-//W3C//DTD SVG 1.1//EN" "http://www.w3.org/Graphics/SVG/1.1/DTD/svg11.dtd"><svg xmlns:xlink="http://www.w3.org/1999/xlink" version="1.1" class="highcharts-root" style="font-family:&quot;Lucida Grande&quot;, &quot;Lucida Sans Unicode&quot;, Arial, Helvetica, sans-serif;font-size:12px;" xmlns="http://www.w3.org/2000/svg" width="600" height="300"><desc>Created with Highstock 6.2.0</desc><defs><clipPath id="highcharts-3zeslk9-19"><rect x="0" y="0" width="511" height="163" fill="none"></rect></clipPath><clipPath id="highcharts-3zeslk9-32"><rect x="0" y="0" width="511" height="163" fill="none"></rect></clipPath><clipPath id="highcharts-3zeslk9-33"><rect x="79" y="78" width="511" height="163" fill="none"></rect></clipPath></defs><rect fill="#ffffff" class="highcharts-background" x="0" y="0" width="600" height="300" rx="0" ry="0"></rect><rect fill="none" class="highcharts-plot-background" x="79" y="78" width="511" height="163"></rect><g class="highcharts-pane-group" data-z-index="0"></g><g class="highcharts-grid highcharts-xaxis-grid " data-z-index="1"><path fill="none" data-z-index="1" class="highcharts-grid-line" d="M 121.5 78 L 121.5 241" opacity="1"></path><path fill="none" data-z-index="1" class="highcharts-grid-line" d="M 163.5 78 L 163.5 241" opacity="1"></path><path fill="none" data-z-index="1" class="highcharts-grid-line" d="M 206.5 78 L 206.5 241" opacity="1"></path><path fill="none" data-z-index="1" class="highcharts-grid-line" d="M 248.5 78 L 248.5 241" opacity="1"></path><path fill="none" data-z-index="1" class="highcharts-grid-line" d="M 291.5 78 L 291.5 241" opacity="1"></path><path fill="none" data-z-index="1" class="highcharts-grid-line" d="M 334.5 78 L 334.5 241" opacity="1"></path><path fill="none" data-z-index="1" class="highcharts-grid-line" d="M 376.5 78 L 376.5 241" opacity="1"></path><path fill="none" data-z-index="1" class="highcharts-grid-line" d="M 419.5 78 L 419.5 241" opacity="1"></path><path fill="none" data-z-index="1" class="highcharts-grid-line" d="M 461.5 78 L 461.5 241" opacity="1"></path><path fill="none" data-z-index="1" class="highcharts-grid-line" d="M 504.5 78 L 504.5 241" opacity="1"></path><path fill="none" data-z-index="1" class="highcharts-grid-line" d="M 546.5 78 L 546.5 241" opacity="1"></path><path fill="none" data-z-index="1" class="highcharts-grid-line" d="M 589.5 78 L 589.5 241" opacity="1"></path><path fill="none" data-z-index="1" class="highcharts-grid-line" d="M 78.5 78 L 78.5 241" opacity="1"></path></g><g class="highcharts-grid highcharts-yaxis-grid " data-z-index="1"><path fill="none" stroke="#e6e6e6" stroke-width="1" data-z-index="1" class="highcharts-grid-line" d="M 79 241.5 L 590 241.5" opacity="1"></path><path fill="none" stroke="#e6e6e6" stroke-width="1" data-z-index="1" class="highcharts-grid-line" d="M 79 187.5 L 590 187.5" opacity="1"></path><path fill="none" stroke="#e6e6e6" stroke-width="1" data-z-index="1" class="highcharts-grid-line" d="M 79 132.5 L 590 132.5" opacity="1"></path><path fill="none" stroke="#e6e6e6" stroke-width="1" data-z-index="1" class="highcharts-grid-line" d="M 79 77.5 L 590 77.5" opacity="1"></path></g><rect fill="none" class="highcharts-plot-border" data-z-index="1" x="79" y="78" width="511" height="163"></rect><g class="highcharts-axis highcharts-xaxis " data-z-index="2"><path fill="none" class="highcharts-tick" stroke="#ccd6eb" stroke-width="1" d="M 121.5 241 L 121.5 251" opacity="1"></path><path fill="none" class="highcharts-tick" stroke="#ccd6eb" stroke-width="1" d="M 163.5 241 L 163.5 251" opacity="1"></path><path fill="none" class="highcharts-tick" stroke="#ccd6eb" stroke-width="1" d="M 206.5 241 L 206.5 251" opacity="1"></path><path fill="none" class="highcharts-tick" stroke="#ccd6eb" stroke-width="1" d="M 248.5 241 L 248.5 251" opacity="1"></path><path fill="none" class="highcharts-tick" stroke="#ccd6eb" stroke-width="1" d="M 291.5 241 L 291.5 251" opacity="1"></path><path fill="none" class="highcharts-tick" stroke="#ccd6eb" stroke-width="1" d="M 334.5 241 L 334.5 251" opacity="1"></path><path fill="none" class="highcharts-tick" stroke="#ccd6eb" stroke-width="1" d="M 376.5 241 L 376.5 251" opacity="1"></path><path fill="none" class="highcharts-tick" stroke="#ccd6eb" stroke-width="1" d="M 419.5 241 L 419.5 251" opacity="1"></path><path fill="none" class="highcharts-tick" stroke="#ccd6eb" stroke-width="1" d="M 461.5 241 L 461.5 251" opacity="1"></path><path fill="none" class="highcharts-tick" stroke="#ccd6eb" stroke-width="1" d="M 504.5 241 L 504.5 251" opacity="1"></path><path fill="none" class="highcharts-tick" stroke="#ccd6eb" stroke-width="1" d="M 546.5 241 L 546.5 251" opacity="1"></path><path fill="none" class="highcharts-tick" stroke="#ccd6eb" stroke-width="1" d="M 590.5 241 L 590.5 251" opacity="1"></path><path fill="none" class="highcharts-tick" stroke="#ccd6eb" stroke-width="1" d="M 78.5 241 L 78.5 251" opacity="1"></path><text x="334.5" data-z-index="7" text-anchor="middle" transform="translate(0,0)" class="highcharts-axis-title" style="color:#666666;fill:#666666;" y="281"><tspan>Avg Daily Sleep Cycles (Event)</tspan></text><path fill="none" class="highcharts-axis-line" stroke="#ccd6eb" stroke-width="1" data-z-index="7" d="M 79 241.5 L 590 241.5"></path></g><g class="highcharts-axis highcharts-yaxis " data-z-index="2"><text x="26" data-z-index="7" text-anchor="middle" transform="translate(0,0) rotate(270 26 159.5)" class="highcharts-axis-title" style="color:#666666;fill:#666666;" y="159.5"><tspan>Avg Daily Acetyl L-carnitine</tspan><tspan dy="15" x="26">(Milligrams)</tspan></text><path fill="none" class="highcharts-axis-line" data-z-index="7" d="M 79 78 L 79 241"></path></g><g class="highcharts-series-group" data-z-index="3"><g data-z-index="0.1" class="highcharts-series highcharts-series-0 highcharts-column-series highcharts-color-0 " transform="translate(79,78) scale(1 1)" clip-path="url(#highcharts-3zeslk9-32)"><rect x="10.5" y="105.5" width="21" height="58" fill="#000000" stroke="#ffffff" stroke-width="1" class="highcharts-point highcharts-color-0"></rect><rect x="53.5" y="24.5" width="21" height="139" fill="#000000" stroke="#ffffff" stroke-width="1" class="highcharts-point highcharts-color-0"></rect><rect x="95.5" y="89.5" width="21" height="74" fill="#000000" stroke="#ffffff" stroke-width="1" class="highcharts-point highcharts-color-0"></rect><rect x="138.5" y="61.5" width="21" height="102" fill="#000000" stroke="#ffffff" stroke-width="1" class="highcharts-point highcharts-color-0"></rect><rect x="180.5" y="85.5" width="21" height="78" fill="#000000" stroke="#ffffff" stroke-width="1" class="highcharts-point highcharts-color-0"></rect><rect x="223.5" y="86.5" width="21" height="77" fill="#000000" stroke="#ffffff" stroke-width="1" class="highcharts-point highcharts-color-0"></rect><rect x="266.5" y="113.5" width="21" height="50" fill="#000000" stroke="#ffffff" stroke-width="1" class="highcharts-point highcharts-color-0"></rect><rect x="308.5" y="80.5" width="21" height="83" fill="#000000" stroke="#ffffff" stroke-width="1" class="highcharts-point highcharts-color-0"></rect><rect x="351.5" y="117.5" width="21" height="46" fill="#000000" stroke="#ffffff" stroke-width="1" class="highcharts-point highcharts-color-0"></rect><rect x="393.5" y="85.5" width="21" height="78" fill="#000000" stroke="#ffffff" stroke-width="1" class="highcharts-point highcharts-color-0"></rect><rect x="436.5" y="108.5" width="21" height="55" fill="#000000" stroke="#ffffff" stroke-width="1" class="highcharts-point highcharts-color-0"></rect><rect x="478.5" y="75.5" width="21" height="88" fill="#000000" stroke="#ffffff" stroke-width="1" class="highcharts-point highcharts-color-0"></rect></g><g data-z-index="0.1" class="highcharts-markers highcharts-series-0 highcharts-column-series highcharts-color-0 " transform="translate(79,78) scale(1 1)" clip-path="none"></g></g><text x="300" text-anchor="middle" class="highcharts-title" data-z-index="4" style="color:#333333;font-size:18px;fill:#333333;" y="24"><tspan>Average Acetyl L-Carnitine Intake Preceding Sleep Cycles</tspan></text><text x="300" text-anchor="middle" class="highcharts-subtitle" data-z-index="4" style="color:#666666;fill:#666666;" y="46"><tspan>Typical Acetyl L-carnitine intake seen over the previous 7 days preceding the given Sleep</tspan><tspan dy="15" x="300">Cycles value.</tspan></text><g class="highcharts-axis-labels highcharts-xaxis-labels " data-z-index="7"><text x="100.29166666666333" style="color:#666666;cursor:default;font-size:11px;fill:#666666;" text-anchor="middle" transform="translate(0,0)" y="260" opacity="1">0</text><text x="142.87500000000335" style="color:#666666;cursor:default;font-size:11px;fill:#666666;" text-anchor="middle" transform="translate(0,0)" y="260" opacity="1">1</text><text x="185.45833333333334" style="color:#666666;cursor:default;font-size:11px;fill:#666666;" text-anchor="middle" transform="translate(0,0)" y="260" opacity="1">2</text><text x="228.04166666666333" style="color:#666666;cursor:default;font-size:11px;fill:#666666;" text-anchor="middle" transform="translate(0,0)" y="260" opacity="1">3</text><text x="270.6250000000033" style="color:#666666;cursor:default;font-size:11px;fill:#666666;" text-anchor="middle" transform="translate(0,0)" y="260" opacity="1">4</text><text x="313.2083333333333" style="color:#666666;cursor:default;font-size:11px;fill:#666666;" text-anchor="middle" transform="translate(0,0)" y="260" opacity="1">5</text><text x="355.79166666666333" style="color:#666666;cursor:default;font-size:11px;fill:#666666;" text-anchor="middle" transform="translate(0,0)" y="260" opacity="1">6</text><text x="398.3750000000033" style="color:#666666;cursor:default;font-size:11px;fill:#666666;" text-anchor="middle" transform="translate(0,0)" y="260" opacity="1">7</text><text x="440.9583333333333" style="color:#666666;cursor:default;font-size:11px;fill:#666666;" text-anchor="middle" transform="translate(0,0)" y="260" opacity="1">8</text><text x="483.54166666666333" style="color:#666666;cursor:default;font-size:11px;fill:#666666;" text-anchor="middle" transform="translate(0,0)" y="260" opacity="1">9</text><text x="526.1250000000034" style="color:#666666;cursor:default;font-size:11px;fill:#666666;" text-anchor="middle" transform="translate(0,0)" y="260" opacity="1">10</text><text x="568.7083333333334" style="color:#666666;cursor:default;font-size:11px;fill:#666666;" text-anchor="middle" transform="translate(0,0)" y="260" opacity="1">20</text></g><g class="highcharts-axis-labels highcharts-yaxis-labels " data-z-index="7"><text x="64" style="color:#666666;cursor:default;font-size:11px;fill:#666666;" text-anchor="end" transform="translate(0,0)" y="190" opacity="1">1k</text><text x="64" style="color:#666666;cursor:default;font-size:11px;fill:#666666;" text-anchor="end" transform="translate(0,0)" y="136" opacity="1">2k</text><text x="64" style="color:#666666;cursor:default;font-size:11px;fill:#666666;" text-anchor="end" transform="translate(0,0)" y="82" opacity="1">3k</text><text x="64" style="color:#666666;cursor:default;font-size:11px;fill:#666666;" text-anchor="end" transform="translate(0,0)" y="245" opacity="1">0</text></g><a xlink:href="https://quantimo.do" target="_blank">
                    <text x="590" class="highcharts-credits" text-anchor="end" data-z-index="8"
                          style="cursor:pointer;color:#999999;font-size:9px;fill:#999999;" y="295">https://quantimo.do
                    </text>
                </a></svg>