<?xml version="1.0" standalone="no"?><!DOCTYPE svg PUBLIC "-//W3C//DTD SVG 1.1//EN" "http://www.w3.org/Graphics/SVG/1.1/DTD/svg11.dtd"><svg xmlns:xlink="http://www.w3.org/1999/xlink" version="1.1" class="highcharts-root" style="font-family:&quot;Lucida Grande&quot;, &quot;Lucida Sans Unicode&quot;, Arial, Helvetica, sans-serif;font-size:12px;" xmlns="http://www.w3.org/2000/svg" width="600" height="400"><desc>Created with Highstock 6.2.0</desc><defs><clipPath id="highcharts-5r34wp3-191"><rect x="0" y="0" width="518" height="263" fill="none"></rect></clipPath><clipPath id="highcharts-5r34wp3-376"><rect x="0" y="0" width="518" height="263" fill="none"></rect></clipPath><clipPath id="highcharts-5r34wp3-377"><rect x="72" y="78" width="518" height="263" fill="none"></rect></clipPath></defs><rect fill="#ffffff" class="highcharts-background" x="0" y="0" width="600" height="400" rx="0" ry="0"></rect><rect fill="none" class="highcharts-plot-background" x="72" y="78" width="518" height="263"></rect><g class="highcharts-pane-group" data-z-index="0"></g><g class="highcharts-grid highcharts-xaxis-grid " data-z-index="1"><path fill="none" data-z-index="1" class="highcharts-grid-line" d="M 76.5 78 L 76.5 341" opacity="1"></path><path fill="none" data-z-index="1" class="highcharts-grid-line" d="M 161.5 78 L 161.5 341" opacity="1"></path><path fill="none" data-z-index="1" class="highcharts-grid-line" d="M 245.5 78 L 245.5 341" opacity="1"></path><path fill="none" data-z-index="1" class="highcharts-grid-line" d="M 330.5 78 L 330.5 341" opacity="1"></path><path fill="none" data-z-index="1" class="highcharts-grid-line" d="M 415.5 78 L 415.5 341" opacity="1"></path><path fill="none" data-z-index="1" class="highcharts-grid-line" d="M 499.5 78 L 499.5 341" opacity="1"></path><path fill="none" data-z-index="1" class="highcharts-grid-line" d="M 584.5 78 L 584.5 341" opacity="1"></path></g><g class="highcharts-grid highcharts-yaxis-grid " data-z-index="1"><path fill="none" stroke="#e6e6e6" stroke-width="1" data-z-index="1" class="highcharts-grid-line" d="M 72 341.5 L 590 341.5" opacity="1"></path><path fill="none" stroke="#e6e6e6" stroke-width="1" data-z-index="1" class="highcharts-grid-line" d="M 72 275.5 L 590 275.5" opacity="1"></path><path fill="none" stroke="#e6e6e6" stroke-width="1" data-z-index="1" class="highcharts-grid-line" d="M 72 210.5 L 590 210.5" opacity="1"></path><path fill="none" stroke="#e6e6e6" stroke-width="1" data-z-index="1" class="highcharts-grid-line" d="M 72 144.5 L 590 144.5" opacity="1"></path><path fill="none" stroke="#e6e6e6" stroke-width="1" data-z-index="1" class="highcharts-grid-line" d="M 72 77.5 L 590 77.5" opacity="1"></path></g><rect fill="none" class="highcharts-plot-border" data-z-index="1" x="72" y="78" width="518" height="263"></rect><g class="highcharts-axis highcharts-xaxis " data-z-index="2"><path fill="none" class="highcharts-tick" stroke="#ccd6eb" stroke-width="1" d="M 76.5 341 L 76.5 351" opacity="1"></path><path fill="none" class="highcharts-tick" stroke="#ccd6eb" stroke-width="1" d="M 161.5 341 L 161.5 351" opacity="1"></path><path fill="none" class="highcharts-tick" stroke="#ccd6eb" stroke-width="1" d="M 245.5 341 L 245.5 351" opacity="1"></path><path fill="none" class="highcharts-tick" stroke="#ccd6eb" stroke-width="1" d="M 330.5 341 L 330.5 351" opacity="1"></path><path fill="none" class="highcharts-tick" stroke="#ccd6eb" stroke-width="1" d="M 415.5 341 L 415.5 351" opacity="1"></path><path fill="none" class="highcharts-tick" stroke="#ccd6eb" stroke-width="1" d="M 499.5 341 L 499.5 351" opacity="1"></path><path fill="none" class="highcharts-tick" stroke="#ccd6eb" stroke-width="1" d="M 584.5 341 L 584.5 351" opacity="1"></path><text x="331" data-z-index="7" text-anchor="middle" transform="translate(0,0)" class="highcharts-axis-title" style="color:#666666;fill:#666666;" y="381"><tspan>Meditation (min) over previous 7 days</tspan></text><path fill="none" class="highcharts-axis-line" stroke="#ccd6eb" stroke-width="1" data-z-index="7" d="M 72 341.5 L 590 341.5"></path></g><g class="highcharts-axis highcharts-yaxis " data-z-index="2"><text x="26" data-z-index="7" text-anchor="middle" transform="translate(0,0) rotate(270 26 209.5)" class="highcharts-axis-title" style="color:#666666;fill:#666666;" y="209.5"><tspan>Blood Pressure (mmHg)</tspan></text><path fill="none" class="highcharts-axis-line" data-z-index="7" d="M 72 78 L 72 341"></path></g><g class="highcharts-series-group" data-z-index="3"><g data-z-index="0.1" class="highcharts-series highcharts-series-0 highcharts-scatter-series highcharts-color-0 " transform="translate(72,78) scale(1 1)" clip-path="url(#highcharts-5r34wp3-376)"></g><g data-z-index="0.1" class="highcharts-markers highcharts-series-0 highcharts-scatter-series highcharts-color-0 " transform="translate(72,78) scale(1 1)" clip-path="none"><path fill="#000000" d="M 9 134 A 4 4 0 1 1 8.999998000000167 133.99600000066667 Z" class="highcharts-point highcharts-color-0"></path><path fill="#000000" d="M 9 113 A 4 4 0 1 1 8.999998000000167 112.99600000066667 Z" class="highcharts-point highcharts-color-0"></path><path fill="#000000" d="M 9 124 A 4 4 0 1 1 8.999998000000167 123.99600000066667 Z" class="highcharts-point highcharts-color-0"></path><path fill="#000000" d="M 9 128 A 4 4 0 1 1 8.999998000000167 127.99600000066667 Z" class="highcharts-point highcharts-color-0"></path><path fill="#000000" d="M 9 148 A 4 4 0 1 1 8.999998000000167 147.99600000066667 Z" class="highcharts-point highcharts-color-0"></path><path fill="#000000" d="M 9 159 A 4 4 0 1 1 8.999998000000167 158.99600000066667 Z" class="highcharts-point highcharts-color-0"></path><path fill="#000000" d="M 9 146 A 4 4 0 1 1 8.999998000000167 145.99600000066667 Z" class="highcharts-point highcharts-color-0"></path><path fill="#000000" d="M 9 118 A 4 4 0 1 1 8.999998000000167 117.99600000066667 Z" class="highcharts-point highcharts-color-0"></path><path fill="#000000" d="M 9 96 A 4 4 0 1 1 8.999998000000167 95.99600000066667 Z" class="highcharts-point highcharts-color-0"></path><path fill="#000000" d="M 9 115 A 4 4 0 1 1 8.999998000000167 114.99600000066667 Z" class="highcharts-point highcharts-color-0"></path><path fill="#000000" d="M 9 160 A 4 4 0 1 1 8.999998000000167 159.99600000066667 Z" class="highcharts-point highcharts-color-0"></path><path fill="#000000" d="M 9 115 A 4 4 0 1 1 8.999998000000167 114.99600000066667 Z" class="highcharts-point highcharts-color-0"></path><path fill="#000000" d="M 9 164 A 4 4 0 1 1 8.999998000000167 163.99600000066667 Z" class="highcharts-point highcharts-color-0"></path><path fill="#000000" d="M 9 139 A 4 4 0 1 1 8.999998000000167 138.99600000066667 Z" class="highcharts-point highcharts-color-0"></path><path fill="#000000" d="M 9 139 A 4 4 0 1 1 8.999998000000167 138.99600000066667 Z" class="highcharts-point highcharts-color-0"></path><path fill="#000000" d="M 9 105 A 4 4 0 1 1 8.999998000000167 104.99600000066667 Z" class="highcharts-point highcharts-color-0"></path><path fill="#000000" d="M 9 117 A 4 4 0 1 1 8.999998000000167 116.99600000066667 Z" class="highcharts-point highcharts-color-0"></path><path fill="#000000" d="M 93 120 A 4 4 0 1 1 92.99999800000016 119.99600000066667 Z" class="highcharts-point highcharts-color-0"></path><path fill="#000000" d="M 93 132 A 4 4 0 1 1 92.99999800000016 131.99600000066667 Z" class="highcharts-point highcharts-color-0"></path><path fill="#000000" d="M 93 143 A 4 4 0 1 1 92.99999800000016 142.99600000066667 Z" class="highcharts-point highcharts-color-0"></path><path fill="#000000" d="M 93 135 A 4 4 0 1 1 92.99999800000016 134.99600000066667 Z" class="highcharts-point highcharts-color-0"></path><path fill="#000000" d="M 93 153 A 4 4 0 1 1 92.99999800000016 152.99600000066667 Z" class="highcharts-point highcharts-color-0"></path><path fill="#000000" d="M 9 128 A 4 4 0 1 1 8.999998000000167 127.99600000066667 Z" class="highcharts-point highcharts-color-0"></path><path fill="#000000" d="M 9 108 A 4 4 0 1 1 8.999998000000167 107.99600000066667 Z" class="highcharts-point highcharts-color-0"></path><path fill="#000000" d="M 9 128 A 4 4 0 1 1 8.999998000000167 127.99600000066667 Z" class="highcharts-point highcharts-color-0"></path><path fill="#000000" d="M 9 117 A 4 4 0 1 1 8.999998000000167 116.99600000066667 Z" class="highcharts-point highcharts-color-0"></path><path fill="#000000" d="M 9 129 A 4 4 0 1 1 8.999998000000167 128.99600000066667 Z" class="highcharts-point highcharts-color-0"></path><path fill="#000000" d="M 9 138 A 4 4 0 1 1 8.999998000000167 137.99600000066667 Z" class="highcharts-point highcharts-color-0"></path><path fill="#000000" d="M 9 123 A 4 4 0 1 1 8.999998000000167 122.99600000066667 Z" class="highcharts-point highcharts-color-0"></path><path fill="#000000" d="M 9 107 A 4 4 0 1 1 8.999998000000167 106.99600000066667 Z" class="highcharts-point highcharts-color-0"></path><path fill="#000000" d="M 9 128 A 4 4 0 1 1 8.999998000000167 127.99600000066667 Z" class="highcharts-point highcharts-color-0"></path><path fill="#000000" d="M 9 99 A 4 4 0 1 1 8.999998000000167 98.99600000066667 Z" class="highcharts-point highcharts-color-0"></path><path fill="#000000" d="M 9 142 A 4 4 0 1 1 8.999998000000167 141.99600000066667 Z" class="highcharts-point highcharts-color-0"></path><path fill="#000000" d="M 9 150 A 4 4 0 1 1 8.999998000000167 149.99600000066667 Z" class="highcharts-point highcharts-color-0"></path><path fill="#000000" d="M 9 155 A 4 4 0 1 1 8.999998000000167 154.99600000066667 Z" class="highcharts-point highcharts-color-0"></path><path fill="#000000" d="M 9 122 A 4 4 0 1 1 8.999998000000167 121.99600000066667 Z" class="highcharts-point highcharts-color-0"></path><path fill="#000000" d="M 9 145 A 4 4 0 1 1 8.999998000000167 144.99600000066667 Z" class="highcharts-point highcharts-color-0"></path><path fill="#000000" d="M 9 136 A 4 4 0 1 1 8.999998000000167 135.99600000066667 Z" class="highcharts-point highcharts-color-0"></path><path fill="#000000" d="M 9 133 A 4 4 0 1 1 8.999998000000167 132.99600000066667 Z" class="highcharts-point highcharts-color-0"></path><path fill="#000000" d="M 9 168 A 4 4 0 1 1 8.999998000000167 167.99600000066667 Z" class="highcharts-point highcharts-color-0"></path><path fill="#000000" d="M 9 122 A 4 4 0 1 1 8.999998000000167 121.99600000066667 Z" class="highcharts-point highcharts-color-0"></path><path fill="#000000" d="M 9 164 A 4 4 0 1 1 8.999998000000167 163.99600000066667 Z" class="highcharts-point highcharts-color-0"></path><path fill="#000000" d="M 9 138 A 4 4 0 1 1 8.999998000000167 137.99600000066667 Z" class="highcharts-point highcharts-color-0"></path><path fill="#000000" d="M 9 132 A 4 4 0 1 1 8.999998000000167 131.99600000066667 Z" class="highcharts-point highcharts-color-0"></path><path fill="#000000" d="M 9 139 A 4 4 0 1 1 8.999998000000167 138.99600000066667 Z" class="highcharts-point highcharts-color-0"></path><path fill="#000000" d="M 9 127 A 4 4 0 1 1 8.999998000000167 126.99600000066667 Z" class="highcharts-point highcharts-color-0"></path><path fill="#000000" d="M 9 166 A 4 4 0 1 1 8.999998000000167 165.99600000066667 Z" class="highcharts-point highcharts-color-0"></path><path fill="#000000" d="M 9 103 A 4 4 0 1 1 8.999998000000167 102.99600000066667 Z" class="highcharts-point highcharts-color-0"></path><path fill="#000000" d="M 9 110 A 4 4 0 1 1 8.999998000000167 109.99600000066667 Z" class="highcharts-point highcharts-color-0"></path><path fill="#000000" d="M 9 141 A 4 4 0 1 1 8.999998000000167 140.99600000066667 Z" class="highcharts-point highcharts-color-0"></path><path fill="#000000" d="M 9 142 A 4 4 0 1 1 8.999998000000167 141.99600000066667 Z" class="highcharts-point highcharts-color-0"></path><path fill="#000000" d="M 9 130 A 4 4 0 1 1 8.999998000000167 129.99600000066667 Z" class="highcharts-point highcharts-color-0"></path><path fill="#000000" d="M 9 145 A 4 4 0 1 1 8.999998000000167 144.99600000066667 Z" class="highcharts-point highcharts-color-0"></path><path fill="#000000" d="M 9 112 A 4 4 0 1 1 8.999998000000167 111.99600000066667 Z" class="highcharts-point highcharts-color-0"></path><path fill="#000000" d="M 9 127 A 4 4 0 1 1 8.999998000000167 126.99600000066667 Z" class="highcharts-point highcharts-color-0"></path><path fill="#000000" d="M 9 97 A 4 4 0 1 1 8.999998000000167 96.99600000066667 Z" class="highcharts-point highcharts-color-0"></path><path fill="#000000" d="M 9 155 A 4 4 0 1 1 8.999998000000167 154.99600000066667 Z" class="highcharts-point highcharts-color-0"></path><path fill="#000000" d="M 9 135 A 4 4 0 1 1 8.999998000000167 134.99600000066667 Z" class="highcharts-point highcharts-color-0"></path><path fill="#000000" d="M 347 115 A 4 4 0 1 1 346.9999980000002 114.99600000066667 Z" class="highcharts-point highcharts-color-0"></path><path fill="#000000" d="M 93 155 A 4 4 0 1 1 92.99999800000016 154.99600000066667 Z" class="highcharts-point highcharts-color-0"></path><path fill="#000000" d="M 9 152 A 4 4 0 1 1 8.999998000000167 151.99600000066667 Z" class="highcharts-point highcharts-color-0"></path><path fill="#000000" d="M 136 123 A 4 4 0 1 1 135.99999800000018 122.99600000066667 Z" class="highcharts-point highcharts-color-0"></path><path fill="#000000" d="M 9 120 A 4 4 0 1 1 8.999998000000167 119.99600000066667 Z" class="highcharts-point highcharts-color-0"></path><path fill="#000000" d="M 9 107 A 4 4 0 1 1 8.999998000000167 106.99600000066667 Z" class="highcharts-point highcharts-color-0"></path><path fill="#000000" d="M 9 230 A 4 4 0 1 1 8.999998000000167 229.99600000066667 Z" class="highcharts-point highcharts-color-0"></path><path fill="#000000" d="M 9 105 A 4 4 0 1 1 8.999998000000167 104.99600000066667 Z" class="highcharts-point highcharts-color-0"></path><path fill="#000000" d="M 347 84 A 4 4 0 1 1 346.9999980000002 83.99600000066667 Z" class="highcharts-point highcharts-color-0"></path><path fill="#000000" d="M 432 126 A 4 4 0 1 1 431.9999980000002 125.99600000066667 Z" class="highcharts-point highcharts-color-0"></path><path fill="#000000" d="M 347 136 A 4 4 0 1 1 346.9999980000002 135.99600000066667 Z" class="highcharts-point highcharts-color-0"></path><path fill="#000000" d="M 347 133 A 4 4 0 1 1 346.9999980000002 132.99600000066667 Z" class="highcharts-point highcharts-color-0"></path><path fill="#000000" d="M 263 132 A 4 4 0 1 1 262.9999980000002 131.99600000066667 Z" class="highcharts-point highcharts-color-0"></path><path fill="#000000" d="M 347 130 A 4 4 0 1 1 346.9999980000002 129.99600000066667 Z" class="highcharts-point highcharts-color-0"></path><path fill="#000000" d="M 347 150 A 4 4 0 1 1 346.9999980000002 149.99600000066667 Z" class="highcharts-point highcharts-color-0"></path><path fill="#000000" d="M 347 123 A 4 4 0 1 1 346.9999980000002 122.99600000066667 Z" class="highcharts-point highcharts-color-0"></path><path fill="#000000" d="M 347 115 A 4 4 0 1 1 346.9999980000002 114.99600000066667 Z" class="highcharts-point highcharts-color-0"></path><path fill="#000000" d="M 516 153 A 4 4 0 1 1 515.9999980000001 152.99600000066667 Z" class="highcharts-point highcharts-color-0"></path><path fill="#000000" d="M 516 149 A 4 4 0 1 1 515.9999980000001 148.99600000066667 Z" class="highcharts-point highcharts-color-0"></path><path fill="#000000" d="M 516 121 A 4 4 0 1 1 515.9999980000001 120.99600000066667 Z" class="highcharts-point highcharts-color-0"></path><path fill="#000000" d="M 347 115 A 4 4 0 1 1 346.9999980000002 114.99600000066667 Z" class="highcharts-point highcharts-color-0"></path><path fill="#000000" d="M 263 102 A 4 4 0 1 1 262.9999980000002 101.99600000066667 Z" class="highcharts-point highcharts-color-0"></path><path fill="#000000" d="M 178 113 A 4 4 0 1 1 177.99999800000018 112.99600000066667 Z" class="highcharts-point highcharts-color-0"></path><path fill="#000000" d="M 263 99 A 4 4 0 1 1 262.9999980000002 98.99600000066667 Z" class="highcharts-point highcharts-color-0"></path><path fill="#000000" d="M 347 110 A 4 4 0 1 1 346.9999980000002 109.99600000066667 Z" class="highcharts-point highcharts-color-0"></path><path fill="#000000" d="M 347 111 A 4 4 0 1 1 346.9999980000002 110.99600000066667 Z" class="highcharts-point highcharts-color-0"></path><path fill="#000000" d="M 432 129 A 4 4 0 1 1 431.9999980000002 128.99600000066667 Z" class="highcharts-point highcharts-color-0"></path><path fill="#000000" d="M 347 89 A 4 4 0 1 1 346.9999980000002 88.99600000066667 Z" class="highcharts-point highcharts-color-0"></path><path fill="#000000" d="M 347 130 A 4 4 0 1 1 346.9999980000002 129.99600000066667 Z" class="highcharts-point highcharts-color-0"></path><path fill="#000000" d="M 432 136 A 4 4 0 1 1 431.9999980000002 135.99600000066667 Z" class="highcharts-point highcharts-color-0"></path><path fill="#000000" d="M 347 132 A 4 4 0 1 1 346.9999980000002 131.99600000066667 Z" class="highcharts-point highcharts-color-0"></path><path fill="#000000" d="M 347 132 A 4 4 0 1 1 346.9999980000002 131.99600000066667 Z" class="highcharts-point highcharts-color-0"></path><path fill="#000000" d="M 432 132 A 4 4 0 1 1 431.9999980000002 131.99600000066667 Z" class="highcharts-point highcharts-color-0"></path><path fill="#000000" d="M 516 126 A 4 4 0 1 1 515.9999980000001 125.99600000066667 Z" class="highcharts-point highcharts-color-0"></path><path fill="#000000" d="M 516 127 A 4 4 0 1 1 515.9999980000001 126.99600000066667 Z" class="highcharts-point highcharts-color-0"></path><path fill="#000000" d="M 432 94 A 4 4 0 1 1 431.9999980000002 93.99600000066667 Z" class="highcharts-point highcharts-color-0"></path><path fill="#000000" d="M 93 139 A 4 4 0 1 1 92.99999800000016 138.99600000066667 Z" class="highcharts-point highcharts-color-0"></path><path fill="#000000" d="M 9 121 A 4 4 0 1 1 8.999998000000167 120.99600000066667 Z" class="highcharts-point highcharts-color-0"></path><path fill="#000000" d="M 9 136 A 4 4 0 1 1 8.999998000000167 135.99600000066667 Z" class="highcharts-point highcharts-color-0"></path><path fill="#000000" d="M 9 136 A 4 4 0 1 1 8.999998000000167 135.99600000066667 Z" class="highcharts-point highcharts-color-0"></path><path fill="#000000" d="M 9 128 A 4 4 0 1 1 8.999998000000167 127.99600000066667 Z" class="highcharts-point highcharts-color-0"></path><path fill="#000000" d="M 9 132 A 4 4 0 1 1 8.999998000000167 131.99600000066667 Z" class="highcharts-point highcharts-color-0"></path><path fill="#000000" d="M 9 125 A 4 4 0 1 1 8.999998000000167 124.99600000066667 Z" class="highcharts-point highcharts-color-0"></path><path fill="#000000" d="M 9 128 A 4 4 0 1 1 8.999998000000167 127.99600000066667 Z" class="highcharts-point highcharts-color-0"></path><path fill="#000000" d="M 9 129 A 4 4 0 1 1 8.999998000000167 128.99600000066667 Z" class="highcharts-point highcharts-color-0"></path><path fill="#000000" d="M 178 118 A 4 4 0 1 1 177.99999800000018 117.99600000066667 Z" class="highcharts-point highcharts-color-0"></path><path fill="#000000" d="M 263 104 A 4 4 0 1 1 262.9999980000002 103.99600000066667 Z" class="highcharts-point highcharts-color-0"></path><path fill="#000000" d="M 347 138 A 4 4 0 1 1 346.9999980000002 137.99600000066667 Z" class="highcharts-point highcharts-color-0"></path><path fill="#000000" d="M 432 111 A 4 4 0 1 1 431.9999980000002 110.99600000066667 Z" class="highcharts-point highcharts-color-0"></path><path fill="#000000" d="M 432 147 A 4 4 0 1 1 431.9999980000002 146.99600000066667 Z" class="highcharts-point highcharts-color-0"></path><path fill="#000000" d="M 432 116 A 4 4 0 1 1 431.9999980000002 115.99600000066667 Z" class="highcharts-point highcharts-color-0"></path><path fill="#000000" d="M 432 123 A 4 4 0 1 1 431.9999980000002 122.99600000066667 Z" class="highcharts-point highcharts-color-0"></path><path fill="#000000" d="M 432 123 A 4 4 0 1 1 431.9999980000002 122.99600000066667 Z" class="highcharts-point highcharts-color-0"></path><path fill="#000000" d="M 347 136 A 4 4 0 1 1 346.9999980000002 135.99600000066667 Z" class="highcharts-point highcharts-color-0"></path><path fill="#000000" d="M 347 132 A 4 4 0 1 1 346.9999980000002 131.99600000066667 Z" class="highcharts-point highcharts-color-0"></path><path fill="#000000" d="M 347 122 A 4 4 0 1 1 346.9999980000002 121.99600000066667 Z" class="highcharts-point highcharts-color-0"></path><path fill="#000000" d="M 347 138 A 4 4 0 1 1 346.9999980000002 137.99600000066667 Z" class="highcharts-point highcharts-color-0"></path><path fill="#000000" d="M 347 108 A 4 4 0 1 1 346.9999980000002 107.99600000066667 Z" class="highcharts-point highcharts-color-0"></path><path fill="#000000" d="M 432 136 A 4 4 0 1 1 431.9999980000002 135.99600000066667 Z" class="highcharts-point highcharts-color-0"></path><path fill="#000000" d="M 516 115 A 4 4 0 1 1 515.9999980000001 114.99600000066667 Z" class="highcharts-point highcharts-color-0"></path><path fill="#000000" d="M 516 159 A 4 4 0 1 1 515.9999980000001 158.99600000066667 Z" class="highcharts-point highcharts-color-0"></path><path fill="#000000" d="M 432 112 A 4 4 0 1 1 431.9999980000002 111.99600000066667 Z" class="highcharts-point highcharts-color-0"></path><path fill="#000000" d="M 432 113 A 4 4 0 1 1 431.9999980000002 112.99600000066667 Z" class="highcharts-point highcharts-color-0"></path><path fill="#000000" d="M 178 121 A 4 4 0 1 1 177.99999800000018 120.99600000066667 Z" class="highcharts-point highcharts-color-0"></path><path fill="#000000" d="M 93 145 A 4 4 0 1 1 92.99999800000016 144.99600000066667 Z" class="highcharts-point highcharts-color-0"></path><path fill="#000000" d="M 178 116 A 4 4 0 1 1 177.99999800000018 115.99600000066667 Z" class="highcharts-point highcharts-color-0"></path><path fill="#000000" d="M 93 115 A 4 4 0 1 1 92.99999800000016 114.99600000066667 Z" class="highcharts-point highcharts-color-0"></path><path fill="#000000" d="M 178 87 A 4 4 0 1 1 177.99999800000018 86.99600000066667 Z" class="highcharts-point highcharts-color-0"></path><path fill="#000000" d="M 9 113 A 4 4 0 1 1 8.999998000000167 112.99600000066667 Z" class="highcharts-point highcharts-color-0"></path><path fill="#000000" d="M 9 126 A 4 4 0 1 1 8.999998000000167 125.99600000066667 Z" class="highcharts-point highcharts-color-0"></path><path fill="#000000" d="M 9 107 A 4 4 0 1 1 8.999998000000167 106.99600000066667 Z" class="highcharts-point highcharts-color-0"></path><path fill="#000000" d="M 178 141 A 4 4 0 1 1 177.99999800000018 140.99600000066667 Z" class="highcharts-point highcharts-color-0"></path><path fill="#000000" d="M 263 107 A 4 4 0 1 1 262.9999980000002 106.99600000066667 Z" class="highcharts-point highcharts-color-0"></path><path fill="#000000" d="M 263 127 A 4 4 0 1 1 262.9999980000002 126.99600000066667 Z" class="highcharts-point highcharts-color-0"></path><path fill="#000000" d="M 9 125 A 4 4 0 1 1 8.999998000000167 124.99600000066667 Z" class="highcharts-point highcharts-color-0"></path><path fill="#000000" d="M 9 102 A 4 4 0 1 1 8.999998000000167 101.99600000066667 Z" class="highcharts-point highcharts-color-0"></path><path fill="#000000" d="M 93 111 A 4 4 0 1 1 92.99999800000016 110.99600000066667 Z" class="highcharts-point highcharts-color-0"></path><path fill="#000000" d="M 93 130 A 4 4 0 1 1 92.99999800000016 129.99600000066667 Z" class="highcharts-point highcharts-color-0"></path><path fill="#000000" d="M 93 151 A 4 4 0 1 1 92.99999800000016 150.99600000066667 Z" class="highcharts-point highcharts-color-0"></path><path fill="#000000" d="M 93 119 A 4 4 0 1 1 92.99999800000016 118.99600000066667 Z" class="highcharts-point highcharts-color-0"></path><path fill="#000000" d="M 93 167 A 4 4 0 1 1 92.99999800000016 166.99600000066667 Z" class="highcharts-point highcharts-color-0"></path><path fill="#000000" d="M 9 118 A 4 4 0 1 1 8.999998000000167 117.99600000066667 Z" class="highcharts-point highcharts-color-0"></path><path fill="#000000" d="M 9 109 A 4 4 0 1 1 8.999998000000167 108.99600000066667 Z" class="highcharts-point highcharts-color-0"></path><path fill="#000000" d="M 9 133 A 4 4 0 1 1 8.999998000000167 132.99600000066667 Z" class="highcharts-point highcharts-color-0"></path><path fill="#000000" d="M 9 175 A 4 4 0 1 1 8.999998000000167 174.99600000066667 Z" class="highcharts-point highcharts-color-0"></path><path fill="#000000" d="M 9 153 A 4 4 0 1 1 8.999998000000167 152.99600000066667 Z" class="highcharts-point highcharts-color-0"></path><path fill="#000000" d="M 9 153 A 4 4 0 1 1 8.999998000000167 152.99600000066667 Z" class="highcharts-point highcharts-color-0"></path><path fill="#000000" d="M 9 138 A 4 4 0 1 1 8.999998000000167 137.99600000066667 Z" class="highcharts-point highcharts-color-0"></path><path fill="#000000" d="M 9 96 A 4 4 0 1 1 8.999998000000167 95.99600000066667 Z" class="highcharts-point highcharts-color-0"></path><path fill="#000000" d="M 9 122 A 4 4 0 1 1 8.999998000000167 121.99600000066667 Z" class="highcharts-point highcharts-color-0"></path><path fill="#000000" d="M 93 145 A 4 4 0 1 1 92.99999800000016 144.99600000066667 Z" class="highcharts-point highcharts-color-0"></path><path fill="#000000" d="M 93 141 A 4 4 0 1 1 92.99999800000016 140.99600000066667 Z" class="highcharts-point highcharts-color-0"></path><path fill="#000000" d="M 93 138 A 4 4 0 1 1 92.99999800000016 137.99600000066667 Z" class="highcharts-point highcharts-color-0"></path><path fill="#000000" d="M 93 138 A 4 4 0 1 1 92.99999800000016 137.99600000066667 Z" class="highcharts-point highcharts-color-0"></path><path fill="#000000" d="M 263 125 A 4 4 0 1 1 262.9999980000002 124.99600000066667 Z" class="highcharts-point highcharts-color-0"></path><path fill="#000000" d="M 347 108 A 4 4 0 1 1 346.9999980000002 107.99600000066667 Z" class="highcharts-point highcharts-color-0"></path><path fill="#000000" d="M 347 130 A 4 4 0 1 1 346.9999980000002 129.99600000066667 Z" class="highcharts-point highcharts-color-0"></path><path fill="#000000" d="M 347 145 A 4 4 0 1 1 346.9999980000002 144.99600000066667 Z" class="highcharts-point highcharts-color-0"></path><path fill="#000000" d="M 432 107 A 4 4 0 1 1 431.9999980000002 106.99600000066667 Z" class="highcharts-point highcharts-color-0"></path><path fill="#000000" d="M 178 146 A 4 4 0 1 1 177.99999800000018 145.99600000066667 Z" class="highcharts-point highcharts-color-0"></path><path fill="#000000" d="M 93 136 A 4 4 0 1 1 92.99999800000016 135.99600000066667 Z" class="highcharts-point highcharts-color-0"></path><path fill="#000000" d="M 93 115 A 4 4 0 1 1 92.99999800000016 114.99600000066667 Z" class="highcharts-point highcharts-color-0"></path><path fill="#000000" d="M 9 125 A 4 4 0 1 1 8.999998000000167 124.99600000066667 Z" class="highcharts-point highcharts-color-0"></path><path fill="#000000" d="M 178 122 A 4 4 0 1 1 177.99999800000018 121.99600000066667 Z" class="highcharts-point highcharts-color-0"></path><path fill="#000000" d="M 347 108 A 4 4 0 1 1 346.9999980000002 107.99600000066667 Z" class="highcharts-point highcharts-color-0"></path><path fill="#000000" d="M 347 133 A 4 4 0 1 1 346.9999980000002 132.99600000066667 Z" class="highcharts-point highcharts-color-0"></path><path fill="#000000" d="M 9 122 A 4 4 0 1 1 8.999998000000167 121.99600000066667 Z" class="highcharts-point highcharts-color-0"></path><path fill="#000000" d="M 93 97 A 4 4 0 1 1 92.99999800000016 96.99600000066667 Z" class="highcharts-point highcharts-color-0"></path><path fill="#000000" d="M 178 127 A 4 4 0 1 1 177.99999800000018 126.99600000066667 Z" class="highcharts-point highcharts-color-0"></path><path fill="#000000" d="M 432 123 A 4 4 0 1 1 431.9999980000002 122.99600000066667 Z" class="highcharts-point highcharts-color-0"></path><path fill="#000000" d="M 347 107 A 4 4 0 1 1 346.9999980000002 106.99600000066667 Z" class="highcharts-point highcharts-color-0"></path><path fill="#000000" d="M 432 94 A 4 4 0 1 1 431.9999980000002 93.99600000066667 Z" class="highcharts-point highcharts-color-0"></path><path fill="#000000" d="M 263 104 A 4 4 0 1 1 262.9999980000002 103.99600000066667 Z" class="highcharts-point highcharts-color-0"></path><path fill="#000000" d="M 93 94 A 4 4 0 1 1 92.99999800000016 93.99600000066667 Z" class="highcharts-point highcharts-color-0"></path><path fill="#000000" d="M 178 122 A 4 4 0 1 1 177.99999800000018 121.99600000066667 Z" class="highcharts-point highcharts-color-0"></path><path fill="#000000" d="M 516 118 A 4 4 0 1 1 515.9999980000001 117.99600000066667 Z" class="highcharts-point highcharts-color-0"></path><path fill="#000000" d="M 9 149 A 4 4 0 1 1 8.999998000000167 148.99600000066667 Z" class="highcharts-point highcharts-color-0"></path><path fill="#000000" d="M 9 90 A 4 4 0 1 1 8.999998000000167 89.99600000066667 Z" class="highcharts-point highcharts-color-0"></path><path fill="#000000" d="M 9 104 A 4 4 0 1 1 8.999998000000167 103.99600000066667 Z" class="highcharts-point highcharts-color-0"></path><path fill="#000000" d="M 9 58 A 4 4 0 1 1 8.999998000000167 57.99600000066666 Z" class="highcharts-point highcharts-color-0"></path><path fill="#000000" d="M 9 94 A 4 4 0 1 1 8.999998000000167 93.99600000066667 Z" class="highcharts-point highcharts-color-0"></path><path fill="#000000" d="M 9 87 A 4 4 0 1 1 8.999998000000167 86.99600000066667 Z" class="highcharts-point highcharts-color-0"></path><path fill="#000000" d="M 9 102 A 4 4 0 1 1 8.999998000000167 101.99600000066667 Z" class="highcharts-point highcharts-color-0"></path><path fill="#000000" d="M 9 92 A 4 4 0 1 1 8.999998000000167 91.99600000066667 Z" class="highcharts-point highcharts-color-0"></path><path fill="#000000" d="M 9 129 A 4 4 0 1 1 8.999998000000167 128.99600000066667 Z" class="highcharts-point highcharts-color-0"></path><path fill="#000000" d="M 263 70 A 4 4 0 1 1 262.9999980000002 69.99600000066667 Z" class="highcharts-point highcharts-color-0"></path></g></g><text x="300" text-anchor="middle" class="highcharts-title" data-z-index="4" style="color:#333333;font-size:18px;fill:#333333;" y="24"><tspan>Blood Pressure Following Meditation</tspan></text><text x="300" text-anchor="middle" class="highcharts-subtitle" data-z-index="4" style="color:#666666;fill:#666666;" y="46"><tspan>An increase in 7 days cumulative Meditation is usually followed by an increase in Blood</tspan><tspan dy="15" x="300">Pressure. (R = 0.113)</tspan></text><g class="highcharts-axis-labels highcharts-xaxis-labels " data-z-index="7"><text x="77.078431372549" style="color:#666666;cursor:default;font-size:11px;fill:#666666;" text-anchor="middle" transform="translate(0,0)" y="360" opacity="1">0</text><text x="161.71895424837" style="color:#666666;cursor:default;font-size:11px;fill:#666666;" text-anchor="middle" transform="translate(0,0)" y="360" opacity="1">10</text><text x="246.35947712418" style="color:#666666;cursor:default;font-size:11px;fill:#666666;" text-anchor="middle" transform="translate(0,0)" y="360" opacity="1">20</text><text x="331" style="color:#666666;cursor:default;font-size:11px;fill:#666666;" text-anchor="middle" transform="translate(0,0)" y="360" opacity="1">30</text><text x="415.64052287582" style="color:#666666;cursor:default;font-size:11px;fill:#666666;" text-anchor="middle" transform="translate(0,0)" y="360" opacity="1">40</text><text x="500.28104575163" style="color:#666666;cursor:default;font-size:11px;fill:#666666;" text-anchor="middle" transform="translate(0,0)" y="360" opacity="1">50</text><text x="583" style="color:#666666;cursor:default;font-size:11px;fill:#666666;" text-anchor="middle" transform="translate(0,0)" y="360" opacity="1">60</text></g><g class="highcharts-axis-labels highcharts-yaxis-labels " data-z-index="7"><text x="57" style="color:#666666;cursor:default;font-size:11px;fill:#666666;" text-anchor="end" transform="translate(0,0)" y="345" opacity="1">80</text><text x="57" style="color:#666666;cursor:default;font-size:11px;fill:#666666;" text-anchor="end" transform="translate(0,0)" y="279" opacity="1">100</text><text x="57" style="color:#666666;cursor:default;font-size:11px;fill:#666666;" text-anchor="end" transform="translate(0,0)" y="213" opacity="1">120</text><text x="57" style="color:#666666;cursor:default;font-size:11px;fill:#666666;" text-anchor="end" transform="translate(0,0)" y="147" opacity="1">140</text><text x="57" style="color:#666666;cursor:default;font-size:11px;fill:#666666;" text-anchor="end" transform="translate(0,0)" y="82" opacity="1">160</text></g><a xlink:href="https://quantimo.do" target="_blank">
                    <text x="590" class="highcharts-credits" text-anchor="end" data-z-index="8"
                          style="cursor:pointer;color:#999999;font-size:9px;fill:#999999;" y="395">https://quantimo.do
                    </text>
                </a></svg>