<?xml version="1.0" standalone="no"?><!DOCTYPE svg PUBLIC "-//W3C//DTD SVG 1.1//EN" "http://www.w3.org/Graphics/SVG/1.1/DTD/svg11.dtd"><svg xmlns:xlink="http://www.w3.org/1999/xlink" version="1.1" class="highcharts-root" style="font-family:&quot;Lucida Grande&quot;, &quot;Lucida Sans Unicode&quot;, Arial, Helvetica, sans-serif;font-size:12px;" xmlns="http://www.w3.org/2000/svg" width="600" height="400"><desc>Created with Highstock 6.2.0</desc><defs><clipPath id="highcharts-ic5jinz-591"><rect x="0" y="0" width="532" height="263" fill="none"></rect></clipPath><clipPath id="highcharts-ic5jinz-1176"><rect x="0" y="0" width="532" height="263" fill="none"></rect></clipPath><clipPath id="highcharts-ic5jinz-1177"><rect x="58" y="78" width="532" height="263" fill="none"></rect></clipPath></defs><rect fill="#ffffff" class="highcharts-background" x="0" y="0" width="600" height="400" rx="0" ry="0"></rect><rect fill="none" class="highcharts-plot-background" x="58" y="78" width="532" height="263"></rect><g class="highcharts-pane-group" data-z-index="0"></g><g class="highcharts-grid highcharts-xaxis-grid " data-z-index="1"><path fill="none" data-z-index="1" class="highcharts-grid-line" d="M 62.5 78 L 62.5 341" opacity="1"></path><path fill="none" data-z-index="1" class="highcharts-grid-line" d="M 127.5 78 L 127.5 341" opacity="1"></path><path fill="none" data-z-index="1" class="highcharts-grid-line" d="M 193.5 78 L 193.5 341" opacity="1"></path><path fill="none" data-z-index="1" class="highcharts-grid-line" d="M 258.5 78 L 258.5 341" opacity="1"></path><path fill="none" data-z-index="1" class="highcharts-grid-line" d="M 323.5 78 L 323.5 341" opacity="1"></path><path fill="none" data-z-index="1" class="highcharts-grid-line" d="M 388.5 78 L 388.5 341" opacity="1"></path><path fill="none" data-z-index="1" class="highcharts-grid-line" d="M 453.5 78 L 453.5 341" opacity="1"></path><path fill="none" data-z-index="1" class="highcharts-grid-line" d="M 519.5 78 L 519.5 341" opacity="1"></path><path fill="none" data-z-index="1" class="highcharts-grid-line" d="M 584.5 78 L 584.5 341" opacity="1"></path></g><g class="highcharts-grid highcharts-yaxis-grid " data-z-index="1"><path fill="none" stroke="#e6e6e6" stroke-width="1" data-z-index="1" class="highcharts-grid-line" d="M 58 341.5 L 590 341.5" opacity="1"></path><path fill="none" stroke="#e6e6e6" stroke-width="1" data-z-index="1" class="highcharts-grid-line" d="M 58 288.5 L 590 288.5" opacity="1"></path><path fill="none" stroke="#e6e6e6" stroke-width="1" data-z-index="1" class="highcharts-grid-line" d="M 58 236.5 L 590 236.5" opacity="1"></path><path fill="none" stroke="#e6e6e6" stroke-width="1" data-z-index="1" class="highcharts-grid-line" d="M 58 183.5 L 590 183.5" opacity="1"></path><path fill="none" stroke="#e6e6e6" stroke-width="1" data-z-index="1" class="highcharts-grid-line" d="M 58 131.5 L 590 131.5" opacity="1"></path><path fill="none" stroke="#e6e6e6" stroke-width="1" data-z-index="1" class="highcharts-grid-line" d="M 58 77.5 L 590 77.5" opacity="1"></path></g><rect fill="none" class="highcharts-plot-border" data-z-index="1" x="58" y="78" width="532" height="263"></rect><g class="highcharts-axis highcharts-xaxis " data-z-index="2"><path fill="none" class="highcharts-tick" stroke="#ccd6eb" stroke-width="1" d="M 62.5 341 L 62.5 351" opacity="1"></path><path fill="none" class="highcharts-tick" stroke="#ccd6eb" stroke-width="1" d="M 127.5 341 L 127.5 351" opacity="1"></path><path fill="none" class="highcharts-tick" stroke="#ccd6eb" stroke-width="1" d="M 193.5 341 L 193.5 351" opacity="1"></path><path fill="none" class="highcharts-tick" stroke="#ccd6eb" stroke-width="1" d="M 258.5 341 L 258.5 351" opacity="1"></path><path fill="none" class="highcharts-tick" stroke="#ccd6eb" stroke-width="1" d="M 323.5 341 L 323.5 351" opacity="1"></path><path fill="none" class="highcharts-tick" stroke="#ccd6eb" stroke-width="1" d="M 388.5 341 L 388.5 351" opacity="1"></path><path fill="none" class="highcharts-tick" stroke="#ccd6eb" stroke-width="1" d="M 453.5 341 L 453.5 351" opacity="1"></path><path fill="none" class="highcharts-tick" stroke="#ccd6eb" stroke-width="1" d="M 519.5 341 L 519.5 351" opacity="1"></path><path fill="none" class="highcharts-tick" stroke="#ccd6eb" stroke-width="1" d="M 584.5 341 L 584.5 351" opacity="1"></path><text x="324" data-z-index="7" text-anchor="middle" transform="translate(0,0)" class="highcharts-axis-title" style="color:#666666;fill:#666666;" y="381"><tspan>Hostility (/5) over previous 24 hours</tspan></text><path fill="none" class="highcharts-axis-line" stroke="#ccd6eb" stroke-width="1" data-z-index="7" d="M 58 341.5 L 590 341.5"></path></g><g class="highcharts-axis highcharts-yaxis " data-z-index="2"><text x="26" data-z-index="7" text-anchor="middle" transform="translate(0,0) rotate(270 26 209.5)" class="highcharts-axis-title" style="color:#666666;fill:#666666;" y="209.5"><tspan>Overall Mood (/5)</tspan></text><path fill="none" class="highcharts-axis-line" data-z-index="7" d="M 58 78 L 58 341"></path></g><g class="highcharts-series-group" data-z-index="3"><g data-z-index="0.1" class="highcharts-series highcharts-series-0 highcharts-scatter-series highcharts-color-0 " transform="translate(58,78) scale(1 1)" clip-path="url(#highcharts-ic5jinz-1176)"></g><g data-z-index="0.1" class="highcharts-markers highcharts-series-0 highcharts-scatter-series highcharts-color-0 " transform="translate(58,78) scale(1 1)" clip-path="none"><path fill="#000000" d="M 204 122 A 4 4 0 1 1 203.99999800000018 121.99600000066667 Z" class="highcharts-point highcharts-color-0"></path><path fill="#000000" d="M 139 148 A 4 4 0 1 1 138.99999800000018 147.99600000066667 Z" class="highcharts-point highcharts-color-0"></path><path fill="#000000" d="M 270 154 A 4 4 0 1 1 269.9999980000002 153.99600000066667 Z" class="highcharts-point highcharts-color-0"></path><path fill="#000000" d="M 139 117 A 4 4 0 1 1 138.99999800000018 116.99600000066667 Z" class="highcharts-point highcharts-color-0"></path><path fill="#000000" d="M 270 151 A 4 4 0 1 1 269.9999980000002 150.99600000066667 Z" class="highcharts-point highcharts-color-0"></path><path fill="#000000" d="M 270 164 A 4 4 0 1 1 269.9999980000002 163.99600000066667 Z" class="highcharts-point highcharts-color-0"></path><path fill="#000000" d="M 139 164 A 4 4 0 1 1 138.99999800000018 163.99600000066667 Z" class="highcharts-point highcharts-color-0"></path><path fill="#000000" d="M 139 105 A 4 4 0 1 1 138.99999800000018 104.99600000066667 Z" class="highcharts-point highcharts-color-0"></path><path fill="#000000" d="M 139 142 A 4 4 0 1 1 138.99999800000018 141.99600000066667 Z" class="highcharts-point highcharts-color-0"></path><path fill="#000000" d="M 270 154 A 4 4 0 1 1 269.9999980000002 153.99600000066667 Z" class="highcharts-point highcharts-color-0"></path><path fill="#000000" d="M 530 193 A 4 4 0 1 1 529.9999980000001 192.99600000066667 Z" class="highcharts-point highcharts-color-0"></path><path fill="#000000" d="M 139 105 A 4 4 0 1 1 138.99999800000018 104.99600000066667 Z" class="highcharts-point highcharts-color-0"></path><path fill="#000000" d="M 356 143 A 4 4 0 1 1 355.9999980000002 142.99600000066667 Z" class="highcharts-point highcharts-color-0"></path><path fill="#000000" d="M 204 137 A 4 4 0 1 1 203.99999800000018 136.99600000066667 Z" class="highcharts-point highcharts-color-0"></path><path fill="#000000" d="M 139 147 A 4 4 0 1 1 138.99999800000018 146.99600000066667 Z" class="highcharts-point highcharts-color-0"></path><path fill="#000000" d="M 139 145 A 4 4 0 1 1 138.99999800000018 144.99600000066667 Z" class="highcharts-point highcharts-color-0"></path><path fill="#000000" d="M 96 113 A 4 4 0 1 1 95.99999800000016 112.99600000066667 Z" class="highcharts-point highcharts-color-0"></path><path fill="#000000" d="M 172 118 A 4 4 0 1 1 171.99999800000018 117.99600000066667 Z" class="highcharts-point highcharts-color-0"></path><path fill="#000000" d="M 183 113 A 4 4 0 1 1 182.99999800000018 112.99600000066667 Z" class="highcharts-point highcharts-color-0"></path><path fill="#000000" d="M 172 132 A 4 4 0 1 1 171.99999800000018 131.99600000066667 Z" class="highcharts-point highcharts-color-0"></path><path fill="#000000" d="M 172 125 A 4 4 0 1 1 171.99999800000018 124.99600000066667 Z" class="highcharts-point highcharts-color-0"></path><path fill="#000000" d="M 191 105 A 4 4 0 1 1 190.99999800000018 104.99600000066667 Z" class="highcharts-point highcharts-color-0"></path><path fill="#000000" d="M 374 105 A 4 4 0 1 1 373.9999980000002 104.99600000066667 Z" class="highcharts-point highcharts-color-0"></path><path fill="#000000" d="M 226 105 A 4 4 0 1 1 225.99999800000018 104.99600000066667 Z" class="highcharts-point highcharts-color-0"></path><path fill="#000000" d="M 41 105 A 4 4 0 1 1 40.99999800000017 104.99600000066667 Z" class="highcharts-point highcharts-color-0"></path><path fill="#000000" d="M 90 132 A 4 4 0 1 1 89.99999800000016 131.99600000066667 Z" class="highcharts-point highcharts-color-0"></path><path fill="#000000" d="M 9 117 A 4 4 0 1 1 8.999998000000167 116.99600000066667 Z" class="highcharts-point highcharts-color-0"></path><path fill="#000000" d="M 270 105 A 4 4 0 1 1 269.9999980000002 104.99600000066667 Z" class="highcharts-point highcharts-color-0"></path><path fill="#000000" d="M 9 84 A 4 4 0 1 1 8.999998000000167 83.99600000066667 Z" class="highcharts-point highcharts-color-0"></path><path fill="#000000" d="M 9 105 A 4 4 0 1 1 8.999998000000167 104.99600000066667 Z" class="highcharts-point highcharts-color-0"></path><path fill="#000000" d="M 9 105 A 4 4 0 1 1 8.999998000000167 104.99600000066667 Z" class="highcharts-point highcharts-color-0"></path><path fill="#000000" d="M 139 105 A 4 4 0 1 1 138.99999800000018 104.99600000066667 Z" class="highcharts-point highcharts-color-0"></path><path fill="#000000" d="M 139 105 A 4 4 0 1 1 138.99999800000018 104.99600000066667 Z" class="highcharts-point highcharts-color-0"></path><path fill="#000000" d="M 139 105 A 4 4 0 1 1 138.99999800000018 104.99600000066667 Z" class="highcharts-point highcharts-color-0"></path><path fill="#000000" d="M 139 105 A 4 4 0 1 1 138.99999800000018 104.99600000066667 Z" class="highcharts-point highcharts-color-0"></path><path fill="#000000" d="M 139 108 A 4 4 0 1 1 138.99999800000018 107.99600000066667 Z" class="highcharts-point highcharts-color-0"></path><path fill="#000000" d="M 400 105 A 4 4 0 1 1 399.9999980000002 104.99600000066667 Z" class="highcharts-point highcharts-color-0"></path><path fill="#000000" d="M 270 105 A 4 4 0 1 1 269.9999980000002 104.99600000066667 Z" class="highcharts-point highcharts-color-0"></path><path fill="#000000" d="M 270 123 A 4 4 0 1 1 269.9999980000002 122.99600000066667 Z" class="highcharts-point highcharts-color-0"></path><path fill="#000000" d="M 530 118 A 4 4 0 1 1 529.9999980000001 117.99600000066667 Z" class="highcharts-point highcharts-color-0"></path><path fill="#000000" d="M 400 113 A 4 4 0 1 1 399.9999980000002 112.99600000066667 Z" class="highcharts-point highcharts-color-0"></path><path fill="#000000" d="M 270 105 A 4 4 0 1 1 269.9999980000002 104.99600000066667 Z" class="highcharts-point highcharts-color-0"></path><path fill="#000000" d="M 270 105 A 4 4 0 1 1 269.9999980000002 104.99600000066667 Z" class="highcharts-point highcharts-color-0"></path><path fill="#000000" d="M 400 123 A 4 4 0 1 1 399.9999980000002 122.99600000066667 Z" class="highcharts-point highcharts-color-0"></path><path fill="#000000" d="M 400 147 A 4 4 0 1 1 399.9999980000002 146.99600000066667 Z" class="highcharts-point highcharts-color-0"></path><path fill="#000000" d="M 400 115 A 4 4 0 1 1 399.9999980000002 114.99600000066667 Z" class="highcharts-point highcharts-color-0"></path><path fill="#000000" d="M 139 126 A 4 4 0 1 1 138.99999800000018 125.99600000066667 Z" class="highcharts-point highcharts-color-0"></path><path fill="#000000" d="M 270 105 A 4 4 0 1 1 269.9999980000002 104.99600000066667 Z" class="highcharts-point highcharts-color-0"></path><path fill="#000000" d="M 139 105 A 4 4 0 1 1 138.99999800000018 104.99600000066667 Z" class="highcharts-point highcharts-color-0"></path><path fill="#000000" d="M 270 118 A 4 4 0 1 1 269.9999980000002 117.99600000066667 Z" class="highcharts-point highcharts-color-0"></path><path fill="#000000" d="M 400 110 A 4 4 0 1 1 399.9999980000002 109.99600000066667 Z" class="highcharts-point highcharts-color-0"></path><path fill="#000000" d="M 270 114 A 4 4 0 1 1 269.9999980000002 113.99600000066667 Z" class="highcharts-point highcharts-color-0"></path><path fill="#000000" d="M 9 112 A 4 4 0 1 1 8.999998000000167 111.99600000066667 Z" class="highcharts-point highcharts-color-0"></path><path fill="#000000" d="M 400 105 A 4 4 0 1 1 399.9999980000002 104.99600000066667 Z" class="highcharts-point highcharts-color-0"></path><path fill="#000000" d="M 270 105 A 4 4 0 1 1 269.9999980000002 104.99600000066667 Z" class="highcharts-point highcharts-color-0"></path><path fill="#000000" d="M 270 105 A 4 4 0 1 1 269.9999980000002 104.99600000066667 Z" class="highcharts-point highcharts-color-0"></path><path fill="#000000" d="M 139 96 A 4 4 0 1 1 138.99999800000018 95.99600000066667 Z" class="highcharts-point highcharts-color-0"></path><path fill="#000000" d="M 9 105 A 4 4 0 1 1 8.999998000000167 104.99600000066667 Z" class="highcharts-point highcharts-color-0"></path><path fill="#000000" d="M 9 105 A 4 4 0 1 1 8.999998000000167 104.99600000066667 Z" class="highcharts-point highcharts-color-0"></path><path fill="#000000" d="M 270 105 A 4 4 0 1 1 269.9999980000002 104.99600000066667 Z" class="highcharts-point highcharts-color-0"></path><path fill="#000000" d="M 139 120 A 4 4 0 1 1 138.99999800000018 119.99600000066667 Z" class="highcharts-point highcharts-color-0"></path><path fill="#000000" d="M 400 105 A 4 4 0 1 1 399.9999980000002 104.99600000066667 Z" class="highcharts-point highcharts-color-0"></path><path fill="#000000" d="M 270 123 A 4 4 0 1 1 269.9999980000002 122.99600000066667 Z" class="highcharts-point highcharts-color-0"></path><path fill="#000000" d="M 270 105 A 4 4 0 1 1 269.9999980000002 104.99600000066667 Z" class="highcharts-point highcharts-color-0"></path><path fill="#000000" d="M 270 105 A 4 4 0 1 1 269.9999980000002 104.99600000066667 Z" class="highcharts-point highcharts-color-0"></path><path fill="#000000" d="M 139 105 A 4 4 0 1 1 138.99999800000018 104.99600000066667 Z" class="highcharts-point highcharts-color-0"></path><path fill="#000000" d="M 139 105 A 4 4 0 1 1 138.99999800000018 104.99600000066667 Z" class="highcharts-point highcharts-color-0"></path><path fill="#000000" d="M 9 110 A 4 4 0 1 1 8.999998000000167 109.99600000066667 Z" class="highcharts-point highcharts-color-0"></path><path fill="#000000" d="M 400 117 A 4 4 0 1 1 399.9999980000002 116.99600000066667 Z" class="highcharts-point highcharts-color-0"></path><path fill="#000000" d="M 400 126 A 4 4 0 1 1 399.9999980000002 125.99600000066667 Z" class="highcharts-point highcharts-color-0"></path><path fill="#000000" d="M 270 121 A 4 4 0 1 1 269.9999980000002 120.99600000066667 Z" class="highcharts-point highcharts-color-0"></path><path fill="#000000" d="M 270 129 A 4 4 0 1 1 269.9999980000002 128.99600000066667 Z" class="highcharts-point highcharts-color-0"></path><path fill="#000000" d="M 400 123 A 4 4 0 1 1 399.9999980000002 122.99600000066667 Z" class="highcharts-point highcharts-color-0"></path><path fill="#000000" d="M 270 105 A 4 4 0 1 1 269.9999980000002 104.99600000066667 Z" class="highcharts-point highcharts-color-0"></path><path fill="#000000" d="M 270 105 A 4 4 0 1 1 269.9999980000002 104.99600000066667 Z" class="highcharts-point highcharts-color-0"></path><path fill="#000000" d="M 139 105 A 4 4 0 1 1 138.99999800000018 104.99600000066667 Z" class="highcharts-point highcharts-color-0"></path><path fill="#000000" d="M 9 114 A 4 4 0 1 1 8.999998000000167 113.99600000066667 Z" class="highcharts-point highcharts-color-0"></path><path fill="#000000" d="M 139 113 A 4 4 0 1 1 138.99999800000018 112.99600000066667 Z" class="highcharts-point highcharts-color-0"></path><path fill="#000000" d="M 139 125 A 4 4 0 1 1 138.99999800000018 124.99600000066667 Z" class="highcharts-point highcharts-color-0"></path><path fill="#000000" d="M 9 111 A 4 4 0 1 1 8.999998000000167 110.99600000066667 Z" class="highcharts-point highcharts-color-0"></path><path fill="#000000" d="M 9 110 A 4 4 0 1 1 8.999998000000167 109.99600000066667 Z" class="highcharts-point highcharts-color-0"></path><path fill="#000000" d="M 270 105 A 4 4 0 1 1 269.9999980000002 104.99600000066667 Z" class="highcharts-point highcharts-color-0"></path><path fill="#000000" d="M 270 105 A 4 4 0 1 1 269.9999980000002 104.99600000066667 Z" class="highcharts-point highcharts-color-0"></path><path fill="#000000" d="M 270 105 A 4 4 0 1 1 269.9999980000002 104.99600000066667 Z" class="highcharts-point highcharts-color-0"></path><path fill="#000000" d="M 9 105 A 4 4 0 1 1 8.999998000000167 104.99600000066667 Z" class="highcharts-point highcharts-color-0"></path><path fill="#000000" d="M 9 105 A 4 4 0 1 1 8.999998000000167 104.99600000066667 Z" class="highcharts-point highcharts-color-0"></path><path fill="#000000" d="M 9 113 A 4 4 0 1 1 8.999998000000167 112.99600000066667 Z" class="highcharts-point highcharts-color-0"></path><path fill="#000000" d="M 9 110 A 4 4 0 1 1 8.999998000000167 109.99600000066667 Z" class="highcharts-point highcharts-color-0"></path><path fill="#000000" d="M 139 114 A 4 4 0 1 1 138.99999800000018 113.99600000066667 Z" class="highcharts-point highcharts-color-0"></path><path fill="#000000" d="M 139 105 A 4 4 0 1 1 138.99999800000018 104.99600000066667 Z" class="highcharts-point highcharts-color-0"></path><path fill="#000000" d="M 139 110 A 4 4 0 1 1 138.99999800000018 109.99600000066667 Z" class="highcharts-point highcharts-color-0"></path><path fill="#000000" d="M 9 105 A 4 4 0 1 1 8.999998000000167 104.99600000066667 Z" class="highcharts-point highcharts-color-0"></path><path fill="#000000" d="M 9 105 A 4 4 0 1 1 8.999998000000167 104.99600000066667 Z" class="highcharts-point highcharts-color-0"></path><path fill="#000000" d="M 9 105 A 4 4 0 1 1 8.999998000000167 104.99600000066667 Z" class="highcharts-point highcharts-color-0"></path><path fill="#000000" d="M 139 110 A 4 4 0 1 1 138.99999800000018 109.99600000066667 Z" class="highcharts-point highcharts-color-0"></path><path fill="#000000" d="M 270 108 A 4 4 0 1 1 269.9999980000002 107.99600000066667 Z" class="highcharts-point highcharts-color-0"></path><path fill="#000000" d="M 9 105 A 4 4 0 1 1 8.999998000000167 104.99600000066667 Z" class="highcharts-point highcharts-color-0"></path><path fill="#000000" d="M 9 105 A 4 4 0 1 1 8.999998000000167 104.99600000066667 Z" class="highcharts-point highcharts-color-0"></path><path fill="#000000" d="M 270 105 A 4 4 0 1 1 269.9999980000002 104.99600000066667 Z" class="highcharts-point highcharts-color-0"></path><path fill="#000000" d="M 270 105 A 4 4 0 1 1 269.9999980000002 104.99600000066667 Z" class="highcharts-point highcharts-color-0"></path><path fill="#000000" d="M 270 105 A 4 4 0 1 1 269.9999980000002 104.99600000066667 Z" class="highcharts-point highcharts-color-0"></path><path fill="#000000" d="M 400 105 A 4 4 0 1 1 399.9999980000002 104.99600000066667 Z" class="highcharts-point highcharts-color-0"></path><path fill="#000000" d="M 400 112 A 4 4 0 1 1 399.9999980000002 111.99600000066667 Z" class="highcharts-point highcharts-color-0"></path><path fill="#000000" d="M 400 105 A 4 4 0 1 1 399.9999980000002 104.99600000066667 Z" class="highcharts-point highcharts-color-0"></path><path fill="#000000" d="M 400 105 A 4 4 0 1 1 399.9999980000002 104.99600000066667 Z" class="highcharts-point highcharts-color-0"></path><path fill="#000000" d="M 270 105 A 4 4 0 1 1 269.9999980000002 104.99600000066667 Z" class="highcharts-point highcharts-color-0"></path><path fill="#000000" d="M 270 113 A 4 4 0 1 1 269.9999980000002 112.99600000066667 Z" class="highcharts-point highcharts-color-0"></path><path fill="#000000" d="M 139 113 A 4 4 0 1 1 138.99999800000018 112.99600000066667 Z" class="highcharts-point highcharts-color-0"></path><path fill="#000000" d="M 270 110 A 4 4 0 1 1 269.9999980000002 109.99600000066667 Z" class="highcharts-point highcharts-color-0"></path><path fill="#000000" d="M 270 113 A 4 4 0 1 1 269.9999980000002 112.99600000066667 Z" class="highcharts-point highcharts-color-0"></path><path fill="#000000" d="M 139 105 A 4 4 0 1 1 138.99999800000018 104.99600000066667 Z" class="highcharts-point highcharts-color-0"></path><path fill="#000000" d="M 400 158 A 4 4 0 1 1 399.9999980000002 157.99600000066667 Z" class="highcharts-point highcharts-color-0"></path><path fill="#000000" d="M 270 105 A 4 4 0 1 1 269.9999980000002 104.99600000066667 Z" class="highcharts-point highcharts-color-0"></path><path fill="#000000" d="M 270 105 A 4 4 0 1 1 269.9999980000002 104.99600000066667 Z" class="highcharts-point highcharts-color-0"></path><path fill="#000000" d="M 270 105 A 4 4 0 1 1 269.9999980000002 104.99600000066667 Z" class="highcharts-point highcharts-color-0"></path><path fill="#000000" d="M 139 105 A 4 4 0 1 1 138.99999800000018 104.99600000066667 Z" class="highcharts-point highcharts-color-0"></path><path fill="#000000" d="M 139 105 A 4 4 0 1 1 138.99999800000018 104.99600000066667 Z" class="highcharts-point highcharts-color-0"></path><path fill="#000000" d="M 139 105 A 4 4 0 1 1 138.99999800000018 104.99600000066667 Z" class="highcharts-point highcharts-color-0"></path><path fill="#000000" d="M 9 105 A 4 4 0 1 1 8.999998000000167 104.99600000066667 Z" class="highcharts-point highcharts-color-0"></path><path fill="#000000" d="M 139 105 A 4 4 0 1 1 138.99999800000018 104.99600000066667 Z" class="highcharts-point highcharts-color-0"></path><path fill="#000000" d="M 270 105 A 4 4 0 1 1 269.9999980000002 104.99600000066667 Z" class="highcharts-point highcharts-color-0"></path><path fill="#000000" d="M 139 105 A 4 4 0 1 1 138.99999800000018 104.99600000066667 Z" class="highcharts-point highcharts-color-0"></path><path fill="#000000" d="M 400 105 A 4 4 0 1 1 399.9999980000002 104.99600000066667 Z" class="highcharts-point highcharts-color-0"></path><path fill="#000000" d="M 270 105 A 4 4 0 1 1 269.9999980000002 104.99600000066667 Z" class="highcharts-point highcharts-color-0"></path><path fill="#000000" d="M 400 123 A 4 4 0 1 1 399.9999980000002 122.99600000066667 Z" class="highcharts-point highcharts-color-0"></path><path fill="#000000" d="M 9 111 A 4 4 0 1 1 8.999998000000167 110.99600000066667 Z" class="highcharts-point highcharts-color-0"></path><path fill="#000000" d="M 139 105 A 4 4 0 1 1 138.99999800000018 104.99600000066667 Z" class="highcharts-point highcharts-color-0"></path><path fill="#000000" d="M 139 127 A 4 4 0 1 1 138.99999800000018 126.99600000066667 Z" class="highcharts-point highcharts-color-0"></path><path fill="#000000" d="M 400 127 A 4 4 0 1 1 399.9999980000002 126.99600000066667 Z" class="highcharts-point highcharts-color-0"></path><path fill="#000000" d="M 9 117 A 4 4 0 1 1 8.999998000000167 116.99600000066667 Z" class="highcharts-point highcharts-color-0"></path><path fill="#000000" d="M 530 143 A 4 4 0 1 1 529.9999980000001 142.99600000066667 Z" class="highcharts-point highcharts-color-0"></path><path fill="#000000" d="M 313 115 A 4 4 0 1 1 312.9999980000002 114.99600000066667 Z" class="highcharts-point highcharts-color-0"></path><path fill="#000000" d="M 52 132 A 4 4 0 1 1 51.99999800000017 131.99600000066667 Z" class="highcharts-point highcharts-color-0"></path><path fill="#000000" d="M 139 115 A 4 4 0 1 1 138.99999800000018 114.99600000066667 Z" class="highcharts-point highcharts-color-0"></path><path fill="#000000" d="M 400 125 A 4 4 0 1 1 399.9999980000002 124.99600000066667 Z" class="highcharts-point highcharts-color-0"></path><path fill="#000000" d="M 270 125 A 4 4 0 1 1 269.9999980000002 124.99600000066667 Z" class="highcharts-point highcharts-color-0"></path><path fill="#000000" d="M 9 105 A 4 4 0 1 1 8.999998000000167 104.99600000066667 Z" class="highcharts-point highcharts-color-0"></path><path fill="#000000" d="M 204 105 A 4 4 0 1 1 203.99999800000018 104.99600000066667 Z" class="highcharts-point highcharts-color-0"></path><path fill="#000000" d="M 9 105 A 4 4 0 1 1 8.999998000000167 104.99600000066667 Z" class="highcharts-point highcharts-color-0"></path><path fill="#000000" d="M 270 123 A 4 4 0 1 1 269.9999980000002 122.99600000066667 Z" class="highcharts-point highcharts-color-0"></path><path fill="#000000" d="M 270 123 A 4 4 0 1 1 269.9999980000002 122.99600000066667 Z" class="highcharts-point highcharts-color-0"></path><path fill="#000000" d="M 9 132 A 4 4 0 1 1 8.999998000000167 131.99600000066667 Z" class="highcharts-point highcharts-color-0"></path><path fill="#000000" d="M 74 114 A 4 4 0 1 1 73.99999800000016 113.99600000066667 Z" class="highcharts-point highcharts-color-0"></path><path fill="#000000" d="M 9 111 A 4 4 0 1 1 8.999998000000167 110.99600000066667 Z" class="highcharts-point highcharts-color-0"></path><path fill="#000000" d="M 74 116 A 4 4 0 1 1 73.99999800000016 115.99600000066667 Z" class="highcharts-point highcharts-color-0"></path><path fill="#000000" d="M 400 105 A 4 4 0 1 1 399.9999980000002 104.99600000066667 Z" class="highcharts-point highcharts-color-0"></path><path fill="#000000" d="M 9 105 A 4 4 0 1 1 8.999998000000167 104.99600000066667 Z" class="highcharts-point highcharts-color-0"></path><path fill="#000000" d="M 9 105 A 4 4 0 1 1 8.999998000000167 104.99600000066667 Z" class="highcharts-point highcharts-color-0"></path><path fill="#000000" d="M 9 105 A 4 4 0 1 1 8.999998000000167 104.99600000066667 Z" class="highcharts-point highcharts-color-0"></path><path fill="#000000" d="M 74 105 A 4 4 0 1 1 73.99999800000016 104.99600000066667 Z" class="highcharts-point highcharts-color-0"></path><path fill="#000000" d="M 9 105 A 4 4 0 1 1 8.999998000000167 104.99600000066667 Z" class="highcharts-point highcharts-color-0"></path><path fill="#000000" d="M 9 105 A 4 4 0 1 1 8.999998000000167 104.99600000066667 Z" class="highcharts-point highcharts-color-0"></path><path fill="#000000" d="M 9 105 A 4 4 0 1 1 8.999998000000167 104.99600000066667 Z" class="highcharts-point highcharts-color-0"></path><path fill="#000000" d="M 9 105 A 4 4 0 1 1 8.999998000000167 104.99600000066667 Z" class="highcharts-point highcharts-color-0"></path><path fill="#000000" d="M 9 105 A 4 4 0 1 1 8.999998000000167 104.99600000066667 Z" class="highcharts-point highcharts-color-0"></path><path fill="#000000" d="M 270 105 A 4 4 0 1 1 269.9999980000002 104.99600000066667 Z" class="highcharts-point highcharts-color-0"></path><path fill="#000000" d="M 400 105 A 4 4 0 1 1 399.9999980000002 104.99600000066667 Z" class="highcharts-point highcharts-color-0"></path><path fill="#000000" d="M 139 105 A 4 4 0 1 1 138.99999800000018 104.99600000066667 Z" class="highcharts-point highcharts-color-0"></path><path fill="#000000" d="M 400 105 A 4 4 0 1 1 399.9999980000002 104.99600000066667 Z" class="highcharts-point highcharts-color-0"></path><path fill="#000000" d="M 139 132 A 4 4 0 1 1 138.99999800000018 131.99600000066667 Z" class="highcharts-point highcharts-color-0"></path><path fill="#000000" d="M 139 132 A 4 4 0 1 1 138.99999800000018 131.99600000066667 Z" class="highcharts-point highcharts-color-0"></path><path fill="#000000" d="M 139 116 A 4 4 0 1 1 138.99999800000018 115.99600000066667 Z" class="highcharts-point highcharts-color-0"></path><path fill="#000000" d="M 139 132 A 4 4 0 1 1 138.99999800000018 131.99600000066667 Z" class="highcharts-point highcharts-color-0"></path><path fill="#000000" d="M 139 108 A 4 4 0 1 1 138.99999800000018 107.99600000066667 Z" class="highcharts-point highcharts-color-0"></path><path fill="#000000" d="M 270 105 A 4 4 0 1 1 269.9999980000002 104.99600000066667 Z" class="highcharts-point highcharts-color-0"></path><path fill="#000000" d="M 139 105 A 4 4 0 1 1 138.99999800000018 104.99600000066667 Z" class="highcharts-point highcharts-color-0"></path><path fill="#000000" d="M 139 92 A 4 4 0 1 1 138.99999800000018 91.99600000066667 Z" class="highcharts-point highcharts-color-0"></path><path fill="#000000" d="M 139 105 A 4 4 0 1 1 138.99999800000018 104.99600000066667 Z" class="highcharts-point highcharts-color-0"></path><path fill="#000000" d="M 270 79 A 4 4 0 1 1 269.9999980000002 78.99600000066667 Z" class="highcharts-point highcharts-color-0"></path><path fill="#000000" d="M 270 105 A 4 4 0 1 1 269.9999980000002 104.99600000066667 Z" class="highcharts-point highcharts-color-0"></path><path fill="#000000" d="M 270 105 A 4 4 0 1 1 269.9999980000002 104.99600000066667 Z" class="highcharts-point highcharts-color-0"></path><path fill="#000000" d="M 270 105 A 4 4 0 1 1 269.9999980000002 104.99600000066667 Z" class="highcharts-point highcharts-color-0"></path><path fill="#000000" d="M 270 105 A 4 4 0 1 1 269.9999980000002 104.99600000066667 Z" class="highcharts-point highcharts-color-0"></path><path fill="#000000" d="M 270 105 A 4 4 0 1 1 269.9999980000002 104.99600000066667 Z" class="highcharts-point highcharts-color-0"></path><path fill="#000000" d="M 270 111 A 4 4 0 1 1 269.9999980000002 110.99600000066667 Z" class="highcharts-point highcharts-color-0"></path><path fill="#000000" d="M 270 105 A 4 4 0 1 1 269.9999980000002 104.99600000066667 Z" class="highcharts-point highcharts-color-0"></path><path fill="#000000" d="M 270 105 A 4 4 0 1 1 269.9999980000002 104.99600000066667 Z" class="highcharts-point highcharts-color-0"></path><path fill="#000000" d="M 270 105 A 4 4 0 1 1 269.9999980000002 104.99600000066667 Z" class="highcharts-point highcharts-color-0"></path><path fill="#000000" d="M 204 105 A 4 4 0 1 1 203.99999800000018 104.99600000066667 Z" class="highcharts-point highcharts-color-0"></path><path fill="#000000" d="M 270 112 A 4 4 0 1 1 269.9999980000002 111.99600000066667 Z" class="highcharts-point highcharts-color-0"></path><path fill="#000000" d="M 270 105 A 4 4 0 1 1 269.9999980000002 104.99600000066667 Z" class="highcharts-point highcharts-color-0"></path><path fill="#000000" d="M 335 113 A 4 4 0 1 1 334.9999980000002 112.99600000066667 Z" class="highcharts-point highcharts-color-0"></path><path fill="#000000" d="M 400 110 A 4 4 0 1 1 399.9999980000002 109.99600000066667 Z" class="highcharts-point highcharts-color-0"></path><path fill="#000000" d="M 400 105 A 4 4 0 1 1 399.9999980000002 104.99600000066667 Z" class="highcharts-point highcharts-color-0"></path><path fill="#000000" d="M 139 105 A 4 4 0 1 1 138.99999800000018 104.99600000066667 Z" class="highcharts-point highcharts-color-0"></path><path fill="#000000" d="M 139 105 A 4 4 0 1 1 138.99999800000018 104.99600000066667 Z" class="highcharts-point highcharts-color-0"></path><path fill="#000000" d="M 9 105 A 4 4 0 1 1 8.999998000000167 104.99600000066667 Z" class="highcharts-point highcharts-color-0"></path><path fill="#000000" d="M 270 140 A 4 4 0 1 1 269.9999980000002 139.99600000066667 Z" class="highcharts-point highcharts-color-0"></path><path fill="#000000" d="M 270 128 A 4 4 0 1 1 269.9999980000002 127.99600000066667 Z" class="highcharts-point highcharts-color-0"></path><path fill="#000000" d="M 335 149 A 4 4 0 1 1 334.9999980000002 148.99600000066667 Z" class="highcharts-point highcharts-color-0"></path><path fill="#000000" d="M 335 105 A 4 4 0 1 1 334.9999980000002 104.99600000066667 Z" class="highcharts-point highcharts-color-0"></path><path fill="#000000" d="M 139 105 A 4 4 0 1 1 138.99999800000018 104.99600000066667 Z" class="highcharts-point highcharts-color-0"></path><path fill="#000000" d="M 139 105 A 4 4 0 1 1 138.99999800000018 104.99600000066667 Z" class="highcharts-point highcharts-color-0"></path><path fill="#000000" d="M 74 105 A 4 4 0 1 1 73.99999800000016 104.99600000066667 Z" class="highcharts-point highcharts-color-0"></path><path fill="#000000" d="M 139 105 A 4 4 0 1 1 138.99999800000018 104.99600000066667 Z" class="highcharts-point highcharts-color-0"></path><path fill="#000000" d="M 270 105 A 4 4 0 1 1 269.9999980000002 104.99600000066667 Z" class="highcharts-point highcharts-color-0"></path><path fill="#000000" d="M 139 105 A 4 4 0 1 1 138.99999800000018 104.99600000066667 Z" class="highcharts-point highcharts-color-0"></path><path fill="#000000" d="M 139 105 A 4 4 0 1 1 138.99999800000018 104.99600000066667 Z" class="highcharts-point highcharts-color-0"></path><path fill="#000000" d="M 9 105 A 4 4 0 1 1 8.999998000000167 104.99600000066667 Z" class="highcharts-point highcharts-color-0"></path><path fill="#000000" d="M 139 105 A 4 4 0 1 1 138.99999800000018 104.99600000066667 Z" class="highcharts-point highcharts-color-0"></path><path fill="#000000" d="M 270 105 A 4 4 0 1 1 269.9999980000002 104.99600000066667 Z" class="highcharts-point highcharts-color-0"></path><path fill="#000000" d="M 9 105 A 4 4 0 1 1 8.999998000000167 104.99600000066667 Z" class="highcharts-point highcharts-color-0"></path><path fill="#000000" d="M 270 113 A 4 4 0 1 1 269.9999980000002 112.99600000066667 Z" class="highcharts-point highcharts-color-0"></path><path fill="#000000" d="M 400 113 A 4 4 0 1 1 399.9999980000002 112.99600000066667 Z" class="highcharts-point highcharts-color-0"></path><path fill="#000000" d="M 9 116 A 4 4 0 1 1 8.999998000000167 115.99600000066667 Z" class="highcharts-point highcharts-color-0"></path><path fill="#000000" d="M 9 105 A 4 4 0 1 1 8.999998000000167 104.99600000066667 Z" class="highcharts-point highcharts-color-0"></path><path fill="#000000" d="M 270 105 A 4 4 0 1 1 269.9999980000002 104.99600000066667 Z" class="highcharts-point highcharts-color-0"></path><path fill="#000000" d="M 204 105 A 4 4 0 1 1 203.99999800000018 104.99600000066667 Z" class="highcharts-point highcharts-color-0"></path><path fill="#000000" d="M 270 105 A 4 4 0 1 1 269.9999980000002 104.99600000066667 Z" class="highcharts-point highcharts-color-0"></path><path fill="#000000" d="M 139 105 A 4 4 0 1 1 138.99999800000018 104.99600000066667 Z" class="highcharts-point highcharts-color-0"></path><path fill="#000000" d="M 356 105 A 4 4 0 1 1 355.9999980000002 104.99600000066667 Z" class="highcharts-point highcharts-color-0"></path><path fill="#000000" d="M 465 110 A 4 4 0 1 1 464.9999980000002 109.99600000066667 Z" class="highcharts-point highcharts-color-0"></path><path fill="#000000" d="M 214 105 A 4 4 0 1 1 213.99999800000018 104.99600000066667 Z" class="highcharts-point highcharts-color-0"></path><path fill="#000000" d="M 127 112 A 4 4 0 1 1 126.99999800000016 111.99600000066667 Z" class="highcharts-point highcharts-color-0"></path><path fill="#000000" d="M 285 128 A 4 4 0 1 1 284.9999980000002 127.99600000066667 Z" class="highcharts-point highcharts-color-0"></path><path fill="#000000" d="M 262 105 A 4 4 0 1 1 261.9999980000002 104.99600000066667 Z" class="highcharts-point highcharts-color-0"></path><path fill="#000000" d="M 254 114 A 4 4 0 1 1 253.99999800000018 113.99600000066667 Z" class="highcharts-point highcharts-color-0"></path><path fill="#000000" d="M 204 124 A 4 4 0 1 1 203.99999800000018 123.99600000066667 Z" class="highcharts-point highcharts-color-0"></path><path fill="#000000" d="M 356 121 A 4 4 0 1 1 355.9999980000002 120.99600000066667 Z" class="highcharts-point highcharts-color-0"></path><path fill="#000000" d="M 237 125 A 4 4 0 1 1 236.99999800000018 124.99600000066667 Z" class="highcharts-point highcharts-color-0"></path><path fill="#000000" d="M 284 105 A 4 4 0 1 1 283.9999980000002 104.99600000066667 Z" class="highcharts-point highcharts-color-0"></path><path fill="#000000" d="M 251 110 A 4 4 0 1 1 250.99999800000018 109.99600000066667 Z" class="highcharts-point highcharts-color-0"></path><path fill="#000000" d="M 255 105 A 4 4 0 1 1 254.99999800000018 104.99600000066667 Z" class="highcharts-point highcharts-color-0"></path><path fill="#000000" d="M 237 105 A 4 4 0 1 1 236.99999800000018 104.99600000066667 Z" class="highcharts-point highcharts-color-0"></path><path fill="#000000" d="M 154 108 A 4 4 0 1 1 153.99999800000018 107.99600000066667 Z" class="highcharts-point highcharts-color-0"></path><path fill="#000000" d="M 139 105 A 4 4 0 1 1 138.99999800000018 104.99600000066667 Z" class="highcharts-point highcharts-color-0"></path><path fill="#000000" d="M 74 109 A 4 4 0 1 1 73.99999800000016 108.99600000066667 Z" class="highcharts-point highcharts-color-0"></path><path fill="#000000" d="M 204 105 A 4 4 0 1 1 203.99999800000018 104.99600000066667 Z" class="highcharts-point highcharts-color-0"></path><path fill="#000000" d="M 139 105 A 4 4 0 1 1 138.99999800000018 104.99600000066667 Z" class="highcharts-point highcharts-color-0"></path><path fill="#000000" d="M 270 105 A 4 4 0 1 1 269.9999980000002 104.99600000066667 Z" class="highcharts-point highcharts-color-0"></path><path fill="#000000" d="M 139 105 A 4 4 0 1 1 138.99999800000018 104.99600000066667 Z" class="highcharts-point highcharts-color-0"></path><path fill="#000000" d="M 139 105 A 4 4 0 1 1 138.99999800000018 104.99600000066667 Z" class="highcharts-point highcharts-color-0"></path><path fill="#000000" d="M 74 111 A 4 4 0 1 1 73.99999800000016 110.99600000066667 Z" class="highcharts-point highcharts-color-0"></path><path fill="#000000" d="M 74 105 A 4 4 0 1 1 73.99999800000016 104.99600000066667 Z" class="highcharts-point highcharts-color-0"></path><path fill="#000000" d="M 204 105 A 4 4 0 1 1 203.99999800000018 104.99600000066667 Z" class="highcharts-point highcharts-color-0"></path><path fill="#000000" d="M 74 105 A 4 4 0 1 1 73.99999800000016 104.99600000066667 Z" class="highcharts-point highcharts-color-0"></path><path fill="#000000" d="M 139 105 A 4 4 0 1 1 138.99999800000018 104.99600000066667 Z" class="highcharts-point highcharts-color-0"></path><path fill="#000000" d="M 9 105 A 4 4 0 1 1 8.999998000000167 104.99600000066667 Z" class="highcharts-point highcharts-color-0"></path><path fill="#000000" d="M 139 105 A 4 4 0 1 1 138.99999800000018 104.99600000066667 Z" class="highcharts-point highcharts-color-0"></path><path fill="#000000" d="M 204 105 A 4 4 0 1 1 203.99999800000018 104.99600000066667 Z" class="highcharts-point highcharts-color-0"></path><path fill="#000000" d="M 204 96 A 4 4 0 1 1 203.99999800000018 95.99600000066667 Z" class="highcharts-point highcharts-color-0"></path><path fill="#000000" d="M 335 105 A 4 4 0 1 1 334.9999980000002 104.99600000066667 Z" class="highcharts-point highcharts-color-0"></path><path fill="#000000" d="M 335 129 A 4 4 0 1 1 334.9999980000002 128.99600000066667 Z" class="highcharts-point highcharts-color-0"></path><path fill="#000000" d="M 139 125 A 4 4 0 1 1 138.99999800000018 124.99600000066667 Z" class="highcharts-point highcharts-color-0"></path><path fill="#000000" d="M 530 125 A 4 4 0 1 1 529.9999980000001 124.99600000066667 Z" class="highcharts-point highcharts-color-0"></path><path fill="#000000" d="M 204 105 A 4 4 0 1 1 203.99999800000018 104.99600000066667 Z" class="highcharts-point highcharts-color-0"></path><path fill="#000000" d="M 270 105 A 4 4 0 1 1 269.9999980000002 104.99600000066667 Z" class="highcharts-point highcharts-color-0"></path><path fill="#000000" d="M 139 116 A 4 4 0 1 1 138.99999800000018 115.99600000066667 Z" class="highcharts-point highcharts-color-0"></path><path fill="#000000" d="M 139 105 A 4 4 0 1 1 138.99999800000018 104.99600000066667 Z" class="highcharts-point highcharts-color-0"></path><path fill="#000000" d="M 204 105 A 4 4 0 1 1 203.99999800000018 104.99600000066667 Z" class="highcharts-point highcharts-color-0"></path><path fill="#000000" d="M 139 115 A 4 4 0 1 1 138.99999800000018 114.99600000066667 Z" class="highcharts-point highcharts-color-0"></path><path fill="#000000" d="M 270 105 A 4 4 0 1 1 269.9999980000002 104.99600000066667 Z" class="highcharts-point highcharts-color-0"></path><path fill="#000000" d="M 270 105 A 4 4 0 1 1 269.9999980000002 104.99600000066667 Z" class="highcharts-point highcharts-color-0"></path><path fill="#000000" d="M 270 137 A 4 4 0 1 1 269.9999980000002 136.99600000066667 Z" class="highcharts-point highcharts-color-0"></path><path fill="#000000" d="M 400 137 A 4 4 0 1 1 399.9999980000002 136.99600000066667 Z" class="highcharts-point highcharts-color-0"></path><path fill="#000000" d="M 400 158 A 4 4 0 1 1 399.9999980000002 157.99600000066667 Z" class="highcharts-point highcharts-color-0"></path><path fill="#000000" d="M 400 158 A 4 4 0 1 1 399.9999980000002 157.99600000066667 Z" class="highcharts-point highcharts-color-0"></path><path fill="#000000" d="M 335 132 A 4 4 0 1 1 334.9999980000002 131.99600000066667 Z" class="highcharts-point highcharts-color-0"></path><path fill="#000000" d="M 270 105 A 4 4 0 1 1 269.9999980000002 104.99600000066667 Z" class="highcharts-point highcharts-color-0"></path><path fill="#000000" d="M 139 114 A 4 4 0 1 1 138.99999800000018 113.99600000066667 Z" class="highcharts-point highcharts-color-0"></path><path fill="#000000" d="M 9 105 A 4 4 0 1 1 8.999998000000167 104.99600000066667 Z" class="highcharts-point highcharts-color-0"></path><path fill="#000000" d="M 139 105 A 4 4 0 1 1 138.99999800000018 104.99600000066667 Z" class="highcharts-point highcharts-color-0"></path><path fill="#000000" d="M 165 105 A 4 4 0 1 1 164.99999800000018 104.99600000066667 Z" class="highcharts-point highcharts-color-0"></path><path fill="#000000" d="M 139 126 A 4 4 0 1 1 138.99999800000018 125.99600000066667 Z" class="highcharts-point highcharts-color-0"></path><path fill="#000000" d="M 9 105 A 4 4 0 1 1 8.999998000000167 104.99600000066667 Z" class="highcharts-point highcharts-color-0"></path><path fill="#000000" d="M 226 105 A 4 4 0 1 1 225.99999800000018 104.99600000066667 Z" class="highcharts-point highcharts-color-0"></path><path fill="#000000" d="M 139 66 A 4 4 0 1 1 138.99999800000018 65.99600000066667 Z" class="highcharts-point highcharts-color-0"></path><path fill="#000000" d="M 270 84 A 4 4 0 1 1 269.9999980000002 83.99600000066667 Z" class="highcharts-point highcharts-color-0"></path><path fill="#000000" d="M 9 84 A 4 4 0 1 1 8.999998000000167 83.99600000066667 Z" class="highcharts-point highcharts-color-0"></path><path fill="#000000" d="M 139 105 A 4 4 0 1 1 138.99999800000018 104.99600000066667 Z" class="highcharts-point highcharts-color-0"></path><path fill="#000000" d="M 204 105 A 4 4 0 1 1 203.99999800000018 104.99600000066667 Z" class="highcharts-point highcharts-color-0"></path><path fill="#000000" d="M 400 105 A 4 4 0 1 1 399.9999980000002 104.99600000066667 Z" class="highcharts-point highcharts-color-0"></path><path fill="#000000" d="M 226 105 A 4 4 0 1 1 225.99999800000018 104.99600000066667 Z" class="highcharts-point highcharts-color-0"></path><path fill="#000000" d="M 9 210 A 4 4 0 1 1 8.999998000000167 209.99600000066667 Z" class="highcharts-point highcharts-color-0"></path><path fill="#000000" d="M 9 73 A 4 4 0 1 1 8.999998000000167 72.99600000066667 Z" class="highcharts-point highcharts-color-0"></path><path fill="#000000" d="M 400 105 A 4 4 0 1 1 399.9999980000002 104.99600000066667 Z" class="highcharts-point highcharts-color-0"></path><path fill="#000000" d="M 270 53 A 4 4 0 1 1 269.9999980000002 52.99600000066666 Z" class="highcharts-point highcharts-color-0"></path><path fill="#000000" d="M 74 105 A 4 4 0 1 1 73.99999800000016 104.99600000066667 Z" class="highcharts-point highcharts-color-0"></path><path fill="#000000" d="M 9 105 A 4 4 0 1 1 8.999998000000167 104.99600000066667 Z" class="highcharts-point highcharts-color-0"></path><path fill="#000000" d="M 270 105 A 4 4 0 1 1 269.9999980000002 104.99600000066667 Z" class="highcharts-point highcharts-color-0"></path><path fill="#000000" d="M 335 105 A 4 4 0 1 1 334.9999980000002 104.99600000066667 Z" class="highcharts-point highcharts-color-0"></path><path fill="#000000" d="M 530 105 A 4 4 0 1 1 529.9999980000001 104.99600000066667 Z" class="highcharts-point highcharts-color-0"></path><path fill="#000000" d="M 270 158 A 4 4 0 1 1 269.9999980000002 157.99600000066667 Z" class="highcharts-point highcharts-color-0"></path><path fill="#000000" d="M 139 105 A 4 4 0 1 1 138.99999800000018 104.99600000066667 Z" class="highcharts-point highcharts-color-0"></path><path fill="#000000" d="M 9 158 A 4 4 0 1 1 8.999998000000167 157.99600000066667 Z" class="highcharts-point highcharts-color-0"></path><path fill="#000000" d="M 96 105 A 4 4 0 1 1 95.99999800000016 104.99600000066667 Z" class="highcharts-point highcharts-color-0"></path><path fill="#000000" d="M 400 109 A 4 4 0 1 1 399.9999980000002 108.99600000066667 Z" class="highcharts-point highcharts-color-0"></path><path fill="#000000" d="M 270 109 A 4 4 0 1 1 269.9999980000002 108.99600000066667 Z" class="highcharts-point highcharts-color-0"></path><path fill="#000000" d="M 400 105 A 4 4 0 1 1 399.9999980000002 104.99600000066667 Z" class="highcharts-point highcharts-color-0"></path><path fill="#000000" d="M 400 139 A 4 4 0 1 1 399.9999980000002 138.99600000066667 Z" class="highcharts-point highcharts-color-0"></path><path fill="#000000" d="M 270 105 A 4 4 0 1 1 269.9999980000002 104.99600000066667 Z" class="highcharts-point highcharts-color-0"></path><path fill="#000000" d="M 204 105 A 4 4 0 1 1 203.99999800000018 104.99600000066667 Z" class="highcharts-point highcharts-color-0"></path><path fill="#000000" d="M 9 105 A 4 4 0 1 1 8.999998000000167 104.99600000066667 Z" class="highcharts-point highcharts-color-0"></path><path fill="#000000" d="M 74 105 A 4 4 0 1 1 73.99999800000016 104.99600000066667 Z" class="highcharts-point highcharts-color-0"></path><path fill="#000000" d="M 139 105 A 4 4 0 1 1 138.99999800000018 104.99600000066667 Z" class="highcharts-point highcharts-color-0"></path><path fill="#000000" d="M 113 105 A 4 4 0 1 1 112.99999800000016 104.99600000066667 Z" class="highcharts-point highcharts-color-0"></path><path fill="#000000" d="M 139 105 A 4 4 0 1 1 138.99999800000018 104.99600000066667 Z" class="highcharts-point highcharts-color-0"></path><path fill="#000000" d="M 400 105 A 4 4 0 1 1 399.9999980000002 104.99600000066667 Z" class="highcharts-point highcharts-color-0"></path><path fill="#000000" d="M 139 105 A 4 4 0 1 1 138.99999800000018 104.99600000066667 Z" class="highcharts-point highcharts-color-0"></path><path fill="#000000" d="M 400 105 A 4 4 0 1 1 399.9999980000002 104.99600000066667 Z" class="highcharts-point highcharts-color-0"></path><path fill="#000000" d="M 139 105 A 4 4 0 1 1 138.99999800000018 104.99600000066667 Z" class="highcharts-point highcharts-color-0"></path><path fill="#000000" d="M 270 123 A 4 4 0 1 1 269.9999980000002 122.99600000066667 Z" class="highcharts-point highcharts-color-0"></path><path fill="#000000" d="M 204 123 A 4 4 0 1 1 203.99999800000018 122.99600000066667 Z" class="highcharts-point highcharts-color-0"></path><path fill="#000000" d="M 400 105 A 4 4 0 1 1 399.9999980000002 104.99600000066667 Z" class="highcharts-point highcharts-color-0"></path><path fill="#000000" d="M 139 116 A 4 4 0 1 1 138.99999800000018 115.99600000066667 Z" class="highcharts-point highcharts-color-0"></path><path fill="#000000" d="M 139 126 A 4 4 0 1 1 138.99999800000018 125.99600000066667 Z" class="highcharts-point highcharts-color-0"></path><path fill="#000000" d="M 400 132 A 4 4 0 1 1 399.9999980000002 131.99600000066667 Z" class="highcharts-point highcharts-color-0"></path><path fill="#000000" d="M 9 116 A 4 4 0 1 1 8.999998000000167 115.99600000066667 Z" class="highcharts-point highcharts-color-0"></path><path fill="#000000" d="M 335 116 A 4 4 0 1 1 334.9999980000002 115.99600000066667 Z" class="highcharts-point highcharts-color-0"></path><path fill="#000000" d="M 139 105 A 4 4 0 1 1 138.99999800000018 104.99600000066667 Z" class="highcharts-point highcharts-color-0"></path><path fill="#000000" d="M 74 105 A 4 4 0 1 1 73.99999800000016 104.99600000066667 Z" class="highcharts-point highcharts-color-0"></path><path fill="#000000" d="M 139 105 A 4 4 0 1 1 138.99999800000018 104.99600000066667 Z" class="highcharts-point highcharts-color-0"></path><path fill="#000000" d="M 139 105 A 4 4 0 1 1 138.99999800000018 104.99600000066667 Z" class="highcharts-point highcharts-color-0"></path><path fill="#000000" d="M 204 105 A 4 4 0 1 1 203.99999800000018 104.99600000066667 Z" class="highcharts-point highcharts-color-0"></path><path fill="#000000" d="M 400 105 A 4 4 0 1 1 399.9999980000002 104.99600000066667 Z" class="highcharts-point highcharts-color-0"></path><path fill="#000000" d="M 139 105 A 4 4 0 1 1 138.99999800000018 104.99600000066667 Z" class="highcharts-point highcharts-color-0"></path><path fill="#000000" d="M 226 105 A 4 4 0 1 1 225.99999800000018 104.99600000066667 Z" class="highcharts-point highcharts-color-0"></path><path fill="#000000" d="M 139 105 A 4 4 0 1 1 138.99999800000018 104.99600000066667 Z" class="highcharts-point highcharts-color-0"></path><path fill="#000000" d="M 204 105 A 4 4 0 1 1 203.99999800000018 104.99600000066667 Z" class="highcharts-point highcharts-color-0"></path><path fill="#000000" d="M 96 105 A 4 4 0 1 1 95.99999800000016 104.99600000066667 Z" class="highcharts-point highcharts-color-0"></path><path fill="#000000" d="M 270 105 A 4 4 0 1 1 269.9999980000002 104.99600000066667 Z" class="highcharts-point highcharts-color-0"></path><path fill="#000000" d="M 139 95 A 4 4 0 1 1 138.99999800000018 94.99600000066667 Z" class="highcharts-point highcharts-color-0"></path><path fill="#000000" d="M 139 105 A 4 4 0 1 1 138.99999800000018 104.99600000066667 Z" class="highcharts-point highcharts-color-0"></path><path fill="#000000" d="M 248 114 A 4 4 0 1 1 247.99999800000018 113.99600000066667 Z" class="highcharts-point highcharts-color-0"></path><path fill="#000000" d="M 356 105 A 4 4 0 1 1 355.9999980000002 104.99600000066667 Z" class="highcharts-point highcharts-color-0"></path><path fill="#000000" d="M 400 145 A 4 4 0 1 1 399.9999980000002 144.99600000066667 Z" class="highcharts-point highcharts-color-0"></path><path fill="#000000" d="M 400 140 A 4 4 0 1 1 399.9999980000002 139.99600000066667 Z" class="highcharts-point highcharts-color-0"></path><path fill="#000000" d="M 270 126 A 4 4 0 1 1 269.9999980000002 125.99600000066667 Z" class="highcharts-point highcharts-color-0"></path><path fill="#000000" d="M 400 105 A 4 4 0 1 1 399.9999980000002 104.99600000066667 Z" class="highcharts-point highcharts-color-0"></path><path fill="#000000" d="M 270 118 A 4 4 0 1 1 269.9999980000002 117.99600000066667 Z" class="highcharts-point highcharts-color-0"></path><path fill="#000000" d="M 313 158 A 4 4 0 1 1 312.9999980000002 157.99600000066667 Z" class="highcharts-point highcharts-color-0"></path><path fill="#000000" d="M 400 158 A 4 4 0 1 1 399.9999980000002 157.99600000066667 Z" class="highcharts-point highcharts-color-0"></path><path fill="#000000" d="M 400 132 A 4 4 0 1 1 399.9999980000002 131.99600000066667 Z" class="highcharts-point highcharts-color-0"></path><path fill="#000000" d="M 400 158 A 4 4 0 1 1 399.9999980000002 157.99600000066667 Z" class="highcharts-point highcharts-color-0"></path><path fill="#000000" d="M 204 158 A 4 4 0 1 1 203.99999800000018 157.99600000066667 Z" class="highcharts-point highcharts-color-0"></path><path fill="#000000" d="M 204 132 A 4 4 0 1 1 203.99999800000018 131.99600000066667 Z" class="highcharts-point highcharts-color-0"></path><path fill="#000000" d="M 335 145 A 4 4 0 1 1 334.9999980000002 144.99600000066667 Z" class="highcharts-point highcharts-color-0"></path><path fill="#000000" d="M 313 158 A 4 4 0 1 1 312.9999980000002 157.99600000066667 Z" class="highcharts-point highcharts-color-0"></path><path fill="#000000" d="M 335 140 A 4 4 0 1 1 334.9999980000002 139.99600000066667 Z" class="highcharts-point highcharts-color-0"></path><path fill="#000000" d="M 270 158 A 4 4 0 1 1 269.9999980000002 157.99600000066667 Z" class="highcharts-point highcharts-color-0"></path><path fill="#000000" d="M 400 158 A 4 4 0 1 1 399.9999980000002 157.99600000066667 Z" class="highcharts-point highcharts-color-0"></path><path fill="#000000" d="M 400 158 A 4 4 0 1 1 399.9999980000002 157.99600000066667 Z" class="highcharts-point highcharts-color-0"></path><path fill="#000000" d="M 400 155 A 4 4 0 1 1 399.9999980000002 154.99600000066667 Z" class="highcharts-point highcharts-color-0"></path><path fill="#000000" d="M 270 105 A 4 4 0 1 1 269.9999980000002 104.99600000066667 Z" class="highcharts-point highcharts-color-0"></path><path fill="#000000" d="M 139 123 A 4 4 0 1 1 138.99999800000018 122.99600000066667 Z" class="highcharts-point highcharts-color-0"></path><path fill="#000000" d="M 270 158 A 4 4 0 1 1 269.9999980000002 157.99600000066667 Z" class="highcharts-point highcharts-color-0"></path><path fill="#000000" d="M 270 123 A 4 4 0 1 1 269.9999980000002 122.99600000066667 Z" class="highcharts-point highcharts-color-0"></path><path fill="#000000" d="M 139 70 A 4 4 0 1 1 138.99999800000018 69.99600000066667 Z" class="highcharts-point highcharts-color-0"></path><path fill="#000000" d="M 139 88 A 4 4 0 1 1 138.99999800000018 87.99600000066667 Z" class="highcharts-point highcharts-color-0"></path><path fill="#000000" d="M 74 88 A 4 4 0 1 1 73.99999800000016 87.99600000066667 Z" class="highcharts-point highcharts-color-0"></path><path fill="#000000" d="M 139 109 A 4 4 0 1 1 138.99999800000018 108.99600000066667 Z" class="highcharts-point highcharts-color-0"></path><path fill="#000000" d="M 335 105 A 4 4 0 1 1 334.9999980000002 104.99600000066667 Z" class="highcharts-point highcharts-color-0"></path><path fill="#000000" d="M 9 90 A 4 4 0 1 1 8.999998000000167 89.99600000066667 Z" class="highcharts-point highcharts-color-0"></path><path fill="#000000" d="M 204 82 A 4 4 0 1 1 203.99999800000018 81.99600000066667 Z" class="highcharts-point highcharts-color-0"></path><path fill="#000000" d="M 139 105 A 4 4 0 1 1 138.99999800000018 104.99600000066667 Z" class="highcharts-point highcharts-color-0"></path><path fill="#000000" d="M 204 105 A 4 4 0 1 1 203.99999800000018 104.99600000066667 Z" class="highcharts-point highcharts-color-0"></path><path fill="#000000" d="M 165 105 A 4 4 0 1 1 164.99999800000018 104.99600000066667 Z" class="highcharts-point highcharts-color-0"></path><path fill="#000000" d="M 335 105 A 4 4 0 1 1 334.9999980000002 104.99600000066667 Z" class="highcharts-point highcharts-color-0"></path><path fill="#000000" d="M 270 92 A 4 4 0 1 1 269.9999980000002 91.99600000066667 Z" class="highcharts-point highcharts-color-0"></path><path fill="#000000" d="M 270 132 A 4 4 0 1 1 269.9999980000002 131.99600000066667 Z" class="highcharts-point highcharts-color-0"></path><path fill="#000000" d="M 96 132 A 4 4 0 1 1 95.99999800000016 131.99600000066667 Z" class="highcharts-point highcharts-color-0"></path><path fill="#000000" d="M 400 105 A 4 4 0 1 1 399.9999980000002 104.99600000066667 Z" class="highcharts-point highcharts-color-0"></path><path fill="#000000" d="M 74 105 A 4 4 0 1 1 73.99999800000016 104.99600000066667 Z" class="highcharts-point highcharts-color-0"></path><path fill="#000000" d="M 183 105 A 4 4 0 1 1 182.99999800000018 104.99600000066667 Z" class="highcharts-point highcharts-color-0"></path><path fill="#000000" d="M 270 105 A 4 4 0 1 1 269.9999980000002 104.99600000066667 Z" class="highcharts-point highcharts-color-0"></path><path fill="#000000" d="M 165 105 A 4 4 0 1 1 164.99999800000018 104.99600000066667 Z" class="highcharts-point highcharts-color-0"></path><path fill="#000000" d="M 400 105 A 4 4 0 1 1 399.9999980000002 104.99600000066667 Z" class="highcharts-point highcharts-color-0"></path><path fill="#000000" d="M 270 126 A 4 4 0 1 1 269.9999980000002 125.99600000066667 Z" class="highcharts-point highcharts-color-0"></path><path fill="#000000" d="M 204 105 A 4 4 0 1 1 203.99999800000018 104.99600000066667 Z" class="highcharts-point highcharts-color-0"></path><path fill="#000000" d="M 270 105 A 4 4 0 1 1 269.9999980000002 104.99600000066667 Z" class="highcharts-point highcharts-color-0"></path><path fill="#000000" d="M 270 105 A 4 4 0 1 1 269.9999980000002 104.99600000066667 Z" class="highcharts-point highcharts-color-0"></path><path fill="#000000" d="M 9 105 A 4 4 0 1 1 8.999998000000167 104.99600000066667 Z" class="highcharts-point highcharts-color-0"></path><path fill="#000000" d="M 139 105 A 4 4 0 1 1 138.99999800000018 104.99600000066667 Z" class="highcharts-point highcharts-color-0"></path><path fill="#000000" d="M 9 105 A 4 4 0 1 1 8.999998000000167 104.99600000066667 Z" class="highcharts-point highcharts-color-0"></path><path fill="#000000" d="M 139 105 A 4 4 0 1 1 138.99999800000018 104.99600000066667 Z" class="highcharts-point highcharts-color-0"></path><path fill="#000000" d="M 139 105 A 4 4 0 1 1 138.99999800000018 104.99600000066667 Z" class="highcharts-point highcharts-color-0"></path><path fill="#000000" d="M 270 105 A 4 4 0 1 1 269.9999980000002 104.99600000066667 Z" class="highcharts-point highcharts-color-0"></path><path fill="#000000" d="M 270 105 A 4 4 0 1 1 269.9999980000002 104.99600000066667 Z" class="highcharts-point highcharts-color-0"></path><path fill="#000000" d="M 270 105 A 4 4 0 1 1 269.9999980000002 104.99600000066667 Z" class="highcharts-point highcharts-color-0"></path><path fill="#000000" d="M 270 105 A 4 4 0 1 1 269.9999980000002 104.99600000066667 Z" class="highcharts-point highcharts-color-0"></path><path fill="#000000" d="M 139 105 A 4 4 0 1 1 138.99999800000018 104.99600000066667 Z" class="highcharts-point highcharts-color-0"></path><path fill="#000000" d="M 74 105 A 4 4 0 1 1 73.99999800000016 104.99600000066667 Z" class="highcharts-point highcharts-color-0"></path><path fill="#000000" d="M 96 105 A 4 4 0 1 1 95.99999800000016 104.99600000066667 Z" class="highcharts-point highcharts-color-0"></path><path fill="#000000" d="M 9 105 A 4 4 0 1 1 8.999998000000167 104.99600000066667 Z" class="highcharts-point highcharts-color-0"></path><path fill="#000000" d="M 9 105 A 4 4 0 1 1 8.999998000000167 104.99600000066667 Z" class="highcharts-point highcharts-color-0"></path><path fill="#000000" d="M 139 105 A 4 4 0 1 1 138.99999800000018 104.99600000066667 Z" class="highcharts-point highcharts-color-0"></path><path fill="#000000" d="M 74 105 A 4 4 0 1 1 73.99999800000016 104.99600000066667 Z" class="highcharts-point highcharts-color-0"></path><path fill="#000000" d="M 9 105 A 4 4 0 1 1 8.999998000000167 104.99600000066667 Z" class="highcharts-point highcharts-color-0"></path><path fill="#000000" d="M 139 105 A 4 4 0 1 1 138.99999800000018 104.99600000066667 Z" class="highcharts-point highcharts-color-0"></path><path fill="#000000" d="M 139 105 A 4 4 0 1 1 138.99999800000018 104.99600000066667 Z" class="highcharts-point highcharts-color-0"></path><path fill="#000000" d="M 270 105 A 4 4 0 1 1 269.9999980000002 104.99600000066667 Z" class="highcharts-point highcharts-color-0"></path><path fill="#000000" d="M 9 105 A 4 4 0 1 1 8.999998000000167 104.99600000066667 Z" class="highcharts-point highcharts-color-0"></path><path fill="#000000" d="M 74 105 A 4 4 0 1 1 73.99999800000016 104.99600000066667 Z" class="highcharts-point highcharts-color-0"></path><path fill="#000000" d="M 400 105 A 4 4 0 1 1 399.9999980000002 104.99600000066667 Z" class="highcharts-point highcharts-color-0"></path><path fill="#000000" d="M 9 105 A 4 4 0 1 1 8.999998000000167 104.99600000066667 Z" class="highcharts-point highcharts-color-0"></path><path fill="#000000" d="M 9 118 A 4 4 0 1 1 8.999998000000167 117.99600000066667 Z" class="highcharts-point highcharts-color-0"></path><path fill="#000000" d="M 9 105 A 4 4 0 1 1 8.999998000000167 104.99600000066667 Z" class="highcharts-point highcharts-color-0"></path><path fill="#000000" d="M 9 158 A 4 4 0 1 1 8.999998000000167 157.99600000066667 Z" class="highcharts-point highcharts-color-0"></path><path fill="#000000" d="M 9 105 A 4 4 0 1 1 8.999998000000167 104.99600000066667 Z" class="highcharts-point highcharts-color-0"></path><path fill="#000000" d="M 9 105 A 4 4 0 1 1 8.999998000000167 104.99600000066667 Z" class="highcharts-point highcharts-color-0"></path><path fill="#000000" d="M 400 105 A 4 4 0 1 1 399.9999980000002 104.99600000066667 Z" class="highcharts-point highcharts-color-0"></path><path fill="#000000" d="M 9 105 A 4 4 0 1 1 8.999998000000167 104.99600000066667 Z" class="highcharts-point highcharts-color-0"></path><path fill="#000000" d="M 74 105 A 4 4 0 1 1 73.99999800000016 104.99600000066667 Z" class="highcharts-point highcharts-color-0"></path><path fill="#000000" d="M 400 105 A 4 4 0 1 1 399.9999980000002 104.99600000066667 Z" class="highcharts-point highcharts-color-0"></path><path fill="#000000" d="M 400 123 A 4 4 0 1 1 399.9999980000002 122.99600000066667 Z" class="highcharts-point highcharts-color-0"></path><path fill="#000000" d="M 400 89 A 4 4 0 1 1 399.9999980000002 88.99600000066667 Z" class="highcharts-point highcharts-color-0"></path><path fill="#000000" d="M 9 105 A 4 4 0 1 1 8.999998000000167 104.99600000066667 Z" class="highcharts-point highcharts-color-0"></path><path fill="#000000" d="M 400 105 A 4 4 0 1 1 399.9999980000002 104.99600000066667 Z" class="highcharts-point highcharts-color-0"></path><path fill="#000000" d="M 139 158 A 4 4 0 1 1 138.99999800000018 157.99600000066667 Z" class="highcharts-point highcharts-color-0"></path><path fill="#000000" d="M 139 158 A 4 4 0 1 1 138.99999800000018 157.99600000066667 Z" class="highcharts-point highcharts-color-0"></path><path fill="#000000" d="M 139 105 A 4 4 0 1 1 138.99999800000018 104.99600000066667 Z" class="highcharts-point highcharts-color-0"></path><path fill="#000000" d="M 139 105 A 4 4 0 1 1 138.99999800000018 104.99600000066667 Z" class="highcharts-point highcharts-color-0"></path><path fill="#000000" d="M 9 105 A 4 4 0 1 1 8.999998000000167 104.99600000066667 Z" class="highcharts-point highcharts-color-0"></path><path fill="#000000" d="M 139 105 A 4 4 0 1 1 138.99999800000018 104.99600000066667 Z" class="highcharts-point highcharts-color-0"></path><path fill="#000000" d="M 139 145 A 4 4 0 1 1 138.99999800000018 144.99600000066667 Z" class="highcharts-point highcharts-color-0"></path><path fill="#000000" d="M 9 132 A 4 4 0 1 1 8.999998000000167 131.99600000066667 Z" class="highcharts-point highcharts-color-0"></path><path fill="#000000" d="M 139 105 A 4 4 0 1 1 138.99999800000018 104.99600000066667 Z" class="highcharts-point highcharts-color-0"></path><path fill="#000000" d="M 270 105 A 4 4 0 1 1 269.9999980000002 104.99600000066667 Z" class="highcharts-point highcharts-color-0"></path><path fill="#000000" d="M 270 105 A 4 4 0 1 1 269.9999980000002 104.99600000066667 Z" class="highcharts-point highcharts-color-0"></path><path fill="#000000" d="M 400 105 A 4 4 0 1 1 399.9999980000002 104.99600000066667 Z" class="highcharts-point highcharts-color-0"></path><path fill="#000000" d="M 400 105 A 4 4 0 1 1 399.9999980000002 104.99600000066667 Z" class="highcharts-point highcharts-color-0"></path><path fill="#000000" d="M 270 105 A 4 4 0 1 1 269.9999980000002 104.99600000066667 Z" class="highcharts-point highcharts-color-0"></path><path fill="#000000" d="M 270 105 A 4 4 0 1 1 269.9999980000002 104.99600000066667 Z" class="highcharts-point highcharts-color-0"></path><path fill="#000000" d="M 335 140 A 4 4 0 1 1 334.9999980000002 139.99600000066667 Z" class="highcharts-point highcharts-color-0"></path><path fill="#000000" d="M 530 210 A 4 4 0 1 1 529.9999980000001 209.99600000066667 Z" class="highcharts-point highcharts-color-0"></path><path fill="#000000" d="M 270 210 A 4 4 0 1 1 269.9999980000002 209.99600000066667 Z" class="highcharts-point highcharts-color-0"></path><path fill="#000000" d="M 400 79 A 4 4 0 1 1 399.9999980000002 78.99600000066667 Z" class="highcharts-point highcharts-color-0"></path><path fill="#000000" d="M 139 158 A 4 4 0 1 1 138.99999800000018 157.99600000066667 Z" class="highcharts-point highcharts-color-0"></path><path fill="#000000" d="M 270 184 A 4 4 0 1 1 269.9999980000002 183.99600000066667 Z" class="highcharts-point highcharts-color-0"></path><path fill="#000000" d="M 530 105 A 4 4 0 1 1 529.9999980000001 104.99600000066667 Z" class="highcharts-point highcharts-color-0"></path><path fill="#000000" d="M 400 105 A 4 4 0 1 1 399.9999980000002 104.99600000066667 Z" class="highcharts-point highcharts-color-0"></path><path fill="#000000" d="M 270 158 A 4 4 0 1 1 269.9999980000002 157.99600000066667 Z" class="highcharts-point highcharts-color-0"></path><path fill="#000000" d="M 9 158 A 4 4 0 1 1 8.999998000000167 157.99600000066667 Z" class="highcharts-point highcharts-color-0"></path><path fill="#000000" d="M 139 105 A 4 4 0 1 1 138.99999800000018 104.99600000066667 Z" class="highcharts-point highcharts-color-0"></path><path fill="#000000" d="M 139 88 A 4 4 0 1 1 138.99999800000018 87.99600000066667 Z" class="highcharts-point highcharts-color-0"></path><path fill="#000000" d="M 400 105 A 4 4 0 1 1 399.9999980000002 104.99600000066667 Z" class="highcharts-point highcharts-color-0"></path><path fill="#000000" d="M 139 53 A 4 4 0 1 1 138.99999800000018 52.99600000066666 Z" class="highcharts-point highcharts-color-0"></path><path fill="#000000" d="M 139 53 A 4 4 0 1 1 138.99999800000018 52.99600000066666 Z" class="highcharts-point highcharts-color-0"></path><path fill="#000000" d="M 270 105 A 4 4 0 1 1 269.9999980000002 104.99600000066667 Z" class="highcharts-point highcharts-color-0"></path><path fill="#000000" d="M 139 105 A 4 4 0 1 1 138.99999800000018 104.99600000066667 Z" class="highcharts-point highcharts-color-0"></path><path fill="#000000" d="M 139 53 A 4 4 0 1 1 138.99999800000018 52.99600000066666 Z" class="highcharts-point highcharts-color-0"></path><path fill="#000000" d="M 270 158 A 4 4 0 1 1 269.9999980000002 157.99600000066667 Z" class="highcharts-point highcharts-color-0"></path><path fill="#000000" d="M 400 105 A 4 4 0 1 1 399.9999980000002 104.99600000066667 Z" class="highcharts-point highcharts-color-0"></path><path fill="#000000" d="M 270 158 A 4 4 0 1 1 269.9999980000002 157.99600000066667 Z" class="highcharts-point highcharts-color-0"></path><path fill="#000000" d="M 400 184 A 4 4 0 1 1 399.9999980000002 183.99600000066667 Z" class="highcharts-point highcharts-color-0"></path><path fill="#000000" d="M 400 105 A 4 4 0 1 1 399.9999980000002 104.99600000066667 Z" class="highcharts-point highcharts-color-0"></path><path fill="#000000" d="M 139 79 A 4 4 0 1 1 138.99999800000018 78.99600000066667 Z" class="highcharts-point highcharts-color-0"></path><path fill="#000000" d="M 139 105 A 4 4 0 1 1 138.99999800000018 104.99600000066667 Z" class="highcharts-point highcharts-color-0"></path><path fill="#000000" d="M 400 132 A 4 4 0 1 1 399.9999980000002 131.99600000066667 Z" class="highcharts-point highcharts-color-0"></path><path fill="#000000" d="M 400 96 A 4 4 0 1 1 399.9999980000002 95.99600000066667 Z" class="highcharts-point highcharts-color-0"></path><path fill="#000000" d="M 270 98 A 4 4 0 1 1 269.9999980000002 97.99600000066667 Z" class="highcharts-point highcharts-color-0"></path><path fill="#000000" d="M 139 105 A 4 4 0 1 1 138.99999800000018 104.99600000066667 Z" class="highcharts-point highcharts-color-0"></path><path fill="#000000" d="M 270 105 A 4 4 0 1 1 269.9999980000002 104.99600000066667 Z" class="highcharts-point highcharts-color-0"></path><path fill="#000000" d="M 139 92 A 4 4 0 1 1 138.99999800000018 91.99600000066667 Z" class="highcharts-point highcharts-color-0"></path><path fill="#000000" d="M 139 158 A 4 4 0 1 1 138.99999800000018 157.99600000066667 Z" class="highcharts-point highcharts-color-0"></path><path fill="#000000" d="M 270 184 A 4 4 0 1 1 269.9999980000002 183.99600000066667 Z" class="highcharts-point highcharts-color-0"></path><path fill="#000000" d="M 270 158 A 4 4 0 1 1 269.9999980000002 157.99600000066667 Z" class="highcharts-point highcharts-color-0"></path><path fill="#000000" d="M 400 158 A 4 4 0 1 1 399.9999980000002 157.99600000066667 Z" class="highcharts-point highcharts-color-0"></path><path fill="#000000" d="M 139 158 A 4 4 0 1 1 138.99999800000018 157.99600000066667 Z" class="highcharts-point highcharts-color-0"></path><path fill="#000000" d="M 270 197 A 4 4 0 1 1 269.9999980000002 196.99600000066667 Z" class="highcharts-point highcharts-color-0"></path><path fill="#000000" d="M 270 123 A 4 4 0 1 1 269.9999980000002 122.99600000066667 Z" class="highcharts-point highcharts-color-0"></path><path fill="#000000" d="M 270 105 A 4 4 0 1 1 269.9999980000002 104.99600000066667 Z" class="highcharts-point highcharts-color-0"></path><path fill="#000000" d="M 139 105 A 4 4 0 1 1 138.99999800000018 104.99600000066667 Z" class="highcharts-point highcharts-color-0"></path><path fill="#000000" d="M 139 105 A 4 4 0 1 1 138.99999800000018 104.99600000066667 Z" class="highcharts-point highcharts-color-0"></path><path fill="#000000" d="M 139 105 A 4 4 0 1 1 138.99999800000018 104.99600000066667 Z" class="highcharts-point highcharts-color-0"></path><path fill="#000000" d="M 270 105 A 4 4 0 1 1 269.9999980000002 104.99600000066667 Z" class="highcharts-point highcharts-color-0"></path><path fill="#000000" d="M 139 105 A 4 4 0 1 1 138.99999800000018 104.99600000066667 Z" class="highcharts-point highcharts-color-0"></path><path fill="#000000" d="M 139 105 A 4 4 0 1 1 138.99999800000018 104.99600000066667 Z" class="highcharts-point highcharts-color-0"></path><path fill="#000000" d="M 139 105 A 4 4 0 1 1 138.99999800000018 104.99600000066667 Z" class="highcharts-point highcharts-color-0"></path><path fill="#000000" d="M 139 105 A 4 4 0 1 1 138.99999800000018 104.99600000066667 Z" class="highcharts-point highcharts-color-0"></path><path fill="#000000" d="M 139 105 A 4 4 0 1 1 138.99999800000018 104.99600000066667 Z" class="highcharts-point highcharts-color-0"></path><path fill="#000000" d="M 9 123 A 4 4 0 1 1 8.999998000000167 122.99600000066667 Z" class="highcharts-point highcharts-color-0"></path><path fill="#000000" d="M 270 105 A 4 4 0 1 1 269.9999980000002 104.99600000066667 Z" class="highcharts-point highcharts-color-0"></path><path fill="#000000" d="M 139 105 A 4 4 0 1 1 138.99999800000018 104.99600000066667 Z" class="highcharts-point highcharts-color-0"></path><path fill="#000000" d="M 139 105 A 4 4 0 1 1 138.99999800000018 104.99600000066667 Z" class="highcharts-point highcharts-color-0"></path><path fill="#000000" d="M 139 105 A 4 4 0 1 1 138.99999800000018 104.99600000066667 Z" class="highcharts-point highcharts-color-0"></path><path fill="#000000" d="M 139 105 A 4 4 0 1 1 138.99999800000018 104.99600000066667 Z" class="highcharts-point highcharts-color-0"></path><path fill="#000000" d="M 139 105 A 4 4 0 1 1 138.99999800000018 104.99600000066667 Z" class="highcharts-point highcharts-color-0"></path><path fill="#000000" d="M 139 105 A 4 4 0 1 1 138.99999800000018 104.99600000066667 Z" class="highcharts-point highcharts-color-0"></path><path fill="#000000" d="M 139 105 A 4 4 0 1 1 138.99999800000018 104.99600000066667 Z" class="highcharts-point highcharts-color-0"></path><path fill="#000000" d="M 139 105 A 4 4 0 1 1 138.99999800000018 104.99600000066667 Z" class="highcharts-point highcharts-color-0"></path><path fill="#000000" d="M 139 105 A 4 4 0 1 1 138.99999800000018 104.99600000066667 Z" class="highcharts-point highcharts-color-0"></path><path fill="#000000" d="M 139 105 A 4 4 0 1 1 138.99999800000018 104.99600000066667 Z" class="highcharts-point highcharts-color-0"></path><path fill="#000000" d="M 139 105 A 4 4 0 1 1 138.99999800000018 104.99600000066667 Z" class="highcharts-point highcharts-color-0"></path><path fill="#000000" d="M 139 105 A 4 4 0 1 1 138.99999800000018 104.99600000066667 Z" class="highcharts-point highcharts-color-0"></path><path fill="#000000" d="M 139 105 A 4 4 0 1 1 138.99999800000018 104.99600000066667 Z" class="highcharts-point highcharts-color-0"></path><path fill="#000000" d="M 400 105 A 4 4 0 1 1 399.9999980000002 104.99600000066667 Z" class="highcharts-point highcharts-color-0"></path><path fill="#000000" d="M 139 105 A 4 4 0 1 1 138.99999800000018 104.99600000066667 Z" class="highcharts-point highcharts-color-0"></path><path fill="#000000" d="M 400 105 A 4 4 0 1 1 399.9999980000002 104.99600000066667 Z" class="highcharts-point highcharts-color-0"></path><path fill="#000000" d="M 270 105 A 4 4 0 1 1 269.9999980000002 104.99600000066667 Z" class="highcharts-point highcharts-color-0"></path><path fill="#000000" d="M 139 105 A 4 4 0 1 1 138.99999800000018 104.99600000066667 Z" class="highcharts-point highcharts-color-0"></path><path fill="#000000" d="M 139 105 A 4 4 0 1 1 138.99999800000018 104.99600000066667 Z" class="highcharts-point highcharts-color-0"></path><path fill="#000000" d="M 139 105 A 4 4 0 1 1 138.99999800000018 104.99600000066667 Z" class="highcharts-point highcharts-color-0"></path><path fill="#000000" d="M 139 105 A 4 4 0 1 1 138.99999800000018 104.99600000066667 Z" class="highcharts-point highcharts-color-0"></path><path fill="#000000" d="M 139 105 A 4 4 0 1 1 138.99999800000018 104.99600000066667 Z" class="highcharts-point highcharts-color-0"></path><path fill="#000000" d="M 139 105 A 4 4 0 1 1 138.99999800000018 104.99600000066667 Z" class="highcharts-point highcharts-color-0"></path><path fill="#000000" d="M 400 105 A 4 4 0 1 1 399.9999980000002 104.99600000066667 Z" class="highcharts-point highcharts-color-0"></path><path fill="#000000" d="M 270 105 A 4 4 0 1 1 269.9999980000002 104.99600000066667 Z" class="highcharts-point highcharts-color-0"></path><path fill="#000000" d="M 530 149 A 4 4 0 1 1 529.9999980000001 148.99600000066667 Z" class="highcharts-point highcharts-color-0"></path><path fill="#000000" d="M 400 158 A 4 4 0 1 1 399.9999980000002 157.99600000066667 Z" class="highcharts-point highcharts-color-0"></path><path fill="#000000" d="M 400 158 A 4 4 0 1 1 399.9999980000002 157.99600000066667 Z" class="highcharts-point highcharts-color-0"></path><path fill="#000000" d="M 400 149 A 4 4 0 1 1 399.9999980000002 148.99600000066667 Z" class="highcharts-point highcharts-color-0"></path><path fill="#000000" d="M 400 158 A 4 4 0 1 1 399.9999980000002 157.99600000066667 Z" class="highcharts-point highcharts-color-0"></path><path fill="#000000" d="M 139 105 A 4 4 0 1 1 138.99999800000018 104.99600000066667 Z" class="highcharts-point highcharts-color-0"></path><path fill="#000000" d="M 400 158 A 4 4 0 1 1 399.9999980000002 157.99600000066667 Z" class="highcharts-point highcharts-color-0"></path><path fill="#000000" d="M 139 118 A 4 4 0 1 1 138.99999800000018 117.99600000066667 Z" class="highcharts-point highcharts-color-0"></path><path fill="#000000" d="M 139 132 A 4 4 0 1 1 138.99999800000018 131.99600000066667 Z" class="highcharts-point highcharts-color-0"></path><path fill="#000000" d="M 270 158 A 4 4 0 1 1 269.9999980000002 157.99600000066667 Z" class="highcharts-point highcharts-color-0"></path><path fill="#000000" d="M 400 118 A 4 4 0 1 1 399.9999980000002 117.99600000066667 Z" class="highcharts-point highcharts-color-0"></path><path fill="#000000" d="M 400 105 A 4 4 0 1 1 399.9999980000002 104.99600000066667 Z" class="highcharts-point highcharts-color-0"></path><path fill="#000000" d="M 400 105 A 4 4 0 1 1 399.9999980000002 104.99600000066667 Z" class="highcharts-point highcharts-color-0"></path><path fill="#000000" d="M 400 118 A 4 4 0 1 1 399.9999980000002 117.99600000066667 Z" class="highcharts-point highcharts-color-0"></path><path fill="#000000" d="M 400 105 A 4 4 0 1 1 399.9999980000002 104.99600000066667 Z" class="highcharts-point highcharts-color-0"></path><path fill="#000000" d="M 400 105 A 4 4 0 1 1 399.9999980000002 104.99600000066667 Z" class="highcharts-point highcharts-color-0"></path><path fill="#000000" d="M 139 158 A 4 4 0 1 1 138.99999800000018 157.99600000066667 Z" class="highcharts-point highcharts-color-0"></path><path fill="#000000" d="M 400 105 A 4 4 0 1 1 399.9999980000002 104.99600000066667 Z" class="highcharts-point highcharts-color-0"></path><path fill="#000000" d="M 400 105 A 4 4 0 1 1 399.9999980000002 104.99600000066667 Z" class="highcharts-point highcharts-color-0"></path><path fill="#000000" d="M 400 105 A 4 4 0 1 1 399.9999980000002 104.99600000066667 Z" class="highcharts-point highcharts-color-0"></path><path fill="#000000" d="M 270 118 A 4 4 0 1 1 269.9999980000002 117.99600000066667 Z" class="highcharts-point highcharts-color-0"></path><path fill="#000000" d="M 400 118 A 4 4 0 1 1 399.9999980000002 117.99600000066667 Z" class="highcharts-point highcharts-color-0"></path><path fill="#000000" d="M 139 105 A 4 4 0 1 1 138.99999800000018 104.99600000066667 Z" class="highcharts-point highcharts-color-0"></path><path fill="#000000" d="M 139 105 A 4 4 0 1 1 138.99999800000018 104.99600000066667 Z" class="highcharts-point highcharts-color-0"></path><path fill="#000000" d="M 139 118 A 4 4 0 1 1 138.99999800000018 117.99600000066667 Z" class="highcharts-point highcharts-color-0"></path><path fill="#000000" d="M 139 145 A 4 4 0 1 1 138.99999800000018 144.99600000066667 Z" class="highcharts-point highcharts-color-0"></path><path fill="#000000" d="M 139 145 A 4 4 0 1 1 138.99999800000018 144.99600000066667 Z" class="highcharts-point highcharts-color-0"></path><path fill="#000000" d="M 139 145 A 4 4 0 1 1 138.99999800000018 144.99600000066667 Z" class="highcharts-point highcharts-color-0"></path><path fill="#000000" d="M 139 105 A 4 4 0 1 1 138.99999800000018 104.99600000066667 Z" class="highcharts-point highcharts-color-0"></path><path fill="#000000" d="M 139 105 A 4 4 0 1 1 138.99999800000018 104.99600000066667 Z" class="highcharts-point highcharts-color-0"></path><path fill="#000000" d="M 270 105 A 4 4 0 1 1 269.9999980000002 104.99600000066667 Z" class="highcharts-point highcharts-color-0"></path><path fill="#000000" d="M 139 140 A 4 4 0 1 1 138.99999800000018 139.99600000066667 Z" class="highcharts-point highcharts-color-0"></path><path fill="#000000" d="M 9 105 A 4 4 0 1 1 8.999998000000167 104.99600000066667 Z" class="highcharts-point highcharts-color-0"></path><path fill="#000000" d="M 139 105 A 4 4 0 1 1 138.99999800000018 104.99600000066667 Z" class="highcharts-point highcharts-color-0"></path><path fill="#000000" d="M 9 105 A 4 4 0 1 1 8.999998000000167 104.99600000066667 Z" class="highcharts-point highcharts-color-0"></path><path fill="#000000" d="M 9 105 A 4 4 0 1 1 8.999998000000167 104.99600000066667 Z" class="highcharts-point highcharts-color-0"></path><path fill="#000000" d="M 9 105 A 4 4 0 1 1 8.999998000000167 104.99600000066667 Z" class="highcharts-point highcharts-color-0"></path><path fill="#000000" d="M 139 105 A 4 4 0 1 1 138.99999800000018 104.99600000066667 Z" class="highcharts-point highcharts-color-0"></path><path fill="#000000" d="M 139 114 A 4 4 0 1 1 138.99999800000018 113.99600000066667 Z" class="highcharts-point highcharts-color-0"></path><path fill="#000000" d="M 9 105 A 4 4 0 1 1 8.999998000000167 104.99600000066667 Z" class="highcharts-point highcharts-color-0"></path><path fill="#000000" d="M 9 105 A 4 4 0 1 1 8.999998000000167 104.99600000066667 Z" class="highcharts-point highcharts-color-0"></path><path fill="#000000" d="M 270 105 A 4 4 0 1 1 269.9999980000002 104.99600000066667 Z" class="highcharts-point highcharts-color-0"></path><path fill="#000000" d="M 139 105 A 4 4 0 1 1 138.99999800000018 104.99600000066667 Z" class="highcharts-point highcharts-color-0"></path><path fill="#000000" d="M 9 105 A 4 4 0 1 1 8.999998000000167 104.99600000066667 Z" class="highcharts-point highcharts-color-0"></path><path fill="#000000" d="M 9 105 A 4 4 0 1 1 8.999998000000167 104.99600000066667 Z" class="highcharts-point highcharts-color-0"></path><path fill="#000000" d="M 9 105 A 4 4 0 1 1 8.999998000000167 104.99600000066667 Z" class="highcharts-point highcharts-color-0"></path><path fill="#000000" d="M 139 123 A 4 4 0 1 1 138.99999800000018 122.99600000066667 Z" class="highcharts-point highcharts-color-0"></path><path fill="#000000" d="M 270 114 A 4 4 0 1 1 269.9999980000002 113.99600000066667 Z" class="highcharts-point highcharts-color-0"></path><path fill="#000000" d="M 270 105 A 4 4 0 1 1 269.9999980000002 104.99600000066667 Z" class="highcharts-point highcharts-color-0"></path><path fill="#000000" d="M 400 105 A 4 4 0 1 1 399.9999980000002 104.99600000066667 Z" class="highcharts-point highcharts-color-0"></path><path fill="#000000" d="M 9 123 A 4 4 0 1 1 8.999998000000167 122.99600000066667 Z" class="highcharts-point highcharts-color-0"></path><path fill="#000000" d="M 139 105 A 4 4 0 1 1 138.99999800000018 104.99600000066667 Z" class="highcharts-point highcharts-color-0"></path><path fill="#000000" d="M 139 105 A 4 4 0 1 1 138.99999800000018 104.99600000066667 Z" class="highcharts-point highcharts-color-0"></path><path fill="#000000" d="M 270 105 A 4 4 0 1 1 269.9999980000002 104.99600000066667 Z" class="highcharts-point highcharts-color-0"></path><path fill="#000000" d="M 270 105 A 4 4 0 1 1 269.9999980000002 104.99600000066667 Z" class="highcharts-point highcharts-color-0"></path><path fill="#000000" d="M 9 105 A 4 4 0 1 1 8.999998000000167 104.99600000066667 Z" class="highcharts-point highcharts-color-0"></path><path fill="#000000" d="M 270 137 A 4 4 0 1 1 269.9999980000002 136.99600000066667 Z" class="highcharts-point highcharts-color-0"></path><path fill="#000000" d="M 270 149 A 4 4 0 1 1 269.9999980000002 148.99600000066667 Z" class="highcharts-point highcharts-color-0"></path><path fill="#000000" d="M 270 158 A 4 4 0 1 1 269.9999980000002 157.99600000066667 Z" class="highcharts-point highcharts-color-0"></path><path fill="#000000" d="M 270 105 A 4 4 0 1 1 269.9999980000002 104.99600000066667 Z" class="highcharts-point highcharts-color-0"></path><path fill="#000000" d="M 270 105 A 4 4 0 1 1 269.9999980000002 104.99600000066667 Z" class="highcharts-point highcharts-color-0"></path><path fill="#000000" d="M 270 105 A 4 4 0 1 1 269.9999980000002 104.99600000066667 Z" class="highcharts-point highcharts-color-0"></path><path fill="#000000" d="M 270 105 A 4 4 0 1 1 269.9999980000002 104.99600000066667 Z" class="highcharts-point highcharts-color-0"></path><path fill="#000000" d="M 270 105 A 4 4 0 1 1 269.9999980000002 104.99600000066667 Z" class="highcharts-point highcharts-color-0"></path><path fill="#000000" d="M 270 123 A 4 4 0 1 1 269.9999980000002 122.99600000066667 Z" class="highcharts-point highcharts-color-0"></path><path fill="#000000" d="M 9 158 A 4 4 0 1 1 8.999998000000167 157.99600000066667 Z" class="highcharts-point highcharts-color-0"></path><path fill="#000000" d="M 9 140 A 4 4 0 1 1 8.999998000000167 139.99600000066667 Z" class="highcharts-point highcharts-color-0"></path><path fill="#000000" d="M 139 123 A 4 4 0 1 1 138.99999800000018 122.99600000066667 Z" class="highcharts-point highcharts-color-0"></path><path fill="#000000" d="M 9 105 A 4 4 0 1 1 8.999998000000167 104.99600000066667 Z" class="highcharts-point highcharts-color-0"></path><path fill="#000000" d="M 9 123 A 4 4 0 1 1 8.999998000000167 122.99600000066667 Z" class="highcharts-point highcharts-color-0"></path><path fill="#000000" d="M 9 105 A 4 4 0 1 1 8.999998000000167 104.99600000066667 Z" class="highcharts-point highcharts-color-0"></path><path fill="#000000" d="M 139 105 A 4 4 0 1 1 138.99999800000018 104.99600000066667 Z" class="highcharts-point highcharts-color-0"></path><path fill="#000000" d="M 139 105 A 4 4 0 1 1 138.99999800000018 104.99600000066667 Z" class="highcharts-point highcharts-color-0"></path><path fill="#000000" d="M 139 105 A 4 4 0 1 1 138.99999800000018 104.99600000066667 Z" class="highcharts-point highcharts-color-0"></path><path fill="#000000" d="M 139 105 A 4 4 0 1 1 138.99999800000018 104.99600000066667 Z" class="highcharts-point highcharts-color-0"></path><path fill="#000000" d="M 139 105 A 4 4 0 1 1 138.99999800000018 104.99600000066667 Z" class="highcharts-point highcharts-color-0"></path><path fill="#000000" d="M 139 105 A 4 4 0 1 1 138.99999800000018 104.99600000066667 Z" class="highcharts-point highcharts-color-0"></path><path fill="#000000" d="M 139 105 A 4 4 0 1 1 138.99999800000018 104.99600000066667 Z" class="highcharts-point highcharts-color-0"></path><path fill="#000000" d="M 270 105 A 4 4 0 1 1 269.9999980000002 104.99600000066667 Z" class="highcharts-point highcharts-color-0"></path><path fill="#000000" d="M 270 105 A 4 4 0 1 1 269.9999980000002 104.99600000066667 Z" class="highcharts-point highcharts-color-0"></path><path fill="#000000" d="M 270 105 A 4 4 0 1 1 269.9999980000002 104.99600000066667 Z" class="highcharts-point highcharts-color-0"></path><path fill="#000000" d="M 270 96 A 4 4 0 1 1 269.9999980000002 95.99600000066667 Z" class="highcharts-point highcharts-color-0"></path><path fill="#000000" d="M 9 88 A 4 4 0 1 1 8.999998000000167 87.99600000066667 Z" class="highcharts-point highcharts-color-0"></path><path fill="#000000" d="M 9 105 A 4 4 0 1 1 8.999998000000167 104.99600000066667 Z" class="highcharts-point highcharts-color-0"></path><path fill="#000000" d="M 9 105 A 4 4 0 1 1 8.999998000000167 104.99600000066667 Z" class="highcharts-point highcharts-color-0"></path><path fill="#000000" d="M 9 105 A 4 4 0 1 1 8.999998000000167 104.99600000066667 Z" class="highcharts-point highcharts-color-0"></path></g></g><text x="300" text-anchor="middle" class="highcharts-title" data-z-index="4" style="color:#333333;font-size:18px;fill:#333333;" y="24"><tspan>Overall Mood Following Hostility</tspan></text><text x="300" text-anchor="middle" class="highcharts-subtitle" data-z-index="4" style="color:#666666;fill:#666666;" y="46"><tspan>An increase in 24 hours cumulative Hostility is usually followed by an decrease in Overall</tspan><tspan dy="15" x="300">Mood. (R = -0.224)</tspan></text><g class="highcharts-axis-labels highcharts-xaxis-labels " data-z-index="7"><text x="63.21568627451" style="color:#666666;cursor:default;font-size:11px;fill:#666666;" text-anchor="middle" transform="translate(0,0)" y="360" opacity="1">1</text><text x="128.41176470588" style="color:#666666;cursor:default;font-size:11px;fill:#666666;" text-anchor="middle" transform="translate(0,0)" y="360" opacity="1">1.5</text><text x="193.60784313725" style="color:#666666;cursor:default;font-size:11px;fill:#666666;" text-anchor="middle" transform="translate(0,0)" y="360" opacity="1">2</text><text x="258.80392156863" style="color:#666666;cursor:default;font-size:11px;fill:#666666;" text-anchor="middle" transform="translate(0,0)" y="360" opacity="1">2.5</text><text x="324" style="color:#666666;cursor:default;font-size:11px;fill:#666666;" text-anchor="middle" transform="translate(0,0)" y="360" opacity="1">3</text><text x="389.19607843137" style="color:#666666;cursor:default;font-size:11px;fill:#666666;" text-anchor="middle" transform="translate(0,0)" y="360" opacity="1">3.5</text><text x="454.39215686275" style="color:#666666;cursor:default;font-size:11px;fill:#666666;" text-anchor="middle" transform="translate(0,0)" y="360" opacity="1">4</text><text x="519.58823529412" style="color:#666666;cursor:default;font-size:11px;fill:#666666;" text-anchor="middle" transform="translate(0,0)" y="360" opacity="1">4.5</text><text x="584.78431372549" style="color:#666666;cursor:default;font-size:11px;fill:#666666;" text-anchor="middle" transform="translate(0,0)" y="360" opacity="1">5</text></g><g class="highcharts-axis-labels highcharts-yaxis-labels " data-z-index="7"><text x="43" style="color:#666666;cursor:default;font-size:11px;fill:#666666;" text-anchor="end" transform="translate(0,0)" y="345" opacity="1">0</text><text x="43" style="color:#666666;cursor:default;font-size:11px;fill:#666666;" text-anchor="end" transform="translate(0,0)" y="292" opacity="1">1</text><text x="43" style="color:#666666;cursor:default;font-size:11px;fill:#666666;" text-anchor="end" transform="translate(0,0)" y="239" opacity="1">2</text><text x="43" style="color:#666666;cursor:default;font-size:11px;fill:#666666;" text-anchor="end" transform="translate(0,0)" y="187" opacity="1">3</text><text x="43" style="color:#666666;cursor:default;font-size:11px;fill:#666666;" text-anchor="end" transform="translate(0,0)" y="134" opacity="1">4</text><text x="43" style="color:#666666;cursor:default;font-size:11px;fill:#666666;" text-anchor="end" transform="translate(0,0)" y="82" opacity="1">5</text></g><a xlink:href="https://quantimo.do" target="_blank">
                    <text x="590" class="highcharts-credits" text-anchor="end" data-z-index="8"
                          style="cursor:pointer;color:#999999;font-size:9px;fill:#999999;" y="295">https://quantimo.do
                    </text>
                </a></svg>