<?xml version="1.0" standalone="no"?><!DOCTYPE svg PUBLIC "-//W3C//DTD SVG 1.1//EN" "http://www.w3.org/Graphics/SVG/1.1/DTD/svg11.dtd"><svg xmlns:xlink="http://www.w3.org/1999/xlink" version="1.1" class="highcharts-root" style="font-family:&quot;Lucida Grande&quot;, &quot;Lucida Sans Unicode&quot;, Arial, Helvetica, sans-serif;font-size:12px;" xmlns="http://www.w3.org/2000/svg" width="600" height="400"><desc>Created with Highstock 6.2.0</desc><defs><clipPath id="highcharts-td0u7yp-1284"><rect x="0" y="0" width="551" height="299" fill="none"></rect></clipPath><clipPath id="highcharts-td0u7yp-2562"><rect x="0" y="0" width="551" height="299" fill="none"></rect></clipPath><clipPath id="highcharts-td0u7yp-2563"><rect x="39" y="63" width="551" height="299" fill="none"></rect></clipPath></defs><rect fill="#ffffff" class="highcharts-background" x="0" y="0" width="600" height="400" rx="0" ry="0"></rect><rect fill="none" class="highcharts-plot-background" x="39" y="63" width="551" height="299"></rect><g class="highcharts-pane-group" data-z-index="0"></g><g class="highcharts-grid highcharts-xaxis-grid " data-z-index="1"><path fill="none" data-z-index="1" class="highcharts-grid-line" d="M 72.5 63 L 72.5 362" opacity="1"></path><path fill="none" data-z-index="1" class="highcharts-grid-line" d="M 149.5 63 L 149.5 362" opacity="1"></path><path fill="none" data-z-index="1" class="highcharts-grid-line" d="M 227.5 63 L 227.5 362" opacity="1"></path><path fill="none" data-z-index="1" class="highcharts-grid-line" d="M 304.5 63 L 304.5 362" opacity="1"></path><path fill="none" data-z-index="1" class="highcharts-grid-line" d="M 381.5 63 L 381.5 362" opacity="1"></path><path fill="none" data-z-index="1" class="highcharts-grid-line" d="M 458.5 63 L 458.5 362" opacity="1"></path><path fill="none" data-z-index="1" class="highcharts-grid-line" d="M 536.5 63 L 536.5 362" opacity="1"></path></g><g class="highcharts-grid highcharts-yaxis-grid " data-z-index="1"><path fill="none" stroke="#e6e6e6" stroke-width="1" data-z-index="1" class="highcharts-grid-line" d="M 39 362.5 L 590 362.5" opacity="1"></path><path fill="none" stroke="#e6e6e6" stroke-width="1" data-z-index="1" class="highcharts-grid-line" d="M 39 302.5 L 590 302.5" opacity="1"></path><path fill="none" stroke="#e6e6e6" stroke-width="1" data-z-index="1" class="highcharts-grid-line" d="M 39 242.5 L 590 242.5" opacity="1"></path><path fill="none" stroke="#e6e6e6" stroke-width="1" data-z-index="1" class="highcharts-grid-line" d="M 39 183.5 L 590 183.5" opacity="1"></path><path fill="none" stroke="#e6e6e6" stroke-width="1" data-z-index="1" class="highcharts-grid-line" d="M 39 123.5 L 590 123.5" opacity="1"></path><path fill="none" stroke="#e6e6e6" stroke-width="1" data-z-index="1" class="highcharts-grid-line" d="M 39 62.5 L 590 62.5" opacity="1"></path></g><rect fill="none" class="highcharts-plot-border" data-z-index="1" x="39" y="63" width="551" height="299"></rect><g class="highcharts-axis highcharts-xaxis " data-z-index="2"><path fill="none" class="highcharts-tick" stroke="#ccd6eb" stroke-width="1" d="M 72.5 362 L 72.5 372" opacity="1"></path><path fill="none" class="highcharts-tick" stroke="#ccd6eb" stroke-width="1" d="M 149.5 362 L 149.5 372" opacity="1"></path><path fill="none" class="highcharts-tick" stroke="#ccd6eb" stroke-width="1" d="M 227.5 362 L 227.5 372" opacity="1"></path><path fill="none" class="highcharts-tick" stroke="#ccd6eb" stroke-width="1" d="M 304.5 362 L 304.5 372" opacity="1"></path><path fill="none" class="highcharts-tick" stroke="#ccd6eb" stroke-width="1" d="M 381.5 362 L 381.5 372" opacity="1"></path><path fill="none" class="highcharts-tick" stroke="#ccd6eb" stroke-width="1" d="M 458.5 362 L 458.5 372" opacity="1"></path><path fill="none" class="highcharts-tick" stroke="#ccd6eb" stroke-width="1" d="M 536.5 362 L 536.5 372" opacity="1"></path><path fill="none" class="highcharts-axis-line" stroke="#ccd6eb" stroke-width="1" data-z-index="7" d="M 39 362.5 L 590 362.5"></path></g><g class="highcharts-axis highcharts-yaxis " data-z-index="2"><path fill="none" class="highcharts-axis-line" data-z-index="7" d="M 39 63 L 39 362"></path></g><g class="highcharts-series-group" data-z-index="3"><g data-z-index="0.1" class="highcharts-series highcharts-series-0 highcharts-spline-series highcharts-color-0 " transform="translate(39,63) scale(1 1)" clip-path="url(#highcharts-td0u7yp-2562)"><path fill="none" d="M 5.4019607843137 299 C 5.4019607843137 299 5.65597147950088 299 5.825311942959 299 C 5.99465240641712 299 6.079322638146179 299 6.2486631016043 299 C 6.4180035650624205 299 6.50267379679148 299 6.6720142602496 299 C 6.8413547237076795 299 6.926024955436719 299 7.0953654188948 299 C 7.264705882352919 299 7.34937611408198 299 7.5187165775401 299 C 7.68805704099822 299 7.7727272727272805 299 7.9420677361854 299 C 8.11140819964352 299 8.19607843137258 299 8.3654188948307 299 C 8.534759358288781 299 8.61942959001782 299 8.7887700534759 299 C 8.95811051693402 299 9.04278074866308 299 9.2121212121212 299 C 9.38146167557932 299 9.46613190730838 299 9.6354723707665 299 C 9.8048128342247 299 9.889483065953801 299 10.058823529412 299 C 10.22816399287 299 10.312834224599001 299 10.482174688057 299 C 10.651515151515 299 10.736185383244 299 10.905525846702 299 C 11.074866310160399 299 11.159536541889599 299 11.328877005348 299 C 11.498217468806 299 11.582887700535 299 11.752228163993 299 C 11.921568627451 299 12.00623885918 299 12.175579322638 299 C 12.344919786096 299 12.429590017825001 299 12.598930481283 299 C 12.7682709447414 299 12.8529411764706 299 13.022281639929 299 C 13.191622103387 299 13.276292335116 299 13.445632798574 299 C 13.614973262032 299 13.699643493760998 299 13.868983957219 299 C 14.038324420677402 299 14.1229946524066 299 14.292335115865 299 C 14.461675579323 299 14.546345811052001 299 14.71568627451 299 C 14.885026737968001 299 14.969696969697 299 15.139037433155 299 C 15.308377896613 299 15.393048128341999 299 15.5623885918 299 C 15.731729055258398 299 15.816399286987599 299 15.985739750446 299 C 16.155080213904 299 16.239750445633 299 16.409090909091 299 C 16.578431372548998 299 16.663101604278 299 16.832442067736 299 C 17.001782531194003 299 17.086452762923 299 17.255793226381 299 C 17.425133689839402 299 17.5098039215686 299 17.679144385027 299 C 17.848484848485 299 17.933155080214 258.336 18.102495543672 227.24 C 18.27183600713 196.144 18.356506238859 143.51999999999998 18.525846702317 143.51999999999998 C 18.850298326401003 143.51999999999998 19.012524138443002 263.12 19.336975762527 263.12 C 19.506316225985397 263.12 19.5909864577146 263.12 19.760326921173 263.12 C 19.774556224005 263.12 19.781670875421 299 19.795900178253 299 C 20.1190582293522 299 20.280637254901798 251.16 20.603795306001 251.16 C 20.619318181818198 251.16 20.6270796197268 299 20.642602495544 299 C 20.8750928401664 299 20.9913380124776 273.2162333333047 21.2238283571 227.24 C 21.3300189393936 206.24023333330467 21.3831142305404 131.56 21.489304812834 131.56 C 21.7850626361656 131.56 21.932941547831398 287.04 22.228699371163 287.04 C 22.424969672212598 287.04 22.5231048227374 251.16 22.719375123787 251.16 C 22.7353683897802 251.16 22.7433650227768 299 22.75935828877 299 C 22.9309331055656 299 23.0167205139634 280.00348177757604 23.188295330759 275.08 C 23.516862868885 265.651481777576 23.681146637948 263.12 24.009714176074 263.12 C 24.017593211526798 263.12 24.021532729253202 299 24.029411764706 299 C 24.367857496534004 299 24.537080362448002 227.24 24.875526094276 227.24 C 24.875761289364 227.24 24.875878886907998 299 24.876114081996 299 C 25.0536863735392 299 25.1424725193108 270.46217768874493 25.320044810854 251.16 C 25.4945595662508 232.1901776887449 25.5818169439492 203.32 25.756331699346 203.32 C 25.920262675777202 203.32 26.0022281639928 263.12 26.166159140424 263.12 C 26.4963730441672 263.12 26.6614799960388 263.12 26.991693899782 263.12 C 27.16103436324 263.12 27.245704594969006 299 27.415045058427 299 C 27.573331352743004 299 27.652474499901 251.16 27.810760794217 251.16 C 27.8222853535354 251.16 27.828047633194597 299 27.839572192513 299 C 28.164023816597002 299 28.326249628638998 287.04 28.650701252723 287.04 C 28.6649305555554 287.04 28.672045206971596 299 28.686274509804 299 C 28.862435630818 299 28.950516191325004 263.12 29.126677312339 263.12 C 29.289197118241002 263.12 29.370457021192 299 29.532976827094 299 C 29.709843533372798 299 29.798276886512202 215.28 29.975143592791 215.28 C 30.1369578134286 215.28 30.217864923747403 299 30.379679144385 299 C 30.549842790651404 299 30.634924613784598 239.2 30.805088260051 239.2 C 30.981131783521 239.2 31.069153545256 239.2 31.245197068726 251.16 C 31.407011289364 263.12 31.487918399682997 299 31.649732620321 299 C 31.819073083779 299 31.903743315508002 299 32.073083778966 299 C 32.4105887304416 299 32.5793412061794 263.12 32.916846157655 263.12 C 32.9180221330958 263.12 32.9186101208162 299 32.919786096257 299 C 33.092066498316605 299 33.178206699346404 251.16 33.350487101406 251.16 C 33.521238735393204 251.16 33.6066145523868 251.16 33.777366186374 251.16 C 33.9423555407016 251.16 34.0248502178654 299 34.189839572193 299 C 34.359180035651 299 34.44385026738 299 34.613190730838 299 C 34.782531194296 299 34.867201426025 299 35.036541889483 299 C 35.21823009506819 299 35.309074197860795 273.30082644627316 35.490762403446 263.12 C 35.6505774658348 254.16482644627314 35.7304849970292 251.16 35.890300059418 251.16 C 36.0568181818184 251.16 36.1400772430186 299 36.306595365419 299 C 36.475935828877 299 36.560606060606 299 36.729946524064 299 C 36.899286987522 299 36.983957219250996 299 37.153297682709 299 C 37.3226381461674 299 37.407308377896605 299 37.576648841355 299 C 37.745989304813 299 37.830659536542 299 38 299 C 38.169340463458 299 38.254010695187 299 38.423351158645 299 C 38.592691622103395 299 38.6773618538326 299 38.846702317291 299 C 39.180561744900196 299 39.3474914587048 239.2 39.681350886314 239.2 C 39.6861723856208 239.2 39.6885831352742 299 39.693404634581 299 C 39.862745098039 299 39.947415329768 191.35999999999999 40.116755793226 191.35999999999999 C 40.2860962566844 191.35999999999999 40.370766488413594 299 40.540106951872 299 C 40.70944741533 299 40.794117647059 299 40.963458110517 299 C 41.2936720142602 299 41.4587789661318 215.28 41.788992869875 215.28 C 41.964213210536606 215.28 42.051823380867404 251.16 42.227043721529 251.16 C 42.3973249653398 251.16 42.4824655872452 227.24 42.652746831056 227.24 C 42.6543931966728 227.24 42.6552163794812 299 42.656862745098 299 C 42.826203208556 299 42.910873440285 299 43.080213903743 299 C 43.2495543672014 299 43.334224598930604 299 43.503565062389 299 C 43.672905525847 299 43.757575757576 299 43.926916221034 299 C 44.2197341057636 299 44.3661430481284 215.28 44.658960932858 215.28 C 44.7102334620716 215.28 44.7358697266784 275.08 44.787142255892 275.08 C 44.963656169538396 275.08 45.051913126361605 227.24 45.228427040008 227.24 C 45.3851845662508 227.24 45.4635633293722 227.24 45.620320855615 227.24 C 45.789661319073 227.24 45.874331550802005 299 46.04367201426 299 C 46.21301247771841 299 46.2976827094476 299 46.467023172906 299 C 46.636363636364 299 46.721033868093 299 46.890374331551 299 C 47.05971479500899 299 47.144385026738 299 47.313725490196 299 C 47.483065953654 299 47.567736185383 299 47.737076648841 299 C 47.915119330560195 299 48.0041406714198 239.2 48.182183353139 239.2 C 48.3428215983362 239.2 48.4231407209348 299 48.583778966132 299 C 48.9108177361856 299 49.074337121212395 239.2 49.401375891266 239.2 C 49.41301804812839 239.2 49.4188391265596 299 49.430481283422 299 C 49.599821746880394 299 49.6844919786096 155.48 49.853832442068 155.48 C 50.190279015646794 155.48 50.3585023024362 155.48 50.694948876015 203.32 C 50.6971832293522 251.16 50.698300406020806 299 50.700534759358 299 C 50.869875222816404 299 50.954545454545595 299 51.123885918004 299 C 51.293226381462 299 51.377896613191 299 51.547237076649 299 C 51.8181818181818 299 51.9536541889482 282.3935959195064 52.224598930481 251.16 C 52.3686559219646 234.5535959195064 52.44068441770641 179.39999999999998 52.58474140919 179.39999999999998 C 52.7097475985344 179.39999999999998 52.772250693206594 275.08 52.897256882551 275.08 C 53.20195211923139 275.08 53.3542997375716 215.28 53.658994974252 215.28 C 53.660994132501195 215.28 53.661993711625804 299 53.663992869875 299 C 53.958104327589396 299 54.10516005644661 191.35999999999999 54.399271514161 191.35999999999999 C 54.5389773965142 191.35999999999999 54.608830337690804 191.35999999999999 54.748536220044 203.32 C 54.8227402703508 215.28 54.8598422955042 299 54.934046345811 299 C 55.2612027134086 299 55.42478089720739 239.2 55.751937264805 239.2 C 55.76346182412381 239.2 55.7692241037832 299 55.780748663102 299 C 55.95008912656 299 56.034759358289 299 56.204099821747 299 C 56.3757922360866 299 56.461638443256405 239.2 56.633330857596 239.2 C 56.8003193701724 239.2 56.88381362646061 299 57.050802139037 299 C 57.220142602495415 299 57.30481283422459 299 57.474153297683 299 C 57.643493761140995 299 57.72816399287001 299 57.897504456328 299 C 58.066844919786 299 58.151515151515 299 58.320855614973 299 C 58.4901960784314 299 58.5748663101606 299 58.744206773619 299 C 59.0786541889486 299 59.2458778966134 263.12 59.580325311943 263.12 C 59.584558823529406 263.12 59.5866755793226 299 59.590909090909 299 C 59.760249554367 299 59.844919786096 155.48 60.014260249554 155.48 C 60.3411814220636 155.48 60.5046420083184 251.16 60.831563180828 251.16 C 61.010193850267605 251.16 61.099509184987404 191.35999999999999 61.278139854427 191.35999999999999 C 61.447480317885 191.35999999999999 61.532150549614 239.2 61.701491013072 251.16 C 61.8304955189148 263.12 61.8949977718362 251.16 62.024002277679 263.12 C 62.066807783719796 275.08000000000004 62.0882105367402 299 62.131016042781 299 C 62.300356506239 299 62.385026737968 299 62.554367201426 299 C 62.885874678153996 299 63.051628416518 227.24 63.383135893246 227.24 C 63.5404814072092 227.24 63.619154164190796 227.24 63.776499678154 227.24 C 63.79566807783719 227.24 63.805252277678804 299 63.824420677362 299 C 64.1527530204 299 64.316919191919 239.2 64.645251534957 239.2 C 64.655600118835 239.2 64.660774410774 299 64.671122994652 299 C 64.84046345811039 299 64.9251336898396 215.28 65.094474153298 215.28 C 65.41833778966159 215.28 65.5802696078434 239.2 65.904133244207 239.2 C 66.0781776094278 239.2 66.1651997920382 203.32 66.339244157259 203.32 C 66.5072910477322 203.32 66.59131449296879 275.08 66.759361383442 275.08 C 66.9268202861952 275.08 67.0105497375718 263.12 67.178008640325 263.12 C 67.3459379332542 263.12 67.4299025797188 287.04 67.597831872648 287.04 C 67.76517317785681 287.04 67.84884383046119 215.28 68.01618513567 215.28 C 68.181292087542 215.28 68.263845563478 251.16 68.42895251535 251.16 C 68.44988487819401 251.16 68.460351059616 179.39999999999998 68.48128342246 179.39999999999998 C 68.80585264408799 179.39999999999998 68.968137254902 227.24 69.29270647653 227.24 C 69.306818181818 227.24 69.313874034462 131.56 69.32798573975 131.56 C 69.6456167062784 131.56 69.80443218954261 263.12 70.122063156071 263.12 C 70.14311311645899 263.12 70.153638096653 155.48 70.174688057041 155.48 C 70.344028520499 155.48 70.428698752228 299 70.598039215686 299 C 70.7673796791444 299 70.8520499108736 299 71.021390374332 299 C 71.3361989998024 299 71.4936033125376 263.12 71.808411938008 263.12 C 71.8322842394536 263.12 71.8442203901764 299 71.868092691622 299 C 72.18443008516519 299 72.3425987819368 299 72.65893617548 299 C 72.82827663893839 299 72.91294687066758 299 73.082287334126 263.12 C 73.1046308674988 227.24 73.1158026341852 107.63999999999999 73.138146167558 107.63999999999999 C 73.307486631016 107.63999999999999 73.392156862745 141.12800000000001 73.561497326203 155.48 C 73.730837789661 169.832 73.81550802139 164.3841026883085 73.984848484848 179.39999999999998 C 74.3010682808472 207.44010268830854 74.45917817884681 263.12 74.775397974846 263.12 C 74.7978591057632 263.12 74.8090896712218 179.39999999999998 74.831550802139 179.39999999999998 C 75.14365468409581 179.39999999999998 75.2997066250742 239.2 75.611810507031 239.2 C 75.79126435927898 239.2 75.880991285403 239.2 76.060445137651 239.2 C 76.07690879382059 239.2 76.08514062190541 299 76.101604278075 299 C 76.270944741533 299 76.355614973262 59.79999999999998 76.52495543672 59.79999999999998 C 76.694295900178 59.79999999999998 76.778966131907 155.48000000005618 76.948306595365 203.32 C 77.1176470588234 251.16000000005621 77.2023172905526 299 77.371657754011 299 C 77.6877599524662 299 77.8458110516938 203.32 78.161913250149 203.32 C 78.1844919786098 203.32 78.1957813428402 299 78.218360071301 299 C 78.5305815508018 299 78.6866922905522 251.16 78.998913770053 251.16 C 79.0253732174686 251.16 79.03860294117639 299 79.065062388592 299 C 79.23440285205 299 79.31907308377899 299 79.488413547237 299 C 79.80510373341261 299 79.96344882650041 227.24 80.280139012676 227.24 C 80.44900908595761 227.24 80.53344412259841 227.24 80.70231419588 227.24 C 80.7247753267972 227.24 80.7360058922558 299 80.758467023173 299 C 81.068924539513 299 81.224153297683 227.24 81.534610814023 227.24 C 81.562834224599 227.24 81.57694592988699 299 81.605169340463 299 C 81.9210363438302 299 82.0789698455138 239.2 82.394836848881 239.2 C 82.5599438007526 239.2 82.64249727668839 239.2 82.80760422856 239.2 C 82.83465166369561 239.2 82.8481753812634 107.63999999999999 82.875222816399 107.63999999999999 C 83.0445632798574 107.63999999999999 83.1292335115866 143.5199999999578 83.298573975045 179.39999999999998 C 83.467914438503 215.27999999995782 83.552584670232 275.08000000000004 83.72192513369 287.04 C 83.891265597148 299 83.975935828877 299 84.145276292335 299 C 84.4716094771242 299 84.63477606951881 239.2 84.961109254308 239.2 C 84.9734569964352 239.2 84.9796308674988 299 84.991978609626 299 C 85.1667285601112 299 85.2541035353538 203.32 85.428853485839 203.32 C 85.5927844622698 203.32 85.6747499504852 299 85.838680926916 299 C 86.0080213903744 299 86.0926916221036 299 86.262032085562 299 C 86.43137254902 299 86.516042780749 179.39999999999998 86.685383244207 179.39999999999998 C 86.85472370766499 179.39999999999998 86.939393939394 299 87.108734402852 299 C 87.426130174292 299 87.584828060012 261.29340307993635 87.902223831452 239.2 C 88.0659196127948 227.80540307993633 88.1477675034662 215.28 88.311463284809 215.28 C 88.4849196623094 215.28 88.57164785105961 234.47162790698428 88.74510422856 251.16 C 88.86999282036041 263.1756279069843 88.9324371162606 287.04 89.057325708061 287.04 C 89.27100044563261 287.04 89.3778378144184 251.16 89.59151255199 251.16 C 89.6144440730836 251.16 89.62590983363039 299 89.648841354724 299 C 89.818181818182 299 89.90285204991099 299 90.072192513369 299 C 90.24153297682699 299 90.326203208556 167.44 90.495543672014 167.44 C 90.6648841354724 167.44 90.74955436720158 299 90.91889483066 299 C 91.088235294118 299 91.172905525847 299 91.342245989305 299 C 91.511586452763 299 91.596256684492 299 91.76559714795 299 C 91.934937611408 299 92.01960784313701 299 92.188948306595 299 C 92.3582887700534 299 92.4429590017826 299 92.612299465241 299 C 92.781639928699 299 92.866310160428 299 93.035650623886 299 C 93.204991087344 299 93.289661319073 299 93.459001782531 299 C 93.628342245989 299 93.713012477718 299 93.882352941176 299 C 94.05169340463439 299 94.1363636363636 299 94.305704099822 299 C 94.47504456328 299 94.559714795009 299 94.729055258467 299 C 94.898395721925 299 94.983065953654 299 95.152406417112 299 C 95.32174688057042 299 95.4064171122996 299 95.575757575758 299 C 95.745098039216 299 95.82976827094501 299 95.999108734403 299 C 96.16844919786101 299 96.25311942959 299 96.422459893048 299 C 96.59180035650601 299 96.676470588235 299 96.845811051693 299 C 97.01515151515142 299 97.09982174688061 299 97.269162210339 299 C 97.438502673797 299 97.523172905526 299 97.692513368984 299 C 97.861853832442 299 97.94652406417099 299 98.115864527629 299 C 98.2852049910874 299 98.3698752228166 299 98.539215686275 299 C 98.708556149733 299 98.793226381462 299 98.96256684492 299 C 99.131907308378 299 99.21657754010701 299 99.385918003565 299 C 99.555258467023 299 99.639928698752 299 99.80926916221 299 C 99.97860962566999 299 100.06327985739999 299 100.23262032086 299 C 100.401960784316 299 100.486631016044 299 100.6559714795 299 C 100.82531194296 299 100.90998217469 299 101.07932263815 299 C 101.24866310160601 299 101.33333333333401 299 101.50267379679 299 C 101.83441646860601 299 102.000287804514 275.08 102.33203047633 275.08 C 102.33896873143 275.08 102.34243785898 299 102.34937611408 299 C 102.51871657754 299 102.60338680927 299 102.77272727273 299 C 102.942067736186 299 103.026737967914 299 103.19607843137 299 C 103.36541889483001 299 103.45008912656002 299 103.61942959002 299 C 103.78877005347599 299 103.873440285204 299 104.04278074866 299 C 104.21212121212 299 104.29679144385 299 104.46613190731 299 C 104.635472370766 299 104.72014260249401 299 104.88948306595 299 C 105.05882352941 299 105.14349376114001 299 105.3128342246 299 C 105.48217468805599 299 105.56684491978399 299 105.73618538324 299 C 105.90552584669999 299 105.99019607842999 299 106.15953654189 299 C 106.328877005346 299 106.413547237074 299 106.58288770053 299 C 106.75222816399 299 106.83689839571998 299 107.00623885918 299 C 107.17557932263999 299 107.26024955437 299 107.42959001783 299 C 107.59893048128599 299 107.68360071301399 299 107.85294117647 299 C 108.02228163993 299 108.10695187166 299 108.27629233512 299 C 108.612150920976 299 108.78008021390401 203.32 109.11593879976 203.32 C 109.11876114082001 203.32 109.12017231135 299 109.12299465241 299 C 109.293275896218 299 109.37841651812201 287.04 109.54869776193 287.04 C 109.71709744503801 287.04 109.80129728659199 299 109.9696969697 299 C 110.142330164392 299 110.22864676173799 299 110.40127995643 263.12 C 110.56732768865399 227.24 110.650351554766 119.6 110.81639928699 119.6 C 110.98573975044602 119.6 111.07040998217401 299 111.23975044563 299 C 111.40909090909 299 111.49376114082001 251.16 111.66310160428 251.16 C 111.995079471184 251.16 112.16106840463598 251.16 112.49304627154 251.16 C 112.634868909684 251.16 112.705780228756 251.16 112.8476028669 263.12 C 112.881823752224 275.08000000000004 112.89893419488601 299 112.93315508021 299 C 113.10249554367002 299 113.18716577540002 299 113.35650623886 299 C 113.52584670231599 299 113.610516934044 299 113.7798573975 299 C 113.94919786096 299 114.03386809269 299 114.20320855615 299 C 114.37254901961 299 114.45721925133998 299 114.6265597148 299 C 114.79590017825599 299 114.88057040998399 299 115.04991087344 299 C 115.21925133689999 299 115.30392156862999 299 115.47326203209 299 C 115.642602495546 299 115.727272727274 299 115.89661319073 299 C 116.06595365418998 299 116.15062388592 299 116.31996434938 299 C 116.50035898198 299 116.59055629827999 227.24 116.77095093088 227.24 C 116.92923722519599 227.24 117.00838037235401 299 117.16666666667 299 C 117.33600713012599 299 117.42067736185399 299 117.59001782531 299 C 117.924935630818 299 118.09239453357199 263.12 118.42731233908 263.12 C 118.431075460488 263.12 118.43295702119198 299 118.4367201426 299 C 118.60606060606001 299 118.69073083778999 299 118.86007130125 299 C 119.029411764706 299 119.11408199643401 299 119.28342245989 299 C 119.45276292335 299 119.53743315508 299 119.70677361854 299 C 119.87611408199601 299 119.960784313724 299 120.13012477718 299 C 120.29946524063999 299 120.38413547237 191.35999999999999 120.55347593583 191.35999999999999 C 120.72281639928602 191.35999999999999 120.80748663101399 299 120.97682709447 299 C 121.14616755793 299 121.23083778966001 191.36000000042003 121.40017825312 155.48 C 121.56951871657603 119.60000000042001 121.654188948304 119.6 121.82352941176 119.6 C 121.99286987522001 119.6 122.07754010695001 155.480000000003 122.24688057041 191.35999999999999 C 122.41622103387002 227.240000000003 122.50089126560002 299 122.67023172906 299 C 122.998799267184 299 123.16308303624601 251.16 123.49165057437 251.16 C 123.501763963162 251.16 123.506820657558 299 123.51693404635 299 C 123.686274509806 299 123.77094474153401 191.35999999999999 123.94028520499 191.35999999999999 C 124.10962566845001 191.35999999999999 124.19429590017998 299 124.36363636364 299 C 124.5388567043 299 124.62646687463 251.16 124.80168721529 251.16 C 124.96514780154598 251.16 125.046878094674 299 125.21033868093 299 C 125.379679144386 299 125.46434937611397 299 125.63368983957 299 C 125.80303030302998 299 125.88770053476 119.6 126.05704099822 119.6 C 126.39536913250399 119.6 126.56453319964601 263.12 126.90286133393 263.12 C 127.04292000891401 263.12 127.112949346406 251.16 127.25300802139 251.16 C 127.28264260249401 251.16 127.29745989304601 299 127.32709447415 299 C 127.49643493761 299 127.58110516934 299 127.7504456328 299 C 127.91978609625599 299 128.004456327984 191.35999999999999 128.17379679144 191.35999999999999 C 128.3431372549 191.35999999999999 128.42780748663 299 128.59714795009 299 C 128.92030600119 299 129.08188502674 251.16 129.40504307784 251.16 C 129.42056595365597 251.16 129.42832739156398 299 129.44385026738 299 C 129.613190730836 299 129.697860962564 119.6 129.86720142602 119.6 C 130.03654188948 119.6 130.12121212121002 299 130.29055258467 299 C 130.45989304813003 299 130.54456327986 299 130.71390374332 299 C 130.883244206776 299 130.967914438504 191.35999999999999 131.13725490196 191.35999999999999 C 131.453121905328 191.35999999999999 131.611055407012 275.08 131.92692241038 275.08 C 132.08932461873601 275.08 132.170525722914 263.12 132.33292793127 263.12 C 132.362680109922 263.12 132.377556199248 299 132.4073083779 299 C 132.576648841356 299 132.661319073084 299 132.83065953654 299 C 133.159227074668 299 133.32351084373198 263.12 133.65207838186 263.12 C 133.662191770648 263.12 133.667248465042 299 133.67736185383 299 C 133.99299366211 299 134.15080956625002 263.12 134.46644137453 263.12 C 134.489490493166 263.12 134.50101505248398 299 134.52406417112 299 C 134.69340463457996 299 134.77807486631 299 134.94741532977 299 C 135.26645746682598 299 135.42597853535398 227.24 135.74502067241 227.24 C 135.913420355514 227.24 135.997620197066 251.16 136.16601988017 251.16 C 136.18659945038203 251.16 136.19688923548802 119.6 136.2174688057 119.6 C 136.532983016436 119.6 136.690740121804 208.22858333303228 137.00625433254 275.08 C 137.02942104872 279.9885833330323 137.04100440681 299 137.06417112299 299 C 137.23351158645 299 137.31818181818 227.24 137.48752228164 227.24 C 137.6568627451 227.24 137.74153297683 299 137.91087344029 299 C 138.08021390374603 299 138.16488413547398 167.44 138.33422459893 167.44 C 138.650091602298 167.44 138.808025103982 167.44 139.12389210735 215.28 C 139.14670603089797 263.12 139.158112992672 299 139.18092691622 299 C 139.35026737968002 299 139.43493761141 299 139.60427807487 299 C 139.773618538326 299 139.858288770054 299 140.02762923351 299 C 140.19696969697003 299 140.2816399287 299 140.45098039216 299 C 140.620320855616 299 140.704991087344 299 140.8743315508 299 C 141.19172732224 299 141.35042520796 275.4421175363394 141.6678209794 251.16 C 141.85068516042801 237.17011753633938 141.942117250942 203.32 142.12498143197 203.32 C 142.132742869878 203.32 142.136623588832 299 142.14438502674 299 C 142.313725490196 299 142.398395721924 299 142.56773618538 299 C 142.73707664884 299 142.82174688057 299 142.99108734403 299 C 143.160427807486 299 143.245098039214 299 143.41443850267 299 C 143.58377896613 299 143.66844919785999 155.48 143.83778966132 155.48 C 144.00713012477598 155.48 144.09180035650397 299 144.26114081996 299 C 144.43048128341997 299 144.51515151515 155.48 144.68449197861 155.48 C 144.853832442066 155.48 144.93850267379398 299 145.10784313725 299 C 145.27718360070998 299 145.36185383244 299 145.5311942959 299 C 145.70053475935998 299 145.78520499108998 227.24 145.95454545455 227.24 C 146.277703505646 227.24 146.439282531194 227.24 146.76244058229 227.24 C 146.77796345811 227.24 146.78572489601999 191.35999999999999 146.80124777184 155.48 C 146.97058823529602 119.6 147.05525846702398 119.6 147.22459893048 119.6 C 147.541524311744 119.6 147.699987002376 136.16958333320505 148.01691238364 203.32 C 148.038667929292 207.92958333320504 148.049545702118 299 148.07130124777 299 C 148.24064171123 299 148.32531194296 299 148.49465240642 299 C 148.66399286987598 299 148.748663101604 299 148.91800356506 299 C 149.08734402852002 299 149.17201426025 299 149.34135472371 299 C 149.510695187166 299 149.595365418894 203.32 149.76470588235 203.32 C 149.93404634581003 203.32 150.01871657754 299 150.188057041 299 C 150.357397504456 299 150.44206773618401 299 150.61140819964 299 C 150.892819122596 299 151.03352458407397 239.2 151.31493550703 239.2 C 151.37220551099 239.2 151.40084051296998 299 151.45811051693 299 C 151.62745098039 299 151.71212121212 275.08 151.88146167558 275.08 C 152.050802139036 275.08 152.135472370764 299 152.30481283422 299 C 152.47415329768 299 152.55882352941 155.48 152.72816399287 155.48 C 152.89750445632998 155.48 152.98217468805998 155.48 153.15151515152 179.39999999999998 C 153.32085561497598 203.31999999999996 153.405525846704 299 153.57486631016 299 C 153.74420677362 299 153.82887700534997 299 153.99821746881 299 C 154.167557932266 299 154.252228163994 299 154.42156862745 299 C 154.59090909091 299 154.67557932263998 179.39999999999998 154.8449197861 179.39999999999998 C 155.014260249556 179.39999999999998 155.09893048128401 299 155.26827094474 299 C 155.43761140819998 299 155.52228163993 179.39999999999998 155.69162210339 179.39999999999998 C 155.860962566846 179.39999999999998 155.94563279857397 179.400000000281 156.11497326203 203.32 C 156.28431372549 227.24000000028101 156.36898395722 299 156.53832442068 299 C 156.70766488413602 299 156.79233511586398 203.32 156.96167557932 203.32 C 157.13101604278 203.32 157.21568627451 208.1039999997752 157.38502673797 227.24 C 157.55436720142603 246.3759999997752 157.639037433154 299 157.80837789661 299 C 157.97771836007 299 158.06238859180002 299 158.23172905526 299 C 158.40106951871599 299 158.485739750444 299 158.6550802139 299 C 158.82442067736002 299 158.90909090909 203.32 159.07843137255 203.32 C 159.247771836006 203.32 159.332442067734 203.32 159.50178253119 203.32 C 159.67112299465003 203.32 159.75579322638 299 159.92513368984 299 C 160.094474153296 299 160.17914438502402 299 160.34848484848 299 C 160.51782531194002 299 160.60249554367002 299 160.77183600713 299 C 160.94117647059 299 161.02584670232 203.32 161.19518716578 203.32 C 161.364527629236 203.32 161.449197860964 299 161.61853832442 299 C 161.893246187364 299 162.030600118836 270.24284444456157 162.30530798178 239.2 C 162.369281045752 231.97084444456152 162.401267577738 203.32 162.46524064171 203.32 C 162.63458110516999 203.32 162.7192513369 299 162.88859180036 299 C 163.05793226381599 299 163.142602495544 179.39999999999998 163.311942959 179.39999999999998 C 163.48128342246 179.39999999999998 163.56595365418997 299 163.73529411765 299 C 163.904634581106 299 163.989304812834 299 164.15864527629 299 C 164.32798573975 299 164.41265597147998 179.39999999999998 164.58199643494 179.39999999999998 C 164.751336898396 179.39999999999998 164.83600713012402 299 165.00534759358 299 C 165.17468805704 299 165.25935828877 275.080000000281 165.42869875223 251.16 C 165.59803921568601 227.24000000028101 165.68270944741397 179.39999999999998 165.85204991087 179.39999999999998 C 166.02139037433 179.39999999999998 166.10606060606 299 166.27540106952 299 C 166.44474153297602 299 166.52941176470398 299 166.69875222816 299 C 166.86809269162 299 166.95276292335 260.7280000003934 167.12210338681 227.24 C 167.29144385026603 193.75200000039345 167.376114081994 131.56 167.54545454545 131.56 C 167.71479500891002 131.56 167.79946524064002 169.8320000000028 167.9688057041 203.32 C 168.13814616756 236.8080000000028 168.22281639929002 299 168.39215686275 299 C 168.56149732620602 299 168.646167557934 299 168.81550802139 299 C 168.98484848485 299 169.06951871658003 299 169.23885918004 299 C 169.40819964349603 299 169.49286987522402 299 169.66221033868 299 C 169.83155080214001 299 169.91622103387 179.39999999999998 170.08556149733 179.39999999999998 C 170.254901960786 179.39999999999998 170.339572192514 299 170.50891265597 299 C 170.67825311943 299 170.76292335116 155.48 170.93226381462 155.48 C 171.101604278076 155.48 171.186274509804 299 171.35561497326 299 C 171.52495543672 299 171.60962566845 299 171.77896613191 299 C 171.948306595366 299 172.03297682709402 299 172.20231729055 299 C 172.37165775401 299 172.45632798574 155.48 172.6256684492 155.48 C 172.795008912656 155.48 172.879679144384 174.61600000033965 173.04901960784 203.32 C 173.2183600713 232.02400000033964 173.30303030302997 299 173.47237076649 299 C 173.641711229946 299 173.726381461674 251.16 173.89572192513 251.16 C 174.06506238859 251.16 174.14973262031998 299 174.31907308378 299 C 174.488413547236 299 174.57308377896402 299 174.74242424242 299 C 174.91176470588 299 174.99643493761 299 175.16577540107 299 C 175.335115864526 299 175.419786096254 251.159999999717 175.58912655971 227.24 C 175.75846702317 203.31999999971697 175.8431372549 179.39999999999998 176.01247771836 179.39999999999998 C 176.18181818182 179.39999999999998 176.26648841355 193.75199999988757 176.43582887701 203.32 C 176.60516934046603 212.88799999988757 176.689839572194 208.10400000022324 176.85918003565 227.24 C 177.02852049911 246.37600000022323 177.11319073084002 299 177.2825311943 299 C 177.45187165775602 299 177.536541889484 299 177.70588235294 299 C 177.8752228164 299 177.95989304813003 299 178.12923351159 299 C 178.29857397504603 299 178.383244206774 299 178.55258467023 299 C 178.72192513369 299 178.80659536542004 299 178.97593582888 299 C 179.145276292336 299 179.22994652406402 155.48 179.39928698752 155.48 C 179.56862745098 155.48 179.65329768271 299 179.82263814617 299 C 179.991978609626 299 180.076648841354 299 180.24598930481 299 C 180.41532976827 299 180.5 299 180.66934046346 299 C 180.838680926916 299 180.923351158644 299 181.0926916221 299 C 181.26203208556 299 181.34670231729 299 181.51604278075 299 C 181.685383244206 299 181.770053475934 299 181.93939393939 299 C 182.10873440285 299 182.19340463457996 251.16 182.36274509804 251.16 C 182.532085561496 251.16 182.616755793224 299 182.78609625668 299 C 182.95543672014 299 183.04010695186997 299 183.20944741533 299 C 183.37878787878998 299 183.46345811052 227.24 183.63279857398 227.24 C 183.802139037436 227.24 183.886809269164 299 184.05614973262 299 C 184.22549019608 299 184.31016042781002 299 184.47950089127 299 C 184.64884135472602 299 184.73351158645397 299 184.90285204991 299 C 185.07219251337 299 185.1568627451 179.39999999999998 185.32620320856 179.39999999999998 C 185.49554367201603 179.39999999999998 185.58021390374398 299 185.7495543672 299 C 185.91889483066 299 186.00356506239 299 186.17290552585 299 C 186.342245989306 299 186.426916221034 203.32 186.59625668449 203.32 C 186.76559714795 203.32 186.85026737968002 299 187.01960784314 299 C 187.18894830659602 299 187.273618538324 299 187.44295900178 299 C 187.61229946524 299 187.69696969697003 299 187.86631016043 299 C 188.03565062388603 299 188.120320855614 299 188.28966131907 299 C 188.45900178253 299 188.54367201426004 246.37600000022482 188.71301247772 227.24 C 188.882352941176 208.10400000022483 188.96702317290402 203.32 189.13636363636 203.32 C 189.30570409982 203.32 189.39037433155 299 189.55971479501 299 C 189.729055258466 299 189.813725490194 236.80799999960374 189.98306595365 203.32 C 190.15240641711 169.83199999960374 190.23707664884 131.56 190.4064171123 131.56 C 190.575757575756 131.56 190.660427807484 299 190.82976827094 299 C 190.99910873439998 299 191.08377896612998 203.32 191.25311942959 203.32 C 191.42245989304996 203.32 191.50713012478 299 191.67647058824 299 C 191.845811051696 299 191.93048128342397 299 192.09982174688 299 C 192.26916221033997 299 192.35383244207 299 192.52317290553 299 C 192.692513368986 299 192.77718360071398 299 192.94652406417 299 C 193.11586452762998 299 193.20053475936 203.32 193.36987522282 203.32 C 193.539215686276 203.32 193.623885918004 203.32 193.79322638146 203.32 C 193.96256684492 203.32 194.04723707665 203.32 194.21657754011 203.32 C 194.38591800356602 203.32 194.47058823529397 299 194.63992869875 299 C 194.80926916221 299 194.89393939394 299 195.0632798574 299 C 195.23262032085603 299 195.31729055258398 155.48 195.48663101604 155.48 C 195.65597147949998 155.48 195.74064171123 174.61599999966518 195.90998217469 203.32 C 196.079322638146 232.02399999966516 196.163992869874 299 196.33333333333 299 C 196.50267379679 299 196.58734402852002 227.24 196.75668449198 227.24 C 196.92602495543602 227.24 197.010695187164 299 197.18003565062 299 C 197.34937611408 299 197.43404634581003 299 197.60338680927 299 C 197.77272727272603 299 197.857397504454 299 198.02673796791 299 C 198.19607843137 299 198.28074866309998 299 198.45008912656 299 C 198.61942959001598 299 198.704099821744 299 198.8734402852 299 C 199.04278074866 299 199.12745098039 203.32 199.29679144385 203.32 C 199.46613190731 203.32 199.55080213904 299 199.7201426025 299 C 199.889483065956 299 199.974153297684 299 200.14349376114 299 C 200.3128342246 299 200.39750445632998 299 200.56684491979 299 C 200.73618538324598 299 200.82085561497396 299 200.99019607843 299 C 201.15953654188996 299 201.24420677362 203.32 201.41354723708 203.32 C 201.582887700536 203.32 201.66755793226397 299 201.83689839572 299 C 202.00623885917997 299 202.09090909091 299 202.26024955437 299 C 202.429590017826 299 202.51426024955398 299 202.68360071301 299 C 202.85294117646998 299 202.9376114082 299 203.10695187166 299 C 203.276292335116 299 203.36096256684397 299 203.5303030303 299 C 203.69964349376 299 203.78431372549 232.02400000033722 203.95365418895 203.32 C 204.12299465240602 174.61600000033724 204.20766488413398 155.48 204.37700534759 155.48 C 204.54634581105 155.48 204.63101604278 169.83199999988676 204.80035650624 179.39999999999998 C 204.969696969696 188.96799999988679 205.054367201424 179.40000000027902 205.22370766488 203.32 C 205.39304812833998 227.24000000027903 205.47771836007 299 205.64705882353 299 C 205.816399286986 299 205.901069518714 251.16 206.07040998217 251.16 C 206.23975044563 251.16 206.32442067736002 299 206.49376114082 299 C 206.66310160428003 299 206.74777183601 299 206.91711229947 299 C 207.086452762926 299 207.171122994654 203.32 207.34046345811 203.32 C 207.50980392156998 203.32 207.5944741533 299 207.76381461676 299 C 207.93315508021595 299 208.017825311944 299 208.1871657754 299 C 208.35650623886 299 208.44117647059002 299 208.61051693405 299 C 208.77985739750602 299 208.864527629234 179.39999999999998 209.03386809269 179.39999999999998 C 209.20320855615 179.39999999999998 209.28787878787998 179.39999999999998 209.45721925134 179.39999999999998 C 209.62655971479597 179.39999999999998 209.711229946524 203.32000000028302 209.88057040998 227.24 C 210.04991087344 251.16000000028305 210.13458110516999 299 210.30392156863 299 C 210.47326203208598 299 210.55793226381397 299 210.72727272727 299 C 210.89661319072997 299 210.98128342246 299 211.15062388592 299 C 211.319964349376 299 211.40463458110398 299 211.57397504456 299 C 211.74331550801998 299 211.82798573975 299 211.99732620321 299 C 212.166666666666 299 212.251336898394 299 212.42067736185 299 C 212.59001782530999 299 212.67468805704002 203.32 212.8440285205 203.32 C 213.013368983956 203.32 213.098039215684 208.10400000022645 213.26737967914 227.24 C 213.4367201426 246.37600000022644 213.52139037433 299 213.69073083779 299 C 213.860071301246 299 213.94474153297398 275.08 214.11408199643 275.08 C 214.28342245988998 275.08 214.36809269162003 299 214.53743315508 299 C 214.70677361854 299 214.79144385027 299 214.96078431373 299 C 215.13012477718598 299 215.214795008914 155.48 215.38413547237 155.48 C 215.55347593583002 155.48 215.63814616756 299 215.80748663102 299 C 215.976827094476 299 216.061497326204 217.6719999995439 216.23083778966 179.39999999999998 C 216.40017825312003 141.12799999954393 216.48484848485 107.63999999999999 216.65418894831 107.63999999999999 C 216.823529411766 107.63999999999999 216.90819964349402 299 217.07754010695 299 C 217.24688057041004 299 217.33155080214001 299 217.5008912656 299 C 217.670231729056 299 217.754901960784 299 217.92424242424 299 C 218.0935828877 299 218.17825311942997 299 218.34759358289 299 C 218.51693404634597 299 218.601604278074 299 218.77094474153 299 C 218.94028520499 299 219.02495543672003 299 219.19429590018 299 C 219.36363636363603 299 219.44830659536402 299 219.61764705882 299 C 219.78698752228001 299 219.87165775401 227.24 220.04099821747 227.24 C 220.210338680926 227.24 220.29500891265397 299 220.46434937611 299 C 220.63368983956997 299 220.7183600713 299 220.88770053476 299 C 221.057040998216 299 221.14171122994398 299 221.3110516934 299 C 221.48039215685998 299 221.56506238859 299 221.73440285205 299 C 221.90374331551 299 221.98841354724 246.37600000022482 222.1577540107 227.24 C 222.327094474156 208.10400000022483 222.41176470588397 203.32 222.58110516934 203.32 C 222.7504456328 203.32 222.83511586452997 299 223.00445632799 299 C 223.17379679144597 299 223.25846702317403 299 223.42780748663 299 C 223.700639668746 299 223.83705575980403 263.12 224.10988794192 263.12 C 224.17573668672003 263.12 224.20866105912 299 224.27450980392 299 C 224.44385026738001 299 224.52852049911 299 224.69786096257 299 C 224.86720142602599 299 224.951871657754 299 225.12121212121 299 C 225.29055258467002 299 225.3752228164 299 225.54456327986 299 C 225.713903743316 299 225.798573975044 299 225.9679144385 299 C 226.13725490196003 299 226.22192513369 299 226.39126559715 299 C 226.560606060606 299 226.64527629233402 299 226.81461675579 299 C 226.98395721925 299 227.06862745098002 299 227.23796791444 299 C 227.40730837789596 299 227.491978609624 299 227.66131907308 299 C 227.83065953654 299 227.91532976827003 299 228.08467023173 299 C 228.25401069518603 299 228.338680926914 299 228.50802139037 299 C 228.67736185383 299 228.76203208555998 299 228.93137254902 299 C 229.10071301247598 299 229.18538324420402 299 229.35472370766 299 C 229.636795136824 299 229.777830851406 263.12 230.05990228057 263.12 C 230.11651177832601 263.12 230.14481652720397 299 230.20142602496 299 C 230.370766488416 299 230.455436720144 299 230.6247771836 299 C 230.79411764706 299 230.87878787878998 299 231.04812834225 299 C 231.217468805706 299 231.30213903743402 299 231.47147950089 299 C 231.64081996435 299 231.72549019608 299 231.89483065954 299 C 232.06417112299596 299 232.14884135472403 299 232.31818181818 299 C 232.48752228164003 299 232.57219251337 299 232.74153297683 299 C 232.91087344028603 299 232.99554367201398 299 233.16488413547 299 C 233.33422459893 299 233.41889483065998 299 233.58823529412 299 C 233.75757575757598 299 233.84224598930405 299 234.01158645276 299 C 234.18092691622002 299 234.26559714795002 299 234.43493761141 299 C 234.604278074866 299 234.688948306594 299 234.85828877005 299 C 235.02762923351003 299 235.11229946524 299 235.2816399287 299 C 235.450980392156 299 235.535650623884 299 235.70499108734 299 C 235.87433155080004 299 235.95900178253 299 236.12834224599 299 C 236.297682709446 299 236.382352941174 299 236.55169340463 299 C 236.72103386809 299 236.80570409982002 299 236.97504456328 299 C 237.14438502674003 299 237.22905525847 299 237.39839572193 299 C 237.567736185386 299 237.65240641711398 299 237.82174688057 299 C 237.99108734402998 299 238.07575757576 299 238.24509803922 299 C 238.517254035456 299 238.653332033574 275.08 238.92548802981 275.08 C 238.99201296049 275.08 239.02527542583 299 239.09180035651 299 C 239.261140819966 299 239.345811051694 299 239.51515151515 299 C 239.68449197861 299 239.76916221033997 299 239.9385026738 299 C 240.107843137256 299 240.192513368984 299 240.36185383244 299 C 240.5311942959 299 240.61586452762998 299 240.78520499109 299 C 240.954545454546 299 241.03921568627402 299 241.20855614973 299 C 241.37789661319002 299 241.46256684492 299 241.63190730838 299 C 241.80124777183602 299 241.88591800356397 299 242.05525846702 299 C 242.22459893048 299 242.30926916220997 299 242.47860962567 299 C 242.64795008912597 299 242.73262032085404 299 242.90196078431 299 C 243.07130124777004 299 243.1559714795 299 243.32531194296 299 C 243.49465240641598 299 243.579322638144 299 243.7486631016 299 C 243.91800356506002 299 244.00267379679 299 244.17201426025 299 C 244.341354723706 299 244.426024955434 299 244.59536541889 299 C 244.76470588235003 299 244.84937611408 299 245.01871657754 299 C 245.188057041 299 245.27272727273004 299 245.44206773619 299 C 245.61140819964604 299 245.69607843137402 299 245.86541889483 299 C 246.03475935829002 299 246.11942959002 299 246.28877005348 299 C 246.458110516936 299 246.54278074866397 299 246.71212121212 299 C 246.88146167557997 299 246.96613190731 299 247.13547237077 299 C 247.304812834226 299 247.38948306595404 299 247.55882352941 299 C 247.72816399287004 299 247.8128342246 299 247.98217468806 299 C 248.151515151516 299 248.236185383244 299 248.4055258467 299 C 248.57486631016 299 248.65953654188996 299 248.82887700535 299 C 248.998217468806 299 249.082887700534 299 249.25222816399 299 C 249.42156862745 299 249.50623885917997 299 249.67557932264 299 C 249.844919786096 299 249.929590017824 299 250.09893048128 299 C 250.26827094474 299 250.35294117646998 299 250.52228163993 299 C 250.79992160163798 299 250.938741582492 263.12 251.2163815442 263.12 C 251.277422509408 263.12 251.307942992012 299 251.36898395722 299 C 251.53832442067596 299 251.62299465240403 299 251.79233511586 299 C 251.96167557932003 299 252.04634581105 299 252.21568627451 299 C 252.38502673797 299 252.4696969697 299 252.63903743316 299 C 252.808377896616 299 252.893048128344 299 253.0623885918 299 C 253.23172905526 299 253.31639928699002 299 253.48573975045 299 C 253.65508021390602 299 253.739750445634 299 253.90909090909 299 C 254.07843137255 299 254.16310160428003 299 254.33244206774 299 C 254.50178253119603 299 254.586452762924 299 254.75579322638 299 C 254.92513368984 299 255.00980392157004 299 255.17914438503 299 C 255.44599281211003 299 255.57941702565 251.16 255.84626545273 251.16 C 256.00849126477 251.16 256.08960417079 275.08 256.25182998283 275.08 C 256.435533026338 275.08 256.52738454809196 251.16 256.7110875916 251.16 C 256.77567216280397 251.16 256.807964448406 299 256.87254901961 299 C 257.04188948306603 299 257.126559714794 299 257.29590017825 299 C 257.56060637007005 299 257.69295946598004 251.16 257.9576656578 251.16 C 258.03164039289607 251.16 258.068627760444 299 258.14260249554 299 C 258.403306450944 299 258.533658428646 251.16 258.79436238405 251.16 C 258.872339355562 251.16 258.911327841318 299 258.98930481283 299 C 259.15864527629003 299 259.24331550802 299 259.41265597148 299 C 259.68805374001596 299 259.825752624284 239.2 260.10115039282 239.2 C 260.1644335512 239.2 260.19607513039 299 260.25935828877 299 C 260.42869875222993 299 260.51336898396005 299 260.68270944742 299 C 260.94424834538404 299 261.075017794366 275.08 261.33655669233 275.08 C 261.413698721282 275.08 261.452269735758 299 261.52941176471 299 C 261.698752228166 299 261.783422459894 299 261.95276292335 299 C 262.12210338680995 299 262.20677361854007 299 262.376114082 299 C 262.54545454545604 299 262.63012477718405 299 262.79946524064 299 C 262.9688057041 299 263.05347593583 299 263.22281639929 299 C 263.392156862746 299 263.476827094474 299 263.64616755793 299 C 263.81550802139 299 263.90017825312 299 264.06951871658 299 C 264.238859180036 299 264.32352941176396 299 264.49286987522 299 C 264.66221033868 299 264.74688057041 299 264.91622103387 299 C 265.085561497326 299 265.170231729054 299 265.33957219251 299 C 265.50891265597 299 265.5935828877 299 265.76292335116 299 C 265.932263814616 299 266.016934046344 299 266.1862745098 299 C 266.35561497326 299 266.44028520499 299 266.60962566845 299 C 266.77896613190603 299 266.86363636363404 299 267.03297682709 299 C 267.20231729055 299 267.28698752228 299 267.45632798574 299 C 267.6256684492 299 267.71033868093 299 267.87967914439 299 C 268.049019607846 299 268.133689839574 299 268.30303030303 299 C 268.47237076649 299 268.55704099822003 299 268.72638146168 299 C 268.89572192513594 299 268.98039215686396 299 269.14973262032 299 C 269.3190730837799 299 269.40374331551004 299 269.57308377897 299 C 269.902096227802 299 270.06660245221804 227.24 270.39561490105 227.24 C 270.405283379134 227.24 270.410117618176 299 270.41978609626 299 C 270.58912655971596 299 270.673796791444 299 270.8431372549 299 C 271.01247771835995 299 271.09714795009006 299 271.26648841355 299 C 271.43582887700603 299 271.52049910873404 299 271.68983957219 299 C 271.85918003565 299 271.94385026738 299 272.11319073084 299 C 272.282531194296 299 272.367201426024 299 272.53654188948 299 C 272.70588235293997 299 272.7905525846701 299 272.95989304813 299 C 273.129233511586 299 273.213903743314 299 273.38324420677 299 C 273.55258467023 299 273.63725490196 299 273.80659536542 299 C 273.975935828876 299 274.060606060604 299 274.22994652406 299 C 274.39928698752 299 274.48395721925 299 274.65329768271 299 C 274.822638146166 299 274.90730837789397 299 275.07664884135 299 C 275.24598930481 299 275.33065953654 299 275.5 299 C 275.66934046346 299 275.75401069519 299 275.92335115865 299 C 276.09269162210603 299 276.177361853834 299 276.34670231729 299 C 276.51604278075 299 276.60071301248 299 276.77005347594 299 C 276.939393939396 299 277.024064171124 299 277.19340463458 299 C 277.36274509804 299 277.44741532977 299 277.61675579323 299 C 277.786096256686 299 277.870766488414 299 278.04010695187 299 C 278.2094474153299 299 278.29411764706003 299 278.46345811052 299 C 278.632798573976 299 278.717468805704 299 278.88680926916 299 C 279.13597102561596 299 279.260551903844 263.12 279.5097136603 263.12 C 279.59923283076 263.12 279.64399241599 299 279.73351158645 299 C 279.989315644186 299 280.117217673054 251.16 280.37302173079 251.16 C 280.548365548874 251.16 280.636037457916 251.16 280.811381276 251.16 C 280.88825479055606 251.16 280.926691547834 299 281.00356506239 299 C 281.172905525846 299 281.257575757574 299 281.42691622103 299 C 281.59625668448996 299 281.6809269162201 299 281.85026737968 299 C 282.01960784313604 299 282.10427807486406 299 282.27361853832 299 C 282.44295900177997 299 282.52762923351 299 282.69696969697 299 C 282.866310160426 299 282.950980392154 299 283.12032085561 299 C 283.28966131907 299 283.3743315508 299 283.54367201426 299 C 283.71301247772 299 283.79768270945 299 283.96702317291 299 C 284.13636363636596 299 284.22103386809397 299 284.39037433155 299 C 284.55971479501 299 284.64438502674 299 284.8137254902 299 C 284.983065953656 299 285.067736185384 299 285.23707664884 299 C 285.4064171123 299 285.49108734403 299 285.66042780749 299 C 285.829768270946 299 285.914438502674 299 286.08377896613 299 C 286.25311942959 299 286.33778966132 299 286.50713012478 299 C 286.67647058823604 299 286.761140819964 299 286.93048128342 299 C 287.09982174688 299 287.18449197861 299 287.35383244207 299 C 287.523172905526 299 287.607843137254 299 287.77718360071 299 C 288.02598864461396 299 288.150391166566 227.24 288.39919621047 227.24 C 288.489072093482 227.24 288.534010034988 299 288.623885918 299 C 288.79322638145993 299 288.87789661319005 299 289.04723707665 299 C 289.216577540106 299 289.301247771834 299 289.47058823529 299 C 289.63992869875 299 289.72459893048 299 289.89393939394 299 C 290.06327985739597 299 290.147950089124 299 290.31729055258 299 C 290.48663101603995 299 290.57130124777007 299 290.74064171123 299 C 290.9099821746901 299 290.99465240642 299 291.16399286988 299 C 291.33333333333604 299 291.418003565064 299 291.58734402852 299 C 291.75668449198 299 291.84135472370997 299 292.01069518717 299 C 292.180035650626 299 292.26470588235395 299 292.43404634581 299 C 292.60338680927 299 292.688057041 299 292.85739750446 299 C 293.02673796791595 299 293.11140819964396 299 293.2807486631 299 C 293.45008912656 299 293.53475935829 299 293.70409982175 299 C 293.873440285206 299 293.95811051693397 299 294.12745098039 299 C 294.29679144385 299 294.38146167558 299 294.55080213904 299 C 294.72014260249597 299 294.804812834224 299 294.97415329768 299 C 295.14349376114 299 295.22816399287 299 295.39750445633 299 C 295.56684491978604 299 295.651515151514 299 295.82085561497 299 C 295.99019607843 299 296.07486631016 299 296.24420677362 299 C 296.413547237076 299 296.498217468804 299 296.66755793226 299 C 296.83689839571997 299 296.92156862745003 299 297.09090909091 299 C 297.26024955436594 299 297.34491978609395 299 297.51426024955 299 C 297.6836007130099 299 297.76827094474004 299 297.9376114082 299 C 298.106951871656 299 298.191622103384 299 298.36096256684 299 C 298.5303030303 299 298.61497326203 299 298.78431372549 299 C 298.95365418895 299 299.03832442067994 299 299.20766488414 299 C 299.37700534759597 299 299.46167557932404 299 299.63101604278 299 C 299.80035650624006 299 299.88502673797 299 300.05436720143 299 C 300.22370766488604 299 300.308377896614 299 300.47771836007 299 C 300.64705882353 299 300.73172905525996 299 300.90106951872 299 C 301.070409982176 299 301.15508021390406 299 301.32442067736 299 C 301.49376114082 299 301.57843137254997 299 301.74777183601 299 C 301.91711229946594 299 302.00178253119395 299 302.17112299465 299 C 302.34046345811 299 302.42513368984 299 302.5944741533 299 C 302.763814616756 299 302.84848484848396 299 303.01782531194 299 C 303.1871657754 299 303.27183600713 299 303.44117647059 299 C 303.61051693404596 299 303.695187165774 299 303.86452762923 299 C 304.03386809269 299 304.11853832442 299 304.28787878788 299 C 304.457219251336 299 304.541889483064 299 304.71122994652 299 C 304.88057040998 299 304.96524064171 299 305.13458110517 299 C 305.303921568626 299 305.388591800354 299 305.55793226381 299 C 305.72727272727 299 305.811942959 299 305.98128342246 299 C 306.15062388592 299 306.23529411764997 299 306.40463458111 299 C 306.57397504456594 299 306.658645276294 299 306.82798573975 299 C 306.99732620321004 299 307.08199643494 299 307.2513368984 299 C 307.420677361856 299 307.50534759358396 299 307.67468805704 299 C 307.8440285205 299 307.92869875222993 299 308.09803921569 299 C 308.26737967914596 299 308.35204991087403 299 308.52139037433 299 C 308.69073083779006 299 308.77540106952 299 308.94474153298 299 C 309.114081996436 299 309.198752228164 299 309.36809269162 299 C 309.53743315508 299 309.62210338680995 299 309.79144385027 299 C 309.960784313726 299 310.04545454545405 299 310.21479500891 299 C 310.3841354723701 299 310.4688057041 299 310.63814616756 299 C 310.80748663101605 299 310.892156862744 299 311.0614973262 299 C 311.23083778966003 299 311.31550802139 299 311.48484848485 299 C 311.654188948306 299 311.73885918003396 299 311.90819964349 299 C 312.07754010695 299 312.16221033868 299 312.33155080214 299 C 312.50089126559595 299 312.58556149732397 299 312.75490196078 299 C 312.92424242424 299 313.00891265597 299 313.17825311943 299 C 313.347593582886 299 313.432263814614 299 313.60160427807 299 C 313.77094474153 299 313.85561497326 299 314.02495543672 299 C 314.19429590018 299 314.27896613191 299 314.44830659537 299 C 314.61764705882604 299 314.70231729055405 299 314.87165775401 299 C 315.04099821747 299 315.1256684492 299 315.29500891266 299 C 315.46434937611605 299 315.549019607844 299 315.7183600713 299 C 315.88770053476003 299 315.97237076649 299 316.14171122995 299 C 316.311051693406 299 316.39572192513396 299 316.56506238859 299 C 316.73440285205 299 316.8190730837799 299 316.98841354724 299 C 317.15775401069595 299 317.242424242424 299 317.41176470588 299 C 317.58110516934005 299 317.66577540107 299 317.83511586453 299 C 318.004456327986 299 318.089126559714 299 318.25846702317 299 C 318.42780748663 299 318.51247771835995 299 318.68181818182 299 C 318.851158645276 299 318.93582887700404 299 319.10516934046 299 C 319.27450980392007 299 319.35918003565 299 319.52852049911 299 C 319.69786096256604 299 319.782531194294 299 319.95187165775 299 C 320.12121212121 299 320.20588235293997 299 320.3752228164 299 C 320.544563279856 299 320.62923351158395 299 320.79857397504 299 C 320.9679144385 299 321.05258467023 299 321.22192513369 299 C 321.39126559715 299 321.47593582888 299 321.64527629234 299 C 321.814616755796 299 321.899286987524 299 322.06862745098 299 C 322.23796791444 299 322.32263814617 299 322.49197860963 299 C 322.661319073086 299 322.745989304814 299 322.91532976827 299 C 323.08467023173 299 323.16934046346 299 323.33868092692 299 C 323.50802139037603 299 323.59269162210404 299 323.76203208556 299 C 323.93137254902 299 324.01604278075 299 324.18538324421 299 C 324.35472370766604 299 324.439393939394 299 324.60873440285 299 C 324.77807486631 299 324.86274509804 299 325.0320855615 299 C 325.20142602495605 299 325.28609625668406 299 325.45543672014 299 C 325.62477718360003 299 325.70944741533 299 325.87878787879 299 C 326.04812834224595 299 326.132798573974 299 326.30213903743 299 C 326.47147950089004 299 326.55614973262 299 326.72549019608 299 C 326.894830659536 299 326.97950089126397 299 327.14884135472 299 C 327.31818181818 299 327.40285204990994 299 327.57219251337 299 C 327.74153297682597 299 327.82620320855403 299 327.99554367201 299 C 328.16488413547006 299 328.2495543672 299 328.41889483066 299 C 328.58823529411603 299 328.672905525844 299 328.8422459893 299 C 329.01158645276 299 329.09625668448996 299 329.26559714795 299 C 329.43493761140996 299 329.5196078431401 299 329.6889483066 299 C 329.85828877005605 299 329.94295900178406 299 330.11229946524 299 C 330.2816399287 299 330.36631016043003 299 330.53565062389 299 C 330.704991087346 299 330.789661319074 299 330.95900178253 299 C 331.12834224599 299 331.21301247772 299 331.38235294118 299 C 331.551693404636 299 331.63636363636397 299 331.80570409982 299 C 331.97504456328 299 332.05971479501 299 332.22905525847 299 C 332.398395721926 299 332.48306595365403 299 332.65240641711 299 C 332.82174688057 299 332.9064171123 299 333.07575757576 299 C 333.24509803921603 299 333.329768270944 299 333.4991087344 299 C 333.66844919786 299 333.75311942959 299 333.92245989305 299 C 334.09180035650604 299 334.17647058823405 299 334.34581105169 299 C 334.51515151515 299 334.59982174688 299 334.76916221034 299 C 334.93850267379605 299 335.023172905524 299 335.19251336898 299 C 335.458636611208 299 335.59169823232196 251.16 335.85782147455 251.16 C 335.930379159238 251.16 335.966658001582 299 336.03921568627 299 C 336.33144950319803 299 336.477566411662 239.2 336.76980022859 239.2 C 336.816247338582 239.2 336.839470893578 299 336.88591800357 299 C 337.055258467026 299 337.13992869875403 299 337.30926916221 299 C 337.47860962567 299 337.5632798574 299 337.73262032086 299 C 337.901960784316 299 337.986631016044 299 338.1559714795 299 C 338.32531194295996 299 338.4099821746901 299 338.57932263815 299 C 338.74866310160604 299 338.83333333333405 299 339.00267379679 299 C 339.17201426025 299 339.25668449198 299 339.42602495544 299 C 339.595365418896 299 339.680035650624 299 339.84937611408 299 C 340.01871657754 299 340.10338680927 299 340.27272727273 299 C 340.442067736186 299 340.52673796791396 299 340.69607843137 299 C 340.86541889483 299 340.95008912656 299 341.11942959002 299 C 341.288770053476 299 341.373440285204 299 341.54278074866 299 C 341.71212121212 299 341.79679144385 299 341.96613190731 299 C 342.135472370766 299 342.220142602494 299 342.38948306595 299 C 342.669927729086 299 342.810150060654 227.24 343.09059472379 227.24 C 343.14883098757 227.24 343.17794911946004 299 343.23618538324 299 C 343.4055258467 299 343.49019607843 299 343.65953654189 299 C 343.82887700534604 299 343.913547237074 299 344.08288770053 299 C 344.25222816399 299 344.33689839571997 299 344.50623885918 299 C 344.79290443239597 299 344.93623721900406 287.41305203601496 345.22290279222 275.08 C 345.381028369892 268.27705203601494 345.460091158728 251.16 345.6182167364 251.16 C 345.798815204744 251.16 345.88911443891595 251.16 346.06971290726 251.16 C 346.12168514186 251.16 346.14767125915995 299 346.19964349376 299 C 346.36898395722 299 346.45365418895 299 346.62299465241 299 C 346.904581971678 299 347.04537563131197 191.35999999999999 347.32696295058 191.35999999999999 C 347.486791732684 191.35999999999999 347.566706123736 239.2 347.72653490584 239.2 C 347.90250395086406 239.2 347.99048847337605 237.03123697488053 348.1664575184 227.24 C 348.334402491004 217.89523697488056 348.41837497730603 191.35999999999999 348.58631994991 191.35999999999999 C 348.64769214819796 191.35999999999999 348.678378247342 299 348.73975044563 299 C 348.90909090908997 299 348.99376114081997 299 349.16310160428 299 C 349.45152330082 299 349.59573414909 239.2 349.88415584563 239.2 C 349.934415076006 239.2 349.95954469119397 299 350.00980392157 299 C 350.28182468062994 299 350.41783506016 227.24 350.68985581922 227.24 C 350.864840964796 227.24 350.952333537584 251.16 351.12731868316 251.16 C 351.29188272636804 251.16 351.37416474797203 251.16 351.53872879118 251.16 C 351.706669843864 251.16 351.790640370206 227.24 351.95858142289 227.24 C 352.1269771860781 227.24 352.211175067672 227.24 352.37957083086 227.24 C 352.55086929342394 227.24 352.63651852470605 227.24 352.80781698727 239.2 C 352.873995005198 251.15999999999997 352.90708401416197 299 352.97326203209 299 C 353.23945191292194 299 353.372546853338 251.16 353.63873673417 251.16 C 353.71122778025403 251.16 353.74747330329603 299 353.81996434938 299 C 354.08727140687995 299 354.22092493562997 215.28 354.48823199313 215.28 C 354.55960586254594 215.28 354.59529279725405 299 354.66666666667 299 C 354.836007130126 299 354.920677361854 299 355.09001782531 299 C 355.35653501931 299 355.48979361631 251.16 355.75631081031 251.16 C 355.828474543226 251.16 355.864556409684 299 355.9367201426 299 C 356.19772397174404 299 356.328225886316 227.24 356.58922971546 227.24 C 356.771990018652 227.24 356.863370170248 251.16 357.04613047344 251.16 C 357.205006715436 251.16 357.284444836434 227.24 357.44332107843 227.24 C 357.624103782926 227.24 357.714495135174 251.16 357.89527783967 251.16 C 358.061192294678 251.16 358.1441495221819 215.28 358.31006397719 215.28 C 358.505509135474 215.28 358.603231714616 215.28 358.7986768729 239.2 C 358.839277424988 263.12 358.859577701032 299 358.90017825312 299 C 359.173224070772 299 359.309746979598 239.2 359.58279279725 239.2 C 359.64842790651403 239.2 359.681245461146 299 359.74688057041 299 C 360.00864290371 299 360.13952407036 191.35999999999999 360.40128640366 191.35999999999999 C 360.575685521472 191.35999999999999 360.662885080378 207.89775066769252 360.83728419819 215.28 C 361.001938399518 222.24975066769255 361.08426550018197 215.28 361.24891970151 227.24 C 361.325465902902 239.20000000000002 361.36373900359797 299 361.44028520499 299 C 361.60962566845 299 361.69429590018 299 361.86363636364 299 C 362.14171535618 299 362.28075485245 239.2 362.55883384499 239.2 C 362.619435779366 239.2 362.649736746554 299 362.71033868093 299 C 362.87967914438605 299 362.964349376114 299 363.13368983957 299 C 363.30303030303 299 363.38770053476003 299 363.55704099822 299 C 363.726381461676 299 363.811051693404 299 363.98039215686 299 C 364.246778033604 299 364.37997097197604 227.24 364.64635684872 227.24 C 364.83264115831605 227.24 364.925783313114 263.12 365.11206762271 263.12 C 365.26140474392196 263.12 365.336073304528 263.12 365.48541042574 263.12 C 365.56076497202 263.12 365.59844224516 299 365.67379679144 299 C 365.8431372549 299 365.92780748663 299 366.09714795009 299 C 366.359278755694 299 366.490344158496 227.24 366.7524749641 227.24 C 366.829025085412 227.24 366.86730014606803 299 366.94385026738 299 C 367.11319073083604 299 367.19786096256405 299 367.36720142602 299 C 367.53654188948 299 367.62121212121 299 367.79055258467 299 C 368.060252752194 299 368.195102835956 239.2 368.46480300348 239.2 C 368.53378376287196 239.2 368.56827414256793 299 368.63725490196 299 C 368.80659536542 299 368.89126559715 299 369.06060606061 299 C 369.32474582425795 299 369.456815706082 215.28 369.72095546973 215.28 C 369.795496632998 215.28 369.832767214632 299 369.9073083779 299 C 370.076648841356 299 370.161319073084 299 370.33065953654 299 C 370.5 299 370.58467023173 299 370.75401069519 299 C 371.01858360979395 299 371.150870067096 227.24 371.4154429817 227.24 C 371.489550994012 227.24 371.526605000168 299 371.60071301248 299 C 371.77005347593604 299 371.854723707664 299 372.02406417112 299 C 372.291904337492 299 372.425824420678 265.59094696147287 372.69366458705 251.16 C 372.869782588962 241.6709469614729 372.957841589918 239.2 373.13395959183 239.2 C 373.19802281392197 239.2 373.230054424968 299 373.29411764706 299 C 373.46345811051594 299 373.54812834224396 299 373.7174688057 299 C 373.983719445268 299 374.11684476505195 263.12 374.38309540462 263.12 C 374.455525691968 263.12 374.49174083564196 299 374.56417112299 299 C 374.73351158645 299 374.81818181818 299 374.98752228164 299 C 375.1568627451 299 375.24153297682994 299 375.41087344029 299 C 375.58021390374597 299 375.66488413547404 299 375.83422459893 299 C 376.00356506239007 299 376.08823529412 299 376.25757575758 299 C 376.42691622103604 299 376.511586452764 299 376.68092691622 299 C 376.85026737968 299 376.93493761140996 299 377.10427807487 299 C 377.273618538326 299 377.35828877005406 299 377.52762923351 299 C 377.69696969697003 299 377.7816399287 299 377.95098039216 299 C 378.12032085561594 299 378.20499108734396 299 378.3743315508 299 C 378.638320397604 299 378.77031482100597 250.55528959066783 379.03430366781 227.24 C 379.203651971102 212.28328959066783 379.288326122748 203.32 379.45767442604 203.32 C 379.63156003457595 203.32 379.71850283884396 227.24 379.89238844738 227.24 C 380.04940468821997 227.24 380.12791280863996 214.77045257363966 380.28492904948 203.32 C 380.455919798472 190.85045257363967 380.541415172968 167.44 380.71240592196 167.44 C 380.793218954244 167.44 380.833625470386 299 380.91443850267 299 C 381.08377896613 299 381.16844919786 299 381.33778966132 299 C 381.59475401481996 299 381.72323619157 227.24 381.98020054507 227.24 C 382.160536378902 227.24 382.250704295818 227.24 382.43104012965 239.2 C 382.50176133268997 251.15999999999997 382.53712193420995 299 382.60784313725 299 C 382.7771836007099 299 382.86185383244003 299 383.0311942959 299 C 383.295755450748 299 383.42803602817196 215.28 383.69259718302 215.28 C 383.76671695508793 215.28 383.803776841122 299 383.87789661319 299 C 384.04723707665 299 384.13190730837994 299 384.30124777184 299 C 384.56021520350794 299 384.68969891934205 256.6382649972493 384.94866635101 239.2 C 385.115968457038 227.93426499724927 385.199619510052 227.24 385.36692161608 227.24 C 385.448673468756 227.24 385.48954939509406 299 385.57130124777 299 C 385.82860663415005 299 385.95725932734 227.24 386.21456471372 227.24 C 386.397958083696 227.24 386.489654768684 227.24 386.67304813866 239.2 C 386.74037077268 251.15999999999997 386.77403208968997 299 386.84135472371 299 C 387.10873429969797 299 387.242424087692 215.28 387.50980366368 215.28 C 387.58110501460794 215.28 387.616755690072 299 387.688057041 299 C 387.857397504456 299 387.94206773618396 299 388.11140819964 299 C 388.2807486631 299 388.36541889483 299 388.53475935829 299 C 388.809506420414 299 388.94687995147603 266.3657247546189 389.2216270136 251.16 C 389.37908228527203 242.44572475461896 389.457809921108 239.2 389.61526519278 239.2 C 389.691084249356 239.2 389.72899377764395 299 389.80481283422 299 C 390.068923198484 299 390.200978380616 239.2 390.46508874488 239.2 C 390.539659307536 239.2 390.57694458886397 299 390.65151515152 299 C 390.82085561497604 299 390.90552584670405 299 391.07486631016 299 C 391.24420677362 299 391.32887700535 299 391.49821746881 299 C 391.75434687974604 299 391.8824115852141 274.1118892379495 392.13854099615 251.16 C 392.309504305718 235.83988923794954 392.394985960502 203.32 392.56594927007 203.32 C 392.646877939938 203.32 392.68734227487204 299 392.76827094474 299 C 393.027073739848 299 393.15647513740197 227.24 393.41527793251 227.24 C 393.58625496179 227.24 393.67174347643 267.3475503127033 393.84272050571 287.04 C 393.920962071698 296.0515503127033 393.96008285469196 299 394.03832442068 299 C 394.207664884136 299 394.292335115864 299 394.46167557932 299 C 394.728663163496 299 394.86215695558394 239.2 395.12914453976 239.2 C 395.20083788249997 239.2 395.23668455387 299 395.30837789661 299 C 395.57202375057403 299 395.703846677556 239.2 395.96749253152 239.2 C 396.04252760447196 239.2 396.080045140948 299 396.1550802139 299 C 396.436263781604 299 396.576855565456 239.2 396.85803913316 239.2 C 396.915536492372 239.2 396.944285171978 299 397.00178253119 299 C 397.17112299465 299 397.25579322638 299 397.42513368984 299 C 397.59447415329595 299 397.67914438502396 299 397.84848484848 299 C 398.01782531194 299 398.10249554367 299 398.27183600713 299 C 398.44117647059 299 398.52584670232 299 398.69518716578 299 C 398.864527629236 299 398.949197860964 299 399.11853832442 299 C 399.28787878788 299 399.37254901961 299 399.54188948307 299 C 399.818037915926 299 399.956112132354 227.24 400.23226056521 227.24 C 400.29479305927003 227.24 400.3260593063 299 400.38859180036 299 C 400.55793226381604 299 400.642602495544 299 400.811942959 299 C 400.98128342246 299 401.06595365419 299 401.23529411765 299 C 401.404634581106 299 401.489304812834 299 401.65864527629 299 C 401.82798573975 299 401.9126559714799 299 402.08199643494 299 C 402.25133689839595 299 402.336007130124 299 402.50534759358 299 C 402.67468805704004 299 402.75935828877 299 402.92869875223 299 C 403.098039215686 299 403.18270944741397 299 403.35204991087 299 C 403.52139037433 299 403.60606060605994 299 403.77540106952 299 C 403.94474153297597 299 404.02941176470404 299 404.19875222816 299 C 404.461521980424 299 404.59290685655594 191.35999999999999 404.85567660882 191.35999999999999 C 404.93158778347197 191.35999999999999 404.969543370798 299 405.04545454545 299 C 405.21479500891 299 405.29946524063996 299 405.4688057041 299 C 405.63814616755997 299 405.7228163992901 299 405.89215686275 299 C 406.061497326206 299 406.14616755793395 299 406.31550802139 299 C 406.48484848485 299 406.56951871658 299 406.73885918004 299 C 407.004457153236 299 407.137256139834 227.24 407.40285411303 227.24 C 407.47593706674996 227.24 407.51247854361 299 407.58556149733 299 C 407.754901960786 299 407.83957219251397 299 408.00891265597 299 C 408.17825311943 299 408.26292335116 299 408.43226381462 299 C 408.601604278076 299 408.68627450980404 299 408.85561497326 299 C 409.02495543672 299 409.10962566845 299 409.27896613191 299 C 409.44830659536603 299 409.532976827094 299 409.70231729055 299 C 409.87165775401 299 409.9563279857401 299 410.1256684492 299 C 410.295008912656 299 410.37967914438406 299 410.54901960784 299 C 410.7183600713 299 410.80303030303 299 410.97237076649 299 C 411.14171122994594 299 411.226381461674 299 411.39572192513 299 C 411.66097494553 299 411.79360145573 227.24 412.05885447613 227.24 C 412.132282382646 227.24 412.168996335904 299 412.24242424242 299 C 412.41176470588 299 412.49643493760993 299 412.66577540107 299 C 412.83511586452596 299 412.91978609625403 299 413.08912655971 299 C 413.25846702317006 299 413.3431372549 299 413.51247771836 299 C 413.68181818182 299 413.76648841355 299 413.93582887701 299 C 414.105169340466 299 414.189839572194 299 414.35918003565 299 C 414.52852049910996 299 414.6131907308401 299 414.7825311943 299 C 414.95187165775604 299 415.03654188948406 299 415.20588235294 299 C 415.37522281639997 299 415.45989304813 299 415.62923351159 299 C 415.798573975046 299 415.883244206774 299 416.05258467023 299 C 416.22192513369 299 416.30659536542 299 416.47593582888 299 C 416.645276292336 299 416.72994652406396 299 416.89928698752 299 C 417.06862745098 299 417.15329768271005 299 417.32263814617 299 C 417.49197860962596 299 417.57664884135403 299 417.74598930481 299 C 418.03120646827404 299 418.17381505000594 239.2 418.45903221347 239.2 C 418.512495976922 239.2 418.53922785864796 299 418.5926916221 299 C 418.76203208556 299 418.84670231728995 299 419.01604278075 299 C 419.18538324420604 299 419.27005347593405 299 419.43939393939 299 C 419.60873440285 299 419.69340463458 299 419.86274509804 299 C 420.03208556149605 299 420.116755793224 299 420.28609625668 299 C 420.45543672014 299 420.54010695187 299 420.70944741533 299 C 420.87878787879 299 420.96345811052 299 421.13279857398 299 C 421.30213903743595 299 421.38680926916396 299 421.55614973262 299 C 421.72549019607993 299 421.81016042781005 299 421.97950089127 299 C 422.148841354726 299 422.23351158645403 299 422.40285204991 299 C 422.57219251337 299 422.6568627451 299 422.82620320856 299 C 422.99554367201597 299 423.080213903744 299 423.2495543672 299 C 423.41889483065995 299 423.50356506239007 299 423.67290552585 299 C 423.84224598930604 299 423.92691622103405 299 424.09625668449 299 C 424.26559714795 299 424.35026737968 299 424.51960784314 299 C 424.688948306596 299 424.773618538324 299 424.94295900178 299 C 425.11229946523997 299 425.19696969697 299 425.36631016043 299 C 425.535650623886 299 425.62032085561395 299 425.78966131907 299 C 425.95900178253 299 426.0436720142599 299 426.21301247772 299 C 426.382352941176 299 426.467023172904 299 426.63636363636 299 C 426.80570409982 299 426.89037433155 299 427.05971479501 299 C 427.34481240097 299 427.48736120395006 275.08 427.77245880991 275.08 C 427.82604213086597 275.08 427.852833791344 299 427.9064171123 299 C 428.075757575756 299 428.16042780748404 299 428.32976827094 299 C 428.4991087344 299 428.58377896613 299 428.75311942959 299 C 428.92245989305 299 429.00713012478 299 429.17647058824 299 C 429.345811051696 299 429.430481283424 299 429.59982174688 299 C 429.76916221033997 299 429.85383244207003 299 430.02317290553 299 C 430.19251336898594 299 430.27718360071395 299 430.44652406417 299 C 430.6158645276299 299 430.70053475936004 299 430.86987522282 299 C 431.039215686276 299 431.123885918004 299 431.29322638146 299 C 431.46256684492 299 431.54723707665 299 431.71657754011 299 C 431.88591800356596 299 431.970588235294 299 432.13992869875 299 C 432.30926916220994 299 432.39393939394006 299 432.5632798574 299 C 432.73262032085603 299 432.81729055258404 299 432.98663101604 299 C 433.1559714795 299 433.24064171123 299 433.40998217469 299 C 433.579322638146 299 433.663992869874 299 433.83333333333 299 C 434.00267379678996 299 434.0873440285201 299 434.25668449198 299 C 434.42602495543605 299 434.51069518716406 299 434.68003565062 299 C 434.84937611408003 299 434.93404634581003 299 435.10338680927 299 C 435.27272727272594 299 435.357397504454 299 435.52673796791 299 C 435.69607843137 299 435.7807486631 299 435.95008912656 299 C 436.119429590016 299 436.20409982174397 299 436.3734402852 299 C 436.54278074866 299 436.62745098038994 299 436.79679144385 299 C 436.96613190731006 299 437.05080213904 299 437.2201426025 299 C 437.38948306595603 299 437.474153297684 299 437.64349376114 299 C 437.8128342246 299 437.89750445633 299 438.06684491979 299 C 438.236185383246 299 438.32085561497405 299 438.49019607843 299 C 438.65953654188996 299 438.74420677362 299 438.91354723708 299 C 439.18252809962405 299 439.317018530896 239.2 439.58599939344 239.2 C 439.655699457812 239.2 439.69054948999803 299 439.76024955437 299 C 439.929590017826 299 440.014260249554 299 440.18360071301 299 C 440.35294117647 299 440.4376114082 299 440.60695187166 299 C 440.77629233511595 299 440.86096256684397 299 441.0303030303 299 C 441.19964349375994 299 441.28431372549005 299 441.45365418895 299 C 441.622994652406 299 441.70766488413403 299 441.87700534759 299 C 442.04634581105 299 442.13101604278 299 442.30035650624 299 C 442.469696969696 299 442.554367201424 299 442.72370766488 299 C 442.89304812833996 299 442.97771836007007 299 443.14705882353 299 C 443.31639928698604 299 443.40106951871405 299 443.57040998217 299 C 443.73975044563 299 443.82442067736 299 443.99376114082 299 C 444.16310160428003 299 444.24777183601 299 444.41711229947 299 C 444.586452762926 299 444.67112299465396 299 444.84046345811 299 C 445.00980392157 299 445.0944741533 299 445.26381461676 299 C 445.43315508021595 299 445.517825311944 299 445.6871657754 299 C 445.85650623885994 299 445.94117647059 299 446.11051693405 299 C 446.279857397506 299 446.364527629234 299 446.53386809269 299 C 446.70320855615 299 446.78787878788 299 446.95721925134 299 C 447.126559714796 299 447.211229946524 299 447.38057040998 299 C 447.54991087344007 299 447.63458110517 299 447.80392156863 299 C 447.97326203208604 299 448.057932263814 299 448.22727272727 299 C 448.39661319073 299 448.48128342246 299 448.65062388592 299 C 448.819964349376 299 448.904634581104 299 449.07397504456 299 C 449.24331550802 299 449.32798573975 299 449.49732620321 299 C 449.66666666666595 299 449.75133689839396 299 449.92067736185 299 C 450.0900178253099 299 450.17468805704004 299 450.3440285205 299 C 450.513368983956 299 450.598039215684 299 450.76737967914 299 C 450.9367201426 299 451.02139037433 299 451.19073083779 299 C 451.36007130124597 299 451.444741532974 299 451.61408199643 299 C 451.78342245988995 299 451.86809269162006 299 452.03743315508 299 C 452.20677361854007 299 452.29144385027 299 452.46078431373 299 C 452.63012477718604 299 452.714795008914 299 452.88413547237 299 C 453.05347593583 299 453.13814616755997 299 453.30748663102 299 C 453.476827094476 299 453.56149732620395 299 453.73083778966 299 C 453.90017825312 299 453.98484848485 299 454.15418894831 299 C 454.32352941176595 299 454.40819964349396 299 454.57754010695 299 C 454.842802927146 299 454.97543433724405 227.24 455.24069715744 227.24 C 455.31411526415997 227.24 455.35082431752 299 455.42424242424 299 C 455.5935828877 299 455.67825311943 299 455.84759358289 299 C 456.121231308182 299 456.258050170828 289.8123944444549 456.53168789612 251.16 C 456.59673109774394 241.97239444445492 456.62925269855606 179.39999999999998 456.69429590018 179.39999999999998 C 456.86363636363603 179.39999999999998 456.948306595364 299 457.11764705882 299 C 457.28698752228 299 457.37165775401 299 457.54099821747 299 C 457.710338680926 299 457.795008912654 299 457.96434937611 299 C 458.13368983956997 299 458.2183600713 299 458.38770053476 299 C 458.55704099821594 299 458.64171122994395 299 458.8110516934 299 C 458.9803921568599 299 459.06506238859004 227.24 459.23440285205 227.24 C 459.40374331551004 227.24 459.48841354724 299 459.6577540107 299 C 459.827094474156 299 459.91176470588397 299 460.08110516934 299 C 460.2504456328 299 460.33511586452994 299 460.50445632799 299 C 460.67379679144597 299 460.75846702317403 299 460.92780748663 299 C 461.09714795009006 299 461.18181818182 299 461.35115864528 299 C 461.52049910873603 299 461.605169340464 299 461.77450980392 299 C 461.94385026738 299 462.02852049910996 299 462.19786096257 299 C 462.367201426026 299 462.45187165775405 299 462.62121212121 299 C 462.79055258466997 299 462.87522281639997 299 463.04456327986 299 C 463.30451265102 299 463.43448733660006 203.32 463.69443670776 203.32 C 463.77316826351597 203.32 463.8125340413941 299 463.89126559715 299 C 464.060606060606 299 464.14527629233396 299 464.31461675579 299 C 464.48395721925 299 464.56862745098 299 464.73796791444 299 C 464.90730837789596 299 464.99197860962397 299 465.16131907308 299 C 465.33065953654005 299 465.41532976827 299 465.58467023173 299 C 465.754010695186 299 465.838680926914 299 466.00802139037 299 C 466.17736185383 299 466.26203208556 251.16 466.43137254902 251.16 C 466.600713012476 251.16 466.68538324420405 299 466.85472370766 299 C 467.02406417111996 299 467.10873440285 299 467.27807486631 299 C 467.44741532977 299 467.5320855615 299 467.70142602496 299 C 467.87076648841605 299 467.955436720144 299 468.1247771836 299 C 468.29411764706003 299 468.37878787879 299 468.54812834225 299 C 468.717468805706 299 468.80213903743396 299 468.97147950089 299 C 469.14081996435 299 469.22549019607993 299 469.39483065954 299 C 469.56417112299596 299 469.648841354724 299 469.81818181818 299 C 469.98752228164005 299 470.07219251337 299 470.24153297683 299 C 470.410873440286 299 470.495543672014 299 470.66488413547 299 C 470.83422459893 299 470.91889483065995 299 471.08823529412 299 C 471.257575757576 299 471.34224598930405 299 471.51158645276 299 C 471.6809269162201 299 471.76559714795 299 471.93493761141 299 C 472.10427807486604 299 472.188948306594 299 472.35828877005 299 C 472.52762923351 299 472.61229946523997 299 472.7816399287 299 C 472.950980392156 299 473.03565062388395 299 473.20499108734 299 C 473.3743315508 299 473.45900178253 299 473.62834224599 299 C 473.79768270944595 299 473.882352941174 299 474.05169340463 299 C 474.22103386808993 299 474.30570409982 299 474.47504456328 299 C 474.64438502674 299 474.72905525847 299 474.89839572193 299 C 475.067736185386 299 475.152406417114 299 475.32174688057 299 C 475.49108734403 299 475.57575757575995 299 475.74509803922 299 C 475.91443850267603 299 475.99910873440405 299 476.16844919786 299 C 476.33778966132 299 476.42245989305 299 476.59180035651 299 C 476.87479688635005 299 477.01629515127007 251.16 477.29929168111 251.16 C 477.354976078186 251.16 477.382818276724 299 477.4385026738 299 C 477.72368847791995 299 477.86628137997997 251.16 478.1514671841 251.16 C 478.20496230689594 251.16 478.231709868294 299 478.28520499109 299 C 478.45454545454595 299 478.539215686274 299 478.70855614973 299 C 478.99088433353 299 479.13204842543 239.2 479.41437660923 239.2 C 479.470729352346 239.2 479.49890572390393 299 479.55525846702 299 C 479.72459893048 299 479.80926916220994 299 479.97860962567 299 C 480.14795008912597 299 480.23262032085404 299 480.40196078431 299 C 480.57130124777007 299 480.6559714795 299 480.82531194296 299 C 480.99465240641604 299 481.079322638144 299 481.2486631016 299 C 481.41800356506 299 481.50267379678996 299 481.67201426025 299 C 481.841354723706 299 481.92602495543406 155.48 482.09536541889 155.48 C 482.380415985834 155.48 482.522941269306 190.882596667199 482.80799183625 239.2 C 482.861622196226 248.29059666719903 482.88843737621403 299 482.94206773619 299 C 483.111408199646 299 483.196078431374 299 483.36541889483 299 C 483.53475935829 299 483.61942959002 299 483.78877005348 299 C 483.958110516936 299 484.042780748664 299 484.21212121212 299 C 484.38146167558 299 484.46613190731006 299 484.63547237077 299 C 484.80481283422597 299 484.88948306595404 299 485.05882352941 299 C 485.22816399287 299 485.3128342246 299 485.48217468806 299 C 485.65151515151604 299 485.736185383244 299 485.9055258467 299 C 486.07486631016 299 486.15953654188996 299 486.32887700535 299 C 486.49821746880605 299 486.58288770053406 107.63999999999999 486.75222816399 107.63999999999999 C 486.92156862745003 107.63999999999999 487.0062388591799 299 487.17557932264 299 C 487.34491978609594 299 487.429590017824 299 487.59893048128 299 C 487.76827094474004 299 487.85294117647 299 488.02228163993 299 C 488.191622103386 299 488.27629233511396 299 488.44563279857 299 C 488.61497326203 299 488.69964349375994 299 488.86898395722 299 C 489.03832442067596 299 489.12299465240403 299 489.29233511586 299 C 489.46167557932006 299 489.54634581105 299 489.71568627451 299 C 489.88502673797 299 489.9696969697 299 490.13903743316 299 C 490.308377896616 299 490.393048128344 299 490.5623885918 299 C 490.73172905525996 299 490.8163992869901 299 490.98573975045 299 C 491.15508021390605 299 491.23975044563406 299 491.40909090909 299 C 491.57843137255 299 491.66310160428003 299 491.83244206774 299 C 492.00178253119594 299 492.086452762924 299 492.25579322638 299 C 492.42513368984 299 492.50980392157 203.32 492.67914438503 203.32 C 492.848484848486 203.32 492.93315508021396 299 493.10249554367 299 C 493.27183600713 299 493.35650623885994 299 493.52584670232 299 C 493.695187165776 299 493.77985739750403 299 493.94919786096 299 C 494.11853832442 299 494.20320855615 299 494.37254901961 299 C 494.54188948306603 299 494.626559714794 299 494.79590017825 299 C 494.96524064171 299 495.04991087344007 299 495.2192513369 299 C 495.388591800356 299 495.47326203208405 299 495.64260249554 299 C 495.811942959 299 495.89661319073 299 496.06595365419 299 C 496.23529411764605 299 496.319964349374 299 496.48930481283 299 C 496.65864527629003 299 496.74331550802 299 496.91265597148 299 C 497.081996434936 299 497.16666666666396 299 497.33600713012 299 C 497.50534759358 299 497.5900178253099 299 497.75935828877 299 C 497.92869875222993 299 498.01336898396005 299 498.18270944742 299 C 498.352049910876 299 498.43672014260403 299 498.60606060606 299 C 498.77540106952 299 498.86007130125 299 499.02941176471 299 C 499.198752228166 299 499.283422459894 299 499.45276292335 299 C 499.62210338680995 299 499.70677361854007 299 499.876114082 299 C 500.04545454545604 299 500.13012477718405 299 500.29946524064 299 C 500.4688057041 299 500.55347593583 299 500.72281639929 299 C 500.892156862746 299 500.976827094474 299 501.14616755793 299 C 501.42958939889 299 501.57130031937004 227.24 501.85472216033 227.24 C 501.90998124628607 227.24 501.937610789264 299 501.99286987522 299 C 502.16221033868 299 502.24688057041004 299 502.41622103387 299 C 502.69900784809 299 502.84040125520005 239.2 503.12318806942 239.2 C 503.17908218211596 239.2 503.20702923846403 299 503.26292335116 299 C 503.55565107777204 299 503.70201494107806 287.04 503.99474266769 287.04 C 504.040695867994 287.04 504.06367246814597 299 504.10962566845 299 C 504.27896613190603 299 504.36363636363404 299 504.53297682709 299 C 504.70231729055 299 504.78698752228 299 504.95632798574 299 C 505.1256684492 299 505.21033868093 203.32 505.37967914439 203.32 C 505.549019607846 203.32 505.63368983957406 299 505.80303030303 299 C 505.97237076649 299 506.05704099822 299 506.22638146168 299 C 506.39572192513594 299 506.48039215686396 299 506.64973262032 299 C 506.8190730837799 299 506.90374331551004 299 507.07308377897 299 C 507.242424242426 299 507.327094474154 299 507.49643493761 299 C 507.66577540107 299 507.7504456328 299 507.91978609626 299 C 508.08912655971596 299 508.173796791444 299 508.3431372549 299 C 508.51247771835995 299 508.59714795009006 299 508.76648841355 299 C 509.05181337476205 299 509.194475855368 239.2 509.47980081658 239.2 C 509.533156782284 239.2 509.55983476513603 299 509.61319073084 299 C 509.782531194296 299 509.867201426024 299 510.03654188948 299 C 510.20588235293997 299 510.2905525846701 83.71999999999997 510.45989304813 83.71999999999997 C 510.62923351158605 83.71999999999997 510.71390374331395 160.26400000050583 510.88324420677 203.32 C 511.05258467023 246.37600000050585 511.1372549019599 299 511.30659536542 299 C 511.475935828876 299 511.560606060604 299 511.72994652406 299 C 511.89928698752 299 511.98395721925 299 512.15329768271 299 C 512.322638146166 299 512.407308377894 299 512.57664884135 299 C 512.74598930481 299 512.83065953654 299 513 299 C 513.16934046346 299 513.25401069519 299 513.42335115865 299 C 513.592691622106 299 513.677361853834 299 513.84670231729 299 C 514.01604278075 299 514.10071301248 299 514.27005347594 299 C 514.439393939396 299 514.524064171124 299 514.69340463458 299 C 514.86274509804 299 514.94741532977 299 515.11675579323 299 C 515.286096256686 299 515.370766488414 299 515.54010695187 299 C 515.70944741533 299 515.79411764706 299 515.96345811052 299 C 516.1327985739761 299 516.2174688057041 299 516.38680926916 299 C 516.55614973262 299 516.64081996435 299 516.81016042781 299 C 516.9795008912661 299 517.064171122994 299 517.23351158645 299 C 517.40285204991 299 517.48752228164 299 517.6568627451 299 C 517.8262032085561 299 517.910873440284 251.16 518.08021390374 251.16 C 518.2495543672 251.16 518.33422459893 299 518.50356506239 299 C 518.672905525846 299 518.7575757575739 299 518.92691622103 299 C 519.09625668449 299 519.18092691622 299 519.35026737968 299 C 519.519607843136 299 519.6042780748639 299 519.77361853832 299 C 519.94295900178 299 520.02762923351 299 520.19696969697 299 C 520.3663101604259 299 520.450980392154 299 520.62032085561 299 C 520.78966131907 299 520.8743315508 299 521.04367201426 299 C 521.21301247772 299 521.29768270945 299 521.46702317291 299 C 521.636363636366 299 521.721033868094 299 521.89037433155 299 C 522.05971479501 299 522.14438502674 299 522.3137254902 299 C 522.483065953656 299 522.567736185384 299 522.73707664884 299 C 522.9064171123 299 522.99108734403 299 523.16042780749 299 C 523.329768270946 299 523.4144385026741 299 523.58377896613 299 C 523.75311942959 299 523.83778966132 299 524.00713012478 299 C 524.176470588236 299 524.261140819964 299 524.43048128342 299 C 524.59982174688 299 524.68449197861 299 524.85383244207 299 C 525.023172905526 299 525.107843137254 299 525.27718360071 299 C 525.44652406417 299 525.5311942959 299 525.70053475936 299 C 525.8698752228161 299 525.954545454544 299 526.123885918 299 C 526.29322638146 299 526.37789661319 179.39999999999998 526.54723707665 179.39999999999998 C 526.7165775401061 179.39999999999998 526.8012477718341 299 526.97058823529 299 C 527.13992869875 299 527.2245989304799 299 527.39393939394 299 C 527.5632798573959 299 527.6479500891239 299 527.81729055258 299 C 527.98663101604 299 528.07130124777 299 528.24064171123 299 C 528.40998217469 299 528.49465240642 299 528.66399286988 299 C 528.833333333336 299 528.9180035650639 299 529.08734402852 299 C 529.25668449198 299 529.34135472371 299 529.51069518717 299 C 529.680035650626 299 529.764705882354 299 529.93404634581 299 C 530.10338680927 299 530.188057041 299 530.35739750446 299 C 530.526737967916 299 530.6114081996441 299 530.7807486631 299 C 530.95008912656 299 531.03475935829 299 531.20409982175 299 C 531.373440285206 299 531.458110516934 299 531.62745098039 299 C 531.79679144385 299 531.88146167558 299 532.05080213904 299 C 532.220142602496 299 532.304812834224 299 532.47415329768 299 C 532.7410899229201 299 532.87455823554 227.24 533.14149486078 227.24 C 533.213239162456 227.24 533.249111313294 299 533.32085561497 299 C 533.49019607843 299 533.57486631016 299 533.74420677362 299 C 533.913547237076 299 533.9982174688041 299 534.16755793226 299 C 534.33689839572 299 534.42156862745 299 534.59090909091 299 C 534.760249554366 299 534.844919786094 299 535.01426024955 299 C 535.18360071301 299 535.26827094474 299 535.4376114082 299 C 535.6069518716561 299 535.691622103384 299 535.86096256684 299 C 536.0303030303 299 536.11497326203 299 536.28431372549 299 C 536.4536541889499 299 536.5383244206799 299 536.70766488414 299 C 536.877005347596 299 536.9616755793239 299 537.13101604278 299 C 537.30035650624 299 537.38502673797 299 537.55436720143 299 C 537.723707664886 299 537.808377896614 299 537.97771836007 299 C 538.14705882353 299 538.23172905526 299 538.40106951872 299 C 538.570409982176 299 538.655080213904 299 538.82442067736 299 C 538.99376114082 299 539.07843137255 299 539.24777183601 299 C 539.417112299466 299 539.501782531194 299 539.67112299465 299 C 539.84046345811 299 539.92513368984 299 540.0944741533 299 C 540.263814616756 299 540.348484848484 299 540.51782531194 299 C 540.6871657754 299 540.77183600713 299 540.94117647059 299 C 541.110516934046 299 541.1951871657741 299 541.36452762923 299 C 541.53386809269 299 541.61853832442 299 541.78787878788 299 C 541.957219251336 299 542.041889483064 299 542.21122994652 299 C 542.38057040998 299 542.46524064171 299 542.63458110517 299 C 542.803921568626 299 542.888591800354 299 543.05793226381 299 C 543.22727272727 299 543.311942959 299 543.48128342246 299 C 543.65062388592 299 543.73529411765 299 543.90463458111 299 C 544.073975044566 299 544.158645276294 299 544.32798573975 299 C 544.49732620321 299 544.58199643494 299 544.7513368984 299 C 544.920677361856 299 545.005347593584 299 545.17468805704 299 C 545.3440285205 299 545.59803921569 299 545.59803921569 299" class="highcharts-graph" data-z-index="1" stroke="#000000" stroke-width="2" stroke-linejoin="round" stroke-linecap="round"></path></g><g data-z-index="0.1" class="highcharts-markers highcharts-series-0 highcharts-spline-series highcharts-color-0 " transform="translate(39,63) scale(1 1)" clip-path="none"></g></g><text x="300" text-anchor="middle" class="highcharts-title" data-z-index="4" style="color:#333333;font-size:18px;fill:#333333;" y="24"><tspan>Sleep Cycles Over Time</tspan></text><text x="300" text-anchor="middle" class="highcharts-subtitle" data-z-index="4" style="color:#666666;fill:#666666;" y="46"><tspan>This chart shows how your Sleep Cycles changes over time.</tspan></text><g class="highcharts-axis-labels highcharts-xaxis-labels " data-z-index="7"><text x="76.361531986532" style="color:#666666;cursor:default;font-size:11px;fill:#666666;" text-anchor="middle" transform="translate(0,0)" y="381" opacity="1"><tspan>Jan '14</tspan></text><text x="152.98809170133" style="color:#666666;cursor:default;font-size:11px;fill:#666666;" text-anchor="middle" transform="translate(0,0)" y="381" opacity="1"><tspan>Jul '14</tspan></text><text x="230.88470489206" style="color:#666666;cursor:default;font-size:11px;fill:#666666;" text-anchor="middle" transform="translate(0,0)" y="381" opacity="1"><tspan>Jan '15</tspan></text><text x="307.51126460685" style="color:#666666;cursor:default;font-size:11px;fill:#666666;" text-anchor="middle" transform="translate(0,0)" y="381" opacity="1"><tspan>Jul '15</tspan></text><text x="385.40787779758" style="color:#666666;cursor:default;font-size:11px;fill:#666666;" text-anchor="middle" transform="translate(0,0)" y="381" opacity="1"><tspan>Jan '16</tspan></text><text x="462.45778867102" style="color:#666666;cursor:default;font-size:11px;fill:#666666;" text-anchor="middle" transform="translate(0,0)" y="381" opacity="1"><tspan>Jul '16</tspan></text><text x="540.35440186175" style="color:#666666;cursor:default;font-size:11px;fill:#666666;" text-anchor="middle" transform="translate(0,0)" y="381" opacity="1"><tspan>Jan '17</tspan></text></g><g class="highcharts-axis-labels highcharts-yaxis-labels " data-z-index="7"><text x="24" style="color:#666666;cursor:default;font-size:11px;fill:#666666;" text-anchor="end" transform="translate(0,0)" y="366" opacity="1">0</text><text x="24" style="color:#666666;cursor:default;font-size:11px;fill:#666666;" text-anchor="end" transform="translate(0,0)" y="306" opacity="1">5</text><text x="24" style="color:#666666;cursor:default;font-size:11px;fill:#666666;" text-anchor="end" transform="translate(0,0)" y="246" opacity="1">10</text><text x="24" style="color:#666666;cursor:default;font-size:11px;fill:#666666;" text-anchor="end" transform="translate(0,0)" y="186" opacity="1">15</text><text x="24" style="color:#666666;cursor:default;font-size:11px;fill:#666666;" text-anchor="end" transform="translate(0,0)" y="126" opacity="1">20</text><text x="24" style="color:#666666;cursor:default;font-size:11px;fill:#666666;" text-anchor="end" transform="translate(0,0)" y="67" opacity="1">25</text></g><a xlink:href="https://quantimo.do" target="_blank">
                    <text x="590" class="highcharts-credits" text-anchor="end" data-z-index="8"
                          style="cursor:pointer;color:#999999;font-size:9px;fill:#999999;" y="395">https://quantimo.do
                    </text>
                </a></svg>