<?xml version="1.0" standalone="no"?><!DOCTYPE svg PUBLIC "-//W3C//DTD SVG 1.1//EN" "http://www.w3.org/Graphics/SVG/1.1/DTD/svg11.dtd"><svg xmlns:xlink="http://www.w3.org/1999/xlink" version="1.1" class="highcharts-root" style="font-family:&quot;Lucida Grande&quot;, &quot;Lucida Sans Unicode&quot;, Arial, Helvetica, sans-serif;font-size:12px;" xmlns="http://www.w3.org/2000/svg" width="600" height="400"><desc>Created with Highstock 6.2.0</desc><defs><clipPath id="highcharts-h0xibyx-128"><rect x="0" y="0" width="515" height="263" fill="none"></rect></clipPath><clipPath id="highcharts-h0xibyx-250"><rect x="0" y="0" width="515" height="263" fill="none"></rect></clipPath><clipPath id="highcharts-h0xibyx-251"><rect x="75" y="78" width="515" height="263" fill="none"></rect></clipPath></defs><rect fill="#ffffff" class="highcharts-background" x="0" y="0" width="600" height="400" rx="0" ry="0"></rect><rect fill="none" class="highcharts-plot-background" x="75" y="78" width="515" height="263"></rect><g class="highcharts-pane-group" data-z-index="0"></g><g class="highcharts-grid highcharts-xaxis-grid " data-z-index="1"><path fill="none" data-z-index="1" class="highcharts-grid-line" d="M 156.5 78 L 156.5 341" opacity="1"></path><path fill="none" data-z-index="1" class="highcharts-grid-line" d="M 254.5 78 L 254.5 341" opacity="1"></path><path fill="none" data-z-index="1" class="highcharts-grid-line" d="M 351.5 78 L 351.5 341" opacity="1"></path><path fill="none" data-z-index="1" class="highcharts-grid-line" d="M 449.5 78 L 449.5 341" opacity="1"></path><path fill="none" data-z-index="1" class="highcharts-grid-line" d="M 547.5 78 L 547.5 341" opacity="1"></path></g><g class="highcharts-grid highcharts-yaxis-grid " data-z-index="1"><path fill="none" stroke="#e6e6e6" stroke-width="1" data-z-index="1" class="highcharts-grid-line" d="M 75 341.5 L 590 341.5" opacity="1"></path><path fill="none" stroke="#e6e6e6" stroke-width="1" data-z-index="1" class="highcharts-grid-line" d="M 75 288.5 L 590 288.5" opacity="1"></path><path fill="none" stroke="#e6e6e6" stroke-width="1" data-z-index="1" class="highcharts-grid-line" d="M 75 236.5 L 590 236.5" opacity="1"></path><path fill="none" stroke="#e6e6e6" stroke-width="1" data-z-index="1" class="highcharts-grid-line" d="M 75 183.5 L 590 183.5" opacity="1"></path><path fill="none" stroke="#e6e6e6" stroke-width="1" data-z-index="1" class="highcharts-grid-line" d="M 75 131.5 L 590 131.5" opacity="1"></path><path fill="none" stroke="#e6e6e6" stroke-width="1" data-z-index="1" class="highcharts-grid-line" d="M 75 77.5 L 590 77.5" opacity="1"></path></g><rect fill="none" class="highcharts-plot-border" data-z-index="1" x="75" y="78" width="515" height="263"></rect><g class="highcharts-axis highcharts-xaxis " data-z-index="2"><path fill="none" class="highcharts-tick" stroke="#ccd6eb" stroke-width="1" d="M 156.5 341 L 156.5 351" opacity="1"></path><path fill="none" class="highcharts-tick" stroke="#ccd6eb" stroke-width="1" d="M 254.5 341 L 254.5 351" opacity="1"></path><path fill="none" class="highcharts-tick" stroke="#ccd6eb" stroke-width="1" d="M 351.5 341 L 351.5 351" opacity="1"></path><path fill="none" class="highcharts-tick" stroke="#ccd6eb" stroke-width="1" d="M 449.5 341 L 449.5 351" opacity="1"></path><path fill="none" class="highcharts-tick" stroke="#ccd6eb" stroke-width="1" d="M 547.5 341 L 547.5 351" opacity="1"></path><text x="332.5" data-z-index="7" text-anchor="middle" transform="translate(0,0)" class="highcharts-axis-title" style="color:#666666;fill:#666666;" y="381"><tspan>Calories Burned (kcal) over previous 7 days</tspan></text><path fill="none" class="highcharts-axis-line" stroke="#ccd6eb" stroke-width="1" data-z-index="7" d="M 75 341.5 L 590 341.5"></path></g><g class="highcharts-axis highcharts-yaxis " data-z-index="2"><text x="26" data-z-index="7" text-anchor="middle" transform="translate(0,0) rotate(270 26 209.5)" class="highcharts-axis-title" style="color:#666666;fill:#666666;" y="209.5"><tspan>Overall Mood (/5)</tspan></text><path fill="none" class="highcharts-axis-line" data-z-index="7" d="M 75 78 L 75 341"></path></g><g class="highcharts-series-group" data-z-index="3"><g data-z-index="0.1" class="highcharts-series highcharts-series-0 highcharts-scatter-series highcharts-color-0 " transform="translate(75,78) scale(1 1)" clip-path="url(#highcharts-h0xibyx-250)"></g><g data-z-index="0.1" class="highcharts-markers highcharts-series-0 highcharts-scatter-series highcharts-color-0 " transform="translate(75,78) scale(1 1)" clip-path="none"><path fill="#000000" d="M 318 52 A 4 4 0 1 1 317.9999980000002 51.99600000066666 Z" class="highcharts-point highcharts-color-0"></path><path fill="#000000" d="M 326 62 A 4 4 0 1 1 325.9999980000002 61.99600000066666 Z" class="highcharts-point highcharts-color-0"></path><path fill="#000000" d="M 465 62 A 4 4 0 1 1 464.9999980000002 61.99600000066666 Z" class="highcharts-point highcharts-color-0"></path><path fill="#000000" d="M 355 62 A 4 4 0 1 1 354.9999980000002 61.99600000066666 Z" class="highcharts-point highcharts-color-0"></path><path fill="#000000" d="M 359 63 A 4 4 0 1 1 358.9999980000002 62.99600000066666 Z" class="highcharts-point highcharts-color-0"></path><path fill="#000000" d="M 387 63 A 4 4 0 1 1 386.9999980000002 62.99600000066666 Z" class="highcharts-point highcharts-color-0"></path><path fill="#000000" d="M 312 63 A 4 4 0 1 1 311.9999980000002 62.99600000066666 Z" class="highcharts-point highcharts-color-0"></path><path fill="#000000" d="M 330 63 A 4 4 0 1 1 329.9999980000002 62.99600000066666 Z" class="highcharts-point highcharts-color-0"></path><path fill="#000000" d="M 441 53 A 4 4 0 1 1 440.9999980000002 52.99600000066666 Z" class="highcharts-point highcharts-color-0"></path><path fill="#000000" d="M 314 53 A 4 4 0 1 1 313.9999980000002 52.99600000066666 Z" class="highcharts-point highcharts-color-0"></path><path fill="#000000" d="M 480 53 A 4 4 0 1 1 479.9999980000002 52.99600000066666 Z" class="highcharts-point highcharts-color-0"></path><path fill="#000000" d="M 316 53 A 4 4 0 1 1 315.9999980000002 52.99600000066666 Z" class="highcharts-point highcharts-color-0"></path><path fill="#000000" d="M 322 53 A 4 4 0 1 1 321.9999980000002 52.99600000066666 Z" class="highcharts-point highcharts-color-0"></path><path fill="#000000" d="M 471 53 A 4 4 0 1 1 470.9999980000002 52.99600000066666 Z" class="highcharts-point highcharts-color-0"></path><path fill="#000000" d="M 287 53 A 4 4 0 1 1 286.9999980000002 52.99600000066666 Z" class="highcharts-point highcharts-color-0"></path><path fill="#000000" d="M 414 53 A 4 4 0 1 1 413.9999980000002 52.99600000066666 Z" class="highcharts-point highcharts-color-0"></path><path fill="#000000" d="M 302 53 A 4 4 0 1 1 301.9999980000002 52.99600000066666 Z" class="highcharts-point highcharts-color-0"></path><path fill="#000000" d="M 316 53 A 4 4 0 1 1 315.9999980000002 52.99600000066666 Z" class="highcharts-point highcharts-color-0"></path><path fill="#000000" d="M 297 53 A 4 4 0 1 1 296.9999980000002 52.99600000066666 Z" class="highcharts-point highcharts-color-0"></path><path fill="#000000" d="M 324 53 A 4 4 0 1 1 323.9999980000002 52.99600000066666 Z" class="highcharts-point highcharts-color-0"></path><path fill="#000000" d="M 308 53 A 4 4 0 1 1 307.9999980000002 52.99600000066666 Z" class="highcharts-point highcharts-color-0"></path><path fill="#000000" d="M 414 53 A 4 4 0 1 1 413.9999980000002 52.99600000066666 Z" class="highcharts-point highcharts-color-0"></path><path fill="#000000" d="M 334 53 A 4 4 0 1 1 333.9999980000002 52.99600000066666 Z" class="highcharts-point highcharts-color-0"></path><path fill="#000000" d="M 316 53 A 4 4 0 1 1 315.9999980000002 52.99600000066666 Z" class="highcharts-point highcharts-color-0"></path><path fill="#000000" d="M 322 53 A 4 4 0 1 1 321.9999980000002 52.99600000066666 Z" class="highcharts-point highcharts-color-0"></path><path fill="#000000" d="M 326 53 A 4 4 0 1 1 325.9999980000002 52.99600000066666 Z" class="highcharts-point highcharts-color-0"></path><path fill="#000000" d="M 293 53 A 4 4 0 1 1 292.9999980000002 52.99600000066666 Z" class="highcharts-point highcharts-color-0"></path><path fill="#000000" d="M 349 53 A 4 4 0 1 1 348.9999980000002 52.99600000066666 Z" class="highcharts-point highcharts-color-0"></path><path fill="#000000" d="M 287 53 A 4 4 0 1 1 286.9999980000002 52.99600000066666 Z" class="highcharts-point highcharts-color-0"></path><path fill="#000000" d="M 291 53 A 4 4 0 1 1 290.9999980000002 52.99600000066666 Z" class="highcharts-point highcharts-color-0"></path><path fill="#000000" d="M 318 53 A 4 4 0 1 1 317.9999980000002 52.99600000066666 Z" class="highcharts-point highcharts-color-0"></path><path fill="#000000" d="M 285 53 A 4 4 0 1 1 284.9999980000002 52.99600000066666 Z" class="highcharts-point highcharts-color-0"></path><path fill="#000000" d="M 281 53 A 4 4 0 1 1 280.9999980000002 52.99600000066666 Z" class="highcharts-point highcharts-color-0"></path><path fill="#000000" d="M 308 53 A 4 4 0 1 1 307.9999980000002 52.99600000066666 Z" class="highcharts-point highcharts-color-0"></path><path fill="#000000" d="M 304 53 A 4 4 0 1 1 303.9999980000002 52.99600000066666 Z" class="highcharts-point highcharts-color-0"></path><path fill="#000000" d="M 304 53 A 4 4 0 1 1 303.9999980000002 52.99600000066666 Z" class="highcharts-point highcharts-color-0"></path><path fill="#000000" d="M 273 53 A 4 4 0 1 1 272.9999980000002 52.99600000066666 Z" class="highcharts-point highcharts-color-0"></path><path fill="#000000" d="M 299 53 A 4 4 0 1 1 298.9999980000002 52.99600000066666 Z" class="highcharts-point highcharts-color-0"></path><path fill="#000000" d="M 349 53 A 4 4 0 1 1 348.9999980000002 52.99600000066666 Z" class="highcharts-point highcharts-color-0"></path><path fill="#000000" d="M 281 53 A 4 4 0 1 1 280.9999980000002 52.99600000066666 Z" class="highcharts-point highcharts-color-0"></path><path fill="#000000" d="M 306 53 A 4 4 0 1 1 305.9999980000002 52.99600000066666 Z" class="highcharts-point highcharts-color-0"></path><path fill="#000000" d="M 265 103 A 4 4 0 1 1 264.9999980000002 102.99600000066667 Z" class="highcharts-point highcharts-color-0"></path><path fill="#000000" d="M 297 133 A 4 4 0 1 1 296.9999980000002 132.99600000066667 Z" class="highcharts-point highcharts-color-0"></path><path fill="#000000" d="M 283 163 A 4 4 0 1 1 282.9999980000002 162.99600000066667 Z" class="highcharts-point highcharts-color-0"></path><path fill="#000000" d="M 345 188 A 4 4 0 1 1 344.9999980000002 187.99600000066667 Z" class="highcharts-point highcharts-color-0"></path><path fill="#000000" d="M 302 197 A 4 4 0 1 1 301.9999980000002 196.99600000066667 Z" class="highcharts-point highcharts-color-0"></path><path fill="#000000" d="M 441 218 A 4 4 0 1 1 440.9999980000002 217.99600000066667 Z" class="highcharts-point highcharts-color-0"></path><path fill="#000000" d="M 318 218 A 4 4 0 1 1 317.9999980000002 217.99600000066667 Z" class="highcharts-point highcharts-color-0"></path><path fill="#000000" d="M 302 168 A 4 4 0 1 1 301.9999980000002 167.99600000066667 Z" class="highcharts-point highcharts-color-0"></path><path fill="#000000" d="M 299 168 A 4 4 0 1 1 298.9999980000002 167.99600000066667 Z" class="highcharts-point highcharts-color-0"></path><path fill="#000000" d="M 304 118 A 4 4 0 1 1 303.9999980000002 117.99600000066667 Z" class="highcharts-point highcharts-color-0"></path><path fill="#000000" d="M 387 99 A 4 4 0 1 1 386.9999980000002 98.99600000066667 Z" class="highcharts-point highcharts-color-0"></path><path fill="#000000" d="M 443 67 A 4 4 0 1 1 442.9999980000002 66.99600000066667 Z" class="highcharts-point highcharts-color-0"></path><path fill="#000000" d="M 330 67 A 4 4 0 1 1 329.9999980000002 66.99600000066667 Z" class="highcharts-point highcharts-color-0"></path><path fill="#000000" d="M 287 73 A 4 4 0 1 1 286.9999980000002 72.99600000066667 Z" class="highcharts-point highcharts-color-0"></path><path fill="#000000" d="M 334 98 A 4 4 0 1 1 333.9999980000002 97.99600000066667 Z" class="highcharts-point highcharts-color-0"></path><path fill="#000000" d="M 353 57 A 4 4 0 1 1 352.9999980000002 56.99600000066666 Z" class="highcharts-point highcharts-color-0"></path><path fill="#000000" d="M 271 105 A 4 4 0 1 1 270.9999980000002 104.99600000066667 Z" class="highcharts-point highcharts-color-0"></path><path fill="#000000" d="M 244 145 A 4 4 0 1 1 243.99999800000018 144.99600000066667 Z" class="highcharts-point highcharts-color-0"></path><path fill="#000000" d="M 279 145 A 4 4 0 1 1 278.9999980000002 144.99600000066667 Z" class="highcharts-point highcharts-color-0"></path><path fill="#000000" d="M 375 197 A 4 4 0 1 1 374.9999980000002 196.99600000066667 Z" class="highcharts-point highcharts-color-0"></path><path fill="#000000" d="M 388 179 A 4 4 0 1 1 387.9999980000002 178.99600000066667 Z" class="highcharts-point highcharts-color-0"></path><path fill="#000000" d="M 299 158 A 4 4 0 1 1 298.9999980000002 157.99600000066667 Z" class="highcharts-point highcharts-color-0"></path><path fill="#000000" d="M 375 140 A 4 4 0 1 1 374.9999980000002 139.99600000066667 Z" class="highcharts-point highcharts-color-0"></path><path fill="#000000" d="M 482 135 A 4 4 0 1 1 481.9999980000002 134.99600000066667 Z" class="highcharts-point highcharts-color-0"></path><path fill="#000000" d="M 291 105 A 4 4 0 1 1 290.9999980000002 104.99600000066667 Z" class="highcharts-point highcharts-color-0"></path><path fill="#000000" d="M 9 99 A 4 4 0 1 1 8.999998000000167 98.99600000066667 Z" class="highcharts-point highcharts-color-0"></path><path fill="#000000" d="M 55 90 A 4 4 0 1 1 54.99999800000017 89.99600000066667 Z" class="highcharts-point highcharts-color-0"></path><path fill="#000000" d="M 277 90 A 4 4 0 1 1 276.9999980000002 89.99600000066667 Z" class="highcharts-point highcharts-color-0"></path><path fill="#000000" d="M 389 90 A 4 4 0 1 1 388.9999980000002 89.99600000066667 Z" class="highcharts-point highcharts-color-0"></path><path fill="#000000" d="M 237 98 A 4 4 0 1 1 236.99999800000018 97.99600000066667 Z" class="highcharts-point highcharts-color-0"></path><path fill="#000000" d="M 375 68 A 4 4 0 1 1 374.9999980000002 67.99600000066667 Z" class="highcharts-point highcharts-color-0"></path><path fill="#000000" d="M 287 98 A 4 4 0 1 1 286.9999980000002 97.99600000066667 Z" class="highcharts-point highcharts-color-0"></path><path fill="#000000" d="M 381 120 A 4 4 0 1 1 380.9999980000002 119.99600000066667 Z" class="highcharts-point highcharts-color-0"></path><path fill="#000000" d="M 305 135 A 4 4 0 1 1 304.9999980000002 134.99600000066667 Z" class="highcharts-point highcharts-color-0"></path><path fill="#000000" d="M 352 128 A 4 4 0 1 1 351.9999980000002 127.99600000066667 Z" class="highcharts-point highcharts-color-0"></path><path fill="#000000" d="M 264 140 A 4 4 0 1 1 263.9999980000002 139.99600000066667 Z" class="highcharts-point highcharts-color-0"></path><path fill="#000000" d="M 190 118 A 4 4 0 1 1 189.99999800000018 117.99600000066667 Z" class="highcharts-point highcharts-color-0"></path><path fill="#000000" d="M 183 95 A 4 4 0 1 1 182.99999800000018 94.99600000066667 Z" class="highcharts-point highcharts-color-0"></path><path fill="#000000" d="M 227 73 A 4 4 0 1 1 226.99999800000018 72.99600000066667 Z" class="highcharts-point highcharts-color-0"></path><path fill="#000000" d="M 213 73 A 4 4 0 1 1 212.99999800000018 72.99600000066667 Z" class="highcharts-point highcharts-color-0"></path><path fill="#000000" d="M 433 73 A 4 4 0 1 1 432.9999980000002 72.99600000066667 Z" class="highcharts-point highcharts-color-0"></path><path fill="#000000" d="M 461 58 A 4 4 0 1 1 460.9999980000002 57.99600000066666 Z" class="highcharts-point highcharts-color-0"></path><path fill="#000000" d="M 206 58 A 4 4 0 1 1 205.99999800000018 57.99600000066666 Z" class="highcharts-point highcharts-color-0"></path><path fill="#000000" d="M 203 58 A 4 4 0 1 1 202.99999800000018 57.99600000066666 Z" class="highcharts-point highcharts-color-0"></path><path fill="#000000" d="M 379 58 A 4 4 0 1 1 378.9999980000002 57.99600000066666 Z" class="highcharts-point highcharts-color-0"></path><path fill="#000000" d="M 293 58 A 4 4 0 1 1 292.9999980000002 57.99600000066666 Z" class="highcharts-point highcharts-color-0"></path><path fill="#000000" d="M 204 53 A 4 4 0 1 1 203.99999800000018 52.99600000066666 Z" class="highcharts-point highcharts-color-0"></path><path fill="#000000" d="M 162 63 A 4 4 0 1 1 161.99999800000018 62.99600000066666 Z" class="highcharts-point highcharts-color-0"></path><path fill="#000000" d="M 54 68 A 4 4 0 1 1 53.99999800000017 67.99600000066667 Z" class="highcharts-point highcharts-color-0"></path><path fill="#000000" d="M 166 68 A 4 4 0 1 1 165.99999800000018 67.99600000066667 Z" class="highcharts-point highcharts-color-0"></path><path fill="#000000" d="M 206 78 A 4 4 0 1 1 205.99999800000018 77.99600000066667 Z" class="highcharts-point highcharts-color-0"></path><path fill="#000000" d="M 355 78 A 4 4 0 1 1 354.9999980000002 77.99600000066667 Z" class="highcharts-point highcharts-color-0"></path><path fill="#000000" d="M 218 63 A 4 4 0 1 1 217.99999800000018 62.99600000066666 Z" class="highcharts-point highcharts-color-0"></path><path fill="#000000" d="M 287 63 A 4 4 0 1 1 286.9999980000002 62.99600000066666 Z" class="highcharts-point highcharts-color-0"></path><path fill="#000000" d="M 247 81 A 4 4 0 1 1 246.99999800000018 80.99600000066667 Z" class="highcharts-point highcharts-color-0"></path><path fill="#000000" d="M 298 96 A 4 4 0 1 1 297.9999980000002 95.99600000066667 Z" class="highcharts-point highcharts-color-0"></path><path fill="#000000" d="M 429 126 A 4 4 0 1 1 428.9999980000002 125.99600000066667 Z" class="highcharts-point highcharts-color-0"></path><path fill="#000000" d="M 318 126 A 4 4 0 1 1 317.9999980000002 125.99600000066667 Z" class="highcharts-point highcharts-color-0"></path><path fill="#000000" d="M 351 126 A 4 4 0 1 1 350.9999980000002 125.99600000066667 Z" class="highcharts-point highcharts-color-0"></path><path fill="#000000" d="M 215 108 A 4 4 0 1 1 214.99999800000018 107.99600000066667 Z" class="highcharts-point highcharts-color-0"></path><path fill="#000000" d="M 394 93 A 4 4 0 1 1 393.9999980000002 92.99600000066667 Z" class="highcharts-point highcharts-color-0"></path><path fill="#000000" d="M 300 113 A 4 4 0 1 1 299.9999980000002 112.99600000066667 Z" class="highcharts-point highcharts-color-0"></path><path fill="#000000" d="M 513 123 A 4 4 0 1 1 512.9999980000001 122.99600000066667 Z" class="highcharts-point highcharts-color-0"></path><path fill="#000000" d="M 117 133 A 4 4 0 1 1 116.99999800000016 132.99600000066667 Z" class="highcharts-point highcharts-color-0"></path><path fill="#000000" d="M 473 133 A 4 4 0 1 1 472.9999980000002 132.99600000066667 Z" class="highcharts-point highcharts-color-0"></path><path fill="#000000" d="M 394 93 A 4 4 0 1 1 393.9999980000002 92.99600000066667 Z" class="highcharts-point highcharts-color-0"></path><path fill="#000000" d="M 295 63 A 4 4 0 1 1 294.9999980000002 62.99600000066666 Z" class="highcharts-point highcharts-color-0"></path><path fill="#000000" d="M 296 53 A 4 4 0 1 1 295.9999980000002 52.99600000066666 Z" class="highcharts-point highcharts-color-0"></path><path fill="#000000" d="M 46 53 A 4 4 0 1 1 45.99999800000017 52.99600000066666 Z" class="highcharts-point highcharts-color-0"></path><path fill="#000000" d="M 383 53 A 4 4 0 1 1 382.9999980000002 52.99600000066666 Z" class="highcharts-point highcharts-color-0"></path><path fill="#000000" d="M 506 53 A 4 4 0 1 1 505.9999980000002 52.99600000066666 Z" class="highcharts-point highcharts-color-0"></path><path fill="#000000" d="M 406 48 A 4 4 0 1 1 405.9999980000002 47.99600000066666 Z" class="highcharts-point highcharts-color-0"></path><path fill="#000000" d="M 328 38 A 4 4 0 1 1 327.9999980000002 37.99600000066666 Z" class="highcharts-point highcharts-color-0"></path><path fill="#000000" d="M 260 38 A 4 4 0 1 1 259.9999980000002 37.99600000066666 Z" class="highcharts-point highcharts-color-0"></path><path fill="#000000" d="M 287 38 A 4 4 0 1 1 286.9999980000002 37.99600000066666 Z" class="highcharts-point highcharts-color-0"></path><path fill="#000000" d="M 116 35 A 4 4 0 1 1 115.99999800000016 34.99600000066666 Z" class="highcharts-point highcharts-color-0"></path><path fill="#000000" d="M 363 39 A 4 4 0 1 1 362.9999980000002 38.99600000066666 Z" class="highcharts-point highcharts-color-0"></path><path fill="#000000" d="M 300 53 A 4 4 0 1 1 299.9999980000002 52.99600000066666 Z" class="highcharts-point highcharts-color-0"></path><path fill="#000000" d="M 183 53 A 4 4 0 1 1 182.99999800000018 52.99600000066666 Z" class="highcharts-point highcharts-color-0"></path><path fill="#000000" d="M 244 53 A 4 4 0 1 1 243.99999800000018 52.99600000066666 Z" class="highcharts-point highcharts-color-0"></path></g></g><text x="300" text-anchor="middle" class="highcharts-title" data-z-index="4" style="color:#333333;font-size:18px;fill:#333333;" y="24"><tspan>Overall Mood Following Calories Burned</tspan></text><text x="300" text-anchor="middle" class="highcharts-subtitle" data-z-index="4" style="color:#666666;fill:#666666;" y="46"><tspan>An increase in 7 days cumulative Calories Burned is usually followed by an decrease in</tspan><tspan dy="15" x="300">Overall Mood. (R = -0.078)</tspan></text><g class="highcharts-axis-labels highcharts-xaxis-labels " data-z-index="7"><text x="156.92151318033" style="color:#666666;cursor:default;font-size:11px;fill:#666666;" text-anchor="middle" transform="translate(0,0)" y="360" opacity="1">1000</text><text x="254.67895363131" style="color:#666666;cursor:default;font-size:11px;fill:#666666;" text-anchor="middle" transform="translate(0,0)" y="360" opacity="1">1500</text><text x="352.43639408229" style="color:#666666;cursor:default;font-size:11px;fill:#666666;" text-anchor="middle" transform="translate(0,0)" y="360" opacity="1">2000</text><text x="450.19383453327" style="color:#666666;cursor:default;font-size:11px;fill:#666666;" text-anchor="middle" transform="translate(0,0)" y="360" opacity="1">2500</text><text x="547.95127498426" style="color:#666666;cursor:default;font-size:11px;fill:#666666;" text-anchor="middle" transform="translate(0,0)" y="360" opacity="1">3000</text></g><g class="highcharts-axis-labels highcharts-yaxis-labels " data-z-index="7"><text x="60" style="color:#666666;cursor:default;font-size:11px;fill:#666666;" text-anchor="end" transform="translate(0,0)" y="345" opacity="1">2</text><text x="60" style="color:#666666;cursor:default;font-size:11px;fill:#666666;" text-anchor="end" transform="translate(0,0)" y="292" opacity="1">2.25</text><text x="60" style="color:#666666;cursor:default;font-size:11px;fill:#666666;" text-anchor="end" transform="translate(0,0)" y="239" opacity="1">2.5</text><text x="60" style="color:#666666;cursor:default;font-size:11px;fill:#666666;" text-anchor="end" transform="translate(0,0)" y="187" opacity="1">2.75</text><text x="60" style="color:#666666;cursor:default;font-size:11px;fill:#666666;" text-anchor="end" transform="translate(0,0)" y="134" opacity="1">3</text><text x="60" style="color:#666666;cursor:default;font-size:11px;fill:#666666;" text-anchor="end" transform="translate(0,0)" y="82" opacity="1">3.25</text></g><a xlink:href="https://quantimo.do" target="_blank">
                    <text x="590" class="highcharts-credits" text-anchor="end" data-z-index="8"
                          style="cursor:pointer;color:#999999;font-size:9px;fill:#999999;" y="295">https://quantimo.do
                    </text>
                </a></svg>