<?xml version="1.0" standalone="no"?><!DOCTYPE svg PUBLIC "-//W3C//DTD SVG 1.1//EN" "http://www.w3.org/Graphics/SVG/1.1/DTD/svg11.dtd"><svg xmlns:xlink="http://www.w3.org/1999/xlink" version="1.1" class="highcharts-root" style="font-family:&quot;Lucida Grande&quot;, &quot;Lucida Sans Unicode&quot;, Arial, Helvetica, sans-serif;font-size:12px;" xmlns="http://www.w3.org/2000/svg" width="600" height="400"><desc>Created with Highstock 6.2.0</desc><defs><clipPath id="highcharts-shrninn-416"><rect x="0" y="0" width="558" height="299" fill="none"></rect></clipPath><clipPath id="highcharts-shrninn-826"><rect x="0" y="0" width="558" height="299" fill="none"></rect></clipPath><clipPath id="highcharts-shrninn-827"><rect x="32" y="63" width="558" height="299" fill="none"></rect></clipPath></defs><rect fill="#ffffff" class="highcharts-background" x="0" y="0" width="600" height="400" rx="0" ry="0"></rect><rect fill="none" class="highcharts-plot-background" x="32" y="63" width="558" height="299"></rect><g class="highcharts-pane-group" data-z-index="0"></g><g class="highcharts-grid highcharts-xaxis-grid " data-z-index="1"><path fill="none" data-z-index="1" class="highcharts-grid-line" d="M 54.5 63 L 54.5 362" opacity="1"></path><path fill="none" data-z-index="1" class="highcharts-grid-line" d="M 180.5 63 L 180.5 362" opacity="1"></path><path fill="none" data-z-index="1" class="highcharts-grid-line" d="M 306.5 63 L 306.5 362" opacity="1"></path><path fill="none" data-z-index="1" class="highcharts-grid-line" d="M 431.5 63 L 431.5 362" opacity="1"></path><path fill="none" data-z-index="1" class="highcharts-grid-line" d="M 557.5 63 L 557.5 362" opacity="1"></path></g><g class="highcharts-grid highcharts-yaxis-grid " data-z-index="1"><path fill="none" stroke="#e6e6e6" stroke-width="1" data-z-index="1" class="highcharts-grid-line" d="M 32 362.5 L 590 362.5" opacity="1"></path><path fill="none" stroke="#e6e6e6" stroke-width="1" data-z-index="1" class="highcharts-grid-line" d="M 32 312.5 L 590 312.5" opacity="1"></path><path fill="none" stroke="#e6e6e6" stroke-width="1" data-z-index="1" class="highcharts-grid-line" d="M 32 262.5 L 590 262.5" opacity="1"></path><path fill="none" stroke="#e6e6e6" stroke-width="1" data-z-index="1" class="highcharts-grid-line" d="M 32 213.5 L 590 213.5" opacity="1"></path><path fill="none" stroke="#e6e6e6" stroke-width="1" data-z-index="1" class="highcharts-grid-line" d="M 32 163.5 L 590 163.5" opacity="1"></path><path fill="none" stroke="#e6e6e6" stroke-width="1" data-z-index="1" class="highcharts-grid-line" d="M 32 113.5 L 590 113.5" opacity="1"></path><path fill="none" stroke="#e6e6e6" stroke-width="1" data-z-index="1" class="highcharts-grid-line" d="M 32 62.5 L 590 62.5" opacity="1"></path></g><rect fill="none" class="highcharts-plot-border" data-z-index="1" x="32" y="63" width="558" height="299"></rect><g class="highcharts-axis highcharts-xaxis " data-z-index="2"><path fill="none" class="highcharts-tick" stroke="#ccd6eb" stroke-width="1" d="M 54.5 362 L 54.5 372" opacity="1"></path><path fill="none" class="highcharts-tick" stroke="#ccd6eb" stroke-width="1" d="M 180.5 362 L 180.5 372" opacity="1"></path><path fill="none" class="highcharts-tick" stroke="#ccd6eb" stroke-width="1" d="M 306.5 362 L 306.5 372" opacity="1"></path><path fill="none" class="highcharts-tick" stroke="#ccd6eb" stroke-width="1" d="M 431.5 362 L 431.5 372" opacity="1"></path><path fill="none" class="highcharts-tick" stroke="#ccd6eb" stroke-width="1" d="M 557.5 362 L 557.5 372" opacity="1"></path><path fill="none" class="highcharts-axis-line" stroke="#ccd6eb" stroke-width="1" data-z-index="7" d="M 32 362.5 L 590 362.5"></path></g><g class="highcharts-axis highcharts-yaxis " data-z-index="2"><path fill="none" class="highcharts-axis-line" data-z-index="7" d="M 32 63 L 32 362"></path></g><g class="highcharts-series-group" data-z-index="3"><g data-z-index="0.1" class="highcharts-series highcharts-series-0 highcharts-spline-series highcharts-color-0 " transform="translate(32,63) scale(1 1)" clip-path="url(#highcharts-shrninn-826)"><path fill="none" d="M 5.4705882352941 89.69999999999999 C 5.4705882352941 89.69999999999999 17.41086274434444 89.69999999999999 25.371045750378 89.69999999999999 C 26.3675257476164 89.69999999999999 26.8657657462356 129.56666666666666 27.862245743474 129.56666666666666 C 144.4026309454684 129.56666666666666 202.6728235464656 99.66666666666666 319.21320874846 99.66666666666666 C 319.35079923614 99.66666666666666 319.41959447998 169.43333333376566 319.55718496766 199.33333333333331 C 319.69477545534403 229.23333333376567 319.76357069918606 249.16666666666666 319.90116118687 249.16666666666666 C 320.17634216223 249.16666666666666 320.31393264991004 249.16666666666666 320.58911362527 249.16666666666666 C 320.72670411294996 249.16666666666666 320.79549935678995 99.66666666666666 320.93308984447 99.66666666666666 C 321.07068033215 99.66666666666666 321.13947557599005 199.33333333333331 321.27706606367 199.33333333333331 C 321.414656551354 199.33333333333331 321.483451795196 149.5 321.62104228288 149.5 C 321.75863277056 149.5 321.82742801439997 199.33333333333331 321.96501850208 199.33333333333331 C 322.515380452804 199.33333333333331 322.790561428166 149.5 323.34092337889 149.5 C 323.47851386657004 149.5 323.54730911041 249.16666666666666 323.68489959809 249.16666666666666 C 324.09767106113003 249.16666666666666 324.30405679265004 199.33333333333331 324.71682825569 199.33333333333331 C 324.854418743374 199.33333333333331 324.923213987216 249.16666666666666 325.0608044749 249.16666666666666 C 325.19839496258 249.16666666666666 325.26719020641997 249.16666666666666 325.4047806941 249.16666666666666 C 325.54237118177997 249.16666666666666 325.61116642562 179.39999999999998 325.7487569133 149.5 C 325.88634740097996 119.60000000000001 325.95514264482 99.66666666666666 326.0927331325 99.66666666666666 C 326.643095083224 99.66666666666666 326.918276058586 149.5 327.46863800931 149.5 C 327.74381898467 149.5 327.88140947235 149.5 328.15659044771 149.5 C 328.569361910754 149.5 328.77574764227603 249.16666666666666 329.18851910532 249.16666666666666 C 329.46370008068 249.16666666666666 329.60129056836 249.16666666666666 329.87647154372 249.16666666666666 C 330.151652519084 249.16666666666666 330.289243006766 249.16666666666666 330.56442398213 249.16666666666666 C 330.83960495749 249.16666666666666 330.97719544517 249.16666666666666 331.25237642053 249.16666666666666 C 331.665147883574 249.16666666666666 331.871533615096 249.16666666666666 332.28430507814 249.16666666666666 C 333.109848004224 249.16666666666666 333.522619467266 149.5 334.34816239335 149.5 C 335.311295807118 149.5 335.79286251400197 182.91764705879874 336.75599592777 199.33333333333331 C 338.131900804578 222.78431372546538 338.81985324298205 249.16666666666666 340.19575811979 249.16666666666666 C 340.33334860747 249.16666666666666 340.40214385131003 249.16666666666666 340.53973433899 249.16666666666666 C 340.67732482667 249.16666666666666 340.74612007051 249.16666666666666 340.88371055819 249.16666666666666 C 341.02130104587 249.16666666666666 341.09009628971 249.16666666666666 341.22768677739 249.16666666666666 C 341.36527726507 249.16666666666666 341.43407250891 249.16666666666666 341.57166299659 249.16666666666666 C 341.709253484274 249.16666666666666 341.778048728116 249.16666666666666 341.9156392158 249.16666666666666 C 342.05322970348004 249.16666666666666 342.12202494732 249.16666666666666 342.259615435 249.16666666666666 C 342.39720592268003 249.16666666666666 342.46600116651996 249.16666666666666 342.6035916542 249.16666666666666 C 342.74118214187996 249.16666666666666 342.80997738571995 249.16666666666666 342.9475678734 249.16666666666666 C 343.08515836108 249.16666666666666 343.15395360492005 249.16666666666666 343.2915440926 249.16666666666666 C 343.4291345802841 249.16666666666666 343.497929824126 249.16666666666666 343.63552031181 249.16666666666666 C 343.77311079949 249.16666666666666 343.84190604332997 249.16666666666666 343.97949653101 249.16666666666666 C 345.080220432454 249.16666666666666 345.630582383176 149.5 346.73130628462 149.5 C 346.868896772304 149.5 346.937692016146 199.33333333333331 347.07528250383 199.33333333333331 C 347.21287299151 199.33333333333331 347.28166823535 162.78888888888707 347.41925872303 149.5 C 347.69443969839 122.92222222222038 347.83203018607 99.66666666666666 348.10721116143 99.66666666666666 C 348.382392136794 99.66666666666666 348.51998262447603 99.66666666666666 348.79516359984 99.66666666666666 C 348.93275408752004 99.66666666666666 349.00154933136 249.16666666666666 349.13913981904 249.16666666666666 C 349.4143207944 249.16666666666666 349.55191128207997 209.29999999996343 349.82709225744 199.33333333333331 C 350.652635183524 169.4333333332968 351.065406646566 149.5 351.89094957265 149.5 C 352.028540060334 149.5 352.097335304176 149.5 352.23492579186 149.5 C 352.922878230264 149.5 353.266854449466 149.5 353.95480688787 149.5 C 354.22998786322995 149.5 354.36757835091004 149.5 354.64275932627 149.5 C 356.15625469075803 149.5 356.91300237300203 149.5 358.42649773749 149.5 C 362.279031392554 149.5 364.20529822008604 149.5 368.05783187515 149.5 C 368.33301285051004 149.5 368.47060333819 99.66666666666666 368.74578431355 99.66666666666666 C 370.39687016572196 99.66666666666666 371.222413091808 157.12156862743308 372.87349894398 199.33333333333331 C 373.561451382384 216.9215686274331 373.905427601586 249.16666666666666 374.59338003999 249.16666666666666 C 374.786423953158 249.16666666666666 374.88294590974203 227.3004459879409 375.07598982291 199.33333333333331 C 375.158126885102 187.43377932127424 375.199195416198 149.5 375.28133247839 149.5 C 375.432476584598 149.5 375.508048637702 149.5 375.65919274391 149.5 C 375.78322961306606 149.5 375.845248047644 99.66666666666666 375.9692849168 99.66666666666666 C 376.092351964112 99.66666666666666 376.153885487768 174.41666666666666 376.27695253508 174.41666666666666 C 376.41454302276395 174.41666666666666 376.483338266606 170.8446203460483 376.62092875429 166.11111111111111 C 376.773042682334 160.87795367938162 376.84909964635597 149.5 377.0012135744 149.5 C 377.276394549764 149.5 377.413985037446 172.75555555542928 377.68916601281 199.33333333333331 C 377.82675650049003 212.62222222209593 377.89555174432996 249.16666666666666 378.03314223201 249.16666666666666 C 378.17073271968997 249.16666666666666 378.23952796352995 99.66666666666666 378.37711845121 99.66666666666666 C 378.51470893889 99.66666666666666 378.58350418273005 99.66666666666666 378.72109467041 99.66666666666666 C 378.8586851580941 99.66666666666666 378.927480401936 149.5 379.06507088962 149.5 C 379.2026613773 149.5 379.27145662114 99.66666666666666 379.40904710882 99.66666666666666 C 379.54663759650003 99.66666666666666 379.61543284034 149.5 379.75302332802 149.5 C 379.898041154064 149.5 379.970550067086 149.5 380.11556789313 149.5 C 380.245731042446 149.5 380.31081261710403 199.33333333333331 380.44097576642 199.33333333333331 C 380.57856625410403 199.33333333333331 380.647361497946 99.66666666666666 380.78495198563 99.66666666666666 C 380.92254247331005 99.66666666666666 380.99133771715 199.33333333333331 381.12892820483 199.33333333333331 C 381.25199525214197 199.33333333333331 381.313528775798 167.32925925900452 381.43659582311 149.5 C 381.588709751158 127.46259259233783 381.664766715182 99.66666666666666 381.81688064323 99.66666666666666 C 381.95447113091 99.66666666666666 382.02326637475 249.16666666666666 382.16085686243 249.16666666666666 C 382.29844735011403 249.16666666666666 382.367242593956 249.16666666666666 382.50483308164 249.16666666666666 C 382.648134211552 249.16666666666666 382.719784776508 199.33333333333331 382.86308590642 199.33333333333331 C 382.99496575186794 199.33333333333331 383.060905674592 249.16666666666666 383.19278552004 249.16666666666666 C 383.495201131052 249.16666666666666 383.646408936558 199.33333333333331 383.94882454757 199.33333333333331 C 384.064222199182 199.33333333333331 384.121921024988 199.33333333333331 384.2373186766 199.33333333333331 C 384.36986736470004 199.33333333333331 384.43614170875003 149.5 384.56869039685 149.5 C 384.70628088453003 149.5 384.77507612836996 199.33333333333331 384.91266661605 199.33333333333331 C 385.05025710372996 199.33333333333331 385.11905234756995 199.33333333333331 385.25664283525 199.33333333333331 C 385.394496082542 199.33333333333331 385.463422706188 49.833333333333314 385.60127595348 49.833333333333314 C 385.73860368155204 49.833333333333314 385.807267545588 249.16666666666666 385.94459527366 249.16666666666666 C 386.08218576134 249.16666666666666 386.15098100518 149.5 386.28857149286 149.5 C 386.42616198054003 149.5 386.49495722438 199.33333333333331 386.63254771206 199.33333333333331 C 386.77013819974 199.33333333333331 386.83893344357995 199.33333333333331 386.97652393126 199.33333333333331 C 387.11411441893995 199.33333333333331 387.18290966278 169.4333333330451 387.32050015046 149.5 C 387.45809063814403 129.56666666637844 387.526885881986 99.66666666666666 387.66447636967 99.66666666666666 C 387.80206685735004 99.66666666666666 387.87086210118997 199.33333333333331 388.00845258887 199.33333333333331 C 388.14604307655 199.33333333333331 388.21483832038996 199.33333333333331 388.35242880807 199.33333333333331 C 388.62760978343 199.33333333333331 388.76520027111 189.36666666627963 389.04038124647 149.5 C 389.177971734154 129.56666666627962 389.246766977996 49.833333333333314 389.38435746568 49.833333333333314 C 389.52194795336 49.833333333333314 389.5907431972 69.76666666666665 389.72833368488 99.66666666666666 C 389.86592417255997 129.56666666666666 389.9347194164 199.33333333333331 390.07230990408 199.33333333333331 C 390.20990039176 199.33333333333331 390.2786956356 199.33333333333331 390.41628612328 199.33333333333331 C 390.55387661096 199.33333333333331 390.6226718548 199.33333333333331 390.76026234248 199.33333333333331 C 390.89785283016397 199.33333333333331 390.966648074006 169.43333333362156 391.10423856169 149.5 C 391.24182904937004 129.5666666669549 391.31062429321 99.66666666666666 391.44821478089 99.66666666666666 C 391.58580526857 99.66666666666666 391.65460051240996 129.81196950048135 391.79219100009 149.5 C 391.933210102586 169.67863616714803 392.003719653834 199.33333333333331 392.14473875633 199.33333333333331 C 392.280400747706 199.33333333333331 392.34823174339397 99.66666666666666 392.48389373477 99.66666666666666 C 392.619984103942 99.66666666666666 392.688029288528 99.66666666666666 392.8241196577 99.66666666666666 C 392.96171014538 99.66666666666666 393.03050538921997 149.5 393.1680958769 149.5 C 393.30568636458 149.5 393.37448160842 49.833333333333314 393.5120720961 49.833333333333314 C 393.63513914341604 49.833333333333314 393.69667266707404 113.8414814808472 393.81973971439 149.5 C 393.971853642434 193.5748148141805 394.047910606456 249.16666666666666 394.2000245345 249.16666666666666 C 394.323091581816 249.16666666666666 394.384625105474 174.41666666666666 394.50769215279 174.41666666666666 C 394.659806080838 174.41666666666666 394.73586304486196 199.33333333333331 394.88797697291 199.33333333333331 C 395.02556746058997 199.33333333333331 395.09436270442995 49.833333333333314 395.23195319211 49.833333333333314 C 395.36954367978996 49.833333333333314 395.43833892363 149.5 395.57592941131 149.5 C 395.71351989899006 149.5 395.78231514283 149.5 395.91990563051 149.5 C 396.195086605874 149.5 396.332677093556 249.16666666666666 396.60785806892 249.16666666666666 C 396.74544855659997 249.16666666666666 396.81424380044 229.23333333332715 396.95183428812 199.33333333333331 C 397.0894247758 169.43333333332714 397.15822001964 99.66666666666666 397.29581050732 99.66666666666666 C 397.433400995 99.66666666666666 397.50219623884004 119.62731414580412 397.63978672652 149.5 C 397.777628826436 179.4273141458041 397.846549876394 249.16666666666666 397.98439197631 249.16666666666666 C 398.122098715214 249.16666666666666 398.190952084666 219.13010640940107 398.32865882357 199.33333333333331 C 398.46826539408994 179.26343974273442 398.53806867935 149.5 398.67767524987 149.5 C 398.81288179125403 149.5 398.880485061946 149.5 399.01569160333 149.5 C 399.15328209101403 149.5 399.222077334856 199.33333333333331 399.35966782254 199.33333333333331 C 399.77243928558 199.33333333333331 399.9788250171 160.37272727266915 400.39159648014 149.5 C 401.492320381588 120.50606060600248 402.042682332312 99.66666666666666 403.14340623376 99.66666666666666 C 403.693768184484 99.66666666666666 403.96894915984603 159.46666666657057 404.51931111057 199.33333333333331 C 404.79449208593 219.2666666665706 404.93208257361005 249.16666666666666 405.20726354897 249.16666666666666 C 405.34485403665 249.16666666666666 405.41364928048995 149.5 405.55123976817 149.5 C 405.68883025585 149.5 405.75762549969005 199.33333333333331 405.89521598737 199.33333333333331 C 406.17039696273406 199.33333333333331 406.307987450416 149.5 406.58316842578 149.5 C 406.99593988882 149.5 407.20232562034 199.33333333333331 407.61509708338 199.33333333333331 C 407.75268757106403 199.33333333333331 407.821482814906 199.33333333333331 407.95907330259 199.33333333333331 C 408.09671315722596 199.33333333333331 408.165533084544 169.44048533930635 408.30317293918 149.5 C 408.440714059904 129.57381867263967 408.509484620266 99.66666666666666 408.64702574099 99.66666666666666 C 408.78461622866996 99.66666666666666 408.85341147250995 199.33333333333331 408.99100196019 199.33333333333331 C 409.12859244786995 199.33333333333331 409.19738769171 149.5 409.33497817939 149.5 C 409.47256866707403 149.5 409.54136391091595 149.5 409.6789543986 149.5 C 410.09172586163993 149.5 410.29811159315994 99.66666666666666 410.7108830562 99.66666666666666 C 410.986064031564 99.66666666666666 411.123654519246 149.5 411.39883549461 149.5 C 411.720730351518 149.5 411.88167777997205 149.5 412.20357263688 149.5 C 412.43230886023605 149.5 412.546676971914 149.5 412.77541319527 149.5 C 412.91273455340996 149.5 412.98139523248 249.16666666666666 413.11871659062 249.16666666666666 C 413.26189669186004 249.16666666666666 413.33348674248 249.16666666666666 413.47666684372 249.16666666666666 C 413.60928719353194 249.16666666666666 413.67559736843793 249.16666666666666 413.80821771825 249.16666666666666 C 413.945188730238 249.16666666666666 414.01367423623196 199.33333333333331 414.15064524822 199.33333333333331 C 414.2882357359 199.33333333333331 414.35703097974 199.33333333333331 414.49462146742 199.33333333333331 C 414.63221195510397 199.33333333333331 414.701007198946 249.16666666666666 414.83859768663 249.16666666666666 C 414.97618817431004 249.16666666666666 415.04498341814997 249.16666666666666 415.18257390583 249.16666666666666 C 415.32016439351 249.16666666666666 415.38895963734996 99.66666666666666 415.52655012503 99.66666666666666 C 416.352093051114 99.66666666666666 416.76486451415605 115.3285714285469 417.59040744024 149.5 C 417.72799792792 155.19523809521357 417.79679317176 179.40000000028823 417.93438365944 199.33333333333331 C 418.071974147124 219.26666666695488 418.14076939096606 249.16666666666666 418.27835987865 249.16666666666666 C 418.55354085400995 249.16666666666666 418.69113134169004 210.72380952376042 418.96631231705 199.33333333333331 C 419.654264755454 170.85714285709378 419.99824097465597 149.5 420.68619341306 149.5 C 420.82378390074 149.5 420.89257914458005 149.5 421.03016963226 149.5 C 421.16776011994006 149.5 421.23655536378 199.33333333333331 421.37414585146 199.33333333333331 C 421.49721289877596 199.33333333333331 421.55874642243396 174.41666666666666 421.68181346975 174.41666666666666 C 421.866672022886 174.41666666666666 421.95910129945406 199.33333333333331 422.14395985259 199.33333333333331 C 422.252385615834 199.33333333333331 422.3065984974561 199.33333333333331 422.4150242607 199.33333333333331 C 422.549034847728 199.33333333333331 422.616040141242 199.33333333333331 422.75005072827 199.33333333333331 C 422.88764121595403 199.33333333333331 422.956436459796 199.33333333333331 423.09402694748 199.33333333333331 C 423.21709399479204 199.33333333333331 423.27862751844805 149.5 423.40169456576 149.5 C 423.53928505344004 149.5 423.60808029727997 199.33333333333331 423.74567078496 199.33333333333331 C 423.898029955312 199.33333333333331 423.97420954048795 199.33333333333331 424.12656871084 199.33333333333331 C 424.264213342928 199.33333333333331 424.33303565897194 199.33333333333331 424.47068029106 199.33333333333331 C 424.59344795166396 199.33333333333331 424.654831781966 199.33333333333331 424.77759944257 199.33333333333331 C 424.93032966134194 199.33333333333331 425.0066947707281 199.33333333333331 425.1594249895 199.33333333333331 C 425.29652658505603 199.33333333333331 425.365077382834 149.5 425.50217897839 149.5 C 425.63964206747005 149.5 425.70837361201 149.5 425.84583670109 149.5 C 425.984807871094 149.5 426.054293456096 149.5 426.1932646261 149.5 C 426.32947443146 149.5 426.39757933414 199.33333333333331 426.5337891395 199.33333333333331 C 426.67601056628 199.33333333333331 426.74712127967007 199.33333333333331 426.88934270645 199.33333333333331 C 427.02261438159803 199.33333333333331 427.089250219172 199.33333333333331 427.22252189432 199.33333333333331 C 427.35980025543194 199.33333333333331 427.428439435988 199.33333333333331 427.5657177971 199.33333333333331 C 427.724443712472 199.33333333333331 427.803806670158 249.16666666666666 427.96253258553 249.16666666666666 C 428.35416862088204 249.16666666666666 428.54998663855804 243.58628343090703 428.94162267391 199.33333333333331 C 429.07921316159 183.78628343090702 429.14800840542995 99.66666666666666 429.28559889311 99.66666666666666 C 429.42318938078995 99.66666666666666 429.49198462463 129.5666666669549 429.62957511231 149.5 C 429.76716559999403 169.43333333362156 429.83596084383606 199.33333333333331 429.97355133152 199.33333333333331 C 430.11114181920004 199.33333333333331 430.17993706304 199.33333333333331 430.31752755072 199.33333333333331 C 430.4551180384 199.33333333333331 430.52391328224 99.66666666666666 430.66150376992 99.66666666666666 C 430.79909425759996 99.66666666666666 430.86788950144 249.16666666666666 431.00547998912 249.16666666666666 C 431.14307047679995 249.16666666666666 431.21186572064 99.66666666666666 431.34945620832 99.66666666666666 C 431.48704669600403 99.66666666666666 431.55584193984595 149.5 431.69343242753 149.5 C 431.83102291521 149.5 431.89981815905 99.66666666666666 432.03740864673 99.66666666666666 C 432.17499913441 99.66666666666666 432.24379437825 179.4000000000027 432.38138486593 199.33333333333331 C 432.65656584129 239.20000000000272 432.79415632896996 249.16666666666666 433.06933730433 249.16666666666666 C 433.230330914778 249.16666666666666 433.310827720002 99.66666666666666 433.47182133045 99.66666666666666 C 433.58600869536605 99.66666666666666 433.643102377824 199.33333333333331 433.75728974274 199.33333333333331 C 433.89488023042003 199.33333333333331 433.96367547425996 199.33333333333331 434.10126596194 199.33333333333331 C 434.2388564496199 199.33333333333331 434.30765169345995 199.33333333333331 434.44524218114 199.33333333333331 C 434.58283266882 199.33333333333331 434.65162791266005 199.33333333333331 434.78921840034 199.33333333333331 C 434.9268088880241 199.33333333333331 434.995604131866 199.33333333333331 435.13319461955 199.33333333333331 C 435.27078510723004 199.33333333333331 435.33958035106997 99.66666666666666 435.47717083875 99.66666666666666 C 435.61476132643 99.66666666666666 435.68355657027007 99.66666666666666 435.82114705795 99.66666666666666 C 435.95873754563 99.66666666666666 436.02753278946994 149.5 436.16512327715 149.5 C 436.30271376482995 149.5 436.37150900867 149.5 436.50909949635 149.5 C 436.646689984034 149.5 436.715485227876 199.33333333333331 436.85307571556 199.33333333333331 C 436.99066620324004 199.33333333333331 437.05946144707997 199.33333333333331 437.19705193476 199.33333333333331 C 437.33464242243997 199.33333333333331 437.40343766627996 149.5 437.54102815396 149.5 C 437.67861864163996 149.5 437.74741388548 199.33333333333331 437.88500437316 199.33333333333331 C 438.023571052612 199.33333333333331 438.092854392338 199.33333333333331 438.23142107179 199.33333333333331 C 438.35351192733395 199.33333333333331 438.414557355106 224.25 438.53664821065 224.25 C 438.689309952678 224.25 438.765640823692 224.25 438.91830256572 199.33333333333331 C 439.05534523942 174.41666666666663 439.12386657627 99.66666666666666 439.26090924997 99.66666666666666 C 439.39849973764996 99.66666666666666 439.46729498149 199.33333333333331 439.60488546917 199.33333333333331 C 439.74247595685 199.33333333333331 439.81127120068993 199.33333333333331 439.94886168837 199.33333333333331 C 440.071928735686 199.33333333333331 440.133462259344 224.25 440.25652930666 224.25 C 440.40864323470794 224.25 440.484700198732 199.33333333333331 440.63681412678 199.33333333333331 C 440.77440461446 199.33333333333331 440.84319985829995 199.33333333333331 440.98079034598 199.33333333333331 C 441.11838083366 199.33333333333331 441.18717607750006 149.5 441.32476656518 149.5 C 441.46235705286 149.5 441.53115229670004 179.40000000029644 441.66874278438 199.33333333333331 C 441.8063332720641 219.2666666669631 441.875128515906 249.16666666666666 442.01271900359 249.16666666666666 C 442.1503094912699 249.16666666666666 442.21910473510997 199.33333333333331 442.35669522279 199.33333333333331 C 442.49428571047 199.33333333333331 442.56308095430995 199.33333333333331 442.70067144199 199.33333333333331 C 442.83826192967 199.33333333333331 442.90705717351 199.33333333333331 443.04464766119 199.33333333333331 C 443.18223814887006 199.33333333333331 443.25103339271 199.33333333333331 443.38862388039 199.33333333333331 C 443.526214368074 199.33333333333331 443.59500961191605 149.5 443.7326000996 149.5 C 443.87019058728004 149.5 443.93898583111996 199.33333333333331 444.0765763188 199.33333333333331 C 444.21416680647997 199.33333333333331 444.28296205032 199.33333333333331 444.420552538 199.33333333333331 C 444.55814302567995 199.33333333333331 444.62693826952 149.5 444.7645287572 149.5 C 444.90211924488403 149.5 444.97091448872595 192.6888888887571 445.10850497641 199.33333333333331 C 445.796457414814 232.55555555542375 446.14043363401595 249.16666666666666 446.82838607242 249.16666666666666 C 446.9659765601 249.16666666666666 447.03477180394003 149.5 447.17236229162 149.5 C 447.3099527793 149.5 447.37874802314 179.4000000000041 447.51633851082 199.33333333333331 C 447.6539289985 219.26666666667074 447.72272424233995 249.16666666666666 447.86031473002 249.16666666666666 C 447.99828741349995 249.16666666666666 448.06727375523997 249.16666666666666 448.20524643872 249.16666666666666 C 448.342454730604 249.16666666666666 448.411058876546 249.16666666666666 448.54826716843 249.16666666666666 C 448.671334215742 249.16666666666666 448.732867739398 249.16666666666666 448.85593478671 249.16666666666666 C 449.00804871475805 249.16666666666666 449.084105678782 199.33333333333331 449.23621960683 199.33333333333331 C 449.37381009451 199.33333333333331 449.44260533835006 249.16666666666666 449.58019582603 249.16666666666666 C 449.769761757426 249.16666666666666 449.86454472312397 199.33333333333331 450.05411065452 199.33333333333331 C 450.139725698488 199.33333333333331 450.182533220472 199.33333333333331 450.26814826444 199.33333333333331 C 450.39121531175203 199.33333333333331 450.45274883540804 199.33333333333331 450.57581588272 199.33333333333331 C 450.71340637040004 199.33333333333331 450.78220161423997 249.16666666666666 450.91979210192 249.16666666666666 C 451.071906029968 249.16666666666666 451.14796299399194 249.16666666666666 451.30007692204 249.16666666666666 C 451.437848952728 249.16666666666666 451.506734968072 249.16666666666666 451.64450699876 249.16666666666666 C 451.78191594343605 249.16666666666666 451.850620415774 99.66666666666666 451.98802936045 99.66666666666666 C 452.12561984813 99.66666666666666 452.19441509197003 249.16666666666666 452.33200557965 249.16666666666666 C 452.455072626962 249.16666666666666 452.51660615061803 249.16666666666666 452.63967319793 249.16666666666666 C 452.791787125978 249.16666666666666 452.867844090002 249.16666666666666 453.01995801805 249.16666666666666 C 453.15754850573 249.16666666666666 453.22634374957 249.16666666666666 453.36393423725 249.16666666666666 C 453.50152472493403 249.16666666666666 453.57031996877606 249.16666666666666 453.70791045646 249.16666666666666 C 453.84550094414 249.16666666666666 453.91429618798 199.33333333333331 454.05188667566 199.33333333333331 C 454.18947716334003 199.33333333333331 454.25827240718 199.33333333333331 454.39586289486 199.33333333333331 C 454.53345338254 199.33333333333331 454.60224862637995 249.16666666666666 454.73983911406 249.16666666666666 C 454.87742960174 249.16666666666666 454.94622484558005 199.33333333333331 455.08381533326 199.33333333333331 C 455.22140582094397 199.33333333333331 455.290201064786 249.16666666666666 455.42779155247 249.16666666666666 C 455.56538204015004 249.16666666666666 455.63417728398997 149.5 455.77176777167 149.5 C 455.89483481898196 149.5 455.956368342638 181.50407407432883 456.07943538995 199.33333333333331 C 456.231549317998 221.37074074099547 456.307606282022 249.16666666666666 456.45972021007 249.16666666666666 C 456.598046424666 249.16666666666666 456.667209531964 225.7789772730269 456.80553574656 199.33333333333331 C 456.92786706695995 175.94564393969358 456.98903272715995 124.58333333333331 457.11136404756 124.58333333333331 C 457.24895453524005 124.58333333333331 457.31774977908 135.29947229559917 457.45534026676 149.5 C 457.607454194808 165.19947229559918 457.68351115883195 178.40070360585995 457.83562508688 199.33333333333331 C 457.97321557455996 218.2673702725266 458.0420108184 249.16666666666666 458.17960130608 249.16666666666666 C 458.31719179375995 249.16666666666666 458.3859870376 199.33333333333331 458.52357752528 199.33333333333331 C 458.662298675536 199.33333333333331 458.73165925066394 199.33333333333331 458.87038040092 199.33333333333331 C 459.006840226028 199.33333333333331 459.07507013858196 149.5 459.21152996369 149.5 C 459.34920007549397 149.5 459.41803513139604 183.5412084557527 459.5557052432 199.33333333333331 C 459.678692666392 213.4412084557527 459.740186377988 224.25 459.86317380118 224.25 C 460.0153211713599 224.25 460.09139485645 199.33333333333331 460.24354222663 199.33333333333331 C 460.36657583181005 199.33333333333331 460.42809263439995 199.33333333333331 460.55112623958 199.33333333333331 C 460.68871672726 199.33333333333331 460.75751197110003 215.94444444444446 460.89510245878 215.94444444444446 C 461.03269294646 215.94444444444446 461.1014881903 199.33333333333331 461.23907867798 199.33333333333331 C 461.37666916566394 199.33333333333331 461.445464409506 249.16666666666666 461.58305489719 249.16666666666666 C 461.72064538487 249.16666666666666 461.78944062870994 199.33333333333331 461.92703111639 199.33333333333331 C 462.06462160407 199.33333333333331 462.13341684791004 249.16666666666666 462.27100733559 249.16666666666666 C 462.40859782327004 249.16666666666666 462.47739306711003 249.16666666666666 462.61498355479 249.16666666666666 C 462.75257404247003 249.16666666666666 462.82136928630996 249.16666666666666 462.95895977399 249.16666666666666 C 463.096550261674 249.16666666666666 463.165345505516 249.16666666666666 463.3029359932 249.16666666666666 C 463.44052648088 249.16666666666666 463.50932172472005 249.16666666666666 463.6469122124 249.16666666666666 C 463.78450270008005 249.16666666666666 463.85329794392 249.16666666666666 463.9908884316 249.16666666666666 C 464.1284789192799 249.16666666666666 464.19727416311997 199.33333333333331 464.3348646508 199.33333333333331 C 464.472455138484 199.33333333333331 464.541250382326 249.16666666666666 464.67884087001 249.16666666666666 C 464.81643135769 249.16666666666666 464.88522660152995 249.16666666666666 465.02281708921 249.16666666666666 C 465.16040757688995 249.16666666666666 465.22920282073 249.16666666666666 465.36679330841 249.16666666666666 C 465.50438379609005 249.16666666666666 465.5731790399301 249.16666666666666 465.71076952761 224.25 C 465.84836001529004 199.33333333333334 465.91715525912997 99.66666666666666 466.05474574681 99.66666666666666 C 466.192336234494 99.66666666666666 466.26113147833604 199.33333333333331 466.39872196602 199.33333333333331 C 466.53631245369996 199.33333333333331 466.60510769754 199.33333333333331 466.74269818522 199.33333333333331 C 466.88028867289995 199.33333333333331 466.94908391674 149.5 467.08667440442 149.5 C 467.2242648921 149.5 467.29306013594 174.41666666666666 467.43065062362 174.41666666666666 C 467.5682411113 174.41666666666666 467.63703635514 149.5 467.77462684282 149.5 C 467.91221733050395 149.5 467.981012574346 174.41666666666666 468.11860306203 174.41666666666666 C 468.25619354971 174.41666666666666 468.32498879355 149.5 468.46257928123 149.5 C 468.60016976891 149.5 468.66896501275005 199.33333333333331 468.80655550043 199.33333333333331 C 468.94414598811 199.33333333333331 469.01294123195004 149.5 469.15053171963 149.5 C 469.28812220731 149.5 469.35691745115 149.5 469.49450793883 149.5 C 469.63209842651406 149.5 469.700893670356 224.25 469.83848415804 224.25 C 469.9760746457199 224.25 470.04486988955995 174.41666666666666 470.18246037724 174.41666666666666 C 470.32005086492 174.41666666666666 470.38884610876005 174.41666666666666 470.52643659644 174.41666666666666 C 470.66402708412005 174.41666666666666 470.73282232796 174.41666666666666 470.87041281564 174.41666666666666 C 471.00800330332004 174.41666666666666 471.07679854715997 149.5 471.21438903484 149.5 C 471.351979522524 149.5 471.42077476636604 159.15554918007746 471.55836525405 174.41666666666666 C 471.78020284323003 199.02221584674413 471.89112163782 249.16666666666666 472.112959227 249.16666666666666 C 472.180826053548 249.16666666666666 472.21475946682204 99.66666666666666 472.28262629337 99.66666666666666 C 472.42021678105004 99.66666666666666 472.48901202489 199.33333333333331 472.62660251257 199.33333333333331 C 472.887260047566 199.33333333333331 473.01758881506396 149.5 473.27824635006 149.5 C 473.41583683773996 149.5 473.48463208158 149.5 473.62222256926 149.5 C 473.77594012718 149.5 473.85279890614004 249.16666666666666 474.00651646406 249.16666666666666 C 474.1279798815 249.16666666666666 474.18871159022 149.5 474.31017500766 149.5 C 474.44776549534 149.5 474.51656073918 149.5 474.65415122686 149.5 C 474.95061254582 149.5 475.0988432053 249.16666666666666 475.39530452426 249.16666666666666 C 475.56760157546796 249.16666666666666 475.653750101072 249.16666666666666 475.82604715228 249.16666666666666 C 475.92302296637206 249.16666666666666 475.9715108734181 249.16666666666666 476.06848668751 249.16666666666666 C 476.1907049416541 249.16666666666666 476.251814068726 199.33333333333331 476.37403232287 199.33333333333331 C 476.54955096616607 199.33333333333331 476.63731028781405 249.16666666666666 476.81282893111 249.16666666666666 C 476.96714526244995 249.16666666666666 477.04430342812003 199.33333333333331 477.19861975946 199.33333333333331 C 477.28155624786797 199.33333333333331 477.323024492072 199.33333333333331 477.40596098048 199.33333333333331 C 477.55807490852806 199.33333333333331 477.634131872552 249.16666666666666 477.7862458006 249.16666666666666 C 477.96396684718803 249.16666666666666 478.052827370482 149.5 478.23054841707 149.5 C 478.50572939243 149.5 478.64331988010997 199.33333333333331 478.91850085547 199.33333333333331 C 480.019224756918 199.33333333333331 480.569586707642 149.5 481.67031060909 149.5 C 481.80790109677 149.5 481.87669634060995 199.33333333333331 482.01428682829 199.33333333333331 C 482.15187731596995 199.33333333333331 482.22067255981 149.5 482.35826304749 149.5 C 485.24766328878604 149.5 486.69236340943405 149.5 489.58176365073 149.5 C 489.856944626094 149.5 489.99453511377595 199.33333333333331 490.26971608914 199.33333333333331 C 490.40730657681996 199.33333333333331 490.47610182066 149.5 490.61369230834 149.5 C 490.75128279601995 149.5 490.82007803986 149.5 490.95766852754 149.5 C 491.78321145362395 149.5 492.1959829166661 199.33333333333331 493.02152584275 199.33333333333331 C 493.434297305794 199.33333333333331 493.640683037316 169.43333333333058 494.05345450036 149.5 C 494.46622596340404 129.5666666666639 494.67261169492593 99.66666666666666 495.08538315797 99.66666666666666 C 495.910926084054 99.66666666666666 496.323697547096 119.59999999996242 497.14924047318 149.5 C 497.42442144853993 159.4666666666291 497.56201193622 199.33333333333331 497.83719291158 199.33333333333331 C 498.24996437462397 199.33333333333331 498.45635010614603 199.33333333333331 498.86912156919 199.33333333333331 C 499.00671205686996 199.33333333333331 499.07550730071 199.33333333333331 499.21309778839 199.33333333333331 C 501.276955103602 199.33333333333331 502.308883761208 199.33333333333331 504.37274107642 199.33333333333331 C 504.51033156410006 199.33333333333331 504.57912680794 99.66666666666666 504.71671729562 99.66666666666666 C 504.854307783304 99.66666666666666 504.92310302714594 249.16666666666666 505.06069351483 249.16666666666666 C 505.61105546555 249.16666666666666 505.88623644091 199.33333333333331 506.43659839163 199.33333333333331 C 506.57418887931397 199.33333333333331 506.642984123156 199.33333333333331 506.78057461084 199.33333333333331 C 506.91816509852 199.33333333333331 506.98696034236 199.33333333333331 507.12455083004 199.33333333333331 C 507.26214131772 199.33333333333331 507.33093656155995 199.33333333333331 507.46852704924 199.33333333333331 C 507.60611753692 199.33333333333331 507.67491278076005 199.33333333333331 507.81250326844 199.33333333333331 C 507.95009375612005 199.33333333333331 508.01888899996004 199.33333333333331 508.15647948764 199.33333333333331 C 508.2940699753241 199.33333333333331 508.362865219166 199.33333333333331 508.50045570685 199.33333333333331 C 508.63804619453003 199.33333333333331 508.70684143836996 199.33333333333331 508.84443192605 199.33333333333331 C 508.98202241373 199.33333333333331 509.05081765757006 199.33333333333331 509.18840814525 199.33333333333331 C 509.32599863293 199.33333333333331 509.39479387677 199.33333333333331 509.53238436445 199.33333333333331 C 509.66997485212994 199.33333333333331 509.73877009597 199.33333333333331 509.87636058365 199.33333333333331 C 510.013951071334 199.33333333333331 510.082746315176 199.33333333333331 510.22033680286 199.33333333333331 C 510.35792729054003 199.33333333333331 510.42672253437996 199.33333333333331 510.56431302206 199.33333333333331 C 510.70190350973996 199.33333333333331 510.77069875357995 149.5 510.90828924126 149.5 C 511.04587972893995 149.5 511.11467497278 199.33333333333331 511.25226546046 199.33333333333331 C 514.41684667712 199.33333333333331 515.9991372854499 149.5 519.16371850211 149.5 C 520.402032891238 149.5 521.021190085802 199.33333333333331 522.25950447493 199.33333333333331 C 522.809866425654 199.33333333333331 523.085047401016 158.8803921568828 523.63540935174 149.5 C 525.424085691588 119.01372549021613 526.318423861512 99.66666666666666 528.10710020136 99.66666666666666 C 528.24469068904 99.66666666666666 528.31348593288 99.66666666666666 528.45107642056 99.66666666666666 C 528.588666908244 99.66666666666666 528.657462152086 99.66666666666666 528.79505263977 99.66666666666666 C 528.9326431274501 99.66666666666666 529.00143837129 99.66666666666666 529.13902885897 99.66666666666666 C 529.27661934665 99.66666666666666 529.34541459049 99.66666666666666 529.48300507817 99.66666666666666 C 529.62059556585 99.66666666666666 529.68939080969 99.66666666666666 529.82698129737 99.66666666666666 C 529.9645717850501 99.66666666666666 530.0333670288899 99.66666666666666 530.17095751657 99.66666666666666 C 530.3085480042539 99.66666666666666 530.3773432480959 199.33333333333331 530.51493373578 199.33333333333331 C 530.65252422346 199.33333333333331 530.7213194673001 99.66666666666666 530.85890995498 99.66666666666666 C 530.99650044266 99.66666666666666 531.0652956865 99.66666666666666 531.20288617418 99.66666666666666 C 531.34047666186 99.66666666666666 531.4092719057 99.66666666666666 531.54686239338 99.66666666666666 C 531.68445288106 99.66666666666666 531.7532481249 99.66666666666666 531.89083861258 99.66666666666666 C 532.0284291002639 99.66666666666666 532.0972243441059 149.5 532.23481483179 149.5 C 532.37240531947 149.5 532.4412005633101 99.66666666666666 532.57879105099 99.66666666666666 C 532.71638153867 99.66666666666666 532.78517678251 149.5 532.92276727019 149.5 C 533.0603577578701 149.5 533.1291530017099 99.66666666666666 533.26674348939 99.66666666666666 C 533.40433397707 99.66666666666666 533.4731292209101 99.66666666666666 533.61071970859 99.66666666666666 C 533.748310196274 99.66666666666666 533.817105440116 99.66666666666666 533.9546959278 99.66666666666666 C 534.09228641548 99.66666666666666 534.16108165932 99.66666666666666 534.298672147 99.66666666666666 C 534.8490340977239 99.66666666666666 535.1242150730861 149.5 535.67457702381 149.5 C 536.22493897453 149.5 536.50011994989 149.5 537.05048190061 149.5 C 537.1880723882939 149.5 537.2568676321359 149.5 537.39445811982 149.5 C 537.5320486075 149.5 537.6008438513401 149.5 537.73843433902 149.5 C 538.0136153143801 149.5 538.1512058020601 172.75555555555556 538.42638677742 199.33333333333331 C 538.5639772651 212.6222222222222 538.63277250894 249.16666666666666 538.77036299662 249.16666666666666 C 539.045543971984 249.16666666666666 539.183134459666 249.16666666666666 539.45831543503 249.16666666666666 C 539.59590592271 249.16666666666666 539.66470116655 99.66666666666666 539.80229165423 99.66666666666666 C 539.93988214191 99.66666666666666 540.0086773857499 99.66666666666666 540.14626787343 99.66666666666666 C 540.2838583611099 99.66666666666666 540.35265360495 149.5 540.49024409263 149.5 C 540.627834580314 149.5 540.6966298241559 149.5 540.83422031184 149.5 C 540.9718107995201 149.5 541.04060604336 149.5 541.17819653104 149.5 C 541.31578701872 149.5 541.3845822625601 149.5 541.52217275024 149.5 C 541.6597632379201 149.5 541.72855848176 149.5 541.86614896944 149.5 C 542.00373945712 149.5 542.07253470096 199.33333333333331 542.21012518864 199.33333333333331 C 542.347715676324 199.33333333333331 542.416510920166 149.5 542.55410140785 149.5 C 542.6916918955301 149.5 542.76048713937 249.16666666666666 542.89807762705 249.16666666666666 C 543.03566811473 249.16666666666666 543.10446335857 149.5 543.24205384625 149.5 C 543.37964433393 149.5 543.44843957777 149.5 543.58603006545 149.5 C 543.7236205531341 149.5 543.7924157969759 149.5 543.93000628466 149.5 C 544.0675967723399 149.5 544.13639201618 149.5 544.27398250386 149.5 C 544.41157299154 149.5 544.4803682353801 149.5 544.61795872306 149.5 C 544.75554921074 149.5 544.82434445458 99.66666666666666 544.96193494226 99.66666666666666 C 545.09952542994 99.66666666666666 545.16832067378 99.66666666666666 545.30591116146 99.66666666666666 C 545.443501649144 99.66666666666666 545.512296892986 99.66666666666666 545.64988738067 99.66666666666666 C 545.7874778683499 99.66666666666666 545.8562731121899 99.66666666666666 545.99386359987 99.66666666666666 C 546.13145408755 99.66666666666666 546.2002493313901 99.66666666666666 546.33783981907 99.66666666666666 C 546.47543030675 99.66666666666666 546.54422555059 99.66666666666666 546.68181603827 99.66666666666666 C 546.8194065259501 99.66666666666666 546.8882017697899 149.5 547.02579225747 149.5 C 547.163382745154 149.5 547.232177988996 149.5 547.36976847668 149.5 C 547.50735896436 149.5 547.5761542082 149.5 547.71374469588 149.5 C 547.85133518356 149.5 547.9201304274 149.5 548.05772091508 149.5 C 548.1953114027599 149.5 548.2641066466 149.5 548.40169713428 149.5 C 548.53928762196 149.5 548.6080828657999 149.5 548.74567335348 149.5 C 548.883263841164 149.5 548.9520590850059 149.5 549.08964957269 149.5 C 549.2272400603699 149.5 549.29603530421 99.66666666666666 549.43362579189 99.66666666666666 C 549.5712162795701 99.66666666666666 549.6400115234101 99.66666666666666 549.77760201109 99.66666666666666 C 549.91519249877 99.66666666666666 549.98398774261 99.66666666666666 550.12157823029 99.66666666666666 C 550.2591687179699 99.66666666666666 550.32796396181 99.66666666666666 550.46555444949 99.66666666666666 C 550.740735424854 99.66666666666666 550.878325912536 149.5 551.1535068879 149.5 C 551.4286878632599 149.5 551.5662783509399 99.66666666666666 551.8414593263 99.66666666666666 C 552.1166403016639 99.66666666666666 552.52941176471 99.66666666666666 552.52941176471 99.66666666666666" class="highcharts-graph" data-z-index="1" stroke="#000000" stroke-width="2" stroke-linejoin="round" stroke-linecap="round"></path></g><g data-z-index="0.1" class="highcharts-markers highcharts-series-0 highcharts-spline-series highcharts-color-0 " transform="translate(32,63) scale(1 1)" clip-path="none"></g></g><text x="300" text-anchor="middle" class="highcharts-title" data-z-index="4" style="color:#333333;font-size:18px;fill:#333333;" y="24"><tspan>Hunger Over Time</tspan></text><text x="300" text-anchor="middle" class="highcharts-subtitle" data-z-index="4" style="color:#666666;fill:#666666;" y="46"><tspan>This chart shows how your Hunger changes over time.</tspan></text><g class="highcharts-axis-labels highcharts-xaxis-labels " data-z-index="7"><text x="55.493986631983" style="color:#666666;cursor:default;font-size:11px;fill:#666666;" text-anchor="middle" transform="translate(0,0)" y="381" opacity="1">2015</text><text x="181.04530664072" style="color:#666666;cursor:default;font-size:11px;fill:#666666;" text-anchor="middle" transform="translate(0,0)" y="381" opacity="1">2016</text><text x="306.94060286867" style="color:#666666;cursor:default;font-size:11px;fill:#666666;" text-anchor="middle" transform="translate(0,0)" y="381" opacity="1">2017</text><text x="432.49192287741" style="color:#666666;cursor:default;font-size:11px;fill:#666666;" text-anchor="middle" transform="translate(0,0)" y="381" opacity="1">2018</text><text x="558.04324288615" style="color:#666666;cursor:default;font-size:11px;fill:#666666;" text-anchor="middle" transform="translate(0,0)" y="381" opacity="1">2019</text></g><g class="highcharts-axis-labels highcharts-yaxis-labels " data-z-index="7"><text x="17" style="color:#666666;cursor:default;font-size:11px;fill:#666666;" text-anchor="end" transform="translate(0,0)" y="366" opacity="1">0</text><text x="17" style="color:#666666;cursor:default;font-size:11px;fill:#666666;" text-anchor="end" transform="translate(0,0)" y="316" opacity="1">1</text><text x="17" style="color:#666666;cursor:default;font-size:11px;fill:#666666;" text-anchor="end" transform="translate(0,0)" y="266" opacity="1">2</text><text x="17" style="color:#666666;cursor:default;font-size:11px;fill:#666666;" text-anchor="end" transform="translate(0,0)" y="216" opacity="1">3</text><text x="17" style="color:#666666;cursor:default;font-size:11px;fill:#666666;" text-anchor="end" transform="translate(0,0)" y="166" opacity="1">4</text><text x="17" style="color:#666666;cursor:default;font-size:11px;fill:#666666;" text-anchor="end" transform="translate(0,0)" y="116" opacity="1">5</text><text x="17" style="color:#666666;cursor:default;font-size:11px;fill:#666666;" text-anchor="end" transform="translate(0,0)" y="67" opacity="1">6</text></g><a xlink:href="https://quantimo.do" target="_blank">
                    <text x="590" class="highcharts-credits" text-anchor="end" data-z-index="8"
                          style="cursor:pointer;color:#999999;font-size:9px;fill:#999999;" y="395">https://quantimo.do
                    </text>
                </a></svg>