<?xml version="1.0" standalone="no"?><!DOCTYPE svg PUBLIC "-//W3C//DTD SVG 1.1//EN" "http://www.w3.org/Graphics/SVG/1.1/DTD/svg11.dtd"><svg xmlns:xlink="http://www.w3.org/1999/xlink" version="1.1" class="highcharts-root" style="font-family:&quot;Lucida Grande&quot;, &quot;Lucida Sans Unicode&quot;, Arial, Helvetica, sans-serif;font-size:12px;" xmlns="http://www.w3.org/2000/svg" width="600" height="400"><desc>Created with Highstock 6.2.0</desc><defs><clipPath id="highcharts-t8r2qv5-757"><rect x="0" y="0" width="544" height="299" fill="none"></rect></clipPath><clipPath id="highcharts-t8r2qv5-1508"><rect x="0" y="0" width="544" height="299" fill="none"></rect></clipPath><clipPath id="highcharts-t8r2qv5-1509"><rect x="46" y="63" width="544" height="299" fill="none"></rect></clipPath></defs><rect fill="#ffffff" class="highcharts-background" x="0" y="0" width="600" height="400" rx="0" ry="0"></rect><rect fill="none" class="highcharts-plot-background" x="46" y="63" width="544" height="299"></rect><g class="highcharts-pane-group" data-z-index="0"></g><g class="highcharts-grid highcharts-xaxis-grid " data-z-index="1"><path fill="none" data-z-index="1" class="highcharts-grid-line" d="M 93.5 63 L 93.5 362" opacity="1"></path><path fill="none" data-z-index="1" class="highcharts-grid-line" d="M 181.5 63 L 181.5 362" opacity="1"></path><path fill="none" data-z-index="1" class="highcharts-grid-line" d="M 267.5 63 L 267.5 362" opacity="1"></path><path fill="none" data-z-index="1" class="highcharts-grid-line" d="M 353.5 63 L 353.5 362" opacity="1"></path><path fill="none" data-z-index="1" class="highcharts-grid-line" d="M 440.5 63 L 440.5 362" opacity="1"></path><path fill="none" data-z-index="1" class="highcharts-grid-line" d="M 527.5 63 L 527.5 362" opacity="1"></path></g><g class="highcharts-grid highcharts-yaxis-grid " data-z-index="1"><path fill="none" stroke="#e6e6e6" stroke-width="1" data-z-index="1" class="highcharts-grid-line" d="M 46 362.5 L 590 362.5" opacity="1"></path><path fill="none" stroke="#e6e6e6" stroke-width="1" data-z-index="1" class="highcharts-grid-line" d="M 46 302.5 L 590 302.5" opacity="1"></path><path fill="none" stroke="#e6e6e6" stroke-width="1" data-z-index="1" class="highcharts-grid-line" d="M 46 242.5 L 590 242.5" opacity="1"></path><path fill="none" stroke="#e6e6e6" stroke-width="1" data-z-index="1" class="highcharts-grid-line" d="M 46 183.5 L 590 183.5" opacity="1"></path><path fill="none" stroke="#e6e6e6" stroke-width="1" data-z-index="1" class="highcharts-grid-line" d="M 46 123.5 L 590 123.5" opacity="1"></path><path fill="none" stroke="#e6e6e6" stroke-width="1" data-z-index="1" class="highcharts-grid-line" d="M 46 62.5 L 590 62.5" opacity="1"></path></g><rect fill="none" class="highcharts-plot-border" data-z-index="1" x="46" y="63" width="544" height="299"></rect><g class="highcharts-axis highcharts-xaxis " data-z-index="2"><path fill="none" class="highcharts-tick" stroke="#ccd6eb" stroke-width="1" d="M 93.5 362 L 93.5 372" opacity="1"></path><path fill="none" class="highcharts-tick" stroke="#ccd6eb" stroke-width="1" d="M 181.5 362 L 181.5 372" opacity="1"></path><path fill="none" class="highcharts-tick" stroke="#ccd6eb" stroke-width="1" d="M 267.5 362 L 267.5 372" opacity="1"></path><path fill="none" class="highcharts-tick" stroke="#ccd6eb" stroke-width="1" d="M 353.5 362 L 353.5 372" opacity="1"></path><path fill="none" class="highcharts-tick" stroke="#ccd6eb" stroke-width="1" d="M 440.5 362 L 440.5 372" opacity="1"></path><path fill="none" class="highcharts-tick" stroke="#ccd6eb" stroke-width="1" d="M 527.5 362 L 527.5 372" opacity="1"></path><path fill="none" class="highcharts-axis-line" stroke="#ccd6eb" stroke-width="1" data-z-index="7" d="M 46 362.5 L 590 362.5"></path></g><g class="highcharts-axis highcharts-yaxis " data-z-index="2"><path fill="none" class="highcharts-axis-line" data-z-index="7" d="M 46 63 L 46 362"></path></g><g class="highcharts-series-group" data-z-index="3"><g data-z-index="0.1" class="highcharts-series highcharts-series-0 highcharts-spline-series highcharts-color-0 " transform="translate(46,63) scale(1 1)" clip-path="url(#highcharts-t8r2qv5-1508)"><path fill="none" d="M 5.3333333333333 239.2 C 5.3333333333333 239.2 5.76048647997254 299 6.0452552443987 299 C 6.33002400882486 299 6.47240839103794 239.2 6.7571771554641 239.2 C 7.04194591989026 239.2 7.184330302103339 239.2 7.4690990665295 239.2 C 7.753867830955659 239.2 7.896252213168739 239.2 8.1810209775949 239.2 C 8.46578974202102 239.2 8.608174124234079 239.2 8.8929428886602 239.2 C 9.177711653086359 239.2 9.32009603529944 239.2 9.6048647997256 239.2 C 9.88963356415176 239.2 10.03201794636484 239.2 10.316786710791 239.2 C 10.601555475217001 239.2 10.74393985743 299 11.028708621856 299 C 11.3134773862824 299 11.4558617684956 239.2 11.740630532922 239.2 C 12.025399297347999 239.2 12.167783679561001 239.2 12.452552443987 239.2 C 12.7373212084134 239.2 12.8797055906266 239.2 13.164474355053 239.2 C 13.449243119479002 239.2 13.591627501691999 239.2 13.876396266118 239.2 C 14.161165030544002 239.2 14.303549412757002 239.2 14.588318177183 239.2 C 14.873086941609401 239.2 15.0154713238226 239.2 15.300240088249 239.2 C 15.585008852675 239.2 15.727393234887998 299 16.012161999314 299 C 16.3548831848616 299 16.526243777635397 239.2 16.868964963183 239.2 C 17.1234572707802 239.2 17.2507034245788 239.2 17.505195732176 239.2 C 17.7622885323096 239.2 17.8908349323764 239.2 18.14792773251 239.2 C 18.432696496936398 239.2 18.5750808791496 299 18.859849643576 299 C 19.098936752042 299 19.218480306275 299 19.457567414741 299 C 19.788017835127 299 19.95324304532 299 20.283693465706 299 C 20.5684622301324 299 20.710846612345602 239.2 20.995615376772 239.2 C 21.280384141198 239.2 21.422768523411 239.2 21.707537287837 239.2 C 21.992306052263 239.2 22.134690434476 239.2 22.419459198902 239.2 C 22.7369895549764 239.2 22.895754733013597 299 23.213285089088 299 C 23.518066769458397 299 23.6704576096436 299 23.975239290014 299 C 24.207233546848 299 24.323230675265002 239.2 24.555224932099 239.2 C 24.839993696525 239.2 24.982378078738 239.2 25.267146843164 239.2 C 25.55191560759 239.2 25.694299989803 239.2 25.979068754229 239.2 C 26.2638375186554 239.2 26.406221900868598 239.2 26.690990665295 239.2 C 26.975759429721002 239.2 27.118143811933997 239.2 27.40291257636 239.2 C 27.687681340786003 239.2 27.830065722999002 239.2 28.114834487425 239.2 C 28.470607574675803 239.2 28.648494118301198 239.2 29.004267205552 239.2 C 29.172349991193602 239.2 29.2563913840144 179.4 29.424474169656 179.4 C 29.709242934082397 179.4 29.851627316295605 179.4 30.136396080722 179.4 C 30.421164845148002 179.4 30.563549227361 299 30.848317991787 299 C 31.1906337773574 299 31.3617916701426 239.2 31.704107455713 239.2 C 31.9888762201394 239.2 32.1312606023526 239.2 32.416029366779 239.2 C 32.700798131205 239.2 32.843182513418 299 33.127951277844 299 C 33.412720042270394 299 33.5551044244836 299 33.83987318891 299 C 34.157265115723604 299 34.315961079130396 239.2 34.633353005944 239.2 C 34.8854986079824 239.2 35.011571409001604 239.2 35.26371701104 239.2 C 35.5484857754664 239.2 35.690870157679605 299 35.975638922106 299 C 36.202860665387604 299 36.3164715370284 299 36.54369328031 299 C 36.8860090658804 299 37.057166958665604 239.2 37.399482744236 239.2 C 37.684251508662406 239.2 37.82663589087561 299 38.111404655302 299 C 38.396173419728 299 38.538557801940996 239.2 38.823326566367 239.2 C 39.131931531075 239.2 39.286234013428995 239.2 39.594838978137 239.2 C 39.8557715422814 239.2 39.9862378243536 299 40.247170388498 299 C 40.531939152924 299 40.674323535137 299 40.959092299563 299 C 41.261177905288996 299 41.41222070815199 239.2 41.714306313878 239.2 C 41.9817582370044 239.2 42.1154841985676 239.2 42.382936121694 239.2 C 42.667704886120404 239.2 42.810089268333606 239.2 43.09485803276 239.2 C 43.379626797186006 239.2 43.522011179399 239.2 43.806779943825 239.2 C 44.091548708251 239.2 44.23393309046399 239.2 44.51870185489 239.2 C 44.821703730482795 239.2 44.973204668279195 239.2 45.276206543872 239.2 C 45.5427421971316 239.2 45.6760100237614 239.2 45.942545677021 239.2 C 46.22731444144701 239.2 46.36969882366 239.2 46.654467588086 239.2 C 46.881689331368 239.2 46.995300203009 299 47.222521946291 299 C 47.5648377318614 299 47.735995624646606 299 48.078311410217 299 C 48.3630801746434 299 48.5054645568566 239.2 48.790233321283 239.2 C 49.075002085709 239.2 49.217386467922 239.2 49.502155232348 239.2 C 49.786923996774 239.2 49.929308378987 239.2 50.214077143413 239.2 C 50.4988459078394 239.2 50.641230290052604 239.2 50.925999054479 239.2 C 51.21076781890499 239.2 51.35315220111799 239.2 51.637920965544 239.2 C 51.92268972997 239.2 52.065074112183005 299 52.349842876609 299 C 52.686898350281396 299 52.8554260871176 239.2 53.19248156079 239.2 C 53.42496361597 239.2 53.54120464356 239.2 53.77368669874 239.2 C 54.07537020042359 239.2 54.2262119512654 239.2 54.527895452949 239.2 C 54.81685335047219 239.2 54.9613322992338 299 55.250290196757 299 C 55.51395509082861 299 55.64578753786439 239.2 55.909452431936 239.2 C 56.1942211963624 239.2 56.33660557857561 239.2 56.621374343002 239.2 C 56.906143107428 239.2 57.048527489641 299 57.333296254067 299 C 57.618065018493404 299 57.760449400706605 239.2 58.045218165133 239.2 C 58.329986929559006 239.2 58.472371311771994 239.2 58.757140076198 239.2 C 59.041908840624004 239.2 59.184293222837006 239.2 59.469061987263 239.2 C 59.696283730545 239.2 59.809894602186 299 60.037116345468 299 C 60.3794321310384 299 60.5505900238236 299 60.892905809394 299 C 61.17767457382 299 61.320058956032995 239.2 61.604827720459 239.2 C 61.832049463741 239.2 61.945660335382 299 62.172882078664 299 C 62.5477254445136 299 62.7351471274384 299 63.109990493288 299 C 63.3046846562904 299 63.402031737791596 299 63.596725900794 299 C 63.881494665220394 299 64.0238790474336 299 64.30864781186 299 C 64.6509635974304 299 64.82212149021561 239.2 65.164437275786 239.2 C 65.4492060402124 239.2 65.5915904224256 299 65.876359186852 299 C 66.161127951278 299 66.303512333491 299 66.588281097917 299 C 66.87304986234301 299 67.01543424455599 299 67.300203008982 299 C 67.5849717734084 299 67.7273561556216 239.2 68.012124920048 239.2 C 68.296893684474 239.2 68.439278066687 239.2 68.724046831113 239.2 C 69.0088155955394 239.2 69.1511999777526 239.2 69.435968742179 239.2 C 69.6631904854606 239.2 69.77680135710139 299 70.004023100383 299 C 70.3463388859534 299 70.5174967787386 299 70.859812564309 299 C 71.1445813287354 299 71.28696571094859 239.2 71.571734475375 239.2 C 71.7989562186566 239.2 71.9125670902974 299 72.139788833579 299 C 72.4821046191494 299 72.6532625119346 239.2 72.995578297505 239.2 C 73.28034706193141 239.2 73.4227314441446 239.2 73.707500208571 239.2 C 73.992268972997 239.2 74.13465335521 239.2 74.419422119636 239.2 C 74.7041908840624 239.2 74.8465752662756 239.2 75.131344030702 239.2 C 75.41611279512799 239.2 75.558497177341 239.2 75.843265941767 239.2 C 76.128034706193 239.2 76.270419088406 299 76.555187852832 299 C 76.83995661725841 299 76.9823409994716 299 77.267109763898 299 C 77.55187852832401 299 77.694262910537 239.2 77.979031674963 239.2 C 78.2638004393894 239.2 78.4061848216026 239.2 78.690953586029 239.2 C 78.975722350455 239.2 79.118106732668 239.2 79.402875497094 239.2 C 79.68764426152 239.2 79.830028643733 239.2 80.114797408159 239.2 C 80.3995661725854 239.2 80.5419505547986 299 80.826719319225 299 C 81.11148808365101 299 81.25387246586399 239.2 81.53864123029 239.2 C 81.823409994716 239.2 81.965794376929 239.2 82.250563141355 239.2 C 82.5353319057814 239.2 82.6777162879946 239.2 82.962485052421 239.2 C 83.18970679570259 239.2 83.30331766734339 299 83.530539410625 299 C 83.815308175051 299 83.957692557264 299 84.24246132169 299 C 84.5847771072608 299 84.75593500004621 239.2 85.098250785617 239.2 C 85.383019550043 239.2 85.525403932256 299 85.810172696682 299 C 86.037394439964 299 86.151005311605 299 86.378227054887 299 C 86.7205428404574 299 86.8917007332426 239.2 87.234016518813 239.2 C 87.518785283239 239.2 87.66116966545201 239.2 87.945938429878 239.2 C 88.23070719430441 239.2 88.3730915765176 239.2 88.657860340944 239.2 C 88.94262910537 239.2 89.085013487583 239.2 89.369782252009 239.2 C 89.6545510164354 239.2 89.7969353986486 239.2 90.081704163075 239.2 C 90.3089259063566 239.2 90.42253677799741 299 90.649758521279 299 C 90.934527285705 299 91.07691166791801 299 91.361680432344 299 C 91.7039962179148 299 91.87515411070021 299 92.217469896271 299 C 92.502238660697 299 92.64462304291001 299 92.929391807336 299 C 93.1566135506176 299 93.2702244222584 299 93.49744616554 299 C 93.7822149299664 299 93.9245993121796 299 94.209368076606 299 C 94.494136841032 299 94.636521223245 299 94.921289987671 299 C 95.2636057732418 299 95.4347636660272 239.2 95.777079451598 239.2 C 96.061848216024 239.2 96.20423259823701 239.2 96.489001362663 239.2 C 96.77377012708901 239.2 96.916154509302 239.2 97.200923273728 239.2 C 97.48569203815438 239.2 97.62807642036759 239.2 97.912845184794 239.2 C 98.19761394922 239.2 98.33999833143301 239.2 98.624767095859 239.2 C 98.9095358602854 239.2 99.0519202424986 239.2 99.336689006925 239.2 C 99.621457771351 239.2 99.763842153564 239.2 100.04861091799 239.2 C 100.333379682418 239.2 100.47576406463199 239.2 100.76053282906 239.2 C 101.04530159348398 239.2 101.187685975696 239.2 101.47245474012 239.2 C 101.75722350454801 239.2 101.89960788676198 239.2 102.18437665119 239.2 C 102.46914541561401 239.2 102.61152979782601 239.2 102.89629856225 239.2 C 103.181067326678 239.2 103.32345170889201 239.2 103.60822047332 239.2 C 103.89298923774399 239.2 104.035373619956 239.2 104.32014238438 239.2 C 104.60491114880801 239.2 104.74729553102199 239.2 105.03206429545 239.2 C 105.31683305987399 239.2 105.45921744208599 239.2 105.74398620651 239.2 C 106.02875497093801 239.2 106.17113935315199 239.2 106.45590811758 239.2 C 106.74067688200398 239.2 106.88306126421601 239.2 107.16783002864 239.2 C 107.452598793068 239.2 107.59498317528201 239.2 107.87975193971 239.2 C 108.16452070413399 239.2 108.306905086346 239.2 108.59167385077 239.2 C 108.87644261519799 239.2 109.01882699741199 239.2 109.30359576184 239.2 C 109.588364526268 239.2 109.730748908482 239.2 110.01551767291 239.2 C 110.300286437334 239.2 110.442670819546 239.2 110.72743958397 239.2 C 111.012208348398 239.2 111.15459273061201 239.2 111.43936149504 239.2 C 111.724130259464 239.2 111.866514641676 239.2 112.1512834061 239.2 C 112.436052170528 239.2 112.578436552742 239.2 112.86320531717 239.2 C 113.147974081594 239.2 113.290358463806 239.2 113.57512722823 239.2 C 113.859895992658 239.2 114.002280374872 239.2 114.2870491393 239.2 C 114.571817903724 239.2 114.714202285936 239.2 114.99897105036 239.2 C 115.28373981478799 239.2 115.42612419700201 299 115.71089296143 299 C 115.995661725854 299 116.138046108066 239.2 116.42281487249 239.2 C 116.707583636918 239.2 116.84996801913198 239.2 117.13473678356 239.2 C 117.419505547984 239.2 117.561889930196 239.2 117.84665869462 239.2 C 118.131427459048 239.2 118.273811841262 239.2 118.55858060569 239.2 C 118.84334937011799 239.2 118.985733752332 239.2 119.27050251676 239.2 C 119.55527128118402 239.2 119.69765566339602 239.2 119.98242442782 239.2 C 120.26719319224802 239.2 120.40957757446199 239.2 120.69434633889 239.2 C 120.979115103314 239.2 121.12149948552602 239.2 121.40626824995 239.2 C 121.691037014378 239.2 121.833421396592 239.2 122.11819016102 239.2 C 122.402958925444 239.2 122.545343307656 239.2 122.83011207208 239.2 C 123.114880836508 239.2 123.257265218722 239.2 123.54203398315 239.2 C 123.82680274757399 239.2 123.969187129786 239.2 124.25395589421 239.2 C 124.53872465863802 239.2 124.681109040852 239.2 124.96587780528 239.2 C 125.250646569704 239.2 125.39303095191599 239.2 125.67779971634 239.2 C 125.962568480768 239.2 126.104952862982 239.2 126.38972162741 239.2 C 126.674490391834 239.2 126.816874774046 239.2 127.10164353847 239.2 C 127.40236133126601 239.2 127.55272022766401 299 127.85343802046 299 C 128.064710735372 299 128.17034709282802 299 128.38161980774 299 C 128.66638857216802 299 128.808772954382 299 129.09354171881 299 C 129.378310483234 299 129.520694865446 299 129.80546362987 299 C 130.09023239429797 299 130.23261677651197 299 130.51738554094 299 C 130.802154305368 299 130.944538687582 299 131.22930745201 299 C 131.514076216434 299 131.656460598646 299 131.94122936307 299 C 132.225998127498 299 132.368382509712 299 132.65315127414 299 C 132.937920038564 299 133.080304420776 299 133.3650731852 299 C 133.64984194962798 299 133.792226331842 299 134.07699509627 299 C 134.361763860694 299 134.504148242906 299 134.78891700733 299 C 135.073685771758 299 135.216070153972 299 135.5008389184 299 C 135.785607682824 299 135.927992065036 299 136.21276082946 299 C 136.497529593888 299 136.63991397610198 299 136.92468274053 299 C 137.209451504954 299 137.351835887166 299 137.63660465159 299 C 137.921373416018 299 138.063757798232 299 138.34852656266 299 C 138.633295327084 299 138.77567970929599 299 139.06044847372 299 C 139.345217238148 299 139.487601620362 299 139.77237038479 299 C 140.05713914921802 299 140.19952353143202 299 140.48429229586 299 C 140.769061060284 299 140.91144544249602 299 141.19621420692 299 C 141.480982971348 299 141.623367353562 299 141.90813611799 299 C 142.19290488241398 299 142.335289264626 299 142.62005802905 299 C 142.90482679347798 299 143.04721117569198 299 143.33197994012 299 C 143.616748704544 299 143.75913308675598 299 144.04390185118 299 C 144.32867061560802 299 144.47105499782202 299 144.75582376225 299 C 145.040592526674 299 145.182976908886 299 145.46774567331 299 C 145.752514437738 299 145.894898819952 299 146.17966758438 299 C 146.464436348804 299 146.606820731016 299 146.89158949544 299 C 147.17635825986798 299 147.318742642082 299 147.60351140651 299 C 147.88828017093402 299 148.030664553146 299 148.31543331757 299 C 148.60020208199802 299 148.74258646421202 299 149.02735522864 299 C 149.312123993068 299 149.45450837528202 299 149.73927713971 299 C 150.02404590413397 299 150.16643028634599 299 150.45119905077 299 C 150.735967815198 299 150.878352197412 299 151.16312096184 299 C 151.447889726264 299 151.590274108476 299 151.8750428729 299 C 152.159811637328 299 152.302196019542 299 152.58696478397 299 C 152.87173354839402 299 153.014117930606 299 153.29888669503 299 C 153.58365545945802 299 153.726039841672 299 154.0108086061 299 C 154.295577370524 299 154.437961752736 299 154.72273051716 299 C 155.00749928158797 299 155.14988366380197 299 155.43465242823 299 C 155.719421192654 299 155.861805574866 299 156.14657433929 299 C 156.488890124862 299 156.660048017648 239.2 157.00236380322 239.2 C 157.287132567648 239.2 157.429516949862 239.2 157.71428571429 239.2 C 157.99905447871402 239.2 158.14143886092603 239.2 158.42620762535 239.2 C 158.71097638977798 239.2 158.853360771992 239.2 159.13812953642 239.2 C 159.422898300844 239.2 159.565282683056 239.2 159.85005144748 239.2 C 160.134820211908 239.2 160.277204594122 239.2 160.56197335855 239.2 C 160.846742122974 239.2 160.989126505186 239.2 161.27389526961 239.2 C 161.558664034038 239.2 161.70104841625198 239.2 161.98581718068 239.2 C 162.270585945104 239.2 162.412970327316 239.2 162.69773909174 239.2 C 162.982507856168 239.2 163.124892238382 239.2 163.40966100281 239.2 C 163.694429767234 239.2 163.83681414944598 239.2 164.12158291387 239.2 C 164.406351678298 239.2 164.548736060512 239.2 164.83350482494 239.2 C 165.06072656822 239.2 165.17433743986 299 165.40155918314 299 C 165.743874968712 299 165.915032861498 239.2 166.25734864707 239.2 C 166.542117411498 239.2 166.684501793712 239.2 166.96927055814 239.2 C 167.25403932256398 239.2 167.396423704776 239.2 167.6811924692 239.2 C 167.96596123362798 239.2 168.10834561584198 239.2 168.39311438027 239.2 C 168.677883144694 239.2 168.82026752690598 239.2 169.10503629133 239.2 C 169.38980505575802 239.2 169.53218943797202 239.2 169.8169582024 239.2 C 170.117481535044 239.2 170.26774320136602 239.2 170.56826653401 239.2 C 170.837280730218 239.2 170.97178782832202 239.2 171.24080202453 239.2 C 171.525570788954 239.2 171.667955171166 239.2 171.95272393559 239.2 C 172.23749270001798 239.2 172.37987708223199 239.2 172.66464584666 239.2 C 172.949414611084 239.2 173.09179899329598 239.2 173.37656775772 239.2 C 173.661336522148 239.2 173.80372090436202 239.2 174.08848966879 239.2 C 174.373258433214 239.2 174.51564281542602 239.2 174.80041157985 239.2 C 175.085180344278 239.2 175.227564726492 239.2 175.51233349092 239.2 C 175.797102255348 239.2 175.939486637562 239.2 176.22425540199 239.2 C 176.509024166414 239.2 176.65140854862602 239.2 176.93617731305 239.2 C 177.220946077478 239.2 177.363330459692 239.2 177.64809922412 239.2 C 177.93286798854402 239.2 178.075252370756 239.2 178.36002113518 239.2 C 178.644789899608 239.2 178.787174281822 239.2 179.07194304625 239.2 C 179.356711810674 239.2 179.499096192886 239.2 179.78386495731 239.2 C 180.06863372173797 239.2 180.21101810395197 239.2 180.49578686838 239.2 C 180.72300861166 239.2 180.8366194833 299 181.06384122658 299 C 181.40615701215197 299 181.577314904938 239.2 181.91963069051 239.2 C 182.14685243379 239.2 182.26046330543 299 182.48768504871 299 C 182.77245381313801 299 182.91483819535202 239.2 183.19960695978 239.2 C 183.59904129497198 239.2 183.798758462568 239.2 184.19819279776 239.2 C 184.482961562188 239.2 184.625345944402 239.2 184.91011470883 239.2 C 185.19488347325802 239.2 185.33726785547202 239.2 185.6220366199 239.2 C 185.906805384324 239.2 186.049189766536 239.2 186.33395853096 239.2 C 186.618727295388 239.2 186.761111677602 239.2 187.04588044203 239.2 C 187.330649206454 239.2 187.473033588666 239.2 187.75780235309 239.2 C 188.04257111751798 239.2 188.18495549973198 239.2 188.46972426416 239.2 C 188.754493028584 239.2 188.89687741079598 239.2 189.18164617522 239.2 C 189.466414939648 239.2 189.60879932186202 239.2 189.89356808629 239.2 C 190.178336850714 239.2 190.32072123292602 239.2 190.60548999735 239.2 C 190.890258761778 239.2 191.032643143992 239.2 191.31741190842 239.2 C 191.60218067284399 239.2 191.744565055056 239.2 192.02933381948 239.2 C 192.31410258390798 239.2 192.45648696612201 239.2 192.74125573055 239.2 C 193.02602449497402 239.2 193.168408877186 239.2 193.45317764161 239.2 C 193.73794640603802 239.2 193.88033078825202 239.2 194.16509955268 239.2 C 194.449868317108 239.2 194.592252699322 239.2 194.87702146375 239.2 C 195.161790228174 239.2 195.30417461038599 239.2 195.58894337481 239.2 C 195.87371213923797 239.2 196.01609652145197 299 196.30086528588 299 C 196.585634050304 299 196.728018432516 239.2 197.01278719694 239.2 C 197.1828903906 239.2 197.26794198743 299 197.43804518109 299 C 197.722813945514 299 197.86519832772598 299 198.14996709215 299 C 198.434735856578 299 198.57712023879202 299 198.86188900322 299 C 199.146657767644 299 199.28904214985602 299 199.57381091428 299 C 199.858579678708 299 200.000964060922 299 200.28573282535 299 C 200.57050158977398 299 200.712885971986 299 200.99765473641 299 C 201.28242350083798 299 201.424807883052 299 201.70957664748 299 C 201.99434541190402 299 202.136729794116 299 202.42149855854 299 C 202.70626732296802 299 202.84865170518202 299 203.13342046961 299 C 203.418189234034 299 203.560573616246 299 203.84534238067 299 C 204.244776715866 299 204.444493883464 239.2 204.84392821866 239.2 C 205.128696983088 239.2 205.271081365302 239.2 205.55585012973 239.2 C 205.84061889415398 239.2 205.983003276366 239.2 206.26777204079 239.2 C 206.43787523445 239.2 206.52292683128 299 206.69303002494 299 C 206.977798789364 299 207.120183171576 179.4 207.404951936 179.4 C 207.80438627119602 179.4 208.00410343879398 239.2 208.40353777399 239.2 C 208.688306538414 239.2 208.830690920626 239.2 209.11545968505 239.2 C 209.28556287871 239.2 209.37061447554 299 209.5407176692 299 C 209.94504976346798 299 210.14721581060203 273.16307777780855 210.55154790487 239.2 C 210.716753339454 225.32307777780852 210.799356056746 179.4 210.96456149133 179.4 C 211.24933025575402 179.4 211.391714637966 299 211.67648340239 299 C 211.96125216681804 299 212.103636549032 239.2 212.38840531346 239.2 C 212.78783964865596 239.2 212.98755681625397 239.2 213.38699115145 239.2 C 213.67175991587402 239.2 213.814144298086 239.2 214.09891306251 239.2 C 214.383681826938 239.2 214.52606620915202 239.2 214.81083497358 239.2 C 215.095603738004 239.2 215.23798812021602 239.2 215.52275688464 239.2 C 215.69286007830001 239.2 215.77791167513 299 215.94801486879 299 C 216.232783633214 299 216.37516801542603 179.4 216.65993677985 179.4 C 217.031915978382 179.4 217.21790557764797 207.9544999999531 217.58988477618 239.2 C 217.7874431065 255.79449999995313 217.88622227166002 299 218.08378060198 299 C 218.540663080276 299 218.769104319424 239.2 219.22598679772 239.2 C 219.425852282384 239.2 219.52578502471596 239.2 219.72565050938 239.2 C 220.01041927380402 239.2 220.15280365601603 239.2 220.43757242044 239.2 C 220.722341184868 239.2 220.864725567082 239.2 221.14949433151 239.2 C 221.43426309593397 239.2 221.57664747814601 239.2 221.86141624257 239.2 C 222.05897457289 239.2 222.15775373805 299 222.35531206837 299 C 222.727291266902 299 222.913280866168 239.2 223.2852600647 239.2 C 223.57002882912803 239.2 223.71241321134198 299 223.99718197577 299 C 224.281950740194 299 224.424335122406 239.2 224.70910388683 239.2 C 224.99387265125802 239.2 225.13625703347196 239.2 225.4210257979 239.2 C 225.705794562324 239.2 225.848178944536 239.2 226.13294770896 239.2 C 226.417716473388 239.2 226.560100855602 239.2 226.84486962003 239.2 C 227.129638384458 239.2 227.27202276667202 239.2 227.5567915311 239.2 C 227.841560295524 239.2 227.98394467773602 239.2 228.26871344216 239.2 C 228.55348220658797 239.2 228.69586658880198 239.2 228.98063535323 239.2 C 229.265404117654 239.2 229.407788499866 239.2 229.69255726429 239.2 C 229.977326028718 239.2 230.11971041093202 239.2 230.40447917536 239.2 C 230.68924793978402 239.2 230.83163232199604 299 231.11640108642 299 C 231.40116985084802 299 231.54355423306203 239.2 231.82832299749 239.2 C 232.02588132781003 239.2 232.12466049297 299 232.32221882329 299 C 232.606987587714 299 232.74937196992602 179.4 233.03414073435 179.4 C 233.40611993288198 179.4 233.59210953214796 239.2 233.96408873068 239.2 C 234.24885749510798 239.2 234.391241877322 239.2 234.67601064175 239.2 C 234.96077940617397 239.2 235.10316378838598 299 235.38793255281 299 C 235.672701317238 299 235.815085699452 239.2 236.09985446388 239.2 C 236.38462322830802 239.2 236.52700761052202 239.2 236.81177637495 239.2 C 237.12029564535 239.2 237.27455528054998 239.2 237.58307455095 239.2 C 237.84409280940199 239.2 237.97460193862798 239.2 238.23562019708 239.2 C 238.52038896150398 239.2 238.66277334371603 239.2 238.94754210814 239.2 C 239.14510043846002 239.2 239.24387960362 299 239.44143793394 299 C 239.81341713247198 299 239.99940673173802 239.2 240.37138593027 239.2 C 240.56894426059003 239.2 240.66772342575 299 240.86528175607 299 C 241.150050520498 299 241.29243490271202 299 241.57720366714 299 C 241.86197243156397 299 242.00435681377598 299 242.2891255782 299 C 242.661104776732 299 242.84709437599798 299 243.21907357453 299 C 243.53354859907 299 243.69078611134 239.2 244.00526113588 239.2 C 244.260323640192 239.2 244.387854892348 239.2 244.64291739666 239.2 C 244.840475726984 239.2 244.93925489214604 299 245.13681322247 299 C 245.42158198689404 299 245.563966369106 179.4 245.84873513353 179.4 C 246.221330671866 179.4 246.407628441034 218.12965153963296 246.78022397937 239.2 C 247.253602611206 265.969651539633 247.49029192712402 299 247.96367055896 299 C 248.06430203946402 299 248.11461777971599 299 248.21524926022 299 C 248.407718667248 299 248.50395337076196 299 248.69642277779 299 C 248.981191542218 299 249.123575924432 179.4 249.40834468886 179.4 C 249.693113453284 179.4 249.83549783549603 299 250.12026659992 299 C 250.40503536434798 299 250.54741974656199 299 250.83218851099 299 C 251.20416770952198 299 251.390157308788 239.2 251.76213650732 239.2 C 251.95969483764003 239.2 252.05847400279998 299 252.25603233312 299 C 252.62801153165202 299 252.814001130918 239.2 253.18598032945 239.2 C 253.47074909387402 239.2 253.61313347608603 239.2 253.89790224051 239.2 C 254.09546057083398 239.2 254.194239735996 299 254.39179806632 299 C 254.676566830744 299 254.81895121295602 299 255.10371997738 299 C 255.38848874180798 299 255.53087312402198 299 255.81564188845 299 C 256.10041065287396 299 256.242795035086 299 256.52756379951 299 C 256.89954299804197 299 257.085532597308 239.2 257.45751179584 239.2 C 257.65507012616 239.2 257.75384929131997 299 257.95140762164 299 C 258.323386820172 299 258.50937641943796 239.2 258.88135561797 239.2 C 259.166124382398 239.2 259.308508764612 299 259.59327752904 299 C 259.79083585935996 299 259.88961502452 299 260.08717335484 299 C 260.37194211926396 299 260.514326501476 299 260.7990952659 299 C 261.171074464432 299 261.357064063698 239.2 261.72904326223 239.2 C 262.013812026658 239.2 262.156196408872 239.2 262.4409651733 239.2 C 262.767335226436 239.2 262.93052025300403 239.2 263.25689030614 239.2 C 263.53194595078804 239.2 263.669473773112 239.2 263.94452941776 239.2 C 264.197410013256 239.2 264.32385031100404 239.2 264.5767309065 239.2 C 264.861499670924 239.2 265.00388405313595 239.2 265.28865281756 239.2 C 265.48621114788 239.2 265.58499031304 179.4 265.78254864336 179.4 C 266.156423004388 179.4 266.343360184902 207.79531018503127 266.71723454593 239.2 C 266.912897713754 255.6353101850313 267.010729297666 299 267.20639246549 299 C 267.582751961338 299 267.770931709262 299 268.14729120511 299 C 268.42819713398205 299 268.56865009841806 299 268.84955602729 299 C 269.13380732995404 299 269.275932981286 239.2 269.56018428395 239.2 C 269.84548039794197 239.2 269.98812845493796 239.2 270.27342456893 239.2 C 270.55766598379 239.2 270.69978669122 299 270.98402810608 299 C 271.26922534202805 299 271.41182396000204 239.2 271.69702119595 239.2 C 271.89415105475 239.2 271.99271598415 239.2 272.18984584295 239.2 C 272.561825041482 239.2 272.74781464074806 239.2 273.11979383928 239.2 C 273.40456260370803 239.2 273.54694698592203 239.2 273.83171575035 239.2 C 274.116484514774 239.2 274.258868896986 299 274.54363766141 299 C 274.74119599173 299 274.83997515689 299 275.03753348721 299 C 275.322302251638 299 275.464686633852 179.4 275.74945539828 179.4 C 276.14473355972405 179.4 276.34237264044606 239.2 276.73765080189 239.2 C 277.127665355502 239.2 277.322672632308 239.2 277.71268718592 239.2 C 277.868911198248 239.2 277.947023204412 239.2 278.10324721674 239.2 C 278.38801598116396 239.2 278.530400363376 239.2 278.8151691278 239.2 C 279.01272745812 239.2 279.11150662328 299 279.3090649536 299 C 279.593833718028 299 279.736218100242 299 280.02098686467 299 C 280.39296606320204 299 280.57895566246805 239.2 280.950934861 239.2 C 281.23570362542404 239.2 281.37808800763605 239.2 281.66285677206 239.2 C 281.860415102384 239.2 281.95919426754597 299 282.15675259787 299 C 282.441521362294 299 282.583905744506 179.4 282.86867450893 179.4 C 283.240653707462 179.4 283.426643306728 212.10363143637971 283.79862250526 239.2 C 284.08339126968804 259.94363143637975 284.225775651902 299 284.51054441633 299 C 284.79531318075396 299 284.937697562966 299 285.22246632739 299 C 285.50723509181796 299 285.64961947403197 239.2 285.93438823846 239.2 C 286.219157002884 239.2 286.361541385096 239.2 286.64631014952 239.2 C 286.931078913948 239.2 287.073463296162 239.2 287.35823206059 239.2 C 287.643000825014 239.2 287.785385207226 239.2 288.07015397165 239.2 C 288.354922736078 239.2 288.497307118292 239.2 288.78207588272 239.2 C 289.06684464714397 239.2 289.209229029356 239.2 289.49399779378 239.2 C 289.778766558208 239.2 289.921150940422 239.2 290.20591970485 239.2 C 290.40347803517 239.2 290.50225720033 299 290.69981553065 299 C 290.984584295078 299 291.126968677292 299 291.41173744172 299 C 291.696506206144 299 291.83889058835604 299 292.12365935278 299 C 292.408428117208 299 292.550812499422 299 292.83558126385 299 C 293.12035002827395 299 293.26273441048596 299 293.54750317491 299 C 293.919482373442 299 294.10547197270796 299 294.47745117124 299 C 294.67500950156 299 294.77378866671995 299 294.97134699704 299 C 295.256115761468 299 295.398500143682 299 295.68326890811 299 C 296.055248106642 299 296.241237705908 239.2 296.61321690444 239.2 C 296.81077523475994 239.2 296.90955439991995 299 297.10711273024 299 C 297.391881494664 299 297.534265876876 299 297.8190346413 299 C 298.103803405728 299 298.246187787942 299 298.53095655237 299 C 298.902935750902 299 299.08892535016804 299 299.4609045487 299 C 299.65846287902 299 299.75724204418003 299 299.9548003745 299 C 300.326779573032 299 300.51276917229796 239.2 300.88474837083 239.2 C 301.282656688226 239.2 301.481610846924 239.2 301.87951916432 239.2 C 302.226300941508 239.2 302.399691830102 299 302.74647360729 299 C 302.76887937187803 299 302.78008225417204 299 302.80248801876 299 C 303.17446721729203 299 303.360456816558 299 303.73243601509 299 C 304.017204779518 299 304.159589161732 239.2 304.44435792616 239.2 C 304.729126690584 239.2 304.871511072796 239.2 305.15627983722 239.2 C 305.46434426862396 239.2 305.618376484326 239.2 305.92644091573 239.2 C 306.213655263758 239.2 306.35726243777196 239.2 306.6444767858 239.2 C 306.90350429964803 239.2 307.033018056572 239.2 307.29204557042 239.2 C 307.576814334844 239.2 307.719198717056 299 308.00396748148 299 C 308.288736245908 299 308.431120628122 239.2 308.71588939255 239.2 C 309.000658156974 239.2 309.143042539186 299 309.42781130361 299 C 309.62536963393393 299 309.72414879909604 299 309.92170712942 299 C 310.20647589384396 299 310.348860276056 239.2 310.63362904048 239.2 C 311.005608239012 239.2 311.19159783827797 239.2 311.56357703681 239.2 C 311.848345801238 239.2 311.990730183452 239.2 312.27549894788 239.2 C 312.560267712304 239.2 312.702652094516 239.2 312.98742085894 239.2 C 313.27218962336804 239.2 313.41457400558204 239.2 313.69934277001 239.2 C 314.14151549140996 239.2 314.36260185210995 239.2 314.80477457351 239.2 C 314.932139380962 239.2 314.995821784688 239.2 315.12318659214 239.2 C 315.32074492246 239.2 315.41952408762 299 315.61708241794 299 C 315.901851182364 299 316.044235564576 299 316.329004329 299 C 316.613773093428 299 316.756157475642 299 317.04092624007 299 C 317.325695004498 299 317.468079386712 299 317.75284815114 299 C 318.12482734966795 299 318.31081694893203 299 318.68279614746 299 C 318.96756491188796 299 319.10994929410197 299 319.39471805853 299 C 319.713118541386 299 319.872318782814 299 320.19071926567 299 C 320.441856311666 299 320.567424834664 299 320.81856188066 299 C 321.103330645088 299 321.245715027302 299 321.53048379173 299 C 321.81525255615395 299 321.95763693836597 299 322.24240570279 299 C 322.527174467218 299 322.669558849432 239.2 322.95432761386 239.2 C 323.239096378284 239.2 323.381480760496 299 323.66624952492 299 C 323.951018289348 299 324.093402671562 299 324.37817143599 299 C 324.662940200414 299 324.805324582626 239.2 325.09009334705 239.2 C 325.37486211147797 239.2 325.51724649369197 239.2 325.80201525812 239.2 C 326.086784022544 239.2 326.229168404756 239.2 326.51393716918 239.2 C 326.798705933608 239.2 326.941090315822 239.2 327.22585908025 239.2 C 327.42341741057 239.2 327.52219657573005 299 327.71975490605 299 C 328.09173410458203 299 328.277723703848 299 328.64970290238 299 C 328.934471666804 299 329.076856049016 299 329.36162481344 299 C 329.646393577868 299 329.78877796008203 239.2 330.07354672451 239.2 C 330.41209525663396 239.2 330.581369522696 299 330.91991805482 299 C 331.063696617444 299 331.135585898756 299 331.27936446138 299 C 331.564133225804 299 331.70651760801604 299 331.99128637244 299 C 332.363265570972 299 332.54925517023804 239.2 332.92123436877 239.2 C 333.206003133198 239.2 333.348387515412 299 333.63315627984 299 C 333.83071461016004 299 333.92949377532005 299 334.12705210564 299 C 334.411820870064 299 334.554205252276 299 334.8389740167 299 C 335.210953215232 299 335.396942814498 299 335.76892201303 299 C 336.053690777458 299 336.196075159672 239.2 336.4808439241 239.2 C 336.67840225441995 239.2 336.77718141957996 299 336.9747397499 299 C 337.27609695404 299 337.42677555611 299 337.72813276025 299 C 338.083523519066 299 338.261218898474 299 338.61660965729 299 C 338.901378421718 299 339.043762803932 299 339.32853156836 299 C 339.52608989868 299 339.62486906384004 299 339.82242739416 299 C 340.19440659269196 299 340.38039619195797 299 340.75237539049 299 C 341.037144154918 299 341.179528537132 299 341.46429730156 299 C 341.66185563188003 299 341.76063479704 179.4 341.95819312736 179.4 C 342.242961891784 179.4 342.385346273996 299 342.67011503842 299 C 342.954883802848 299 343.09726818506203 299 343.38203694949 299 C 343.754016148022 299 343.94000574728796 239.2 344.31198494582 239.2 C 344.596753710244 239.2 344.739138092456 239.2 345.02390685688 239.2 C 345.308675621308 239.2 345.451060003522 239.2 345.73582876795 239.2 C 345.93338709827003 239.2 346.03216626343 299 346.22972459375 299 C 346.601703792282 299 346.78769339154803 299 347.15967259008 299 C 347.444441354504 299 347.58682573671604 239.2 347.87159450114 239.2 C 348.156363265568 239.2 348.29874764778197 239.2 348.58351641221 239.2 C 348.868285176638 239.2 349.010669558852 239.2 349.29543832328 239.2 C 349.580207087704 239.2 349.722591469916 239.2 350.00736023434 239.2 C 350.292128998768 239.2 350.43451338098197 239.2 350.71928214541 239.2 C 351.00405090983395 239.2 351.14643529204596 239.2 351.43120405647 239.2 C 351.71597282089795 239.2 351.85835720311195 239.2 352.14312596754 239.2 C 352.427894731964 239.2 352.570279114176 239.2 352.8550478786 239.2 C 353.139816643028 239.2 353.282201025242 239.2 353.56696978967 239.2 C 353.85173855409397 239.2 353.994122936306 239.2 354.27889170073 239.2 C 354.56366046515797 239.2 354.706044847372 239.2 354.9908136118 239.2 C 355.27558237622395 239.2 355.41796675843597 239.2 355.70273552286 239.2 C 355.987504287288 239.2 356.129888669502 239.2 356.41465743393 239.2 C 356.699426198354 239.2 356.841810580566 299 357.12657934499 299 C 357.411348109418 299 357.553732491632 239.2 357.83850125606 239.2 C 358.290756241932 239.2 358.516883734868 239.2 358.96913872074 239.2 C 358.999210829616 239.2 359.01424688405393 299 359.04431899293 299 C 359.32908775735393 299 359.471472139566 299 359.75624090399 299 C 360.12822010252205 299 360.31420970178795 299 360.68618890032 299 C 360.88374723064 299 360.98252639580005 299 361.18008472612 299 C 361.55206392465203 299 361.738053523918 299 362.11003272245 299 C 362.394801486878 299 362.537185869092 299 362.82195463352 299 C 363.106723397944 299 363.249107780156 299 363.53387654458 299 C 363.81864530900805 299 363.96102969122205 299 364.24579845565 299 C 364.53056722007403 299 364.67295160228605 239.2 364.95772036671 239.2 C 365.24248913113803 239.2 365.384873513352 299 365.66964227778 299 C 365.8672006081 299 365.96597977326 299 366.16353810358 299 C 366.535517302112 299 366.721506901378 239.2 367.09348609991 239.2 C 367.37825486433803 239.2 367.520639246552 239.2 367.80540801098 239.2 C 368.09017677540396 239.2 368.232561157616 239.2 368.51732992204 239.2 C 368.80209868646796 239.2 368.94448306868196 239.2 369.22925183311 239.2 C 369.514020597534 239.2 369.656404979746 299 369.94117374417 299 C 370.225942508598 299 370.368326890812 299 370.65309565524 299 C 370.937864419664 299 371.080248801876 239.2 371.3650175663 239.2 C 371.56257589662 239.2 371.66135506178 299 371.8589133921 299 C 372.245154100396 299 372.438274454544 299 372.82451516284 299 C 373.09502241750397 299 373.23027604483593 266.8479781429954 373.5007832995 239.2 C 373.69834162982 219.00797814299534 373.79712079498 179.4 373.9946791253 179.4 C 374.279447889728 179.4 374.421832271942 299 374.70660103637 299 C 375.07858023489797 299 375.264569834162 299 375.63654903269 299 C 375.834107363014 299 375.932886528176 59.80000000000001 376.1304448585 59.80000000000001 C 376.50242405703204 59.80000000000001 376.688413656298 299 377.06039285483 299 C 377.345161619254 299 377.48754600146606 239.2 377.77231476589 239.2 C 378.057083530318 239.2 378.199467912532 299 378.48423667696 299 C 378.769005441384 299 378.91138982359604 179.4 379.19615858802 179.4 C 379.39371691834003 179.4 379.4924960835 299 379.69005441382 299 C 380.062033612352 299 380.24802321161803 239.2 380.62000241015 239.2 C 380.90477117457806 239.2 381.04715555679206 299 381.33192432122 299 C 381.616693085644 299 381.75907746785595 239.2 382.04384623228 239.2 C 382.2414045626 239.2 382.34018372776 299 382.53774205808 299 C 382.822510822508 299 382.96489520472204 119.6 383.24966396915 119.6 C 383.534432733578 119.6 383.676817115792 299 383.96158588022 299 C 384.246354644644 299 384.388739026856 179.4 384.67350779128 179.4 C 385.045486989812 179.4 385.231476589078 207.9544999999555 385.60345578761 239.2 C 385.80101411793004 255.79449999995552 385.89979328309 299 386.09735161341 299 C 386.382120377838 299 386.52450476005197 299 386.80927352448 299 C 387.094042288904 299 387.23642667111596 299 387.52119543554 299 C 387.805964199968 299 387.948348582182 299 388.23311734661 299 C 388.51788611103404 299 388.660270493246 299 388.94503925767 299 C 389.317018456202 299 389.50300805546806 179.4 389.874987254 179.4 C 390.159756018428 179.4 390.30214040064203 299 390.58690916507 299 C 390.871677929494 299 391.01406231170597 239.2 391.29883107613 239.2 C 391.583599840558 239.2 391.725984222772 239.2 392.0107529872 239.2 C 392.295521751624 239.2 392.437906133836 179.4 392.72267489826 179.4 C 393.007443662688 179.4 393.149828044902 299 393.43459680933 299 C 393.71936557375403 299 393.86174995596605 239.2 394.14651872039 239.2 C 394.431287484818 239.2 394.57367186703203 239.2 394.85844063146 239.2 C 395.143209395888 239.2 395.285593778102 299 395.57036254253 299 C 395.85513130695404 299 395.99751568916605 299 396.28228445359 299 C 396.47984278391004 299 396.57862194907 299 396.77618027939 299 C 397.06094904381797 299 397.203333426032 299 397.48810219046 299 C 397.86008138899194 299 398.046070988258 239.2 398.41805018679 239.2 C 398.702818951214 239.2 398.84520333342596 239.2 399.12997209785 239.2 C 399.414740862278 239.2 399.557125244492 239.2 399.84189400892 239.2 C 400.03945233924003 239.2 400.13823150440004 299 400.33578983472 299 C 400.62055859914403 299 400.76294298135605 299 401.04771174578 299 C 401.41969094431204 299 401.605680543578 239.2 401.97765974211 239.2 C 402.175218072434 239.2 402.273997237596 299 402.47155556792 299 C 402.843534766448 299 403.02952436571195 179.4 403.40150356424 179.4 C 403.686272328668 179.4 403.828656710882 239.2 404.11342547531 239.2 C 404.39819423973796 239.2 404.540578621952 179.4 404.82534738638 179.4 C 405.131833065028 179.4 405.285075904352 179.4 405.591561583 179.4 C 405.854613433204 179.4 405.986139358306 179.4 406.24919120851 179.4 C 406.533959972934 179.4 406.676344355146 239.2 406.96111311957 239.2 C 407.271240806142 239.2 407.426304649428 239.2 407.736432336 239.2 C 407.99584217828 239.2 408.12554709942003 179.4 408.3849569417 179.4 C 408.66972570612796 179.4 408.81211008834197 299 409.09687885277 299 C 409.381647617194 299 409.524031999406 299 409.80880076383 299 C 410.093569528258 299 410.235953910472 299 410.5207226749 299 C 410.80549143932404 299 410.94787582153606 299 411.23264458596 299 C 411.51741335038804 299 411.65979773260204 179.4 411.94456649703 179.4 C 412.14212482735 179.4 412.24090399250997 299 412.43846232283 299 C 412.810441521362 299 412.996431120628 179.4 413.36841031916 179.4 C 413.65317908358804 179.4 413.79556346580205 179.4 414.08033223023 179.4 C 414.36510099465403 179.4 414.50748537686604 179.4 414.79225414129 179.4 C 415.07702290571797 179.4 415.219407287932 239.2 415.50417605236 239.2 C 415.788944816784 239.2 415.93132919899597 179.4 416.21609796342 179.4 C 416.51928770729603 179.4 416.67088257923405 239.2 416.97407232311 239.2 C 417.35608434709 239.2 417.54709035908 179.4 417.92910238306 179.4 C 418.01099647437593 179.4 418.051943520034 299 418.13383761135 299 C 418.41860637577804 299 418.56099075799204 299 418.84575952242 299 C 419.217738720952 299 419.40372832021797 179.4 419.77570751875 179.4 C 419.97326584906995 179.4 420.07204501423 299 420.26960334455 299 C 420.64158254308205 299 420.827572142348 179.4 421.19955134088 179.4 C 421.3971096712 179.4 421.49588883636005 299 421.69344716668 299 C 422.065426365212 299 422.25141596447804 299 422.62339516301 299 C 422.82095349333 299 422.91973265849003 299 423.11729098881 299 C 423.40205975323795 299 423.54444413545195 299 423.82921289988 299 C 424.201192098412 299 424.387181697678 179.4 424.75916089621 179.4 C 425.04392966063403 179.4 425.18631404284605 210.95498154986757 425.47108280727 239.2 C 425.66864113759004 258.7949815498676 425.76742030275 299 425.96497863307 299 C 426.33695783160204 299 426.52294743086804 179.4 426.8949266294 179.4 C 427.09248495971997 179.4 427.19126412488004 299 427.3888224552 299 C 427.7608016537321 299 427.94679125299797 299 428.31877045153 299 C 428.51632878185 299 428.61510794700996 299 428.81266627733 299 C 429.09743504175805 299 429.23981942397205 299 429.5245881884 299 C 429.80935695282807 299 429.9517413350421 299 430.23651009947 299 C 430.521278863894 299 430.663663246106 299 430.94843201053 299 C 431.233200774958 299 431.375585157172 299 431.6603539216 299 C 432.032333120128 299 432.218322719392 299 432.59030191792 299 C 432.78786024824404 299 432.886639413406 299 433.08419774373 299 C 433.36896650815396 299 433.511350890366 299 433.79611965479 299 C 434.080888419218 299 434.223272801432 299 434.50804156586 299 C 434.88002076439204 299 435.066010363658 239.2 435.43798956219 239.2 C 435.722758326614 239.2 435.865142708826 299 436.14991147325 299 C 436.434680237678 299 436.577064619892 179.4 436.86183338432 179.4 C 437.146602148744 179.4 437.28898653095604 179.4 437.57375529538 179.4 C 437.85852405980796 179.4 438.000908442022 179.4 438.28567720645 179.4 C 438.57044597087395 179.4 438.71283035308596 179.4 438.99759911751 179.4 C 439.282367881938 179.4 439.424752264152 179.4 439.70952102858 179.4 C 439.994289793004 179.4 440.136674175216 179.4 440.42144293964 179.4 C 440.619001269964 179.4 440.717780435126 299 440.91533876545 299 C 441.28731796397796 299 441.473307563242 179.4 441.84528676177 179.4 C 442.151604347746 179.4 442.30476314073405 239.2 442.61108072671 239.2 C 442.87430066958996 239.2 443.00591064103 239.2 443.26913058391 239.2 C 443.553899348334 239.2 443.69628373054604 239.2 443.98105249497 239.2 C 444.265821259398 239.2 444.408205641612 299 444.69297440604 299 C 444.97774317046407 299 445.1201275526761 179.4 445.4048963171 179.4 C 445.70792785610803 179.4 445.859443625612 179.4 446.16247516462 179.4 C 446.42898115446394 179.4 446.562234149386 239.2 446.82874013923 239.2 C 447.11350890365804 239.2 447.25589328587205 179.4 447.5406620503 179.4 C 447.82543081472403 179.4 447.96781519693604 239.2 448.25258396136 239.2 C 448.53735272578797 239.2 448.679737108002 239.2 448.96450587243 239.2 C 449.249274636854 239.2 449.39165901906597 239.2 449.67642778349 239.2 C 449.977518016914 239.2 450.128063133626 239.2 450.42915336705 239.2 C 450.697600662478 239.2 450.83182431019196 239.2 451.10027160562 239.2 C 451.38504037004793 239.2 451.52742475226194 239.2 451.81219351669 239.2 C 452.00975184701 239.2 452.10853101217 299 452.30608934249 299 C 452.59085810691806 299 452.73324248913207 299 453.01801125356 299 C 453.38999045209204 299 453.575980051358 299 453.94795924989 299 C 454.2327280143139 299 454.37511239652594 179.4 454.65988116095 179.4 C 454.944649925378 179.4 455.087034307592 239.2 455.37180307202 239.2 C 455.65657183644396 239.2 455.798956218656 239.2 456.08372498308 239.2 C 456.368493747508 239.2 456.510878129722 239.2 456.79564689415 239.2 C 457.080415658574 239.2 457.222800040786 239.2 457.50756880521 239.2 C 457.79233756963805 239.2 457.93472195185205 239.2 458.21949071628 239.2 C 458.50425948070404 239.2 458.64664386291605 239.2 458.93141262734 239.2 C 459.216181391768 239.2 459.358565773982 239.2 459.64333453841 239.2 C 459.928103302834 239.2 460.07048768504603 239.2 460.35525644947 239.2 C 460.640025213898 239.2 460.782409596112 299 461.06717836054 299 C 461.351947124968 299 461.49433150718204 239.2 461.77910027161 239.2 C 462.06386903603396 239.2 462.206253418246 239.2 462.49102218267 239.2 C 462.775790947098 239.2 462.918175329312 239.2 463.20294409374 239.2 C 463.487712858164 239.2 463.630097240376 239.2 463.9148660048 239.2 C 464.19963476922806 239.2 464.34201915144206 239.2 464.62678791587 239.2 C 464.82434624619 239.2 464.92312541135 299 465.12068374167 299 C 465.40545250609404 299 465.54783688830605 299 465.83260565273 299 C 466.117374417158 299 466.25975879937204 299 466.5445275638 299 C 466.82929632822396 299 466.971680710436 299 467.25644947486 299 C 467.541218239288 299 467.683602621502 299 467.96837138593 299 C 468.25314015035804 299 468.39552453257204 299 468.680293297 299 C 468.965062061424 299 469.10744644363604 299 469.39221520806 299 C 469.6769839724881 299 469.81936835470196 299 470.10413711913 299 C 470.47611631766193 299 470.662105916928 299 471.03408511546 299 C 471.31885387988393 299 471.46123826209606 239.2 471.74600702652 239.2 C 471.94356535684 239.2 472.042344522 299 472.23990285232 299 C 472.611882050852 299 472.79787165011805 239.2 473.16985084865 239.2 C 473.36740917897004 239.2 473.46618834413005 299 473.66374667445 299 C 474.035725872982 299 474.221715472248 239.2 474.59369467078 239.2 C 474.7912530011 239.2 474.89003216625997 299 475.08759049658 299 C 475.372359261008 299 475.514743643222 299 475.79951240765 299 C 476.17149160618203 299 476.3574812054479 239.2 476.72946040398 239.2 C 476.92701873429996 239.2 477.02579789946003 299 477.22335622978 299 C 477.508124994208 299 477.650509376422 299 477.93527814085 299 C 478.307257339378 299 478.493246938642 239.2 478.86522613717 239.2 C 479.062784467494 239.2 479.161563632656 299 479.35912196298 299 C 479.731101161512 299 479.917090760778 239.2 480.28906995931 239.2 C 480.573838723734 239.2 480.716223105946 239.2 481.00099187037 239.2 C 481.28576063479807 239.2 481.42814501701207 239.2 481.71291378144 239.2 C 481.91047211176 239.2 482.00925127692 299 482.20680960724 299 C 482.578788805772 299 482.76477840503804 239.2 483.13675760357 239.2 C 483.42152636799403 239.2 483.563910750206 239.2 483.84867951463 239.2 C 484.13344827905803 239.2 484.27583266127203 239.2 484.5606014257 239.2 C 484.84537019012396 239.2 484.987754572336 239.2 485.27252333676 239.2 C 485.55729210118795 239.2 485.69967648340196 239.2 485.98444524783 239.2 C 486.269214012254 239.2 486.411598394466 239.2 486.69636715889 239.2 C 486.98113592331794 239.2 487.12352030553194 239.2 487.40828906996 239.2 C 487.6930578343839 239.2 487.83544221659594 239.2 488.12021098102 239.2 C 488.404979745448 239.2 488.547364127662 239.2 488.83213289209 239.2 C 489.116901656518 239.2 489.259286038732 239.2 489.54405480316 239.2 C 489.828823567584 239.2 489.971207949796 239.2 490.25597671422 239.2 C 490.54074547864803 239.2 490.68312986086204 179.4 490.96789862529 179.4 C 491.16545695561 179.4 491.26423612076997 299 491.46179445109 299 C 491.833773649622 299 492.019763248888 179.4 492.39174244742 179.4 C 492.676511211844 179.4 492.818895594056 179.4 493.10366435848 179.4 C 493.30122268879995 179.4 493.40000185396 299 493.59756018428 299 C 493.882328948708 299 494.024713330922 299 494.30948209535 299 C 494.6814612938821 299 494.867450893148 179.4 495.23943009168 179.4 C 495.436988422 179.4 495.53576758715997 299 495.73332591748 299 C 496.105305116012 299 496.29129471527796 299 496.66327391381 299 C 496.948042678234 299 497.090427060446 239.2 497.37519582487 239.2 C 497.65996458929806 239.2 497.80234897151206 239.2 498.08711773594 239.2 C 498.3718865003681 239.2 498.51427088258197 239.2 498.79903964701 239.2 C 499.083808411434 239.2 499.22619279364596 239.2 499.51096155807 239.2 C 499.795730322498 239.2 499.938114704712 239.2 500.22288346914 239.2 C 500.50765223356404 239.2 500.65003661577595 239.2 500.9348053802 239.2 C 501.2195741446279 239.2 501.36195852684193 239.2 501.64672729127 239.2 C 501.93149605569397 239.2 502.073880437906 239.2 502.35864920233 239.2 C 502.64341796675797 239.2 502.78580234897197 239.2 503.0705711134 239.2 C 503.355339877824 239.2 503.497724260036 239.2 503.78249302446 239.2 C 504.067261788888 239.2 504.209646171102 239.2 504.49441493553 239.2 C 504.77918369995393 239.2 504.92156808216606 239.2 505.20633684659 239.2 C 505.491105611018 239.2 505.633489993232 239.2 505.91825875766 239.2 C 506.20302752208397 239.2 506.345411904296 239.2 506.63018066872 239.2 C 506.914949433148 239.2 507.057333815362 239.2 507.34210257979 239.2 C 507.62687134421793 239.2 507.76925572643194 239.2 508.05402449086 239.2 C 508.338793255284 239.2 508.481177637496 239.2 508.76594640192 239.2 C 509.05071516634797 239.2 509.193099548562 239.2 509.47786831299 239.2 C 509.762637077414 239.2 509.905021459626 239.2 510.18979022405 239.2 C 510.474558988478 239.2 510.616943370692 239.2 510.90171213512 239.2 C 511.18648089954405 239.2 511.32886528175607 299 511.61363404618 299 C 511.89840281060805 299 512.0407871928221 239.2 512.32555595725 239.2 C 512.610324721674 239.2 512.7527091038861 239.2 513.03747786831 239.2 C 513.3222466327381 239.2 513.4646310149521 239.2 513.74939977938 239.2 C 514.0341685438041 239.2 514.1765529260159 239.2 514.46132169044 239.2 C 514.746090454868 239.2 514.888474837082 239.2 515.17324360151 239.2 C 515.458012365934 239.2 515.600396748146 239.2 515.88516551257 239.2 C 516.169934276998 239.2 516.312318659212 239.2 516.59708742364 239.2 C 516.896625271784 239.2 517.046394195856 239.2 517.345932044 239.2 C 517.615931724708 239.2 517.750931565062 239.2 518.02093124577 239.2 C 518.305700010198 239.2 518.4480843924119 239.2 518.73285315684 239.2 C 519.0176219212639 239.2 519.1600063034759 239.2 519.4447750679 239.2 C 519.7295438323279 239.2 519.8719282145419 239.2 520.15669697897 239.2 C 520.4414657433939 239.2 520.583850125606 239.2 520.86861889003 239.2 C 521.1533876544579 239.2 521.2957720366719 239.2 521.5805408011 239.2 C 521.865309565524 239.2 522.007693947736 239.2 522.29246271216 239.2 C 522.5772314765879 239.2 522.719615858802 239.2 523.00438462323 239.2 C 523.289153387654 239.2 523.431537769866 239.2 523.71630653429 239.2 C 524.001075298718 239.2 524.143459680932 239.2 524.42822844536 239.2 C 524.712997209784 239.2 524.8553815919961 239.2 525.14015035642 239.2 C 525.424919120848 239.2 525.567303503062 239.2 525.85207226749 239.2 C 526.136841031918 239.2 526.279225414132 239.2 526.56399417856 239.2 C 526.848762942984 239.2 526.991147325196 239.2 527.27591608962 239.2 C 527.560684854048 239.2 527.703069236262 239.2 527.98783800069 239.2 C 528.272606765114 239.2 528.414991147326 239.2 528.69975991175 239.2 C 528.984528676178 239.2 529.126913058392 239.2 529.41168182282 239.2 C 529.696450587244 239.2 529.838834969456 239.2 530.12360373388 239.2 C 530.408372498308 239.2 530.550756880522 239.2 530.83552564495 239.2 C 531.1202944093741 239.2 531.262678791586 239.2 531.54744755601 239.2 C 531.832216320438 239.2 531.974600702652 239.2 532.25936946708 239.2 C 532.6835859358359 239.2 532.8956941702139 239.2 533.31991063897 239.2 C 533.465231699066 239.2 533.537892229114 239.2 533.68321328921 239.2 C 533.967982053634 239.2 534.110366435846 239.2 534.39513520027 239.2 C 534.679903964698 239.2 534.822288346912 239.2 535.10705711134 239.2 C 535.391825875768 239.2 535.534210257982 239.2 535.81897902241 239.2 C 536.103747786834 239.2 536.246132169046 239.2 536.53090093347 239.2 C 536.815669697898 239.2 536.958054080112 239.2 537.24282284454 239.2 C 537.527591608964 239.2 537.669975991176 239.2 537.9547447556 239.2 C 538.239513520028 239.2 538.66666666667 299 538.66666666667 299" class="highcharts-graph" data-z-index="1" stroke="#000000" stroke-width="2" stroke-linejoin="round" stroke-linecap="round"></path></g><g data-z-index="0.1" class="highcharts-markers highcharts-series-0 highcharts-spline-series highcharts-color-0 " transform="translate(46,63) scale(1 1)" clip-path="none"></g></g><text x="300" text-anchor="middle" class="highcharts-title" data-z-index="4" style="color:#333333;font-size:18px;fill:#333333;" y="24"><tspan>Bananas Over Time</tspan></text><text x="300" text-anchor="middle" class="highcharts-subtitle" data-z-index="4" style="color:#666666;fill:#666666;" y="46"><tspan>This chart shows how your Bananas changes over time.</tspan></text><g class="highcharts-axis-labels highcharts-xaxis-labels " data-z-index="7"><text x="97.048647997256" style="color:#666666;cursor:default;font-size:11px;fill:#666666;" text-anchor="middle" transform="translate(0,0)" y="381" opacity="1"><tspan>May '17</tspan></text><text x="184.6150430583" style="color:#666666;cursor:default;font-size:11px;fill:#666666;" text-anchor="middle" transform="translate(0,0)" y="381" opacity="1"><tspan>Sep '17</tspan></text><text x="271.46951620827" style="color:#666666;cursor:default;font-size:11px;fill:#666666;" text-anchor="middle" transform="translate(0,0)" y="381" opacity="1"><tspan>Jan '18</tspan></text><text x="356.90014553612" style="color:#666666;cursor:default;font-size:11px;fill:#666666;" text-anchor="middle" transform="translate(0,0)" y="381" opacity="1"><tspan>May '18</tspan></text><text x="444.46654059716" style="color:#666666;cursor:default;font-size:11px;fill:#666666;" text-anchor="middle" transform="translate(0,0)" y="381" opacity="1"><tspan>Sep '18</tspan></text><text x="531.32101374714" style="color:#666666;cursor:default;font-size:11px;fill:#666666;" text-anchor="middle" transform="translate(0,0)" y="381" opacity="1"><tspan>Jan '19</tspan></text></g><g class="highcharts-axis-labels highcharts-yaxis-labels " data-z-index="7"><text x="31" style="color:#666666;cursor:default;font-size:11px;fill:#666666;" text-anchor="end" transform="translate(0,0)" y="366" opacity="1">0</text><text x="31" style="color:#666666;cursor:default;font-size:11px;fill:#666666;" text-anchor="end" transform="translate(0,0)" y="306" opacity="1">100</text><text x="31" style="color:#666666;cursor:default;font-size:11px;fill:#666666;" text-anchor="end" transform="translate(0,0)" y="246" opacity="1">200</text><text x="31" style="color:#666666;cursor:default;font-size:11px;fill:#666666;" text-anchor="end" transform="translate(0,0)" y="186" opacity="1">300</text><text x="31" style="color:#666666;cursor:default;font-size:11px;fill:#666666;" text-anchor="end" transform="translate(0,0)" y="126" opacity="1">400</text><text x="31" style="color:#666666;cursor:default;font-size:11px;fill:#666666;" text-anchor="end" transform="translate(0,0)" y="67" opacity="1">500</text></g><a xlink:href="https://quantimo.do" target="_blank">
                    <text x="590" class="highcharts-credits" text-anchor="end" data-z-index="8"
                          style="cursor:pointer;color:#999999;font-size:9px;fill:#999999;" y="395">https://quantimo.do
                    </text>
                </a></svg>