<?xml version="1.0" standalone="no"?><!DOCTYPE svg PUBLIC "-//W3C//DTD SVG 1.1//EN" "http://www.w3.org/Graphics/SVG/1.1/DTD/svg11.dtd"><svg xmlns:xlink="http://www.w3.org/1999/xlink" version="1.1" class="highcharts-root" style="font-family:&quot;Lucida Grande&quot;, &quot;Lucida Sans Unicode&quot;, Arial, Helvetica, sans-serif;font-size:12px;" xmlns="http://www.w3.org/2000/svg" width="600" height="400"><desc>Created with Highstock 6.2.0</desc><defs><clipPath id="highcharts-r2h9k6u-234"><rect x="0" y="0" width="532" height="263" fill="none"></rect></clipPath><clipPath id="highcharts-r2h9k6u-462"><rect x="0" y="0" width="532" height="263" fill="none"></rect></clipPath><clipPath id="highcharts-r2h9k6u-463"><rect x="58" y="78" width="532" height="263" fill="none"></rect></clipPath></defs><rect fill="#ffffff" class="highcharts-background" x="0" y="0" width="600" height="400" rx="0" ry="0"></rect><rect fill="none" class="highcharts-plot-background" x="58" y="78" width="532" height="263"></rect><g class="highcharts-pane-group" data-z-index="0"></g><g class="highcharts-grid highcharts-xaxis-grid " data-z-index="1"><path fill="none" data-z-index="1" class="highcharts-grid-line" d="M 62.5 78 L 62.5 341" opacity="1"></path><path fill="none" data-z-index="1" class="highcharts-grid-line" d="M 127.5 78 L 127.5 341" opacity="1"></path><path fill="none" data-z-index="1" class="highcharts-grid-line" d="M 193.5 78 L 193.5 341" opacity="1"></path><path fill="none" data-z-index="1" class="highcharts-grid-line" d="M 258.5 78 L 258.5 341" opacity="1"></path><path fill="none" data-z-index="1" class="highcharts-grid-line" d="M 323.5 78 L 323.5 341" opacity="1"></path><path fill="none" data-z-index="1" class="highcharts-grid-line" d="M 388.5 78 L 388.5 341" opacity="1"></path><path fill="none" data-z-index="1" class="highcharts-grid-line" d="M 453.5 78 L 453.5 341" opacity="1"></path><path fill="none" data-z-index="1" class="highcharts-grid-line" d="M 519.5 78 L 519.5 341" opacity="1"></path><path fill="none" data-z-index="1" class="highcharts-grid-line" d="M 584.5 78 L 584.5 341" opacity="1"></path></g><g class="highcharts-grid highcharts-yaxis-grid " data-z-index="1"><path fill="none" stroke="#e6e6e6" stroke-width="1" data-z-index="1" class="highcharts-grid-line" d="M 58 341.5 L 590 341.5" opacity="1"></path><path fill="none" stroke="#e6e6e6" stroke-width="1" data-z-index="1" class="highcharts-grid-line" d="M 58 297.5 L 590 297.5" opacity="1"></path><path fill="none" stroke="#e6e6e6" stroke-width="1" data-z-index="1" class="highcharts-grid-line" d="M 58 253.5 L 590 253.5" opacity="1"></path><path fill="none" stroke="#e6e6e6" stroke-width="1" data-z-index="1" class="highcharts-grid-line" d="M 58 210.5 L 590 210.5" opacity="1"></path><path fill="none" stroke="#e6e6e6" stroke-width="1" data-z-index="1" class="highcharts-grid-line" d="M 58 166.5 L 590 166.5" opacity="1"></path><path fill="none" stroke="#e6e6e6" stroke-width="1" data-z-index="1" class="highcharts-grid-line" d="M 58 122.5 L 590 122.5" opacity="1"></path><path fill="none" stroke="#e6e6e6" stroke-width="1" data-z-index="1" class="highcharts-grid-line" d="M 58 77.5 L 590 77.5" opacity="1"></path></g><rect fill="none" class="highcharts-plot-border" data-z-index="1" x="58" y="78" width="532" height="263"></rect><g class="highcharts-axis highcharts-xaxis " data-z-index="2"><path fill="none" class="highcharts-tick" stroke="#ccd6eb" stroke-width="1" d="M 62.5 341 L 62.5 351" opacity="1"></path><path fill="none" class="highcharts-tick" stroke="#ccd6eb" stroke-width="1" d="M 127.5 341 L 127.5 351" opacity="1"></path><path fill="none" class="highcharts-tick" stroke="#ccd6eb" stroke-width="1" d="M 193.5 341 L 193.5 351" opacity="1"></path><path fill="none" class="highcharts-tick" stroke="#ccd6eb" stroke-width="1" d="M 258.5 341 L 258.5 351" opacity="1"></path><path fill="none" class="highcharts-tick" stroke="#ccd6eb" stroke-width="1" d="M 323.5 341 L 323.5 351" opacity="1"></path><path fill="none" class="highcharts-tick" stroke="#ccd6eb" stroke-width="1" d="M 388.5 341 L 388.5 351" opacity="1"></path><path fill="none" class="highcharts-tick" stroke="#ccd6eb" stroke-width="1" d="M 453.5 341 L 453.5 351" opacity="1"></path><path fill="none" class="highcharts-tick" stroke="#ccd6eb" stroke-width="1" d="M 519.5 341 L 519.5 351" opacity="1"></path><path fill="none" class="highcharts-tick" stroke="#ccd6eb" stroke-width="1" d="M 584.5 341 L 584.5 351" opacity="1"></path><text x="324" data-z-index="7" text-anchor="middle" transform="translate(0,0)" class="highcharts-axis-title" style="color:#666666;fill:#666666;" y="381"><tspan>Fruity Pebbles consumption (serving) over previous 7 days</tspan></text><path fill="none" class="highcharts-axis-line" stroke="#ccd6eb" stroke-width="1" data-z-index="7" d="M 58 341.5 L 590 341.5"></path></g><g class="highcharts-axis highcharts-yaxis " data-z-index="2"><text x="26" data-z-index="7" text-anchor="middle" transform="translate(0,0) rotate(270 26 209.5)" class="highcharts-axis-title" style="color:#666666;fill:#666666;" y="209.5"><tspan>Overall Mood (/5)</tspan></text><path fill="none" class="highcharts-axis-line" data-z-index="7" d="M 58 78 L 58 341"></path></g><g class="highcharts-series-group" data-z-index="3"><g data-z-index="0.1" class="highcharts-series highcharts-series-0 highcharts-scatter-series highcharts-color-0 " transform="translate(58,78) scale(1 1)" clip-path="url(#highcharts-r2h9k6u-462)"></g><g data-z-index="0.1" class="highcharts-markers highcharts-series-0 highcharts-scatter-series highcharts-color-0 " transform="translate(58,78) scale(1 1)" clip-path="none"><path fill="#000000" d="M 9 167 A 4 4 0 1 1 8.999998000000167 166.99600000066667 Z" class="highcharts-point highcharts-color-0"></path><path fill="#000000" d="M 9 117 A 4 4 0 1 1 8.999998000000167 116.99600000066667 Z" class="highcharts-point highcharts-color-0"></path><path fill="#000000" d="M 270 128 A 4 4 0 1 1 269.9999980000002 127.99600000066667 Z" class="highcharts-point highcharts-color-0"></path><path fill="#000000" d="M 270 124 A 4 4 0 1 1 269.9999980000002 123.99600000066667 Z" class="highcharts-point highcharts-color-0"></path><path fill="#000000" d="M 270 118 A 4 4 0 1 1 269.9999980000002 117.99600000066667 Z" class="highcharts-point highcharts-color-0"></path><path fill="#000000" d="M 270 124 A 4 4 0 1 1 269.9999980000002 123.99600000066667 Z" class="highcharts-point highcharts-color-0"></path><path fill="#000000" d="M 270 118 A 4 4 0 1 1 269.9999980000002 117.99600000066667 Z" class="highcharts-point highcharts-color-0"></path><path fill="#000000" d="M 270 125 A 4 4 0 1 1 269.9999980000002 124.99600000066667 Z" class="highcharts-point highcharts-color-0"></path><path fill="#000000" d="M 270 102 A 4 4 0 1 1 269.9999980000002 101.99600000066667 Z" class="highcharts-point highcharts-color-0"></path><path fill="#000000" d="M 270 111 A 4 4 0 1 1 269.9999980000002 110.99600000066667 Z" class="highcharts-point highcharts-color-0"></path><path fill="#000000" d="M 270 93 A 4 4 0 1 1 269.9999980000002 92.99600000066667 Z" class="highcharts-point highcharts-color-0"></path><path fill="#000000" d="M 270 88 A 4 4 0 1 1 269.9999980000002 87.99600000066667 Z" class="highcharts-point highcharts-color-0"></path><path fill="#000000" d="M 270 88 A 4 4 0 1 1 269.9999980000002 87.99600000066667 Z" class="highcharts-point highcharts-color-0"></path><path fill="#000000" d="M 270 92 A 4 4 0 1 1 269.9999980000002 91.99600000066667 Z" class="highcharts-point highcharts-color-0"></path><path fill="#000000" d="M 270 132 A 4 4 0 1 1 269.9999980000002 131.99600000066667 Z" class="highcharts-point highcharts-color-0"></path><path fill="#000000" d="M 530 92 A 4 4 0 1 1 529.9999980000001 91.99600000066667 Z" class="highcharts-point highcharts-color-0"></path><path fill="#000000" d="M 270 108 A 4 4 0 1 1 269.9999980000002 107.99600000066667 Z" class="highcharts-point highcharts-color-0"></path><path fill="#000000" d="M 270 102 A 4 4 0 1 1 269.9999980000002 101.99600000066667 Z" class="highcharts-point highcharts-color-0"></path><path fill="#000000" d="M 270 102 A 4 4 0 1 1 269.9999980000002 101.99600000066667 Z" class="highcharts-point highcharts-color-0"></path><path fill="#000000" d="M 270 132 A 4 4 0 1 1 269.9999980000002 131.99600000066667 Z" class="highcharts-point highcharts-color-0"></path><path fill="#000000" d="M 270 139 A 4 4 0 1 1 269.9999980000002 138.99600000066667 Z" class="highcharts-point highcharts-color-0"></path><path fill="#000000" d="M 270 168 A 4 4 0 1 1 269.9999980000002 167.99600000066667 Z" class="highcharts-point highcharts-color-0"></path><path fill="#000000" d="M 9 117 A 4 4 0 1 1 8.999998000000167 116.99600000066667 Z" class="highcharts-point highcharts-color-0"></path><path fill="#000000" d="M 9 105 A 4 4 0 1 1 8.999998000000167 104.99600000066667 Z" class="highcharts-point highcharts-color-0"></path><path fill="#000000" d="M 9 101 A 4 4 0 1 1 8.999998000000167 100.99600000066667 Z" class="highcharts-point highcharts-color-0"></path><path fill="#000000" d="M 9 117 A 4 4 0 1 1 8.999998000000167 116.99600000066667 Z" class="highcharts-point highcharts-color-0"></path><path fill="#000000" d="M 9 117 A 4 4 0 1 1 8.999998000000167 116.99600000066667 Z" class="highcharts-point highcharts-color-0"></path><path fill="#000000" d="M 9 115 A 4 4 0 1 1 8.999998000000167 114.99600000066667 Z" class="highcharts-point highcharts-color-0"></path><path fill="#000000" d="M 9 102 A 4 4 0 1 1 8.999998000000167 101.99600000066667 Z" class="highcharts-point highcharts-color-0"></path><path fill="#000000" d="M 9 110 A 4 4 0 1 1 8.999998000000167 109.99600000066667 Z" class="highcharts-point highcharts-color-0"></path><path fill="#000000" d="M 9 117 A 4 4 0 1 1 8.999998000000167 116.99600000066667 Z" class="highcharts-point highcharts-color-0"></path><path fill="#000000" d="M 9 119 A 4 4 0 1 1 8.999998000000167 118.99600000066667 Z" class="highcharts-point highcharts-color-0"></path><path fill="#000000" d="M 9 88 A 4 4 0 1 1 8.999998000000167 87.99600000066667 Z" class="highcharts-point highcharts-color-0"></path><path fill="#000000" d="M 270 110 A 4 4 0 1 1 269.9999980000002 109.99600000066667 Z" class="highcharts-point highcharts-color-0"></path><path fill="#000000" d="M 270 132 A 4 4 0 1 1 269.9999980000002 131.99600000066667 Z" class="highcharts-point highcharts-color-0"></path><path fill="#000000" d="M 270 110 A 4 4 0 1 1 269.9999980000002 109.99600000066667 Z" class="highcharts-point highcharts-color-0"></path><path fill="#000000" d="M 270 81 A 4 4 0 1 1 269.9999980000002 80.99600000066667 Z" class="highcharts-point highcharts-color-0"></path><path fill="#000000" d="M 270 75 A 4 4 0 1 1 269.9999980000002 74.99600000066667 Z" class="highcharts-point highcharts-color-0"></path><path fill="#000000" d="M 270 77 A 4 4 0 1 1 269.9999980000002 76.99600000066667 Z" class="highcharts-point highcharts-color-0"></path><path fill="#000000" d="M 270 49 A 4 4 0 1 1 269.9999980000002 48.99600000066666 Z" class="highcharts-point highcharts-color-0"></path><path fill="#000000" d="M 270 44 A 4 4 0 1 1 269.9999980000002 43.99600000066666 Z" class="highcharts-point highcharts-color-0"></path><path fill="#000000" d="M 270 51 A 4 4 0 1 1 269.9999980000002 50.99600000066666 Z" class="highcharts-point highcharts-color-0"></path><path fill="#000000" d="M 270 88 A 4 4 0 1 1 269.9999980000002 87.99600000066667 Z" class="highcharts-point highcharts-color-0"></path><path fill="#000000" d="M 270 81 A 4 4 0 1 1 269.9999980000002 80.99600000066667 Z" class="highcharts-point highcharts-color-0"></path><path fill="#000000" d="M 270 77 A 4 4 0 1 1 269.9999980000002 76.99600000066667 Z" class="highcharts-point highcharts-color-0"></path><path fill="#000000" d="M 270 49 A 4 4 0 1 1 269.9999980000002 48.99600000066666 Z" class="highcharts-point highcharts-color-0"></path><path fill="#000000" d="M 530 44 A 4 4 0 1 1 529.9999980000001 43.99600000066666 Z" class="highcharts-point highcharts-color-0"></path><path fill="#000000" d="M 270 44 A 4 4 0 1 1 269.9999980000002 43.99600000066666 Z" class="highcharts-point highcharts-color-0"></path><path fill="#000000" d="M 270 48 A 4 4 0 1 1 269.9999980000002 47.99600000066666 Z" class="highcharts-point highcharts-color-0"></path><path fill="#000000" d="M 270 82 A 4 4 0 1 1 269.9999980000002 81.99600000066667 Z" class="highcharts-point highcharts-color-0"></path><path fill="#000000" d="M 270 92 A 4 4 0 1 1 269.9999980000002 91.99600000066667 Z" class="highcharts-point highcharts-color-0"></path><path fill="#000000" d="M 270 60 A 4 4 0 1 1 269.9999980000002 59.99600000066666 Z" class="highcharts-point highcharts-color-0"></path><path fill="#000000" d="M 270 66 A 4 4 0 1 1 269.9999980000002 65.99600000066667 Z" class="highcharts-point highcharts-color-0"></path><path fill="#000000" d="M 9 60 A 4 4 0 1 1 8.999998000000167 59.99600000066666 Z" class="highcharts-point highcharts-color-0"></path><path fill="#000000" d="M 9 68 A 4 4 0 1 1 8.999998000000167 67.99600000066667 Z" class="highcharts-point highcharts-color-0"></path><path fill="#000000" d="M 9 70 A 4 4 0 1 1 8.999998000000167 69.99600000066667 Z" class="highcharts-point highcharts-color-0"></path><path fill="#000000" d="M 9 118 A 4 4 0 1 1 8.999998000000167 117.99600000066667 Z" class="highcharts-point highcharts-color-0"></path><path fill="#000000" d="M 9 105 A 4 4 0 1 1 8.999998000000167 104.99600000066667 Z" class="highcharts-point highcharts-color-0"></path><path fill="#000000" d="M 9 70 A 4 4 0 1 1 8.999998000000167 69.99600000066667 Z" class="highcharts-point highcharts-color-0"></path><path fill="#000000" d="M 9 88 A 4 4 0 1 1 8.999998000000167 87.99600000066667 Z" class="highcharts-point highcharts-color-0"></path><path fill="#000000" d="M 9 88 A 4 4 0 1 1 8.999998000000167 87.99600000066667 Z" class="highcharts-point highcharts-color-0"></path><path fill="#000000" d="M 9 60 A 4 4 0 1 1 8.999998000000167 59.99600000066666 Z" class="highcharts-point highcharts-color-0"></path><path fill="#000000" d="M 9 56 A 4 4 0 1 1 8.999998000000167 55.99600000066666 Z" class="highcharts-point highcharts-color-0"></path><path fill="#000000" d="M 9 66 A 4 4 0 1 1 8.999998000000167 65.99600000066667 Z" class="highcharts-point highcharts-color-0"></path><path fill="#000000" d="M 9 60 A 4 4 0 1 1 8.999998000000167 59.99600000066666 Z" class="highcharts-point highcharts-color-0"></path><path fill="#000000" d="M 9 88 A 4 4 0 1 1 8.999998000000167 87.99600000066667 Z" class="highcharts-point highcharts-color-0"></path><path fill="#000000" d="M 9 56 A 4 4 0 1 1 8.999998000000167 55.99600000066666 Z" class="highcharts-point highcharts-color-0"></path><path fill="#000000" d="M 9 60 A 4 4 0 1 1 8.999998000000167 59.99600000066666 Z" class="highcharts-point highcharts-color-0"></path><path fill="#000000" d="M 9 60 A 4 4 0 1 1 8.999998000000167 59.99600000066666 Z" class="highcharts-point highcharts-color-0"></path><path fill="#000000" d="M 9 56 A 4 4 0 1 1 8.999998000000167 55.99600000066666 Z" class="highcharts-point highcharts-color-0"></path><path fill="#000000" d="M 9 114 A 4 4 0 1 1 8.999998000000167 113.99600000066667 Z" class="highcharts-point highcharts-color-0"></path><path fill="#000000" d="M 9 102 A 4 4 0 1 1 8.999998000000167 101.99600000066667 Z" class="highcharts-point highcharts-color-0"></path><path fill="#000000" d="M 9 66 A 4 4 0 1 1 8.999998000000167 65.99600000066667 Z" class="highcharts-point highcharts-color-0"></path><path fill="#000000" d="M 9 88 A 4 4 0 1 1 8.999998000000167 87.99600000066667 Z" class="highcharts-point highcharts-color-0"></path><path fill="#000000" d="M 9 60 A 4 4 0 1 1 8.999998000000167 59.99600000066666 Z" class="highcharts-point highcharts-color-0"></path><path fill="#000000" d="M 9 94 A 4 4 0 1 1 8.999998000000167 93.99600000066667 Z" class="highcharts-point highcharts-color-0"></path><path fill="#000000" d="M 9 142 A 4 4 0 1 1 8.999998000000167 141.99600000066667 Z" class="highcharts-point highcharts-color-0"></path><path fill="#000000" d="M 9 66 A 4 4 0 1 1 8.999998000000167 65.99600000066667 Z" class="highcharts-point highcharts-color-0"></path><path fill="#000000" d="M 9 63 A 4 4 0 1 1 8.999998000000167 62.99600000066666 Z" class="highcharts-point highcharts-color-0"></path><path fill="#000000" d="M 9 54 A 4 4 0 1 1 8.999998000000167 53.99600000066666 Z" class="highcharts-point highcharts-color-0"></path><path fill="#000000" d="M 9 55 A 4 4 0 1 1 8.999998000000167 54.99600000066666 Z" class="highcharts-point highcharts-color-0"></path><path fill="#000000" d="M 9 68 A 4 4 0 1 1 8.999998000000167 67.99600000066667 Z" class="highcharts-point highcharts-color-0"></path><path fill="#000000" d="M 270 63 A 4 4 0 1 1 269.9999980000002 62.99600000066666 Z" class="highcharts-point highcharts-color-0"></path><path fill="#000000" d="M 270 70 A 4 4 0 1 1 269.9999980000002 69.99600000066667 Z" class="highcharts-point highcharts-color-0"></path><path fill="#000000" d="M 270 88 A 4 4 0 1 1 269.9999980000002 87.99600000066667 Z" class="highcharts-point highcharts-color-0"></path><path fill="#000000" d="M 270 124 A 4 4 0 1 1 269.9999980000002 123.99600000066667 Z" class="highcharts-point highcharts-color-0"></path><path fill="#000000" d="M 270 102 A 4 4 0 1 1 269.9999980000002 101.99600000066667 Z" class="highcharts-point highcharts-color-0"></path><path fill="#000000" d="M 270 94 A 4 4 0 1 1 269.9999980000002 93.99600000066667 Z" class="highcharts-point highcharts-color-0"></path><path fill="#000000" d="M 270 88 A 4 4 0 1 1 269.9999980000002 87.99600000066667 Z" class="highcharts-point highcharts-color-0"></path><path fill="#000000" d="M 9 66 A 4 4 0 1 1 8.999998000000167 65.99600000066667 Z" class="highcharts-point highcharts-color-0"></path><path fill="#000000" d="M 9 88 A 4 4 0 1 1 8.999998000000167 87.99600000066667 Z" class="highcharts-point highcharts-color-0"></path><path fill="#000000" d="M 9 110 A 4 4 0 1 1 8.999998000000167 109.99600000066667 Z" class="highcharts-point highcharts-color-0"></path><path fill="#000000" d="M 9 51 A 4 4 0 1 1 8.999998000000167 50.99600000066666 Z" class="highcharts-point highcharts-color-0"></path><path fill="#000000" d="M 9 88 A 4 4 0 1 1 8.999998000000167 87.99600000066667 Z" class="highcharts-point highcharts-color-0"></path><path fill="#000000" d="M 9 88 A 4 4 0 1 1 8.999998000000167 87.99600000066667 Z" class="highcharts-point highcharts-color-0"></path><path fill="#000000" d="M 9 132 A 4 4 0 1 1 8.999998000000167 131.99600000066667 Z" class="highcharts-point highcharts-color-0"></path><path fill="#000000" d="M 9 95 A 4 4 0 1 1 8.999998000000167 94.99600000066667 Z" class="highcharts-point highcharts-color-0"></path><path fill="#000000" d="M 9 88 A 4 4 0 1 1 8.999998000000167 87.99600000066667 Z" class="highcharts-point highcharts-color-0"></path><path fill="#000000" d="M 9 51 A 4 4 0 1 1 8.999998000000167 50.99600000066666 Z" class="highcharts-point highcharts-color-0"></path><path fill="#000000" d="M 9 88 A 4 4 0 1 1 8.999998000000167 87.99600000066667 Z" class="highcharts-point highcharts-color-0"></path><path fill="#000000" d="M 9 88 A 4 4 0 1 1 8.999998000000167 87.99600000066667 Z" class="highcharts-point highcharts-color-0"></path><path fill="#000000" d="M 9 88 A 4 4 0 1 1 8.999998000000167 87.99600000066667 Z" class="highcharts-point highcharts-color-0"></path><path fill="#000000" d="M 9 88 A 4 4 0 1 1 8.999998000000167 87.99600000066667 Z" class="highcharts-point highcharts-color-0"></path><path fill="#000000" d="M 9 88 A 4 4 0 1 1 8.999998000000167 87.99600000066667 Z" class="highcharts-point highcharts-color-0"></path><path fill="#000000" d="M 9 44 A 4 4 0 1 1 8.999998000000167 43.99600000066666 Z" class="highcharts-point highcharts-color-0"></path><path fill="#000000" d="M 9 88 A 4 4 0 1 1 8.999998000000167 87.99600000066667 Z" class="highcharts-point highcharts-color-0"></path><path fill="#000000" d="M 9 88 A 4 4 0 1 1 8.999998000000167 87.99600000066667 Z" class="highcharts-point highcharts-color-0"></path><path fill="#000000" d="M 9 88 A 4 4 0 1 1 8.999998000000167 87.99600000066667 Z" class="highcharts-point highcharts-color-0"></path><path fill="#000000" d="M 9 88 A 4 4 0 1 1 8.999998000000167 87.99600000066667 Z" class="highcharts-point highcharts-color-0"></path><path fill="#000000" d="M 9 88 A 4 4 0 1 1 8.999998000000167 87.99600000066667 Z" class="highcharts-point highcharts-color-0"></path><path fill="#000000" d="M 9 44 A 4 4 0 1 1 8.999998000000167 43.99600000066666 Z" class="highcharts-point highcharts-color-0"></path><path fill="#000000" d="M 9 88 A 4 4 0 1 1 8.999998000000167 87.99600000066667 Z" class="highcharts-point highcharts-color-0"></path><path fill="#000000" d="M 9 88 A 4 4 0 1 1 8.999998000000167 87.99600000066667 Z" class="highcharts-point highcharts-color-0"></path><path fill="#000000" d="M 9 88 A 4 4 0 1 1 8.999998000000167 87.99600000066667 Z" class="highcharts-point highcharts-color-0"></path><path fill="#000000" d="M 9 88 A 4 4 0 1 1 8.999998000000167 87.99600000066667 Z" class="highcharts-point highcharts-color-0"></path><path fill="#000000" d="M 9 88 A 4 4 0 1 1 8.999998000000167 87.99600000066667 Z" class="highcharts-point highcharts-color-0"></path><path fill="#000000" d="M 9 44 A 4 4 0 1 1 8.999998000000167 43.99600000066666 Z" class="highcharts-point highcharts-color-0"></path><path fill="#000000" d="M 9 44 A 4 4 0 1 1 8.999998000000167 43.99600000066666 Z" class="highcharts-point highcharts-color-0"></path><path fill="#000000" d="M 9 88 A 4 4 0 1 1 8.999998000000167 87.99600000066667 Z" class="highcharts-point highcharts-color-0"></path><path fill="#000000" d="M 9 88 A 4 4 0 1 1 8.999998000000167 87.99600000066667 Z" class="highcharts-point highcharts-color-0"></path><path fill="#000000" d="M 9 44 A 4 4 0 1 1 8.999998000000167 43.99600000066666 Z" class="highcharts-point highcharts-color-0"></path><path fill="#000000" d="M 9 44 A 4 4 0 1 1 8.999998000000167 43.99600000066666 Z" class="highcharts-point highcharts-color-0"></path><path fill="#000000" d="M 9 44 A 4 4 0 1 1 8.999998000000167 43.99600000066666 Z" class="highcharts-point highcharts-color-0"></path><path fill="#000000" d="M 9 88 A 4 4 0 1 1 8.999998000000167 87.99600000066667 Z" class="highcharts-point highcharts-color-0"></path><path fill="#000000" d="M 9 88 A 4 4 0 1 1 8.999998000000167 87.99600000066667 Z" class="highcharts-point highcharts-color-0"></path><path fill="#000000" d="M 9 44 A 4 4 0 1 1 8.999998000000167 43.99600000066666 Z" class="highcharts-point highcharts-color-0"></path><path fill="#000000" d="M 9 44 A 4 4 0 1 1 8.999998000000167 43.99600000066666 Z" class="highcharts-point highcharts-color-0"></path><path fill="#000000" d="M 9 44 A 4 4 0 1 1 8.999998000000167 43.99600000066666 Z" class="highcharts-point highcharts-color-0"></path><path fill="#000000" d="M 9 88 A 4 4 0 1 1 8.999998000000167 87.99600000066667 Z" class="highcharts-point highcharts-color-0"></path><path fill="#000000" d="M 9 88 A 4 4 0 1 1 8.999998000000167 87.99600000066667 Z" class="highcharts-point highcharts-color-0"></path><path fill="#000000" d="M 9 132 A 4 4 0 1 1 8.999998000000167 131.99600000066667 Z" class="highcharts-point highcharts-color-0"></path><path fill="#000000" d="M 9 132 A 4 4 0 1 1 8.999998000000167 131.99600000066667 Z" class="highcharts-point highcharts-color-0"></path><path fill="#000000" d="M 9 132 A 4 4 0 1 1 8.999998000000167 131.99600000066667 Z" class="highcharts-point highcharts-color-0"></path><path fill="#000000" d="M 9 44 A 4 4 0 1 1 8.999998000000167 43.99600000066666 Z" class="highcharts-point highcharts-color-0"></path><path fill="#000000" d="M 9 44 A 4 4 0 1 1 8.999998000000167 43.99600000066666 Z" class="highcharts-point highcharts-color-0"></path><path fill="#000000" d="M 9 132 A 4 4 0 1 1 8.999998000000167 131.99600000066667 Z" class="highcharts-point highcharts-color-0"></path><path fill="#000000" d="M 9 88 A 4 4 0 1 1 8.999998000000167 87.99600000066667 Z" class="highcharts-point highcharts-color-0"></path><path fill="#000000" d="M 9 88 A 4 4 0 1 1 8.999998000000167 87.99600000066667 Z" class="highcharts-point highcharts-color-0"></path><path fill="#000000" d="M 9 88 A 4 4 0 1 1 8.999998000000167 87.99600000066667 Z" class="highcharts-point highcharts-color-0"></path><path fill="#000000" d="M 9 132 A 4 4 0 1 1 8.999998000000167 131.99600000066667 Z" class="highcharts-point highcharts-color-0"></path><path fill="#000000" d="M 9 132 A 4 4 0 1 1 8.999998000000167 131.99600000066667 Z" class="highcharts-point highcharts-color-0"></path><path fill="#000000" d="M 9 132 A 4 4 0 1 1 8.999998000000167 131.99600000066667 Z" class="highcharts-point highcharts-color-0"></path><path fill="#000000" d="M 9 132 A 4 4 0 1 1 8.999998000000167 131.99600000066667 Z" class="highcharts-point highcharts-color-0"></path><path fill="#000000" d="M 9 132 A 4 4 0 1 1 8.999998000000167 131.99600000066667 Z" class="highcharts-point highcharts-color-0"></path><path fill="#000000" d="M 9 88 A 4 4 0 1 1 8.999998000000167 87.99600000066667 Z" class="highcharts-point highcharts-color-0"></path><path fill="#000000" d="M 9 88 A 4 4 0 1 1 8.999998000000167 87.99600000066667 Z" class="highcharts-point highcharts-color-0"></path><path fill="#000000" d="M 9 88 A 4 4 0 1 1 8.999998000000167 87.99600000066667 Z" class="highcharts-point highcharts-color-0"></path><path fill="#000000" d="M 9 132 A 4 4 0 1 1 8.999998000000167 131.99600000066667 Z" class="highcharts-point highcharts-color-0"></path><path fill="#000000" d="M 9 132 A 4 4 0 1 1 8.999998000000167 131.99600000066667 Z" class="highcharts-point highcharts-color-0"></path><path fill="#000000" d="M 9 132 A 4 4 0 1 1 8.999998000000167 131.99600000066667 Z" class="highcharts-point highcharts-color-0"></path><path fill="#000000" d="M 9 132 A 4 4 0 1 1 8.999998000000167 131.99600000066667 Z" class="highcharts-point highcharts-color-0"></path><path fill="#000000" d="M 9 132 A 4 4 0 1 1 8.999998000000167 131.99600000066667 Z" class="highcharts-point highcharts-color-0"></path><path fill="#000000" d="M 9 132 A 4 4 0 1 1 8.999998000000167 131.99600000066667 Z" class="highcharts-point highcharts-color-0"></path><path fill="#000000" d="M 9 88 A 4 4 0 1 1 8.999998000000167 87.99600000066667 Z" class="highcharts-point highcharts-color-0"></path><path fill="#000000" d="M 9 88 A 4 4 0 1 1 8.999998000000167 87.99600000066667 Z" class="highcharts-point highcharts-color-0"></path><path fill="#000000" d="M 9 88 A 4 4 0 1 1 8.999998000000167 87.99600000066667 Z" class="highcharts-point highcharts-color-0"></path><path fill="#000000" d="M 9 88 A 4 4 0 1 1 8.999998000000167 87.99600000066667 Z" class="highcharts-point highcharts-color-0"></path><path fill="#000000" d="M 9 88 A 4 4 0 1 1 8.999998000000167 87.99600000066667 Z" class="highcharts-point highcharts-color-0"></path><path fill="#000000" d="M 9 110 A 4 4 0 1 1 8.999998000000167 109.99600000066667 Z" class="highcharts-point highcharts-color-0"></path><path fill="#000000" d="M 9 100 A 4 4 0 1 1 8.999998000000167 99.99600000066667 Z" class="highcharts-point highcharts-color-0"></path><path fill="#000000" d="M 9 153 A 4 4 0 1 1 8.999998000000167 152.99600000066667 Z" class="highcharts-point highcharts-color-0"></path><path fill="#000000" d="M 9 175 A 4 4 0 1 1 8.999998000000167 174.99600000066667 Z" class="highcharts-point highcharts-color-0"></path><path fill="#000000" d="M 9 139 A 4 4 0 1 1 8.999998000000167 138.99600000066667 Z" class="highcharts-point highcharts-color-0"></path><path fill="#000000" d="M 9 175 A 4 4 0 1 1 8.999998000000167 174.99600000066667 Z" class="highcharts-point highcharts-color-0"></path><path fill="#000000" d="M 9 175 A 4 4 0 1 1 8.999998000000167 174.99600000066667 Z" class="highcharts-point highcharts-color-0"></path><path fill="#000000" d="M 9 144 A 4 4 0 1 1 8.999998000000167 143.99600000066667 Z" class="highcharts-point highcharts-color-0"></path><path fill="#000000" d="M 9 113 A 4 4 0 1 1 8.999998000000167 112.99600000066667 Z" class="highcharts-point highcharts-color-0"></path><path fill="#000000" d="M 9 138 A 4 4 0 1 1 8.999998000000167 137.99600000066667 Z" class="highcharts-point highcharts-color-0"></path><path fill="#000000" d="M 9 132 A 4 4 0 1 1 8.999998000000167 131.99600000066667 Z" class="highcharts-point highcharts-color-0"></path><path fill="#000000" d="M 9 95 A 4 4 0 1 1 8.999998000000167 94.99600000066667 Z" class="highcharts-point highcharts-color-0"></path><path fill="#000000" d="M 9 110 A 4 4 0 1 1 8.999998000000167 109.99600000066667 Z" class="highcharts-point highcharts-color-0"></path><path fill="#000000" d="M 9 100 A 4 4 0 1 1 8.999998000000167 99.99600000066667 Z" class="highcharts-point highcharts-color-0"></path><path fill="#000000" d="M 9 175 A 4 4 0 1 1 8.999998000000167 174.99600000066667 Z" class="highcharts-point highcharts-color-0"></path><path fill="#000000" d="M 9 106 A 4 4 0 1 1 8.999998000000167 105.99600000066667 Z" class="highcharts-point highcharts-color-0"></path><path fill="#000000" d="M 9 153 A 4 4 0 1 1 8.999998000000167 152.99600000066667 Z" class="highcharts-point highcharts-color-0"></path><path fill="#000000" d="M 9 144 A 4 4 0 1 1 8.999998000000167 143.99600000066667 Z" class="highcharts-point highcharts-color-0"></path><path fill="#000000" d="M 9 150 A 4 4 0 1 1 8.999998000000167 149.99600000066667 Z" class="highcharts-point highcharts-color-0"></path><path fill="#000000" d="M 139 219 A 4 4 0 1 1 138.99999800000018 218.99600000066667 Z" class="highcharts-point highcharts-color-0"></path><path fill="#000000" d="M 139 168 A 4 4 0 1 1 138.99999800000018 167.99600000066667 Z" class="highcharts-point highcharts-color-0"></path><path fill="#000000" d="M 139 171 A 4 4 0 1 1 138.99999800000018 170.99600000066667 Z" class="highcharts-point highcharts-color-0"></path><path fill="#000000" d="M 270 183 A 4 4 0 1 1 269.9999980000002 182.99600000066667 Z" class="highcharts-point highcharts-color-0"></path><path fill="#000000" d="M 270 143 A 4 4 0 1 1 269.9999980000002 142.99600000066667 Z" class="highcharts-point highcharts-color-0"></path><path fill="#000000" d="M 270 143 A 4 4 0 1 1 269.9999980000002 142.99600000066667 Z" class="highcharts-point highcharts-color-0"></path><path fill="#000000" d="M 270 160 A 4 4 0 1 1 269.9999980000002 159.99600000066667 Z" class="highcharts-point highcharts-color-0"></path><path fill="#000000" d="M 139 145 A 4 4 0 1 1 138.99999800000018 144.99600000066667 Z" class="highcharts-point highcharts-color-0"></path><path fill="#000000" d="M 139 122 A 4 4 0 1 1 138.99999800000018 121.99600000066667 Z" class="highcharts-point highcharts-color-0"></path><path fill="#000000" d="M 400 134 A 4 4 0 1 1 399.9999980000002 133.99600000066667 Z" class="highcharts-point highcharts-color-0"></path><path fill="#000000" d="M 270 136 A 4 4 0 1 1 269.9999980000002 135.99600000066667 Z" class="highcharts-point highcharts-color-0"></path><path fill="#000000" d="M 270 138 A 4 4 0 1 1 269.9999980000002 137.99600000066667 Z" class="highcharts-point highcharts-color-0"></path><path fill="#000000" d="M 400 132 A 4 4 0 1 1 399.9999980000002 131.99600000066667 Z" class="highcharts-point highcharts-color-0"></path><path fill="#000000" d="M 400 132 A 4 4 0 1 1 399.9999980000002 131.99600000066667 Z" class="highcharts-point highcharts-color-0"></path><path fill="#000000" d="M 400 135 A 4 4 0 1 1 399.9999980000002 134.99600000066667 Z" class="highcharts-point highcharts-color-0"></path><path fill="#000000" d="M 530 132 A 4 4 0 1 1 529.9999980000001 131.99600000066667 Z" class="highcharts-point highcharts-color-0"></path><path fill="#000000" d="M 270 140 A 4 4 0 1 1 269.9999980000002 139.99600000066667 Z" class="highcharts-point highcharts-color-0"></path><path fill="#000000" d="M 270 153 A 4 4 0 1 1 269.9999980000002 152.99600000066667 Z" class="highcharts-point highcharts-color-0"></path><path fill="#000000" d="M 270 141 A 4 4 0 1 1 269.9999980000002 140.99600000066667 Z" class="highcharts-point highcharts-color-0"></path><path fill="#000000" d="M 139 147 A 4 4 0 1 1 138.99999800000018 146.99600000066667 Z" class="highcharts-point highcharts-color-0"></path><path fill="#000000" d="M 270 150 A 4 4 0 1 1 269.9999980000002 149.99600000066667 Z" class="highcharts-point highcharts-color-0"></path><path fill="#000000" d="M 270 134 A 4 4 0 1 1 269.9999980000002 133.99600000066667 Z" class="highcharts-point highcharts-color-0"></path><path fill="#000000" d="M 139 141 A 4 4 0 1 1 138.99999800000018 140.99600000066667 Z" class="highcharts-point highcharts-color-0"></path><path fill="#000000" d="M 139 157 A 4 4 0 1 1 138.99999800000018 156.99600000066667 Z" class="highcharts-point highcharts-color-0"></path><path fill="#000000" d="M 139 146 A 4 4 0 1 1 138.99999800000018 145.99600000066667 Z" class="highcharts-point highcharts-color-0"></path><path fill="#000000" d="M 139 135 A 4 4 0 1 1 138.99999800000018 134.99600000066667 Z" class="highcharts-point highcharts-color-0"></path><path fill="#000000" d="M 139 135 A 4 4 0 1 1 138.99999800000018 134.99600000066667 Z" class="highcharts-point highcharts-color-0"></path><path fill="#000000" d="M 139 134 A 4 4 0 1 1 138.99999800000018 133.99600000066667 Z" class="highcharts-point highcharts-color-0"></path><path fill="#000000" d="M 139 152 A 4 4 0 1 1 138.99999800000018 151.99600000066667 Z" class="highcharts-point highcharts-color-0"></path><path fill="#000000" d="M 139 119 A 4 4 0 1 1 138.99999800000018 118.99600000066667 Z" class="highcharts-point highcharts-color-0"></path><path fill="#000000" d="M 270 147 A 4 4 0 1 1 269.9999980000002 146.99600000066667 Z" class="highcharts-point highcharts-color-0"></path><path fill="#000000" d="M 400 166 A 4 4 0 1 1 399.9999980000002 165.99600000066667 Z" class="highcharts-point highcharts-color-0"></path><path fill="#000000" d="M 400 157 A 4 4 0 1 1 399.9999980000002 156.99600000066667 Z" class="highcharts-point highcharts-color-0"></path><path fill="#000000" d="M 400 152 A 4 4 0 1 1 399.9999980000002 151.99600000066667 Z" class="highcharts-point highcharts-color-0"></path><path fill="#000000" d="M 400 158 A 4 4 0 1 1 399.9999980000002 157.99600000066667 Z" class="highcharts-point highcharts-color-0"></path><path fill="#000000" d="M 400 146 A 4 4 0 1 1 399.9999980000002 145.99600000066667 Z" class="highcharts-point highcharts-color-0"></path><path fill="#000000" d="M 400 132 A 4 4 0 1 1 399.9999980000002 131.99600000066667 Z" class="highcharts-point highcharts-color-0"></path><path fill="#000000" d="M 270 148 A 4 4 0 1 1 269.9999980000002 147.99600000066667 Z" class="highcharts-point highcharts-color-0"></path><path fill="#000000" d="M 139 132 A 4 4 0 1 1 138.99999800000018 131.99600000066667 Z" class="highcharts-point highcharts-color-0"></path><path fill="#000000" d="M 400 121 A 4 4 0 1 1 399.9999980000002 120.99600000066667 Z" class="highcharts-point highcharts-color-0"></path><path fill="#000000" d="M 400 135 A 4 4 0 1 1 399.9999980000002 134.99600000066667 Z" class="highcharts-point highcharts-color-0"></path><path fill="#000000" d="M 270 157 A 4 4 0 1 1 269.9999980000002 156.99600000066667 Z" class="highcharts-point highcharts-color-0"></path><path fill="#000000" d="M 400 146 A 4 4 0 1 1 399.9999980000002 145.99600000066667 Z" class="highcharts-point highcharts-color-0"></path><path fill="#000000" d="M 400 135 A 4 4 0 1 1 399.9999980000002 134.99600000066667 Z" class="highcharts-point highcharts-color-0"></path><path fill="#000000" d="M 400 151 A 4 4 0 1 1 399.9999980000002 150.99600000066667 Z" class="highcharts-point highcharts-color-0"></path><path fill="#000000" d="M 530 165 A 4 4 0 1 1 529.9999980000001 164.99600000066667 Z" class="highcharts-point highcharts-color-0"></path><path fill="#000000" d="M 270 147 A 4 4 0 1 1 269.9999980000002 146.99600000066667 Z" class="highcharts-point highcharts-color-0"></path><path fill="#000000" d="M 270 151 A 4 4 0 1 1 269.9999980000002 150.99600000066667 Z" class="highcharts-point highcharts-color-0"></path><path fill="#000000" d="M 270 142 A 4 4 0 1 1 269.9999980000002 141.99600000066667 Z" class="highcharts-point highcharts-color-0"></path><path fill="#000000" d="M 139 157 A 4 4 0 1 1 138.99999800000018 156.99600000066667 Z" class="highcharts-point highcharts-color-0"></path></g></g><text x="300" text-anchor="middle" class="highcharts-title" data-z-index="4" style="color:#333333;font-size:18px;fill:#333333;" y="24"><tspan>Overall Mood Following Fruity Pebbles Consumption</tspan></text><text x="300" text-anchor="middle" class="highcharts-subtitle" data-z-index="4" style="color:#666666;fill:#666666;" y="46"><tspan>An increase in 7 days cumulative Fruity Pebbles consumption is usually followed by an</tspan><tspan dy="15" x="300">decrease in Overall Mood. (R = -0.287)</tspan></text><g class="highcharts-axis-labels highcharts-xaxis-labels " data-z-index="7"><text x="63.21568627451" style="color:#666666;cursor:default;font-size:11px;fill:#666666;" text-anchor="middle" transform="translate(0,0)" y="360" opacity="1">0</text><text x="128.41176470588" style="color:#666666;cursor:default;font-size:11px;fill:#666666;" text-anchor="middle" transform="translate(0,0)" y="360" opacity="1">0.5</text><text x="193.60784313725" style="color:#666666;cursor:default;font-size:11px;fill:#666666;" text-anchor="middle" transform="translate(0,0)" y="360" opacity="1">1</text><text x="258.80392156863" style="color:#666666;cursor:default;font-size:11px;fill:#666666;" text-anchor="middle" transform="translate(0,0)" y="360" opacity="1">1.5</text><text x="324" style="color:#666666;cursor:default;font-size:11px;fill:#666666;" text-anchor="middle" transform="translate(0,0)" y="360" opacity="1">2</text><text x="389.19607843137" style="color:#666666;cursor:default;font-size:11px;fill:#666666;" text-anchor="middle" transform="translate(0,0)" y="360" opacity="1">2.5</text><text x="454.39215686275" style="color:#666666;cursor:default;font-size:11px;fill:#666666;" text-anchor="middle" transform="translate(0,0)" y="360" opacity="1">3</text><text x="519.58823529412" style="color:#666666;cursor:default;font-size:11px;fill:#666666;" text-anchor="middle" transform="translate(0,0)" y="360" opacity="1">3.5</text><text x="584.78431372549" style="color:#666666;cursor:default;font-size:11px;fill:#666666;" text-anchor="middle" transform="translate(0,0)" y="360" opacity="1">4</text></g><g class="highcharts-axis-labels highcharts-yaxis-labels " data-z-index="7"><text x="43" style="color:#666666;cursor:default;font-size:11px;fill:#666666;" text-anchor="end" transform="translate(0,0)" y="345" opacity="1">0</text><text x="43" style="color:#666666;cursor:default;font-size:11px;fill:#666666;" text-anchor="end" transform="translate(0,0)" y="301" opacity="1">1</text><text x="43" style="color:#666666;cursor:default;font-size:11px;fill:#666666;" text-anchor="end" transform="translate(0,0)" y="257" opacity="1">2</text><text x="43" style="color:#666666;cursor:default;font-size:11px;fill:#666666;" text-anchor="end" transform="translate(0,0)" y="213" opacity="1">3</text><text x="43" style="color:#666666;cursor:default;font-size:11px;fill:#666666;" text-anchor="end" transform="translate(0,0)" y="169" opacity="1">4</text><text x="43" style="color:#666666;cursor:default;font-size:11px;fill:#666666;" text-anchor="end" transform="translate(0,0)" y="125" opacity="1">5</text><text x="43" style="color:#666666;cursor:default;font-size:11px;fill:#666666;" text-anchor="end" transform="translate(0,0)" y="82" opacity="1">6</text></g><a xlink:href="https://quantimo.do" target="_blank">
                    <text x="590" class="highcharts-credits" text-anchor="end" data-z-index="8"
                          style="cursor:pointer;color:#999999;font-size:9px;fill:#999999;" y="395">https://quantimo.do
                    </text>
                </a></svg>