<?xml version="1.0" standalone="no"?><!DOCTYPE svg PUBLIC "-//W3C//DTD SVG 1.1//EN" "http://www.w3.org/Graphics/SVG/1.1/DTD/svg11.dtd"><svg xmlns:xlink="http://www.w3.org/1999/xlink" version="1.1" class="highcharts-root" style="font-family:&quot;Lucida Grande&quot;, &quot;Lucida Sans Unicode&quot;, Arial, Helvetica, sans-serif;font-size:12px;" xmlns="http://www.w3.org/2000/svg" width="600" height="300"><desc>Created with Highstock 6.2.0</desc><defs><clipPath id="highcharts-qorph1g-26"><rect x="0" y="0" width="511" height="156" fill="none"></rect></clipPath><clipPath id="highcharts-qorph1g-46"><rect x="0" y="0" width="511" height="156" fill="none"></rect></clipPath><clipPath id="highcharts-qorph1g-47"><rect x="79" y="63" width="511" height="156" fill="none"></rect></clipPath></defs><rect fill="#ffffff" class="highcharts-background" x="0" y="0" width="600" height="300" rx="0" ry="0"></rect><rect fill="none" class="highcharts-plot-background" x="79" y="63" width="511" height="156"></rect><g class="highcharts-pane-group" data-z-index="0"></g><g class="highcharts-grid highcharts-xaxis-grid " data-z-index="1"><path fill="none" data-z-index="1" class="highcharts-grid-line" d="M 105.5 63 L 105.5 219" opacity="1"></path><path fill="none" data-z-index="1" class="highcharts-grid-line" d="M 132.5 63 L 132.5 219" opacity="1"></path><path fill="none" data-z-index="1" class="highcharts-grid-line" d="M 159.5 63 L 159.5 219" opacity="1"></path><path fill="none" data-z-index="1" class="highcharts-grid-line" d="M 186.5 63 L 186.5 219" opacity="1"></path><path fill="none" data-z-index="1" class="highcharts-grid-line" d="M 212.5 63 L 212.5 219" opacity="1"></path><path fill="none" data-z-index="1" class="highcharts-grid-line" d="M 239.5 63 L 239.5 219" opacity="1"></path><path fill="none" data-z-index="1" class="highcharts-grid-line" d="M 266.5 63 L 266.5 219" opacity="1"></path><path fill="none" data-z-index="1" class="highcharts-grid-line" d="M 293.5 63 L 293.5 219" opacity="1"></path><path fill="none" data-z-index="1" class="highcharts-grid-line" d="M 320.5 63 L 320.5 219" opacity="1"></path><path fill="none" data-z-index="1" class="highcharts-grid-line" d="M 347.5 63 L 347.5 219" opacity="1"></path><path fill="none" data-z-index="1" class="highcharts-grid-line" d="M 374.5 63 L 374.5 219" opacity="1"></path><path fill="none" data-z-index="1" class="highcharts-grid-line" d="M 401.5 63 L 401.5 219" opacity="1"></path><path fill="none" data-z-index="1" class="highcharts-grid-line" d="M 428.5 63 L 428.5 219" opacity="1"></path><path fill="none" data-z-index="1" class="highcharts-grid-line" d="M 455.5 63 L 455.5 219" opacity="1"></path><path fill="none" data-z-index="1" class="highcharts-grid-line" d="M 481.5 63 L 481.5 219" opacity="1"></path><path fill="none" data-z-index="1" class="highcharts-grid-line" d="M 508.5 63 L 508.5 219" opacity="1"></path><path fill="none" data-z-index="1" class="highcharts-grid-line" d="M 535.5 63 L 535.5 219" opacity="1"></path><path fill="none" data-z-index="1" class="highcharts-grid-line" d="M 562.5 63 L 562.5 219" opacity="1"></path><path fill="none" data-z-index="1" class="highcharts-grid-line" d="M 589.5 63 L 589.5 219" opacity="1"></path><path fill="none" data-z-index="1" class="highcharts-grid-line" d="M 78.5 63 L 78.5 219" opacity="1"></path></g><g class="highcharts-grid highcharts-yaxis-grid " data-z-index="1"><path fill="none" stroke="#e6e6e6" stroke-width="1" data-z-index="1" class="highcharts-grid-line" d="M 79 219.5 L 590 219.5" opacity="1"></path><path fill="none" stroke="#e6e6e6" stroke-width="1" data-z-index="1" class="highcharts-grid-line" d="M 79 141.5 L 590 141.5" opacity="1"></path><path fill="none" stroke="#e6e6e6" stroke-width="1" data-z-index="1" class="highcharts-grid-line" d="M 79 62.5 L 590 62.5" opacity="1"></path></g><rect fill="none" class="highcharts-plot-border" data-z-index="1" x="79" y="63" width="511" height="156"></rect><g class="highcharts-axis highcharts-xaxis " data-z-index="2"><path fill="none" class="highcharts-tick" stroke="#ccd6eb" stroke-width="1" d="M 105.5 219 L 105.5 229" opacity="1"></path><path fill="none" class="highcharts-tick" stroke="#ccd6eb" stroke-width="1" d="M 132.5 219 L 132.5 229" opacity="1"></path><path fill="none" class="highcharts-tick" stroke="#ccd6eb" stroke-width="1" d="M 159.5 219 L 159.5 229" opacity="1"></path><path fill="none" class="highcharts-tick" stroke="#ccd6eb" stroke-width="1" d="M 186.5 219 L 186.5 229" opacity="1"></path><path fill="none" class="highcharts-tick" stroke="#ccd6eb" stroke-width="1" d="M 212.5 219 L 212.5 229" opacity="1"></path><path fill="none" class="highcharts-tick" stroke="#ccd6eb" stroke-width="1" d="M 239.5 219 L 239.5 229" opacity="1"></path><path fill="none" class="highcharts-tick" stroke="#ccd6eb" stroke-width="1" d="M 266.5 219 L 266.5 229" opacity="1"></path><path fill="none" class="highcharts-tick" stroke="#ccd6eb" stroke-width="1" d="M 293.5 219 L 293.5 229" opacity="1"></path><path fill="none" class="highcharts-tick" stroke="#ccd6eb" stroke-width="1" d="M 320.5 219 L 320.5 229" opacity="1"></path><path fill="none" class="highcharts-tick" stroke="#ccd6eb" stroke-width="1" d="M 347.5 219 L 347.5 229" opacity="1"></path><path fill="none" class="highcharts-tick" stroke="#ccd6eb" stroke-width="1" d="M 374.5 219 L 374.5 229" opacity="1"></path><path fill="none" class="highcharts-tick" stroke="#ccd6eb" stroke-width="1" d="M 401.5 219 L 401.5 229" opacity="1"></path><path fill="none" class="highcharts-tick" stroke="#ccd6eb" stroke-width="1" d="M 428.5 219 L 428.5 229" opacity="1"></path><path fill="none" class="highcharts-tick" stroke="#ccd6eb" stroke-width="1" d="M 455.5 219 L 455.5 229" opacity="1"></path><path fill="none" class="highcharts-tick" stroke="#ccd6eb" stroke-width="1" d="M 481.5 219 L 481.5 229" opacity="1"></path><path fill="none" class="highcharts-tick" stroke="#ccd6eb" stroke-width="1" d="M 508.5 219 L 508.5 229" opacity="1"></path><path fill="none" class="highcharts-tick" stroke="#ccd6eb" stroke-width="1" d="M 535.5 219 L 535.5 229" opacity="1"></path><path fill="none" class="highcharts-tick" stroke="#ccd6eb" stroke-width="1" d="M 562.5 219 L 562.5 229" opacity="1"></path><path fill="none" class="highcharts-tick" stroke="#ccd6eb" stroke-width="1" d="M 590.5 219 L 590.5 229" opacity="1"></path><path fill="none" class="highcharts-tick" stroke="#ccd6eb" stroke-width="1" d="M 78.5 219 L 78.5 229" opacity="1"></path><text x="334.5" data-z-index="7" text-anchor="middle" transform="translate(0,0)" class="highcharts-axis-title" style="color:#666666;fill:#666666;" y="281.47665940288704"><tspan>Daily Values (h)</tspan></text><path fill="none" class="highcharts-axis-line" stroke="#ccd6eb" stroke-width="1" data-z-index="7" d="M 79 219.5 L 590 219.5"></path></g><g class="highcharts-axis highcharts-yaxis " data-z-index="2"><text x="26" data-z-index="7" text-anchor="middle" transform="translate(0,0) rotate(270 26 141)" class="highcharts-axis-title" style="color:#666666;fill:#666666;" y="141"><tspan>Number of Days</tspan></text><path fill="none" class="highcharts-axis-line" data-z-index="7" d="M 79 63 L 79 219"></path></g><g class="highcharts-series-group" data-z-index="3"><g data-z-index="0.1" class="highcharts-series highcharts-series-0 highcharts-column-series highcharts-color-0 " transform="translate(79,63) scale(1 1)" clip-path="url(#highcharts-qorph1g-46)"><rect x="6.5" y="19.5" width="13" height="137" fill="#000000" stroke="#ffffff" stroke-width="1" class="highcharts-point highcharts-color-0"></rect><rect x="33.5" y="156.5" width="13" height="0" fill="#000000" stroke="#ffffff" stroke-width="1" class="highcharts-point highcharts-color-0"></rect><rect x="60.5" y="156.5" width="13" height="0" fill="#000000" stroke="#ffffff" stroke-width="1" class="highcharts-point highcharts-color-0"></rect><rect x="87.5" y="155.5" width="13" height="1" fill="#000000" stroke="#ffffff" stroke-width="1" class="highcharts-point highcharts-color-0"></rect><rect x="114.5" y="155.5" width="13" height="1" fill="#000000" stroke="#ffffff" stroke-width="1" class="highcharts-point highcharts-color-0"></rect><rect x="140.5" y="156.5" width="13" height="0" fill="#000000" stroke="#ffffff" stroke-width="1" class="highcharts-point highcharts-color-0"></rect><rect x="167.5" y="156.5" width="13" height="0" fill="#000000" stroke="#ffffff" stroke-width="1" class="highcharts-point highcharts-color-0"></rect><rect x="194.5" y="156.5" width="13" height="0" fill="#000000" stroke="#ffffff" stroke-width="1" class="highcharts-point highcharts-color-0"></rect><rect x="221.5" y="156.5" width="13" height="0" fill="#000000" stroke="#ffffff" stroke-width="1" class="highcharts-point highcharts-color-0"></rect><rect x="248.5" y="156.5" width="13" height="0" fill="#000000" stroke="#ffffff" stroke-width="1" class="highcharts-point highcharts-color-0"></rect><rect x="275.5" y="154.5" width="13" height="2" fill="#000000" stroke="#ffffff" stroke-width="1" class="highcharts-point highcharts-color-0"></rect><rect x="302.5" y="154.5" width="13" height="2" fill="#000000" stroke="#ffffff" stroke-width="1" class="highcharts-point highcharts-color-0"></rect><rect x="329.5" y="155.5" width="13" height="1" fill="#000000" stroke="#ffffff" stroke-width="1" class="highcharts-point highcharts-color-0"></rect><rect x="356.5" y="155.5" width="13" height="1" fill="#000000" stroke="#ffffff" stroke-width="1" class="highcharts-point highcharts-color-0"></rect><rect x="383.5" y="156.5" width="13" height="0" fill="#000000" stroke="#ffffff" stroke-width="1" class="highcharts-point highcharts-color-0"></rect><rect x="409.5" y="156.5" width="13" height="0" fill="#000000" stroke="#ffffff" stroke-width="1" class="highcharts-point highcharts-color-0"></rect><rect x="436.5" y="156.5" width="13" height="0" fill="#000000" stroke="#ffffff" stroke-width="1" class="highcharts-point highcharts-color-0"></rect><rect x="463.5" y="156.5" width="13" height="0" fill="#000000" stroke="#ffffff" stroke-width="1" class="highcharts-point highcharts-color-0"></rect><rect x="490.5" y="156.5" width="13" height="0" fill="#000000" stroke="#ffffff" stroke-width="1" class="highcharts-point highcharts-color-0"></rect></g><g data-z-index="0.1" class="highcharts-markers highcharts-series-0 highcharts-column-series highcharts-color-0 " transform="translate(79,63) scale(1 1)" clip-path="none"></g></g><text x="300" text-anchor="middle" class="highcharts-title" data-z-index="4" style="color:#333333;font-size:18px;fill:#333333;" y="24"><tspan>Daily Webmd.com Usage Distribution</tspan></text><text x="300" text-anchor="middle" class="highcharts-subtitle" data-z-index="4" style="color:#666666;fill:#666666;" y="46"><tspan>Each column represents the number of days this value occurred.</tspan></text><g class="highcharts-axis-labels highcharts-xaxis-labels " data-z-index="7"><text x="95.04009328540805" style="color:#666666;cursor:default;font-size:11px;fill:#666666;" text-anchor="end" transform="translate(0,0) rotate(-45 95.04009328540805 235)" y="235" opacity="1">0</text><text x="121.93483012750806" style="color:#666666;cursor:default;font-size:11px;fill:#666666;" text-anchor="end" transform="translate(0,0) rotate(-45 121.93483012750806 235)" y="235" opacity="1">0.0006</text><text x="148.82956696961804" style="color:#666666;cursor:default;font-size:11px;fill:#666666;" text-anchor="end" transform="translate(0,0) rotate(-45 148.82956696961804 235)" y="235" opacity="1">0.001</text><text x="175.72430381171804" style="color:#666666;cursor:default;font-size:11px;fill:#666666;" text-anchor="end" transform="translate(0,0) rotate(-45 175.72430381171804 235)" y="235" opacity="1">0.002</text><text x="202.61904065382805" style="color:#666666;cursor:default;font-size:11px;fill:#666666;" text-anchor="end" transform="translate(0,0) rotate(-45 202.61904065382805 235)" y="235" opacity="1">0.003</text><text x="229.51377749592805" style="color:#666666;cursor:default;font-size:11px;fill:#666666;" text-anchor="end" transform="translate(0,0) rotate(-45 229.51377749592805 235)" y="235" opacity="1">0.004</text><text x="256.408514338038" style="color:#666666;cursor:default;font-size:11px;fill:#666666;" text-anchor="end" transform="translate(0,0) rotate(-45 256.408514338038 235)" y="235" opacity="1">0.005</text><text x="283.303251180138" style="color:#666666;cursor:default;font-size:11px;fill:#666666;" text-anchor="end" transform="translate(0,0) rotate(-45 283.303251180138 235)" y="235" opacity="1">0.006</text><text x="310.197988022248" style="color:#666666;cursor:default;font-size:11px;fill:#666666;" text-anchor="end" transform="translate(0,0) rotate(-45 310.197988022248 235)" y="235" opacity="1">0.008</text><text x="337.092724864348" style="color:#666666;cursor:default;font-size:11px;fill:#666666;" text-anchor="end" transform="translate(0,0) rotate(-45 337.092724864348 235)" y="235" opacity="1">0.009</text><text x="363.987461706458" style="color:#666666;cursor:default;font-size:11px;fill:#666666;" text-anchor="end" transform="translate(0,0) rotate(-45 363.987461706458 235)" y="235" opacity="1">0.01</text><text x="390.882198548558" style="color:#666666;cursor:default;font-size:11px;fill:#666666;" text-anchor="end" transform="translate(0,0) rotate(-45 390.882198548558 235)" y="235" opacity="1">0.02</text><text x="417.776935390668" style="color:#666666;cursor:default;font-size:11px;fill:#666666;" text-anchor="end" transform="translate(0,0) rotate(-45 417.776935390668 235)" y="235" opacity="1">0.03</text><text x="444.671672232768" style="color:#666666;cursor:default;font-size:11px;fill:#666666;" text-anchor="end" transform="translate(0,0) rotate(-45 444.671672232768 235)" y="235" opacity="1">0.04</text><text x="471.566409074878" style="color:#666666;cursor:default;font-size:11px;fill:#666666;" text-anchor="end" transform="translate(0,0) rotate(-45 471.566409074878 235)" y="235" opacity="1">0.05</text><text x="498.461145916978" style="color:#666666;cursor:default;font-size:11px;fill:#666666;" text-anchor="end" transform="translate(0,0) rotate(-45 498.461145916978 235)" y="235" opacity="1">0.06</text><text x="525.3558827590881" style="color:#666666;cursor:default;font-size:11px;fill:#666666;" text-anchor="end" transform="translate(0,0) rotate(-45 525.3558827590881 235)" y="235" opacity="1">0.07</text><text x="552.2506196011881" style="color:#666666;cursor:default;font-size:11px;fill:#666666;" text-anchor="end" transform="translate(0,0) rotate(-45 552.2506196011881 235)" y="235" opacity="1">0.08</text><text x="579.145356443298" style="color:#666666;cursor:default;font-size:11px;fill:#666666;" text-anchor="end" transform="translate(0,0) rotate(-45 579.145356443298 235)" y="235" opacity="1">0.1</text></g><g class="highcharts-axis-labels highcharts-yaxis-labels " data-z-index="7"><text x="64" style="color:#666666;cursor:default;font-size:11px;fill:#666666;" text-anchor="end" transform="translate(0,0)" y="223" opacity="1">0</text><text x="64" style="color:#666666;cursor:default;font-size:11px;fill:#666666;" text-anchor="end" transform="translate(0,0)" y="145" opacity="1">500</text><text x="64" style="color:#666666;cursor:default;font-size:11px;fill:#666666;" text-anchor="end" transform="translate(0,0)" y="67" opacity="1">1000</text></g><a xlink:href="https://quantimo.do" target="_blank">
                    <text x="590" class="highcharts-credits" text-anchor="end" data-z-index="8"
                          style="cursor:pointer;color:#999999;font-size:9px;fill:#999999;" y="295">https://quantimo.do
                    </text>
                </a></svg>