<?xml version="1.0" standalone="no"?><!DOCTYPE svg PUBLIC "-//W3C//DTD SVG 1.1//EN" "http://www.w3.org/Graphics/SVG/1.1/DTD/svg11.dtd"><svg xmlns:xlink="http://www.w3.org/1999/xlink" version="1.1" class="highcharts-root" style="font-family:&quot;Lucida Grande&quot;, &quot;Lucida Sans Unicode&quot;, Arial, Helvetica, sans-serif;font-size:12px;" xmlns="http://www.w3.org/2000/svg" width="600" height="400"><desc>Created with Highstock 6.2.0</desc><defs><clipPath id="highcharts-bis67bj-359"><rect x="0" y="0" width="544" height="299" fill="none"></rect></clipPath><clipPath id="highcharts-bis67bj-712"><rect x="0" y="0" width="544" height="299" fill="none"></rect></clipPath><clipPath id="highcharts-bis67bj-713"><rect x="46" y="63" width="544" height="299" fill="none"></rect></clipPath></defs><rect fill="#ffffff" class="highcharts-background" x="0" y="0" width="600" height="400" rx="0" ry="0"></rect><rect fill="none" class="highcharts-plot-background" x="46" y="63" width="544" height="299"></rect><g class="highcharts-pane-group" data-z-index="0"></g><g class="highcharts-grid highcharts-xaxis-grid " data-z-index="1"><path fill="none" data-z-index="1" class="highcharts-grid-line" d="M 128.5 63 L 128.5 362" opacity="1"></path><path fill="none" data-z-index="1" class="highcharts-grid-line" d="M 222.5 63 L 222.5 362" opacity="1"></path><path fill="none" data-z-index="1" class="highcharts-grid-line" d="M 316.5 63 L 316.5 362" opacity="1"></path><path fill="none" data-z-index="1" class="highcharts-grid-line" d="M 410.5 63 L 410.5 362" opacity="1"></path><path fill="none" data-z-index="1" class="highcharts-grid-line" d="M 503.5 63 L 503.5 362" opacity="1"></path></g><g class="highcharts-grid highcharts-yaxis-grid " data-z-index="1"><path fill="none" stroke="#e6e6e6" stroke-width="1" data-z-index="1" class="highcharts-grid-line" d="M 46 362.5 L 590 362.5" opacity="1"></path><path fill="none" stroke="#e6e6e6" stroke-width="1" data-z-index="1" class="highcharts-grid-line" d="M 46 302.5 L 590 302.5" opacity="1"></path><path fill="none" stroke="#e6e6e6" stroke-width="1" data-z-index="1" class="highcharts-grid-line" d="M 46 242.5 L 590 242.5" opacity="1"></path><path fill="none" stroke="#e6e6e6" stroke-width="1" data-z-index="1" class="highcharts-grid-line" d="M 46 183.5 L 590 183.5" opacity="1"></path><path fill="none" stroke="#e6e6e6" stroke-width="1" data-z-index="1" class="highcharts-grid-line" d="M 46 123.5 L 590 123.5" opacity="1"></path><path fill="none" stroke="#e6e6e6" stroke-width="1" data-z-index="1" class="highcharts-grid-line" d="M 46 62.5 L 590 62.5" opacity="1"></path></g><rect fill="none" class="highcharts-plot-border" data-z-index="1" x="46" y="63" width="544" height="299"></rect><g class="highcharts-axis highcharts-xaxis " data-z-index="2"><path fill="none" class="highcharts-tick" stroke="#ccd6eb" stroke-width="1" d="M 128.5 362 L 128.5 372" opacity="1"></path><path fill="none" class="highcharts-tick" stroke="#ccd6eb" stroke-width="1" d="M 222.5 362 L 222.5 372" opacity="1"></path><path fill="none" class="highcharts-tick" stroke="#ccd6eb" stroke-width="1" d="M 316.5 362 L 316.5 372" opacity="1"></path><path fill="none" class="highcharts-tick" stroke="#ccd6eb" stroke-width="1" d="M 410.5 362 L 410.5 372" opacity="1"></path><path fill="none" class="highcharts-tick" stroke="#ccd6eb" stroke-width="1" d="M 503.5 362 L 503.5 372" opacity="1"></path><path fill="none" class="highcharts-axis-line" stroke="#ccd6eb" stroke-width="1" data-z-index="7" d="M 46 362.5 L 590 362.5"></path></g><g class="highcharts-axis highcharts-yaxis " data-z-index="2"><path fill="none" class="highcharts-axis-line" data-z-index="7" d="M 46 63 L 46 362"></path></g><g class="highcharts-series-group" data-z-index="3"><g data-z-index="0.1" class="highcharts-series highcharts-series-0 highcharts-spline-series highcharts-color-0 " transform="translate(46,63) scale(1 1)" clip-path="url(#highcharts-bis67bj-712)"><path fill="none" d="M 5.3333333333333 177.00799999999995 C 5.3333333333333 177.00799999999995 5.48762455801994 204.3166666666667 5.5904853744777 204.3166666666667 C 5.6933461909354195 204.3166666666667 5.74477659916428 140.53 5.847637415622 140.53 C 5.9504982320797195 140.53 6.00192864030858 143.63500000000008 6.1047894567663 154.10000000000002 C 6.20765027322402 164.56500000000005 6.25908068145288 191.95799999999997 6.3619414979106 192.855 C 6.46480231436836 193.752 6.51623272259724 192.855 6.619093539055 193.752 C 6.72195435551272 194.64900000000003 6.77338476374158 206.31 6.8762455801993 206.31 C 6.979106396657021 206.31 7.030536804885879 142.02499999999998 7.1333976213436 142.02499999999998 C 7.23625843780132 142.02499999999998 7.28768884603018 166.7755555555555 7.3905496624879 166.7755555555555 C 7.49341047894566 166.7755555555555 7.54484088717454 148.7525 7.6477017036323 148.7525 C 7.7505625200900194 148.7525 7.80199292831888 171.02799999999996 7.9048537447766 171.02799999999996 C 8.00771456123432 171.02799999999996 8.05914496946318 157.06821764705788 8.1620057859209 152.3141176470588 C 8.26486660237866 147.5600176470579 8.31629701060754 148.53792352941198 8.4191578270653 147.2575 C 8.52201864352302 145.97707647058851 8.57344905175188 145.91200000000003 8.6763098682096 145.91200000000003 C 8.77917068466732 145.91200000000003 8.83060109289618 150.97506666666663 8.9334619093539 159.4666666666667 C 9.036322725811619 167.95826666666662 9.08775313404048 188.37 9.1906139504982 188.37 C 9.29347476695596 188.37 9.34490517518484 121.39399999999998 9.4477659916426 121.39399999999998 C 9.55062680810032 121.39399999999998 9.60205721632918 138.1081 9.7049180327869 148.7525 C 9.807778849244619 159.39690000000002 9.859209257473479 174.616 9.9620700739312 174.616 C 10.06493089038912 174.616 10.116361298618079 127.43380000003324 10.219222115076 106.14499999999998 C 10.3220829315336 84.85620000003327 10.3735133397624 68.17200000000003 10.47637415622 68.17200000000003 C 10.5792349726776 68.17200000000003 10.6306653809064 168.935 10.733526197364 168.935 C 10.836387013822 168.935 10.887817422051 154.81555555555553 10.990678238509 154.81555555555553 C 11.093539054966602 154.81555555555553 11.1449694631954 178.20399999999998 11.247830279653 178.20399999999998 C 11.5564127290262 178.20399999999998 11.7107039537128 110.90181818181819 12.019286403086 110.90181818181819 C 12.1221472195436 110.90181818181819 12.1735776277724 131.55999999999997 12.27643844423 132.30749999999998 C 12.3792992606876 133.05499999999998 12.4307296689164 133.05499999999998 12.533590485374 133.05499999999998 C 12.842172934747202 133.05499999999998 12.996464159433799 133.05499999999998 13.305046608807 131.0616666666667 C 13.510768241722598 129.0683333333334 13.613629058180402 80.30285714285714 13.819350691096 80.30285714285714 C 14.2307939569268 80.30285714285714 14.436515589842198 143.51999999999998 14.847958855673 143.51999999999998 C 14.950819672130999 143.51999999999998 15.00225008036 98.33777777777775 15.105110896818 98.33777777777775 C 15.310832529733199 98.33777777777775 15.4136933461908 149.5 15.619414979106 149.5 C 15.722275795564002 149.5 15.773706203793001 145.11466666668136 15.876567020251 137.54 C 15.9794278367086 129.96533333334804 16.0308582449374 111.6266666666667 16.133719061395 111.6266666666667 C 16.7508839601414 111.6266666666667 17.059466409514602 134.54999999999998 17.676631308261 134.54999999999998 C 17.8823529411766 134.54999999999998 17.9852137576344 124.38399999999996 18.19093539055 124.38399999999996 C 18.5790921104328 124.38399999999996 18.773170470374204 179.39999999999998 19.161327190257 179.39999999999998 C 19.6989178184938 179.39999999999998 19.967713132612197 154.28399999999996 20.505303760849 154.28399999999996 C 20.6081645773066 154.28399999999996 20.6595949855354 171.925 20.762455801993 171.925 C 20.8653166184506 171.925 20.9167470266794 153.18766666663612 21.019607843137 137.54 C 21.122468659595 121.89233333330279 21.173899067824 93.68666666666667 21.276759884282 93.68666666666667 C 21.4824815171972 93.68666666666667 21.5853423336548 124.38399999999996 21.79106396657 124.38399999999996 C 21.893924783028 124.38399999999996 21.945355191257 110.03200000000001 22.048216007715 110.03200000000001 C 22.2539376406302 110.03200000000001 22.3567984570878 128.163360000008 22.562520090003 135.14799999999997 C 23.385406621665 163.08656000000798 23.796849887496002 197.33999999999997 24.619736419158 197.33999999999997 C 24.7225972356156 197.33999999999997 24.7740276438444 162.04471111111104 24.876888460302 136.21111111111105 C 24.9797492767596 110.37751111111108 25.0311796849884 68.17200000000003 25.134040501446 68.17200000000003 C 25.4419800707164 68.17200000000003 25.5959498553516 143.51999999999998 25.903889424622 143.51999999999998 C 25.9361762920104 143.51999999999998 25.952319725704605 95.67999999999998 25.984606593093 95.67999999999998 C 26.055823422265398 95.67999999999998 26.091431836851605 150.4966666666667 26.162648666024 150.4966666666667 C 26.4712311153972 150.4966666666667 26.6255223400838 109.6333333333333 26.934104789457 109.6333333333333 C 27.0369656059146 109.6333333333333 27.0883960141434 144.18444444444447 27.191256830601 144.18444444444447 C 27.6027000964318 144.18444444444447 27.808421729347195 78.59428571428566 28.219864995178 78.59428571428566 C 28.322725811636 78.59428571428566 28.374156219865 153.48666666666668 28.477017036323 153.48666666666668 C 28.8884603021538 153.48666666666668 29.0941819350692 106.64333333333329 29.5056252009 106.64333333333329 C 29.6084860173576 106.64333333333329 29.659916425586403 136.5433333333333 29.762777242044 136.5433333333333 C 30.482802957248403 136.5433333333333 30.8428158148506 126.62650000000185 31.562841530055 117.20799999999994 C 31.665702346512603 115.86250000000187 31.717132754741396 109.6333333333333 31.819993571199 109.6333333333333 C 37.7859209257474 109.6333333333333 40.768884603021604 161.45999999999998 46.73481195757 161.45999999999998 C 46.8376727740276 161.45999999999998 46.8891031822564 137.53999999996466 46.991963998714 119.6 C 47.094824815172004 101.65999999996467 47.146255223401 71.75999999999999 47.249116039859 71.75999999999999 C 47.3519768563166 71.75999999999999 47.4034072645454 120.59666666666669 47.506268081003 120.59666666666669 C 47.6091288974606 120.59666666666669 47.6605593056894 120.59666666666669 47.763420122147 120.45428571428567 C 47.866280938604994 120.31190476190466 47.917711346834 116.60999999999999 48.020572163292 116.60999999999999 C 48.306868102432404 116.60999999999999 48.4500160720026 131.56 48.736312011143 131.56 C 48.758598521375795 131.56 48.769741776492204 131.56 48.792028286725 131.56 C 48.89488910318261 131.56 48.9463195114114 112.125 49.049180327869 112.125 C 49.152041144326596 112.125 49.2034715525554 148.00499999999997 49.306332369013 152.48999999999998 C 49.7177756348438 156.975 49.9234972677592 156.975 50.33494053359 156.975 C 50.540662166505605 156.975 50.643522982963404 149.5 50.849244615879 149.5 C 50.9521054323366 149.5 51.0035358405654 197.33999999999997 51.106396657023 197.33999999999997 C 51.312118289938596 197.33999999999997 51.4149791063964 140.53 51.620700739312 140.53 C 51.826422372227604 140.53 51.929283188685396 155.48 52.135004821601 155.48 C 52.3407264545162 155.48 52.44358727097381 145.22857142857146 52.649308903889 145.22857142857146 C 53.0479659987854 145.22857142857146 53.24729454623359 167.44 53.64595164113 167.44 C 53.76159862852239 167.44 53.8194221222186 119.6 53.935069109611 119.6 C 54.290296082002996 119.6 54.467909568199005 123.57824413145366 54.823136540591 137.54 C 54.893924783028204 140.3222441314537 54.929318904246806 161.45999999999998 55.000107146684 161.45999999999998 C 55.0883960141436 161.45999999999998 55.13254044787341 125.57999999999998 55.220829315333 125.57999999999998 C 55.3236901317906 125.57999999999998 55.375120540019395 148.56999299658935 55.477981356477 152.48999999999998 C 56.191078252794604 179.66599299658935 56.5476267009534 203.32 57.260723597271 203.32 C 57.44123004392979 203.32 57.531483267259205 137.54 57.711989713918 137.54 C 57.846994535518796 137.54 57.9144969463192 161.9652409240926 58.04950176792 165.4466666666667 C 58.5638058502088 178.70924092409257 58.8209578913532 175.16416666666632 59.335261973642 179.39999999999998 C 59.64384442301521 181.94149999999965 59.798135647701805 179.39999999999998 60.106718097075 182.39 C 60.5181613629058 185.38 60.7238829958212 245.18 61.135326261652 245.18 C 61.4439087110252 245.18 61.5981999357118 167.44 61.906782385085 167.44 C 62.11250401800061 167.44 62.2153648344584 203.32 62.421086467374 203.32 C 62.617736347726805 203.32 62.7160612879032 184.96998240740058 62.912711168256 167.44 C 63.024643737276406 157.46198240740057 63.080610021786605 134.54999999999998 63.192542590807 134.54999999999998 C 63.38033501196501 134.54999999999998 63.47423122254399 185.38 63.662023643702 185.38 C 63.7828136719172 185.38 63.843208686024795 164.45 63.96399871424 164.45 C 64.0668595306976 164.45 64.1182899389264 210.496 64.221150755384 221.26 C 64.4268723882996 232.02399999999997 64.5297332047574 224.89871815204017 64.735454837673 232.02399999999997 C 64.9441051466126 239.25071815204018 65.0484303010824 257.14 65.257080610022 257.14 C 65.3570127504556 257.14 65.4069788206724 158.04285714285714 65.506910961106 158.04285714285714 C 65.60977177756361 158.04285714285714 65.6612021857924 189.36666666666667 65.76406300225 189.36666666666667 C 65.86692381870759 189.36666666666667 65.91835422693639 152.48999999999998 66.021215043394 152.48999999999998 C 66.124075859852 152.48999999999998 66.175506268081 157.2739999999896 66.278367084539 162.656 C 66.3812279009966 168.0379999999896 66.43265830922539 179.39999999999998 66.535519125683 179.39999999999998 C 66.8441015750562 179.39999999999998 66.99839279974279 154.9363636363636 67.306975249116 154.9363636363636 C 67.4098360655736 154.9363636363636 67.4612664738024 176.41 67.56412729026 176.41 C 67.66698810671801 176.41 67.718418514947 166.11111111111106 67.821279331405 166.11111111111106 C 67.9241401478626 166.11111111111106 67.97557055609141 168.29048888888892 68.078431372549 177.4066666666667 C 68.1812921890066 186.52284444444447 68.2327225972354 209.59900000000002 68.335583413693 211.692 C 68.438444230151 213.785 68.48987463838 213.785 68.592735454838 213.785 C 68.69559627129561 213.785 68.7470266795244 167.44 68.849887495982 167.44 C 68.9527483124396 167.44 69.00417872066839 192.556 69.107039537126 192.556 C 69.209900353584 192.556 69.261330761813 160.26399999999998 69.364191578271 160.26399999999998 C 69.4670523947286 160.26399999999998 69.5184828029574 166.60279999999952 69.621343619415 173.42 C 69.7242044358726 180.23719999999952 69.7756348441014 194.35 69.878495660559 194.35 C 69.98135647701699 194.35 70.032786885246 176.80866666668544 70.135647701704 167.44 C 70.2385085181616 158.0713333333521 70.28993892639039 148.5033333333334 70.392799742848 147.5066666666667 C 70.49566055930559 146.51 70.5470909675344 146.51 70.649951783992 146.51 C 70.75281260045 146.51 70.804243008679 164.94833333332448 70.907103825137 169.4333333333333 C 71.2156862745102 182.8883333333245 71.36997749919679 191.35999999999999 71.67855994857 191.35999999999999 C 71.98714239794319 191.35999999999999 72.1414336226298 185.38 72.450016072003 185.38 C 72.5528768884606 185.38 72.6043072966894 188.37 72.707168113147 188.37 C 72.8100289296046 188.37 72.86145933783341 177.90499999999997 72.964320154291 177.90499999999997 C 73.06718097074899 177.90499999999997 73.11861137897799 193.3533333333333 73.221472195436 193.3533333333333 C 73.3243330118936 193.3533333333333 73.3757634201224 190.96133333333344 73.47862423658 189.36666666666667 C 73.5814850530376 187.7720000000001 73.6329154612664 185.38 73.735776277724 185.38 C 73.838637094182 185.38 73.890067502411 195.845 73.992928318869 195.845 C 74.0957891353266 195.845 74.14721954355541 158.47 74.250080360013 158.47 C 74.35294117647061 158.47 74.4043715846994 221.26 74.507232401157 221.26 C 74.610093217615 221.26 74.66152362584401 197.33999999999997 74.764384442302 197.33999999999997 C 75.07296689167481 197.33999999999997 75.2272581163612 199.13400000000962 75.535840565734 209.3 C 75.638701382192 212.68866666667628 75.69013179042099 231.2266666666667 75.792992606879 231.2266666666667 C 76.2044358727098 231.2266666666667 76.4101575056252 231.2266666666667 76.821600771456 197.33999999999997 C 76.92446158791361 163.45333333333326 76.9758919961424 113.61999999999998 77.0787528126 113.61999999999998 C 77.181613629058 113.61999999999998 77.233044037287 167.44 77.335904853745 176.41 C 78.5702346512378 185.38 79.1873995499842 185.38 80.421729347477 185.38 C 80.93603342976539 185.38 81.1931854709096 149.5 81.707489553198 149.5 C 81.91321118611361 149.5 82.0160720025714 209.3 82.221793635487 209.3 C 82.5303760848602 209.3 82.68466730954681 161.45999999999998 82.99324975892 161.45999999999998 C 83.19897139183561 161.45999999999998 83.3018322082934 179.39999999999998 83.507553841209 179.39999999999998 C 83.6104146576666 179.39999999999998 83.6618450658954 179.39999999999998 83.764705882353 173.42 C 83.8675666988106 167.44 83.9189971070394 135.54666666666668 84.021857923497 135.54666666666668 C 84.3304403728702 135.54666666666668 84.48473159755682 142.2442666666697 84.79331404693 153.48666666666668 C 84.9990356798456 160.981600000003 85.1018964963034 182.39 85.307618129219 182.39 C 85.82192221150778 182.39 86.07907425265219 161.45999999999998 86.593378334941 161.45999999999998 C 87.6219864995182 161.45999999999998 88.13629058180679 191.35999999999999 89.164898746384 191.35999999999999 C 89.884924461588 191.35999999999999 90.24493731918999 159.61163636363742 90.964963034394 145.91200000000003 C 91.37640630022479 138.0836363636374 91.5821279331402 137.54 91.993571198971 137.54 C 92.3021536483442 137.54 92.45644487303079 151.36044444444443 92.765027322404 161.45999999999998 C 93.3821922211504 181.65911111111112 93.69077467052361 213.2866666666667 94.30793956927 213.2866666666667 C 94.410800385728 213.2866666666667 94.46223079395699 176.43214814815605 94.565091610415 173.42 C 95.3879781420766 149.3228148148227 95.7994214079074 145.5133333333333 96.622307939569 145.5133333333333 C 96.8280295724846 145.5133333333333 96.9308903889424 199.33333333333331 97.136612021858 199.33333333333331 C 97.3423336547736 199.33333333333331 97.44519447123142 189.3666666666693 97.650916104147 181.39333333333332 C 97.9594985535202 169.43333333333598 98.1137897782068 149.5 98.42237222758 149.5 C 98.5252330440376 149.5 98.57666345226639 151.4933333333333 98.679524268724 161.45999999999998 C 98.7823850851816 171.42666666666665 98.83381549341041 199.33333333333331 98.936676309868 199.33333333333331 C 99.039537126326 199.33333333333331 99.090967534555 157.80555555555551 99.193828351013 157.80555555555551 C 99.29668916747059 157.80555555555551 99.3481195756994 157.80555555555551 99.450980392157 163.85200000000003 C 99.55384120861461 169.89844444444455 99.6052716168434 245.18 99.708132433301 245.18 C 99.9138540662166 245.18 100.0167148826744 158.04285714285714 100.22243651559 158.04285714285714 C 100.531018964962 158.04285714285714 100.68531018964799 162.2886571429194 100.99389263902 171.925 C 101.09675345548 175.13711428577653 101.14818386370999 190.164 101.25104468017 190.164 C 101.353905496626 190.164 101.405335904854 182.97205333330876 101.50819672131 181.39333333333332 C 101.919639987142 175.07845333330877 102.12536162005802 170.42999999999998 102.53680488589 170.42999999999998 C 102.63966570234602 170.42999999999998 102.69109611057402 170.42999999999998 102.79395692703 183.38666666666668 C 102.89681774349 196.3433333333334 102.94824815172001 238.3457142857143 103.05110896818 238.3457142857143 C 103.153969784636 238.3457142857143 103.205400192864 212.7171428568454 103.30826100932 197.33999999999997 C 103.41112182577999 181.9628571425597 103.46255223400999 167.43999999999997 103.56541305047 161.45999999999998 C 103.668273866926 155.48 103.719704275154 155.48 103.82256509161 155.48 C 103.92542590806602 155.48 103.97685631629399 167.44 104.07971713275 167.44 C 104.285438765666 167.44 104.388299582124 143.51999999999998 104.59402121504 143.51999999999998 C 105.005464480872 143.51999999999998 105.21118611378799 173.42 105.62262937962 173.42 C 105.72549019608 173.42 105.77692060430999 140.53 105.87978142077 140.53 C 106.085503053682 140.53 106.18836387013798 182.72222222222211 106.39408550305 190.03111111111104 C 106.49694631950999 197.33999999999997 106.54837672773999 195.5626111110764 106.6512375442 197.33999999999997 C 106.959819993572 202.672166666632 107.11411121825799 197.33999999999997 107.42269366763 207.805 C 107.52555448408998 218.27000000000004 107.57698489231998 239.2 107.67984570878 239.2 C 107.782706525236 239.2 107.834136933464 215.28000000000003 107.93699774992 209.3 C 108.142719382836 203.32 108.245580199294 209.3 108.45130183221 203.32 C 108.55416264866601 197.33999999999997 108.60559305689401 184.09857142857138 108.70845387335 180.2542857142857 C 108.81131468981 176.41 108.86274509804 176.41 108.9656059145 176.41 C 109.27418836387201 176.41 109.428479588558 228.436 109.73706203793 228.436 C 109.91671131111801 228.436 110.006535947712 191.35999999999999 110.1861852209 191.35999999999999 C 110.315118397084 191.35999999999999 110.37958498517601 242.19 110.50851816136 242.19 C 110.61137897782001 242.19 110.66280938605 202.46571428571428 110.76567020251 202.46571428571428 C 111.17711346833798 202.46571428571428 111.382835101252 209.3 111.79427836708 209.3 C 112.20572163291199 209.3 112.41144326582801 178.9215999999364 112.82288653166 162.656 C 112.92574734812001 158.5895999999364 112.97717775635002 158.47 113.08003857281 158.47 C 113.388621022182 158.47 113.54291224686799 167.73899999993301 113.85149469624 188.37 C 113.954355512696 195.24699999993302 114.005785920924 227.24 114.10864673738 227.24 C 114.21150755384001 227.24 114.26293796207001 217.2733333333333 114.36579877853 215.28 C 114.46865959498601 213.2866666666667 114.520090003214 215.28 114.62295081967 213.2866666666667 C 114.72581163612999 211.29333333333338 114.77724204436 203.32 114.88010286082 203.32 C 114.982963677276 203.32 115.034394085504 206.31 115.13725490196 206.31 C 115.24011571842001 206.31 115.29154612665002 175.812 115.39440694311 173.42 C 115.49726775956601 171.02799999999996 115.54869816779402 172.62266666664584 115.65155898425 171.02799999999996 C 115.857280617166 167.83866666664585 115.96014143362399 161.45999999999998 116.16586306654 161.45999999999998 C 116.9887495982 161.45999999999998 117.40019286402999 161.45999999999998 118.22307939569 162.95499999999998 C 118.42880102860599 164.45 118.531661845064 218.26999999999998 118.73738347798 218.26999999999998 C 118.84024429444 218.26999999999998 118.89167470267 208.10399999999996 118.99453551913 191.35999999999999 C 121.56605593057 174.616 122.85181613629 174.616 125.42333654773 174.616 C 125.834779813562 174.616 126.04050144647799 224.25 126.45194471231 224.25 C 126.87353119754198 224.25 127.08432444015799 137.54 127.50591092539 137.54 C 128.112932604734 137.54 128.41644344440599 177.59625196227995 129.02346512375 209.3 C 129.12632594021 214.67225196227997 129.17775634844 218.66866666644145 129.2806171649 230.23 C 129.383477981356 241.7913333331081 129.434908389584 267.1066666666667 129.53776920604 267.1066666666667 C 130.25779492124397 267.1066666666667 130.61780777884601 155.48 131.33783349405 155.48 C 131.95499839279802 155.48 132.263580842172 227.24 132.88074574092 227.24 C 133.90935390549598 227.24 134.423657987784 211.20272727265325 135.45226615236 176.41 C 135.55512696882002 172.93072727265323 135.60655737705002 131.56 135.70941819351 131.56 C 135.915139826426 131.56 136.018000642884 267.1066666666667 136.2237222758 267.1066666666667 C 136.73802635808798 267.1066666666667 136.995178399232 152.48999999999998 137.50948248152 152.48999999999998 C 137.818064930892 152.48999999999998 137.97235615557798 239.2 138.28093860495 239.2 C 140.54387656702198 239.2 141.675345548058 205.3133333333333 143.93828351013 203.32 C 146.50980392157 201.32666666666668 147.79556412729 202.78520325203172 150.36708453873 201.32666666666668 C 152.012857602054 200.39320325203173 152.835744133716 201.32666666666668 154.48151719704 197.33999999999997 C 154.68723882995602 193.35333333333327 154.790099646414 187.37333333333328 154.99582127933 187.37333333333328 C 167.133397621342 187.37333333333328 173.20218579234802 223.65200000000004 185.33976213436 223.65200000000004 C 190.89424622308002 223.65200000000004 193.67148826744 157.4733333333333 199.22597235616 157.4733333333333 C 199.43169398907202 157.4733333333333 199.534554805528 191.35999999999996 199.74027643844 197.33999999999997 C 199.8431372549 203.32 199.89456766313 203.32 199.99742847959 203.32 C 202.26036644165802 203.32 203.39183542269203 199.33333333333331 205.65477338476 199.33333333333331 C 205.86049501767602 199.33333333333331 205.963355834134 209.3 206.16907746705 209.3 C 206.477659916426 209.3 206.631951141114 185.38 206.94053359049 185.38 C 207.04339440694602 185.38 207.09482481517398 194.35 207.19768563163 194.35 C 210.79781420765 194.35 212.59787849566 173.42 216.19800707168 173.42 C 230.598521375764 173.42 237.798778527806 173.42 252.19929283189 182.39 C 256.210864673742 191.35999999999999 258.216650594668 227.24 262.22822243652 227.24 C 264.182577949216 227.24 265.159755705564 227.24 267.11411121826 223.2533333333333 C 267.93699774992 219.2666666666666 268.34844101575 193.3533333333333 269.17132754741 193.3533333333333 C 270.09707489553 193.3533333333333 270.55994856959 239.2 271.48569591771 239.2 C 272.822886531662 239.2 273.491481838638 239.2 274.82867245259 227.24 C 275.137254901962 215.28000000000003 275.291546126648 182.39 275.60012857602 182.39 C 303.26968820314795 182.39 317.104468016712 263.12 344.77402764384 263.12 C 345.494053359044 263.12 345.85406621664595 193.7659660297143 346.57409193185 182.39 C 349.48762455801796 136.3579660297143 350.94439087110203 119.6 353.85792349727 119.6 C 360.6133076181301 119.6 363.99099967856 197.33999999999997 370.74638379942 197.33999999999997 C 373.215043394408 197.33999999999997 374.44937319190205 175.4133333333333 376.91803278689 175.4133333333333 C 377.123754419802 175.4133333333333 377.226615236258 251.16 377.43233686917 252.655 C 377.740919318546 254.15 377.89521054323393 254.15 378.20379299261 254.15 C 378.306653809066 254.15 378.358084217294 213.2866666666667 378.46094503375 213.2866666666667 C 378.872388299582 213.2866666666667 379.078109932498 227.24 379.48955319833 227.24 C 379.59241401478596 227.24 379.643844423014 217.2733333333333 379.74670523947 217.2733333333333 C 379.84956605593 217.2733333333333 379.90099646416 226.84133333320818 380.00385728062 233.22 C 380.106718097076 239.59866666654156 380.15814850530404 249.16666666666669 380.26100932176 249.16666666666669 C 380.36387013822 249.16666666666669 380.41530054645 241.19333333333327 380.51816136291 239.2 C 380.82674381228196 237.2066666666667 380.981035036968 237.2066666666667 381.28961748634 237.2066666666667 C 381.392478302796 237.2066666666667 381.44390871102394 275.08 381.54676952748 275.08 C 381.64963034394 275.08 381.70106075217006 247.37266666686054 381.80392156863 237.2066666666667 C 382.112504018002 206.7086666668605 382.266795242688 173.42 382.57537769206 173.42 C 382.883960141432 173.42 383.038251366118 194.94800000003647 383.34683381549 209.3 C 383.552555448406 218.8680000000365 383.655416264864 233.22 383.86113789778 233.22 C 384.066859530696 233.22 384.169720347154 211.69199999990613 384.37544198007 197.33999999999997 C 384.47830279653 190.1639999999061 384.52973320475996 179.39999999999998 384.63259402122 179.39999999999998 C 384.735454837676 179.39999999999998 384.786885245904 182.98799999999935 384.88974606236 185.38 C 384.992606878816 187.77199999999934 385.04403728704403 186.57600000006255 385.1468981035 191.35999999999999 C 385.352619736416 200.92800000006255 385.455480552874 221.26 385.66120218579 221.26 C 385.76406300225 221.26 385.81549341048 221.26 385.91835422694 221.26 C 386.021215043396 221.26 386.072645451624 221.26 386.17550626808 221.26 C 386.38122790099607 221.26 386.48408871745403 223.2533333333333 386.68981035037 223.2533333333333 C 386.79267116682604 223.2533333333333 386.84410157505397 188.37 386.94696239151 188.37 C 387.04982320797 188.37 387.10125361620004 259.1333333333333 387.20411443266 259.1333333333333 C 387.306975249116 259.1333333333333 387.35840565734395 219.2666666666667 387.4612664738 219.2666666666667 C 387.56412729026 219.2666666666667 387.61555769849 261.12666666666667 387.71841851495 261.12666666666667 C 387.821279331406 261.12666666666667 387.87270973963393 203.32 387.97557055609 203.32 C 388.48987463837796 203.32 388.74702667952204 277.0733333333333 389.26133076181 277.0733333333333 C 389.36419157827004 277.0733333333333 389.4156219865 221.26 389.51848280296 221.26 C 389.621343619416 221.26 389.67277402764404 222.8546666667527 389.7756348441 227.24 C 389.87849566056 231.62533333341938 389.92992606879 243.1866666666667 390.03278688525 243.1866666666667 C 390.135647701706 243.1866666666667 390.187078109934 233.54173167786988 390.28993892639 231.2266666666667 C 390.57676821791404 224.77106501120318 390.72018286367603 221.26 391.0070121552 221.26 C 391.131626129508 221.26 391.193933116662 253.1533333333333 391.31854709097 253.1533333333333 C 391.627129540342 253.1533333333333 391.781420765028 221.2599999999566 392.0900032144 209.3 C 392.50144648023195 193.35333333328992 392.707168113148 183.38666666666668 393.11861137898 183.38666666666668 C 393.427193828352 183.38666666666668 393.58148505303797 198.5360000000699 393.89006750241 209.3 C 393.99292831887 212.8880000000699 394.0443587271 219.2666666666667 394.14721954356 219.2666666666667 C 394.35294117647203 219.2666666666667 394.45580199292806 219.2666666666667 394.66152362584 217.2733333333333 C 394.7643844423 215.27999999999992 394.81581485053 208.5026666667292 394.91867566699 205.3133333333333 C 395.02153648344597 202.12400000006252 395.072966891674 201.32666666666668 395.17582770813 201.32666666666668 C 395.381549341046 201.32666666666668 395.484410157504 217.27333333333343 395.69013179042 219.2666666666667 C 395.79299260688003 221.26 395.84442301511 221.26 395.94728383157 221.26 C 396.050144648026 221.26 396.10157505625403 206.30999999997024 396.20443587271 203.32 C 396.513018322082 194.34999999997024 396.66730954676797 195.66559999998904 396.97589199614 191.35999999999999 C 397.18161362905596 188.48959999998905 397.28447444551404 185.38 397.49019607843 185.38 C 397.683616081526 185.38 397.78032608307404 227.24 397.97374608617 227.24 C 397.98604771599 227.24 397.9921985309 223.2533333333333 398.00450016072 223.2533333333333 C 398.107360977176 223.2533333333333 398.158791385404 227.24 398.26165220186 227.24 C 398.36451301832 227.24 398.41594342655 221.26 398.51880424301 221.26 C 398.62166505946595 221.26 398.673095467694 224.25 398.77595628415 224.25 C 398.981677917066 224.25 399.084538733524 213.28666666666658 399.29026036644 211.2933333333333 C 399.495981999356 209.3 399.598842815814 209.3 399.80456444873 209.3 C 399.90742526518596 209.3 399.958855673414 209.3 400.06171648987 209.3 C 400.678881388618 209.3 400.987463837992 175.4133333333333 401.60462873674 175.4133333333333 C 402.01607200257206 175.4133333333333 402.221793635488 225.24666666666667 402.63323690132 225.24666666666667 C 402.838958534236 225.24666666666667 402.941819350694 221.85800000000006 403.14754098361 219.2666666666667 C 403.35326261652597 216.67533333333338 403.456123432984 213.2866666666667 403.6618450659 212.29 C 403.97042751527204 211.2933333333333 404.124718739958 211.2933333333333 404.43330118933 211.2933333333333 C 405.05046608807396 211.2933333333333 405.35904853744603 233.22 405.97621343619 233.22 C 407.724847315974 233.22 408.59916425586596 199.33333333333331 410.34779813565 199.33333333333331 C 410.553519768566 199.33333333333331 410.656380585024 224.25 410.86210221794 224.25 C 413.742205078756 224.25 415.182256509164 214.3733548387149 418.06235936998 200.32999999999998 C 418.37094181935197 198.8253548387149 418.52523304403803 185.38 418.83381549341 185.38 C 419.245258759242 185.38 419.450980392158 218.26999999999998 419.86242365799 218.26999999999998 C 421.199614271938 218.26999999999998 421.86820957891194 184.18399999999997 423.20540019286 184.18399999999997 C 423.513982642236 184.18399999999997 423.66827386692404 186.16935999999467 423.9768563163 188.37 C 424.182577949216 189.837093333328 424.28543876567403 188.37 424.49116039859 193.3533333333333 C 424.696882031502 198.3366666666666 424.799742847958 223.65200000000004 425.00546448087 223.65200000000004 C 425.2111861137861 223.65200000000004 425.314046930244 214.7883111110179 425.51976856316 200.32999999999998 C 425.62262937962004 193.1008444443512 425.67405978785007 169.4333333333333 425.77692060431 169.4333333333333 C 426.80552876888606 169.4333333333333 427.31983285117406 229.2333333333333 428.34844101575 229.2333333333333 C 428.55416264866597 229.2333333333333 428.657023465124 206.77511111111178 428.86274509804 199.33333333333331 C 429.27418836387204 184.44977777777842 429.479909996788 182.19066666670844 429.89135326262 173.42 C 430.302796528448 164.64933333337513 430.508518161362 155.48 430.91996142719 155.48 C 431.02282224365 155.48 431.07425265188004 191.35999999999999 431.17711346834 191.35999999999999 C 431.485695917712 191.35999999999999 431.63998714239796 173.42 431.94856959177 173.42 C 433.285760205722 173.42 433.95435551269804 215.28 435.29154612665 215.28 C 435.70298939247806 215.28 435.90871102539205 215.28 436.32015429122 213.2866666666667 C 437.143040822884 211.29333333333338 437.554484088716 190.08426666666784 438.37737062038 175.4133333333333 C 438.58309225329594 171.7456000000012 438.685953069754 167.44 438.89167470267 167.44 C 438.9945355191259 167.44 439.04596592735396 218.26999999999998 439.14882674381 218.26999999999998 C 439.25168756026994 218.26999999999998 439.30311796850003 176.41 439.40597878496 176.41 C 439.508839601416 176.41 439.56027000964406 230.23 439.6631308261 230.23 C 439.868852459016 230.23 439.97171327547403 203.51933333342959 440.17743490839 188.37 C 440.28029572484604 180.79533333342962 440.33172613307397 173.42 440.43458694953 173.42 C 440.53744776598995 173.42 440.58887817422 175.81199999995306 440.69173899068 179.39999999999998 C 440.897460623596 186.57599999995307 441.000321440054 200.32999999999998 441.20604307297 200.32999999999998 C 441.41176470588596 200.32999999999998 441.514625522344 176.41 441.72034715526 176.41 C 441.823207971716 176.41 441.87463837994403 179.39999999999998 441.9774991964 179.39999999999998 C 442.38894246223197 179.39999999999998 442.59466409514806 147.5066666666667 443.00610736098 147.5066666666667 C 443.520411443268 147.5066666666667 443.777563484412 195.3466666666667 444.2918675667 195.3466666666667 C 444.39472838315595 195.3466666666667 444.446158791384 163.4533333333333 444.54901960784 163.4533333333333 C 444.66973225234005 163.4533333333333 444.73008857459 197.33999999999997 444.85080121909 197.33999999999997 C 445.038671023966 197.33999999999997 445.132605926404 182.38999999999996 445.32047573128 179.39999999999998 C 445.526197364192 176.41 445.6290581806479 176.41 445.83477981356 176.41 C 448.303439408548 176.41 449.53776920604196 225.24666666666667 452.00642880103 225.24666666666667 C 461.263902282226 225.24666666666667 465.892639022824 205.88285714286084 475.15011250402 185.38 C 475.25297332047603 185.1521904761942 475.30440372870396 173.42 475.40726454516 173.42 C 475.81870781099207 173.42 476.02442944390793 206.31 476.43587270974 206.31 C 476.64159434265605 206.31 476.74445515911395 199.53266666673863 476.95017679203 188.37 C 477.053037608486 182.78866666673864 477.10446801671407 164.45 477.20732883317 164.45 C 477.61877209900206 164.45 477.8244937319179 165.8851999999593 478.23593699775 176.41 C 478.33879781420603 179.04119999995928 478.39022822243396 197.33999999999997 478.49308903889 197.33999999999997 C 479.3159755705539 197.33999999999997 479.727418836386 173.42 480.55030536805 173.42 C 480.96174863388194 173.42 481.16747026679803 173.9124705882302 481.57891353263 175.4133333333333 C 482.916104146578 180.29113725489688 483.584699453552 187.95063752277127 484.9218900675 189.36666666666667 C 502.40822886531595 207.88397085610464 511.151398264224 225.24666666666667 528.63773706204 225.24666666666667 C 529.049180327872 225.24666666666667 529.254901960788 184.55921568627448 529.66634522662 183.97294117647058 C 529.9749276759919 183.38666666666668 530.129218900678 183.97294117647058 530.43780135005 183.38666666666668 C 530.540662166506 182.80039215686278 530.5920925747339 171.6259999999999 530.69495339119 165.04799999999994 C 530.900675024106 158.47 531.0035358405639 158.47 531.20925747348 158.47 C 531.31211828994 158.47 531.36354869817 161.45999999999998 531.46640951463 161.45999999999998 C 531.6721311475419 161.45999999999998 531.774991963998 157.4733333333333 531.98071359691 157.4733333333333 C 532.392156862742 157.4733333333333 532.597878495658 164.25066666666712 533.00932176149 168.7688888888889 C 533.832208293154 177.80533333333378 534.243651558986 191.35999999999999 535.06653809065 191.35999999999999 C 536.506589521058 191.35999999999999 538.66666666667 176.41 538.66666666667 176.41" class="highcharts-graph" data-z-index="1" stroke="#000000" stroke-width="2" stroke-linejoin="round" stroke-linecap="round"></path></g><g data-z-index="0.1" class="highcharts-markers highcharts-series-0 highcharts-spline-series highcharts-color-0 " transform="translate(46,63) scale(1 1)" clip-path="none"></g></g><text x="300" text-anchor="middle" class="highcharts-title" data-z-index="4" style="color:#333333;font-size:18px;fill:#333333;" y="24"><tspan>Blood Pressure Over Time</tspan></text><text x="300" text-anchor="middle" class="highcharts-subtitle" data-z-index="4" style="color:#666666;fill:#666666;" y="46"><tspan>This chart shows how your Blood Pressure changes over time.</tspan></text><g class="highcharts-axis-labels highcharts-xaxis-labels " data-z-index="7"><text x="128.79092110433" style="color:#666666;cursor:default;font-size:11px;fill:#666666;" text-anchor="middle" transform="translate(0,0)" y="381" opacity="1">2014</text><text x="222.651416122" style="color:#666666;cursor:default;font-size:11px;fill:#666666;" text-anchor="middle" transform="translate(0,0)" y="381" opacity="1">2015</text><text x="316.51191113968" style="color:#666666;cursor:default;font-size:11px;fill:#666666;" text-anchor="middle" transform="translate(0,0)" y="381" opacity="1">2016</text><text x="410.62955819851" style="color:#666666;cursor:default;font-size:11px;fill:#666666;" text-anchor="middle" transform="translate(0,0)" y="381" opacity="1">2017</text><text x="504.49005321619" style="color:#666666;cursor:default;font-size:11px;fill:#666666;" text-anchor="middle" transform="translate(0,0)" y="381" opacity="1">2018</text></g><g class="highcharts-axis-labels highcharts-yaxis-labels " data-z-index="7"><text x="31" style="color:#666666;cursor:default;font-size:11px;fill:#666666;" text-anchor="end" transform="translate(0,0)" y="366" opacity="1">60</text><text x="31" style="color:#666666;cursor:default;font-size:11px;fill:#666666;" text-anchor="end" transform="translate(0,0)" y="306" opacity="1">70</text><text x="31" style="color:#666666;cursor:default;font-size:11px;fill:#666666;" text-anchor="end" transform="translate(0,0)" y="246" opacity="1">80</text><text x="31" style="color:#666666;cursor:default;font-size:11px;fill:#666666;" text-anchor="end" transform="translate(0,0)" y="186" opacity="1">90</text><text x="31" style="color:#666666;cursor:default;font-size:11px;fill:#666666;" text-anchor="end" transform="translate(0,0)" y="126" opacity="1">100</text><text x="31" style="color:#666666;cursor:default;font-size:11px;fill:#666666;" text-anchor="end" transform="translate(0,0)" y="67" opacity="1">110</text></g><a xlink:href="https://quantimo.do" target="_blank">
                    <text x="590" class="highcharts-credits" text-anchor="end" data-z-index="8"
                          style="cursor:pointer;color:#999999;font-size:9px;fill:#999999;" y="395">https://quantimo.do
                    </text>
                </a></svg>