<?xml version="1.0" standalone="no"?><!DOCTYPE svg PUBLIC "-//W3C//DTD SVG 1.1//EN" "http://www.w3.org/Graphics/SVG/1.1/DTD/svg11.dtd"><svg xmlns:xlink="http://www.w3.org/1999/xlink" version="1.1" class="highcharts-root" style="font-family:&quot;Lucida Grande&quot;, &quot;Lucida Sans Unicode&quot;, Arial, Helvetica, sans-serif;font-size:12px;" xmlns="http://www.w3.org/2000/svg" width="600" height="400"><desc>Created with Highstock 6.2.0</desc><defs><clipPath id="highcharts-8gf7vuv-148"><rect x="0" y="0" width="551" height="299" fill="none"></rect></clipPath><clipPath id="highcharts-8gf7vuv-290"><rect x="0" y="0" width="551" height="299" fill="none"></rect></clipPath><clipPath id="highcharts-8gf7vuv-291"><rect x="39" y="63" width="551" height="299" fill="none"></rect></clipPath></defs><rect fill="#ffffff" class="highcharts-background" x="0" y="0" width="600" height="400" rx="0" ry="0"></rect><rect fill="none" class="highcharts-plot-background" x="39" y="63" width="551" height="299"></rect><g class="highcharts-pane-group" data-z-index="0"></g><g class="highcharts-grid highcharts-xaxis-grid " data-z-index="1"><path fill="none" data-z-index="1" class="highcharts-grid-line" d="M 75.5 63 L 75.5 362" opacity="1"></path><path fill="none" data-z-index="1" class="highcharts-grid-line" d="M 194.5 63 L 194.5 362" opacity="1"></path><path fill="none" data-z-index="1" class="highcharts-grid-line" d="M 314.5 63 L 314.5 362" opacity="1"></path><path fill="none" data-z-index="1" class="highcharts-grid-line" d="M 430.5 63 L 430.5 362" opacity="1"></path><path fill="none" data-z-index="1" class="highcharts-grid-line" d="M 549.5 63 L 549.5 362" opacity="1"></path></g><g class="highcharts-grid highcharts-yaxis-grid " data-z-index="1"><path fill="none" stroke="#e6e6e6" stroke-width="1" data-z-index="1" class="highcharts-grid-line" d="M 39 362.5 L 590 362.5" opacity="1"></path><path fill="none" stroke="#e6e6e6" stroke-width="1" data-z-index="1" class="highcharts-grid-line" d="M 39 287.5 L 590 287.5" opacity="1"></path><path fill="none" stroke="#e6e6e6" stroke-width="1" data-z-index="1" class="highcharts-grid-line" d="M 39 213.5 L 590 213.5" opacity="1"></path><path fill="none" stroke="#e6e6e6" stroke-width="1" data-z-index="1" class="highcharts-grid-line" d="M 39 138.5 L 590 138.5" opacity="1"></path><path fill="none" stroke="#e6e6e6" stroke-width="1" data-z-index="1" class="highcharts-grid-line" d="M 39 62.5 L 590 62.5" opacity="1"></path></g><rect fill="none" class="highcharts-plot-border" data-z-index="1" x="39" y="63" width="551" height="299"></rect><g class="highcharts-axis highcharts-xaxis " data-z-index="2"><path fill="none" class="highcharts-tick" stroke="#ccd6eb" stroke-width="1" d="M 75.5 362 L 75.5 372" opacity="1"></path><path fill="none" class="highcharts-tick" stroke="#ccd6eb" stroke-width="1" d="M 194.5 362 L 194.5 372" opacity="1"></path><path fill="none" class="highcharts-tick" stroke="#ccd6eb" stroke-width="1" d="M 314.5 362 L 314.5 372" opacity="1"></path><path fill="none" class="highcharts-tick" stroke="#ccd6eb" stroke-width="1" d="M 430.5 362 L 430.5 372" opacity="1"></path><path fill="none" class="highcharts-tick" stroke="#ccd6eb" stroke-width="1" d="M 549.5 362 L 549.5 372" opacity="1"></path><path fill="none" class="highcharts-axis-line" stroke="#ccd6eb" stroke-width="1" data-z-index="7" d="M 39 362.5 L 590 362.5"></path></g><g class="highcharts-axis highcharts-yaxis " data-z-index="2"><path fill="none" class="highcharts-axis-line" data-z-index="7" d="M 39 63 L 39 362"></path></g><g class="highcharts-series-group" data-z-index="3"><g data-z-index="0.1" class="highcharts-series highcharts-series-0 highcharts-spline-series highcharts-color-0 " transform="translate(39,63) scale(1 1)" clip-path="url(#highcharts-8gf7vuv-290)"><path fill="none" d="M 5.4019607843137 299 C 5.4019607843137 299 7.7170868347339 299 9.2605042016807 299 C 10.80392156862762 299 11.57563025210108 299 13.119047619048 299 C 14.662464985994799 299 15.4341736694682 299 16.977591036415 299 C 18.521008403361797 299 19.2927170868352 299 20.836134453782 299 C 22.379551820728402 299 23.1512605042016 299 24.694677871148 299 C 26.238095238094797 299 27.0098039215682 299 28.553221288515 299 C 30.0966386554618 299 30.8683473389352 299 32.411764705882 299 C 33.955182072828805 299 34.726890756302204 299 36.270308123249 299 C 37.8137254901958 299 38.5854341736692 299 40.128851540616 299 C 41.672268907562795 299 42.4439775910362 299 43.987394957983 299 C 45.530812324929805 299 46.302521008403204 299 47.84593837535 299 C 49.3893557422968 299 50.1610644257702 299 51.704481792717 299 C 53.2478991596638 299 54.0196078431372 299 55.563025210084 299 C 57.106442577030805 299 57.878151260504204 299 59.421568627451 299 C 60.96498599439781 299 61.7366946778712 299 63.280112044818 299 C 64.8235294117648 299 65.5952380952382 299 67.138655462185 299 C 68.6820728291318 299 69.4537815126052 299 70.997198879552 299 C 72.5406162464988 299 73.3123249299722 299 74.855742296919 299 C 76.3991596638658 299 77.17086834733921 299 78.714285714286 299 C 80.2577030812328 299 81.0294117647062 299 82.572829131653 299 C 84.11624649859979 299 84.88795518207318 299 86.43137254902 299 C 87.9747899159668 299 88.7464985994402 299 90.289915966387 299 C 91.8333333333338 299 92.60504201680719 299 94.148459383754 299 C 95.6918767507004 299 96.4635854341736 299 98.00700280112 299 C 99.55042016806799 299 100.32212885154199 299 101.86554621849 299 C 103.40896358543401 299 104.18067226890601 299 105.72408963585 299 C 107.267507002798 299 108.039215686272 299 109.58263305322 299 C 111.12605042016799 299 111.89775910364199 299 113.44117647059 299 C 114.984593837538 299 115.756302521012 299 117.29971988796 299 C 118.843137254904 299 119.61484593837599 284.05 121.15826330532 284.05 C 122.701680672268 284.05 123.473389355742 299 125.01680672269 299 C 126.560224089638 299 127.331932773112 299 128.87535014006 299 C 130.418767507004 299 131.190476190476 299 132.73389355742 299 C 134.277310924368 299 135.049019607842 299 136.59243697479 299 C 138.13585434173802 299 138.907563025212 299 140.45098039216 299 C 141.994397759104 299 142.766106442576 299 144.30952380952 299 C 146.738262527232 299 147.952631886088 284.05 150.3813706038 284.05 C 151.039466619984 284.05 151.36851462807599 299 152.02661064426 299 C 153.570028011204 299 154.341736694676 299 155.88515406162 299 C 157.42857142856798 299 158.20028011204198 299 159.74369747899 299 C 161.287114845938 299 162.058823529412 299 163.60224089636 299 C 165.145658263308 299 165.917366946782 299 167.46078431373 299 C 169.004201680674 299 169.775910364146 299 171.31932773109 299 C 172.86274509803803 299 173.634453781512 299 175.17787114846 299 C 176.72128851540802 299 177.492997198882 299 179.03641456583 299 C 180.579831932774 299 181.351540616246 299 182.89495798319 284.05 C 184.438375350138 269.1 185.210084033612 214.28333333333333 186.75350140056 214.28333333333333 C 188.29691876750798 214.28333333333333 189.068627450982 217.995916666661 190.61204481793 222.38125000000002 C 192.155462184874 226.76658333332767 192.927170868346 236.21 194.47058823529 236.21 C 196.014005602238 236.21 196.785714285712 224.25 198.32913165266 224.25 C 199.87254901960802 224.25 200.64425770308202 281.06 202.18767507003 281.06 C 203.751456971678 281.06 204.53334792250197 74.75 206.09712982415 74.75 C 208.09071058978998 74.75 209.08750097261 254.15000000000003 211.08108173825 269.1 C 212.153971171802 284.05 212.690415888578 284.05 213.76330532213 284.05 C 215.30672268907801 284.05 216.078431372552 280.3125 217.6218487395 280.3125 C 219.165266106444 280.3125 219.93697478991598 280.3125 221.48039215686 280.3125 C 223.02380952380798 280.3125 223.79551820728202 280.3125 225.33893557423 280.3125 C 226.88235294117803 280.3125 227.65406162465197 278.44375 229.1974789916 278.44375 C 230.74089635854398 278.44375 231.512605042016 299 233.05602240896 299 C 234.59943977590802 299 235.371148459382 282.555 236.91456582633 276.575 C 238.457983193278 270.595 239.22969187675199 269.1 240.7731092437 269.1 C 242.78705454404 269.1 243.79402719421 272.6734652777804 245.80797249455 276.575 C 246.880861928102 278.65346527778036 247.417306644878 284.05 248.49019607843 284.05 C 250.03361344537797 284.05 250.805322128852 269.1 252.3487394958 269.1 C 253.892156862748 269.1 254.66386554622198 277.8208333333333 256.20728291317 279.06666666666666 C 257.75070028011396 280.3125 258.522408963586 279.06666666666666 260.06582633053 280.3125 C 261.609243697478 281.55833333333334 262.380952380952 286.5416666666667 263.9243697479 286.5416666666667 C 265.46778711484797 286.5416666666667 266.23949579832197 285.295833333335 267.78291316527 284.05 C 269.326330532214 282.80416666666827 270.098039215686 281.6097582103024 271.64145658263 280.3125 C 273.655401882974 278.6197582103024 274.662374533146 279.11411268454356 276.67631983349 276.575 C 278.21973720043803 274.62911268454354 278.991445883912 272.0900000000039 280.53486325086 269.1 C 282.078280617804 266.1100000000039 282.84998930127597 261.625 284.39340666822 261.625 C 285.936824035168 261.625 286.708532718642 284.05 288.25195008559 284.05 C 289.795367452538 284.05 290.567076136012 261.625 292.11049350296 261.625 C 293.18338293650805 261.625 293.71982765328204 299 294.79271708683 299 C 296.806662387174 299 297.813635037346 269.1 299.82758033769 269.1 C 300.900469771242 269.1 301.43691448801803 299 302.50980392157 299 C 304.52374922191 299 305.53072187208 279.25645073816577 307.54466717242 269.1 C 309.08808453936797 261.3164507381657 309.85979322284203 254.15 311.40321058979 254.15 C 312.476100023342 254.15 313.012544740118 299 314.08543417367 299 C 315.62885154061803 299 316.400560224092 269.1 317.94397759104 269.1 C 319.487394957984 269.1 320.259103641456 299 321.8025210084 299 C 323.816466308744 299 324.823438958916 254.15 326.83738425926 254.15 C 327.910273692812 254.15 328.446718409588 279.06666666666666 329.51960784314 281.55833333333334 C 331.53355314348 284.05 332.54052579365 284.05 334.55447109399 284.05 C 335.627360527542 284.05 336.163805244318 284.05 337.23669467787 284.05 C 338.780112044818 284.05 339.551820728292 284.05 341.09523809524 284.05 C 342.638655462188 284.05 343.410364145662 281.55833333333334 344.95378151261 281.55833333333334 C 347.224963040774 281.55833333333334 348.360553804856 284.05 350.63173533302 284.05 C 351.447388538748 284.05 351.855215141612 284.05 352.67086834734 284.05 C 354.21428571428794 284.05 354.985994397762 299 356.52941176471 299 C 358.072829131654 299 358.84453781512605 281.55833333333334 360.38795518207 281.55833333333334 C 361.93137254901796 281.55833333333334 362.70308123249197 281.55833333333334 364.24649859944 281.55833333333334 C 365.789915966388 281.55833333333334 366.561624649862 299 368.10504201681 299 C 370.11898731715 299 371.12595996732 254.15 373.13990526766 254.15 C 374.21279470121203 254.15 374.74923941798795 299 375.82212885154 299 C 377.83607415188396 299 378.843046802056 261.625 380.8569921024 261.625 C 381.92988153594797 261.625 382.466326252722 299 383.53921568627 299 C 385.553160986614 299 386.560133636786 269.1 388.57407893713 269.1 C 390.11749630407803 269.1 390.88920498755203 276.575 392.4326223545 276.575 C 393.97603972144395 276.575 394.747748404916 276.575 396.29116577186 276.575 C 397.364055205412 276.575 397.90049992218803 299 398.97338935574 299 C 400.516806722688 299 401.288515406162 299 402.83193277311 299 C 404.84587807345395 299 405.852850723626 279.25645073818566 407.86679602397 269.1 C 409.410213390914 261.3164507381856 410.18192207438597 254.15 411.72533944133 254.15 C 413.268756808278 254.15 414.040465491752 261.625 415.5838828587 261.625 C 417.127300225648 261.625 417.899008909122 254.15 419.44242627607 254.15 C 420.51531570961805 254.15 421.051760426392 299 422.12464985994 299 C 424.13859516028396 299 425.14556781045604 254.15 427.1595131108 254.15 C 428.70293047774805 254.15 429.47463916122194 258.51679639490345 431.01805652817 269.1 C 432.090945961718 276.4567963949035 432.62739067849196 299 433.70028011204 299 C 435.243697478988 299 436.015406162462 299 437.55882352941 299 C 439.102240896358 299 439.87394957983196 299 441.41736694678 299 C 442.96078431372797 299 443.73249299720203 299 445.27591036415 299 C 446.819327731094 299 447.59103641456596 299 449.13445378151 299 C 450.67787114845794 299 451.449579831932 299 452.99299719888 299 C 454.536414565828 299 455.308123249302 299 456.85154061625 299 C 458.39495798319405 299 459.16666666666595 299 460.71008403361 299 C 462.253501400558 299 463.025210084032 299 464.56862745098 299 C 466.112044817928 299 466.88375350140194 299 468.42717086835 299 C 469.97058823529403 299 470.742296918766 299 472.28571428571 299 C 473.829131652658 299 474.600840336132 299 476.14425770308 299 C 477.6876750700279 299 478.459383753502 299 480.00280112045 299 C 481.546218487398 299 482.317927170872 299 483.86134453782 299 C 485.40476190476403 299 486.17647058823604 299 487.71988795518 299 C 489.2633053221281 299 490.03501400560197 299 491.57843137255 299 C 493.121848739498 299 493.89355742297204 299 495.43697478992 299 C 496.980392156864 299 497.75210084033597 299 499.29551820728 299 C 500.838935574228 299 501.610644257702 299 503.15406162465 299 C 504.697478991598 299 505.469187675072 299 507.01260504202 299 C 508.55602240896405 299 509.327731092436 299 510.87114845938 299 C 512.414565826328 299 513.186274509802 299 514.72969187675 299 C 516.273109243698 299 517.044817927172 299 518.58823529412 299 C 520.131652661064 299 520.9033613445359 299 522.44677871148 299 C 523.990196078428 299 524.761904761902 299 526.30532212885 299 C 527.848739495798 299 528.620448179272 299 530.16386554622 299 C 531.707282913168 299 532.478991596642 299 534.02240896359 299 C 535.565826330534 299 536.3375350140061 299 537.88095238095 299 C 539.424369747898 299 540.196078431372 299 541.73949579832 299 C 543.282913165268 299 545.59803921569 299 545.59803921569 299" class="highcharts-graph" data-z-index="1" stroke="#000000" stroke-width="2" stroke-linejoin="round" stroke-linecap="round"></path></g><g data-z-index="0.1" class="highcharts-markers highcharts-series-0 highcharts-spline-series highcharts-color-0 " transform="translate(39,63) scale(1 1)" clip-path="none"></g></g><text x="300" text-anchor="middle" class="highcharts-title" data-z-index="4" style="color:#333333;font-size:18px;fill:#333333;" y="24"><tspan>SuIfamethoxazole THP DS Over Time</tspan></text><text x="300" text-anchor="middle" class="highcharts-subtitle" data-z-index="4" style="color:#666666;fill:#666666;" y="46"><tspan>This chart shows how your SuIfamethoxazole THP DS changes over time.</tspan></text><g class="highcharts-axis-labels highcharts-xaxis-labels " data-z-index="7"><text x="75.642764744787" style="color:#666666;cursor:default;font-size:11px;fill:#666666;" text-anchor="middle" transform="translate(0,0)" y="381" opacity="1"><tspan>Jul '13</tspan></text><text x="195.25761068316" style="color:#666666;cursor:default;font-size:11px;fill:#666666;" text-anchor="middle" transform="translate(0,0)" y="381" opacity="1"><tspan>Aug '13</tspan></text><text x="314.87245662154" style="color:#666666;cursor:default;font-size:11px;fill:#666666;" text-anchor="middle" transform="translate(0,0)" y="381" opacity="1"><tspan>Sep '13</tspan></text><text x="430.62875914255" style="color:#666666;cursor:default;font-size:11px;fill:#666666;" text-anchor="middle" transform="translate(0,0)" y="381" opacity="1"><tspan>Oct '13</tspan></text><text x="550.24360508092" style="color:#666666;cursor:default;font-size:11px;fill:#666666;" text-anchor="middle" transform="translate(0,0)" y="381" opacity="1"><tspan>Nov '13</tspan></text></g><g class="highcharts-axis-labels highcharts-yaxis-labels " data-z-index="7"><text x="24" style="color:#666666;cursor:default;font-size:11px;fill:#666666;" text-anchor="end" transform="translate(0,0)" y="366" opacity="1">0</text><text x="24" style="color:#666666;cursor:default;font-size:11px;fill:#666666;" text-anchor="end" transform="translate(0,0)" y="291" opacity="1">5</text><text x="24" style="color:#666666;cursor:default;font-size:11px;fill:#666666;" text-anchor="end" transform="translate(0,0)" y="216" opacity="1">10</text><text x="24" style="color:#666666;cursor:default;font-size:11px;fill:#666666;" text-anchor="end" transform="translate(0,0)" y="141" opacity="1">15</text><text x="24" style="color:#666666;cursor:default;font-size:11px;fill:#666666;" text-anchor="end" transform="translate(0,0)" y="67" opacity="1">20</text></g><a xlink:href="https://quantimo.do" target="_blank">
                    <text x="590" class="highcharts-credits" text-anchor="end" data-z-index="8"
                          style="cursor:pointer;color:#999999;font-size:9px;fill:#999999;" y="395">https://quantimo.do
                    </text>
                </a></svg>