<?xml version="1.0" standalone="no"?><!DOCTYPE svg PUBLIC "-//W3C//DTD SVG 1.1//EN" "http://www.w3.org/Graphics/SVG/1.1/DTD/svg11.dtd"><svg xmlns:xlink="http://www.w3.org/1999/xlink" version="1.1" class="highcharts-root" style="font-family:&quot;Lucida Grande&quot;, &quot;Lucida Sans Unicode&quot;, Arial, Helvetica, sans-serif;font-size:12px;" xmlns="http://www.w3.org/2000/svg" width="600" height="400"><desc>Created with Highstock 6.2.0</desc><defs><clipPath id="highcharts-zmikxpj-260"><rect x="0" y="0" width="537" height="299" fill="none"></rect></clipPath><clipPath id="highcharts-zmikxpj-514"><rect x="0" y="0" width="537" height="299" fill="none"></rect></clipPath><clipPath id="highcharts-zmikxpj-515"><rect x="53" y="63" width="537" height="299" fill="none"></rect></clipPath></defs><rect fill="#ffffff" class="highcharts-background" x="0" y="0" width="600" height="400" rx="0" ry="0"></rect><rect fill="none" class="highcharts-plot-background" x="53" y="63" width="537" height="299"></rect><g class="highcharts-pane-group" data-z-index="0"></g><g class="highcharts-grid highcharts-xaxis-grid " data-z-index="1"><path fill="none" data-z-index="1" class="highcharts-grid-line" d="M 82.5 63 L 82.5 362" opacity="1"></path><path fill="none" data-z-index="1" class="highcharts-grid-line" d="M 198.5 63 L 198.5 362" opacity="1"></path><path fill="none" data-z-index="1" class="highcharts-grid-line" d="M 315.5 63 L 315.5 362" opacity="1"></path><path fill="none" data-z-index="1" class="highcharts-grid-line" d="M 431.5 63 L 431.5 362" opacity="1"></path><path fill="none" data-z-index="1" class="highcharts-grid-line" d="M 546.5 63 L 546.5 362" opacity="1"></path></g><g class="highcharts-grid highcharts-yaxis-grid " data-z-index="1"><path fill="none" stroke="#e6e6e6" stroke-width="1" data-z-index="1" class="highcharts-grid-line" d="M 53 362.5 L 590 362.5" opacity="1"></path><path fill="none" stroke="#e6e6e6" stroke-width="1" data-z-index="1" class="highcharts-grid-line" d="M 53 302.5 L 590 302.5" opacity="1"></path><path fill="none" stroke="#e6e6e6" stroke-width="1" data-z-index="1" class="highcharts-grid-line" d="M 53 242.5 L 590 242.5" opacity="1"></path><path fill="none" stroke="#e6e6e6" stroke-width="1" data-z-index="1" class="highcharts-grid-line" d="M 53 183.5 L 590 183.5" opacity="1"></path><path fill="none" stroke="#e6e6e6" stroke-width="1" data-z-index="1" class="highcharts-grid-line" d="M 53 123.5 L 590 123.5" opacity="1"></path><path fill="none" stroke="#e6e6e6" stroke-width="1" data-z-index="1" class="highcharts-grid-line" d="M 53 62.5 L 590 62.5" opacity="1"></path></g><rect fill="none" class="highcharts-plot-border" data-z-index="1" x="53" y="63" width="537" height="299"></rect><g class="highcharts-axis highcharts-xaxis " data-z-index="2"><path fill="none" class="highcharts-tick" stroke="#ccd6eb" stroke-width="1" d="M 82.5 362 L 82.5 372" opacity="1"></path><path fill="none" class="highcharts-tick" stroke="#ccd6eb" stroke-width="1" d="M 198.5 362 L 198.5 372" opacity="1"></path><path fill="none" class="highcharts-tick" stroke="#ccd6eb" stroke-width="1" d="M 315.5 362 L 315.5 372" opacity="1"></path><path fill="none" class="highcharts-tick" stroke="#ccd6eb" stroke-width="1" d="M 431.5 362 L 431.5 372" opacity="1"></path><path fill="none" class="highcharts-tick" stroke="#ccd6eb" stroke-width="1" d="M 546.5 362 L 546.5 372" opacity="1"></path><path fill="none" class="highcharts-axis-line" stroke="#ccd6eb" stroke-width="1" data-z-index="7" d="M 53 362.5 L 590 362.5"></path></g><g class="highcharts-axis highcharts-yaxis " data-z-index="2"><path fill="none" class="highcharts-axis-line" data-z-index="7" d="M 53 63 L 53 362"></path></g><g class="highcharts-series-group" data-z-index="3"><g data-z-index="0.1" class="highcharts-series highcharts-series-0 highcharts-spline-series highcharts-color-0 " transform="translate(53,63) scale(1 1)" clip-path="url(#highcharts-zmikxpj-514)"><path fill="none" d="M 5.2647058823529 198.0576 C 5.2647058823529 198.0576 6.40080306062178 236.09040000000002 7.1582011794677 237.7648 C 7.91559929831362 239.4392 8.29429835773658 239.4392 9.0516964765825 239.4392 C 9.8090945954283 239.4392 10.1877936548512 174.616 10.945191773697 162.1776 C 11.702589892543 149.7392 12.081288951965998 149.7392 12.838687070812 149.7392 C 13.596085189658002 149.7392 13.974784249081 149.7392 14.732182367927 152.8488 C 15.489580486773002 155.9584 15.868279546196002 193.0344 16.625677665042 193.0344 C 17.383075783888 193.0344 17.761774843311002 151.89200000000002 18.519172962157 138.4968 C 19.2765710810026 125.10159999999999 19.6552701404254 138.4968 20.412668259271 125.10159999999999 C 21.170066378117003 111.70639999999997 21.548765437540002 23.441599999999994 22.306163556386 23.441599999999994 C 23.063561675232002 23.441599999999994 23.442260734654997 144.9552 24.199658853501 144.9552 C 24.957056972346997 144.9552 25.33575603177 88.98240000000001 26.093154150616 88.98240000000001 C 26.850552269462003 88.98240000000001 27.229251328885006 135.8656 27.986649447731 135.8656 C 28.744047566576604 135.8656 29.1227466259994 72.95600000000002 29.880144744845 72.95600000000002 C 30.637542863691 72.95600000000002 31.016241923114002 72.95600000000002 31.77364004196 75.1088 C 32.531038160806006 77.26159999999999 32.909737220229 188.01120000000003 33.667135339075 188.7288 C 34.424533457921 189.44639999999998 34.803232517344 189.06367999999998 35.56063063619 189.44639999999998 C 36.318028755035996 189.82912 36.696727814459 190.6424 37.454125933305 190.6424 C 38.21152405215061 190.6424 38.5902231115734 123.18800000000002 39.347621230419 123.18800000000002 C 40.105019349265 123.18800000000002 40.483718408688006 147.92128000000017 41.241116527534 164.3304 C 41.99851464638 180.73952000000014 42.377213705803 205.2336 43.134611824649 205.2336 C 43.892009943495 205.2336 44.270709002918 167.9184 45.028107121764 167.9184 C 45.78550524060999 167.9184 46.164204300033 196.8616 46.921602418879 196.8616 C 47.6790005377246 196.8616 48.05769959714739 184.9016 48.815097715993 184.9016 C 49.572495834838996 184.9016 49.951194894262 189.68560000000002 50.708593013108 189.68560000000002 C 51.465991131954 189.68560000000002 51.844690191377005 183.46640000000002 52.602088310223 183.46640000000002 C 53.359486429069 183.46640000000002 53.738185488492 192.55599999999998 54.495583607338 192.55599999999998 C 55.252981726184 192.55599999999998 55.631680785607 186.145440000001 56.389078904453 182.2704 C 57.1464770232986 178.39536000000103 57.525176082721394 173.1808 58.282574201567 173.1808 C 59.03997232041299 173.1808 59.418671379836 196.14399999999998 60.176069498682 196.3832 C 60.933467617527995 196.6224 61.31216667695101 196.3832 62.069564795797 196.6224 C 62.826962914643005 196.8616 63.205661974066004 207.62560000000002 63.963060092912 207.62560000000002 C 64.720458211758 207.62560000000002 65.099157271181 186.8152 65.856555390027 186.8152 C 66.6139535088726 186.8152 66.9926525682954 195.18719999999996 67.750050687141 195.66559999999998 C 68.507448805987 196.144 68.88614786541 196.144 69.643545984256 196.144 C 70.400944103102 196.144 70.779643162525 192.79520000000002 71.537041281371 192.79520000000002 C 72.294439400217 192.79520000000002 72.67313845964 194.61312 73.430536578486 197.57920000000001 C 74.187934697332 200.54528000000002 74.566633756755 207.62560000000002 75.324031875601 207.62560000000002 C 76.0814299944466 207.62560000000002 76.4601290538694 201.16719999999907 77.217527172715 197.57920000000001 C 77.974925291561 193.99119999999905 78.353624350984 192.50816000000003 79.11102246983 189.68560000000002 C 79.868420588676 186.86304 80.247119648099 183.46640000000002 81.004517766945 183.46640000000002 C 81.761915885791 183.46640000000002 82.140614945214 187.05440000000004 82.89801306406 188.7288 C 83.65541118290601 190.40320000000003 84.034110242329 191.8384 84.791508361175 191.8384 C 85.5489064800206 191.8384 85.9276055394434 191.55135999999996 86.685003658289 191.36 C 87.442401777135 191.16863999999995 87.821100836558 190.8816 88.578498955404 190.8816 C 89.33589707424998 190.8816 89.714596133673 191.88624 90.471994252519 192.55599999999998 C 91.229392371365 193.22575999999998 91.608091430788 192.55599999999998 92.365489549634 194.2304 C 93.12288766848 195.90480000000002 93.501586727903 220.5424 94.258984846749 224.3696 C 95.0163829655946 228.1968 95.3950820250174 228.1968 96.152480143863 228.1968 C 96.909878262709 228.1968 97.288577322132 216.7152 98.045975440978 215.9976 C 98.803373559824 215.28 99.182072619247 215.9976 99.939470738093 215.28 C 100.6968688569398 214.5624 101.07556791636321 204.7552 101.83296603521 204.7552 C 102.59036415405401 204.7552 102.969063213476 210.49599999999998 103.72646133232 210.49599999999998 C 104.483859451168 210.49599999999998 104.862558510592 207.62560000000002 105.61995662944 207.62560000000002 C 106.377354748284 207.62560000000002 106.75605380770598 208.29536000000326 107.51345192655 209.5392 C 108.27085004539799 210.78304000000327 108.64954910482201 213.84480000000002 109.40694722367 213.84480000000002 C 110.164345342514 213.84480000000002 110.543044401936 213.84480000000002 111.30044252078 213.12720000000002 C 112.05784063962798 212.4096 112.43653969905199 204.2768 113.1939378179 204.2768 C 115.46613217443601 204.2768 116.60222935270401 207.43424000000294 118.87442370924 210.73520000000002 C 119.63182182808801 211.83552000000293 120.010520887512 215.28 120.76791900636 215.28 C 121.525317125204 215.28 121.90401618462599 198.536 122.66141430347 198.536 C 123.418812422318 198.536 123.797511481742 207.62560000000002 124.55490960059 207.62560000000002 C 125.31230771943399 207.62560000000002 125.69100677885599 184.42320000000004 126.4484048977 183.46640000000002 C 127.205803016544 182.5096 127.584502075966 182.5096 128.34190019481 182.5096 C 129.09929831365798 182.5096 129.47799737308202 206.6688 130.23539549193 206.6688 C 130.99279361077402 206.6688 131.371492670196 181.3136 132.12889078904 181.3136 C 132.886288907888 181.3136 133.264987967312 206.42960000000005 134.02238608616 210.01760000000002 C 134.77978420500398 213.60559999999998 135.15848326442602 211.69200000000504 135.91588138327 213.60559999999998 C 136.673279502118 215.51920000000504 137.051978561542 219.5856 137.80937668039 219.5856 C 138.566774799234 219.5856 138.945473858656 203.32 139.7028719775 203.32 C 140.46027009634798 203.32 140.83896915577202 214.8016 141.59636727462 214.8016 C 142.35376539346402 214.8016 142.732464452886 199.63631999998432 143.48986257173 193.752 C 144.247260690578 187.86767999998432 144.62595975000198 187.0544 145.38335786885 185.38 C 146.140755987694 183.7056 146.519455047116 183.7056 147.27685316596 183.7056 C 148.034251284808 183.7056 148.412950344232 207.8648 149.17034846308 207.8648 C 149.92774658192397 207.8648 150.306445641346 203.0808 151.06384376019 203.0808 C 151.821241879038 203.0808 152.199940938462 215.5192 152.95733905731 215.5192 C 153.714737176154 215.5192 154.093436235576 191.5992 154.85083435442 191.5992 C 160.910019305188 191.5992 163.939611780572 218.868 169.99879673134 218.868 C 170.75619485018802 218.868 171.134893909612 212.2660800000059 171.89229202846 210.01760000000002 C 172.649690147304 207.76912000000593 173.028389206726 209.39568000000006 173.78578732557 207.62560000000002 C 174.54318544441398 205.85552000000004 174.921884503836 201.1672 175.67928262268 201.1672 C 176.436680741528 201.1672 176.815379800952 206.71663999999507 177.5727779198 208.5824 C 178.33017603864397 210.44815999999506 178.70887509806602 209.77840000000188 179.46627321691 210.49599999999998 C 180.223671335758 211.21360000000192 180.602370395182 211.69199999999876 181.35976851403 212.1704 C 182.117166632874 212.64879999999872 182.495865692296 212.1704 183.25326381114 212.888 C 184.010661929988 213.6056 184.38936098941198 236.3296 185.14675910826 236.3296 C 185.904157227104 236.3296 186.28285628652603 233.124319999992 187.04025440537 230.1104 C 187.797652524218 227.09647999999203 188.176351583642 224.56096000000866 188.93374970249 221.26 C 189.691147821334 217.95904000000866 190.069846880756 213.60559999999998 190.8272449996 213.60559999999998 C 191.584643118448 213.60559999999998 191.963342177872 223.4128 192.72074029672 223.4128 C 193.478138415564 223.4128 193.85683747498598 206.1904 194.61423559383 206.1904 C 195.37163371267798 206.1904 195.750332772102 207.62559999998746 196.50773089095 212.4096 C 197.265129009794 217.19359999998744 197.643828069216 229.8712 198.40122618806 230.1104 C 199.158624306908 230.3496 199.53732336633203 230.1104 200.29472148518 230.3496 C 201.052119604024 230.58880000000002 201.430818663446 230.3496 202.18821678229 231.3064 C 202.945614901138 232.26319999999998 203.32431396056202 240.39600000000002 204.08171207941 240.39600000000002 C 204.839110198254 240.39600000000002 205.21780925767598 228.9144 205.97520737652 228.9144 C 206.73260549536798 228.9144 207.111304554792 239.4392 207.86870267364 239.4392 C 208.626100792484 239.4392 209.004799851906 222.6952 209.76219797075 222.6952 C 210.519596089598 222.6952 210.89829514902198 227.4792 211.65569326787 227.4792 C 212.413091386714 227.4792 212.79179044613602 225.3264 213.54918856498 225.3264 C 214.30658668382802 225.3264 214.685285743252 227.62271999999592 215.4426838621 229.15359999999998 C 216.20008198094402 230.68447999999592 216.57878104036598 232.9808 217.33617915921 232.9808 C 218.093577278058 232.9808 218.472276337482 215.28 219.22967445633 215.28 C 219.98707257517398 215.28 220.365771634596 215.28 221.12316975344 215.7584 C 221.88056787228396 216.2368 222.259266931706 223.89120000001006 223.01666505055 227.7184 C 223.77406316939795 231.54560000001004 224.15276222882204 234.89440000000002 224.91016034767 234.89440000000002 C 225.66755846651404 234.89440000000002 226.04625752593603 234.416 226.80365564478 234.416 C 227.56105376362797 234.416 227.939752823052 240.8744 228.6971509419 240.8744 C 229.454549060744 240.8744 229.833248120166 228.1968 230.59064623901 228.1968 C 231.348044357858 228.1968 231.72674341728202 234.6552 232.48414153613 234.6552 C 233.241539654974 234.6552 233.620238714396 206.6688 234.37763683324 206.6688 C 235.13503495208798 206.6688 235.51373401151199 227.9576 236.27113213036 227.9576 C 237.028530249204 227.9576 237.40722930862603 223.4128 238.16462742747 222.6952 C 238.922025546318 221.9776 239.300724605742 221.9776 240.05812272459 221.9776 C 240.81552084343397 221.9776 241.194219902856 241.1136 241.9516180217 241.1136 C 242.70901614054802 241.1136 243.087715199972 239.4392 243.84511331882 239.4392 C 244.602511437664 239.4392 244.981210497086 254.0304 245.73860861593 254.0304 C 246.49600673477798 254.0304 246.87470579420196 241.9428266666751 247.63210391305 237.28640000000001 C 249.14690015074197 227.97354666667513 249.90429826958797 219.1072 251.41909450728 219.1072 C 252.176492626124 219.1072 252.55519168554602 220.30320000000575 253.31258980439 222.45600000000002 C 254.06998792323802 224.60880000000574 254.448686982662 229.8712 255.20608510151 229.8712 C 255.96348322035402 229.8712 256.342182279776 223.8912 257.09958039862 223.8912 C 257.856978517468 223.8912 258.235677576892 229.8712 258.99307569574 229.8712 C 259.750473814584 229.8712 260.12917287400603 217.67200000000003 260.88657099285 214.084 C 261.643969111698 210.49599999999998 262.02266817112206 210.49599999999998 262.78006628997 210.49599999999998 C 263.537464408814 210.49599999999998 263.916163468236 218.6288 264.67356158708 218.6288 C 265.43095970592793 218.6288 265.809658765352 216.95440000000002 266.5670568842 216.95440000000002 C 267.324455003044 216.95440000000002 267.703154062466 217.81552000000013 268.46055218131 220.06400000000002 C 269.21795030015403 222.31248000000008 269.59664935957596 228.1968 270.35404747842 228.1968 C 271.111445597268 228.1968 271.490144656692 226.71376000000689 272.24754277554 224.1304 C 273.004940894384 221.5470400000069 273.38363995380604 215.28 274.14103807265 215.28 C 285.502009855342 215.28 291.182495746688 215.78829999999672 302.54346752938 234.17680000000001 C 303.300865648224 235.40269999999674 303.679564707646 263.83760000000007 304.43696282649 264.31600000000003 C 305.194360945338 264.7944 305.573060004762 264.7944 306.33045812361 264.7944 C 307.087856242454 264.7944 307.466555301876 247.6676799999762 308.22395342072 238.48239999999998 C 308.981351539568 229.2971199999762 309.36005059899196 218.868 310.11744871784 218.868 C 310.874846836684 218.868 311.25354589610595 243.7448 312.01094401495 243.7448 C 312.768342133798 243.7448 313.147041193222 174.616 313.90443931207 169.5928 C 314.661837430914 164.5696 315.040536490336 164.5696 315.79793460918 164.5696 C 316.55533272802404 164.5696 316.93403178744603 165.38288000000293 317.69142990629 166.4832 C 318.448828025138 167.58352000000295 318.827527084562 166.4832 319.58492520341 170.0712 C 320.342323322254 173.6592 320.721022381676 245.18 321.47842050052 245.18 C 322.235818619368 245.18 322.61451767879197 227.4792 323.37191579764 223.652 C 324.12931391648397 219.82479999999998 324.50801297590596 219.82479999999998 325.26541109475 219.82479999999998 C 326.02280921359795 219.82479999999998 326.401508273022 229.3928 327.15890639187 232.024 C 327.916304510714 234.6552 328.29500357013603 234.6552 329.05240168898 234.6552 C 329.809799807828 234.6552 330.188498867252 230.78016000000562 330.9458969861 228.67520000000002 C 331.703295104944 226.5702400000056 332.081994164366 225.51775999999631 332.83939228321 224.1304 C 333.596790402058 222.74303999999628 333.97548946148197 221.7384 334.73288758033 221.7384 C 335.490285699174 221.7384 335.86898475859596 229.63200000001007 336.62638287744 233.4592 C 337.383780996288 237.28640000001005 337.762480055712 240.8744 338.51987817456 240.8744 C 339.277276293404 240.8744 339.65597535282603 240.15679999999492 340.41337347167 238.2432 C 341.17077159051803 236.3295999999949 341.549470649942 238.2432 342.30686876879 231.3064 C 343.064266887634 224.3696 343.442965947056 177.96480000000003 344.2003640659 164.09120000000001 C 344.957762184748 150.2176 345.336461244172 150.2176 346.09385936302 150.2176 C 346.851257481864 150.2176 347.229956541286 209.0608 347.98735466013 209.0608 C 348.744752778978 209.0608 349.123451838402 174.8552 349.88084995725 166.7224 C 350.638248076094 158.5896 351.01694713551603 164.95231999998305 351.77434525436 158.5896 C 352.53174337320803 152.22687999998305 352.91044243263207 141.080160000016 353.66784055148 134.9088 C 354.42523867032406 128.737440000016 354.803937729746 132.51679999998743 355.56133584859 127.7328 C 356.31873396743794 122.94879999998741 356.69743302686203 110.9888 357.45483114571 110.9888 C 358.212229264554 110.9888 358.590928323976 139.88416000003835 359.34832644282 154.284 C 360.105724561668 168.68384000003834 360.484423621092 182.988 361.24182173994 182.988 C 361.999219858784 182.988 362.377918918206 149.9784 363.13531703705 149.9784 C 363.892715155894 149.9784 364.27141421531604 185.38 365.02881233416 185.38 C 365.78621045300804 185.38 366.16490951243196 173.99408000001173 366.92230763128 169.5928 C 367.67970575012396 165.19152000001174 368.058404809546 166.24399999999238 368.81580292839 163.3736 C 369.573201047238 160.50319999999235 369.95190010666204 157.58496000000608 370.70929822551 155.2408 C 371.46669634435403 152.89664000000607 371.845395403776 151.6528 372.60279352262 151.6528 C 373.360191641468 151.6528 373.738890700892 184.184 374.49628881974 184.184 C 375.253686938584 184.184 375.63238599800604 141.12800000000001 376.38978411685 141.12800000000001 C 377.147182235698 141.12800000000001 377.525881295122 145.81631999996898 378.28327941397 157.6328 C 379.04067753281396 169.44927999996895 379.41937659223595 200.2104 380.17677471108 200.2104 C 380.93417282992795 200.2104 381.31287188935204 164.80880000003344 382.0702700082 151.892 C 382.82766812704403 138.97520000003342 383.206367186466 135.6264 383.96376530531 135.6264 C 384.721163424158 135.6264 385.099862483582 142.57686857141493 385.85726060243 147.8256 C 386.646216976226 153.29302857141494 387.04069516312404 149.23639183676804 387.82965153692 162.4168 C 388.587049655768 175.06999183676805 388.965748715192 212.4096 389.72314683404 212.4096 C 390.480544952884 212.4096 390.859244012306 159.5464 391.61664213115 159.5464 C 392.374040249998 159.5464 392.75273930942205 181.4571199999768 393.51013742827 190.4032 C 394.26753554711405 199.34927999997683 394.64623460653604 197.43568000001824 395.40363272538 204.2768 C 396.16103084422804 211.11792000001824 396.539729903652 224.6088 397.2971280225 224.6088 C 398.054526141344 224.6088 398.433225200766 196.86159999999998 399.19062331961 193.9912 C 399.948021438458 191.1208 400.326720497882 191.1208 401.08411861673 191.1208 C 401.841516735574 191.1208 402.22021579499597 256.6616 402.97761391384 256.6616 C 403.73501203268796 256.6616 404.11371109211206 221.0208 404.87110921096 214.5624 C 405.62850732980405 208.10399999999998 406.00720638922604 213.41423999998602 406.76460450807 208.10399999999998 C 407.522002626918 202.79375999998604 407.900701686342 195.76128000002035 408.65809980519 188.0112 C 409.41549792403396 180.26112000002036 409.794196983456 171.50639999999999 410.5515951023 169.3536 C 411.308993221144 167.20080000000002 411.687692280566 167.20080000000002 412.44509039941 167.20080000000002 C 413.202488518258 167.20080000000002 413.581187577682 225.56560000000002 414.33858569653 225.56560000000002 C 415.095983815374 225.56560000000002 415.47468287479603 205.472799999956 416.23208099364 188.7288 C 416.98947911248797 171.984799999956 417.36817817191206 141.8456 418.12557629076 141.8456 C 418.88297440960406 141.8456 419.26167346902605 158.3504 420.01907158787 158.3504 C 420.77646970671793 158.3504 421.155168766142 148.304 421.91256688499 148.304 C 422.669965003834 148.304 423.048664063256 148.7824 423.8060621821 148.7824 C 424.563460300948 148.7824 424.942159360372 136.5832 425.69955747922 136.5832 C 426.456955598064 136.5832 426.835654657486 249.4856 427.59305277633 249.4856 C 428.35045089517797 249.4856 428.72914995460206 227.24 429.48654807345 224.848 C 430.24394619229406 222.45600000000002 430.62264525171594 224.848 431.38004337056 222.45600000000002 C 433.6522377271 220.06400000000002 434.78833490537 153.3272 437.06052926191 153.3272 C 437.817927380754 153.3272 438.196626440176 175.23792000003928 438.95402455902 190.4032 C 439.711422677868 205.56848000003924 440.09012173729207 229.15359999999998 440.84751985614 229.15359999999998 C 441.604917974984 229.15359999999998 441.98361703440605 203.79840000000002 442.74101515325 203.79840000000002 C 443.498413272098 203.79840000000002 443.87711233152197 213.84480000000002 444.63451045037 213.84480000000002 C 445.39190856921397 213.84480000000002 445.770607628636 197.8184 446.52800574748 197.8184 C 447.285403866328 197.8184 447.664102925752 197.8184 448.4215010446 198.0576 C 449.17889916344404 198.29680000000002 449.557598222866 215.5192 450.31499634171 215.5192 C 451.07239446055803 215.5192 451.451093519982 197.8184 452.20849163883 197.8184 C 452.965889757674 197.8184 453.344588817096 226.7616 454.10198693594 226.7616 C 454.859385054788 226.7616 455.238084114212 191.26432000003226 455.99548223306 179.1608 C 456.75288035190397 167.05728000003225 457.13157941132596 170.16688000000002 457.88897753017 166.244 C 458.64637564901403 162.32112 459.025074708436 159.5464 459.78247282728 159.5464 C 460.539870946128 159.5464 460.918570005552 188.0112 461.6759681244 188.0112 C 462.433366243244 188.0112 462.812065302666 186.9587199999916 463.56946342151 183.7056 C 464.326861540358 180.45247999999157 464.70556059978196 171.7456 465.46295871863 171.7456 C 466.220356837474 171.7456 466.59905589689595 200.4496 467.35645401574 200.4496 C 468.113852134588 200.4496 468.492551194012 129.6464 469.24994931286 122.9488 C 470.007347431704 116.25120000000001 470.386046491126 116.25120000000001 471.14344460997 116.25120000000001 C 471.900842728818 116.25120000000001 472.279541788242 116.25120000000001 473.03693990709 119.6 C 473.79433802593405 122.94879999999998 474.173037085356 173.42000000000002 474.9304352042 173.42000000000002 C 475.68783332304804 173.42000000000002 476.066532382472 132.2776 476.82393050132 132.2776 C 477.581328620164 132.2776 477.960027679586 132.2776 478.71742579843 132.756 C 479.474823917278 133.2344 479.853522976702 139.93199999998853 480.61092109555 144.23760000000001 C 481.368319214394 148.54319999998853 481.74701827381597 154.284 482.50441639266 154.284 C 483.2618145115081 154.284 483.64051357093206 143.56784000003358 484.39791168978 130.60320000000002 C 485.15530980862405 117.63856000003358 485.53400886804604 89.4608 486.29140698689 89.4608 C 487.04880510573804 89.4608 487.427504165162 120.74815999995776 488.18490228401 137.0616 C 488.942300402854 153.37503999995778 489.320999462276 171.02800000000002 490.07839758112 171.02800000000002 C 490.835795699968 171.02800000000002 491.214494759392 161.6513600000273 491.97189287824 151.4136 C 492.729290997084 141.17584000002728 493.10799005650597 119.8392 493.86538817535 119.8392 C 494.62278629419797 119.8392 495.00148535362206 123.61855999993114 495.75888347247 150.2176 C 496.51628159131405 176.8166399999311 496.89498065073604 252.83440000000002 497.65237876958 252.83440000000002 C 498.4097768884279 252.83440000000002 498.788475947852 203.41568000007126 499.5458740667 176.2904 C 500.30327218554396 149.16512000007128 500.681971244966 117.208 501.43936936381 117.208 C 502.196767482658 117.208 502.575466542082 153.8056 503.33286466093 153.8056 C 504.090262779774 153.8056 504.46896183919597 86.59040000000002 505.22635995804 86.59040000000002 C 505.983758076884 86.59040000000002 506.362457136306 133.4736 507.11985525515 133.4736 C 507.8772533739981 133.4736 508.25595243342207 132.0384 509.01335055227 132.0384 C 509.77074867111406 132.0384 510.14944773053594 192.55599999999998 510.90684584938 192.55599999999998 C 511.66424396822805 192.55599999999998 512.042943027652 158.5896 512.8003411465 158.5896 C 513.557739265344 158.5896 513.9364383247661 159.78560000000002 514.69383644361 159.78560000000002 C 515.451234562458 159.78560000000002 515.829933621882 156.9152 516.58733174073 156.9152 C 517.344729859574 156.9152 517.723428918996 156.9152 518.48082703784 160.5032 C 519.238225156688 164.0912 519.616924216112 195.4264 520.37432233496 195.4264 C 521.131720453804 195.4264 521.510419513226 161.7948799999545 522.26781763207 144.4768 C 523.0252157509179 127.15871999995451 523.403914810342 109.55360000000002 524.16131292919 108.83600000000001 C 524.918711048034 108.11840000000001 525.297410107456 108.11840000000001 526.0548082263 108.11840000000001 C 526.8122063451481 108.11840000000001 527.190905404572 120.93951999998215 527.94830352342 127.7328 C 528.705701642264 134.52607999998213 529.084400701686 132.13408000002613 529.84179882053 142.0848 C 530.599196939378 152.03552000002614 531.73529411765 177.4864 531.73529411765 177.4864" class="highcharts-graph" data-z-index="1" stroke="#000000" stroke-width="2" stroke-linejoin="round" stroke-linecap="round"></path></g><g data-z-index="0.1" class="highcharts-markers highcharts-series-0 highcharts-spline-series highcharts-color-0 " transform="translate(53,63) scale(1 1)" clip-path="none"></g></g><text x="300" text-anchor="middle" class="highcharts-title" data-z-index="4" style="color:#333333;font-size:18px;fill:#333333;" y="24"><tspan>Indoor CO2 Over Time</tspan></text><text x="300" text-anchor="middle" class="highcharts-subtitle" data-z-index="4" style="color:#666666;fill:#666666;" y="46"><tspan>This chart shows how your Indoor CO2 changes over time.</tspan></text><g class="highcharts-axis-labels highcharts-xaxis-labels " data-z-index="7"><text x="86.432414206504" style="color:#666666;cursor:default;font-size:11px;fill:#666666;" text-anchor="middle" transform="translate(0,0)" y="381" opacity="1"><tspan>May '18</tspan></text><text x="201.93562733051" style="color:#666666;cursor:default;font-size:11px;fill:#666666;" text-anchor="middle" transform="translate(0,0)" y="381" opacity="1"><tspan>Jul '18</tspan></text><text x="319.33233575162" style="color:#666666;cursor:default;font-size:11px;fill:#666666;" text-anchor="middle" transform="translate(0,0)" y="381" opacity="1"><tspan>Sep '18</tspan></text><text x="434.83554887563" style="color:#666666;cursor:default;font-size:11px;fill:#666666;" text-anchor="middle" transform="translate(0,0)" y="381" opacity="1"><tspan>Nov '18</tspan></text><text x="550.33876199963" style="color:#666666;cursor:default;font-size:11px;fill:#666666;" text-anchor="middle" transform="translate(0,0)" y="381" opacity="1"><tspan>Jan '19</tspan></text></g><g class="highcharts-axis-labels highcharts-yaxis-labels " data-z-index="7"><text x="38" style="color:#666666;cursor:default;font-size:11px;fill:#666666;" text-anchor="end" transform="translate(0,0)" y="366" opacity="1">250</text><text x="38" style="color:#666666;cursor:default;font-size:11px;fill:#666666;" text-anchor="end" transform="translate(0,0)" y="306" opacity="1">500</text><text x="38" style="color:#666666;cursor:default;font-size:11px;fill:#666666;" text-anchor="end" transform="translate(0,0)" y="246" opacity="1">750</text><text x="38" style="color:#666666;cursor:default;font-size:11px;fill:#666666;" text-anchor="end" transform="translate(0,0)" y="186" opacity="1">1000</text><text x="38" style="color:#666666;cursor:default;font-size:11px;fill:#666666;" text-anchor="end" transform="translate(0,0)" y="126" opacity="1">1250</text><text x="38" style="color:#666666;cursor:default;font-size:11px;fill:#666666;" text-anchor="end" transform="translate(0,0)" y="67" opacity="1">1500</text></g><a xlink:href="https://quantimo.do" target="_blank">
                    <text x="590" class="highcharts-credits" text-anchor="end" data-z-index="8"
                          style="cursor:pointer;color:#999999;font-size:9px;fill:#999999;" y="395">https://quantimo.do
                    </text>
                </a></svg>