<?xml version="1.0" standalone="no"?><!DOCTYPE svg PUBLIC "-//W3C//DTD SVG 1.1//EN" "http://www.w3.org/Graphics/SVG/1.1/DTD/svg11.dtd"><svg xmlns:xlink="http://www.w3.org/1999/xlink" version="1.1" class="highcharts-root" style="font-family:&quot;Lucida Grande&quot;, &quot;Lucida Sans Unicode&quot;, Arial, Helvetica, sans-serif;font-size:12px;" xmlns="http://www.w3.org/2000/svg" width="600" height="400"><desc>Created with Highstock 6.2.0</desc><defs><clipPath id="highcharts-83r9e9r-371"><rect x="0" y="0" width="474" height="260" fill="none"></rect></clipPath><clipPath id="highcharts-83r9e9r-553"><rect x="0" y="0" width="474" height="260" fill="none"></rect></clipPath><clipPath id="highcharts-83r9e9r-735"><rect x="0" y="0" width="474" height="260" fill="none"></rect></clipPath><clipPath id="highcharts-83r9e9r-736"><rect x="68" y="63" width="474" height="260" fill="none"></rect></clipPath></defs><rect fill="#ffffff" class="highcharts-background" x="0" y="0" width="600" height="400" rx="0" ry="0"></rect><rect fill="none" class="highcharts-plot-background" x="68" y="63" width="474" height="260"></rect><g class="highcharts-pane-group" data-z-index="0"></g><g class="highcharts-grid highcharts-xaxis-grid " data-z-index="1"><path fill="none" data-z-index="1" class="highcharts-grid-line" d="M 95.5 63 L 95.5 323" opacity="1"></path><path fill="none" data-z-index="1" class="highcharts-grid-line" d="M 221.5 63 L 221.5 323" opacity="1"></path><path fill="none" data-z-index="1" class="highcharts-grid-line" d="M 346.5 63 L 346.5 323" opacity="1"></path><path fill="none" data-z-index="1" class="highcharts-grid-line" d="M 469.5 63 L 469.5 323" opacity="1"></path></g><g class="highcharts-grid highcharts-yaxis-grid " data-z-index="1"><path fill="none" stroke="#e6e6e6" stroke-width="1" data-z-index="1" class="highcharts-grid-line" d="M 68 323.5 L 542 323.5" opacity="1"></path><path fill="none" stroke="#e6e6e6" stroke-width="1" data-z-index="1" class="highcharts-grid-line" d="M 68 258.5 L 542 258.5" opacity="1"></path><path fill="none" stroke="#e6e6e6" stroke-width="1" data-z-index="1" class="highcharts-grid-line" d="M 68 193.5 L 542 193.5" opacity="1"></path><path fill="none" stroke="#e6e6e6" stroke-width="1" data-z-index="1" class="highcharts-grid-line" d="M 68 128.5 L 542 128.5" opacity="1"></path><path fill="none" stroke="#e6e6e6" stroke-width="1" data-z-index="1" class="highcharts-grid-line" d="M 68 62.5 L 542 62.5" opacity="1"></path></g><g class="highcharts-grid highcharts-yaxis-grid " data-z-index="1"><path fill="none" stroke="#e6e6e6" stroke-width="1" data-z-index="1" class="highcharts-grid-line" d="M 68 323.5 L 542 323.5" opacity="1"></path><path fill="none" stroke="#e6e6e6" stroke-width="1" data-z-index="1" class="highcharts-grid-line" d="M 68 258.5 L 542 258.5" opacity="1"></path><path fill="none" stroke="#e6e6e6" stroke-width="1" data-z-index="1" class="highcharts-grid-line" d="M 68 193.5 L 542 193.5" opacity="1"></path><path fill="none" stroke="#e6e6e6" stroke-width="1" data-z-index="1" class="highcharts-grid-line" d="M 68 128.5 L 542 128.5" opacity="1"></path><path fill="none" stroke="#e6e6e6" stroke-width="1" data-z-index="1" class="highcharts-grid-line" d="M 68 62.5 L 542 62.5" opacity="1"></path></g><rect fill="none" class="highcharts-plot-border" data-z-index="1" x="68" y="63" width="474" height="260"></rect><g class="highcharts-axis highcharts-xaxis " data-z-index="2"><path fill="none" class="highcharts-tick" stroke="#ccd6eb" stroke-width="1" d="M 95.5 323 L 95.5 333" opacity="1"></path><path fill="none" class="highcharts-tick" stroke="#ccd6eb" stroke-width="1" d="M 221.5 323 L 221.5 333" opacity="1"></path><path fill="none" class="highcharts-tick" stroke="#ccd6eb" stroke-width="1" d="M 346.5 323 L 346.5 333" opacity="1"></path><path fill="none" class="highcharts-tick" stroke="#ccd6eb" stroke-width="1" d="M 469.5 323 L 469.5 333" opacity="1"></path><path fill="none" class="highcharts-axis-line" stroke="#ccd6eb" stroke-width="1" data-z-index="7" d="M 68 323.5 L 542 323.5"></path></g><g class="highcharts-axis highcharts-yaxis " data-z-index="2"><text x="26" data-z-index="7" text-anchor="middle" transform="translate(0,0) rotate(270 26 193)" class="highcharts-axis-title" style="color:#666666;fill:#666666;" y="193"><tspan>SUM Humira (units)</tspan></text><path fill="none" class="highcharts-axis-line" stroke="#ccd6eb" stroke-width="1" data-z-index="7" d="M 67.5 63 L 67.5 323"></path></g><g class="highcharts-axis highcharts-yaxis " data-z-index="2"><text x="574" data-z-index="7" text-anchor="middle" transform="translate(0,0) rotate(90 574 193)" class="highcharts-axis-title" style="color:#666666;fill:#666666;" y="193"><tspan>MEAN Overall Mood (/5)</tspan></text><path fill="none" class="highcharts-axis-line" stroke="#ccd6eb" stroke-width="1" data-z-index="7" d="M 542.5 63 L 542.5 323"></path></g><g class="highcharts-series-group" data-z-index="3"><g data-z-index="0.1" class="highcharts-series highcharts-series-0 highcharts-spline-series highcharts-color-0 " transform="translate(68,63) scale(1 1)" clip-path="url(#highcharts-83r9e9r-553)"><path fill="none" d="M 4.6470588235294 260 C 4.6470588235294 260 5.46699907466014 260 6.0136259087473 260 C 7.10687957692158 260 7.6535064110087205 260 8.746760079183 260 C 9.2933869132702 260 9.566700330313799 260 10.113327164401 260 C 10.6599539984882 260 10.9332674155318 260 11.479894249619 260 C 12.573147917793401 260 13.119774751880602 260 14.213028420055 260 C 14.759655254141801 260 15.032968671185198 260 15.579595505272 260 C 16.6728491734464 260 17.219476007533597 260 18.312729675708 260 C 19.4059833438824 260 19.9526101779696 260 21.045863846144 260 C 21.5924906802312 260 21.8658040972748 260 22.412430931362 260 C 22.441660282906803 260 22.4562749586792 260 22.485504310224 260 C 24.096155460940402 260 24.9014810362986 260 26.512132187015 260 C 27.058759021102198 260 27.332072438145797 260 27.878699272233 260 C 28.4253261063202 260 28.698639523363802 260 29.245266357451 260 C 29.7918931915382 260 30.065206608581796 260 30.611833442669 260 C 30.641062794213802 260 30.6556774699862 260 30.684906821531 260 C 31.231533655618204 260 31.5048470726618 260 32.051473906749 260 C 38.610995915795 260 41.890756920318005 260 48.450278929364 260 C 50.6367862657124 260 51.7300399338866 260 53.916547270235 260 C 67.58221812241379 260 74.4150535485032 260 88.080724400682 260 C 90.813858571118 260 92.180425656336 260 94.913559826772 260 C 95.4601866608592 260 95.73350007790279 260 96.28012691199 260 C 97.373380580164 260 97.92000741425099 260 99.013261082425 260 C 100.106514750599 260 100.653141584686 260 101.74639525286 260 C 102.839648921036 260 103.386275755124 151.66666666666666 104.4795294233 151.66666666666666 C 105.02615625738399 151.66666666666666 105.29946967442599 151.66666666666666 105.84609650851 151.66666666666666 C 106.939350176686 151.66666666666666 107.485977010774 151.66666666666666 108.57923067895 151.66666666666666 C 110.21911118121 151.66666666666666 111.03905143234002 151.66666666666666 112.6789319346 151.66666666666666 C 113.225558768688 151.66666666666666 113.49887218573198 151.66666666666666 114.04549901982 151.66666666666666 C 114.59212585390802 151.66666666666666 114.865439270952 151.66666666666666 115.41206610504 151.66666666666666 C 115.95869293912799 151.66666666666666 116.232006356172 151.66666666666666 116.77863319026 151.66666666666666 C 118.965140526608 151.66666666666666 120.058394194782 151.66666666666666 122.24490153113 151.66666666666666 C 124.43140886747801 151.66666666666666 125.52466253565198 260 127.711169872 260 C 128.257796706088 260 128.531110123132 260 129.07773695722 260 C 131.264244293568 260 132.357497961742 151.66666666666666 134.54400529809 151.66666666666666 C 135.090632132178 151.66666666666666 135.36394554922202 151.66666666666666 135.91057238331 151.66666666666666 C 138.643706553746 151.66666666666666 140.010273638964 260 142.7434078094 260 C 146.56979564800798 260 148.48298956731202 260 152.30937740592 260 C 155.042511576356 260 156.409078661574 260 159.14221283201 260 C 202.32573272489398 260 223.917492671336 260 267.10101256422 260 C 267.647639398308 260 267.920952815352 260 268.46757964944 260 C 269.01420648352797 260 269.28751990057197 260 269.83414673466 260 C 270.380773568748 260 270.654086985792 260 271.20071381988 260 C 271.74734065396797 260 272.020654071012 260 272.5672809051 260 C 273.113907739184 260 273.387221156226 260 273.93384799031 260 C 274.58790218137403 260 274.91492927690604 260 275.56898346797 260 C 276.008182945082 260 276.227782683638 260 276.66698216075 260 C 277.213608994838 260 277.486922411882 260 278.03354924597 260 C 278.58017608005804 260 278.85348949710203 260 279.40011633119 260 C 279.946743165274 260 280.22005658231603 260 280.7666834164 260 C 281.420737607464 260 281.74776470299605 260 282.40181889406 260 C 283.358415853712 260 283.836714333538 260 284.79331129319 260 C 284.822540644738 260 284.837155320512 260 284.86638467206 260 C 285.413011506144 260 285.68632492318596 260 286.23295175727 260 C 286.77957859135796 260 287.05289200840195 260 287.59951884249 260 C 288.146145676578 260 288.41945909362204 260 288.96608592771 260 C 289.512712761798 260 289.786026178842 260 290.33265301293 260 C 290.879279847018 260 291.15259326406203 260 291.69922009815 260 C 292.24584693223403 260 292.519160349276 260 293.06578718336 260 C 293.61241401744803 260 293.885727434492 260 294.43235426858 260 C 294.978981102668 260 295.252294519712 151.66666666666666 295.7989213538 151.66666666666666 C 296.345548187888 151.66666666666666 296.618861604932 151.66666666666666 297.16548843902 151.66666666666666 C 297.712115273108 151.66666666666666 297.985428690152 151.66666666666666 298.53205552424 151.66666666666666 C 299.07868235832404 151.66666666666666 299.35199577536594 43.333333333333314 299.89862260945 43.333333333333314 C 300.445249443538 43.333333333333314 300.718562860582 43.333333333333314 301.26518969467 43.333333333333314 C 301.811816528758 43.333333333333314 302.085129945802 43.333333333333314 302.63175677989 43.333333333333314 C 303.178383613978 43.333333333333314 303.45169703102204 43.333333333333314 303.99832386511 43.333333333333314 C 304.544950699198 43.333333333333314 304.818264116242 43.333333333333314 305.36489095033 43.333333333333314 C 305.911517784414 43.333333333333314 306.184831201456 43.333333333333314 306.73145803554 43.333333333333314 C 307.278084869628 43.333333333333314 307.551398286672 43.333333333333314 308.09802512076 43.333333333333314 C 308.644651954848 43.333333333333314 308.917965371892 151.66666666666666 309.46459220598 151.66666666666666 C 310.011219040068 151.66666666666666 310.284532457112 151.66666666666666 310.8311592912 151.66666666666666 C 311.377786125284 151.66666666666666 311.65109954232605 151.66666666666666 312.19772637641 151.66666666666666 C 312.744353210498 151.66666666666666 313.017666627542 151.66666666666666 313.56429346163 151.66666666666666 C 314.110920295718 151.66666666666666 314.384233712762 260 314.93086054685 260 C 315.477487380938 260 315.750800797982 260 316.29742763207 260 C 316.844054466158 260 317.117367883202 260 317.66399471729 260 C 318.21062155137395 260 318.483934968416 260 319.0305618025 260 C 319.577188636588 260 319.850502053632 260 320.39712888772 260 C 320.943755721808 260 321.217069138852 260 321.76369597294 260 C 322.310322807028 260 322.583636224072 260 323.13026305816 260 C 323.67688989224797 260 323.950203309292 151.66666666666666 324.49683014338 151.66666666666666 C 325.04345697746396 151.66666666666666 325.31677039450597 151.66666666666666 325.86339722859 151.66666666666666 C 326.41002406267796 151.66666666666666 326.683337479722 151.66666666666666 327.22996431381 151.66666666666666 C 327.77659114789805 151.66666666666666 328.04990456494204 151.66666666666666 328.59653139903 151.66666666666666 C 329.143158233118 151.66666666666666 329.416471650162 151.66666666666666 329.96309848425 151.66666666666666 C 330.50972531833406 151.66666666666666 330.78303873537595 151.66666666666666 331.32966556946 151.66666666666666 C 331.876292403548 151.66666666666666 332.149605820592 151.66666666666666 332.69623265468 151.66666666666666 C 333.242859488768 151.66666666666666 333.51617290581197 260 334.0627997399 260 C 334.609426573988 260 334.882739991032 260 335.42936682512 260 C 335.975993659208 260 336.24930707625197 260 336.79593391034 260 C 337.342560744424 260 337.61587416146597 151.66666666666666 338.16250099555 151.66666666666666 C 338.70912782963796 151.66666666666666 338.982441246682 151.66666666666666 339.52906808077 151.66666666666666 C 340.075694914858 151.66666666666666 340.349008331902 151.66666666666666 340.89563516599 151.66666666666666 C 341.44226200007796 151.66666666666666 341.715575417122 151.66666666666666 342.26220225121 151.66666666666666 C 342.80882908529804 151.66666666666666 343.08214250234204 151.66666666666666 343.62876933643 151.66666666666666 C 344.17539617051403 151.66666666666666 344.448709587556 151.66666666666666 344.99533642164 151.66666666666666 C 345.54196325572804 151.66666666666666 345.81527667277203 151.66666666666666 346.36190350686 151.66666666666666 C 346.908530340948 151.66666666666666 347.181843757992 260 347.72847059208 260 C 348.27509742616803 260 348.54841084321197 260 349.0950376773 260 C 349.641664511388 260 349.914977928432 260 350.46160476252 260 C 351.008231596604 260 351.281545013646 260 351.82817184773 260 C 352.374798681818 260 352.648112098862 151.66666666666666 353.19473893295 151.66666666666666 C 353.74136576703796 151.66666666666666 354.01467918408196 151.66666666666666 354.56130601817 151.66666666666666 C 355.107932852258 151.66666666666666 355.38124626930204 151.66666666666666 355.92787310339 151.66666666666666 C 356.474499937474 151.66666666666666 356.747813354516 151.66666666666666 357.2944401886 151.66666666666666 C 357.841067022688 151.66666666666666 358.11438043973203 151.66666666666666 358.66100727382 151.66666666666666 C 359.20763410790806 151.66666666666666 359.480947524952 151.66666666666666 360.02757435904 151.66666666666666 C 360.57420119312803 151.66666666666666 360.847514610172 151.66666666666666 361.39414144426 151.66666666666666 C 361.940768278348 151.66666666666666 362.214081695392 151.66666666666666 362.76070852948 151.66666666666666 C 363.307335363564 151.66666666666666 363.580648780606 151.66666666666666 364.12727561469 151.66666666666666 C 364.673902448778 151.66666666666666 364.947215865822 151.66666666666666 365.49384269991 151.66666666666666 C 366.040469533998 151.66666666666666 366.31378295104196 151.66666666666666 366.86040978513 151.66666666666666 C 367.407036619218 151.66666666666666 367.680350036262 151.66666666666666 368.22697687035 151.66666666666666 C 368.77360370443796 151.66666666666666 369.04691712148195 151.66666666666666 369.59354395557 151.66666666666666 C 370.140170789654 151.66666666666666 370.413484206696 151.66666666666666 370.96011104078 151.66666666666666 C 371.506737874868 151.66666666666666 371.780051291912 151.66666666666666 372.326678126 151.66666666666666 C 372.873304960088 151.66666666666666 373.14661837713203 151.66666666666666 373.69324521122 151.66666666666666 C 374.239872045308 151.66666666666666 374.513185462352 151.66666666666666 375.05981229644 151.66666666666666 C 375.606439130524 151.66666666666666 375.879752547566 151.66666666666666 376.42637938165 151.66666666666666 C 376.97300621573805 151.66666666666666 377.246319632782 151.66666666666666 377.79294646687 151.66666666666666 C 378.339573300958 151.66666666666666 378.612886718002 151.66666666666666 379.15951355209 151.66666666666666 C 379.706140386178 151.66666666666666 379.979453803222 151.66666666666666 380.52608063731 151.66666666666666 C 381.072707471398 151.66666666666666 381.346020888442 260 381.89264772253 260 C 382.439274556614 260 382.712587973656 260 383.25921480774 260 C 383.805841641828 260 384.079155058872 260 384.62578189296 260 C 385.172408727048 260 385.445722144092 260 385.99234897818 260 C 386.538975812268 260 386.81228922931194 260 387.3589160634 260 C 387.905542897488 260 388.178856314532 260 388.72548314862 260 C 389.272109982704 260 389.545423399746 260 390.09205023383 260 C 390.63867706791797 260 390.911990484962 151.66666666666666 391.45861731905 151.66666666666666 C 392.005244153138 151.66666666666666 392.278557570182 151.66666666666666 392.82518440427 151.66666666666666 C 393.37181123835796 151.66666666666666 393.645124655402 151.66666666666666 394.19175148949 151.66666666666666 C 394.73837832357805 151.66666666666666 395.011691740622 151.66666666666666 395.55831857471 151.66666666666666 C 396.104945408794 151.66666666666666 396.37825882583604 151.66666666666666 396.92488565992 151.66666666666666 C 397.47151249400804 151.66666666666666 397.744825911052 151.66666666666666 398.29145274514 151.66666666666666 C 398.838079579228 151.66666666666666 399.111392996272 151.66666666666666 399.65801983036 151.66666666666666 C 400.204646664448 151.66666666666666 400.477960081492 151.66666666666666 401.02458691558 151.66666666666666 C 401.571213749664 151.66666666666666 401.844527166706 151.66666666666666 402.39115400079 151.66666666666666 C 402.93778083487797 151.66666666666666 403.21109425192196 151.66666666666666 403.75772108601 151.66666666666666 C 404.304347920098 151.66666666666666 404.57766133714193 151.66666666666666 405.12428817123 151.66666666666666 C 405.67091500531797 151.66666666666666 405.944228422362 151.66666666666666 406.49085525645 151.66666666666666 C 407.037482090538 151.66666666666666 407.310795507582 151.66666666666666 407.85742234167 151.66666666666666 C 408.404049175754 151.66666666666666 408.677362592796 151.66666666666666 409.22398942688 151.66666666666666 C 409.77061626096804 151.66666666666666 410.04392967801203 151.66666666666666 410.5905565121 151.66666666666666 C 411.13718334618807 151.66666666666666 411.410496763232 151.66666666666666 411.95712359732 151.66666666666666 C 412.50375043140804 151.66666666666666 412.77706384845203 151.66666666666666 413.32369068254 151.66666666666666 C 413.870317516628 151.66666666666666 414.143630933672 151.66666666666666 414.69025776776 151.66666666666666 C 415.23688460184405 151.66666666666666 415.51019801888594 151.66666666666666 416.05682485297 151.66666666666666 C 416.603451687058 151.66666666666666 416.876765104102 151.66666666666666 417.42339193819 151.66666666666666 C 417.97001877227797 151.66666666666666 418.24333218932196 151.66666666666666 418.78995902341 151.66666666666666 C 419.336585857498 151.66666666666666 419.60989927454193 260 420.15652610863 260 C 420.7031529427139 260 420.976466359756 260 421.52309319384 260 C 422.069720027928 260 422.34303344497204 260 422.88966027906 260 C 423.953684595692 260 424.485696754008 260 425.54972107064 260 C 425.57895042218405 260 425.593565097956 260 425.6227944495 260 C 426.16942128358806 260 426.442734700632 260 426.98936153472 260 C 427.535988368804 260 427.80930178584606 260 428.35592861993 260 C 428.90255545401794 260 429.175868871062 151.66666666666666 429.72249570515 151.66666666666666 C 430.269122539238 151.66666666666666 430.54243595628196 151.66666666666666 431.08906279037 151.66666666666666 C 431.635689624458 151.66666666666666 431.909003041502 151.66666666666666 432.45562987559 151.66666666666666 C 433.002256709678 151.66666666666666 433.27557012672196 151.66666666666666 433.82219696081 151.66666666666666 C 434.36882379489396 151.66666666666666 434.642137211936 151.66666666666666 435.18876404602 151.66666666666666 C 435.735390880108 151.66666666666666 436.00870429715195 151.66666666666666 436.55533113124 151.66666666666666 C 437.101957965328 151.66666666666666 437.37527138237203 151.66666666666666 437.92189821646 151.66666666666666 C 439.015151884636 151.66666666666666 439.56177871872404 260 440.6550323869 260 C 441.201659220984 260 441.474972638026 260 442.02159947211 260 C 442.56822630619797 260 442.841539723242 260 443.38816655733 260 C 443.93479339141805 260 444.208106808462 260 444.75473364255 260 C 445.847987310722 260 446.39461414480803 260 447.48786781298 260 C 448.034494647068 260 448.307808064112 260 448.8544348982 260 C 449.401061732288 260 449.674375149332 260 450.22100198342 260 C 450.767628817508 260 451.04094223455195 260 451.58756906864 260 C 452.68082273681193 260 453.227449570898 260 454.32070323907 260 C 454.867330073158 260 455.140643490202 260 455.68727032429 260 C 456.233897158378 260 456.50721057542194 260 457.05383740951 260 C 457.60046424359797 260 457.873777660642 260 458.42040449473 260 C 459.513658162902 260 460.06028499698806 260 461.15353866516 260 C 461.70016549924804 260 461.973478916292 260 462.52010575038 260 C 464.15998625264 260 464.97992650377 260 466.61980700603 260 C 467.713060674206 260 469.35294117647 260 469.35294117647 260" class="highcharts-graph" data-z-index="1" stroke="#000000" stroke-width="2" stroke-linejoin="round" stroke-linecap="round"></path></g><g data-z-index="0.1" class="highcharts-markers highcharts-series-0 highcharts-spline-series highcharts-color-0 " transform="translate(68,63) scale(1 1)" clip-path="none"></g><g data-z-index="0.1" class="highcharts-series highcharts-series-1 highcharts-spline-series highcharts-color-1 " transform="translate(68,63) scale(1 1)" clip-path="url(#highcharts-83r9e9r-735)"><path fill="none" d="M 4.6470588235294 162.5 C 4.6470588235294 162.5 5.46699907466014 130 6.0136259087473 130 C 7.10687957692158 130 7.6535064110087205 162.5 8.746760079183 162.5 C 9.2933869132702 162.5 9.566700330313799 162.5 10.113327164401 162.5 C 10.6599539984882 162.5 10.9332674155318 162.5 11.479894249619 162.5 C 12.573147917793401 162.5 13.119774751880602 162.5 14.213028420055 162.5 C 14.759655254141801 162.5 15.032968671185198 162.5 15.579595505272 162.5 C 16.6728491734464 162.5 17.219476007533597 162.5 18.312729675708 162.5 C 19.4059833438824 162.5 19.9526101779696 162.5 21.045863846144 162.5 C 21.5924906802312 162.5 21.8658040972748 162.5 22.412430931362 162.5 C 22.441660282906803 162.5 22.4562749586792 195 22.485504310224 195 C 24.096155460940402 195 24.9014810362986 130 26.512132187015 130 C 27.058759021102198 130 27.332072438145797 195 27.878699272233 195 C 28.4253261063202 195 28.698639523363802 175.5 29.245266357451 162.5 C 29.7918931915382 149.5 30.065206608581796 130 30.611833442669 130 C 30.641062794213802 130 30.6556774699862 162.5 30.684906821531 162.5 C 31.231533655618204 162.5 31.5048470726618 162.5 32.051473906749 162.5 C 38.610995915795 162.5 41.890756920318005 162.5 48.450278929364 162.5 C 50.6367862657124 162.5 51.7300399338866 195 53.916547270235 195 C 67.58221812241379 195 74.4150535485032 195 88.080724400682 195 C 90.813858571118 195 92.180425656336 184.1666666666667 94.913559826772 162.5 C 95.4601866608592 158.1666666666667 95.73350007790279 130 96.28012691199 130 C 97.373380580164 130 97.92000741425099 130 99.013261082425 130 C 100.106514750599 130 100.653141584686 130 101.74639525286 130 C 102.839648921036 130 103.386275755124 162.5 104.4795294233 162.5 C 105.02615625738399 162.5 105.29946967442599 162.5 105.84609650851 162.5 C 106.939350176686 162.5 107.485977010774 130 108.57923067895 130 C 110.21911118121 130 111.03905143234002 130 112.6789319346 130 C 113.225558768688 130 113.49887218573198 162.5 114.04549901982 162.5 C 114.59212585390802 162.5 114.865439270952 130 115.41206610504 130 C 115.95869293912799 130 116.232006356172 130 116.77863319026 130 C 118.965140526608 130 120.058394194782 162.5 122.24490153113 162.5 C 124.43140886747801 162.5 125.52466253565198 130 127.711169872 130 C 128.257796706088 130 128.531110123132 130 129.07773695722 130 C 131.264244293568 130 132.357497961742 162.5 134.54400529809 162.5 C 135.090632132178 162.5 135.36394554922202 130 135.91057238331 130 C 138.643706553746 130 140.010273638964 130 142.7434078094 130 C 146.56979564800798 130 148.48298956731202 97.5 152.30937740592 97.5 C 155.042511576356 97.5 156.409078661574 128.4523809523808 159.14221283201 130 C 202.32573272489398 154.4523809523808 223.917492671336 147.52291666666696 267.10101256422 162.5 C 267.647639398308 162.68958333333362 267.920952815352 167.91666666666666 268.46757964944 167.91666666666666 C 269.01420648352797 167.91666666666666 269.28751990057197 165.44047619047635 269.83414673466 162.5 C 270.380773568748 159.55952380952397 270.654086985792 159.71428571428572 271.20071381988 153.21428571428572 C 271.74734065396797 146.71428571428572 272.020654071012 130 272.5672809051 130 C 273.113907739184 130 273.387221156226 130 273.93384799031 134.64285714285714 C 274.58790218137403 139.28571428571428 274.91492927690604 162.5 275.56898346797 162.5 C 276.008182945082 162.5 276.227782683638 162.5 276.66698216075 162.5 C 277.213608994838 162.5 277.486922411882 162.5 278.03354924597 162.5 C 278.58017608005804 162.5 278.85348949710203 178.75 279.40011633119 178.75 C 279.946743165274 178.75 280.22005658231603 178.75 280.7666834164 178.75 C 281.420737607464 178.75 281.74776470299605 162.5 282.40181889406 162.5 C 283.358415853712 162.5 283.836714333538 162.5 284.79331129319 162.5 C 284.822540644738 162.5 284.837155320512 158.04567285057067 284.86638467206 157.85714285714286 C 285.413011506144 154.33138713628495 285.68632492318596 153.21428571428572 286.23295175727 153.21428571428572 C 286.77957859135796 153.21428571428572 287.05289200840195 157.85714285714286 287.59951884249 157.85714285714286 C 288.146145676578 157.85714285714286 288.41945909362204 157.85714285714286 288.96608592771 157.85714285714286 C 289.512712761798 157.85714285714286 289.786026178842 130 290.33265301293 130 C 290.879279847018 130 291.15259326406203 130 291.69922009815 130 C 292.24584693223403 130 292.519160349276 150.80000000004318 293.06578718336 162.5 C 293.61241401744803 174.2000000000432 293.885727434492 188.5 294.43235426858 188.5 C 294.978981102668 188.5 295.252294519712 151.66666666666666 295.7989213538 151.66666666666666 C 296.345548187888 151.66666666666666 296.618861604932 159.54545454545456 297.16548843902 159.54545454545456 C 297.712115273108 159.54545454545456 297.985428690152 158.44242424242913 298.53205552424 157.08333333333334 C 299.07868235832404 155.7242424242473 299.35199577536594 152.75 299.89862260945 152.75 C 300.445249443538 152.75 300.718562860582 156.5909090909091 301.26518969467 156.5909090909091 C 301.811816528758 156.5909090909091 302.085129945802 152.75 302.63175677989 152.75 C 303.178383613978 152.75 303.45169703102204 157.85714285714286 303.99832386511 157.85714285714286 C 304.544950699198 157.85714285714286 304.818264116242 140.83333333333334 305.36489095033 140.83333333333334 C 305.911517784414 140.83333333333334 306.184831201456 147.33333333333331 306.73145803554 147.33333333333331 C 307.278084869628 147.33333333333331 307.551398286672 137.07777777777775 308.09802512076 133.61111111111111 C 308.644651954848 130.14444444444445 308.917965371892 130 309.46459220598 130 C 310.011219040068 130 310.284532457112 130 310.8311592912 130 C 311.377786125284 130 311.65109954232605 130 312.19772637641 133.25 C 312.744353210498 136.5 313.017666627542 162.5 313.56429346163 162.5 C 314.110920295718 162.5 314.384233712762 133.25 314.93086054685 133.25 C 315.477487380938 133.25 315.750800797982 144.77272727272728 316.29742763207 144.77272727272728 C 316.844054466158 144.77272727272728 317.117367883202 140.83333333333334 317.66399471729 140.83333333333334 C 318.21062155137395 140.83333333333334 318.483934968416 140.83333333333334 319.0305618025 140.83333333333334 C 319.577188636588 140.83333333333334 319.850502053632 157.08333333333334 320.39712888772 162.5 C 320.943755721808 167.91666666666666 321.217069138852 162.5 321.76369597294 167.91666666666666 C 322.310322807028 173.33333333333331 322.583636224072 189.58333333333334 323.13026305816 189.58333333333334 C 323.67688989224797 189.58333333333334 323.950203309292 160.33333333333331 324.49683014338 151.66666666666666 C 325.04345697746396 143 325.31677039450597 145.38333333332466 325.86339722859 143 C 326.41002406267796 140.616666666658 326.683337479722 139.75 327.22996431381 139.75 C 327.77659114789805 139.75 328.04990456494204 151.66666666666666 328.59653139903 151.66666666666666 C 329.143158233118 151.66666666666666 329.416471650162 151.66666666666666 329.96309848425 151.66666666666666 C 330.50972531833406 151.66666666666666 330.78303873537595 151.66666666666666 331.32966556946 150.3125 C 331.876292403548 148.95833333333334 332.149605820592 140.83333333333334 332.69623265468 140.83333333333334 C 333.242859488768 140.83333333333334 333.51617290581197 144.08333333333323 334.0627997399 146.25 C 334.609426573988 148.41666666666654 334.882739991032 150.27380952380952 335.42936682512 151.66666666666666 C 335.975993659208 153.0595238095238 336.24930707625197 153.21428571428572 336.79593391034 153.21428571428572 C 337.342560744424 153.21428571428572 337.61587416146597 130 338.16250099555 130 C 338.70912782963796 130 338.982441246682 139.75 339.52906808077 146.25 C 340.075694914858 152.75 340.349008331902 162.5 340.89563516599 162.5 C 341.44226200007796 162.5 341.715575417122 153.67857142857105 342.26220225121 146.25 C 342.80882908529804 138.82142857142819 343.08214250234204 129.99999999999994 343.62876933643 125.35714285714283 C 344.17539617051403 120.71428571428572 344.448709587556 120.71428571428572 344.99533642164 120.71428571428572 C 345.54196325572804 120.71428571428572 345.81527667277203 121.875 346.36190350686 121.875 C 346.908530340948 121.875 347.181843757992 105.625 347.72847059208 101.5625 C 348.27509742616803 97.5 348.54841084321197 97.5 349.0950376773 97.5 C 349.641664511388 97.5 349.914977928432 97.5 350.46160476252 102.91666666666669 C 351.008231596604 108.33333333333337 351.281545013646 130 351.82817184773 130 C 352.374798681818 130 352.648112098862 126.98214285714283 353.19473893295 125.35714285714283 C 353.74136576703796 123.73214285714283 354.01467918408196 125.35714285714283 354.56130601817 121.875 C 355.107932852258 118.39285714285717 355.38124626930204 105.625 355.92787310339 101.5625 C 356.474499937474 97.5 356.747813354516 97.5 357.2944401886 97.5 C 357.841067022688 97.5 358.11438043973203 97.5 358.66100727382 97.5 C 359.20763410790806 97.5 359.480947524952 97.5 360.02757435904 100.75 C 360.57420119312803 104 360.847514610172 119.43749999999999 361.39414144426 125.9375 C 361.940768278348 132.4375 362.214081695392 133.25 362.76070852948 133.25 C 363.307335363564 133.25 363.580648780606 109.6875 364.12727561469 109.6875 C 364.673902448778 109.6875 364.947215865822 113.75 365.49384269991 113.75 C 366.040469533998 113.75 366.31378295104196 109.6875 366.86040978513 109.6875 C 367.407036619218 109.6875 367.680350036262 113.76477272727276 368.22697687035 115.22727272727275 C 368.77360370443796 116.68977272727275 369.04691712148195 115.22727272727275 369.59354395557 117 C 370.140170789654 118.77272727272725 370.413484206696 152.75 370.96011104078 152.75 C 371.506737874868 152.75 371.780051291912 150.15 372.326678126 143 C 372.873304960088 135.85 373.14661837713203 117 373.69324521122 117 C 374.239872045308 117 374.513185462352 130 375.05981229644 130 C 375.606439130524 130 375.879752547566 130 376.42637938165 130 C 376.97300621573805 130 377.246319632782 112.58928571428572 377.79294646687 109.6875 C 378.339573300958 106.78571428571428 378.612886718002 106.78571428571428 379.15951355209 106.78571428571428 C 379.706140386178 106.78571428571428 379.979453803222 113.75 380.52608063731 113.75 C 381.072707471398 113.75 381.346020888442 109.6875 381.89264772253 109.6875 C 382.439274556614 109.6875 382.712587973656 130 383.25921480774 130 C 383.805841641828 130 384.079155058872 106.78571428571428 384.62578189296 106.78571428571428 C 385.172408727048 106.78571428571428 385.445722144092 109.6875 385.99234897818 109.6875 C 386.538975812268 109.6875 386.81228922931194 109.6875 387.3589160634 109.6875 C 387.905542897488 109.6875 388.178856314532 106.78571428571428 388.72548314862 106.78571428571428 C 389.272109982704 106.78571428571428 389.545423399746 149.5 390.09205023383 149.5 C 390.63867706791797 149.5 390.911990484962 147.98333333333335 391.45861731905 140.83333333333334 C 392.005244153138 133.68333333333334 392.278557570182 113.75 392.82518440427 113.75 C 393.37181123835796 113.75 393.645124655402 130 394.19175148949 130 C 394.73837832357805 130 395.011691740622 109.6875 395.55831857471 109.6875 C 396.104945408794 109.6875 396.37825882583604 122.81250000004562 396.92488565992 135 C 397.47151249400804 147.18750000004562 397.744825911052 170.625 398.29145274514 170.625 C 398.838079579228 170.625 399.111392996272 115.55555555555554 399.65801983036 113.75 C 400.204646664448 111.94444444444446 400.477960081492 113.75 401.02458691558 111.94444444444446 C 401.571213749664 110.13888888888891 401.844527166706 104.72222222222223 402.39115400079 104.72222222222223 C 402.93778083487797 104.72222222222223 403.21109425192196 104.72222222222223 403.75772108601 105.625 C 404.304347920098 106.52777777777777 404.57766133714193 115.55555555555554 405.12428817123 115.55555555555554 C 405.67091500531797 115.55555555555554 405.944228422362 111.94444444444446 406.49085525645 111.94444444444446 C 407.037482090538 111.94444444444446 407.310795507582 113.38888888887575 407.85742234167 117 C 408.404049175754 120.61111111109797 408.677362592796 121.98333333336292 409.22398942688 130 C 409.77061626096804 138.01666666669627 410.04392967801203 157.08333333333334 410.5905565121 157.08333333333334 C 411.13718334618807 157.08333333333334 411.410496763232 145.32142857142836 411.95712359732 140.83333333333334 C 412.50375043140804 136.34523809523785 412.77706384845203 136.80952380952382 413.32369068254 134.64285714285714 C 413.870317516628 132.47619047619048 414.143630933672 134.1785714285864 414.69025776776 130 C 415.23688460184405 125.82142857144358 415.51019801888594 113.75 416.05682485297 113.75 C 416.603451687058 113.75 416.876765104102 123.5 417.42339193819 130 C 417.97001877227797 136.5 418.24333218932196 146.25 418.78995902341 146.25 C 419.336585857498 146.25 419.60989927454193 102.91666666666669 420.15652610863 102.91666666666669 C 420.7031529427139 102.91666666666669 420.976466359756 130 421.52309319384 130 C 422.069720027928 130 422.34303344497204 130 422.88966027906 130 C 423.953684595692 130 424.485696754008 162.5 425.54972107064 162.5 C 425.57895042218405 162.5 425.593565097956 140.83333333333331 425.6227944495 135.41666666666666 C 426.16942128358806 130 426.442734700632 135.41666666666666 426.98936153472 130 C 427.535988368804 124.58333333333334 427.80930178584606 102.91666666666669 428.35592861993 102.91666666666669 C 428.90255545401794 102.91666666666669 429.175868871062 130 429.72249570515 130 C 430.269122539238 130 430.54243595628196 130 431.08906279037 130 C 431.635689624458 130 431.909003041502 130 432.45562987559 130 C 433.002256709678 130 433.27557012672196 130 433.82219696081 130 C 434.36882379489396 130 434.642137211936 130 435.18876404602 130 C 435.735390880108 130 436.00870429715195 97.5 436.55533113124 97.5 C 437.101957965328 97.5 437.37527138237203 130 437.92189821646 130 C 439.015151884636 130 439.56177871872404 130 440.6550323869 130 C 441.201659220984 130 441.474972638026 130 442.02159947211 130 C 442.56822630619797 130 442.841539723242 130 443.38816655733 130 C 443.93479339141805 130 444.208106808462 130 444.75473364255 130 C 445.847987310722 130 446.39461414480803 97.5 447.48786781298 97.5 C 448.034494647068 97.5 448.307808064112 130 448.8544348982 130 C 449.401061732288 130 449.674375149332 130 450.22100198342 130 C 450.767628817508 130 451.04094223455195 130 451.58756906864 130 C 452.68082273681193 130 453.227449570898 130 454.32070323907 130 C 454.867330073158 130 455.140643490202 130 455.68727032429 130 C 456.233897158378 130 456.50721057542194 97.5 457.05383740951 97.5 C 457.60046424359797 97.5 457.873777660642 97.5 458.42040449473 97.5 C 459.513658162902 97.5 460.06028499698806 130 461.15353866516 130 C 461.70016549924804 130 461.973478916292 130 462.52010575038 130 C 464.15998625264 130 464.97992650377 97.5 466.61980700603 97.5 C 467.713060674206 97.5 469.35294117647 97.5 469.35294117647 97.5" class="highcharts-graph" data-z-index="1" stroke="#5D83FF" stroke-width="2" stroke-linejoin="round" stroke-linecap="round"></path></g><g data-z-index="0.1" class="highcharts-markers highcharts-series-1 highcharts-spline-series highcharts-color-1 " transform="translate(68,63) scale(1 1)" clip-path="none"></g></g><text x="300" text-anchor="middle" class="highcharts-title" data-z-index="4" style="color:#333333;font-size:18px;fill:#333333;" y="24"><tspan>Humira &amp; Overall Mood Over Time</tspan></text><text x="300" text-anchor="middle" class="highcharts-subtitle" data-z-index="4" style="color:#666666;fill:#666666;" y="46"><tspan>Black represents the sum of Humira over the previous 7 days</tspan></text><g class="highcharts-legend" data-z-index="7" transform="translate(154,358)"><rect fill="none" class="highcharts-legend-box" rx="0" ry="0" x="0" y="0" width="292" height="27" visibility="visible"></rect><g data-z-index="1"><g><g class="highcharts-legend-item highcharts-spline-series highcharts-color-0 highcharts-series-0" data-z-index="1" transform="translate(8,3)"><path fill="none" d="M 0 11 L 16 11" class="highcharts-graph" stroke="#000000" stroke-width="2"></path><path fill="#000000" d="M 12 11 A 4 4 0 1 1 11.999998000000167 10.996000000666664 Z" class="highcharts-point"></path><text x="21" style="color:#333333;font-size:12px;font-weight:bold;cursor:pointer;fill:#333333;" text-anchor="start" data-z-index="2" y="15"><tspan>Humira (units)</tspan></text></g><g class="highcharts-legend-item highcharts-spline-series highcharts-color-1 highcharts-series-1" data-z-index="1" transform="translate(144,3)"><path fill="none" d="M 0 11 L 16 11" class="highcharts-graph" stroke="#5D83FF" stroke-width="2"></path><path fill="#5D83FF" d="M 8 7 L 12 11 8 15 4 11 Z" class="highcharts-point"></path><text x="21" y="15" style="color:#333333;font-size:12px;font-weight:bold;cursor:pointer;fill:#333333;" text-anchor="start" data-z-index="2"><tspan>Overall Mood (/5)</tspan></text></g></g></g></g><g class="highcharts-axis-labels highcharts-xaxis-labels " data-z-index="7"><text x="98.878699272233" style="color:#666666;cursor:default;font-size:11px;fill:#666666;" text-anchor="start" transform="translate(0,0)" y="342" opacity="1"><tspan>Jul '12</tspan></text><text x="350.32704295232" style="color:#666666;cursor:default;font-size:11px;fill:#666666;" text-anchor="start" transform="translate(0,0)" y="342" opacity="1"><tspan>Jan '13</tspan></text><text x="224.60287111228" style="color:#666666;cursor:default;font-size:11px;fill:#666666;" text-anchor="start" transform="translate(0,0)" y="342" opacity="1"><tspan>Oct '12</tspan></text><text x="473.31808062193" style="color:#666666;cursor:default;font-size:11px;fill:#666666;" text-anchor="start" transform="translate(0,0)" y="342" opacity="1"><tspan>Apr '13</tspan></text></g><g class="highcharts-axis-labels highcharts-yaxis-labels " data-z-index="7"><text x="53" style="color:#666666;cursor:default;font-size:11px;fill:#666666;" text-anchor="end" transform="translate(0,0)" y="327" opacity="1">0</text><text x="53" style="color:#666666;cursor:default;font-size:11px;fill:#666666;" text-anchor="end" transform="translate(0,0)" y="262" opacity="1">0.6</text><text x="53" style="color:#666666;cursor:default;font-size:11px;fill:#666666;" text-anchor="end" transform="translate(0,0)" y="197" opacity="1">1.2</text><text x="53" style="color:#666666;cursor:default;font-size:11px;fill:#666666;" text-anchor="end" transform="translate(0,0)" y="132" opacity="1">1.8</text><text x="53" style="color:#666666;cursor:default;font-size:11px;fill:#666666;" text-anchor="end" transform="translate(0,0)" y="67" opacity="1">2.4</text></g><g class="highcharts-axis-labels highcharts-yaxis-labels " data-z-index="7"><text x="557" style="color:#666666;cursor:default;font-size:11px;fill:#666666;" text-anchor="start" transform="translate(0,0)" y="327" opacity="1">0</text><text x="557" style="color:#666666;cursor:default;font-size:11px;fill:#666666;" text-anchor="start" transform="translate(0,0)" y="262" opacity="1">2</text><text x="557" style="color:#666666;cursor:default;font-size:11px;fill:#666666;" text-anchor="start" transform="translate(0,0)" y="197" opacity="1">4</text><text x="557" style="color:#666666;cursor:default;font-size:11px;fill:#666666;" text-anchor="start" transform="translate(0,0)" y="132" opacity="1">6</text><text x="557" style="color:#666666;cursor:default;font-size:11px;fill:#666666;" text-anchor="start" transform="translate(0,0)" y="67" opacity="1">8</text></g><a xlink:href="https://quantimo.do" target="_blank">
                    <text x="590" class="highcharts-credits" text-anchor="end" data-z-index="8"
                          style="cursor:pointer;color:#999999;font-size:9px;fill:#999999;" y="395">https://quantimo.do
                    </text>
                </a></svg>