<?xml version="1.0" standalone="no"?><!DOCTYPE svg PUBLIC "-//W3C//DTD SVG 1.1//EN" "http://www.w3.org/Graphics/SVG/1.1/DTD/svg11.dtd"><svg xmlns:xlink="http://www.w3.org/1999/xlink" version="1.1" class="highcharts-root" style="font-family:&quot;Lucida Grande&quot;, &quot;Lucida Sans Unicode&quot;, Arial, Helvetica, sans-serif;font-size:12px;" xmlns="http://www.w3.org/2000/svg" width="600" height="400"><desc>Created with Highstock 6.2.0</desc><defs><clipPath id="highcharts-y4kaxkb-188"><rect x="0" y="0" width="532" height="263" fill="none"></rect></clipPath><clipPath id="highcharts-y4kaxkb-370"><rect x="0" y="0" width="532" height="263" fill="none"></rect></clipPath><clipPath id="highcharts-y4kaxkb-371"><rect x="58" y="78" width="532" height="263" fill="none"></rect></clipPath></defs><rect fill="#ffffff" class="highcharts-background" x="0" y="0" width="600" height="400" rx="0" ry="0"></rect><rect fill="none" class="highcharts-plot-background" x="58" y="78" width="532" height="263"></rect><g class="highcharts-pane-group" data-z-index="0"></g><g class="highcharts-grid highcharts-xaxis-grid " data-z-index="1"><path fill="none" data-z-index="1" class="highcharts-grid-line" d="M 62.5 78 L 62.5 341" opacity="1"></path><path fill="none" data-z-index="1" class="highcharts-grid-line" d="M 127.5 78 L 127.5 341" opacity="1"></path><path fill="none" data-z-index="1" class="highcharts-grid-line" d="M 193.5 78 L 193.5 341" opacity="1"></path><path fill="none" data-z-index="1" class="highcharts-grid-line" d="M 258.5 78 L 258.5 341" opacity="1"></path><path fill="none" data-z-index="1" class="highcharts-grid-line" d="M 323.5 78 L 323.5 341" opacity="1"></path><path fill="none" data-z-index="1" class="highcharts-grid-line" d="M 388.5 78 L 388.5 341" opacity="1"></path><path fill="none" data-z-index="1" class="highcharts-grid-line" d="M 453.5 78 L 453.5 341" opacity="1"></path><path fill="none" data-z-index="1" class="highcharts-grid-line" d="M 519.5 78 L 519.5 341" opacity="1"></path><path fill="none" data-z-index="1" class="highcharts-grid-line" d="M 584.5 78 L 584.5 341" opacity="1"></path></g><g class="highcharts-grid highcharts-yaxis-grid " data-z-index="1"><path fill="none" stroke="#e6e6e6" stroke-width="1" data-z-index="1" class="highcharts-grid-line" d="M 58 341.5 L 590 341.5" opacity="1"></path><path fill="none" stroke="#e6e6e6" stroke-width="1" data-z-index="1" class="highcharts-grid-line" d="M 58 288.5 L 590 288.5" opacity="1"></path><path fill="none" stroke="#e6e6e6" stroke-width="1" data-z-index="1" class="highcharts-grid-line" d="M 58 236.5 L 590 236.5" opacity="1"></path><path fill="none" stroke="#e6e6e6" stroke-width="1" data-z-index="1" class="highcharts-grid-line" d="M 58 183.5 L 590 183.5" opacity="1"></path><path fill="none" stroke="#e6e6e6" stroke-width="1" data-z-index="1" class="highcharts-grid-line" d="M 58 131.5 L 590 131.5" opacity="1"></path><path fill="none" stroke="#e6e6e6" stroke-width="1" data-z-index="1" class="highcharts-grid-line" d="M 58 77.5 L 590 77.5" opacity="1"></path></g><rect fill="none" class="highcharts-plot-border" data-z-index="1" x="58" y="78" width="532" height="263"></rect><g class="highcharts-axis highcharts-xaxis " data-z-index="2"><path fill="none" class="highcharts-tick" stroke="#ccd6eb" stroke-width="1" d="M 62.5 341 L 62.5 351" opacity="1"></path><path fill="none" class="highcharts-tick" stroke="#ccd6eb" stroke-width="1" d="M 127.5 341 L 127.5 351" opacity="1"></path><path fill="none" class="highcharts-tick" stroke="#ccd6eb" stroke-width="1" d="M 193.5 341 L 193.5 351" opacity="1"></path><path fill="none" class="highcharts-tick" stroke="#ccd6eb" stroke-width="1" d="M 258.5 341 L 258.5 351" opacity="1"></path><path fill="none" class="highcharts-tick" stroke="#ccd6eb" stroke-width="1" d="M 323.5 341 L 323.5 351" opacity="1"></path><path fill="none" class="highcharts-tick" stroke="#ccd6eb" stroke-width="1" d="M 388.5 341 L 388.5 351" opacity="1"></path><path fill="none" class="highcharts-tick" stroke="#ccd6eb" stroke-width="1" d="M 453.5 341 L 453.5 351" opacity="1"></path><path fill="none" class="highcharts-tick" stroke="#ccd6eb" stroke-width="1" d="M 519.5 341 L 519.5 351" opacity="1"></path><path fill="none" class="highcharts-tick" stroke="#ccd6eb" stroke-width="1" d="M 584.5 341 L 584.5 351" opacity="1"></path><text x="324" data-z-index="7" text-anchor="middle" transform="translate(0,0)" class="highcharts-axis-title" style="color:#666666;fill:#666666;" y="381"><tspan>Humira (units) over previous 7 days</tspan></text><path fill="none" class="highcharts-axis-line" stroke="#ccd6eb" stroke-width="1" data-z-index="7" d="M 58 341.5 L 590 341.5"></path></g><g class="highcharts-axis highcharts-yaxis " data-z-index="2"><text x="26" data-z-index="7" text-anchor="middle" transform="translate(0,0) rotate(270 26 209.5)" class="highcharts-axis-title" style="color:#666666;fill:#666666;" y="209.5"><tspan>Overall Mood (/5)</tspan></text><path fill="none" class="highcharts-axis-line" data-z-index="7" d="M 58 78 L 58 341"></path></g><g class="highcharts-series-group" data-z-index="3"><g data-z-index="0.1" class="highcharts-series highcharts-series-0 highcharts-scatter-series highcharts-color-0 " transform="translate(58,78) scale(1 1)" clip-path="url(#highcharts-y4kaxkb-370)"></g><g data-z-index="0.1" class="highcharts-markers highcharts-series-0 highcharts-scatter-series highcharts-color-0 " transform="translate(58,78) scale(1 1)" clip-path="none"><path fill="#000000" d="M 9 158 A 4 4 0 1 1 8.999998000000167 157.99600000066667 Z" class="highcharts-point highcharts-color-0"></path><path fill="#000000" d="M 9 105 A 4 4 0 1 1 8.999998000000167 104.99600000066667 Z" class="highcharts-point highcharts-color-0"></path><path fill="#000000" d="M 9 158 A 4 4 0 1 1 8.999998000000167 157.99600000066667 Z" class="highcharts-point highcharts-color-0"></path><path fill="#000000" d="M 9 158 A 4 4 0 1 1 8.999998000000167 157.99600000066667 Z" class="highcharts-point highcharts-color-0"></path><path fill="#000000" d="M 9 158 A 4 4 0 1 1 8.999998000000167 157.99600000066667 Z" class="highcharts-point highcharts-color-0"></path><path fill="#000000" d="M 9 158 A 4 4 0 1 1 8.999998000000167 157.99600000066667 Z" class="highcharts-point highcharts-color-0"></path><path fill="#000000" d="M 9 158 A 4 4 0 1 1 8.999998000000167 157.99600000066667 Z" class="highcharts-point highcharts-color-0"></path><path fill="#000000" d="M 9 158 A 4 4 0 1 1 8.999998000000167 157.99600000066667 Z" class="highcharts-point highcharts-color-0"></path><path fill="#000000" d="M 9 158 A 4 4 0 1 1 8.999998000000167 157.99600000066667 Z" class="highcharts-point highcharts-color-0"></path><path fill="#000000" d="M 9 158 A 4 4 0 1 1 8.999998000000167 157.99600000066667 Z" class="highcharts-point highcharts-color-0"></path><path fill="#000000" d="M 9 210 A 4 4 0 1 1 8.999998000000167 209.99600000066667 Z" class="highcharts-point highcharts-color-0"></path><path fill="#000000" d="M 9 105 A 4 4 0 1 1 8.999998000000167 104.99600000066667 Z" class="highcharts-point highcharts-color-0"></path><path fill="#000000" d="M 9 210 A 4 4 0 1 1 8.999998000000167 209.99600000066667 Z" class="highcharts-point highcharts-color-0"></path><path fill="#000000" d="M 9 158 A 4 4 0 1 1 8.999998000000167 157.99600000066667 Z" class="highcharts-point highcharts-color-0"></path><path fill="#000000" d="M 9 105 A 4 4 0 1 1 8.999998000000167 104.99600000066667 Z" class="highcharts-point highcharts-color-0"></path><path fill="#000000" d="M 9 158 A 4 4 0 1 1 8.999998000000167 157.99600000066667 Z" class="highcharts-point highcharts-color-0"></path><path fill="#000000" d="M 9 158 A 4 4 0 1 1 8.999998000000167 157.99600000066667 Z" class="highcharts-point highcharts-color-0"></path><path fill="#000000" d="M 9 158 A 4 4 0 1 1 8.999998000000167 157.99600000066667 Z" class="highcharts-point highcharts-color-0"></path><path fill="#000000" d="M 9 210 A 4 4 0 1 1 8.999998000000167 209.99600000066667 Z" class="highcharts-point highcharts-color-0"></path><path fill="#000000" d="M 9 210 A 4 4 0 1 1 8.999998000000167 209.99600000066667 Z" class="highcharts-point highcharts-color-0"></path><path fill="#000000" d="M 9 158 A 4 4 0 1 1 8.999998000000167 157.99600000066667 Z" class="highcharts-point highcharts-color-0"></path><path fill="#000000" d="M 9 105 A 4 4 0 1 1 8.999998000000167 104.99600000066667 Z" class="highcharts-point highcharts-color-0"></path><path fill="#000000" d="M 9 105 A 4 4 0 1 1 8.999998000000167 104.99600000066667 Z" class="highcharts-point highcharts-color-0"></path><path fill="#000000" d="M 9 105 A 4 4 0 1 1 8.999998000000167 104.99600000066667 Z" class="highcharts-point highcharts-color-0"></path><path fill="#000000" d="M 270 158 A 4 4 0 1 1 269.9999980000002 157.99600000066667 Z" class="highcharts-point highcharts-color-0"></path><path fill="#000000" d="M 270 158 A 4 4 0 1 1 269.9999980000002 157.99600000066667 Z" class="highcharts-point highcharts-color-0"></path><path fill="#000000" d="M 270 105 A 4 4 0 1 1 269.9999980000002 104.99600000066667 Z" class="highcharts-point highcharts-color-0"></path><path fill="#000000" d="M 270 105 A 4 4 0 1 1 269.9999980000002 104.99600000066667 Z" class="highcharts-point highcharts-color-0"></path><path fill="#000000" d="M 270 158 A 4 4 0 1 1 269.9999980000002 157.99600000066667 Z" class="highcharts-point highcharts-color-0"></path><path fill="#000000" d="M 270 105 A 4 4 0 1 1 269.9999980000002 104.99600000066667 Z" class="highcharts-point highcharts-color-0"></path><path fill="#000000" d="M 270 105 A 4 4 0 1 1 269.9999980000002 104.99600000066667 Z" class="highcharts-point highcharts-color-0"></path><path fill="#000000" d="M 270 158 A 4 4 0 1 1 269.9999980000002 157.99600000066667 Z" class="highcharts-point highcharts-color-0"></path><path fill="#000000" d="M 9 105 A 4 4 0 1 1 8.999998000000167 104.99600000066667 Z" class="highcharts-point highcharts-color-0"></path><path fill="#000000" d="M 9 105 A 4 4 0 1 1 8.999998000000167 104.99600000066667 Z" class="highcharts-point highcharts-color-0"></path><path fill="#000000" d="M 270 158 A 4 4 0 1 1 269.9999980000002 157.99600000066667 Z" class="highcharts-point highcharts-color-0"></path><path fill="#000000" d="M 270 105 A 4 4 0 1 1 269.9999980000002 104.99600000066667 Z" class="highcharts-point highcharts-color-0"></path><path fill="#000000" d="M 9 105 A 4 4 0 1 1 8.999998000000167 104.99600000066667 Z" class="highcharts-point highcharts-color-0"></path><path fill="#000000" d="M 9 53 A 4 4 0 1 1 8.999998000000167 52.99600000066666 Z" class="highcharts-point highcharts-color-0"></path><path fill="#000000" d="M 9 105 A 4 4 0 1 1 8.999998000000167 104.99600000066667 Z" class="highcharts-point highcharts-color-0"></path><path fill="#000000" d="M 9 158 A 4 4 0 1 1 8.999998000000167 157.99600000066667 Z" class="highcharts-point highcharts-color-0"></path><path fill="#000000" d="M 9 167 A 4 4 0 1 1 8.999998000000167 166.99600000066667 Z" class="highcharts-point highcharts-color-0"></path><path fill="#000000" d="M 9 158 A 4 4 0 1 1 8.999998000000167 157.99600000066667 Z" class="highcharts-point highcharts-color-0"></path><path fill="#000000" d="M 9 143 A 4 4 0 1 1 8.999998000000167 142.99600000066667 Z" class="highcharts-point highcharts-color-0"></path><path fill="#000000" d="M 9 105 A 4 4 0 1 1 8.999998000000167 104.99600000066667 Z" class="highcharts-point highcharts-color-0"></path><path fill="#000000" d="M 9 113 A 4 4 0 1 1 8.999998000000167 112.99600000066667 Z" class="highcharts-point highcharts-color-0"></path><path fill="#000000" d="M 9 158 A 4 4 0 1 1 8.999998000000167 157.99600000066667 Z" class="highcharts-point highcharts-color-0"></path><path fill="#000000" d="M 9 158 A 4 4 0 1 1 8.999998000000167 157.99600000066667 Z" class="highcharts-point highcharts-color-0"></path><path fill="#000000" d="M 9 158 A 4 4 0 1 1 8.999998000000167 157.99600000066667 Z" class="highcharts-point highcharts-color-0"></path><path fill="#000000" d="M 9 184 A 4 4 0 1 1 8.999998000000167 183.99600000066667 Z" class="highcharts-point highcharts-color-0"></path><path fill="#000000" d="M 9 184 A 4 4 0 1 1 8.999998000000167 183.99600000066667 Z" class="highcharts-point highcharts-color-0"></path><path fill="#000000" d="M 9 158 A 4 4 0 1 1 8.999998000000167 157.99600000066667 Z" class="highcharts-point highcharts-color-0"></path><path fill="#000000" d="M 9 158 A 4 4 0 1 1 8.999998000000167 157.99600000066667 Z" class="highcharts-point highcharts-color-0"></path><path fill="#000000" d="M 9 150 A 4 4 0 1 1 8.999998000000167 149.99600000066667 Z" class="highcharts-point highcharts-color-0"></path><path fill="#000000" d="M 9 143 A 4 4 0 1 1 8.999998000000167 142.99600000066667 Z" class="highcharts-point highcharts-color-0"></path><path fill="#000000" d="M 9 150 A 4 4 0 1 1 8.999998000000167 149.99600000066667 Z" class="highcharts-point highcharts-color-0"></path><path fill="#000000" d="M 9 150 A 4 4 0 1 1 8.999998000000167 149.99600000066667 Z" class="highcharts-point highcharts-color-0"></path><path fill="#000000" d="M 9 105 A 4 4 0 1 1 8.999998000000167 104.99600000066667 Z" class="highcharts-point highcharts-color-0"></path><path fill="#000000" d="M 9 105 A 4 4 0 1 1 8.999998000000167 104.99600000066667 Z" class="highcharts-point highcharts-color-0"></path><path fill="#000000" d="M 9 158 A 4 4 0 1 1 8.999998000000167 157.99600000066667 Z" class="highcharts-point highcharts-color-0"></path><path fill="#000000" d="M 9 200 A 4 4 0 1 1 8.999998000000167 199.99600000066667 Z" class="highcharts-point highcharts-color-0"></path><path fill="#000000" d="M 270 140 A 4 4 0 1 1 269.9999980000002 139.99600000066667 Z" class="highcharts-point highcharts-color-0"></path><path fill="#000000" d="M 270 153 A 4 4 0 1 1 269.9999980000002 152.99600000066667 Z" class="highcharts-point highcharts-color-0"></path><path fill="#000000" d="M 270 149 A 4 4 0 1 1 269.9999980000002 148.99600000066667 Z" class="highcharts-point highcharts-color-0"></path><path fill="#000000" d="M 530 142 A 4 4 0 1 1 529.9999980000001 141.99600000066667 Z" class="highcharts-point highcharts-color-0"></path><path fill="#000000" d="M 530 148 A 4 4 0 1 1 529.9999980000001 147.99600000066667 Z" class="highcharts-point highcharts-color-0"></path><path fill="#000000" d="M 530 142 A 4 4 0 1 1 529.9999980000001 141.99600000066667 Z" class="highcharts-point highcharts-color-0"></path><path fill="#000000" d="M 530 150 A 4 4 0 1 1 529.9999980000001 149.99600000066667 Z" class="highcharts-point highcharts-color-0"></path><path fill="#000000" d="M 530 123 A 4 4 0 1 1 529.9999980000001 122.99600000066667 Z" class="highcharts-point highcharts-color-0"></path><path fill="#000000" d="M 530 133 A 4 4 0 1 1 529.9999980000001 132.99600000066667 Z" class="highcharts-point highcharts-color-0"></path><path fill="#000000" d="M 530 111 A 4 4 0 1 1 529.9999980000001 110.99600000066667 Z" class="highcharts-point highcharts-color-0"></path><path fill="#000000" d="M 270 105 A 4 4 0 1 1 269.9999980000002 104.99600000066667 Z" class="highcharts-point highcharts-color-0"></path><path fill="#000000" d="M 270 105 A 4 4 0 1 1 269.9999980000002 104.99600000066667 Z" class="highcharts-point highcharts-color-0"></path><path fill="#000000" d="M 270 110 A 4 4 0 1 1 269.9999980000002 109.99600000066667 Z" class="highcharts-point highcharts-color-0"></path><path fill="#000000" d="M 270 158 A 4 4 0 1 1 269.9999980000002 157.99600000066667 Z" class="highcharts-point highcharts-color-0"></path><path fill="#000000" d="M 9 110 A 4 4 0 1 1 8.999998000000167 109.99600000066667 Z" class="highcharts-point highcharts-color-0"></path><path fill="#000000" d="M 9 129 A 4 4 0 1 1 8.999998000000167 128.99600000066667 Z" class="highcharts-point highcharts-color-0"></path><path fill="#000000" d="M 9 123 A 4 4 0 1 1 8.999998000000167 122.99600000066667 Z" class="highcharts-point highcharts-color-0"></path><path fill="#000000" d="M 9 123 A 4 4 0 1 1 8.999998000000167 122.99600000066667 Z" class="highcharts-point highcharts-color-0"></path><path fill="#000000" d="M 9 158 A 4 4 0 1 1 8.999998000000167 157.99600000066667 Z" class="highcharts-point highcharts-color-0"></path><path fill="#000000" d="M 9 167 A 4 4 0 1 1 8.999998000000167 166.99600000066667 Z" class="highcharts-point highcharts-color-0"></path><path fill="#000000" d="M 9 202 A 4 4 0 1 1 8.999998000000167 201.99600000066667 Z" class="highcharts-point highcharts-color-0"></path><path fill="#000000" d="M 270 140 A 4 4 0 1 1 269.9999980000002 139.99600000066667 Z" class="highcharts-point highcharts-color-0"></path><path fill="#000000" d="M 270 126 A 4 4 0 1 1 269.9999980000002 125.99600000066667 Z" class="highcharts-point highcharts-color-0"></path><path fill="#000000" d="M 270 121 A 4 4 0 1 1 269.9999980000002 120.99600000066667 Z" class="highcharts-point highcharts-color-0"></path><path fill="#000000" d="M 270 140 A 4 4 0 1 1 269.9999980000002 139.99600000066667 Z" class="highcharts-point highcharts-color-0"></path><path fill="#000000" d="M 270 140 A 4 4 0 1 1 269.9999980000002 139.99600000066667 Z" class="highcharts-point highcharts-color-0"></path><path fill="#000000" d="M 270 138 A 4 4 0 1 1 269.9999980000002 137.99600000066667 Z" class="highcharts-point highcharts-color-0"></path><path fill="#000000" d="M 270 123 A 4 4 0 1 1 269.9999980000002 122.99600000066667 Z" class="highcharts-point highcharts-color-0"></path><path fill="#000000" d="M 9 132 A 4 4 0 1 1 8.999998000000167 131.99600000066667 Z" class="highcharts-point highcharts-color-0"></path><path fill="#000000" d="M 9 140 A 4 4 0 1 1 8.999998000000167 139.99600000066667 Z" class="highcharts-point highcharts-color-0"></path><path fill="#000000" d="M 9 143 A 4 4 0 1 1 8.999998000000167 142.99600000066667 Z" class="highcharts-point highcharts-color-0"></path><path fill="#000000" d="M 270 105 A 4 4 0 1 1 269.9999980000002 104.99600000066667 Z" class="highcharts-point highcharts-color-0"></path><path fill="#000000" d="M 270 132 A 4 4 0 1 1 269.9999980000002 131.99600000066667 Z" class="highcharts-point highcharts-color-0"></path><path fill="#000000" d="M 270 158 A 4 4 0 1 1 269.9999980000002 157.99600000066667 Z" class="highcharts-point highcharts-color-0"></path><path fill="#000000" d="M 270 132 A 4 4 0 1 1 269.9999980000002 131.99600000066667 Z" class="highcharts-point highcharts-color-0"></path><path fill="#000000" d="M 270 98 A 4 4 0 1 1 269.9999980000002 97.99600000066667 Z" class="highcharts-point highcharts-color-0"></path><path fill="#000000" d="M 270 90 A 4 4 0 1 1 269.9999980000002 89.99600000066667 Z" class="highcharts-point highcharts-color-0"></path><path fill="#000000" d="M 270 92 A 4 4 0 1 1 269.9999980000002 91.99600000066667 Z" class="highcharts-point highcharts-color-0"></path><path fill="#000000" d="M 9 59 A 4 4 0 1 1 8.999998000000167 58.99600000066666 Z" class="highcharts-point highcharts-color-0"></path><path fill="#000000" d="M 9 53 A 4 4 0 1 1 8.999998000000167 52.99600000066666 Z" class="highcharts-point highcharts-color-0"></path><path fill="#000000" d="M 9 61 A 4 4 0 1 1 8.999998000000167 60.99600000066666 Z" class="highcharts-point highcharts-color-0"></path><path fill="#000000" d="M 9 105 A 4 4 0 1 1 8.999998000000167 104.99600000066667 Z" class="highcharts-point highcharts-color-0"></path><path fill="#000000" d="M 270 98 A 4 4 0 1 1 269.9999980000002 97.99600000066667 Z" class="highcharts-point highcharts-color-0"></path><path fill="#000000" d="M 270 92 A 4 4 0 1 1 269.9999980000002 91.99600000066667 Z" class="highcharts-point highcharts-color-0"></path><path fill="#000000" d="M 270 59 A 4 4 0 1 1 269.9999980000002 58.99600000066666 Z" class="highcharts-point highcharts-color-0"></path><path fill="#000000" d="M 270 53 A 4 4 0 1 1 269.9999980000002 52.99600000066666 Z" class="highcharts-point highcharts-color-0"></path><path fill="#000000" d="M 270 53 A 4 4 0 1 1 269.9999980000002 52.99600000066666 Z" class="highcharts-point highcharts-color-0"></path><path fill="#000000" d="M 270 58 A 4 4 0 1 1 269.9999980000002 57.99600000066666 Z" class="highcharts-point highcharts-color-0"></path><path fill="#000000" d="M 270 99 A 4 4 0 1 1 269.9999980000002 98.99600000066667 Z" class="highcharts-point highcharts-color-0"></path><path fill="#000000" d="M 270 110 A 4 4 0 1 1 269.9999980000002 109.99600000066667 Z" class="highcharts-point highcharts-color-0"></path><path fill="#000000" d="M 270 72 A 4 4 0 1 1 269.9999980000002 71.99600000066667 Z" class="highcharts-point highcharts-color-0"></path><path fill="#000000" d="M 270 79 A 4 4 0 1 1 269.9999980000002 78.99600000066667 Z" class="highcharts-point highcharts-color-0"></path><path fill="#000000" d="M 270 72 A 4 4 0 1 1 269.9999980000002 71.99600000066667 Z" class="highcharts-point highcharts-color-0"></path><path fill="#000000" d="M 270 81 A 4 4 0 1 1 269.9999980000002 80.99600000066667 Z" class="highcharts-point highcharts-color-0"></path><path fill="#000000" d="M 270 84 A 4 4 0 1 1 269.9999980000002 83.99600000066667 Z" class="highcharts-point highcharts-color-0"></path><path fill="#000000" d="M 270 142 A 4 4 0 1 1 269.9999980000002 141.99600000066667 Z" class="highcharts-point highcharts-color-0"></path><path fill="#000000" d="M 270 126 A 4 4 0 1 1 269.9999980000002 125.99600000066667 Z" class="highcharts-point highcharts-color-0"></path><path fill="#000000" d="M 270 84 A 4 4 0 1 1 269.9999980000002 83.99600000066667 Z" class="highcharts-point highcharts-color-0"></path><path fill="#000000" d="M 270 105 A 4 4 0 1 1 269.9999980000002 104.99600000066667 Z" class="highcharts-point highcharts-color-0"></path><path fill="#000000" d="M 270 105 A 4 4 0 1 1 269.9999980000002 104.99600000066667 Z" class="highcharts-point highcharts-color-0"></path><path fill="#000000" d="M 270 72 A 4 4 0 1 1 269.9999980000002 71.99600000066667 Z" class="highcharts-point highcharts-color-0"></path><path fill="#000000" d="M 270 68 A 4 4 0 1 1 269.9999980000002 67.99600000066667 Z" class="highcharts-point highcharts-color-0"></path><path fill="#000000" d="M 270 79 A 4 4 0 1 1 269.9999980000002 78.99600000066667 Z" class="highcharts-point highcharts-color-0"></path><path fill="#000000" d="M 9 72 A 4 4 0 1 1 8.999998000000167 71.99600000066667 Z" class="highcharts-point highcharts-color-0"></path><path fill="#000000" d="M 9 105 A 4 4 0 1 1 8.999998000000167 104.99600000066667 Z" class="highcharts-point highcharts-color-0"></path><path fill="#000000" d="M 9 68 A 4 4 0 1 1 8.999998000000167 67.99600000066667 Z" class="highcharts-point highcharts-color-0"></path><path fill="#000000" d="M 9 72 A 4 4 0 1 1 8.999998000000167 71.99600000066667 Z" class="highcharts-point highcharts-color-0"></path><path fill="#000000" d="M 9 72 A 4 4 0 1 1 8.999998000000167 71.99600000066667 Z" class="highcharts-point highcharts-color-0"></path><path fill="#000000" d="M 9 68 A 4 4 0 1 1 8.999998000000167 67.99600000066667 Z" class="highcharts-point highcharts-color-0"></path><path fill="#000000" d="M 9 137 A 4 4 0 1 1 8.999998000000167 136.99600000066667 Z" class="highcharts-point highcharts-color-0"></path><path fill="#000000" d="M 270 123 A 4 4 0 1 1 269.9999980000002 122.99600000066667 Z" class="highcharts-point highcharts-color-0"></path><path fill="#000000" d="M 270 79 A 4 4 0 1 1 269.9999980000002 78.99600000066667 Z" class="highcharts-point highcharts-color-0"></path><path fill="#000000" d="M 270 105 A 4 4 0 1 1 269.9999980000002 104.99600000066667 Z" class="highcharts-point highcharts-color-0"></path><path fill="#000000" d="M 270 72 A 4 4 0 1 1 269.9999980000002 71.99600000066667 Z" class="highcharts-point highcharts-color-0"></path><path fill="#000000" d="M 270 113 A 4 4 0 1 1 269.9999980000002 112.99600000066667 Z" class="highcharts-point highcharts-color-0"></path><path fill="#000000" d="M 270 171 A 4 4 0 1 1 269.9999980000002 170.99600000066667 Z" class="highcharts-point highcharts-color-0"></path><path fill="#000000" d="M 270 79 A 4 4 0 1 1 269.9999980000002 78.99600000066667 Z" class="highcharts-point highcharts-color-0"></path><path fill="#000000" d="M 270 76 A 4 4 0 1 1 269.9999980000002 75.99600000066667 Z" class="highcharts-point highcharts-color-0"></path><path fill="#000000" d="M 270 64 A 4 4 0 1 1 269.9999980000002 63.99600000066666 Z" class="highcharts-point highcharts-color-0"></path><path fill="#000000" d="M 270 66 A 4 4 0 1 1 269.9999980000002 65.99600000066667 Z" class="highcharts-point highcharts-color-0"></path><path fill="#000000" d="M 270 82 A 4 4 0 1 1 269.9999980000002 81.99600000066667 Z" class="highcharts-point highcharts-color-0"></path><path fill="#000000" d="M 270 76 A 4 4 0 1 1 269.9999980000002 75.99600000066667 Z" class="highcharts-point highcharts-color-0"></path><path fill="#000000" d="M 270 84 A 4 4 0 1 1 269.9999980000002 83.99600000066667 Z" class="highcharts-point highcharts-color-0"></path><path fill="#000000" d="M 270 105 A 4 4 0 1 1 269.9999980000002 104.99600000066667 Z" class="highcharts-point highcharts-color-0"></path><path fill="#000000" d="M 270 149 A 4 4 0 1 1 269.9999980000002 148.99600000066667 Z" class="highcharts-point highcharts-color-0"></path><path fill="#000000" d="M 270 123 A 4 4 0 1 1 269.9999980000002 122.99600000066667 Z" class="highcharts-point highcharts-color-0"></path><path fill="#000000" d="M 270 113 A 4 4 0 1 1 269.9999980000002 112.99600000066667 Z" class="highcharts-point highcharts-color-0"></path><path fill="#000000" d="M 270 105 A 4 4 0 1 1 269.9999980000002 104.99600000066667 Z" class="highcharts-point highcharts-color-0"></path><path fill="#000000" d="M 270 79 A 4 4 0 1 1 269.9999980000002 78.99600000066667 Z" class="highcharts-point highcharts-color-0"></path><path fill="#000000" d="M 270 105 A 4 4 0 1 1 269.9999980000002 104.99600000066667 Z" class="highcharts-point highcharts-color-0"></path><path fill="#000000" d="M 270 132 A 4 4 0 1 1 269.9999980000002 131.99600000066667 Z" class="highcharts-point highcharts-color-0"></path><path fill="#000000" d="M 9 61 A 4 4 0 1 1 8.999998000000167 60.99600000066666 Z" class="highcharts-point highcharts-color-0"></path><path fill="#000000" d="M 9 105 A 4 4 0 1 1 8.999998000000167 104.99600000066667 Z" class="highcharts-point highcharts-color-0"></path><path fill="#000000" d="M 9 105 A 4 4 0 1 1 8.999998000000167 104.99600000066667 Z" class="highcharts-point highcharts-color-0"></path><path fill="#000000" d="M 9 158 A 4 4 0 1 1 8.999998000000167 157.99600000066667 Z" class="highcharts-point highcharts-color-0"></path><path fill="#000000" d="M 9 114 A 4 4 0 1 1 8.999998000000167 113.99600000066667 Z" class="highcharts-point highcharts-color-0"></path><path fill="#000000" d="M 9 105 A 4 4 0 1 1 8.999998000000167 104.99600000066667 Z" class="highcharts-point highcharts-color-0"></path><path fill="#000000" d="M 9 61 A 4 4 0 1 1 8.999998000000167 60.99600000066666 Z" class="highcharts-point highcharts-color-0"></path><path fill="#000000" d="M 270 105 A 4 4 0 1 1 269.9999980000002 104.99600000066667 Z" class="highcharts-point highcharts-color-0"></path><path fill="#000000" d="M 270 105 A 4 4 0 1 1 269.9999980000002 104.99600000066667 Z" class="highcharts-point highcharts-color-0"></path><path fill="#000000" d="M 270 105 A 4 4 0 1 1 269.9999980000002 104.99600000066667 Z" class="highcharts-point highcharts-color-0"></path><path fill="#000000" d="M 270 105 A 4 4 0 1 1 269.9999980000002 104.99600000066667 Z" class="highcharts-point highcharts-color-0"></path><path fill="#000000" d="M 270 105 A 4 4 0 1 1 269.9999980000002 104.99600000066667 Z" class="highcharts-point highcharts-color-0"></path><path fill="#000000" d="M 270 53 A 4 4 0 1 1 269.9999980000002 52.99600000066666 Z" class="highcharts-point highcharts-color-0"></path><path fill="#000000" d="M 270 105 A 4 4 0 1 1 269.9999980000002 104.99600000066667 Z" class="highcharts-point highcharts-color-0"></path><path fill="#000000" d="M 9 105 A 4 4 0 1 1 8.999998000000167 104.99600000066667 Z" class="highcharts-point highcharts-color-0"></path><path fill="#000000" d="M 9 105 A 4 4 0 1 1 8.999998000000167 104.99600000066667 Z" class="highcharts-point highcharts-color-0"></path><path fill="#000000" d="M 9 105 A 4 4 0 1 1 8.999998000000167 104.99600000066667 Z" class="highcharts-point highcharts-color-0"></path><path fill="#000000" d="M 9 105 A 4 4 0 1 1 8.999998000000167 104.99600000066667 Z" class="highcharts-point highcharts-color-0"></path><path fill="#000000" d="M 9 53 A 4 4 0 1 1 8.999998000000167 52.99600000066666 Z" class="highcharts-point highcharts-color-0"></path><path fill="#000000" d="M 9 105 A 4 4 0 1 1 8.999998000000167 104.99600000066667 Z" class="highcharts-point highcharts-color-0"></path><path fill="#000000" d="M 9 105 A 4 4 0 1 1 8.999998000000167 104.99600000066667 Z" class="highcharts-point highcharts-color-0"></path><path fill="#000000" d="M 9 105 A 4 4 0 1 1 8.999998000000167 104.99600000066667 Z" class="highcharts-point highcharts-color-0"></path><path fill="#000000" d="M 9 105 A 4 4 0 1 1 8.999998000000167 104.99600000066667 Z" class="highcharts-point highcharts-color-0"></path><path fill="#000000" d="M 9 105 A 4 4 0 1 1 8.999998000000167 104.99600000066667 Z" class="highcharts-point highcharts-color-0"></path><path fill="#000000" d="M 9 53 A 4 4 0 1 1 8.999998000000167 52.99600000066666 Z" class="highcharts-point highcharts-color-0"></path><path fill="#000000" d="M 9 53 A 4 4 0 1 1 8.999998000000167 52.99600000066666 Z" class="highcharts-point highcharts-color-0"></path><path fill="#000000" d="M 9 105 A 4 4 0 1 1 8.999998000000167 104.99600000066667 Z" class="highcharts-point highcharts-color-0"></path><path fill="#000000" d="M 9 105 A 4 4 0 1 1 8.999998000000167 104.99600000066667 Z" class="highcharts-point highcharts-color-0"></path><path fill="#000000" d="M 9 53 A 4 4 0 1 1 8.999998000000167 52.99600000066666 Z" class="highcharts-point highcharts-color-0"></path><path fill="#000000" d="M 9 53 A 4 4 0 1 1 8.999998000000167 52.99600000066666 Z" class="highcharts-point highcharts-color-0"></path></g></g><text x="300" text-anchor="middle" class="highcharts-title" data-z-index="4" style="color:#333333;font-size:18px;fill:#333333;" y="24"><tspan>Overall Mood Following Humira</tspan></text><text x="300" text-anchor="middle" class="highcharts-subtitle" data-z-index="4" style="color:#666666;fill:#666666;" y="46"><tspan>An increase in 7 days cumulative Humira is usually followed by an increase in Overall Mood.</tspan><tspan dy="15" x="300">(R = 0.152)</tspan></text><g class="highcharts-axis-labels highcharts-xaxis-labels " data-z-index="7"><text x="63.21568627451" style="color:#666666;cursor:default;font-size:11px;fill:#666666;" text-anchor="middle" transform="translate(0,0)" y="360" opacity="1">0</text><text x="128.41176470588" style="color:#666666;cursor:default;font-size:11px;fill:#666666;" text-anchor="middle" transform="translate(0,0)" y="360" opacity="1">0.25</text><text x="193.60784313725" style="color:#666666;cursor:default;font-size:11px;fill:#666666;" text-anchor="middle" transform="translate(0,0)" y="360" opacity="1">0.5</text><text x="258.80392156863" style="color:#666666;cursor:default;font-size:11px;fill:#666666;" text-anchor="middle" transform="translate(0,0)" y="360" opacity="1">0.75</text><text x="324" style="color:#666666;cursor:default;font-size:11px;fill:#666666;" text-anchor="middle" transform="translate(0,0)" y="360" opacity="1">1</text><text x="389.19607843137" style="color:#666666;cursor:default;font-size:11px;fill:#666666;" text-anchor="middle" transform="translate(0,0)" y="360" opacity="1">1.25</text><text x="454.39215686275" style="color:#666666;cursor:default;font-size:11px;fill:#666666;" text-anchor="middle" transform="translate(0,0)" y="360" opacity="1">1.5</text><text x="519.58823529412" style="color:#666666;cursor:default;font-size:11px;fill:#666666;" text-anchor="middle" transform="translate(0,0)" y="360" opacity="1">1.75</text><text x="584.78431372549" style="color:#666666;cursor:default;font-size:11px;fill:#666666;" text-anchor="middle" transform="translate(0,0)" y="360" opacity="1">2</text></g><g class="highcharts-axis-labels highcharts-yaxis-labels " data-z-index="7"><text x="43" style="color:#666666;cursor:default;font-size:11px;fill:#666666;" text-anchor="end" transform="translate(0,0)" y="345" opacity="1">1</text><text x="43" style="color:#666666;cursor:default;font-size:11px;fill:#666666;" text-anchor="end" transform="translate(0,0)" y="292" opacity="1">2</text><text x="43" style="color:#666666;cursor:default;font-size:11px;fill:#666666;" text-anchor="end" transform="translate(0,0)" y="239" opacity="1">3</text><text x="43" style="color:#666666;cursor:default;font-size:11px;fill:#666666;" text-anchor="end" transform="translate(0,0)" y="187" opacity="1">4</text><text x="43" style="color:#666666;cursor:default;font-size:11px;fill:#666666;" text-anchor="end" transform="translate(0,0)" y="134" opacity="1">5</text><text x="43" style="color:#666666;cursor:default;font-size:11px;fill:#666666;" text-anchor="end" transform="translate(0,0)" y="82" opacity="1">6</text></g><a xlink:href="https://quantimo.do" target="_blank">
                    <text x="590" class="highcharts-credits" text-anchor="end" data-z-index="8"
                          style="cursor:pointer;color:#999999;font-size:9px;fill:#999999;" y="395">https://quantimo.do
                    </text>
                </a></svg>