<?xml version="1.0" standalone="no"?><!DOCTYPE svg PUBLIC "-//W3C//DTD SVG 1.1//EN" "http://www.w3.org/Graphics/SVG/1.1/DTD/svg11.dtd"><svg xmlns:xlink="http://www.w3.org/1999/xlink" version="1.1" class="highcharts-root" style="font-family:&quot;Lucida Grande&quot;, &quot;Lucida Sans Unicode&quot;, Arial, Helvetica, sans-serif;font-size:12px;" xmlns="http://www.w3.org/2000/svg" width="600" height="300"><desc>Created with Highstock 6.2.0</desc><defs><clipPath id="highcharts-c97wmda-19"><rect x="0" y="0" width="501" height="126" fill="none"></rect></clipPath><clipPath id="highcharts-c97wmda-32"><rect x="0" y="0" width="501" height="126" fill="none"></rect></clipPath><clipPath id="highcharts-c97wmda-33"><rect x="89" y="78" width="501" height="126" fill="none"></rect></clipPath></defs><rect fill="#ffffff" class="highcharts-background" x="0" y="0" width="600" height="300" rx="0" ry="0"></rect><rect fill="none" class="highcharts-plot-background" x="89" y="78" width="501" height="126"></rect><g class="highcharts-pane-group" data-z-index="0"></g><g class="highcharts-grid highcharts-xaxis-grid " data-z-index="1"><path fill="none" data-z-index="1" class="highcharts-grid-line" d="M 130.5 78 L 130.5 204" opacity="1"></path><path fill="none" data-z-index="1" class="highcharts-grid-line" d="M 172.5 78 L 172.5 204" opacity="1"></path><path fill="none" data-z-index="1" class="highcharts-grid-line" d="M 213.5 78 L 213.5 204" opacity="1"></path><path fill="none" data-z-index="1" class="highcharts-grid-line" d="M 255.5 78 L 255.5 204" opacity="1"></path><path fill="none" data-z-index="1" class="highcharts-grid-line" d="M 297.5 78 L 297.5 204" opacity="1"></path><path fill="none" data-z-index="1" class="highcharts-grid-line" d="M 339.5 78 L 339.5 204" opacity="1"></path><path fill="none" data-z-index="1" class="highcharts-grid-line" d="M 380.5 78 L 380.5 204" opacity="1"></path><path fill="none" data-z-index="1" class="highcharts-grid-line" d="M 422.5 78 L 422.5 204" opacity="1"></path><path fill="none" data-z-index="1" class="highcharts-grid-line" d="M 464.5 78 L 464.5 204" opacity="1"></path><path fill="none" data-z-index="1" class="highcharts-grid-line" d="M 506.5 78 L 506.5 204" opacity="1"></path><path fill="none" data-z-index="1" class="highcharts-grid-line" d="M 547.5 78 L 547.5 204" opacity="1"></path><path fill="none" data-z-index="1" class="highcharts-grid-line" d="M 589.5 78 L 589.5 204" opacity="1"></path><path fill="none" data-z-index="1" class="highcharts-grid-line" d="M 88.5 78 L 88.5 204" opacity="1"></path></g><g class="highcharts-grid highcharts-yaxis-grid " data-z-index="1"><path fill="none" stroke="#e6e6e6" stroke-width="1" data-z-index="1" class="highcharts-grid-line" d="M 89 204.5 L 590 204.5" opacity="1"></path><path fill="none" stroke="#e6e6e6" stroke-width="1" data-z-index="1" class="highcharts-grid-line" d="M 89 162.5 L 590 162.5" opacity="1"></path><path fill="none" stroke="#e6e6e6" stroke-width="1" data-z-index="1" class="highcharts-grid-line" d="M 89 120.5 L 590 120.5" opacity="1"></path><path fill="none" stroke="#e6e6e6" stroke-width="1" data-z-index="1" class="highcharts-grid-line" d="M 89 77.5 L 590 77.5" opacity="1"></path></g><rect fill="none" class="highcharts-plot-border" data-z-index="1" x="89" y="78" width="501" height="126"></rect><g class="highcharts-axis highcharts-xaxis " data-z-index="2"><path fill="none" class="highcharts-tick" stroke="#ccd6eb" stroke-width="1" d="M 130.5 204 L 130.5 214" opacity="1"></path><path fill="none" class="highcharts-tick" stroke="#ccd6eb" stroke-width="1" d="M 172.5 204 L 172.5 214" opacity="1"></path><path fill="none" class="highcharts-tick" stroke="#ccd6eb" stroke-width="1" d="M 213.5 204 L 213.5 214" opacity="1"></path><path fill="none" class="highcharts-tick" stroke="#ccd6eb" stroke-width="1" d="M 255.5 204 L 255.5 214" opacity="1"></path><path fill="none" class="highcharts-tick" stroke="#ccd6eb" stroke-width="1" d="M 297.5 204 L 297.5 214" opacity="1"></path><path fill="none" class="highcharts-tick" stroke="#ccd6eb" stroke-width="1" d="M 339.5 204 L 339.5 214" opacity="1"></path><path fill="none" class="highcharts-tick" stroke="#ccd6eb" stroke-width="1" d="M 380.5 204 L 380.5 214" opacity="1"></path><path fill="none" class="highcharts-tick" stroke="#ccd6eb" stroke-width="1" d="M 422.5 204 L 422.5 214" opacity="1"></path><path fill="none" class="highcharts-tick" stroke="#ccd6eb" stroke-width="1" d="M 464.5 204 L 464.5 214" opacity="1"></path><path fill="none" class="highcharts-tick" stroke="#ccd6eb" stroke-width="1" d="M 506.5 204 L 506.5 214" opacity="1"></path><path fill="none" class="highcharts-tick" stroke="#ccd6eb" stroke-width="1" d="M 547.5 204 L 547.5 214" opacity="1"></path><path fill="none" class="highcharts-tick" stroke="#ccd6eb" stroke-width="1" d="M 590.5 204 L 590.5 214" opacity="1"></path><path fill="none" class="highcharts-tick" stroke="#ccd6eb" stroke-width="1" d="M 88.5 204 L 88.5 214" opacity="1"></path><text x="339.5" data-z-index="7" text-anchor="middle" transform="translate(0,0)" class="highcharts-axis-title" style="color:#666666;fill:#666666;" y="280.618795026618"><tspan>Month</tspan></text><path fill="none" class="highcharts-axis-line" stroke="#ccd6eb" stroke-width="1" data-z-index="7" d="M 89 204.5 L 590 204.5"></path></g><g class="highcharts-axis highcharts-yaxis " data-z-index="2"><text x="26" data-z-index="7" text-anchor="middle" transform="translate(0,0) rotate(270 26 141)" class="highcharts-axis-title" style="color:#666666;fill:#666666;" y="141"><tspan>Daily Average</tspan><tspan dy="15" x="26">(serving)</tspan></text><path fill="none" class="highcharts-axis-line" data-z-index="7" d="M 89 78 L 89 204"></path></g><g class="highcharts-series-group" data-z-index="3"><g data-z-index="0.1" class="highcharts-series highcharts-series-0 highcharts-column-series highcharts-color-0 " transform="translate(89,78) scale(1 1)" clip-path="url(#highcharts-c97wmda-32)"><rect x="10.5" y="38.5" width="21" height="46" fill="#000000" stroke="#ffffff" stroke-width="1" class="highcharts-point highcharts-color-0"></rect><rect x="52.5" y="25.5" width="21" height="59" fill="#000000" stroke="#ffffff" stroke-width="1" class="highcharts-point highcharts-color-0"></rect><rect x="93.5" y="40.5" width="21" height="44" fill="#000000" stroke="#ffffff" stroke-width="1" class="highcharts-point highcharts-color-0"></rect><rect x="135.5" y="35.5" width="21" height="49" fill="#000000" stroke="#ffffff" stroke-width="1" class="highcharts-point highcharts-color-0"></rect><rect x="177.5" y="44.5" width="21" height="40" fill="#000000" stroke="#ffffff" stroke-width="1" class="highcharts-point highcharts-color-0"></rect><rect x="219.5" y="75.5" width="21" height="9" fill="#000000" stroke="#ffffff" stroke-width="1" class="highcharts-point highcharts-color-0"></rect><rect x="260.5" y="84.5" width="21" height="0" fill="#000000" stroke="#ffffff" stroke-width="1" class="highcharts-point highcharts-color-0"></rect><rect x="302.5" y="84.5" width="21" height="0" fill="#000000" stroke="#ffffff" stroke-width="1" class="highcharts-point highcharts-color-0"></rect><rect x="344.5" y="84.5" width="21" height="0" fill="#000000" stroke="#ffffff" stroke-width="1" class="highcharts-point highcharts-color-0"></rect><rect x="386.5" y="84.5" width="21" height="0" fill="#000000" stroke="#ffffff" stroke-width="1" class="highcharts-point highcharts-color-0"></rect><rect x="427.5" y="77.5" width="21" height="7" fill="#000000" stroke="#ffffff" stroke-width="1" class="highcharts-point highcharts-color-0"></rect><rect x="469.5" y="74.5" width="21" height="10" fill="#000000" stroke="#ffffff" stroke-width="1" class="highcharts-point highcharts-color-0"></rect></g><g data-z-index="0.1" class="highcharts-markers highcharts-series-0 highcharts-column-series highcharts-color-0 " transform="translate(89,78) scale(1 1)" clip-path="none"></g></g><text x="300" text-anchor="middle" class="highcharts-title" data-z-index="4" style="color:#333333;font-size:18px;fill:#333333;" y="24"><tspan>Average Gluten Free Pasta With Olive Oil by Month</tspan></text><text x="300" text-anchor="middle" class="highcharts-subtitle" data-z-index="4" style="color:#666666;fill:#666666;" y="46"><tspan>This chart shows the typical value recorded for Gluten Free Pasta With Olive Oil for each</tspan><tspan dy="15" x="300">month of the year.</tspan></text><g class="highcharts-axis-labels highcharts-xaxis-labels " data-z-index="7"><text x="112.46772486435069" style="color:#666666;cursor:default;font-size:11px;fill:#666666;" text-anchor="end" transform="translate(0,0) rotate(-45 112.46772486435069 220)" y="220" opacity="1">January</text><text x="154.21772486435069" style="color:#666666;cursor:default;font-size:11px;fill:#666666;" text-anchor="end" transform="translate(0,0) rotate(-45 154.21772486435069 220)" y="220" opacity="1">February</text><text x="195.96772486435069" style="color:#666666;cursor:default;font-size:11px;fill:#666666;" text-anchor="end" transform="translate(0,0) rotate(-45 195.96772486435069 220)" y="220" opacity="1">March</text><text x="237.71772486435066" style="color:#666666;cursor:default;font-size:11px;fill:#666666;" text-anchor="end" transform="translate(0,0) rotate(-45 237.71772486435066 220)" y="220" opacity="1">April</text><text x="279.46772486435066" style="color:#666666;cursor:default;font-size:11px;fill:#666666;" text-anchor="end" transform="translate(0,0) rotate(-45 279.46772486435066 220)" y="220" opacity="1">May</text><text x="321.21772486435066" style="color:#666666;cursor:default;font-size:11px;fill:#666666;" text-anchor="end" transform="translate(0,0) rotate(-45 321.21772486435066 220)" y="220" opacity="1">June</text><text x="362.96772486435066" style="color:#666666;cursor:default;font-size:11px;fill:#666666;" text-anchor="end" transform="translate(0,0) rotate(-45 362.96772486435066 220)" y="220" opacity="1">July</text><text x="404.71772486435066" style="color:#666666;cursor:default;font-size:11px;fill:#666666;" text-anchor="end" transform="translate(0,0) rotate(-45 404.71772486435066 220)" y="220" opacity="1">August</text><text x="446.46772486435066" style="color:#666666;cursor:default;font-size:11px;fill:#666666;" text-anchor="end" transform="translate(0,0) rotate(-45 446.46772486435066 220)" y="220" opacity="1">September</text><text x="488.21772486435066" style="color:#666666;cursor:default;font-size:11px;fill:#666666;" text-anchor="end" transform="translate(0,0) rotate(-45 488.21772486435066 220)" y="220" opacity="1">October</text><text x="529.9677248643507" style="color:#666666;cursor:default;font-size:11px;fill:#666666;" text-anchor="end" transform="translate(0,0) rotate(-45 529.9677248643507 220)" y="220" opacity="1">November</text><text x="571.7177248643507" style="color:#666666;cursor:default;font-size:11px;fill:#666666;" text-anchor="end" transform="translate(0,0) rotate(-45 571.7177248643507 220)" y="220" opacity="1">December</text></g><g class="highcharts-axis-labels highcharts-yaxis-labels " data-z-index="7"><text x="74" style="color:#666666;cursor:default;font-size:11px;fill:#666666;" text-anchor="end" transform="translate(0,0)" y="166" opacity="1">0</text><text x="74" style="color:#666666;cursor:default;font-size:11px;fill:#666666;" text-anchor="end" transform="translate(0,0)" y="124" opacity="1">0.2</text><text x="74" style="color:#666666;cursor:default;font-size:11px;fill:#666666;" text-anchor="end" transform="translate(0,0)" y="208" opacity="1">-0.2</text><text x="74" style="color:#666666;cursor:default;font-size:11px;fill:#666666;" text-anchor="end" transform="translate(0,0)" y="82" opacity="1">0.4</text></g><a xlink:href="https://quantimo.do" target="_blank">
                    <text x="590" class="highcharts-credits" text-anchor="end" data-z-index="8"
                          style="cursor:pointer;color:#999999;font-size:9px;fill:#999999;" y="295">https://quantimo.do
                    </text>
                </a></svg>