<?xml version="1.0" standalone="no"?><!DOCTYPE svg PUBLIC "-//W3C//DTD SVG 1.1//EN" "http://www.w3.org/Graphics/SVG/1.1/DTD/svg11.dtd"><svg xmlns:xlink="http://www.w3.org/1999/xlink" version="1.1" class="highcharts-root" style="font-family:&quot;Lucida Grande&quot;, &quot;Lucida Sans Unicode&quot;, Arial, Helvetica, sans-serif;font-size:12px;" xmlns="http://www.w3.org/2000/svg" width="600" height="400"><desc>Created with Highstock 6.2.0</desc><defs><clipPath id="highcharts-fecyd0w-1226"><rect x="0" y="0" width="541" height="299" fill="none"></rect></clipPath><clipPath id="highcharts-fecyd0w-2446"><rect x="0" y="0" width="541" height="299" fill="none"></rect></clipPath><clipPath id="highcharts-fecyd0w-2447"><rect x="49" y="63" width="541" height="299" fill="none"></rect></clipPath></defs><rect fill="#ffffff" class="highcharts-background" x="0" y="0" width="600" height="400" rx="0" ry="0"></rect><rect fill="none" class="highcharts-plot-background" x="49" y="63" width="541" height="299"></rect><g class="highcharts-pane-group" data-z-index="0"></g><g class="highcharts-grid highcharts-xaxis-grid " data-z-index="1"><path fill="none" data-z-index="1" class="highcharts-grid-line" d="M 73.5 63 L 73.5 362" opacity="1"></path><path fill="none" data-z-index="1" class="highcharts-grid-line" d="M 152.5 63 L 152.5 362" opacity="1"></path><path fill="none" data-z-index="1" class="highcharts-grid-line" d="M 232.5 63 L 232.5 362" opacity="1"></path><path fill="none" data-z-index="1" class="highcharts-grid-line" d="M 311.5 63 L 311.5 362" opacity="1"></path><path fill="none" data-z-index="1" class="highcharts-grid-line" d="M 391.5 63 L 391.5 362" opacity="1"></path><path fill="none" data-z-index="1" class="highcharts-grid-line" d="M 470.5 63 L 470.5 362" opacity="1"></path><path fill="none" data-z-index="1" class="highcharts-grid-line" d="M 550.5 63 L 550.5 362" opacity="1"></path></g><g class="highcharts-grid highcharts-yaxis-grid " data-z-index="1"><path fill="none" stroke="#e6e6e6" stroke-width="1" data-z-index="1" class="highcharts-grid-line" d="M 49 362.5 L 590 362.5" opacity="1"></path><path fill="none" stroke="#e6e6e6" stroke-width="1" data-z-index="1" class="highcharts-grid-line" d="M 49 302.5 L 590 302.5" opacity="1"></path><path fill="none" stroke="#e6e6e6" stroke-width="1" data-z-index="1" class="highcharts-grid-line" d="M 49 242.5 L 590 242.5" opacity="1"></path><path fill="none" stroke="#e6e6e6" stroke-width="1" data-z-index="1" class="highcharts-grid-line" d="M 49 183.5 L 590 183.5" opacity="1"></path><path fill="none" stroke="#e6e6e6" stroke-width="1" data-z-index="1" class="highcharts-grid-line" d="M 49 123.5 L 590 123.5" opacity="1"></path><path fill="none" stroke="#e6e6e6" stroke-width="1" data-z-index="1" class="highcharts-grid-line" d="M 49 62.5 L 590 62.5" opacity="1"></path></g><rect fill="none" class="highcharts-plot-border" data-z-index="1" x="49" y="63" width="541" height="299"></rect><g class="highcharts-axis highcharts-xaxis " data-z-index="2"><path fill="none" class="highcharts-tick" stroke="#ccd6eb" stroke-width="1" d="M 73.5 362 L 73.5 372" opacity="1"></path><path fill="none" class="highcharts-tick" stroke="#ccd6eb" stroke-width="1" d="M 152.5 362 L 152.5 372" opacity="1"></path><path fill="none" class="highcharts-tick" stroke="#ccd6eb" stroke-width="1" d="M 232.5 362 L 232.5 372" opacity="1"></path><path fill="none" class="highcharts-tick" stroke="#ccd6eb" stroke-width="1" d="M 311.5 362 L 311.5 372" opacity="1"></path><path fill="none" class="highcharts-tick" stroke="#ccd6eb" stroke-width="1" d="M 391.5 362 L 391.5 372" opacity="1"></path><path fill="none" class="highcharts-tick" stroke="#ccd6eb" stroke-width="1" d="M 470.5 362 L 470.5 372" opacity="1"></path><path fill="none" class="highcharts-tick" stroke="#ccd6eb" stroke-width="1" d="M 550.5 362 L 550.5 372" opacity="1"></path><path fill="none" class="highcharts-axis-line" stroke="#ccd6eb" stroke-width="1" data-z-index="7" d="M 49 362.5 L 590 362.5"></path></g><g class="highcharts-axis highcharts-yaxis " data-z-index="2"><path fill="none" class="highcharts-axis-line" data-z-index="7" d="M 49 63 L 49 362"></path></g><g class="highcharts-series-group" data-z-index="3"><g data-z-index="0.1" class="highcharts-series highcharts-series-0 highcharts-spline-series highcharts-color-0 " transform="translate(49,63) scale(1 1)" clip-path="url(#highcharts-fecyd0w-2446)"><path fill="none" d="M 5.3039215686275 299 C 5.3039215686275 299 5.56519849319042 299 5.7393831095657 299 C 5.91356772594098 299 6.00066003412862 299 6.1748446505039 299 C 6.34902926687918 299 6.436121575066821 299 6.6103061914421 299 C 6.78449080781738 299 6.87158311600502 299 7.0457677323803 299 C 7.219952348755581 299 7.307044656943219 299 7.4812292733185 299 C 7.65541388969378 299 7.74250619788142 299 7.9166908142567 299 C 8.090875430632021 299 8.17796773881968 299 8.352152355195 299 C 8.526336971570279 299 8.61342927975792 299 8.7876138961332 299 C 8.96179851250848 299 9.04889082069612 299 9.2230754370714 299 C 9.39726005344668 299 9.484352361634318 299 9.6585369780096 299 C 9.83272159438496 299 9.91981390257264 299 10.093998518948 299 C 10.268183135323202 299 10.3552754435108 299 10.529460059886 299 C 10.7036446762612 299 10.790736984448802 299 10.964921600824 299 C 11.1391062171992 299 11.2261985253868 299 11.400383141762 299 C 11.574567758137599 299 11.6616600663254 299 11.835844682701 299 C 12.0100292990762 299 12.097121607263798 299 12.271306223639 299 C 12.445490840014198 299 12.5325831482018 299 12.706767764577 299 C 12.8809523809522 299 12.968044689139798 299 13.142229305515 299 C 13.3164139218906 299 13.403506230078401 299 13.577690846454 299 C 13.751875462829199 299 13.8389677710168 299 14.013152387392 299 C 14.187337003767201 299 14.2744293119548 299 14.44861392833 299 C 14.6227985447052 299 14.709890852892801 299 14.884075469268 299 C 15.058260085643202 299 15.1453523938308 299 15.319537010206 299 C 15.4937216265816 299 15.5808139347694 299 15.754998551145 299 C 15.929183167520199 299 16.0162754757078 299 16.190460092083 299 C 16.3646447084582 299 16.4517370166458 299 16.625921633021 299 C 16.8001062493962 299 16.8871985575838 299 17.061383173959 299 C 17.2355677903342 299 17.3226600985218 299 17.496844714897 299 C 17.6710293312726 299 17.758121639460402 299 17.932306255836 299 C 18.106490872211204 299 18.193583180398797 275.08 18.367767796774 275.08 C 18.541952413149197 275.08 18.6290447213368 299 18.803229337712 299 C 18.9774139540872 299 19.0645062622748 299 19.23869087865 299 C 19.4128754950256 299 19.4999678032134 299 19.674152419589 299 C 19.8483370359642 299 19.9354293441518 299 20.109613960527 299 C 20.2837985769022 299 20.3708908850898 299 20.545075501465 299 C 20.7192601178402 299 20.8063524260278 299 20.980537042403 299 C 21.1547216587782 299 21.2418139669658 299 21.415998583341 299 C 21.5901831997166 299 21.6772755079044 299 21.85146012428 299 C 22.025644740655203 299 22.112737048842796 299 22.286921665218 299 C 22.461106281593196 299 22.5481985897808 299 22.722383206156 299 C 22.8965678225312 299 22.9836601307188 299 23.157844747094 299 C 23.3320293634692 299 23.419121671656804 299 23.593306288032 299 C 23.7674909044076 299 23.8545832125954 251.16 24.028767828971 251.16 C 24.3100800164682 251.16 24.450736110216802 259.6274585185214 24.732048297714 275.08 C 24.799105342967202 278.7634585185214 24.8326338655938 299 24.899690910847 299 C 25.101347908789002 299 25.20217640776 275.08 25.403833405702 275.08 C 25.564504602128398 275.08 25.644840200341598 299 25.805511396768 299 C 26.022181737744 299 26.130516908232 299 26.347187249208 299 C 26.5557451029584 299 26.6600240298336 299 26.868581883584 299 C 26.951948576365602 299 26.9936319227564 251.16 27.076998615538 251.16 C 27.381303575601997 251.16 27.533456055634 251.16 27.837761015698 251.16 C 27.8818252883848 251.16 27.903857424728198 299 27.947921697415 299 C 28.122106313790205 299 28.209198621977798 299 28.383383238353 299 C 28.565589620799404 299 28.6566928120226 299 28.838899194469 299 C 29.005062044773002 299 29.088143469925 299 29.254306320229 299 C 29.4284909366042 299 29.5155832447918 299 29.689767861167 299 C 29.863952477542604 299 29.951044785730403 299 30.125229402106 299 C 30.2994140184812 299 30.3865063266688 299 30.560690943044 299 C 30.7348755594192 299 30.821967867606805 299 30.996152483982 299 C 31.170337100357198 299 31.2574294085448 299 31.43161402492 299 C 31.6057986412956 299 31.6928909494834 107.63999999999999 31.867075565859 107.63999999999999 C 32.0876247401902 107.63999999999999 32.1978993273558 227.24 32.418448501687 251.16 C 32.599872666180204 275.08 32.69058474842681 263.5843739335979 32.87200891292 275.08 C 32.992589423221204 282.7203739335979 33.0528796783718 299 33.173460188673 299 C 33.3476448050482 299 33.4347371132358 299 33.608921729611 299 C 33.783106345986596 299 33.870198654174395 299 34.04438327055 299 C 34.2185678869252 299 34.3056601951128 299 34.479844811488 299 C 34.6540294278632 299 34.7411217360508 299 34.915306352426 299 C 35.0894909688012 299 35.1765832769888 299 35.350767893364 299 C 35.5249525097392 299 35.6120448179268 299 35.786229434302 299 C 35.960414050677606 299 36.047506358865405 299 36.221690975241 299 C 36.3958755916162 299 36.4829678998038 299 36.657152516179 299 C 36.912377331733 299 37.03998973951 299 37.295214555064 299 C 37.4685101041268 299 37.5551578786582 227.24 37.728453427721 227.24 C 37.8224869122302 227.24 37.8695036544848 299 37.963537138994 299 C 38.1377217553692 299 38.2248140635568 299 38.398998679932 299 C 38.5731832963072 299 38.6602756044948 299 38.83446022087 299 C 39.0086448372452 299 39.0957371454328 299 39.269921761808 299 C 39.4441063781832 299 39.5311986863708 299 39.705383302746 299 C 39.893115611506 299 39.986981765886 299 40.174714074646 299 C 40.3353509986368 299 40.4156694606322 299 40.576306384623 299 C 40.7669720107074 299 40.862304823749604 299 41.052970449834 299 C 41.241583761803994 299 41.335890417788995 299 41.524503729759 299 C 41.6677786408302 299 41.7394160963658 299 41.882691007437 299 C 42.140177803773405 299 42.2689212019416 227.24 42.526407998278 227.24 C 42.61729043469241 227.24 42.6627316528996 299 42.753614089314 299 C 42.9277987056892 299 43.0148910138768 299 43.189075630252 299 C 43.3632602466272 299 43.4503525548148 299 43.62453717119 299 C 43.814962890222 299 43.910175749738 299 44.10060146877 299 C 44.4118395410528 299 44.5674585771942 251.16 44.878696649477 251.16 C 44.8995867072882 251.16 44.9100317361938 299 44.930921794005 299 C 45.1051064103802 299 45.1921987185678 299 45.366383334943 299 C 45.5405679513182 299 45.62766025950581 299 45.801844875881 299 C 45.9760294922566 299 46.0631218004444 299 46.23730641682 299 C 46.4114910331952 299 46.4985833413828 299 46.672767957758 299 C 46.8469525741332 299 46.9340448823208 299 47.108229498696 299 C 47.2824141150712 299 47.369506423258805 203.32 47.543691039634 203.32 C 47.7178756560092 203.32 47.8049679641968 299 47.979152580572 299 C 48.2338935499696 299 48.361264034668395 299 48.616005004066 299 C 48.7096332674192 299 48.7564473990958 251.16 48.850075662449 251.16 C 49.0242602788242 251.16 49.1113525870118 299 49.285537203387 299 C 49.4597218197622 299 49.5468141279498 299 49.720998744325 299 C 49.89518336070059 299 49.9822756688884 299 50.156460285264 299 C 50.3306449016392 299 50.4177372098268 299 50.591921826202 299 C 50.7661064425772 299 50.8531987507648 299 51.02738336714 299 C 51.366972808174 299 51.536767528690994 251.16 51.876356969725 251.16 C 51.8851367614414 251.16 51.8895266572996 299 51.898306449016 299 C 52.0724910653916 299 52.1595833735794 299 52.333767989955 299 C 52.50795260633019 299 52.5950449145178 299 52.769229530893 299 C 52.9434141472682 299 53.03050645545579 299 53.204691071831 299 C 53.3788756882062 299 53.46596799639381 299 53.640152612769 299 C 53.8143372291442 299 53.90142953733179 299 54.075614153707 299 C 54.2497987700826 299 54.3368910782704 299 54.511075694646 299 C 54.84804430233161 299 55.016528606174404 227.24 55.35349721386 227.24 C 55.3784455313096 227.24 55.3909196900344 227.24 55.415868007484 227.24 C 55.5765049314744 227.24 55.656823393469594 299 55.81746031746 299 C 55.991644933835595 299 56.078737242023394 299 56.252921858399 299 C 56.4271064747742 299 56.5141987829618 299 56.688383399337 299 C 56.8625680157122 299 56.9496603238998 299 57.123844940275 299 C 57.29802955665021 299 57.3851218648378 299 57.559306481213 299 C 57.73349109758819 299 57.8205834057758 299 57.994768022151 299 C 58.168952638526605 299 58.256044946714404 299 58.43022956309 299 C 58.604414179465195 299 58.6915064876528 299 58.865691104028 299 C 59.0398757204032 299 59.126968028590795 299 59.301152644966 299 C 59.4753372613412 299 59.56242956952881 299 59.736614185904 299 C 59.9107988022792 299 59.997891110466796 299 60.172075726842 299 C 60.3462603432176 299 60.4333526514054 299 60.607537267781 299 C 60.7817218841562 299 60.868814192343805 299 61.042998808719 299 C 61.2171834250942 299 61.304275733281806 299 61.478460349657 299 C 61.6526449660322 299 61.739737274219806 299 61.913921890595 299 C 62.0881065069706 299 62.175198815158396 299 62.349383431534 299 C 62.5235680479092 299 62.6106603560968 299 62.784844972472 299 C 62.9590295888472 299 63.0461218970348 299 63.22030651341 299 C 63.5482634864292 299 63.7122419729388 299 64.040198945958 299 C 64.0606112056892 299 64.07081733555479 299 64.091229595286 299 C 64.2654142116616 299 64.3525065198494 299 64.526691136225 299 C 64.7008757526002 299 64.7879680607878 299 64.962152677163 299 C 65.1363372935382 299 65.2234296017258 299 65.397614218101 299 C 65.5717988344762 299 65.6588911426638 299 65.833075759039 299 C 66.0360451896806 299 66.1375299050014 299 66.340499335643 299 C 66.4858991377522 299 66.5585990388068 299 66.703998840916 299 C 66.8781834572912 299 66.9652757654788 299 67.139460381854 299 C 67.3136449982292 299 67.4007373064168 299 67.574921922792 299 C 67.7491065391672 299 67.8361988473548 299 68.01038346373 299 C 68.1845680801056 299 68.27166038829338 299 68.445845004669 299 C 68.62002962104421 299 68.7071219292318 299 68.881306545607 299 C 69.09865427120221 299 69.2073281339998 299 69.424675859595 299 C 69.5838935015262 299 69.6635023224918 299 69.822719964423 299 C 69.96870844602219 299 70.04170268682181 299 70.187691168421 299 C 70.380634903493 299 70.477106771029 299 70.670050506101 299 C 70.8467208821058 299 70.9350560701082 299 71.111726446113 299 C 71.32841089926819 299 71.4367531258458 299 71.653437579001 299 C 71.80551042601981 299 71.8815468495292 299 72.033619696548 299 C 72.2130157392352 299 72.30271376057881 275.08 72.482109803266 275.08 C 72.60945004758 275.08 72.673120169737 299 72.800460414051 299 C 72.9746450304262 299 73.0617373386138 299 73.235921954989 299 C 73.4101065713642 299 73.4971988795518 299 73.671383495927 299 C 73.8455681123022 299 73.9326604204898 299 74.106845036865 299 C 74.28102965324061 299 74.36812196142839 299 74.542306577804 299 C 74.730038886564 299 74.823905040944 299 75.011637349704 299 C 75.1722742736944 299 75.2525927356896 299 75.41322965968 299 C 75.58741427605521 299 75.67450658424279 299 75.848691200618 299 C 76.0228758169932 299 76.10996812518081 299 76.284152741556 299 C 76.4583373579316 299 76.5454296661194 299 76.719614282495 299 C 76.8937988988702 299 76.9808912070578 299 77.155075823433 299 C 77.3292604398082 299 77.4163527479958 299 77.590537364371 299 C 77.7647219807462 299 77.8518142889338 299 78.025998905309 299 C 78.2001835216842 299 78.2872758298718 299 78.461460446247 299 C 78.6356450626226 299 78.7227373708104 299 78.896921987186 299 C 79.0711066035612 299 79.1581989117488 299 79.332383528124 299 C 79.5065681444992 299 79.5936604526868 299 79.767845069062 299 C 79.9420296854372 299 80.0291219936248 299 80.20330661 299 C 80.37749122637561 299 80.46458353456339 299 80.638768150939 299 C 80.8129527673142 299 80.9000450755018 299 81.074229691877 299 C 81.2484143082522 299 81.3355066164398 299 81.509691232815 299 C 81.6838758491902 299 81.7709681573778 299 81.945152773753 299 C 82.11933739012821 299 82.2064296983158 299 82.380614314691 299 C 82.5547989310666 299 82.6418912392544 299 82.81607585563 299 C 82.9902604720052 299 83.0773527801928 299 83.251537396568 299 C 83.4257220129432 299 83.5128143211308 299 83.686998937506 299 C 83.8611835538812 299 83.9482758620688 299 84.122460478444 299 C 84.2966450948192 299 84.3837374030068 299 84.557922019382 299 C 84.7321066357576 299 84.81919894394541 299 84.993383560321 299 C 85.16756817669621 299 85.2546604848838 299 85.428845101259 299 C 85.6030297176342 299 85.69012202582181 299 85.864306642197 299 C 86.0384912585722 299 86.12558356675979 299 86.299768183135 299 C 86.4739527995106 299 86.5610451076984 299 86.735229724074 299 C 86.90941434044922 299 86.9965066486368 299 87.170691265012 299 C 87.3448758813872 299 87.4319681895748 299 87.60615280595 299 C 87.7803374223252 299 87.8674297305128 299 88.041614346888 299 C 88.21579896326321 299 88.3028912714508 299 88.477075887826 299 C 88.6512605042016 299 88.73835281238941 299 88.912537428765 299 C 89.0867220451402 299 89.1738143533278 299 89.347998969703 299 C 89.5221835860782 299 89.6092758942658 299 89.783460510641 299 C 89.971192819401 299 90.06505897378099 299 90.252791282541 299 C 90.41342820653139 299 90.4937466685266 299 90.654383592517 299 C 90.8285682088926 299 90.9156605170804 299 91.089845133456 299 C 91.3039571378788 299 91.4110131400902 275.08 91.625125144513 275.08 C 91.7593823728406 275.08 91.8265109870044 299 91.960768215332 299 C 92.1349528317072 299 92.22204513989479 299 92.39622975627 299 C 92.5704143726456 299 92.65750668083341 299 92.831691297209 299 C 93.00587591358422 299 93.0929682217718 299 93.267152838147 299 C 93.4413374545222 299 93.5284297627098 299 93.702614379085 299 C 93.890346687845 299 93.98421284222499 299 94.171945150985 299 C 94.34612976736021 299 94.43322207554779 299 94.607406691923 299 C 94.7680436159138 299 94.8483620779092 299 95.0089990019 299 C 95.19673131066 299 95.29059746504 299 95.4783297738 299 C 95.6911454737284 299 95.7975533236926 275.08 96.010369023621 275.08 C 96.17373363031899 275.08 96.25541593366799 275.08 96.418780540366 275.08 C 96.5516063904804 275.08 96.6180193155376 299 96.750845165652 299 C 96.92502978202761 299 97.0121220902154 299 97.186306706591 299 C 97.36049132296621 299 97.44758363115379 299 97.621768247529 299 C 97.80950055628901 299 97.903366710669 299 98.091099019429 299 C 98.2652836358042 299 98.3523759439918 299 98.526560560367 299 C 98.7007451767422 299 98.78783748492978 299 98.962022101305 299 C 99.1362067176806 299 99.2232990258684 299 99.397483642244 299 C 99.5939030055404 299 99.6921126871886 299 99.888532050485 299 C 100.075685759883 299 100.169262614582 275.08 100.35641632398 275.08 C 100.543382542992 275.08 100.636865652498 275.08 100.82383187151 275.08 C 100.950031045306 275.08 101.013130632204 299 101.139329806 299 C 101.33734182956002 299 101.43634784134 227.24 101.6343598649 227.24 C 101.846528420596 227.24 101.952612698444 256.3148186181732 102.16478125414 275.08 C 102.27715452400801 285.0188186181732 102.333341158942 299 102.44571442881 299 C 102.619899045186 299 102.706991353374 299 102.88117596975 299 C 103.055360586126 299 103.142452894314 299 103.31663751069 299 C 103.49082212706601 299 103.577914435254 299 103.75209905163 299 C 103.91273597561799 299 103.993054437612 299 104.1536913616 299 C 104.32787597797599 299 104.414968286164 299 104.58915290254 299 C 104.77688521129998 299 104.87075136567998 289.96924064168155 105.05848367444 275.08 C 105.232668290816 261.26524064168154 105.31976059900398 227.24 105.49394521538 227.24 C 105.668129831756 227.24 105.755222139944 227.24 105.92940675632 227.24 C 106.09004368030801 227.24 106.170362142302 299 106.33099906629 299 C 106.51873137505 299 106.61259752942999 299 106.80032983819 299 C 106.96096676218198 299 107.041285224178 299 107.20192214817 299 C 107.376106764546 299 107.463199072734 299 107.63738368911 299 C 107.811568305486 299 107.898660613674 299 108.07284523005 299 C 108.26057753881 299 108.35444369319 299 108.54217600195 299 C 108.70281292593799 299 108.783131387932 299 108.94376831192 299 C 109.13150062068 299 109.22536677506 251.16 109.41309908382 251.16 C 109.58728370019601 251.16 109.674376008384 265.12485549135295 109.84856062476 275.08 C 110.00919754875198 284.26085549135297 110.089516010748 299 110.25015293474 299 C 110.4378852435 299 110.53175139788 275.08 110.71948370664 275.08 C 110.88012063062801 275.08 110.96043909262201 299 111.12107601661 299 C 111.30880832537 299 111.40267447975 179.39999999999998 111.59040678851 179.39999999999998 C 111.751043712502 179.39999999999998 111.83136217449801 299 111.99199909849 299 C 112.166183714866 299 112.25327602305398 299 112.42746063943 299 C 112.60164525580599 299 112.68873756399401 299 112.86292218037 299 C 113.037106796742 299 113.124199104928 299 113.2983837213 299 C 113.5350490047 299 113.65338164639999 203.32 113.8900469298 203.32 C 114.03511408767599 203.32 114.107647666614 227.24 114.25271482449 227.24 C 114.42689944086601 227.24 114.513991749054 227.24 114.68817636543 227.24 C 114.862360981806 227.24 114.94945328999401 275.08 115.12363790637 275.08 C 115.29782252274201 275.08 115.38491483092801 275.08 115.5590994473 275.08 C 115.733284063676 275.08 115.820376371864 275.08 115.99456098824 275.08 C 116.16874560461599 275.08 116.25583791280398 275.08 116.43002252918 275.08 C 116.60420714555599 275.08 116.691299453744 299 116.86548407012 299 C 117.006305477972 299 117.076716181898 299 117.21753758975 299 C 117.39172220612599 299 117.47881451431401 299 117.65299913069 299 C 117.82718374706201 299 117.914276055248 299 118.08846067162 299 C 118.262645287996 299 118.34973759618399 299 118.52392221256 299 C 118.73147003745999 299 118.83524394991 290.68635702330147 119.04279177481 275.08 C 119.216976391186 261.98235702330146 119.30406869937399 227.24 119.47825331575 227.24 C 119.65243793212599 227.24 119.739530240314 227.24 119.91371485669 227.24 C 120.087899473062 227.24 120.174991781248 227.24 120.34917639762 227.24 C 120.48999780547202 227.24 120.560408509398 299 120.70122991725 299 C 120.90877774215001 299 121.01255165460002 299 121.2200994795 299 C 121.39428409587602 299 121.48137640406401 299 121.65556102044 299 C 121.829745636816 299 121.916837945004 299 122.09102256138 299 C 122.26520717775199 299 122.35229948593799 59.79999999999998 122.52648410231 59.79999999999998 C 122.70066871868599 59.79999999999998 122.787761026874 59.79999999999998 122.96194564325 59.79999999999998 C 123.102767051102 59.79999999999998 123.173177755028 299 123.31399916288 299 C 123.52154698778 299 123.62532090023001 179.39999999999998 123.83286872513 179.39999999999998 C 124.00705334150601 179.39999999999998 124.094145649694 179.39999999999998 124.26833026607 179.39999999999998 C 124.44251488244599 179.39999999999998 124.52960719063398 179.39999999999998 124.70379180701 179.39999999999998 C 124.84461321486201 179.39999999999998 124.91502391878801 299 125.05584532664 299 C 125.26339315153601 299 125.367167063984 227.24 125.57471488888 227.24 C 125.71553629673198 227.24 125.78594700065801 299 125.92676840851 299 C 126.10095302488601 299 126.188045333074 299 126.36222994945 299 C 126.536414565826 299 126.623506874014 299 126.79769149039 299 C 126.97187610676602 299 127.05896841495401 299 127.23315303133 299 C 127.407337647706 299 127.49442995589399 299 127.66861457227 299 C 127.84279918864199 299 127.92989149682799 299 128.1040761132 299 C 128.278260729576 299 128.365353037764 299 128.53953765414 299 C 128.713722270516 299 128.80081457870398 299 128.97499919508 299 C 129.149183811456 299 129.236276119644 299 129.41046073602 299 C 129.584645352396 299 129.67173766058403 299 129.84592227696 299 C 130.020106893332 299 130.107199201518 299 130.28138381789 299 C 130.48893164279 299 130.59270555524 275.08 130.80025338014 275.08 C 130.941074787992 275.08 131.011485491918 299 131.15230689977 299 C 131.326491516146 299 131.413583824334 299 131.58776844071 299 C 131.761953057086 299 131.84904536527398 299 132.02322998165 299 C 132.197414598026 299 132.28450690621398 299 132.45869152259 299 C 132.666239347486 299 132.77001325993402 275.08 132.97756108483 275.08 C 133.118382492682 275.08 133.188793196608 299 133.32961460446 299 C 133.50379922083602 299 133.590891529024 299 133.7650761454 299 C 133.93926076177598 299 134.026353069964 299 134.20053768634 299 C 134.41680280616 299 134.52493536607 227.24 134.74120048589 227.24 C 134.87330459882202 227.24 134.939356655288 299 135.07146076822 299 C 135.27900859311598 299 135.382782505564 275.08 135.59033033046 275.08 C 135.76451494683602 275.08 135.85160725502402 275.08 136.0257918714 275.08 C 136.199976487776 275.08 136.287068795964 179.39999999999998 136.46125341234 179.39999999999998 C 136.635438028716 179.39999999999998 136.722530336904 248.62656290193155 136.89671495328 275.08 C 137.037536361132 296.4665629019316 137.107947065058 299 137.24876847291 299 C 137.422953089282 299 137.510045397468 299 137.68423001384 299 C 137.89177783874 299 137.99555175119 275.08 138.20309957609 275.08 C 138.377284192466 275.08 138.464376500654 275.08 138.63856111703 275.08 C 138.81274573340602 275.08 138.89983804159402 275.08 139.07402265797 275.08 C 139.214844065822 275.08 139.285254769748 299 139.4260761776 299 C 139.60026079397602 299 139.687353102164 299 139.86153771854 299 C 140.035722334912 299 140.122814643098 299 140.29699925947 299 C 140.471183875846 299 140.558276184034 299 140.73246080041 299 C 140.906645416786 299 140.99373772497398 299 141.16792234135 299 C 141.399200804202 299 141.514840035628 275.08 141.74611849848 275.08 C 141.86320926838 275.08 141.92175465332997 299 142.03884542323 299 C 142.213030039602 299 142.300122347788 299 142.47430696416 299 C 142.64849158053602 299 142.735583888724 299 142.9097685051 299 C 143.083953121476 299 143.171045429664 299 143.34523004604 299 C 143.57650850889598 299 143.69214774032397 179.39999999999998 143.92342620318 179.39999999999998 C 144.040516973076 179.39999999999998 144.099062358024 299 144.21615312792 299 C 144.390337744296 299 144.47743005248398 299 144.65161466886 299 C 144.825799285232 299 144.912891593418 299 145.08707620979 299 C 145.318354672646 299 145.433993904074 227.24 145.66527236693 227.24 C 145.83945698330598 227.24 145.92654929149398 227.24 146.10073390787 227.24 C 146.274918524246 227.24 146.362010832434 227.24 146.53619544881 227.24 C 146.71038006518202 227.24 146.797472373368 257.91481727607015 146.97165698974 275.08 C 147.08874775964 286.61881727607016 147.14729314459 299 147.26438391449 299 C 147.438568530862 299 147.525660839048 299 147.69984545542 299 C 147.931123918276 299 148.046763149704 299 148.27804161256 299 C 148.452226228936 299 148.539318537124 299 148.7135031535 299 C 148.887687769872 299 148.974780078058 299 149.14896469443 299 C 149.323149310806 299 149.410241618994 251.16 149.58442623537 251.16 C 149.701517005266 251.16 149.760062390214 299 149.87715316011 299 C 150.108431622966 299 150.224070854394 251.16 150.45534931725 251.16 C 150.629533933626 251.16 150.71662624181403 251.16 150.89081085819 251.16 C 151.06499547456602 251.16 151.152087782754 299 151.32627239913 299 C 151.443363169026 299 151.501908553974 299 151.61899932387 299 C 151.85027778672202 299 151.965917018148 275.08 152.197195481 275.08 C 152.314286250896 275.08 152.372831635844 299 152.48992240574 299 C 152.721200868596 299 152.83684010002398 227.24 153.06811856288 227.24 C 153.242303179256 227.24 153.329395487444 227.24 153.50358010382 227.24 C 153.677764720192 227.24 153.764857028378 299 153.93904164475 299 C 154.11322626112602 299 154.200318569314 251.16 154.37450318569 251.16 C 154.49159395558598 251.16 154.550139340534 299 154.66723011043 299 C 154.89850857328602 299 155.014147804714 299 155.24542626757 299 C 155.419610883946 299 155.506703192134 299 155.68088780851 299 C 155.855072424886 299 155.94216473307398 275.08 156.11634934945 275.08 C 156.290533965822 275.08 156.377626274008 275.08 156.55181089038 275.08 C 156.725995506756 275.08 156.81308781494403 251.16 156.98727243132 251.16 C 157.16145704769602 251.16 157.248549355884 299 157.42273397226 299 C 157.539824742156 299 157.598370127104 299 157.715460897 299 C 157.94673935985602 299 158.06237859128402 275.08 158.29365705414 275.08 C 158.410747824036 275.08 158.469293208984 299 158.58638397888 299 C 158.817662441732 299 158.93330167315798 251.16 159.16458013601 251.16 C 159.28167090591 251.16 159.34021629086 299 159.45730706076 299 C 159.688585523612 299 159.804224755038 299 160.03550321789 299 C 160.20968783426602 299 160.296780142454 299 160.47096475883 299 C 160.64514937520602 299 160.732241683394 275.08 160.90642629977 275.08 C 161.080610916142 275.08 161.167703224328 299 161.3418878407 299 C 161.516072457076 299 161.603164765264 275.08 161.77734938164 275.08 C 161.951533998016 275.08 162.03862630620398 299 162.21281092258 299 C 162.386995538956 299 162.47408784714398 299 162.64827246352 299 C 162.822457079896 299 162.909549388084 299 163.08373400446 299 C 163.20082477435602 299 163.25937015930398 299 163.3764609292 299 C 163.607739392052 299 163.723378623478 299 163.95465708633 299 C 164.12884170270598 299 164.215934010894 299 164.39011862727 299 C 164.507209397166 299 164.565754782114 299 164.68284555201 299 C 164.914124014866 299 165.02976324629398 299 165.26104170915 299 C 165.435226325526 299 165.52231863371398 299 165.69650325009 299 C 165.870687866462 299 165.957780174648 299 166.13196479102 299 C 166.30614940739602 299 166.393241715584 299 166.56742633196 299 C 166.74161094833602 299 166.828703256524 299 167.0028878729 299 C 167.177072489276 299 167.264164797464 299 167.43834941384 299 C 167.612534030216 299 167.69962633840402 299 167.87381095478 299 C 168.047995571156 299 168.13508787934398 299 168.30927249572 299 C 168.483457112092 299 168.57054942027798 299 168.74473403665 299 C 168.918918653026 299 169.006010961214 275.08 169.18019557759 275.08 C 169.35438019396602 275.08 169.441472502154 299 169.61565711853 299 C 169.78984173490602 299 169.876934043094 299 170.05111865947 299 C 170.225303275846 299 170.312395584034 299 170.48658020041 299 C 170.660764816786 299 170.74785712497402 299 170.92204174135 299 C 171.096226357722 299 171.18331866590796 299 171.35750328228 299 C 171.531687898656 299 171.61878020684398 299 171.79296482322 299 C 171.96714943959597 299 172.054241747784 275.08 172.22842636416 275.08 C 172.402610980536 275.08 172.489703288724 299 172.6638879051 299 C 172.83807252147602 299 172.925164829664 299 173.09934944604 299 C 173.273534062412 299 173.360626370598 299 173.53481098697 299 C 173.708995603346 299 173.79608791153402 299 173.97027252791 299 C 174.144457144286 299 174.23154945247398 299 174.40573406885 299 C 174.579918685226 299 174.66701099341398 299 174.84119560979 299 C 175.01538022616597 299 175.102472534354 251.16 175.27665715073 251.16 C 175.450841767106 251.16 175.537934075294 265.5119999998907 175.71211869167 275.08 C 175.88630330804205 284.6479999998907 175.973395616228 299 176.1475802326 299 C 176.321764848976 299 176.408857157164 299 176.58304177354 299 C 176.757226389916 299 176.84431869810402 299 177.01850331448 299 C 177.135594084376 299 177.194139469324 299 177.31123023922 299 C 177.54250870207602 299 177.658147933504 275.08 177.88942639636 275.08 C 178.063611012732 275.08 178.150703320918 275.08 178.32488793729 275.08 C 178.44197870719 275.08 178.50052409213998 299 178.61761486204 299 C 178.79179947841197 299 178.878891786598 299 179.05307640297 299 C 179.284354865826 299 179.39999409725402 275.08 179.63127256011 275.08 C 179.748363330006 275.08 179.80690871495398 299 179.92399948485 299 C 180.09818410122597 299 180.18527640941403 299 180.35946102579 299 C 180.59073948864201 299 180.70637872006802 299 180.93765718292 299 C 181.11184179929597 299 181.198934107484 299 181.37311872386 299 C 181.547303340236 299 181.634395648424 299 181.8085802648 299 C 181.925671034696 299 181.984216419644 299 182.10130718954 299 C 182.332585652396 299 182.44822488382403 299 182.67950334668 299 C 182.85368796305602 299 182.94078027124402 299 183.11496488762 299 C 183.232055657516 299 183.290601042464 299 183.40769181236 299 C 183.58187642873602 299 183.668968736924 299 183.8431533533 299 C 184.017337969672 299 184.104430277858 299 184.27861489423 299 C 184.45279951060598 299 184.53989181879402 299 184.71407643517 299 C 184.88826105154598 299 184.97535335973402 299 185.14953797611 299 C 185.323722592486 299 185.41081490067398 299 185.58499951705 299 C 185.759184133426 299 185.84627644161398 299 186.02046105799 299 C 186.251739520842 299 186.367378752268 275.08 186.59865721512 275.08 C 186.71574798501598 275.08 186.774293369964 299 186.89138413986 299 C 187.06556875623602 299 187.152661064424 299 187.3268456808 299 C 187.501030297176 299 187.58812260536402 299 187.76230722174 299 C 187.93649183811598 299 188.02358414630402 299 188.19776876268 299 C 188.371953379056 299 188.459045687244 299 188.63323030362 299 C 188.80741491999203 299 188.89450722817799 299 189.06869184455 299 C 189.24287646092597 299 189.32996876911403 299 189.50415338549 299 C 189.67833800186602 299 189.765430310054 299 189.93961492643 299 C 190.11379954280602 299 190.200891850994 299 190.37507646737 299 C 190.549261083746 299 190.63635339193402 299 190.81053800831 299 C 190.98472262468198 299 191.071814932868 299 191.24599954924 299 C 191.420184165616 299 191.50727647380398 299 191.68146109018 299 C 191.855645706556 299 191.94273801474398 299 192.11692263112 299 C 192.29110724749597 299 192.37819955568398 299 192.55238417206 299 C 192.726568788436 299 192.813661096624 299 192.987845713 299 C 193.16203032937602 299 193.249122637564 299 193.42330725394 299 C 193.654585716792 299 193.770224948218 299 194.00150341107 299 C 194.118594180966 299 194.17713956591402 299 194.29423033581 299 C 194.468414952186 299 194.555507260374 299 194.72969187675 299 C 194.903876493126 299 194.99096880131398 299 195.16515341769 299 C 195.396431880542 299 195.512071111968 275.08 195.74334957482 275.08 C 195.917534191196 275.08 196.004626499384 275.08 196.17881111576 275.08 C 196.35299573213598 275.08 196.440088040324 275.08 196.6142726567 275.08 C 196.78845727307598 275.08 196.875549581264 275.08 197.04973419764 275.08 C 197.166824967536 275.08 197.22537035248402 299 197.34246112238 299 C 197.516645738756 299 197.603738046944 299 197.77792266332 299 C 197.952107279696 299 198.03919958788399 299 198.21338420426 299 C 198.387568820632 299 198.47466112881798 299 198.64884574519 299 C 198.823030361566 299 198.910122669754 299 199.08430728613 299 C 199.25849190250602 299 199.345584210694 299 199.51976882707 299 C 199.693953443446 299 199.78104575163403 299 199.95523036801 299 C 200.129414984386 299 200.21650729257402 299 200.39069190895 299 C 200.564876525326 299 200.651968833514 299 200.82615344989 299 C 201.00033806626203 299 201.087430374448 299 201.26161499082 299 C 201.43579960719597 299 201.52289191538398 299 201.69707653176 299 C 201.92835499461597 299 202.043994226044 299 202.2752726889 299 C 202.449457305272 299 202.53654961345802 275.08 202.71073422983 275.08 C 202.82782499973 275.08 202.88637038468 299 203.00346115458 299 C 203.234739617432 299 203.350378848858 251.16 203.58165731171 251.16 C 203.755841928086 251.16 203.84293423627398 299 204.01711885265 299 C 204.134209622546 299 204.192755007494 299 204.30984577739 299 C 204.541124240246 299 204.656763471674 299 204.88804193453 299 C 205.005132704426 299 205.06367808937404 299 205.18076885927 299 C 205.412047322122 299 205.527686553548 299 205.7589650164 299 C 205.876055786296 299 205.934601171244 299 206.05169194114 299 C 206.28297040399602 299 206.398609635424 299 206.62988809828 299 C 206.74697886817603 299 206.805524253124 299 206.92261502302 299 C 207.153893485876 299 207.269532717304 299 207.50081118016 299 C 207.67499579653204 299 207.76208810471798 299 207.93627272109 299 C 208.11045733746602 299 208.197549645654 299 208.37173426203 299 C 208.54591887840598 299 208.63301118659402 299 208.80719580297 299 C 208.924286572866 299 208.982831957814 299 209.09992272771 299 C 209.33120119056602 299 209.446840421994 299 209.67811888485 299 C 209.85230350122202 299 209.93939580940796 299 210.11358042578 299 C 210.23067119568 299 210.28921658063 299 210.40630735053 299 C 210.63758581338197 299 210.753225044808 299 210.98450350766 299 C 211.15868812403602 299 211.245780432224 299 211.4199650486 299 C 211.594149664976 299 211.68124197316402 299 211.85542658954 299 C 212.02961120591598 299 212.11670351410402 299 212.29088813048 299 C 212.465072746852 299 212.552165055038 299 212.72634967141 299 C 212.900534287786 299 212.98762659597395 251.16 213.16181121235 251.16 C 213.33599582872597 251.16 213.42308813691403 251.16 213.59727275329 251.16 C 213.71436352318602 251.16 213.772908908134 299 213.88999967803 299 C 214.12127814088598 299 214.23691737231402 251.16 214.46819583517 251.16 C 214.585286605066 251.16 214.643831990014 299 214.76092275991 299 C 214.99220122276196 299 215.107840454188 299 215.33911891704 299 C 215.513303533416 299 215.60039584160398 299 215.77458045798 299 C 215.948765074356 299 216.03585738254395 299 216.21004199892 299 C 216.38422661529597 299 216.47131892348398 299 216.64550353986 299 C 216.819688156236 299 216.906780464424 299 217.0809650808 299 C 217.25514969717202 299 217.342242005358 299 217.51642662173 299 C 217.63351739163 299 217.69206277658 299 217.80915354648 299 C 217.983338162852 299 218.07043047103798 299 218.24461508741 299 C 218.47589355026602 299 218.591532781694 299 218.82281124455 299 C 218.996995860926 299 219.08408816911395 299 219.25827278549 299 C 219.375363555386 299 219.433908940334 299 219.55099971023 299 C 219.72518432660598 299 219.812276634794 299 219.98646125117 299 C 220.217739714022 299 220.33337894544803 299 220.5646574083 299 C 220.738842024676 299 220.82593433286402 299 221.00011894924 299 C 221.117209719136 299 221.175755104084 251.16 221.29284587398 251.16 C 221.52412433683602 251.16 221.63976356826402 251.16 221.87104203112 251.16 C 222.04522664749203 251.16 222.13231895567796 265.51200000010846 222.30650357205 275.08 C 222.48068818842597 284.6480000001085 222.56778049661398 299 222.74196511299 299 C 222.916149729366 299 223.003242037554 299 223.17742665393 299 C 223.294517423826 299 223.35306280877404 299 223.47015357867 299 C 223.701432041526 299 223.817071272954 275.08 224.04834973581 275.08 C 224.222534352186 275.08 224.30962666037402 299 224.48381127675 299 C 224.657995893122 299 224.745088201308 275.08 224.91927281768 275.08 C 225.093457434056 275.08 225.18054974224395 299 225.35473435862 299 C 225.52891897499597 299 225.61601128318398 299 225.79019589956 299 C 225.90728666945597 299 225.96583205440402 299 226.0829228243 299 C 226.31420128715598 299 226.42984051858403 285.99528400967887 226.66111898144 275.08 C 226.835303597812 266.85928400967884 226.92239590599803 251.16 227.09658052237 251.16 C 227.270765138746 251.16 227.35785744693402 251.16 227.53204206331 251.16 C 227.706226679686 251.16 227.793318987874 251.16 227.96750360425 251.16 C 228.141688220626 251.16 228.22878052881396 299 228.40296514519 299 C 228.57714976156598 299 228.66424206975398 299 228.83842668613 299 C 228.95551745602597 299 229.01406284097402 299 229.13115361087 299 C 229.362432073722 299 229.47807130514803 275.08 229.709349768 275.08 C 229.883534384376 275.08 229.97062669256403 299 230.14481130894 299 C 230.351665621016 299 230.455092777054 299 230.66194708913 299 C 230.80346200980603 299 230.874219470144 299 231.01573439082 299 C 231.189919007196 299 231.27701131538396 299 231.45119593176 299 C 231.62538054813598 299 231.71247285632398 299 231.8866574727 299 C 232.060842089072 299 232.14793439725798 299 232.32211901363 299 C 232.43920978352998 299 232.49775516847998 299 232.61484593838 299 C 232.846124401232 299 232.961763632658 299 233.19304209551 299 C 233.367226711886 299 233.45431902007402 299 233.62850363645 299 C 233.80268825282602 299 233.889780561014 251.16 234.06396517739 251.16 C 234.23814979376203 251.16 234.32524210194796 299 234.49942671832 299 C 234.67361133469598 299 234.76070364288398 299 234.93488825926 299 C 235.109072875636 299 235.196165183824 299 235.3703498002 299 C 235.487440570096 299 235.545985955044 299 235.66307672494 299 C 235.83726134131604 299 235.92435364950398 299 236.09853826588 299 C 236.32981672873598 299 236.445455960164 227.24 236.67673442302 227.24 C 236.850919039392 227.24 236.938011347578 275.08 237.11219596395 275.08 C 237.286380580326 275.08 237.37347288851396 251.16 237.54765750489 251.16 C 237.72184212126598 251.16 237.80893442945398 251.16 237.98311904583 251.16 C 238.157303662206 251.16 238.244395970394 275.08 238.41858058677 275.08 C 238.59276520314597 275.08 238.67985751133398 275.08 238.85404212771 275.08 C 239.13997504600198 275.08 239.28294150514802 275.08 239.56887442344 275.08 C 239.631310737896 275.08 239.662528895124 275.08 239.72496520958 275.08 C 239.89914982595602 275.08 239.986242134144 275.08 240.16042675052 275.08 C 240.334611366896 275.08 240.42170367508396 299 240.59588829146 299 C 240.77007290783598 299 240.857165216024 299 241.0313498324 299 C 241.205534448776 299 241.292626756964 299 241.46681137334 299 C 241.64099598971197 299 241.72808829789795 299 241.90227291427 299 C 242.076457530646 299 242.16354983883403 299 242.33773445521 299 C 242.511919071586 299 242.59901137977403 275.08 242.77319599615 275.08 C 242.94738061252602 275.08 243.034472920714 275.08 243.20865753709 275.08 C 243.32574830698604 275.08 243.384293691934 299 243.50138446183 299 C 243.73266292468603 299 243.84830215611402 299 244.07958061897 299 C 244.253765235342 299 244.340857543528 299 244.5150421599 299 C 244.68922677627597 299 244.77631908446398 299 244.95050370084 299 C 245.124688317216 299 245.21178062540403 299 245.38596524178 299 C 245.50305601167602 299 245.56160139662398 299 245.67869216652 299 C 245.85287678289598 299 245.939969091084 299 246.11415370746 299 C 246.345432170312 299 246.461071401738 227.24 246.69234986459 227.24 C 246.86653448096598 227.24 246.953626789154 299 247.12781140553 299 C 247.301996021906 299 247.389088330094 299 247.56327294647 299 C 247.73745756284598 299 247.82454987103398 299 247.99873448741 299 C 248.172919103786 299 248.26001141197398 299 248.43419602835 299 C 248.608380644726 299 248.695472952914 299 248.86965756929 299 C 248.98674833918602 299 249.04529372413398 299 249.16238449403 299 C 249.33656911040597 299 249.423661418594 299 249.59784603497 299 C 249.82912449782197 299 249.944763729248 275.08 250.1760421921 275.08 C 250.350226808476 275.08 250.437319116664 275.08 250.61150373304 275.08 C 250.78568834941598 275.08 250.87278065760398 275.08 251.04696527398 275.08 C 251.221149890352 275.08 251.30824219853804 275.08 251.48242681491 275.08 C 251.59951758481003 275.08 251.65806296975998 299 251.77515373966 299 C 251.94933835603197 299 252.03643066421802 299 252.21061528059 299 C 252.441893743446 299 252.557532974874 299 252.78881143773 299 C 252.962996054106 299 253.050088362294 299 253.22427297867 299 C 253.398457595046 299 253.48554990323402 299 253.65973451961 299 C 253.83391913598197 299 253.92101144416796 299 254.09519606054 299 C 254.269380676916 299 254.35647298510398 299 254.53065760148 299 C 254.704842217856 299 254.791934526044 251.16 254.96611914242 251.16 C 255.14030375879602 251.16 255.227396066984 299 255.40158068336 299 C 255.57576529973602 299 255.66285760792397 299 255.8370422243 299 C 256.011226840676 299 256.098319148864 299 256.27250376524 299 C 256.44668838161203 299 256.533780689798 299 256.70796530617 299 C 256.882149922546 299 256.96924223073404 299 257.14342684711 299 C 257.317611463486 299 257.404703771674 299 257.57888838805 299 C 257.753073004426 299 257.840165312614 299 258.01434992899 299 C 258.13144069888597 299 258.189986083834 299 258.30707685373 299 C 258.53835531658194 299 258.653994548008 299 258.88527301086 299 C 259.059457627236 299 259.146549935424 299 259.3207345518 299 C 259.437825321696 299 259.49637070664403 299 259.61346147654 299 C 259.787646092916 299 259.87473840110397 299 260.04892301748 299 C 260.223107633856 299 260.310199942044 299 260.48438455842 299 C 260.65856917479596 299 260.745661482984 299 260.91984609936 299 C 261.094030715736 299 261.181123023924 299 261.3553076403 299 C 261.529492256676 299 261.616584564864 299 261.79076918124 299 C 261.964953797612 299 262.052046105798 299 262.22623072217 299 C 262.400415338546 299 262.487507646734 299 262.66169226311 299 C 262.835876879486 299 262.92296918767397 299 263.09715380405 299 C 263.32843226690204 299 263.444071498328 299 263.67534996118 299 C 263.79244073108003 299 263.85098611602996 299 263.96807688593 299 C 264.14226150230195 299 264.229353810488 299 264.40353842686 299 C 264.577723043236 299 264.664815351424 299 264.8389999678 299 C 265.013184584176 299 265.10027689236404 299 265.27446150874 299 C 265.448646125116 299 265.535738433304 299 265.70992304968 299 C 265.884107666056 299 265.971199974244 299 266.14538459062 299 C 266.37666305347204 299 266.492302284898 299 266.72358074775 299 C 266.89776536412603 299 266.984857672314 299 267.15904228869 299 C 267.333226905066 299 267.420319213254 299 267.59450382963 299 C 267.768688446006 299 267.855780754194 299 268.02996537057 299 C 268.204149986946 299 268.291242295134 299 268.46542691151 299 C 268.639611527882 299 268.726703836068 299 268.90088845244 299 C 269.075073068816 299 269.162165377004 299 269.33634999338 299 C 269.510534609756 299 269.597626917944 299 269.77181153432 299 C 269.94599615069603 299 270.033088458884 299 270.20727307526 299 C 270.381457691636 299 270.468549999824 299 270.6427346162 299 C 270.81691923257205 299 270.904011540758 299 271.07819615713 299 C 271.252380773506 299 271.339473081694 299 271.51365769807 299 C 271.68784231444596 299 271.774934622634 299 271.94911923901 299 C 272.123303855386 299 272.210396163574 299 272.38458077995 299 C 272.558765396326 299 272.645857704514 299 272.82004232089 299 C 272.99422693726603 299 273.081319245454 299 273.25550386183 299 C 273.429688478202 299 273.51678078638804 299 273.69096540276 299 C 273.865150019136 299 273.952242327324 299 274.1264269437 299 C 274.300611560076 299 274.387703868264 299 274.56188848464 299 C 274.73607310101596 299 274.823165409204 299 274.99735002558 299 C 275.171534641956 299 275.258626950144 299 275.43281156652 299 C 275.54990233641604 299 275.608447721364 299 275.72553849126 299 C 275.956816954112 299 276.072456185538 275.08 276.30373464839 275.08 C 276.477919264766 275.08 276.565011572954 299 276.73919618933 299 C 276.913380805706 299 277.000473113894 299 277.17465773027 299 C 277.348842346646 299 277.435934654834 299 277.61011927121 299 C 277.78430388758596 299 277.871396195774 299 278.04558081215 299 C 278.219765428522 299 278.30685773670797 299 278.48104235308 299 C 278.655226969456 299 278.742319277644 299 278.91650389402 299 C 279.09068851039603 299 279.177780818584 299 279.35196543496 299 C 279.526150051336 299 279.613242359524 299 279.7874269759 299 C 279.96161159227603 299 280.048703900464 299 280.22288851684 299 C 280.397073133216 299 280.484165441404 299 280.65835005778 299 C 280.832534674152 299 280.919626982338 299 281.09381159871 299 C 281.267996215086 299 281.355088523274 299 281.52927313965 299 C 281.703457756026 299 281.790550064214 299 281.96473468059 299 C 282.13891929696604 299 282.226011605154 299 282.40019622153 299 C 282.574380837906 299 282.661473146094 299 282.83565776247 299 C 283.00984237884205 299 283.096934687028 299 283.2711193034 299 C 283.445303919776 299 283.532396227964 299 283.70658084434 299 C 283.88076546071596 299 283.967857768904 299 284.14204238528 299 C 284.316227001656 299 284.403319309844 299 284.57750392622 299 C 284.751688542596 299 284.83878085078396 299 285.01296546716 299 C 285.187150083536 299 285.274242391724 299 285.4484270081 299 C 285.62261162447203 299 285.70970393265804 299 285.88388854903 299 C 286.05807316540603 299 286.145165473594 299 286.31935008997 299 C 286.493534706346 299 286.580627014534 299 286.75481163091 299 C 286.92899624728597 299 287.016088555474 299 287.19027317185 299 C 287.364457788226 299 287.451550096414 299 287.62573471279 299 C 287.799919329162 299 287.88701163734805 299 288.06119625372 299 C 288.17828702362004 299 288.23683240856997 299 288.35392317847 299 C 288.528107794846 299 288.615200103034 299 288.78938471941 299 C 288.963569335782 299 289.050661643968 299 289.22484626034 299 C 289.399030876716 299 289.486123184904 299 289.66030780128 299 C 289.834492417656 299 289.921584725844 299 290.09576934222 299 C 290.26995395859603 299 290.357046266784 299 290.53123088316 299 C 290.705415499536 299 290.792507807724 299 290.9666924241 299 C 291.140877040472 299 291.227969348658 299 291.40215396503 299 C 291.576338581406 299 291.663430889594 299 291.83761550597 299 C 292.011800122346 299 292.09889243053397 299 292.27307704691 299 C 292.447261663286 299 292.534353971474 299 292.70853858785 299 C 292.882723204226 299 292.969815512414 299 293.14400012879 299 C 293.31818474516604 299 293.405277053354 299 293.57946166973 299 C 293.753646286102 299 293.840738594288 299 294.01492321066 299 C 294.18910782703597 299 294.27620013522403 299 294.4503847516 299 C 294.624569367976 299 294.711661676164 299 294.88584629254 299 C 295.060030908916 299 295.14712321710397 299 295.32130783348 299 C 295.495492449856 299 295.582584758044 299 295.75676937442 299 C 295.93095399079203 299 296.018046298978 299 296.19223091535 299 C 296.36641553172603 299 296.453507839914 299 296.62769245629 299 C 296.801877072666 299 296.888969380854 299 297.06315399723 299 C 297.23733861360597 299 297.32443092179403 299 297.49861553817 299 C 297.672800154546 299 297.759892462734 299 297.93407707911 299 C 298.108261695486 299 298.19535400367397 299 298.36953862005 299 C 298.543723236422 299 298.630815544608 299 298.80500016098 299 C 298.979184777356 299 299.066277085544 299 299.24046170192 299 C 299.41464631829604 299 299.501738626484 299 299.67592324286 299 C 299.850107859236 299 299.937200167424 299 300.1113847838 299 C 300.285569400176 299 300.37266170836403 299 300.54684632474 299 C 300.721030941116 299 300.808123249304 299 300.98230786568 299 C 301.156492482052 299 301.243584790238 299 301.41776940661 299 C 301.649047869466 299 301.76468710089404 299 301.99596556375 299 C 302.113056333646 299 302.17160171859405 299 302.28869248849 299 C 302.46287710486604 299 302.549969413054 299 302.72415402943 299 C 302.955432492282 299 303.071071723708 299 303.30235018656 299 C 303.476534802936 299 303.563627111124 299 303.7378117275 299 C 303.911996343876 299 303.999088652064 299 304.17327326844 299 C 304.34745788481604 299 304.434550193004 299 304.60873480938 299 C 304.782919425756 299 304.870011733944 299 305.04419635032 299 C 305.218380966692 299 305.305473274878 299 305.47965789125 299 C 305.653842507626 299 305.740934815814 299 305.91511943219 299 C 306.089304048566 299 306.17639635675397 299 306.35058097313 299 C 306.524765589506 299 306.611857897694 299 306.78604251407 299 C 306.960227130446 299 307.04731943863396 299 307.22150405501 299 C 307.39568867138195 299 307.482780979568 299 307.65696559594 299 C 307.831150212316 299 307.918242520504 299 308.09242713688 299 C 308.266611753256 299 308.35370406144403 299 308.52788867782 299 C 308.702073294196 299 308.789165602384 299 308.96335021876 299 C 309.137534835136 299 309.22462714332397 299 309.3988117597 299 C 309.572996376076 299 309.660088684264 299 309.83427330064 299 C 310.00845791701204 299 310.09555022519805 299 310.26973484157 299 C 310.44391945794604 299 310.531011766134 299 310.70519638251 299 C 310.879380998886 299 310.966473307074 299 311.14065792345 299 C 311.314842539826 299 311.40193484801404 299 311.57611946439 299 C 311.750304080766 299 311.837396388954 299 312.01158100533 299 C 312.185765621702 299 312.27285792988795 299 312.44704254626 299 C 312.621227162636 299 312.708319470824 299 312.8825040872 299 C 313.056688703576 299 313.14378101176396 299 313.31796562814 299 C 313.492150244516 299 313.579242552704 299 313.75342716908 299 C 313.927611785456 299 314.014704093644 299 314.18888871002 299 C 314.363073326396 299 314.45016563458404 299 314.62435025096 299 C 314.798534867332 299 314.885627175518 275.08 315.05981179189 275.08 C 315.17690256179003 275.08 315.23544794674 299 315.35253871664 299 C 315.58381717949203 299 315.699456410918 299 315.93073487377 299 C 316.104919490146 299 316.19201179833397 299 316.36619641471 299 C 316.540381031086 299 316.627473339274 299 316.80165795565 299 C 316.975842572026 299 317.062934880214 299 317.23711949659 299 C 317.411304112962 299 317.498396421148 299 317.67258103752 299 C 317.846765653896 299 317.933857962084 299 318.10804257846 299 C 318.282227194836 299 318.369319503024 299 318.5435041194 299 C 318.71942050181195 299 318.807378693018 299 318.98329507543 299 C 319.15574792577 299 319.24197435094004 299 319.41442720128 299 C 319.628202529416 299 319.735090193484 299 319.94886552162 299 C 320.083459426232 299 320.150756378538 299 320.28535028315 299 C 320.459534899526 299 320.54662720771404 275.08 320.72081182409 275.08 C 320.894996440466 275.08 320.982088748654 275.08 321.15627336503 275.08 C 321.330457981406 275.08 321.417550289594 299 321.59173490597 299 C 321.765919522346 299 321.853011830534 299 322.02719644691 299 C 322.201381063282 299 322.288473371468 283.03863350377543 322.46265798784 275.08 C 322.707288588592 263.9026335037754 322.829603888968 251.16 323.07423448972 251.16 C 323.185093724324 251.16 323.240523341626 275.08 323.35138257623 275.08 C 323.518446590002 275.08 323.601978596888 275.08 323.76904261066 275.08 C 323.943227227036 275.08 324.030319535224 275.08 324.2045041516 275.08 C 324.378688767972 275.08 324.46578107615795 275.08 324.63996569253 275.08 C 324.75705646242994 275.08 324.81560184738 299 324.93269261728 299 C 325.106877233656 299 325.193969541844 299 325.36815415822 299 C 325.59943262107197 299 325.715071852498 251.16 325.94635031535 251.16 C 326.120534931726 251.16 326.207627239914 251.16 326.38181185629 251.16 C 326.555996472666 251.16 326.64308878085404 251.16 326.81727339723 251.16 C 326.991458013602 251.16 327.078550321788 251.16 327.25273493816 251.16 C 327.426919554536 251.16 327.514011862724 251.16 327.6881964791 251.16 C 327.862381095476 251.16 327.949473403664 251.16 328.12365802004 251.16 C 328.297842636416 251.16 328.38493494460397 251.16 328.55911956098 251.16 C 328.733304177356 251.16 328.820396485544 251.16 328.99458110192 251.16 C 329.16876571829596 251.16 329.255858026484 251.16 329.43004264286 251.16 C 329.604227259232 251.16 329.69131956741796 251.16 329.86550418379 251.16 C 330.05440175537797 251.16 330.148850541172 251.16 330.33774811276 251.16 C 330.49721977392403 251.16 330.576955604506 251.16 330.73642726567 251.16 C 330.910611882046 251.16 330.997704190234 251.16 331.17188880661 251.16 C 331.346073422986 251.16 331.433165731174 251.16 331.60735034755 251.16 C 331.78153496392196 251.16 331.86862727210803 299 332.04281188848 299 C 332.216996504856 299 332.304088813044 251.16 332.47827342942 251.16 C 332.652458045796 251.16 332.73955035398404 299 332.91373497036 299 C 333.087919586736 299 333.175011894924 299 333.3491965113 299 C 333.52338112767603 299 333.610473435864 299 333.78465805224 299 C 333.958842668616 299 334.045934976804 299 334.22011959318 299 C 334.39670932815596 299 334.48500419564397 299 334.66159393062 299 C 334.844270047044 299 334.935608105256 299 335.11828422168 299 C 335.224478372924 299 335.27757544854603 299 335.38376959979 299 C 335.64725205641804 299 335.77899328473205 299 336.04247574136 299 C 336.225484502016 299 336.316988882344 299 336.499997643 299 C 336.63315412132 299 336.69973236047997 299 336.8328888388 299 C 337.007073455176 299 337.094165763364 299 337.26835037974 299 C 337.442534996116 299 337.529627304304 299 337.70381192068 299 C 337.877996537056 299 337.965088845244 299 338.13927346162 299 C 338.32988465501205 299 338.42519025170793 299 338.6158014451 299 C 338.77355948445995 299 338.85243850413997 299 339.0101965435 299 C 339.18438115987203 299 339.271473468058 299 339.44565808443 299 C 339.61984270080603 299 339.706935008994 299 339.88111962537 299 C 340.055304241746 299 340.142396549934 299 340.31658116631 299 C 340.490765782686 299 340.577858090874 299 340.75204270725 299 C 340.926227323626 299 341.013319631814 299 341.18750424819 299 C 341.36168886456596 299 341.448781172754 299 341.62296578913 299 C 341.797150405502 299 341.88424271368797 299 342.05842733006 299 C 342.232611946436 299 342.319704254624 299 342.493888871 299 C 342.610979640896 299 342.669525025844 299 342.78661579574 299 C 342.960800412116 299 343.047892720304 299 343.22207733668 299 C 343.453355799536 299 343.568995030964 275.08 343.80027349382 275.08 C 343.97445811019196 275.08 344.06155041837803 299 344.23573503475 299 C 344.40991965112596 299 344.497011959314 275.08 344.67119657569 275.08 C 344.845381192066 275.08 344.93247350025393 275.08 345.10665811663 275.08 C 345.280842733006 275.08 345.367935041194 275.08 345.54211965757 275.08 C 345.71630427394604 275.08 345.803396582134 275.08 345.97758119851 275.08 C 346.151765814886 275.08 346.238858123074 275.08 346.41304273945 275.08 C 346.587227355822 275.08 346.674319664008 275.08 346.84850428038 275.08 C 347.022688896756 275.08 347.109781204944 275.08 347.28396582132 275.08 C 347.45815043769596 275.08 347.545242745884 275.08 347.71942736226 275.08 C 347.893611978636 275.08 347.98070428682394 275.08 348.1548889032 275.08 C 348.32907351957596 275.08 348.416165827764 275.08 348.59035044414 275.08 C 348.764535060512 275.08 348.85162736869796 299 349.02581198507 299 C 349.199996601446 299 349.287088909634 275.08 349.46127352601 275.08 C 349.635458142386 275.08 349.722550450574 299 349.89673506695 299 C 350.070919683326 299 350.158011991514 299 350.33219660789 299 C 350.50638122426597 299 350.593473532454 299 350.76765814883 299 C 350.941842765206 299 351.02893507339394 299 351.20311968977 299 C 351.37730430614204 299 351.464396614328 299 351.6385812307 299 C 351.81276584707604 299 351.899858155264 275.08 352.07404277164 275.08 C 352.248227388016 275.08 352.335319696204 299 352.50950431258 299 C 352.626595082476 299 352.685140467424 299 352.80223123732 299 C 353.033509700176 299 353.14914893160403 299 353.38042739446 299 C 353.55461201083597 299 353.64170431902403 299 353.8158889354 299 C 353.932979705296 299 353.99152509024395 299 354.10861586014 299 C 354.282800476516 299 354.369892784704 299 354.54407740108 299 C 354.71826201745205 299 354.80535432563795 299 354.97953894201 299 C 355.21081740486596 299 355.326456636294 299 355.55773509915 299 C 355.73191971552603 299 355.819012023714 299 355.99319664009 299 C 356.110287409986 299 356.168832794934 299 356.28592356483 299 C 356.517202027682 299 356.632841259108 275.08 356.86411972196 275.08 C 356.981210491856 275.08 357.03975587680395 299 357.1568466467 299 C 357.388522266608 299 357.50436007656197 275.08 357.73603569647 275.08 C 357.852729309314 275.08 357.91107611573597 299 358.02776972858 299 C 358.25904819143597 299 358.374687422864 275.08 358.60596588572 275.08 C 358.78045290594 275.08 358.86769641605 299 359.04218343627 299 C 359.266153806134 299 359.37813899106607 299 359.60210936093 299 C 359.72620581997 299 359.78825404949004 299 359.91235050853 299 C 360.086535124906 299 360.17362743309394 275.08 360.34781204947 275.08 C 360.52199666584596 275.08 360.609088974034 299 360.78327359041 299 C 360.900364360306 299 360.95890974525395 299 361.07600051515 299 C 361.307278978002 299 361.422918209428 299 361.65419667228 299 C 361.771287442176 299 361.829832827124 299 361.94692359702 299 C 362.121108213396 299 362.208200521584 299 362.38238513796 299 C 362.556569754336 299 362.643662062524 299 362.8178466789 299 C 362.99203129527604 299 363.079123603464 299 363.25330821984 299 C 363.427492836216 299 363.514585144404 299 363.68876976078 299 C 363.86295437715603 299 363.950046685344 299 364.12423130172 299 C 364.355509764572 299 364.471148995998 275.08 364.70242745885 275.08 C 364.87661207522603 275.08 364.963704383414 299 365.13788899979 299 C 365.254979769686 299 365.313525154634 299 365.43061592453 299 C 365.604800540906 299 365.691892849094 299 365.86607746547 299 C 366.04026208184604 299 366.127354390034 299 366.30153900641 299 C 366.532817469262 299 366.648456700688 299 366.87973516354 299 C 367.069789933852 299 367.16481731900797 299 367.35487208932 299 C 367.51318655176 299 367.59234378298004 299 367.75065824542 299 C 367.92484286179604 299 368.011935169984 299 368.18611978636 299 C 368.36030440273197 299 368.44739671091804 299 368.62158132729 299 C 368.79576594366597 299 368.88285825185403 299 369.05704286823 299 C 369.23239073140604 299 369.320064662994 299 369.49541252617 299 C 369.669335059214 299 369.756296325736 299 369.93021885878 299 C 370.109538292492 299 370.199198009348 299 370.37851744306 299 C 370.548032944024 299 370.632790694506 299 370.80230619547 299 C 370.97560174453 299 371.06224951906 299 371.23554506812 299 C 371.409626867188 299 371.496667766722 299 371.67074956579 299 C 371.84455920139396 299 371.931464019196 299 372.1052736548 299 C 372.28140978400796 299 372.36947784861195 299 372.54561397782 299 C 372.7210565941999 299 372.80877790239003 299 372.98422051877 299 C 373.155522218462 299 373.24117306830794 299 373.412474768 299 C 373.586598903608 299 373.673660971412 299 373.84778510702 299 C 373.96460976152804 299 374.023022088782 299 374.13984674329 299 C 374.371125206146 299 374.48676443757404 299 374.71804290043 299 C 374.892227516806 299 374.97931982499404 299 375.15350444137 299 C 375.327689057746 299 375.41478136593395 299 375.58896598231 299 C 375.706056752206 299 375.76460213715404 275.08 375.88169290705 275.08 C 376.11458620645004 275.08 376.23103285615 299 376.46392615555 299 C 376.63649593537804 299 376.722780825292 299 376.89535060512 299 C 377.069535221496 299 377.156627529684 299 377.33081214606 299 C 377.447902915956 299 377.506448300904 299 377.6235390708 299 C 377.797723687176 299 377.88481599536397 299 378.05900061174 299 C 378.290279074592 299 378.40591830601795 299 378.63719676887 299 C 378.81138138524597 299 378.898473693434 299 379.07265830981 299 C 379.24684292618605 299 379.333935234374 299 379.50811985075 299 C 379.68230446712596 299 379.769396775314 299 379.94358139169 299 C 380.16097951792597 299 380.269678581044 299 380.48707670728 299 C 380.618047813792 299 380.683533367048 299 380.81450447356 299 C 380.988689089936 299 381.07578139812404 299 381.2499660145 299 C 381.424150630876 299 381.51124293906395 299 381.68542755544 299 C 381.85961217181597 299 381.94670448000403 299 382.12088909638 299 C 382.29507371275605 299 382.382166020944 299 382.55635063732 299 C 382.73053525369596 299 382.817627561884 299 382.99181217826 299 C 383.16599679463195 299 383.253089102818 299 383.42727371919 299 C 383.601458335566 299 383.688550643754 299 383.86273526013 299 C 384.036919876506 299 384.12401218469404 275.08 384.29819680107 275.08 C 384.472381417446 275.08 384.55947372563395 299 384.73365834201 299 C 384.90784295838597 299 384.99493526657403 299 385.16911988295 299 C 385.343590774966 299 385.430826220974 299 385.60529711299 299 C 385.77919545372197 299 385.86614462408795 299 386.04004296482 299 C 386.214227581196 299 386.301319889384 299 386.47550450576 299 C 386.650130631752 299 386.737443694748 299 386.91206982074 299 C 387.08581292749994 299 387.17268448088 299 387.34642758764 299 C 387.520612204016 299 387.60770451220395 299 387.78188912858 299 C 387.956073744952 299 388.043166053138 299 388.21735066951 299 C 388.39153528588605 299 388.478627594074 299 388.65281221045 299 C 388.827601634522 299 388.91499634655804 299 389.08978577063 299 C 389.26336557931 299 389.35015548365 299 389.52373529233 299 C 389.697919908706 299 389.785012216894 299 389.95919683327 299 C 390.133381449646 299 390.22047375783404 299 390.39465837421 299 C 390.568842990582 299 390.655935298768 299 390.83011991514 299 C 391.00430453151597 299 391.09139683970403 299 391.26558145608 299 C 391.43976607245605 299 391.526858380644 275.08 391.70104299702 275.08 C 391.87522761339596 275.08 391.962319921584 299 392.13650453796 299 C 392.310689154336 299 392.397781462524 299 392.5719660789 299 C 392.746150695272 299 392.83324300345805 299 393.00742761983 299 C 393.181612236206 299 393.26870454439404 299 393.44288916077 299 C 393.617073777146 299 393.70416608533395 299 393.87835070171 299 C 394.052535318086 299 394.13962762627403 299 394.31381224265 299 C 394.48799685902605 299 394.575089167214 299 394.74927378359 299 C 394.92345839996597 299 395.010550708154 299 395.18473532453 299 C 395.35891994090196 299 395.446012249088 299 395.62019686546 299 C 395.73728763536 299 395.79583302031 299 395.91292379021 299 C 396.087108406582 299 396.174200714768 299 396.34838533114 299 C 396.61924039358 299 396.75466792479995 299 397.02552298724 299 C 397.10303715755197 299 397.141794242708 299 397.21930841302 299 C 397.45058687587596 299 397.56622610730403 299 397.79750457016 299 C 397.971689186532 299 398.058781494718 299 398.23296611109 299 C 398.407150727466 299 398.494243035654 275.08 398.66842765203 275.08 C 398.853291156286 275.08 398.94572290841404 299 399.13058641267 299 C 399.29409214116606 299 399.375845005414 275.08 399.53935073391 275.08 C 399.65644150380604 275.08 399.71498688875397 299 399.83207765865 299 C 400.00626227502596 299 400.093354583214 299 400.26753919959 299 C 400.441723815966 299 400.52881612415393 299 400.70300074053 299 C 400.956463549662 299 401.08319495422796 275.08 401.33665776336 275.08 C 401.431564186976 275.08 401.479017398784 299 401.5739238224 299 C 401.748108438776 299 401.835200746964 299 402.00938536334 299 C 402.24066382619606 299 402.356303057624 299 402.58758152048 299 C 402.762318527884 299 402.84968703158603 299 403.02442403899 299 C 403.140962417858 299 403.199231607292 299 403.31576998616 299 C 403.547048449012 299 403.662687680438 299 403.89396614329 299 C 404.06815075966597 299 404.15524306785403 299 404.32942768423 299 C 404.503612300606 299 404.590704608794 299 404.76488922517 299 C 404.94892615890603 299 405.040944625774 299 405.22498155951 299 C 405.332220012046 299 405.385839238314 299 405.49307769085 299 C 405.66726230722196 299 405.75435461540803 299 405.92853923178 299 C 406.159817694636 299 406.275456926064 299 406.50673538892 299 C 406.683613415568 299 406.772052428892 299 406.94893045554 299 C 407.120421661644 299 407.206167264696 299 407.3776584708 299 C 407.66084153009996 299 407.80243305975 299 408.08561611905 299 C 408.150802292498 299 408.18339537922196 299 408.24858155267 299 C 408.422766169046 299 408.509858477234 299 408.68404309361 299 C 408.86125376449 299 408.94985909993 299 409.12706977081 299 C 409.40036825633797 299 409.537017499102 299 409.81031598463 299 C 409.88825755238196 299 409.92722833625805 299 410.00516990401 299 C 410.17345764535 299 410.25760151602 299 410.42588925736 299 C 410.600073873736 299 410.687166181924 299 410.8613507983 299 C 411.035535414676 299 411.12262772286397 299 411.29681233924 299 C 411.41390310913596 299 411.472448494084 299 411.58953926398 299 C 411.82081772683597 299 411.936456958264 299 412.16773542112 299 C 412.34192003749195 299 412.42901234567796 299 412.60319696205 299 C 412.77738157842606 299 412.864473886614 299 413.03865850299 299 C 413.155749272886 299 413.21429465783405 299 413.33138542773 299 C 413.562663890586 299 413.67830312201403 299 413.90958158487 299 C 414.091451291034 299 414.18238614411604 299 414.36425585028 299 C 414.530755376868 299 414.614005140162 299 414.78050466675 299 C 414.95468928312204 299 415.041781591308 299 415.21596620768 299 C 415.33305697758 299 415.39160236253 299 415.50869313243 299 C 415.739971595282 299 415.855610826708 299 416.08688928956 299 C 416.26455558223597 299 416.35338872857403 299 416.53105502125 299 C 416.701757961326 299 416.787109431364 299 416.95781237144 299 C 417.131996987812 299 417.21908929599795 299 417.39327391237 299 C 417.51036468226994 299 417.56891006722 299 417.68600083712 299 C 417.919531200628 299 418.036296382382 299 418.26982674589 299 C 418.44175946160993 299 418.52772581947 299 418.69965853519 299 C 418.87426651695404 299 418.96157050783603 299 419.1361784896 299 C 419.252845894108 299 419.311179596362 299 419.42784700087 299 C 419.60203161724604 299 419.689123925434 299 419.86330854181 299 C 420.03749315818607 299 420.124585466374 299 420.29877008275 299 C 420.530048545602 299 420.64568777702806 299 420.87696623988 299 C 421.05541676653604 299 421.14464202986403 299 421.32309255652 299 C 421.493011262616 299 421.57797061566396 299 421.74788932176 299 C 421.92207393813607 299 422.009166246324 299 422.1833508627 299 C 422.357535479072 299 422.444627787258 299 422.61881240363 299 C 422.735903173526 299 422.79444855847396 299 422.91153932837 299 C 423.08572394474595 299 423.172816252934 299 423.34700086931 299 C 423.57827933216606 299 423.69391856359397 299 423.92519702645 299 C 424.099381642826 299 424.18647395101397 299 424.36065856739 299 C 424.53484318376195 299 424.62193549194797 299 424.79612010832 299 C 424.97030472469606 299 425.057397032884 299 425.23158164926 299 C 425.405766265636 299 425.49285857382404 299 425.6670431902 299 C 425.841227806576 299 425.928320114764 299 426.10250473114 299 C 426.219595501036 299 426.27814088598404 299 426.39523165588 299 C 426.56941627225603 299 426.656508580444 299 426.83069319682 299 C 427.004877813196 299 427.091970121384 299 427.26615473776 299 C 427.440339354136 299 427.52743166232403 299 427.7016162787 299 C 427.875800895072 299 427.962893203258 299 428.13707781963 299 C 428.3112624360059 299 428.39835474419397 299 428.57253936057 299 C 428.803817823426 299 428.919457054854 299 429.15073551771 299 C 429.324920134082 299 429.41201244226795 299 429.58619705864 299 C 429.70328782853994 299 429.76183321349 299 429.87892398339 299 C 430.168092622854 299 430.31267694258605 299 430.60184558205 299 C 430.766474236834 299 430.848788564226 299 431.01341721901 299 C 431.082173773886 299 431.116552051324 299 431.1853086062 299 C 431.460502155844 299 431.59809893066597 299 431.87329248031 299 C 431.946468163418 299 431.98305600497196 299 432.05623168808 299 C 432.287510150932 299 432.403149382358 299 432.63442784521 299 C 432.82819008669793 299 432.92507120744193 287.8096518273319 433.11883344893 275.08 C 433.21634659371404 268.67365182733187 433.26510316610603 251.16 433.36261631089 251.16 C 433.536800927266 251.16 433.62389323545403 299 433.79807785183 299 C 433.972262468206 299 434.05935477639395 299 434.23353939277 299 C 434.4077240091459 299 434.49481631733397 299 434.66900093371 299 C 434.84318555008605 299 434.930277858274 299 435.10446247465 299 C 435.33574093750195 299 435.451380168928 299 435.68265863178 299 C 435.856843248156 299 435.94393555634394 299 436.11812017272 299 C 436.29295596538003 299 436.38037386171 299 436.55520965437 299 C 436.74145816825 299 436.83458242519 275.08 437.02083093907 275.08 C 437.12520663517796 275.08 437.177394483232 299 437.28177017934 299 C 437.45595479571205 299 437.54304710389806 299 437.71723172027 299 C 437.95016735621004 299 438.06663517418 299 438.29957081012 299 C 438.415004406932 299 438.47272120533796 299 438.58815480215 299 C 438.82131421693794 299 438.937893924332 275.08 439.17105333912 275.08 C 439.28626315708397 275.08 439.34386806606597 299 439.45907788403 299 C 439.6903563468821 299 439.805995578308 299 440.03727404116 299 C 440.21145865753607 299 440.2985509657239 299 440.4727355821 299 C 440.646920198476 299 440.73401250666393 299 440.90819712304 299 C 441.082381739416 299 441.169474047604 299 441.34365866398 299 C 441.517843280352 299 441.60493558853796 299 441.77912020491 299 C 441.953304821286 299 442.04039712947394 299 442.21458174585 299 C 442.33167251574605 299 442.390217900694 299 442.50730867059 299 C 442.681493286966 299 442.76858559515404 299 442.94277021153 299 C 443.116954827906 299 443.20404713609395 299 443.37823175247 299 C 443.622521644886 299 443.744666591094 299 443.98895648351 299 C 444.125991795186 299 444.194509451024 299 444.3315447627 299 C 444.472773407736 299 444.5433877302539 299 444.68461637529 299 C 444.915894838142 299 445.031534069568 299 445.26281253242 299 C 445.436997148796 299 445.524089456984 299 445.69827407336 299 C 445.87245868973605 299 445.959550997924 299 446.1337356143 299 C 446.30792023067204 299 446.39501253885794 299 446.56919715523 299 C 446.68628792512993 299 446.74483331007997 299 446.86192407998 299 C 447.03610869635605 299 447.123201004544 299 447.29738562092 299 C 447.471570237292 299 447.558662545478 299 447.73284716185 299 C 447.96412562470596 299 448.079764856134 299 448.31104331899 299 C 448.42813408888605 299 448.486679473834 299 448.60377024373 299 C 448.777954860106 299 448.86504716829404 299 449.03923178467 299 C 449.213416401046 299 449.30050870923395 299 449.47469332561 299 C 449.64887794198205 299 449.73597025016807 299 449.91015486654 299 C 450.08433948291605 299 450.171431791104 299 450.34561640748 299 C 450.51980102385596 299 450.606893332044 299 450.78107794842 299 C 450.955262564796 299 451.042354872984 299 451.21653948936 299 C 451.390724105736 299 451.477816413924 299 451.6520010303 299 C 451.826185646676 299 451.91327795486404 299 452.08746257124 299 C 452.261647187612 299 452.348739495798 299 452.52292411217 299 C 452.6971087285459 299 452.784201036734 299 452.95838565311 299 C 453.13257026948605 299 453.219662577674 299 453.39384719405 299 C 453.56803181042596 299 453.655124118614 299 453.82930873499 299 C 454.003493351366 299 454.090585659554 299 454.26477027593 299 C 454.438954892302 299 454.52604720048805 299 454.70023181686 299 C 454.874416433236 299 454.96150874142404 299 455.1356933578 299 C 455.366971820656 299 455.48261105208394 299 455.71388951494 299 C 455.888074131316 299 455.97516643950405 299 456.14935105588 299 C 456.323535672252 299 456.41062798043805 299 456.58481259681 299 C 456.75899721318603 299 456.84608952137404 299 457.02027413775 299 C 457.13736490764603 299 457.195910292594 299 457.31300106249 299 C 457.544279525346 299 457.659918756774 299 457.89119721963 299 C 458.00828798952597 299 458.066833374474 299 458.18392414437 299 C 458.415202607222 299 458.5308418386479 299 458.7621203015 299 C 458.87921107139994 299 458.93775645635 299 459.05484722625 299 C 459.22903184262606 299 459.316124150814 299 459.49030876719 299 C 459.72158723004196 299 459.837226461468 299 460.06850492432 299 C 460.242689540696 299 460.32978184888395 275.08 460.50396646526 275.08 C 460.62105723515594 275.08 460.679602620104 299 460.79669339 299 C 461.027971852852 299 461.143611084278 299 461.37488954713 299 C 461.54907416350596 299 461.636166471694 299 461.81035108807 299 C 461.984535704446 299 462.07162801263405 299 462.24581262901 299 C 462.419997245386 299 462.50708955357396 299 462.68127416995 299 C 462.79836493984595 299 462.856910324794 299 462.97400109469 299 C 463.148185711066 299 463.235278019254 299 463.40946263563 299 C 463.64074109848195 299 463.756380329908 299 463.98765879276 299 C 464.10474956266 299 464.16329494761004 299 464.28038571751 299 C 464.45457033388203 299 464.541662642068 299 464.71584725844 299 C 464.947125721296 299 465.06276495272397 275.08 465.29404341558 275.08 C 465.41113418547604 275.08 465.469679570424 299 465.58677034032 299 C 465.76095495669597 299 465.84804726488403 299 466.02223188126 299 C 466.196416497636 299 466.283508805824 299 466.4576934222 299 C 466.631878038572 299 466.71897034675806 299 466.89315496313 299 C 467.124433425986 299 467.24007265741403 299 467.47135112027 299 C 467.64553573664597 299 467.73262804483403 299 467.90681266121 299 C 468.023903431106 299 468.08244881605407 299 468.19953958595 299 C 468.37372420232606 299 468.460816510514 299 468.63500112689 299 C 468.80918574326597 299 468.89627805145403 299 469.07046266783 299 C 469.24464728420196 299 469.33173959238803 299 469.50592420876 299 C 469.680108825136 299 469.76720113332397 299 469.9413857497 299 C 470.115570366076 299 470.20266267426393 299 470.37684729064 299 C 470.551031907016 299 470.63812421520396 299 470.81230883158 299 C 471.04358729443203 299 471.15922652585795 299 471.39050498871 299 C 471.50759575861 299 471.56614114356 299 471.68323191346 299 C 471.857416529832 299 471.944508838018 299 472.11869345439 299 C 472.292878070766 299 472.379970378954 299 472.55415499533 299 C 472.728339611706 299 472.815431919894 299 472.98961653627 299 C 473.163801152646 299 473.25089346083405 299 473.42507807721 299 C 473.599262693586 299 473.68635500177396 299 473.86053961815 299 C 474.09181808100203 299 474.20745731242806 299 474.43873577528 299 C 474.612920391656 299 474.70001269984397 299 474.87419731622 299 C 475.04838193259604 299 475.135474240784 299 475.30965885716 299 C 475.42674962705604 299 475.48529501200403 299 475.6023857819 299 C 475.776570398276 299 475.86366270646397 299 476.03784732284 299 C 476.212031939216 299 476.29912424740394 299 476.47330886378 299 C 476.704587326632 299 476.8202265580579 251.16 477.05150502091 251.16 C 477.225689637286 251.16 477.31278194547394 251.16 477.48696656185 251.16 C 477.661151178226 251.16 477.74824348641397 251.16 477.92242810279 251.16 C 478.09661271916195 251.16 478.18370502734797 251.16 478.35788964372 251.16 C 478.532074260096 251.16 478.61916656828396 251.16 478.79335118466 251.16 C 478.96753580103604 251.16 479.054628109224 251.16 479.2288127256 251.16 C 479.40299734197595 251.16 479.490089650164 251.16 479.66427426654 251.16 C 479.838458882916 251.16 479.92555119110403 251.16 480.09973580748 251.16 C 480.273920423856 251.16 480.36101273204406 251.16 480.53519734842 251.16 C 480.709381964792 251.16 480.79647427297795 251.16 480.97065888935 251.16 C 481.14484350572604 251.16 481.231935813914 251.16 481.40612043029 251.16 C 481.580305046666 251.16 481.6673973548541 251.16 481.84158197123 251.16 C 482.01576658760604 251.16 482.102858895794 251.16 482.27704351217 251.16 C 482.45122812854606 251.16 482.538320436734 251.16 482.71250505311 251.16 C 482.88668966948205 251.16 482.97378197766795 263.6365448507116 483.14796659404 275.08 C 483.26505736393995 282.7725448507116 483.32360274889 299 483.44069351879 299 C 483.61487813516607 299 483.701970443354 299 483.87615505973 299 C 484.050339676102 299 484.137431984288 299 484.31161660066 299 C 484.485801217036 299 484.572893525224 299 484.7470781416 299 C 484.921262757976 299 485.00835506616403 299 485.18253968254 299 C 485.356724298916 299 485.44381660710405 299 485.61800122348 299 C 485.792185839856 299 485.87927814804397 299 486.05346276442 299 C 486.22764738079206 299 486.31473968897797 299 486.48892430535 299 C 486.66310892172606 299 486.750201229914 299 486.92438584629 299 C 487.098570462666 299 487.18566277085404 299 487.35984738723 299 C 487.534032003606 299 487.621124311794 299 487.79530892817 299 C 487.969493544546 299 488.056585852734 299 488.23077046911 299 C 488.404955085486 299 488.49204739367394 299 488.66623201005 299 C 488.84041662642204 299 488.927508934608 299 489.10169355098 299 C 489.2758781673559 299 489.362970475544 299 489.53715509192 299 C 489.71133970829607 299 489.798432016484 299 489.97261663286 299 C 490.146801249236 299 490.23389355742404 299 490.4080781738 299 C 490.582262790176 299 490.669355098364 299 490.84353971474 299 C 491.07481817759196 299 491.190457409018 299 491.42173587187 299 C 491.538826641766 299 491.597372026714 299 491.71446279661 299 C 491.888647412986 299 491.97573972117397 299 492.14992433755 299 C 492.32410895392604 299 492.411201262114 299 492.58538587849 299 C 492.81666434134206 299 492.932303572768 275.08 493.16358203562 275.08 C 493.28067280551994 275.08 493.33921819047 299 493.45630896037 299 C 493.63049357674197 299 493.71758588492804 299 493.8917705013 299 C 494.065955117676 299 494.153047425864 299 494.32723204224 299 C 494.501416658616 299 494.58850896680394 299 494.76269358318 299 C 494.936878199556 299 495.02397050774397 299 495.19815512412 299 C 495.37233974049593 299 495.459432048684 299 495.63361666506 299 C 495.80780128143596 299 495.894893589624 299 496.069078206 299 C 496.243262822372 299 496.330355130558 299 496.50453974693 299 C 496.735818209786 299 496.851457441214 275.08 497.08273590407 275.08 C 497.19982667396596 275.08 497.258372058914 299 497.37546282881 299 C 497.549647445186 299 497.63673975337406 299 497.81092436975 299 C 497.985108986126 299 498.07220129431397 299 498.24638591069 299 C 498.47766437354204 299 498.59330360496796 275.08 498.82458206782 275.08 C 498.94167283771606 275.08 499.000218222664 299 499.11730899256 299 C 499.291493608936 299 499.37858591712404 299 499.5527705335 299 C 499.726955149876 299 499.814047458064 299 499.98823207444 299 C 500.16241669081603 299 500.249508999004 299 500.42369361538 299 C 500.597878231756 299 500.68497053994395 299 500.85915515632 299 C 501.03333977269205 299 501.120432080878 299 501.29461669725 299 C 501.46880131362593 299 501.555893621814 299 501.73007823819 299 C 501.90426285456596 299 501.991355162754 299 502.16553977913 299 C 502.339724395506 299 502.42681670369404 299 502.60100132007 299 C 502.775185936446 299 502.862278244634 299 503.03646286101 299 C 503.210647477382 299 503.29773978556807 299 503.47192440194 299 C 503.646109018316 299 503.73320132650406 299 503.90738594288 299 C 504.138664405736 299 504.25430363716396 299 504.48558210002 299 C 504.659766716396 299 504.74685902458407 299 504.92104364096 299 C 505.095228257332 299 505.18232056551795 299 505.35650518189 299 C 505.53068979826605 299 505.617782106454 299 505.79196672283 299 C 505.966151339206 299 506.05324364739397 299 506.22742826377 299 C 506.401612880146 299 506.488705188334 299 506.66288980471 299 C 506.83707442108596 299 506.924166729274 275.08 507.09835134565 275.08 C 507.272535962022 275.08 507.35962827020796 299 507.53381288658 299 C 507.707997502956 299 507.79508981114395 299 507.96927442752 299 C 508.14345904389603 299 508.230551352084 299 508.40473596846 299 C 508.57892058483594 299 508.666012893024 299 508.8401975094 299 C 509.01438212577597 299 509.101474433964 299 509.27565905034 299 C 509.449843666716 299 509.536935974904 299 509.71112059128 299 C 509.885305207652 299 509.972397515838 299 510.14658213221 299 C 510.320766748586 299 510.40785905677404 299 510.58204367315 299 C 510.756228289526 299 510.84332059771407 275.08 511.01750521409 275.08 C 511.13459598398606 275.08 511.193141368934 299 511.31023213883 299 C 511.54151060168596 299 511.657149833114 275.08 511.88842829597 275.08 C 512.062612912346 275.08 512.149705220534 275.08 512.32388983691 275.08 C 512.498074453282 275.08 512.5851667614679 275.08 512.75935137784 275.08 C 512.933535994216 275.08 513.020628302404 275.08 513.19481291878 275.08 C 513.368997535156 275.08 513.456089843344 275.08 513.63027445972 275.08 C 513.8044590760959 275.08 513.891551384284 275.08 514.06573600066 275.08 C 514.239920617036 275.08 514.3270129252239 299 514.5011975416 299 C 514.6753821579721 299 514.762474466158 299 514.93665908253 299 C 515.1108436989059 299 515.197936007094 299 515.37212062347 299 C 515.546305239846 299 515.633397548034 299 515.80758216441 299 C 515.981766780786 299 516.068859088974 299 516.24304370535 299 C 516.417228321726 299 516.504320629914 299 516.67850524629 299 C 516.852689862666 299 516.9397821708541 299 517.11396678723 299 C 517.288151403602 299 517.375243711788 299 517.54942832816 299 C 517.7236129445361 299 517.8107052527241 299 517.9848898691 299 C 518.159074485476 299 518.246166793664 299 518.42035141004 299 C 518.594536026416 299 518.6816283346039 299 518.85581295098 299 C 519.029997567356 299 519.117089875544 299 519.29127449192 299 C 519.465459108296 299 519.552551416484 299 519.72673603286 299 C 519.9009206492319 299 519.9880129574179 251.16 520.16219757379 251.16 C 520.336382190166 251.16 520.4234744983539 275.08 520.59765911473 275.08 C 520.7718437311061 275.08 520.858936039294 275.08 521.03312065567 275.08 C 521.2073052720459 275.08 521.294397580234 299 521.46858219661 299 C 521.642766812986 299 521.7298591211741 275.08 521.90404373755 275.08 C 522.078228353922 275.08 522.165320662108 299 522.33950527848 299 C 522.513689894856 299 522.600782203044 275.08 522.77496681942 275.08 C 522.949151435796 275.08 523.0362437439841 299 523.21042836036 299 C 523.384612976736 299 523.471705284924 275.08 523.6458899013 275.08 C 523.8200745176761 275.08 523.9071668258641 275.08 524.08135144224 275.08 C 524.255536058616 275.08 524.342628366804 275.08 524.51681298318 275.08 C 524.690997599552 275.08 524.7780899077379 275.08 524.95227452411 275.08 C 525.126459140486 275.08 525.213551448674 275.08 525.38773606505 275.08 C 525.561920681426 275.08 525.649012989614 275.08 525.82319760599 275.08 C 525.9973822223659 275.08 526.084474530554 275.08 526.25865914693 275.08 C 526.432843763306 275.08 526.5199360714939 275.08 526.69412068787 275.08 C 526.8683053042421 275.08 526.955397612428 275.08 527.1295822288 275.08 C 527.3037668451759 275.08 527.390859153364 275.08 527.56504376974 275.08 C 527.739228386116 275.08 527.8263206943041 275.08 528.00050531068 275.08 C 528.174689927056 275.08 528.261782235244 299 528.43596685162 299 C 528.610151467996 299 528.697243776184 299 528.87142839256 299 C 529.045613008936 299 529.1327053171241 299 529.3068899335 299 C 529.481074549872 299 529.568166858058 299 529.74235147443 299 C 529.9165360908061 299 530.0036283989941 299 530.17781301537 299 C 530.351997631746 299 530.439089939934 299 530.61327455631 299 C 530.787459172686 299 530.874551480874 299 531.04873609725 299 C 531.222920713626 299 531.310013021814 299 531.48419763819 299 C 531.658382254566 299 531.745474562754 299 531.91965917913 299 C 532.0938437955019 299 532.1809361036879 299 532.35512072006 299 C 532.529305336436 299 532.6163976446239 299 532.790582261 299 C 532.9647668773761 299 533.051859185564 299 533.22604380194 299 C 533.4002284183159 299 533.487320726504 299 533.66150534288 299 C 533.835689959256 299 533.9227822674441 299 534.09696688382 299 C 534.271151500192 299 534.358243808378 299 534.53242842475 299 C 534.706613041126 299 534.793705349314 299 534.96788996569 299 C 535.142074582066 299 535.2291668902541 299 535.40335150663 299 C 535.5204422765261 299 535.69607843137 299 535.69607843137 299" class="highcharts-graph" data-z-index="1" stroke="#000000" stroke-width="2" stroke-linejoin="round" stroke-linecap="round"></path></g><g data-z-index="0.1" class="highcharts-markers highcharts-series-0 highcharts-spline-series highcharts-color-0 " transform="translate(49,63) scale(1 1)" clip-path="none"></g></g><text x="300" text-anchor="middle" class="highcharts-title" data-z-index="4" style="color:#333333;font-size:18px;fill:#333333;" y="24"><tspan>Number of Facial Zits Over Time</tspan></text><text x="300" text-anchor="middle" class="highcharts-subtitle" data-z-index="4" style="color:#666666;fill:#666666;" y="46"><tspan>This chart shows how your Number of Facial Zits changes over time.</tspan></text><g class="highcharts-axis-labels highcharts-xaxis-labels " data-z-index="7"><text x="76.606963986105" style="color:#666666;cursor:default;font-size:11px;fill:#666666;" text-anchor="middle" transform="translate(0,0)" y="381" opacity="1"><tspan>Jan '16</tspan></text><text x="155.86096443686" style="color:#666666;cursor:default;font-size:11px;fill:#666666;" text-anchor="middle" transform="translate(0,0)" y="381" opacity="1"><tspan>Jul '16</tspan></text><text x="235.98588796949" style="color:#666666;cursor:default;font-size:11px;fill:#666666;" text-anchor="middle" transform="translate(0,0)" y="381" opacity="1"><tspan>Jan '17</tspan></text><text x="314.80442687931" style="color:#666666;cursor:default;font-size:11px;fill:#666666;" text-anchor="middle" transform="translate(0,0)" y="381" opacity="1"><tspan>Jul '17</tspan></text><text x="394.92935041194" style="color:#666666;cursor:default;font-size:11px;fill:#666666;" text-anchor="middle" transform="translate(0,0)" y="381" opacity="1"><tspan>Jan '18</tspan></text><text x="473.74788932176" style="color:#666666;cursor:default;font-size:11px;fill:#666666;" text-anchor="middle" transform="translate(0,0)" y="381" opacity="1"><tspan>Jul '18</tspan></text><text x="553.87281285439" style="color:#666666;cursor:default;font-size:11px;fill:#666666;" text-anchor="middle" transform="translate(0,0)" y="381" opacity="1"><tspan>Jan '19</tspan></text></g><g class="highcharts-axis-labels highcharts-yaxis-labels " data-z-index="7"><text x="34" style="color:#666666;cursor:default;font-size:11px;fill:#666666;" text-anchor="end" transform="translate(0,0)" y="366" opacity="1">0</text><text x="34" style="color:#666666;cursor:default;font-size:11px;fill:#666666;" text-anchor="end" transform="translate(0,0)" y="306" opacity="1">2.5</text><text x="34" style="color:#666666;cursor:default;font-size:11px;fill:#666666;" text-anchor="end" transform="translate(0,0)" y="246" opacity="1">5</text><text x="34" style="color:#666666;cursor:default;font-size:11px;fill:#666666;" text-anchor="end" transform="translate(0,0)" y="186" opacity="1">7.5</text><text x="34" style="color:#666666;cursor:default;font-size:11px;fill:#666666;" text-anchor="end" transform="translate(0,0)" y="126" opacity="1">10</text><text x="34" style="color:#666666;cursor:default;font-size:11px;fill:#666666;" text-anchor="end" transform="translate(0,0)" y="67" opacity="1">12.5</text></g><a xlink:href="https://quantimo.do" target="_blank">
                    <text x="590" class="highcharts-credits" text-anchor="end" data-z-index="8"
                          style="cursor:pointer;color:#999999;font-size:9px;fill:#999999;" y="395">https://quantimo.do
                    </text>
                </a></svg>