<?xml version="1.0" standalone="no"?><!DOCTYPE svg PUBLIC "-//W3C//DTD SVG 1.1//EN" "http://www.w3.org/Graphics/SVG/1.1/DTD/svg11.dtd"><svg xmlns:xlink="http://www.w3.org/1999/xlink" version="1.1" class="highcharts-root" style="font-family:&quot;Lucida Grande&quot;, &quot;Lucida Sans Unicode&quot;, Arial, Helvetica, sans-serif;font-size:12px;" xmlns="http://www.w3.org/2000/svg" width="600" height="400"><desc>Created with Highstock 6.2.0</desc><defs><clipPath id="highcharts-uxcy3wd-80"><rect x="0" y="0" width="537" height="299" fill="none"></rect></clipPath><clipPath id="highcharts-uxcy3wd-154"><rect x="0" y="0" width="537" height="299" fill="none"></rect></clipPath><clipPath id="highcharts-uxcy3wd-155"><rect x="53" y="63" width="537" height="299" fill="none"></rect></clipPath></defs><rect fill="#ffffff" class="highcharts-background" x="0" y="0" width="600" height="400" rx="0" ry="0"></rect><rect fill="none" class="highcharts-plot-background" x="53" y="63" width="537" height="299"></rect><g class="highcharts-pane-group" data-z-index="0"></g><g class="highcharts-grid highcharts-xaxis-grid " data-z-index="1"><path fill="none" data-z-index="1" class="highcharts-grid-line" d="M 80.5 63 L 80.5 362" opacity="1"></path><path fill="none" data-z-index="1" class="highcharts-grid-line" d="M 172.5 63 L 172.5 362" opacity="1"></path><path fill="none" data-z-index="1" class="highcharts-grid-line" d="M 266.5 63 L 266.5 362" opacity="1"></path><path fill="none" data-z-index="1" class="highcharts-grid-line" d="M 359.5 63 L 359.5 362" opacity="1"></path><path fill="none" data-z-index="1" class="highcharts-grid-line" d="M 451.5 63 L 451.5 362" opacity="1"></path><path fill="none" data-z-index="1" class="highcharts-grid-line" d="M 541.5 63 L 541.5 362" opacity="1"></path></g><g class="highcharts-grid highcharts-yaxis-grid " data-z-index="1"><path fill="none" stroke="#e6e6e6" stroke-width="1" data-z-index="1" class="highcharts-grid-line" d="M 53 362.5 L 590 362.5" opacity="1"></path><path fill="none" stroke="#e6e6e6" stroke-width="1" data-z-index="1" class="highcharts-grid-line" d="M 53 312.5 L 590 312.5" opacity="1"></path><path fill="none" stroke="#e6e6e6" stroke-width="1" data-z-index="1" class="highcharts-grid-line" d="M 53 262.5 L 590 262.5" opacity="1"></path><path fill="none" stroke="#e6e6e6" stroke-width="1" data-z-index="1" class="highcharts-grid-line" d="M 53 213.5 L 590 213.5" opacity="1"></path><path fill="none" stroke="#e6e6e6" stroke-width="1" data-z-index="1" class="highcharts-grid-line" d="M 53 163.5 L 590 163.5" opacity="1"></path><path fill="none" stroke="#e6e6e6" stroke-width="1" data-z-index="1" class="highcharts-grid-line" d="M 53 113.5 L 590 113.5" opacity="1"></path><path fill="none" stroke="#e6e6e6" stroke-width="1" data-z-index="1" class="highcharts-grid-line" d="M 53 62.5 L 590 62.5" opacity="1"></path></g><rect fill="none" class="highcharts-plot-border" data-z-index="1" x="53" y="63" width="537" height="299"></rect><g class="highcharts-axis highcharts-xaxis " data-z-index="2"><path fill="none" class="highcharts-tick" stroke="#ccd6eb" stroke-width="1" d="M 80.5 362 L 80.5 372" opacity="1"></path><path fill="none" class="highcharts-tick" stroke="#ccd6eb" stroke-width="1" d="M 172.5 362 L 172.5 372" opacity="1"></path><path fill="none" class="highcharts-tick" stroke="#ccd6eb" stroke-width="1" d="M 266.5 362 L 266.5 372" opacity="1"></path><path fill="none" class="highcharts-tick" stroke="#ccd6eb" stroke-width="1" d="M 359.5 362 L 359.5 372" opacity="1"></path><path fill="none" class="highcharts-tick" stroke="#ccd6eb" stroke-width="1" d="M 451.5 362 L 451.5 372" opacity="1"></path><path fill="none" class="highcharts-tick" stroke="#ccd6eb" stroke-width="1" d="M 541.5 362 L 541.5 372" opacity="1"></path><path fill="none" class="highcharts-axis-line" stroke="#ccd6eb" stroke-width="1" data-z-index="7" d="M 53 362.5 L 590 362.5"></path></g><g class="highcharts-axis highcharts-yaxis " data-z-index="2"><path fill="none" class="highcharts-axis-line" data-z-index="7" d="M 53 63 L 53 362"></path></g><g class="highcharts-series-group" data-z-index="3"><g data-z-index="0.1" class="highcharts-series highcharts-series-0 highcharts-spline-series highcharts-color-0 " transform="translate(53,63) scale(1 1)" clip-path="url(#highcharts-uxcy3wd-154)"><path fill="none" d="M 5.2647058823529 284.05 C 5.2647058823529 284.05 6.17502966604506 275.678 6.7819121885065 259.63166666666666 C 7.38879471096794 243.58533333333332 7.6922359721986595 203.81833333333333 8.2991184946601 203.81833333333333 C 8.90600101712154 203.81833333333333 9.20944227835226 208.30333333333334 9.8163248008137 208.30333333333334 C 11.03008984573662 208.30333333333334 11.63697236819808 208.30333333333334 12.850737413121 205.81166666666667 C 14.064502458043801 203.32 14.6713849805052 186.87499999999997 15.885150025428 180.39666666666665 C 17.098915070350802 173.91833333333332 17.7057975928122 177.672444444444 18.919562637735 173.42000000000002 C 19.5264451601966 171.29377777777734 19.8298864214274 166.74233333333407 20.436768943889 164.45 C 21.0436514663502 162.15766666666738 21.3470927275808 163.35366666666621 21.953975250042 161.95833333333334 C 22.560857772503603 160.56299999999956 22.8642990337344 159.965 23.471181556196 157.47333333333333 C 24.078064078657597 154.98166666666668 24.3815053398884 152.7890000000011 24.98838786235 149.5 C 25.595270384811197 146.2110000000011 25.8987116460418 144.2176666666656 26.505594168503 141.02833333333334 C 27.1124766909646 137.83899999999895 27.4159179521954 133.55333333333334 28.022800474657 133.55333333333334 C 28.6296829971182 133.55333333333334 28.9331242583488 134.54999999999998 29.54000678081 134.54999999999998 C 30.1468893032716 134.54999999999998 30.4503305645024 127.57333333333496 31.057213086964 122.59 C 31.664095609425203 117.6066666666683 31.9675368706558 109.63333333333333 32.574419393117 109.63333333333333 C 33.7881844380402 109.63333333333333 34.3950669605018 110.13166666666666 35.608832005425 110.13166666666666 C 36.2157145278862 110.13166666666666 36.5191557891168 109.13499999999999 37.126038311578 109.13499999999999 C 37.732920834039604 109.13499999999999 38.036362095270405 112.125 38.643244617732 112.125 C 39.25012714019321 112.125 39.553568401423796 109.63333333333333 40.160450923885 109.63333333333333 C 41.9810984912694 109.63333333333333 42.8914222749616 141.52666666666667 44.712069842346 141.52666666666667 C 46.532717409730395 141.52666666666667 47.4430411934226 138.93533333333372 49.263688760807 135.04833333333332 C 49.870571283268205 133.75266666666707 50.1740125444988 129.56666666666666 50.78089506696 128.57 C 51.99466011188319 127.57333333333332 52.601542634344796 128.57 53.815307679268 127.57333333333332 C 55.02907272419079 126.57666666666665 55.6359552466522 118.60333333333332 56.849720291575 118.60333333333332 C 57.456602814036195 118.60333333333332 57.7600440752668 120.59666666666666 58.366926597728 120.59666666666666 C 59.58069164265121 120.59666666666666 60.1875741651128 120.59666666666666 61.401339210036 117.10833333333332 C 62.008221732497205 113.61999999999998 62.31166299372781 106.14499999999998 62.918545516189 106.14499999999998 C 63.5254280386506 106.14499999999998 63.8288692998814 107.63999999999983 64.435751822343 108.13833333333332 C 65.0426343448042 108.6366666666665 65.34607560603479 108.63666666666666 65.952958128496 108.63666666666666 C 66.5598406509576 108.63666666666666 66.8632819121884 103.155 67.47016443465 103.155 C 68.0770469571116 103.155 68.38048821834239 103.155 68.987370740804 103.155 C 69.59425326326519 103.155 69.89769452449579 105.64666666666665 70.504577046957 105.64666666666665 C 71.1114595694186 105.64666666666665 71.4149008306494 103.15500000000114 72.021783353111 99.66666666666666 C 72.62866587557221 96.17833333333448 72.9321071368028 88.20499999999998 73.538989659264 88.20499999999998 C 74.1458721817256 88.20499999999998 74.4493134429564 88.20499999999998 75.056195965418 88.20499999999998 C 75.66307848787919 88.20499999999998 75.96651974910979 88.20499999999998 76.573402271571 82.72333333333333 C 77.1802847940326 77.24166666666667 77.4837260552634 66.67699999999999 78.090608577725 60.29833333333332 C 78.69749110018661 53.91966666666666 79.0009323614174 52.32499999999999 79.607814883879 50.829999999999984 C 82.0353449737246 49.33499999999998 83.2491100186474 49.33499999999998 85.676640108493 49.33499999999998 C 86.2835226309546 49.33499999999998 86.5869638921854 49.33499999999998 87.193846414647 49.33499999999998 C 88.40761145956981 49.33499999999998 89.01449398203121 45.34833333333333 90.228259026954 45.34833333333333 C 92.048906594338 45.34833333333333 92.95923037803 46.843333333333334 94.779877945414 47.34166666666667 C 96.6005255127984 47.84 97.51084929649059 47.84 99.331496863875 47.84 C 99.938379386337 47.84 100.241820647568 47.84 100.84870317003 46.843333333333334 C 101.45558569248999 45.846666666666664 101.75902695372 37.873333333333335 102.36590947618 37.873333333333335 C 103.579674521104 37.873333333333335 104.186557043566 43.853333333333325 105.40032208849 43.853333333333325 C 107.827852178334 43.853333333333325 109.041617223256 39.36833333333334 111.4691473131 39.36833333333334 C 112.07602983556399 39.36833333333334 112.37947109679598 40.36500000000001 112.98635361926 40.36500000000001 C 113.59323614171998 40.36500000000001 113.89667740294999 36.876666666666665 114.50355992541 36.37833333333333 C 115.11044244786999 35.879999999999995 115.41388370909999 36.0793333333329 116.02076623156 35.879999999999995 C 120.875826411252 34.28533333333289 123.30335650109801 34.01955555555456 128.15841668079 31.893333333333317 C 128.76529920325402 31.627555555554558 129.068740464486 30.398333333334946 129.67562298695 29.899999999999977 C 130.28250550941002 29.401666666668277 130.58594677064002 29.66744444444383 131.1928292931 29.401666666666642 C 134.227241905408 28.07277777777716 135.74444821156197 27.90666666666749 138.77886082387 25.9133333333333 C 139.38574334633 25.514666666667505 139.68918460755998 24.31866666666373 140.29606713002 23.42166666666668 C 140.90294965248398 22.524666666663748 141.206390913716 21.42833333333334 141.81327343618 21.42833333333334 C 142.42015595864 21.42833333333334 142.72359721987 21.42833333333334 143.33047974233 22.923333333333346 C 143.93736226479 24.41833333333335 144.24080352602 55.81333333333333 144.84768604848 55.81333333333333 C 145.454568570944 55.81333333333333 145.75800983217601 48.83666666666667 146.36489235464 46.843333333333334 C 148.792422444484 44.849999999999994 150.006187489406 46.843333333333334 152.43371757925 44.849999999999994 C 155.46813019155798 42.856666666666655 156.98533649771198 32.889999999999986 160.01974911002 30.896666666666647 C 162.447279199864 28.903333333333308 163.66104424478598 30.139199999999168 166.08857433463 28.903333333333308 C 175.79869469401402 23.95986666666584 180.65375487370602 15.448333333333323 190.36387523309 15.448333333333323 C 190.97075775554998 15.448333333333323 191.27419901678 17.242333333335615 191.88108153924 17.939999999999998 C 192.487964061704 18.637666666668952 192.791405322936 18.438333333331677 193.3982878454 18.936666666666667 C 194.00517036786 19.434999999998347 194.30861162909 19.833666666666655 194.91549415155 20.431666666666672 C 195.52237667401 21.02966666666666 195.82581793524 21.528000000001313 196.4327004577 21.926666666666677 C 197.039582980164 22.32533333333465 197.343024241396 22.42500000000001 197.94990676386 22.42500000000001 C 198.55678928632 22.42500000000001 198.86023054755 18.438333333333333 199.46711307001 18.438333333333333 C 201.894643159858 18.438333333333333 203.108408204782 19.420234567901222 205.53593829463 19.435000000000002 C 334.195033056454 20.217567901234556 398.524580437366 20.431666666666672 527.18367519919 20.431666666666672 C 529.004322766574 20.431666666666672 531.73529411765 20.431666666666672 531.73529411765 20.431666666666672" class="highcharts-graph" data-z-index="1" stroke="#000000" stroke-width="2" stroke-linejoin="round" stroke-linecap="round"></path></g><g data-z-index="0.1" class="highcharts-markers highcharts-series-0 highcharts-spline-series highcharts-color-0 " transform="translate(53,63) scale(1 1)" clip-path="none"></g></g><text x="300" text-anchor="middle" class="highcharts-title" data-z-index="4" style="color:#333333;font-size:18px;fill:#333333;" y="24"><tspan>Brain Performance Index From Lumosity BPI Over Time</tspan></text><text x="300" text-anchor="middle" class="highcharts-subtitle" data-z-index="4" style="color:#666666;fill:#666666;" y="46"><tspan>This chart shows how your Brain Performance Index From Lumosity BPI changes over time.</tspan></text><g class="highcharts-axis-labels highcharts-xaxis-labels " data-z-index="7"><text x="83.580281968695" style="color:#666666;cursor:default;font-size:11px;fill:#666666;" text-anchor="middle" transform="translate(0,0)" y="381" opacity="1"><tspan>May '12</tspan></text><text x="176.12986664406" style="color:#666666;cursor:default;font-size:11px;fill:#666666;" text-anchor="middle" transform="translate(0,0)" y="381" opacity="1"><tspan>Jul '12</tspan></text><text x="270.19665762559" style="color:#666666;cursor:default;font-size:11px;fill:#666666;" text-anchor="middle" transform="translate(0,0)" y="381" opacity="1"><tspan>Sep '12</tspan></text><text x="362.74624230095" style="color:#666666;cursor:default;font-size:11px;fill:#666666;" text-anchor="middle" transform="translate(0,0)" y="381" opacity="1"><tspan>Nov '12</tspan></text><text x="455.29582697632" style="color:#666666;cursor:default;font-size:11px;fill:#666666;" text-anchor="middle" transform="translate(0,0)" y="381" opacity="1"><tspan>Jan '13</tspan></text><text x="544.81099903939" style="color:#666666;cursor:default;font-size:11px;fill:#666666;" text-anchor="middle" transform="translate(0,0)" y="381" opacity="1"><tspan>Mar '13</tspan></text></g><g class="highcharts-axis-labels highcharts-yaxis-labels " data-z-index="7"><text x="38" style="color:#666666;cursor:default;font-size:11px;fill:#666666;" text-anchor="end" transform="translate(0,0)" y="366" opacity="1">600</text><text x="38" style="color:#666666;cursor:default;font-size:11px;fill:#666666;" text-anchor="end" transform="translate(0,0)" y="316" opacity="1">700</text><text x="38" style="color:#666666;cursor:default;font-size:11px;fill:#666666;" text-anchor="end" transform="translate(0,0)" y="266" opacity="1">800</text><text x="38" style="color:#666666;cursor:default;font-size:11px;fill:#666666;" text-anchor="end" transform="translate(0,0)" y="216" opacity="1">900</text><text x="38" style="color:#666666;cursor:default;font-size:11px;fill:#666666;" text-anchor="end" transform="translate(0,0)" y="166" opacity="1">1000</text><text x="38" style="color:#666666;cursor:default;font-size:11px;fill:#666666;" text-anchor="end" transform="translate(0,0)" y="116" opacity="1">1100</text><text x="38" style="color:#666666;cursor:default;font-size:11px;fill:#666666;" text-anchor="end" transform="translate(0,0)" y="67" opacity="1">1200</text></g><a xlink:href="https://quantimo.do" target="_blank">
                    <text x="590" class="highcharts-credits" text-anchor="end" data-z-index="8"
                          style="cursor:pointer;color:#999999;font-size:9px;fill:#999999;" y="395">https://quantimo.do
                    </text>
                </a></svg>