<?xml version="1.0" standalone="no"?><!DOCTYPE svg PUBLIC "-//W3C//DTD SVG 1.1//EN" "http://www.w3.org/Graphics/SVG/1.1/DTD/svg11.dtd"><svg xmlns:xlink="http://www.w3.org/1999/xlink" version="1.1" class="highcharts-root" style="font-family:&quot;Lucida Grande&quot;, &quot;Lucida Sans Unicode&quot;, Arial, Helvetica, sans-serif;font-size:12px;" xmlns="http://www.w3.org/2000/svg" width="600" height="400"><desc>Created with Highstock 6.2.0</desc><defs><clipPath id="highcharts-3aff6qg-74"><rect x="0" y="0" width="541" height="299" fill="none"></rect></clipPath><clipPath id="highcharts-3aff6qg-142"><rect x="0" y="0" width="541" height="299" fill="none"></rect></clipPath><clipPath id="highcharts-3aff6qg-143"><rect x="49" y="63" width="541" height="299" fill="none"></rect></clipPath></defs><rect fill="#ffffff" class="highcharts-background" x="0" y="0" width="600" height="400" rx="0" ry="0"></rect><rect fill="none" class="highcharts-plot-background" x="49" y="63" width="541" height="299"></rect><g class="highcharts-pane-group" data-z-index="0"></g><g class="highcharts-grid highcharts-xaxis-grid " data-z-index="1"><path fill="none" data-z-index="1" class="highcharts-grid-line" d="M 124.5 63 L 124.5 362" opacity="1"></path><path fill="none" data-z-index="1" class="highcharts-grid-line" d="M 236.5 63 L 236.5 362" opacity="1"></path><path fill="none" data-z-index="1" class="highcharts-grid-line" d="M 349.5 63 L 349.5 362" opacity="1"></path><path fill="none" data-z-index="1" class="highcharts-grid-line" d="M 461.5 63 L 461.5 362" opacity="1"></path><path fill="none" data-z-index="1" class="highcharts-grid-line" d="M 574.5 63 L 574.5 362" opacity="1"></path></g><g class="highcharts-grid highcharts-yaxis-grid " data-z-index="1"><path fill="none" stroke="#e6e6e6" stroke-width="1" data-z-index="1" class="highcharts-grid-line" d="M 49 362.5 L 590 362.5" opacity="1"></path><path fill="none" stroke="#e6e6e6" stroke-width="1" data-z-index="1" class="highcharts-grid-line" d="M 49 302.5 L 590 302.5" opacity="1"></path><path fill="none" stroke="#e6e6e6" stroke-width="1" data-z-index="1" class="highcharts-grid-line" d="M 49 242.5 L 590 242.5" opacity="1"></path><path fill="none" stroke="#e6e6e6" stroke-width="1" data-z-index="1" class="highcharts-grid-line" d="M 49 183.5 L 590 183.5" opacity="1"></path><path fill="none" stroke="#e6e6e6" stroke-width="1" data-z-index="1" class="highcharts-grid-line" d="M 49 123.5 L 590 123.5" opacity="1"></path><path fill="none" stroke="#e6e6e6" stroke-width="1" data-z-index="1" class="highcharts-grid-line" d="M 49 62.5 L 590 62.5" opacity="1"></path></g><rect fill="none" class="highcharts-plot-border" data-z-index="1" x="49" y="63" width="541" height="299"></rect><g class="highcharts-axis highcharts-xaxis " data-z-index="2"><path fill="none" class="highcharts-tick" stroke="#ccd6eb" stroke-width="1" d="M 124.5 362 L 124.5 372" opacity="1"></path><path fill="none" class="highcharts-tick" stroke="#ccd6eb" stroke-width="1" d="M 236.5 362 L 236.5 372" opacity="1"></path><path fill="none" class="highcharts-tick" stroke="#ccd6eb" stroke-width="1" d="M 349.5 362 L 349.5 372" opacity="1"></path><path fill="none" class="highcharts-tick" stroke="#ccd6eb" stroke-width="1" d="M 461.5 362 L 461.5 372" opacity="1"></path><path fill="none" class="highcharts-tick" stroke="#ccd6eb" stroke-width="1" d="M 574.5 362 L 574.5 372" opacity="1"></path><path fill="none" class="highcharts-axis-line" stroke="#ccd6eb" stroke-width="1" data-z-index="7" d="M 49 362.5 L 590 362.5"></path></g><g class="highcharts-axis highcharts-yaxis " data-z-index="2"><path fill="none" class="highcharts-axis-line" data-z-index="7" d="M 49 63 L 49 362"></path></g><g class="highcharts-series-group" data-z-index="3"><g data-z-index="0.1" class="highcharts-series highcharts-series-0 highcharts-spline-series highcharts-color-0 " transform="translate(49,63) scale(1 1)" clip-path="url(#highcharts-3aff6qg-142)"><path fill="none" d="M 5.3039215686275 299 C 5.3039215686275 299 10.1256684491978 299 13.340166369578 299 C 16.554664289958403 299 18.1619132501486 299 21.376411170529 299 C 24.590909090909 299 26.198158051099 299 29.412655971479 299 C 32.62715389185941 299 34.2344028520496 299 37.44890077243 299 C 40.663398692810404 299 42.270647653000594 299 45.485145573381 299 C 48.6996434937614 299 50.306892453951605 299 53.521390374332 299 C 56.735888294712005 299 58.343137254902004 299 61.557635175282 299 C 64.7721330956624 299 66.3793820558526 299 69.593879976233 299 C 72.8083778966134 299 74.4156268568036 299 77.630124777184 299 C 80.844622697564 299 82.451871657754 299 85.666369578134 299 C 88.8808674985144 299 90.4881164587046 299 93.702614379085 299 C 96.917112299467 299 98.52436125965801 299 101.73885918004 299 C 104.95335710041999 299 106.56060606060998 299 109.77510398099 299 C 112.98960190137 299 114.59685086156 299 117.81134878194 299 C 121.02584670232 299 122.63309566251 299 125.84759358289 299 C 129.06209150326998 299 130.66934046346 299 133.88383838384 299 C 137.09833630422 299 138.70558526441 299 141.92008318479 299 C 145.13458110516999 299 146.74183006536 299 149.95632798574 299 C 153.17082590612 299 154.77807486631 299 157.99257278669 299 C 161.20707070707 299 162.81431966726 299 166.02881758764 299 C 169.24331550801998 299 170.85056446821 299 174.06506238859 299 C 177.27956030897 299 178.88680926915998 299 182.10130718954 299 C 185.31580510992 299 186.92305407011 299 190.13755199049 299 C 193.35204991087 299 194.95929887105999 299 198.17379679144 299 C 201.38829471181998 299 202.99554367201 299 206.21004159239 299 C 209.42453951277403 299 211.03178847296599 299 214.24628639335 299 C 217.46078431373 299 219.06803327391998 299 222.2825311943 299 C 225.49702911468003 299 227.10427807487 299 230.31877599525 299 C 233.53327391563 299 235.14052287581998 299 238.3550207962 299 C 241.56951871657998 299 243.17676767677003 299 246.39126559715 299 C 249.60576351753002 299 251.21301247771999 59.80000000000001 254.4275103981 59.80000000000001 C 257.64200831848 59.80000000000001 259.24925727867003 59.80000000000001 262.46375519905 59.80000000000001 C 265.67825311943 59.80000000000001 267.28550207961996 59.80000000000001 270.5 59.80000000000001 C 273.71449792038004 59.80000000000001 275.32174688057 59.80000000000001 278.53624480095 59.80000000000001 C 281.75074272132997 59.80000000000001 283.35799168152 59.80000000000001 286.5724896019 59.80000000000001 C 289.78698752228 59.80000000000001 291.39423648247003 59.80000000000001 294.60873440285 59.80000000000001 C 297.82323232323 59.80000000000001 299.43048128342 59.80000000000001 302.6449792038 59.80000000000001 C 305.85947712418 59.80000000000001 307.46672608437 59.80000000000001 310.68122400475 59.80000000000001 C 313.89572192513 59.80000000000001 315.50297088532 59.80000000000001 318.7174688057 59.80000000000001 C 321.93196672608 59.80000000000001 323.53921568627004 59.80000000000001 326.75371360665 59.80000000000001 C 329.968211527034 59.80000000000001 331.575460487226 59.80000000000001 334.78995840761 59.80000000000001 C 338.00445632799 59.80000000000001 339.61170528818 59.80000000000001 342.82620320856 59.80000000000001 C 346.04070112894 59.80000000000001 347.64795008912995 59.80000000000001 350.86244800951 59.80000000000001 C 354.07694592989003 59.80000000000001 355.68419489008 59.80000000000001 358.89869281046 59.80000000000001 C 362.11319073083996 59.80000000000001 363.72043969103 59.80000000000001 366.93493761141 59.80000000000001 C 370.14943553179 59.80000000000001 371.75668449198 59.80000000000001 374.97118241236 59.80000000000001 C 378.18568033273993 59.80000000000001 379.79292929293 59.80000000000001 383.00742721331 59.80000000000001 C 386.22192513369 59.80000000000001 387.82917409388 59.80000000000001 391.04367201426 59.80000000000001 C 394.25816993464 59.80000000000001 395.86541889483 59.80000000000001 399.07991681521 59.80000000000001 C 402.29441473559 59.80000000000001 403.90166369578003 59.80000000000001 407.11616161616 59.80000000000001 C 410.33065953654005 59.80000000000001 411.9379084967301 299 415.15240641711 299 C 418.36690433749 299 419.97415329768 59.80000000000001 423.18865121806 59.80000000000001 C 426.40314913843997 59.80000000000001 428.01039809862993 299 431.22489601901 299 C 434.43939393939 299 436.04664289958 299 439.26114081996 299 C 442.47563874034404 299 444.08288770053605 59.80000000000001 447.29738562092 59.80000000000001 C 450.5118835413 59.80000000000001 452.11913250149 59.80000000000001 455.33363042187 59.80000000000001 C 458.5481283422499 59.80000000000001 460.15537730243994 59.80000000000001 463.36987522282 59.80000000000001 C 466.58437314319997 59.80000000000001 468.19162210339 299 471.40612002377 299 C 474.62061794415 299 476.22786690434003 299 479.44236482472 299 C 482.6568627451 299 484.26411170529 299 487.47860962567 299 C 490.69310754604993 299 492.30035650624006 299 495.51485442662 299 C 498.729352347 299 500.33660130719 299 503.55109922757 299 C 506.76559714795 299 508.37284610814004 299 511.58734402852 299 C 514.8018419489001 299 516.40909090909 299 519.62358882947 299 C 522.83808674985 299 524.44533571004 299 527.65983363042 299 C 530.8743315508 299 535.69607843137 299 535.69607843137 299" class="highcharts-graph" data-z-index="1" stroke="#000000" stroke-width="2" stroke-linejoin="round" stroke-linecap="round"></path></g><g data-z-index="0.1" class="highcharts-markers highcharts-series-0 highcharts-spline-series highcharts-color-0 " transform="translate(49,63) scale(1 1)" clip-path="none"><path fill="#000000" d="M 9 299 A 4 4 0 1 1 8.999998000000167 298.99600000066664 Z" class="highcharts-point highcharts-color-0"></path><path fill="#000000" d="M 17 299 A 4 4 0 1 1 16.99999800000017 298.99600000066664 Z" class="highcharts-point highcharts-color-0"></path><path fill="#000000" d="M 25 299 A 4 4 0 1 1 24.99999800000017 298.99600000066664 Z" class="highcharts-point highcharts-color-0"></path><path fill="#000000" d="M 33 299 A 4 4 0 1 1 32.99999800000017 298.99600000066664 Z" class="highcharts-point highcharts-color-0"></path><path fill="#000000" d="M 41 299 A 4 4 0 1 1 40.99999800000017 298.99600000066664 Z" class="highcharts-point highcharts-color-0"></path><path fill="#000000" d="M 49 299 A 4 4 0 1 1 48.99999800000017 298.99600000066664 Z" class="highcharts-point highcharts-color-0"></path><path fill="#000000" d="M 57 299 A 4 4 0 1 1 56.99999800000017 298.99600000066664 Z" class="highcharts-point highcharts-color-0"></path><path fill="#000000" d="M 65 299 A 4 4 0 1 1 64.99999800000016 298.99600000066664 Z" class="highcharts-point highcharts-color-0"></path><path fill="#000000" d="M 73 299 A 4 4 0 1 1 72.99999800000016 298.99600000066664 Z" class="highcharts-point highcharts-color-0"></path><path fill="#000000" d="M 81 299 A 4 4 0 1 1 80.99999800000016 298.99600000066664 Z" class="highcharts-point highcharts-color-0"></path><path fill="#000000" d="M 89 299 A 4 4 0 1 1 88.99999800000016 298.99600000066664 Z" class="highcharts-point highcharts-color-0"></path><path fill="#000000" d="M 97 299 A 4 4 0 1 1 96.99999800000016 298.99600000066664 Z" class="highcharts-point highcharts-color-0"></path><path fill="#000000" d="M 105 299 A 4 4 0 1 1 104.99999800000016 298.99600000066664 Z" class="highcharts-point highcharts-color-0"></path><path fill="#000000" d="M 113 299 A 4 4 0 1 1 112.99999800000016 298.99600000066664 Z" class="highcharts-point highcharts-color-0"></path><path fill="#000000" d="M 121 299 A 4 4 0 1 1 120.99999800000016 298.99600000066664 Z" class="highcharts-point highcharts-color-0"></path><path fill="#000000" d="M 129 299 A 4 4 0 1 1 128.99999800000018 298.99600000066664 Z" class="highcharts-point highcharts-color-0"></path><path fill="#000000" d="M 137 299 A 4 4 0 1 1 136.99999800000018 298.99600000066664 Z" class="highcharts-point highcharts-color-0"></path><path fill="#000000" d="M 145 299 A 4 4 0 1 1 144.99999800000018 298.99600000066664 Z" class="highcharts-point highcharts-color-0"></path><path fill="#000000" d="M 153 299 A 4 4 0 1 1 152.99999800000018 298.99600000066664 Z" class="highcharts-point highcharts-color-0"></path><path fill="#000000" d="M 161 299 A 4 4 0 1 1 160.99999800000018 298.99600000066664 Z" class="highcharts-point highcharts-color-0"></path><path fill="#000000" d="M 170 299 A 4 4 0 1 1 169.99999800000018 298.99600000066664 Z" class="highcharts-point highcharts-color-0"></path><path fill="#000000" d="M 178 299 A 4 4 0 1 1 177.99999800000018 298.99600000066664 Z" class="highcharts-point highcharts-color-0"></path><path fill="#000000" d="M 186 299 A 4 4 0 1 1 185.99999800000018 298.99600000066664 Z" class="highcharts-point highcharts-color-0"></path><path fill="#000000" d="M 194 299 A 4 4 0 1 1 193.99999800000018 298.99600000066664 Z" class="highcharts-point highcharts-color-0"></path><path fill="#000000" d="M 202 299 A 4 4 0 1 1 201.99999800000018 298.99600000066664 Z" class="highcharts-point highcharts-color-0"></path><path fill="#000000" d="M 210 299 A 4 4 0 1 1 209.99999800000018 298.99600000066664 Z" class="highcharts-point highcharts-color-0"></path><path fill="#000000" d="M 218 299 A 4 4 0 1 1 217.99999800000018 298.99600000066664 Z" class="highcharts-point highcharts-color-0"></path><path fill="#000000" d="M 226 299 A 4 4 0 1 1 225.99999800000018 298.99600000066664 Z" class="highcharts-point highcharts-color-0"></path><path fill="#000000" d="M 234 299 A 4 4 0 1 1 233.99999800000018 298.99600000066664 Z" class="highcharts-point highcharts-color-0"></path><path fill="#000000" d="M 242 299 A 4 4 0 1 1 241.99999800000018 298.99600000066664 Z" class="highcharts-point highcharts-color-0"></path><path fill="#000000" d="M 250 299 A 4 4 0 1 1 249.99999800000018 298.99600000066664 Z" class="highcharts-point highcharts-color-0"></path><path fill="#000000" d="M 258 60 A 4 4 0 1 1 257.9999980000002 59.99600000066666 Z" class="highcharts-point highcharts-color-0"></path><path fill="#000000" d="M 266 60 A 4 4 0 1 1 265.9999980000002 59.99600000066666 Z" class="highcharts-point highcharts-color-0"></path><path fill="#000000" d="M 274 60 A 4 4 0 1 1 273.9999980000002 59.99600000066666 Z" class="highcharts-point highcharts-color-0"></path><path fill="#000000" d="M 282 60 A 4 4 0 1 1 281.9999980000002 59.99600000066666 Z" class="highcharts-point highcharts-color-0"></path><path fill="#000000" d="M 290 60 A 4 4 0 1 1 289.9999980000002 59.99600000066666 Z" class="highcharts-point highcharts-color-0"></path><path fill="#000000" d="M 298 60 A 4 4 0 1 1 297.9999980000002 59.99600000066666 Z" class="highcharts-point highcharts-color-0"></path><path fill="#000000" d="M 306 60 A 4 4 0 1 1 305.9999980000002 59.99600000066666 Z" class="highcharts-point highcharts-color-0"></path><path fill="#000000" d="M 314 60 A 4 4 0 1 1 313.9999980000002 59.99600000066666 Z" class="highcharts-point highcharts-color-0"></path><path fill="#000000" d="M 322 60 A 4 4 0 1 1 321.9999980000002 59.99600000066666 Z" class="highcharts-point highcharts-color-0"></path><path fill="#000000" d="M 330 60 A 4 4 0 1 1 329.9999980000002 59.99600000066666 Z" class="highcharts-point highcharts-color-0"></path><path fill="#000000" d="M 338 60 A 4 4 0 1 1 337.9999980000002 59.99600000066666 Z" class="highcharts-point highcharts-color-0"></path><path fill="#000000" d="M 346 60 A 4 4 0 1 1 345.9999980000002 59.99600000066666 Z" class="highcharts-point highcharts-color-0"></path><path fill="#000000" d="M 354 60 A 4 4 0 1 1 353.9999980000002 59.99600000066666 Z" class="highcharts-point highcharts-color-0"></path><path fill="#000000" d="M 362 60 A 4 4 0 1 1 361.9999980000002 59.99600000066666 Z" class="highcharts-point highcharts-color-0"></path><path fill="#000000" d="M 370 60 A 4 4 0 1 1 369.9999980000002 59.99600000066666 Z" class="highcharts-point highcharts-color-0"></path><path fill="#000000" d="M 378 60 A 4 4 0 1 1 377.9999980000002 59.99600000066666 Z" class="highcharts-point highcharts-color-0"></path><path fill="#000000" d="M 387 60 A 4 4 0 1 1 386.9999980000002 59.99600000066666 Z" class="highcharts-point highcharts-color-0"></path><path fill="#000000" d="M 395 60 A 4 4 0 1 1 394.9999980000002 59.99600000066666 Z" class="highcharts-point highcharts-color-0"></path><path fill="#000000" d="M 403 60 A 4 4 0 1 1 402.9999980000002 59.99600000066666 Z" class="highcharts-point highcharts-color-0"></path><path fill="#000000" d="M 411 60 A 4 4 0 1 1 410.9999980000002 59.99600000066666 Z" class="highcharts-point highcharts-color-0"></path><path fill="#000000" d="M 419 299 A 4 4 0 1 1 418.9999980000002 298.99600000066664 Z" class="highcharts-point highcharts-color-0"></path><path fill="#000000" d="M 427 60 A 4 4 0 1 1 426.9999980000002 59.99600000066666 Z" class="highcharts-point highcharts-color-0"></path><path fill="#000000" d="M 435 299 A 4 4 0 1 1 434.9999980000002 298.99600000066664 Z" class="highcharts-point highcharts-color-0"></path><path fill="#000000" d="M 443 299 A 4 4 0 1 1 442.9999980000002 298.99600000066664 Z" class="highcharts-point highcharts-color-0"></path><path fill="#000000" d="M 451 60 A 4 4 0 1 1 450.9999980000002 59.99600000066666 Z" class="highcharts-point highcharts-color-0"></path><path fill="#000000" d="M 459 60 A 4 4 0 1 1 458.9999980000002 59.99600000066666 Z" class="highcharts-point highcharts-color-0"></path><path fill="#000000" d="M 467 60 A 4 4 0 1 1 466.9999980000002 59.99600000066666 Z" class="highcharts-point highcharts-color-0"></path><path fill="#000000" d="M 475 299 A 4 4 0 1 1 474.9999980000002 298.99600000066664 Z" class="highcharts-point highcharts-color-0"></path><path fill="#000000" d="M 483 299 A 4 4 0 1 1 482.9999980000002 298.99600000066664 Z" class="highcharts-point highcharts-color-0"></path><path fill="#000000" d="M 491 299 A 4 4 0 1 1 490.9999980000002 298.99600000066664 Z" class="highcharts-point highcharts-color-0"></path><path fill="#000000" d="M 499 299 A 4 4 0 1 1 498.9999980000002 298.99600000066664 Z" class="highcharts-point highcharts-color-0"></path><path fill="#000000" d="M 507 299 A 4 4 0 1 1 506.9999980000002 298.99600000066664 Z" class="highcharts-point highcharts-color-0"></path><path fill="#000000" d="M 515 299 A 4 4 0 1 1 514.9999980000001 298.99600000066664 Z" class="highcharts-point highcharts-color-0"></path><path fill="#000000" d="M 523 299 A 4 4 0 1 1 522.9999980000001 298.99600000066664 Z" class="highcharts-point highcharts-color-0"></path><path fill="#000000" d="M 531 299 A 4 4 0 1 1 530.9999980000001 298.99600000066664 Z" class="highcharts-point highcharts-color-0"></path><path fill="#000000" d="M 539 299 A 4 4 0 1 1 538.9999980000001 298.99600000066664 Z" class="highcharts-point highcharts-color-0"></path></g></g><text x="300" text-anchor="middle" class="highcharts-title" data-z-index="4" style="color:#333333;font-size:18px;fill:#333333;" y="24"><tspan>Opti-Men Multivitamin Over Time</tspan></text><text x="300" text-anchor="middle" class="highcharts-subtitle" data-z-index="4" style="color:#666666;fill:#666666;" y="46"><tspan>This chart shows how your Opti-men Multivitamin changes over time.</tspan></text><g class="highcharts-axis-labels highcharts-xaxis-labels " data-z-index="7"><text x="127.62106357695" style="color:#666666;cursor:default;font-size:11px;fill:#666666;" text-anchor="middle" transform="translate(0,0)" y="381" opacity="1"><tspan>4. Mar</tspan></text><text x="240.12849079026" style="color:#666666;cursor:default;font-size:11px;fill:#666666;" text-anchor="middle" transform="translate(0,0)" y="381" opacity="1"><tspan>18. Mar</tspan></text><text x="352.63591800357" style="color:#666666;cursor:default;font-size:11px;fill:#666666;" text-anchor="middle" transform="translate(0,0)" y="381" opacity="1"><tspan>1. Apr</tspan></text><text x="465.14334521687" style="color:#666666;cursor:default;font-size:11px;fill:#666666;" text-anchor="middle" transform="translate(0,0)" y="381" opacity="1"><tspan>15. Apr</tspan></text><text x="570" style="color:#666666;cursor:default;font-size:11px;fill:#666666;" text-anchor="middle" transform="translate(0,0)" y="381" opacity="1"><tspan>29. Apr</tspan></text></g><g class="highcharts-axis-labels highcharts-yaxis-labels " data-z-index="7"><text x="34" style="color:#666666;cursor:default;font-size:11px;fill:#666666;" text-anchor="end" transform="translate(0,0)" y="366" opacity="1">0</text><text x="34" style="color:#666666;cursor:default;font-size:11px;fill:#666666;" text-anchor="end" transform="translate(0,0)" y="306" opacity="1">0.25</text><text x="34" style="color:#666666;cursor:default;font-size:11px;fill:#666666;" text-anchor="end" transform="translate(0,0)" y="246" opacity="1">0.5</text><text x="34" style="color:#666666;cursor:default;font-size:11px;fill:#666666;" text-anchor="end" transform="translate(0,0)" y="186" opacity="1">0.75</text><text x="34" style="color:#666666;cursor:default;font-size:11px;fill:#666666;" text-anchor="end" transform="translate(0,0)" y="126" opacity="1">1</text><text x="34" style="color:#666666;cursor:default;font-size:11px;fill:#666666;" text-anchor="end" transform="translate(0,0)" y="67" opacity="1">1.25</text></g><a xlink:href="https://quantimo.do" target="_blank">
                    <text x="590" class="highcharts-credits" text-anchor="end" data-z-index="8"
                          style="cursor:pointer;color:#999999;font-size:9px;fill:#999999;" y="395">https://quantimo.do
                    </text>
                </a></svg>