<?xml version="1.0" standalone="no"?><!DOCTYPE svg PUBLIC "-//W3C//DTD SVG 1.1//EN" "http://www.w3.org/Graphics/SVG/1.1/DTD/svg11.dtd"><svg xmlns:xlink="http://www.w3.org/1999/xlink" version="1.1" class="highcharts-root" style="font-family:&quot;Lucida Grande&quot;, &quot;Lucida Sans Unicode&quot;, Arial, Helvetica, sans-serif;font-size:12px;" xmlns="http://www.w3.org/2000/svg" width="600" height="300"><desc>Created with Highstock 6.2.0</desc><defs><clipPath id="highcharts-cmgcehi-31"><rect x="0" y="0" width="518" height="165" fill="none"></rect></clipPath><clipPath id="highcharts-cmgcehi-56"><rect x="0" y="0" width="518" height="165" fill="none"></rect></clipPath><clipPath id="highcharts-cmgcehi-57"><rect x="72" y="63" width="518" height="165" fill="none"></rect></clipPath></defs><rect fill="#ffffff" class="highcharts-background" x="0" y="0" width="600" height="300" rx="0" ry="0"></rect><rect fill="none" class="highcharts-plot-background" x="72" y="63" width="518" height="165"></rect><g class="highcharts-pane-group" data-z-index="0"></g><g class="highcharts-grid highcharts-xaxis-grid " data-z-index="1"><path fill="none" data-z-index="1" class="highcharts-grid-line" d="M 93.5 63 L 93.5 228" opacity="1"></path><path fill="none" data-z-index="1" class="highcharts-grid-line" d="M 114.5 63 L 114.5 228" opacity="1"></path><path fill="none" data-z-index="1" class="highcharts-grid-line" d="M 136.5 63 L 136.5 228" opacity="1"></path><path fill="none" data-z-index="1" class="highcharts-grid-line" d="M 157.5 63 L 157.5 228" opacity="1"></path><path fill="none" data-z-index="1" class="highcharts-grid-line" d="M 179.5 63 L 179.5 228" opacity="1"></path><path fill="none" data-z-index="1" class="highcharts-grid-line" d="M 201.5 63 L 201.5 228" opacity="1"></path><path fill="none" data-z-index="1" class="highcharts-grid-line" d="M 222.5 63 L 222.5 228" opacity="1"></path><path fill="none" data-z-index="1" class="highcharts-grid-line" d="M 244.5 63 L 244.5 228" opacity="1"></path><path fill="none" data-z-index="1" class="highcharts-grid-line" d="M 265.5 63 L 265.5 228" opacity="1"></path><path fill="none" data-z-index="1" class="highcharts-grid-line" d="M 287.5 63 L 287.5 228" opacity="1"></path><path fill="none" data-z-index="1" class="highcharts-grid-line" d="M 308.5 63 L 308.5 228" opacity="1"></path><path fill="none" data-z-index="1" class="highcharts-grid-line" d="M 330.5 63 L 330.5 228" opacity="1"></path><path fill="none" data-z-index="1" class="highcharts-grid-line" d="M 352.5 63 L 352.5 228" opacity="1"></path><path fill="none" data-z-index="1" class="highcharts-grid-line" d="M 373.5 63 L 373.5 228" opacity="1"></path><path fill="none" data-z-index="1" class="highcharts-grid-line" d="M 395.5 63 L 395.5 228" opacity="1"></path><path fill="none" data-z-index="1" class="highcharts-grid-line" d="M 416.5 63 L 416.5 228" opacity="1"></path><path fill="none" data-z-index="1" class="highcharts-grid-line" d="M 438.5 63 L 438.5 228" opacity="1"></path><path fill="none" data-z-index="1" class="highcharts-grid-line" d="M 460.5 63 L 460.5 228" opacity="1"></path><path fill="none" data-z-index="1" class="highcharts-grid-line" d="M 481.5 63 L 481.5 228" opacity="1"></path><path fill="none" data-z-index="1" class="highcharts-grid-line" d="M 503.5 63 L 503.5 228" opacity="1"></path><path fill="none" data-z-index="1" class="highcharts-grid-line" d="M 524.5 63 L 524.5 228" opacity="1"></path><path fill="none" data-z-index="1" class="highcharts-grid-line" d="M 546.5 63 L 546.5 228" opacity="1"></path><path fill="none" data-z-index="1" class="highcharts-grid-line" d="M 567.5 63 L 567.5 228" opacity="1"></path><path fill="none" data-z-index="1" class="highcharts-grid-line" d="M 589.5 63 L 589.5 228" opacity="1"></path><path fill="none" data-z-index="1" class="highcharts-grid-line" d="M 71.5 63 L 71.5 228" opacity="1"></path></g><g class="highcharts-grid highcharts-yaxis-grid " data-z-index="1"><path fill="none" stroke="#e6e6e6" stroke-width="1" data-z-index="1" class="highcharts-grid-line" d="M 72 228.5 L 590 228.5" opacity="1"></path><path fill="none" stroke="#e6e6e6" stroke-width="1" data-z-index="1" class="highcharts-grid-line" d="M 72 173.5 L 590 173.5" opacity="1"></path><path fill="none" stroke="#e6e6e6" stroke-width="1" data-z-index="1" class="highcharts-grid-line" d="M 72 118.5 L 590 118.5" opacity="1"></path><path fill="none" stroke="#e6e6e6" stroke-width="1" data-z-index="1" class="highcharts-grid-line" d="M 72 62.5 L 590 62.5" opacity="1"></path></g><rect fill="none" class="highcharts-plot-border" data-z-index="1" x="72" y="63" width="518" height="165"></rect><g class="highcharts-axis highcharts-xaxis " data-z-index="2"><path fill="none" class="highcharts-tick" stroke="#ccd6eb" stroke-width="1" d="M 93.5 228 L 93.5 238" opacity="1"></path><path fill="none" class="highcharts-tick" stroke="#ccd6eb" stroke-width="1" d="M 114.5 228 L 114.5 238" opacity="1"></path><path fill="none" class="highcharts-tick" stroke="#ccd6eb" stroke-width="1" d="M 136.5 228 L 136.5 238" opacity="1"></path><path fill="none" class="highcharts-tick" stroke="#ccd6eb" stroke-width="1" d="M 157.5 228 L 157.5 238" opacity="1"></path><path fill="none" class="highcharts-tick" stroke="#ccd6eb" stroke-width="1" d="M 179.5 228 L 179.5 238" opacity="1"></path><path fill="none" class="highcharts-tick" stroke="#ccd6eb" stroke-width="1" d="M 201.5 228 L 201.5 238" opacity="1"></path><path fill="none" class="highcharts-tick" stroke="#ccd6eb" stroke-width="1" d="M 222.5 228 L 222.5 238" opacity="1"></path><path fill="none" class="highcharts-tick" stroke="#ccd6eb" stroke-width="1" d="M 244.5 228 L 244.5 238" opacity="1"></path><path fill="none" class="highcharts-tick" stroke="#ccd6eb" stroke-width="1" d="M 265.5 228 L 265.5 238" opacity="1"></path><path fill="none" class="highcharts-tick" stroke="#ccd6eb" stroke-width="1" d="M 287.5 228 L 287.5 238" opacity="1"></path><path fill="none" class="highcharts-tick" stroke="#ccd6eb" stroke-width="1" d="M 308.5 228 L 308.5 238" opacity="1"></path><path fill="none" class="highcharts-tick" stroke="#ccd6eb" stroke-width="1" d="M 330.5 228 L 330.5 238" opacity="1"></path><path fill="none" class="highcharts-tick" stroke="#ccd6eb" stroke-width="1" d="M 352.5 228 L 352.5 238" opacity="1"></path><path fill="none" class="highcharts-tick" stroke="#ccd6eb" stroke-width="1" d="M 373.5 228 L 373.5 238" opacity="1"></path><path fill="none" class="highcharts-tick" stroke="#ccd6eb" stroke-width="1" d="M 395.5 228 L 395.5 238" opacity="1"></path><path fill="none" class="highcharts-tick" stroke="#ccd6eb" stroke-width="1" d="M 416.5 228 L 416.5 238" opacity="1"></path><path fill="none" class="highcharts-tick" stroke="#ccd6eb" stroke-width="1" d="M 438.5 228 L 438.5 238" opacity="1"></path><path fill="none" class="highcharts-tick" stroke="#ccd6eb" stroke-width="1" d="M 460.5 228 L 460.5 238" opacity="1"></path><path fill="none" class="highcharts-tick" stroke="#ccd6eb" stroke-width="1" d="M 481.5 228 L 481.5 238" opacity="1"></path><path fill="none" class="highcharts-tick" stroke="#ccd6eb" stroke-width="1" d="M 503.5 228 L 503.5 238" opacity="1"></path><path fill="none" class="highcharts-tick" stroke="#ccd6eb" stroke-width="1" d="M 524.5 228 L 524.5 238" opacity="1"></path><path fill="none" class="highcharts-tick" stroke="#ccd6eb" stroke-width="1" d="M 546.5 228 L 546.5 238" opacity="1"></path><path fill="none" class="highcharts-tick" stroke="#ccd6eb" stroke-width="1" d="M 567.5 228 L 567.5 238" opacity="1"></path><path fill="none" class="highcharts-tick" stroke="#ccd6eb" stroke-width="1" d="M 590.5 228 L 590.5 238" opacity="1"></path><path fill="none" class="highcharts-tick" stroke="#ccd6eb" stroke-width="1" d="M 71.5 228 L 71.5 238" opacity="1"></path><text x="331" data-z-index="7" text-anchor="middle" transform="translate(0,0)" class="highcharts-axis-title" style="color:#666666;fill:#666666;" y="280.57716446627535"><tspan>Daily Values (g)</tspan></text><path fill="none" class="highcharts-axis-line" stroke="#ccd6eb" stroke-width="1" data-z-index="7" d="M 72 228.5 L 590 228.5"></path></g><g class="highcharts-axis highcharts-yaxis " data-z-index="2"><text x="26" data-z-index="7" text-anchor="middle" transform="translate(0,0) rotate(270 26 145.5)" class="highcharts-axis-title" style="color:#666666;fill:#666666;" y="145.5"><tspan>Number of Days</tspan></text><path fill="none" class="highcharts-axis-line" data-z-index="7" d="M 72 63 L 72 228"></path></g><g class="highcharts-series-group" data-z-index="3"><g data-z-index="0.1" class="highcharts-series highcharts-series-0 highcharts-column-series highcharts-color-0 " transform="translate(72,63) scale(1 1)" clip-path="url(#highcharts-cmgcehi-56)"><rect x="5.5" y="101.5" width="11" height="64" fill="#000000" stroke="#ffffff" stroke-width="1" class="highcharts-point highcharts-color-0"></rect><rect x="26.5" y="164.5" width="11" height="1" fill="#000000" stroke="#ffffff" stroke-width="1" class="highcharts-point highcharts-color-0"></rect><rect x="48.5" y="164.5" width="11" height="1" fill="#000000" stroke="#ffffff" stroke-width="1" class="highcharts-point highcharts-color-0"></rect><rect x="69.5" y="162.5" width="11" height="3" fill="#000000" stroke="#ffffff" stroke-width="1" class="highcharts-point highcharts-color-0"></rect><rect x="91.5" y="163.5" width="11" height="2" fill="#000000" stroke="#ffffff" stroke-width="1" class="highcharts-point highcharts-color-0"></rect><rect x="113.5" y="164.5" width="11" height="1" fill="#000000" stroke="#ffffff" stroke-width="1" class="highcharts-point highcharts-color-0"></rect><rect x="134.5" y="164.5" width="11" height="1" fill="#000000" stroke="#ffffff" stroke-width="1" class="highcharts-point highcharts-color-0"></rect><rect x="156.5" y="160.5" width="11" height="5" fill="#000000" stroke="#ffffff" stroke-width="1" class="highcharts-point highcharts-color-0"></rect><rect x="177.5" y="162.5" width="11" height="3" fill="#000000" stroke="#ffffff" stroke-width="1" class="highcharts-point highcharts-color-0"></rect><rect x="199.5" y="162.5" width="11" height="3" fill="#000000" stroke="#ffffff" stroke-width="1" class="highcharts-point highcharts-color-0"></rect><rect x="220.5" y="164.5" width="11" height="1" fill="#000000" stroke="#ffffff" stroke-width="1" class="highcharts-point highcharts-color-0"></rect><rect x="242.5" y="164.5" width="11" height="1" fill="#000000" stroke="#ffffff" stroke-width="1" class="highcharts-point highcharts-color-0"></rect><rect x="264.5" y="164.5" width="11" height="1" fill="#000000" stroke="#ffffff" stroke-width="1" class="highcharts-point highcharts-color-0"></rect><rect x="285.5" y="158.5" width="11" height="7" fill="#000000" stroke="#ffffff" stroke-width="1" class="highcharts-point highcharts-color-0"></rect><rect x="307.5" y="159.5" width="11" height="6" fill="#000000" stroke="#ffffff" stroke-width="1" class="highcharts-point highcharts-color-0"></rect><rect x="328.5" y="158.5" width="11" height="7" fill="#000000" stroke="#ffffff" stroke-width="1" class="highcharts-point highcharts-color-0"></rect><rect x="350.5" y="151.5" width="11" height="14" fill="#000000" stroke="#ffffff" stroke-width="1" class="highcharts-point highcharts-color-0"></rect><rect x="372.5" y="157.5" width="11" height="8" fill="#000000" stroke="#ffffff" stroke-width="1" class="highcharts-point highcharts-color-0"></rect><rect x="393.5" y="163.5" width="11" height="2" fill="#000000" stroke="#ffffff" stroke-width="1" class="highcharts-point highcharts-color-0"></rect><rect x="415.5" y="142.5" width="11" height="23" fill="#000000" stroke="#ffffff" stroke-width="1" class="highcharts-point highcharts-color-0"></rect><rect x="436.5" y="161.5" width="11" height="4" fill="#000000" stroke="#ffffff" stroke-width="1" class="highcharts-point highcharts-color-0"></rect><rect x="458.5" y="164.5" width="11" height="1" fill="#000000" stroke="#ffffff" stroke-width="1" class="highcharts-point highcharts-color-0"></rect><rect x="479.5" y="53.5" width="11" height="112" fill="#000000" stroke="#ffffff" stroke-width="1" class="highcharts-point highcharts-color-0"></rect><rect x="501.5" y="158.5" width="11" height="7" fill="#000000" stroke="#ffffff" stroke-width="1" class="highcharts-point highcharts-color-0"></rect></g><g data-z-index="0.1" class="highcharts-markers highcharts-series-0 highcharts-column-series highcharts-color-0 " transform="translate(72,63) scale(1 1)" clip-path="none"></g></g><text x="300" text-anchor="middle" class="highcharts-title" data-z-index="4" style="color:#333333;font-size:18px;fill:#333333;" y="24"><tspan>Daily Unsaturated Fat Distribution</tspan></text><text x="300" text-anchor="middle" class="highcharts-subtitle" data-z-index="4" style="color:#666666;fill:#666666;" y="46"><tspan>Each column represents the number of days this value occurred.</tspan></text><g class="highcharts-axis-labels highcharts-xaxis-labels " data-z-index="7"><text x="85.384391531017" style="color:#666666;cursor:default;font-size:11px;fill:#666666;" text-anchor="end" transform="translate(0,0) rotate(-45 85.384391531017 244)" y="244" opacity="1">0</text><text x="106.967724864354" style="color:#666666;cursor:default;font-size:11px;fill:#666666;" text-anchor="end" transform="translate(0,0) rotate(-45 106.967724864354 244)" y="244" opacity="1">0.08</text><text x="128.55105819768403" style="color:#666666;cursor:default;font-size:11px;fill:#666666;" text-anchor="end" transform="translate(0,0) rotate(-45 128.55105819768403 244)" y="244" opacity="1">0.1</text><text x="150.13439153101402" style="color:#666666;cursor:default;font-size:11px;fill:#666666;" text-anchor="end" transform="translate(0,0) rotate(-45 150.13439153101402 244)" y="244" opacity="1">0.2</text><text x="171.71772486435404" style="color:#666666;cursor:default;font-size:11px;fill:#666666;" text-anchor="end" transform="translate(0,0) rotate(-45 171.71772486435404 244)" y="244" opacity="1">0.3</text><text x="193.30105819768403" style="color:#666666;cursor:default;font-size:11px;fill:#666666;" text-anchor="end" transform="translate(0,0) rotate(-45 193.30105819768403 244)" y="244" opacity="1">0.4</text><text x="214.88439153101402" style="color:#666666;cursor:default;font-size:11px;fill:#666666;" text-anchor="end" transform="translate(0,0) rotate(-45 214.88439153101402 244)" y="244" opacity="1">0.5</text><text x="236.46772486435404" style="color:#666666;cursor:default;font-size:11px;fill:#666666;" text-anchor="end" transform="translate(0,0) rotate(-45 236.46772486435404 244)" y="244" opacity="1">2</text><text x="258.051058197684" style="color:#666666;cursor:default;font-size:11px;fill:#666666;" text-anchor="end" transform="translate(0,0) rotate(-45 258.051058197684 244)" y="244" opacity="1">3</text><text x="279.634391531014" style="color:#666666;cursor:default;font-size:11px;fill:#666666;" text-anchor="end" transform="translate(0,0) rotate(-45 279.634391531014 244)" y="244" opacity="1">4</text><text x="301.21772486435395" style="color:#666666;cursor:default;font-size:11px;fill:#666666;" text-anchor="end" transform="translate(0,0) rotate(-45 301.21772486435395 244)" y="244" opacity="1">5</text><text x="322.801058197684" style="color:#666666;cursor:default;font-size:11px;fill:#666666;" text-anchor="end" transform="translate(0,0) rotate(-45 322.801058197684 244)" y="244" opacity="1">7</text><text x="344.384391531014" style="color:#666666;cursor:default;font-size:11px;fill:#666666;" text-anchor="end" transform="translate(0,0) rotate(-45 344.384391531014 244)" y="244" opacity="1">8</text><text x="365.96772486435395" style="color:#666666;cursor:default;font-size:11px;fill:#666666;" text-anchor="end" transform="translate(0,0) rotate(-45 365.96772486435395 244)" y="244" opacity="1">9</text><text x="387.551058197684" style="color:#666666;cursor:default;font-size:11px;fill:#666666;" text-anchor="end" transform="translate(0,0) rotate(-45 387.551058197684 244)" y="244" opacity="1">10</text><text x="409.134391531014" style="color:#666666;cursor:default;font-size:11px;fill:#666666;" text-anchor="end" transform="translate(0,0) rotate(-45 409.134391531014 244)" y="244" opacity="1">20</text><text x="430.71772486435395" style="color:#666666;cursor:default;font-size:11px;fill:#666666;" text-anchor="end" transform="translate(0,0) rotate(-45 430.71772486435395 244)" y="244" opacity="1">30</text><text x="452.301058197684" style="color:#666666;cursor:default;font-size:11px;fill:#666666;" text-anchor="end" transform="translate(0,0) rotate(-45 452.301058197684 244)" y="244" opacity="1">40</text><text x="473.884391531014" style="color:#666666;cursor:default;font-size:11px;fill:#666666;" text-anchor="end" transform="translate(0,0) rotate(-45 473.884391531014 244)" y="244" opacity="1">50</text><text x="495.46772486435395" style="color:#666666;cursor:default;font-size:11px;fill:#666666;" text-anchor="end" transform="translate(0,0) rotate(-45 495.46772486435395 244)" y="244" opacity="1">60</text><text x="517.051058197684" style="color:#666666;cursor:default;font-size:11px;fill:#666666;" text-anchor="end" transform="translate(0,0) rotate(-45 517.051058197684 244)" y="244" opacity="1">70</text><text x="538.634391531014" style="color:#666666;cursor:default;font-size:11px;fill:#666666;" text-anchor="end" transform="translate(0,0) rotate(-45 538.634391531014 244)" y="244" opacity="1">80</text><text x="560.2177248643541" style="color:#666666;cursor:default;font-size:11px;fill:#666666;" text-anchor="end" transform="translate(0,0) rotate(-45 560.2177248643541 244)" y="244" opacity="1">90</text><text x="581.801058197684" style="color:#666666;cursor:default;font-size:11px;fill:#666666;" text-anchor="end" transform="translate(0,0) rotate(-45 581.801058197684 244)" y="244" opacity="1">100</text></g><g class="highcharts-axis-labels highcharts-yaxis-labels " data-z-index="7"><text x="57" style="color:#666666;cursor:default;font-size:11px;fill:#666666;" text-anchor="end" transform="translate(0,0)" y="232" opacity="1">0</text><text x="57" style="color:#666666;cursor:default;font-size:11px;fill:#666666;" text-anchor="end" transform="translate(0,0)" y="177" opacity="1">100</text><text x="57" style="color:#666666;cursor:default;font-size:11px;fill:#666666;" text-anchor="end" transform="translate(0,0)" y="122" opacity="1">200</text><text x="57" style="color:#666666;cursor:default;font-size:11px;fill:#666666;" text-anchor="end" transform="translate(0,0)" y="67" opacity="1">300</text></g><a xlink:href="https://quantimo.do" target="_blank">
                    <text x="590" class="highcharts-credits" text-anchor="end" data-z-index="8"
                          style="cursor:pointer;color:#999999;font-size:9px;fill:#999999;" y="295">https://quantimo.do
                    </text>
                </a></svg>