<?xml version="1.0" standalone="no"?><!DOCTYPE svg PUBLIC "-//W3C//DTD SVG 1.1//EN" "http://www.w3.org/Graphics/SVG/1.1/DTD/svg11.dtd"><svg xmlns:xlink="http://www.w3.org/1999/xlink" version="1.1" class="highcharts-root" style="font-family:&quot;Lucida Grande&quot;, &quot;Lucida Sans Unicode&quot;, Arial, Helvetica, sans-serif;font-size:12px;" xmlns="http://www.w3.org/2000/svg" width="600" height="300"><desc>Created with Highstock 6.2.0</desc><defs><clipPath id="highcharts-3ncdp0o-19"><rect x="0" y="0" width="522" height="105" fill="none"></rect></clipPath><clipPath id="highcharts-3ncdp0o-32"><rect x="0" y="0" width="522" height="105" fill="none"></rect></clipPath><clipPath id="highcharts-3ncdp0o-33"><rect x="68" y="99" width="522" height="105" fill="none"></rect></clipPath></defs><rect fill="#ffffff" class="highcharts-background" x="0" y="0" width="600" height="300" rx="0" ry="0"></rect><rect fill="none" class="highcharts-plot-background" x="68" y="99" width="522" height="105"></rect><g class="highcharts-pane-group" data-z-index="0"></g><g class="highcharts-grid highcharts-xaxis-grid " data-z-index="1"><path fill="none" data-z-index="1" class="highcharts-grid-line" d="M 111.5 99 L 111.5 204" opacity="1"></path><path fill="none" data-z-index="1" class="highcharts-grid-line" d="M 154.5 99 L 154.5 204" opacity="1"></path><path fill="none" data-z-index="1" class="highcharts-grid-line" d="M 198.5 99 L 198.5 204" opacity="1"></path><path fill="none" data-z-index="1" class="highcharts-grid-line" d="M 241.5 99 L 241.5 204" opacity="1"></path><path fill="none" data-z-index="1" class="highcharts-grid-line" d="M 285.5 99 L 285.5 204" opacity="1"></path><path fill="none" data-z-index="1" class="highcharts-grid-line" d="M 328.5 99 L 328.5 204" opacity="1"></path><path fill="none" data-z-index="1" class="highcharts-grid-line" d="M 372.5 99 L 372.5 204" opacity="1"></path><path fill="none" data-z-index="1" class="highcharts-grid-line" d="M 415.5 99 L 415.5 204" opacity="1"></path><path fill="none" data-z-index="1" class="highcharts-grid-line" d="M 459.5 99 L 459.5 204" opacity="1"></path><path fill="none" data-z-index="1" class="highcharts-grid-line" d="M 502.5 99 L 502.5 204" opacity="1"></path><path fill="none" data-z-index="1" class="highcharts-grid-line" d="M 546.5 99 L 546.5 204" opacity="1"></path><path fill="none" data-z-index="1" class="highcharts-grid-line" d="M 589.5 99 L 589.5 204" opacity="1"></path><path fill="none" data-z-index="1" class="highcharts-grid-line" d="M 67.5 99 L 67.5 204" opacity="1"></path></g><g class="highcharts-grid highcharts-yaxis-grid " data-z-index="1"><path fill="none" stroke="#e6e6e6" stroke-width="1" data-z-index="1" class="highcharts-grid-line" d="M 68 204.5 L 590 204.5" opacity="1"></path><path fill="none" stroke="#e6e6e6" stroke-width="1" data-z-index="1" class="highcharts-grid-line" d="M 68 169.5 L 590 169.5" opacity="1"></path><path fill="none" stroke="#e6e6e6" stroke-width="1" data-z-index="1" class="highcharts-grid-line" d="M 68 134.5 L 590 134.5" opacity="1"></path><path fill="none" stroke="#e6e6e6" stroke-width="1" data-z-index="1" class="highcharts-grid-line" d="M 68 98.5 L 590 98.5" opacity="1"></path></g><rect fill="none" class="highcharts-plot-border" data-z-index="1" x="68" y="99" width="522" height="105"></rect><g class="highcharts-axis highcharts-xaxis " data-z-index="2"><path fill="none" class="highcharts-tick" stroke="#ccd6eb" stroke-width="1" d="M 111.5 204 L 111.5 214" opacity="1"></path><path fill="none" class="highcharts-tick" stroke="#ccd6eb" stroke-width="1" d="M 154.5 204 L 154.5 214" opacity="1"></path><path fill="none" class="highcharts-tick" stroke="#ccd6eb" stroke-width="1" d="M 198.5 204 L 198.5 214" opacity="1"></path><path fill="none" class="highcharts-tick" stroke="#ccd6eb" stroke-width="1" d="M 241.5 204 L 241.5 214" opacity="1"></path><path fill="none" class="highcharts-tick" stroke="#ccd6eb" stroke-width="1" d="M 285.5 204 L 285.5 214" opacity="1"></path><path fill="none" class="highcharts-tick" stroke="#ccd6eb" stroke-width="1" d="M 328.5 204 L 328.5 214" opacity="1"></path><path fill="none" class="highcharts-tick" stroke="#ccd6eb" stroke-width="1" d="M 372.5 204 L 372.5 214" opacity="1"></path><path fill="none" class="highcharts-tick" stroke="#ccd6eb" stroke-width="1" d="M 415.5 204 L 415.5 214" opacity="1"></path><path fill="none" class="highcharts-tick" stroke="#ccd6eb" stroke-width="1" d="M 459.5 204 L 459.5 214" opacity="1"></path><path fill="none" class="highcharts-tick" stroke="#ccd6eb" stroke-width="1" d="M 502.5 204 L 502.5 214" opacity="1"></path><path fill="none" class="highcharts-tick" stroke="#ccd6eb" stroke-width="1" d="M 546.5 204 L 546.5 214" opacity="1"></path><path fill="none" class="highcharts-tick" stroke="#ccd6eb" stroke-width="1" d="M 590.5 204 L 590.5 214" opacity="1"></path><path fill="none" class="highcharts-tick" stroke="#ccd6eb" stroke-width="1" d="M 67.5 204 L 67.5 214" opacity="1"></path><text x="329" data-z-index="7" text-anchor="middle" transform="translate(0,0)" class="highcharts-axis-title" style="color:#666666;fill:#666666;" y="280.618795026618"><tspan>Month</tspan></text><path fill="none" class="highcharts-axis-line" stroke="#ccd6eb" stroke-width="1" data-z-index="7" d="M 68 204.5 L 590 204.5"></path></g><g class="highcharts-axis highcharts-yaxis " data-z-index="2"><text x="26" data-z-index="7" text-anchor="middle" transform="translate(0,0) rotate(270 26 151.5)" class="highcharts-axis-title" style="color:#666666;fill:#666666;" y="151.5"><tspan>Daily Average (h)</tspan></text><path fill="none" class="highcharts-axis-line" data-z-index="7" d="M 68 99 L 68 204"></path></g><g class="highcharts-series-group" data-z-index="3"><g data-z-index="0.1" class="highcharts-series highcharts-series-0 highcharts-column-series highcharts-color-0 " transform="translate(68,99) scale(1 1)" clip-path="url(#highcharts-3ncdp0o-32)"><rect x="10.5" y="86.5" width="21" height="19" fill="#000000" stroke="#ffffff" stroke-width="1" class="highcharts-point highcharts-color-0"></rect><rect x="54.5" y="56.5" width="21" height="49" fill="#000000" stroke="#ffffff" stroke-width="1" class="highcharts-point highcharts-color-0"></rect><rect x="97.5" y="54.5" width="21" height="51" fill="#000000" stroke="#ffffff" stroke-width="1" class="highcharts-point highcharts-color-0"></rect><rect x="141.5" y="31.5" width="21" height="74" fill="#000000" stroke="#ffffff" stroke-width="1" class="highcharts-point highcharts-color-0"></rect><rect x="184.5" y="66.5" width="21" height="39" fill="#000000" stroke="#ffffff" stroke-width="1" class="highcharts-point highcharts-color-0"></rect><rect x="228.5" y="39.5" width="21" height="66" fill="#000000" stroke="#ffffff" stroke-width="1" class="highcharts-point highcharts-color-0"></rect><rect x="271.5" y="49.5" width="21" height="56" fill="#000000" stroke="#ffffff" stroke-width="1" class="highcharts-point highcharts-color-0"></rect><rect x="315.5" y="73.5" width="21" height="32" fill="#000000" stroke="#ffffff" stroke-width="1" class="highcharts-point highcharts-color-0"></rect><rect x="358.5" y="86.5" width="21" height="19" fill="#000000" stroke="#ffffff" stroke-width="1" class="highcharts-point highcharts-color-0"></rect><rect x="402.5" y="76.5" width="21" height="29" fill="#000000" stroke="#ffffff" stroke-width="1" class="highcharts-point highcharts-color-0"></rect><rect x="445.5" y="65.5" width="21" height="40" fill="#000000" stroke="#ffffff" stroke-width="1" class="highcharts-point highcharts-color-0"></rect><rect x="489.5" y="36.5" width="21" height="69" fill="#000000" stroke="#ffffff" stroke-width="1" class="highcharts-point highcharts-color-0"></rect></g><g data-z-index="0.1" class="highcharts-markers highcharts-series-0 highcharts-column-series highcharts-color-0 " transform="translate(68,99) scale(1 1)" clip-path="none"></g></g><text x="300" text-anchor="middle" class="highcharts-title" data-z-index="4" style="color:#333333;font-size:18px;fill:#333333;" y="24"><tspan>Average Time Spent on Communication and Scheduling by</tspan><tspan dy="21" x="300">Month</tspan></text><text x="300" text-anchor="middle" class="highcharts-subtitle" data-z-index="4" style="color:#666666;fill:#666666;" y="67"><tspan>This chart shows the typical value recorded for Time Spent On Communication And</tspan><tspan dy="15" x="300">Scheduling for each month of the year.</tspan></text><g class="highcharts-axis-labels highcharts-xaxis-labels " data-z-index="7"><text x="92.34272486435067" style="color:#666666;cursor:default;font-size:11px;fill:#666666;" text-anchor="end" transform="translate(0,0) rotate(-45 92.34272486435067 220)" y="220" opacity="1">January</text><text x="135.84272486435069" style="color:#666666;cursor:default;font-size:11px;fill:#666666;" text-anchor="end" transform="translate(0,0) rotate(-45 135.84272486435069 220)" y="220" opacity="1">February</text><text x="179.34272486435069" style="color:#666666;cursor:default;font-size:11px;fill:#666666;" text-anchor="end" transform="translate(0,0) rotate(-45 179.34272486435069 220)" y="220" opacity="1">March</text><text x="222.84272486435069" style="color:#666666;cursor:default;font-size:11px;fill:#666666;" text-anchor="end" transform="translate(0,0) rotate(-45 222.84272486435069 220)" y="220" opacity="1">April</text><text x="266.34272486435066" style="color:#666666;cursor:default;font-size:11px;fill:#666666;" text-anchor="end" transform="translate(0,0) rotate(-45 266.34272486435066 220)" y="220" opacity="1">May</text><text x="309.84272486435066" style="color:#666666;cursor:default;font-size:11px;fill:#666666;" text-anchor="end" transform="translate(0,0) rotate(-45 309.84272486435066 220)" y="220" opacity="1">June</text><text x="353.34272486435066" style="color:#666666;cursor:default;font-size:11px;fill:#666666;" text-anchor="end" transform="translate(0,0) rotate(-45 353.34272486435066 220)" y="220" opacity="1">July</text><text x="396.84272486435066" style="color:#666666;cursor:default;font-size:11px;fill:#666666;" text-anchor="end" transform="translate(0,0) rotate(-45 396.84272486435066 220)" y="220" opacity="1">August</text><text x="440.34272486435066" style="color:#666666;cursor:default;font-size:11px;fill:#666666;" text-anchor="end" transform="translate(0,0) rotate(-45 440.34272486435066 220)" y="220" opacity="1">September</text><text x="483.84272486435066" style="color:#666666;cursor:default;font-size:11px;fill:#666666;" text-anchor="end" transform="translate(0,0) rotate(-45 483.84272486435066 220)" y="220" opacity="1">October</text><text x="527.3427248643507" style="color:#666666;cursor:default;font-size:11px;fill:#666666;" text-anchor="end" transform="translate(0,0) rotate(-45 527.3427248643507 220)" y="220" opacity="1">November</text><text x="570.8427248643507" style="color:#666666;cursor:default;font-size:11px;fill:#666666;" text-anchor="end" transform="translate(0,0) rotate(-45 570.8427248643507 220)" y="220" opacity="1">December</text></g><g class="highcharts-axis-labels highcharts-yaxis-labels " data-z-index="7"><text x="53" style="color:#666666;cursor:default;font-size:11px;fill:#666666;" text-anchor="end" transform="translate(0,0)" y="173" opacity="1">0.5</text><text x="53" style="color:#666666;cursor:default;font-size:11px;fill:#666666;" text-anchor="end" transform="translate(0,0)" y="138" opacity="1">1</text><text x="53" style="color:#666666;cursor:default;font-size:11px;fill:#666666;" text-anchor="end" transform="translate(0,0)" y="208" opacity="1">0</text><text x="53" style="color:#666666;cursor:default;font-size:11px;fill:#666666;" text-anchor="end" transform="translate(0,0)" y="103" opacity="1">1.5</text></g><a xlink:href="https://quantimo.do" target="_blank">
                    <text x="590" class="highcharts-credits" text-anchor="end" data-z-index="8"
                          style="cursor:pointer;color:#999999;font-size:9px;fill:#999999;" y="295">https://quantimo.do
                    </text>
                </a></svg>