<?xml version="1.0" standalone="no"?><!DOCTYPE svg PUBLIC "-//W3C//DTD SVG 1.1//EN" "http://www.w3.org/Graphics/SVG/1.1/DTD/svg11.dtd"><svg xmlns:xlink="http://www.w3.org/1999/xlink" version="1.1" class="highcharts-root" style="font-family:&quot;Lucida Grande&quot;, &quot;Lucida Sans Unicode&quot;, Arial, Helvetica, sans-serif;font-size:12px;" xmlns="http://www.w3.org/2000/svg" width="600" height="400"><desc>Created with Highstock 6.2.0</desc><defs><clipPath id="highcharts-t26j9e8-720"><rect x="0" y="0" width="558" height="284" fill="none"></rect></clipPath><clipPath id="highcharts-t26j9e8-1434"><rect x="0" y="0" width="558" height="284" fill="none"></rect></clipPath><clipPath id="highcharts-t26j9e8-1435"><rect x="32" y="78" width="558" height="284" fill="none"></rect></clipPath></defs><rect fill="#ffffff" class="highcharts-background" x="0" y="0" width="600" height="400" rx="0" ry="0"></rect><rect fill="none" class="highcharts-plot-background" x="32" y="78" width="558" height="284"></rect><g class="highcharts-pane-group" data-z-index="0"></g><g class="highcharts-grid highcharts-xaxis-grid " data-z-index="1"><path fill="none" data-z-index="1" class="highcharts-grid-line" d="M 34.5 78 L 34.5 362" opacity="1"></path><path fill="none" data-z-index="1" class="highcharts-grid-line" d="M 128.5 78 L 128.5 362" opacity="1"></path><path fill="none" data-z-index="1" class="highcharts-grid-line" d="M 222.5 78 L 222.5 362" opacity="1"></path><path fill="none" data-z-index="1" class="highcharts-grid-line" d="M 314.5 78 L 314.5 362" opacity="1"></path><path fill="none" data-z-index="1" class="highcharts-grid-line" d="M 409.5 78 L 409.5 362" opacity="1"></path><path fill="none" data-z-index="1" class="highcharts-grid-line" d="M 503.5 78 L 503.5 362" opacity="1"></path></g><g class="highcharts-grid highcharts-yaxis-grid " data-z-index="1"><path fill="none" stroke="#e6e6e6" stroke-width="1" data-z-index="1" class="highcharts-grid-line" d="M 32 362.5 L 590 362.5" opacity="1"></path><path fill="none" stroke="#e6e6e6" stroke-width="1" data-z-index="1" class="highcharts-grid-line" d="M 32 315.5 L 590 315.5" opacity="1"></path><path fill="none" stroke="#e6e6e6" stroke-width="1" data-z-index="1" class="highcharts-grid-line" d="M 32 267.5 L 590 267.5" opacity="1"></path><path fill="none" stroke="#e6e6e6" stroke-width="1" data-z-index="1" class="highcharts-grid-line" d="M 32 220.5 L 590 220.5" opacity="1"></path><path fill="none" stroke="#e6e6e6" stroke-width="1" data-z-index="1" class="highcharts-grid-line" d="M 32 173.5 L 590 173.5" opacity="1"></path><path fill="none" stroke="#e6e6e6" stroke-width="1" data-z-index="1" class="highcharts-grid-line" d="M 32 125.5 L 590 125.5" opacity="1"></path><path fill="none" stroke="#e6e6e6" stroke-width="1" data-z-index="1" class="highcharts-grid-line" d="M 32 77.5 L 590 77.5" opacity="1"></path></g><rect fill="none" class="highcharts-plot-border" data-z-index="1" x="32" y="78" width="558" height="284"></rect><g class="highcharts-axis highcharts-xaxis " data-z-index="2"><path fill="none" class="highcharts-tick" stroke="#ccd6eb" stroke-width="1" d="M 34.5 362 L 34.5 372" opacity="1"></path><path fill="none" class="highcharts-tick" stroke="#ccd6eb" stroke-width="1" d="M 128.5 362 L 128.5 372" opacity="1"></path><path fill="none" class="highcharts-tick" stroke="#ccd6eb" stroke-width="1" d="M 222.5 362 L 222.5 372" opacity="1"></path><path fill="none" class="highcharts-tick" stroke="#ccd6eb" stroke-width="1" d="M 314.5 362 L 314.5 372" opacity="1"></path><path fill="none" class="highcharts-tick" stroke="#ccd6eb" stroke-width="1" d="M 409.5 362 L 409.5 372" opacity="1"></path><path fill="none" class="highcharts-tick" stroke="#ccd6eb" stroke-width="1" d="M 503.5 362 L 503.5 372" opacity="1"></path><path fill="none" class="highcharts-axis-line" stroke="#ccd6eb" stroke-width="1" data-z-index="7" d="M 32 362.5 L 590 362.5"></path></g><g class="highcharts-axis highcharts-yaxis " data-z-index="2"><path fill="none" class="highcharts-axis-line" data-z-index="7" d="M 32 78 L 32 362"></path></g><g class="highcharts-series-group" data-z-index="3"><g data-z-index="0.1" class="highcharts-series highcharts-series-0 highcharts-spline-series highcharts-color-0 " transform="translate(32,78) scale(1 1)" clip-path="url(#highcharts-t26j9e8-1434)"><path fill="none" d="M 5.4705882352941 284 C 5.4705882352941 284 5.93159286186384 284 6.238929279577 284 C 6.54626569729016 284 6.69993390614674 284 7.0072703238599 284 C 7.31460674157306 284 7.46827495042964 284 7.7756113681428 284 C 8.08294778585592 284 8.23661599471248 284 8.5439524124256 284 C 8.85128883013876 284 9.00495703899534 284 9.3122934567085 284 C 9.6196298744215 284 9.773298083278 284 10.080634500991 284 C 10.3879709187042 284 10.5416391275608 284 10.848975545274 284 C 11.1563119629872 284 11.3099801718438 284 11.617316589557 284 C 11.9246530072702 284 12.078321216126799 284 12.38565763384 284 C 12.6929940515532 284 12.846662260409797 284 13.153998678123 284 C 13.4613350958362 284 13.6150033046928 284 13.922339722406 284 C 14.229676140119201 284 14.3833443489758 284 14.690680766689 284 C 14.998017184402201 284 15.151685393258798 284 15.459021810972 284 C 15.7663582286848 284 15.920026437541202 284 16.227362855254 284 C 16.5346992729672 284 16.688367481823796 284 16.995703899537 284 C 17.3030403172502 284 17.4567085261068 284 17.76404494382 284 C 18.071381361533202 284 18.225049570389803 284 18.532385988103 284 C 18.8397224058162 284 18.9933906146728 284 19.300727032386 284 C 19.608063450099202 284 19.761731658955803 284 20.069068076669 284 C 20.3764044943822 284 20.5300727032388 284 20.837409120952 284 C 21.144745538665198 284 21.2984137475218 284 21.605750165235 284 C 21.9130865829482 284 22.0667547918048 284 22.374091209518 284 C 22.6814276272308 284 22.8350958360872 284 23.1424322538 284 C 23.4497686715132 284 23.6034368803698 284 23.910773298083 284 C 24.2181097157962 284 24.371777924652797 284 24.679114342366 284 C 24.986450760079197 284 25.140118968935802 284 25.447455386649 284 C 25.754791804362203 284 25.908460013218797 284 26.215796430932 284 C 26.523132848645197 284 26.6768010575018 284 26.984137475215 284 C 27.291473892928202 284 27.445142101784803 284 27.752478519498 284 C 28.0598149372112 284 28.2134831460678 234.3 28.520819563781 234.3 C 28.828155981493797 234.3 28.9818241903502 267.4333333333333 29.289160608063 269.32666666666665 C 29.5964970257762 271.22 29.7501652346328 271.22 30.057501652346 271.22 C 30.3648380700592 271.22 30.5185062789158 52.53999999999999 30.825842696629 52.53999999999999 C 31.133179114342205 52.53999999999999 31.2868473231988 225.78 31.594183740912 225.78 C 31.901520158625203 225.78 32.0551883674818 191.7 32.362524785195 191.7 C 32.669861202908194 191.7 32.823529411764795 245.66 33.130865829478 245.66 C 33.4382022471912 245.66 33.5918704560478 245.18666666666667 33.899206873761 245.18666666666667 C 34.206543291474205 245.18666666666667 34.360211500330806 255.12666666666667 34.667547918044 255.12666666666667 C 34.9748843357572 255.12666666666667 35.1285525446138 255.12666666666667 35.435888962327 235.72 C 35.7432253800398 216.31333333333333 35.8968935888962 53.01333333333332 36.204230006609 53.01333333333332 C 36.5115664243222 53.01333333333332 36.6652346331788 161.31199999999998 36.972571050892 201.64 C 37.2799074686052 241.96800000000002 37.4335756774618 254.65333333333334 37.740912095175 254.65333333333334 C 38.0482485128882 254.65333333333334 38.20191672174481 187.44 38.509253139458 187.44 C 38.816589557171206 187.44 38.97025776602781 233.35333333333332 39.277594183741 243.29333333333332 C 39.5849306014542 253.23333333333332 39.7385988103108 250.3933333333333 40.045935228024 253.23333333333332 C 40.353271645737195 256.07333333333327 40.506939854593796 257.49333333333334 40.814276272307 257.49333333333334 C 41.1216126900202 257.49333333333334 41.2752808988768 257.49333333333334 41.58261731659 248.5 C 41.8899537343028 239.50666666666666 42.0436219431592 201.16666666666666 42.350958360872 201.16666666666666 C 42.658294778585194 201.16666666666666 42.811962987441795 216.21866666666656 43.119299405155 221.51999999999998 C 43.42663582286819 226.82133333333326 43.5803040317248 221.51999999999998 43.887640449438 227.67333333333335 C 44.1949768671512 233.8266666666667 44.3486450760078 259.3866666666667 44.655981493721 259.86 C 44.963317911434196 260.3333333333333 45.116986120290804 260.3333333333333 45.424322538004 260.3333333333333 C 45.7316589557172 260.3333333333333 45.8853271645738 185.07333333333332 46.192663582287 178.44666666666666 C 46.5000000000002 171.82 46.6536682088568 171.82 46.96100462657 171.82 C 47.268341044283204 171.82 47.4220092531398 221.33066666665465 47.729345670853 239.50666666666666 C 48.0366820885658 257.6826666666547 48.190350297422206 262.7 48.497686715135 262.7 C 48.805023132848206 262.7 48.95869134170481 184.6 49.266027759418 184.6 C 49.573364177131204 184.6 49.7270323859878 264.59333333333336 50.034368803701 264.59333333333336 C 50.3417052214142 264.59333333333336 50.495373430270796 216.78666666666666 50.802709847984 216.78666666666666 C 51.1100462656972 216.78666666666666 51.263714474553794 241.68399999999968 51.571050892267 253.70666666666665 C 51.8783873099802 265.72933333333305 52.032055518836806 276.9 52.33939193655 276.9 C 52.6467283542632 276.9 52.800396563119804 210.16 53.107732980833 210.16 C 53.4150693985462 210.16 53.568737607402795 256.5466666666667 53.876074025116 256.5466666666667 C 54.1834104428292 256.5466666666667 54.33707865168581 171.82 54.644415069399 171.82 C 54.9517514871118 171.82 55.1054196959682 271.6933333333333 55.412756113681 271.6933333333333 C 55.7200925313942 271.6933333333333 55.8737607402508 254.18 56.181097157964 254.18 C 56.4884335756772 254.18 56.64210178453381 263.64666666666665 56.949438202247 263.64666666666665 C 57.2567746199602 263.64666666666665 57.410442828816805 222.94 57.71777924653 222.94 C 58.025115664243195 222.94 58.17878387309979 230.9866666666666 58.486120290813 234.3 C 58.79345670852619 237.61333333333326 58.9471249173828 238.56 59.254461335096 239.50666666666666 C 59.561797752809206 240.45333333333332 59.7154659616658 239.50666666666666 60.022802379379 240.45333333333332 C 60.3301387970922 241.39999999999998 60.483807005948805 260.8066666666667 60.791143423662 260.8066666666667 C 61.0984798413748 260.8066666666667 61.2521480502312 247.07999999999998 61.559484467944 247.07999999999998 C 61.866820885657205 247.07999999999998 62.0204890945138 271.6933333333333 62.327825512227 271.6933333333333 C 62.6351619299402 271.6933333333333 62.7888301387968 254.36933333333346 63.09616655651 245.18666666666667 C 63.403502974223194 236.0040000000001 63.5571711830798 242.91466666666628 63.864507600793 225.78 C 64.1718440185062 208.64533333333296 64.3255122273628 159.51333333333332 64.632848645076 159.51333333333332 C 64.9401850627892 159.51333333333332 65.0938532716458 159.51333333333332 65.401189689359 167.56 C 65.7085261070722 175.60666666666668 65.8621943159288 220.5733333333333 66.169530733642 234.7733333333333 C 66.47686715135521 248.97333333333333 66.6305353602118 242.91466666666668 66.937871777925 248.97333333333333 C 67.2452081956382 255.03199999999998 67.39887640449481 265.06666666666666 67.706212822208 265.06666666666666 C 68.0135492399208 265.06666666666666 68.16721744877721 234.7733333333254 68.47455386649 222.94 C 68.7818902842032 211.1066666666587 68.9355584930598 205.9 69.242894910773 205.9 C 69.5502313284862 205.9 69.70389953734279 216.3133333333333 70.011235955056 221.51999999999998 C 70.3185723727692 226.72666666666666 70.47224058162581 224.738666666667 70.779576999339 231.93333333333334 C 71.08691341705222 239.12800000000036 71.24058162590879 257.49333333333334 71.547918043622 257.49333333333334 C 71.85525446133519 257.49333333333334 72.00892267019181 256.0733333333333 72.316259087905 256.0733333333333 C 72.6235955056182 256.0733333333333 72.7772637144748 270.2733333333333 73.084600132188 270.2733333333333 C 73.3919365499012 270.2733333333333 73.5456047587578 198.8 73.852941176471 198.8 C 74.1602775941838 198.8 74.3139458030402 264.12 74.621282220753 264.12 C 74.92861863846619 264.12 75.0822868473228 255.6 75.389623265036 255.6 C 75.6969596827492 255.6 75.8506278916058 255.6 76.157964309319 257.96666666666664 C 76.4653007270322 260.33333333333326 76.6189689358888 272.64 76.926305353602 272.64 C 77.2336417713152 272.64 77.3873099801718 272.64 77.694646397885 269.8 C 78.0019828155982 266.96000000000004 78.1556510244548 246.60666666666665 78.462987442168 246.60666666666665 C 78.7703238598812 246.60666666666665 78.92399206873782 258.44 79.231328486451 258.44 C 79.53866490416421 258.44 79.6923331130208 236.66666666666666 79.999669530734 236.66666666666666 C 80.3070059484472 236.66666666666666 80.4606741573038 250.86666666666667 80.768010575017 250.86666666666667 C 81.0753469927298 250.86666666666667 81.2290152015862 245.66 81.536351619299 245.66 C 81.8436880370122 245.66 81.99735624586881 260.3333333333333 82.304692663582 260.3333333333333 C 82.6120290812952 260.3333333333333 82.76569729015179 236.28799999999998 83.073033707865 221.99333333333334 C 83.3803701255782 207.6986666666667 83.5340383344348 188.86 83.841374752148 188.86 C 84.1487111698612 188.86 84.3023793787178 196.14933333333332 84.609715796431 210.63333333333333 C 84.9170522141442 225.1173333333333 85.0707204230008 257.4933333333333 85.378056840714 261.28 C 85.68539325842718 265.06666666666666 85.8390614672838 265.06666666666666 86.146397884997 265.06666666666666 C 86.4537343027102 265.06666666666666 86.6074025115668 211.57999999999998 86.91473892928 211.57999999999998 C 87.2220753469928 211.57999999999998 87.3757435558492 282.58 87.683079973562 282.58 C 87.9904163912752 282.58 88.1440846001318 269.8 88.451421017845 269.8 C 88.75875743555821 269.8 88.91242564441481 280.68666666666667 89.219762062128 280.68666666666667 C 89.5270984798412 280.68666666666667 89.6807666886978 241.87333333333333 89.988103106411 241.87333333333333 C 90.29543952412419 241.87333333333333 90.44910773298079 262.22666666666674 90.756444150694 264.59333333333336 C 91.0637805684072 266.96 91.2174487772638 266.2973333333333 91.524785194977 266.96 C 91.8321216126902 267.62266666666665 91.9857898215468 266.96 92.29312623926 267.90666666666664 C 92.60046265697319 268.8533333333333 92.75413086582981 277.37333333333333 93.061467283543 277.37333333333333 C 93.36880370125621 277.37333333333333 93.52247191011278 262.2266666666667 93.829808327826 262.2266666666667 C 94.13714474553879 262.2266666666667 94.29081295439521 269.8 94.598149372108 269.8 C 94.9054857898212 269.8 95.0591539986778 251.3400000000002 95.366490416391 242.34666666666666 C 95.67382683410419 233.35333333333352 95.8274950429608 224.83333333333331 96.134831460674 224.83333333333331 C 96.44216787838721 224.83333333333331 96.59583608724378 250.39333333333332 96.903172504957 250.39333333333332 C 97.21050892267019 250.39333333333332 97.3641771315268 249.44666666666666 97.67151354924 249.44666666666666 C 97.9788499669532 249.44666666666666 98.13251817580979 276.9 98.439854593523 277.37333333333333 C 98.7471910112362 277.8466666666667 98.9008592200928 277.8466666666667 99.208195637806 277.8466666666667 C 99.5155320555192 277.8466666666667 99.6692002643758 270.74666666666667 99.976536682089 270.74666666666667 C 100.28387309980141 270.74666666666667 100.4375413086576 284 100.74487772637 284 C 101.052214144082 284 101.205882352938 284 101.51321877065 284 C 101.820555188366 284 101.974223397224 284 102.28155981494 284 C 102.58889623265199 284 102.74256444150801 284 103.04990085922 284 C 103.35723727693201 284 103.510905485788 284 103.8182419035 284 C 104.125578321216 284 104.27924653007399 284 104.58658294779 284 C 104.893919365502 284 105.047587574358 284 105.35492399207 284 C 105.662260409782 284 105.81592861863801 284 106.12326503635 284 C 106.430601454062 284 106.58426966291799 284 106.89160608063 284 C 107.19894249834599 284 107.35261070720398 284 107.65994712492 284 C 107.967283542632 284 108.120951751488 284 108.4282881692 284 C 108.735624586912 284 108.889292795768 284 109.19662921348 284 C 109.503965631196 284 109.65763384005399 284 109.96497025777 284 C 110.27230667548201 284 110.425974884338 284 110.73331130205 284 C 111.040647719762 284 111.19431592861801 284 111.50165234633 284 C 111.80898876404201 284 111.962656972898 284 112.26999339061 284 C 112.577329808326 284 112.73099801718399 284 113.0383344349 284 C 113.34567085261202 284 113.499339061468 284 113.80667547918 284 C 114.114011896892 284 114.26768010574798 284 114.57501652346 284 C 114.88235294117598 284 115.036021150034 284 115.34335756775 284 C 115.650693985462 284 115.80436219431799 284 116.11169861203 284 C 116.419035029742 284 116.572703238598 284 116.88003965631 284 C 117.187376074022 284 117.34104428287802 284 117.64838070059 284 C 117.95571711830598 284 118.109385327164 284 118.41672174488 284 C 118.724058162592 284 118.87772637144799 284 119.18506278916 284 C 119.49239920687201 284 119.646067415728 284 119.95340383344 284 C 120.260740251156 284 120.41440846001402 284 120.72174487773 284 C 121.02908129544201 284 121.182749504298 284 121.49008592201 284 C 121.79742233972199 284 121.95109054857798 284 122.25842696629 284 C 122.565763384006 284 122.719431592864 284 123.02676801058 284 C 123.334104428292 284 123.48777263714801 284 123.79510905486 284 C 124.102445472572 284 124.25611368142799 284 124.56345009914 284 C 124.870786516852 284 125.02445472570801 284 125.33179114342 284 C 125.63912756113601 284 125.792795769994 284 126.10013218771 284 C 126.407468605422 284 126.561136814278 284 126.86847323199 284 C 127.175809649702 284 127.329477858558 284 127.63681427627 284 C 127.94415069398602 284 128.097818902844 284 128.40515532056 284 C 128.712491738272 284 128.86615994712798 284 129.17349636484 284 C 129.480832782552 284 129.634500991408 284 129.94183740912 284 C 130.24917382683202 284 130.40284203568802 284 130.7101784534 284 C 131.01751487111602 284 131.171183079974 284 131.47851949769 284 C 131.785855915402 284 131.93952412425799 284 132.24686054197 284 C 132.55419695968197 284 132.707865168538 284 133.01520158625 284 C 133.322538003966 284 133.476206212824 284 133.78354263054 284 C 134.09087904825202 284 134.244547257108 284 134.55188367482 284 C 134.85922009253198 284 135.01288830138802 284 135.3202247191 284 C 135.62756113681198 284 135.781229345668 284 136.08856576338 284 C 136.395902181096 284 136.549570389954 284 136.85690680767 284 C 137.164243225382 284 137.317911434238 284 137.62524785195 284 C 137.932584269662 284 138.08625247851802 284 138.39358889623 284 C 138.70092531394602 284 138.854593522804 284 139.16192994052 284 C 139.469266358232 284 139.62293456708798 284 139.9302709848 284 C 140.237607402512 284 140.39127561136803 284 140.69861202908 284 C 141.00594844679202 284 141.159616655648 284 141.46695307336 284 C 141.774289491076 284 141.92795769993398 284 142.23529411765 284 C 142.54263053536198 284 142.69629874421798 284 143.00363516193 284 C 143.310971579642 284 143.464639788498 284 143.77197620621 284 C 144.079312623926 284 144.232980832784 284 144.5403172505 284 C 144.847653668212 284 145.001321877068 284 145.30865829478 284 C 145.615994712492 284 145.76966292134802 284 146.07699933906 284 C 146.384335756772 284 146.53800396562798 284 146.84534038334 284 C 147.15267680105597 284 147.306345009914 284 147.61368142763 284 C 147.92101784534202 284 148.07468605419803 284 148.38202247191 284 C 148.689358889622 284 148.843027098478 284 149.15036351619 284 C 149.45769993390599 284 149.61136814276398 284 149.91870456048 284 C 150.22604097819197 284 150.379709187048 284 150.68704560476 284 C 150.994382022472 284 151.148050231328 284 151.45538664904 284 C 151.76272306675202 284 151.916391275608 284 152.22372769332 284 C 152.543869795108 284 152.70394084600198 284 153.02408294779 269.8 C 153.331419365502 255.60000000000002 153.48508757435803 193.59333333333333 153.79242399207 193.59333333333333 C 154.09976040978202 193.59333333333333 154.253428618638 243.2933333333333 154.56076503635 246.60666666666665 C 154.868101454062 249.92000000000002 155.021769662918 249.92000000000002 155.32910608063 249.92000000000002 C 155.63644249834599 249.92000000000002 155.79011070720398 232.40666666666667 156.09744712492 232.40666666666667 C 156.404783542632 232.40666666666667 156.558451751488 238.56000000000014 156.8657881692 242.34666666666666 C 157.173124586912 246.13333333333352 157.326792795768 250.86666666666667 157.63412921348 251.34 C 157.941465631196 251.81333333333333 158.095133840054 251.81333333333333 158.40247025777 251.81333333333333 C 158.709806675482 251.81333333333333 158.86347488433802 251.24533333333332 159.17081130205 250.86666666666667 C 159.478147719762 250.48799999999997 159.63181592861798 250.86666666666667 159.93915234633 249.92000000000002 C 160.246488764042 248.97333333333336 160.400156972898 216.31333333333333 160.70749339061 216.31333333333333 C 161.01482980832603 216.31333333333333 161.16849801718402 249.92000000000002 161.4758344349 249.92000000000002 C 161.78317085261202 249.92000000000002 161.936839061468 217.26 162.24417547918 217.26 C 162.551511896892 217.26 162.70518010574798 241.4 163.01251652346 241.4 C 163.31985294117598 241.4 163.473521150034 216.78666666666666 163.78085756775 216.78666666666666 C 164.088193985462 216.78666666666666 164.241862194318 231.93333333333334 164.54919861203 237.61333333333334 C 164.85653502974202 243.29333333333335 165.010203238598 240.5479999999998 165.31753965631 245.18666666666667 C 165.62487607402198 249.8253333333331 165.77854428287802 260.8066666666667 166.08588070059 260.8066666666667 C 166.39321711830598 260.8066666666667 166.546885327164 260.3333333333759 166.85422174488 253.70666666666665 C 167.16155816259203 247.08000000004262 167.31522637144798 227.67333333333335 167.62256278916 227.67333333333335 C 167.929899206872 227.67333333333335 168.08356741572803 242.63066666673888 168.39090383344 253.70666666666665 C 168.698240251156 264.7826666667388 168.85190846001402 283.05333333333334 169.15924487773 283.05333333333334 C 169.466581295442 283.05333333333334 169.620249504298 283.05333333333334 169.92758592201 255.12666666666667 C 170.234922339722 227.2 170.38859054857798 142.94666666666666 170.69592696629 142.94666666666666 C 171.003263384006 142.94666666666666 171.15693159286403 183.9373333332279 171.46426801058 200.22 C 171.77160442829202 216.50266666656128 171.925272637148 214.51466666666667 172.23260905486 224.36 C 172.53994547257201 234.20533333333333 172.693613681428 249.44666666666666 173.00095009914 249.44666666666666 C 173.30828651685198 249.44666666666666 173.46195472570798 220.57333333333332 173.76929114342 220.57333333333332 C 174.076627561136 220.57333333333332 174.230295769994 267.90666666666664 174.53763218771 267.90666666666664 C 174.844968605422 267.90666666666664 174.998636814278 267.0546666666668 175.30597323199 263.64666666666665 C 175.613309649702 260.2386666666668 175.766977858558 251.81333333333333 176.07431427627 250.86666666666667 C 176.38165069398602 249.92000000000002 176.535318902844 250.86666666666667 176.84265532056 249.92000000000002 C 177.149991738272 248.97333333333336 177.30365994712798 192.45733333333337 177.61099636484 173.24 C 177.918332782552 154.02266666666668 178.072000991408 153.83333333333331 178.37933740912 153.83333333333331 C 178.68667382683202 153.83333333333331 178.84034203568802 253.70666666666665 179.1476784534 255.12666666666667 C 179.45501487111602 256.5466666666667 179.60868307997399 255.50533333332658 179.91601949769 256.5466666666667 C 180.223355915402 257.58799999999326 180.37702412425799 260.3333333333333 180.68436054197 260.3333333333333 C 180.99169695968197 260.3333333333333 181.145365168538 183.18 181.45270158625 183.18 C 181.760038003966 183.18 181.913706212824 226.3479999998957 182.22104263054 242.34666666666666 C 182.52837904825202 258.34533333322906 182.682047257108 263.17333333333335 182.98938367482 263.17333333333335 C 183.29672009253198 263.17333333333335 183.45038830138802 222.46666666666667 183.7577247191 222.46666666666667 C 184.06506113681198 222.46666666666667 184.218729345668 245.66 184.52606576338 245.66 C 184.833402181096 245.66 184.987070389954 230.51333333333332 185.29440680767 230.51333333333332 C 185.601743225382 230.51333333333332 185.755411434238 249.16266666666633 186.06274785195 256.0733333333333 C 186.370084269662 262.9839999999997 186.52375247851802 265.06666666666666 186.83108889623 265.06666666666666 C 187.13842531394602 265.06666666666666 187.292093522804 223.12933333343565 187.59942994052 207.32 C 187.906766358232 191.51066666676903 188.06043456708798 194.35066666666665 188.3677709848 186.01999999999998 C 188.675107402512 177.6893333333333 188.82877561136803 167.56 189.13611202908 165.66666666666666 C 189.44344844679202 163.7733333333333 189.597116655648 163.7733333333333 189.90445307336 163.7733333333333 C 190.21178949107602 163.7733333333333 190.36545769993398 268.8533333333333 190.67279411765 270.2733333333333 C 190.98013053536198 271.6933333333333 191.13379874421798 270.2733333333333 191.44113516193 271.6933333333333 C 191.73566589556998 273.11333333333334 191.88293126239 284 192.17746199603 284 C 192.484798413746 284 192.63846662260397 284 192.94580304032 284 C 193.253139458032 284 193.40680766688803 284 193.7141440846 284 C 194.02148050231202 284 194.175148711168 284 194.48248512888 284 C 194.78982154659602 284 194.94348975545398 284 195.25082617317 284 C 195.55816259088198 284 195.71183079973798 284 196.01916721745 284 C 196.326503635162 284 196.480171844018 284 196.78750826173 284 C 197.09484467944202 284 197.248512888298 284 197.55584930601 284 C 197.863185723726 284 198.01685393258398 284 198.3241903503 284 C 198.631526768012 284 198.785194976868 284 199.09253139458 284 C 199.399867812292 284 199.553536021148 284 199.86087243886 284 C 200.168208856576 284 200.321877065434 284 200.62921348315 284 C 200.93654990086202 284 201.09021810971802 284 201.39755452743 284 C 201.704890945142 284 201.858559153998 284 202.16589557171 284 C 202.473231989422 284 202.62690019827798 284 202.93423661599 284 C 203.24157303370598 284 203.395241242564 284 203.70257766028 284 C 204.00991407799202 284 204.163582286848 284 204.47091870456 284 C 204.77825512227201 284 204.93192333112802 284 205.23925974884 284 C 205.546596166556 284 205.700264375414 284 206.00760079313 284 C 206.31493721084198 284 206.468605419698 284 206.77594183741 284 C 207.08327825512202 284 207.23694646397797 284 207.54428288169 284 C 207.851619299402 284 208.00528750825802 284 208.31262392597 284 C 208.619960343686 284 208.773628552544 284 209.08096497026 284 C 209.38830138797204 284 209.54196959682798 284 209.84930601454 284 C 210.156642432252 284 210.31031064110803 284 210.61764705882 284 C 210.924983476536 284 211.07865168539402 284 211.38598810311 284 C 211.693324520822 284 211.846992729678 284 212.15432914739 284 C 212.47447124917397 284 212.63454230006602 259.65714285716047 212.95468440185 241.4 C 213.262020819562 223.87314285716047 213.415689028418 208.8346666665735 213.72302544613 194.54000000000002 C 214.03036186384603 180.24533333324015 214.184030072704 172.2933333333333 214.49136649042 169.92666666666665 C 214.79870290813201 167.56 214.952371116988 167.56 215.2597075347 167.56 C 215.567043952412 167.56 215.72071216126795 216.78666666666666 216.02804857898 220.1 C 216.33538499669598 223.41333333333333 216.489053205554 223.41333333333333 216.79638962327 223.41333333333333 C 217.10372604098202 223.41333333333333 217.257394249838 211.57999999999998 217.56473066755 211.57999999999998 C 217.87206708526202 211.57999999999998 218.02573529411802 222.94 218.33307171183 222.94 C 218.64040812954198 222.94 218.794076338398 185.54666666666665 219.10141275611 185.54666666666665 C 219.40874917382598 185.54666666666665 219.562417382684 241.4 219.8697538004 241.4 C 220.17709021811203 241.4 220.33075842696798 226.72666666666666 220.63809484468 226.72666666666666 C 220.945431262392 226.72666666666666 221.09909947124802 246.60666666666665 221.40643588896 246.60666666666665 C 221.713772306676 246.60666666666665 221.867440515534 165.66666666666666 222.17477693325 165.66666666666666 C 222.48211335096204 165.66666666666666 222.63578155981799 263.17333333333335 222.94311797753 263.17333333333335 C 223.250454395242 263.17333333333335 223.40412260409798 256.452 223.71145902181 252.76 C 224.018795439522 249.068 224.17246364837803 252.76 224.47980006609 244.71333333333334 C 224.787136483806 236.66666666666669 224.94080469266402 206.37333333333333 225.24814111038 199.74666666666667 C 225.555477528092 193.12 225.709145736948 193.12 226.01648215466 193.12 C 226.32381857237198 193.12 226.47748678122798 225.30666666666664 226.78482319894 230.98666666666665 C 227.092159616656 236.66666666666666 227.24582782551397 236.66666666666666 227.55316424323 236.66666666666666 C 227.860500660942 236.66666666666666 228.014168869798 214.89333333333332 228.32150528751 214.89333333333332 C 228.62884170522202 214.89333333333332 228.782509914078 267.90666666666664 229.08984633179 267.90666666666664 C 229.397182749502 267.90666666666664 229.550850958358 225.78 229.85818737607 225.78 C 230.165523793786 225.78 230.31919200264397 230.03999999997225 230.62652842036 234.3 C 230.933864838072 238.55999999997223 231.087533046928 241.11599999999999 231.39486946464 247.07999999999998 C 231.70220588235202 253.04399999999998 231.855874091208 264.12 232.16321050892 264.12 C 232.47054692663602 264.12 232.62421513549398 258.81866666669384 232.93155155321 254.65333333333334 C 233.238887970922 250.48800000002714 233.39255617977796 243.29333333333332 233.69989259749 243.29333333333332 C 234.00722901520197 243.29333333333332 234.160897224058 255.6 234.46823364177 255.6 C 234.77557005948202 255.6 234.929238268338 236.19333333333333 235.23657468605 236.19333333333333 C 235.543911103766 236.19333333333333 235.69757931262401 245.66 236.00491573034 245.66 C 236.31225214805198 245.66 236.46592035690801 224.36 236.77325677462 224.36 C 237.08059319233197 224.36 237.234261401188 236.28800000003358 237.5415978189 241.4 C 237.848934236616 246.51200000003357 238.002602445474 249.92000000000002 238.30993886319 249.92000000000002 C 238.617275280902 249.92000000000002 238.77094348975803 228.14666666666668 239.07827990747 228.14666666666668 C 239.38561632518199 228.14666666666668 239.53928453403802 260.8066666666667 239.84662095175 260.8066666666667 C 240.15395736946203 260.8066666666667 240.30762557831798 238.56 240.61496199603 238.56 C 240.922298413746 238.56 241.07596662260397 243.19866666664444 241.38330304032 246.60666666666665 C 241.690639458032 250.01466666664444 241.84430766688803 255.6 242.1516440846 255.6 C 242.458980502312 255.6 242.612648711168 255.03199999992654 242.91998512888 243.76666666666665 C 243.22732154659602 232.50133333325985 243.38098975545398 199.2733333333333 243.68832617317 199.2733333333333 C 243.99566259088198 199.2733333333333 244.14933079973798 221.33066666666667 244.45666721745 232.40666666666667 C 244.764003635162 243.48266666666666 244.917671844018 254.65333333333334 245.22500826173 254.65333333333334 C 245.51953899537403 254.65333333333334 245.66680436219605 254.65333333333334 245.96133509584 250.86666666666667 C 246.268671513552 247.08 246.42233972240803 188.86 246.72967614012 188.86 C 247.03701255783199 188.86 247.190680766688 250.86666666666667 247.4980171844 250.86666666666667 C 247.805353602112 250.86666666666667 247.95902181096798 250.48799999998116 248.26635822868 247.55333333333334 C 248.57369464639595 244.6186666666478 248.72736285525397 236.19333333333333 249.03469927297 236.19333333333333 C 249.342035690682 236.19333333333333 249.495703899538 257.49333333333334 249.80304031725 257.49333333333334 C 250.11037673496202 257.49333333333334 250.264044943818 228.14666666666668 250.57138136153 228.14666666666668 C 250.87871777924602 228.14666666666668 251.03238598810398 259.38666666666666 251.33972240582 259.38666666666666 C 251.647058823532 259.38666666666666 251.800727032388 240.54799999999966 252.1080634501 232.88 C 252.415399867812 225.21199999999965 252.569068076668 225.11733333333353 252.87640449438 221.04666666666665 C 253.183740912092 216.97600000000014 253.337409120948 217.6386666666333 253.64474553866 212.52666666666664 C 253.95208195637602 207.41466666663334 254.10575016523399 195.48666666666665 254.41308658295 195.48666666666665 C 254.720423000662 195.48666666666665 254.87409120951799 258.44 255.18142762723 258.44 C 255.488764044942 258.44 255.64243225379795 205.42666666666668 255.94976867151 205.42666666666668 C 256.257105089226 205.42666666666668 256.410773298084 224.83333333333331 256.7181097158 224.83333333333331 C 257.025446133512 224.83333333333331 257.179114342368 224.83333333333331 257.48645076008 216.31333333333333 C 257.793787177792 207.79333333333335 257.947455386648 179.39333333333332 258.25479180436 179.39333333333332 C 258.562128222076 179.39333333333332 258.715796430934 234.3 259.02313284865 234.3 C 259.330469266362 234.3 259.484137475218 221.99333333333334 259.79147389293 221.99333333333334 C 260.09881031064197 221.99333333333334 260.25247851949797 246.13333333333335 260.55981493721 247.55333333333334 C 260.867151354922 248.97333333333333 261.020819563778 248.97333333333333 261.32815598149 248.97333333333333 C 261.63549239920604 248.97333333333333 261.789160608064 163.3 262.09649702578 163.3 C 262.40383344349203 163.3 262.55750165234804 169.45333333333454 262.86483807006 182.23333333333335 C 263.172174487772 195.01333333333451 263.325842696628 219.1533333333333 263.63317911434 227.2 C 263.940515532056 235.24666666666667 264.094183740914 234.77333333333334 264.40152015863 235.24666666666667 C 264.708856576342 235.72 264.862524785198 235.24666666666667 265.16986120291 235.72 C 265.477197620622 236.19333333333333 265.630865829478 239.22266666666664 265.93820224719 242.34666666666666 C 266.245538664902 245.47066666666666 266.399206873758 251.34 266.70654329147 251.34 C 267.01387970918597 251.34 267.167547918044 209.68666666666667 267.47488433576 196.43333333333334 C 267.782220753472 183.18 267.93588896232797 183.18 268.24322538004 183.18 C 268.550561797752 183.18 268.704230006608 208.73999999999995 269.01156642432 212.52666666666664 C 269.318902842036 216.31333333333333 269.47257105089403 216.31333333333333 269.77990746861 216.31333333333333 C 270.08724388632197 216.31333333333333 270.24091209517803 146.26 270.54824851289 146.26 C 270.855584930602 146.26 271.009253139458 272.1666666666667 271.31658955717 272.1666666666667 C 271.623925974882 272.1666666666667 271.777594183738 272.1666666666667 272.08493060145 253.70666666666665 C 272.39226701916607 235.2466666666666 272.54593522802395 134.42666666666665 272.85327164574 134.42666666666665 C 273.160608063452 134.42666666666665 273.314276272308 176.45866666666666 273.62161269002 193.59333333333333 C 273.928949107732 210.728 274.08261731658797 212.5266666667164 274.3899537343 220.1 C 274.697290152016 227.67333333338303 274.85095836087396 231.45999999999998 275.15829477859 231.45999999999998 C 275.465631196302 231.45999999999998 275.619299405158 179.86666666666667 275.92663582287 179.86666666666667 C 276.233972240582 179.86666666666667 276.387640449438 218.86933333333332 276.69497686715 232.40666666666667 C 277.002313284862 245.94400000000002 277.155981493718 247.55333333333334 277.46331791143 247.55333333333334 C 277.77065432914594 247.55333333333334 277.924322538004 209.2133333333333 278.23165895572 209.2133333333333 C 278.538995373432 209.2133333333333 278.692663582288 231.45999999999998 279 231.45999999999998 C 279.307336417712 231.45999999999998 279.461004626568 219.62666666666667 279.76834104428 219.62666666666667 C 280.075677461996 219.62666666666667 280.22934567085406 220.19466666659477 280.53668208857 231.45999999999998 C 280.844018506282 242.72533333326143 280.997686715138 275.9533333333333 281.30502313285 275.9533333333333 C 281.612359550562 275.9533333333333 281.766027759418 243.29333333333332 282.07336417713 235.72 C 282.380700594842 228.14666666666668 282.534368803698 228.14666666666668 282.84170522141 228.14666666666668 C 283.14904163912604 228.14666666666668 283.302709847984 230.98666666666665 283.6100462657 230.98666666666665 C 283.91738268341203 230.98666666666665 284.071050892268 222.94 284.37838730998 222.94 C 284.685723727692 222.94 284.839391936548 223.88666666666666 285.14672835426 223.88666666666666 C 285.45406477197605 223.88666666666666 285.60773298083393 177.02666666666667 285.91506939855 177.02666666666667 C 286.222405816262 177.02666666666667 286.376074025118 256.0733333333333 286.68341044283 256.0733333333333 C 286.990746860542 256.0733333333333 287.144415069398 252.09733333333375 287.45175148711 247.55333333333334 C 287.75908790482197 243.00933333333376 287.91275611367803 245.9439999999173 288.22009253139 233.35333333333332 C 288.52742894910597 220.762666666584 288.681097157964 184.6 288.98843357568 184.6 C 289.295769993392 184.6 289.449438202248 236.19333333333333 289.75677461996 236.19333333333333 C 290.06411103767203 236.19333333333333 290.217779246528 224.54933333330146 290.52511566424 219.62666666666667 C 290.832452081956 214.70399999996812 290.98612029081403 211.57999999999998 291.29345670853 211.57999999999998 C 291.600793126242 211.57999999999998 291.754461335098 215.74533333333332 292.06179775281 223.88666666666666 C 292.369134170522 232.028 292.522802379378 252.28666666666666 292.83013879709 252.28666666666666 C 293.137475214802 252.28666666666666 293.291143423658 234.2999999999295 293.59847984137 223.41333333333333 C 293.905816259086 212.52666666659618 294.059484467944 197.85333333333332 294.36682088566 197.85333333333332 C 294.674157303372 197.85333333333332 294.827825512228 259.86 295.13516192994 259.86 C 295.44249834765196 259.86 295.59616655650797 232.88 295.90350297422 232.88 C 296.210839391936 232.88 296.36450760079396 252.76 296.67184401851 252.76 C 296.979180436222 252.76 297.132848645078 247.07999999999998 297.44018506279 247.07999999999998 C 297.74752148050203 247.07999999999998 297.90118968935803 279.26666666666665 298.20852610707 279.26666666666665 C 298.515862524782 279.26666666666665 298.669530733638 269.7999999999448 298.97686715135 261.28 C 299.284203569066 252.75999999994482 299.437871777924 256.8306666667972 299.74520819564 236.66666666666666 C 300.052544613352 216.5026666667972 300.206212822208 160.45999999999998 300.51354923992 160.45999999999998 C 300.820885657632 160.45999999999998 300.974553866488 203.91200000012012 301.2818902842 222.46666666666667 C 301.589226701916 241.02133333345344 301.742894910774 253.23333333333332 302.05023132849 253.23333333333332 C 302.357567746202 253.23333333333332 302.511235955058 219.1533333333333 302.81857237277 219.1533333333333 C 303.125908790482 219.1533333333333 303.279576999338 271.22 303.58691341705 271.22 C 303.894249834766 271.22 304.047918043624 262.2266666666667 304.35525446134 262.2266666666667 C 304.662590879052 262.2266666666667 304.816259087908 263.64666666666665 305.12359550562 263.64666666666665 C 305.43093192333197 263.64666666666665 305.58460013218803 248.02666666666667 305.8919365499 248.02666666666667 C 306.199272967612 248.02666666666667 306.352941176468 249.25733333334068 306.66027759418 250.39333333333332 C 306.967614011896 251.52933333334067 307.12128222075404 253.70666666666665 307.42861863847 253.70666666666665 C 307.73595505618204 253.70666666666665 307.889623265038 232.40666666666667 308.19695968275 232.40666666666667 C 308.504296100462 232.40666666666667 308.657964309318 280.2133333333333 308.96530072703 280.2133333333333 C 309.272637144746 280.2133333333333 309.426305353604 274.0600000000245 309.73364177132 270.2733333333333 C 310.040978189032 266.4866666666912 310.194646397888 261.7533333333333 310.5019828156 261.28 C 310.809319233312 260.8066666666667 310.962987442168 261.28 311.27032385988 260.8066666666667 C 311.577660277592 260.33333333333337 311.731328486448 244.71333333333334 312.03866490416 244.71333333333334 C 312.346001321876 244.71333333333334 312.49966953073397 244.71333333333334 312.80700594845 247.07999999999998 C 313.11434236616196 249.44666666666663 313.26801057501797 265.06666666666666 313.57534699273 265.06666666666666 C 313.882683410442 265.06666666666666 314.036351619298 265.06666666666666 314.34368803701 263.64666666666665 C 314.65102445472604 262.22666666666663 314.804692663584 225.30666666666667 315.1120290813 225.30666666666667 C 315.41936549901203 225.30666666666667 315.57303370786803 253.99066666666752 315.88037012558 263.64666666666665 C 316.187706543292 273.3026666666675 316.341374752148 273.58666666666664 316.64871116986 273.58666666666664 C 316.956047587572 273.58666666666664 317.109715796428 237.14 317.41705221414 237.14 C 317.72438863185596 237.14 317.878056840714 272.64 318.18539325843 272.64 C 318.492729676142 272.64 318.646397884998 269.8 318.95373430271 269.8 C 319.261070720422 269.8 319.414738929278 281.16 319.72207534699 281.16 C 320.02941176470597 281.16 320.183079973564 248.02666666666667 320.49041639128 248.02666666666667 C 320.797752808992 248.02666666666667 320.951421017848 262.8893333333333 321.25875743556 267.90666666666664 C 321.56609385327204 272.924 321.71976206212804 273.11333333333334 322.02709847984 273.11333333333334 C 322.334434897552 273.11333333333334 322.488103106408 258.44 322.79543952412 258.44 C 323.102775941836 258.44 323.256444150694 275.9533333333333 323.56378056841 275.9533333333333 C 323.871116986122 275.9533333333333 324.024785194978 263.17333333333335 324.33212161269 263.17333333333335 C 324.639458030402 263.17333333333335 324.793126239258 278.32 325.10046265697 278.32 C 325.40779907468607 278.32 325.56146728354395 278.32 325.86880370126 278.32 C 326.176140118972 278.32 326.329808327828 275.19599999999997 326.63714474554 270.74666666666667 C 326.944481163252 266.2973333333333 327.09814937210797 265.53999999999996 327.40548578982 256.0733333333333 C 327.712822207532 246.60666666666663 327.866490416388 248.8786666665018 328.1738268341 223.41333333333333 C 328.481163251816 197.94799999983513 328.63483146067404 128.74666666666667 328.94216787839 128.74666666666667 C 329.249504296102 128.74666666666667 329.403172504958 229.56666666666666 329.71050892267 242.34666666666666 C 330.017845340382 255.12666666666667 330.171513549238 251.24533333335808 330.47884996695 255.12666666666667 C 330.78618638466594 259.00800000002477 330.939854593524 259.6706666666532 331.24719101124 261.75333333333333 C 331.554527428952 263.83599999998654 331.708195637808 265.54 332.01553205552 265.54 C 332.322868473232 265.54 332.476536682088 235.72 332.7838730998 235.72 C 333.091209517512 235.72 333.24487772636803 266.4866666666667 333.55221414408 266.4866666666667 C 333.859550561796 266.4866666666667 334.013218770654 195.95999999999998 334.32055518837 195.95999999999998 C 334.627891606082 195.95999999999998 334.781559814938 237.7080000000015 335.08889623265 253.70666666666665 C 335.396232650362 269.7053333333348 335.549900859218 275.9533333333333 335.85723727693 275.9533333333333 C 336.16457369464604 275.9533333333333 336.318241903504 263.36266666669894 336.62557832122 258.44 C 336.932914738932 253.51733333336568 337.086582947788 251.34 337.3939193655 251.34 C 337.701255783212 251.34 337.854923992068 259.3866666666667 338.16226040978 262.2266666666667 C 338.469596827492 265.0666666666667 338.623265036348 265.54 338.93060145406 265.54 C 339.237937871776 265.54 339.391606080634 257.9666666666942 339.69894249835 253.70666666666665 C 340.006278916062 249.44666666669426 340.159947124918 244.24 340.46728354263 244.24 C 340.77461996034197 244.24 340.928288169198 274.53333333333336 341.23562458691 274.53333333333336 C 341.54296100462597 274.53333333333336 341.696629213484 266.4866666666667 342.0039656312 266.4866666666667 C 342.31130204891195 266.4866666666667 342.464970257768 276.9 342.77230667548 276.9 C 343.07964309319203 276.9 343.233311302048 251.34 343.54064771976 251.34 C 343.847984137472 251.34 344.00165234632806 278.79333333333335 344.30898876404 278.79333333333335 C 344.616325181756 278.79333333333335 344.769993390614 242.34666666666666 345.07732980833 242.34666666666666 C 345.384666226042 242.34666666666666 345.538334434898 242.34666666666666 345.84567085261 246.13333333333333 C 346.153007270322 249.92 346.306675479178 259.1973333333652 346.61401189689 264.12 C 346.921348314606 269.04266666669855 347.075016523464 270.74666666666667 347.38235294118 270.74666666666667 C 347.689689358892 270.74666666666667 347.843357567748 260.5226666666673 348.15069398546 253.70666666666665 C 348.45803040317196 246.89066666666727 348.61169861202796 246.0386666666051 348.91903502974 236.66666666666666 C 349.226371447456 227.2946666666051 349.38003965631395 206.84666666666666 349.68737607403 206.84666666666666 C 349.994712491742 206.84666666666666 350.148380700598 240.45333333333332 350.45571711831 247.07999999999998 C 350.763053536022 253.70666666666665 350.91672174487803 247.07999999999998 351.22405816259 253.70666666666665 C 351.531394580302 260.3333333333333 351.685062789158 283.52666666666664 351.99239920687 283.52666666666664 C 352.299735624586 283.52666666666664 352.453403833444 283.52666666666664 352.76074025116 275.00666666666666 C 353.068076668872 266.4866666666667 353.221744877728 250.488 353.52908129544 237.14 C 353.836417713152 223.79199999999997 353.990085922008 208.26666666666665 354.29742233972 208.26666666666665 C 354.604758757436 208.26666666666665 354.758426966294 259.38666666666666 355.06576338401 259.38666666666666 C 355.37309980172193 259.38666666666666 355.526768010578 180.81333333333333 355.83410442829 180.81333333333333 C 356.141440846002 180.81333333333333 356.295109054858 268.38 356.60244547257 274.06 C 356.90978189028203 279.74 357.06345009913804 279.74 357.37078651685 279.74 C 357.678122934566 279.74 357.831791143424 268.85333333333335 358.13912756114 268.85333333333335 C 358.44646397885197 268.85333333333335 358.600132187708 280.68666666666667 358.90746860542 280.68666666666667 C 359.214805023132 280.68666666666667 359.368473231988 261.8479999999442 359.6758096497 253.23333333333332 C 359.983146067416 244.61866666661092 360.13681427627404 237.61333333333334 360.44415069399 237.61333333333334 C 360.75148711170203 237.61333333333334 360.905155320558 284 361.21249173827 284 C 361.519828155982 284 361.67349636483806 284 361.98083278255 284 C 362.288169200262 284 362.44183740911797 284 362.74917382683 284 C 363.056510244546 284 363.21017845340396 284 363.51751487112 284 C 363.824851288832 284 363.978519497688 284 364.2858559154 284 C 364.593192333112 284 364.746860541968 284 365.05419695968 284 C 365.361533377396 284 365.51520158625397 284 365.82253800397 284 C 366.12987442168196 284 366.28354263053797 284 366.59087904825 284 C 366.898215465962 284 367.051883674818 284 367.35922009253 284 C 367.666556510242 284 367.820224719098 284 368.12756113681 284 C 368.434897554526 284 368.58856576338405 284 368.8959021811 284 C 369.203238598812 284 369.356906807668 284 369.66424322538 284 C 369.971579643092 284 370.125247851948 284 370.43258426966 284 C 370.73992068737596 284 370.893588896234 284 371.20092531395 284 C 371.508261731662 284 371.661929940518 284 371.96926635823 284 C 372.276602775942 284 372.43027098479797 284 372.73760740251 284 C 373.04494382022193 284 373.198612029078 284 373.50594844679 284 C 373.81328486450604 284 373.96695307336404 284 374.27428949108 284 C 374.58162590879203 284 374.73529411764804 284 375.04263053536 284 C 375.349966953072 284 375.503635161928 284 375.81097157964 284 C 376.118307997356 284 376.271976206214 284 376.57931262393 284 C 376.886649041642 284 377.040317250498 284 377.34765366821 284 C 377.65499008592195 284 377.808658294778 284 378.11599471249 284 C 378.42333113020203 284 378.576999339058 284 378.88433575677 284 C 379.191672174486 284 379.345340383344 284 379.65267680106 284 C 379.960013218772 284 380.11368142762797 284 380.42101784534 284 C 380.728354263052 284 380.882022471908 284 381.18935888962 284 C 381.496695307336 284 381.65036351619403 284 381.95769993391 284 C 382.265036351622 284 382.418704560478 275.48 382.72604097819 275.48 C 383.033377395902 275.48 383.187045604758 282.58 383.49438202247 282.58 C 383.801718440182 282.58 383.9553866490381 255.6 384.26272306675 255.6 C 384.570059484466 255.6 384.723727693324 272.1666666666667 385.03106411104 272.1666666666667 C 385.338400528752 272.1666666666667 385.492068737608 257.6826666666667 385.79940515532 245.18666666666667 C 386.106741573032 232.69066666666666 386.26040978188803 209.68666666666667 386.5677461996 209.68666666666667 C 386.875082617316 209.68666666666667 387.028750826174 251.81333333333333 387.33608724389 251.81333333333333 C 387.643423661602 251.81333333333333 387.797091870458 229.56666666666666 388.10442828817 229.56666666666666 C 388.411764705882 229.56666666666666 388.565432914738 230.41866666666667 388.87276933245 240.45333333333332 C 389.180105750162 250.488 389.333773959018 279.74 389.64111037673 279.74 C 389.948446794446 279.74 390.102115003304 279.5506666667214 390.40945142102 271.22 C 390.71678783873193 262.88933333338804 390.870456047588 249.25733333333332 391.1777924653 238.08666666666667 C 391.485128883012 226.916 391.638797091868 221.5199999999602 391.94613350958 215.36666666666667 C 392.253469927296 209.21333333329352 392.407138136154 207.32 392.71447455387 207.32 C 393.021810971582 207.32 393.175479180438 259.38666666666666 393.48281559815 259.38666666666666 C 393.79015201586196 259.38666666666666 393.943820224718 244.71333333333334 394.25115664243 244.71333333333334 C 394.55849306014596 244.71333333333334 394.712161269004 261.2799999999503 395.01949768672 268.85333333333335 C 395.32683410443195 276.42666666661694 395.480502313288 282.58 395.787838731 282.58 C 396.09517514871203 282.58 396.248843357568 266.4866666666667 396.55617977528 266.4866666666667 C 396.863516192992 266.4866666666667 397.01718440184806 270.2733333333333 397.32452081956 270.2733333333333 C 397.631857237276 270.2733333333333 397.785525446134 247.55333333333334 398.09286186385 247.55333333333334 C 398.400198281562 247.55333333333334 398.553866490418 268.85333333333335 398.86120290813 268.85333333333335 C 399.168539325842 268.85333333333335 399.322207534698 263.64666666666665 399.62954395241 263.64666666666665 C 399.936880370126 263.64666666666665 400.090548578984 278.79333333333335 400.3978849967 278.79333333333335 C 400.705221414412 278.79333333333335 400.858889623268 278.79333333333335 401.16622604098 275.9533333333333 C 401.473562458692 273.1133333333333 401.6272306675481 150.52 401.93456708526 150.52 C 402.24190350297204 150.52 402.395571711828 254.65333333333334 402.70290812954 254.65333333333334 C 403.01024454725604 254.65333333333334 403.163912756114 207.41466666680094 403.47124917383 186.96666666666667 C 403.778585591542 166.51866666680093 403.93225380039803 152.41333333333333 404.23959021811 152.41333333333333 C 404.546926635822 152.41333333333333 404.700594844678 224.9280000001679 405.00793126239 250.86666666666667 C 405.315267680106 276.80533333350127 405.468935888964 282.1066666666667 405.77627230668 282.1066666666667 C 406.083608724392 282.1066666666667 406.237276933248 267.812 406.54461335096 256.5466666666667 C 406.851949768672 245.28133333333335 407.005617977528 225.78 407.31295439524 225.78 C 407.620290812952 225.78 407.77395902180797 249.06800000006677 408.08129543952 259.38666666666666 C 408.38863185723596 269.7053333334001 408.542300066094 277.37333333333333 408.84963648381 277.37333333333333 C 409.156972901522 277.37333333333333 409.310641110378 110.75999999999999 409.61797752809 110.75999999999999 C 409.92531394580203 110.75999999999999 410.07898215465804 230.04000000000002 410.38631857237 255.12666666666667 C 410.693654990086 280.2133333333333 410.847323198944 280.2133333333333 411.15465961666 280.2133333333333 C 411.46199603437196 280.2133333333333 411.615664243228 236.66666666666666 411.92300066094 236.66666666666666 C 412.230337078652 236.66666666666666 412.384005287508 254.65333333333334 412.69134170522 254.65333333333334 C 412.99867812293195 254.65333333333334 413.15234633178807 253.23333333333332 413.4596827495 253.23333333333332 C 413.76701916721606 253.23333333333332 413.92068737607394 258.91333333333336 414.22802379379 258.91333333333336 C 414.53536021150194 258.91333333333336 414.68902842035806 214.42000000000002 414.99636483807 214.42000000000002 C 415.303701255782 214.42000000000002 415.457369464638 222.37200000006047 415.76470588235 231.45999999999998 C 416.072042300066 240.5480000000605 416.225710508924 250.10933333327023 416.53304692664 259.86 C 416.840383344352 269.61066666660355 416.994051553208 280.2133333333333 417.30138797092 280.2133333333333 C 417.60872438863197 280.2133333333333 417.762392597488 222.94 418.0697290152 222.94 C 418.377065432912 222.94 418.530733641768 279.26666666666665 418.83807005948 279.26666666666665 C 419.14540647719593 279.26666666666665 419.299074686054 278.0360000000224 419.60641110377 274.53333333333336 C 419.91374752148204 271.03066666668906 420.067415730338 261.75333333333333 420.37475214805 261.75333333333333 C 420.682088565762 261.75333333333333 420.83575677461795 281.6333333333333 421.14309319233 281.6333333333333 C 421.450429610046 281.6333333333333 421.60409781890405 275.0066666666909 421.91143423662 271.22 C 422.218770654332 267.43333333335755 422.372438863188 266.58133333333336 422.6797752809 262.7 C 422.987111698612 258.8186666666667 423.140779907468 251.81333333333333 423.44811632518 251.81333333333333 C 423.755452742892 251.81333333333333 423.909120951748 259.38666666666666 424.21645736946 259.38666666666666 C 424.523793787176 259.38666666666666 424.67746199603397 238.56 424.98479841375 238.56 C 425.29213483146196 238.56 425.44580304031797 256.6413333333327 425.75313945803 263.64666666666665 C 426.06047587574193 270.6519999999993 426.21414408459805 273.58666666666664 426.52148050231 273.58666666666664 C 426.82881692002604 273.58666666666664 426.98248512888404 255.12666666666667 427.2898215466 255.12666666666667 C 427.59715796431203 255.12666666666667 427.75082617316804 275.00666666666666 428.05816259088 275.00666666666666 C 428.378304692664 275.00666666666666 428.538375743556 203.06 428.85851784534 203.06 C 429.165854263052 203.06 429.31952247190804 245.66 429.62685888962 245.66 C 429.934195307336 245.66 430.08786351619403 135.84666666666666 430.39519993391 135.84666666666666 C 430.702536351622 135.84666666666666 430.856204560478 254.18 431.16354097819 254.18 C 431.470877395902 254.18 431.624545604758 245.66 431.93188202247 245.66 C 432.23921844018207 245.66 432.3928866490381 279.26666666666665 432.70022306675 279.26666666666665 C 433.007559484466 279.26666666666665 433.16122769332395 274.9120000000149 433.46856411104 272.64 C 433.775900528752 270.3680000000149 433.92956873760795 267.90666666666664 434.23690515532 267.90666666666664 C 434.544241573032 267.90666666666664 434.69790978188803 267.90666666666664 435.0052461996 267.90666666666664 C 435.312582617316 267.90666666666664 435.466250826174 277.37333333333333 435.77358724389 277.37333333333333 C 436.080923661602 277.37333333333333 436.234591870458 267.90666666666664 436.54192828817 267.90666666666664 C 436.849264705882 267.90666666666664 437.002932914738 278.32 437.31026933245 278.32 C 437.61760575016194 278.32 437.771273959018 270.4626666666111 438.07861037673 261.75333333333333 C 438.38594679444594 253.04399999994442 438.539615003304 249.06800000009383 438.84695142102 234.7733333333333 C 439.15428783873193 220.4786666667605 439.30795604758805 190.28 439.6152924653 190.28 C 439.922628883012 190.28 440.076297091868 222.37200000009562 440.38363350958 237.14 C 440.690969927296 251.90800000009557 440.844638136154 255.69466666661214 441.15197455387 264.12 C 441.459310971582 272.54533333327885 441.612979180438 279.26666666666665 441.92031559815 279.26666666666665 C 442.22765201586196 279.26666666666665 442.381320224718 267.43333333333334 442.68865664243 267.43333333333334 C 442.99599306014596 267.43333333333334 443.149661269004 276.90000000000003 443.45699768672 278.79333333333335 C 443.76433410443195 280.68666666666667 443.91800231328796 280.68666666666667 444.225338731 280.68666666666667 C 444.53267514871203 280.68666666666667 444.686343357568 278.32 444.99367977528 278.32 C 445.30101619299205 278.32 445.45468440184806 278.32 445.76202081956 278.79333333333335 C 446.069357237276 279.2666666666667 446.22302544613393 282.1066666666667 446.53036186385 282.1066666666667 C 446.837698281562 282.1066666666667 446.99136649041793 280.59200000000016 447.29870290813 278.79333333333335 C 447.606039325842 276.99466666666683 447.759707534698 274.9119999999884 448.06704395241 273.11333333333334 C 448.374380370126 271.31466666665506 448.528048578984 269.8 448.8353849967 269.8 C 449.142721414412 269.8 449.296389623268 271.6933333333333 449.60372604098 271.6933333333333 C 449.91106245869196 271.6933333333333 450.0647306675481 182.70666666666665 450.37206708526 182.70666666666665 C 450.67940350297204 182.70666666666665 450.83307171182804 275.9533333333333 451.14040812954 275.9533333333333 C 451.44774454725604 275.9533333333333 451.60141275611403 275.9533333333333 451.90874917383 252.76 C 452.216085591542 229.56666666666666 452.36975380039803 140.58 452.67709021811 140.58 C 452.984426635822 140.58 453.138094844678 260.3333333333333 453.44543126239 260.3333333333333 C 453.752767680106 260.3333333333333 453.906435888964 248.02666666666667 454.21377230668 248.02666666666667 C 454.521108724392 248.02666666666667 454.674776933248 275.00666666666666 454.98211335096 275.00666666666666 C 455.28944976867206 275.00666666666666 455.443117977528 265.1613333333333 455.75045439524 261.28 C 456.057790812952 257.3986666666666 456.21145902180797 257.8719999999853 456.51879543952 255.6 C 456.82613185723596 253.3279999999853 456.97980006609396 255.6 457.28713648381 249.92000000000002 C 457.594472901522 244.24000000000004 457.748141110378 226.72666666666666 458.05547752809 226.72666666666666 C 458.36281394580203 226.72666666666666 458.51648215465804 227.1053333333868 458.82381857237 235.24666666666667 C 459.131154990086 243.38800000005344 459.284823198944 267.43333333333334 459.59215961666 267.43333333333334 C 459.89949603437196 267.43333333333334 460.053164243228 267.43333333333334 460.36050066094 267.43333333333334 C 460.667837078652 267.43333333333334 460.821505287508 213.94666666666666 461.12884170522 213.94666666666666 C 461.43617812293195 213.94666666666666 461.58984633178807 227.2 461.8971827495 229.56666666666666 C 462.20451916721606 231.93333333333334 462.35818737607394 229.56666666666666 462.66552379379 231.93333333333334 C 462.97286021150194 234.3 463.12652842035806 243.86133333333402 463.43386483807 250.86666666666667 C 463.741201255782 257.87200000000064 463.894869464638 261.848000000034 464.20220588235 266.96 C 464.509542300066 272.072000000034 464.663210508924 276.4266666666667 464.97054692664 276.4266666666667 C 465.277883344352 276.4266666666667 465.431551553208 249.92 465.73888797092 249.44666666666666 C 466.04622438863197 248.97333333333333 466.199892597488 249.44666666666666 466.5072290152 248.97333333333333 C 466.814565432912 248.5 466.968233641768 229.56666666666666 467.27557005948 229.56666666666666 C 467.58290647719593 229.56666666666666 467.736574686054 258.91333333333336 468.04391110377 258.91333333333336 C 468.35124752148204 258.91333333333336 468.504915730338 178.92 468.81225214805 178.92 C 469.119588565762 178.92 469.27325677461795 243.2933333333333 469.58059319233 252.76 C 469.887929610046 262.2266666666667 470.04159781890405 261.7533333333334 470.34893423662 262.2266666666667 C 470.656270654332 262.7 470.809938863188 262.7 471.1172752809 262.7 C 471.424611698612 262.7 471.578279907468 211.10666666666665 471.88561632518 211.10666666666665 C 472.192952742892 211.10666666666665 472.346620951748 273.11333333333334 472.65395736946 273.11333333333334 C 472.961293787176 273.11333333333334 473.11496199603397 259.38666666666666 473.42229841375 259.38666666666666 C 473.72963483146196 259.38666666666666 473.88330304031797 281.16 474.19063945803 281.16 C 474.49797587574193 281.16 474.65164408459805 256.0733333333333 474.95898050231 256.0733333333333 C 475.26631692002604 256.0733333333333 475.41998512888404 274.53333333333336 475.7273215466 274.53333333333336 C 476.03465796431203 274.53333333333336 476.18832617316804 270.08399999999904 476.49566259088 259.86 C 476.802999008592 249.6359999999991 476.956667217448 223.41333333333333 477.26400363516 223.41333333333333 C 477.57134005287196 223.41333333333333 477.725008261728 270.74666666666667 478.03234467944 270.74666666666667 C 478.33968109715596 270.74666666666667 478.493349306014 244.24 478.80068572373 244.24 C 479.10802214144195 244.24 479.26169035029795 254.65333333333334 479.56902676801 254.65333333333334 C 479.876363185722 254.65333333333334 480.030031394578 244.24 480.33736781229 244.24 C 480.644704230006 244.24 480.798372438864 252.85466666661824 481.10570885658 260.3333333333333 C 481.413045274292 267.8119999999516 481.56671348314796 281.6333333333333 481.87404990086 281.6333333333333 C 482.181386318572 281.6333333333333 482.3350545274279 271.22 482.64239094514 271.22 C 482.949727362856 271.22 483.10339557171403 273.58666666665425 483.41073198943 275.48 C 483.71806840714197 277.37333333332094 483.871736615998 280.68666666666667 484.17907303371 280.68666666666667 C 484.486409451422 280.68666666666667 484.640077660278 264.12 484.94741407799 264.12 C 485.25475049570196 264.12 485.4084187045581 274.53333333333336 485.71575512227 274.53333333333336 C 486.023091539986 274.53333333333336 486.17675974884406 268.85333333333335 486.48409616656 268.85333333333335 C 486.791432584272 268.85333333333335 486.94510079312806 269.4213333333336 487.25243721084 272.1666666666667 C 487.559773628552 274.91200000000026 487.713441837408 282.58 488.02077825512 282.58 C 488.328114672836 282.58 488.481782881694 280.87600000002266 488.78911929941 277.37333333333333 C 489.096455717122 273.8706666666893 489.250123925978 265.06666666666666 489.55746034369 265.06666666666666 C 489.864796761402 265.06666666666666 490.018464970258 272.166666666667 490.32580138797 275.9533333333333 C 490.63313780568205 279.74000000000035 490.786806014538 284 491.09414243225 284 C 491.40147884996605 284 491.555147058824 266.0133333333333 491.86248347654 266.0133333333333 C 492.16981989425193 266.0133333333333 492.32348810310793 284 492.63082452082 284 C 492.938160938532 284 493.091829147388 283.9999999999908 493.3991655651 282.58 C 493.706501982816 281.15999999999076 493.860170191674 276.9 494.16750660939 276.9 C 494.474843027102 276.9 494.628511235958 283.52666666666664 494.93584765367 283.52666666666664 C 495.24318407138196 283.52666666666664 495.396852280238 280.68666666666667 495.70418869795 280.68666666666667 C 496.011525115662 280.68666666666667 496.165193324518 282.1066666666667 496.47252974223 282.1066666666667 C 496.779866159946 282.1066666666667 496.9335343688041 271.6933333333333 497.24087078652 271.6933333333333 C 497.548207204232 271.6933333333333 497.701875413088 276.4266666666667 498.0092118308 276.4266666666667 C 498.31654824851194 276.4266666666667 498.47021645736805 270.4626666665971 498.77755287508 259.86 C 499.084889292796 249.25733333326374 499.23855750165404 223.41333333333333 499.54589391937 223.41333333333333 C 499.853230337082 223.41333333333333 500.00689854593804 276.9 500.31423496365 276.9 C 500.621571381362 276.9 500.775239590218 256.5466666666667 501.08257600793 256.5466666666667 C 501.38991242564197 256.5466666666667 501.54358063449797 273.1133333333333 501.85091705221 276.9 C 502.15825346992597 280.68666666666667 502.31192167878396 279.455999999992 502.6192580965 280.68666666666667 C 502.92659451421207 281.91733333332536 503.0802627230681 283.05333333333334 503.38759914078 283.05333333333334 C 503.69493555849203 283.05333333333334 503.848603767348 283.05333333333334 504.15594018506 283.05333333333334 C 504.46327660277603 283.05333333333334 504.61694481163397 255.6 504.92428122935 255.6 C 505.231617647062 255.6 505.385285855918 280.68666666666667 505.69262227363 280.68666666666667 C 505.999958691342 280.68666666666667 506.153626900198 266.0133333333333 506.46096331791 266.0133333333333 C 506.768299735622 266.0133333333333 506.921967944478 283.52666666666664 507.22930436219 283.52666666666664 C 507.53664077990595 283.52666666666664 507.690308988764 275.9533333333333 507.99764540648 275.9533333333333 C 508.30498182419194 275.9533333333333 508.458650033048 279.4559999999999 508.76598645076 280.68666666666667 C 509.07332286847196 281.9173333333332 509.22699107732797 281.5386666666704 509.53432749504 282.1066666666667 C 509.84166391275596 282.67466666667036 509.99533212161407 283.52666666666664 510.30266853933 283.52666666666664 C 510.610004957042 283.52666666666664 510.763673165898 281.444 511.07100958361 280.68666666666667 C 511.37834600132203 279.9293333333334 511.53201421017803 280.68666666666667 511.83935062789 279.74 C 512.146687045602 278.79333333333335 512.300355254458 274.81733333330624 512.60769167217 270.74666666666667 C 512.9150280898859 266.67599999997293 513.068696298744 259.38666666666666 513.37603271646 259.38666666666666 C 513.683369134172 259.38666666666666 513.837037343028 275.9533333333333 514.14437376074 275.9533333333333 C 514.451710178452 275.9533333333333 514.605378387308 269.8 514.91271480502 269.8 C 515.2200512227361 269.8 515.3737194315939 270.2733333333333 515.68105584931 270.2733333333333 C 515.988392267022 270.2733333333333 516.142060475878 248.02666666666667 516.44939689359 248.02666666666667 C 516.756733311302 248.02666666666667 516.910401520158 267.90666666666664 517.21773793787 267.90666666666664 C 517.525074355582 267.90666666666664 517.678742564438 267.90666666666664 517.98607898215 267.90666666666664 C 518.293415399866 267.90666666666664 518.447083608724 272.63999999998777 518.75442002644 274.53333333333336 C 519.061756444152 276.42666666665446 519.215424653008 277.37333333333333 519.52276107072 277.37333333333333 C 519.830097488432 277.37333333333333 519.9837656972879 254.65333333333334 520.291102115 254.65333333333334 C 520.5984385327159 254.65333333333334 520.752106741574 274.06 521.05944315929 277.37333333333333 C 521.366779577002 280.68666666666667 521.5204477858581 280.68666666666667 521.82778420357 280.68666666666667 C 522.1351206212819 280.68666666666667 522.288788830138 273.11333333333334 522.59612524785 273.11333333333334 C 522.903461665562 273.11333333333334 523.057129874418 273.3973333333376 523.36446629213 274.06 C 523.671802709846 274.72266666667093 523.825470918704 275.76399999999575 524.13280733642 276.4266666666667 C 524.440143754132 277.0893333333291 524.593811962988 277.37333333333333 524.9011483807 277.37333333333333 C 525.1956791143441 277.37333333333333 525.342944481166 251.34 525.63747521481 248.5 C 525.944811632522 245.66 526.098479841378 245.66 526.40581625909 245.66 C 526.713152676802 245.66 526.866820885658 266.0133333333333 527.17415730337 266.0133333333333 C 527.481493721082 266.0133333333333 527.6351619299379 265.06666666666666 527.94249834765 265.06666666666666 C 528.249834765366 265.06666666666666 528.403502974224 266.5813333333217 528.71083939194 268.38 C 529.018175809652 270.17866666665503 529.171844018508 272.64 529.47918043622 274.06 C 529.786516853932 275.48 529.940185062788 275.48 530.2475214805 275.48 C 530.554857898216 275.48 530.708526107074 256.5466666666667 531.01586252479 256.5466666666667 C 531.3231989425019 256.5466666666667 531.476867151358 275.48 531.78420356907 275.48 C 532.091539986782 275.48 532.245208195638 253.23333333333332 532.55254461335 253.23333333333332 C 532.8598810310621 253.23333333333332 533.013549239918 272.64 533.32088565763 272.64 C 533.628222075346 272.64 533.781890284204 269.8000000000184 534.08922670192 266.96 C 534.396563119632 264.12000000001836 534.550231328488 258.44 534.8575677462 258.44 C 535.164904163912 258.44 535.318572372768 275.9533333333333 535.62590879048 275.9533333333333 C 535.933245208196 275.9533333333333 536.086913417054 266.96 536.39424983477 266.96 C 536.701586252482 266.96 536.855254461338 269.8 537.16259087905 269.8 C 537.4699272967621 269.8 537.6235955056179 238.56 537.93093192333 238.56 C 538.238268341042 238.56 538.391936549898 257.02 538.69927296761 262.7 C 539.006609385326 268.38 539.160277594184 268.38 539.4676140119 268.38 C 539.774950429612 268.38 539.928618638468 261.28000000000054 540.23595505618 258.44 C 540.5432914738919 255.6000000000005 540.696959682748 258.44 541.00429610046 254.18 C 541.311632518176 249.92000000000002 541.465300727034 228.62 541.77263714475 228.62 C 542.079973562462 228.62 542.233641771318 260.80666666666673 542.54097818903 268.85333333333335 C 542.8483146067421 276.9 543.001982815598 276.9 543.30931923331 276.9 C 543.616655651022 276.9 543.7703238598781 271.21999999996535 544.07766027759 266.0133333333333 C 544.384996695306 260.806666666632 544.538664904164 250.86666666666667 544.84600132188 250.86666666666667 C 545.153337739592 250.86666666666667 545.307005948448 276.9 545.61434236616 276.9 C 545.921678783872 276.9 546.075346992728 273.58666666666664 546.38268341044 273.58666666666664 C 546.690019828156 273.58666666666664 546.843688037014 276.4266666666666 547.15102445473 276.9 C 547.4583608724421 277.37333333333333 547.612029081298 276.90000000000003 547.91936549901 277.37333333333333 C 548.226701916722 277.84666666666664 548.380370125578 279.26666666666665 548.68770654329 279.26666666666665 C 548.995042961002 279.26666666666665 549.148711169858 254.9373333332747 549.45604758757 246.13333333333333 C 549.7633840052861 237.32933333327472 549.917052214144 235.24666666666667 550.22438863186 235.24666666666667 C 550.5317250495721 235.24666666666667 550.685393258428 235.24666666666667 550.99272967614 236.66666666666666 C 551.300066093852 238.08666666666664 551.453734302708 272.64 551.76107072042 272.64 C 552.068407138136 272.64 552.52941176471 247.07999999999998 552.52941176471 247.07999999999998" class="highcharts-graph" data-z-index="1" stroke="#000000" stroke-width="2" stroke-linejoin="round" stroke-linecap="round"></path></g><g data-z-index="0.1" class="highcharts-markers highcharts-series-0 highcharts-spline-series highcharts-color-0 " transform="translate(32,78) scale(1 1)" clip-path="none"></g></g><text x="300" text-anchor="middle" class="highcharts-title" data-z-index="4" style="color:#333333;font-size:18px;fill:#333333;" y="24"><tspan>Time Spent on Communication and Scheduling Over Time</tspan></text><text x="300" text-anchor="middle" class="highcharts-subtitle" data-z-index="4" style="color:#666666;fill:#666666;" y="46"><tspan>This chart shows how your Time Spent On Communication And Scheduling changes over</tspan><tspan dy="15" x="300">time.</tspan></text><g class="highcharts-axis-labels highcharts-xaxis-labels " data-z-index="7"><text x="37.941465631196" style="color:#666666;cursor:default;font-size:11px;fill:#666666;" text-anchor="middle" transform="translate(0,0)" y="381" opacity="1"><tspan>May '16</tspan></text><text x="132.44741407799" style="color:#666666;cursor:default;font-size:11px;fill:#666666;" text-anchor="middle" transform="translate(0,0)" y="381" opacity="1"><tspan>Sep '16</tspan></text><text x="226.1850214805" style="color:#666666;cursor:default;font-size:11px;fill:#666666;" text-anchor="middle" transform="translate(0,0)" y="381" opacity="1"><tspan>Jan '17</tspan></text><text x="318.38594679445" style="color:#666666;cursor:default;font-size:11px;fill:#666666;" text-anchor="middle" transform="translate(0,0)" y="381" opacity="1"><tspan>May '17</tspan></text><text x="412.89189524124" style="color:#666666;cursor:default;font-size:11px;fill:#666666;" text-anchor="middle" transform="translate(0,0)" y="381" opacity="1"><tspan>Sep '17</tspan></text><text x="506.62950264375" style="color:#666666;cursor:default;font-size:11px;fill:#666666;" text-anchor="middle" transform="translate(0,0)" y="381" opacity="1"><tspan>Jan '18</tspan></text></g><g class="highcharts-axis-labels highcharts-yaxis-labels " data-z-index="7"><text x="17" style="color:#666666;cursor:default;font-size:11px;fill:#666666;" text-anchor="end" transform="translate(0,0)" y="366" opacity="1">0</text><text x="17" style="color:#666666;cursor:default;font-size:11px;fill:#666666;" text-anchor="end" transform="translate(0,0)" y="318" opacity="1">1</text><text x="17" style="color:#666666;cursor:default;font-size:11px;fill:#666666;" text-anchor="end" transform="translate(0,0)" y="271" opacity="1">2</text><text x="17" style="color:#666666;cursor:default;font-size:11px;fill:#666666;" text-anchor="end" transform="translate(0,0)" y="224" opacity="1">3</text><text x="17" style="color:#666666;cursor:default;font-size:11px;fill:#666666;" text-anchor="end" transform="translate(0,0)" y="176" opacity="1">4</text><text x="17" style="color:#666666;cursor:default;font-size:11px;fill:#666666;" text-anchor="end" transform="translate(0,0)" y="129" opacity="1">5</text><text x="17" style="color:#666666;cursor:default;font-size:11px;fill:#666666;" text-anchor="end" transform="translate(0,0)" y="82" opacity="1">6</text></g><a xlink:href="https://quantimo.do" target="_blank">
                    <text x="590" class="highcharts-credits" text-anchor="end" data-z-index="8"
                          style="cursor:pointer;color:#999999;font-size:9px;fill:#999999;" y="395">https://quantimo.do
                    </text>
                </a></svg>