<?xml version="1.0" standalone="no"?><!DOCTYPE svg PUBLIC "-//W3C//DTD SVG 1.1//EN" "http://www.w3.org/Graphics/SVG/1.1/DTD/svg11.dtd"><svg xmlns:xlink="http://www.w3.org/1999/xlink" version="1.1" class="highcharts-root" style="font-family:&quot;Lucida Grande&quot;, &quot;Lucida Sans Unicode&quot;, Arial, Helvetica, sans-serif;font-size:12px;" xmlns="http://www.w3.org/2000/svg" width="600" height="400"><desc>Created with Highstock 6.2.0</desc><defs><clipPath id="highcharts-6kjsekd-720"><rect x="0" y="0" width="551" height="299" fill="none"></rect></clipPath><clipPath id="highcharts-6kjsekd-1434"><rect x="0" y="0" width="551" height="299" fill="none"></rect></clipPath><clipPath id="highcharts-6kjsekd-1435"><rect x="39" y="63" width="551" height="299" fill="none"></rect></clipPath></defs><rect fill="#ffffff" class="highcharts-background" x="0" y="0" width="600" height="400" rx="0" ry="0"></rect><rect fill="none" class="highcharts-plot-background" x="39" y="63" width="551" height="299"></rect><g class="highcharts-pane-group" data-z-index="0"></g><g class="highcharts-grid highcharts-xaxis-grid " data-z-index="1"><path fill="none" data-z-index="1" class="highcharts-grid-line" d="M 41.5 63 L 41.5 362" opacity="1"></path><path fill="none" data-z-index="1" class="highcharts-grid-line" d="M 134.5 63 L 134.5 362" opacity="1"></path><path fill="none" data-z-index="1" class="highcharts-grid-line" d="M 227.5 63 L 227.5 362" opacity="1"></path><path fill="none" data-z-index="1" class="highcharts-grid-line" d="M 318.5 63 L 318.5 362" opacity="1"></path><path fill="none" data-z-index="1" class="highcharts-grid-line" d="M 411.5 63 L 411.5 362" opacity="1"></path><path fill="none" data-z-index="1" class="highcharts-grid-line" d="M 504.5 63 L 504.5 362" opacity="1"></path></g><g class="highcharts-grid highcharts-yaxis-grid " data-z-index="1"><path fill="none" stroke="#e6e6e6" stroke-width="1" data-z-index="1" class="highcharts-grid-line" d="M 39 362.5 L 590 362.5" opacity="1"></path><path fill="none" stroke="#e6e6e6" stroke-width="1" data-z-index="1" class="highcharts-grid-line" d="M 39 302.5 L 590 302.5" opacity="1"></path><path fill="none" stroke="#e6e6e6" stroke-width="1" data-z-index="1" class="highcharts-grid-line" d="M 39 242.5 L 590 242.5" opacity="1"></path><path fill="none" stroke="#e6e6e6" stroke-width="1" data-z-index="1" class="highcharts-grid-line" d="M 39 183.5 L 590 183.5" opacity="1"></path><path fill="none" stroke="#e6e6e6" stroke-width="1" data-z-index="1" class="highcharts-grid-line" d="M 39 123.5 L 590 123.5" opacity="1"></path><path fill="none" stroke="#e6e6e6" stroke-width="1" data-z-index="1" class="highcharts-grid-line" d="M 39 62.5 L 590 62.5" opacity="1"></path></g><rect fill="none" class="highcharts-plot-border" data-z-index="1" x="39" y="63" width="551" height="299"></rect><g class="highcharts-axis highcharts-xaxis " data-z-index="2"><path fill="none" class="highcharts-tick" stroke="#ccd6eb" stroke-width="1" d="M 41.5 362 L 41.5 372" opacity="1"></path><path fill="none" class="highcharts-tick" stroke="#ccd6eb" stroke-width="1" d="M 134.5 362 L 134.5 372" opacity="1"></path><path fill="none" class="highcharts-tick" stroke="#ccd6eb" stroke-width="1" d="M 227.5 362 L 227.5 372" opacity="1"></path><path fill="none" class="highcharts-tick" stroke="#ccd6eb" stroke-width="1" d="M 318.5 362 L 318.5 372" opacity="1"></path><path fill="none" class="highcharts-tick" stroke="#ccd6eb" stroke-width="1" d="M 411.5 362 L 411.5 372" opacity="1"></path><path fill="none" class="highcharts-tick" stroke="#ccd6eb" stroke-width="1" d="M 504.5 362 L 504.5 372" opacity="1"></path><path fill="none" class="highcharts-axis-line" stroke="#ccd6eb" stroke-width="1" data-z-index="7" d="M 39 362.5 L 590 362.5"></path></g><g class="highcharts-axis highcharts-yaxis " data-z-index="2"><path fill="none" class="highcharts-axis-line" data-z-index="7" d="M 39 63 L 39 362"></path></g><g class="highcharts-series-group" data-z-index="3"><g data-z-index="0.1" class="highcharts-series highcharts-series-0 highcharts-spline-series highcharts-color-0 " transform="translate(39,63) scale(1 1)" clip-path="url(#highcharts-6kjsekd-1434)"><path fill="none" d="M 5.4019607843137 299 C 5.4019607843137 299 5.8571821987221995 299 6.1606631416612 299 C 6.46414408460016 299 6.6158845560696395 299 6.9193654990086 299 C 7.22284644194756 299 7.374586913417039 299 7.678067856356 299 C 7.981548799295 299 8.1332892707645 299 8.4367702137035 299 C 8.740251156642461 299 8.89199162811194 299 9.1954725710509 299 C 9.49895351398986 299 9.65069398545934 299 9.9541749283983 299 C 10.25765587133738 299 10.40939634280692 299 10.712877285746 299 C 11.0163582286848 299 11.1680987001542 299 11.471579643093 299 C 11.7750605860322 299 11.9268010575018 299 12.230282000441 299 C 12.533762943379799 299 12.6855034148492 299 12.988984357788 299 C 13.2924653007268 299 13.444205772196199 299 13.747686715135 299 C 14.0511676580742 299 14.2029081295438 299 14.506389072483 299 C 14.809870015421799 299 14.961610486891198 299 15.26509142983 299 C 15.5685723727692 299 15.7203128442388 299 16.023793787178 299 C 16.3272747301168 299 16.4790152015862 299 16.782496144525 299 C 17.085977087464197 299 17.237717558933802 299 17.541198501873 299 C 17.8446794448118 299 17.9964199162812 299 18.29990085922 299 C 18.6033818021592 299 18.755122273628796 299 19.058603216568 299 C 19.3620841595068 299 19.5138246309762 299 19.817305573915 299 C 20.1207865168538 299 20.2725269883232 299 20.576007931262 299 C 20.8794888742012 299 21.031229345670802 299 21.33471028861 299 C 21.638191231548802 299 21.789931703018198 299 22.093412645957 299 C 22.396893588896198 299 22.5486340603658 299 22.852115003305 299 C 23.1555959462438 299 23.307336417713202 299 23.610817360652 299 C 23.914298303591202 299 24.0660387750608 299 24.369519718 299 C 24.6730006609388 299 24.8247411324082 299 25.128222075347 299 C 25.4317030182858 299 25.5834434897552 299 25.886924432694 299 C 26.1904053756332 299 26.342145847102802 299 26.645626790042 299 C 26.949107732980803 299 27.100848204450198 299 27.404329147389 299 C 27.707810090328202 299 27.8595505617978 193.75199999999998 28.163031504737 193.75199999999998 C 28.466512447675797 193.75199999999998 28.6182529191452 219.3464 28.921733862084 219.3464 C 29.2252148050232 219.3464 29.3769552764928 171.62599999999998 29.680436219432 171.62599999999998 C 29.9839171623708 171.62599999999998 30.135657633840204 212.6488 30.439138576779 214.32319999999999 C 30.7426195197178 215.99759999999998 30.8943599911872 214.32319999999999 31.197840934126 215.99759999999998 C 31.501321877065198 217.67199999999997 31.653062348534796 249.8444 31.956543291474 249.8444 C 32.260024234412796 249.8444 32.411764705882206 248.28959999999412 32.715245648821 239.4392 C 33.018726591760206 230.58879999999408 33.17046706322981 205.5924 33.473948006169 205.5924 C 33.7774289491078 205.5924 33.9291694205772 224.9676 34.232650363516 228.5556 C 34.536131306455204 232.1436 34.6878717779248 232.1436 34.991352720864 232.1436 C 35.2948336638028 232.1436 35.4465741352722 214.5624 35.750055078211 214.5624 C 36.053536021149796 214.5624 36.205276492619205 224.1304 36.508757435558 224.1304 C 36.812238378497206 224.1304 36.96397884996681 202.124 37.267459792906 202.124 C 37.5709407358448 202.124 37.7226812073142 206.66879999999998 38.026162150253 206.66879999999998 C 38.3296430931922 206.66879999999998 38.481383564661805 195.66559999999998 38.784864507601 195.66559999999998 C 39.0883454505398 195.66559999999998 39.2400859220092 204.6356 39.543566864948 204.6356 C 39.8470478078872 204.6356 39.9987882793568 193.2736 40.302269222296 193.2736 C 40.6057501652348 193.2736 40.7574906367042 228.43599999999998 41.060971579643 234.65519999999998 C 41.3644525225822 240.87439999999998 41.5161929940518 240.87439999999998 41.819673936991 240.87439999999998 C 42.1231548799298 240.87439999999998 42.274895351399195 227.0008 42.578376294338 227.0008 C 42.881857237276805 227.0008 43.0335977087462 254.2696 43.337078651685 254.2696 C 43.6405595946242 254.2696 43.7923000660938 205.712 44.095781009033 205.712 C 44.3992619519718 205.712 44.5510024234412 218.19824000000605 44.85448336638 227.59879999999998 C 45.1579643093192 236.99936000000605 45.3097047807888 252.7148 45.613185723728 252.7148 C 45.9166666666668 252.7148 46.06840713813621 222.45600000000002 46.371888081075 214.5624 C 46.6753690240142 206.66879999999998 46.8271094954838 212.43352000000377 47.130590438423 206.66879999999998 C 47.4340713813618 200.90408000000374 47.5858118528312 185.73879999999997 47.88929279577 185.73879999999997 C 48.192773738708794 185.73879999999997 48.344514210178204 202.4828 48.647995153117 202.4828 C 48.951476096056204 202.4828 49.103216567525806 170.90839999999997 49.406697510465 170.90839999999997 C 49.7101784534038 170.90839999999997 49.8619189248732 191.07296000001065 50.165399867812 207.0276 C 50.4688808107512 222.98224000001065 50.620621282220796 250.6816 50.92410222516 250.6816 C 51.227583168098796 250.6816 51.3793236395682 180.7156 51.682804582507 180.7156 C 51.986285525446206 180.7156 52.1380259969158 245.5388 52.441506939855 245.5388 C 52.74498788279381 245.5388 52.8967283542632 192.55599999999998 53.200209297202 192.55599999999998 C 53.503690240140806 192.55599999999998 53.6554307116102 219.1072 53.958911654549 219.5856 C 54.2623925974882 220.064 54.41413306895779 220.064 54.717614011897 220.064 C 55.0210949548358 220.064 55.17283542630521 205.68807999999666 55.476316369244 200.6888 C 55.7797973121832 195.68951999999666 55.931537783652814 195.0676 56.235018726592 195.0676 C 56.5384996695308 195.0676 56.69024014100021 221.6188 56.993721083939 221.6188 C 57.297202026878196 221.6188 57.4489424983478 194.35 57.752423441287 194.35 C 58.0559043842258 194.35 58.20764485569519 213.2468 58.511125798634 218.5092 C 58.8146067415732 223.77159999999998 58.966347213042795 223.77159999999998 59.269828155982 223.77159999999998 C 59.5733090989208 223.77159999999998 59.725049570390205 200.0908 60.028530513329 195.4264 C 60.3320114562678 190.762 60.483751927737195 195.4264 60.787232870676 190.762 C 61.090713813615196 186.0976 61.2424542850848 152.1312 61.545935228024 152.1312 C 61.8494161709628 152.1312 62.00115664243221 179.7588 62.304637585371 185.2604 C 62.60811852831021 190.762 62.759858999779794 190.762 63.063339942719 190.762 C 63.36682088565781 190.762 63.51856135712719 177.00799999999998 63.822042300066 177.00799999999998 C 64.1255232430052 177.00799999999998 64.2772637144748 202.72199999999998 64.580744657414 202.72199999999998 C 64.8842256003528 202.72199999999998 65.03596607182222 191.35999999999999 65.339447014761 191.35999999999999 C 65.64292795769981 191.35999999999999 65.7946684291692 199.3732 66.098149372108 199.3732 C 66.40163031504719 199.3732 66.55337078651681 195.4264 66.856851729456 195.4264 C 67.16033267239479 195.4264 67.3120731438642 249.2464 67.615554086803 249.2464 C 67.9190350297422 249.2464 68.0707755012118 232.47848000000587 68.374256444151 223.5324 C 68.6777373870898 214.58632000000586 68.8294778585592 204.516 69.132958801498 204.516 C 69.43643974443721 204.516 69.5881802159068 205.712 69.891661158846 205.712 C 70.1951421017848 205.712 70.34688257325419 203.43959999999998 70.650363516193 203.43959999999998 C 70.9538444591318 203.43959999999998 71.10558493060121 223.5324 71.40906587354 223.5324 C 71.7125468164792 223.5324 71.86428728794881 199.2536 72.167768230888 199.2536 C 72.4712491738268 199.2536 72.6229896452962 209.82624000000698 72.926470588235 220.9012 C 73.2299515311742 231.976160000007 73.3816920026438 254.6284 73.685172945583 254.6284 C 73.9886538885218 254.6284 74.1403943599912 176.7688 74.44387530293 176.7688 C 74.7473562458692 176.7688 74.8990967173388 226.88119999999998 75.202577660278 226.88119999999998 C 75.5060586032168 226.88119999999998 75.65779907468621 226.88119999999998 75.961280017625 207.7452 C 76.2647609605638 188.60920000000004 76.4165014320332 129.4072 76.719982374972 129.4072 C 77.02346331791121 129.4072 77.1752037893808 257.8576 77.47868473232 257.8576 C 77.78216567525881 257.8576 77.9339061467282 211.9312 78.237387089667 211.9312 C 78.5408680326062 211.9312 78.69260850407579 242.19 78.996089447015 242.19 C 79.2995703899538 242.19 79.4513108614232 194.46959999999999 79.754791804362 194.46959999999999 C 80.0582727473012 194.46959999999999 80.2100132187708 201.4303199999971 80.51349416171 205.83159999999998 C 80.8169751046488 210.2328799999971 80.96871557611821 216.476 81.272196519057 216.476 C 81.57567746199621 216.476 81.72741793346582 204.27679999999998 82.030898876405 204.27679999999998 C 82.33437981934381 204.27679999999998 82.4861202908132 204.27679999999998 82.789601233752 207.6256 C 83.09308217669079 210.9744 83.2448226481602 221.49919999999997 83.548303591099 221.49919999999997 C 83.8517845340382 221.49919999999997 84.0035250055078 198.77519999999998 84.307005948447 198.77519999999998 C 84.6104868913858 198.77519999999998 84.7622273628552 198.77519999999998 85.065708305794 199.73199999999997 C 85.3691892487332 200.68879999999996 85.52092972020282 256.9008 85.824410663142 256.9008 C 86.12789160608081 256.9008 86.27963207755019 217.8633599999874 86.583113020489 197.938 C 86.88659396342818 178.01263999998739 87.03833443489779 157.274 87.341815377837 157.274 C 87.64529632077578 157.274 87.7970367922452 257.8576 88.100517735184 257.8576 C 88.4039986781228 257.8576 88.5557391495922 205.6880799999852 88.859220092531 182.2704 C 89.16270103547019 158.8527199999852 89.3144415069398 140.76919999999998 89.617922449879 140.76919999999998 C 89.9214033928178 140.76919999999998 90.0731438642872 153.87736000001152 90.376624807226 170.90839999999997 C 90.6801057501652 187.93944000001153 90.83184622163479 225.9244 91.135327164574 225.9244 C 91.4388081075128 225.9244 91.59054857898221 207.7452 91.894029521921 207.7452 C 92.1975104648602 207.7452 92.3492509363298 261.20640000000003 92.652731879269 266.2296 C 92.95621282220779 271.2528 93.1079532936772 271.2528 93.411434236616 271.2528 C 93.71491517955481 271.2528 93.8666556510242 242.0704 94.170136593963 242.0704 C 94.4736175369022 242.0704 94.62535800837179 265.512 94.928838951311 265.512 C 95.2323198942498 265.512 95.3840603657192 252.954 95.687541308658 252.954 C 95.9910222515972 252.954 96.1427627230668 274.7212 96.446243666006 274.7212 C 96.7497246089448 274.7212 96.90146508041421 199.3732 97.204946023353 199.3732 C 97.5084269662922 199.3732 97.66016743776181 206.42959999999465 97.963648380701 214.9212 C 98.26712932363981 223.41279999999463 98.41886979510919 225.01543999999961 98.722350738048 241.8312 C 99.02583168098678 258.6469599999996 99.1775721524562 299 99.481053095395 299 C 99.784534038333 299 99.936274509802 299 100.23975545274 299 C 100.54323639568 299 100.69497686714999 299 100.99845781009 299 C 101.30193875303 299 101.45367922450001 299 101.75716016744 299 C 102.06064111037999 299 102.21238158185 299 102.51586252479 299 C 102.819343467726 299 102.971083939194 299 103.27456488213 299 C 103.57804582506999 299 103.72978629653998 299 104.03326723948 299 C 104.33674818242 299 104.48848865389 299 104.79196959683 299 C 105.095450539766 299 105.24719101123401 299 105.55067195417 299 C 105.85415289711 299 106.00589336857999 299 106.30937431152 299 C 106.61285525446002 299 106.76459572593001 299 107.06807666887 299 C 107.37155761181 299 107.52329808328 299 107.82677902622 299 C 108.13025996915599 299 108.28200044062399 299 108.58548138356 299 C 108.88896232649999 299 109.04070279797 299 109.34418374091 299 C 109.64766468385001 299 109.79940515532 299 110.10288609826 299 C 110.4063670412 299 110.55810751266999 299 110.86158845561 299 C 111.16506939854601 299 111.316809870014 299 111.62029081295 299 C 111.92377175589002 299 112.07551222736001 299 112.3789931703 299 C 112.68247411324 299 112.83421458471 299 113.13769552765 299 C 113.44117647059 299 113.59291694205999 299 113.896397885 299 C 114.199878827936 299 114.351619299404 299 114.65510024234 299 C 114.95858118528 299 115.11032165674999 299 115.41380259969 299 C 115.71728354263 299 115.8690240141 299 116.17250495704 299 C 116.47598589997999 299 116.62772637145 299 116.93120731439 299 C 117.234688257326 299 117.386428728794 299 117.68990967173 299 C 117.99339061467 299 118.14513108614001 299 118.44861202908 299 C 118.75209297202 299 118.90383344349 299 119.20731438643 299 C 119.51079532937001 299 119.66253580083999 299 119.96601674378 299 C 120.269497686716 299 120.421238158184 299 120.72471910112 299 C 121.02820004406001 299 121.17994051553 299 121.48342145847 299 C 121.78690240141 299 121.93864287288 299 122.24212381582 299 C 122.54560475876 299 122.69734523022998 299 123.00082617317 299 C 123.304307116106 299 123.45604758757399 299 123.75952853051 299 C 124.06300947344998 299 124.21474994492 299 124.51823088786 299 C 124.8217118308 299 124.97345230227002 299 125.27693324521 299 C 125.58041418815 299 125.73215465962001 299 126.03563560256 299 C 126.33911654549601 299 126.49085701696399 299 126.7943379599 299 C 127.09781890284 299 127.24955937431 299 127.55304031725 299 C 127.85652126019 299 128.00826173165999 299 128.3117426746 299 C 128.61522361754 299 128.76696408900997 299 129.07044503195 299 C 129.373925974886 299 129.525666446354 299 129.82914738929 299 C 130.13262833222998 299 130.2843688037 299 130.58784974664 299 C 130.89133068958 299 131.04307116105002 299 131.34655210399 299 C 131.65003304693 299 131.8017735184 299 132.10525446134 299 C 132.408735404276 299 132.560475875744 299 132.86395681868 299 C 133.16743776162002 299 133.31917823308999 299 133.62265917603 299 C 133.92614011896998 299 134.07788059044 299 134.38136153338 299 C 134.684842476316 299 134.836582947784 299 135.14006389072 299 C 135.44354483366 299 135.59528530512998 299 135.89876624807 299 C 136.20224719101 299 136.35398766248 299 136.65746860542 299 C 136.96094954836 299 137.11269001983 299 137.41617096277 299 C 137.719651905706 299 137.871392377174 299 138.17487332011 299 C 138.47835426305 299 138.63009473452001 299 138.93357567746 299 C 139.23705662039998 299 139.38879709187 299 139.69227803481 299 C 139.99575897774997 299 140.14749944922 299 140.45098039216 299 C 140.75446133509598 299 140.906201806564 299 141.2096827495 299 C 141.51316369244 299 141.66490416391 299 141.96838510685 299 C 142.27186604979002 299 142.42360652125998 299 142.7270874642 299 C 143.03056840713998 299 143.18230887861 299 143.48578982155 299 C 143.789270764486 299 143.941011235954 299 144.24449217889 299 C 144.54797312183 299 144.69971359329998 299 145.00319453624 299 C 145.30667547918 299 145.45841595065 299 145.76189689359 299 C 146.06537783653 299 146.217118308 299 146.52059925094 299 C 146.824080193876 299 146.975820665344 299 147.27930160828 299 C 147.58278255122 299 147.73452302269 299 148.03800396563 299 C 148.34148490857 299 148.49322538003997 299 148.79670632298 299 C 149.10018726592 299 149.25192773739 299 149.55540868033 299 C 149.85888962326598 299 150.010630094734 299 150.31411103767 299 C 150.630237019898 299 150.788300011012 202.0044 151.10442599324 202.0044 C 151.40790693618 202.0044 151.55964740764998 215.878 151.86312835059 215.878 C 152.16660929353 215.878 152.318349765 196.33536000000032 152.62183070794 189.2072 C 152.92531165088 182.07904000000033 153.07705212235 182.55744000001522 153.38053306529 180.2372 C 153.684014008226 177.91696000001522 153.835754479694 177.606 154.13923542263 177.606 C 154.44271636557 177.606 154.59445683704 183.22719999999998 154.89793777998 183.22719999999998 C 155.20141872291998 183.22719999999998 155.35315919439 148.6628 155.65664013733 146.1512 C 155.96012108026997 143.63959999999997 156.11186155174 143.63959999999997 156.41534249468 143.63959999999997 C 156.71882343761598 143.63959999999997 156.870563909084 191.5992 157.17404485202 191.5992 C 157.47752579496 191.5992 157.62926626643 171.3868 157.93274720937 171.3868 C 158.23622815231002 171.3868 158.38796862377998 179.998 158.69144956672 179.998 C 158.99493050966 179.998 159.14667098113 166.3636 159.45015192407 166.3636 C 159.753632867006 166.3636 159.90537333847402 224.9676 160.20885428141 224.9676 C 160.51233522435 224.9676 160.66407569581997 153.4468 160.96755663876 153.4468 C 161.2710375817 153.4468 161.42277805317 183.72951999999944 161.72625899611 195.90480000000002 C 162.02973993905 208.08007999999944 162.18148041052 214.32319999999999 162.48496135346 214.32319999999999 C 162.788442296396 214.32319999999999 162.940182767864 170.42999999999998 163.2436637108 170.42999999999998 C 163.54714465374 170.42999999999998 163.69888512521 192.79519999999997 164.00236606815 192.79519999999997 C 164.30584701109 192.79519999999997 164.45758748256 189.68559999999997 164.7610684255 189.68559999999997 C 165.06454936844003 189.68559999999997 165.21628983991 196.55063999997725 165.51977078285 199.9712 C 165.82325172578598 203.39175999997727 165.974992197254 206.7884 166.27847314019 206.7884 C 166.58195408313 206.7884 166.7336945546 159.3072 167.03717549754 159.3072 C 167.34065644048002 159.3072 167.49239691194998 159.3072 167.79587785489 162.058 C 168.099358797826 164.8088 168.251099269294 239.31959999999998 168.55458021223 239.31959999999998 C 168.85806115517 239.31959999999998 169.00980162664 204.0376 169.31328256958 194.35 C 169.61676351251998 184.6624 169.76850398399 186.8152 170.07198492693 184.6624 C 170.37546586987 182.50959999999998 170.52720634134002 182.50959999999998 170.83068728428 182.50959999999998 C 171.134168227216 182.50959999999998 171.28590869868398 182.50959999999998 171.58938964162 184.78199999999998 C 171.89287058456 187.0544 172.04461105603 219.3464 172.34809199897 219.3464 C 172.65157294191002 219.3464 172.80331341337998 200.6888 173.10679435632 189.44639999999998 C 173.41027529926 178.20399999999998 173.56201577073 163.1344 173.86549671367 163.1344 C 174.16897765660602 163.1344 174.320718128074 163.1344 174.62419907101 170.90839999999997 C 174.92768001394998 178.68239999999994 175.07942048542 239.0804 175.38290142836 239.0804 C 175.6863823713 239.0804 175.83812284277002 229.27319999999997 176.14160378571 229.27319999999997 C 176.44508472865 229.27319999999997 176.59682520012 242.62055999992677 176.90030614306 253.7912 C 177.203787085996 264.9618399999268 177.355527557464 285.1264 177.6590085004 285.1264 C 177.96248944334002 285.1264 178.11422991480998 200.0908 178.41771085775 200.0908 C 178.72119180069 200.0908 178.87293227216 218.1504 179.1764132151 218.1504 C 179.47989415804003 218.1504 179.63163462951 168.51639999999998 179.93511557245 168.51639999999998 C 180.23859651538598 168.51639999999998 180.390336986854 201.0476 180.69381792979 201.0476 C 180.99729887273003 201.0476 181.1490393442 187.0544 181.45252028714 187.0544 C 181.75600123008 187.0544 181.90774170155 206.71664000000064 182.21122264449 220.1836 C 182.51470358743 233.65056000000064 182.66644405890003 239.0803999998996 182.96992500184 254.3892 C 183.27340594477602 269.69799999989965 183.425146416244 296.7276 183.72862735918 296.7276 C 184.03210830212 296.7276 184.18384877359 294.55087999999995 184.48732971653 284.2892 C 184.79081065947003 274.02752000000004 184.94255113094 256.0636000000005 185.24603207388 245.4192 C 185.54951301682 234.7748000000005 185.70125348829 237.02328000003902 186.00473443123 231.0672 C 186.308215374166 225.11112000003908 186.45995584563397 215.6388 186.76343678857 215.6388 C 187.06691773151 215.6388 187.21865820298 242.66839999999996 187.52213914592 249.6052 C 187.82562008886003 256.54200000000003 187.97736056033 256.54200000000003 188.28084150327 256.54200000000003 C 188.58432244621 256.54200000000003 188.73606291768002 210.7352 189.03954386062 210.7352 C 189.330379764268 210.7352 189.475797716092 299 189.76663361974 299 C 190.07011456268 299 190.22185503415 299 190.52533597709 299 C 190.82881692002601 299 190.980557391494 299 191.28403833443 299 C 191.58751927737 299 191.73925974884 299 192.04274069178 299 C 192.34622163472002 299 192.49796210619 299 192.80144304913 299 C 193.10492399206998 299 193.25666446354 299 193.56014540648 299 C 193.86362634941602 299 194.015366820884 299 194.31884776382 299 C 194.62232870676 299 194.77406917823 299 195.07755012117 299 C 195.38103106411 299 195.53277153558003 299 195.83625247852 299 C 196.13973342146 299 196.29147389293001 299 196.59495483587 299 C 196.898435778806 299 197.050176250274 299 197.35365719321 299 C 197.65713813615002 299 197.80887860762 299 198.11235955056 299 C 198.41584049349999 299 198.56758096497 299 198.87106190791 299 C 199.17454285085 299 199.32628332231997 299 199.62976426526 299 C 199.93324520819598 299 200.08498567966402 299 200.3884666226 299 C 200.69194756554003 299 200.84368803701 299 201.14716897995 299 C 201.45064992289 299 201.60239039436001 299 201.9058713373 299 C 202.20935228024 299 202.36109275170998 299 202.66457369465 299 C 202.968054637586 299 203.119795109054 299 203.42327605199 299 C 203.72675699492999 299 203.8784974664 299 204.18197840934 299 C 204.48545935227997 299 204.63719982375 299 204.94068076669 299 C 205.24416170963 299 205.3959021811 299 205.69938312404 299 C 206.002864066976 299 206.15460453844398 299 206.45808548138 299 C 206.76156642431997 299 206.91330689579 299 207.21678783873 299 C 207.52026878166998 299 207.67200925314 299 207.97549019608 299 C 208.27897113902 299 208.43071161049002 299 208.73419255343 299 C 209.037673496366 299 209.18941396783399 299 209.49289491077 299 C 209.80902089299798 299 209.967083884112 265.6852979591348 210.28320986634 237.8844 C 210.58669080928 211.1955379591348 210.73843128075 162.7756 211.04191222369 162.7756 C 211.34539316663 162.7756 211.49713363810002 221.37959999999998 211.80061458104 226.7616 C 212.10409552398 232.1436 212.25583599544998 232.1436 212.55931693839 232.1436 C 212.862797881326 232.1436 213.01453835279398 101.89919999999998 213.31801929573 101.89919999999998 C 213.62150023867002 101.89919999999998 213.77324071014 178.94551999999877 214.07672165308 204.8748 C 214.38020259601998 230.80407999999878 214.53194306749 231.54559999999998 214.83542401043 231.54559999999998 C 215.13890495337 231.54559999999998 215.29064542483997 227.2878400000337 215.59412636778 222.21679999999998 C 215.897607310716 217.1457600000337 216.04934778218404 206.1904 216.35282872512 206.1904 C 216.65630966806003 206.1904 216.80805013953 226.40279999999998 217.11153108247 226.40279999999998 C 217.41501202541 226.40279999999998 217.56675249688 174.73559999999998 217.87023343982 174.73559999999998 C 218.17371438276 174.73559999999998 218.32545485422997 177.7256 218.62893579717 177.7256 C 218.93241674010596 177.7256 219.084157211574 172.822 219.38763815451 172.822 C 219.69111909744998 172.822 219.84285956892 184.78199999999998 220.14634051186 184.78199999999998 C 220.44982145479997 184.78199999999998 220.60156192627 182.48568000000014 220.90504286921 178.56279999999998 C 221.20852381215 174.63992000000016 221.36026428362 165.1676 221.66374522656 165.1676 C 221.967226169496 165.1676 222.11896664096398 186.2172 222.4224475839 186.2172 C 222.72592852684002 186.2172 222.87766899831004 184.06439999999998 223.18114994125 184.06439999999998 C 223.48463088419004 184.06439999999998 223.63637135565995 197.34 223.9398522986 200.0908 C 224.243333241536 202.8416 224.39507371300397 202.8416 224.69855465594 202.8416 C 225.00203559888 202.8416 225.15377607034998 196.9812 225.45725701329 196.9812 C 225.76073795622997 196.9812 225.9124784277 196.9812 226.21595937064 199.13400000000001 C 226.51944031358 201.28680000000003 226.67118078505 231.426 226.97466172799 231.426 C 227.278142670926 231.426 227.429883142394 223.4128 227.73336408533 223.4128 C 228.03684502827 223.4128 228.18858549974001 248.8876 228.49206644268 248.8876 C 228.79554738562 248.8876 228.94728785708998 248.8876 229.25076880003 233.10039999999998 C 229.55424974297003 217.31319999999997 229.70599021444 167.79879999999997 230.00947115738 167.79879999999997 C 230.31295210031604 167.79879999999997 230.46469257178396 170.788800000029 230.76817351472 175.214 C 231.07165445766 179.639200000029 231.22339492912997 183.3707199999997 231.52687587207 189.9248 C 231.83035681501002 196.4788799999997 231.98209728647998 201.1432799999997 232.28557822942 207.9844 C 232.58905917235998 214.82551999999967 232.74079964383 216.3324799999489 233.04428058677 224.1304 C 233.347761529706 231.92831999994885 233.499502001174 246.974 233.80298294411 246.974 C 234.10646388704998 246.974 234.25820435852 221.7384 234.56168530146 221.7384 C 234.8651662444 221.7384 235.01690671587002 253.36064000000047 235.32038765881 264.0768 C 235.62386860175002 274.7929600000005 235.77560907321998 275.3192 236.07909001616 275.3192 C 236.38257095909603 275.3192 236.534311430564 211.8116 236.8377923735 211.8116 C 237.14127331644005 211.8116 237.29301378790996 227.24 237.59649473085 228.1968 C 237.89997567378995 229.15359999999998 238.05171614525997 229.15359999999998 238.3551970882 229.15359999999998 C 238.65867803114003 229.15359999999998 238.81041850261 190.164 239.11389944555 190.164 C 239.41738038848598 190.164 239.569120859954 217.79160000000002 239.87260180289 222.5756 C 240.17608274583 227.3596 240.32782321730002 227.3596 240.63130416024 227.3596 C 240.93478510318 227.3596 241.08652557465 199.0144 241.39000651759 199.0144 C 241.69348746053 199.0144 241.84522793200003 240.5156 242.14870887494 240.5156 C 242.43954477858802 240.5156 242.584962730412 192.67559999999992 242.87579863406 185.85839999999996 C 243.17927957700005 179.0412 243.33102004846995 179.0412 243.63450099141 179.0412 C 243.93798193435 179.0412 244.08972240581997 209.06079999999997 244.39320334876 209.77839999999998 C 244.69668429169602 210.49599999999998 244.848424763164 210.49599999999998 245.1519057061 210.49599999999998 C 245.45538664903998 210.49599999999998 245.60712712051 194.7088 245.91060806345 194.7088 C 246.21408900639 194.7088 246.36582947786002 194.7088 246.6693104208 197.6988 C 246.972791363736 200.68880000000001 247.124531835204 218.7484 247.42801277814 218.7484 C 247.73149372108 218.7484 247.88323419255002 202.124 248.18671513549 202.124 C 248.49019607843002 202.124 248.64193654989998 207.6256 248.94541749284 207.6256 C 249.24889843578003 207.6256 249.40063890725 202.6024 249.70411985019 202.6024 C 250.00760079312604 202.6024 250.15934126459396 247.6916 250.46282220753 247.6916 C 250.76630315047 247.6916 250.91804362193997 224.4174400000006 251.22152456488 211.8116 C 251.52500550782003 199.2057600000006 251.67674597929 184.6624 251.98022692223 184.6624 C 252.28370786517 184.6624 252.43544833664 228.0772 252.73892927958 228.0772 C 253.042410222516 228.0772 253.194150693984 198.05759999999998 253.49763163692 198.05759999999998 C 253.80111257986 198.05759999999998 253.95285305133 207.1472 254.25633399427 207.1472 C 254.55981493721 207.1472 254.71155540868003 182.50959999999998 255.01503635162 182.50959999999998 C 255.31851729456002 182.50959999999998 255.47025776603 224.1304 255.77373870897 224.1304 C 256.07721965190603 224.1304 256.228960123374 172.34359999999998 256.53244106631 172.34359999999998 C 256.83592200925005 172.34359999999998 256.98766248071996 206.7884 257.29114342366 206.7884 C 257.5946243666 206.7884 257.74636483807 192.07760000000002 258.04984578101 192.07760000000002 C 258.35332672395 192.07760000000002 258.50506719542 206.908 258.80854813836 206.908 C 259.112029081296 206.908 259.263769552764 199.08615999997835 259.5672504957 195.78519999999997 C 259.87073143864 192.48423999997834 260.02247191011 190.4032 260.32595285305 190.4032 C 260.62943379599 190.4032 260.78117426746 222.0972 261.0846552104 222.0972 C 261.38813615334004 222.0972 261.53987662481 222.0972 261.84335756775 215.878 C 262.146838510686 209.65879999999999 262.29857898215397 179.1608 262.60205992509 179.1608 C 262.90554086803 179.1608 263.05728133950004 209.1804 263.36076228244 209.1804 C 263.66424322538006 209.1804 263.81598369684997 201.6456 264.11946463979 201.6456 C 264.42294558273 201.6456 264.5746860542 201.6456 264.87816699714 203.918 C 265.181647940076 206.1904 265.333388411544 227.4792 265.63686935448 227.4792 C 265.94035029741997 227.4792 266.09209076889 167.44 266.39557171183 167.44 C 266.69905265477 167.44 266.85079312624003 193.154 267.15427406918 193.154 C 267.45775501212 193.154 267.60949548359 193.0344 267.91297642653 193.0344 C 268.216457369466 193.0344 268.368197840934 251.2796 268.67167878387 251.2796 C 268.97515972681 251.2796 269.12690019827994 235.34887999999998 269.43038114122 226.40279999999998 C 269.73386208416 217.45671999999996 269.88560255563004 218.00687999999892 270.18908349857 206.54919999999998 C 270.49256444151007 195.09151999999892 270.64430491298 169.1144 270.94778585592 169.1144 C 271.25126679885597 169.1144 271.403007270324 182.988 271.70648821326 182.988 C 272.0099691562 182.988 272.16170962767 164.92839999999998 272.46519057061 164.92839999999998 C 272.76867151355 164.92839999999998 272.92041198502 231.0672 273.22389292796 231.0672 C 273.5273738709 231.0672 273.67911434237004 214.2036 273.98259528531 214.2036 C 274.28607622824603 214.2036 274.43781669971406 276.7544 274.74129764265 276.7544 C 275.04477858559005 276.7544 275.19651905706 241.35280000000003 275.5 239.6784 C 275.80348094294 238.004 275.95522141440995 239.20000000000806 276.25870235735 238.004 C 276.56218330028594 236.80800000000806 276.71392377175397 233.6984 277.01740471469 233.6984 C 277.32088565762996 233.6984 277.4726261291 279.266 277.77610707204 279.266 C 278.07958801498 279.266 278.23132848645 217.7916 278.53480942939 217.7916 C 278.83829037233 217.7916 278.9900308438 233.10039999999998 279.29351178674 233.10039999999998 C 279.596992729676 233.10039999999998 279.74873320114403 220.9012 280.05221414408 220.9012 C 280.35569508702 220.9012 280.50743555848993 221.06863999999996 280.81091650143 221.7384 C 281.11439744436996 222.40815999999995 281.26613791584 222.02543999999997 281.56961885878 224.25 C 281.87309980172006 226.47456000000003 282.02484027319 232.8612 282.32832121613 232.8612 C 282.631802159066 232.8612 282.783542630534 221.9776 283.08702357347 221.9776 C 283.39050451641 221.9776 283.54224498788 222.0972 283.84572593082 222.0972 C 284.14920687375997 222.0972 284.30094734523 203.55919999999998 284.60442828817 203.55919999999998 C 284.90790923111 203.55919999999998 285.05964970258003 242.788 285.36313064552 242.788 C 285.666611588456 242.788 285.818352059924 230.03863999991108 286.12183300286 216.476 C 286.4253139458 202.9133599999111 286.57705441727 174.97480000000002 286.88053536021 174.97480000000002 C 287.18401630315003 174.97480000000002 287.33575677461994 219.10719999999998 287.63923771756 219.10719999999998 C 287.94271866049996 219.10719999999998 288.09445913197 219.10719999999998 288.39794007491 216.83479999999997 C 288.70142101784603 214.56239999999997 288.853161489314 205.2336 289.15664243225 205.2336 C 289.46012337519 205.2336 289.61186384665996 251.9972 289.9153447896 251.9972 C 290.21882573254 251.9972 290.37056620401 251.9972 290.67404714695 250.562 C 290.97752808989 249.12680000000003 291.12926856136 235.4924 291.4327495043 235.4924 C 291.736230447236 235.4924 291.887970918704 238.004 292.19145186164 238.004 C 292.49493280458 238.004 292.64667327605 238.004 292.95015421899 230.3496 C 293.25363516193 222.69520000000003 293.4053756334 128.92879999999997 293.70885657634 128.92879999999997 C 294.01233751928004 128.92879999999997 294.16407799074995 161.1490399999152 294.46755893369 173.89839999999998 C 294.771039876626 186.6477599999152 294.922780348094 186.2172000000429 295.22626129103 192.67559999999997 C 295.52974223397007 199.13400000004293 295.68148270544003 204.75520000000003 295.98496364838 206.1904 C 296.28844459132 207.6256 296.44018506278996 207.6256 296.74366600573 207.6256 C 297.04714694867 207.6256 297.19888742014 198.129360000064 297.50236836308 188.37 C 297.805849306016 178.61064000006397 297.95758977748403 158.82879999999997 298.26107072042 158.82879999999997 C 298.56455166336 158.82879999999997 298.71629213483004 179.1608 299.01977307777 190.0444 C 299.32325402071 200.928 299.47499449218003 207.14720000000003 299.77847543512 213.2468 C 300.08195637806 219.34640000000002 300.23369684953 220.5424 300.53717779247 220.5424 C 300.840658735406 220.5424 300.992399206874 181.91159999999996 301.29588014981 181.5528 C 301.59936109275 181.19400000000002 301.75110156422 181.19400000000002 302.05458250716 181.19400000000002 C 302.3580634501 181.19400000000002 302.50980392157 182.3182399999992 302.81328486451 190.64239999999998 C 303.11676580745 198.9665599999992 303.26850627892 222.8148 303.57198722186 222.8148 C 303.87546816479596 222.8148 304.027208636264 165.5264 304.3306895792 165.5264 C 304.63417052214 165.5264 304.78591099361 175.3096800000004 305.08939193655 179.8784 C 305.39287287949 184.44712000000044 305.54461335096 185.06903999997868 305.8480942939 188.37 C 306.15157523683604 191.67095999997866 306.303315708304 196.3832 306.60679665124 196.3832 C 306.91027759418 196.3832 307.06201806565 188.6092 307.36549900859 188.6092 C 307.66897995153005 188.6092 307.82072042299995 213.12720000000002 308.12420136594 213.12720000000002 C 308.42768230888 213.12720000000002 308.57942278035 213.12720000000002 308.88290372329 210.1372 C 309.186384666226 207.1472 309.33812513769396 139.8124 309.64160608063 139.8124 C 309.94508702357 139.8124 310.09682749504 139.8124 310.40030843798 142.5632 C 310.70378938092 145.314 310.85552985239 202.4828 311.15901079533 202.4828 C 311.46249173827 202.4828 311.61423220974 202.4828 311.91771315268 196.0244 C 312.221194095616 189.56600000000003 312.372934567084 150.3372 312.67641551002 150.3372 C 312.97989645296 150.3372 313.13163692443 177.1276 313.43511786737 177.1276 C 313.73859881031 177.1276 313.89033928178003 173.18079999999998 314.19382022472 173.18079999999998 C 314.49730116766005 173.18079999999998 314.64904163912996 187.6524 314.95252258207 187.6524 C 315.25600352500595 187.6524 315.407743996474 185.4996 315.71122493941 185.4996 C 316.01470588235 185.4996 316.16644635382 211.21359999999999 316.46992729676 211.21359999999999 C 316.77340823969996 211.21359999999999 316.92514871117 197.8423200000009 317.22862965411 188.1308 C 317.53211059705 178.4192800000009 317.68385106852 162.65599999999998 317.98733201146 162.65599999999998 C 318.290812954396 162.65599999999998 318.44255342586405 175.45319999999998 318.7460343688 175.45319999999998 C 319.04951531174004 175.45319999999998 319.20125578321 138.97519999999997 319.50473672615 138.97519999999997 C 319.80821766908997 138.97519999999997 319.95995814055993 164.8088 320.2634390835 164.8088 C 320.56692002644 164.8088 320.71866049791004 131.6796 321.02214144085 131.6796 C 321.325622383786 131.6796 321.477362855254 160.3596800001123 321.78084379819 177.4864 C 322.08432474113 194.6131200001123 322.2360652126 217.3132 322.53954615554 217.3132 C 322.84302709848 217.3132 322.99476756995 186.59991999999997 323.29824851289 167.79879999999997 C 323.60172945582997 148.99767999999995 323.7534699273 123.30759999999998 324.05695087024 123.30759999999998 C 324.360431813176 123.30759999999998 324.512172284644 190.28359999999998 324.81565322758 190.28359999999998 C 325.11913417052 190.28359999999998 325.27087464199 153.68599999999998 325.57435558493 153.68599999999998 C 325.87783652787004 153.68599999999998 326.02957699934 176.17079999999999 326.33305794228 176.17079999999999 C 326.63653888522 176.17079999999999 326.78827935668994 101.06199999999998 327.09176029963 101.06199999999998 C 327.395241242566 101.06199999999998 327.546981714034 116.27512000006027 327.85046265697 125.3408 C 328.15394359991006 134.4064800000603 328.30568407137997 135.36327999999898 328.60916501432 146.3904 C 328.91264595726 157.41751999999897 329.06438642873 180.47639999999998 329.36786737167 180.47639999999998 C 329.67134831461 180.47639999999998 329.82308878608 168.9948 330.12656972902 168.9948 C 330.430050671956 168.9948 330.581791143424 180.7156 330.88527208636 180.7156 C 331.1887530293 180.7156 331.34049350077004 148.7824 331.64397444371 148.7824 C 331.94745538665 148.7824 332.09919585812 171.62599999999998 332.40267680106 171.62599999999998 C 332.706157743996 171.62599999999998 332.857898215464 148.92591999994653 333.1613791584 140.76919999999998 C 333.46486010134 132.61247999994652 333.61660057280994 130.84239999999997 333.92008151575 130.84239999999997 C 334.22356245868997 130.84239999999997 334.37530293016 137.68351999999996 334.6787838731 152.48999999999998 C 334.98226481603996 167.29648 335.13400528751 204.8748 335.43748623045 204.8748 C 335.74096717338597 204.8748 335.892707644854 204.8748 336.19618858779 189.80519999999999 C 336.49966953073 174.73559999999998 336.6514100022 120.07839999999999 336.95489094514 120.07839999999999 C 337.25837188808 120.07839999999999 337.41011235955 207.2668 337.71359330249 207.2668 C 338.01707424543 207.2668 338.16881471689993 145.314 338.47229565984 145.314 C 338.775776602776 145.314 338.927517074244 145.314 339.23099801718 146.98839999999998 C 339.53447896012005 148.66279999999998 339.68621943159 177.1276 339.98970037453 177.1276 C 340.29318131747 177.1276 340.44492178893995 163.1344 340.74840273188 163.1344 C 341.05188367482 163.1344 341.20362414629 191.7188 341.50710508923 191.7188 C 341.810586032166 191.7188 341.962326503634 152.7292 342.26580744657 152.7292 C 342.56928838951 152.7292 342.72102886098 210.0176 343.02450980392 210.0176 C 343.32799074686 210.0176 343.47973121833 157.87199999999999 343.78321216127 157.87199999999999 C 344.08669310421 157.87199999999999 344.23843357568 159.3072 344.54191451862 159.3072 C 344.845395461556 159.3072 344.99713593302397 151.34183999990404 345.30061687596 136.7028 C 345.60409781889996 122.06375999990401 345.75583829037004 86.11199999999997 346.05931923331 86.11199999999997 C 346.36280017625006 86.11199999999997 346.51454064772 86.11199999999997 346.81802159066 106.56359999999998 C 347.1215025336 127.0152 347.27324300506996 207.6256 347.57672394801 207.6256 C 347.88020489094595 207.6256 348.031945362414 198.75127999996093 348.33542630535 192.79519999999997 C 348.63890724828997 186.83911999996093 348.79064771976 177.84519999999998 349.0941286627 177.84519999999998 C 349.39760960564 177.84519999999998 349.54935007711003 207.7452 349.85283102005 207.7452 C 350.15631196299 207.7452 350.30805243446 178.32360000009015 350.6115333774 164.56959999999998 C 350.915014320336 150.81560000009011 351.06675479180404 138.97519999999997 351.37023573474 138.97519999999997 C 351.67371667768003 138.97519999999997 351.82545714914994 161.57959999999997 352.12893809209 164.45 C 352.43241903502997 167.3204 352.58415950650004 164.45 352.88764044944 167.3204 C 353.19112139238007 170.19080000000002 353.34286186385003 183.22719999999998 353.64634280679 183.22719999999998 C 353.949823749726 183.22719999999998 354.101564221194 163.0148 354.40504516413 163.0148 C 354.70852610707 163.0148 354.86026657854 168.89911999999998 355.16374752148 173.89839999999998 C 355.46722846442 178.89767999999998 355.61896893589 173.89839999999998 355.92244987883 188.0112 C 356.22593082177 202.12400000000002 356.37767129324004 299 356.68115223618 299 C 356.98463317911603 299 357.136373650584 299 357.43985459352 299 C 357.74333553646 299 357.89507600793 299 358.19855695087 299 C 358.50203789381004 299 358.65377836527995 299 358.95725930822 299 C 359.26074025116 299 359.41248072263 299 359.71596166557 299 C 360.019442608506 299 360.17118307997396 299 360.47466402291 299 C 360.77814496585 299 360.92988543731997 299 361.23336638026 299 C 361.5368473232 299 361.68858779467 299 361.99206873761 299 C 362.295549680546 299 362.44729015201403 299 362.75077109495 299 C 363.05425203789 299 363.20599250936004 299 363.5094734523 299 C 363.81295439524 299 363.96469486671003 299 364.26817580965 299 C 364.57165675259 299 364.72339722406 299 365.026878167 299 C 365.330359109936 299 365.482099581404 299 365.78558052434 299 C 366.08906146728 299 366.24080193875 299 366.54428288169 299 C 366.84776382463 299 366.9995042961 299 367.30298523904 299 C 367.60646618198 299 367.75820665345 299 368.06168759639 299 C 368.36516853932596 299 368.516909010794 299 368.82038995373 299 C 369.12387089667 299 369.27561136814 299 369.57909231108 299 C 369.88257325402003 299 370.03431372549 299 370.33779466843 299 C 370.64127561137 299 370.79301608284 299 371.09649702578 299 C 371.39997796871603 299 371.55171844018406 299 371.85519938312 299 C 372.15868032606005 299 372.31042079752996 299 372.61390174047 299 C 372.91738268341 299 373.06912315488 299 373.37260409782 299 C 373.67608504076 299 373.82782551223 299 374.13130645517 299 C 374.434787398106 299 374.586527869574 299 374.89000881251 299 C 375.19348975545 299 375.34523022692 299 375.64871116986 299 C 375.9521921128 299 376.10393258427 299 376.40741352721 299 C 376.71089447015004 299 376.86263494162 299 377.16611588456 299 C 377.46959682749605 299 377.621337298964 130.1248 377.9248182419 130.1248 C 378.22829918484 130.1248 378.38003965631003 161.1012 378.68352059925 161.1012 C 378.98700154219006 161.1012 379.13874201365996 152.7292 379.4422229566 152.7292 C 379.74570389954 152.7292 379.89744437101 183.8252 380.20092531395 183.8252 C 380.504406256886 183.8252 380.656146728354 175.3575199998603 380.95962767129 154.0448 C 381.26310861422996 132.73207999986028 381.4148490857 97.59360000000189 381.71833002864 77.26159999999999 C 382.02181097158 56.92960000000189 382.17355144305003 52.384799999999984 382.47703238599 52.384799999999984 C 382.78051332893 52.384799999999984 382.9322538004 170.78879999999998 383.23573474334 170.78879999999998 C 383.539215686276 170.78879999999998 383.690956157744 155.8388 383.99443710068 155.8388 C 384.29791804362 155.8388 384.44965851508994 155.8388 384.75313945803 158.82879999999997 C 385.05662040096996 161.81879999999995 385.20836087244004 188.6092 385.51184181538 188.6092 C 385.81532275832006 188.6092 385.96706322978997 134.7892 386.27054417273 134.7892 C 386.57402511566596 134.7892 386.725765587134 178.204 387.02924653007 178.204 C 387.33272747301 178.204 387.48446794448 141.60639999999998 387.78794888742 141.60639999999998 C 388.09142983035997 141.60639999999998 388.24317030183 201.16719999999998 388.54665124477 201.16719999999998 C 388.85013218771 201.16719999999998 389.00187265918004 169.71239999999995 389.30535360212 165.88519999999997 C 389.608834545056 162.058 389.76057501652406 162.058 390.06405595946 162.058 C 390.36753690240005 162.058 390.51927737387 166.86592 390.82275831681 179.2804 C 391.12623925975 191.69487999999998 391.27797973121994 224.1304 391.58146067416 224.1304 C 391.88494161709593 224.1304 392.036682088564 220.85335999978716 392.3401630315 188.84839999999997 C 392.64364397444007 156.84343999978714 392.79538444591 64.10559999999998 393.09886538885 64.10559999999998 C 393.40234633179 64.10559999999998 393.55408680326 167.43999999999994 393.8575677462 179.75879999999998 C 394.16104868914 192.07760000000002 394.31278916061 192.07760000000002 394.61627010355 192.07760000000002 C 394.919751046486 192.07760000000002 395.07149151795403 179.44783999993433 395.37497246089 169.71239999999997 C 395.67845340383 159.9769599999343 395.83019387530004 166.3636 396.13367481824 143.4004 C 396.43715576118 120.43719999999999 396.58889623265003 54.89639999999997 396.89237717559 54.89639999999997 C 397.19585811853005 54.89639999999997 397.34759859 144.88343999980034 397.65107953294 175.3336 C 397.954560475876 205.78375999980037 398.106300947344 199.4928 398.40978189028 207.1472 C 398.71326283321997 214.8016 398.86500330469 214.8016 399.16848424763 214.8016 C 399.47196519056996 214.8016 399.62370566204 214.8016 399.92718660498 211.21359999999999 C 400.23066754792 207.62559999999996 400.38240801939 39.10919999999999 400.68588896233 39.10919999999999 C 400.989369905266 39.10919999999999 401.141110376734 39.10919999999999 401.44459131967 44.730399999999975 C 401.74807226261 50.35159999999996 401.89981273408 128.4504 402.20329367702 128.4504 C 402.50677461996 128.4504 402.65851509142993 105.12839999999997 402.96199603437 105.12839999999997 C 403.26547697730996 105.12839999999997 403.41721744878004 154.6428 403.72069839172 154.6428 C 404.024179334656 154.6428 404.175919806124 150.93519999999998 404.47940074906 150.93519999999998 C 404.782881692 150.93519999999998 404.93462216346995 153.7338399999993 405.23810310641 161.1012 C 405.54158404935 168.46855999999931 405.69332452082 178.25184 405.99680546376 187.772 C 406.30028640669997 197.29216 406.45202687817 208.702 406.75550782111 208.702 C 407.058988764046 208.702 407.210729235514 182.05511999992612 407.51421017845 170.78879999999998 C 407.81769112139 159.52247999992613 407.96943159286 170.78879999999998 408.2729125358 152.3704 C 408.57639347874 133.952 408.72813395021 63.62719999999999 409.03161489315 63.62719999999999 C 409.33509583609003 63.62719999999999 409.48683630755994 133.83239999999998 409.7903172505 133.83239999999998 C 410.09379819343593 133.83239999999998 410.2455386649041 94.1252 410.54901960784 94.1252 C 410.85250055078006 94.1252 411.0042410222501 133.11479999999997 411.30772196519 151.89199999999997 C 411.61120290812994 170.66919999999996 411.76294337959996 188.0112 412.06642432254 188.0112 C 412.36990526548 188.0112 412.52164573695 182.41392000001505 412.82512667989 180.11759999999998 C 413.128607622826 177.82128000001504 413.280348094294 180.11759999999998 413.58382903723 176.5296 C 413.88730998017 172.9416 414.03905045164004 152.0116 414.34253139458 152.0116 C 414.64601233752 152.0116 414.79775280899 198.536 415.10123375193 198.536 C 415.40471469487 198.536 415.55645516634 170.3104 415.85993610928 170.3104 C 416.163417052216 170.3104 416.315157523684 171.3868 416.61863846662 171.3868 C 416.92211940955997 171.3868 417.07385988103 171.3868 417.37734082397 170.0712 C 417.68082176691007 168.75560000000002 417.83256223838 99.38759999999996 418.13604318132 99.38759999999996 C 418.4395241242561 99.38759999999996 418.591264595724 224.3696 418.89474553866 224.3696 C 419.1982264816 224.3696 419.34996695307 224.3696 419.65344789601 204.99439999999998 C 419.95692883895 185.61919999999998 420.10866931042 121.87239999999997 420.41215025336 121.87239999999997 C 420.7156311963 121.87239999999997 420.86737166777004 145.0987199999429 421.17085261071 153.80559999999997 C 421.47433355364603 162.5124799999429 421.626074025114 165.4068 421.92955496805 165.4068 C 422.23303591099 165.4068 422.38477638246 162.4168 422.6882573254 162.4168 C 423.004383307628 162.4168 423.162446298742 162.4168 423.47857228097 162.7756 C 423.78205322391005 163.1344 423.93379369537996 197.6988 424.23727463832 197.6988 C 424.54075558126 197.6988 424.69249605273 161.3404 424.99597699567 161.3404 C 425.299457938606 161.3404 425.45119841007397 179.39999999999998 425.75467935301 179.39999999999998 C 426.05816029594996 179.39999999999998 426.20990076742 101.54039999999998 426.51338171036 101.54039999999998 C 426.8168626533 101.54039999999998 426.96860312477 145.7924 427.27208406771 158.2308 C 427.57556501065 170.6692 427.72730548212 170.6692 428.03078642506 170.6692 C 428.334267367996 170.6692 428.48600783946404 166.45927999995467 428.7894887824 159.54639999999998 C 429.0929697253399 152.63351999995467 429.24471019680993 136.1048 429.54819113975 136.1048 C 429.85167208268996 136.1048 430.00341255416004 173.3004 430.3068934971 173.3004 C 430.61037444004006 173.3004 430.76211491150997 173.3004 431.06559585445 170.5496 C 431.36907679738596 167.7988 431.520817268854 154.06871999980615 431.82429821179 124.50359999999998 C 432.12777915473 94.93847999980616 432.2795196262 22.72399999999999 432.58300056914 22.72399999999999 C 432.88648151207997 22.72399999999999 433.03822198355 201.88479999999998 433.34170292649 201.88479999999998 C 433.64518386943 201.88479999999998 433.79692434090003 128.0916 434.10040528384 128.0916 C 434.403886226776 128.0916 434.55562669824405 130.8184800000219 434.85910764118 134.0716 C 435.16258858412004 137.32472000002193 435.31432905558995 144.3572 435.61780999853 144.3572 C 435.92129094147003 144.3572 436.07303141293994 144.3572 436.37651235588 142.4436 C 436.67999329881997 140.53 436.83173377029 141.03232000010513 437.13521471323 125.22119999999998 C 437.43869565616603 109.41008000010511 437.590436127634 63.388000000000005 437.89391707057 63.388000000000005 C 438.19739801351 63.388000000000005 438.34913848498 161.3404 438.65261942792 166.7224 C 438.95610037086 172.1044 439.10784084233 171.5064 439.41132178527 172.1044 C 439.71480272821 172.70239999999998 439.86654319968 172.70239999999998 440.17002414262 172.70239999999998 C 440.473505085556 172.70239999999998 440.625245557024 93.886 440.92872649996 93.886 C 441.2322074429 93.886 441.38394791437 129.95736000000153 441.68742885731 146.3904 C 441.99090980025005 162.82344000000154 442.1426502717201 176.0512 442.44613121466 176.0512 C 442.7496121575999 176.0512 442.90135262906995 146.1512 443.20483357201 146.1512 C 443.50831451494594 146.1512 443.66005498641397 164.21079999999998 443.96353592935 165.1676 C 444.26701687228996 166.1244 444.41875734376 166.1244 444.7222382867 166.1244 C 445.02571922964 166.1244 445.17745970111 138.2576 445.48094064405 138.2576 C 445.78442158699 138.2576 445.93616205846 179.39999999999998 446.2396430014 179.39999999999998 C 446.543123944336 179.39999999999998 446.69486441580403 171.88911999997404 446.99834535874 168.038 C 447.30182630168 164.18687999997405 447.45356677315004 165.81343999999999 447.75704771609 160.1444 C 448.06052865903 154.47535999999997 448.21226913050003 139.69279999999998 448.51575007344 139.69279999999998 C 448.81923101638006 139.69279999999998 448.97097148784997 187.77200000000005 449.27445243079 199.85160000000002 C 449.57793337372607 211.9312 449.729673845194 200.35392000007587 450.03315478813 211.9312 C 450.33663573107 223.5084800000759 450.48837620254 257.738 450.79185714548 257.738 C 451.09533808841996 257.738 451.24707855989 257.738 451.55055950283 254.6284 C 451.854040445766 251.5188 452.005780917234 222.8148 452.30926186017 222.8148 C 452.61274280311 222.8148 452.76448327458 259.4124 453.06796421752 272.688 C 453.37144516046 285.9636 453.52318563193 289.1928 453.82666657487 289.1928 C 454.13014751781003 289.1928 454.28188798927994 289.1928 454.58536893222 288.5948 C 454.8888498751559 287.99680000000006 455.04059034662407 235.612 455.34407128956 235.612 C 455.64755223250006 235.612 455.7992927039701 266.3492 456.10277364691 266.3492 C 456.40625458984994 266.3492 456.55799506131996 224.0108000000014 456.86147600426 208.8216 C 457.1649569472 193.63240000000138 457.31669741867 190.4032 457.62017836161 190.4032 C 457.923659304546 190.4032 458.075399776014 296.1296 458.37888071895 296.1296 C 458.68236166189 296.1296 458.83410213336003 194.23039999999997 459.1375830763 194.23039999999997 C 459.44106401924 194.23039999999997 459.59280449071 245.18 459.89628543365 245.18 C 460.19976637659 245.18 460.35150684806 230.4692 460.654987791 230.4692 C 460.958468733936 230.4692 461.110209205404 255.5852 461.41369014834 255.5852 C 461.71717109128 255.5852 461.86891156275004 233.3396 462.17239250569 233.3396 C 462.47587344863007 233.3396 462.6276139201 268.6216 462.93109486304 274.1232 C 463.23457580598006 279.6248 463.38631627744996 275.63015999997305 463.68979722039 279.6248 C 463.99327816332595 283.61943999997305 464.145018634794 294.0964 464.44849957773 294.0964 C 464.75198052067 294.0964 464.90372099214 276.9936 465.20720193508 276.9936 C 465.51068287802 276.9936 465.66242334949004 287.63800000000003 465.96590429243 291.7044 C 466.26938523537 295.7708 466.42112570684003 297.3256 466.72460664978 297.3256 C 467.028087592716 297.3256 467.17982806418405 295.5316 467.48330900712 295.5316 C 467.78678995006004 295.5316 467.93853042152995 296.08176 468.24201136447 296.608 C 468.54549230741 297.13424 468.69723277888 298.1628 469.00071372182 298.1628 C 469.30419466475996 298.1628 469.45593513623 297.493040000002 469.75941607917 297.206 C 470.062897022106 296.91896000000196 470.214637493574 297.206 470.51811843651 296.7276 C 470.82159937945 296.2492 470.97333985092 293.7376 471.27682079386 293.7376 C 471.5803017368 293.7376 471.73204220827 297.0864 472.03552315121 297.0864 C 472.33900409415 297.0864 472.49074456561993 282.1364 472.79422550856 282.1364 C 473.09770645149604 282.1364 473.24944692296395 297.9236 473.5529278659 297.9236 C 473.85640880884 297.9236 474.00814928031 224.848 474.31163022325 224.848 C 474.61511116619005 224.848 474.76685163765995 240.1568 475.0703325806 240.1568 C 475.37381352354 240.1568 475.52555399501 178.9216 475.82903493795 178.9216 C 476.13251588088605 178.9216 476.28425635235396 182.988 476.58773729529 182.988 C 476.89121823823007 182.988 477.0429587097 181.2418400000001 477.34643965264 179.8784 C 477.64992059558 178.51496000000012 477.80166106705 176.17079999999999 478.10514200999 176.17079999999999 C 478.408622952926 176.17079999999999 478.56036342439404 184.27968000002838 478.86384436733 188.4896 C 479.16732531027003 192.6995200000284 479.31906578174005 189.5660000000014 479.62254672468 197.22039999999998 C 479.92602766762 204.87480000000141 480.07776813909004 224.84799999999998 480.38124908203 226.7616 C 480.68473002497 228.6752 480.83647049644003 228.6752 481.13995143938 228.6752 C 481.443432382316 228.6752 481.595172853784 196.3832 481.89865379672 196.3832 C 482.20213473966 196.3832 482.35387521113 224.3696 482.65735615407 224.3696 C 482.96083709700997 224.3696 483.11257756848 208.10399999999998 483.41605851142 208.10399999999998 C 483.71953945435996 208.10399999999998 483.87127992583 255.56127999988047 484.17476086877 273.286 C 484.47824181170597 291.0107199998805 484.629982283174 296.7276 484.93346322611 296.7276 C 485.23694416905 296.7276 485.38868464052 246.7348 485.69216558346 246.7348 C 485.99564652640004 246.7348 486.14738699786994 285.1264 486.45086794081 285.1264 C 486.75434888375 285.1264 486.90608935521993 283.35632000000584 487.20957029816 282.4952 C 487.5130512410959 281.6340800000058 487.66479171256395 282.4952 487.9682726555 280.8208 C 488.27175359844006 279.1464 488.42349406990996 270.7744 488.72697501285 270.7744 C 489.03045595579 270.7744 489.18219642726 293.61799999999994 489.4856773702 296.2492 C 489.78915831314 298.8804 489.94089878461 298.8804 490.24437972755 298.8804 C 490.547860670486 298.8804 490.699601141954 281.17959999990825 491.00308208489 267.1864 C 491.30656302783 253.19319999990824 491.45830349930003 246.0172 491.76178444224 228.9144 C 492.06526538518 211.8116 492.21700585665 181.67239999999998 492.52048679959 181.67239999999998 C 492.82396774253004 181.67239999999998 492.97570821400006 197.8184 493.27918915694 197.8184 C 493.58267009987594 197.8184 493.734410571344 186.55207999996097 494.03789151428 180.596 C 494.34137245721996 174.63991999996097 494.49311292869004 180.596 494.79659387163 168.038 C 495.10007481457006 155.48000000000002 495.25181528603997 104.64999999999998 495.55529622898 104.64999999999998 C 495.85877717192 104.64999999999998 496.01051764339 104.64999999999998 496.31399858633 114.09839999999997 C 496.617479529266 123.54679999999996 496.769220000734 174.2572 497.07270094367 174.2572 C 497.37618188660997 174.2572 497.52792235808 162.4168 497.83140330102 162.4168 C 498.13488424396 162.4168 498.28662471543004 194.8284 498.59010565837 194.8284 C 498.89358660131 194.8284 499.04532707278 167.00944000006615 499.34880801572 156.91519999999997 C 499.652288958656 146.82096000006615 499.80402943012393 144.3572 500.10751037306 144.3572 C 500.41099131600004 144.3572 500.56273178746994 148.304 500.86621273041 148.304 C 501.16969367334997 148.304 501.32143414482 56.57079999999999 501.62491508776 56.57079999999999 C 501.92839603069996 56.57079999999999 502.08013650217 133.83239999999998 502.38361744511 138.85559999999998 C 502.68709838804597 143.87879999999998 502.838838859514 143.87879999999998 503.14231980245 143.87879999999998 C 503.44580074539 143.87879999999998 503.59754121686 108.95559999999998 503.9010221598 108.95559999999998 C 504.19185806344797 108.95559999999998 504.337276015272 299 504.62811191892 299 C 504.94423790115195 299 505.1023008922681 101.89919999999998 505.4184268745 101.89919999999998 C 505.72190781743603 101.89919999999998 505.87364828890406 131.46432000010628 506.17712923184 147.2276 C 506.48061017478005 162.9908800001063 506.6323506462501 179.51959999999997 506.93583158919 180.7156 C 507.23931253212993 181.91160000000002 507.39105300359995 181.91160000000002 507.69453394654 181.91160000000002 C 507.99801488947594 181.91160000000002 508.14975536094397 168.87519999999998 508.45323630388 168.87519999999998 C 508.75671724681996 168.87519999999998 508.90845771829 191.57527999999866 509.21193866123 205.83159999999998 C 509.51541960417 220.08791999999866 509.66716007564 240.1568 509.97064101858 240.1568 C 510.27412196152 240.1568 510.42586243299 236.99936000006556 510.72934337593 227.0008 C 511.032824318866 217.0022400000655 511.18456479033404 190.164 511.48804573327 190.164 C 511.79152667621 190.164 511.94326714768005 229.034 512.24674809062 229.034 C 512.5502290335601 229.034 512.7019695050301 198.559919999998 513.00545044797 187.89159999999998 C 513.3089313909101 177.223279999998 513.46067186238 180.6199200000323 513.76415280532 175.6924 C 514.0676337482561 170.76488000003232 514.2193742197239 163.254 514.52285516266 163.254 C 514.8263361055999 163.254 514.9780765770699 189.75735999999998 515.28155752001 199.0144 C 515.58503846295 208.27143999999998 515.73677893442 209.5392 516.04025987736 209.5392 C 516.3437408203 209.5392 516.49548129177 155.0016 516.79896223471 155.0016 C 517.1024431776459 155.0016 517.2541836491139 191.9819200000798 517.55766459205 204.516 C 517.8611455349899 217.05008000007982 518.01288600646 217.672 518.3163669494 217.672 C 518.607202853052 217.672 518.7526208048781 192.1972 519.04345670853 192.1972 C 519.3469376514661 192.1972 519.4986781229339 216.71519999999998 519.80215906587 216.71519999999998 C 520.10564000881 216.71519999999998 520.25738048028 168.2772 520.56086142322 168.2772 C 520.8643423661599 168.2772 521.0160828376299 222.456 521.31956378057 222.456 C 521.62304472351 222.456 521.77478519498 189.8769600000964 522.07826613792 174.73559999999998 C 522.381747080856 159.5942400000964 522.533487552324 146.74919999999997 522.83696849526 146.74919999999997 C 523.1404494382 146.74919999999997 523.29218990967 205.4728 523.59567085261 205.4728 C 523.8991517955501 205.4728 524.05089226702 192.3407200000016 524.35437320996 183.8252 C 524.6578541529 175.30968000000158 524.80959462437 172.70240000006612 525.11307556731 162.8952 C 525.416556510246 153.0880000000661 525.5682969817141 134.7892 525.87177792465 134.7892 C 526.1752588675901 134.7892 526.3269993390601 174.61599999999999 526.630480282 190.5228 C 526.9339612249399 206.4296 527.08570169641 214.32319999999999 527.38918263935 214.32319999999999 C 527.6926635822899 214.32319999999999 527.84440405376 112.78279999999998 528.1478849967 112.78279999999998 C 528.4513659396359 112.78279999999998 528.603106411104 172.77416000015515 528.90658735404 195.78519999999997 C 529.21006829698 218.79624000015514 529.3618087684499 221.9776 529.66528971139 227.838 C 529.96877065433 233.6984 530.1205111257999 233.6984 530.42399206874 233.6984 C 530.72747301168 233.6984 530.8792134831499 213.67736000008668 531.18269442609 201.16719999999998 C 531.486175369026 188.65704000008665 531.6379158404941 171.1476 531.94139678343 171.1476 C 532.2448777263701 171.1476 532.3966181978401 204.0376 532.70009914078 204.0376 C 533.0035800837201 204.0376 533.15532055519 190.64239999999998 533.45880149813 190.64239999999998 C 533.7622824410661 190.64239999999998 533.9140229125339 190.64239999999998 534.21750385547 191.2404 C 534.5209847984099 191.8384 534.67272526988 218.6288 534.97620621282 218.6288 C 535.27968715576 218.6288 535.43142762723 217.81551999999922 535.73490857017 213.7252 C 536.03838951311 209.63487999999924 536.19012998458 198.1772 536.49361092752 198.1772 C 536.7970918704559 198.1772 536.9488323419239 212.1704 537.25231328486 212.1704 C 537.5557942277999 212.1704 537.70753469927 201.0476 538.01101564221 201.0476 C 538.31449658515 201.0476 538.46623705662 212.60096000000001 538.76971799956 217.074 C 539.0731989425001 221.54704 539.2249394139701 217.074 539.52842035691 223.4128 C 539.8319012998461 229.7516 539.9836417713141 298.0432 540.28712271425 298.0432 C 540.59060365719 298.0432 540.74234412866 289.09712000000206 541.0458250716 277.59159999999997 C 541.3493060145399 266.08608000000214 541.50104648601 251.37528 541.80452742895 240.5156 C 542.10800837189 229.65592000000004 542.2597488433601 223.2932 542.5632297863 223.2932 C 542.866710729236 223.2932 543.0184512007039 246.0172 543.32193214364 246.0172 C 543.62541308658 246.0172 543.7771535580499 165.40680000000003 544.08063450099 154.5232 C 544.3841154439299 143.63959999999997 544.5358559153999 143.63959999999997 544.83933685834 143.63959999999997 C 545.14281780128 143.63959999999997 545.59803921569 144.4768 545.59803921569 144.4768" class="highcharts-graph" data-z-index="1" stroke="#000000" stroke-width="2" stroke-linejoin="round" stroke-linecap="round"></path></g><g data-z-index="0.1" class="highcharts-markers highcharts-series-0 highcharts-spline-series highcharts-color-0 " transform="translate(39,63) scale(1 1)" clip-path="none"></g></g><text x="300" text-anchor="middle" class="highcharts-title" data-z-index="4" style="color:#333333;font-size:18px;fill:#333333;" y="24"><tspan>Time Spent on Software Development Over Time</tspan></text><text x="300" text-anchor="middle" class="highcharts-subtitle" data-z-index="4" style="color:#666666;fill:#666666;" y="46"><tspan>This chart shows how your Time Spent On Software Development changes over time.</tspan></text><g class="highcharts-axis-labels highcharts-xaxis-labels " data-z-index="7"><text x="44.904565524712" style="color:#666666;cursor:default;font-size:11px;fill:#666666;" text-anchor="middle" transform="translate(0,0)" y="381" opacity="1"><tspan>May '16</tspan></text><text x="138.22495547845" style="color:#666666;cursor:default;font-size:11px;fill:#666666;" text-anchor="middle" transform="translate(0,0)" y="381" opacity="1"><tspan>Sep '16</tspan></text><text x="230.78664307483" style="color:#666666;cursor:default;font-size:11px;fill:#666666;" text-anchor="middle" transform="translate(0,0)" y="381" opacity="1"><tspan>Jan '17</tspan></text><text x="321.83092595652" style="color:#666666;cursor:default;font-size:11px;fill:#666666;" text-anchor="middle" transform="translate(0,0)" y="381" opacity="1"><tspan>May '17</tspan></text><text x="415.15131591026" style="color:#666666;cursor:default;font-size:11px;fill:#666666;" text-anchor="middle" transform="translate(0,0)" y="381" opacity="1"><tspan>Sep '17</tspan></text><text x="507.71300350665" style="color:#666666;cursor:default;font-size:11px;fill:#666666;" text-anchor="middle" transform="translate(0,0)" y="381" opacity="1"><tspan>Jan '18</tspan></text></g><g class="highcharts-axis-labels highcharts-yaxis-labels " data-z-index="7"><text x="24" style="color:#666666;cursor:default;font-size:11px;fill:#666666;" text-anchor="end" transform="translate(0,0)" y="366" opacity="1">0</text><text x="24" style="color:#666666;cursor:default;font-size:11px;fill:#666666;" text-anchor="end" transform="translate(0,0)" y="306" opacity="1">5</text><text x="24" style="color:#666666;cursor:default;font-size:11px;fill:#666666;" text-anchor="end" transform="translate(0,0)" y="246" opacity="1">10</text><text x="24" style="color:#666666;cursor:default;font-size:11px;fill:#666666;" text-anchor="end" transform="translate(0,0)" y="186" opacity="1">15</text><text x="24" style="color:#666666;cursor:default;font-size:11px;fill:#666666;" text-anchor="end" transform="translate(0,0)" y="126" opacity="1">20</text><text x="24" style="color:#666666;cursor:default;font-size:11px;fill:#666666;" text-anchor="end" transform="translate(0,0)" y="67" opacity="1">25</text></g><a xlink:href="https://quantimo.do" target="_blank">
                    <text x="590" class="highcharts-credits" text-anchor="end" data-z-index="8"
                          style="cursor:pointer;color:#999999;font-size:9px;fill:#999999;" y="395">https://quantimo.do
                    </text>
                </a></svg>