<?xml version="1.0" standalone="no"?><!DOCTYPE svg PUBLIC "-//W3C//DTD SVG 1.1//EN" "http://www.w3.org/Graphics/SVG/1.1/DTD/svg11.dtd"><svg xmlns:xlink="http://www.w3.org/1999/xlink" version="1.1" class="highcharts-root" style="font-family:&quot;Lucida Grande&quot;, &quot;Lucida Sans Unicode&quot;, Arial, Helvetica, sans-serif;font-size:12px;" xmlns="http://www.w3.org/2000/svg" width="600" height="400"><desc>Created with Highstock 6.2.0</desc><defs><clipPath id="highcharts-j8lm40o-869"><rect x="0" y="0" width="558" height="299" fill="none"></rect></clipPath><clipPath id="highcharts-j8lm40o-1732"><rect x="0" y="0" width="558" height="299" fill="none"></rect></clipPath><clipPath id="highcharts-j8lm40o-1733"><rect x="32" y="63" width="558" height="299" fill="none"></rect></clipPath></defs><rect fill="#ffffff" class="highcharts-background" x="0" y="0" width="600" height="400" rx="0" ry="0"></rect><rect fill="none" class="highcharts-plot-background" x="32" y="63" width="558" height="299"></rect><g class="highcharts-pane-group" data-z-index="0"></g><g class="highcharts-grid highcharts-xaxis-grid " data-z-index="1"><path fill="none" data-z-index="1" class="highcharts-grid-line" d="M 34.5 63 L 34.5 362" opacity="1"></path><path fill="none" data-z-index="1" class="highcharts-grid-line" d="M 122.5 63 L 122.5 362" opacity="1"></path><path fill="none" data-z-index="1" class="highcharts-grid-line" d="M 210.5 63 L 210.5 362" opacity="1"></path><path fill="none" data-z-index="1" class="highcharts-grid-line" d="M 299.5 63 L 299.5 362" opacity="1"></path><path fill="none" data-z-index="1" class="highcharts-grid-line" d="M 387.5 63 L 387.5 362" opacity="1"></path><path fill="none" data-z-index="1" class="highcharts-grid-line" d="M 476.5 63 L 476.5 362" opacity="1"></path><path fill="none" data-z-index="1" class="highcharts-grid-line" d="M 564.5 63 L 564.5 362" opacity="1"></path></g><g class="highcharts-grid highcharts-yaxis-grid " data-z-index="1"><path fill="none" stroke="#e6e6e6" stroke-width="1" data-z-index="1" class="highcharts-grid-line" d="M 32 362.5 L 590 362.5" opacity="1"></path><path fill="none" stroke="#e6e6e6" stroke-width="1" data-z-index="1" class="highcharts-grid-line" d="M 32 302.5 L 590 302.5" opacity="1"></path><path fill="none" stroke="#e6e6e6" stroke-width="1" data-z-index="1" class="highcharts-grid-line" d="M 32 242.5 L 590 242.5" opacity="1"></path><path fill="none" stroke="#e6e6e6" stroke-width="1" data-z-index="1" class="highcharts-grid-line" d="M 32 183.5 L 590 183.5" opacity="1"></path><path fill="none" stroke="#e6e6e6" stroke-width="1" data-z-index="1" class="highcharts-grid-line" d="M 32 123.5 L 590 123.5" opacity="1"></path><path fill="none" stroke="#e6e6e6" stroke-width="1" data-z-index="1" class="highcharts-grid-line" d="M 32 62.5 L 590 62.5" opacity="1"></path></g><rect fill="none" class="highcharts-plot-border" data-z-index="1" x="32" y="63" width="558" height="299"></rect><g class="highcharts-axis highcharts-xaxis " data-z-index="2"><path fill="none" class="highcharts-tick" stroke="#ccd6eb" stroke-width="1" d="M 34.5 362 L 34.5 372" opacity="1"></path><path fill="none" class="highcharts-tick" stroke="#ccd6eb" stroke-width="1" d="M 122.5 362 L 122.5 372" opacity="1"></path><path fill="none" class="highcharts-tick" stroke="#ccd6eb" stroke-width="1" d="M 210.5 362 L 210.5 372" opacity="1"></path><path fill="none" class="highcharts-tick" stroke="#ccd6eb" stroke-width="1" d="M 299.5 362 L 299.5 372" opacity="1"></path><path fill="none" class="highcharts-tick" stroke="#ccd6eb" stroke-width="1" d="M 387.5 362 L 387.5 372" opacity="1"></path><path fill="none" class="highcharts-tick" stroke="#ccd6eb" stroke-width="1" d="M 476.5 362 L 476.5 372" opacity="1"></path><path fill="none" class="highcharts-tick" stroke="#ccd6eb" stroke-width="1" d="M 564.5 362 L 564.5 372" opacity="1"></path><path fill="none" class="highcharts-axis-line" stroke="#ccd6eb" stroke-width="1" data-z-index="7" d="M 32 362.5 L 590 362.5"></path></g><g class="highcharts-axis highcharts-yaxis " data-z-index="2"><path fill="none" class="highcharts-axis-line" data-z-index="7" d="M 32 63 L 32 362"></path></g><g class="highcharts-series-group" data-z-index="3"><g data-z-index="0.1" class="highcharts-series highcharts-series-0 highcharts-spline-series highcharts-color-0 " transform="translate(32,63) scale(1 1)" clip-path="url(#highcharts-j8lm40o-1732)"><path fill="none" d="M 5.4705882352941 103.65333333333331 C 5.4705882352941 103.65333333333331 5.6158729032540595 131.56 5.7127293485607 131.56 C 5.89077032823194 131.56 5.97979081806756 71.76000000000002 6.1578317977388 71.76000000000002 C 6.2703601539874 71.76000000000002 6.326624332111701 167.44 6.4391526883603 167.44 C 6.53600913366694 167.44 6.58443735632026 143.52 6.6812938016269 143.52 C 6.7781502469334995 143.52 6.826578469586801 167.44 6.9234349148934 167.44 C 7.020291360200039 167.44 7.06871958285336 167.44 7.16557602816 167.44 C 7.262432473466601 167.44 7.3108606961199 191.36 7.4077171414265 191.36 C 7.50457358673314 191.36 7.55300180938646 173.42000000000002 7.6498582546931 173.42000000000002 C 7.751826567946461 173.42000000000002 7.80281072457314 191.36 7.9047790378265 191.36 C 8.03351739637986 191.36 8.09788657565654 167.44 8.2266249342099 167.44 C 8.3754744574485 167.44 8.449899219067799 191.36 8.5987487423064 191.36 C 8.60661832848756 191.36 8.61055312157814 163.45333333333335 8.6184227077593 159.46666666666667 C 8.7152791530659 155.48 8.7637073757192 155.48 8.8605638210258 155.48 C 8.95742026633244 155.48 9.005848488985759 191.36 9.1027049342924 191.36 C 9.199561379599 191.36 9.2479896022523 179.4 9.3448460475589 179.4 C 9.44170249286554 179.4 9.490130715518859 179.4 9.5869871608255 179.4 C 9.780700051438899 179.4 9.8775564967456 179.4 10.071269387359 167.44 C 10.1692692768114 155.48 10.2182692215376 132.50794074071698 10.31626911099 119.60000000000002 C 10.411982112150799 106.99327407405029 10.4598386127312 103.65333333333331 10.555551613892 103.65333333333331 C 10.652408059198399 103.65333333333331 10.700836281851599 137.30573195878605 10.797692727158 153.08800000000002 C 10.9161400883976 172.38839862545274 10.9753637690174 191.36 11.093811130257 191.36 C 11.1711617636618 191.36 11.209837080364201 183.20595024101328 11.287187713769 167.44 C 11.3819590550446 148.1232835743466 11.4293447256824 103.65333333333331 11.524116066958 103.65333333333331 C 11.7216628585312 103.65333333333331 11.820436254317801 167.44 12.017983045891 167.44 C 14.048067234949801 167.44 15.0631093294792 167.44 17.093193518538 167.44 C 17.674533974638802 167.44 17.9652042026892 167.44 18.54654465879 167.44 C 19.1292303432976 167.44 19.420573185551397 191.36 20.003258870059 191.36 C 20.1953574865838 191.36 20.2914067948462 191.36 20.483505411371 191.36 C 20.5802945952574 191.36 20.6286891872006 191.36 20.725478371087 191.36 C 21.112904152313398 191.36 21.3066170429266 215.28000000000003 21.694042824153 215.28000000000003 C 22.178526834947 215.28000000000003 22.420768840344 183.37855319148355 22.905252851138 167.44 C 23.874960748350396 135.53855319148354 24.3598146969566 95.68 25.329522594169 95.68 C 57.1098038347814 95.68 72.9999444550876 95.68 104.7802256957 95.68 C 105.241639039312 95.68 105.47234571111801 95.68 105.93375905473 95.68 C 108.726789534838 95.68 110.12330477489199 143.52 112.916335255 143.52 C 113.15807279974399 143.52 113.278941572116 143.52 113.52067911686 143.52 C 141.00584783806798 143.52 154.748432198672 95.68 182.23360091988 95.68 C 185.029658163904 95.68 186.42768678591602 95.68 189.22374402994 95.68 C 202.486418156332 95.68 209.117755219528 143.52 222.38042934592 143.52 C 222.670604081508 143.52 222.815691449302 121.77347048538432 223.10586618489 119.60000000000002 C 225.37049206773798 102.6374704853843 226.50280500916202 95.68 228.76743089201 95.68 C 229.041881028542 95.68 229.17910609680803 140.28758581114806 229.45355623334 143.52 C 232.4286140533 178.55958581114805 233.91614296327998 191.36 236.89120078324 191.36 C 238.7093599311 191.36 239.61843950503004 29.900000000000034 241.43659865289 29.900000000000034 C 241.56614414849 29.900000000000034 241.63091689629 59.80000000000001 241.76046239189 59.80000000000001 C 242.724337602934 59.80000000000001 243.20627520845602 59.80000000000001 244.1701504195 59.80000000000001 C 246.14709023931601 59.80000000000001 247.135560149224 59.80000000000001 249.11249996904 59.80000000000001 C 254.88858901506 59.80000000000001 257.77663353807003 239.2 263.55272258409 239.2 C 278.678445009262 239.2 286.24130622184805 209.3 301.36702864702 209.3 C 301.93037891522397 209.3 302.21205404932596 239.2 302.77540431753 239.2 C 302.793192721166 239.2 302.802086922984 239.2 302.81987532662 239.2 C 303.11044466254 239.2 303.2557293305 167.4400000000307 303.54629866642 149.5 C 304.030580892952 119.60000000003072 304.27272200621803 119.60000000000002 304.75700423275 119.60000000000002 C 305.241286459282 119.60000000000002 305.483427572548 144.30786712233427 305.96770979908 179.4 C 306.14363428606003 192.14786712233425 306.23159652955 239.2 306.40752101653 239.2 C 306.52216586547 239.2 306.57948828993995 239.2 306.69413313888 239.2 C 306.81581577443995 239.2 306.87665709222 179.4 306.99833972778 179.4 C 307.09519617308797 179.4 307.143624395742 239.2 307.24048084105 239.2 C 307.337337286354 239.2 307.385765509006 179.4 307.48262195431 179.4 C 307.579478399618 179.4 307.627906622272 179.4 307.72476306758 179.4 C 307.821619512888 179.4 307.870047735542 179.4 307.96690418085 179.4 C 308.160617071462 179.4 308.257473516768 179.4 308.45118640738 179.4 C 308.55418269934 179.4 308.60568084532 119.60000000000002 308.70867713728 119.60000000000002 C 308.799393735932 119.60000000000002 308.844752035258 179.4 308.93546863391 179.4 C 309.03232507921797 179.4 309.080753301872 179.4 309.17760974718 179.4 C 309.274466192484 179.4 309.322894415136 239.2 309.41975086044 239.2 C 309.516607305748 239.2 309.565035528402 239.2 309.66189197371 239.2 C 309.758748419018 239.2 309.807176641672 179.4 309.90403308698 179.4 C 310.000889532284 179.4 310.049317754936 179.4 310.14617420024 179.4 C 310.243030645548 179.4 310.291458868202 239.2 310.38831531351 239.2 C 310.48517175881796 239.2 310.533599981472 59.80000000000001 310.63045642678 59.80000000000001 C 310.727312872084 59.80000000000001 310.77574109473596 143.520000000737 310.87259754004 179.4 C 310.96945398534797 215.280000000737 311.017882208002 239.2 311.11473865331 239.2 C 311.211595098618 239.2 311.260023321272 239.2 311.35687976658 239.2 C 311.841161993112 239.2 312.083303106378 219.26666666655746 312.56758533291 179.4 C 312.664441778218 171.42666666655748 312.712870000872 119.60000000000002 312.80972644618 119.60000000000002 C 312.90658289148394 119.60000000000002 312.95501111413597 171.42666666688507 313.05186755944 179.4 C 313.53614978597597 219.26666666688504 313.778290899244 239.2 314.26257312578 239.2 C 314.359429571084 239.2 314.407857793736 239.2 314.50471423904 239.2 C 314.601570684348 239.2 314.649998907002 239.2 314.74685535231 239.2 C 314.843711797618 239.2 314.892140020272 203.32000000049132 314.98899646558 179.4 C 315.085852910884 155.48000000049134 315.13428113353604 119.60000000000002 315.23113757884 119.60000000000002 C 315.42485046945205 119.60000000000002 315.52170691475806 239.2 315.71541980537 239.2 C 315.81227625067805 239.2 315.860704473332 203.31999999999297 315.95756091864 179.4 C 316.05441736394806 155.479999999993 316.10284558660203 119.60000000000002 316.19970203191 119.60000000000002 C 316.29655847721403 119.60000000000002 316.34498669986607 179.4 316.44184314517 179.4 C 316.70758629083804 179.4 316.840457863672 119.60000000000002 317.10620100934 119.60000000000002 C 317.242442379336 119.60000000000002 317.31056306433396 119.60000000000002 317.44680443433 119.60000000000002 C 317.590071259678 119.60000000000002 317.66170467235196 239.2 317.8049714977 239.2 C 317.84009877448 239.2 317.85766241287 119.60000000000002 317.89278968965 119.60000000000002 C 318.050073795002 119.60000000000002 318.128715847678 142.06717451254244 318.28599995303 179.4 C 318.33026693581 189.9071745125424 318.3524004272 239.2 318.39666740998 239.2 C 318.461619521564 239.2 318.494095577356 119.60000000000002 318.55904768894 119.60000000000002 C 318.676687913136 119.60000000000002 318.73550802523397 119.60000000000002 318.85314824943 119.60000000000002 C 318.95000469473797 119.60000000000002 318.998432917392 239.2 319.0952893627 239.2 C 319.38585869862 239.2 319.53114336658 208.1040000000786 319.8217127025 179.4 C 320.015425593112 160.26400000007862 320.112282038418 119.60000000000002 320.30599492903 119.60000000000002 C 320.402851374338 119.60000000000002 320.451279596992 119.60000000000002 320.5481360423 119.60000000000002 C 320.656113042436 119.60000000000002 320.710101542504 119.60000000000002 320.81807854264 119.60000000000002 C 320.91493498794796 119.60000000000002 320.963363210602 119.60000000000002 321.06021965591 119.60000000000002 C 321.15707610121797 119.60000000000002 321.205504323872 155.4799999995087 321.30236076918 179.4 C 321.399217214484 203.31999999950867 321.447645437136 239.2 321.54450188244 239.2 C 321.641358327748 239.2 321.689786550402 239.2 321.78664299571 239.2 C 321.883499441018 239.2 321.931927663672 179.4 322.02878410898 179.4 C 322.125640554284 179.4 322.174068776936 239.2 322.27092522224 239.2 C 322.367781667548 239.2 322.416209890202 119.60000000000002 322.51306633551 119.60000000000002 C 322.80363567143 119.60000000000002 322.94892033939 119.60000000000002 323.23948967531 119.60000000000002 C 323.336346120618 119.60000000000002 323.38477434327194 119.60000000000002 323.48163078858 119.60000000000002 C 323.57848723388395 119.60000000000002 323.626915456536 119.60000000000002 323.72377190184 119.60000000000002 C 323.820628347148 119.60000000000002 323.86905656980196 119.60000000000002 323.96591301511 119.60000000000002 C 324.06276946041396 119.60000000000002 324.111197683066 119.60000000000002 324.20805412837 119.60000000000002 C 324.304910573678 119.60000000000002 324.35333879633197 179.4 324.45019524164 179.4 C 325.806185475932 179.4 326.484180593078 119.60000000000002 327.84017082737 119.60000000000002 C 327.937027272678 119.60000000000002 327.985455495332 179.4 328.08231194064 179.4 C 328.566594167172 179.4 328.808735280438 119.60000000000002 329.29301750697 119.60000000000002 C 329.486730397586 119.60000000000002 329.58358684289396 179.4 329.77729973351 179.4 C 329.97101262412195 179.4 330.06786906942796 179.4 330.26158196004 179.4 C 330.55215129596 179.4 330.69743596392 239.2 330.98800529984 239.2 C 331.084861745144 239.2 331.13328996779603 179.4 331.2301464131 179.4 C 331.32700285840804 179.4 331.375431081062 239.2 331.47228752637 239.2 C 331.56914397167805 239.2 331.617572194332 179.4 331.71442863964 179.4 C 331.811285084944 179.4 331.85971330759605 239.2 331.9565697529 239.2 C 332.343995534128 239.2 332.537708424742 211.29333333344252 332.92513420597 179.4 C 333.118847096582 163.45333333344254 333.215703541888 119.60000000000002 333.4094164325 119.60000000000002 C 333.69998576842 119.60000000000002 333.84527043638 119.60000000000002 334.1358397723 119.60000000000002 C 334.232696217608 119.60000000000002 334.28112444026203 119.60000000000002 334.37798088557 119.60000000000002 C 334.532390686226 119.60000000000002 334.609595586554 179.4 334.76400538721 179.4 C 334.86826058875397 179.4 334.920388189526 119.60000000000002 335.02464339107 119.60000000000002 C 335.121499836378 119.60000000000002 335.16992805903203 149.1979197718901 335.26678450434 159.46666666666667 C 335.395545283364 173.1179197718901 335.459925672876 179.4 335.5886864519 179.4 C 335.685542897208 179.4 335.733971119862 179.4 335.83082756517 179.4 C 335.927684010478 179.4 335.976112233132 239.2 336.07296867844 239.2 C 336.16982512374403 239.2 336.218253346396 239.2 336.3151097917 239.2 C 336.41196623700796 239.2 336.460394459662 179.4 336.55725090497 179.4 C 336.65410735027797 179.4 336.702535572932 239.2 336.79939201824 239.2 C 336.896248463544 239.2 336.944676686196 239.2 337.0415331315 239.2 C 337.138389576808 239.2 337.186817799462 179.4 337.28367424477 179.4 C 337.380530690078 179.4 337.428958912732 179.4 337.52581535804 179.4 C 337.719528248652 179.4 337.816384693958 179.4 338.01009758457 179.4 C 338.10695402987403 179.4 338.155382252526 239.2 338.25223869783 239.2 C 338.349095143138 239.2 338.397523365792 119.60000000000002 338.4943798111 119.60000000000002 C 338.688092701712 119.60000000000002 338.784949147018 179.4 338.97866203763 179.4 C 339.075518482938 179.4 339.12394670559195 119.60000000000002 339.2208031509 119.60000000000002 C 339.317659596208 119.60000000000002 339.36608781886196 119.60000000000002 339.46294426417 119.60000000000002 C 339.55980070947396 119.60000000000002 339.608228932126 239.2 339.70508537743 239.2 C 339.801941822738 239.2 339.85037004539197 239.2 339.9472264907 239.2 C 340.044082936008 239.2 340.092511158662 179.4 340.18936760397 179.4 C 340.286224049274 179.4 340.334652271926 179.4 340.43150871723 179.4 C 340.528365162538 179.4 340.576793385192 239.2 340.6736498305 239.2 C 340.86736272111204 239.2 340.96421916641805 179.4 341.15793205703 179.4 C 341.25478850233804 179.4 341.303216724992 239.2 341.4000731703 239.2 C 341.49692961560805 239.2 341.545357838262 239.2 341.64221428357 239.2 C 341.739070728874 239.2 341.78749895152606 179.4 341.88435539683 179.4 C 341.98121184213807 179.4 342.02964006479203 179.4 342.1264965101 179.4 C 342.223352955408 179.4 342.271781178062 119.60000000000002 342.36863762337 119.60000000000002 C 342.465494068674 119.60000000000002 342.51392229132597 179.4 342.61077873663 179.4 C 342.707635181938 179.4 342.756063404592 179.4 342.8529198499 179.4 C 342.949776295208 179.4 342.998204517862 179.4 343.09506096317 179.4 C 343.191917408474 179.4 343.240345631126 239.2 343.33720207643 239.2 C 343.434058521738 239.2 343.482486744392 179.4 343.5793431897 179.4 C 343.676199635008 179.4 343.724627857662 239.2 343.82148430297 239.2 C 343.91834074827403 239.2 343.966768970926 179.4 344.06362541623 179.4 C 344.160481861538 179.4 344.208910084192 179.4 344.3057665295 179.4 C 344.40262297480797 179.4 344.45105119746194 119.60000000000002 344.54790764277 119.60000000000002 C 344.64476408807394 119.60000000000002 344.693192310726 239.2 344.79004875603 239.2 C 344.886905201338 239.2 344.93533342399195 239.2 345.0321898693 239.2 C 345.12904631460395 239.2 345.177474537256 239.2 345.27433098256 239.2 C 345.371187427868 239.2 345.41961565052196 179.4 345.51647209583 179.4 C 345.613328541138 179.4 345.66175676379197 179.4 345.7586132091 179.4 C 345.855469654404 179.4 345.903897877056 239.2 346.00075432236 239.2 C 346.097610767668 239.2 346.146038990322 239.2 346.24289543563 239.2 C 346.33975188093797 239.2 346.38818010359194 239.2 346.4850365489 239.2 C 346.58189299420394 239.2 346.630321216856 179.4 346.72717766216 179.4 C 346.824034107468 179.4 346.87246233012195 239.2 346.96931877543 239.2 C 347.066175220738 239.2 347.11460344339196 239.2 347.2114598887 239.2 C 347.30831633400396 239.2 347.356744556656 239.2 347.45360100196 239.2 C 347.550457447268 239.2 347.59888566992197 239.2 347.69574211523 239.2 C 347.792598560538 239.2 347.841026783192 239.2 347.9378832285 239.2 C 348.034739673804 239.2 348.083167896456 239.2 348.18002434176 239.2 C 348.27688078706797 239.2 348.325309009722 239.2 348.42216545503 239.2 C 348.519021900338 239.2 348.567450122992 179.4 348.6643065683 179.4 C 348.761163013604 179.4 348.809591236256 239.2 348.90644768156 239.2 C 349.003304126868 239.2 349.051732349522 179.4 349.14858879483 179.4 C 349.245445240138 179.4 349.293873462792 239.2 349.3907299081 239.2 C 349.487586353404 239.2 349.536014576056 239.2 349.63287102136 239.2 C 349.729727466668 239.2 349.77815568932203 179.4 349.87501213463 179.4 C 349.971868579938 179.4 350.02029680259204 179.4 350.1171532479 179.4 C 350.214009693204 179.4 350.26243791585597 239.2 350.35929436116 239.2 C 350.456150806468 239.2 350.504579029122 239.2 350.60143547443 239.2 C 350.698291919738 239.2 350.746720142392 179.4 350.8435765877 179.4 C 350.940433033004 179.4 350.988861255656 179.4 351.08571770096 179.4 C 351.182574146268 179.4 351.231002368922 179.4 351.32785881423 179.4 C 351.424715259538 179.4 351.47314348219203 179.4 351.5699999275 179.4 C 351.66685637280403 179.4 351.715284595456 179.4 351.81214104076 179.4 C 351.918217905772 179.4 351.971256338278 179.4 352.07733320329 179.4 C 352.16496922889 179.4 352.20878724168995 179.4 352.29642326729 179.4 C 352.393279712598 179.4 352.441707935252 239.2 352.53856438056 239.2 C 352.635420825868 239.2 352.683849048522 179.4 352.78070549383 179.4 C 352.877561939134 179.4 352.925990161786 179.4 353.02284660709 179.4 C 353.119703052398 179.4 353.168131275052 119.60000000000002 353.26498772036 119.60000000000002 C 353.361844165668 119.60000000000002 353.410272388322 119.60000000000002 353.50712883363 119.60000000000002 C 353.60398527893403 119.60000000000002 353.652413501586 119.60000000000002 353.74926994689 119.60000000000002 C 353.846126392198 119.60000000000002 353.89455461485204 179.4 353.99141106016 179.4 C 354.088267505468 179.4 354.136695728122 179.4 354.23355217343 179.4 C 354.330408618734 179.4 354.37883684138603 179.4 354.47569328669 179.4 C 354.57254973199804 179.4 354.620977954652 179.4 354.71783439996 179.4 C 354.81469084526805 179.4 354.863119067922 179.4 354.95997551323 179.4 C 355.056831958534 179.4 355.10526018118605 179.4 355.20211662649 179.4 C 355.29897307179806 179.4 355.347401294452 179.4 355.44425773976 179.4 C 355.54111418506807 179.4 355.58954240772204 179.4 355.68639885303 179.4 C 355.783255298334 179.4 355.831683520986 239.2 355.92853996629 239.2 C 356.025396411598 239.2 356.073824634252 179.4 356.17068107956 179.4 C 356.26753752486803 179.4 356.315965747522 179.4 356.41282219283 179.4 C 356.509678638134 179.4 356.55810686078604 179.4 356.65496330609 179.4 C 356.75181975139805 179.4 356.800247974052 179.4 356.89710441936 179.4 C 356.99396086466805 179.4 357.042389087322 179.4 357.13924553263 179.4 C 357.236101977934 179.4 357.28453020058606 179.4 357.38138664589 179.4 C 357.47824309119807 179.4 357.52667131385203 179.4 357.62352775916 179.4 C 357.720384204468 179.4 357.768812427122 179.4 357.86566887243 179.4 C 357.962525317734 179.4 358.01095354038597 179.4 358.10780998569 179.4 C 358.204666430998 179.4 358.253094653652 239.2 358.34995109896 239.2 C 358.446807544268 239.2 358.495235766922 239.2 358.59209221223 239.2 C 358.688948657534 239.2 358.737376880186 179.4 358.83423332549 179.4 C 358.931089770798 179.4 358.979517993452 179.4 359.07637443876 179.4 C 359.173230884064 179.4 359.221659106716 179.4 359.31851555202 179.4 C 359.415371997328 179.4 359.46380021998203 179.4 359.56065666529 179.4 C 359.657513110598 179.4 359.705941333252 179.4 359.80279777856 179.4 C 359.89965422386393 179.4 359.94808244651597 179.4 360.04493889182 179.4 C 360.141795337128 179.4 360.19022355978194 239.2 360.28708000509 239.2 C 360.383936450398 239.2 360.43236467305195 179.4 360.52922111836 179.4 C 360.62607756366396 179.4 360.674505786316 179.4 360.77136223162 179.4 C 360.868218676928 179.4 360.91664689958196 239.2 361.01350334489 239.2 C 361.110359790198 239.2 361.15878801285197 239.2 361.25564445816 239.2 C 361.352500903464 239.2 361.400929126116 239.2 361.49778557142 239.2 C 361.594642016728 239.2 361.643070239382 239.2 361.73992668469 239.2 C 361.83678312999797 239.2 361.88521135265194 179.4 361.98206779796 179.4 C 362.07892424326394 179.4 362.127352465916 179.4 362.22420891122 179.4 C 362.321065356528 179.4 362.36949357918195 179.4 362.46635002449 179.4 C 362.563206469798 179.4 362.61163469245196 239.2 362.70849113776 239.2 C 362.80534758306396 239.2 362.853775805716 59.80000000000001 362.95063225102 59.80000000000001 C 363.047488696328 59.80000000000001 363.09591691898197 119.60000000000002 363.19277336429 119.60000000000002 C 363.289629809598 119.60000000000002 363.338058032252 119.60000000000002 363.43491447756 119.60000000000002 C 363.72548381347997 119.60000000000002 363.87076848144 179.4 364.16133781736 179.4 C 364.258194262664 179.4 364.306622485316 179.4 364.40347893062 179.4 C 364.69404826654 179.4 364.8393329345 119.60000000000002 365.12990227042 119.60000000000002 C 365.226758715728 119.60000000000002 365.27518693838203 239.2 365.37204338369 239.2 C 365.468899828998 239.2 365.51732805165204 119.60000000000002 365.61418449696 119.60000000000002 C 365.711040942264 119.60000000000002 365.75946916491597 163.4533333335517 365.85632561022 179.4 C 366.050038500832 211.2933333335517 366.146894946138 239.2 366.34060783675 239.2 C 366.437464282058 239.2 366.485892504712 239.2 366.58274895002 239.2 C 366.679605395328 239.2 366.728033617982 119.60000000000002 366.82489006329 119.60000000000002 C 366.921746508594 119.60000000000002 366.970174731246 179.4 367.06703117655 179.4 C 367.163887621858 179.4 367.21231584451203 119.60000000000002 367.30917228982 119.60000000000002 C 367.40602873512796 119.60000000000002 367.454456957782 239.2 367.55131340309 239.2 C 367.648169848394 239.2 367.69659807104597 239.2 367.79345451635 239.2 C 367.890310961658 239.2 367.938739184312 179.4 368.03559562962 179.4 C 368.132452074928 179.4 368.180880297582 239.2 368.27773674289 239.2 C 368.374593188194 239.2 368.423021410846 239.2 368.51987785615 239.2 C 368.616734301458 239.2 368.665162524112 239.2 368.76201896942 239.2 C 368.858875414728 239.2 368.90730363738203 239.2 369.00416008269 239.2 C 369.10101652799403 239.2 369.149444750646 239.2 369.24630119595 239.2 C 369.343157641258 239.2 369.39158586391204 179.4 369.48844230922 179.4 C 369.585298754528 179.4 369.633726977182 239.2 369.73058342249 239.2 C 369.827439867794 239.2 369.87586809044603 239.2 369.97272453575 239.2 C 370.06958098105804 239.2 370.118009203712 179.4 370.21486564902 179.4 C 370.408578539632 179.4 370.505434984938 239.2 370.69914787555 239.2 C 370.79600432085806 239.2 370.844432543512 179.4 370.94128898882 179.4 C 371.03814543412807 179.4 371.08657365678204 239.2 371.18343010209 239.2 C 371.280286547394 239.2 371.328714770046 179.4 371.42557121535 179.4 C 371.522427660658 179.4 371.570855883312 239.2 371.66771232862 239.2 C 371.76456877392803 239.2 371.812996996582 179.4 371.90985344189 179.4 C 372.006709887194 179.4 372.05513810984604 179.4 372.15199455515 179.4 C 372.24885100045805 179.4 372.297279223112 179.4 372.39413566842 179.4 C 372.490992113724 179.4 372.53942033637605 179.4 372.63627678168 179.4 C 372.73313322698806 179.4 372.781561449642 119.60000000000002 372.87841789495 119.60000000000002 C 373.072130785562 119.60000000000002 373.16898723086797 179.4 373.36270012148 179.4 C 373.45955656678797 179.4 373.507984789442 179.4 373.60484123475 179.4 C 373.701697680058 179.4 373.750125902712 239.2 373.84698234802 239.2 C 373.943838793324 239.2 373.992267015976 239.2 374.08912346128 239.2 C 374.185979906588 239.2 374.234408129242 239.2 374.33126457455 239.2 C 374.428121019858 239.2 374.476549242512 239.2 374.57340568782 239.2 C 374.670262133124 239.2 374.718690355776 239.2 374.81554680108 239.2 C 374.912403246388 239.2 374.96083146904203 179.4 375.05768791435 179.4 C 375.154544359658 179.4 375.202972582312 179.4 375.29982902762 179.4 C 375.39668547292393 179.4 375.44511369557597 239.2 375.54197014088 239.2 C 375.638826586188 239.2 375.68725480884194 179.4 375.78411125415 179.4 C 375.880967699458 179.4 375.92939592211195 179.4 376.02625236742 179.4 C 376.12310881272396 179.4 376.171537035376 239.2 376.26839348068 239.2 C 376.365249925988 239.2 376.41367814864196 239.2 376.51053459395 239.2 C 376.607391039258 239.2 376.655819261912 239.2 376.75267570722 239.2 C 376.849532152524 239.2 376.897960375176 179.4 376.99481682048 179.4 C 377.091673265788 179.4 377.140101488442 239.2 377.23695793375 239.2 C 377.33381437905797 239.2 377.38224260171194 119.60000000000002 377.47909904702 119.60000000000002 C 377.57595549232394 119.60000000000002 377.624383714976 179.4 377.72124016028 179.4 C 377.818096605588 179.4 377.86652482824195 179.4 377.96338127355 179.4 C 378.060237718858 179.4 378.10866594151196 179.4 378.20552238682 179.4 C 378.30237883212396 179.4 378.350807054776 179.4 378.44766350008 179.4 C 378.544519945388 179.4 378.59294816804197 179.4 378.68980461335 179.4 C 378.78666105865796 179.4 378.835089281312 179.4 378.93194572662 179.4 C 379.028802171924 179.4 379.07723039457596 179.4 379.17408683988 179.4 C 379.27094328518797 179.4 379.319371507842 179.4 379.41622795315 179.4 C 379.513084398454 179.4 379.561512621106 239.2 379.65836906641 239.2 C 379.755225511718 239.2 379.803653734372 179.4 379.90051017968 179.4 C 379.997366624988 179.4 380.045794847642 179.4 380.14265129295 179.4 C 380.239507738254 179.4 380.287935960906 119.60000000000002 380.38479240621 119.60000000000002 C 380.481648851518 119.60000000000002 380.530077074172 119.60000000000002 380.62693351948 119.60000000000002 C 380.691885631068 119.60000000000002 380.724361686862 119.60000000000002 380.78931379845 119.60000000000002 C 380.918074577474 119.60000000000002 380.982454966986 152.0974937895532 381.11121574601 179.4 C 381.20807219131797 199.93749378955317 381.256500413972 239.2 381.35335685928 239.2 C 381.547069749892 239.2 381.643926195198 179.4 381.83763908581 179.4 C 381.934495531118 179.4 381.982923753772 179.4 382.07978019908 179.4 C 382.176636644388 179.4 382.225064867042 119.60000000000002 382.32192131235 119.60000000000002 C 382.418777757654 119.60000000000002 382.467205980306 239.2 382.56406242561 239.2 C 382.660918870918 239.2 382.70934709357203 179.4 382.80620353888 179.4 C 382.90305998418796 179.4 382.951488206842 179.4 383.04834465215 179.4 C 383.145201097454 179.4 383.19362932010597 119.60000000000002 383.29048576541 119.60000000000002 C 383.387342210718 119.60000000000002 383.435770433372 119.60000000000002 383.53262687868 119.60000000000002 C 383.629483323988 119.60000000000002 383.677911546642 119.60000000000002 383.77476799195 119.60000000000002 C 383.871624437254 119.60000000000002 383.920052659906 179.4 384.01690910521 179.4 C 384.113765550518 179.4 384.162193773172 119.60000000000002 384.25905021848 119.60000000000002 C 384.355906663788 119.60000000000002 384.40433488644203 119.60000000000002 384.50119133175 119.60000000000002 C 384.59804777705403 119.60000000000002 384.646475999706 179.4 384.74333244501 179.4 C 384.840188890318 179.4 384.88861711297204 179.4 384.98547355828 179.4 C 385.082330003588 179.4 385.130758226242 239.2 385.22761467155 239.2 C 385.324471116854 239.2 385.37289933950603 119.60000000000002 385.46975578481 119.60000000000002 C 385.56661223011804 119.60000000000002 385.615040452772 119.60000000000002 385.71189689808 119.60000000000002 C 385.80875334338805 119.60000000000002 385.857181566042 119.60000000000002 385.95403801135 119.60000000000002 C 386.050894456654 119.60000000000002 386.09932267930606 59.80000000000001 386.19617912461 59.80000000000001 C 386.29303556991806 59.80000000000001 386.34146379257203 103.65333333311499 386.43832023788 119.60000000000002 C 386.632033128492 151.493333333115 386.728889573798 179.4 386.92260246441 179.4 C 387.019458909718 179.4 387.067887132372 179.4 387.16474357768 179.4 C 387.261600022984 179.4 387.31002824563603 119.60000000000002 387.40688469094 119.60000000000002 C 387.50374113624804 119.60000000000002 387.552169358902 155.48000000000704 387.64902580421 179.4 C 387.74588224951805 203.320000000007 387.794310472172 239.2 387.89116691748 239.2 C 387.988023362784 239.2 388.03645158543605 239.2 388.13330803074 239.2 C 388.23016447604806 239.2 388.278592698702 239.2 388.37544914401 239.2 C 388.47230558931807 239.2 388.52073381197204 239.2 388.61759025728 239.2 C 388.71444670258404 239.2 388.76287492523596 179.4 388.85973137054 179.4 C 388.95658781584797 179.4 389.005016038502 179.4 389.10187248381 179.4 C 389.198728929118 179.4 389.247157151772 179.4 389.34401359708 179.4 C 389.537726487692 179.4 389.634582932998 239.2 389.82829582361 239.2 C 389.925152268918 239.2 389.973580491572 239.2 390.07043693688 239.2 C 390.167293382184 239.2 390.215721604836 239.2 390.31257805014 239.2 C 390.409434495448 239.2 390.45786271810204 191.36000000012282 390.55471916341 179.4 C 390.84528849933 143.52000000012285 390.99057316729 119.60000000000002 391.28114250321 119.60000000000002 C 391.377998948518 119.60000000000002 391.42642717117195 119.60000000000002 391.52328361648 119.60000000000002 C 391.62014006178396 119.60000000000002 391.668568284436 239.2 391.76542472974 239.2 C 391.862281175048 239.2 391.91070939770196 239.2 392.00756584301 239.2 C 392.104422288318 239.2 392.152850510972 179.4 392.24970695628 179.4 C 392.346563401584 179.4 392.394991624236 239.2 392.49184806954 239.2 C 392.588704514848 239.2 392.637132737502 179.4 392.73398918281 179.4 C 392.927702073422 179.4 393.024558518728 179.4 393.21827140934 179.4 C 393.315127854648 179.4 393.36355607730195 119.60000000000002 393.46041252261 119.60000000000002 C 393.55726896791396 119.60000000000002 393.605697190566 119.60000000000002 393.70255363587 119.60000000000002 C 393.799410081178 119.60000000000002 393.84783830383196 59.80000000000001 393.94469474914 59.80000000000001 C 394.138407639752 59.80000000000001 394.235264085058 179.4 394.42897697567 179.4 C 394.52583342097796 179.4 394.574261643632 179.4 394.67111808894 179.4 C 394.76797453424797 179.4 394.816402756902 179.4 394.91325920221 179.4 C 395.010115647514 179.4 395.058543870166 179.4 395.15540031547 179.4 C 395.252256760778 179.4 395.300684983432 179.4 395.39754142874 179.4 C 395.494397874048 179.4 395.542826096702 119.60000000000002 395.63968254201 119.60000000000002 C 395.736538987314 119.60000000000002 395.784967209966 119.60000000000002 395.88182365527 119.60000000000002 C 395.978680100578 119.60000000000002 396.027108323232 179.4 396.12396476854 179.4 C 396.220821213848 179.4 396.26924943650204 179.4 396.36610588181 179.4 C 396.462962327114 179.4 396.51139054976596 179.4 396.60824699507 179.4 C 396.70510344037797 179.4 396.753531663032 179.4 396.85038810834 179.4 C 396.947244553648 179.4 396.995672776302 179.4 397.09252922161 179.4 C 397.189385666914 179.4 397.237813889566 179.4 397.33467033487 179.4 C 397.62523967079 179.4 397.77052433875 179.4 398.06109367467 179.4 C 398.157950119978 179.4 398.20637834263204 179.4 398.30323478794 179.4 C 398.40009123324796 179.4 398.448519455902 179.4 398.54537590121 179.4 C 398.642232346514 179.4 398.69066056916597 179.4 398.78751701447 179.4 C 398.884373459778 179.4 398.932801682432 179.4 399.02965812774 179.4 C 399.126514573048 179.4 399.174942795702 179.4 399.27179924101 179.4 C 399.368655686314 179.4 399.417083908966 179.4 399.51394035427 179.4 C 399.610796799578 179.4 399.659225022232 179.4 399.75608146754 179.4 C 399.852937912848 179.4 399.90136613550203 179.4 399.99822258081 179.4 C 400.09507902611404 179.4 400.143507248766 179.4 400.24036369407 179.4 C 400.337220139378 179.4 400.38564836203204 179.4 400.48250480734 179.4 C 400.579361252644 179.4 400.627789475296 179.4 400.7246459206 179.4 C 401.11207170182803 179.4 401.305784592442 179.4 401.69321037367 179.4 C 401.79006681897806 179.4 401.83849504163203 179.4 401.93535148694 179.4 C 402.03220793224403 179.4 402.08063615489607 179.4 402.1774926002 179.4 C 402.274349045508 179.4 402.322777268162 179.4 402.41963371347 179.4 C 402.516490158778 179.4 402.564918381432 179.4 402.66177482674 179.4 C 402.758631272044 179.4 402.80705949469603 179.4 402.90391594 179.4 C 403.00077238530804 179.4 403.049200607962 179.4 403.14605705327 179.4 C 403.24291349857805 179.4 403.291341721232 179.4 403.38819816654 179.4 C 403.485054611844 179.4 403.53348283449606 179.4 403.6303392798 179.4 C 403.72719572510806 179.4 403.775623947762 179.4 403.87248039307 179.4 C 403.969336838378 179.4 404.017765061032 179.4 404.11462150634 179.4 C 404.211477951644 179.4 404.25990617429596 179.4 404.3567626196 179.4 C 404.45361906490797 179.4 404.502047287562 239.2 404.59890373287 239.2 C 404.695760178178 239.2 404.744188400832 239.2 404.84104484614 239.2 C 404.937901291444 239.2 404.986329514096 179.4 405.0831859594 179.4 C 405.180042404708 179.4 405.228470627362 179.4 405.32532707267 179.4 C 405.422183517978 179.4 405.470611740632 179.4 405.56746818594 179.4 C 405.664324631244 179.4 405.712752853896 239.2 405.8096092992 239.2 C 405.906465744508 239.2 405.95489396716204 239.2 406.05175041247 239.2 C 406.148606857778 239.2 406.197035080432 239.2 406.29389152574 239.2 C 406.39074797104394 239.2 406.43917619369597 239.2 406.536032639 239.2 C 406.632889084308 239.2 406.68131730696194 239.2 406.77817375227 239.2 C 406.875030197578 239.2 406.92345842023195 239.2 407.02031486554 239.2 C 407.11717131084396 239.2 407.165599533496 179.4 407.2624559788 179.4 C 407.359312424108 179.4 407.40774064676197 179.4 407.50459709207 179.4 C 407.60145353737397 179.4 407.649881760026 119.60000000000002 407.74673820533 119.60000000000002 C 407.843594650638 119.60000000000002 407.892022873292 239.2 407.9888793186 239.2 C 408.085735763908 239.2 408.134163986562 179.4 408.23102043187 179.4 C 408.32787687717394 179.4 408.37630509982597 179.4 408.47316154513 179.4 C 408.570017990438 179.4 408.61844621309194 239.2 408.7153026584 239.2 C 408.812159103708 239.2 408.86058732636195 239.2 408.95744377167 239.2 C 409.05430021697396 239.2 409.102728439626 239.2 409.19958488493 239.2 C 409.296441330238 239.2 409.34486955289196 239.2 409.4417259982 239.2 C 409.63543888881196 239.2 409.73229533411796 119.60000000000002 409.92600822473 119.60000000000002 C 410.11972111534595 119.60000000000002 410.21657756065395 239.2 410.41029045127 239.2 C 410.507146896574 239.2 410.555575119226 239.2 410.65243156453 239.2 C 411.330426681678 239.2 411.669424240252 119.60000000000002 412.3474193574 119.60000000000002 C 412.44427580270803 119.60000000000002 412.49270402536206 239.2 412.58956047067 239.2 C 413.07384269720194 239.2 413.31598381046797 239.2 413.800266037 239.2 C 413.89712248230796 239.2 413.945550704962 239.2 414.04240715027 239.2 C 414.139263595574 239.2 414.18769181822597 239.2 414.28454826353 239.2 C 414.381404708838 239.2 414.429832931492 239.2 414.5266893768 239.2 C 414.623545822104 239.2 414.671974044756 239.2 414.76883049006 239.2 C 414.865686935368 239.2 414.914115158022 239.2 415.01097160333 239.2 C 416.912765843306 239.2 417.86366296329396 239.2 419.76545720327 239.2 C 419.86231364857395 239.2 419.9107418712259 239.2 420.00759831653 239.2 C 420.1044547618379 239.2 420.15288298449195 239.2 420.2497394298 239.2 C 420.34659587510794 239.2 420.39502409776196 239.2 420.49188054307 239.2 C 420.58873698837397 239.2 420.63716521102594 239.2 420.73402165633 239.2 C 420.83087810163795 239.2 420.879306324292 239.2 420.9761627696 239.2 C 421.07301921490796 239.2 421.121447437562 239.2 421.21830388287 239.2 C 421.315160328174 239.2 421.36358855082597 239.2 421.46044499613 239.2 C 421.55730144143797 239.2 421.605729664092 239.2 421.7025861094 239.2 C 421.799442554708 239.2 421.847870777362 239.2 421.94472722267 239.2 C 422.041583667974 239.2 422.090011890626 239.2 422.18686833593 239.2 C 422.283724781238 239.2 422.332153003892 239.2 422.4290094492 239.2 C 422.81643523042806 239.2 423.01014812104205 212.888 423.39757390227 212.888 C 424.172425464722 212.888 424.559851245948 239.2 425.3347028084 239.2 C 425.52841569901204 239.2 425.62527214431805 185.978 425.81898503493 185.978 C 425.91584148023804 185.978 425.964269702892 185.978 426.0611261482 185.978 C 426.157982593504 185.978 426.20641081615605 185.978 426.30326726146 185.978 C 426.40012370676806 185.978 426.448551929422 185.978 426.54540837473 185.978 C 426.64226482003806 185.978 426.69069304269203 185.978 426.787549488 185.978 C 426.884405933304 185.978 426.93283415595596 185.978 427.02969060126 185.978 C 427.03312093369993 185.978 427.03483609991997 185.978 427.03826643236 185.978 C 427.135122877664 185.978 427.183551100316 199.433 427.28040754562 199.433 C 427.470690103796 199.433 427.56583138288397 185.978 427.75611394106 185.978 C 427.852970386368 185.978 427.901398609022 185.978 427.99825505433 185.978 C 428.095111499638 185.978 428.143539722292 185.978 428.2403961676 185.978 C 428.337252612904 185.978 428.385680835556 185.978 428.48253728086 185.978 C 428.579393726168 185.978 428.62782194882203 106.44399999999999 428.72467839413 106.44399999999999 C 428.821534839438 106.44399999999999 428.86996306209204 212.888 428.9668195074 212.888 C 429.06367595270393 212.888 429.11210417535597 159.666 429.20896062066 159.666 C 429.305817065968 159.666 429.35424528862194 196.98119999999534 429.45110173393 212.888 C 429.547958179238 228.79479999999532 429.59638640189195 239.2 429.6932428472 239.2 C 429.79009929250395 239.2 429.838527515156 239.2 429.93538396046 239.2 C 430.032240405768 239.2 430.08066862842196 239.2 430.17752507373 239.2 C 430.275574288222 239.2 430.324598895468 223.66348381464186 430.42264810996 212.888 C 430.51831178608 202.37468381464188 430.56614362414 185.978 430.66180730026 185.978 C 430.6652376327 185.978 430.66695279892 212.21201083310885 430.67038313136 212.589 C 430.8606656895319 233.50081083310883 430.955806968618 239.2 431.14608952679 239.2 C 431.14951985923 239.2 431.1512350254499 239.2 431.15466535789 239.2 C 431.34494791606596 239.2 431.440089195154 239.2 431.63037175333 239.2 C 431.633802085766 239.2 431.63551725198397 239.2 431.63894758442 239.2 C 431.829230142596 239.2 431.924371421684 239.2 432.11465397986 239.2 C 432.21181534360403 239.2 432.2603960254761 239.2 432.35755738922 239.2 C 432.4541089160881 239.2 432.50238467952204 185.978 432.59893620639 185.978 C 432.69579265169796 185.978 432.744220874352 185.978 432.84107731966 185.978 C 432.94136409740406 185.978 432.99150748627596 199.433 433.09179426402 199.433 C 433.282076822196 199.433 433.37721810128403 185.978 433.56750065946 185.978 C 433.664357104768 185.978 433.712785327422 185.978 433.80964177273 185.978 C 433.906498218034 185.978 433.954926440686 185.978 434.05178288599 185.978 C 434.148639331298 185.978 434.197067553952 185.978 434.29392399926 185.978 C 434.390780444568 185.978 434.43920866722203 185.978 434.53606511253 185.978 C 435.40777312029 185.978 435.84362712417 106.44399999999999 436.71533513193 106.44399999999999 C 437.393330249074 106.44399999999999 437.732327807646 212.888 438.41032292479 212.888 C 438.510609702534 212.888 438.56075309140596 212.589 438.66103986915 212.589 C 438.757896314458 212.589 438.80632453711195 217.074 438.90318098242 217.074 C 439.09346354059596 217.074 439.18860481968403 185.978 439.37888737786 185.978 C 439.47574382316395 185.978 439.524172045816 239.2 439.62102849112 239.2 C 439.717884936428 239.2 439.76631315908196 185.978 439.86316960439 185.978 C 439.960026049698 185.978 440.00845427235197 239.2 440.10531071766 239.2 C 440.202167162964 239.2 440.250595385616 185.978 440.34745183092 185.978 C 440.444308276228 185.978 440.492736498882 185.978 440.58959294419 185.978 C 440.59302327663 185.978 440.5947384428499 185.978 440.59816877529 185.978 C 440.7884513334619 185.978 440.883592612548 185.978 441.07387517072 185.978 C 441.17073161602804 185.978 441.219159838682 185.978 441.31601628399 185.978 C 441.41287272929804 185.978 441.461300951952 185.978 441.55815739726 185.978 C 441.65844417500404 185.978 441.708587563876 185.978 441.80887434162 185.978 C 441.999156899796 185.978 442.09429817888406 185.978 442.28458073706 185.978 C 442.38143718236404 185.978 442.42986540501596 185.978 442.52672185032 185.978 C 442.62357829562796 185.978 442.672006518282 185.978 442.76886296359 185.978 C 442.865719408898 185.978 442.914147631552 185.978 443.01100407686 185.978 C 443.014434409296 185.978 443.016149575514 185.978 443.01957990795 185.978 C 443.248201475726 185.978 443.36251225961405 185.978 443.59113382739 185.978 C 443.784846718002 185.978 443.881703163308 185.978 444.07541605392 185.978 C 444.26912894453596 185.978 444.365985389844 185.978 444.55969828046 185.978 C 444.753411171072 185.978 444.850267616378 185.978 445.04398050699 185.978 C 445.140836952298 185.978 445.189265174952 185.978 445.28612162026 185.978 C 445.38297806556403 185.978 445.431406288216 185.978 445.52826273352 185.978 C 445.625119178828 185.978 445.67354740148204 185.978 445.77040384679 185.978 C 445.86726029209797 185.978 445.91568851475193 239.2 446.01254496006 239.2 C 446.10940140536394 239.2 446.157829628016 185.978 446.25468607332 185.978 C 446.351542518628 185.978 446.39997074128195 185.978 446.49682718659 185.978 C 446.593683631898 185.978 446.64211185455196 185.978 446.73896829986 185.978 C 446.83582474516396 185.978 446.884252967816 239.2 446.98110941312 239.2 C 447.077965858428 239.2 447.12639408108197 185.978 447.22325052639 185.978 C 447.320106971694 185.978 447.368535194346 185.978 447.46539163965 185.978 C 447.562248084958 185.978 447.610676307612 185.978 447.70753275292 185.978 C 447.8043891982279 185.978 447.85281742088193 185.978 447.94967386619 185.978 C 448.04653031149394 185.978 448.0949585341459 185.978 448.19181497945 185.978 C 448.2886714247579 185.978 448.33709964741195 185.978 448.43395609272 185.978 C 448.62766898333194 185.978 448.72452542863795 185.978 448.91823831925 185.978 C 449.01509476455794 185.978 449.06352298721197 185.978 449.16037943252 185.978 C 449.25723587782795 185.978 449.305664100482 239.2 449.40252054579 239.2 C 449.499376991094 239.2 449.54780521374596 239.2 449.64466165905 239.2 C 449.74151810435797 239.2 449.789946327012 192.556 449.88680277232 185.978 C 449.94875054046395 179.4 449.979724424536 179.4 450.04167219268 179.4 C 450.13852863798803 179.4 450.186956860642 209.3 450.28381330595 209.3 C 450.380669751254 209.3 450.42909797390604 203.32 450.52595441921 203.32 C 450.65166601385 203.32 450.71452181117 239.2 450.84023340581 239.2 C 451.22765918703396 239.2 451.42137207764597 239.2 451.80879785887 239.2 C 451.9056543041779 239.2 451.95408252683194 239.2 452.05093897214 239.2 C 452.1477954174479 239.2 452.19622364010195 119.60000000000002 452.29308008541 119.60000000000002 C 452.40075777222603 119.60000000000002 452.454596615634 179.4 452.56227430245 179.4 C 452.70969564153 179.4 452.78340631107005 119.60000000000002 452.93082765015 119.60000000000002 C 453.03429925615 119.60000000000002 453.08603505915 119.60000000000002 453.18950666515 119.60000000000002 C 453.28636311045403 119.60000000000002 453.334791333106 139.53333333333336 453.43164777841 139.53333333333336 C 453.558204624898 139.53333333333336 453.621483048142 119.60000000000002 453.74803989463 119.60000000000002 C 453.815195938758 119.60000000000002 453.8487739608219 219.26666666666668 453.91593000495 219.26666666666668 C 454.138498044894 219.26666666666668 454.24978206486605 59.80000000000001 454.47235010481 59.80000000000001 C 454.569206550114 59.80000000000001 454.617634772766 179.4 454.71449121807 179.4 C 454.811347663378 179.4 454.859775886032 179.4 454.95663233134 179.4 C 455.053488776648 179.4 455.10191699930203 239.2 455.19877344461 239.2 C 455.29562988991404 239.2 455.344058112566 239.2 455.44091455787 239.2 C 455.92519678440203 239.2 456.16733789766806 239.2 456.6516201242 239.2 C 456.79964569504 239.2 456.87365848046 215.95690277742804 457.0216840513 179.4 C 457.06737137107604 168.11690277742807 457.09021503096403 119.60000000000002 457.13590235074 119.60000000000002 C 457.232758796044 119.60000000000002 457.28118701869596 119.60000000000002 457.378043464 119.60000000000002 C 457.571756354616 119.60000000000002 457.668612799924 239.2 457.86232569054 239.2 C 457.959182135844 239.2 458.007610358496 239.2 458.1044668038 239.2 C 458.20253171262794 239.2 458.25156416704203 239.2 458.34962907587 239.2 C 458.54213350296203 239.2 458.63838571650797 119.60000000000002 458.8308901436 119.60000000000002 C 458.898891439576 119.60000000000002 458.932892087564 179.4 459.00089338354 179.4 C 459.12660497817996 179.4 459.1894607755 119.60000000000002 459.31517237014 119.60000000000002 C 459.412245173016 119.60000000000002 459.460781574454 239.2 459.55785437733 239.2 C 459.65697416943004 239.2 459.70653406548 239.2 459.80565385758 239.2 C 459.90058326319206 239.2 459.948047965998 239.2 460.04297737161 239.2 C 460.139513204146 239.2 460.187781120414 239.2 460.28431695295 239.2 C 460.38149401103 239.2 460.43008254007 239.2 460.52725959815 239.2 C 460.62494447994993 239.2 460.67378692085003 239.2 460.77147180265 239.2 C 460.838091997462 239.2 460.8714020948681 239.2 460.93802228968 239.2 C 461.06373388431604 239.2 461.12658968163396 179.4 461.25230127627 179.4 C 461.34950748096196 179.4 461.398110583308 239.2 461.495316788 239.2 C 461.59207682527204 239.2 461.64045684390805 239.2 461.73721688118 239.2 C 461.83381997513595 239.2 461.882121522114 239.2 461.97872461607 239.2 C 462.076508147954 239.2 462.12539991389605 239.2 462.22318344578 239.2 C 462.33116717206 239.2 462.3851590352 179.4 462.49314276148 179.4 C 462.58025975312 179.4 462.62381824894 239.2 462.71093524058 239.2 C 462.90257087432803 239.2 462.998388691202 179.4 463.19002432495 179.4 C 463.28692561120204 179.4 463.335376254328 239.2 463.43227754058 239.2 C 463.52885148792 239.2 463.57713846159004 239.2 463.67371240893 239.2 C 463.770568854238 239.2 463.818997076892 239.2 463.9158535222 239.2 C 464.17756770878805 239.2 464.308424802082 239.2 464.57013898867 239.2 C 464.69181489808597 239.2 464.75265285279403 239.2 464.87432876221 239.2 C 464.9711852075179 239.2 465.01961343017194 239.2 465.11646987548 239.2 C 465.2133263207879 239.2 465.26175454344195 239.2 465.35861098875 239.2 C 465.47543847078197 239.2 465.533852211798 239.2 465.65067969383 239.2 C 465.72756510241 239.2 465.7660078067 239.2 465.84289321528 239.2 C 465.93974966058795 239.2 465.988177883242 239.2 466.08503432855 239.2 C 466.181890773854 239.2 466.23031899650596 239.2 466.32717544181 239.2 C 466.42403188711796 239.2 466.472460109772 119.60000000000002 466.56931655508 119.60000000000002 C 466.66617300038797 119.60000000000002 466.714601223042 239.2 466.81145766835 239.2 C 466.908314113654 239.2 466.956742336306 239.2 467.05359878161 239.2 C 467.150455226918 239.2 467.198883449572 239.2 467.29573989488 239.2 C 467.392596340188 239.2 467.441024562842 179.4 467.53788100815 179.4 C 467.634737453454 179.4 467.683165676106 179.4 467.78002212141 179.4 C 467.876878566718 179.4 467.92530678937203 239.2 468.02216323468 239.2 C 468.119019679988 239.2 468.16744790264204 239.2 468.26430434795 239.2 C 468.36140181334594 239.2 468.409950546044 179.4 468.50704801144 179.4 C 468.603663436656 179.4 468.65197114926394 239.2 468.74858657448 239.2 C 468.84544301978804 239.2 468.89387124244206 239.2 468.99072768775 239.2 C 469.062764668946 239.2 469.0987831595439 239.2 469.17082014074 239.2 C 469.29249605015593 239.2 469.353334004864 239.2 469.47500991428 239.2 C 469.57186635958806 239.2 469.6202945822421 239.2 469.71715102755 239.2 C 469.8140074728541 239.2 469.86243569550606 239.2 469.95929214081 239.2 C 470.05614858611796 239.2 470.104576808772 239.2 470.20143325408 239.2 C 470.273470235276 239.2 470.30948872587396 239.2 470.38152570707 239.2 C 470.478382152378 239.2 470.52681037503197 239.2 470.62366682034 239.2 C 470.745342729756 239.2 470.80618068446404 239.2 470.92785659388 239.2 C 471.024713039188 239.2 471.073141261842 239.2 471.16999770715 239.2 C 471.266854152454 239.2 471.315282375106 119.60000000000002 471.41213882041 119.60000000000002 C 471.508995265718 119.60000000000002 471.557423488372 239.2 471.65427993368 239.2 C 471.75113637898403 239.2 471.799564601636 119.60000000000002 471.89642104694 119.60000000000002 C 471.99853509327204 119.60000000000002 472.049592116438 119.60000000000002 472.15170616277 119.60000000000002 C 472.243305007054 119.60000000000002 472.2891044291961 156.1473297240666 472.38070327348 179.4 C 472.47755971878394 203.98732972406657 472.525987941436 239.2 472.62284438674 239.2 C 472.69488136794007 239.2 472.73089985854006 239.2 472.80293683974 239.2 C 472.92461274915604 239.2 472.9854507038641 239.2 473.10712661328 239.2 C 473.20398305858396 239.2 473.252411281236 239.2 473.34926772654 239.2 C 473.446124171848 239.2 473.49455239450197 239.2 473.59140883981 239.2 C 473.688265285118 239.2 473.736693507772 239.2 473.83354995308 239.2 C 473.930406398384 239.2 473.978834621036 119.60000000000002 474.07569106634 119.60000000000002 C 474.172547511648 119.60000000000002 474.220975734302 239.2 474.31783217961 239.2 C 474.414688624918 239.2 474.463116847572 179.4 474.55997329288 179.4 C 474.63201027407604 179.4 474.668028764674 209.3 474.74006574587 209.3 C 474.861741655286 209.3 474.92257960999405 179.4 475.04425551941 179.4 C 475.14206259279 179.4 475.19096612948 239.2 475.28877320286 239.2 C 475.384679020092 239.2 475.432631928708 239.2 475.52853774594 239.2 C 475.60057472713595 239.2 475.636593217734 179.4 475.70863019893 179.4 C 475.83503570722206 179.4 475.89823846136807 239.2 476.02464396966 239.2 C 476.11677081609196 239.2 476.162834239308 119.60000000000002 476.25496108574 119.60000000000002 C 476.65064993245596 119.60000000000002 476.848494355814 179.4 477.24418320253 179.4 C 477.343004802338 179.4 477.392415602242 179.4 477.49123720205 179.4 C 477.59090069063006 179.4 477.64073243492004 119.60000000000002 477.7403959235 119.60000000000002 C 477.824217105544 119.60000000000002 477.86612769656597 179.4 477.94994887861 179.4 C 478.04680532391393 179.4 478.09523354656596 179.4 478.19208999187 179.4 C 478.36098341837396 179.4 478.44543013162604 149.5 478.61432355813 149.5 C 478.78442769020205 149.5 478.869479756238 179.4 479.03958388831 179.4 C 479.06319264685396 179.4 479.074997026126 179.4 479.09860578467 179.4 C 479.19546222997394 179.4 479.243890452626 119.60000000000002 479.34074689793 119.60000000000002 C 479.437603343238 119.60000000000002 479.48603156589195 179.4 479.5828880112 179.4 C 479.679744456508 179.4 479.72817267916196 179.4 479.82502912447 179.4 C 479.96563239756995 179.4 480.03593403412 239.2 480.17653730722 239.2 C 480.229646924732 239.2 480.25620173348796 179.4 480.309311351 179.4 C 480.42695157519603 179.4 480.48577168729406 179.4 480.60341191149 179.4 C 480.71284400035404 179.4 480.767560044786 239.2 480.87699213365 239.2 C 480.96127293539803 239.2 481.00341333627205 179.4 481.08769413802 179.4 C 481.184550583328 179.4 481.23297880598204 179.4 481.32983525129 179.4 C 481.42839341053 179.4 481.47767249015 119.60000000000002 481.57623064939 119.60000000000002 C 481.72819998151 119.60000000000002 481.80418464757 119.60000000000002 481.95615397969 119.60000000000002 C 481.9970668596419 119.60000000000002 482.017523299618 119.60000000000002 482.05843617957 119.60000000000002 C 482.154421589482 119.60000000000002 482.202414294438 155.58804276202875 482.29839970435 179.4 C 482.39525614965805 203.42804276202872 482.4436843723121 239.2 482.54054081762 239.2 C 482.63739726292806 239.2 482.6858254855821 179.4 482.78268193089 179.4 C 482.8795383761941 179.4 482.92796659884607 179.4 483.02482304415 179.4 C 483.12167948945796 179.4 483.170107712112 179.4 483.26696415742 179.4 C 483.36382060272797 179.4 483.412248825382 179.4 483.50910527069 179.4 C 483.605961715994 179.4 483.654389938646 179.4 483.75124638395 179.4 C 483.864048269974 179.4 483.920449212986 179.4 484.03325109901 179.4 C 484.131248746418 179.4 484.180247570122 179.4 484.27824521753 179.4 C 484.360217831534 179.4 484.401204138536 179.4 484.48317675254 179.4 C 484.55704660744397 179.4 484.593981534896 179.4 484.6678513898 179.4 C 484.80911942994 179.4 484.87975345001007 239.2 485.02102149015 239.2 C 485.094596515826 239.2 485.13138402866406 239.2 485.20495905434 239.2 C 485.30146910333207 239.2 485.349724127828 179.4 485.44623417682 179.4 C 485.54343253434797 179.4 485.592031713112 239.2 485.68923007064 239.2 C 485.785744603724 239.2 485.834001870266 203.27770544026072 485.93051640335 179.4 C 486.027372848658 155.43770544026074 486.07580107131196 119.60000000000002 486.17265751662 119.60000000000002 C 486.24873018303606 119.60000000000002 486.28676651624403 179.4 486.36283918266 179.4 C 486.48172374313197 179.4 486.54116602336796 179.4 486.66005058384 179.4 C 486.76506359738795 179.4 486.81757010416203 179.4 486.92258311771 179.4 C 486.98925487961003 179.4 487.02259076056 179.4 487.08926252246 179.4 C 487.18611896776804 179.4 487.234547190422 179.4 487.33140363573 179.4 C 487.42826008103805 179.4 487.476688303692 149.5 487.573544749 149.5 C 487.670401194304 149.5 487.71882941695605 163.198306679501 487.81568586226 179.4 C 487.93332608645596 199.078306679501 487.992146198554 239.2 488.10978642275 239.2 C 488.20899701777 239.2 488.25860231528003 179.4 488.3578129103 179.4 C 488.45231520589203 179.4 488.499566353688 179.4 488.59406864928 179.4 C 488.69092509458807 179.4 488.73935331724203 179.4 488.83620976255 179.4 C 488.9330662078581 179.4 488.981494430512 179.4 489.07835087582 179.4 C 489.175207321124 179.4 489.22363554377597 179.4 489.32049198908 179.4 C 489.417348434388 179.4 489.465776657042 179.4 489.56263310235 179.4 C 489.659489547658 179.4 489.707917770312 179.4 489.80477421562 179.4 C 489.901630660924 179.4 489.950058883576 179.4 490.04691532888 179.4 C 490.143771774188 179.4 490.192199996842 179.4 490.28905644215 179.4 C 490.385912887458 179.4 490.43434111011203 179.4 490.53119755542 179.4 C 490.62805400072403 179.4 490.676482223376 119.60000000000002 490.77333866868 119.60000000000002 C 490.870195113988 119.60000000000002 490.91862333664193 119.60000000000002 491.01547978195 119.60000000000002 C 491.53558992505793 119.60000000000002 491.795644996612 151.64742127796362 492.31575513972 179.4 C 492.35599988956403 181.54742127796362 492.376122264486 194.35000000000002 492.41636701433 194.35000000000002 C 494.57202827518597 194.35000000000002 495.649858905614 119.60000000000002 497.80552016647 119.60000000000002 C 497.999233057082 119.60000000000002 498.096089502388 119.60000000000002 498.289802393 119.60000000000002 C 498.386658838308 119.60000000000002 498.435087060962 119.60000000000002 498.53194350627 119.60000000000002 C 498.664153675134 119.60000000000002 498.730258759566 179.4 498.86246892843 179.4 C 498.924358403346 179.4 498.95530314080395 179.4 499.01719261572 179.4 C 499.113662307856 179.4 499.16189715392403 59.80000000000001 499.25836684606 59.80000000000001 C 499.355223291368 59.80000000000001 499.40365151402204 59.80000000000001 499.50050795933 59.80000000000001 C 499.59736440463803 59.80000000000001 499.64579262729205 119.60000000000002 499.7426490726 119.60000000000002 C 499.84693902588 119.60000000000002 499.89908400252 59.80000000000001 500.0033739558 59.80000000000001 C 500.092796893132 59.80000000000001 500.137508361798 119.60000000000002 500.22693129913 119.60000000000002 C 500.80806997097 119.60000000000002 501.09863930689 119.60000000000002 501.67977797873 119.60000000000002 C 501.776634424038 119.60000000000002 501.825062646692 179.4 501.921919092 179.4 C 502.018775537304 179.4 502.067203759956 179.4 502.16406020526 179.4 C 502.260916650568 179.4 502.309344873222 179.4 502.40620131853 179.4 C 502.503057763838 179.4 502.551485986492 135.5466666668882 502.6483424318 119.60000000000002 C 502.84205532241197 87.70666666688817 502.938911767718 59.80000000000001 503.13262465833 59.80000000000001 C 503.22948110363797 59.80000000000001 503.27790932629193 95.67999999949463 503.3747657716 119.60000000000002 C 503.47162221690394 143.51999999949464 503.520050439556 179.4 503.61690688486 179.4 C 503.713763330168 179.4 503.76219155282195 179.4 503.85904799813 179.4 C 503.955904443438 179.4 504.00433266609195 179.4 504.1011891114 179.4 C 504.294902002012 179.4 504.391758447318 59.80000000000001 504.58547133793 59.80000000000001 C 504.682327783238 59.80000000000001 504.730756005892 119.60000000000002 504.8276124512 119.60000000000002 C 504.924468896504 119.60000000000002 504.972897119156 119.60000000000002 505.06975356446 119.60000000000002 C 505.36032290038 119.60000000000002 505.50560756834 119.60000000000002 505.79617690426 119.60000000000002 C 505.89303334956804 119.60000000000002 505.941461572222 179.4 506.03831801753 179.4 C 506.135174462834 179.4 506.18360268548605 179.4 506.28045913079 179.4 C 506.37731557609806 179.4 506.425743798752 179.4 506.52260024406 179.4 C 506.61945668936806 179.4 506.66788491202203 179.4 506.76474135733 179.4 C 506.86159780263404 179.4 506.9100260252861 179.4 507.00688247059 179.4 C 507.1037389158981 179.4 507.152167138552 179.4 507.24902358386 179.4 C 507.345880029168 179.4 507.394308251822 179.4 507.49116469713 179.4 C 507.588021142434 179.4 507.636449365086 179.4 507.73330581039 179.4 C 507.80534279159 179.4 507.84136128218995 179.4 507.91339826339 179.4 C 508.035074172806 179.4 508.095912127514 119.60000000000002 508.21758803693 119.60000000000002 C 508.314444482234 119.60000000000002 508.362872704886 179.4 508.45972915019 179.4 C 508.653442040806 179.4 508.75029848611393 179.4 508.94401137673 179.4 C 509.04086782203393 179.4 509.08929604468597 179.4 509.18615248999 179.4 C 509.28300893529797 179.4 509.33143715795194 179.4 509.42829360326 179.4 C 509.525150048568 179.4 509.57357827122195 239.2 509.67043471653 239.2 C 509.76729116183395 239.2 509.815719384486 239.2 509.91257582979 239.2 C 510.106288720406 239.2 510.203145165714 179.4 510.39685805633 179.4 C 510.493714501634 179.4 510.542142724286 179.4 510.63899916959 179.4 C 510.735855614898 179.4 510.784283837552 119.60000000000002 510.88114028286 119.60000000000002 C 510.977996728168 119.60000000000002 511.026424950822 119.60000000000002 511.12328139613 119.60000000000002 C 511.220137841434 119.60000000000002 511.26856606408603 119.60000000000002 511.36542250939 119.60000000000002 C 511.65599184531004 119.60000000000002 511.80127651327 119.60000000000002 512.09184584919 119.60000000000002 C 512.1887022944981 119.60000000000002 512.2371305171521 119.60000000000002 512.33398696246 119.60000000000002 C 512.527699853072 119.60000000000002 512.624556298378 119.60000000000002 512.81826918899 119.60000000000002 C 512.9151256342981 119.60000000000002 512.9635538569521 179.4 513.06041030226 179.4 C 513.1572667475641 179.4 513.2056949702161 179.4 513.30255141552 179.4 C 513.496264306136 179.4 513.593120751444 179.4 513.78683364206 179.4 C 513.980546532672 179.4 514.077402977978 119.60000000000002 514.27111586859 119.60000000000002 C 514.3679723138979 119.60000000000002 514.4164005365519 119.60000000000002 514.51325698186 119.60000000000002 C 514.6101134271639 119.60000000000002 514.6585416498159 119.60000000000002 514.75539809512 119.60000000000002 C 515.0459674310399 119.60000000000002 515.1912520989999 119.60000000000002 515.48182143492 119.60000000000002 C 515.7723907708399 119.60000000000002 515.9176754388 179.4 516.20824477472 179.4 C 516.401957665336 179.4 516.4988141106439 143.5200000002527 516.69252700126 119.60000000000002 C 516.886239891872 95.6800000002527 516.983096337178 59.80000000000001 517.17680922779 59.80000000000001 C 517.273665673098 59.80000000000001 517.322093895752 179.4 517.41895034106 179.4 C 517.515806786364 179.4 517.564235009016 119.60000000000002 517.66109145432 119.60000000000002 C 517.757947899628 119.60000000000002 517.806376122282 119.60000000000002 517.90323256759 119.60000000000002 C 518.000089012898 119.60000000000002 518.048517235552 119.60000000000002 518.14537368086 119.60000000000002 C 518.242230126164 119.60000000000002 518.290658348816 179.4 518.38751479412 179.4 C 518.484371239428 179.4 518.532799462082 179.4 518.62965590739 179.4 C 518.726512352698 179.4 518.774940575352 59.80000000000001 518.87179702066 59.80000000000001 C 519.0655099112721 59.80000000000001 519.1623663565781 87.70666666689753 519.35607924719 119.60000000000002 C 519.452935692498 135.54666666689755 519.5013639151521 179.4 519.59822036046 179.4 C 519.6950768057641 179.4 519.743505028416 119.60000000000002 519.84036147372 119.60000000000002 C 519.9372179190281 119.60000000000002 519.9856461416821 119.60000000000002 520.08250258699 119.60000000000002 C 520.1793590322941 119.60000000000002 520.2277872549461 179.4 520.32464370025 179.4 C 520.5183565908661 179.4 520.615213036174 179.4 520.80892592679 179.4 C 520.9057823720941 179.4 520.9542105947461 119.60000000000002 521.05106704005 119.60000000000002 C 521.1479234853581 119.60000000000002 521.1963517080121 119.60000000000002 521.29320815332 119.60000000000002 C 521.390064598628 119.60000000000002 521.4384928212819 119.60000000000002 521.53534926659 119.60000000000002 C 521.6322057118939 119.60000000000002 521.680633934546 119.60000000000002 521.77749037985 119.60000000000002 C 521.874346825158 119.60000000000002 521.9227750478119 119.60000000000002 522.01963149312 119.60000000000002 C 522.116487938428 119.60000000000002 522.1649161610819 59.80000000000001 522.26177260639 59.80000000000001 C 522.3586290516939 59.80000000000001 522.407057274346 119.60000000000002 522.50391371965 119.60000000000002 C 522.600770164958 119.60000000000002 522.6491983876119 119.60000000000002 522.74605483292 119.60000000000002 C 522.939767723532 119.60000000000002 523.036624168838 179.4 523.23033705945 179.4 C 523.327193504758 179.4 523.375621727412 179.4 523.47247817272 179.4 C 523.666191063332 179.4 523.763047508638 179.4 523.95676039925 179.4 C 524.0536168445581 179.4 524.102045067212 179.4 524.19890151252 179.4 C 524.2957579578281 179.4 524.344186180482 179.4 524.44104262579 179.4 C 524.537899071094 179.4 524.5863272937461 179.4 524.68318373905 179.4 C 524.7800401843581 179.4 524.828468407012 179.4 524.92532485232 179.4 C 525.0221812976281 179.4 525.070609520282 179.4 525.16746596559 179.4 C 525.264322410894 179.4 525.312750633546 179.4 525.40960707885 179.4 C 525.6033199694659 179.4 525.7001764147739 179.4 525.89388930539 179.4 C 525.9907457506939 179.4 526.0391739733459 179.4 526.13603041865 179.4 C 526.2328868639579 179.4 526.2813150866119 179.4 526.37817153192 179.4 C 526.4750279772239 179.4 526.5234561998759 179.4 526.62031264518 179.4 C 526.7171690904879 179.4 526.7655973131419 179.4 526.86245375845 179.4 C 526.9593102037579 179.4 527.007738426412 179.4 527.10459487172 179.4 C 527.201451317024 179.4 527.2498795396759 179.4 527.34673598498 179.4 C 527.4435924302879 179.4 527.492020652942 179.4 527.58887709825 179.4 C 527.685733543558 179.4 527.734161766212 119.60000000000002 527.83101821152 119.60000000000002 C 527.927874656824 119.60000000000002 527.976302879476 179.4 528.07315932478 179.4 C 528.170015770088 179.4 528.218443992742 179.4 528.31530043805 179.4 C 528.412156883358 179.4 528.460585106012 119.60000000000002 528.55744155132 119.60000000000002 C 528.654297996624 119.60000000000002 528.702726219276 179.4 528.79958266458 179.4 C 528.896439109888 179.4 528.944867332542 179.4 529.04172377785 179.4 C 529.138580223158 179.4 529.187008445812 179.4 529.28386489112 179.4 C 529.57443422704 179.4 529.719718895 179.4 530.01028823092 179.4 C 530.107144676224 179.4 530.155572898876 119.60000000000002 530.25242934418 119.60000000000002 C 530.736711570716 119.60000000000002 530.9788526839841 179.4 531.46313491052 179.4 C 531.5599913558241 179.4 531.6084195784761 179.4 531.70527602378 179.4 C 531.8021324690881 179.4 531.8505606917421 239.2 531.94741713705 239.2 C 532.0442735823581 239.2 532.0927018050121 195.3466666668788 532.18955825032 179.4 C 532.383271140932 147.50666666687883 532.480127586238 119.60000000000002 532.67384047685 119.60000000000002 C 532.7706969221581 119.60000000000002 532.8191251448121 119.60000000000002 532.91598159012 119.60000000000002 C 533.012838035424 119.60000000000002 533.061266258076 119.60000000000002 533.15812270338 119.60000000000002 C 533.2549791486879 119.60000000000002 533.3034073713419 119.60000000000002 533.40026381665 119.60000000000002 C 533.4971202619539 119.60000000000002 533.5455484846059 119.60000000000002 533.64240492991 119.60000000000002 C 533.7392613752179 119.60000000000002 533.7876895978719 239.2 533.88454604318 239.2 C 533.9814024884879 239.2 534.0298307111419 119.60000000000002 534.12668715645 119.60000000000002 C 534.2235436017539 119.60000000000002 534.2719718244059 119.60000000000002 534.36882826971 119.60000000000002 C 534.6593976056299 119.60000000000002 534.80468227359 119.60000000000002 535.09525160951 119.60000000000002 C 535.1921080548179 119.60000000000002 535.240536277472 119.60000000000002 535.33739272278 119.60000000000002 C 535.434249168088 119.60000000000002 535.482677390742 119.60000000000002 535.57953383605 119.60000000000002 C 535.676390281354 119.60000000000002 535.724818504006 119.60000000000002 535.82167494931 119.60000000000002 C 535.918531394618 119.60000000000002 535.966959617272 179.4 536.06381606258 179.4 C 536.160672507888 179.4 536.209100730542 179.4 536.30595717585 179.4 C 536.402813621154 179.4 536.451241843806 179.4 536.54809828911 179.4 C 536.644954734418 179.4 536.693382957072 179.4 536.79023940238 179.4 C 536.887095847688 179.4 536.935524070342 179.4 537.03238051565 179.4 C 537.1292369609539 179.4 537.177665183606 179.4 537.27452162891 179.4 C 537.371378074218 179.4 537.4198062968719 179.4 537.51666274218 179.4 C 537.613519187488 179.4 537.6619474101419 59.80000000000001 537.75880385545 59.80000000000001 C 537.8556603007539 59.80000000000001 537.904088523406 95.68000000050539 538.00094496871 119.60000000000002 C 538.097801414018 143.5200000005054 538.1462296366719 179.4 538.24308608198 179.4 C 538.339942527288 179.4 538.3883707499419 119.60000000000002 538.48522719525 119.60000000000002 C 538.582083640554 119.60000000000002 538.630511863206 119.60000000000002 538.72736830851 119.60000000000002 C 538.824224753818 119.60000000000002 538.872652976472 119.60000000000002 538.96950942178 119.60000000000002 C 539.066365867088 119.60000000000002 539.114794089742 179.4 539.21165053505 179.4 C 539.308506980354 179.4 539.3569352030061 179.4 539.45379164831 179.4 C 539.5506480936181 179.4 539.599076316272 179.4 539.69593276158 179.4 C 539.7927892068881 179.4 539.841217429542 179.4 539.93807387485 179.4 C 540.034930320154 179.4 540.0833585428061 239.2 540.18021498811 239.2 C 540.2770714334181 239.2 540.325499656072 239.2 540.42235610138 239.2 C 540.519212546684 239.2 540.5676407693361 179.4 540.66449721464 179.4 C 540.761353659948 179.4 540.809781882602 239.2 540.90663832791 239.2 C 541.003494773218 239.2 541.051922995872 179.4 541.14877944118 179.4 C 541.245635886484 179.4 541.294064109136 179.4 541.39092055444 179.4 C 541.487776999748 179.4 541.536205222402 179.4 541.63306166771 179.4 C 541.729918113018 179.4 541.778346335672 179.4 541.87520278098 179.4 C 541.972059226284 179.4 542.020487448936 119.60000000000002 542.11734389424 119.60000000000002 C 542.214200339548 119.60000000000002 542.262628562202 179.4 542.35948500751 179.4 C 542.456341452818 179.4 542.5047696754721 179.4 542.60162612078 179.4 C 542.6984825660841 179.4 542.746910788736 179.4 542.84376723404 179.4 C 542.940623679348 179.4 542.9890519020021 179.4 543.08590834731 179.4 C 543.1827647926181 179.4 543.2311930152721 119.60000000000002 543.32804946058 119.60000000000002 C 543.4249059058841 119.60000000000002 543.4733341285361 179.4 543.57019057384 179.4 C 543.6670470191481 179.4 543.7154752418021 179.4 543.81233168711 179.4 C 543.9091881324181 179.4 543.9576163550721 239.2 544.05447280038 239.2 C 544.1513292456841 239.2 544.1997574683361 179.4 544.29661391364 179.4 C 544.3934703589481 179.4 544.4418985816021 179.4 544.53875502691 179.4 C 544.635611472218 179.4 544.684039694872 119.60000000000002 544.78089614018 119.60000000000002 C 544.8777525854839 119.60000000000002 544.9261808081359 119.60000000000002 545.02303725344 119.60000000000002 C 545.1198936987479 119.60000000000002 545.1683219214019 179.4 545.26517836671 179.4 C 545.3620348120179 179.4 545.4104630346719 179.4 545.50731947998 179.4 C 545.6041759252839 179.4 545.6526041479359 179.4 545.74946059324 179.4 C 545.8463170385479 179.4 545.8947452612019 179.4 545.99160170651 179.4 C 546.0884581518179 179.4 546.1368863744719 179.4 546.23374281978 179.4 C 546.330599265084 179.4 546.3790274877359 179.4 546.47588393304 179.4 C 546.5727403783479 179.4 546.621168601002 179.4 546.71802504631 179.4 C 546.8148814916179 179.4 546.863309714272 179.4 546.96016615958 179.4 C 547.057022604884 179.4 547.105450827536 179.4 547.20230727284 179.4 C 547.299163718148 179.4 547.347591940802 179.4 547.44444838611 179.4 C 547.541304831414 179.4 547.589733054066 179.4 547.68658949937 179.4 C 547.783445944678 179.4 547.831874167332 179.4 547.92873061264 179.4 C 548.025587057948 179.4 548.074015280602 179.4 548.17087172591 179.4 C 548.267728171214 179.4 548.316156393866 179.4 548.41301283917 179.4 C 548.509869284478 179.4 548.558297507132 179.4 548.65515395244 179.4 C 548.752010397748 179.4 548.800438620402 179.4 548.89729506571 179.4 C 548.994151511014 179.4 549.042579733666 179.4 549.13943617897 179.4 C 549.236292624278 179.4 549.284720846932 179.4 549.38157729224 179.4 C 549.478433737548 179.4 549.526861960202 179.4 549.62371840551 179.4 C 549.720574850814 179.4 549.769003073466 179.4 549.86585951877 179.4 C 549.962715964078 179.4 550.011144186732 179.4 550.10800063204 179.4 C 550.204857077348 179.4 550.2532853000021 179.4 550.35014174531 179.4 C 550.4469981906141 179.4 550.495426413266 179.4 550.59228285857 179.4 C 550.689139303878 179.4 550.7375675265321 179.4 550.83442397184 179.4 C 550.9312804171481 179.4 550.9797086398021 239.2 551.07656508511 239.2 C 551.1734215304141 239.2 551.2218497530661 179.4 551.31870619837 179.4 C 551.4155626436781 179.4 551.4639908663321 179.4 551.56084731164 179.4 C 551.6577037569481 179.4 551.7061319796021 179.4 551.80298842491 179.4 C 551.8998448702141 179.4 551.9482730928661 239.2 552.04512953817 239.2 C 552.1419859834781 239.2 552.1904142061321 179.4 552.28727065144 179.4 C 552.384127096748 179.4 552.52941176471 179.4 552.52941176471 179.4" class="highcharts-graph" data-z-index="1" stroke="#000000" stroke-width="2" stroke-linejoin="round" stroke-linecap="round"></path></g><g data-z-index="0.1" class="highcharts-markers highcharts-series-0 highcharts-spline-series highcharts-color-0 " transform="translate(32,63) scale(1 1)" clip-path="none"></g></g><text x="300" text-anchor="middle" class="highcharts-title" data-z-index="4" style="color:#333333;font-size:18px;fill:#333333;" y="24"><tspan>Acne Severity Over Time</tspan></text><text x="300" text-anchor="middle" class="highcharts-subtitle" data-z-index="4" style="color:#666666;fill:#666666;" y="46"><tspan>This chart shows how your Acne Severity changes over time.</tspan></text><g class="highcharts-axis-labels highcharts-xaxis-labels " data-z-index="7"><text x="34.616854323317" style="color:#666666;cursor:default;font-size:11px;fill:#666666;" text-anchor="middle" transform="translate(0,0)" y="381" opacity="1">2013</text><text x="122.99836066561" style="color:#666666;cursor:default;font-size:11px;fill:#666666;" text-anchor="middle" transform="translate(0,0)" y="381" opacity="1">2014</text><text x="211.3798670079" style="color:#666666;cursor:default;font-size:11px;fill:#666666;" text-anchor="middle" transform="translate(0,0)" y="381" opacity="1">2015</text><text x="299.76137335019" style="color:#666666;cursor:default;font-size:11px;fill:#666666;" text-anchor="middle" transform="translate(0,0)" y="381" opacity="1">2016</text><text x="388.38502080575" style="color:#666666;cursor:default;font-size:11px;fill:#666666;" text-anchor="middle" transform="translate(0,0)" y="381" opacity="1">2017</text><text x="476.76652714804" style="color:#666666;cursor:default;font-size:11px;fill:#666666;" text-anchor="middle" transform="translate(0,0)" y="381" opacity="1">2018</text><text x="565.14803349033" style="color:#666666;cursor:default;font-size:11px;fill:#666666;" text-anchor="middle" transform="translate(0,0)" y="381" opacity="1">2019</text></g><g class="highcharts-axis-labels highcharts-yaxis-labels " data-z-index="7"><text x="17" style="color:#666666;cursor:default;font-size:11px;fill:#666666;" text-anchor="end" transform="translate(0,0)" y="366" opacity="1">0</text><text x="17" style="color:#666666;cursor:default;font-size:11px;fill:#666666;" text-anchor="end" transform="translate(0,0)" y="306" opacity="1">1</text><text x="17" style="color:#666666;cursor:default;font-size:11px;fill:#666666;" text-anchor="end" transform="translate(0,0)" y="246" opacity="1">2</text><text x="17" style="color:#666666;cursor:default;font-size:11px;fill:#666666;" text-anchor="end" transform="translate(0,0)" y="186" opacity="1">3</text><text x="17" style="color:#666666;cursor:default;font-size:11px;fill:#666666;" text-anchor="end" transform="translate(0,0)" y="126" opacity="1">4</text><text x="17" style="color:#666666;cursor:default;font-size:11px;fill:#666666;" text-anchor="end" transform="translate(0,0)" y="67" opacity="1">5</text></g><a xlink:href="https://quantimo.do" target="_blank">
                    <text x="590" class="highcharts-credits" text-anchor="end" data-z-index="8"
                          style="cursor:pointer;color:#999999;font-size:9px;fill:#999999;" y="395">https://quantimo.do
                    </text>
                </a></svg>