<?xml version="1.0" standalone="no"?><!DOCTYPE svg PUBLIC "-//W3C//DTD SVG 1.1//EN" "http://www.w3.org/Graphics/SVG/1.1/DTD/svg11.dtd"><svg xmlns:xlink="http://www.w3.org/1999/xlink" version="1.1" class="highcharts-root" style="font-family:&quot;Lucida Grande&quot;, &quot;Lucida Sans Unicode&quot;, Arial, Helvetica, sans-serif;font-size:12px;" xmlns="http://www.w3.org/2000/svg" width="600" height="300"><desc>Created with Highstock 6.2.0</desc><defs><clipPath id="highcharts-pgf3jn8-39"><rect x="0" y="0" width="518" height="156" fill="none"></rect></clipPath><clipPath id="highcharts-pgf3jn8-72"><rect x="0" y="0" width="518" height="156" fill="none"></rect></clipPath><clipPath id="highcharts-pgf3jn8-73"><rect x="72" y="63" width="518" height="156" fill="none"></rect></clipPath></defs><rect fill="#ffffff" class="highcharts-background" x="0" y="0" width="600" height="300" rx="0" ry="0"></rect><rect fill="none" class="highcharts-plot-background" x="72" y="63" width="518" height="156"></rect><g class="highcharts-pane-group" data-z-index="0"></g><g class="highcharts-grid highcharts-xaxis-grid " data-z-index="1"><path fill="none" data-z-index="1" class="highcharts-grid-line" d="M 79.5 63 L 79.5 219" opacity="1"></path><path fill="none" data-z-index="1" class="highcharts-grid-line" d="M 111.5 63 L 111.5 219" opacity="1"></path><path fill="none" data-z-index="1" class="highcharts-grid-line" d="M 144.5 63 L 144.5 219" opacity="1"></path><path fill="none" data-z-index="1" class="highcharts-grid-line" d="M 176.5 63 L 176.5 219" opacity="1"></path><path fill="none" data-z-index="1" class="highcharts-grid-line" d="M 209.5 63 L 209.5 219" opacity="1"></path><path fill="none" data-z-index="1" class="highcharts-grid-line" d="M 241.5 63 L 241.5 219" opacity="1"></path><path fill="none" data-z-index="1" class="highcharts-grid-line" d="M 273.5 63 L 273.5 219" opacity="1"></path><path fill="none" data-z-index="1" class="highcharts-grid-line" d="M 306.5 63 L 306.5 219" opacity="1"></path><path fill="none" data-z-index="1" class="highcharts-grid-line" d="M 338.5 63 L 338.5 219" opacity="1"></path><path fill="none" data-z-index="1" class="highcharts-grid-line" d="M 370.5 63 L 370.5 219" opacity="1"></path><path fill="none" data-z-index="1" class="highcharts-grid-line" d="M 403.5 63 L 403.5 219" opacity="1"></path><path fill="none" data-z-index="1" class="highcharts-grid-line" d="M 435.5 63 L 435.5 219" opacity="1"></path><path fill="none" data-z-index="1" class="highcharts-grid-line" d="M 468.5 63 L 468.5 219" opacity="1"></path><path fill="none" data-z-index="1" class="highcharts-grid-line" d="M 500.5 63 L 500.5 219" opacity="1"></path><path fill="none" data-z-index="1" class="highcharts-grid-line" d="M 532.5 63 L 532.5 219" opacity="1"></path><path fill="none" data-z-index="1" class="highcharts-grid-line" d="M 565.5 63 L 565.5 219" opacity="1"></path></g><g class="highcharts-grid highcharts-yaxis-grid " data-z-index="1"><path fill="none" stroke="#e6e6e6" stroke-width="1" data-z-index="1" class="highcharts-grid-line" d="M 72 219.5 L 590 219.5" opacity="1"></path><path fill="none" stroke="#e6e6e6" stroke-width="1" data-z-index="1" class="highcharts-grid-line" d="M 72 141.5 L 590 141.5" opacity="1"></path><path fill="none" stroke="#e6e6e6" stroke-width="1" data-z-index="1" class="highcharts-grid-line" d="M 72 62.5 L 590 62.5" opacity="1"></path></g><rect fill="none" class="highcharts-plot-border" data-z-index="1" x="72" y="63" width="518" height="156"></rect><g class="highcharts-axis highcharts-xaxis " data-z-index="2"><path fill="none" class="highcharts-tick" stroke="#ccd6eb" stroke-width="1" d="M 79.5 219 L 79.5 229" opacity="1"></path><path fill="none" class="highcharts-tick" stroke="#ccd6eb" stroke-width="1" d="M 111.5 219 L 111.5 229" opacity="1"></path><path fill="none" class="highcharts-tick" stroke="#ccd6eb" stroke-width="1" d="M 144.5 219 L 144.5 229" opacity="1"></path><path fill="none" class="highcharts-tick" stroke="#ccd6eb" stroke-width="1" d="M 176.5 219 L 176.5 229" opacity="1"></path><path fill="none" class="highcharts-tick" stroke="#ccd6eb" stroke-width="1" d="M 209.5 219 L 209.5 229" opacity="1"></path><path fill="none" class="highcharts-tick" stroke="#ccd6eb" stroke-width="1" d="M 241.5 219 L 241.5 229" opacity="1"></path><path fill="none" class="highcharts-tick" stroke="#ccd6eb" stroke-width="1" d="M 273.5 219 L 273.5 229" opacity="1"></path><path fill="none" class="highcharts-tick" stroke="#ccd6eb" stroke-width="1" d="M 306.5 219 L 306.5 229" opacity="1"></path><path fill="none" class="highcharts-tick" stroke="#ccd6eb" stroke-width="1" d="M 338.5 219 L 338.5 229" opacity="1"></path><path fill="none" class="highcharts-tick" stroke="#ccd6eb" stroke-width="1" d="M 370.5 219 L 370.5 229" opacity="1"></path><path fill="none" class="highcharts-tick" stroke="#ccd6eb" stroke-width="1" d="M 403.5 219 L 403.5 229" opacity="1"></path><path fill="none" class="highcharts-tick" stroke="#ccd6eb" stroke-width="1" d="M 435.5 219 L 435.5 229" opacity="1"></path><path fill="none" class="highcharts-tick" stroke="#ccd6eb" stroke-width="1" d="M 468.5 219 L 468.5 229" opacity="1"></path><path fill="none" class="highcharts-tick" stroke="#ccd6eb" stroke-width="1" d="M 500.5 219 L 500.5 229" opacity="1"></path><path fill="none" class="highcharts-tick" stroke="#ccd6eb" stroke-width="1" d="M 532.5 219 L 532.5 229" opacity="1"></path><path fill="none" class="highcharts-tick" stroke="#ccd6eb" stroke-width="1" d="M 565.5 219 L 565.5 229" opacity="1"></path><text x="331" data-z-index="7" text-anchor="middle" transform="translate(0,0)" class="highcharts-axis-title" style="color:#666666;fill:#666666;" y="281.47665940288704"><tspan>Daily Values (h)</tspan></text><path fill="none" class="highcharts-axis-line" stroke="#ccd6eb" stroke-width="1" data-z-index="7" d="M 72 219.5 L 590 219.5"></path></g><g class="highcharts-axis highcharts-yaxis " data-z-index="2"><text x="26" data-z-index="7" text-anchor="middle" transform="translate(0,0) rotate(270 26 141)" class="highcharts-axis-title" style="color:#666666;fill:#666666;" y="141"><tspan>Number of Days</tspan></text><path fill="none" class="highcharts-axis-line" data-z-index="7" d="M 72 63 L 72 219"></path></g><g class="highcharts-series-group" data-z-index="3"><g data-z-index="0.1" class="highcharts-series highcharts-series-0 highcharts-column-series highcharts-color-0 " transform="translate(72,63) scale(1 1)" clip-path="url(#highcharts-pgf3jn8-72)"><rect x="3.5" y="18.5" width="8" height="138" fill="#000000" stroke="#ffffff" stroke-width="1" class="highcharts-point highcharts-color-0"></rect><rect x="19.5" y="154.5" width="8" height="2" fill="#000000" stroke="#ffffff" stroke-width="1" class="highcharts-point highcharts-color-0"></rect><rect x="36.5" y="155.5" width="8" height="1" fill="#000000" stroke="#ffffff" stroke-width="1" class="highcharts-point highcharts-color-0"></rect><rect x="52.5" y="154.5" width="8" height="2" fill="#000000" stroke="#ffffff" stroke-width="1" class="highcharts-point highcharts-color-0"></rect><rect x="68.5" y="153.5" width="8" height="3" fill="#000000" stroke="#ffffff" stroke-width="1" class="highcharts-point highcharts-color-0"></rect><rect x="84.5" y="150.5" width="8" height="6" fill="#000000" stroke="#ffffff" stroke-width="1" class="highcharts-point highcharts-color-0"></rect><rect x="100.5" y="152.5" width="8" height="4" fill="#000000" stroke="#ffffff" stroke-width="1" class="highcharts-point highcharts-color-0"></rect><rect x="117.5" y="154.5" width="8" height="2" fill="#000000" stroke="#ffffff" stroke-width="1" class="highcharts-point highcharts-color-0"></rect><rect x="133.5" y="154.5" width="8" height="2" fill="#000000" stroke="#ffffff" stroke-width="1" class="highcharts-point highcharts-color-0"></rect><rect x="149.5" y="152.5" width="8" height="4" fill="#000000" stroke="#ffffff" stroke-width="1" class="highcharts-point highcharts-color-0"></rect><rect x="165.5" y="152.5" width="8" height="4" fill="#000000" stroke="#ffffff" stroke-width="1" class="highcharts-point highcharts-color-0"></rect><rect x="181.5" y="154.5" width="8" height="2" fill="#000000" stroke="#ffffff" stroke-width="1" class="highcharts-point highcharts-color-0"></rect><rect x="197.5" y="142.5" width="8" height="14" fill="#000000" stroke="#ffffff" stroke-width="1" class="highcharts-point highcharts-color-0"></rect><rect x="214.5" y="140.5" width="8" height="16" fill="#000000" stroke="#ffffff" stroke-width="1" class="highcharts-point highcharts-color-0"></rect><rect x="230.5" y="142.5" width="8" height="14" fill="#000000" stroke="#ffffff" stroke-width="1" class="highcharts-point highcharts-color-0"></rect><rect x="246.5" y="143.5" width="8" height="13" fill="#000000" stroke="#ffffff" stroke-width="1" class="highcharts-point highcharts-color-0"></rect><rect x="262.5" y="148.5" width="8" height="8" fill="#000000" stroke="#ffffff" stroke-width="1" class="highcharts-point highcharts-color-0"></rect><rect x="278.5" y="146.5" width="8" height="10" fill="#000000" stroke="#ffffff" stroke-width="1" class="highcharts-point highcharts-color-0"></rect><rect x="295.5" y="150.5" width="8" height="6" fill="#000000" stroke="#ffffff" stroke-width="1" class="highcharts-point highcharts-color-0"></rect><rect x="311.5" y="151.5" width="8" height="5" fill="#000000" stroke="#ffffff" stroke-width="1" class="highcharts-point highcharts-color-0"></rect><rect x="327.5" y="151.5" width="8" height="5" fill="#000000" stroke="#ffffff" stroke-width="1" class="highcharts-point highcharts-color-0"></rect><rect x="343.5" y="129.5" width="8" height="27" fill="#000000" stroke="#ffffff" stroke-width="1" class="highcharts-point highcharts-color-0"></rect><rect x="359.5" y="135.5" width="8" height="21" fill="#000000" stroke="#ffffff" stroke-width="1" class="highcharts-point highcharts-color-0"></rect><rect x="376.5" y="144.5" width="8" height="12" fill="#000000" stroke="#ffffff" stroke-width="1" class="highcharts-point highcharts-color-0"></rect><rect x="392.5" y="150.5" width="8" height="6" fill="#000000" stroke="#ffffff" stroke-width="1" class="highcharts-point highcharts-color-0"></rect><rect x="408.5" y="153.5" width="8" height="3" fill="#000000" stroke="#ffffff" stroke-width="1" class="highcharts-point highcharts-color-0"></rect><rect x="424.5" y="154.5" width="8" height="2" fill="#000000" stroke="#ffffff" stroke-width="1" class="highcharts-point highcharts-color-0"></rect><rect x="440.5" y="153.5" width="8" height="3" fill="#000000" stroke="#ffffff" stroke-width="1" class="highcharts-point highcharts-color-0"></rect><rect x="456.5" y="155.5" width="8" height="1" fill="#000000" stroke="#ffffff" stroke-width="1" class="highcharts-point highcharts-color-0"></rect><rect x="473.5" y="155.5" width="8" height="1" fill="#000000" stroke="#ffffff" stroke-width="1" class="highcharts-point highcharts-color-0"></rect><rect x="489.5" y="156.5" width="8" height="0" fill="#000000" stroke="#ffffff" stroke-width="1" class="highcharts-point highcharts-color-0"></rect><rect x="505.5" y="155.5" width="8" height="1" fill="#000000" stroke="#ffffff" stroke-width="1" class="highcharts-point highcharts-color-0"></rect></g><g data-z-index="0.1" class="highcharts-markers highcharts-series-0 highcharts-column-series highcharts-color-0 " transform="translate(72,63) scale(1 1)" clip-path="none"></g></g><text x="300" text-anchor="middle" class="highcharts-title" data-z-index="4" style="color:#333333;font-size:18px;fill:#333333;" y="24"><tspan>Daily Google Hangouts Usage Distribution</tspan></text><text x="300" text-anchor="middle" class="highcharts-subtitle" data-z-index="4" style="color:#666666;fill:#666666;" y="46"><tspan>Each column represents the number of days this value occurred.</tspan></text><g class="highcharts-axis-labels highcharts-xaxis-labels " data-z-index="7"><text x="82.68647486435067" style="color:#666666;cursor:default;font-size:11px;fill:#666666;" text-anchor="end" transform="translate(0,0) rotate(-45 82.68647486435067 235)" y="235" opacity="1">0</text><text x="115.06147486435067" style="color:#666666;cursor:default;font-size:11px;fill:#666666;" text-anchor="end" transform="translate(0,0) rotate(-45 115.06147486435067 235)" y="235" opacity="1">0.0008</text><text x="147.43647486435069" style="color:#666666;cursor:default;font-size:11px;fill:#666666;" text-anchor="end" transform="translate(0,0) rotate(-45 147.43647486435069 235)" y="235" opacity="1">0.002</text><text x="179.81147486435069" style="color:#666666;cursor:default;font-size:11px;fill:#666666;" text-anchor="end" transform="translate(0,0) rotate(-45 179.81147486435069 235)" y="235" opacity="1">0.004</text><text x="212.18647486435069" style="color:#666666;cursor:default;font-size:11px;fill:#666666;" text-anchor="end" transform="translate(0,0) rotate(-45 212.18647486435069 235)" y="235" opacity="1">0.006</text><text x="244.56147486435069" style="color:#666666;cursor:default;font-size:11px;fill:#666666;" text-anchor="end" transform="translate(0,0) rotate(-45 244.56147486435069 235)" y="235" opacity="1">0.008</text><text x="276.93647486435066" style="color:#666666;cursor:default;font-size:11px;fill:#666666;" text-anchor="end" transform="translate(0,0) rotate(-45 276.93647486435066 235)" y="235" opacity="1">0.01</text><text x="309.31147486435066" style="color:#666666;cursor:default;font-size:11px;fill:#666666;" text-anchor="end" transform="translate(0,0) rotate(-45 309.31147486435066 235)" y="235" opacity="1">0.03</text><text x="341.68647486435066" style="color:#666666;cursor:default;font-size:11px;fill:#666666;" text-anchor="end" transform="translate(0,0) rotate(-45 341.68647486435066 235)" y="235" opacity="1">0.05</text><text x="374.06147486435066" style="color:#666666;cursor:default;font-size:11px;fill:#666666;" text-anchor="end" transform="translate(0,0) rotate(-45 374.06147486435066 235)" y="235" opacity="1">0.07</text><text x="406.43647486435066" style="color:#666666;cursor:default;font-size:11px;fill:#666666;" text-anchor="end" transform="translate(0,0) rotate(-45 406.43647486435066 235)" y="235" opacity="1">0.09</text><text x="438.81147486435066" style="color:#666666;cursor:default;font-size:11px;fill:#666666;" text-anchor="end" transform="translate(0,0) rotate(-45 438.81147486435066 235)" y="235" opacity="1">0.2</text><text x="471.18647486435066" style="color:#666666;cursor:default;font-size:11px;fill:#666666;" text-anchor="end" transform="translate(0,0) rotate(-45 471.18647486435066 235)" y="235" opacity="1">0.4</text><text x="503.56147486435066" style="color:#666666;cursor:default;font-size:11px;fill:#666666;" text-anchor="end" transform="translate(0,0) rotate(-45 503.56147486435066 235)" y="235" opacity="1">0.6</text><text x="535.9364748643507" style="color:#666666;cursor:default;font-size:11px;fill:#666666;" text-anchor="end" transform="translate(0,0) rotate(-45 535.9364748643507 235)" y="235" opacity="1">0.8</text><text x="568.3114748643507" style="color:#666666;cursor:default;font-size:11px;fill:#666666;" text-anchor="end" transform="translate(0,0) rotate(-45 568.3114748643507 235)" y="235" opacity="1">1</text></g><g class="highcharts-axis-labels highcharts-yaxis-labels " data-z-index="7"><text x="57" style="color:#666666;cursor:default;font-size:11px;fill:#666666;" text-anchor="end" transform="translate(0,0)" y="223" opacity="1">0</text><text x="57" style="color:#666666;cursor:default;font-size:11px;fill:#666666;" text-anchor="end" transform="translate(0,0)" y="145" opacity="1">200</text><text x="57" style="color:#666666;cursor:default;font-size:11px;fill:#666666;" text-anchor="end" transform="translate(0,0)" y="67" opacity="1">400</text></g><a xlink:href="https://quantimo.do" target="_blank">
                    <text x="590" class="highcharts-credits" text-anchor="end" data-z-index="8"
                          style="cursor:pointer;color:#999999;font-size:9px;fill:#999999;" y="295">https://quantimo.do
                    </text>
                </a></svg>