<?xml version="1.0" standalone="no"?><!DOCTYPE svg PUBLIC "-//W3C//DTD SVG 1.1//EN" "http://www.w3.org/Graphics/SVG/1.1/DTD/svg11.dtd"><svg xmlns:xlink="http://www.w3.org/1999/xlink" version="1.1" class="highcharts-root" style="font-family:&quot;Lucida Grande&quot;, &quot;Lucida Sans Unicode&quot;, Arial, Helvetica, sans-serif;font-size:12px;" xmlns="http://www.w3.org/2000/svg" width="600" height="300"><desc>Created with Highstock 6.2.0</desc><defs><clipPath id="highcharts-y0db6z0-47"><rect x="0" y="0" width="518" height="157" fill="none"></rect></clipPath><clipPath id="highcharts-y0db6z0-88"><rect x="0" y="0" width="518" height="157" fill="none"></rect></clipPath><clipPath id="highcharts-y0db6z0-89"><rect x="72" y="63" width="518" height="157" fill="none"></rect></clipPath></defs><rect fill="#ffffff" class="highcharts-background" x="0" y="0" width="600" height="300" rx="0" ry="0"></rect><rect fill="none" class="highcharts-plot-background" x="72" y="63" width="518" height="157"></rect><g class="highcharts-pane-group" data-z-index="0"></g><g class="highcharts-grid highcharts-xaxis-grid " data-z-index="1"><path fill="none" data-z-index="1" class="highcharts-grid-line" d="M 77.5 63 L 77.5 220" opacity="1"></path><path fill="none" data-z-index="1" class="highcharts-grid-line" d="M 103.5 63 L 103.5 220" opacity="1"></path><path fill="none" data-z-index="1" class="highcharts-grid-line" d="M 129.5 63 L 129.5 220" opacity="1"></path><path fill="none" data-z-index="1" class="highcharts-grid-line" d="M 155.5 63 L 155.5 220" opacity="1"></path><path fill="none" data-z-index="1" class="highcharts-grid-line" d="M 181.5 63 L 181.5 220" opacity="1"></path><path fill="none" data-z-index="1" class="highcharts-grid-line" d="M 207.5 63 L 207.5 220" opacity="1"></path><path fill="none" data-z-index="1" class="highcharts-grid-line" d="M 233.5 63 L 233.5 220" opacity="1"></path><path fill="none" data-z-index="1" class="highcharts-grid-line" d="M 259.5 63 L 259.5 220" opacity="1"></path><path fill="none" data-z-index="1" class="highcharts-grid-line" d="M 285.5 63 L 285.5 220" opacity="1"></path><path fill="none" data-z-index="1" class="highcharts-grid-line" d="M 311.5 63 L 311.5 220" opacity="1"></path><path fill="none" data-z-index="1" class="highcharts-grid-line" d="M 336.5 63 L 336.5 220" opacity="1"></path><path fill="none" data-z-index="1" class="highcharts-grid-line" d="M 362.5 63 L 362.5 220" opacity="1"></path><path fill="none" data-z-index="1" class="highcharts-grid-line" d="M 388.5 63 L 388.5 220" opacity="1"></path><path fill="none" data-z-index="1" class="highcharts-grid-line" d="M 414.5 63 L 414.5 220" opacity="1"></path><path fill="none" data-z-index="1" class="highcharts-grid-line" d="M 440.5 63 L 440.5 220" opacity="1"></path><path fill="none" data-z-index="1" class="highcharts-grid-line" d="M 466.5 63 L 466.5 220" opacity="1"></path><path fill="none" data-z-index="1" class="highcharts-grid-line" d="M 492.5 63 L 492.5 220" opacity="1"></path><path fill="none" data-z-index="1" class="highcharts-grid-line" d="M 518.5 63 L 518.5 220" opacity="1"></path><path fill="none" data-z-index="1" class="highcharts-grid-line" d="M 544.5 63 L 544.5 220" opacity="1"></path><path fill="none" data-z-index="1" class="highcharts-grid-line" d="M 570.5 63 L 570.5 220" opacity="1"></path></g><g class="highcharts-grid highcharts-yaxis-grid " data-z-index="1"><path fill="none" stroke="#e6e6e6" stroke-width="1" data-z-index="1" class="highcharts-grid-line" d="M 72 220.5 L 590 220.5" opacity="1"></path><path fill="none" stroke="#e6e6e6" stroke-width="1" data-z-index="1" class="highcharts-grid-line" d="M 72 168.5 L 590 168.5" opacity="1"></path><path fill="none" stroke="#e6e6e6" stroke-width="1" data-z-index="1" class="highcharts-grid-line" d="M 72 115.5 L 590 115.5" opacity="1"></path><path fill="none" stroke="#e6e6e6" stroke-width="1" data-z-index="1" class="highcharts-grid-line" d="M 72 62.5 L 590 62.5" opacity="1"></path></g><rect fill="none" class="highcharts-plot-border" data-z-index="1" x="72" y="63" width="518" height="157"></rect><g class="highcharts-axis highcharts-xaxis " data-z-index="2"><path fill="none" class="highcharts-tick" stroke="#ccd6eb" stroke-width="1" d="M 77.5 220 L 77.5 230" opacity="1"></path><path fill="none" class="highcharts-tick" stroke="#ccd6eb" stroke-width="1" d="M 103.5 220 L 103.5 230" opacity="1"></path><path fill="none" class="highcharts-tick" stroke="#ccd6eb" stroke-width="1" d="M 129.5 220 L 129.5 230" opacity="1"></path><path fill="none" class="highcharts-tick" stroke="#ccd6eb" stroke-width="1" d="M 155.5 220 L 155.5 230" opacity="1"></path><path fill="none" class="highcharts-tick" stroke="#ccd6eb" stroke-width="1" d="M 181.5 220 L 181.5 230" opacity="1"></path><path fill="none" class="highcharts-tick" stroke="#ccd6eb" stroke-width="1" d="M 207.5 220 L 207.5 230" opacity="1"></path><path fill="none" class="highcharts-tick" stroke="#ccd6eb" stroke-width="1" d="M 233.5 220 L 233.5 230" opacity="1"></path><path fill="none" class="highcharts-tick" stroke="#ccd6eb" stroke-width="1" d="M 259.5 220 L 259.5 230" opacity="1"></path><path fill="none" class="highcharts-tick" stroke="#ccd6eb" stroke-width="1" d="M 285.5 220 L 285.5 230" opacity="1"></path><path fill="none" class="highcharts-tick" stroke="#ccd6eb" stroke-width="1" d="M 311.5 220 L 311.5 230" opacity="1"></path><path fill="none" class="highcharts-tick" stroke="#ccd6eb" stroke-width="1" d="M 336.5 220 L 336.5 230" opacity="1"></path><path fill="none" class="highcharts-tick" stroke="#ccd6eb" stroke-width="1" d="M 362.5 220 L 362.5 230" opacity="1"></path><path fill="none" class="highcharts-tick" stroke="#ccd6eb" stroke-width="1" d="M 388.5 220 L 388.5 230" opacity="1"></path><path fill="none" class="highcharts-tick" stroke="#ccd6eb" stroke-width="1" d="M 414.5 220 L 414.5 230" opacity="1"></path><path fill="none" class="highcharts-tick" stroke="#ccd6eb" stroke-width="1" d="M 440.5 220 L 440.5 230" opacity="1"></path><path fill="none" class="highcharts-tick" stroke="#ccd6eb" stroke-width="1" d="M 466.5 220 L 466.5 230" opacity="1"></path><path fill="none" class="highcharts-tick" stroke="#ccd6eb" stroke-width="1" d="M 492.5 220 L 492.5 230" opacity="1"></path><path fill="none" class="highcharts-tick" stroke="#ccd6eb" stroke-width="1" d="M 518.5 220 L 518.5 230" opacity="1"></path><path fill="none" class="highcharts-tick" stroke="#ccd6eb" stroke-width="1" d="M 544.5 220 L 544.5 230" opacity="1"></path><path fill="none" class="highcharts-tick" stroke="#ccd6eb" stroke-width="1" d="M 570.5 220 L 570.5 230" opacity="1"></path><text x="331" data-z-index="7" text-anchor="middle" transform="translate(0,0)" class="highcharts-axis-title" style="color:#666666;fill:#666666;" y="281.06244584051393"><tspan>Daily Values (s)</tspan></text><path fill="none" class="highcharts-axis-line" stroke="#ccd6eb" stroke-width="1" data-z-index="7" d="M 72 220.5 L 590 220.5"></path></g><g class="highcharts-axis highcharts-yaxis " data-z-index="2"><text x="26" data-z-index="7" text-anchor="middle" transform="translate(0,0) rotate(270 26 141.5)" class="highcharts-axis-title" style="color:#666666;fill:#666666;" y="141.5"><tspan>Number of Days</tspan></text><path fill="none" class="highcharts-axis-line" data-z-index="7" d="M 72 63 L 72 220"></path></g><g class="highcharts-series-group" data-z-index="3"><g data-z-index="0.1" class="highcharts-series highcharts-series-0 highcharts-column-series highcharts-color-0 " transform="translate(72,63) scale(1 1)" clip-path="url(#highcharts-y0db6z0-88)"><rect x="2.5" y="7.5" width="7" height="150" fill="#000000" stroke="#ffffff" stroke-width="1" class="highcharts-point highcharts-color-0"></rect><rect x="15.5" y="157.5" width="7" height="0" fill="#000000" stroke="#ffffff" stroke-width="1" class="highcharts-point highcharts-color-0"></rect><rect x="28.5" y="157.5" width="7" height="0" fill="#000000" stroke="#ffffff" stroke-width="1" class="highcharts-point highcharts-color-0"></rect><rect x="41.5" y="157.5" width="7" height="0" fill="#000000" stroke="#ffffff" stroke-width="1" class="highcharts-point highcharts-color-0"></rect><rect x="54.5" y="156.5" width="7" height="1" fill="#000000" stroke="#ffffff" stroke-width="1" class="highcharts-point highcharts-color-0"></rect><rect x="67.5" y="157.5" width="7" height="0" fill="#000000" stroke="#ffffff" stroke-width="1" class="highcharts-point highcharts-color-0"></rect><rect x="80.5" y="157.5" width="7" height="0" fill="#000000" stroke="#ffffff" stroke-width="1" class="highcharts-point highcharts-color-0"></rect><rect x="93.5" y="157.5" width="7" height="0" fill="#000000" stroke="#ffffff" stroke-width="1" class="highcharts-point highcharts-color-0"></rect><rect x="106.5" y="157.5" width="7" height="0" fill="#000000" stroke="#ffffff" stroke-width="1" class="highcharts-point highcharts-color-0"></rect><rect x="119.5" y="157.5" width="7" height="0" fill="#000000" stroke="#ffffff" stroke-width="1" class="highcharts-point highcharts-color-0"></rect><rect x="132.5" y="157.5" width="7" height="0" fill="#000000" stroke="#ffffff" stroke-width="1" class="highcharts-point highcharts-color-0"></rect><rect x="145.5" y="157.5" width="7" height="0" fill="#000000" stroke="#ffffff" stroke-width="1" class="highcharts-point highcharts-color-0"></rect><rect x="158.5" y="156.5" width="7" height="1" fill="#000000" stroke="#ffffff" stroke-width="1" class="highcharts-point highcharts-color-0"></rect><rect x="171.5" y="156.5" width="7" height="1" fill="#000000" stroke="#ffffff" stroke-width="1" class="highcharts-point highcharts-color-0"></rect><rect x="184.5" y="156.5" width="7" height="1" fill="#000000" stroke="#ffffff" stroke-width="1" class="highcharts-point highcharts-color-0"></rect><rect x="197.5" y="157.5" width="7" height="0" fill="#000000" stroke="#ffffff" stroke-width="1" class="highcharts-point highcharts-color-0"></rect><rect x="210.5" y="155.5" width="7" height="2" fill="#000000" stroke="#ffffff" stroke-width="1" class="highcharts-point highcharts-color-0"></rect><rect x="223.5" y="156.5" width="7" height="1" fill="#000000" stroke="#ffffff" stroke-width="1" class="highcharts-point highcharts-color-0"></rect><rect x="235.5" y="157.5" width="7" height="0" fill="#000000" stroke="#ffffff" stroke-width="1" class="highcharts-point highcharts-color-0"></rect><rect x="248.5" y="157.5" width="7" height="0" fill="#000000" stroke="#ffffff" stroke-width="1" class="highcharts-point highcharts-color-0"></rect><rect x="261.5" y="156.5" width="7" height="1" fill="#000000" stroke="#ffffff" stroke-width="1" class="highcharts-point highcharts-color-0"></rect><rect x="274.5" y="152.5" width="7" height="5" fill="#000000" stroke="#ffffff" stroke-width="1" class="highcharts-point highcharts-color-0"></rect><rect x="287.5" y="150.5" width="7" height="7" fill="#000000" stroke="#ffffff" stroke-width="1" class="highcharts-point highcharts-color-0"></rect><rect x="300.5" y="151.5" width="7" height="6" fill="#000000" stroke="#ffffff" stroke-width="1" class="highcharts-point highcharts-color-0"></rect><rect x="313.5" y="151.5" width="7" height="6" fill="#000000" stroke="#ffffff" stroke-width="1" class="highcharts-point highcharts-color-0"></rect><rect x="326.5" y="151.5" width="7" height="6" fill="#000000" stroke="#ffffff" stroke-width="1" class="highcharts-point highcharts-color-0"></rect><rect x="339.5" y="148.5" width="7" height="9" fill="#000000" stroke="#ffffff" stroke-width="1" class="highcharts-point highcharts-color-0"></rect><rect x="352.5" y="152.5" width="7" height="5" fill="#000000" stroke="#ffffff" stroke-width="1" class="highcharts-point highcharts-color-0"></rect><rect x="365.5" y="152.5" width="7" height="5" fill="#000000" stroke="#ffffff" stroke-width="1" class="highcharts-point highcharts-color-0"></rect><rect x="378.5" y="130.5" width="7" height="27" fill="#000000" stroke="#ffffff" stroke-width="1" class="highcharts-point highcharts-color-0"></rect><rect x="391.5" y="128.5" width="7" height="29" fill="#000000" stroke="#ffffff" stroke-width="1" class="highcharts-point highcharts-color-0"></rect><rect x="404.5" y="136.5" width="7" height="21" fill="#000000" stroke="#ffffff" stroke-width="1" class="highcharts-point highcharts-color-0"></rect><rect x="417.5" y="141.5" width="7" height="16" fill="#000000" stroke="#ffffff" stroke-width="1" class="highcharts-point highcharts-color-0"></rect><rect x="430.5" y="145.5" width="7" height="12" fill="#000000" stroke="#ffffff" stroke-width="1" class="highcharts-point highcharts-color-0"></rect><rect x="443.5" y="145.5" width="7" height="12" fill="#000000" stroke="#ffffff" stroke-width="1" class="highcharts-point highcharts-color-0"></rect><rect x="456.5" y="152.5" width="7" height="5" fill="#000000" stroke="#ffffff" stroke-width="1" class="highcharts-point highcharts-color-0"></rect><rect x="469.5" y="153.5" width="7" height="4" fill="#000000" stroke="#ffffff" stroke-width="1" class="highcharts-point highcharts-color-0"></rect><rect x="482.5" y="155.5" width="7" height="2" fill="#000000" stroke="#ffffff" stroke-width="1" class="highcharts-point highcharts-color-0"></rect><rect x="494.5" y="153.5" width="7" height="4" fill="#000000" stroke="#ffffff" stroke-width="1" class="highcharts-point highcharts-color-0"></rect><rect x="507.5" y="157.5" width="7" height="0" fill="#000000" stroke="#ffffff" stroke-width="1" class="highcharts-point highcharts-color-0"></rect></g><g data-z-index="0.1" class="highcharts-markers highcharts-series-0 highcharts-column-series highcharts-color-0 " transform="translate(72,63) scale(1 1)" clip-path="none"></g></g><text x="300" text-anchor="middle" class="highcharts-title" data-z-index="4" style="color:#333333;font-size:18px;fill:#333333;" y="24"><tspan>Daily Github.com Usage Distribution</tspan></text><text x="300" text-anchor="middle" class="highcharts-subtitle" data-z-index="4" style="color:#666666;fill:#666666;" y="46"><tspan>Each column represents the number of days this value occurred.</tspan></text><g class="highcharts-axis-labels highcharts-xaxis-labels " data-z-index="7"><text x="81.06772486435067" style="color:#666666;cursor:default;font-size:11px;fill:#666666;" text-anchor="end" transform="translate(0,0) rotate(-45 81.06772486435067 236)" y="236" opacity="1">0</text><text x="106.96772486435067" style="color:#666666;cursor:default;font-size:11px;fill:#666666;" text-anchor="end" transform="translate(0,0) rotate(-45 106.96772486435067 236)" y="236" opacity="1">2.0E-6</text><text x="132.8677248643507" style="color:#666666;cursor:default;font-size:11px;fill:#666666;" text-anchor="end" transform="translate(0,0) rotate(-45 132.8677248643507 236)" y="236" opacity="1">4.0E-6</text><text x="158.7677248643507" style="color:#666666;cursor:default;font-size:11px;fill:#666666;" text-anchor="end" transform="translate(0,0) rotate(-45 158.7677248643507 236)" y="236" opacity="1">2</text><text x="184.66772486435067" style="color:#666666;cursor:default;font-size:11px;fill:#666666;" text-anchor="end" transform="translate(0,0) rotate(-45 184.66772486435067 236)" y="236" opacity="1">4</text><text x="210.56772486435068" style="color:#666666;cursor:default;font-size:11px;fill:#666666;" text-anchor="end" transform="translate(0,0) rotate(-45 210.56772486435068 236)" y="236" opacity="1">6</text><text x="236.46772486435069" style="color:#666666;cursor:default;font-size:11px;fill:#666666;" text-anchor="end" transform="translate(0,0) rotate(-45 236.46772486435069 236)" y="236" opacity="1">10</text><text x="262.36772486435063" style="color:#666666;cursor:default;font-size:11px;fill:#666666;" text-anchor="end" transform="translate(0,0) rotate(-45 262.36772486435063 236)" y="236" opacity="1">30</text><text x="288.26772486435067" style="color:#666666;cursor:default;font-size:11px;fill:#666666;" text-anchor="end" transform="translate(0,0) rotate(-45 288.26772486435067 236)" y="236" opacity="1">60</text><text x="314.16772486435065" style="color:#666666;cursor:default;font-size:11px;fill:#666666;" text-anchor="end" transform="translate(0,0) rotate(-45 314.16772486435065 236)" y="236" opacity="1">80</text><text x="340.0677248643507" style="color:#666666;cursor:default;font-size:11px;fill:#666666;" text-anchor="end" transform="translate(0,0) rotate(-45 340.0677248643507 236)" y="236" opacity="1">100</text><text x="365.96772486435066" style="color:#666666;cursor:default;font-size:11px;fill:#666666;" text-anchor="end" transform="translate(0,0) rotate(-45 365.96772486435066 236)" y="236" opacity="1">300</text><text x="391.86772486435063" style="color:#666666;cursor:default;font-size:11px;fill:#666666;" text-anchor="end" transform="translate(0,0) rotate(-45 391.86772486435063 236)" y="236" opacity="1">500</text><text x="417.76772486435067" style="color:#666666;cursor:default;font-size:11px;fill:#666666;" text-anchor="end" transform="translate(0,0) rotate(-45 417.76772486435067 236)" y="236" opacity="1">700</text><text x="443.66772486435065" style="color:#666666;cursor:default;font-size:11px;fill:#666666;" text-anchor="end" transform="translate(0,0) rotate(-45 443.66772486435065 236)" y="236" opacity="1">900</text><text x="469.5677248643507" style="color:#666666;cursor:default;font-size:11px;fill:#666666;" text-anchor="end" transform="translate(0,0) rotate(-45 469.5677248643507 236)" y="236" opacity="1">2000</text><text x="495.46772486435066" style="color:#666666;cursor:default;font-size:11px;fill:#666666;" text-anchor="end" transform="translate(0,0) rotate(-45 495.46772486435066 236)" y="236" opacity="1">4000</text><text x="521.3677248643506" style="color:#666666;cursor:default;font-size:11px;fill:#666666;" text-anchor="end" transform="translate(0,0) rotate(-45 521.3677248643506 236)" y="236" opacity="1">6000</text><text x="547.2677248643506" style="color:#666666;cursor:default;font-size:11px;fill:#666666;" text-anchor="end" transform="translate(0,0) rotate(-45 547.2677248643506 236)" y="236" opacity="1">8000</text><text x="573.1677248643507" style="color:#666666;cursor:default;font-size:11px;fill:#666666;" text-anchor="end" transform="translate(0,0) rotate(-45 573.1677248643507 236)" y="236" opacity="1">10000</text></g><g class="highcharts-axis-labels highcharts-yaxis-labels " data-z-index="7"><text x="57" style="color:#666666;cursor:default;font-size:11px;fill:#666666;" text-anchor="end" transform="translate(0,0)" y="224" opacity="1">0</text><text x="57" style="color:#666666;cursor:default;font-size:11px;fill:#666666;" text-anchor="end" transform="translate(0,0)" y="171" opacity="1">250</text><text x="57" style="color:#666666;cursor:default;font-size:11px;fill:#666666;" text-anchor="end" transform="translate(0,0)" y="119" opacity="1">500</text><text x="57" style="color:#666666;cursor:default;font-size:11px;fill:#666666;" text-anchor="end" transform="translate(0,0)" y="67" opacity="1">750</text></g><a xlink:href="https://quantimo.do" target="_blank">
                    <text x="590" class="highcharts-credits" text-anchor="end" data-z-index="8"
                          style="cursor:pointer;color:#999999;font-size:9px;fill:#999999;" y="295">https://quantimo.do
                    </text>
                </a></svg>