<?xml version="1.0" standalone="no"?><!DOCTYPE svg PUBLIC "-//W3C//DTD SVG 1.1//EN" "http://www.w3.org/Graphics/SVG/1.1/DTD/svg11.dtd"><svg xmlns:xlink="http://www.w3.org/1999/xlink" version="1.1" class="highcharts-root" style="font-family:&quot;Lucida Grande&quot;, &quot;Lucida Sans Unicode&quot;, Arial, Helvetica, sans-serif;font-size:12px;" xmlns="http://www.w3.org/2000/svg" width="600" height="400"><desc>Created with Highstock 6.2.0</desc><defs><clipPath id="highcharts-m28rsng-635"><rect x="0" y="0" width="474" height="260" fill="none"></rect></clipPath><clipPath id="highcharts-m28rsng-949"><rect x="0" y="0" width="474" height="260" fill="none"></rect></clipPath><clipPath id="highcharts-m28rsng-1263"><rect x="0" y="0" width="474" height="260" fill="none"></rect></clipPath><clipPath id="highcharts-m28rsng-1264"><rect x="68" y="63" width="474" height="260" fill="none"></rect></clipPath></defs><rect fill="#ffffff" class="highcharts-background" x="0" y="0" width="600" height="400" rx="0" ry="0"></rect><rect fill="none" class="highcharts-plot-background" x="68" y="63" width="474" height="260"></rect><g class="highcharts-pane-group" data-z-index="0"></g><g class="highcharts-grid highcharts-xaxis-grid " data-z-index="1"><path fill="none" data-z-index="1" class="highcharts-grid-line" d="M 119.5 63 L 119.5 323" opacity="1"></path><path fill="none" data-z-index="1" class="highcharts-grid-line" d="M 191.5 63 L 191.5 323" opacity="1"></path><path fill="none" data-z-index="1" class="highcharts-grid-line" d="M 262.5 63 L 262.5 323" opacity="1"></path><path fill="none" data-z-index="1" class="highcharts-grid-line" d="M 334.5 63 L 334.5 323" opacity="1"></path><path fill="none" data-z-index="1" class="highcharts-grid-line" d="M 406.5 63 L 406.5 323" opacity="1"></path><path fill="none" data-z-index="1" class="highcharts-grid-line" d="M 478.5 63 L 478.5 323" opacity="1"></path></g><g class="highcharts-grid highcharts-yaxis-grid " data-z-index="1"><path fill="none" stroke="#e6e6e6" stroke-width="1" data-z-index="1" class="highcharts-grid-line" d="M 68 323.5 L 542 323.5" opacity="1"></path><path fill="none" stroke="#e6e6e6" stroke-width="1" data-z-index="1" class="highcharts-grid-line" d="M 68 258.5 L 542 258.5" opacity="1"></path><path fill="none" stroke="#e6e6e6" stroke-width="1" data-z-index="1" class="highcharts-grid-line" d="M 68 193.5 L 542 193.5" opacity="1"></path><path fill="none" stroke="#e6e6e6" stroke-width="1" data-z-index="1" class="highcharts-grid-line" d="M 68 128.5 L 542 128.5" opacity="1"></path><path fill="none" stroke="#e6e6e6" stroke-width="1" data-z-index="1" class="highcharts-grid-line" d="M 68 62.5 L 542 62.5" opacity="1"></path></g><g class="highcharts-grid highcharts-yaxis-grid " data-z-index="1"><path fill="none" stroke="#e6e6e6" stroke-width="1" data-z-index="1" class="highcharts-grid-line" d="M 68 323.5 L 542 323.5" opacity="1"></path><path fill="none" stroke="#e6e6e6" stroke-width="1" data-z-index="1" class="highcharts-grid-line" d="M 68 258.5 L 542 258.5" opacity="1"></path><path fill="none" stroke="#e6e6e6" stroke-width="1" data-z-index="1" class="highcharts-grid-line" d="M 68 193.5 L 542 193.5" opacity="1"></path><path fill="none" stroke="#e6e6e6" stroke-width="1" data-z-index="1" class="highcharts-grid-line" d="M 68 128.5 L 542 128.5" opacity="1"></path><path fill="none" stroke="#e6e6e6" stroke-width="1" data-z-index="1" class="highcharts-grid-line" d="M 68 62.5 L 542 62.5" opacity="1"></path></g><rect fill="none" class="highcharts-plot-border" data-z-index="1" x="68" y="63" width="474" height="260"></rect><g class="highcharts-axis highcharts-xaxis " data-z-index="2"><path fill="none" class="highcharts-tick" stroke="#ccd6eb" stroke-width="1" d="M 119.5 323 L 119.5 333" opacity="1"></path><path fill="none" class="highcharts-tick" stroke="#ccd6eb" stroke-width="1" d="M 191.5 323 L 191.5 333" opacity="1"></path><path fill="none" class="highcharts-tick" stroke="#ccd6eb" stroke-width="1" d="M 262.5 323 L 262.5 333" opacity="1"></path><path fill="none" class="highcharts-tick" stroke="#ccd6eb" stroke-width="1" d="M 334.5 323 L 334.5 333" opacity="1"></path><path fill="none" class="highcharts-tick" stroke="#ccd6eb" stroke-width="1" d="M 406.5 323 L 406.5 333" opacity="1"></path><path fill="none" class="highcharts-tick" stroke="#ccd6eb" stroke-width="1" d="M 478.5 323 L 478.5 333" opacity="1"></path><path fill="none" class="highcharts-axis-line" stroke="#ccd6eb" stroke-width="1" data-z-index="7" d="M 68 323.5 L 542 323.5"></path></g><g class="highcharts-axis highcharts-yaxis " data-z-index="2"><text x="26" data-z-index="7" text-anchor="middle" transform="translate(0,0) rotate(270 26 193)" class="highcharts-axis-title" style="color:#666666;fill:#666666;" y="193"><tspan>MEAN Sleep Quality (/5)</tspan></text><path fill="none" class="highcharts-axis-line" stroke="#ccd6eb" stroke-width="1" data-z-index="7" d="M 67.5 63 L 67.5 323"></path></g><g class="highcharts-axis highcharts-yaxis " data-z-index="2"><text x="574" data-z-index="7" text-anchor="middle" transform="translate(0,0) rotate(90 574 193)" class="highcharts-axis-title" style="color:#666666;fill:#666666;" y="193"><tspan>MEAN Overall Mood (/5)</tspan></text><path fill="none" class="highcharts-axis-line" stroke="#ccd6eb" stroke-width="1" data-z-index="7" d="M 542.5 63 L 542.5 323"></path></g><g class="highcharts-series-group" data-z-index="3"><g data-z-index="0.1" class="highcharts-series highcharts-series-0 highcharts-spline-series highcharts-color-0 " transform="translate(68,63) scale(1 1)" clip-path="url(#highcharts-m28rsng-949)"><path fill="none" d="M 4.6470588235294 186.33333333333331 C 4.6470588235294 186.33333333333331 5.82843624043462 208 6.6160211850381 208 C 6.773538173958781 208 6.85229666841912 196.08333333333331 7.0098136573398 196.08333333333331 C 7.08857215180016 196.08333333333331 7.12795139903034 199.33333333333331 7.2067098934907 199.33333333333331 C 7.36422688241138 199.33333333333331 7.44298537687172 193.91666666666666 7.6005023657924 193.91666666666666 C 7.758019354713079 193.91666666666666 7.83677784917342 197.16666666666666 7.9942948380941 197.16666666666666 C 8.07305333255446 197.16666666666666 8.11243257978464 179.83333333333331 8.191191074245 179.83333333333331 C 8.26994956870536 179.83333333333331 8.30932881593554 205.83333333333331 8.3880873103959 205.83333333333331 C 8.54560429931658 205.83333333333331 8.62436279377692 195 8.7818797826976 195 C 8.860638277157959 195 8.900017524388138 205.83333333333331 8.9787760188485 206.91666666666666 C 9.13629300776918 208 9.21505150222952 208 9.3725684911502 208 C 9.451326985610521 208 9.49070623284068 200.41666666666666 9.569464727301 200.41666666666666 C 10.435808166365 200.41666666666666 10.868979885897 204.75 11.735323324961 204.75 C 12.995459236326202 204.75 13.6255271920088 204.75 14.885663103374 203.66666666666666 C 15.358214070136398 202.58333333333331 15.5944895535176 176.58333333333331 16.06704052028 176.58333333333331 C 17.090900948264398 176.58333333333331 17.6028311622566 189.58333333333334 18.626691590241 191.75 C 20.910687929591 193.91666666666666 22.052686099265998 193.91666666666666 24.336682438616 193.91666666666666 C 24.7304749109176 193.91666666666666 24.927371147068403 193.91666666666666 25.32116361937 179.83333333333331 C 25.3999221138304 165.74999999999997 25.439301361060597 144.08333333333334 25.518059855521 144.08333333333334 C 25.6755768444418 144.08333333333334 25.7543353389022 151.66666666666666 25.911852327823 151.66666666666666 C 26.069369316743796 151.66666666666666 26.148127811204198 140.83333333333331 26.305644800125 140.83333333333331 C 26.463161789045397 140.83333333333331 26.5419202835056 158.45555555556282 26.699437272426 166.83333333333331 C 26.778195766886405 171.02222222222952 26.817575014116603 172.25 26.896333508577 172.25 C 27.053850497497802 172.25 27.132608991958204 162.5 27.290125980879 162.5 C 27.526401464260196 162.5 27.6445392059508 162.5 27.880814689332 162.5 C 27.959573183791996 162.5 27.998952431021998 167.91666666666666 28.077710925482 167.91666666666666 C 28.156469419942404 167.91666666666666 28.1958486671726 159.6833333333333 28.274607161633 156 C 28.3533656560934 152.31666666666666 28.392744903323603 149.5 28.471503397784 149.5 C 28.786537375625603 149.5 28.9440543645464 173.33333333333331 29.259088342388 173.33333333333331 C 29.5741223202292 173.33333333333331 29.731639309149802 151.66666666666666 30.046673286991 151.66666666666666 C 30.125431781451404 151.66666666666666 30.1648110286816 151.66666666666666 30.243569523142 153.83333333333331 C 30.558603500983203 155.99999999999997 30.7161204899038 182 31.031154467745 182 C 31.109912962205403 182 31.1492922094356 165.38888888888883 31.228050703896 162.5 C 31.621843176198002 148.05555555555546 31.818739412348997 142.99999999999994 32.212531884651 138.66666666666663 C 32.7638413458734 134.33333333333331 33.0394960764846 134.33333333333331 33.590805537707 134.33333333333331 C 40.2065190723758 134.33333333333331 43.5143758397102 164.26647058823548 50.130089374379 185.25 C 50.2088478688394 185.49980392156883 50.2482271160696 187.41666666666669 50.32698561053 187.41666666666669 C 50.405744104990404 187.41666666666669 50.4451233522206 176.58333333333331 50.523881846681 176.58333333333331 C 50.602640341141395 176.58333333333331 50.6420195883716 182 50.720778082832 182 C 50.7995365772924 182 50.8389158245226 162.5 50.917674318983 162.5 C 50.996432813443406 162.5 51.0358120606736 162.5 51.114570555134 162.5 C 51.2720875440544 162.5 51.350846038514604 187.41666666666669 51.508363027435 187.41666666666669 C 51.587121521895405 187.41666666666669 51.6265007691256 174.41666666666666 51.705259263586 174.41666666666666 C 52.099051735888 174.41666666666666 52.295947972038995 187.41666666666669 52.689740444341 187.41666666666669 C 52.768498938800995 187.41666666666669 52.807878186031004 171.09895833333331 52.886636680491 171.09895833333331 C 52.965395174951404 171.09895833333331 53.0047744221816 177.2875 53.083532916642 179.49479166666666 C 53.1622914111024 181.70208333333332 53.20167065833259 182.13541666666666 53.280429152793 182.13541666666666 C 53.38626087972419 182.13541666666666 53.4391767431898 180.6201041666683 53.545008470121 175.55416666666665 C 53.5966937321106 173.08010416666832 53.6225363631054 163.28541666666666 53.674221625095 163.28541666666666 C 53.7529801195554 163.28541666666666 53.792359366785604 169.59041666666667 53.871117861246 175.5 C 53.949876355706394 181.40958333333333 53.9892556029366 192.83333333333331 54.068014097397 192.83333333333331 C 54.14677259185739 192.83333333333331 54.1861518390876 179.59500000001853 54.264910333548 172.25 C 54.343668828008006 164.90500000001856 54.383048075238 156.10833333333335 54.461806569698 156.10833333333335 C 54.619323558618795 156.10833333333335 54.698082053079204 173.33333333333331 54.855599042 173.33333333333331 C 54.9343575364604 173.33333333333331 54.9737367836906 165.75 55.052495278151 165.75 C 55.1312537726114 165.75 55.1706330198416 174.41666666666666 55.249391514302 174.41666666666666 C 55.32815000876239 174.41666666666666 55.3675292559926 165.75 55.446287750453 165.75 C 55.6038047393734 165.75 55.68256323383359 165.75 55.840080222754 165.75 C 55.9188387172144 165.75 55.9582179644446 168.89166666666665 56.036976458905 168.89166666666665 C 56.115734953365404 168.89166666666665 56.155114200595605 160.33333333333331 56.233872695056 160.33333333333331 C 56.39138968397681 160.33333333333331 56.470148178437206 160.33333333333331 56.627665167358 162.5 C 56.706423661818405 164.66666666666669 56.7458029090486 180.91666666666666 56.824561403509 180.91666666666666 C 56.9033198979694 180.91666666666666 56.9426991451996 151.66666666666666 57.02145763966 151.66666666666666 C 57.1002161341204 151.66666666666666 57.13959538135059 194.63888888888886 57.218353875811 194.63888888888886 C 57.297112370270995 194.63888888888886 57.336491617501 184.5413194444293 57.415250111961 178.546875 C 57.4940086064214 172.5524305555404 57.533387853651604 164.66666666666666 57.612146348112 164.66666666666666 C 57.6909048425724 164.66666666666666 57.730284089802595 180.52395833333333 57.809042584263 180.52395833333333 C 58.1240765621046 180.52395833333333 58.2815935510254 160.79375 58.596627528867 160.79375 C 58.67538602332699 160.79375 58.714765270556995 162.15875000000634 58.793523765017 164.66666666666666 C 58.8722822594774 167.17458333333965 58.9116615067076 173.00833333333333 58.990420001168 173.33333333333331 C 59.0691784956284 173.6583333333333 59.1085577428586 173.6583333333333 59.187316237319 173.6583333333333 C 59.2660747317794 173.6583333333333 59.3054539790096 173.6583333333333 59.38421247347 173.33333333333331 C 59.699246451311204 173.00833333333333 59.856763440231795 163.57550925925696 60.171797418073 160.30624999999998 C 60.565589890374994 156.21967592592364 60.76248612652601 154.94375000000002 61.156278598828 154.94375000000002 C 61.235037093288405 154.94375000000002 61.2744163405186 166.73854166666666 61.353174834979 166.73854166666666 C 61.4319333294394 166.73854166666666 61.471312576669604 150.5643750000161 61.55007107113 144.08333333333334 C 61.62882956559 137.60229166668276 61.66820881282 134.33333333333331 61.74696730728 134.33333333333331 C 61.825725801740404 134.33333333333331 61.8651050489706 149.44583333333333 61.943863543431 149.44583333333333 C 62.022622037891395 149.44583333333333 62.062001285121596 125.66666666666666 62.140759779582 125.66666666666666 C 62.2195182740424 125.66666666666666 62.2588975212726 134.54999999999995 62.337656015733 138.66666666666663 C 62.416414510193405 142.7833333333333 62.4557937574236 142.33645833333333 62.534552251884 146.25 C 62.6133107463444 150.16354166666667 62.6526899935746 158.234375 62.731448488035 158.234375 C 62.8102069824954 158.234375 62.8495862297256 157.9093750000063 62.928344724186 155.37708333333333 C 63.007103218646 152.84479166667296 63.046482465876 151.2983333333189 63.125240960336 145.57291666666669 C 63.2039994547964 139.84749999998556 63.2433787020266 128.91666666666669 63.322137196487 126.75 C 63.400895690947394 124.58333333333331 63.440274938177595 124.58333333333331 63.519033432638 124.58333333333331 C 63.5977919270984 124.58333333333331 63.6371711743286 158.396875 63.715929668789 158.396875 C 63.794688163249404 158.396875 63.8340674104796 158.396875 63.91282590494 158.16666666666666 C 63.9915843994004 157.93645833333332 64.0309636466306 124.58333333333331 64.109722141091 124.58333333333331 C 64.1884806355514 124.58333333333331 64.2278598827816 148.525 64.306618377242 148.525 C 64.38537687170239 148.525 64.4247561189326 148.525 64.503514613393 146.73749999999998 C 64.582273107853 144.94999999999996 64.621652355083 138.3308333333232 64.700410849543 134.33333333333331 C 64.7791693440034 130.33583333332322 64.8185485912336 126.75 64.897307085694 126.75 C 64.9760655801544 126.75 65.0154448273846 153.6227699530603 65.094203321845 166.83333333333331 C 65.201839930941 184.88776995306029 65.255658235489 204.9125 65.363294844585 204.9125 C 65.4131752244098 204.9125 65.4381154143222 128.91666666666666 65.487995794147 128.91666666666666 C 65.5886316481798 128.91666666666666 65.6389495751962 146.58402777776817 65.739585429229 161.11874999999998 C 65.796466564117 169.33402777776817 65.824907131561 185.79166666666666 65.881788266449 185.79166666666666 C 65.96054676090901 185.79166666666666 65.999926008139 185.79166666666666 66.078684502599 182 C 66.1574429970594 178.20833333333334 66.19682224428959 124.58333333333331 66.27558073875 124.58333333333331 C 66.3543392332104 124.58333333333331 66.3937184804406 126.96666666666665 66.472476974901 128.91666666666666 C 66.5512354693614 130.86666666666665 66.5906147165916 131.08333333333331 66.669373211052 134.33333333333331 C 66.7481317055124 137.58333333333331 66.78751095274261 145.16666666666666 66.866269447203 145.16666666666666 C 66.9450279416634 145.16666666666666 66.9844071888936 125.66666666666666 67.063165683354 125.66666666666666 C 67.1419241778144 125.66666666666666 67.1813034250446 131.08333333333331 67.260061919505 131.08333333333331 C 67.33882041396541 131.08333333333331 67.3781996611956 131.08333333333331 67.456958155656 131.08333333333331 C 67.535716650116 131.08333333333331 67.575095897346 125.66666666666666 67.653854391806 125.66666666666666 C 67.8901298751872 125.66666666666666 68.00826761687779 136.49999999999997 68.244543100259 136.49999999999997 C 68.4020600891798 136.49999999999997 68.4808185836402 128.91666666666666 68.638335572561 128.91666666666666 C 68.7170940670214 128.91666666666666 68.7564733142516 128.91666666666666 68.835231808712 138.66666666666663 C 68.913990303172 148.4166666666666 68.953369550402 208 69.032128044862 208 C 69.11088653932241 208 69.15026578655261 132.16666666666666 69.229024281013 132.16666666666666 C 69.3544909381602 132.16666666666666 69.4172242667338 134.33333333333331 69.542690923881 134.33333333333331 C 69.5747412556546 134.33333333333331 69.5907664215414 124.58333333333331 69.622816753315 124.58333333333331 C 69.7015752477754 124.58333333333331 69.7409544950056 124.58333333333331 69.819712989466 124.58333333333331 C 69.8984714839264 124.58333333333331 69.9378507311566 125.64259259259258 70.016609225617 126.14814814814812 C 70.0953677200774 126.65370370370368 70.13474696730759 126.77407407407405 70.213505461768 127.11111111111109 C 70.2922639562284 127.44814814814812 70.3316432034586 127.11111111111109 70.410401697919 127.83333333333331 C 70.48916019237899 128.55555555555554 70.52853943960899 169.54166666666663 70.607297934069 169.54166666666663 C 70.76481492298981 169.54166666666663 70.84357341745019 138.66666666666663 71.001090406371 138.66666666666663 C 71.1639126549882 138.66666666666663 71.2453237792968 139.75 71.408146027914 139.75 C 71.71787474605881 139.75 71.8727391051312 135.41666666666669 72.182467823276 135.41666666666669 C 72.2612263177364 135.41666666666669 72.3006055649666 149.06666666666672 72.379364059427 149.06666666666672 C 72.5368810483478 149.06666666666672 72.61563954280821 139.75 72.773156531729 139.75 C 72.93067352064979 139.75 73.0094320151102 159.25 73.166949004031 159.25 C 73.4032244874118 159.25 73.5213622291022 138.66666666666663 73.757637712483 138.66666666666663 C 73.83639620694339 138.66666666666663 73.87577545417359 145.50714285714284 73.954533948634 149.19047619047618 C 74.0332924430944 152.8738095238095 74.0726716903246 157.08333333333331 74.151430184785 157.08333333333331 C 74.2301886792454 157.08333333333331 74.2695679264756 127.83333333333331 74.348326420936 127.83333333333331 C 74.5846019043168 127.83333333333331 74.70273964600719 139.25463125806596 74.939015129388 144.08333333333331 C 75.169219645488 148.7879645913993 75.284321903538 151.66666666666666 75.514526419638 151.66666666666666 C 75.5205973869192 151.66666666666666 75.5236328705598 139.75000000000006 75.529703837841 139.75000000000003 C 75.6084623323014 139.75 75.6478415795316 139.75000000000003 75.726600073992 139.75 C 75.8841170629128 139.74999999999997 75.9628755573732 132.88888888888886 76.120392546294 132.88888888888886 C 76.199151040754 132.88888888888886 76.23853028798399 140.55347222223207 76.317288782444 144.44444444444446 C 76.3960472769044 148.3354166666765 76.4354265241346 150.85416666666663 76.514185018595 152.34374999999997 C 76.5984675463474 153.83333333333331 76.6406088102236 153.83333333333331 76.724891337976 153.83333333333331 C 76.7981257991444 153.83333333333331 76.8347430297286 146.25 76.907977490897 146.25 C 76.9923694054474 146.25 77.03456536272259 146.25 77.118957277273 146.25 C 77.3495993405642 146.25 77.4649203722098 131.08333333333331 77.695562435501 131.08333333333331 C 77.8523684102354 131.08333333333331 77.9307713976026 153.83333333333331 78.087577372337 153.83333333333331 C 78.1663358667974 153.83333333333331 78.2057151140276 149.20828999576452 78.284473608488 147.33333333333331 C 78.67897709497561 137.94162332909787 78.87622883821939 125.66666666666666 79.270732324707 125.66666666666666 C 79.3494908191674 125.66666666666666 79.3888700663976 125.66666666666666 79.467628560858 125.66666666666666 C 86.64198047220641 125.66666666666666 90.22915642788061 139.60111465090836 97.403508339229 158.84375 C 97.5640881584898 159.2744479842417 97.6443780681202 161.1387888198832 97.804957887381 174.85 C 97.8733246360446 180.68753881988317 97.9075080103764 207.715625 97.97587475904 207.715625 C 98.0546332535004 207.715625 98.0940125007306 179.63020833333331 98.172770995191 179.63020833333331 C 98.2649293723894 179.63020833333331 98.3110085609886 200.82291666666666 98.403166938187 200.82291666666666 C 98.4795189230942 200.82291666666666 98.5176949155478 182.08124999999998 98.594046900455 182.08124999999998 C 98.6844003954886 182.08124999999998 98.7295771430054 188.22916666666666 98.819930638039 188.22916666666666 C 98.9619147016634 188.22916666666666 99.0329067334756 185.19607872621594 99.1748907971 180.40208333333334 C 99.2465938430984 177.98107872621597 99.2824453660976 170.19166666666666 99.354148412096 170.19166666666666 C 99.4438455863424 170.19166666666666 99.48869417346559 187.60625 99.578391347712 187.60625 C 99.646211162386 187.60625 99.680121069723 152.57847222222222 99.747940884397 152.56944444444443 C 99.8266993788574 152.56041666666664 99.8660786260876 152.56944444444443 99.944837120548 152.56041666666664 C 100.1811126039288 152.55138888888885 100.2992503456192 145.16666666666666 100.535525829 145.16666666666666 C 104.417280431316 145.16666666666666 106.358157732474 145.6525820624868 110.23991233479 151.34166666666664 C 110.47536741718599 151.68674872915346 110.59309495838401 156.0085325907705 110.82855004078 160.2520833333333 C 111.14549828758399 165.96436592410384 111.30397241098599 176.23125 111.62092065779 176.23125 C 112.69985733849799 176.23125 113.239325678852 146.25 114.31826235956 146.25 C 114.39702085402 146.25 114.43640010125 147.1166666666666 114.51515859571 148.41666666666666 C 114.67267558463 151.01666666666657 114.75143407908999 151.6666666666664 114.90895106801 156 C 114.98770956246999 158.1666666666664 115.02708880969999 164.66666666666666 115.10584730416 164.66666666666666 C 115.26336429308401 164.66666666666666 115.34212278754599 124.58333333333331 115.49963977647 124.58333333333331 C 115.57839827093001 124.58333333333331 115.61777751816001 158.97916666666666 115.69653601262 164.66666666666666 C 115.77529450708 170.35416666666666 115.81467375431001 170.35416666666666 115.89343224877 170.35416666666666 C 116.002654966434 170.35416666666666 116.057266325266 170.35416666666666 116.16648904293 170.05624999999998 C 116.21478331418601 169.7583333333333 116.238930449814 161.18194444444444 116.28722472107 161.18194444444444 C 116.36598321553001 161.18194444444444 116.40536246276001 191.00520833333331 116.48412095722 191.00520833333331 C 116.56287945168 191.00520833333331 116.60225869891 174.18194444444444 116.68101719337 174.18194444444444 C 116.75977568783 174.18194444444444 116.79915493506 183.08333333333331 116.87791342952 183.08333333333331 C 116.95667192398 183.08333333333331 116.99605117121 174.27222222222275 117.07480966567 168.35 C 117.15356816012999 162.42777777777832 117.19294740736 153.47222222222223 117.27170590182 153.47222222222223 C 117.350464396284 153.47222222222223 117.389843643516 173.50937499999998 117.46860213798 173.50937499999998 C 117.54736063243999 173.50937499999998 117.58673987966999 159.87291666666664 117.66549837413 159.87291666666664 C 117.74425686858999 159.87291666666664 117.78363611581999 174.4076388888874 117.86239461028 179.98680555555558 C 117.94115310473998 185.56597222222072 117.98053235196998 187.76875 118.05929084643 187.76875 C 118.13804934088998 187.76875 118.17742858811998 180.21249999999998 118.25618708258 180.21249999999998 C 118.4137040715 180.21249999999998 118.49246256596 192.98229166666667 118.64997955488 192.98229166666667 C 118.72873804934 192.98229166666667 118.76811729657 165.75 118.84687579103 165.75 C 118.92563428548999 165.75 118.96501353272 179.02083333333326 119.04377202718 179.3458333333333 C 119.12253052163999 179.67083333333335 119.16190976886999 179.3458333333333 119.24066826333 179.67083333333335 C 119.31942675779001 179.9958333333334 119.35880600502 182 119.43756449948 182 C 119.55197853226 182 119.60918554865 124.58333333333331 119.72359958143 124.58333333333331 C 119.796291666394 124.58333333333331 119.83263770887599 166.3458333333333 119.90532979384 166.3458333333333 C 119.95449915948 166.3458333333333 119.9790838423 155.79958333333332 120.02825320794 155.79958333333332 C 120.1070117024 155.79958333333332 120.14639094962999 221.18055555555554 120.22514944409 221.18055555555554 C 120.30390793855 221.18055555555554 120.34328718577999 174.03749999999997 120.42204568024 174.03749999999997 C 120.542425851288 174.03749999999997 120.602615936812 181.32291666666669 120.72299610786 181.32291666666669 C 120.760132925732 181.32291666666669 120.778701334668 180.9296429788383 120.81583815254 180.04097222222222 C 120.894596647 178.15630964550496 120.93397589423 177.53546296296295 121.01273438869 174.38958333333332 C 121.17025137761001 168.09782407407405 121.24900987207002 156.44687499999998 121.40652686099 156.44687499999998 C 121.519468729782 156.44687499999998 121.57593966417798 156.44687499999998 121.68888153297 161.525 C 121.733456653098 166.60312500000003 121.755744213162 178.77708333333334 121.80031933329 178.77708333333334 C 121.879077827754 178.77708333333334 121.91845707498601 176.0320370370862 121.99721556945 174.57916666666665 C 122.15473255837 171.6734259259751 122.23349105283 167.88055555555553 122.39100804175 167.88055555555553 C 122.54852503066999 167.88055555555553 122.62728352513 181.16041666666666 122.78480051405 181.16041666666666 C 122.86355900851 181.16041666666666 122.90293825574 163.74583333333334 122.9816967502 163.74583333333334 C 123.06045524465999 163.74583333333334 123.09983449189 174.56797222222212 123.17859298635 177.35069444444443 C 123.49362696419 188.48158333333322 123.65114395311 198.52986111111113 123.96617793095 198.52986111111113 C 124.04493642541001 198.52986111111113 124.08431567263999 175.12882895886858 124.1630741671 172.5569444444444 C 124.60527029745599 158.11688451442413 124.826368362634 156 125.26856449299 156 C 125.40857959425401 156 125.478587144886 169.96059444439726 125.61860224615 176.82708333333335 C 125.74521746467401 183.03642777773058 125.80852507393601 188.68958333333333 125.93514029246 188.68958333333333 C 126.01389878692001 188.68958333333333 126.05327803415 171.00416666666666 126.13203652861 171.00416666666666 C 126.21079502307 171.00416666666666 126.2501742703 177.45 126.32893276476 177.45 C 126.56520824814399 177.45 126.68334598983601 162.03958333333333 126.91962147322 162.03958333333333 C 126.99837996768001 162.03958333333333 127.03775921491001 198.9 127.11651770937 198.9 C 127.19527620383 198.9 127.23465545106001 169.51458333333332 127.31341394552 169.51458333333332 C 127.70720641782 169.51458333333332 127.90410265397 172.06211353400116 128.29789512627 174.94479166666665 C 128.438347774726 175.97294686733446 128.508574098954 179.29166666666666 128.64902674741 179.29166666666666 C 128.72680076069 179.29166666666666 128.76568776733 167.26666666666665 128.84346178061 167.26666666666665 C 128.861510602258 167.26666666666665 128.87053501308202 196.28645833333331 128.88858383473 196.28645833333331 C 129.342265578858 196.28645833333331 129.569106450922 177.58541666666667 130.02278819505 177.58541666666667 C 130.249601720418 177.58541666666667 130.363008483102 178.1270833333333 130.58982200847 178.1270833333333 C 130.68296486685 178.1270833333333 130.72953629603998 164.36874999999998 130.82267915442 164.36874999999998 C 130.88924102091602 164.36874999999998 130.92252195416398 189.85416666666669 130.98908382066 189.85416666666669 C 131.07003005107998 189.85416666666669 131.11050316629 177.86420114475325 131.19144939671 175.63541666666666 C 131.476019151346 167.8000344780866 131.618304028664 169.8092358422067 131.9028737833 164.69375 C 131.957293715236 163.7154858422067 131.98450368120402 160.40104166666666 132.03892361314 160.40104166666666 C 132.251352774588 160.40104166666666 132.357567355312 165.49804969800786 132.56999651676 170.27291666666667 C 132.70771449526802 173.36846636467453 132.77657348452198 180.07708333333335 132.91429146303 180.07708333333335 C 132.97926722095798 180.07708333333335 133.011755099922 175.41875 133.07673085785 175.41875 C 133.263399428402 175.41875 133.356733713678 188.25625 133.54340228423 188.25625 C 133.70737309422202 188.25625 133.789358499218 167.65257542793813 133.95332930921 160.68541666666664 C 134.290185953226 146.37229765016033 134.458614275234 145.70621912972612 134.79547091925 135.05555555555554 C 134.87422941371 132.5653857963928 134.91360866094 127.83333333333331 134.9923671554 127.83333333333331 C 135.124998647808 127.83333333333331 135.19131439401198 202.33958333333334 135.32394588642 202.33958333333334 C 135.34883138293202 202.33958333333334 135.36127413118803 133.509681372549 135.3861596277 133.509681372549 C 135.51966621449202 133.509681372549 135.58641950788802 149.34164659950576 135.71992609468 163.74583333333334 C 135.79430911722403 171.7711073838195 135.831500628496 189.58333333333331 135.90588365104 189.58333333333331 C 135.934269525088 189.58333333333331 135.948462462112 181.60811084842229 135.97684833616 180.05 C 136.11030022954802 172.72477751508896 136.177026176242 167.375 136.31047806963 167.375 C 136.37047672825798 167.375 136.400476057572 181.94583333333333 136.4604747162 181.94583333333333 C 136.71332229945602 181.94583333333333 136.839746091084 168.35 137.09259367434 168.35 C 137.165773442112 168.35 137.20236332599802 182.56875 137.27554309377 182.56875 C 137.43716208761003 182.56875 137.51797158453002 176.82708333333335 137.67959057837 176.82708333333335 C 137.764966974102 176.82708333333335 137.807655171968 176.82708333333335 137.8930315677 180.9708333333333 C 137.961890556952 185.11458333333326 137.996320051578 204.53333333333333 138.06517904083 204.53333333333333 C 138.145140790066 204.53333333333333 138.185121664684 191.68745609551027 138.26508341392 185.92708333333331 C 138.34602964433998 180.09578942884363 138.38650275955 179.86426177387094 138.46744898997 175.55416666666665 C 138.545605857042 171.39259510720424 138.584684290578 164.74791666666664 138.66284115765 164.74791666666664 C 138.740724557726 164.74791666666664 138.779666257764 181.85251928472493 138.85754965784 188.68958333333333 C 138.935651831512 195.5458526180583 138.97470291834802 198.98125 139.05280509202 198.98125 C 139.1306337987 198.98125 139.16954815204 162.825 139.24737685872 162.825 C 139.32416639081998 162.825 139.36256115687002 189.06875 139.43935068897 189.06875 C 139.52013283919 189.06875 139.56052391429998 166.86041666666665 139.64130606452 166.86041666666665 C 139.721213120356 166.86041666666665 139.761166648274 169.73318867294606 139.84107370411 171.35625 C 139.92437175068198 173.04818867294605 139.966020773968 171.35625 140.04931882054 175.14791666666667 C 140.12031085235202 178.93958333333336 140.15580686825803 205.83333333333331 140.22679890007 205.83333333333331 C 140.305010460542 205.83333333333331 140.344116240778 170.54375 140.42232780125 170.54375 C 140.657837577046 170.54375 140.775592464944 170.54375 141.01110224074 184.7625 C 141.09204847116 198.98125 141.13252158637002 232.91666666666666 141.21346781679 232.91666666666666 C 141.290749589478 232.91666666666666 141.32939047582198 232.91666666666666 141.40667224851 232.91666666666666 C 141.48543074296998 232.91666666666666 141.5248099902 162.825 141.60356848466 162.825 C 141.682819219712 162.825 141.722444587238 167.61352477475438 141.80169532229 171.49166666666667 C 141.88028973655398 175.33769144142104 141.919586943686 182.13541666666666 141.99818135795 182.13541666666666 C 142.07633822502197 182.13541666666666 142.115416658558 169.73125 142.19357352563 169.73125 C 142.272550793686 169.73125 142.31203942771398 202.52916666666667 142.39101669577 202.52916666666667 C 142.46993927042598 202.52916666666667 142.509400557754 169.51458333333332 142.58832313241 169.51458333333332 C 142.66500327771 169.51458333333332 142.70334335036 189.79999999999998 142.78002349566 193.51041666666666 C 142.86348562242802 197.22083333333333 142.905216685812 197.22083333333333 142.98867881258 197.22083333333333 C 143.09801091704398 197.22083333333333 143.152676969276 179.69791666666666 143.26200907374 179.69791666666666 C 143.38895245265599 179.69791666666666 143.452424142114 193.51041666666666 143.57936752103 193.51041666666666 C 143.73404045320999 193.51041666666666 143.81137691930002 165.85833333333332 143.96604985148 165.85833333333332 C 144.121761958236 165.85833333333332 144.19961801161398 189.88125000000002 144.35533011837 191.15416666666667 C 144.59368395091002 192.42708333333331 144.71286086718 192.42708333333331 144.95121469972 192.42708333333331 C 145.029754420584 192.42708333333331 145.06902428101597 184.545300171861 145.14756400188 182.70416666666665 C 145.30240101425198 179.07446683852768 145.37981952043802 180.07649339933312 145.53465653281 178.75 C 145.694689418082 177.37899339933313 145.774705860718 178.6470883371718 145.93473874599 175.96041666666667 C 146.01152827809 174.67125500383844 146.04992304414 171.021495325824 146.12671257624 168.81041666666664 C 146.21471425512 166.276495325824 146.25871509456002 164.09791666666666 146.34671677344 164.09791666666666 C 146.428592791636 164.09791666666666 146.469530800734 164.09791666666666 146.55140681893 176.52916666666667 C 146.57454212667798 188.96041666666667 146.58610978055202 225.184375 146.6092450883 225.184375 C 146.816861230644 225.184375 146.920669301816 195.26574747872473 147.12828544416 178.75 C 147.215302641856 171.82783081205807 147.258811240704 171.19375000000002 147.3458284384 166.58958333333334 C 147.6476813071 161.98541666666665 147.79860774144998 161.98541666666665 148.10046061015 161.98541666666665 C 148.258743306658 161.98541666666665 148.33788465491202 180.67291666666665 148.49616735142 180.67291666666665 C 148.81043562167602 180.67291666666665 148.967569756804 180.62669235710422 149.28183802706 178.75 C 149.450129615568 177.74502569043756 149.53427540982202 173.46875 149.70256699833 173.46875 C 149.76918355823 173.46875 149.80249183818 200.6875 149.86910839808 200.6875 C 152.004393385736 200.6875 153.072035879564 143.70416666666665 155.20732086722 143.70416666666665 C 156.469371047548 143.70416666666665 157.100396137712 160.534843616309 158.36244631804 172.43958333333333 C 158.442955001264 173.19901028297565 158.483209342876 175.36458333333331 158.5637180261 175.36458333333331 C 158.722328883 175.36458333333331 158.80163431145002 174.85 158.96024516835 174.85 C 159.115683808114 174.85 159.193403127996 174.85 159.34884176776 177.07083333333333 C 159.434874484276 179.29166666666666 159.477890842534 181.78027156515063 159.56392355905 187.44374999999997 C 159.625836486642 191.5194382318173 159.65679295043802 201.41875 159.71870587803 201.41875 C 159.80446512755 201.41875 159.84734475231 154.13124999999997 159.93310400183 154.13124999999997 C 159.999064240942 154.13124999999997 160.032044360498 183.67916666666667 160.09800459961 183.67916666666667 C 160.827888008342 183.67916666666667 161.192829712708 168.13333333333333 161.92271312144 168.13333333333333 C 162.23085573101602 168.13333333333333 162.384927035804 174.8770833333333 162.69306964538 174.8770833333333 C 163.156979055112 174.8770833333333 163.388933759978 173.63125 163.85284316971 173.63125 C 164.006750394302 173.63125 164.083704006598 194.21458333333334 164.23761123119 194.21458333333334 C 164.31735420682998 194.21458333333334 164.35722569465003 180.99791666666664 164.43696867029 180.99791666666664 C 164.517641433714 180.99791666666664 164.557977815426 184.54583333333332 164.63865057885 184.54583333333332 C 164.802566695442 184.54583333333332 164.88452475373802 168.13333333333333 165.04844087033 168.13333333333333 C 284.565003147898 168.13333333333333 344.32328428668205 168.13333333333333 463.83984656425 178.75 C 463.9186050587101 189.36666666666667 463.95798430594004 205.83333333333331 464.0367428004 205.83333333333331 C 464.11550129486005 205.83333333333331 464.15488054209 205.83333333333331 464.23363903655 205.83333333333331 C 464.3911560254701 205.83333333333331 464.46991451993 205.83333333333331 464.62743150885 205.83333333333331 C 464.7061900033101 205.83333333333331 464.74556925054003 205.83333333333331 464.824327745 205.83333333333331 C 464.90308623946004 205.83333333333331 464.94246548668997 178.75 465.02122398115 178.75 C 465.09998247561 178.75 465.1393617228399 205.83333333333331 465.2181202173 205.83333333333331 C 465.2968787117599 205.83333333333331 465.3362579589901 205.83333333333331 465.41501645345 205.83333333333331 C 465.730050431294 205.83333333333331 465.887567420216 205.83333333333331 466.20260139806 205.83333333333331 C 466.36011838697993 205.83333333333331 466.43887688144 205.83333333333331 466.59639387036 205.83333333333331 C 466.75391085928004 205.83333333333331 466.83266935373996 178.75 466.99018634266 178.75 C 467.30522032050004 178.75 467.46273730942005 178.75 467.77777128726 178.75 C 467.85652978172004 178.75 467.89590902895 178.75 467.97466752341 178.75 C 468.05342601787396 178.75 468.092805265106 232.91666666666666 468.17156375957 232.91666666666666 C 468.64411472633003 232.91666666666666 469.35294117647 178.75 469.35294117647 178.75" class="highcharts-graph" data-z-index="1" stroke="#000000" stroke-width="2" stroke-linejoin="round" stroke-linecap="round"></path></g><g data-z-index="0.1" class="highcharts-markers highcharts-series-0 highcharts-spline-series highcharts-color-0 " transform="translate(68,63) scale(1 1)" clip-path="none"></g><g data-z-index="0.1" class="highcharts-series highcharts-series-1 highcharts-spline-series highcharts-color-1 " transform="translate(68,63) scale(1 1)" clip-path="url(#highcharts-m28rsng-1263)"><path fill="none" d="M 4.6470588235294 195 C 4.6470588235294 195 5.82843624043462 195 6.6160211850381 195 C 6.773538173958781 195 6.85229666841912 190.6666666666665 7.0098136573398 188.5 C 7.08857215180016 187.4166666666665 7.12795139903034 186.875 7.2067098934907 186.875 C 7.36422688241138 186.875 7.44298537687172 188.5 7.6005023657924 188.5 C 7.758019354713079 188.5 7.83677784917342 188.5 7.9942948380941 188.5 C 8.07305333255446 188.5 8.11243257978464 195 8.191191074245 195 C 8.26994956870536 195 8.30932881593554 195 8.3880873103959 195 C 8.54560429931658 195 8.62436279377692 195 8.7818797826976 195 C 8.860638277157959 195 8.900017524388138 195 8.9787760188485 195 C 9.13629300776918 195 9.21505150222952 195 9.3725684911502 195 C 9.451326985610521 195 9.49070623284068 195 9.569464727301 195 C 10.435808166365 195 10.868979885897 149.5 11.735323324961 149.5 C 12.995459236326202 149.5 13.6255271920088 153.30151515151616 14.885663103374 157.08333333333334 C 15.358214070136398 158.50151515151614 15.5944895535176 157.71052631578692 16.06704052028 162.5 C 17.090900948264398 172.87719298245358 17.6028311622566 195 18.626691590241 195 C 20.910687929591 195 22.052686099265998 165.65441176470677 24.336682438616 146.25 C 24.7304749109176 142.90441176470677 24.927371147068403 138.125 25.32116361937 138.125 C 25.3999221138304 138.125 25.439301361060597 146.25 25.518059855521 146.25 C 25.6755768444418 146.25 25.7543353389022 146.25 25.911852327823 146.25 C 26.069369316743796 146.25 26.148127811204198 151.66666666666666 26.305644800125 151.66666666666666 C 26.463161789045397 151.66666666666666 26.5419202835056 149.86111111110796 26.699437272426 146.25 C 26.778195766886405 144.4444444444413 26.817575014116603 138.125 26.896333508577 138.125 C 27.053850497497802 138.125 27.132608991958204 138.125 27.290125980879 138.125 C 27.526401464260196 138.125 27.6445392059508 146.25 27.880814689332 146.25 C 27.959573183791996 146.25 27.998952431021998 140.83333333333334 28.077710925482 140.83333333333334 C 28.156469419942404 140.83333333333334 28.1958486671726 141.91666666666666 28.274607161633 146.25 C 28.3533656560934 150.58333333333331 28.392744903323603 162.5 28.471503397784 162.5 C 28.786537375625603 162.5 28.9440543645464 130 29.259088342388 130 C 29.5741223202292 130 29.731639309149802 135.63333333333475 30.046673286991 140.83333333333334 C 30.125431781451404 142.13333333333475 30.1648110286816 146.25 30.243569523142 146.25 C 30.558603500983203 146.25 30.7161204899038 130 31.031154467745 130 C 31.109912962205403 130 31.1492922094356 130 31.228050703896 130 C 31.621843176198002 130 31.818739412348997 97.5 32.212531884651 97.5 C 32.7638413458734 97.5 33.0394960764846 128.2823129251701 33.590805537707 130 C 40.2065190723758 150.6122448979592 43.5143758397102 153.32482993197277 50.130089374379 153.32482993197277 C 50.2088478688394 153.32482993197277 50.2482271160696 152.55102040816325 50.32698561053 152.55102040816325 C 50.405744104990404 152.55102040816325 50.4451233522206 153.6785714285714 50.523881846681 154.87244897959184 C 50.602640341141395 156.0663265306122 50.6420195883716 156.86224489795927 50.720778082832 158.5204081632653 C 50.7995365772924 160.1785714285715 50.8389158245226 161.28401360544214 50.917674318983 163.16326530612244 C 50.996432813443406 165.0425170068027 51.0358120606736 167.91666666666666 51.114570555134 167.91666666666666 C 51.2720875440544 167.91666666666666 51.350846038514604 166.06689342403553 51.508363027435 165.15306122448982 C 51.587121521895405 164.6961451247158 51.6265007691256 165.15306122448982 51.705259263586 164.48979591836735 C 52.099051735888 163.82653061224488 52.295947972038995 154.4965986394558 52.689740444341 154.27551020408166 C 52.768498938800995 154.0544217687075 52.807878186031004 154.0544217687075 52.886636680491 154.0544217687075 C 52.965395174951404 154.0544217687075 53.0047744221816 154.29560915275204 53.083532916642 154.29560915275204 C 53.1622914111024 154.29560915275204 53.20167065833259 154.18506493506493 53.280429152793 154.18506493506493 C 53.38626087972419 154.18506493506493 53.4391767431898 161.23376623376623 53.545008470121 161.23376623376623 C 53.5966937321106 161.23376623376623 53.6225363631054 161.23376623376623 53.674221625095 161.23376623376623 C 53.7529801195554 161.23376623376623 53.792359366785604 160.99499072356213 53.871117861246 159.84090909090907 C 53.949876355706394 158.686827458256 53.9892556029366 156.64839208410635 54.068014097397 155.46335807050093 C 54.14677259185739 154.27832405689549 54.1861518390876 154.57418058132512 54.264910333548 153.9157390228819 C 54.343668828008006 153.25729746444202 54.383048075238 153.28418539132448 54.461806569698 152.17115027829314 C 54.619323558618795 149.94508005221914 54.698082053079204 148.34180924895205 54.855599042 145.56797567511853 C 54.9343575364604 144.1810588882017 54.9737367836906 143.08615749330033 55.052495278151 141.76927437641723 C 55.1312537726114 140.45239125953412 55.1706330198416 138.98356009070295 55.249391514302 138.98356009070295 C 55.32815000876239 138.98356009070295 55.3675292559926 139.64682539682542 55.446287750453 139.64682539682542 C 55.6038047393734 139.64682539682542 55.68256323383359 138.1976911976912 55.840080222754 138.1976911976912 C 55.9188387172144 138.1976911976912 55.9582179644446 138.7135642135642 56.036976458905 139.22943722943722 C 56.115734953365404 139.74531024531024 56.155114200595605 139.2913419913421 56.233872695056 140.77705627705626 C 56.39138968397681 143.74848484848494 56.470148178437206 146.78181818181824 56.627665167358 150.3722943722944 C 56.706423661818405 152.16753246753254 56.7458029090486 152.941341991342 56.824561403509 154.24134199134198 C 56.9033198979694 155.541341991342 56.9426991451996 156.8722943722944 57.02145763966 156.8722943722944 C 57.1002161341204 156.8722943722944 57.13959538135059 156.70064935064957 57.218353875811 156.61904761904762 C 57.297112370270995 156.53744588744613 57.336491617501 156.46428571428572 57.415250111961 156.46428571428572 C 57.4940086064214 156.46428571428572 57.533387853651604 158.01190476190476 57.612146348112 158.01190476190476 C 57.6909048425724 158.01190476190476 57.730284089802595 157.30928571428575 57.809042584263 156.46428571428572 C 58.1240765621046 153.08428571428576 58.2815935510254 147.44940476190476 58.596627528867 147.44940476190476 C 58.67538602332699 147.44940476190476 58.714765270556995 149.37287414965988 58.793523765017 149.37287414965988 C 58.8722822594774 149.37287414965988 58.9116615067076 147.0514455782313 58.990420001168 146.27763605442178 C 59.0691784956284 145.50382653061226 59.1085577428586 145.50382653061226 59.187316237319 145.50382653061226 C 59.2660747317794 145.50382653061226 59.3054539790096 147.24489795918367 59.38421247347 147.24489795918367 C 59.699246451311204 147.24489795918367 59.856763440231795 141.99650415721436 60.171797418073 136.13520408163265 C 60.565589890374994 128.80857898714635 60.76248612652601 114.27508503401364 61.156278598828 114.27508503401364 C 61.235037093288405 114.27508503401364 61.2744163405186 114.44090136054425 61.353174834979 114.44090136054425 C 61.4319333294394 114.44090136054425 61.471312576669604 112.11947278911569 61.55007107113 111.53911564625852 C 61.62882956559 110.95875850340136 61.66820881282 110.95875850340136 61.74696730728 110.95875850340136 C 61.825725801740404 110.95875850340136 61.8651050489706 110.95875850340136 61.943863543431 110.95875850340136 C 62.022622037891395 110.95875850340136 62.062001285121596 110.82721088435376 62.140759779582 110.64923469387756 C 62.2195182740424 110.47125850340137 62.2588975212726 110.06887755102039 62.337656015733 110.06887755102039 C 62.416414510193405 110.06887755102039 62.4557937574236 111.19642857142858 62.534552251884 111.19642857142858 C 62.6133107463444 111.19642857142858 62.6526899935746 109.45535714285714 62.731448488035 109.45535714285714 C 62.8102069824954 109.45535714285714 62.8495862297256 110.49999999999828 62.928344724186 111.19642857142858 C 63.007103218646 111.89285714285543 63.046482465876 112.08279220779436 63.125240960336 112.9375 C 63.2039994547964 113.79220779220995 63.2433787020266 114.49918831168826 63.322137196487 115.46996753246754 C 63.400895690947394 116.44074675324671 63.440274938177595 116.56103896103899 63.519033432638 117.79139610389615 C 63.5977919270984 119.0217532467533 63.6371711743286 120.57711038961041 63.715929668789 121.62175324675326 C 63.794688163249404 122.66639610389609 63.8340674104796 122.5271103896104 63.91282590494 123.0146103896104 C 63.9915843994004 123.50211038961041 64.0309636466306 123.38603896103895 64.109722141091 124.05925324675323 C 64.1884806355514 124.73246753246751 64.2278598827816 125.33603896103885 64.306618377242 126.38068181818181 C 64.38537687170239 127.42532467532459 64.4247561189326 129.28246753246754 64.503514613393 129.28246753246754 C 64.582273107853 129.28246753246754 64.621652355083 128.94118738404336 64.700410849543 128.49107142857142 C 64.7791693440034 128.04095547309717 64.8185485912336 128.4380102040816 64.897307085694 127.03188775510202 C 64.9760655801544 125.62576530612243 65.0154448273846 122.8925517390045 65.094203321845 121.46045918367346 C 65.201839930941 119.50326602471883 65.255658235489 118.55867346938777 65.363294844585 118.55867346938777 C 65.4131752244098 118.55867346938777 65.4381154143222 118.55867346938777 65.487995794147 118.55867346938777 C 65.5886316481798 118.55867346938777 65.6389495751962 112.34056122448979 65.739585429229 112.34056122448979 C 65.796466564117 112.34056122448979 65.824907131561 112.34056122448979 65.881788266449 112.34056122448979 C 65.96054676090901 112.34056122448979 65.999926008139 112.34056122448979 66.078684502599 112.34056122448979 C 66.1574429970594 112.34056122448979 66.19682224428959 112.34056122448979 66.27558073875 112.34056122448979 C 66.3543392332104 112.34056122448979 66.3937184804406 115.53639455782314 66.472476974901 117.44770408163265 C 66.5512354693614 119.35901360544217 66.5906147165916 121.89710884353741 66.669373211052 121.89710884353741 C 66.7481317055124 121.89710884353741 66.78751095274261 119.57568027210883 66.866269447203 119.57568027210883 C 66.9450279416634 119.57568027210883 66.9844071888936 122.89200680272108 67.063165683354 122.89200680272108 C 67.1419241778144 122.89200680272108 67.1813034250446 122.89200680272108 67.260061919505 122.89200680272108 C 67.33882041396541 122.89200680272108 67.3781996611956 123.96088435373508 67.456958155656 126.50807823129253 C 67.535716650116 129.05527210883713 67.575095897346 135.6279761904762 67.653854391806 135.6279761904762 C 67.8901298751872 135.6279761904762 68.00826761687779 128.26440476190473 68.244543100259 125.10416666666663 C 68.4020600891798 122.99734126984123 68.4808185836402 124.0436507936508 68.638335572561 122.46031746031747 C 68.7170940670214 121.66865079365081 68.7564733142516 121.3575396825452 68.835231808712 119.16666666666666 C 68.913990303172 116.97579365079918 68.953369550402 111.50595238095238 69.032128044862 111.50595238095238 C 69.11088653932241 111.50595238095238 69.15026578655261 111.67878503838485 69.229024281013 113.82738095238096 C 69.3544909381602 117.2502136098134 69.4172242667338 125.4345238095238 69.542690923881 125.4345238095238 C 69.5747412556546 125.4345238095238 69.5907664215414 125.4345238095238 69.622816753315 125.4345238095238 C 69.7015752477754 125.4345238095238 69.7409544950056 128.33815192743765 69.819712989466 129.57993197278913 C 69.8984714839264 130.8217120181406 69.9378507311566 131.38548752834467 70.016609225617 131.64342403628117 C 70.0953677200774 131.90136054421768 70.13474696730759 131.64342403628117 70.213505461768 131.90136054421768 C 70.2922639562284 132.1592970521542 70.3316432034586 132.92278911564406 70.410401697919 133.75850340136054 C 70.48916019237899 134.59421768707264 70.52853943960899 136.07993197278913 70.607297934069 136.07993197278913 C 70.76481492298981 136.07993197278913 70.84357341745019 128.10232426303858 71.001090406371 126.79421768707485 C 71.1639126549882 125.48611111111111 71.2453237792968 125.48611111111111 71.408146027914 125.48611111111111 C 71.71787474605881 125.48611111111111 71.8727391051312 131.54761904761904 72.182467823276 131.54761904761904 C 72.2612263177364 131.54761904761904 72.3006055649666 131.54761904761904 72.379364059427 131.54761904761904 C 72.5368810483478 131.54761904761904 72.61563954280821 131.54761904761904 72.773156531729 131.35416666666666 C 72.93067352064979 131.16071428571428 73.0094320151102 121.48809523809524 73.166949004031 121.48809523809524 C 73.4032244874118 121.48809523809524 73.5213622291022 124.58333333333331 73.757637712483 124.58333333333331 C 73.83639620694339 124.58333333333331 73.87577545417359 124.58333333333331 73.954533948634 124.58333333333331 C 74.0332924430944 124.58333333333331 74.0726716903246 124.58333333333331 74.151430184785 124.58333333333331 C 74.2301886792454 124.58333333333331 74.2695679264756 124.58333333333331 74.348326420936 124.58333333333331 C 74.5846019043168 124.58333333333331 74.70273964600719 124.58333333333331 74.939015129388 124.58333333333331 C 75.169219645488 124.58333333333331 75.284321903538 123.5 75.514526419638 123.5 C 75.5205973869192 123.5 75.5236328705598 123.5 75.529703837841 123.5 C 75.6084623323014 123.5 75.6478415795316 123.5 75.726600073992 123.5 C 75.8841170629128 123.5 75.9628755573732 124.58333333333331 76.120392546294 124.58333333333331 C 76.199151040754 124.58333333333331 76.23853028798399 120.68333333332953 76.317288782444 119.16666666666669 C 76.3960472769044 117.64999999999618 76.4354265241346 117 76.514185018595 117 C 76.5984675463474 117 76.6406088102236 117 76.724891337976 117 C 76.7981257991444 117 76.8347430297286 119.16666666666669 76.907977490897 119.16666666666669 C 76.9923694054474 119.16666666666669 77.03456536272259 117 77.118957277273 117 C 77.3495993405642 117 77.4649203722098 119.16666666666669 77.695562435501 119.16666666666669 C 77.8523684102354 119.16666666666669 77.9307713976026 111.39405812243257 78.087577372337 105.625 C 78.1663358667974 102.7273914557659 78.2057151140276 97.5 78.284473608488 97.5 C 78.67897709497561 97.5 78.87622883821939 119.16666666666669 79.270732324707 119.16666666666669 C 79.3494908191674 119.16666666666669 79.3888700663976 119.16666666666669 79.467628560858 119.16666666666669 C 86.64198047220641 119.16666666666669 90.22915642788061 136.35738139115153 97.403508339229 158.63095238095235 C 97.5640881584898 159.12949023468894 97.6443780681202 169.18089533950595 97.804957887381 176.09693877551018 C 97.8733246360446 179.04143955719306 97.9075080103764 183.28231292517006 97.97587475904 183.28231292517006 C 98.0546332535004 183.28231292517006 98.0940125007306 182.86023500309216 98.172770995191 182.86023500309216 C 98.2649293723894 182.86023500309216 98.3110085609886 189.8466295609153 98.403166938187 189.8466295609153 C 98.4795189230942 189.8466295609153 98.5176949155478 189.8466295609153 98.594046900455 189.8466295609153 C 98.6844003954886 189.8466295609153 98.7295771430054 190.78123067408782 98.819930638039 190.78123067408782 C 98.9619147016634 190.78123067408782 99.0329067334756 186.32147954494275 99.1748907971 182.9464092455164 C 99.2465938430984 181.24197274222163 99.2824453660976 179.65558937732317 99.354148412096 178.08246366728508 C 99.4438455863424 176.1145566005761 99.48869417346559 176.13039235896534 99.578391347712 174.09382730364874 C 99.646211162386 172.5539854325584 99.680121069723 169.6652558750773 99.747940884397 169.14144635126777 C 99.8266993788574 168.61763682745826 99.8660786260876 169.14144635126777 99.944837120548 168.61763682745826 C 100.1811126039288 168.09382730364874 100.2992503456192 163.27295918367346 100.535525829 163.27295918367346 C 104.417280431316 163.27295918367346 106.358157732474 181.23263888888889 110.23991233479 181.23263888888889 C 110.47536741718599 181.23263888888889 110.59309495838401 173.34784034652216 110.82855004078 168.72916666666666 C 111.14549828758399 162.51192764810946 111.30397241098599 154.14285714285714 111.62092065779 154.14285714285714 C 112.69985733849799 154.14285714285714 113.239325678852 167.10607072890232 114.31826235956 176.7819264069264 C 114.39702085402 177.48822904677493 114.43640010125 179.26917130488553 114.51515859571 180.09825293753863 C 114.67267558463 181.7564162028447 114.75143407908999 183.00003865182435 114.90895106801 183.00003865182435 C 114.98770956246999 183.00003865182435 115.02708880969999 182.95876881053545 115.10584730416 181.83228973407546 C 115.26336429308401 179.5793315810982 115.34212278754599 177.23586116266964 115.49963977647 174.55144557823127 C 115.57839827093001 173.20923778604623 115.61777751816001 172.98613945578217 115.69653601262 171.765731292517 C 115.77529450708 170.54532312925159 115.81467375431001 168.44940476190476 115.89343224877 168.44940476190476 C 116.002654966434 168.44940476190476 116.057266325266 169.1875901875902 116.16648904293 169.1875901875902 C 116.21478331418601 169.1875901875902 116.238930449814 169.1875901875902 116.28722472107 169.1875901875902 C 116.36598321553001 169.1875901875902 116.40536246276001 170.71973304473315 116.48412095722 171.97330447330447 C 116.56287945168 173.22687590187599 116.60225869891 174.26378066378078 116.68101719337 175.45544733044733 C 116.75977568783 176.6471139971141 116.79915493506 176.50782828282817 116.87791342952 177.9316378066378 C 116.95667192398 179.3554473304472 116.99605117121 181.02687590187574 117.07480966567 182.57449494949492 C 117.15356816012999 184.12211399711381 117.19294740736 185.66973304473305 117.27170590182 185.66973304473305 C 117.350464396284 185.66973304473305 117.389843643516 185.35645743148356 117.46860213798 184.32846320346317 C 117.54736063243999 183.3004689754951 117.58673987966999 181.125 117.66549837413 180.5297619047619 C 117.74425686858999 179.9345238095238 117.78363611581999 179.9345238095238 117.86239461028 179.9345238095238 C 117.94115310473998 179.9345238095238 117.98053235196998 181.09523809523807 118.05929084643 181.09523809523807 C 118.13804934088998 181.09523809523807 118.17742858811998 180.94047619047618 118.25618708258 180.94047619047618 C 118.4137040715 180.94047619047618 118.49246256596 181.66368102796665 118.64997955488 183.44614512471657 C 118.72873804934 184.33737717309137 118.76811729657 185.99308390022662 118.84687579103 187.62471655328798 C 118.92563428548999 189.25634920634906 118.96501353272 190.53458049886612 119.04377202718 191.60430839002268 C 119.12253052163999 192.67403628117904 119.16190976886999 192.9733560090703 119.24066826333 192.9733560090703 C 119.31942675779001 192.9733560090703 119.35880600502 192.95522105058077 119.43756449948 192.19954648526078 C 119.55197853226 191.10176300069415 119.60918554865 188.33971088435374 119.72359958143 188.33971088435374 C 119.796291666394 188.33971088435374 119.83263770887599 188.4333664021164 119.90532979384 188.4333664021164 C 119.95449915948 188.4333664021164 119.9790838423 185.84541843151302 120.02825320794 184.72859977324265 C 120.1070117024 182.93970225615396 120.14639094962999 181.1690759637188 120.22514944409 181.1690759637188 C 120.30390793855 181.1690759637188 120.34328718577999 181.1690759637188 120.42204568024 181.25198412698413 C 120.542425851288 181.33489229024946 120.602615936812 181.9889455782313 120.72299610786 181.9889455782313 C 120.760132925732 181.9889455782313 120.778701334668 181.9889455782313 120.81583815254 181.9889455782313 C 120.894596647 181.9889455782313 120.93397589423 183.30941672965483 121.01273438869 184.03339947089947 C 121.17025137761001 185.48136495338875 121.24900987207002 187.41881613756613 121.40652686099 187.41881613756613 C 121.519468729782 187.41881613756613 121.57593966417798 183.60780423280426 121.68888153297 183.60780423280426 C 121.733456653098 183.60780423280426 121.755744213162 183.60780423280426 121.80031933329 183.60780423280426 C 121.879077827754 183.60780423280426 121.91845707498601 182.2170686456401 121.99721556945 181.65178571428572 C 122.15473255837 181.08650278293135 122.23349105283 181.24598794063078 122.39100804175 181.08650278293135 C 122.54852503066999 180.9270176252319 122.62728352513 180.85435992578851 122.78480051405 180.85435992578851 C 122.86355900851 180.85435992578851 122.90293825574 181.8890538033394 122.9816967502 183.2310606060606 C 123.06045524465999 184.57306740878155 123.09983449189 186.9536423346768 123.17859298635 187.56439393939394 C 123.49362696419 190.0074003582624 123.65114395311 188.13768734139438 123.96617793095 190.86545566502463 C 124.04493642541001 191.54739774593236 124.08431567263999 196.0886699507389 124.1630741671 196.0886699507389 C 124.60527029745599 196.0886699507389 124.826368362634 195.26809268490155 125.26856449299 188.96045918367346 C 125.40857959425401 186.96323694950394 125.478587144886 175.72448979591837 125.61860224615 175.3265306122449 C 125.74521746467401 174.92857142857144 125.80852507393601 175.3265306122449 125.93514029246 174.92857142857144 C 126.01389878692001 174.53061224489798 126.05327803415 170.28571428571428 126.13203652861 170.28571428571428 C 126.21079502307 170.28571428571428 126.2501742703 173.2511904762058 126.32893276476 174.46428571428572 C 126.56520824814399 178.10357142858675 126.68334598983601 178.53095238093604 126.91962147322 182.41666666666669 C 126.99837996768001 183.71190476188843 127.03775921491001 185.68000000000018 127.11651770937 187.41666666666669 C 127.19527620383 189.1533333333335 127.23465545106001 190.54629629629636 127.31341394552 191.1 C 127.70720641782 193.86851851851858 127.90410265397 195.72222222222223 128.29789512627 195.72222222222223 C 128.438347774726 195.72222222222223 128.508574098954 192.39988751641718 128.64902674741 189.60482804232805 C 128.72680076069 188.05709651112616 128.76568776733 184.86524470899468 128.84346178061 184.86524470899468 C 128.861510602258 184.86524470899468 128.87053501308202 184.86524470899468 128.88858383473 184.86524470899468 C 129.342265578858 184.86524470899468 129.569106450922 167.30314625850338 130.02278819505 167.30314625850338 C 130.249601720418 167.30314625850338 130.363008483102 173.96357785336386 130.58982200847 178.13095238095238 C 130.68296486685 179.8423193499625 130.72953629603998 180.32374079765341 130.82267915442 182 C 130.88924102091602 183.19789045751733 130.92252195416398 183.67021369177013 130.98908382066 185.31632653061223 C 131.07003005107998 187.3181728754436 131.11050316629 190.33357343384216 131.19144939671 191.11989795918367 C 131.476019151346 193.88425370595098 131.618304028664 194.19302721088437 131.9028737833 194.19302721088437 C 131.957293715236 194.19302721088437 131.98450368120402 194.19302721088437 132.03892361314 194.19302721088437 C 132.251352774588 194.19302721088437 132.357567355312 189.23607713986033 132.56999651676 185.55258770174737 C 132.70771449526802 183.16457884357212 132.77657348452198 181.90459892573176 132.91429146303 179.01428147016384 C 132.97926722095798 177.65062097091345 133.011755099922 175.6973145318733 133.07673085785 174.91764281470162 C 133.263399428402 174.13797109752994 133.356733713678 174.13797109752994 133.54340228423 174.13797109752994 C 133.70737309422202 174.13797109752994 133.789358499218 181.27964133536113 133.95332930921 182.9442269331975 C 134.290185953226 186.3639009482972 134.458614275234 186.84862012987014 134.79547091925 186.84862012987014 C 134.87422941371 186.84862012987014 134.91360866094 186.30784262869025 134.9923671554 184.6885742933537 C 135.124998647808 181.9616814369408 135.19131439401198 175.98321715049656 135.32394588642 175.98321715049656 C 135.34883138293202 175.98321715049656 135.36127413118803 175.98321715049656 135.3861596277 175.98321715049656 C 135.51966621449202 175.98321715049656 135.58641950788802 173.8791864058693 135.71992609468 172.72875286478228 C 135.79430911722403 172.0877903019732 135.831500628496 171.50472689075633 135.90588365104 171.50472689075633 C 135.934269525088 171.50472689075633 135.948462462112 171.50472689075633 135.97684833616 171.50472689075633 C 136.11030022954802 171.50472689075633 136.177026176242 172.69167647034178 136.31047806963 174.14781746031747 C 136.37047672825798 174.80248412673765 136.400476057572 176.36758624836236 136.4604747162 176.78174603174602 C 136.71332229945602 178.52710672321896 136.839746091084 179.546618647459 137.09259367434 179.546618647459 C 137.165773442112 179.546618647459 137.20236332599802 179.4489164079425 137.27554309377 179.08233293317326 C 137.43716208761003 178.272725931752 137.51797158453002 177.36642336296387 137.67959057837 176.60614245698278 C 137.764966974102 176.2045186010591 137.807655171968 176.17757102841136 137.8930315677 176.17757102841136 C 137.961890556952 176.17757102841136 137.996320051578 177.36207967200605 138.06517904083 177.90726290516207 C 138.145140790066 178.54035098052947 138.185121664684 179.12324929971987 138.26508341392 179.12324929971987 C 138.34602964433998 179.12324929971987 138.38650275955 177.0749299719888 138.46744898997 177.0749299719888 C 138.545605857042 177.0749299719888 138.584684290578 184.03921568627453 138.66284115765 184.03921568627453 C 138.740724557726 184.03921568627453 138.779666257764 183.19505984211867 138.85754965784 183.19505984211867 C 138.935651831512 183.19505984211867 138.97470291834802 183.90082367375555 139.05280509202 184.1939775910364 C 139.1306337987 184.48610505903693 139.16954815204 184.49757335312347 139.24737685872 184.65826330532212 C 139.32416639081998 184.81680771353433 139.36256115687002 184.7459864704847 139.43935068897 184.9920634920635 C 139.52013283919 185.2509351166098 139.56052391429998 185.92063492063494 139.64130606452 185.92063492063494 C 139.721213120356 185.92063492063494 139.761166648274 185.92063492063494 139.84107370411 185.92063492063494 C 139.92437175068198 185.92063492063494 139.966020773968 181.27777777777777 140.04931882054 181.27777777777777 C 140.12031085235202 181.27777777777777 140.15580686825803 182.93594104308391 140.22679890007 182.93594104308391 C 140.305010460542 182.93594104308391 140.344116240778 181.63780451744782 140.42232780125 180.45975056689343 C 140.657837577046 176.91240769205098 140.775592464944 174.59306716577268 141.01110224074 171.12244897959184 C 141.09204847116 169.9295751022806 141.13252158637002 169.6323373801831 141.21346781679 168.80102040816325 C 141.290749589478 168.0073373801831 141.32939047582198 167.88665931671906 141.40667224851 167.05994897959184 C 141.48543074296998 166.21744162964424 141.5248099902 164.6279761904762 141.60356848466 164.6279761904762 C 141.682819219712 164.6279761904762 141.722444587238 167.72321428571428 141.80169532229 167.72321428571428 C 141.88028973655398 167.72321428571428 141.919586943686 167.72321428571428 141.99818135795 167.72321428571428 C 142.07633822502197 167.72321428571428 142.115416658558 167.72321428571428 142.19357352563 167.72321428571428 C 142.272550793686 167.72321428571428 142.31203942771398 168.59375 142.39101669577 168.59375 C 142.46993927042598 168.59375 142.509400557754 168.59375 142.58832313241 168.4970238095238 C 142.66500327771 168.4002976190476 142.70334335036 167.8841955611919 142.78002349566 167.49458874458875 C 142.86348562242802 167.07052312251943 142.905216685812 166.94777798245414 142.98867881258 166.4628427128427 C 143.09801091704398 165.82759657655842 143.152676969276 164.6941352298495 143.26200907374 164.6941352298495 C 143.38895245265599 164.6941352298495 143.452424142114 167.0728037646864 143.57936752103 168.40842094413523 C 143.73404045320999 170.0357907776734 143.81137691930002 170.90487818487338 143.96604985148 172.10160276231704 C 144.121761958236 173.30636756850564 144.19961801161398 174.41214440321582 144.35533011837 174.41214440321582 C 144.59368395091002 174.41214440321582 144.71286086718 173.28276598806065 144.95121469972 172.6302566481138 C 145.029754420584 172.41524898125792 145.06902428101597 172.24335188620904 145.14756400188 172.24335188620904 C 145.30240101425198 172.24335188620904 145.37981952043802 172.24335188620904 145.53465653281 172.77500773036488 C 145.694689418082 173.3066635745207 145.774705860718 176.3028526189054 145.93473874599 178.25459956709955 C 146.01152827809 179.19111792502784 146.04992304414 179.995670995671 146.12671257624 179.995670995671 C 146.21471425512 179.995670995671 146.25871509456002 179.68147058917626 146.34671677344 179.49822201607915 C 146.428592791636 179.3277290925776 146.469530800734 179.1113172541744 146.55140681893 179.1113172541744 C 146.57454212667798 179.1113172541744 146.58610978055202 179.1113172541744 146.6092450883 179.1113172541744 C 146.816861230644 179.1113172541744 146.920669301816 178.1006761149287 147.12828544416 176.24617346938777 C 147.215302641856 175.46890431529974 147.258811240704 173.08460884353744 147.3458284384 172.53188775510205 C 147.6476813071 171.97916666666666 147.79860774144998 172.53188775510205 148.10046061015 171.97916666666666 C 148.258743306658 171.42644557823127 148.33788465491202 162.5 148.49616735142 162.5 C 148.81043562167602 162.5 148.967569756804 162.5 149.28183802706 162.5 C 149.450129615568 162.5 149.53427540982202 162.5 149.70256699833 162.5 C 149.76918355823 162.5 149.80249183818 162.5 149.86910839808 162.5 C 152.004393385736 162.5 153.072035879564 162.5 155.20732086722 162.5 C 156.469371047548 162.5 157.100396137712 165.056592034972 158.36244631804 167.15674603174602 C 158.442955001264 167.290719019099 158.483209342876 168.08531746031747 158.5637180261 168.08531746031747 C 158.722328883 168.08531746031747 158.80163431145002 167.9680735930736 158.96024516835 167.9680735930736 C 159.115683808114 167.9680735930736 159.193403127996 168.03294038915266 159.34884176776 169.12878787878788 C 159.434874484276 169.73532134153362 159.477890842534 171.03330332640274 159.56392355905 172.22402597402598 C 159.625836486642 173.0809223740218 159.65679295043802 173.51912297575666 159.71870587803 174.24783549783552 C 159.80446512755 175.25721821385193 159.84734475231 175.58631853609302 159.93310400183 176.56926406926408 C 159.999064240942 177.32527957505405 160.032044360498 178.59523809523807 160.09800459961 178.59523809523807 C 160.827888008342 178.59523809523807 161.192829712708 163.49489795918367 161.92271312144 163.49489795918367 C 162.23085573101602 163.49489795918367 162.384927035804 167.207370411137 162.69306964538 169.4884044526902 C 163.156979055112 172.9225064655587 163.388933759978 177.48852495543667 163.85284316971 177.78273809523807 C 164.006750394302 178.07695123503947 164.083704006598 177.78273809523807 164.23761123119 178.07695123503947 C 164.31735420682998 178.37116437484087 164.35722569465003 179.02662655971477 164.43696867029 179.02662655971477 C 164.517641433714 179.02662655971477 164.557977815426 179.02662655971477 164.63865057885 178.25281703590528 C 164.802566695442 177.4790075120958 164.88452475373802 172.36188705970198 165.04844087033 172.35103132161956 C 284.565003147898 164.43576024533988 344.32328428668205 158.4375 463.83984656425 158.4375 C 463.9186050587101 158.4375 463.95798430594004 161.958333333335 464.0367428004 166.5625 C 464.11550129486005 171.16666666666833 464.15488054209 178.5952380952381 464.23363903655 181.45833333333334 C 464.3911560254701 187.18452380952382 464.46991451993 188.03571428571428 464.62743150885 188.03571428571428 C 464.7061900033101 188.03571428571428 464.74556925054003 188.03571428571428 464.824327745 188.03571428571428 C 464.90308623946004 188.03571428571428 464.94246548668997 200.41666666666669 465.02122398115 200.41666666666669 C 465.09998247561 200.41666666666669 465.1393617228399 199.64285714285714 465.2181202173 199.64285714285714 C 465.2968787117599 199.64285714285714 465.3362579589901 199.64285714285714 465.41501645345 199.64285714285714 C 465.730050431294 199.64285714285714 465.887567420216 196.83134920636218 466.20260139806 193.83928571428572 C 466.36011838697993 192.34325396826694 466.43887688144 191.3630952380942 466.59639387036 188.42261904761904 C 466.75391085928004 185.48214285714178 466.83266935373996 182.352513227514 466.99018634266 179.13690476190476 C 467.30522032050004 172.70568783068862 467.46273730942005 169.6293650793645 467.77777128726 164.30555555555554 C 467.85652978172004 162.97460317460258 467.89590902895 162.5 467.97466752341 162.5 C 468.05342601787396 162.5 468.092805265106 162.5 468.17156375957 162.5 C 468.64411472633003 162.5 469.35294117647 162.5 469.35294117647 162.5" class="highcharts-graph" data-z-index="1" stroke="#5D83FF" stroke-width="2" stroke-linejoin="round" stroke-linecap="round"></path></g><g data-z-index="0.1" class="highcharts-markers highcharts-series-1 highcharts-spline-series highcharts-color-1 " transform="translate(68,63) scale(1 1)" clip-path="none"></g></g><text x="300" text-anchor="middle" class="highcharts-title" data-z-index="4" style="color:#333333;font-size:18px;fill:#333333;" y="24"><tspan>Sleep Quality &amp; Overall Mood Over Time</tspan></text><text x="300" text-anchor="middle" class="highcharts-subtitle" data-z-index="4" style="color:#666666;fill:#666666;" y="46"><tspan>Black represents the mean of Sleep Quality over the previous 7 days</tspan></text><g class="highcharts-legend" data-z-index="7" transform="translate(143,358)"><rect fill="none" class="highcharts-legend-box" rx="0" ry="0" x="0" y="0" width="315" height="27" visibility="visible"></rect><g data-z-index="1"><g><g class="highcharts-legend-item highcharts-spline-series highcharts-color-0 highcharts-series-0" data-z-index="1" transform="translate(8,3)"><path fill="none" d="M 0 11 L 16 11" class="highcharts-graph" stroke="#000000" stroke-width="2"></path><path fill="#000000" d="M 12 11 A 4 4 0 1 1 11.999998000000167 10.996000000666664 Z" class="highcharts-point"></path><text x="21" style="color:#333333;font-size:12px;font-weight:bold;cursor:pointer;fill:#333333;" text-anchor="start" data-z-index="2" y="15"><tspan>Sleep Quality (/5)</tspan></text></g><g class="highcharts-legend-item highcharts-spline-series highcharts-color-1 highcharts-series-1" data-z-index="1" transform="translate(167,3)"><path fill="none" d="M 0 11 L 16 11" class="highcharts-graph" stroke="#5D83FF" stroke-width="2"></path><path fill="#5D83FF" d="M 8 7 L 12 11 8 15 4 11 Z" class="highcharts-point"></path><text x="21" y="15" style="color:#333333;font-size:12px;font-weight:bold;cursor:pointer;fill:#333333;" text-anchor="start" data-z-index="2"><tspan>Overall Mood (/5)</tspan></text></g></g></g></g><g class="highcharts-axis-labels highcharts-xaxis-labels " data-z-index="7"><text x="119.72782029065" style="color:#666666;cursor:default;font-size:11px;fill:#666666;" text-anchor="middle" transform="translate(0,0)" y="342" opacity="1">2013</text><text x="191.59494648571" style="color:#666666;cursor:default;font-size:11px;fill:#666666;" text-anchor="middle" transform="translate(0,0)" y="342" opacity="1">2014</text><text x="263.46207268078" style="color:#666666;cursor:default;font-size:11px;fill:#666666;" text-anchor="middle" transform="translate(0,0)" y="342" opacity="1">2015</text><text x="335.32919887584" style="color:#666666;cursor:default;font-size:11px;fill:#666666;" text-anchor="middle" transform="translate(0,0)" y="342" opacity="1">2016</text><text x="407.39322130706" style="color:#666666;cursor:default;font-size:11px;fill:#666666;" text-anchor="middle" transform="translate(0,0)" y="342" opacity="1">2017</text><text x="479.26034750213" style="color:#666666;cursor:default;font-size:11px;fill:#666666;" text-anchor="middle" transform="translate(0,0)" y="342" opacity="1">2018</text></g><g class="highcharts-axis-labels highcharts-yaxis-labels " data-z-index="7"><text x="53" style="color:#666666;cursor:default;font-size:11px;fill:#666666;" text-anchor="end" transform="translate(0,0)" y="327" opacity="1">0</text><text x="53" style="color:#666666;cursor:default;font-size:11px;fill:#666666;" text-anchor="end" transform="translate(0,0)" y="262" opacity="1">2.4</text><text x="53" style="color:#666666;cursor:default;font-size:11px;fill:#666666;" text-anchor="end" transform="translate(0,0)" y="197" opacity="1">4.8</text><text x="53" style="color:#666666;cursor:default;font-size:11px;fill:#666666;" text-anchor="end" transform="translate(0,0)" y="132" opacity="1">7.2</text><text x="53" style="color:#666666;cursor:default;font-size:11px;fill:#666666;" text-anchor="end" transform="translate(0,0)" y="67" opacity="1">9.6</text></g><g class="highcharts-axis-labels highcharts-yaxis-labels " data-z-index="7"><text x="557" style="color:#666666;cursor:default;font-size:11px;fill:#666666;" text-anchor="start" transform="translate(0,0)" y="327" opacity="1">0</text><text x="557" style="color:#666666;cursor:default;font-size:11px;fill:#666666;" text-anchor="start" transform="translate(0,0)" y="262" opacity="1">2</text><text x="557" style="color:#666666;cursor:default;font-size:11px;fill:#666666;" text-anchor="start" transform="translate(0,0)" y="197" opacity="1">4</text><text x="557" style="color:#666666;cursor:default;font-size:11px;fill:#666666;" text-anchor="start" transform="translate(0,0)" y="132" opacity="1">6</text><text x="557" style="color:#666666;cursor:default;font-size:11px;fill:#666666;" text-anchor="start" transform="translate(0,0)" y="67" opacity="1">8</text></g><a xlink:href="https://quantimo.do" target="_blank">
                    <text x="590" class="highcharts-credits" text-anchor="end" data-z-index="8"
                          style="cursor:pointer;color:#999999;font-size:9px;fill:#999999;" y="395">https://quantimo.do
                    </text>
                </a></svg>