<?xml version="1.0" standalone="no"?><!DOCTYPE svg PUBLIC "-//W3C//DTD SVG 1.1//EN" "http://www.w3.org/Graphics/SVG/1.1/DTD/svg11.dtd"><svg xmlns:xlink="http://www.w3.org/1999/xlink" version="1.1" class="highcharts-root" style="font-family:&quot;Lucida Grande&quot;, &quot;Lucida Sans Unicode&quot;, Arial, Helvetica, sans-serif;font-size:12px;" xmlns="http://www.w3.org/2000/svg" width="600" height="300"><desc>Created with Highstock 6.2.0</desc><defs><clipPath id="highcharts-eik1e88-17"><rect x="0" y="0" width="518" height="178" fill="none"></rect></clipPath><clipPath id="highcharts-eik1e88-28"><rect x="0" y="0" width="518" height="178" fill="none"></rect></clipPath><clipPath id="highcharts-eik1e88-29"><rect x="72" y="63" width="518" height="178" fill="none"></rect></clipPath></defs><rect fill="#ffffff" class="highcharts-background" x="0" y="0" width="600" height="300" rx="0" ry="0"></rect><rect fill="none" class="highcharts-plot-background" x="72" y="63" width="518" height="178"></rect><g class="highcharts-pane-group" data-z-index="0"></g><g class="highcharts-grid highcharts-xaxis-grid " data-z-index="1"><path fill="none" data-z-index="1" class="highcharts-grid-line" d="M 123.5 63 L 123.5 241" opacity="1"></path><path fill="none" data-z-index="1" class="highcharts-grid-line" d="M 175.5 63 L 175.5 241" opacity="1"></path><path fill="none" data-z-index="1" class="highcharts-grid-line" d="M 226.5 63 L 226.5 241" opacity="1"></path><path fill="none" data-z-index="1" class="highcharts-grid-line" d="M 278.5 63 L 278.5 241" opacity="1"></path><path fill="none" data-z-index="1" class="highcharts-grid-line" d="M 330.5 63 L 330.5 241" opacity="1"></path><path fill="none" data-z-index="1" class="highcharts-grid-line" d="M 382.5 63 L 382.5 241" opacity="1"></path><path fill="none" data-z-index="1" class="highcharts-grid-line" d="M 434.5 63 L 434.5 241" opacity="1"></path><path fill="none" data-z-index="1" class="highcharts-grid-line" d="M 485.5 63 L 485.5 241" opacity="1"></path><path fill="none" data-z-index="1" class="highcharts-grid-line" d="M 537.5 63 L 537.5 241" opacity="1"></path><path fill="none" data-z-index="1" class="highcharts-grid-line" d="M 589.5 63 L 589.5 241" opacity="1"></path><path fill="none" data-z-index="1" class="highcharts-grid-line" d="M 71.5 63 L 71.5 241" opacity="1"></path></g><g class="highcharts-grid highcharts-yaxis-grid " data-z-index="1"><path fill="none" stroke="#e6e6e6" stroke-width="1" data-z-index="1" class="highcharts-grid-line" d="M 72 241.5 L 590 241.5" opacity="1"></path><path fill="none" stroke="#e6e6e6" stroke-width="1" data-z-index="1" class="highcharts-grid-line" d="M 72 182.5 L 590 182.5" opacity="1"></path><path fill="none" stroke="#e6e6e6" stroke-width="1" data-z-index="1" class="highcharts-grid-line" d="M 72 122.5 L 590 122.5" opacity="1"></path><path fill="none" stroke="#e6e6e6" stroke-width="1" data-z-index="1" class="highcharts-grid-line" d="M 72 62.5 L 590 62.5" opacity="1"></path></g><rect fill="none" class="highcharts-plot-border" data-z-index="1" x="72" y="63" width="518" height="178"></rect><g class="highcharts-axis highcharts-xaxis " data-z-index="2"><path fill="none" class="highcharts-tick" stroke="#ccd6eb" stroke-width="1" d="M 123.5 241 L 123.5 251" opacity="1"></path><path fill="none" class="highcharts-tick" stroke="#ccd6eb" stroke-width="1" d="M 175.5 241 L 175.5 251" opacity="1"></path><path fill="none" class="highcharts-tick" stroke="#ccd6eb" stroke-width="1" d="M 226.5 241 L 226.5 251" opacity="1"></path><path fill="none" class="highcharts-tick" stroke="#ccd6eb" stroke-width="1" d="M 278.5 241 L 278.5 251" opacity="1"></path><path fill="none" class="highcharts-tick" stroke="#ccd6eb" stroke-width="1" d="M 330.5 241 L 330.5 251" opacity="1"></path><path fill="none" class="highcharts-tick" stroke="#ccd6eb" stroke-width="1" d="M 382.5 241 L 382.5 251" opacity="1"></path><path fill="none" class="highcharts-tick" stroke="#ccd6eb" stroke-width="1" d="M 434.5 241 L 434.5 251" opacity="1"></path><path fill="none" class="highcharts-tick" stroke="#ccd6eb" stroke-width="1" d="M 485.5 241 L 485.5 251" opacity="1"></path><path fill="none" class="highcharts-tick" stroke="#ccd6eb" stroke-width="1" d="M 537.5 241 L 537.5 251" opacity="1"></path><path fill="none" class="highcharts-tick" stroke="#ccd6eb" stroke-width="1" d="M 590.5 241 L 590.5 251" opacity="1"></path><path fill="none" class="highcharts-tick" stroke="#ccd6eb" stroke-width="1" d="M 71.5 241 L 71.5 251" opacity="1"></path><text x="331" data-z-index="7" text-anchor="middle" transform="translate(0,0)" class="highcharts-axis-title" style="color:#666666;fill:#666666;" y="281"><tspan>Daily Values (%)</tspan></text><path fill="none" class="highcharts-axis-line" stroke="#ccd6eb" stroke-width="1" data-z-index="7" d="M 72 241.5 L 590 241.5"></path></g><g class="highcharts-axis highcharts-yaxis " data-z-index="2"><text x="26" data-z-index="7" text-anchor="middle" transform="translate(0,0) rotate(270 26 152)" class="highcharts-axis-title" style="color:#666666;fill:#666666;" y="152"><tspan>Number of Days</tspan></text><path fill="none" class="highcharts-axis-line" data-z-index="7" d="M 72 63 L 72 241"></path></g><g class="highcharts-series-group" data-z-index="3"><g data-z-index="0.1" class="highcharts-series highcharts-series-0 highcharts-column-series highcharts-color-0 " transform="translate(72,63) scale(1 1)" clip-path="url(#highcharts-eik1e88-28)"><rect x="12.5" y="178.5" width="25" height="0" fill="#000000" stroke="#ffffff" stroke-width="1" class="highcharts-point highcharts-color-0"></rect><rect x="64.5" y="176.5" width="25" height="2" fill="#000000" stroke="#ffffff" stroke-width="1" class="highcharts-point highcharts-color-0"></rect><rect x="116.5" y="172.5" width="25" height="6" fill="#000000" stroke="#ffffff" stroke-width="1" class="highcharts-point highcharts-color-0"></rect><rect x="168.5" y="152.5" width="25" height="26" fill="#000000" stroke="#ffffff" stroke-width="1" class="highcharts-point highcharts-color-0"></rect><rect x="220.5" y="94.5" width="25" height="84" fill="#000000" stroke="#ffffff" stroke-width="1" class="highcharts-point highcharts-color-0"></rect><rect x="271.5" y="23.5" width="25" height="155" fill="#000000" stroke="#ffffff" stroke-width="1" class="highcharts-point highcharts-color-0"></rect><rect x="323.5" y="53.5" width="25" height="125" fill="#000000" stroke="#ffffff" stroke-width="1" class="highcharts-point highcharts-color-0"></rect><rect x="375.5" y="83.5" width="25" height="95" fill="#000000" stroke="#ffffff" stroke-width="1" class="highcharts-point highcharts-color-0"></rect><rect x="427.5" y="124.5" width="25" height="54" fill="#000000" stroke="#ffffff" stroke-width="1" class="highcharts-point highcharts-color-0"></rect><rect x="479.5" y="159.5" width="25" height="19" fill="#000000" stroke="#ffffff" stroke-width="1" class="highcharts-point highcharts-color-0"></rect></g><g data-z-index="0.1" class="highcharts-markers highcharts-series-0 highcharts-column-series highcharts-color-0 " transform="translate(72,63) scale(1 1)" clip-path="none"></g></g><text x="300" text-anchor="middle" class="highcharts-title" data-z-index="4" style="color:#333333;font-size:18px;fill:#333333;" y="24"><tspan>Daily Outdoor Humidity Distribution</tspan></text><text x="300" text-anchor="middle" class="highcharts-subtitle" data-z-index="4" style="color:#666666;fill:#666666;" y="46"><tspan>Each column represents the number of days this value occurred.</tspan></text><g class="highcharts-axis-labels highcharts-xaxis-labels " data-z-index="7"><text x="97.9" style="color:#666666;cursor:default;font-size:11px;fill:#666666;" text-anchor="middle" transform="translate(0,0)" y="260" opacity="1">0.8</text><text x="149.7" style="color:#666666;cursor:default;font-size:11px;fill:#666666;" text-anchor="middle" transform="translate(0,0)" y="260" opacity="1">20</text><text x="201.5" style="color:#666666;cursor:default;font-size:11px;fill:#666666;" text-anchor="middle" transform="translate(0,0)" y="260" opacity="1">30</text><text x="253.29999999999998" style="color:#666666;cursor:default;font-size:11px;fill:#666666;" text-anchor="middle" transform="translate(0,0)" y="260" opacity="1">40</text><text x="305.1" style="color:#666666;cursor:default;font-size:11px;fill:#666666;" text-anchor="middle" transform="translate(0,0)" y="260" opacity="1">50</text><text x="356.90000000000003" style="color:#666666;cursor:default;font-size:11px;fill:#666666;" text-anchor="middle" transform="translate(0,0)" y="260" opacity="1">60</text><text x="408.70000000000005" style="color:#666666;cursor:default;font-size:11px;fill:#666666;" text-anchor="middle" transform="translate(0,0)" y="260" opacity="1">70</text><text x="460.5" style="color:#666666;cursor:default;font-size:11px;fill:#666666;" text-anchor="middle" transform="translate(0,0)" y="260" opacity="1">80</text><text x="512.3000000000001" style="color:#666666;cursor:default;font-size:11px;fill:#666666;" text-anchor="middle" transform="translate(0,0)" y="260" opacity="1">90</text><text x="564.1" style="color:#666666;cursor:default;font-size:11px;fill:#666666;" text-anchor="middle" transform="translate(0,0)" y="260" opacity="1">100</text></g><g class="highcharts-axis-labels highcharts-yaxis-labels " data-z-index="7"><text x="57" style="color:#666666;cursor:default;font-size:11px;fill:#666666;" text-anchor="end" transform="translate(0,0)" y="245" opacity="1">0</text><text x="57" style="color:#666666;cursor:default;font-size:11px;fill:#666666;" text-anchor="end" transform="translate(0,0)" y="185" opacity="1">200</text><text x="57" style="color:#666666;cursor:default;font-size:11px;fill:#666666;" text-anchor="end" transform="translate(0,0)" y="126" opacity="1">400</text><text x="57" style="color:#666666;cursor:default;font-size:11px;fill:#666666;" text-anchor="end" transform="translate(0,0)" y="67" opacity="1">600</text></g><a xlink:href="https://quantimo.do" target="_blank">
                    <text x="590" class="highcharts-credits" text-anchor="end" data-z-index="8"
                          style="cursor:pointer;color:#999999;font-size:9px;fill:#999999;" y="295">https://quantimo.do
                    </text>
                </a></svg>