<?xml version="1.0" standalone="no"?><!DOCTYPE svg PUBLIC "-//W3C//DTD SVG 1.1//EN" "http://www.w3.org/Graphics/SVG/1.1/DTD/svg11.dtd"><svg xmlns:xlink="http://www.w3.org/1999/xlink" version="1.1" class="highcharts-root" style="font-family:&quot;Lucida Grande&quot;, &quot;Lucida Sans Unicode&quot;, Arial, Helvetica, sans-serif;font-size:12px;" xmlns="http://www.w3.org/2000/svg" width="600" height="400"><desc>Created with Highstock 6.2.0</desc><defs><clipPath id="highcharts-i80krha-856"><rect x="0" y="0" width="558" height="299" fill="none"></rect></clipPath><clipPath id="highcharts-i80krha-1706"><rect x="0" y="0" width="558" height="299" fill="none"></rect></clipPath><clipPath id="highcharts-i80krha-1707"><rect x="32" y="63" width="558" height="299" fill="none"></rect></clipPath></defs><rect fill="#ffffff" class="highcharts-background" x="0" y="0" width="600" height="400" rx="0" ry="0"></rect><rect fill="none" class="highcharts-plot-background" x="32" y="63" width="558" height="299"></rect><g class="highcharts-pane-group" data-z-index="0"></g><g class="highcharts-grid highcharts-xaxis-grid " data-z-index="1"><path fill="none" data-z-index="1" class="highcharts-grid-line" d="M 44.5 63 L 44.5 362" opacity="1"></path><path fill="none" data-z-index="1" class="highcharts-grid-line" d="M 160.5 63 L 160.5 362" opacity="1"></path><path fill="none" data-z-index="1" class="highcharts-grid-line" d="M 279.5 63 L 279.5 362" opacity="1"></path><path fill="none" data-z-index="1" class="highcharts-grid-line" d="M 396.5 63 L 396.5 362" opacity="1"></path><path fill="none" data-z-index="1" class="highcharts-grid-line" d="M 515.5 63 L 515.5 362" opacity="1"></path></g><g class="highcharts-grid highcharts-yaxis-grid " data-z-index="1"><path fill="none" stroke="#e6e6e6" stroke-width="1" data-z-index="1" class="highcharts-grid-line" d="M 32 362.5 L 590 362.5" opacity="1"></path><path fill="none" stroke="#e6e6e6" stroke-width="1" data-z-index="1" class="highcharts-grid-line" d="M 32 287.5 L 590 287.5" opacity="1"></path><path fill="none" stroke="#e6e6e6" stroke-width="1" data-z-index="1" class="highcharts-grid-line" d="M 32 213.5 L 590 213.5" opacity="1"></path><path fill="none" stroke="#e6e6e6" stroke-width="1" data-z-index="1" class="highcharts-grid-line" d="M 32 138.5 L 590 138.5" opacity="1"></path><path fill="none" stroke="#e6e6e6" stroke-width="1" data-z-index="1" class="highcharts-grid-line" d="M 32 62.5 L 590 62.5" opacity="1"></path></g><rect fill="none" class="highcharts-plot-border" data-z-index="1" x="32" y="63" width="558" height="299"></rect><g class="highcharts-axis highcharts-xaxis " data-z-index="2"><path fill="none" class="highcharts-tick" stroke="#ccd6eb" stroke-width="1" d="M 44.5 362 L 44.5 372" opacity="1"></path><path fill="none" class="highcharts-tick" stroke="#ccd6eb" stroke-width="1" d="M 160.5 362 L 160.5 372" opacity="1"></path><path fill="none" class="highcharts-tick" stroke="#ccd6eb" stroke-width="1" d="M 279.5 362 L 279.5 372" opacity="1"></path><path fill="none" class="highcharts-tick" stroke="#ccd6eb" stroke-width="1" d="M 396.5 362 L 396.5 372" opacity="1"></path><path fill="none" class="highcharts-tick" stroke="#ccd6eb" stroke-width="1" d="M 515.5 362 L 515.5 372" opacity="1"></path><path fill="none" class="highcharts-axis-line" stroke="#ccd6eb" stroke-width="1" data-z-index="7" d="M 32 362.5 L 590 362.5"></path></g><g class="highcharts-axis highcharts-yaxis " data-z-index="2"><path fill="none" class="highcharts-axis-line" data-z-index="7" d="M 32 63 L 32 362"></path></g><g class="highcharts-series-group" data-z-index="3"><g data-z-index="0.1" class="highcharts-series highcharts-series-0 highcharts-spline-series highcharts-color-0 " transform="translate(32,63) scale(1 1)" clip-path="url(#highcharts-i80krha-1706)"><path fill="none" d="M 5.4705882352941 299 C 5.4705882352941 299 5.857658157602641 299 6.115704772475 299 C 6.37375138734736 299 6.50277469478354 299 6.7608213096559 299 C 7.01886792452826 299 7.147891231964439 299 7.4059378468368 299 C 7.6639844617092 299 7.793007769145399 299 8.0510543840178 299 C 8.309100998890159 299 8.43812430632634 299 8.6961709211987 299 C 8.95421753607106 299 9.083240843507241 299 9.3412874583796 299 C 9.599334073251962 299 9.728357380688141 299 9.9864039955605 299 C 10.2444506104327 299 10.3734739178688 299 10.631520532741 299 C 10.8895671476134 299 11.0185904550496 299 11.276637069922 299 C 11.534683684794398 299 11.6637069922306 299 11.921753607103 299 C 12.1798002219754 299 12.308823529411601 299 12.566870144284 299 C 12.8249167591564 299 12.9539400665926 299 13.211986681465 299 C 13.4700332963374 299 13.5990566037736 299 13.857103218646 299 C 14.115149833518398 299 14.244173140954597 299 14.502219755827 299 C 14.760266370699402 299 14.8892896781356 299 15.147336293008 299 C 15.4053829078804 299 15.534406215316599 299 15.792452830189 299 C 16.050499445061398 299 16.179522752497597 299 16.43756936737 299 C 16.695615982242398 299 16.8246392896786 299 17.082685904551 299 C 17.340732519423 299 17.469755826859 299 17.727802441731 299 C 17.9858490566034 299 18.114872364039602 299 18.372918978912 299 C 18.630965593784403 299 18.759988901220602 299 19.018035516093 299 C 19.2760821309654 299 19.4051054384016 299 19.663152053274 299 C 19.9211986681464 299 20.0502219755826 299 20.308268590455 299 C 20.566315205327403 299 20.695338512763602 299 20.953385127636 299 C 21.211431742508402 299 21.340455049944598 299 21.598501664817 299 C 21.8565482796894 299 21.985571587125598 299 22.243618201998 299 C 22.5016648168704 299 22.6306881243066 299 22.888734739179 299 C 23.1467813540514 299 23.2758046614876 299 23.53385127636 299 C 23.791897891232402 299 23.9209211986686 299 24.178967813541 299 C 24.437014428413 299 24.566037735849 224.25 24.824084350721 224.25 C 25.082130965593404 224.25 25.2111542730296 299 25.469200887902 299 C 25.7272475027744 299 25.8562708102106 299 26.114317425083 299 C 26.372364039955404 299 26.501387347391603 299 26.759433962264 299 C 27.017480577136403 299 27.1465038845726 299 27.404550499445 299 C 27.6625971143174 299 27.7916204217536 299 28.049667036626 299 C 28.307713651498396 299 28.436736958934603 299 28.694783573807 299 C 28.9528301886794 299 29.081853496115606 299 29.339900110988 299 C 29.597946725860403 299 29.726970033296602 299 29.985016648169 299 C 30.243063263041403 299 30.3720865704776 299 30.63013318535 299 C 30.8881798002224 299 31.0172031076586 299 31.275249722531 299 C 31.533296337402998 299 31.662319644839 299 31.920366259711 299 C 32.1784128745834 299 32.3074361820196 299 32.565482796892 299 C 32.8235294117644 299 32.9525527192006 299 33.210599334073 299 C 33.4686459489454 299 33.59766925638159 299 33.855715871254 299 C 34.1137624861264 299 34.2427857935626 299 34.500832408435 299 C 34.7588790233074 299 34.8879023307436 299 35.145948945616 299 C 35.4039955604884 299 35.5330188679246 299 35.791065482797 299 C 36.0491120976694 299 36.17813540510561 299 36.436182019978 299 C 36.694228634850404 299 36.8232519422866 299 37.081298557159 299 C 37.3393451720314 299 37.4683684794676 299 37.72641509434 299 C 37.9844617092124 299 38.113485016648596 299 38.371531631521 299 C 38.629578246392995 299 38.758601553828996 299 39.016648168701 299 C 39.274694783573395 299 39.4037180910096 299 39.661764705882 299 C 39.9198113207544 299 40.048834628190605 299 40.306881243063 299 C 40.5649278579354 299 40.6939511653716 299 40.951997780244 299 C 41.210044395116405 299 41.339067702552605 299 41.597114317425 299 C 41.85516093229741 299 41.9841842397336 299 42.242230854606 299 C 42.500277469478405 299 42.629300776914604 299 42.887347391787 299 C 43.1453940066594 299 43.2744173140956 299 43.532463928968 299 C 43.7905105438404 299 43.9195338512766 299 44.177580466149 299 C 44.4356270810214 299 44.56465038845759 224.25 44.82269700333 224.25 C 45.0807436182024 224.25 45.2097669256386 299 45.467813540511 299 C 45.725860155382996 299 45.854883462819 299 46.112930077691 299 C 46.370976692563396 299 46.4999999999996 299 46.758046614872 299 C 47.0160932297444 299 47.1451165371806 299 47.403163152053 299 C 47.6612097669254 299 47.7902330743616 299 48.048279689234 299 C 48.306326304106406 299 48.4353496115426 299 48.693396226415 299 C 48.9514428412874 299 49.0804661487236 299 49.338512763596 299 C 49.5965593784684 299 49.7255826859046 299 49.983629300777 299 C 50.241675915649395 299 50.370699223085595 299 50.628745837958 299 C 50.8867924528304 299 51.01581576026659 299 51.273862375139 299 C 51.5319089900114 299 51.660932297447594 299 51.91897891232 299 C 52.177025527192406 299 52.30604883462861 299 52.564095449501 299 C 52.822142064373 299 52.951165371809 299 53.209211986681 299 C 53.4672586015534 299 53.5962819089896 299 53.854328523862 299 C 54.1123751387344 299 54.24139844617061 299 54.499445061043 299 C 54.757491675915404 299 54.886514983351596 299 55.144561598224 299 C 55.40260821309639 299 55.5316315205326 299 55.789678135405 299 C 56.0477247502774 299 56.176748057713596 299 56.434794672586 299 C 56.69284128745839 299 56.8218645948946 299 57.079911209767 299 C 57.337957824639396 299 57.4669811320756 299 57.725027746948 299 C 57.9830743618204 299 58.112097669256606 299 58.370144284129 299 C 58.6281908990014 299 58.75721420643761 299 59.01526082131 299 C 59.27330743618241 299 59.4023307436186 299 59.660377358491 299 C 59.918423973363 299 60.047447280799 299 60.305493895671 299 C 60.563540510543405 299 60.692563817979604 299 60.950610432852 299 C 61.20865704772441 299 61.33768035516059 299 61.595726970033 299 C 61.8537735849054 299 61.9827968923416 299 62.240843507214 299 C 62.4988901220864 299 62.62791342952259 299 62.885960044395 299 C 63.14400665926739 299 63.2730299667036 299 63.531076581576 299 C 63.789123196448394 299 63.9181465038846 299 64.176193118757 299 C 64.4342397336294 299 64.5632630410656 299 64.821309655938 299 C 65.0793562708104 299 65.2083795782466 299 65.466426193119 299 C 65.7244728079914 299 65.8534961154276 299 66.1115427303 299 C 66.3695893451724 299 66.49861265260861 299 66.756659267481 299 C 67.014705882353 299 67.143729189789 299 67.401775804661 299 C 67.65982241953341 299 67.78884572696958 299 68.046892341842 299 C 68.3049389567144 299 68.43396226415061 299 68.692008879023 299 C 68.9500554938954 299 69.0790788013316 299 69.337125416204 299 C 69.5951720310764 299 69.7241953385126 299 69.982241953385 299 C 70.2402885682574 299 70.3693118756936 299 70.627358490566 299 C 70.8854051054384 299 71.0144284128746 299 71.272475027747 299 C 71.53052164261939 299 71.6595449500556 299 71.917591564928 299 C 72.1756381798004 299 72.3046614872366 299 72.562708102109 299 C 72.8207547169814 299 72.94977802441761 299 73.20782463929 299 C 73.46587125416241 299 73.59489456159861 299 73.852941176471 299 C 74.1109877913434 299 74.2400110987796 299 74.498057713652 299 C 74.756104328524 299 74.88512763596 299 75.143174250832 299 C 75.4012208657044 299 75.5302441731406 299 75.788290788013 299 C 76.0463374028854 299 76.1753607103216 299 76.433407325194 299 C 76.6914539400664 299 76.8204772475026 299 77.078523862375 299 C 77.33657047724739 299 77.46559378468359 299 77.723640399556 299 C 77.98168701442839 299 78.1107103218646 299 78.368756936737 299 C 78.6268035516094 299 78.7558268590456 299 79.013873473918 299 C 79.2719200887904 299 79.40094339622661 299 79.658990011099 299 C 79.9170366259714 299 80.0460599334076 299 80.30410654828 299 C 80.5621531631524 299 80.6911764705886 299 80.949223085461 299 C 81.2072697003334 299 81.3362930077696 299 81.594339622642 299 C 81.852386237514 299 81.98140954495 299 82.239456159822 299 C 82.4975027746944 299 82.6265260821306 299 82.884572697003 299 C 83.1426193118754 299 83.2716426193116 299 83.529689234184 299 C 83.78773584905642 299 83.91675915649259 299 84.174805771365 299 C 84.43285238623739 299 84.5618756936736 299 84.819922308546 299 C 85.0779689234184 299 85.2069922308546 299 85.465038845727 299 C 85.72308546059939 299 85.8521087680356 299 86.110155382908 299 C 86.3682019977804 299 86.4972253052166 299 86.755271920089 299 C 87.0133185349614 299 87.1423418423976 299 87.40038845727 299 C 87.6584350721424 299 87.7874583795786 299 88.045504994451 299 C 88.3035516093234 299 88.43257491675959 299 88.690621531632 299 C 88.94866814650399 299 89.07769145393999 299 89.335738068812 299 C 89.5937846836844 299 89.72280799112062 299 89.980854605993 299 C 90.23890122086542 299 90.36792452830159 299 90.625971143174 299 C 90.88401775804638 299 91.0130410654826 299 91.271087680355 299 C 91.52913429522741 299 91.6581576026636 299 91.916204217536 299 C 92.1742508324084 299 92.3032741398446 299 92.561320754717 299 C 92.8193673695894 299 92.9483906770256 299 93.206437291898 299 C 93.4644839067704 299 93.5935072142066 299 93.851553829079 299 C 94.1096004439514 299 94.2386237513876 299 94.49667036626 299 C 94.7547169811324 299 94.8837402885686 299 95.141786903441 299 C 95.3998335183134 299 95.52885682574961 299 95.786903440622 299 C 96.044950055494 299 96.17397336293 299 96.432019977802 299 C 96.69006659267441 299 96.81908990011058 299 97.077136514983 299 C 97.3351831298554 299 97.46420643729161 299 97.722253052164 299 C 97.9802996670364 299 98.1093229744726 299 98.367369589345 299 C 98.6254162042174 299 98.7544395116536 299 99.012486126526 299 C 99.2705327413984 299 99.3995560488346 299 99.657602663707 299 C 99.91564927858019 299 100.04467258601679 299 100.30271920089 299 C 100.56076581576198 299 100.68978912319798 299 100.94783573807 299 C 101.20588235294198 299 101.33490566037798 299 101.59295227525 299 C 101.85099889012199 299 101.98002219755799 299 102.23806881243 299 C 102.49611542730199 299 102.62513873473799 299 102.88318534961 299 C 103.14123196448199 299 103.27025527191799 299 103.52830188679 299 C 103.78634850166199 299 103.91537180909799 299 104.17341842397 299 C 104.43146503884199 299 104.56048834627799 299 104.81853496115 299 C 105.076581576026 299 105.205604883464 299 105.46365149834 299 C 105.721698113212 299 105.850721420648 299 106.10876803552 299 C 106.366814650392 299 106.495837957828 299 106.7538845727 299 C 107.011931187572 299 107.140954495008 299 107.39900110988 299 C 107.657047724752 299 107.786071032188 299 108.04411764706 299 C 108.30216426193199 299 108.431187569368 299 108.68923418424 299 C 108.947280799112 299 109.076304106548 299 109.33435072142 299 C 109.592397336292 299 109.721420643728 299 109.9794672586 299 C 110.237513873472 299 110.366537180908 299 110.62458379578 299 C 110.882630410652 299 111.011653718088 299 111.26970033296 299 C 111.527746947832 299 111.656770255268 299 111.91481687014 299 C 112.172863485016 299 112.301886792454 299 112.55993340733 299 C 112.81798002220201 299 112.94700332963801 299 113.20504994451 299 C 113.46309655938198 299 113.59211986681798 299 113.85016648169 299 C 114.10821309656198 299 114.23723640399798 299 114.49528301887 299 C 114.75332963374198 299 114.88235294117798 299 115.14039955605 299 C 115.39844617092199 299 115.52746947835799 299 115.78551609323 299 C 116.04356270810199 299 116.17258601553799 299 116.43063263041 299 C 116.68867924528199 299 116.81770255271799 299 117.07574916759 299 C 117.33379578246199 299 117.46281908989799 299 117.72086570477 299 C 117.97891231964199 299 118.10793562707799 299 118.36598224195 299 C 118.624028856822 299 118.753052164258 299 119.01109877913 299 C 119.269145394006 299 119.398168701444 299 119.65621531632 299 C 119.914261931192 299 120.043285238628 299 120.3013318535 299 C 120.559378468372 299 120.688401775808 299 120.94644839068 299 C 121.204495005552 299 121.333518312988 299 121.59156492786 299 C 121.849611542732 299 121.978634850168 299 122.23668146504 299 C 122.49472807991201 299 122.62375138734801 299 122.88179800222 299 C 123.13984461709201 299 123.26886792452801 299 123.5269145394 299 C 123.78496115427201 299 123.91398446170801 299 124.17203107658 299 C 124.43007769145201 299 124.55910099888801 299 124.81714761376 299 C 125.07519422863201 299 125.20421753606801 299 125.46226415094 299 C 125.72031076581202 299 125.84933407324802 299 126.10738068812 299 C 126.365427302996 299 126.494450610434 299 126.75249722531 299 C 127.01054384018201 299 127.13956714761801 299 127.39761376249 299 C 127.65566037736201 299 127.78468368479801 299 128.04273029967 299 C 128.30077691454204 299 128.42980022197804 299 128.68784683685 299 C 128.94589345172201 299 129.074916759158 299 129.33296337403 299 C 129.591009988902 299 129.720033296338 299 129.97807991121 299 C 130.236126526082 299 130.365149833518 299 130.62319644839 299 C 130.881243063262 299 131.010266370698 299 131.26831298557 299 C 131.526359600442 299 131.655382907878 299 131.91342952275 299 C 132.171476137622 299 132.300499445058 299 132.55854605993 299 C 132.816592674802 299 132.945615982238 299 133.20366259711 299 C 133.461709211986 299 133.590732519424 299 133.8487791343 299 C 134.106825749172 299 134.235849056608 299 134.49389567148 299 C 134.751942286352 299 134.880965593788 299 135.13901220866 299 C 135.397058823532 299 135.526082130968 299 135.78412874584 299 C 136.042175360712 299 136.171198668148 299 136.42924528302 299 C 136.687291897892 299 136.816315205328 299 137.0743618202 299 C 137.332408435072 299 137.461431742508 299 137.71947835738 299 C 137.977524972252 299 138.106548279688 299 138.36459489456 299 C 138.62264150943201 299 138.751664816868 299 139.00971143174 299 C 139.26775804661196 299 139.39678135404796 299 139.65482796892 299 C 139.91287458379196 299 140.04189789122796 299 140.2999445061 299 C 140.55799112097597 299 140.687014428414 299 140.94506104329 299 C 141.20310765816197 299 141.33213096559797 299 141.59017758047 299 C 141.84822419534197 299 141.97724750277797 299 142.23529411765 299 C 142.49334073252197 299 142.62236403995797 299 142.88041065483 299 C 143.13845726970197 299 143.26748057713797 299 143.52552719201 299 C 143.78357380688198 299 143.91259711431798 299 144.17064372919 299 C 144.42869034406198 299 144.55771365149798 299 144.81576026637 299 C 145.07380688124198 299 145.20283018867798 299 145.46087680355 299 C 145.71892341842198 299 145.84794672585798 299 146.10599334073 299 C 146.36403995560198 299 146.49306326303798 299 146.75110987791 299 C 147.00915649278198 299 147.13817980021798 299 147.39622641509 299 C 147.654273029966 299 147.783296337404 299 148.04134295228 299 C 148.299389567152 299 148.428412874588 299 148.68645948946 299 C 148.944506104332 299 149.073529411768 299 149.33157602664 299 C 149.589622641512 299 149.718645948948 299 149.97669256382 299 C 150.234739178692 299 150.363762486128 299 150.621809101 299 C 150.879855715872 299 151.008879023308 299 151.26692563818 299 C 151.524972253052 299 151.653995560488 299 151.91204217536 299 C 152.170088790232 299 152.299112097668 299 152.55715871254 299 C 152.815205327412 299 152.944228634848 299 153.20227524972 299 C 153.460321864592 299 153.589345172028 299 153.8473917869 299 C 154.105438401772 299 154.234461709208 299 154.49250832408 299 C 154.75055493895601 299 154.87957824639403 299 155.13762486127 299 C 155.395671476142 299 155.524694783578 299 155.78274139845 299 C 156.04078801332201 299 156.16981132075801 299 156.42785793563 299 C 156.685904550502 299 156.814927857938 299 157.07297447281 299 C 157.331021087682 299 157.460044395118 299 157.71809100999 299 C 157.976137624862 299 158.105160932298 299 158.36320754717 299 C 158.621254162042 299 158.750277469478 299 159.00832408435 299 C 159.266370699222 299 159.395394006658 299 159.65344062153 299 C 159.911487236402 299 160.040510543838 299 160.29855715871 299 C 160.556603773582 299 160.685627081018 299 160.94367369589 299 C 161.201720310762 299 161.330743618198 299 161.58879023307 299 C 161.846836847946 299 161.975860155384 299 162.23390677026 299 C 162.491953385132 299 162.620976692568 299 162.87902330744 299 C 163.137069922312 299 163.266093229748 299 163.52413984462 299 C 163.782186459492 299 163.911209766928 299 164.1692563818 299 C 164.427302996672 299 164.556326304108 299 164.81437291898 299 C 165.072419533852 299 165.201442841288 299 165.45948945616 299 C 165.717536071032 299 165.846559378468 299 166.10460599334 299 C 166.362652608212 299 166.491675915648 299 166.74972253052 299 C 167.007769145392 299 167.136792452828 299 167.3948390677 299 C 167.652885682572 299 167.781908990008 299 168.03995560488 299 C 168.298002219752 299 168.427025527188 299 168.68507214206 299 C 168.943118756936 299 169.072142064374 299 169.33018867925 299 C 169.588235294122 299 169.717258601558 299 169.97530521643 299 C 170.233351831302 299 170.362375138738 299 170.62042175361 299 C 170.878468368482 299 171.007491675918 299 171.26553829079 299 C 171.523584905662 299 171.652608213098 299 171.91065482797 299 C 172.168701442842 299 172.297724750278 299 172.55577136515 299 C 172.813817980022 299 172.942841287458 299 173.20088790233 299 C 173.458934517202 299 173.587957824638 299 173.84600443951 299 C 174.104051054382 299 174.233074361818 299 174.49112097669 299 C 174.74916759156199 299 174.87819089899799 299 175.13623751387 299 C 175.394284128742 299 175.523307436178 299 175.78135405105 299 C 176.039400665926 299 176.16842397336399 299 176.42647058824 299 C 176.684517203112 299 176.813540510548 299 177.07158712542 299 C 177.329633740292 299 177.458657047728 299 177.7167036626 299 C 177.974750277472 299 178.103773584908 299 178.36182019978 299 C 178.619866814652 299 178.748890122088 299 179.00693673696 299 C 179.264983351832 299 179.394006659268 299 179.65205327414 299 C 179.910099889012 299 180.039123196448 299 180.29716981132 299 C 180.555216426192 299 180.684239733628 299 180.9422863485 299 C 181.200332963372 299 181.329356270808 299 181.58740288568 299 C 181.845449500552 299 181.974472807988 299 182.23251942286 299 C 182.490566037732 299 182.619589345168 299 182.87763596004 299 C 183.135682574916 299 183.264705882354 299 183.52275249723 299 C 183.780799112102 299 183.909822419538 299 184.16786903441 299 C 184.425915649282 299 184.554938956718 299 184.81298557159 299 C 185.071032186462 299 185.200055493898 299 185.45810210877 299 C 185.716148723642 299 185.845172031078 299 186.10321864595 299 C 186.361265260822 299 186.490288568258 299 186.74833518313 299 C 187.006381798002 299 187.135405105438 299 187.39345172031 299 C 187.651498335182 299 187.780521642618 299 188.03856825749 299 C 188.296614872362 299 188.425638179798 299 188.68368479467 299 C 188.941731409542 299 189.070754716978 299 189.32880133185 299 C 189.586847946722 299 189.715871254158 299 189.97391786903 299 C 190.231964483906 299 190.36098779134403 299 190.61903440622 299 C 190.877081021092 299 191.006104328528 299 191.2641509434 299 C 191.522197558272 299 191.651220865708 299 191.90926748058 299 C 192.167314095452 299 192.296337402888 299 192.55438401776 299 C 192.81243063263202 299 192.94145394006802 299 193.19950055494 299 C 193.45754716981202 299 193.58657047724802 299 193.84461709212 299 C 194.10266370699202 299 194.23168701442802 299 194.4897336293 299 C 194.74778024417202 299 194.87680355160802 299 195.13485016648 299 C 195.39289678135202 299 195.52192008878802 299 195.77996670366 299 C 196.03801331853202 299 196.16703662596802 299 196.42508324084 299 C 196.68312985571202 299 196.81215316314803 299 197.07019977802 299 C 197.328246392896 299 197.45726970033402 299 197.71531631521 299 C 197.97336293008203 299 198.10238623751803 299 198.36043285239 299 C 198.61847946726203 299 198.74750277469803 299 199.00554938957 299 C 199.26359600444204 299 199.39261931187804 299 199.65066592675 299 C 199.90871254162204 299 200.03773584905804 299 200.29578246393 299 C 200.55382907880204 299 200.68285238623804 299 200.94089900111 299 C 201.19894561598204 299 201.32796892341804 299 201.58601553829 299 C 201.844062153162 299 201.97308546059799 299 202.23113207547 299 C 202.489178690342 299 202.618201997778 299 202.87624861265 299 C 203.134295227522 299 203.263318534958 299 203.52136514983 299 C 203.779411764702 299 203.908435072138 299 204.16648168701 299 C 204.424528301886 299 204.553551609324 299 204.8115982242 299 C 205.069644839072 299 205.198668146508 299 205.45671476138 299 C 205.714761376252 299 205.843784683688 299 206.10183129856 299 C 206.359877913432 299 206.488901220868 299 206.74694783574 299 C 207.004994450612 299 207.134017758048 299 207.39206437292 299 C 207.650110987792 299 207.779134295228 299 208.0371809101 299 C 208.295227524972 299 208.424250832408 299 208.68229744728 299 C 208.940344062152 299 209.069367369588 299 209.32741398446 299 C 209.585460599332 299 209.714483906768 299 209.97253052164 299 C 210.230577136512 299 210.359600443948 299 210.61764705882 299 C 210.875693673692 299 211.004716981128 299 211.262763596 299 C 211.52081021087602 299 211.64983351831398 299 211.90788013319 299 C 212.16592674806196 299 212.29495005549796 299 212.55299667037 299 C 212.81104328524196 299 212.94006659267797 299 213.19811320755 299 C 213.45615982242197 299 213.58518312985797 299 213.84322974473 299 C 214.10127635960197 299 214.23029966703797 299 214.48834628191 299 C 214.74639289678197 299 214.87541620421797 299 215.13346281909 299 C 215.39150943396197 299 215.52053274139797 299 215.77857935627 299 C 216.03662597114197 299 216.16564927857797 299 216.42369589345 299 C 216.68174250832197 299 216.81076581575797 299 217.06881243063 299 C 217.32685904550198 299 217.45588235293798 299 217.71392896781 299 C 217.97197558268198 299 218.10099889011798 299 218.35904550499 299 C 218.617092119866 299 218.746115427304 299 219.00416204218 299 C 219.26220865705199 299 219.391231964488 299 219.64927857936 299 C 219.907325194232 299 220.036348501668 299 220.29439511654 299 C 220.552441731412 299 220.681465038848 299 220.93951165372 299 C 221.197558268592 299 221.326581576028 299 221.5846281909 299 C 221.842674805772 299 221.971698113208 299 222.22974472808 299 C 222.487791342952 299 222.616814650388 299 222.87486126526 299 C 223.132907880132 299 223.261931187568 299 223.51997780244 299 C 223.778024417312 299 223.907047724748 299 224.16509433962 299 C 224.423140954492 299 224.552164261928 299 224.8102108768 299 C 225.068257491672 299 225.197280799108 299 225.45532741398 299 C 225.713374028856 299 225.84239733629403 299 226.10044395117 299 C 226.358490566042 299 226.487513873478 299 226.74556048835 299 C 227.003607103222 299 227.132630410658 299 227.39067702553 299 C 227.648723640402 299 227.777746947838 299 228.03579356271 299 C 228.293840177582 299 228.422863485018 299 228.68091009989 299 C 228.93895671476199 299 229.06798002219801 299 229.32602663707 299 C 229.584073251942 299 229.713096559378 299 229.97114317425 299 C 230.229189789122 299 230.358213096558 224.25 230.61625971143 224.25 C 230.874306326302 224.25 231.003329633738 299 231.26137624861 299 C 231.519422863482 299 231.648446170918 299 231.90649278579 299 C 232.164539400662 299 232.293562708098 299 232.55160932297 299 C 232.809655937846 299 232.938679245284 299 233.19672586016 299 C 233.454772475032 299 233.583795782468 299 233.84184239734 299 C 234.099889012212 299 234.228912319648 299 234.48695893452 299 C 234.745005549392 299 234.874028856828 299 235.1320754717 299 C 235.390122086572 299 235.519145394008 299 235.77719200888 299 C 236.035238623752 299 236.164261931188 299 236.42230854606 299 C 236.680355160932 299 236.809378468368 299 237.06742508324 299 C 237.325471698112 299 237.454495005548 299 237.71254162042 299 C 237.970588235292 299 238.099611542728 299 238.3576581576 299 C 238.61570477247201 299 238.74472807990801 299 239.00277469478 299 C 239.26082130965196 299 239.38984461708796 299 239.64789123196 299 C 239.90593784683597 299 240.03496115427396 299 240.29300776915 299 C 240.55105438402197 299 240.68007769145797 299 240.93812430633 299 C 241.19617092120197 299 241.32519422863797 299 241.58324084351 299 C 241.84128745838197 299 241.97031076581797 299 242.22835738069 299 C 242.48640399556197 299 242.61542730299797 299 242.87347391787 299 C 243.13152053274197 299 243.26054384017797 224.25 243.51859045505 224.25 C 243.77663706992197 224.25 243.90566037735798 299 244.16370699223 299 C 244.42175360710198 299 244.55077691453798 224.25 244.80882352941 224.25 C 245.06687014428198 224.25 245.19589345171798 299 245.45394006659 299 C 245.71198668146198 299 245.84100998889798 224.25 246.09905660377 224.25 C 246.35710321864198 224.25 246.48612652607798 299 246.74417314095 299 C 247.002219755826 299 247.13124306326398 299 247.38928967814 299 C 247.647336293012 299 247.776359600448 299 248.03440621532 299 C 248.292452830192 299 248.421476137628 299 248.6795227525 299 C 248.937569367372 299 249.066592674808 299 249.32463928968 299 C 249.582685904552 299 249.711709211988 299 249.96975582686 299 C 250.227802441732 299 250.356825749168 299 250.61487236404 299 C 250.872918978912 299 251.001942286348 299 251.25998890122 299 C 251.518035516092 299 251.647058823528 299 251.9051054384 299 C 252.163152053272 299 252.292175360708 299 252.55022197558 299 C 252.808268590452 299 252.937291897888 299 253.19533851276 299 C 253.453385127632 299 253.582408435068 299 253.84045504994 299 C 254.098501664816 299 254.227524972254 299 254.48557158713 299 C 254.743618202002 299 254.872641509438 299 255.13068812431 299 C 255.388734739182 299 255.517758046618 224.25 255.77580466149 224.25 C 256.03385127636204 224.25 256.16287458379804 299 256.42092119867 299 C 256.67896781354204 299 256.80799112097804 299 257.06603773585 299 C 257.32408435072205 299 257.45310765815805 299 257.71115427303 299 C 257.96920088790205 299 258.09822419533805 299 258.35627081021 299 C 258.61431742508205 299 258.74334073251805 299 259.00138734739 299 C 259.25943396226205 299 259.38845726969805 299 259.64650388457 299 C 259.90455049944205 299 260.03357380687805 299 260.29162042175 299 C 260.54966703662205 299 260.67869034405805 299 260.93673695893 299 C 261.19478357380603 299 261.323806881244 299 261.58185349612 299 C 261.83990011099206 299 261.96892341842806 299 262.2269700333 299 C 262.48501664817206 299 262.61403995560806 299 262.87208657048 299 C 263.13013318535207 299 263.25915649278807 299 263.51720310766 299 C 263.77524972253207 299 263.90427302996807 299 264.16231964484 299 C 264.42036625971207 299 264.54938956714807 299 264.80743618202 299 C 265.06548279689207 299 265.19450610432807 299 265.4525527192 299 C 265.71059933407207 299 265.8396226415081 299 266.09766925638 299 C 266.3557158712521 299 266.4847391786881 299 266.74278579356 299 C 267.0008324084321 299 267.1298557158681 224.25 267.38790233074 224.25 C 267.6459489456121 224.25 267.7749722530481 224.25 268.03301886792 224.25 C 268.29106548279606 224.25 268.42008879023405 299 268.67813540511 299 C 268.9361820199821 299 269.0652053274181 224.25 269.32325194229 224.25 C 269.58129855716203 224.25 269.710321864598 299 269.96836847947 299 C 270.226415094342 299 270.355438401778 224.25 270.61348501665 224.25 C 270.871531631522 224.25 271.000554938958 299 271.25860155383 299 C 271.516648168702 299 271.645671476138 299 271.90371809101 299 C 272.161764705882 299 272.290788013318 299 272.54883462819 299 C 272.806881243062 299 272.935904550498 299 273.19395116537 299 C 273.451997780242 299 273.581021087678 299 273.83906770255 299 C 274.097114317422 299 274.226137624858 299 274.48418423973 299 C 274.742230854602 299 274.871254162038 299 275.12930077691 299 C 275.38734739178597 299 275.516370699224 299 275.7744173141 299 C 276.032463928972 299 276.161487236408 299 276.41953385128 299 C 276.677580466152 299 276.806603773588 224.25 277.06465038846 224.25 C 277.322697003332 224.25 277.451720310768 299 277.70976692564 299 C 277.967813540512 299 278.096836847948 299 278.35488346282 299 C 278.612930077692 299 278.741953385128 224.25 279 224.25 C 279.451581576028 224.25 279.677372364042 224.25 280.12895394007 224.25 C 280.193465593786 224.25 280.225721420644 299 280.29023307436 299 C 280.548279689232 299 280.677302996668 299 280.93534961154 299 C 281.193396226412 299 281.322419533848 299 281.58046614872 299 C 281.838512763592 299 281.967536071028 299 282.2255826859 299 C 282.483629300776 299 282.61265260821403 299 282.87069922309 299 C 283.128745837962 299 283.257769145398 299 283.51581576027 299 C 283.773862375142 299 283.902885682578 299 284.16093229745 299 C 284.418978912322 299 284.548002219758 299 284.80604883463 299 C 285.064095449502 299 285.193118756938 299 285.45116537181 299 C 285.709211986682 299 285.838235294118 299 286.09628190899 299 C 286.38443396226603 299 286.528509988904 224.25 286.81666204218 224.25 C 287.044603218648 224.25 287.15857380688203 299 287.38651498335 299 C 287.644561598222 299 287.773584905658 299 288.03163152053 299 C 288.289678135402 299 288.41870144283797 299 288.67674805771 299 C 288.9347946725819 299 289.0638179800179 74.75 289.32186459489 74.75 C 289.57991120976595 74.75 289.70893451720394 74.75 289.96698113208 74.75 C 290.2250277469519 74.75 290.3540510543879 299 290.61209766926 299 C 291.117438956716 299 291.370109600444 74.75 291.8754508879 74.75 C 291.886202830188 74.75 291.891578801332 299 291.90233074362 299 C 292.1603773584919 299 292.28940066592793 299 292.5474472808 299 C 292.80549389567193 299 292.93451720310793 299 293.19256381798 299 C 293.69790510544 299 293.95057574917 224.25 294.45591703663 224.25 C 294.713963651502 224.25 294.842986958938 224.25 295.10103357381 224.25 C 295.111785516094 224.25 295.117161487236 299 295.12791342952 299 C 295.38596004439194 299 295.51498335182794 299 295.7730299667 299 C 296.27837125416 299 296.53104189789 224.25 297.03638318535 224.25 C 297.047135127638 224.25 297.052511098782 299 297.06326304107 299 C 297.32130965594195 299 297.45033296337795 299 297.70837957825 299 C 297.96642619312195 299 298.09544950055795 299 298.35349611543 299 C 298.61154273030195 299 298.74056603773795 299 298.99861265261 299 C 299.25665926748195 299 299.38568257491795 299 299.64372918979 299 C 299.90177580466195 299 300.03079911209795 299 300.28884572697 299 C 300.54689234184195 299 300.67591564927795 299 300.93396226415 299 C 301.43930355161 299 301.69197419534004 224.25 302.1973154828 224.25 C 302.20806742508404 224.25 302.213443396226 299 302.22419533851 299 C 302.48224195338196 299 302.61126526081796 299 302.86931187569 299 C 303.12735849056196 299 303.25638179799796 299 303.51442841287 299 C 303.772475027746 299 303.901498335184 299 304.15954495006 299 C 304.41759156493197 299 304.54661487236797 299 304.80466148724 299 C 305.06270810211197 299 305.19173140954797 299 305.44977802442 299 C 305.70782463929197 299 305.83684794672797 299 306.0948945616 299 C 306.352941176472 299 306.481964483908 299 306.74001109878 299 C 306.998057713652 299 307.127081021088 299 307.38512763596 299 C 307.643174250832 299 307.772197558268 299 308.03024417314 299 C 308.288290788012 299 308.417314095448 299 308.67536071032 299 C 308.933407325192 299 309.062430632628 299 309.3204772475 299 C 309.578523862372 299 309.707547169808 299 309.96559378468 299 C 310.223640399552 299 310.352663706988 299 310.61071032186 299 C 310.868756936736 299 310.997780244174 299 311.25582685905 299 C 311.513873473922 299 311.642896781358 299 311.90094339623 299 C 312.158990011102 299 312.288013318538 299 312.54605993341 299 C 312.804106548282 299 312.933129855718 299 313.19117647059 299 C 313.449223085462 299 313.578246392898 299 313.83629300777 299 C 314.094339622642 299 314.223362930078 299 314.48140954495 299 C 314.739456159822 299 314.868479467258 299 315.12652608213 299 C 315.384572697002 299 315.513596004438 299 315.77164261931 299 C 316.029689234182 299 316.158712541618 299 316.41675915649 299 C 316.674805771362 299 316.803829078798 299 317.06187569367 299 C 317.319922308542 299 317.448945615978 299 317.70699223085 299 C 317.96503884572604 299 318.09406215316403 299 318.35210876804 299 C 318.610155382912 299 318.739178690348 299 318.99722530522 299 C 319.255271920092 299 319.384295227528 299 319.6423418424 299 C 319.900388457272 299 320.029411764708 299 320.28745837958 299 C 320.545504994452 299 320.674528301888 299 320.93257491676 299 C 321.190621531632 299 321.319644839068 299 321.57769145394 299 C 321.835738068812 299 321.964761376248 299 322.22280799112 299 C 322.480854605992 299 322.609877913428 299 322.8679245283 299 C 323.125971143172 299 323.254994450608 299 323.51304106548 299 C 323.771087680352 299 323.900110987788 299 324.15815760266 299 C 324.416204217532 299 324.545227524968 299 324.80327413984 299 C 325.061320754716 299 325.190344062154 299 325.44839067703 299 C 325.706437291902 299 325.835460599338 299 326.09350721421 299 C 326.351553829082 299 326.480577136518 299 326.73862375139 299 C 326.996670366262 299 327.125693673698 299 327.38374028857 299 C 327.641786903442 299 327.770810210878 299 328.02885682575 299 C 328.286903440622 299 328.415926748058 299 328.67397336293 299 C 328.932019977802 299 329.061043285238 299 329.31908990011 299 C 329.577136514982 299 329.706159822418 299 329.96420643729 299 C 330.222253052162 299 330.351276359598 299 330.60932297447 299 C 330.867369589342 299 330.996392896778 299 331.25443951165 299 C 331.512486126522 299 331.641509433958 299 331.89955604883 299 C 332.157602663706 299 332.28662597114396 299 332.54467258602 299 C 332.802719200892 299 332.931742508328 299 333.1897891232 299 C 333.447835738072 299 333.576859045508 299 333.83490566038 299 C 334.092952275252 299 334.221975582688 299 334.48002219756 299 C 334.985363485016 299 335.23803412874406 224.25 335.7433754162 224.25 C 335.75412735848806 224.25 335.759503329632 299 335.77025527192 299 C 336.028301886792 299 336.157325194228 299 336.4153718091 299 C 336.673418423972 299 336.802441731408 299 337.06048834628 299 C 337.318534961152 299 337.447558268588 299 337.70560488346 299 C 337.963651498332 299 338.092674805768 299 338.35072142064 299 C 338.608768035512 299 338.737791342948 299 338.99583795782 299 C 339.253884572696 299 339.382907880134 299 339.64095449501 299 C 339.899001109882 299 340.028024417318 299 340.28607103219 299 C 340.544117647062 299 340.673140954498 299 340.93118756937 299 C 341.189234184242 299 341.318257491678 299 341.57630410655 299 C 341.834350721422 299 341.963374028858 299 342.22142064373 299 C 342.479467258602 299 342.60849056603803 299 342.86653718091 299 C 343.124583795782 299 343.253607103218 299 343.51165371809 299 C 343.769700332962 299 343.898723640398 299 344.15677025527 299 C 344.414816870142 299 344.543840177578 299 344.80188679245 299 C 345.059933407322 299 345.188956714758 299 345.44700332963 299 C 345.705049944502 299 345.834073251938 299 346.09211986681 299 C 346.35016648168596 299 346.479189789124 299 346.737236404 299 C 346.995283018872 299 347.124306326308 299 347.38235294118 299 C 347.640399556052 299 347.769422863488 299 348.02746947836 299 C 348.285516093232 299 348.414539400668 299 348.67258601554 299 C 348.930632630412 299 349.059655937848 299 349.31770255272 299 C 349.575749167592 299 349.704772475028 299 349.9628190899 299 C 350.220865704772 299 350.349889012208 299 350.60793562708 299 C 350.865982241952 299 350.995005549388 299 351.25305216426 299 C 351.511098779132 299 351.640122086568 299 351.89816870144 299 C 352.156215316312 299 352.285238623748 299 352.54328523862 299 C 352.801331853492 299 352.930355160928 299 353.1884017758 299 C 353.446448390676 299 353.57547169811403 299 353.83351831299 299 C 354.091564927862 299 354.220588235298 299 354.47863485017 299 C 354.736681465042 299 354.865704772478 299 355.12375138735 299 C 355.381798002222 299 355.510821309658 299 355.76886792453 299 C 356.026914539402 299 356.155937846838 299 356.41398446171 299 C 356.672031076582 299 356.801054384018 299 357.05910099889 299 C 357.317147613762 299 357.446170921198 299 357.70421753607 299 C 357.962264150942 299 358.091287458378 299 358.34933407325 299 C 358.607380688122 299 358.736403995558 299 358.99445061043 299 C 359.252497225302 299 359.381520532738 299 359.63956714761 299 C 359.897613762482 299 360.026637069918 299 360.28468368479 299 C 360.542730299666 299 360.671753607104 299 360.92980022198 299 C 361.187846836852 299 361.316870144288 299 361.57491675916 299 C 361.832963374032 299 361.961986681468 299 362.22003329634 299 C 362.478079911212 299 362.607103218648 299 362.86514983352 299 C 363.123196448392 299 363.252219755828 299 363.5102663707 299 C 363.768312985572 299 363.897336293008 299 364.15538290788 299 C 364.413429522752 299 364.542452830188 299 364.80049944506 299 C 365.058546059932 299 365.187569367368 299 365.44561598224 299 C 365.703662597112 299 365.832685904548 299 366.09073251942 299 C 366.348779134292 299 366.477802441728 299 366.7358490566 299 C 366.993895671472 299 367.122918978908 299 367.38096559378 299 C 367.639012208656 299 367.768035516094 299 368.02608213097 299 C 368.284128745842 299 368.413152053278 299 368.67119866815 299 C 368.929245283022 299 369.058268590458 299 369.31631520533 299 C 369.574361820202 299 369.703385127638 299 369.96143174251 299 C 370.219478357382 299 370.348501664818 299 370.60654827969 299 C 370.864594894562 299 370.993618201998 299 371.25166481687 299 C 371.509711431742 299 371.638734739178 299 371.89678135405 299 C 372.154827968922 299 372.283851276358 299 372.54189789123 299 C 372.799944506102 299 372.928967813538 299 373.18701442841 299 C 373.445061043282 299 373.574084350718 299 373.83213096559 299 C 374.090177580462 299 374.219200887898 299 374.47724750277 299 C 374.73529411764605 299 374.86431742508404 299 375.12236403996 299 C 375.380410654832 299 375.509433962268 299 375.76748057714 299 C 376.025527192012 299 376.154550499448 299 376.41259711432 299 C 376.670643729192 299 376.799667036628 299 377.0577136515 299 C 377.315760266372 299 377.444783573808 299 377.70283018868 299 C 377.960876803552 299 378.089900110988 299 378.34794672586 299 C 378.605993340732 299 378.735016648168 299 378.99306326304 299 C 379.251109877912 299 379.38013318534803 299 379.63817980022 299 C 379.896226415092 299 380.025249722528 299 380.2832963374 299 C 380.541342952272 299 380.670366259708 299 380.92841287458 299 C 381.186459489452 299 381.315482796888 299 381.57352941176 299 C 381.831576026636 299 381.960599334074 299 382.21864594895 299 C 382.476692563822 299 382.605715871258 299 382.86376248613 299 C 383.121809101002 299 383.250832408438 299 383.50887902331 299 C 383.766925638182 299 383.895948945618 299 384.15399556049 299 C 384.412042175362 299 384.541065482798 299 384.79911209767 299 C 385.057158712542 299 385.186182019978 299 385.44422863485 299 C 385.702275249722 299 385.831298557158 299 386.08934517203 299 C 386.347391786902 299 386.476415094338 299 386.73446170921 299 C 386.992508324082 299 387.121531631518 299 387.37957824639 299 C 387.637624861262 299 387.766648168698 299 388.02469478357 299 C 388.282741398442 299 388.411764705878 299 388.66981132075 299 C 388.92785793562604 299 389.056881243064 299 389.31492785794 299 C 389.572974472812 299 389.701997780248 299 389.96004439512 299 C 390.218091009992 299 390.347114317428 299 390.6051609323 299 C 390.863207547172 299 390.992230854608 299 391.25027746948 299 C 391.508324084352 299 391.637347391788 299 391.89539400666 299 C 392.153440621532 299 392.282463928968 299 392.54051054384 299 C 392.798557158712 299 392.927580466148 299 393.18562708102 299 C 393.443673695892 299 393.572697003328 299 393.8307436182 299 C 394.088790233072 299 394.217813540508 299 394.47586015538 299 C 394.733906770252 299 394.862930077688 299 395.12097669256 299 C 395.379023307432 299 395.508046614868 299 395.76609322974 299 C 396.02413984461606 299 396.15316315205405 299 396.41120976693 299 C 396.66925638180203 299 396.79827968923803 299 397.05632630411 299 C 397.31437291898203 299 397.44339622641803 299 397.70144284129 299 C 397.95948945616203 299 398.08851276359803 299 398.34655937847 299 C 398.60460599334203 299 398.73362930077803 299 398.99167591565 299 C 399.24972253052204 299 399.37874583795804 299 399.63679245283 299 C 399.89483906770204 299 400.02386237513804 299 400.28190899001 299 C 400.53995560488204 299 400.66897891231804 299 400.92702552719 299 C 401.18507214206204 299 401.31409544949804 299 401.57214206437 299 C 401.83018867924204 299 401.95921198667804 299 402.21725860155 299 C 402.47530521642204 299 402.60432852385804 299 402.86237513873 299 C 403.120421753606 299 403.249445061044 299 403.50749167592 299 C 403.76553829079205 299 403.89456159822805 299 404.1526082131 299 C 404.41065482797205 299 404.53967813540805 299 404.79772475028 299 C 405.05577136515205 299 405.18479467258805 299 405.44284128746 299 C 405.70088790233206 299 405.82991120976806 299 406.08795782464 299 C 406.34600443951206 299 406.47502774694806 299 406.73307436182 299 C 406.99112097669206 299 407.12014428412806 299 407.378190899 299 C 407.63623751387206 299 407.76526082130806 299 408.02330743618 299 C 408.28135405105206 299 408.41037735848806 299 408.66842397336 299 C 408.92647058823206 299 409.05549389566806 299 409.31354051054 299 C 409.57158712541207 299 409.70061043284807 299 409.95865704772 299 C 410.21670366259605 299 410.34572697003404 299 410.60377358491 299 C 410.8618201997821 299 410.9908435072181 299 411.24889012209 299 C 411.5069367369621 299 411.6359600443981 299 411.89400665927 299 C 412.1520532741421 299 412.2810765815781 299 412.53912319645 299 C 412.7971698113221 299 412.9261931187581 299 413.18423973363 299 C 413.4422863485021 299 413.5713096559381 299 413.82935627081 299 C 414.0874028856821 299 414.2164261931181 299 414.47447280799 299 C 414.7325194228621 299 414.8615427302981 299 415.11958934517 299 C 415.3776359600421 299 415.50665926747797 299 415.76470588235 299 C 416.022752497222 299 416.151775804658 299 416.40982241953 299 C 416.667869034402 299 416.796892341838 299 417.05493895671 299 C 417.31298557158595 299 417.442008879024 299 417.7000554939 299 C 417.958102108772 299 418.087125416208 299 418.34517203108 299 C 418.603218645952 299 418.732241953388 299 418.99028856826 299 C 419.248335183132 299 419.377358490568 299 419.63540510544 299 C 419.893451720312 299 420.022475027748 299 420.28052164262 299 C 420.538568257492 299 420.667591564928 299 420.9256381798 299 C 421.183684794672 299 421.312708102108 299 421.57075471698 299 C 421.828801331852 299 421.957824639288 299 422.21587125416 299 C 422.473917869032 299 422.602941176468 299 422.86098779134 299 C 423.119034406212 299 423.248057713648 299 423.50610432852 299 C 423.764150943392 299 423.893174250828 299 424.1512208657 299 C 424.409267480576 299 424.538290788014 299 424.79633740289 299 C 425.054384017762 299 425.183407325198 299 425.44145394007 299 C 425.699500554942 299 425.828523862378 299 426.08657047725 299 C 426.344617092122 299 426.473640399558 299 426.73168701443 299 C 426.989733629302 299 427.118756936738 299 427.37680355161 299 C 427.634850166482 299 427.763873473918 299 428.02192008879 299 C 428.279966703662 299 428.408990011098 299 428.66703662597 299 C 428.925083240842 299 429.054106548278 299 429.31215316315 299 C 429.570199778022 299 429.699223085458 299 429.95726970033 299 C 430.215316315202 299 430.344339622638 299 430.60238623751 299 C 430.860432852382 299 430.989456159818 299 431.24750277469 299 C 431.505549389566 299 431.63457269700405 299 431.89261931188 299 C 432.150665926752 299 432.279689234188 299 432.53773584906 299 C 432.795782463932 299 432.9248057713679 299 433.18285238624 299 C 433.4408990011119 299 433.5699223085479 299 433.82796892342 299 C 434.0860155382919 299 434.2150388457279 299 434.4730854606 299 C 434.7311320754719 299 434.8601553829079 299 435.11820199778 299 C 435.3762486126519 299 435.5052719200879 299 435.76331853496 299 C 436.0213651498319 299 436.1503884572679 299 436.40843507214 299 C 436.6664816870119 299 436.7955049944479 299 437.05355160932 299 C 437.3115982241919 299 437.4406215316279 299 437.6986681465 299 C 437.9567147613719 299 438.0857380688079 299 438.34378468368 299 C 438.60183129855596 299 438.73085460599395 299 438.98890122087 299 C 439.24694783574193 299 439.37597114317794 299 439.63401775805 299 C 439.89206437292194 299 440.02108768035794 299 440.27913429523 299 C 440.53718091010194 299 440.66620421753794 299 440.92425083241 299 C 441.18229744728194 299 441.31132075471794 299 441.56936736959 299 C 441.82741398446194 299 441.95643729189794 299 442.21448390677 299 C 442.47253052164194 299 442.60155382907794 299 442.85960044395 299 C 443.11764705882194 299 443.24667036625794 299 443.50471698113 299 C 443.76276359600195 299 443.89178690343795 299 444.14983351831 299 C 444.40788013318195 299 444.53690344061795 299 444.79495005549 299 C 445.05299667036195 299 445.18201997779795 299 445.44006659267 299 C 445.698113207546 299 445.827136514984 299 446.08518312986 299 C 446.34322974473196 299 446.47225305216796 299 446.73029966704 299 C 446.98834628191196 299 447.11736958934796 299 447.37541620422 299 C 447.63346281909196 299 447.76248612652796 299 448.0205327414 299 C 448.27857935627196 299 448.40760266370796 299 448.66564927858 299 C 448.92369589345196 299 449.05271920088796 299 449.31076581576 299 C 449.56881243063197 299 449.69783573806797 299 449.95588235294 299 C 450.21392896781197 299 450.34295227524797 299 450.60099889012 299 C 450.85904550499197 299 450.98806881242797 299 451.2461154273 299 C 451.50416204217197 299 451.63318534960797 299 451.89123196448 299 C 452.14927857935197 299 452.278301886788 299 452.53634850166 299 C 452.794395116536 299 452.923418423974 299 453.18146503885 299 C 453.439511653722 299 453.568534961158 299 453.82658157603 299 C 454.084628190902 299 454.213651498338 299 454.47169811321 299 C 454.729744728082 299 454.858768035518 299 455.11681465039 299 C 455.374861265262 299 455.503884572698 299 455.76193118757 299 C 456.019977802442 299 456.149001109878 299 456.40704772475 299 C 456.665094339622 299 456.794117647058 299 457.05216426193 299 C 457.310210876802 299 457.439234184238 299 457.69728079911 299 C 457.955327413982 299 458.084350721418 299 458.34239733629 299 C 458.600443951162 299 458.729467258598 299 458.98751387347 299 C 459.245560488342 299 459.374583795778 299 459.63263041065 299 C 459.89067702552603 299 460.019700332964 299 460.27774694784 299 C 460.535793562712 299 460.664816870148 299 460.92286348502 299 C 461.180910099892 299 461.309933407328 299 461.5679800222 299 C 461.826026637072 299 461.955049944508 299 462.21309655938 299 C 462.471143174252 299 462.600166481688 299 462.85821309656 299 C 463.116259711432 299 463.245283018868 299 463.50332963374 299 C 463.761376248612 299 463.890399556048 299 464.14844617092 299 C 464.406492785792 299 464.535516093228 299 464.7935627081 299 C 465.051609322972 299 465.180632630408 299 465.43867924528 299 C 465.696725860152 299 465.825749167588 299 466.08379578246 299 C 466.341842397332 299 466.470865704768 299 466.72891231964 299 C 466.98695893451605 299 467.11598224195404 299 467.37402885683 299 C 467.632075471702 299 467.761098779138 299 468.01914539401 299 C 468.277192008882 299 468.406215316318 299 468.66426193119 299 C 468.922308546062 299 469.051331853498 299 469.30937846837 299 C 469.567425083242 299 469.69644839067803 299 469.95449500555 299 C 470.212541620422 299 470.341564927858 299 470.59961154273 299 C 470.857658157602 299 470.986681465038 299 471.24472807991 299 C 471.502774694782 299 471.631798002218 299 471.88984461709 299 C 472.147891231962 299 472.276914539398 299 472.53496115427 299 C 472.793007769142 299 472.922031076578 299 473.18007769145 299 C 473.438124306322 299 473.567147613758 299 473.82519422863 299 C 474.08324084350596 299 474.21226415094395 299 474.47031076582 299 C 474.728357380692 299 474.857380688128 299 475.115427303 299 C 475.373473917872 299 475.502497225308 299 475.76054384018 299 C 476.018590455052 299 476.147613762488 299 476.40566037736 299 C 476.663706992232 299 476.792730299668 299 477.05077691454 299 C 477.308823529412 299 477.437846836848 299 477.69589345172 299 C 477.953940066592 299 478.082963374028 299 478.3410099889 299 C 478.599056603772 299 478.728079911208 299 478.98612652608 299 C 479.244173140952 299 479.373196448388 299 479.63124306326 299 C 479.889289678132 299 480.018312985568 299 480.27635960044 299 C 480.534406215312 299 480.663429522748 299 480.92147613762 299 C 481.179522752496 299 481.308546059934 299 481.56659267481 299 C 481.824639289682 299 481.953662597118 224.25 482.21170921199 224.25 C 482.469755826862 224.25 482.598779134298 224.25 482.85682574917 224.25 C 483.114872364042 224.25 483.243895671478 224.25 483.50194228635 224.25 C 483.759988901222 224.25 483.889012208658 299 484.14705882353 299 C 484.405105438402 299 484.534128745838 299 484.79217536071 299 C 485.050221975582 299 485.179245283018 299 485.43729189789 299 C 485.888873473918 299 486.11466426193203 224.25 486.56624583796 224.25 C 486.63075749167604 224.25 486.663013318534 299 486.72752497225 299 C 487.179106548278 299 487.40489733629204 224.25 487.85647891232 224.25 C 487.92099056603604 224.25 487.953246392894 299 488.01775804661 299 C 488.275804661486 299 488.404827968924 299 488.6628745838 299 C 488.9209211986719 299 489.0499445061079 299 489.30799112098 299 C 489.5660377358519 299 489.6950610432879 299 489.95310765816 299 C 490.2111542730319 299 490.3401775804679 299 490.59822419534 299 C 490.8562708102119 299 490.9852941176479 299 491.24334073252 299 C 491.5013873473919 299 491.6304106548279 299 491.8884572697 299 C 492.1465038845719 299 492.2755271920079 299 492.53357380688 299 C 492.79162042175193 299 492.92064372918793 299 493.17869034406 299 C 493.43673695893193 299 493.56576026636793 224.25 493.82380688124 224.25 C 494.08185349611193 224.25 494.21087680354793 299 494.46892341842 299 C 494.72697003329193 299 494.85599334072793 299 495.1140399556 299 C 495.372086570476 299 495.50110987791396 299 495.75915649279 299 C 496.01720310766194 299 496.14622641509794 299 496.40427302997 299 C 496.66231964484194 299 496.79134295227794 299 497.04938956715 299 C 497.30743618202195 299 497.43645948945795 299 497.69450610433 299 C 497.95255271920195 299 498.08157602663795 299 498.33962264151 299 C 498.59766925638195 299 498.72669256381795 299 498.98473917869 299 C 499.24278579356195 299 499.37180910099795 299 499.62985571587 299 C 499.88790233074195 299 500.01692563817795 299 500.27497225305 299 C 500.53301886792195 299 500.66204217535795 299 500.92008879023 299 C 501.17813540510195 299 501.30715871253796 299 501.56520532741 299 C 501.82325194228196 299 501.95227524971796 299 502.21032186459 299 C 502.468368479466 299 502.597391786904 299 502.85543840178 299 C 503.11348501665196 299 503.24250832408796 299 503.50055493896 299 C 503.75860155383197 299 503.88762486126797 299 504.14567147614 299 C 504.40371809101197 299 504.53274139844797 299 504.79078801332 299 C 505.04883462819197 299 505.17785793562797 299 505.4359045505 299 C 505.69395116537197 299 505.82297447280797 224.25 506.08102108768 224.25 C 506.339067702552 224.25 506.468091009988 299 506.72613762486 299 C 506.984184239732 299 507.113207547168 299 507.37125416204 299 C 507.629300776912 299 507.758324084348 299 508.01637069922 299 C 508.274417314092 299 508.403440621528 299 508.6614872364 299 C 508.919533851272 299 509.048557158708 299 509.30660377358 299 C 509.564650388456 299 509.693673695894 299 509.95172031077 299 C 510.209766925642 299 510.338790233078 299 510.59683684795 299 C 510.854883462822 299 510.983906770258 299 511.24195338513 299 C 511.500000000002 299 511.629023307438 299 511.88706992231 299 C 512.145116537182 299 512.274139844618 299 512.53218645949 299 C 512.790233074362 299 512.919256381798 299 513.17730299667 299 C 513.435349611542 299 513.564372918978 299 513.82241953385 299 C 514.080466148722 299 514.209489456158 299 514.46753607103 299 C 514.725582685902 299 514.854605993338 299 515.11265260821 299 C 515.370699223082 299 515.499722530518 299 515.75776914539 299 C 516.0158157602621 299 516.1448390676981 299 516.40288568257 299 C 516.660932297446 299 516.789955604884 299 517.04800221976 299 C 517.3060488346321 299 517.4350721420681 299 517.69311875694 299 C 517.9511653718121 299 518.0801886792481 299 518.33823529412 299 C 518.5962819089921 299 518.7253052164281 299 518.9833518313 299 C 519.2413984461721 299 519.3704217536081 299 519.62846836848 299 C 519.8865149833521 299 520.0155382907881 299 520.27358490566 299 C 520.5316315205321 299 520.6606548279681 299 520.91870144284 299 C 521.1767480577121 299 521.3057713651481 299 521.56381798002 299 C 521.8218645948921 299 521.9508879023281 299 522.2089345172 299 C 522.4669811320721 299 522.5960044395081 299 522.85405105438 299 C 523.1120976692521 299 523.2411209766881 299 523.49916759156 299 C 523.7572142064361 299 523.886237513874 299 524.14428412875 299 C 524.4023307436221 299 524.5313540510581 299 524.78940066593 299 C 525.0474472808021 299 525.1764705882381 299 525.43451720311 299 C 525.6925638179821 299 525.8215871254181 299 526.07963374029 299 C 526.3376803551621 299 526.4667036625981 299 526.72475027747 299 C 526.9827968923421 299 527.1118201997781 299 527.36986681465 299 C 527.6279134295221 299 527.7569367369581 299 528.01498335183 299 C 528.2730299667021 299 528.4020532741381 299 528.66009988901 299 C 528.9181465038821 299 529.0471698113181 299 529.30521642619 299 C 529.5632630410621 299 529.6922863484981 299 529.95033296337 299 C 530.2083795782421 299 530.3374028856781 299 530.59544950055 299 C 530.8534961154261 299 530.982519422864 299 531.24056603774 299 C 531.4986126526121 299 531.6276359600481 299 531.88568257492 299 C 532.1437291897921 299 532.2727524972281 299 532.5307991121 299 C 533.036140399556 299 533.2888110432839 224.25 533.79415233074 224.25 C 533.8049042730279 224.25 533.810280244172 299 533.82103218646 299 C 534.0790788013321 299 534.2081021087681 299 534.46614872364 299 C 534.7241953385121 299 534.8532186459481 299 535.11126526082 299 C 535.3693118756921 299 535.4983351831281 299 535.756381798 299 C 536.0144284128721 299 536.1434517203081 299 536.40149833518 299 C 536.6595449500521 299 536.7885682574881 299 537.04661487236 299 C 537.3046614872361 299 537.433684794674 299 537.69173140955 299 C 537.9497780244221 299 538.0788013318581 299 538.33684794673 299 C 538.5948945616021 299 538.7239178690381 299 538.98196448391 299 C 539.2400110987821 299 539.3690344062181 299 539.62708102109 299 C 539.8851276359621 299 540.0141509433981 299 540.27219755827 299 C 540.5302441731421 299 540.6592674805781 299 540.91731409545 299 C 541.1753607103221 299 541.3043840177581 299 541.56243063263 299 C 541.8204772475021 299 541.9495005549381 299 542.20754716981 299 C 542.4655937846821 299 542.5946170921181 299 542.85266370699 299 C 543.1107103218621 299 543.2397336292981 299 543.49778024417 299 C 543.7558268590421 299 543.8848501664781 299 544.14289678135 299 C 544.4009433962261 299 544.5299667036641 299 544.78801331854 299 C 545.0460599334122 299 545.1750832408482 299 545.43312985572 299 C 545.6911764705922 299 545.8201997780282 299 546.0782463929 299 C 546.3362930077722 299 546.4653163152082 299 546.72336293008 299 C 546.9814095449522 299 547.1104328523882 299 547.36847946726 299 C 547.6265260821322 299 547.7555493895682 299 548.01359600444 299 C 548.2716426193122 299 548.4006659267482 299 548.65871254162 299 C 548.9167591564922 299 549.0457824639282 299 549.3038290788 299 C 549.5618756936722 299 549.6908990011082 299 549.94894561598 299 C 550.2069922308522 299 550.3360155382882 299 550.59406215316 299 C 550.8521087680322 299 550.9811320754682 299 551.23917869034 299 C 551.497225305216 299 551.626248612654 299 551.88429522753 299 C 552.142341842402 299 552.52941176471 299 552.52941176471 299" class="highcharts-graph" data-z-index="1" stroke="#000000" stroke-width="2" stroke-linejoin="round" stroke-linecap="round"></path></g><g data-z-index="0.1" class="highcharts-markers highcharts-series-0 highcharts-spline-series highcharts-color-0 " transform="translate(32,63) scale(1 1)" clip-path="none"></g></g><text x="300" text-anchor="middle" class="highcharts-title" data-z-index="4" style="color:#333333;font-size:18px;fill:#333333;" y="24"><tspan>Sprite Over Time</tspan></text><text x="300" text-anchor="middle" class="highcharts-subtitle" data-z-index="4" style="color:#666666;fill:#666666;" y="46"><tspan>This chart shows how your Sprite changes over time.</tspan></text><g class="highcharts-axis-labels highcharts-xaxis-labels " data-z-index="7"><text x="47.566870144284" style="color:#666666;cursor:default;font-size:11px;fill:#666666;" text-anchor="middle" transform="translate(0,0)" y="381" opacity="1"><tspan>Jan '13</tspan></text><text x="164.33296337403" style="color:#666666;cursor:default;font-size:11px;fill:#666666;" text-anchor="middle" transform="translate(0,0)" y="381" opacity="1"><tspan>Jul '13</tspan></text><text x="283.03440621532" style="color:#666666;cursor:default;font-size:11px;fill:#666666;" text-anchor="middle" transform="translate(0,0)" y="381" opacity="1"><tspan>Jan '14</tspan></text><text x="399.80049944506" style="color:#666666;cursor:default;font-size:11px;fill:#666666;" text-anchor="middle" transform="translate(0,0)" y="381" opacity="1"><tspan>Jul '14</tspan></text><text x="518.50194228635" style="color:#666666;cursor:default;font-size:11px;fill:#666666;" text-anchor="middle" transform="translate(0,0)" y="381" opacity="1"><tspan>Jan '15</tspan></text></g><g class="highcharts-axis-labels highcharts-yaxis-labels " data-z-index="7"><text x="17" style="color:#666666;cursor:default;font-size:11px;fill:#666666;" text-anchor="end" transform="translate(0,0)" y="366" opacity="1">0</text><text x="17" style="color:#666666;cursor:default;font-size:11px;fill:#666666;" text-anchor="end" transform="translate(0,0)" y="291" opacity="1">1</text><text x="17" style="color:#666666;cursor:default;font-size:11px;fill:#666666;" text-anchor="end" transform="translate(0,0)" y="216" opacity="1">2</text><text x="17" style="color:#666666;cursor:default;font-size:11px;fill:#666666;" text-anchor="end" transform="translate(0,0)" y="141" opacity="1">3</text><text x="17" style="color:#666666;cursor:default;font-size:11px;fill:#666666;" text-anchor="end" transform="translate(0,0)" y="67" opacity="1">4</text></g><a xlink:href="https://quantimo.do" target="_blank">
                    <text x="590" class="highcharts-credits" text-anchor="end" data-z-index="8"
                          style="cursor:pointer;color:#999999;font-size:9px;fill:#999999;" y="395">https://quantimo.do
                    </text>
                </a></svg>