<?xml version="1.0" standalone="no"?><!DOCTYPE svg PUBLIC "-//W3C//DTD SVG 1.1//EN" "http://www.w3.org/Graphics/SVG/1.1/DTD/svg11.dtd"><svg xmlns:xlink="http://www.w3.org/1999/xlink" version="1.1" class="highcharts-root" style="font-family:&quot;Lucida Grande&quot;, &quot;Lucida Sans Unicode&quot;, Arial, Helvetica, sans-serif;font-size:12px;" xmlns="http://www.w3.org/2000/svg" width="600" height="400"><desc>Created with Highstock 6.2.0</desc><defs><clipPath id="highcharts-ompqm50-402"><rect x="0" y="0" width="552" height="299" fill="none"></rect></clipPath><clipPath id="highcharts-ompqm50-798"><rect x="0" y="0" width="552" height="299" fill="none"></rect></clipPath><clipPath id="highcharts-ompqm50-799"><rect x="38" y="63" width="552" height="299" fill="none"></rect></clipPath></defs><rect fill="#ffffff" class="highcharts-background" x="0" y="0" width="600" height="400" rx="0" ry="0"></rect><rect fill="none" class="highcharts-plot-background" x="38" y="63" width="552" height="299"></rect><g class="highcharts-pane-group" data-z-index="0"></g><g class="highcharts-grid highcharts-xaxis-grid " data-z-index="1"><path fill="none" data-z-index="1" class="highcharts-grid-line" d="M 142.5 63 L 142.5 362" opacity="1"></path><path fill="none" data-z-index="1" class="highcharts-grid-line" d="M 266.5 63 L 266.5 362" opacity="1"></path><path fill="none" data-z-index="1" class="highcharts-grid-line" d="M 391.5 63 L 391.5 362" opacity="1"></path><path fill="none" data-z-index="1" class="highcharts-grid-line" d="M 512.5 63 L 512.5 362" opacity="1"></path></g><g class="highcharts-grid highcharts-yaxis-grid " data-z-index="1"><path fill="none" stroke="#e6e6e6" stroke-width="1" data-z-index="1" class="highcharts-grid-line" d="M 38 362.5 L 590 362.5" opacity="1"></path><path fill="none" stroke="#e6e6e6" stroke-width="1" data-z-index="1" class="highcharts-grid-line" d="M 38 287.5 L 590 287.5" opacity="1"></path><path fill="none" stroke="#e6e6e6" stroke-width="1" data-z-index="1" class="highcharts-grid-line" d="M 38 213.5 L 590 213.5" opacity="1"></path><path fill="none" stroke="#e6e6e6" stroke-width="1" data-z-index="1" class="highcharts-grid-line" d="M 38 138.5 L 590 138.5" opacity="1"></path><path fill="none" stroke="#e6e6e6" stroke-width="1" data-z-index="1" class="highcharts-grid-line" d="M 38 62.5 L 590 62.5" opacity="1"></path></g><rect fill="none" class="highcharts-plot-border" data-z-index="1" x="38" y="63" width="552" height="299"></rect><g class="highcharts-axis highcharts-xaxis " data-z-index="2"><path fill="none" class="highcharts-tick" stroke="#ccd6eb" stroke-width="1" d="M 142.5 362 L 142.5 372" opacity="1"></path><path fill="none" class="highcharts-tick" stroke="#ccd6eb" stroke-width="1" d="M 266.5 362 L 266.5 372" opacity="1"></path><path fill="none" class="highcharts-tick" stroke="#ccd6eb" stroke-width="1" d="M 391.5 362 L 391.5 372" opacity="1"></path><path fill="none" class="highcharts-tick" stroke="#ccd6eb" stroke-width="1" d="M 512.5 362 L 512.5 372" opacity="1"></path><path fill="none" class="highcharts-axis-line" stroke="#ccd6eb" stroke-width="1" data-z-index="7" d="M 38 362.5 L 590 362.5"></path></g><g class="highcharts-axis highcharts-yaxis " data-z-index="2"><path fill="none" class="highcharts-axis-line" data-z-index="7" d="M 38 63 L 38 362"></path></g><g class="highcharts-series-group" data-z-index="3"><g data-z-index="0.1" class="highcharts-series highcharts-series-0 highcharts-spline-series highcharts-color-0 " transform="translate(38,63) scale(1 1)" clip-path="url(#highcharts-ompqm50-798)"><path fill="none" d="M 5.4117647058824 167.36525 C 5.4117647058824 167.36525 6.22150506087722 169.3835 6.7613319642071 169.3835 C 7.301158867537021 169.3835 7.5710723192019795 169.3835 8.1108992225319 169.3835 C 8.65072612586182 169.3835 8.92063957752678 169.3835 9.4604664808567 169.3835 C 10.00029338418642 169.3835 10.27020683585128 169.3835 10.810033739181 169.3835 C 11.349860642511 169.3835 11.619774094176 169.3835 12.159600997506 169.3835 C 12.699427900836 169.3835 12.969341352500999 169.3835 13.509168255831 169.3835 C 14.048995159161 169.3835 14.318908610826 143.08645000000004 14.858735514156 119.67475000000002 C 15.398562417486 96.26305000000008 15.668475869151 52.32500000000002 16.208302772481 52.32500000000002 C 16.7481296758106 52.32500000000002 17.0180431274754 98.849400000006 17.557870030805 114.816 C 18.097696934135 130.782600000006 18.3676103858 132.15800000000002 18.90743728913 132.15800000000002 C 19.44726419246 132.15800000000002 19.717177644125 128.67464999999999 20.257004547455 117.58175 C 20.796831450785 106.48885 21.06674490245 76.6935 21.60657180578 76.6935 C 22.1463987091096 76.6935 22.4163121607744 86.411 22.956139064104 86.411 C 23.495965967434 86.411 23.765879419099 85.11035000000003 24.305706322429 83.86950000000002 C 24.845533225759 82.62865000000002 25.115446677424 80.20675 25.655273580754 80.20675 C 26.195100484084 80.20675 26.465013935749 80.20675 27.004840839079 81.17850000000001 C 27.544667742409 82.15025000000003 27.814581194074 97.13014999999761 28.354408097404 103.67825000000002 C 28.8942350007336 110.22634999999761 29.1641484523984 103.67825000000002 29.703975355728 113.91900000000001 C 30.243802259057997 124.15975 30.513715710722998 161.08625 31.053542614053 161.08625 C 31.593369517383003 161.08625 31.863282969048004 76.6935 32.403109872378 76.6935 C 32.942936775708006 76.6935 33.212850227372996 76.6935 33.752677130703 79.833 C 34.292504034032596 82.9725 34.5624174856974 100.09025 35.102244389027 100.09025 C 35.642071292357 100.09025 35.91198474402201 88.27975 36.451811647352 88.27975 C 36.991638550682 88.27975 37.261552002347 121.394 37.801378905677 121.394 C 38.341205809007 121.394 38.611119260672 111.4971 39.150946164002 101.51050000000001 C 39.690773067332 91.52390000000001 39.960686518997 71.46100000000001 40.500513422327 71.46100000000001 C 41.0403403256566 71.46100000000001 41.3102537773214 98.29625000000001 41.850080680651 98.29625000000001 C 42.389907583981 98.29625000000001 42.659821035646 86.63525000000001 43.199647938976 86.63525000000001 C 43.739474842306 86.63525000000001 44.009388293971 117.13325 44.549215197301 117.43225000000001 C 45.089042100631005 117.73125000000002 45.358955552296 117.43225000000001 45.898782455626 117.73125000000002 C 46.4386093589556 118.03025000000002 46.7085228106204 152.49 47.24834971395 152.49 C 47.78817661728 152.49 48.058090068945 134.14635000000007 48.597916972275 124.38400000000001 C 49.137743875605 114.62165000000007 49.40765732727 103.67825000000002 49.9474842306 103.67825000000002 C 50.48731113392999 103.67825000000002 50.757224585595 155.85375000000002 51.297051488925 155.85375000000002 C 51.836878392254995 155.85375000000002 52.10679184392001 124.30925000000002 52.64661874725 115.41400000000002 C 53.18644565057961 106.51875000000001 53.456359102244406 115.41400000000002 53.996186005574 106.51875000000001 C 54.536012908904 97.6235 54.805926360569 67.57400000000001 55.345753263899 67.57400000000001 C 55.885580167229 67.57400000000001 56.155493618894 93.8560999999999 56.695320522224 109.35925 C 57.235147425554 124.86239999999991 57.505060877219 145.08975 58.044887780549 145.08975 C 58.5847146838786 145.08975 58.85462813554339 60.09900000000002 59.394455038873 60.09900000000002 C 59.93428194220301 60.09900000000002 60.204195393868 62.70030000000001 60.744022297198 71.83475000000001 C 61.283849200528 80.96920000000001 61.553762652192994 90.2979999999999 62.093589555523 105.77125000000001 C 62.633416458853006 121.24449999999992 62.903329910518 149.201 63.443156813848 149.201 C 63.982983717178 149.201 64.252897168843 88.87775000000002 64.792724072173 88.87775000000002 C 65.3325509755026 88.87775000000002 65.6024644271674 128.49525 66.142291330497 128.49525 C 66.682118233827 128.49525 66.952031685492 106.6533 67.491858588822 99.19325 C 68.031685492152 91.73320000000001 68.301598943817 91.19500000000002 68.841425847147 91.19500000000002 C 69.381252750477 91.19500000000002 69.65116620214201 115.04025000000001 70.190993105472 115.04025000000001 C 70.7308200088016 115.04025000000001 71.0007334604664 109.70309999999883 71.540560363796 106.44400000000002 C 72.080387267126 103.1848999999988 72.350300718791 102.75135000000002 72.890127622121 98.74475000000001 C 73.429954525451 94.73815 73.69986797711599 86.411 74.239694880446 86.411 C 74.779521783776 86.411 75.049435235441 166.91675 75.589262138771 166.91675 C 76.1290890421006 166.91675 76.39900249376541 136.59814999999548 76.938829397095 124.30925000000002 C 77.478656300425 112.0203499999955 77.74856975208999 118.34420000000001 78.28839665542 105.47225 C 78.82822355875001 92.6003 79.098137010415 59.9495 79.637963913745 59.9495 C 80.17779081707499 59.9495 80.44770426874 81.40275 80.98753117207 87.906 C 81.5273580754 94.40925000000001 81.797271527065 90.17839999999846 82.337098430395 94.40925000000001 C 82.8769253337246 98.64009999999845 83.1468387853894 102.66165000000237 83.686665688719 109.06025 C 84.226492592049 115.45885000000234 84.496406043714 117.43224999999998 85.036232947044 126.40225000000001 C 85.576059850374 135.37225 85.845973302039 153.91025000000002 86.385800205369 153.91025000000002 C 86.92562710869899 153.91025000000002 87.195540560364 103.9025 87.735367463694 103.9025 C 88.2751943670236 103.9025 88.5451078186884 104.7995 89.084934722018 104.7995 C 89.62476162534799 104.7995 89.894675077013 101.06200000000001 90.434501980343 101.06200000000001 C 90.974328883673 101.06200000000001 91.244242335338 138.51175 91.784069238668 138.51175 C 92.323896141998 138.51175 92.593809593663 94.33450000000002 93.133636496993 94.33450000000002 C 93.673463400323 94.33450000000002 93.943376851988 150.47175000000001 94.483203755318 154.50825 C 95.0230306586476 158.54475 95.29294411031239 158.54475 95.832771013642 158.54475 C 96.372597916972 158.54475 96.642511368637 73.92775 97.182338271967 73.92775 C 97.722165175297 73.92775 97.99207862696201 92.39100000000002 98.531905530292 92.39100000000002 C 99.071732433622 92.39100000000002 99.34164588528701 88.27975 99.881472788617 88.27975 C 100.4212996919462 88.27975 100.6912131436108 131.7842500000409 101.23104004694 147.5565 C 101.770866950272 163.32875000004088 102.040780401938 167.141 102.58060730527 167.141 C 103.120434208598 167.141 103.390347660262 146.64454999993973 103.93017456359 130.28925 C 104.47000146692199 113.93394999993973 104.73991491858801 97.6982500000453 105.27974182192 85.36450000000002 C 105.81956872524802 73.03075000004533 106.089482176912 68.62050000000002 106.62930908024 68.62050000000002 C 107.169135983572 68.62050000000002 107.439049435238 88.23489999996877 107.97887633857 96.65175000000002 C 108.518703241898 105.06859999996877 108.78861669356199 110.70475000000002 109.32844359689 110.70475000000002 C 109.868270500218 110.70475000000002 110.138183951882 75.79650000000004 110.67801085521 75.64700000000002 C 111.217837758542 75.4975 111.48775121020799 75.4975 112.02757811354 75.4975 C 112.567405016868 75.4975 112.837318468532 141.427 113.37714537186 141.427 C 113.91697227519198 141.427 114.18688572685801 128.79425 114.72671263019 128.79425 C 115.266539533518 128.79425 115.536452985182 168.26225 116.07627988851 168.26225 C 116.616106791842 168.26225 116.886020243508 156.96005000005266 117.42584714684 142.7725 C 117.96567405016799 128.58495000005266 118.23558750183201 97.92249999999999 118.77541440516 97.3245 C 119.315241308492 96.72650000000002 119.585154760158 96.72650000000002 120.12498166349 96.72650000000002 C 120.66480856681801 96.72650000000002 120.934722018482 96.72650000000002 121.47454892181 104.42575 C 122.014375825142 112.12499999999997 122.284289276808 136.80744999995886 122.82411618014 147.93025 C 123.363943083468 159.05304999995886 123.63385653513201 160.03975 124.17368343846 160.03975 C 124.71351034179202 160.03975 124.983423793458 86.56049999999999 125.52325069679 85.58875 C 126.063077600118 84.61700000000002 126.33299105178199 85.36449999999725 126.87281795511 84.61700000000002 C 127.412644858442 83.86949999999725 127.68255831010799 81.85125000000002 128.22238521344 81.85125000000002 C 128.76221211676798 81.85125000000002 129.032125568432 81.85125000000002 129.57195247176 84.69175000000001 C 130.111779375092 87.53225 130.38169282675798 95.32119999996402 130.92151973009 104.94900000000001 C 131.461346633418 114.57679999996402 131.731260085082 125.7145500000264 132.27108698841 132.83075 C 132.810913891742 139.9469500000264 133.080827343408 140.53 133.62065424674 140.53 C 134.16048115006802 140.53 134.430394601732 89.77475000000001 134.97022150506 89.77475000000001 C 135.510048408392 89.77475000000001 135.779961860058 107.4905 136.31978876339 107.4905 C 136.85961566671799 107.4905 137.129529118382 91.19500000000002 137.66935602171 89.70000000000002 C 138.20918292504203 88.20500000000001 138.47909637670801 88.20500000000001 139.01892328004 88.20500000000001 C 139.558750183368 88.20500000000001 139.828663635032 168.41175 140.36849053836 168.41175 C 140.90831744168798 168.41175 141.178230893352 111.3775 141.71805779668 111.3775 C 142.257884700012 111.3775 142.527798151678 140.30575000000002 143.06762505501 140.30575000000002 C 143.607451958338 140.30575000000002 143.877365410002 91.9425 144.41719231333 91.9425 C 144.957019216662 91.9425 145.22693266832798 94.49894999998972 145.76675957166 97.24975 C 146.306586474988 100.00054999998973 146.57649992665202 105.69650000000001 147.11632682998 105.69650000000001 C 147.656153733312 105.69650000000001 147.926067184978 100.16500000000002 148.46589408831 100.16500000000002 C 149.00572099163801 100.16500000000002 149.27563444330198 104.94900000001822 149.81546134663 109.88250000000002 C 150.355288249962 114.81600000001819 150.62520170162801 116.96879999997081 151.16502860496 124.83250000000001 C 151.704855508288 132.69619999997082 151.974768959952 149.201 152.51459586328 149.201 C 153.05442276661202 149.201 153.324336218278 79.23500000000001 153.86416312161 79.23500000000001 C 154.403990024938 79.23500000000001 154.67390347660202 124.5335 155.21373037993 124.5335 C 155.753557283262 124.5335 156.02347073492803 94.70825000000002 156.56329763826 94.70825000000002 C 157.103124541588 94.70825000000002 157.373037993252 158.769 157.91286489658 158.769 C 158.452691799912 158.769 158.722605251578 95.90425000000002 159.26243215491 95.90425000000002 C 159.802259058238 95.90425000000002 160.07217250990197 148.52824999999999 160.61199941323 153.088 C 161.151826316562 157.64775 161.421739768228 157.64775 161.96156667156 157.64775 C 162.501393574888 157.64775 162.771307026552 145.53825 163.31113392988 145.53825 C 163.850960833212 145.53825 164.12087428487797 150.17275 164.66070118821 150.17275 C 165.200528091538 150.17275 165.470441543202 95.30625000000003 166.01026844653 91.26975000000002 C 166.550095349862 87.23325 166.820008801528 87.23325 167.35983570486 87.23325 C 167.899662608188 87.23325 168.16957605985198 109.73299999999998 168.70940296318 117.208 C 169.249229866512 124.68300000000002 169.519143318178 124.68300000000002 170.05897022151 124.68300000000002 C 170.598797124838 124.68300000000002 170.868710576502 122.4405 171.40853747983 114.14325 C 171.94836438315798 105.846 172.218277834822 83.19675000000001 172.75810473815 83.19675000000001 C 173.297931641482 83.19675000000001 173.567845093148 93.13850000000002 174.10767199648 93.13850000000002 C 174.647498899808 93.13850000000002 174.917412351472 87.607 175.4572392548 87.607 C 175.997066158132 87.607 176.266979609798 92.09200000000004 176.80680651313 92.39100000000002 C 177.34663341645802 92.69 177.616546868122 92.39100000000002 178.15637377145 92.69 C 178.696200674782 92.98899999999998 178.96611412644802 166.31875 179.50594102978 166.31875 C 180.045767933108 166.31875 180.31568138477198 166.31875 180.8555082881 160.4135 C 181.395335191432 154.50825 181.665248643098 103.22975000000002 182.20507554643 100.98725000000002 C 182.744902449758 98.74475000000001 183.014815901422 98.74475000000001 183.55464280475 98.74475000000001 C 184.094469708082 98.74475000000001 184.364383159748 108.01375000000002 184.90421006308 108.01375000000002 C 185.44403696640802 108.01375000000002 185.713950418072 107.40079999998545 186.2537773214 103.45400000000001 C 186.793604224732 99.50719999998546 187.063517676398 88.27975 187.60334457973 88.27975 C 188.14317148305798 88.27975 188.413084934722 129.69125 188.95291183805 129.69125 C 189.492738741382 129.69125 189.762652193048 127.44875000000002 190.30247909638 127.44875000000002 C 190.842305999708 127.44875000000002 191.112219451372 132.0085 191.6520463547 132.0085 C 192.191873258032 132.0085 192.46178670969798 97.99725000000001 193.00161361303 97.99725000000001 C 193.541440516358 97.99725000000001 193.81135396802202 102.25800000000001 194.35118087135 102.25800000000001 C 194.891007774682 102.25800000000001 195.160921226348 83.12200000000001 195.70074812968 83.12200000000001 C 196.24057503300799 83.12200000000001 196.510488484672 120.49700000000001 197.050315388 120.49700000000001 C 197.59014229133203 120.49700000000001 197.860055742998 102.4075 198.39988264633 102.4075 C 198.93970954965798 102.4075 199.209623001322 134.6995 199.74944990465 134.6995 C 200.289276807978 134.6995 200.55919025964198 113.6349499999647 201.09901716297 104.05200000000002 C 201.638844066302 94.46904999996471 201.908757517968 86.78475 202.4485844213 86.78475 C 202.988411324628 86.78475 203.258324776292 97.773 203.79815167962 97.773 C 204.337978582952 97.773 204.607892034618 94.48400000000001 205.14771893795 94.48400000000001 C 205.687545841278 94.48400000000001 205.957459292942 101.43575000005222 206.49728619627 115.713 C 207.03711309960198 129.99025000005224 207.30702655126797 165.87025 207.8468534546 165.87025 C 208.386680357928 165.87025 208.656593809592 161.40019999996028 209.19642071292 150.696 C 209.736247616252 139.99179999996028 210.006161067918 115.86250000000001 210.54598797125 112.34925000000001 C 211.085814874578 108.83600000000001 211.35572832624203 108.83600000000001 211.89555522957 108.83600000000001 C 212.43538213290202 108.83600000000001 212.705295584568 152.78900000000002 213.2451224879 152.78900000000002 C 213.78494939122803 152.78900000000002 214.054862842892 101.80950000000001 214.59468974622 101.80950000000001 C 215.134516649552 101.80950000000001 215.404430101218 108.537 215.94425700455 108.537 C 216.484083907878 108.537 216.753997359542 101.43575000000001 217.29382426287 101.43575000000001 C 217.83365116620197 101.43575000000001 218.10356461786802 141.12800000000001 218.6433915212 141.12800000000001 C 219.18321842452798 141.12800000000001 219.453131876192 112.34925000000001 219.99295877952 112.34925000000001 C 220.532785682852 112.34925000000001 220.80269913451804 112.34925000000001 221.34252603785 112.424 C 221.882352941178 112.49875 222.15226639284202 115.17480000003499 222.69209329617 124.5335 C 223.23192019950199 133.892200000035 223.501833651168 159.2175 224.0416605545 159.2175 C 224.58148745782802 159.2175 224.85140090949199 129.09325 225.39122781282 129.09325 C 225.931054716152 129.09325 226.20096816781802 135.2975 226.74079507115 135.2975 C 227.28062197447798 135.2975 227.55053542614195 135.2975 228.09036232947 134.9985 C 228.63018923280197 134.6995 228.90010268446804 121.61825000000002 229.4399295878 120.49700000000001 C 229.979756491128 119.37575000000001 230.24966994279202 119.37575000000001 230.78949684612 119.37575000000001 C 231.32932374944798 119.37575000000001 231.599237201112 128.4205 232.13906410444 128.4205 C 232.67889100777202 128.4205 232.948804459438 100.09025 233.48863136277 100.09025 C 234.028458266098 100.09025 234.298371717762 153.16275 234.83819862109 160.78725 C 235.378025524422 168.41175 235.64793897608797 168.41175 236.18776587942 168.41175 C 236.727592782748 168.41175 236.99750623441201 168.41175 237.53733313774 168.41175 C 238.077160041072 168.41175 238.347073492738 168.41175 238.88690039607 168.41175 C 239.426727299398 168.41175 239.69664075106198 168.41175 240.23646765439 168.41175 C 240.776294557722 168.41175 241.046208009388 168.41175 241.58603491272 168.41175 C 242.12586181604803 168.41175 242.395775267712 168.41175 242.93560217104 168.41175 C 243.47542907437202 168.41175 243.74534252603797 168.41175 244.28516942937 168.41175 C 244.824996332698 168.41175 245.09490978436196 168.41175 245.63473668769 168.41175 C 246.17456359102198 168.41175 246.444477042688 168.41175 246.98430394602 168.41175 C 247.524130849348 168.41175 247.79404430101198 168.41175 248.33387120434 168.41175 C 248.873698107672 168.41175 249.143611559338 168.41175 249.68343846267 168.41175 C 250.22326536599803 168.41175 250.493178817662 168.41175 251.03300572099 168.41175 C 251.57283262432202 168.41175 251.842746075988 168.41175 252.38257297932 168.41175 C 252.922399882648 168.41175 253.192313334312 168.41175 253.73214023764 168.41175 C 254.27196714097198 168.41175 254.54188059263797 168.41175 255.08170749597 168.41175 C 255.62153439929799 168.41175 255.891447850962 168.41175 256.43127475429 168.41175 C 256.97110165762194 168.41175 257.24101510928796 168.41175 257.78084201262 168.41175 C 258.320668915948 168.41175 258.590582367612 168.41175 259.13040927094 168.41175 C 259.670236174272 168.41175 259.94014962593803 168.41175 260.47997652927 168.41175 C 261.019803432598 168.41175 261.289716884262 168.41175 261.82954378759 168.41175 C 262.369370690918 168.41175 262.63928414258197 168.41175 263.17911104591 168.41175 C 263.718937949242 168.41175 263.98885140090795 168.41175 264.52867830424 168.41175 C 265.06850520756797 168.41175 265.33841865923193 168.41175 265.87824556256 168.41175 C 266.41807246589195 168.41175 266.68798591755797 168.41175 267.22781282089 168.41175 C 267.767639724218 168.41175 268.037553175882 168.41175 268.57738007921 168.41175 C 269.11720698254203 168.41175 269.387120434208 168.41175 269.92694733754 168.41175 C 270.466774240868 168.41175 270.736687692532 168.41175 271.27651459586 168.41175 C 271.816341499192 168.41175 272.086254950858 168.41175 272.62608185419 168.41175 C 273.16590875751797 168.41175 273.435822209182 168.41175 273.97564911251 168.41175 C 274.51547601584195 168.41175 274.78538946750797 168.41175 275.32521637084 168.41175 C 275.865043274168 168.41175 276.134956725832 168.41175 276.67478362916 168.41175 C 277.21461053249203 168.41175 277.48452398415805 168.41175 278.02435088749 168.41175 C 278.564177790818 168.41175 278.83409124248203 168.41175 279.37391814581 168.41175 C 279.913745049142 168.41175 280.183658500808 168.41175 280.72348540414 168.41175 C 281.263312307468 168.41175 281.533225759132 168.41175 282.07305266246 168.41175 C 282.612879565792 168.41175 282.88279301745797 168.41175 283.42261992079 168.41175 C 283.962446824118 168.41175 284.232360275782 168.41175 284.77218717911 168.41175 C 285.31201408244203 168.41175 285.58192753410805 168.41175 286.12175443744 168.41175 C 286.66158134076807 168.41175 286.93149479243203 168.41175 287.47132169576 168.41175 C 288.01114859909205 168.41175 288.281062050758 168.41175 288.82088895409 168.41175 C 289.36071585741803 168.41175 289.630629309082 168.41175 290.17045621241 168.41175 C 290.710283115738 168.41175 290.980196567402 168.41175 291.52002347073 168.41175 C 292.05985037406197 168.41175 292.329763825728 168.41175 292.86959072906 168.41175 C 293.409417632388 168.41175 293.679331084052 168.41175 294.21915798738 168.41175 C 294.75898489071204 168.41175 295.02889834237806 168.41175 295.56872524571 168.41175 C 296.108552149038 168.41175 296.37846560070204 168.41175 296.91829250403 168.41175 C 297.458119407362 168.41175 297.728032859028 168.41175 298.26785976236 168.41175 C 298.80768666568804 168.41175 299.077600117352 168.41175 299.61742702068 168.41175 C 300.157253924012 168.41175 300.427167375678 168.41175 300.96699427901 168.41175 C 301.506821182338 168.41175 301.776734634002 168.41175 302.31656153733 168.41175 C 302.856388440662 168.41175 303.126301892328 168.41175 303.66612879566 168.41175 C 304.20595569898796 168.41175 304.47586915065193 168.41175 305.01569605398 168.41175 C 305.55552295731195 168.41175 305.825436408978 168.41175 306.36526331231 168.41175 C 306.90509021563804 168.41175 307.175003667302 168.41175 307.71483057063 168.41175 C 308.254657473962 168.41175 308.524570925628 168.41175 309.06439782896 168.41175 C 309.604224732288 168.41175 309.87413818395197 168.41175 310.41396508728 168.41175 C 310.953791990612 168.41175 311.22370544227795 168.41175 311.76353234561 168.41175 C 312.30335924893797 168.41175 312.57327270060193 168.41175 313.11309960393 168.41175 C 313.65292650726195 168.41175 313.92283995892797 168.41175 314.46266686226 168.41175 C 315.002493765588 168.41175 315.272407217252 168.41175 315.81223412058 168.41175 C 316.35206102391203 168.41175 316.621974475578 168.41175 317.16180137891 168.41175 C 317.701628282238 168.41175 317.971541733902 168.41175 318.51136863723 168.41175 C 319.051195540562 168.41175 319.321108992228 168.41175 319.86093589556 168.41175 C 320.40076279888797 168.41175 320.670676250552 168.41175 321.21050315388 168.41175 C 321.750330057208 168.41175 322.02024350887194 168.41175 322.5600704122 168.41175 C 323.09989731553196 168.41175 323.36981076719803 168.41175 323.90963767053 168.41175 C 324.44946457385805 168.41175 324.719378025522 168.41175 325.25920492885 168.41175 C 325.79903183218204 168.41175 326.068945283848 168.41175 326.60877218718 168.41175 C 327.148599090508 168.41175 327.418512542172 168.41175 327.9583394455 168.41175 C 328.498166348832 168.41175 328.76807980049796 168.41175 329.30790670383 168.41175 C 329.847733607158 168.41175 330.11764705882194 168.41175 330.65747396215 168.41175 C 331.19730086548196 168.41175 331.467214317148 168.41175 332.00704122048 168.41175 C 332.546868123808 168.41175 332.816781575472 168.41175 333.3566084788 168.41175 C 333.89643538213204 168.41175 334.166348833798 168.41175 334.70617573713 168.41175 C 335.246002640458 168.41175 335.515916092122 168.41175 336.05574299545 168.41175 C 336.595569898782 168.41175 336.865483350448 168.41175 337.40531025378 168.41175 C 337.945137157108 168.41175 338.215050608772 168.41175 338.7548775121 168.41175 C 339.29470441543197 168.41175 339.564617867098 168.41175 340.10444477043 168.41175 C 340.644271673758 168.41175 340.914185125422 168.41175 341.45401202875 168.41175 C 341.99383893208204 168.41175 342.26375238374806 168.41175 342.80357928708 168.41175 C 343.343406190408 168.41175 343.61331964207204 168.41175 344.1531465454 168.41175 C 344.692973448732 168.41175 344.962886900398 168.41175 345.50271380373 168.41175 C 346.04254070705804 168.41175 346.312454158722 168.41175 346.85228106205 168.41175 C 347.392107965382 168.41175 347.662021417048 168.41175 348.20184832038 168.41175 C 348.741675223708 168.41175 349.011588675372 168.41175 349.5514155787 168.41175 C 350.09124248203204 168.41175 350.36115593369806 168.41175 350.90098283703 168.41175 C 351.4408097403581 168.41175 351.710723192022 168.7855 352.25055009535 168.7855 C 352.79037699867797 168.7855 353.060290450342 168.7855 353.60011735367 168.7855 C 354.139944257002 168.7855 354.409857708668 168.7855 354.949684612 168.7855 C 355.489511515328 168.7855 355.759424966992 168.7855 356.29925187032 168.7855 C 356.839078773652 168.7855 357.108992225318 168.7855 357.64881912865 168.7855 C 358.188646031978 168.7855 358.45855948364203 168.7855 358.99838638697 168.7855 C 359.538213290302 168.7855 359.80812674196795 168.7855 360.3479536453 168.7855 C 360.887780548628 168.7855 361.157694000292 168.7855 361.69752090362 168.7855 C 362.237347806952 168.7855 362.50726125861803 168.7855 363.04708816195 168.7855 C 363.58691506527805 168.7855 363.856828516942 168.7855 364.39665542027 168.7855 C 364.93648232360204 168.7855 365.206395775268 168.7855 365.7462226786 168.7855 C 366.286049581928 168.7855 366.55596303359204 168.7855 367.09578993692 168.7855 C 367.635616840252 168.7855 367.905530291918 168.7855 368.44535719525 168.7855 C 368.985184098578 168.7855 369.25509755024194 168.7855 369.79492445357 168.7855 C 370.33475135690196 168.7855 370.60466480856803 168.7855 371.1444917119 168.7855 C 371.68431861522805 168.7855 371.954232066892 168.7855 372.49405897022 168.7855 C 373.03388587355204 168.7855 373.303799325218 168.7855 373.84362622855 168.7855 C 374.383453131878 168.7855 374.653366583542 168.7855 375.19319348687 168.7855 C 375.733020390202 168.7855 376.00293384186796 168.7855 376.5427607452 168.7855 C 377.082587648528 168.7855 377.35250110019194 167.51474999999837 377.89232800352 167.06625 C 378.43215490685196 166.61774999999838 378.702068358518 166.70745000000065 379.24189526185 166.543 C 379.781722165178 166.37855000000062 380.051635616842 166.3337 380.59146252017 166.244 C 381.13128942349806 166.1543 381.401202875162 166.1542999999998 381.94102977849 166.0945 C 382.48085668182205 166.0346999999998 382.750770133488 165.98985000000016 383.29059703682 165.945 C 383.830423940148 165.90015000000017 384.100337391812 165.90014999999988 384.64016429514 165.87025 C 385.179991198472 165.8403499999999 385.44990465013797 165.82540000000012 385.98973155347 165.7955 C 386.529558456798 165.76560000000012 386.79947190846195 165.7955 387.33929881179 165.72075 C 387.879125715122 165.64600000000002 388.14903916678804 159.29225000005567 388.68886607012 143.9685 C 389.22869297344806 128.64475000005567 389.49860642511203 91.0455 390.03843332844 89.102 C 390.578260231772 87.1585 390.848173683438 88.95250000000661 391.38800058677 87.1585 C 391.92782749009797 85.36450000000661 392.197740941762 80.132 392.73756784509 80.132 C 393.277394748422 80.132 393.54730820008797 89.92425 394.08713510342 89.92425 C 394.626962006748 89.92425 394.89687545841196 82.0755 395.43670236174 82.0755 C 395.976529265072 82.0755 396.246442716738 103.00550000000004 396.78626962007 107.56525000000002 C 397.326096523398 112.125 397.59600997506203 107.56525000000002 398.13583687839 112.125 C 398.67566378172205 116.68474999999998 398.945577233388 131.56 399.48540413672 131.56 C 400.02523104004797 131.56 400.295144491712 90.52225000000001 400.83497139504 90.52225000000001 C 401.374798298372 90.52225000000001 401.644711750038 130.28925 402.18453865337 130.28925 C 402.724365556698 130.28925 402.994279008362 100.38925 403.53410591169 100.38925 C 404.073932815022 100.38925 404.343846266688 146.3605 404.88367317002 146.3605 C 405.423500073348 146.3605 405.69341352501203 128.49525 406.23324042834 128.49525 C 406.773067331672 128.49525 407.04298078333795 143.32564999997246 407.58280768667 150.696 C 408.122634589998 158.06634999997246 408.392548041662 165.347 408.93237494499 165.347 C 409.472201848322 165.347 409.74211529998803 165.347 410.28194220332 165.347 C 410.82176910664805 165.347 411.091682558312 165.347 411.63150946164 165.347 C 412.171336364968 165.347 412.44124981663197 165.347 412.98107671996 165.347 C 413.520903623292 165.347 413.79081707495806 165.347 414.33064397829 165.347 C 414.87047088161796 165.347 415.14038433328204 165.347 415.68021123661 165.347 C 416.22003813994195 165.347 416.48995159160796 165.347 417.02977849494 165.347 C 417.569605398268 165.347 417.839518849932 165.347 418.37934575326 165.347 C 418.919172656592 165.347 419.18908610825804 165.347 419.72891301159 165.347 C 420.268739914918 165.347 420.538653366582 165.347 421.07848026991 165.347 C 421.618307173242 165.347 421.888220624908 165.347 422.42804752824 165.347 C 422.967874431568 165.347 423.237787883232 165.347 423.77761478656 165.347 C 424.317441689892 165.347 424.58735514155796 137.09150000000002 425.12718204489 127.82250000000002 C 425.667008948218 118.55350000000001 425.93692239988195 118.55350000000001 426.47674930321 118.55350000000001 C 427.016576206542 118.55350000000001 427.28648965820804 162.8055 427.82631656154 162.8055 C 428.36614346486806 162.8055 428.636056916532 104.05200000000002 429.17588381986 104.05200000000002 C 429.71571072319205 104.05200000000002 429.985624174858 120.6465 430.52545107819 120.6465 C 431.065277981518 120.6465 431.335191433182 92.82454999996261 431.87501833651 82.82300000000001 C 432.414845239842 72.82144999996262 432.68475869150797 70.63875000000002 433.22458559484 70.63875000000002 C 433.764412498168 70.63875000000002 434.03432594983195 99.64175000004697 434.57415285316 112.5735 C 435.113979756492 125.50525000004697 435.38389320815804 135.2975 435.92372011149 135.2975 C 436.46354701481806 135.2975 436.73346046648203 80.43100000000001 437.27328736981 80.43100000000001 C 437.81311427314193 80.43100000000001 438.083027724808 106.21975 438.62285462814 106.21975 C 439.1626815314679 106.21975 439.432594983132 95.35109999997862 439.97242188646 89.62525000000002 C 440.512248789792 83.89939999997863 440.78216224145797 77.59050000000002 441.32198914479 77.59050000000002 C 441.861816048118 77.59050000000002 442.13172949978195 297.206 442.67155640311 298.103 C 443.211383306438 299 443.48129675810196 299 444.02112366143 299 C 448.33973888807 299 450.49904650138996 299 454.81766172803 297.804 C 455.35748863136195 296.60799999999995 455.627402083028 80.5805 456.16722898636 80.5805 C 456.7070558896879 80.5805 456.976969341352 80.5805 457.51679624468 96.80125000000001 C 458.056623148012 113.02200000000002 458.326536599678 231.2765 458.86636350301 257.81275 C 459.406190406338 284.349 459.67610385800197 284.349 460.21593076133 284.349 C 460.755757664662 284.349 461.025671116328 106.36925 461.56549801966 106.36925 C 462.10532492298796 106.36925 462.375238374652 106.36925 462.91506527798 109.65825000000001 C 463.45489218131195 112.94725000000003 463.72480563297796 161.93839999985846 464.26463253631 199.80675000000002 C 464.804459439638 237.67509999985845 465.074372891302 299 465.61419979463 299 C 466.154026697962 299 466.42394014962804 299 466.96376705296 299 C 467.503593956288 299 467.773507407952 232.69675 468.31333431128 232.69675 C 468.853161214612 232.69675 469.123074666278 242.16009999995043 469.66290156961 255.42075 C 470.202728472938 268.68139999995043 470.472641924602 299 471.01246882793 299 C 471.55229573125797 299 471.82220918292194 299 472.36203608625 295.48675 C 472.90186298958196 291.97349999999994 473.171776441248 162.07295000016939 473.71160334458 116.7595 C 474.25143024790793 71.44605000016941 474.521343699572 68.9195 475.0611706029 68.9195 C 475.60099750623203 68.9195 475.870910957898 74.40614999998867 476.41073786123 77.441 C 476.950564764558 80.47584999998865 477.220478216222 77.441 477.76030511955 84.09375 C 478.300132022882 90.7465 478.570045474548 112.125 479.10987237788 112.125 C 479.649699281208 112.125 479.919612732872 80.73000000000002 480.4594396362 80.73000000000002 C 480.99926653953196 80.73000000000002 481.269179991198 116.012 481.80900689453 116.012 C 482.348833797858 116.012 482.618747249522 105.846 483.15857415285 105.846 C 483.69840105618204 105.846 483.96831450784805 291.30075 484.50814141118 291.30075 C 485.047968314508 291.30075 485.31788176617204 105.846 485.8577086695 105.846 C 486.397535572832 105.846 486.667449024498 254.37425000000002 487.20727592783 254.37425000000002 C 487.74710283115803 254.37425000000002 488.017016282822 122.81425000000002 488.55684318615 122.81425000000002 C 489.096670089482 122.81425000000002 489.366583541148 293.39375 489.90641044448 293.39375 C 490.446237347808 293.39375 490.7161507994721 267.45550000000003 491.2559777028 267.45550000000003 C 491.795804606132 267.45550000000003 492.06571805779805 299 492.60554496113 299 C 493.14537186445807 299 493.41528531612204 299 493.95511221945 299 C 494.49493912278194 299 494.764852574448 279.864 495.30467947778 279.864 C 495.84450638110803 279.864 496.114419832772 279.864 496.6542467361 281.73275 C 497.194073639432 283.60150000000004 497.463987091098 294.0665 498.00381399443 294.0665 C 498.543640897758 294.0665 498.81355434942196 112.5735 499.35338125275 112.5735 C 499.893208156082 112.5735 500.16312160774805 126.59659999997655 500.70294851108 133.055 C 501.2427754144081 139.51339999997654 501.5126888660719 144.8655 502.0525157694 144.8655 C 502.59234267272797 144.8655 502.86225612439193 123.86075000000002 503.40208302772 117.80600000000001 C 503.941909931052 111.75125 504.211823382718 111.75125 504.75165028605 111.75125 C 505.29147718937804 111.75125 505.561390641042 127.52350000000001 506.10121754437 127.52350000000001 C 506.64104444770203 127.52350000000001 506.910957899368 103.82775000000001 507.4507848027 103.45400000000001 C 507.990611706028 103.08025 508.2605251576921 103.08025 508.80035206102 103.08025 C 509.340178964352 103.08025 509.61009241601806 146.86879999985763 510.14991931935 186.05275 C 510.68974622267797 225.23669999985765 510.95965967434194 299 511.49948657767 299 C 512.039313481002 299 512.309226932668 141.5765 512.849053836 126.85075 C 513.388880739328 112.125 513.658794190992 118.01529999997767 514.19862109432 112.125 C 514.738447997652 106.23469999997768 515.008361449318 97.47399999999999 515.54818835265 97.39925 C 516.0880152559779 97.3245 516.357928707642 97.3245 516.89775561097 97.3245 C 517.437582514302 97.3245 517.707495965968 110.83929999998094 518.2473228693 116.012 C 518.787149772628 121.18469999998095 519.0570632242919 116.012 519.59689012762 123.18800000000002 C 520.136717030952 130.36400000000003 520.406630482618 149.61959999987042 520.94645738595 184.782 C 521.486284289278 219.94439999987043 521.7561977409421 299 522.29602464427 299 C 522.835851547602 299 523.105764999268 133.80250000000004 523.6455919026 109.88250000000002 C 524.1854188059281 85.9625 524.455332257592 85.9625 524.99515916092 85.9625 C 525.534986064252 85.9625 525.8048995159181 247.87100000000004 526.34472641925 252.13175 C 526.884553322578 256.3925 527.1544667742421 252.13175 527.69429367757 256.3925 C 528.2341205809021 260.65324999999996 528.504034032568 299 529.0438609359 299 C 529.583687839228 299 529.853601290892 135.82075 530.39342819422 135.82075 C 530.933255097552 135.82075 531.2031685492179 299 531.74299545255 299 C 532.2828223558779 299 532.552735807542 275.8275 533.09256271087 275.8275 C 533.6323896141979 275.8275 533.902303065862 277.39725 534.44212996919 277.39725 C 534.981956872522 277.39725 535.251870324188 277.39725 535.79169722752 277.39725 C 536.331524130848 277.39725 536.601437582512 299 537.14126448584 299 C 537.681091389172 299 537.951004840838 299 538.49083174417 299 C 539.0306586474981 299 539.3005720991621 299 539.84039900249 299 C 540.380225905822 299 540.650139357488 147.706 541.18996626082 135.82075 C 541.7297931641481 123.93550000000002 541.999706615812 123.93550000000002 542.53953351914 123.93550000000002 C 543.0793604224721 123.93550000000002 543.3492738741381 247.7215 543.88910077747 273.36075 C 544.428927680798 299 544.6988411324621 299 545.23866803579 299 C 545.778494939122 299 546.58823529412 254.97225 546.58823529412 254.97225" class="highcharts-graph" data-z-index="1" stroke="#000000" stroke-width="2" stroke-linejoin="round" stroke-linecap="round"></path></g><g data-z-index="0.1" class="highcharts-markers highcharts-series-0 highcharts-spline-series highcharts-color-0 " transform="translate(38,63) scale(1 1)" clip-path="none"></g></g><text x="300" text-anchor="middle" class="highcharts-title" data-z-index="4" style="color:#333333;font-size:18px;fill:#333333;" y="24"><tspan>CaloriesOut Over Time</tspan></text><text x="300" text-anchor="middle" class="highcharts-subtitle" data-z-index="4" style="color:#666666;fill:#666666;" y="46"><tspan>This chart shows how your CaloriesOut changes over time.</tspan></text><g class="highcharts-axis-labels highcharts-xaxis-labels " data-z-index="7"><text x="146.27974182192" style="color:#666666;cursor:default;font-size:11px;fill:#666666;" text-anchor="middle" transform="translate(0,0)" y="381" opacity="1"><tspan>Jul '12</tspan></text><text x="270.4399295878" style="color:#666666;cursor:default;font-size:11px;fill:#666666;" text-anchor="middle" transform="translate(0,0)" y="381" opacity="1"><tspan>Oct '12</tspan></text><text x="394.60011735367" style="color:#666666;cursor:default;font-size:11px;fill:#666666;" text-anchor="middle" transform="translate(0,0)" y="381" opacity="1"><tspan>Jan '13</tspan></text><text x="516.0611706029" style="color:#666666;cursor:default;font-size:11px;fill:#666666;" text-anchor="middle" transform="translate(0,0)" y="381" opacity="1"><tspan>Apr '13</tspan></text></g><g class="highcharts-axis-labels highcharts-yaxis-labels " data-z-index="7"><text x="23" style="color:#666666;cursor:default;font-size:11px;fill:#666666;" text-anchor="end" transform="translate(0,0)" y="366" opacity="1">0</text><text x="23" style="color:#666666;cursor:default;font-size:11px;fill:#666666;" text-anchor="end" transform="translate(0,0)" y="291" opacity="1">1k</text><text x="23" style="color:#666666;cursor:default;font-size:11px;fill:#666666;" text-anchor="end" transform="translate(0,0)" y="216" opacity="1">2k</text><text x="23" style="color:#666666;cursor:default;font-size:11px;fill:#666666;" text-anchor="end" transform="translate(0,0)" y="141" opacity="1">3k</text><text x="23" style="color:#666666;cursor:default;font-size:11px;fill:#666666;" text-anchor="end" transform="translate(0,0)" y="67" opacity="1">4k</text></g><a xlink:href="https://quantimo.do" target="_blank">
                    <text x="590" class="highcharts-credits" text-anchor="end" data-z-index="8"
                          style="cursor:pointer;color:#999999;font-size:9px;fill:#999999;" y="395">https://quantimo.do
                    </text>
                </a></svg>