<?xml version="1.0" standalone="no"?><!DOCTYPE svg PUBLIC "-//W3C//DTD SVG 1.1//EN" "http://www.w3.org/Graphics/SVG/1.1/DTD/svg11.dtd"><svg xmlns:xlink="http://www.w3.org/1999/xlink" version="1.1" class="highcharts-root" style="font-family:&quot;Lucida Grande&quot;, &quot;Lucida Sans Unicode&quot;, Arial, Helvetica, sans-serif;font-size:12px;" xmlns="http://www.w3.org/2000/svg" width="600" height="400"><desc>Created with Highstock 6.2.0</desc><defs><clipPath id="highcharts-r9be4zx-467"><rect x="0" y="0" width="532" height="263" fill="none"></rect></clipPath><clipPath id="highcharts-r9be4zx-928"><rect x="0" y="0" width="532" height="263" fill="none"></rect></clipPath><clipPath id="highcharts-r9be4zx-929"><rect x="58" y="78" width="532" height="263" fill="none"></rect></clipPath></defs><rect fill="#ffffff" class="highcharts-background" x="0" y="0" width="600" height="400" rx="0" ry="0"></rect><rect fill="none" class="highcharts-plot-background" x="58" y="78" width="532" height="263"></rect><g class="highcharts-pane-group" data-z-index="0"></g><g class="highcharts-grid highcharts-xaxis-grid " data-z-index="1"><path fill="none" data-z-index="1" class="highcharts-grid-line" d="M 62.5 78 L 62.5 341" opacity="1"></path><path fill="none" data-z-index="1" class="highcharts-grid-line" d="M 124.5 78 L 124.5 341" opacity="1"></path><path fill="none" data-z-index="1" class="highcharts-grid-line" d="M 186.5 78 L 186.5 341" opacity="1"></path><path fill="none" data-z-index="1" class="highcharts-grid-line" d="M 248.5 78 L 248.5 341" opacity="1"></path><path fill="none" data-z-index="1" class="highcharts-grid-line" d="M 311.5 78 L 311.5 341" opacity="1"></path><path fill="none" data-z-index="1" class="highcharts-grid-line" d="M 373.5 78 L 373.5 341" opacity="1"></path><path fill="none" data-z-index="1" class="highcharts-grid-line" d="M 435.5 78 L 435.5 341" opacity="1"></path><path fill="none" data-z-index="1" class="highcharts-grid-line" d="M 497.5 78 L 497.5 341" opacity="1"></path><path fill="none" data-z-index="1" class="highcharts-grid-line" d="M 559.5 78 L 559.5 341" opacity="1"></path></g><g class="highcharts-grid highcharts-yaxis-grid " data-z-index="1"><path fill="none" stroke="#e6e6e6" stroke-width="1" data-z-index="1" class="highcharts-grid-line" d="M 58 341.5 L 590 341.5" opacity="1"></path><path fill="none" stroke="#e6e6e6" stroke-width="1" data-z-index="1" class="highcharts-grid-line" d="M 58 297.5 L 590 297.5" opacity="1"></path><path fill="none" stroke="#e6e6e6" stroke-width="1" data-z-index="1" class="highcharts-grid-line" d="M 58 253.5 L 590 253.5" opacity="1"></path><path fill="none" stroke="#e6e6e6" stroke-width="1" data-z-index="1" class="highcharts-grid-line" d="M 58 210.5 L 590 210.5" opacity="1"></path><path fill="none" stroke="#e6e6e6" stroke-width="1" data-z-index="1" class="highcharts-grid-line" d="M 58 166.5 L 590 166.5" opacity="1"></path><path fill="none" stroke="#e6e6e6" stroke-width="1" data-z-index="1" class="highcharts-grid-line" d="M 58 122.5 L 590 122.5" opacity="1"></path><path fill="none" stroke="#e6e6e6" stroke-width="1" data-z-index="1" class="highcharts-grid-line" d="M 58 77.5 L 590 77.5" opacity="1"></path></g><rect fill="none" class="highcharts-plot-border" data-z-index="1" x="58" y="78" width="532" height="263"></rect><g class="highcharts-axis highcharts-xaxis " data-z-index="2"><path fill="none" class="highcharts-tick" stroke="#ccd6eb" stroke-width="1" d="M 62.5 341 L 62.5 351" opacity="1"></path><path fill="none" class="highcharts-tick" stroke="#ccd6eb" stroke-width="1" d="M 124.5 341 L 124.5 351" opacity="1"></path><path fill="none" class="highcharts-tick" stroke="#ccd6eb" stroke-width="1" d="M 186.5 341 L 186.5 351" opacity="1"></path><path fill="none" class="highcharts-tick" stroke="#ccd6eb" stroke-width="1" d="M 248.5 341 L 248.5 351" opacity="1"></path><path fill="none" class="highcharts-tick" stroke="#ccd6eb" stroke-width="1" d="M 311.5 341 L 311.5 351" opacity="1"></path><path fill="none" class="highcharts-tick" stroke="#ccd6eb" stroke-width="1" d="M 373.5 341 L 373.5 351" opacity="1"></path><path fill="none" class="highcharts-tick" stroke="#ccd6eb" stroke-width="1" d="M 435.5 341 L 435.5 351" opacity="1"></path><path fill="none" class="highcharts-tick" stroke="#ccd6eb" stroke-width="1" d="M 497.5 341 L 497.5 351" opacity="1"></path><path fill="none" class="highcharts-tick" stroke="#ccd6eb" stroke-width="1" d="M 559.5 341 L 559.5 351" opacity="1"></path><text x="324" data-z-index="7" text-anchor="middle" transform="translate(0,0)" class="highcharts-axis-title" style="color:#666666;fill:#666666;" y="381"><tspan>Acetyl L-carnitine intake (mg) over previous 7 days</tspan></text><path fill="none" class="highcharts-axis-line" stroke="#ccd6eb" stroke-width="1" data-z-index="7" d="M 58 341.5 L 590 341.5"></path></g><g class="highcharts-axis highcharts-yaxis " data-z-index="2"><text x="26" data-z-index="7" text-anchor="middle" transform="translate(0,0) rotate(270 26 209.5)" class="highcharts-axis-title" style="color:#666666;fill:#666666;" y="209.5"><tspan>Sleep Quality Rating (/5)</tspan></text><path fill="none" class="highcharts-axis-line" data-z-index="7" d="M 58 78 L 58 341"></path></g><g class="highcharts-series-group" data-z-index="3"><g data-z-index="0.1" class="highcharts-series highcharts-series-0 highcharts-scatter-series highcharts-color-0 " transform="translate(58,78) scale(1 1)" clip-path="url(#highcharts-r9be4zx-928)"></g><g data-z-index="0.1" class="highcharts-markers highcharts-series-0 highcharts-scatter-series highcharts-color-0 " transform="translate(58,78) scale(1 1)" clip-path="none"><path fill="#000000" d="M 9 219 A 4 4 0 1 1 8.999998000000167 218.99600000066667 Z" class="highcharts-point highcharts-color-0"></path><path fill="#000000" d="M 40 219 A 4 4 0 1 1 39.99999800000017 218.99600000066667 Z" class="highcharts-point highcharts-color-0"></path><path fill="#000000" d="M 86 219 A 4 4 0 1 1 85.99999800000016 218.99600000066667 Z" class="highcharts-point highcharts-color-0"></path><path fill="#000000" d="M 117 219 A 4 4 0 1 1 116.99999800000016 218.99600000066667 Z" class="highcharts-point highcharts-color-0"></path><path fill="#000000" d="M 164 219 A 4 4 0 1 1 163.99999800000018 218.99600000066667 Z" class="highcharts-point highcharts-color-0"></path><path fill="#000000" d="M 164 219 A 4 4 0 1 1 163.99999800000018 218.99600000066667 Z" class="highcharts-point highcharts-color-0"></path><path fill="#000000" d="M 164 184 A 4 4 0 1 1 163.99999800000018 183.99600000066667 Z" class="highcharts-point highcharts-color-0"></path><path fill="#000000" d="M 179 219 A 4 4 0 1 1 178.99999800000018 218.99600000066667 Z" class="highcharts-point highcharts-color-0"></path><path fill="#000000" d="M 179 114 A 4 4 0 1 1 178.99999800000018 113.99600000066667 Z" class="highcharts-point highcharts-color-0"></path><path fill="#000000" d="M 179 149 A 4 4 0 1 1 178.99999800000018 148.99600000066667 Z" class="highcharts-point highcharts-color-0"></path><path fill="#000000" d="M 226 184 A 4 4 0 1 1 225.99999800000018 183.99600000066667 Z" class="highcharts-point highcharts-color-0"></path><path fill="#000000" d="M 211 114 A 4 4 0 1 1 210.99999800000018 113.99600000066667 Z" class="highcharts-point highcharts-color-0"></path><path fill="#000000" d="M 211 219 A 4 4 0 1 1 210.99999800000018 218.99600000066667 Z" class="highcharts-point highcharts-color-0"></path><path fill="#000000" d="M 211 219 A 4 4 0 1 1 210.99999800000018 218.99600000066667 Z" class="highcharts-point highcharts-color-0"></path><path fill="#000000" d="M 211 149 A 4 4 0 1 1 210.99999800000018 148.99600000066667 Z" class="highcharts-point highcharts-color-0"></path><path fill="#000000" d="M 257 184 A 4 4 0 1 1 256.9999980000002 183.99600000066667 Z" class="highcharts-point highcharts-color-0"></path><path fill="#000000" d="M 257 219 A 4 4 0 1 1 256.9999980000002 218.99600000066667 Z" class="highcharts-point highcharts-color-0"></path><path fill="#000000" d="M 273 219 A 4 4 0 1 1 272.9999980000002 218.99600000066667 Z" class="highcharts-point highcharts-color-0"></path><path fill="#000000" d="M 226 219 A 4 4 0 1 1 225.99999800000018 218.99600000066667 Z" class="highcharts-point highcharts-color-0"></path><path fill="#000000" d="M 226 184 A 4 4 0 1 1 225.99999800000018 183.99600000066667 Z" class="highcharts-point highcharts-color-0"></path><path fill="#000000" d="M 164 149 A 4 4 0 1 1 163.99999800000018 148.99600000066667 Z" class="highcharts-point highcharts-color-0"></path><path fill="#000000" d="M 179 149 A 4 4 0 1 1 178.99999800000018 148.99600000066667 Z" class="highcharts-point highcharts-color-0"></path><path fill="#000000" d="M 226 184 A 4 4 0 1 1 225.99999800000018 183.99600000066667 Z" class="highcharts-point highcharts-color-0"></path><path fill="#000000" d="M 242 184 A 4 4 0 1 1 241.99999800000018 183.99600000066667 Z" class="highcharts-point highcharts-color-0"></path><path fill="#000000" d="M 257 219 A 4 4 0 1 1 256.9999980000002 218.99600000066667 Z" class="highcharts-point highcharts-color-0"></path><path fill="#000000" d="M 242 184 A 4 4 0 1 1 241.99999800000018 183.99600000066667 Z" class="highcharts-point highcharts-color-0"></path><path fill="#000000" d="M 226 184 A 4 4 0 1 1 225.99999800000018 183.99600000066667 Z" class="highcharts-point highcharts-color-0"></path><path fill="#000000" d="M 242 184 A 4 4 0 1 1 241.99999800000018 183.99600000066667 Z" class="highcharts-point highcharts-color-0"></path><path fill="#000000" d="M 195 149 A 4 4 0 1 1 194.99999800000018 148.99600000066667 Z" class="highcharts-point highcharts-color-0"></path><path fill="#000000" d="M 226 167 A 4 4 0 1 1 225.99999800000018 166.99600000066667 Z" class="highcharts-point highcharts-color-0"></path><path fill="#000000" d="M 148 149 A 4 4 0 1 1 147.99999800000018 148.99600000066667 Z" class="highcharts-point highcharts-color-0"></path><path fill="#000000" d="M 148 149 A 4 4 0 1 1 147.99999800000018 148.99600000066667 Z" class="highcharts-point highcharts-color-0"></path><path fill="#000000" d="M 133 219 A 4 4 0 1 1 132.99999800000018 218.99600000066667 Z" class="highcharts-point highcharts-color-0"></path><path fill="#000000" d="M 117 219 A 4 4 0 1 1 116.99999800000016 218.99600000066667 Z" class="highcharts-point highcharts-color-0"></path><path fill="#000000" d="M 164 219 A 4 4 0 1 1 163.99999800000018 218.99600000066667 Z" class="highcharts-point highcharts-color-0"></path><path fill="#000000" d="M 164 149 A 4 4 0 1 1 163.99999800000018 148.99600000066667 Z" class="highcharts-point highcharts-color-0"></path><path fill="#000000" d="M 133 184 A 4 4 0 1 1 132.99999800000018 183.99600000066667 Z" class="highcharts-point highcharts-color-0"></path><path fill="#000000" d="M 102 202 A 4 4 0 1 1 101.99999800000016 201.99600000066667 Z" class="highcharts-point highcharts-color-0"></path><path fill="#000000" d="M 102 149 A 4 4 0 1 1 101.99999800000016 148.99600000066667 Z" class="highcharts-point highcharts-color-0"></path><path fill="#000000" d="M 195 114 A 4 4 0 1 1 194.99999800000018 113.99600000066667 Z" class="highcharts-point highcharts-color-0"></path><path fill="#000000" d="M 211 219 A 4 4 0 1 1 210.99999800000018 218.99600000066667 Z" class="highcharts-point highcharts-color-0"></path><path fill="#000000" d="M 179 149 A 4 4 0 1 1 178.99999800000018 148.99600000066667 Z" class="highcharts-point highcharts-color-0"></path><path fill="#000000" d="M 164 219 A 4 4 0 1 1 163.99999800000018 218.99600000066667 Z" class="highcharts-point highcharts-color-0"></path><path fill="#000000" d="M 164 219 A 4 4 0 1 1 163.99999800000018 218.99600000066667 Z" class="highcharts-point highcharts-color-0"></path><path fill="#000000" d="M 164 149 A 4 4 0 1 1 163.99999800000018 148.99600000066667 Z" class="highcharts-point highcharts-color-0"></path><path fill="#000000" d="M 211 149 A 4 4 0 1 1 210.99999800000018 148.99600000066667 Z" class="highcharts-point highcharts-color-0"></path><path fill="#000000" d="M 242 219 A 4 4 0 1 1 241.99999800000018 218.99600000066667 Z" class="highcharts-point highcharts-color-0"></path><path fill="#000000" d="M 226 219 A 4 4 0 1 1 225.99999800000018 218.99600000066667 Z" class="highcharts-point highcharts-color-0"></path><path fill="#000000" d="M 226 219 A 4 4 0 1 1 225.99999800000018 218.99600000066667 Z" class="highcharts-point highcharts-color-0"></path><path fill="#000000" d="M 179 184 A 4 4 0 1 1 178.99999800000018 183.99600000066667 Z" class="highcharts-point highcharts-color-0"></path><path fill="#000000" d="M 117 149 A 4 4 0 1 1 116.99999800000016 148.99600000066667 Z" class="highcharts-point highcharts-color-0"></path><path fill="#000000" d="M 148 219 A 4 4 0 1 1 147.99999800000018 218.99600000066667 Z" class="highcharts-point highcharts-color-0"></path><path fill="#000000" d="M 211 149 A 4 4 0 1 1 210.99999800000018 148.99600000066667 Z" class="highcharts-point highcharts-color-0"></path><path fill="#000000" d="M 211 149 A 4 4 0 1 1 210.99999800000018 148.99600000066667 Z" class="highcharts-point highcharts-color-0"></path><path fill="#000000" d="M 211 149 A 4 4 0 1 1 210.99999800000018 148.99600000066667 Z" class="highcharts-point highcharts-color-0"></path><path fill="#000000" d="M 211 219 A 4 4 0 1 1 210.99999800000018 218.99600000066667 Z" class="highcharts-point highcharts-color-0"></path><path fill="#000000" d="M 226 149 A 4 4 0 1 1 225.99999800000018 148.99600000066667 Z" class="highcharts-point highcharts-color-0"></path><path fill="#000000" d="M 226 219 A 4 4 0 1 1 225.99999800000018 218.99600000066667 Z" class="highcharts-point highcharts-color-0"></path><path fill="#000000" d="M 226 149 A 4 4 0 1 1 225.99999800000018 148.99600000066667 Z" class="highcharts-point highcharts-color-0"></path><path fill="#000000" d="M 226 132 A 4 4 0 1 1 225.99999800000018 131.99600000066667 Z" class="highcharts-point highcharts-color-0"></path><path fill="#000000" d="M 226 149 A 4 4 0 1 1 225.99999800000018 148.99600000066667 Z" class="highcharts-point highcharts-color-0"></path><path fill="#000000" d="M 226 219 A 4 4 0 1 1 225.99999800000018 218.99600000066667 Z" class="highcharts-point highcharts-color-0"></path><path fill="#000000" d="M 226 219 A 4 4 0 1 1 225.99999800000018 218.99600000066667 Z" class="highcharts-point highcharts-color-0"></path><path fill="#000000" d="M 226 114 A 4 4 0 1 1 225.99999800000018 113.99600000066667 Z" class="highcharts-point highcharts-color-0"></path><path fill="#000000" d="M 226 219 A 4 4 0 1 1 225.99999800000018 218.99600000066667 Z" class="highcharts-point highcharts-color-0"></path><path fill="#000000" d="M 226 149 A 4 4 0 1 1 225.99999800000018 148.99600000066667 Z" class="highcharts-point highcharts-color-0"></path><path fill="#000000" d="M 226 149 A 4 4 0 1 1 225.99999800000018 148.99600000066667 Z" class="highcharts-point highcharts-color-0"></path><path fill="#000000" d="M 226 79 A 4 4 0 1 1 225.99999800000018 78.99600000066667 Z" class="highcharts-point highcharts-color-0"></path><path fill="#000000" d="M 195 219 A 4 4 0 1 1 194.99999800000018 218.99600000066667 Z" class="highcharts-point highcharts-color-0"></path><path fill="#000000" d="M 195 149 A 4 4 0 1 1 194.99999800000018 148.99600000066667 Z" class="highcharts-point highcharts-color-0"></path><path fill="#000000" d="M 195 219 A 4 4 0 1 1 194.99999800000018 218.99600000066667 Z" class="highcharts-point highcharts-color-0"></path><path fill="#000000" d="M 195 136 A 4 4 0 1 1 194.99999800000018 135.99600000066667 Z" class="highcharts-point highcharts-color-0"></path><path fill="#000000" d="M 211 219 A 4 4 0 1 1 210.99999800000018 218.99600000066667 Z" class="highcharts-point highcharts-color-0"></path><path fill="#000000" d="M 211 180 A 4 4 0 1 1 210.99999800000018 179.99600000066667 Z" class="highcharts-point highcharts-color-0"></path><path fill="#000000" d="M 211 219 A 4 4 0 1 1 210.99999800000018 218.99600000066667 Z" class="highcharts-point highcharts-color-0"></path><path fill="#000000" d="M 179 219 A 4 4 0 1 1 178.99999800000018 218.99600000066667 Z" class="highcharts-point highcharts-color-0"></path><path fill="#000000" d="M 179 101 A 4 4 0 1 1 178.99999800000018 100.99600000066667 Z" class="highcharts-point highcharts-color-0"></path><path fill="#000000" d="M 179 101 A 4 4 0 1 1 178.99999800000018 100.99600000066667 Z" class="highcharts-point highcharts-color-0"></path><path fill="#000000" d="M 195 101 A 4 4 0 1 1 194.99999800000018 100.99600000066667 Z" class="highcharts-point highcharts-color-0"></path><path fill="#000000" d="M 195 219 A 4 4 0 1 1 194.99999800000018 218.99600000066667 Z" class="highcharts-point highcharts-color-0"></path><path fill="#000000" d="M 195 171 A 4 4 0 1 1 194.99999800000018 170.99600000066667 Z" class="highcharts-point highcharts-color-0"></path><path fill="#000000" d="M 195 219 A 4 4 0 1 1 194.99999800000018 218.99600000066667 Z" class="highcharts-point highcharts-color-0"></path><path fill="#000000" d="M 226 219 A 4 4 0 1 1 225.99999800000018 218.99600000066667 Z" class="highcharts-point highcharts-color-0"></path><path fill="#000000" d="M 226 167 A 4 4 0 1 1 225.99999800000018 166.99600000066667 Z" class="highcharts-point highcharts-color-0"></path><path fill="#000000" d="M 226 145 A 4 4 0 1 1 225.99999800000018 144.99600000066667 Z" class="highcharts-point highcharts-color-0"></path><path fill="#000000" d="M 226 219 A 4 4 0 1 1 225.99999800000018 218.99600000066667 Z" class="highcharts-point highcharts-color-0"></path><path fill="#000000" d="M 226 219 A 4 4 0 1 1 225.99999800000018 218.99600000066667 Z" class="highcharts-point highcharts-color-0"></path><path fill="#000000" d="M 226 219 A 4 4 0 1 1 225.99999800000018 218.99600000066667 Z" class="highcharts-point highcharts-color-0"></path><path fill="#000000" d="M 211 219 A 4 4 0 1 1 210.99999800000018 218.99600000066667 Z" class="highcharts-point highcharts-color-0"></path><path fill="#000000" d="M 211 219 A 4 4 0 1 1 210.99999800000018 218.99600000066667 Z" class="highcharts-point highcharts-color-0"></path><path fill="#000000" d="M 211 219 A 4 4 0 1 1 210.99999800000018 218.99600000066667 Z" class="highcharts-point highcharts-color-0"></path><path fill="#000000" d="M 211 219 A 4 4 0 1 1 210.99999800000018 218.99600000066667 Z" class="highcharts-point highcharts-color-0"></path><path fill="#000000" d="M 211 175 A 4 4 0 1 1 210.99999800000018 174.99600000066667 Z" class="highcharts-point highcharts-color-0"></path><path fill="#000000" d="M 195 171 A 4 4 0 1 1 194.99999800000018 170.99600000066667 Z" class="highcharts-point highcharts-color-0"></path><path fill="#000000" d="M 211 219 A 4 4 0 1 1 210.99999800000018 218.99600000066667 Z" class="highcharts-point highcharts-color-0"></path><path fill="#000000" d="M 211 219 A 4 4 0 1 1 210.99999800000018 218.99600000066667 Z" class="highcharts-point highcharts-color-0"></path><path fill="#000000" d="M 211 219 A 4 4 0 1 1 210.99999800000018 218.99600000066667 Z" class="highcharts-point highcharts-color-0"></path><path fill="#000000" d="M 211 136 A 4 4 0 1 1 210.99999800000018 135.99600000066667 Z" class="highcharts-point highcharts-color-0"></path><path fill="#000000" d="M 211 219 A 4 4 0 1 1 210.99999800000018 218.99600000066667 Z" class="highcharts-point highcharts-color-0"></path><path fill="#000000" d="M 211 219 A 4 4 0 1 1 210.99999800000018 218.99600000066667 Z" class="highcharts-point highcharts-color-0"></path><path fill="#000000" d="M 195 219 A 4 4 0 1 1 194.99999800000018 218.99600000066667 Z" class="highcharts-point highcharts-color-0"></path><path fill="#000000" d="M 195 219 A 4 4 0 1 1 194.99999800000018 218.99600000066667 Z" class="highcharts-point highcharts-color-0"></path><path fill="#000000" d="M 179 219 A 4 4 0 1 1 178.99999800000018 218.99600000066667 Z" class="highcharts-point highcharts-color-0"></path><path fill="#000000" d="M 164 219 A 4 4 0 1 1 163.99999800000018 218.99600000066667 Z" class="highcharts-point highcharts-color-0"></path><path fill="#000000" d="M 211 219 A 4 4 0 1 1 210.99999800000018 218.99600000066667 Z" class="highcharts-point highcharts-color-0"></path><path fill="#000000" d="M 226 219 A 4 4 0 1 1 225.99999800000018 218.99600000066667 Z" class="highcharts-point highcharts-color-0"></path><path fill="#000000" d="M 226 219 A 4 4 0 1 1 225.99999800000018 218.99600000066667 Z" class="highcharts-point highcharts-color-0"></path><path fill="#000000" d="M 40 219 A 4 4 0 1 1 39.99999800000017 218.99600000066667 Z" class="highcharts-point highcharts-color-0"></path><path fill="#000000" d="M 40 123 A 4 4 0 1 1 39.99999800000017 122.99600000066667 Z" class="highcharts-point highcharts-color-0"></path><path fill="#000000" d="M 71 149 A 4 4 0 1 1 70.99999800000016 148.99600000066667 Z" class="highcharts-point highcharts-color-0"></path><path fill="#000000" d="M 86 219 A 4 4 0 1 1 85.99999800000016 218.99600000066667 Z" class="highcharts-point highcharts-color-0"></path><path fill="#000000" d="M 102 132 A 4 4 0 1 1 101.99999800000016 131.99600000066667 Z" class="highcharts-point highcharts-color-0"></path><path fill="#000000" d="M 133 219 A 4 4 0 1 1 132.99999800000018 218.99600000066667 Z" class="highcharts-point highcharts-color-0"></path><path fill="#000000" d="M 102 219 A 4 4 0 1 1 101.99999800000016 218.99600000066667 Z" class="highcharts-point highcharts-color-0"></path><path fill="#000000" d="M 102 219 A 4 4 0 1 1 101.99999800000016 218.99600000066667 Z" class="highcharts-point highcharts-color-0"></path><path fill="#000000" d="M 117 219 A 4 4 0 1 1 116.99999800000016 218.99600000066667 Z" class="highcharts-point highcharts-color-0"></path><path fill="#000000" d="M 102 219 A 4 4 0 1 1 101.99999800000016 218.99600000066667 Z" class="highcharts-point highcharts-color-0"></path><path fill="#000000" d="M 179 143 A 4 4 0 1 1 178.99999800000018 142.99600000066667 Z" class="highcharts-point highcharts-color-0"></path><path fill="#000000" d="M 148 114 A 4 4 0 1 1 147.99999800000018 113.99600000066667 Z" class="highcharts-point highcharts-color-0"></path><path fill="#000000" d="M 133 79 A 4 4 0 1 1 132.99999800000018 78.99600000066667 Z" class="highcharts-point highcharts-color-0"></path><path fill="#000000" d="M 102 137 A 4 4 0 1 1 101.99999800000016 136.99600000066667 Z" class="highcharts-point highcharts-color-0"></path><path fill="#000000" d="M 71 219 A 4 4 0 1 1 70.99999800000016 218.99600000066667 Z" class="highcharts-point highcharts-color-0"></path><path fill="#000000" d="M 86 167 A 4 4 0 1 1 85.99999800000016 166.99600000066667 Z" class="highcharts-point highcharts-color-0"></path><path fill="#000000" d="M 86 158 A 4 4 0 1 1 85.99999800000016 157.99600000066667 Z" class="highcharts-point highcharts-color-0"></path><path fill="#000000" d="M 102 184 A 4 4 0 1 1 101.99999800000016 183.99600000066667 Z" class="highcharts-point highcharts-color-0"></path><path fill="#000000" d="M 102 137 A 4 4 0 1 1 101.99999800000016 136.99600000066667 Z" class="highcharts-point highcharts-color-0"></path><path fill="#000000" d="M 86 219 A 4 4 0 1 1 85.99999800000016 218.99600000066667 Z" class="highcharts-point highcharts-color-0"></path><path fill="#000000" d="M 71 219 A 4 4 0 1 1 70.99999800000016 218.99600000066667 Z" class="highcharts-point highcharts-color-0"></path><path fill="#000000" d="M 55 137 A 4 4 0 1 1 54.99999800000017 136.99600000066667 Z" class="highcharts-point highcharts-color-0"></path><path fill="#000000" d="M 9 219 A 4 4 0 1 1 8.999998000000167 218.99600000066667 Z" class="highcharts-point highcharts-color-0"></path><path fill="#000000" d="M 9 149 A 4 4 0 1 1 8.999998000000167 148.99600000066667 Z" class="highcharts-point highcharts-color-0"></path><path fill="#000000" d="M 9 149 A 4 4 0 1 1 8.999998000000167 148.99600000066667 Z" class="highcharts-point highcharts-color-0"></path><path fill="#000000" d="M 9 219 A 4 4 0 1 1 8.999998000000167 218.99600000066667 Z" class="highcharts-point highcharts-color-0"></path><path fill="#000000" d="M 9 219 A 4 4 0 1 1 8.999998000000167 218.99600000066667 Z" class="highcharts-point highcharts-color-0"></path><path fill="#000000" d="M 24 219 A 4 4 0 1 1 23.99999800000017 218.99600000066667 Z" class="highcharts-point highcharts-color-0"></path><path fill="#000000" d="M 40 219 A 4 4 0 1 1 39.99999800000017 218.99600000066667 Z" class="highcharts-point highcharts-color-0"></path><path fill="#000000" d="M 86 219 A 4 4 0 1 1 85.99999800000016 218.99600000066667 Z" class="highcharts-point highcharts-color-0"></path><path fill="#000000" d="M 102 219 A 4 4 0 1 1 101.99999800000016 218.99600000066667 Z" class="highcharts-point highcharts-color-0"></path><path fill="#000000" d="M 102 137 A 4 4 0 1 1 101.99999800000016 136.99600000066667 Z" class="highcharts-point highcharts-color-0"></path><path fill="#000000" d="M 102 219 A 4 4 0 1 1 101.99999800000016 218.99600000066667 Z" class="highcharts-point highcharts-color-0"></path><path fill="#000000" d="M 102 137 A 4 4 0 1 1 101.99999800000016 136.99600000066667 Z" class="highcharts-point highcharts-color-0"></path><path fill="#000000" d="M 102 158 A 4 4 0 1 1 101.99999800000016 157.99600000066667 Z" class="highcharts-point highcharts-color-0"></path><path fill="#000000" d="M 86 202 A 4 4 0 1 1 85.99999800000016 201.99600000066667 Z" class="highcharts-point highcharts-color-0"></path><path fill="#000000" d="M 55 219 A 4 4 0 1 1 54.99999800000017 218.99600000066667 Z" class="highcharts-point highcharts-color-0"></path><path fill="#000000" d="M 9 219 A 4 4 0 1 1 8.999998000000167 218.99600000066667 Z" class="highcharts-point highcharts-color-0"></path><path fill="#000000" d="M 9 219 A 4 4 0 1 1 8.999998000000167 218.99600000066667 Z" class="highcharts-point highcharts-color-0"></path><path fill="#000000" d="M 9 172 A 4 4 0 1 1 8.999998000000167 171.99600000066667 Z" class="highcharts-point highcharts-color-0"></path><path fill="#000000" d="M 9 167 A 4 4 0 1 1 8.999998000000167 166.99600000066667 Z" class="highcharts-point highcharts-color-0"></path><path fill="#000000" d="M 9 114 A 4 4 0 1 1 8.999998000000167 113.99600000066667 Z" class="highcharts-point highcharts-color-0"></path><path fill="#000000" d="M 9 219 A 4 4 0 1 1 8.999998000000167 218.99600000066667 Z" class="highcharts-point highcharts-color-0"></path><path fill="#000000" d="M 9 137 A 4 4 0 1 1 8.999998000000167 136.99600000066667 Z" class="highcharts-point highcharts-color-0"></path><path fill="#000000" d="M 9 132 A 4 4 0 1 1 8.999998000000167 131.99600000066667 Z" class="highcharts-point highcharts-color-0"></path><path fill="#000000" d="M 9 219 A 4 4 0 1 1 8.999998000000167 218.99600000066667 Z" class="highcharts-point highcharts-color-0"></path><path fill="#000000" d="M 9 123 A 4 4 0 1 1 8.999998000000167 122.99600000066667 Z" class="highcharts-point highcharts-color-0"></path><path fill="#000000" d="M 9 158 A 4 4 0 1 1 8.999998000000167 157.99600000066667 Z" class="highcharts-point highcharts-color-0"></path><path fill="#000000" d="M 9 167 A 4 4 0 1 1 8.999998000000167 166.99600000066667 Z" class="highcharts-point highcharts-color-0"></path><path fill="#000000" d="M 9 132 A 4 4 0 1 1 8.999998000000167 131.99600000066667 Z" class="highcharts-point highcharts-color-0"></path><path fill="#000000" d="M 9 132 A 4 4 0 1 1 8.999998000000167 131.99600000066667 Z" class="highcharts-point highcharts-color-0"></path><path fill="#000000" d="M 9 167 A 4 4 0 1 1 8.999998000000167 166.99600000066667 Z" class="highcharts-point highcharts-color-0"></path><path fill="#000000" d="M 9 158 A 4 4 0 1 1 8.999998000000167 157.99600000066667 Z" class="highcharts-point highcharts-color-0"></path><path fill="#000000" d="M 9 96 A 4 4 0 1 1 8.999998000000167 95.99600000066667 Z" class="highcharts-point highcharts-color-0"></path><path fill="#000000" d="M 9 132 A 4 4 0 1 1 8.999998000000167 131.99600000066667 Z" class="highcharts-point highcharts-color-0"></path><path fill="#000000" d="M 9 158 A 4 4 0 1 1 8.999998000000167 157.99600000066667 Z" class="highcharts-point highcharts-color-0"></path><path fill="#000000" d="M 9 114 A 4 4 0 1 1 8.999998000000167 113.99600000066667 Z" class="highcharts-point highcharts-color-0"></path><path fill="#000000" d="M 9 149 A 4 4 0 1 1 8.999998000000167 148.99600000066667 Z" class="highcharts-point highcharts-color-0"></path><path fill="#000000" d="M 9 123 A 4 4 0 1 1 8.999998000000167 122.99600000066667 Z" class="highcharts-point highcharts-color-0"></path><path fill="#000000" d="M 9 88 A 4 4 0 1 1 8.999998000000167 87.99600000066667 Z" class="highcharts-point highcharts-color-0"></path><path fill="#000000" d="M 9 132 A 4 4 0 1 1 8.999998000000167 131.99600000066667 Z" class="highcharts-point highcharts-color-0"></path><path fill="#000000" d="M 9 123 A 4 4 0 1 1 8.999998000000167 122.99600000066667 Z" class="highcharts-point highcharts-color-0"></path><path fill="#000000" d="M 9 132 A 4 4 0 1 1 8.999998000000167 131.99600000066667 Z" class="highcharts-point highcharts-color-0"></path><path fill="#000000" d="M 9 140 A 4 4 0 1 1 8.999998000000167 139.99600000066667 Z" class="highcharts-point highcharts-color-0"></path><path fill="#000000" d="M 9 114 A 4 4 0 1 1 8.999998000000167 113.99600000066667 Z" class="highcharts-point highcharts-color-0"></path><path fill="#000000" d="M 9 123 A 4 4 0 1 1 8.999998000000167 122.99600000066667 Z" class="highcharts-point highcharts-color-0"></path><path fill="#000000" d="M 9 123 A 4 4 0 1 1 8.999998000000167 122.99600000066667 Z" class="highcharts-point highcharts-color-0"></path><path fill="#000000" d="M 9 158 A 4 4 0 1 1 8.999998000000167 157.99600000066667 Z" class="highcharts-point highcharts-color-0"></path><path fill="#000000" d="M 9 114 A 4 4 0 1 1 8.999998000000167 113.99600000066667 Z" class="highcharts-point highcharts-color-0"></path><path fill="#000000" d="M 9 123 A 4 4 0 1 1 8.999998000000167 122.99600000066667 Z" class="highcharts-point highcharts-color-0"></path><path fill="#000000" d="M 9 132 A 4 4 0 1 1 8.999998000000167 131.99600000066667 Z" class="highcharts-point highcharts-color-0"></path><path fill="#000000" d="M 9 132 A 4 4 0 1 1 8.999998000000167 131.99600000066667 Z" class="highcharts-point highcharts-color-0"></path><path fill="#000000" d="M 9 114 A 4 4 0 1 1 8.999998000000167 113.99600000066667 Z" class="highcharts-point highcharts-color-0"></path><path fill="#000000" d="M 9 123 A 4 4 0 1 1 8.999998000000167 122.99600000066667 Z" class="highcharts-point highcharts-color-0"></path><path fill="#000000" d="M 9 149 A 4 4 0 1 1 8.999998000000167 148.99600000066667 Z" class="highcharts-point highcharts-color-0"></path><path fill="#000000" d="M 9 123 A 4 4 0 1 1 8.999998000000167 122.99600000066667 Z" class="highcharts-point highcharts-color-0"></path><path fill="#000000" d="M 9 123 A 4 4 0 1 1 8.999998000000167 122.99600000066667 Z" class="highcharts-point highcharts-color-0"></path><path fill="#000000" d="M 9 132 A 4 4 0 1 1 8.999998000000167 131.99600000066667 Z" class="highcharts-point highcharts-color-0"></path><path fill="#000000" d="M 9 123 A 4 4 0 1 1 8.999998000000167 122.99600000066667 Z" class="highcharts-point highcharts-color-0"></path><path fill="#000000" d="M 9 132 A 4 4 0 1 1 8.999998000000167 131.99600000066667 Z" class="highcharts-point highcharts-color-0"></path><path fill="#000000" d="M 9 110 A 4 4 0 1 1 8.999998000000167 109.99600000066667 Z" class="highcharts-point highcharts-color-0"></path><path fill="#000000" d="M 9 105 A 4 4 0 1 1 8.999998000000167 104.99600000066667 Z" class="highcharts-point highcharts-color-0"></path><path fill="#000000" d="M 9 114 A 4 4 0 1 1 8.999998000000167 113.99600000066667 Z" class="highcharts-point highcharts-color-0"></path><path fill="#000000" d="M 9 105 A 4 4 0 1 1 8.999998000000167 104.99600000066667 Z" class="highcharts-point highcharts-color-0"></path><path fill="#000000" d="M 9 132 A 4 4 0 1 1 8.999998000000167 131.99600000066667 Z" class="highcharts-point highcharts-color-0"></path><path fill="#000000" d="M 9 132 A 4 4 0 1 1 8.999998000000167 131.99600000066667 Z" class="highcharts-point highcharts-color-0"></path><path fill="#000000" d="M 9 123 A 4 4 0 1 1 8.999998000000167 122.99600000066667 Z" class="highcharts-point highcharts-color-0"></path><path fill="#000000" d="M 9 158 A 4 4 0 1 1 8.999998000000167 157.99600000066667 Z" class="highcharts-point highcharts-color-0"></path><path fill="#000000" d="M 9 123 A 4 4 0 1 1 8.999998000000167 122.99600000066667 Z" class="highcharts-point highcharts-color-0"></path><path fill="#000000" d="M 9 158 A 4 4 0 1 1 8.999998000000167 157.99600000066667 Z" class="highcharts-point highcharts-color-0"></path><path fill="#000000" d="M 9 123 A 4 4 0 1 1 8.999998000000167 122.99600000066667 Z" class="highcharts-point highcharts-color-0"></path><path fill="#000000" d="M 9 140 A 4 4 0 1 1 8.999998000000167 139.99600000066667 Z" class="highcharts-point highcharts-color-0"></path><path fill="#000000" d="M 9 158 A 4 4 0 1 1 8.999998000000167 157.99600000066667 Z" class="highcharts-point highcharts-color-0"></path><path fill="#000000" d="M 9 123 A 4 4 0 1 1 8.999998000000167 122.99600000066667 Z" class="highcharts-point highcharts-color-0"></path><path fill="#000000" d="M 9 140 A 4 4 0 1 1 8.999998000000167 139.99600000066667 Z" class="highcharts-point highcharts-color-0"></path><path fill="#000000" d="M 9 114 A 4 4 0 1 1 8.999998000000167 113.99600000066667 Z" class="highcharts-point highcharts-color-0"></path><path fill="#000000" d="M 9 149 A 4 4 0 1 1 8.999998000000167 148.99600000066667 Z" class="highcharts-point highcharts-color-0"></path><path fill="#000000" d="M 9 132 A 4 4 0 1 1 8.999998000000167 131.99600000066667 Z" class="highcharts-point highcharts-color-0"></path><path fill="#000000" d="M 9 123 A 4 4 0 1 1 8.999998000000167 122.99600000066667 Z" class="highcharts-point highcharts-color-0"></path><path fill="#000000" d="M 9 132 A 4 4 0 1 1 8.999998000000167 131.99600000066667 Z" class="highcharts-point highcharts-color-0"></path><path fill="#000000" d="M 9 114 A 4 4 0 1 1 8.999998000000167 113.99600000066667 Z" class="highcharts-point highcharts-color-0"></path><path fill="#000000" d="M 9 132 A 4 4 0 1 1 8.999998000000167 131.99600000066667 Z" class="highcharts-point highcharts-color-0"></path><path fill="#000000" d="M 9 123 A 4 4 0 1 1 8.999998000000167 122.99600000066667 Z" class="highcharts-point highcharts-color-0"></path><path fill="#000000" d="M 9 140 A 4 4 0 1 1 8.999998000000167 139.99600000066667 Z" class="highcharts-point highcharts-color-0"></path><path fill="#000000" d="M 9 96 A 4 4 0 1 1 8.999998000000167 95.99600000066667 Z" class="highcharts-point highcharts-color-0"></path><path fill="#000000" d="M 9 132 A 4 4 0 1 1 8.999998000000167 131.99600000066667 Z" class="highcharts-point highcharts-color-0"></path><path fill="#000000" d="M 9 149 A 4 4 0 1 1 8.999998000000167 148.99600000066667 Z" class="highcharts-point highcharts-color-0"></path><path fill="#000000" d="M 9 140 A 4 4 0 1 1 8.999998000000167 139.99600000066667 Z" class="highcharts-point highcharts-color-0"></path><path fill="#000000" d="M 9 123 A 4 4 0 1 1 8.999998000000167 122.99600000066667 Z" class="highcharts-point highcharts-color-0"></path><path fill="#000000" d="M 9 123 A 4 4 0 1 1 8.999998000000167 122.99600000066667 Z" class="highcharts-point highcharts-color-0"></path><path fill="#000000" d="M 9 149 A 4 4 0 1 1 8.999998000000167 148.99600000066667 Z" class="highcharts-point highcharts-color-0"></path><path fill="#000000" d="M 9 149 A 4 4 0 1 1 8.999998000000167 148.99600000066667 Z" class="highcharts-point highcharts-color-0"></path><path fill="#000000" d="M 9 132 A 4 4 0 1 1 8.999998000000167 131.99600000066667 Z" class="highcharts-point highcharts-color-0"></path><path fill="#000000" d="M 9 132 A 4 4 0 1 1 8.999998000000167 131.99600000066667 Z" class="highcharts-point highcharts-color-0"></path><path fill="#000000" d="M 9 132 A 4 4 0 1 1 8.999998000000167 131.99600000066667 Z" class="highcharts-point highcharts-color-0"></path><path fill="#000000" d="M 9 123 A 4 4 0 1 1 8.999998000000167 122.99600000066667 Z" class="highcharts-point highcharts-color-0"></path><path fill="#000000" d="M 9 123 A 4 4 0 1 1 8.999998000000167 122.99600000066667 Z" class="highcharts-point highcharts-color-0"></path><path fill="#000000" d="M 9 132 A 4 4 0 1 1 8.999998000000167 131.99600000066667 Z" class="highcharts-point highcharts-color-0"></path><path fill="#000000" d="M 9 88 A 4 4 0 1 1 8.999998000000167 87.99600000066667 Z" class="highcharts-point highcharts-color-0"></path><path fill="#000000" d="M 9 123 A 4 4 0 1 1 8.999998000000167 122.99600000066667 Z" class="highcharts-point highcharts-color-0"></path><path fill="#000000" d="M 9 123 A 4 4 0 1 1 8.999998000000167 122.99600000066667 Z" class="highcharts-point highcharts-color-0"></path><path fill="#000000" d="M 9 132 A 4 4 0 1 1 8.999998000000167 131.99600000066667 Z" class="highcharts-point highcharts-color-0"></path><path fill="#000000" d="M 9 132 A 4 4 0 1 1 8.999998000000167 131.99600000066667 Z" class="highcharts-point highcharts-color-0"></path><path fill="#000000" d="M 9 149 A 4 4 0 1 1 8.999998000000167 148.99600000066667 Z" class="highcharts-point highcharts-color-0"></path><path fill="#000000" d="M 9 123 A 4 4 0 1 1 8.999998000000167 122.99600000066667 Z" class="highcharts-point highcharts-color-0"></path><path fill="#000000" d="M 9 114 A 4 4 0 1 1 8.999998000000167 113.99600000066667 Z" class="highcharts-point highcharts-color-0"></path><path fill="#000000" d="M 9 123 A 4 4 0 1 1 8.999998000000167 122.99600000066667 Z" class="highcharts-point highcharts-color-0"></path><path fill="#000000" d="M 9 114 A 4 4 0 1 1 8.999998000000167 113.99600000066667 Z" class="highcharts-point highcharts-color-0"></path><path fill="#000000" d="M 9 123 A 4 4 0 1 1 8.999998000000167 122.99600000066667 Z" class="highcharts-point highcharts-color-0"></path><path fill="#000000" d="M 9 123 A 4 4 0 1 1 8.999998000000167 122.99600000066667 Z" class="highcharts-point highcharts-color-0"></path><path fill="#000000" d="M 9 132 A 4 4 0 1 1 8.999998000000167 131.99600000066667 Z" class="highcharts-point highcharts-color-0"></path><path fill="#000000" d="M 9 123 A 4 4 0 1 1 8.999998000000167 122.99600000066667 Z" class="highcharts-point highcharts-color-0"></path><path fill="#000000" d="M 9 114 A 4 4 0 1 1 8.999998000000167 113.99600000066667 Z" class="highcharts-point highcharts-color-0"></path><path fill="#000000" d="M 9 158 A 4 4 0 1 1 8.999998000000167 157.99600000066667 Z" class="highcharts-point highcharts-color-0"></path><path fill="#000000" d="M 9 114 A 4 4 0 1 1 8.999998000000167 113.99600000066667 Z" class="highcharts-point highcharts-color-0"></path><path fill="#000000" d="M 9 114 A 4 4 0 1 1 8.999998000000167 113.99600000066667 Z" class="highcharts-point highcharts-color-0"></path><path fill="#000000" d="M 9 123 A 4 4 0 1 1 8.999998000000167 122.99600000066667 Z" class="highcharts-point highcharts-color-0"></path><path fill="#000000" d="M 9 123 A 4 4 0 1 1 8.999998000000167 122.99600000066667 Z" class="highcharts-point highcharts-color-0"></path><path fill="#000000" d="M 9 123 A 4 4 0 1 1 8.999998000000167 122.99600000066667 Z" class="highcharts-point highcharts-color-0"></path><path fill="#000000" d="M 9 132 A 4 4 0 1 1 8.999998000000167 131.99600000066667 Z" class="highcharts-point highcharts-color-0"></path><path fill="#000000" d="M 40 114 A 4 4 0 1 1 39.99999800000017 113.99600000066667 Z" class="highcharts-point highcharts-color-0"></path><path fill="#000000" d="M 9 132 A 4 4 0 1 1 8.999998000000167 131.99600000066667 Z" class="highcharts-point highcharts-color-0"></path><path fill="#000000" d="M 9 132 A 4 4 0 1 1 8.999998000000167 131.99600000066667 Z" class="highcharts-point highcharts-color-0"></path><path fill="#000000" d="M 9 123 A 4 4 0 1 1 8.999998000000167 122.99600000066667 Z" class="highcharts-point highcharts-color-0"></path><path fill="#000000" d="M 9 123 A 4 4 0 1 1 8.999998000000167 122.99600000066667 Z" class="highcharts-point highcharts-color-0"></path><path fill="#000000" d="M 9 123 A 4 4 0 1 1 8.999998000000167 122.99600000066667 Z" class="highcharts-point highcharts-color-0"></path><path fill="#000000" d="M 9 123 A 4 4 0 1 1 8.999998000000167 122.99600000066667 Z" class="highcharts-point highcharts-color-0"></path><path fill="#000000" d="M 9 114 A 4 4 0 1 1 8.999998000000167 113.99600000066667 Z" class="highcharts-point highcharts-color-0"></path><path fill="#000000" d="M 9 123 A 4 4 0 1 1 8.999998000000167 122.99600000066667 Z" class="highcharts-point highcharts-color-0"></path><path fill="#000000" d="M 40 114 A 4 4 0 1 1 39.99999800000017 113.99600000066667 Z" class="highcharts-point highcharts-color-0"></path><path fill="#000000" d="M 40 123 A 4 4 0 1 1 39.99999800000017 122.99600000066667 Z" class="highcharts-point highcharts-color-0"></path><path fill="#000000" d="M 40 123 A 4 4 0 1 1 39.99999800000017 122.99600000066667 Z" class="highcharts-point highcharts-color-0"></path><path fill="#000000" d="M 40 123 A 4 4 0 1 1 39.99999800000017 122.99600000066667 Z" class="highcharts-point highcharts-color-0"></path><path fill="#000000" d="M 40 114 A 4 4 0 1 1 39.99999800000017 113.99600000066667 Z" class="highcharts-point highcharts-color-0"></path><path fill="#000000" d="M 9 114 A 4 4 0 1 1 8.999998000000167 113.99600000066667 Z" class="highcharts-point highcharts-color-0"></path><path fill="#000000" d="M 9 123 A 4 4 0 1 1 8.999998000000167 122.99600000066667 Z" class="highcharts-point highcharts-color-0"></path><path fill="#000000" d="M 9 158 A 4 4 0 1 1 8.999998000000167 157.99600000066667 Z" class="highcharts-point highcharts-color-0"></path><path fill="#000000" d="M 9 123 A 4 4 0 1 1 8.999998000000167 122.99600000066667 Z" class="highcharts-point highcharts-color-0"></path><path fill="#000000" d="M 9 123 A 4 4 0 1 1 8.999998000000167 122.99600000066667 Z" class="highcharts-point highcharts-color-0"></path><path fill="#000000" d="M 9 123 A 4 4 0 1 1 8.999998000000167 122.99600000066667 Z" class="highcharts-point highcharts-color-0"></path><path fill="#000000" d="M 9 123 A 4 4 0 1 1 8.999998000000167 122.99600000066667 Z" class="highcharts-point highcharts-color-0"></path><path fill="#000000" d="M 9 123 A 4 4 0 1 1 8.999998000000167 122.99600000066667 Z" class="highcharts-point highcharts-color-0"></path><path fill="#000000" d="M 9 123 A 4 4 0 1 1 8.999998000000167 122.99600000066667 Z" class="highcharts-point highcharts-color-0"></path><path fill="#000000" d="M 9 123 A 4 4 0 1 1 8.999998000000167 122.99600000066667 Z" class="highcharts-point highcharts-color-0"></path><path fill="#000000" d="M 9 123 A 4 4 0 1 1 8.999998000000167 122.99600000066667 Z" class="highcharts-point highcharts-color-0"></path><path fill="#000000" d="M 9 123 A 4 4 0 1 1 8.999998000000167 122.99600000066667 Z" class="highcharts-point highcharts-color-0"></path><path fill="#000000" d="M 9 123 A 4 4 0 1 1 8.999998000000167 122.99600000066667 Z" class="highcharts-point highcharts-color-0"></path><path fill="#000000" d="M 9 114 A 4 4 0 1 1 8.999998000000167 113.99600000066667 Z" class="highcharts-point highcharts-color-0"></path><path fill="#000000" d="M 9 123 A 4 4 0 1 1 8.999998000000167 122.99600000066667 Z" class="highcharts-point highcharts-color-0"></path><path fill="#000000" d="M 9 123 A 4 4 0 1 1 8.999998000000167 122.99600000066667 Z" class="highcharts-point highcharts-color-0"></path><path fill="#000000" d="M 9 123 A 4 4 0 1 1 8.999998000000167 122.99600000066667 Z" class="highcharts-point highcharts-color-0"></path><path fill="#000000" d="M 9 123 A 4 4 0 1 1 8.999998000000167 122.99600000066667 Z" class="highcharts-point highcharts-color-0"></path><path fill="#000000" d="M 9 105 A 4 4 0 1 1 8.999998000000167 104.99600000066667 Z" class="highcharts-point highcharts-color-0"></path><path fill="#000000" d="M 9 114 A 4 4 0 1 1 8.999998000000167 113.99600000066667 Z" class="highcharts-point highcharts-color-0"></path><path fill="#000000" d="M 9 123 A 4 4 0 1 1 8.999998000000167 122.99600000066667 Z" class="highcharts-point highcharts-color-0"></path><path fill="#000000" d="M 9 123 A 4 4 0 1 1 8.999998000000167 122.99600000066667 Z" class="highcharts-point highcharts-color-0"></path><path fill="#000000" d="M 9 123 A 4 4 0 1 1 8.999998000000167 122.99600000066667 Z" class="highcharts-point highcharts-color-0"></path><path fill="#000000" d="M 9 123 A 4 4 0 1 1 8.999998000000167 122.99600000066667 Z" class="highcharts-point highcharts-color-0"></path><path fill="#000000" d="M 9 123 A 4 4 0 1 1 8.999998000000167 122.99600000066667 Z" class="highcharts-point highcharts-color-0"></path><path fill="#000000" d="M 9 123 A 4 4 0 1 1 8.999998000000167 122.99600000066667 Z" class="highcharts-point highcharts-color-0"></path><path fill="#000000" d="M 9 114 A 4 4 0 1 1 8.999998000000167 113.99600000066667 Z" class="highcharts-point highcharts-color-0"></path><path fill="#000000" d="M 9 123 A 4 4 0 1 1 8.999998000000167 122.99600000066667 Z" class="highcharts-point highcharts-color-0"></path><path fill="#000000" d="M 9 114 A 4 4 0 1 1 8.999998000000167 113.99600000066667 Z" class="highcharts-point highcharts-color-0"></path><path fill="#000000" d="M 9 123 A 4 4 0 1 1 8.999998000000167 122.99600000066667 Z" class="highcharts-point highcharts-color-0"></path><path fill="#000000" d="M 9 123 A 4 4 0 1 1 8.999998000000167 122.99600000066667 Z" class="highcharts-point highcharts-color-0"></path><path fill="#000000" d="M 9 105 A 4 4 0 1 1 8.999998000000167 104.99600000066667 Z" class="highcharts-point highcharts-color-0"></path><path fill="#000000" d="M 9 88 A 4 4 0 1 1 8.999998000000167 87.99600000066667 Z" class="highcharts-point highcharts-color-0"></path><path fill="#000000" d="M 9 79 A 4 4 0 1 1 8.999998000000167 78.99600000066667 Z" class="highcharts-point highcharts-color-0"></path><path fill="#000000" d="M 9 88 A 4 4 0 1 1 8.999998000000167 87.99600000066667 Z" class="highcharts-point highcharts-color-0"></path><path fill="#000000" d="M 9 114 A 4 4 0 1 1 8.999998000000167 113.99600000066667 Z" class="highcharts-point highcharts-color-0"></path><path fill="#000000" d="M 9 88 A 4 4 0 1 1 8.999998000000167 87.99600000066667 Z" class="highcharts-point highcharts-color-0"></path><path fill="#000000" d="M 9 114 A 4 4 0 1 1 8.999998000000167 113.99600000066667 Z" class="highcharts-point highcharts-color-0"></path><path fill="#000000" d="M 9 123 A 4 4 0 1 1 8.999998000000167 122.99600000066667 Z" class="highcharts-point highcharts-color-0"></path><path fill="#000000" d="M 9 88 A 4 4 0 1 1 8.999998000000167 87.99600000066667 Z" class="highcharts-point highcharts-color-0"></path><path fill="#000000" d="M 9 114 A 4 4 0 1 1 8.999998000000167 113.99600000066667 Z" class="highcharts-point highcharts-color-0"></path><path fill="#000000" d="M 9 158 A 4 4 0 1 1 8.999998000000167 157.99600000066667 Z" class="highcharts-point highcharts-color-0"></path><path fill="#000000" d="M 9 123 A 4 4 0 1 1 8.999998000000167 122.99600000066667 Z" class="highcharts-point highcharts-color-0"></path><path fill="#000000" d="M 9 123 A 4 4 0 1 1 8.999998000000167 122.99600000066667 Z" class="highcharts-point highcharts-color-0"></path><path fill="#000000" d="M 9 158 A 4 4 0 1 1 8.999998000000167 157.99600000066667 Z" class="highcharts-point highcharts-color-0"></path><path fill="#000000" d="M 9 123 A 4 4 0 1 1 8.999998000000167 122.99600000066667 Z" class="highcharts-point highcharts-color-0"></path><path fill="#000000" d="M 9 123 A 4 4 0 1 1 8.999998000000167 122.99600000066667 Z" class="highcharts-point highcharts-color-0"></path><path fill="#000000" d="M 9 123 A 4 4 0 1 1 8.999998000000167 122.99600000066667 Z" class="highcharts-point highcharts-color-0"></path><path fill="#000000" d="M 9 79 A 4 4 0 1 1 8.999998000000167 78.99600000066667 Z" class="highcharts-point highcharts-color-0"></path><path fill="#000000" d="M 9 88 A 4 4 0 1 1 8.999998000000167 87.99600000066667 Z" class="highcharts-point highcharts-color-0"></path><path fill="#000000" d="M 9 88 A 4 4 0 1 1 8.999998000000167 87.99600000066667 Z" class="highcharts-point highcharts-color-0"></path><path fill="#000000" d="M 9 167 A 4 4 0 1 1 8.999998000000167 166.99600000066667 Z" class="highcharts-point highcharts-color-0"></path><path fill="#000000" d="M 40 88 A 4 4 0 1 1 39.99999800000017 87.99600000066667 Z" class="highcharts-point highcharts-color-0"></path><path fill="#000000" d="M 40 79 A 4 4 0 1 1 39.99999800000017 78.99600000066667 Z" class="highcharts-point highcharts-color-0"></path><path fill="#000000" d="M 40 123 A 4 4 0 1 1 39.99999800000017 122.99600000066667 Z" class="highcharts-point highcharts-color-0"></path><path fill="#000000" d="M 40 96 A 4 4 0 1 1 39.99999800000017 95.99600000066667 Z" class="highcharts-point highcharts-color-0"></path><path fill="#000000" d="M 9 79 A 4 4 0 1 1 8.999998000000167 78.99600000066667 Z" class="highcharts-point highcharts-color-0"></path><path fill="#000000" d="M 40 79 A 4 4 0 1 1 39.99999800000017 78.99600000066667 Z" class="highcharts-point highcharts-color-0"></path><path fill="#000000" d="M 9 123 A 4 4 0 1 1 8.999998000000167 122.99600000066667 Z" class="highcharts-point highcharts-color-0"></path><path fill="#000000" d="M 40 88 A 4 4 0 1 1 39.99999800000017 87.99600000066667 Z" class="highcharts-point highcharts-color-0"></path><path fill="#000000" d="M 195 114 A 4 4 0 1 1 194.99999800000018 113.99600000066667 Z" class="highcharts-point highcharts-color-0"></path><path fill="#000000" d="M 226 123 A 4 4 0 1 1 225.99999800000018 122.99600000066667 Z" class="highcharts-point highcharts-color-0"></path><path fill="#000000" d="M 102 123 A 4 4 0 1 1 101.99999800000016 122.99600000066667 Z" class="highcharts-point highcharts-color-0"></path><path fill="#000000" d="M 164 123 A 4 4 0 1 1 163.99999800000018 122.99600000066667 Z" class="highcharts-point highcharts-color-0"></path><path fill="#000000" d="M 102 123 A 4 4 0 1 1 101.99999800000016 122.99600000066667 Z" class="highcharts-point highcharts-color-0"></path><path fill="#000000" d="M 71 123 A 4 4 0 1 1 70.99999800000016 122.99600000066667 Z" class="highcharts-point highcharts-color-0"></path><path fill="#000000" d="M 195 123 A 4 4 0 1 1 194.99999800000018 122.99600000066667 Z" class="highcharts-point highcharts-color-0"></path><path fill="#000000" d="M 226 114 A 4 4 0 1 1 225.99999800000018 113.99600000066667 Z" class="highcharts-point highcharts-color-0"></path><path fill="#000000" d="M 226 123 A 4 4 0 1 1 225.99999800000018 122.99600000066667 Z" class="highcharts-point highcharts-color-0"></path><path fill="#000000" d="M 226 105 A 4 4 0 1 1 225.99999800000018 104.99600000066667 Z" class="highcharts-point highcharts-color-0"></path><path fill="#000000" d="M 164 123 A 4 4 0 1 1 163.99999800000018 122.99600000066667 Z" class="highcharts-point highcharts-color-0"></path><path fill="#000000" d="M 71 114 A 4 4 0 1 1 70.99999800000016 113.99600000066667 Z" class="highcharts-point highcharts-color-0"></path><path fill="#000000" d="M 9 123 A 4 4 0 1 1 8.999998000000167 122.99600000066667 Z" class="highcharts-point highcharts-color-0"></path><path fill="#000000" d="M 9 132 A 4 4 0 1 1 8.999998000000167 131.99600000066667 Z" class="highcharts-point highcharts-color-0"></path><path fill="#000000" d="M 9 123 A 4 4 0 1 1 8.999998000000167 122.99600000066667 Z" class="highcharts-point highcharts-color-0"></path><path fill="#000000" d="M 133 79 A 4 4 0 1 1 132.99999800000018 78.99600000066667 Z" class="highcharts-point highcharts-color-0"></path><path fill="#000000" d="M 226 123 A 4 4 0 1 1 225.99999800000018 122.99600000066667 Z" class="highcharts-point highcharts-color-0"></path><path fill="#000000" d="M 226 88 A 4 4 0 1 1 225.99999800000018 87.99600000066667 Z" class="highcharts-point highcharts-color-0"></path><path fill="#000000" d="M 226 114 A 4 4 0 1 1 225.99999800000018 113.99600000066667 Z" class="highcharts-point highcharts-color-0"></path><path fill="#000000" d="M 226 44 A 4 4 0 1 1 225.99999800000018 43.99600000066666 Z" class="highcharts-point highcharts-color-0"></path><path fill="#000000" d="M 226 44 A 4 4 0 1 1 225.99999800000018 43.99600000066666 Z" class="highcharts-point highcharts-color-0"></path><path fill="#000000" d="M 226 123 A 4 4 0 1 1 225.99999800000018 122.99600000066667 Z" class="highcharts-point highcharts-color-0"></path><path fill="#000000" d="M 195 123 A 4 4 0 1 1 194.99999800000018 122.99600000066667 Z" class="highcharts-point highcharts-color-0"></path><path fill="#000000" d="M 40 132 A 4 4 0 1 1 39.99999800000017 131.99600000066667 Z" class="highcharts-point highcharts-color-0"></path><path fill="#000000" d="M 9 114 A 4 4 0 1 1 8.999998000000167 113.99600000066667 Z" class="highcharts-point highcharts-color-0"></path><path fill="#000000" d="M 9 123 A 4 4 0 1 1 8.999998000000167 122.99600000066667 Z" class="highcharts-point highcharts-color-0"></path><path fill="#000000" d="M 9 132 A 4 4 0 1 1 8.999998000000167 131.99600000066667 Z" class="highcharts-point highcharts-color-0"></path><path fill="#000000" d="M 9 132 A 4 4 0 1 1 8.999998000000167 131.99600000066667 Z" class="highcharts-point highcharts-color-0"></path><path fill="#000000" d="M 9 132 A 4 4 0 1 1 8.999998000000167 131.99600000066667 Z" class="highcharts-point highcharts-color-0"></path><path fill="#000000" d="M 9 132 A 4 4 0 1 1 8.999998000000167 131.99600000066667 Z" class="highcharts-point highcharts-color-0"></path><path fill="#000000" d="M 9 175 A 4 4 0 1 1 8.999998000000167 174.99600000066667 Z" class="highcharts-point highcharts-color-0"></path><path fill="#000000" d="M 9 175 A 4 4 0 1 1 8.999998000000167 174.99600000066667 Z" class="highcharts-point highcharts-color-0"></path><path fill="#000000" d="M 9 175 A 4 4 0 1 1 8.999998000000167 174.99600000066667 Z" class="highcharts-point highcharts-color-0"></path><path fill="#000000" d="M 9 132 A 4 4 0 1 1 8.999998000000167 131.99600000066667 Z" class="highcharts-point highcharts-color-0"></path><path fill="#000000" d="M 9 88 A 4 4 0 1 1 8.999998000000167 87.99600000066667 Z" class="highcharts-point highcharts-color-0"></path><path fill="#000000" d="M 9 175 A 4 4 0 1 1 8.999998000000167 174.99600000066667 Z" class="highcharts-point highcharts-color-0"></path><path fill="#000000" d="M 9 175 A 4 4 0 1 1 8.999998000000167 174.99600000066667 Z" class="highcharts-point highcharts-color-0"></path><path fill="#000000" d="M 9 175 A 4 4 0 1 1 8.999998000000167 174.99600000066667 Z" class="highcharts-point highcharts-color-0"></path><path fill="#000000" d="M 9 175 A 4 4 0 1 1 8.999998000000167 174.99600000066667 Z" class="highcharts-point highcharts-color-0"></path><path fill="#000000" d="M 9 88 A 4 4 0 1 1 8.999998000000167 87.99600000066667 Z" class="highcharts-point highcharts-color-0"></path><path fill="#000000" d="M 9 88 A 4 4 0 1 1 8.999998000000167 87.99600000066667 Z" class="highcharts-point highcharts-color-0"></path><path fill="#000000" d="M 9 132 A 4 4 0 1 1 8.999998000000167 131.99600000066667 Z" class="highcharts-point highcharts-color-0"></path><path fill="#000000" d="M 9 175 A 4 4 0 1 1 8.999998000000167 174.99600000066667 Z" class="highcharts-point highcharts-color-0"></path><path fill="#000000" d="M 133 132 A 4 4 0 1 1 132.99999800000018 131.99600000066667 Z" class="highcharts-point highcharts-color-0"></path><path fill="#000000" d="M 133 132 A 4 4 0 1 1 132.99999800000018 131.99600000066667 Z" class="highcharts-point highcharts-color-0"></path><path fill="#000000" d="M 133 88 A 4 4 0 1 1 132.99999800000018 87.99600000066667 Z" class="highcharts-point highcharts-color-0"></path><path fill="#000000" d="M 195 132 A 4 4 0 1 1 194.99999800000018 131.99600000066667 Z" class="highcharts-point highcharts-color-0"></path><path fill="#000000" d="M 195 132 A 4 4 0 1 1 194.99999800000018 131.99600000066667 Z" class="highcharts-point highcharts-color-0"></path><path fill="#000000" d="M 195 175 A 4 4 0 1 1 194.99999800000018 174.99600000066667 Z" class="highcharts-point highcharts-color-0"></path><path fill="#000000" d="M 195 132 A 4 4 0 1 1 194.99999800000018 131.99600000066667 Z" class="highcharts-point highcharts-color-0"></path><path fill="#000000" d="M 195 175 A 4 4 0 1 1 194.99999800000018 174.99600000066667 Z" class="highcharts-point highcharts-color-0"></path><path fill="#000000" d="M 102 175 A 4 4 0 1 1 101.99999800000016 174.99600000066667 Z" class="highcharts-point highcharts-color-0"></path><path fill="#000000" d="M 133 132 A 4 4 0 1 1 132.99999800000018 131.99600000066667 Z" class="highcharts-point highcharts-color-0"></path><path fill="#000000" d="M 164 132 A 4 4 0 1 1 163.99999800000018 131.99600000066667 Z" class="highcharts-point highcharts-color-0"></path><path fill="#000000" d="M 102 132 A 4 4 0 1 1 101.99999800000016 131.99600000066667 Z" class="highcharts-point highcharts-color-0"></path><path fill="#000000" d="M 9 175 A 4 4 0 1 1 8.999998000000167 174.99600000066667 Z" class="highcharts-point highcharts-color-0"></path><path fill="#000000" d="M 9 132 A 4 4 0 1 1 8.999998000000167 131.99600000066667 Z" class="highcharts-point highcharts-color-0"></path><path fill="#000000" d="M 9 175 A 4 4 0 1 1 8.999998000000167 174.99600000066667 Z" class="highcharts-point highcharts-color-0"></path><path fill="#000000" d="M 9 175 A 4 4 0 1 1 8.999998000000167 174.99600000066667 Z" class="highcharts-point highcharts-color-0"></path><path fill="#000000" d="M 9 132 A 4 4 0 1 1 8.999998000000167 131.99600000066667 Z" class="highcharts-point highcharts-color-0"></path><path fill="#000000" d="M 9 132 A 4 4 0 1 1 8.999998000000167 131.99600000066667 Z" class="highcharts-point highcharts-color-0"></path><path fill="#000000" d="M 9 132 A 4 4 0 1 1 8.999998000000167 131.99600000066667 Z" class="highcharts-point highcharts-color-0"></path><path fill="#000000" d="M 9 132 A 4 4 0 1 1 8.999998000000167 131.99600000066667 Z" class="highcharts-point highcharts-color-0"></path><path fill="#000000" d="M 9 132 A 4 4 0 1 1 8.999998000000167 131.99600000066667 Z" class="highcharts-point highcharts-color-0"></path><path fill="#000000" d="M 9 132 A 4 4 0 1 1 8.999998000000167 131.99600000066667 Z" class="highcharts-point highcharts-color-0"></path><path fill="#000000" d="M 9 132 A 4 4 0 1 1 8.999998000000167 131.99600000066667 Z" class="highcharts-point highcharts-color-0"></path><path fill="#000000" d="M 9 132 A 4 4 0 1 1 8.999998000000167 131.99600000066667 Z" class="highcharts-point highcharts-color-0"></path><path fill="#000000" d="M 9 132 A 4 4 0 1 1 8.999998000000167 131.99600000066667 Z" class="highcharts-point highcharts-color-0"></path><path fill="#000000" d="M 9 132 A 4 4 0 1 1 8.999998000000167 131.99600000066667 Z" class="highcharts-point highcharts-color-0"></path><path fill="#000000" d="M 9 132 A 4 4 0 1 1 8.999998000000167 131.99600000066667 Z" class="highcharts-point highcharts-color-0"></path><path fill="#000000" d="M 9 132 A 4 4 0 1 1 8.999998000000167 131.99600000066667 Z" class="highcharts-point highcharts-color-0"></path><path fill="#000000" d="M 9 132 A 4 4 0 1 1 8.999998000000167 131.99600000066667 Z" class="highcharts-point highcharts-color-0"></path><path fill="#000000" d="M 9 132 A 4 4 0 1 1 8.999998000000167 131.99600000066667 Z" class="highcharts-point highcharts-color-0"></path><path fill="#000000" d="M 9 132 A 4 4 0 1 1 8.999998000000167 131.99600000066667 Z" class="highcharts-point highcharts-color-0"></path><path fill="#000000" d="M 9 132 A 4 4 0 1 1 8.999998000000167 131.99600000066667 Z" class="highcharts-point highcharts-color-0"></path><path fill="#000000" d="M 9 132 A 4 4 0 1 1 8.999998000000167 131.99600000066667 Z" class="highcharts-point highcharts-color-0"></path><path fill="#000000" d="M 9 132 A 4 4 0 1 1 8.999998000000167 131.99600000066667 Z" class="highcharts-point highcharts-color-0"></path><path fill="#000000" d="M 9 132 A 4 4 0 1 1 8.999998000000167 131.99600000066667 Z" class="highcharts-point highcharts-color-0"></path><path fill="#000000" d="M 9 132 A 4 4 0 1 1 8.999998000000167 131.99600000066667 Z" class="highcharts-point highcharts-color-0"></path><path fill="#000000" d="M 9 132 A 4 4 0 1 1 8.999998000000167 131.99600000066667 Z" class="highcharts-point highcharts-color-0"></path><path fill="#000000" d="M 9 132 A 4 4 0 1 1 8.999998000000167 131.99600000066667 Z" class="highcharts-point highcharts-color-0"></path><path fill="#000000" d="M 9 132 A 4 4 0 1 1 8.999998000000167 131.99600000066667 Z" class="highcharts-point highcharts-color-0"></path><path fill="#000000" d="M 9 132 A 4 4 0 1 1 8.999998000000167 131.99600000066667 Z" class="highcharts-point highcharts-color-0"></path><path fill="#000000" d="M 9 132 A 4 4 0 1 1 8.999998000000167 131.99600000066667 Z" class="highcharts-point highcharts-color-0"></path><path fill="#000000" d="M 9 132 A 4 4 0 1 1 8.999998000000167 131.99600000066667 Z" class="highcharts-point highcharts-color-0"></path><path fill="#000000" d="M 9 132 A 4 4 0 1 1 8.999998000000167 131.99600000066667 Z" class="highcharts-point highcharts-color-0"></path><path fill="#000000" d="M 9 132 A 4 4 0 1 1 8.999998000000167 131.99600000066667 Z" class="highcharts-point highcharts-color-0"></path><path fill="#000000" d="M 9 132 A 4 4 0 1 1 8.999998000000167 131.99600000066667 Z" class="highcharts-point highcharts-color-0"></path><path fill="#000000" d="M 9 88 A 4 4 0 1 1 8.999998000000167 87.99600000066667 Z" class="highcharts-point highcharts-color-0"></path><path fill="#000000" d="M 9 88 A 4 4 0 1 1 8.999998000000167 87.99600000066667 Z" class="highcharts-point highcharts-color-0"></path><path fill="#000000" d="M 9 132 A 4 4 0 1 1 8.999998000000167 131.99600000066667 Z" class="highcharts-point highcharts-color-0"></path><path fill="#000000" d="M 9 132 A 4 4 0 1 1 8.999998000000167 131.99600000066667 Z" class="highcharts-point highcharts-color-0"></path><path fill="#000000" d="M 9 132 A 4 4 0 1 1 8.999998000000167 131.99600000066667 Z" class="highcharts-point highcharts-color-0"></path><path fill="#000000" d="M 9 132 A 4 4 0 1 1 8.999998000000167 131.99600000066667 Z" class="highcharts-point highcharts-color-0"></path><path fill="#000000" d="M 9 132 A 4 4 0 1 1 8.999998000000167 131.99600000066667 Z" class="highcharts-point highcharts-color-0"></path><path fill="#000000" d="M 9 132 A 4 4 0 1 1 8.999998000000167 131.99600000066667 Z" class="highcharts-point highcharts-color-0"></path><path fill="#000000" d="M 9 132 A 4 4 0 1 1 8.999998000000167 131.99600000066667 Z" class="highcharts-point highcharts-color-0"></path><path fill="#000000" d="M 9 132 A 4 4 0 1 1 8.999998000000167 131.99600000066667 Z" class="highcharts-point highcharts-color-0"></path><path fill="#000000" d="M 9 132 A 4 4 0 1 1 8.999998000000167 131.99600000066667 Z" class="highcharts-point highcharts-color-0"></path><path fill="#000000" d="M 9 132 A 4 4 0 1 1 8.999998000000167 131.99600000066667 Z" class="highcharts-point highcharts-color-0"></path><path fill="#000000" d="M 9 132 A 4 4 0 1 1 8.999998000000167 131.99600000066667 Z" class="highcharts-point highcharts-color-0"></path><path fill="#000000" d="M 9 175 A 4 4 0 1 1 8.999998000000167 174.99600000066667 Z" class="highcharts-point highcharts-color-0"></path><path fill="#000000" d="M 9 132 A 4 4 0 1 1 8.999998000000167 131.99600000066667 Z" class="highcharts-point highcharts-color-0"></path><path fill="#000000" d="M 9 132 A 4 4 0 1 1 8.999998000000167 131.99600000066667 Z" class="highcharts-point highcharts-color-0"></path><path fill="#000000" d="M 9 132 A 4 4 0 1 1 8.999998000000167 131.99600000066667 Z" class="highcharts-point highcharts-color-0"></path><path fill="#000000" d="M 9 132 A 4 4 0 1 1 8.999998000000167 131.99600000066667 Z" class="highcharts-point highcharts-color-0"></path><path fill="#000000" d="M 9 132 A 4 4 0 1 1 8.999998000000167 131.99600000066667 Z" class="highcharts-point highcharts-color-0"></path><path fill="#000000" d="M 9 132 A 4 4 0 1 1 8.999998000000167 131.99600000066667 Z" class="highcharts-point highcharts-color-0"></path><path fill="#000000" d="M 9 132 A 4 4 0 1 1 8.999998000000167 131.99600000066667 Z" class="highcharts-point highcharts-color-0"></path><path fill="#000000" d="M 9 132 A 4 4 0 1 1 8.999998000000167 131.99600000066667 Z" class="highcharts-point highcharts-color-0"></path><path fill="#000000" d="M 9 132 A 4 4 0 1 1 8.999998000000167 131.99600000066667 Z" class="highcharts-point highcharts-color-0"></path><path fill="#000000" d="M 9 132 A 4 4 0 1 1 8.999998000000167 131.99600000066667 Z" class="highcharts-point highcharts-color-0"></path><path fill="#000000" d="M 9 132 A 4 4 0 1 1 8.999998000000167 131.99600000066667 Z" class="highcharts-point highcharts-color-0"></path><path fill="#000000" d="M 9 132 A 4 4 0 1 1 8.999998000000167 131.99600000066667 Z" class="highcharts-point highcharts-color-0"></path><path fill="#000000" d="M 9 132 A 4 4 0 1 1 8.999998000000167 131.99600000066667 Z" class="highcharts-point highcharts-color-0"></path><path fill="#000000" d="M 9 132 A 4 4 0 1 1 8.999998000000167 131.99600000066667 Z" class="highcharts-point highcharts-color-0"></path><path fill="#000000" d="M 9 132 A 4 4 0 1 1 8.999998000000167 131.99600000066667 Z" class="highcharts-point highcharts-color-0"></path><path fill="#000000" d="M 9 132 A 4 4 0 1 1 8.999998000000167 131.99600000066667 Z" class="highcharts-point highcharts-color-0"></path><path fill="#000000" d="M 9 175 A 4 4 0 1 1 8.999998000000167 174.99600000066667 Z" class="highcharts-point highcharts-color-0"></path><path fill="#000000" d="M 9 132 A 4 4 0 1 1 8.999998000000167 131.99600000066667 Z" class="highcharts-point highcharts-color-0"></path><path fill="#000000" d="M 9 132 A 4 4 0 1 1 8.999998000000167 131.99600000066667 Z" class="highcharts-point highcharts-color-0"></path><path fill="#000000" d="M 83 132 A 4 4 0 1 1 82.99999800000016 131.99600000066667 Z" class="highcharts-point highcharts-color-0"></path><path fill="#000000" d="M 158 132 A 4 4 0 1 1 157.99999800000018 131.99600000066667 Z" class="highcharts-point highcharts-color-0"></path><path fill="#000000" d="M 232 132 A 4 4 0 1 1 231.99999800000018 131.99600000066667 Z" class="highcharts-point highcharts-color-0"></path><path fill="#000000" d="M 307 132 A 4 4 0 1 1 306.9999980000002 131.99600000066667 Z" class="highcharts-point highcharts-color-0"></path><path fill="#000000" d="M 381 132 A 4 4 0 1 1 380.9999980000002 131.99600000066667 Z" class="highcharts-point highcharts-color-0"></path><path fill="#000000" d="M 456 132 A 4 4 0 1 1 455.9999980000002 131.99600000066667 Z" class="highcharts-point highcharts-color-0"></path><path fill="#000000" d="M 530 132 A 4 4 0 1 1 529.9999980000001 131.99600000066667 Z" class="highcharts-point highcharts-color-0"></path><path fill="#000000" d="M 530 88 A 4 4 0 1 1 529.9999980000001 87.99600000066667 Z" class="highcharts-point highcharts-color-0"></path><path fill="#000000" d="M 530 132 A 4 4 0 1 1 529.9999980000001 131.99600000066667 Z" class="highcharts-point highcharts-color-0"></path><path fill="#000000" d="M 487 132 A 4 4 0 1 1 486.9999980000002 131.99600000066667 Z" class="highcharts-point highcharts-color-0"></path><path fill="#000000" d="M 487 132 A 4 4 0 1 1 486.9999980000002 131.99600000066667 Z" class="highcharts-point highcharts-color-0"></path><path fill="#000000" d="M 487 132 A 4 4 0 1 1 486.9999980000002 131.99600000066667 Z" class="highcharts-point highcharts-color-0"></path><path fill="#000000" d="M 487 175 A 4 4 0 1 1 486.9999980000002 174.99600000066667 Z" class="highcharts-point highcharts-color-0"></path><path fill="#000000" d="M 524 132 A 4 4 0 1 1 523.9999980000001 131.99600000066667 Z" class="highcharts-point highcharts-color-0"></path><path fill="#000000" d="M 487 132 A 4 4 0 1 1 486.9999980000002 131.99600000066667 Z" class="highcharts-point highcharts-color-0"></path><path fill="#000000" d="M 493 132 A 4 4 0 1 1 492.9999980000002 131.99600000066667 Z" class="highcharts-point highcharts-color-0"></path><path fill="#000000" d="M 456 132 A 4 4 0 1 1 455.9999980000002 131.99600000066667 Z" class="highcharts-point highcharts-color-0"></path><path fill="#000000" d="M 419 132 A 4 4 0 1 1 418.9999980000002 131.99600000066667 Z" class="highcharts-point highcharts-color-0"></path></g></g><text x="300" text-anchor="middle" class="highcharts-title" data-z-index="4" style="color:#333333;font-size:18px;fill:#333333;" y="24"><tspan>Sleep Quality Rating Following Acetyl L-Carnitine Intake</tspan></text><text x="300" text-anchor="middle" class="highcharts-subtitle" data-z-index="4" style="color:#666666;fill:#666666;" y="46"><tspan>An increase in 7 days cumulative Acetyl L-carnitine intake is usually followed by an decrease</tspan><tspan dy="15" x="300">in Sleep Quality Rating. (R = -0.303)</tspan></text><g class="highcharts-axis-labels highcharts-xaxis-labels " data-z-index="7"><text x="63.21568627451" style="color:#666666;cursor:default;font-size:11px;fill:#666666;" text-anchor="middle" transform="translate(0,0)" y="360" opacity="1">0</text><text x="125.30718954248" style="color:#666666;cursor:default;font-size:11px;fill:#666666;" text-anchor="middle" transform="translate(0,0)" y="360" opacity="1">1k</text><text x="187.39869281046" style="color:#666666;cursor:default;font-size:11px;fill:#666666;" text-anchor="middle" transform="translate(0,0)" y="360" opacity="1">2k</text><text x="249.49019607843" style="color:#666666;cursor:default;font-size:11px;fill:#666666;" text-anchor="middle" transform="translate(0,0)" y="360" opacity="1">3k</text><text x="311.58169934641" style="color:#666666;cursor:default;font-size:11px;fill:#666666;" text-anchor="middle" transform="translate(0,0)" y="360" opacity="1">4k</text><text x="373.67320261438" style="color:#666666;cursor:default;font-size:11px;fill:#666666;" text-anchor="middle" transform="translate(0,0)" y="360" opacity="1">5k</text><text x="435.76470588235" style="color:#666666;cursor:default;font-size:11px;fill:#666666;" text-anchor="middle" transform="translate(0,0)" y="360" opacity="1">6k</text><text x="497.85620915033" style="color:#666666;cursor:default;font-size:11px;fill:#666666;" text-anchor="middle" transform="translate(0,0)" y="360" opacity="1">7k</text><text x="559.9477124183" style="color:#666666;cursor:default;font-size:11px;fill:#666666;" text-anchor="middle" transform="translate(0,0)" y="360" opacity="1">8k</text></g><g class="highcharts-axis-labels highcharts-yaxis-labels " data-z-index="7"><text x="43" style="color:#666666;cursor:default;font-size:11px;fill:#666666;" text-anchor="end" transform="translate(0,0)" y="345" opacity="1">0</text><text x="43" style="color:#666666;cursor:default;font-size:11px;fill:#666666;" text-anchor="end" transform="translate(0,0)" y="301" opacity="1">1</text><text x="43" style="color:#666666;cursor:default;font-size:11px;fill:#666666;" text-anchor="end" transform="translate(0,0)" y="257" opacity="1">2</text><text x="43" style="color:#666666;cursor:default;font-size:11px;fill:#666666;" text-anchor="end" transform="translate(0,0)" y="213" opacity="1">3</text><text x="43" style="color:#666666;cursor:default;font-size:11px;fill:#666666;" text-anchor="end" transform="translate(0,0)" y="169" opacity="1">4</text><text x="43" style="color:#666666;cursor:default;font-size:11px;fill:#666666;" text-anchor="end" transform="translate(0,0)" y="125" opacity="1">5</text><text x="43" style="color:#666666;cursor:default;font-size:11px;fill:#666666;" text-anchor="end" transform="translate(0,0)" y="82" opacity="1">6</text></g><a xlink:href="https://quantimo.do" target="_blank">
                    <text x="590" class="highcharts-credits" text-anchor="end" data-z-index="8"
                          style="cursor:pointer;color:#999999;font-size:9px;fill:#999999;" y="395">https://quantimo.do
                    </text>
                </a></svg>