<?xml version="1.0" standalone="no"?><!DOCTYPE svg PUBLIC "-//W3C//DTD SVG 1.1//EN" "http://www.w3.org/Graphics/SVG/1.1/DTD/svg11.dtd"><svg xmlns:xlink="http://www.w3.org/1999/xlink" version="1.1" class="highcharts-root" style="font-family:&quot;Lucida Grande&quot;, &quot;Lucida Sans Unicode&quot;, Arial, Helvetica, sans-serif;font-size:12px;" xmlns="http://www.w3.org/2000/svg" width="600" height="400"><desc>Created with Highstock 6.2.0</desc><defs><clipPath id="highcharts-gnrv2fl-1205"><rect x="0" y="0" width="541" height="299" fill="none"></rect></clipPath><clipPath id="highcharts-gnrv2fl-2404"><rect x="0" y="0" width="541" height="299" fill="none"></rect></clipPath><clipPath id="highcharts-gnrv2fl-2405"><rect x="49" y="63" width="541" height="299" fill="none"></rect></clipPath></defs><rect fill="#ffffff" class="highcharts-background" x="0" y="0" width="600" height="400" rx="0" ry="0"></rect><rect fill="none" class="highcharts-plot-background" x="49" y="63" width="541" height="299"></rect><g class="highcharts-pane-group" data-z-index="0"></g><g class="highcharts-grid highcharts-xaxis-grid " data-z-index="1"><path fill="none" data-z-index="1" class="highcharts-grid-line" d="M 86.5 63 L 86.5 362" opacity="1"></path><path fill="none" data-z-index="1" class="highcharts-grid-line" d="M 166.5 63 L 166.5 362" opacity="1"></path><path fill="none" data-z-index="1" class="highcharts-grid-line" d="M 247.5 63 L 247.5 362" opacity="1"></path><path fill="none" data-z-index="1" class="highcharts-grid-line" d="M 328.5 63 L 328.5 362" opacity="1"></path><path fill="none" data-z-index="1" class="highcharts-grid-line" d="M 409.5 63 L 409.5 362" opacity="1"></path><path fill="none" data-z-index="1" class="highcharts-grid-line" d="M 490.5 63 L 490.5 362" opacity="1"></path><path fill="none" data-z-index="1" class="highcharts-grid-line" d="M 571.5 63 L 571.5 362" opacity="1"></path></g><g class="highcharts-grid highcharts-yaxis-grid " data-z-index="1"><path fill="none" stroke="#e6e6e6" stroke-width="1" data-z-index="1" class="highcharts-grid-line" d="M 49 362.5 L 590 362.5" opacity="1"></path><path fill="none" stroke="#e6e6e6" stroke-width="1" data-z-index="1" class="highcharts-grid-line" d="M 49 312.5 L 590 312.5" opacity="1"></path><path fill="none" stroke="#e6e6e6" stroke-width="1" data-z-index="1" class="highcharts-grid-line" d="M 49 262.5 L 590 262.5" opacity="1"></path><path fill="none" stroke="#e6e6e6" stroke-width="1" data-z-index="1" class="highcharts-grid-line" d="M 49 213.5 L 590 213.5" opacity="1"></path><path fill="none" stroke="#e6e6e6" stroke-width="1" data-z-index="1" class="highcharts-grid-line" d="M 49 163.5 L 590 163.5" opacity="1"></path><path fill="none" stroke="#e6e6e6" stroke-width="1" data-z-index="1" class="highcharts-grid-line" d="M 49 113.5 L 590 113.5" opacity="1"></path><path fill="none" stroke="#e6e6e6" stroke-width="1" data-z-index="1" class="highcharts-grid-line" d="M 49 62.5 L 590 62.5" opacity="1"></path></g><rect fill="none" class="highcharts-plot-border" data-z-index="1" x="49" y="63" width="541" height="299"></rect><g class="highcharts-axis highcharts-xaxis " data-z-index="2"><path fill="none" class="highcharts-tick" stroke="#ccd6eb" stroke-width="1" d="M 86.5 362 L 86.5 372" opacity="1"></path><path fill="none" class="highcharts-tick" stroke="#ccd6eb" stroke-width="1" d="M 166.5 362 L 166.5 372" opacity="1"></path><path fill="none" class="highcharts-tick" stroke="#ccd6eb" stroke-width="1" d="M 247.5 362 L 247.5 372" opacity="1"></path><path fill="none" class="highcharts-tick" stroke="#ccd6eb" stroke-width="1" d="M 328.5 362 L 328.5 372" opacity="1"></path><path fill="none" class="highcharts-tick" stroke="#ccd6eb" stroke-width="1" d="M 409.5 362 L 409.5 372" opacity="1"></path><path fill="none" class="highcharts-tick" stroke="#ccd6eb" stroke-width="1" d="M 490.5 362 L 490.5 372" opacity="1"></path><path fill="none" class="highcharts-tick" stroke="#ccd6eb" stroke-width="1" d="M 571.5 362 L 571.5 372" opacity="1"></path><path fill="none" class="highcharts-axis-line" stroke="#ccd6eb" stroke-width="1" data-z-index="7" d="M 49 362.5 L 590 362.5"></path></g><g class="highcharts-axis highcharts-yaxis " data-z-index="2"><path fill="none" class="highcharts-axis-line" data-z-index="7" d="M 49 63 L 49 362"></path></g><g class="highcharts-series-group" data-z-index="3"><g data-z-index="0.1" class="highcharts-series highcharts-series-0 highcharts-spline-series highcharts-color-0 " transform="translate(49,63) scale(1 1)" clip-path="url(#highcharts-gnrv2fl-2404)"><path fill="none" d="M 5.3039215686275 299 C 5.3039215686275 299 5.569782298884499 299 5.7470227857225 299 C 5.9242632725605 299 6.0128835159795 299 6.1901240028175 299 C 6.3673644896555 299 6.4559847330745 299 6.6332252199125 299 C 6.81046570675054 299 6.899085950169559 299 7.0763264370076 299 C 7.253566923845599 299 7.3421871672646 299 7.5194276541026 299 C 7.6966681409405995 299 7.785288384359601 299 7.9625288711976 299 C 8.1397693580356 299 8.2283896014546 299 8.4056300882926 299 C 8.58287057513064 299 8.67149081854966 299 8.8487313053877 299 C 9.0259717922257 299 9.1145920356447 299 9.2918325224827 299 C 9.4690730093207 299 9.5576932527397 299 9.7349337395777 299 C 9.91217422641582 299 10.000794469834881 299 10.178034956673 299 C 10.355275443511001 299 10.44389568693 299 10.621136173768 299 C 10.798376660606 299 10.886996904025 299 11.064237390863 299 C 11.241477877700998 299 11.330098121119999 299 11.507338607958 299 C 11.684579094796 299 11.773199338214999 299 11.950439825053 299 C 12.127680311891002 299 12.21630055531 299 12.393541042148 299 C 12.570781528986 299 12.659401772405 299 12.836642259243 299 C 13.013882746081 299 13.1025029895 299 13.279743476338 299 C 13.456983963176 299 13.545604206594998 299 13.722844693433 299 C 13.900085180271 299 13.988705423689998 299 14.165945910528 299 C 14.343186397366 299 14.431806640785002 299 14.609047127623 299 C 14.786287614461 299 14.87490785788 299 15.052148344718 299 C 15.229388831556003 299 15.318009074975 299 15.495249561813 299 C 15.672490048651003 299 15.761110292069997 299 15.938350778908 299 C 16.115591265745998 299 16.204211509165 299 16.381451996003 299 C 16.558692482841003 299 16.64731272626 299 16.824553213098 299 C 17.001793699936 299 17.090413943355 299 17.267654430193 299 C 17.444894917031 299 17.53351516045 299 17.710755647288 299 C 17.887996134126002 299 17.976616377544996 299 18.153856864383 299 C 18.331097351220997 299 18.419717594639998 150.6074074074074 18.596958081478 150.6074074074074 C 18.774198568316002 150.6074074074074 18.862818811735 299 19.040059298573 299 C 19.217299785411 299 19.30592002883 299 19.483160515668 299 C 19.660401002506 299 19.749021245925 299 19.926261732763 299 C 20.103502219601 299 20.192122463020002 299 20.369362949858 299 C 20.546603436696 299 20.635223680115 299 20.812464166953 299 C 20.989704653791 299 21.078324897210003 299 21.255565384048 299 C 21.432805870886 299 21.521426114305 299 21.698666601143 299 C 21.875907087981 299 21.9645273314 299 22.141767818238 299 C 22.319008305076 299 22.407628548495 299 22.584869035333 299 C 22.762109522171 299 22.85072976559 292.9092592592593 23.027970252428 292.9092592592593 C 23.205210739266 292.9092592592593 23.293830982685 299 23.471071469523 299 C 23.648311956361404 299 23.736932199780604 299 23.914172686619 299 C 24.091413173457 299 24.180033416876 299 24.357273903714 299 C 24.534514390551998 299 24.623134633971 299 24.800375120809 299 C 24.977615607647 299 25.066235851066 299 25.243476337904 299 C 25.420716824741998 299 25.509337068161 299 25.686577554999 299 C 25.863818041837 299 25.952438285256 299 26.129678772094 299 C 26.306919258932 299 26.395539502351 299 26.572779989189 299 C 26.750020476026997 299 26.838640719445998 299 27.015881206284 299 C 27.193121693122 299 27.281741936541 299 27.458982423379 299 C 27.636222910216997 299 27.724843153635998 299 27.902083640474 299 C 28.079324127312 299 28.167944370731 299 28.345184857569 299 C 28.522425344406997 299 28.611045587826 299 28.788286074664 299 C 28.965526561501996 299 29.054146804920997 299 29.231387291759 299 C 29.408627778596998 299 29.497248022016002 299 29.674488508854 299 C 29.851728995692003 299 29.940349239110997 299 30.117589725949 299 C 30.294830212786998 299 30.383450456206003 299 30.560690943044 299 C 30.737931429882003 299 30.826551673301005 299 31.003792160139 299 C 31.181032646977002 299 31.269652890396003 299 31.446893377234 299 C 31.624133864072 299 31.712754107491 299 31.889994594329 299 C 32.067235081167 299 32.155855324586 299 32.333095811424 299 C 32.510336298262004 299 32.598956541681005 299 32.776197028519 299 C 32.953437515357 299 33.042057758776004 299 33.219298245614 299 C 33.396538732451994 299 33.485158975870995 299 33.662399462709 299 C 33.83963994954699 299 33.928260192966 299 34.105500679804 299 C 34.282741166642 299 34.371361410061 299 34.548601896899 299 C 34.725842383737 299 34.814462627156004 299 34.991703113994 299 C 35.168943600832 299 35.257563844251 299 35.434804331089 299 C 35.612044817927 299 35.700665061346 299 35.877905548184 299 C 36.055146035022005 299 36.143766278441 299 36.321006765279 299 C 36.498247252117 299 36.586867495536 299 36.764107982374 299 C 36.941348469212 299 37.029968712631 299 37.207209199469 299 C 37.384449686307 299 37.473069929726 299 37.650310416564 299 C 37.827550903402 299 37.916171146821 299 38.093411633659 299 C 38.270652120497004 299 38.359272363916 299 38.536512850754 299 C 38.713753337591996 299 38.802373581011 299 38.979614067849 299 C 39.156854554687 299 39.245474798106 299 39.422715284944 299 C 39.59995577178201 299 39.688576015201 299 39.865816502039 299 C 40.043056988877005 299 40.131677232296 299 40.308917719134 299 C 40.486158205972 299 40.574778449391 299 40.752018936229 299 C 40.929259423066995 299 41.017879666485996 299 41.195120153324 299 C 41.3723606401624 299 41.4609808835816 299 41.63822137042 299 C 41.815461857258 299 41.904082100677 299 42.081322587515 299 C 42.258563074353006 299 42.347183317772 299 42.52442380461 299 C 42.701664291448004 299 42.790284534867 299 42.967525021705 299 C 43.144765508543 299 43.233385751962 299 43.4106262388 299 C 43.587866725637994 299 43.676486969056995 299 43.853727455895 299 C 44.030967942733 299 44.119588186152 294.84722222222223 44.29682867299 294.84722222222223 C 44.474069159828005 294.84722222222223 44.562689403247006 299 44.739929890085 299 C 44.917170376923 299 45.005790620342 299 45.18303110718 299 C 45.360271594018 299 45.448891837436996 299 45.626132324275 299 C 45.80337281111299 299 45.891993054531994 299 46.06923354137 299 C 46.246474028208 299 46.335094271627 299 46.512334758465 299 C 46.689575245303004 299 46.778195488722005 299 46.95543597556 299 C 47.132676462398 299 47.221296705817 299 47.398537192655 299 C 47.575777679493 299 47.664397922911995 299 47.84163840975 299 C 48.018878896588 299 48.10749914000699 299 48.284739626845 299 C 48.461980113683 299 48.550600357102006 299 48.72784084394 299 C 48.905081330778 299 48.993701574197004 220.92777777777775 49.170942061035 220.92777777777775 C 49.348182547873 220.92777777777775 49.436802791291996 289.0333333333333 49.61404327813 294.01666666666665 C 49.791283764968 299 49.879904008387 299 50.057144495225 299 C 50.234384982063 299 50.323005225482 299 50.50024571232 299 C 50.677486199158 299 50.766106442577005 279.06666666666666 50.943346929415 279.06666666666666 C 51.120587416253 279.06666666666666 51.209207659672 287.53833333333336 51.38644814651 291.525 C 51.563688633348 295.5116666666667 51.652308876766995 299 51.829549363605 299 C 52.006789850443 299 52.09541009386201 299 52.2726505807 299 C 52.449891067538 299 52.538511310957006 299 52.715751797795 299 C 52.892992284632996 299 52.981612528052004 299 53.15885301489 299 C 53.336093501728 299 53.424713745147 299 53.601954231985 299 C 53.779194718823 299 53.86781496224201 292.0787037037037 54.04505544908 292.0787037037037 C 54.22229593591801 292.0787037037037 54.310916179337006 299 54.488156666175 299 C 54.665397153013 299 54.754017396432005 299 54.93125788327 299 C 55.108498370107995 299 55.197118613527 299 55.374359100365 299 C 55.551599587203 299 55.640219830622 299 55.81746031746 299 C 55.994700804298 299 56.08332104771701 299 56.260561534555 299 C 56.43780202139301 299 56.526422264812005 299 56.70366275165 299 C 56.880903238487996 299 56.969523481907004 299 57.146763968745 299 C 57.324004455582994 299 57.412624699002 299 57.58986518584 299 C 57.76710567267801 299 57.855725916097 52.87870370370368 58.032966402935 52.87870370370368 C 58.210206889773 52.87870370370368 58.298827133192006 298.4462962962963 58.47606762003 298.4462962962963 C 58.65330810686801 298.4462962962963 58.741928350287004 248.88981481481483 58.919168837125 248.88981481481483 C 59.09640932396339 248.88981481481483 59.18502956738259 299 59.362270054221 299 C 59.539510541058995 299 59.628130784478 299 59.805371271316 299 C 59.98261175815399 299 60.071232001573 291.80185185185184 60.248472488411 291.80185185185184 C 60.425712975249006 291.80185185185184 60.514333218668 291.80185185185184 60.691573705506 293.18611111111113 C 60.868814192344 294.5703703703704 60.957434435763005 299 61.134674922601 299 C 61.31191540943901 299 61.400535652858004 299 61.577776139696 299 C 61.755016626533994 299 61.843636869953 299 62.020877356791 299 C 62.19811784362899 299 62.286738087048 299 62.463978573886 299 C 62.641219060724005 299 62.729839304143 273.80648148148146 62.907079790981 273.80648148148146 C 63.084320277818996 273.80648148148146 63.172940521238004 299 63.350181008076 299 C 63.52742149491401 299 63.616041738333 222.5888888888889 63.793282225171 222.5888888888889 C 63.97052271200901 222.5888888888889 64.059142955428 299 64.236383442266 299 C 64.413623929104 299 64.502244172523 299 64.679484659361 299 C 64.85672514619901 299 64.945345389618 290.69444444444446 65.122585876456 290.69444444444446 C 65.299826363294 290.69444444444446 65.388446606713 290.69444444444446 65.565687093551 291.525 C 65.74292758038901 292.3555555555555 65.831547823808 299 66.008788310646 299 C 66.186028797484 299 66.274649040903 299 66.451889527741 299 C 66.629130014579 299 66.717750257998 299 66.894990744836 299 C 67.07223123167401 299 67.160851475093 299 67.338091961931 299 C 67.515332448769 299 67.603952692188 299 67.781193179026 299 C 67.958433665864 299 68.047053909283 299 68.224294396121 299 C 68.401534882959 299 68.490155126378 299 68.667395613216 299 C 68.844636100054 299 68.933256343473 299 69.110496830311 299 C 69.28773731714901 299 69.376357560568 299 69.553598047406 299 C 69.730838534244 299 69.819458777663 299 69.996699264501 299 C 70.173939751339 299 70.26255999475799 299 70.439800481596 299 C 70.617040968434 299 70.705661211853 299 70.882901698691 299 C 71.060142185529 299 71.148762428948 299 71.326002915786 299 C 71.50324340262401 299 71.591863646043 299 71.769104132881 299 C 71.946344619719 299 72.034964863138 293.46296296296293 72.212205349976 293.46296296296293 C 72.389445836814 293.46296296296293 72.47806608023299 299 72.655306567071 299 C 72.832547053909 299 72.921167297328 299 73.098407784166 299 C 73.275648271004 299 73.364268514423 297.3388888888889 73.541509001261 297.3388888888889 C 73.71874948809901 297.3388888888889 73.807369731518 299 73.984610218356 299 C 74.161850705194 299 74.250470948613 299 74.427711435451 299 C 74.604951922289 299 74.69357216570799 299 74.870812652546 299 C 75.048053139384 299 75.136673382803 299 75.313913869641 299 C 75.491154356479 299 75.579774599898 299 75.757015086736 299 C 75.934255573574 299 76.022875816993 299 76.200116303831 299 C 76.377356790669 299 76.465977034088 299 76.643217520926 299 C 76.82045800776442 299 76.90907825118362 299 77.086318738022 299 C 77.26355922486 299 77.35217946827899 299 77.529419955117 299 C 77.706660441955 299 77.795280685374 299 77.972521172212 299 C 78.14976165905 299 78.238381902469 289.587037037037 78.415622389307 289.587037037037 C 78.592862876145 289.587037037037 78.68148311956399 299 78.858723606402 299 C 79.03596409324 299 79.124584336659 299 79.301824823497 299 C 79.479065310335 299 79.56768555375399 299 79.744926040592 299 C 79.92216652743 299 80.010786770849 299 80.188027257687 299 C 80.365267744525 299 80.453887987944 278.2361111111111 80.631128474782 278.2361111111111 C 80.80836896162 278.2361111111111 80.89698920503899 299 81.074229691877 299 C 81.251470178715 299 81.340090422134 292.0787037037037 81.517330908972 292.0787037037037 C 81.69457139581 292.0787037037037 81.78319163922899 299 81.960432126067 299 C 82.13767261290499 299 82.226292856324 299 82.403533343162 299 C 82.58077383 299 82.669394073419 299 82.846634560257 299 C 83.023875047095 299 83.112495290514 299 83.289735777352 299 C 83.46697626419 299 83.55559650760901 297.9479629629629 83.732836994447 295.1240740740741 C 83.910077481285 292.30018518518506 83.99869772470399 284.88055555555553 84.175938211542 284.88055555555553 C 84.35317869837999 284.88055555555553 84.441798941799 298.1694444444444 84.619039428637 298.1694444444444 C 84.796279915475 298.1694444444444 84.884900158894 117.38518518518515 85.062140645732 117.38518518518515 C 85.23938113257 117.38518518518515 85.328001375989 299 85.505241862827 299 C 85.682482349665 299 85.77110259308401 299 85.948343079922 299 C 86.12558356676 299 86.21420381017899 299 86.391444297017 299 C 86.56868478385499 299 86.65730502727399 299 86.834545514112 299 C 87.01178600095 299 87.100406244369 299 87.277646731207 299 C 87.454887218045 299 87.543507461464 229.787037037037 87.720747948302 229.787037037037 C 87.89798843514 229.787037037037 87.98660867855901 277.1287037037037 88.163849165397 277.1287037037037 C 88.341089652235 277.1287037037037 88.42970989565399 267.43888888888887 88.606950382492 267.43888888888887 C 88.78419086932999 267.43888888888887 88.87281111274899 299 89.050051599587 299 C 89.227292086425 299 89.315912329844 273.80648148148146 89.493152816682 273.80648148148146 C 89.67039330352 273.80648148148146 89.759013546939 273.80648148148146 89.936254033777 275.7444444444444 C 90.11349452061499 277.68240740740737 90.20211476403401 299 90.379355250872 299 C 90.55659573771 299 90.64521598112898 299 90.822456467967 299 C 90.99969695480499 299 91.08831719822402 299 91.265557685062 299 C 91.44279817190001 299 91.531418415319 288.47962962962964 91.708658902157 288.47962962962964 C 91.885899388995 288.47962962962964 91.974519632414 294.40425925925916 92.151760119252 296.5083333333333 C 92.32900060608999 298.6124074074073 92.417620849509 299 92.594861336347 299 C 92.772101823185 299 92.86072206660398 299 93.037962553442 299 C 93.21520304027999 299 93.30382328369902 251.65833333333333 93.481063770537 251.65833333333333 C 93.65830425737501 251.65833333333333 93.746924500794 299 93.924164987632 299 C 94.10140547447 299 94.190025717889 299 94.367266204727 299 C 94.5445066915654 299 94.6331269349846 299 94.810367421823 299 C 94.98760790866099 299 95.07622815208 299 95.253468638918 299 C 95.430709125756 299 95.51932936917498 299 95.696569856013 299 C 95.87381034285099 299 95.96243058627002 299 96.139671073108 299 C 96.316911559946 299 96.405531803365 299 96.582772290203 299 C 96.760012777041 299 96.84863302046 291.80185185185184 97.025873507298 291.80185185185184 C 97.20311399413599 291.80185185185184 97.291734237555 299 97.468974724393 299 C 97.646215211231 299 97.73483545464998 296.23148148148147 97.912075941488 296.23148148148147 C 98.08931642832599 296.23148148148147 98.17793667174502 299 98.355177158583 299 C 98.532417645421 299 98.62103788884 253.0425925925926 98.798278375678 253.0425925925926 C 98.975518862516 253.0425925925926 99.064139105935 299 99.241379592773 299 C 99.418620079611 299 99.50724032303 299 99.684480809868 299 C 99.86172129670481 299 99.9503415401232 299 100.12758202696 299 C 100.3048225138 299 100.39344275722001 296.5083333333333 100.57068324406 296.5083333333333 C 100.74792373089602 296.5083333333333 100.836543974314 299 101.01378446115 299 C 101.19102494798999 299 101.27964519141001 299 101.45688567825 299 C 101.63412616508602 299 101.72274640850401 299 101.89998689534 299 C 102.07722738218 299 102.16584762560001 299 102.34308811244 299 C 102.52032859927598 299 102.608948842694 299 102.78618932953 299 C 102.96342981637001 299 103.05205005979 299 103.22929054663 299 C 103.406531033466 299 103.495151276884 299 103.67239176372 299 C 103.84963225055999 299 103.93825249397999 299 104.11549298082 299 C 104.29273346765599 299 104.38135371107401 299 104.55859419791 299 C 104.73583468474999 299 104.82445492817001 299 105.00169541501 299 C 105.17893590184602 299 105.26755614526401 299 105.4447966321 299 C 105.62203711893999 299 105.71065736236001 299 105.8878978492 299 C 106.06513833603601 299 106.153758579454 299 106.33099906629 299 C 106.50823955312998 299 106.59685979655 299 106.77410028339 299 C 106.95134077022598 299 107.039961013644 294.84722222222223 107.21720150048 294.84722222222223 C 107.39444198732001 294.84722222222223 107.48306223074 299 107.66030271758 299 C 107.837543204416 299 107.926163447834 299 108.10340393467 299 C 108.28064442151 299 108.36926466493 299 108.54650515177 299 C 108.72374563860599 299 108.81236588202401 289.31018518518516 108.98960636886 289.31018518518516 C 109.16684685569999 289.31018518518516 109.25546709912001 299 109.43270758596 299 C 109.60994807279602 299 109.69856831621401 280.72777777777776 109.87580880305 280.72777777777776 C 110.05304928989001 280.72777777777776 110.14166953331001 299 110.31891002015 299 C 110.49615050698601 299 110.584770750404 299 110.76201123724 299 C 110.93925172407998 299 111.0278719675 299 111.20511245434 299 C 111.38235294117598 299 111.470973184594 299 111.64821367143 299 C 111.82545415827 299 111.91407440169 299 112.09131488853 299 C 112.26855537536599 299 112.357175618784 299 112.53441610562 299 C 112.71165659246 299 112.80027683588 299 112.97751732272 299 C 113.15475780955599 299 113.24337805297401 299 113.42061853981 299 C 113.59785902664999 299 113.68647927007001 299 113.86371975691 299 C 114.04096024374601 299 114.129580487164 299 114.306820974 299 C 114.48406146084001 299 114.57268170426 299 114.7499221911 299 C 114.92716267793601 299 115.015782921354 288.2027777777778 115.19302340819 288.2027777777778 C 115.37026389502998 288.2027777777778 115.45888413845 299 115.63612462529 299 C 115.81336511212598 299 115.901985355544 270.2074074074074 116.07922584238 270.2074074074074 C 116.25646632922 270.2074074074074 116.34508657264 291.8018518518519 116.52232705948 295.40092592592595 C 116.699567546316 299 116.788187789734 299 116.96542827657 299 C 117.14266876341 299 117.23128900683 299 117.40852949367 299 C 117.585769980506 299 117.67439022392401 299 117.85163071076 299 C 118.02887119760001 299 118.11749144102001 299 118.29473192786 299 C 118.47197241469601 299 118.560592658114 299 118.73783314495 299 C 118.91507363179001 299 119.00369387521 299 119.18093436205 299 C 119.35817484888601 299 119.446795092304 299 119.62403557914 299 C 119.80127606598 299 119.8898963094 282.6657407407407 120.06713679624 282.6657407407407 C 120.244377283076 282.6657407407407 120.332997526494 299 120.51023801333 299 C 120.68747850017 299 120.77609874359 299 120.95333923043 299 C 121.130579717266 299 121.219199960684 299 121.39644044752 299 C 121.57368093436 299 121.66230117778 299 121.83954166462 299 C 122.016782151456 299 122.105402394874 299 122.28264288171 299 C 122.45988336855001 299 122.54850361197 299 122.72574409881 299 C 122.90298458564601 299 122.991604829064 299 123.1688453159 299 C 123.34608580274 299 123.43470604616 299 123.611946533 299 C 123.789187019836 299 123.877807263254 299 124.05504775009 299 C 124.23228823693 299 124.32090848035 299 124.49814896719 299 C 124.675389454026 299 124.764009697444 299 124.94125018428 299 C 125.11849067112 299 125.20711091454 299 125.38435140138 299 C 125.561591888216 299 125.65021213163399 299 125.82745261847 299 C 126.00469310531 299 126.09331334872999 288.7564814814815 126.27055383557 288.7564814814815 C 126.447794322406 288.7564814814815 126.536414565824 299 126.71365505266 299 C 126.89089553950001 299 126.97951578292 299 127.15675626976 299 C 127.33399675659601 299 127.422617000014 295.6777777777778 127.59985748685 295.6777777777778 C 127.77709797369 295.6777777777778 127.86571821711 299 128.04295870395 299 C 128.220199190786 299 128.308819434204 299 128.48605992104 299 C 128.66330040788 299 128.7519206513 299 128.92916113814 299 C 129.10640162497597 299 129.195021868394 299 129.37226235523 299 C 129.54950284207 299 129.63812308549 291.2481481481482 129.81536357233 291.2481481481482 C 129.992604059166 291.2481481481482 130.081224302584 296.2314814814815 130.25846478942 297.61574074074076 C 130.43570527626 299 130.52432551968 299 130.70156600652 299 C 130.87880649335602 299 130.96742673677403 299 131.14466722361 299 C 131.32190771045003 299 131.41052795387 299 131.58776844071 299 C 131.765008927546 299 131.85362917096398 299 132.0308696578 299 C 132.20811014464 299 132.29673038805998 299 132.4739708749 299 C 132.651211361736 299 132.739831605154 299 132.91707209199 299 C 133.09431257883 299 133.18293282225 297.3388888888889 133.36017330909 297.3388888888889 C 133.53741379592597 297.3388888888889 133.626034039344 299 133.80327452618 299 C 133.98051501302 299 134.06913525644 299 134.24637574328 299 C 134.423616230116 299 134.512236473534 299 134.68947696037 299 C 134.86671744721 299 134.95533769063 299 135.13257817747 299 C 135.30981866430602 299 135.39843890772403 299 135.57567939456 299 C 135.75291988140003 299 135.84154012482 299 136.01878061166 299 C 136.196021098496 299 136.28464134191398 293.7951851851504 136.46188182875 290.69444444444446 C 136.63912231559 287.5937037036689 136.72774255900998 283.4962962962963 136.90498304585 283.4962962962963 C 137.082223532686 283.4962962962963 137.170843776104 283.4962962962963 137.34808426294 284.60370370370373 C 137.52532474978003 285.71111111111117 137.61394499320002 299 137.79118548004 299 C 137.96842596687603 299 138.057046210294 271.037962962963 138.23428669713 271.037962962963 C 138.41152718397 271.037962962963 138.50014742739 271.037962962963 138.67738791423 276.02129629629627 C 138.85462840107 281.00462962962956 138.94324864448998 299 139.12048913133 299 C 139.297729618166 299 139.386349861584 299 139.56359034842 299 C 139.74083083526 299 139.82945107868 299 140.00669156552 299 C 140.18393205235597 299 140.272552295774 299 140.44979278261 299 C 140.62703326945 299 140.71565351287 299 140.89289399971 299 C 141.070134486546 299 141.158754729964 245.84444444444443 141.3359952168 245.84444444444443 C 141.51323570364 245.84444444444443 141.60185594706 281.8351851851852 141.7790964339 290.4175925925926 C 141.95633692073602 299 142.04495716415403 299 142.22219765099 299 C 142.39943813783003 299 142.48805838125 299 142.66529886809 299 C 142.842539354926 299 142.93115959834398 299 143.10840008518 299 C 143.28564057202 299 143.37426081543998 299 143.55150130228 299 C 143.728741789116 299 143.817362032534 299 143.99460251937 299 C 144.17184300621003 299 144.26046324963002 299 144.43770373647 299 C 144.61494422330603 299 144.703564466724 299 144.88080495356 299 C 145.0580454404 299 145.14666568382 299 145.32390617066 299 C 145.501146657496 299 145.589766900914 299 145.76700738775 299 C 145.94424787459 299 146.03286811801 299 146.21010860485 299 C 146.38734909168602 299 146.47596933510403 299 146.65320982194 299 C 146.83045030878003 299 146.9190705522 299 147.09631103904 299 C 147.273551525876 299 147.36217176929398 299 147.53941225613 299 C 147.71665274296998 299 147.80527298638998 299 147.98251347323 299 C 148.15975396006598 299 148.248374203484 299 148.42561469032 299 C 148.60285517716002 299 148.69147542058002 296.5083333333333 148.86871590742 296.5083333333333 C 149.04595639425602 296.5083333333333 149.134576637674 299 149.31181712451 299 C 149.48905761135 299 149.57767785477 299 149.75491834161 299 C 149.932158828446 299 150.02077907186398 299 150.1980195587 299 C 150.37526004554 299 150.46388028895998 299 150.6411207758 299 C 150.81836126263602 299 150.90698150605402 299 151.08422199289 299 C 151.26146247973003 299 151.35008272315 299 151.52732320999 299 C 151.704563696826 299 151.79318394024398 299 151.97042442708 299 C 152.14766491391998 299 152.23628515733998 287.64907407407406 152.41352564418 287.64907407407406 C 152.59076613101598 287.64907407407406 152.679386374434 299 152.85662686127 299 C 153.03386734811002 299 153.12248759153002 299 153.29972807837 299 C 153.47696856520602 299 153.565588808624 299 153.74282929546 299 C 153.9200697823 299 154.00869002572 299 154.18593051256 299 C 154.363170999396 299 154.45179124281398 299 154.62903172965 299 C 154.80627221649 299 154.89489245990998 299 155.07213294675 299 C 155.24937343358602 299 155.33799367700402 299 155.51523416384 299 C 155.69247465068003 299 155.78109489410002 299 155.95833538094 299 C 156.13557586777603 299 156.22419611119398 299 156.40143659803 299 C 156.57867708486998 299 156.66729732828998 299 156.84453781513 299 C 157.02177830196598 299 157.110398545384 299 157.28763903222 299 C 157.46487951906002 299 157.55349976248002 267.43888888888887 157.73074024932 267.43888888888887 C 157.90798073615602 267.43888888888887 157.996600979574 299 158.17384146641 299 C 158.35108195325 299 158.43970219667 299 158.61694268351 299 C 158.794183170346 299 158.88280341376398 299 159.0600439006 299 C 159.23728438743998 299 159.32590463085998 273.52962962962965 159.5031451177 273.52962962962965 C 159.680385604536 273.52962962962965 159.76900584795402 273.52962962962965 159.94624633479 275.19074074074075 C 160.12348682163002 276.85185185185185 160.21210706505002 299 160.38934755189 299 C 160.56658803872602 299 160.65520828214397 299 160.83244876898 299 C 161.00968925581998 299 161.09830949923997 299 161.27554998608 299 C 161.45279047291598 299 161.54141071633398 299 161.71865120317 299 C 161.89589169001002 299 161.98451193343 299 162.16175242027 299 C 162.33899290710602 299 162.427613150524 299 162.60485363736 299 C 162.7820941242 299 162.87071436762 299 163.04795485446 299 C 163.225195341296 299 163.31381558471398 299 163.49105607155 299 C 163.66829655838998 299 163.75691680180998 299 163.93415728865 299 C 164.111397775486 299 164.20001801890402 299 164.37725850574 299 C 164.55449899258002 299 164.64311923600002 299 164.82035972284 294.84722222222223 C 164.99760020967602 290.69444444444446 165.086220453094 277.1287037037037 165.26346093993 277.1287037037037 C 165.44070142677 277.1287037037037 165.52932167018997 299 165.70656215703 299 C 165.88380264386598 299 165.97242288728398 299 166.14966337412 299 C 166.32690386096002 299 166.41552410438 299 166.59276459122 299 C 166.77000507805602 299 166.858625321474 299 167.03586580831 299 C 167.21310629515 299 167.30172653857 299 167.47896702541 299 C 167.656207512246 299 167.74482775566398 299 167.9220682425 299 C 168.09930872933998 299 168.18792897275998 299 168.3651694596 299 C 168.542409946436 299 168.63103018985402 299 168.80827067669 299 C 168.98551116353002 299 169.07413140695002 299 169.25137189379 299 C 169.42861238062602 299 169.517232624044 299 169.69447311088 299 C 169.87171359772 299 169.96033384113997 299 170.13757432798 299 C 170.31481481481597 299 170.40343505823398 299 170.58067554507 299 C 170.75791603191 299 170.84653627533 299 171.02377676217 299 C 171.20101724900601 299 171.289637492424 299 171.46687797926 299 C 171.6441184661 299 171.73273870952 299 171.90997919636 299 C 172.087219683196 299 172.17583992661397 299 172.35308041345 299 C 172.53032090028998 299 172.61894114370997 299 172.79618163055 299 C 172.973422117386 299 173.062042360804 299 173.23928284764 299 C 173.41652333448002 299 173.5051435779 297.61574074074076 173.68238406474 297.61574074074076 C 173.85962455157602 297.61574074074076 173.948244794994 299 174.12548528183 299 C 174.30272576867 299 174.39134601208997 299 174.56858649893 299 C 174.74582698576597 299 174.83444722918398 299 175.01168771602 299 C 175.18892820286 299 175.27754844628 299 175.45478893312 299 C 175.632029419956 299 175.720649663374 289.31018518518516 175.89789015021 289.31018518518516 C 176.07513063705 289.31018518518516 176.16375088047 299 176.34099136731 299 C 176.518231854146 299 176.60685209756403 299 176.7840925844 299 C 176.96133307124 299 177.04995331466 299 177.2271938015 299 C 177.404434288336 299 177.493054531754 299 177.67029501859 299 C 177.84753550543002 299 177.93615574884998 299 178.11339623569 299 C 178.29063672252602 299 178.379256965944 299 178.55649745278 299 C 178.73373793962 299 178.82235818303997 299 178.99959866988 299 C 179.17683915671597 299 179.26545940013398 299 179.44269988697 299 C 179.61994037381 299 179.70856061723 299 179.88580110407 299 C 180.063041590906 299 180.151661834324 299 180.32890232116 299 C 180.506142808 299 180.59476305142 299 180.77200353826 299 C 180.949244025096 299 181.03786426851403 299 181.21510475535 299 C 181.39234524219 299 181.48096548561 299 181.65820597245 299 C 181.835446459286 299 181.924066702704 299 182.10130718954 299 C 182.27854767638001 299 182.36716791979998 299 182.54440840664 299 C 182.72164889347602 299 182.810269136894 299 182.98750962373 299 C 183.16475011057 299 183.25337035399002 299 183.43061084083 299 C 183.607851327666 299 183.696471571084 299 183.87371205792 299 C 184.05095254476 299 184.13957278818 299 184.31681327502 299 C 184.494053761856 299 184.582674005274 299 184.75991449211 299 C 184.93715497895 299 185.02577522237 299 185.20301570921 299 C 185.380256196046 299 185.46887643946403 299 185.6461169263 299 C 185.82335741314 299 185.91197765656 299 186.0892181434 299 C 186.266458630236 299 186.355078873654 299 186.53231936049 299 C 186.70955984733 299 186.79818009074998 299 186.97542057759 299 C 187.152661064426 299 187.241281307844 299 187.41852179468 299 C 187.59576228152 299 187.68438252494002 299 187.86162301178 299 C 188.038863498616 299 188.127483742034 299 188.30472422887 299 C 188.48196471571 299 188.57058495913 299 188.74782544597 299 C 188.925065932806 299 189.01368617622398 299 189.19092666306 299 C 189.3681671499 299 189.45678739331998 299 189.63402788016 299 C 189.811268366996 299 189.89988861041402 299 190.07712909725 299 C 190.25436958409 299 190.34298982751 299 190.52023031435 299 C 190.697470801186 299 190.786091044604 295.1240740740741 190.96333153144 295.1240740740741 C 191.14057201828 295.1240740740741 191.22919226169998 299 191.40643274854 299 C 191.583673235376 299 191.672293478794 299 191.84953396563 299 C 192.02677445247 299 192.11539469589002 299 192.29263518273 299 C 192.469875669566 299 192.55849591298403 299 192.73573639982 299 C 192.91297688666 299 193.00159713008003 299 193.17883761692 299 C 193.356078103756 299 193.44469834717398 299 193.62193883401 299 C 193.79917932085 299 193.88779956426998 299 194.06504005111 299 C 194.242280537946 299 194.33090078136402 299 194.5081412682 299 C 194.68538175504 299 194.77400199846002 299 194.9512424853 299 C 195.128482972136 299 195.217103215554 291.80185185185184 195.39434370239 291.80185185185184 C 195.57158418923 291.80185185185184 195.66020443264998 299 195.83744491949 299 C 196.014685406326 299 196.103305649744 299 196.28054613658 299 C 196.45778662342 299 196.54640686684002 299 196.72364735368 299 C 196.900887840516 299 196.98950808393403 299 197.16674857077 299 C 197.34398905761 299 197.43260930103003 299 197.60984978787 299 C 197.787090274706 299 197.87571051812398 299 198.05295100496 299 C 198.23019149179999 299 198.31881173521998 299 198.49605222206 299 C 198.67329270889599 299 198.76191295231402 299 198.93915343915 299 C 199.11639392599 299 199.20501416941002 299 199.38225465625 299 C 199.559495143086 299 199.648115386504 299 199.82535587334 299 C 200.00259636018 299 200.09121660359997 299 200.26845709044 299 C 200.445697577276 299 200.53431782069399 299 200.71155830753 299 C 200.88879879437 299 200.97741903779 299 201.15465952463 299 C 201.331900011466 299 201.42052025488402 299 201.59776074172 299 C 201.77500122856 299 201.86362147198003 299 202.04086195882 299 C 202.218102445656 299 202.30672268907398 299 202.48396317591 299 C 202.66120366274998 299 202.74982390616998 299 202.92706439301 299 C 203.10430487984598 299 203.19292512326402 299 203.3701656101 299 C 203.54740609694 299 203.63602634036002 299 203.8132668272 299 C 203.99050731403602 299 204.079127557454 299 204.25636804429 299 C 204.43360853113 299 204.52222877455 299 204.69946926139 299 C 204.876709748226 299 204.965329991644 299 205.14257047848 299 C 205.31981096532 299 205.40843120874 299 205.58567169558 299 C 205.762912182416 299 205.85153242583402 299 206.02877291267 299 C 206.20601339951 299 206.29463364293002 223.14259259259256 206.47187412977 223.14259259259256 C 206.649114616606 223.14259259259256 206.73773486002398 252.5442592594295 206.91497534686 267.7157407407407 C 207.09221583369998 282.8872222223925 207.18083607711998 299 207.35807656396 299 C 207.53531705079598 299 207.62393729421402 299 207.80117778105 299 C 207.97841826789 299 208.06703851131002 299 208.24427899815 299 C 208.42151948498605 299 208.510139728404 299 208.68738021524 299 C 208.86462070208 299 208.95324094549997 299 209.13048143234 299 C 209.307721919176 299 209.396342162594 299 209.57358264943 299 C 209.75082313627 299 209.83944337969 299 210.01668386653 299 C 210.193924353366 299 210.28254459678402 299 210.45978508362 299 C 210.63702557046 299 210.72564581388002 299 210.90288630072 299 C 211.08012678755603 299 211.168747030974 299 211.34598751781 299 C 211.52322800464998 299 211.61184824806998 299 211.78908873491 299 C 211.96632922174598 299 212.05494946516401 299 212.232189952 299 C 212.40943043884 299 212.49805068226001 299 212.6752911691 299 C 212.85253165593605 299 212.941151899354 299 213.11839238619 299 C 213.29563287303 299 213.38425311644997 299 213.56149360329 299 C 213.738734090126 299 213.827354333544 299 214.00459482038 299 C 214.18183530721998 299 214.27045555064 299 214.44769603748 299 C 214.62493652431598 299 214.71355676773402 299 214.89079725457 299 C 215.06803774141 299 215.15665798483002 299 215.33389847167 299 C 215.51113895850602 299 215.599759201924 299 215.77699968876 299 C 215.95424017559998 299 216.04286041901997 299 216.22010090586 299 C 216.39734139269598 299 216.485961636114 299 216.66320212295 299 C 216.84044260979 299 216.92906285321 299 217.10630334005 299 C 217.28354382688605 299 217.372164070304 299 217.54940455714 299 C 217.72664504398 299 217.81526528739997 299 217.99250577424 299 C 218.169746261076 299 218.258366504494 299 218.43560699133 299 C 218.61284747816998 299 218.70146772159 299 218.87870820843 299 C 219.05594869526598 299 219.14456893868402 299 219.32180942552 299 C 219.49904991236 299 219.58767015578002 299 219.76491064262 299 C 219.94215112945602 299 220.030771372874 299 220.20801185971 299 C 220.38525234654998 299 220.47387258997 299 220.65111307681 299 C 220.82835356364598 299 220.916973807064 299 221.0942142939 299 C 221.27145478074 299 221.36007502416 299 221.537315511 299 C 221.71455599783604 299 221.803176241254 299 221.98041672809 299 C 222.15765721493003 299 222.24627745835 299 222.42351794519 299 C 222.600758432026 299 222.689378675444 299 222.86661916228 299 C 223.04385964911998 299 223.13247989254 299 223.30972037938 299 C 223.48696086621598 299 223.57558110963402 299 223.75282159647 299 C 223.93006208331 299 224.01868232673002 299 224.19592281357 299 C 224.37316330040602 299 224.461783543824 299 224.63902403066 299 C 224.81626451749997 299 224.90488476092 299 225.08212524776 299 C 225.25936573459597 299 225.347985978014 299 225.52522646485 299 C 225.70246695168998 299 225.79108719511 299 225.96832768195 299 C 226.14556816878604 299 226.234188412204 296.23148148148147 226.41142889904 296.23148148148147 C 226.58866938588002 296.23148148148147 226.6772896293 299 226.85453011614 299 C 227.03177060297998 299 227.1203908464 299 227.29763133324 299 C 227.47487182007598 299 227.563492063494 299 227.74073255033 299 C 227.91797303717 299 228.00659328059 299 228.18383376743 299 C 228.361074254266 299 228.449694497684 299 228.62693498452 299 C 228.80417547136003 299 228.89279571478 299 229.07003620162 299 C 229.247276688456 299 229.335896931874 299 229.51313741871 299 C 229.69037790554998 299 229.77899814897 299 229.95623863581 299 C 230.13347912264598 299 230.22209936606401 299 230.3993398529 299 C 230.57658033974002 299 230.66520058316001 299 230.84244107 299 C 231.01968155683602 299 231.108301800254 283.4962962962963 231.28554228709 283.4962962962963 C 231.46278277392997 283.4962962962963 231.55140301735 299 231.72864350419 299 C 231.90588399102597 299 231.994504234444 299 232.17174472128 299 C 232.34898520811998 299 232.43760545154 299 232.61484593838 299 C 232.79208642521598 299 232.880706668634 299 233.05794715547 299 C 233.23518764231002 299 233.32380788573 299 233.50104837257 299 C 233.678288859406 299 233.766909102824 299 233.94414958966 299 C 234.12139007649998 299 234.21001031992 299 234.38725080676 299 C 234.56449129359598 299 234.653111537014 299 234.83035202385 299 C 235.00759251069002 299 235.09621275411 299 235.27345324095 299 C 235.45069372778602 299 235.539313971204 299 235.71655445804 299 C 235.89379494487997 299 235.9824151883 299 236.15965567514 299 C 236.33689616197597 299 236.425516405394 299 236.60275689223 299 C 236.77999737906998 299 236.86861762249 299 237.04585810933 299 C 237.22309859616598 299 237.311718839584 299 237.48895932642 299 C 237.66619981326002 299 237.75482005668 299 237.93206054352 299 C 238.109301030356 299 238.197921273774 299 238.37516176061 299 C 238.55240224745003 299 238.64102249087 299 238.81826297771 299 C 238.99550346454598 299 239.084123707964 299 239.2613641948 299 C 239.43860468164002 299 239.52722492506 299 239.7044654119 299 C 239.88170589873602 299 239.970326142154 299 240.14756662899 299 C 240.32480711583003 299 240.41342735925 299 240.59066784609 299 C 240.76790833292597 299 240.856528576344 297.06203703703704 241.03376906318 297.06203703703704 C 241.21100955001998 297.06203703703704 241.29962979344 299 241.47687028028 299 C 241.65411076711598 299 241.742731010534 269.93055555555554 241.91997149737 269.93055555555554 C 242.09721198421002 269.93055555555554 242.18583222763 299 242.36307271447 299 C 242.540313201306 299 242.628933444724 299 242.80617393156 299 C 242.98341441840003 299 243.07203466182 299 243.24927514866 299 C 243.42651563549597 299 243.515135878914 299 243.69237636575 299 C 243.86961685259 299 243.95823709601 299 244.13547758285 299 C 244.312718069686 299 244.401338313104 299 244.57857879994 299 C 244.75581928678002 299 244.8444395302 299 245.02168001704 299 C 245.19892050387597 299 245.287540747294 299 245.46478123413 299 C 245.64202172096998 299 245.73064196439 299 245.90788245123 299 C 246.08512293806598 299 246.17374318148399 299 246.35098366832 299 C 246.52822415516002 299 246.61684439857999 299 246.79408488542 299 C 246.971325372256 299 247.059945615674 299 247.23718610251 299 C 247.41442658935003 299 247.50304683277 299 247.68028731961 299 C 247.85752780644597 299 247.946148049864 299 248.1233885367 299 C 248.30062902354 299 248.38924926696 299 248.5664897538 299 C 248.743730240636 299 248.832350484054 299 249.00959097089 299 C 249.18683145773002 299 249.27545170115 299 249.45269218799 299 C 249.62993267482602 299 249.71855291824403 299 249.89579340508 299 C 250.07303389192003 299 250.16165413534 299 250.33889462218 299 C 250.51613510901598 299 250.60475535243398 299 250.78199583927 299 C 250.95923632611002 299 251.04785656952998 299 251.22509705637 299 C 251.402337543206 299 251.490957786624 299 251.66819827346 299 C 251.84543876030003 299 251.93405900372 299 252.11129949056 299 C 252.28853997739597 299 252.377160220814 299 252.55440070765 299 C 252.73164119449 299 252.82026143791 299 252.99750192475 299 C 253.174742411586 299 253.263362655004 299 253.44060314184 299 C 253.61784362868002 299 253.7064638721 299 253.88370435894 299 C 254.06094484577602 299 254.14956508919403 299 254.32680557603 299 C 254.50404606287003 299 254.59266630629 299 254.76990679313 299 C 254.94714727996598 299 255.03576752338398 299 255.21300801022 299 C 255.39024849706 299 255.47886874047998 299 255.65610922732 299 C 255.833349714156 299 255.921969957574 289.587037037037 256.09921044441 289.587037037037 C 256.27645093125 289.587037037037 256.36507117467 299 256.54231166151 299 C 256.719552148346 299 256.808172391764 299 256.9854128786 299 C 257.16265336544 299 257.25127360886 299 257.4285140957 299 C 257.605754582536 299 257.694374825954 299 257.87161531279 299 C 258.04885579963 299 258.13747604305 299 258.31471652989 299 C 258.49195701672596 299 258.58057726014397 299 258.75781774698 299 C 258.93505823382003 299 259.02367847723997 299 259.20091896408 299 C 259.378159450916 299 259.46677969433404 299 259.64402018117 299 C 259.82126066801004 299 259.90988091143 299 260.08712139827 299 C 260.26436188510604 299 260.35298212852405 299 260.53022261536 299 C 260.7074631022 299 260.79608334562 299 260.97332383246 299 C 261.150564319296 299 261.239184562714 299 261.41642504955 299 C 261.59366553639 299 261.68228577981 299 261.85952626665 299 C 262.036766753486 299 262.125386996904 299 262.30262748374 299 C 262.47986797058 299 262.568488214 299 262.74572870084 299 C 262.92296918767596 299 263.01158943109397 299 263.18882991793 299 C 263.36607040477 299 263.45469064818997 299 263.63193113503 299 C 263.80917162186597 299 263.89779186528403 299 264.07503235212 299 C 264.25227283896004 299 264.34089308238 299 264.51813356922 299 C 264.69537405605604 299 264.78399429947405 299 264.96123478631 299 C 265.13847527315 299 265.22709551657 299 265.40433600341 299 C 265.581576490246 299 265.670196733664 299 265.8474372205 299 C 266.02467770734 299 266.11329795076 299 266.2905384376 299 C 266.467778924436 299 266.556399167854 299 266.73363965469 299 C 266.91088014153 299 266.99950038495 299 267.17674087179 299 C 267.35398135862596 299 267.44260160204396 299 267.61984208888 299 C 267.79708257572 299 267.88570281913996 299 268.06294330598 299 C 268.24018379281597 299 268.32880403623403 299 268.50604452307 299 C 268.68328500991004 299 268.77190525333 299 268.94914574017 299 C 269.12638622700604 299 269.21500647042404 299 269.39224695726 299 C 269.5694874441 299 269.65810768752 294.84722222222223 269.83534817436 294.84722222222223 C 270.012588661196 294.84722222222223 270.101208904614 299 270.27844939145 299 C 270.45568987829 299 270.54431012171 299 270.72155060855 299 C 270.898791095386 299 270.987411338804 299 271.16465182564 299 C 271.34189231248 299 271.4305125559 299 271.60775304274 299 C 271.78499352957596 299 271.87361377299396 299 272.05085425983 299 C 272.22809474667 299 272.31671499008996 299 272.49395547693 299 C 272.67119596376597 299 272.75981620718403 299 272.93705669402 299 C 273.11429718086004 299 273.20291742428 299 273.38015791112 299 C 273.55739839795604 299 273.64601864137404 299 273.82325912821 299 C 274.00049961505 299 274.08911985847 299 274.26636034531 299 C 274.443600832146 299 274.532221075564 299 274.7094615624 299 C 274.88670204924 299 274.97532229266 299 275.1525627795 299 C 275.329803266336 299 275.418423509754 299 275.59566399659 299 C 275.77290448343 299 275.86152472685 299 276.03876521369 299 C 276.21600570052595 299 276.30462594394396 299 276.48186643078 299 C 276.65910691762 299 276.74772716103996 299 276.92496764788 299 C 277.10220813471597 299 277.19082837813403 299 277.36806886497 299 C 277.54530935181003 299 277.63392959523 299 277.81117008207 299 C 277.98841056890603 299 278.07703081232404 299 278.25427129916 299 C 278.431511786 299 278.52013202942 299 278.69737251626 299 C 278.874613003096 299 278.963233246514 299 279.14047373335 299 C 279.31771422019 299 279.40633446361 299 279.58357495045 299 C 279.760815437286 299 279.849435680704 299 280.02667616754 299 C 280.20391665438 299 280.2925368978 299 280.46977738464 299 C 280.64701787147595 299 280.73563811489396 299 280.91287860173 299 C 281.09011908857 299 281.17873933198996 299 281.35597981883 299 C 281.53322030566596 299 281.621840549084 299 281.79908103592 299 C 281.97632152276003 299 282.06494176617997 299 282.24218225302 299 C 282.41942273985603 299 282.50804298327404 299 282.68528347011 299 C 282.86252395695 299 282.95114420037 299 283.12838468721 299 C 283.305625174046 299 283.394245417464 299 283.5714859043 299 C 283.74872639114 299 283.83734663456 299 284.0145871214 299 C 284.191827608236 299 284.280447851654 299 284.45768833849 299 C 284.63492882533 299 284.72354906875 299 284.90078955559 299 C 285.078030042426 299 285.166650285844 299 285.34389077268 299 C 285.52113125952 299 285.60975150293996 299 285.78699198978 299 C 285.96423247661596 299 286.052852720034 299 286.23009320687 299 C 286.40733369371003 299 286.49595393712997 299 286.67319442397 299 C 286.85043491080603 299 286.93905515422404 299 287.11629564106 299 C 287.2935361279 299 287.38215637132004 299 287.55939685816 299 C 287.73663734499604 299 287.82525758841405 299 288.00249807525 299 C 288.17973856209 299 288.26835880551 299 288.44559929235 299 C 288.622839779186 299 288.711460022604 299 288.88870050944 299 C 289.06594099628 299 289.1545612397 299 289.33180172654 299 C 289.509042213376 299 289.597662456794 299 289.77490294363 299 C 289.95214343047 299 290.04076367388996 299 290.21800416073 299 C 290.39524464756596 299 290.483864890984 299 290.66110537782 299 C 290.83834586466 299 290.92696610807997 299 291.10420659492 299 C 291.281447081756 299 291.37006732517403 299 291.54730781201 299 C 291.72454829885 299 291.81316854227003 299 291.99040902911 299 C 292.16764951594604 299 292.25626975936405 299 292.4335102462 299 C 292.61075073304 299 292.69937097646 299 292.8766114633 299 C 293.053851950136 299 293.142472193554 299 293.31971268039 299 C 293.49695316723 299 293.58557341065 299 293.76281389749 299 C 293.940054384326 299 294.028674627744 299 294.20591511458 299 C 294.38315560142 299 294.47177584483995 299 294.64901633168 299 C 294.82625681851596 299 294.914877061934 285.7111111111111 295.09211754877 285.7111111111111 C 295.26935803561 285.7111111111111 295.35797827902996 299 295.53521876587 299 C 295.712459252706 299 295.80107949612403 299 295.97831998296 299 C 296.1555604698 299 296.24418071322003 299 296.42142120006 299 C 296.59866168689604 299 296.68728193031404 299 296.86452241715 299 C 297.04176290399 299 297.13038314741 299 297.30762363425 299 C 297.484864121086 299 297.573484364504 299 297.75072485134 299 C 297.92796533818 299 298.0165855816 299 298.19382606844 299 C 298.371066555276 299 298.459686798694 299 298.63692728553 299 C 298.81416777237 299 298.90278801578995 299 299.08002850263 299 C 299.25726898946596 299 299.345889232884 299 299.52312971972 299 C 299.70037020656 299 299.78899044997996 299 299.96623093682 299 C 300.143471423656 299 300.23209166707403 299 300.40933215391 299 C 300.58657264075 299 300.67519288417003 299 300.85243337101 299 C 301.02967385784603 299 301.11829410126404 299 301.2955345881 299 C 301.47277507494 299 301.56139531836 299 301.7386358052 299 C 301.915876292036 299 302.004496535454 299 302.18173702229 299 C 302.35897750913 299 302.44759775255 258.02592592592595 302.62483823939 258.02592592592595 C 302.802078726226 258.02592592592595 302.890698969644 299 303.06793945648 299 C 303.24517994332 299 303.33380018673995 299 303.51104067358 299 C 303.68828116041595 299 303.776901403834 299 303.95414189067 299 C 304.13138237751 299 304.22000262092996 299 304.39724310777 299 C 304.574483594606 299 304.663103838024 299 304.84034432486 299 C 305.0175848117 299 305.10620505512003 299 305.28344554196 299 C 305.46068602879603 299 305.54930627221404 299 305.72654675905 299 C 305.90378724589 299 305.99240748931 299 306.16964797615 299 C 306.346888462986 299 306.435508706404 299 306.61274919324 299 C 306.78998968008 299 306.8786099235 299 307.05585041034 299 C 307.233090897176 299 307.321711140594 299 307.49895162743 299 C 307.67619211427 299 307.76481235768995 299 307.94205284453 299 C 308.119293331366 299 308.207913574784 299 308.38515406162 299 C 308.56239454846 299 308.65101479188 299 308.82825527872 299 C 309.005495765556 299 309.094116008974 299 309.27135649581 299 C 309.44859698265 299 309.53721722607 299 309.71445771291 299 C 309.89169819974603 299 309.98031844316404 299 310.15755893 299 C 310.33479941684 299 310.42341966026 299 310.6006601471 299 C 310.777900633936 299 310.866520877354 299 311.04376136419 299 C 311.22100185103 299 311.30962209445 299 311.48686258129 299 C 311.664103068126 299 311.752723311544 299 311.92996379838 299 C 312.10720428522 299 312.19582452863995 299 312.37306501548 299 C 312.550305502316 299 312.638925745734 299 312.81616623257 299 C 312.99340671941 299 313.08202696283 299 313.25926744967 299 C 313.436507936506 299 313.525128179924 299 313.70236866676 299 C 313.8796091536 299 313.96822939702 299 314.14546988386 299 C 314.32271037069603 299 314.41133061411404 299 314.58857110095 299 C 314.76581158779 299 314.85443183121004 299 315.03167231805 299 C 315.20891280489 299 315.29753304831 299 315.47477353515 299 C 315.652014021986 299 315.74063426540397 299 315.91787475224 299 C 316.09511523908 299 316.1837354825 299 316.36097596934 299 C 316.538216456176 299 316.626836699594 299 316.80407718643 299 C 316.9813176732699 299 317.06993791669004 299 317.24717840353 299 C 317.424418890366 299 317.513039133784 299 317.69027962062 299 C 317.86752010746 299 317.95614035088 299 318.13338083772 299 C 318.310621324556 299 318.399241567974 299 318.57648205481 299 C 318.75372254165006 299 318.84234278507 299 319.01958327191 299 C 319.196823758746 299 319.285444002164 299 319.462684489 299 C 319.63992497584 299 319.72854521926 299 319.9057857061 299 C 320.083026192936 299 320.17164643635397 299 320.34888692319 299 C 320.52612741002997 299 320.61474765345 299 320.79198814029 299 C 320.969228627126 299 321.057848870544 299 321.23508935738 299 C 321.41232984422 299 321.50095008764004 299 321.67819057448 299 C 321.855431061316 299 321.944051304734 299 322.12129179157 299 C 322.29853227841 299 322.38715252183 299 322.56439300867 299 C 322.741633495506 299 322.830253738924 299 323.00749422576 299 C 323.18473471260006 299 323.27335495602 299 323.45059544286 299 C 323.627835929696 299 323.716456173114 299 323.89369665995 299 C 324.07093714679 299 324.15955739021 299 324.33679787705 299 C 324.514038363886 299 324.60265860730397 299 324.77989909414 299 C 324.95713958097997 299 325.0457598244 299 325.22300031124 299 C 325.40024079807597 299 325.488861041494 299 325.66610152833 299 C 325.84334201517 299 325.93196225859003 299 326.10920274543 299 C 326.286443232266 299 326.375063475684 299 326.55230396252 299 C 326.72954444936 299 326.81816469278 299 326.99540517962 299 C 327.172645666456 299 327.261265909874 299 327.43850639671 299 C 327.61574688355006 299 327.70436712697 299 327.88160761381 299 C 328.058848100646 299 328.147468344064 299 328.3247088309 299 C 328.50194931774 299 328.59056956116 299 328.767810048 299 C 328.945050534836 299 329.03367077825396 299 329.21091126509 299 C 329.38815175192997 299 329.47677199535 299 329.65401248219 299 C 329.83125296902597 299 329.919873212444 299 330.09711369928 299 C 330.27435418612 299 330.36297442954003 299 330.54021491638 299 C 330.717455403216 299 330.806075646634 299 330.98331613347 299 C 331.16055662031 299 331.24917686373 299 331.42641735057 299 C 331.603657837406 299 331.692278080824 299 331.86951856766 299 C 332.04675905450006 299 332.13537929792 299 332.31261978476 299 C 332.489860271596 299 332.578480515014 299 332.75572100185 299 C 332.93296148869 299 333.02158173211 299 333.19882221895 299 C 333.376062705786 299 333.46468294920396 299 333.64192343604 299 C 333.81916392287997 299 333.9077841663 299 334.08502465314 299 C 334.26226513997597 299 334.350885383394 299 334.52812587023 299 C 334.70536635707 299 334.79398660049003 299 334.97122708733 299 C 335.148467574166 299 335.237087817584 299 335.41432830442 299 C 335.59156879126 299 335.68018903468 299 335.85742952152 299 C 336.034670008356 299 336.123290251774 299 336.30053073861 299 C 336.47777122545006 299 336.56639146887 299 336.74363195571 299 C 336.920872442546 299 337.009492685964 299 337.1867331728 299 C 337.36397365964 299 337.45259390306 299 337.6298343899 299 C 337.807074876736 299 337.89569512015396 299 338.07293560699 299 C 338.25017609382996 299 338.33879633725 299 338.51603682409 299 C 338.69327731092596 299 338.78189755434397 299 338.95913804118 299 C 339.13637852802 299 339.22499877144 299 339.40223925828 299 C 339.579479745116 299 339.668099988534 299 339.84534047537 299 C 340.02258096221 299 340.11120120563 299 340.28844169247 299 C 340.465682179306 299 340.554302422724 299 340.73154290956 299 C 340.90878339640005 299 340.99740363982 299 341.17464412666 299 C 341.351884613496 299 341.44050485691406 299 341.61774534375 299 C 341.79498583059 299 341.88360607401 299 342.06084656085 299 C 342.238087047686 299 342.326707291104 299 342.50394777794 299 C 342.68118826478 299 342.7698085082 299 342.94704899504 299 C 343.12428948187596 299 343.21290972529397 299 343.39015021213 299 C 343.56739069897 299 343.65601094239 299 343.83325142923 299 C 344.010491916066 299 344.099112159484 284.05 344.27635264632 284.05 C 344.45359313316 284.05 344.54221337658 299 344.71945386342 299 C 344.896694350256 299 344.985314593674 299 345.16255508051 299 C 345.33979556735005 299 345.42841581077 299 345.60565629761 299 C 345.782896784446 299 345.87151702786406 299 346.0487575147 299 C 346.22599800154 299 346.31461824496 299 346.4918587318 299 C 346.669099218636 299 346.757719462054 274.9138888888889 346.93495994889 274.9138888888889 C 347.11220043573 274.9138888888889 347.20082067915 299 347.37806116599 299 C 347.55530165282596 299 347.64392189624397 299 347.82116238308 299 C 347.99840286991997 299 348.08702311334 299 348.26426360018 299 C 348.44150408701597 299 348.530124330434 299 348.70736481727 299 C 348.88460530411004 299 348.97322554753 299 349.15046603437 299 C 349.327706521206 299 349.41632676462405 299 349.59356725146 299 C 349.77080773830005 299 349.85942798172 299 350.03666846856 299 C 350.213908955396 299 350.30252919881406 299 350.47976968565 299 C 350.65701017249 299 350.74563041591 299 350.92287090275 299 C 351.100111389586 299 351.188731633004 299 351.36597211984 299 C 351.54321260668 299 351.6318328501 299 351.80907333694 299 C 351.98631382377596 299 352.07493406719396 299 352.25217455403 299 C 352.42941504086997 299 352.51803528429 299 352.69527577113 299 C 352.87251625796597 299 352.961136501384 299 353.13837698822 299 C 353.31561747506004 299 353.40423771848 299 353.58147820532 299 C 353.758718692156 299 353.84733893557404 293.46296296296293 354.02457942241 293.46296296296293 C 354.20181990925005 293.46296296296293 354.29044015267 293.46296296296293 354.46768063951 293.7398148148148 C 354.644921126346 294.01666666666665 354.73354136976405 299 354.9107818566 299 C 355.08802234344 299 355.17664258686 299 355.3538830737 299 C 355.531123560536 299 355.619743803954 299 355.79698429079 299 C 355.97422477763 299 356.06284502105 299 356.24008550789 299 C 356.41732599472596 299 356.50594623814396 299 356.68318672498 299 C 356.86042721181997 299 356.94904745524 299 357.12628794208 299 C 357.30352842891597 299 357.392148672334 299 357.56938915917 299 C 357.74662964601004 299 357.83524988943 299 358.01249037627 299 C 358.189730863106 299 358.27835110652404 299 358.45559159336 299 C 358.63283208020005 299 358.72145232362 299 358.89869281046 299 C 359.075933297296 299 359.16455354071405 299 359.34179402755 299 C 359.51903451439 299 359.60765475781 299 359.78489524465 299 C 359.962135731486 299 360.050755974904 299 360.22799646174 299 C 360.40523694858 299 360.493857192 299 360.67109767884 299 C 360.84833816567595 299 360.93695840909396 299 361.11419889593 299 C 361.29143938276997 299 361.38005962619 299 361.55730011303 299 C 361.73454059986597 299 361.823160843284 299 362.00040133012 299 C 362.17764181696003 299 362.26626206038 299 362.44350254722 299 C 362.620743034056 299 362.70936327747404 299 362.88660376431 299 C 363.06384425115004 299 363.15246449457 299 363.32970498141 299 C 363.506945468246 299 363.59556571166405 299 363.7728061985 299 C 363.95004668534 299 364.03866692876 299 364.2159074156 299 C 364.393147902436 299 364.481768145854 299 364.65900863269 299 C 364.83624911953 299 364.92486936295 299 365.10210984979 299 C 365.27935033662595 299 365.36797058004396 299 365.54521106688 299 C 365.72245155371996 299 365.81107179714 299 365.98831228398 299 C 366.16555277081596 299 366.25417301423397 299 366.43141350107 299 C 366.60865398791003 299 366.69727423132997 299 366.87451471817 299 C 367.051755205006 299 367.14037544842404 299 367.31761593526 299 C 367.49485642210004 299 367.58347666552 299 367.76071715236 299 C 367.937957639196 299 368.02657788261405 299 368.20381836945 299 C 368.38105885629 299 368.46967909971 299 368.64691958655 299 C 368.824160073386 299 368.912780316804 299 369.09002080364 299 C 369.26726129048 299 369.3558815339 299 369.53312202074 299 C 369.710362507576 299 369.798982750994 299 369.97622323783 299 C 370.15346372467 299 370.24208396809 299 370.41932445493 299 C 370.59656494176596 299 370.68518518518397 299 370.86242567202 299 C 371.03966615886003 299 371.12828640227997 299 371.30552688912 299 C 371.482767375956 299 371.57138761937404 299 371.74862810621 299 C 371.92586859305004 299 372.01448883647 299 372.19172932331 299 C 372.36896981014604 299 372.45759005356405 299 372.6348305404 299 C 372.81207102724 299 372.90069127066 299 373.0779317575 299 C 373.255172244336 299 373.343792487754 299 373.52103297459 299 C 373.69827346143 299 373.78689370485 299 373.96413419169 299 C 374.141374678526 299 374.229994921944 299 374.40723540878 299 C 374.58447589562 299 374.67309613904 299 374.85033662588 299 C 375.02757711271596 299 375.11619735613397 299 375.29343784297 299 C 375.47067832981 299 375.55929857322997 299 375.73653906007 299 C 375.91377954690597 299 376.00239979032403 299 376.17964027716 299 C 376.35688076400004 299 376.44550100742 299 376.62274149426 299 C 376.79998198109604 299 376.88860222451405 299 377.06584271135 299 C 377.24308319819 299 377.33170344161 299 377.50894392845 299 C 377.686184415286 299 377.774804658704 299 377.95204514554 299 C 378.12928563238 299 378.2179058758 299 378.39514636264 299 C 378.572386849476 299 378.661007092894 299 378.83824757973 299 C 379.01548806657 299 379.10410830999 299 379.28134879683 299 C 379.45858928366596 299 379.54720952708396 299 379.72445001392 299 C 379.90169050076 299 379.99031074417996 299 380.16755123102 299 C 380.34479171785597 299 380.43341196127403 299 380.61065244811 299 C 380.78789293495004 299 380.87651317837 299 381.05375366521 299 C 381.23099415204604 299 381.31961439546404 299 381.4968548823 299 C 381.67409536914 299 381.76271561256 299 381.9399560994 299 C 382.117196586236 299 382.205816829654 299 382.38305731649 299 C 382.56029780333 299 382.64891804675 299 382.82615853359 299 C 383.003399020426 299 383.092019263844 299 383.26925975068 299 C 383.44650023752 299 383.53512048094 299 383.71236096778 299 C 383.88960145461596 299 383.97822169803396 299 384.15546218487 299 C 384.33270267171 299 384.42132291512996 299 384.59856340197 299 C 384.77580388880597 299 384.86442413222403 299 385.04166461906 299 C 385.21890510590003 299 385.30752534932 299 385.48476583616 299 C 385.66200632299604 299 385.75062656641404 299 385.92786705325 299 C 386.10510754009 299 386.19372778351 299 386.37096827035 299 C 386.548208757186 299 386.636829000604 299 386.81406948744 299 C 386.99130997428 299 387.0799302177 299 387.25717070454 299 C 387.434411191376 299 387.523031434794 299 387.70027192163 299 C 387.87751240847 299 387.96613265189 299 388.14337313873 299 C 388.32061362556595 299 388.40923386898396 299 388.58647435582 299 C 388.76371484266 299 388.85233508607996 299 389.02957557292 299 C 389.20681605975597 299 389.29543630317403 299 389.47267679001 299 C 389.64991727685003 299 389.73853752027 299 389.91577800711 299 C 390.09301849394603 299 390.18163873736404 299 390.3588792242 299 C 390.53611971104 299 390.62473995446 299 390.8019804413 299 C 390.979220928136 299 391.067841171554 299 391.24508165839 299 C 391.42232214523 299 391.51094238865 299 391.68818287549 299 C 391.865423362326 299 391.954043605744 299 392.13128409258 299 C 392.30852457942 299 392.39714482284 299 392.57438530968 299 C 392.75162579651595 299 392.840246039934 299 393.01748652677 299 C 393.19472701361 299 393.28334725702996 299 393.46058774387 299 C 393.63782823070596 299 393.726448474124 299 393.90368896096 299 C 394.08092944780003 299 394.16954969121997 299 394.34679017806 299 C 394.52403066489603 299 394.61265090831404 299 394.78989139515 299 C 394.96713188199 299 395.05575212541 299 395.23299261225 299 C 395.410233099086 299 395.498853342504 299 395.67609382934 299 C 395.85333431618 299 395.9419545596 299 396.11919504644 299 C 396.296435533276 299 396.385055776694 299 396.56229626353 299 C 396.73953675037 299 396.82815699379 299 397.00539748063 299 C 397.18263796746595 299 397.271258210884 299 397.44849869772 299 C 397.62573918456 299 397.71435942797996 299 397.89159991482 299 C 398.06884040165596 299 398.157460645074 299 398.33470113191 299 C 398.51194161875003 299 398.60056186216997 299 398.77780234901 299 C 398.95504283584603 299 399.04366307926404 299 399.2209035661 299 C 399.39814405294 299 399.48676429636004 299 399.6640047832 299 C 399.84124527003604 299 399.92986551345405 299 400.10710600029 299 C 400.28434648713 299 400.37296673055 299 400.55020721739 299 C 400.727447704226 299 400.816067947644 299 400.99330843448 299 C 401.17054892132 299 401.25916916474 299 401.43640965158 299 C 401.61365013841595 299 401.702270381834 299 401.87951086867 299 C 402.05675135551 299 402.14537159892996 299 402.32261208577 299 C 402.49985257260596 299 402.588472816024 299 402.76571330286 299 C 402.9429537897 299 403.03157403311997 299 403.20881451996 299 C 403.3860550068 299 403.47467525022 299 403.65191573706 299 C 403.829156223896 299 403.917776467314 299 404.09501695415 299 C 404.2722574409901 299 404.36087768441 299 404.53811817125 299 C 404.715358658086 299 404.80397890150397 299 404.98121938834 299 C 405.15845987518003 299 405.2470801186 299 405.42432060544 299 C 405.60156109227603 299 405.690181335694 299 405.86742182253 299 C 406.04466230937 299 406.13328255279004 299 406.31052303963 299 C 406.487763526466 299 406.576383769884 299 406.75362425672 299 C 406.93086474355994 299 407.01948498698005 299 407.19672547382 299 C 407.373965960656 299 407.462586204074 299 407.63982669091 299 C 407.81706717775 299 407.90568742117 299 408.08292790801 299 C 408.260168394846 299 408.348788638264 299 408.5260291251 299 C 408.7032696119401 299 408.79188985536 299 408.9691303422 299 C 409.146370829036 299 409.23499107245397 299 409.41223155929 299 C 409.58947204613 299 409.67809228955 299 409.85533277639 299 C 410.032573263226 299 410.121193506644 299 410.29843399348 299 C 410.47567448032 299 410.56429472374003 299 410.74153521058 299 C 410.918775697416 299 411.007395940834 299 411.18463642767 299 C 411.36187691450993 299 411.45049715793004 299 411.62773764477 299 C 411.804978131606 299 411.893598375024 299 412.07083886186 299 C 412.24807934870006 299 412.33669959212 299 412.51394007896 299 C 412.691180565796 299 412.77980080921407 299 412.95704129605 299 C 413.13428178289007 299 413.22290202631 299 413.40014251315 299 C 413.577382999986 299 413.66600324340396 299 413.84324373024 299 C 414.02048421708 299 414.1091044605 299 414.28634494734 299 C 414.463585434176 299 414.552205677594 299 414.72944616443 299 C 414.90668665127 299 414.99530689469003 299 415.17254738153 299 C 415.349787868366 299 415.438408111784 299 415.61564859862 299 C 415.79288908545993 299 415.88150932888004 299 416.05874981572 299 C 416.235990302556 299 416.324610545974 299 416.50185103281 299 C 416.67909151964994 299 416.76771176307 299 416.94495224991 299 C 417.122192736746 299 417.21081298016395 299 417.388053467 299 C 417.56529395384007 299 417.65391419726 299 417.8311546841 299 C 418.008395170936 299 418.09701541435396 299 418.27425590119 299 C 418.45149638802997 299 418.54011663145 299 418.71735711829 299 C 418.894597605126 299 418.983217848544 299 419.16045833538 299 C 419.33769882222 299 419.42631906564003 299 419.60355955248 299 C 419.780800039316 299 419.869420282734 299 420.04666076957 299 C 420.22390125640993 299 420.31252149983004 299 420.48976198667 299 C 420.667002473506 299 420.755622716924 299 420.93286320376 299 C 421.11010369060006 299 421.19872393402 299 421.37596442086 299 C 421.553204907696 299 421.64182515111406 299 421.81906563795 299 C 421.99630612479007 299 422.08492636821 299 422.26216685505 299 C 422.439407341886 299 422.52802758530396 299 422.70526807214 299 C 422.88250855898 299 422.9711288024 299 423.14836928924 299 C 423.325609776076 299 423.41423001949397 299 423.59147050633 299 C 423.76871099317 299 423.85733123659 299 424.03457172343 299 C 424.211812210266 299 424.300432453684 299 424.47767294052 299 C 424.65491342735993 299 424.74353367078004 299 424.92077415762 299 C 425.098014644456 299 425.186634887874 299 425.36387537471 299 C 425.54111586154994 299 425.62973610497 299 425.80697659181 299 C 425.984217078646 299 426.07283732206395 299 426.2500778089 299 C 426.42731829574006 299 426.51593853916 299 426.693179026 299 C 426.870419512836 299 426.95903975625407 299 427.13628024309 299 C 427.31352072993 299 427.40214097335 299 427.57938146019 299 C 427.756621947026 299 427.84524219044397 299 428.02248267728 299 C 428.19972316412 299 428.28834340754 299 428.46558389438 299 C 428.642824381216 299 428.731444624634 299 428.90868511147 299 C 429.0859255983099 299 429.17454584173004 299 429.35178632857 299 C 429.529026815406 299 429.617647058824 299 429.79488754566 299 C 429.97212803250005 299 430.06074827592 299 430.23798876276 299 C 430.415229249596 299 430.50384949301406 299 430.68108997985 299 C 430.85833046669006 299 430.94695071011 299 431.12419119695 299 C 431.301431683786 299 431.39005192720407 299 431.56729241404 299 C 431.74453290088 299 431.8331531443 299 432.01039363114 299 C 432.187634117976 299 432.27625436139397 299 432.45349484823 299 C 432.63073533506997 299 432.71935557849 299 432.89659606533 299 C 433.073836552166 299 433.162456795584 299 433.33969728242 299 C 433.51693776926004 299 433.60555801268004 299 433.78279849952 299 C 433.960038986356 299 434.04865922977405 299 434.22589971661 299 C 434.40314020344994 299 434.49176044687 299 434.66900093371 299 C 434.846241420546 299 434.93486166396394 299 435.1121021508 299 C 435.28934263764006 299 435.37796288106 299 435.5552033679 299 C 435.732443854736 299 435.82106409815407 299 435.99830458499 299 C 436.17554507183 299 436.26416531525 299 436.44140580209 299 C 436.618646288926 299 436.70726653234397 299 436.88450701918 299 C 437.06174750601997 299 437.15036774944 299 437.32760823628 299 C 437.50484872311597 299 437.593468966534 299 437.77070945337 299 C 437.9479499402099 299 438.03657018363003 299 438.21381067047 299 C 438.391051157306 299 438.479671400724 299 438.65691188756 299 C 438.83415237440005 299 438.92277261782 299 439.10001310466 299 C 439.277253591496 299 439.36587383491405 299 439.54311432175 299 C 439.72035480859006 299 439.80897505201 299 439.98621553885 299 C 440.163456025686 299 440.25207626910407 299 440.42931675594 299 C 440.60655724278 299 440.6951774862 299 440.87241797304 299 C 441.049658459876 299 441.13827870329396 299 441.31551919013 299 C 441.49275967696997 299 441.58137992039 299 441.75862040723 299 C 441.93586089406597 299 442.024481137484 299 442.20172162432 299 C 442.37896211116004 299 442.46758235458003 299 442.64482284142 299 C 442.822063328256 299 442.91068357167404 299 443.08792405851 299 C 443.26516454534993 299 443.35378478877 299 443.53102527561 299 C 443.708265762446 299 443.79688600586394 299 443.9741264927 299 C 444.15136697954006 299 444.23998722296 299 444.4172277098 299 C 444.594468196636 299 444.68308844005406 299 444.86032892689 299 C 445.03756941373 299 445.12618965715 299 445.30343014399 299 C 445.480670630826 299 445.56929087424396 299 445.74653136108 299 C 445.92377184791997 299 446.01239209134 299 446.18963257818 299 C 446.36687306501597 299 446.455493308434 299 446.63273379527 299 C 446.8099742821099 299 446.89859452553003 299 447.07583501237 299 C 447.253075499206 299 447.341695742624 299 447.51893622946 299 C 447.69617671630004 299 447.78479695972 299 447.96203744656 299 C 448.139277933396 299 448.22789817681405 299 448.40513866365 299 C 448.58237915049006 299 448.67099939391 299 448.84823988075 299 C 449.025480367586 299 449.11410061100406 299 449.29134109784 299 C 449.46858158468 299 449.5572018281 299 449.73444231494 299 C 449.911682801776 299 450.00030304519396 299 450.17754353203 299 C 450.35478401886996 299 450.44340426229 299 450.62064474913 299 C 450.79788523596596 299 450.88650547938397 299 451.06374596622 299 C 451.24098645306003 299 451.32960669648 299 451.50684718332 299 C 451.684087670156 299 451.77270791357404 299 451.94994840041 299 C 452.12718888724993 299 452.21580913067 299 452.39304961751 299 C 452.570290104346 299 452.65891034776394 299 452.8361508346 299 C 453.01339132144005 299 453.10201156486 299 453.2792520517 299 C 453.456492538536 299 453.54511278195406 299 453.72235326879 299 C 453.89959375563 299 453.98821399905 299 454.16545448589 299 C 454.342694972726 299 454.43131521614396 299 454.60855570298 299 C 454.78579618982 299 454.87441643324 299 455.05165692008 299 C 455.22889740691596 299 455.31751765033397 299 455.49475813717 299 C 455.6719986240099 299 455.76061886743 299 455.93785935427 299 C 456.115099841106 299 456.203720084524 299 456.38096057136 299 C 456.55820105820004 299 456.64682130162 299 456.82406178846 299 C 457.001302275296 299 457.08992251871405 299 457.26716300555 299 C 457.44440349239005 299 457.53302373581 299 457.71026422265 299 C 457.887504709486 299 457.97612495290406 299 458.15336543974 299 C 458.33060592658 299 458.41922617 299 458.59646665684 299 C 458.773707143676 299 458.86232738709407 299 459.03956787393 299 C 459.21680836077 299 459.30542860419 299 459.48266909103 299 C 459.65990957786596 299 459.74852982128397 299 459.92577030812 299 C 460.10301079496 299 460.19163103838 299 460.36887152522 299 C 460.54611201205597 299 460.63473225547403 299 460.81197274231 299 C 460.98921322915004 299 461.07783347257 299 461.25507395941 299 C 461.432314446246 299 461.52093468966405 299 461.6981751765 299 C 461.87541566334005 299 461.96403590676 299 462.1412763936 299 C 462.318516880436 299 462.40713712385406 299 462.58437761069 299 C 462.76161809753 299 462.85023834095 299 463.02747882779 299 C 463.204719314626 299 463.29333955804395 299 463.47058004488 299 C 463.64782053172 299 463.73644077514 299 463.91368126198 299 C 464.09092174881596 299 464.17954199223396 299 464.35678247907 299 C 464.5340229659099 299 464.62264320933 299 464.79988369617 299 C 464.97712418300597 299 465.065744426424 299 465.24298491326 299 C 465.42022540010004 299 465.50884564352 299 465.68608613036 299 C 465.863326617196 299 465.95194686061404 299 466.12918734745 299 C 466.30642783429005 299 466.39504807771 299 466.57228856455 299 C 466.749529051386 299 466.83814929480405 299 467.01538978164 299 C 467.19263026848 299 467.2812505119 299 467.45849099874 299 C 467.635731485576 299 467.72435172899407 299 467.90159221583 299 C 468.07883270267 299 468.16745294609 299 468.34469343293 299 C 468.52193391976596 299 468.61055416318396 299 468.78779465002 299 C 468.96503513686 299 469.05365538028 299 469.23089586712 299 C 469.40813635395597 299 469.49675659737403 299 469.67399708421 299 C 469.85123757105004 299 469.93985781447 299 470.11709830131 299 C 470.294338788146 299 470.38295903156404 299 470.5601995184 299 C 470.73744000524005 299 470.82606024866 299 471.0033007355 299 C 471.180541222336 299 471.26916146575405 299 471.44640195259 299 C 471.62364243943 299 471.71226268285 299 471.88950316969 299 C 472.066743656526 299 472.15536389994395 299 472.33260438678 299 C 472.50984487362 299 472.59846511704 299 472.77570560388 299 C 472.95294609071595 299 473.04156633413396 299 473.21880682097 299 C 473.3960473078099 299 473.48466755123 299 473.66190803807 299 C 473.83914852490597 299 473.927768768324 299 474.10500925516 299 C 474.28224974200003 299 474.37086998542 299 474.54811047226 299 C 474.725350959096 299 474.81397120251404 299 474.99121168935 299 C 475.16845217619004 299 475.25707241961 299 475.43431290645 299 C 475.611553393286 299 475.70017363670405 299 475.87741412354 299 C 476.05465461038 299 476.1432748538 299 476.32051534064 299 C 476.497755827476 299 476.58637607089406 299 476.76361655773 299 C 476.94085704457 299 477.02947728799 299 477.20671777483 299 C 477.38395826166595 299 477.47257850508396 299 477.64981899192 299 C 477.82705947876 299 477.91567972218 299 478.09292020902 299 C 478.27016069585596 299 478.358780939274 299 478.53602142611 299 C 478.71326191295003 299 478.80188215636997 299 478.97912264321 299 C 479.156363130046 299 479.24498337346404 299 479.4222238603 299 C 479.59946434714004 299 479.68808459056 299 479.8653250774 299 C 480.042565564236 299 480.13118580765405 299 480.30842629449 299 C 480.48566678133 299 480.57428702475 299 480.75152751159 299 C 480.928767998426 299 481.01738824184395 299 481.19462872868 299 C 481.37186921552 299 481.46048945894 299 481.63772994578 299 C 481.81497043261606 299 481.903590676034 299 482.08083116287 299 C 482.25807164971 299 482.34669189313 299 482.52393237997 299 C 482.70117286680596 299 482.78979311022397 299 482.96703359706 299 C 483.14427408390003 299 483.23289432731997 299 483.41013481416 299 C 483.587375300996 299 483.67599554441404 299 483.85323603125 299 C 484.03047651809004 299 484.11909676151 299 484.29633724835 299 C 484.473577735186 299 484.56219797860405 299 484.73943846544 299 C 484.91667895228 299 485.0052991957 299 485.18253968254 299 C 485.359780169376 299 485.44840041279406 299 485.62564089963 299 C 485.80288138647 299 485.89150162989 299 486.06874211673 299 C 486.24598260356595 299 486.334602846984 299 486.51184333382 299 C 486.68908382066 299 486.77770406408 299 486.95494455092 299 C 487.13218503775596 299 487.220805281174 299 487.39804576801 299 C 487.57528625485 299 487.66390649826997 299 487.84114698511 299 C 488.01838747194597 299 488.10700771536403 299 488.2842482022 299 C 488.46148868904004 299 488.55010893246 299 488.7273494193 299 C 488.90458990613604 299 488.99321014955405 299 489.17045063639 299 C 489.34769112323 299 489.43631136665 299 489.61355185349 299 C 489.790792340326 299 489.87941258374394 299 490.05665307058 299 C 490.23389355742 299 490.32251380084 299 490.49975428768 299 C 490.67699477451606 299 490.765615017934 299 490.94285550477 299 C 491.12009599161 299 491.20871623503 299 491.38595672187 299 C 491.56319720871 299 491.65181745212993 299 491.82905793897 299 C 492.006298425806 299 492.094918669224 299 492.27215915606 299 C 492.44939964289995 299 492.53801988632006 299 492.71526037316 299 C 492.892500859996 299 492.981121103414 299 493.15836159025 299 C 493.33560207708996 299 493.42422232051 299 493.60146280735 299 C 493.778703294186 299 493.86732353760397 299 494.04456402444 299 C 494.22180451127997 299 494.3104247547 299 494.48766524154 299 C 494.664905728376 299 494.753525971794 299 494.93076645863 299 C 495.10800694547 299 495.19662718889003 299 495.37386767573 299 C 495.55110816256604 299 495.639728405984 299 495.81696889282 299 C 495.99420937966 299 496.08282962308004 299 496.26007010992 299 C 496.437310596756 299 496.525930840174 299 496.70317132701 299 C 496.88041181384995 299 496.96903205727006 299 497.14627254411 299 C 497.323513030946 299 497.412133274364 299 497.5893737612 299 C 497.76661424804007 299 497.85523449146 299 498.0324749783 299 C 498.209715465136 299 498.29833570855396 299 498.47557619539 299 C 498.65281668222997 299 498.74143692564996 299 498.91867741249 299 C 499.095917899326 299 499.184538142744 299 499.36177862958 299 C 499.53901911642004 299 499.62763935984003 299 499.80487984668 299 C 499.98212033351604 299 500.070740576934 299 500.24798106377 299 C 500.42522155061 299 500.51384179402993 299 500.69108228087 299 C 500.868322767706 299 500.956943011124 299 501.13418349796 299 C 501.31142398479994 299 501.40004422822005 299 501.57728471506 299 C 501.754525201896 299 501.843145445314 299 502.02038593215 299 C 502.19762641898996 299 502.28624666241 299 502.46348714925 299 C 502.640727636086 299 502.72934787950396 299 502.90658836634 299 C 503.08382885317997 299 503.1724490966 299 503.34968958344 299 C 503.526930070276 299 503.615550313694 299 503.79279080053 299 C 503.97003128737 299 504.05865153079003 299 504.23589201763 299 C 504.41313250446603 299 504.501752747884 299 504.67899323472 299 C 504.85623372156 299 504.94485396498004 299 505.12209445182 299 C 505.299334938656 299 505.387955182074 299 505.56519566891 299 C 505.74243615574994 299 505.83105639917005 299 506.00829688601 299 C 506.185537372846 299 506.274157616264 299 506.4513981031 299 C 506.62863858994007 299 506.71725883336 299 506.8944993202 299 C 507.071739807036 299 507.16036005045396 299 507.33760053729 299 C 507.51484102412996 299 507.60346126754996 299 507.78070175439 299 C 507.957942241226 299 508.04656248464397 299 508.22380297148 299 C 508.40104345832003 299 508.48966370174 299 508.66690418858 299 C 508.84414467541603 299 508.932764918834 299 509.11000540567 299 C 509.28724589251 299 509.3758661359299 299 509.55310662277 299 C 509.730347109606 299 509.818967353024 299 509.99620783986 299 C 510.17344832669994 299 510.26206857012005 299 510.43930905696 299 C 510.616549543796 299 510.705169787214 299 510.88241027405 299 C 511.05965076088995 299 511.14827100431 299 511.32551149115 299 C 511.502751977986 299 511.59137222140396 299 511.76861270824 299 C 511.9458531950801 299 512.0344734385 299 512.21171392534 299 C 512.388954412176 299 512.477574655594 299 512.65481514243 299 C 512.83205562927 299 512.92067587269 299 513.09791635953 299 C 513.275156846366 299 513.363777089784 299 513.54101757662 299 C 513.71825806346 299 513.80687830688 299 513.98411879372 299 C 514.1613592805559 299 514.2499795239739 299 514.42722001081 299 C 514.6044604976499 299 514.6930807410699 299 514.87032122791 299 C 515.047561714746 299 515.136181958164 299 515.313422445 299 C 515.49066293184 299 515.57928317526 299 515.7565236621 299 C 515.933764148936 299 516.022384392354 299 516.19962487919 299 C 516.37686536603 299 516.46548560945 299 516.64272609629 299 C 516.819966583126 299 516.908586826544 299 517.08582731338 299 C 517.26306780022 299 517.35168804364 299 517.52892853048 299 C 517.706169017316 299 517.794789260734 299 517.97202974757 299 C 518.14927023441 299 518.23789047783 299 518.41513096467 299 C 518.592371451506 299 518.6809916949239 299 518.85823218176 299 C 519.0354726686 299 519.12409291202 299 519.30133339886 299 C 519.478573885696 299 519.5671941291141 299 519.74443461595 299 C 519.92167510279 299 520.01029534621 299 520.18753583305 299 C 520.364776319886 299 520.453396563304 299 520.63063705014 299 C 520.80787753698 299 520.8964977804 299 521.07373826724 299 C 521.250978754076 299 521.339598997494 299 521.51683948433 299 C 521.69407997117 299 521.78270021459 299 521.95994070143 299 C 522.137181188266 299 522.225801431684 298.1694444444444 522.40304191852 298.1694444444444 C 522.58028240536 298.1694444444444 522.66890264878 299 522.84614313562 299 C 523.023383622456 299 523.112003865874 299 523.28924435271 299 C 523.46648483955 299 523.55510508297 299 523.73234556981 299 C 523.909586056646 299 523.998206300064 299 524.1754467869 299 C 524.35268727374 299 524.44130751716 299 524.618548004 299 C 524.795788490836 299 524.884408734254 299 525.06164922109 299 C 525.23888970793 299 525.32750995135 299 525.50475043819 299 C 525.681990925026 299 525.770611168444 299 525.94785165528 299 C 526.12509214212 299 526.21371238554 299 526.39095287238 299 C 526.568193359216 299 526.656813602634 299 526.83405408947 299 C 527.01129457631 299 527.09991481973 299 527.27715530657 299 C 527.454395793406 299 527.5430160368239 299 527.72025652366 299 C 527.8974970105 299 527.98611725392 299 528.16335774076 299 C 528.340598227596 299 528.4292184710141 299 528.60645895785 299 C 528.78369944469 299 528.87231968811 299 529.04956017495 299 C 529.226800661786 299 529.315420905204 299 529.49266139204 299 C 529.6699018788801 299 529.7585221223001 299 529.93576260914 299 C 530.1130030959761 299 530.201623339394 299 530.37886382623 299 C 530.55610431307 299 530.64472455649 299 530.82196504333 299 C 530.999205530166 299 531.087825773584 299 531.26506626042 299 C 531.44230674726 299 531.53092699068 299 531.70816747752 299 C 531.885407964356 299 531.974028207774 299 532.15126869461 299 C 532.32850918145 299 532.41712942487 299 532.59436991171 299 C 532.771610398546 299 532.860230641964 299 533.0374711288 299 C 533.21471161564 299 533.30333185906 299 533.4805723459 299 C 533.657812832736 299 533.746433076154 299 533.92367356299 299 C 534.10091404983 299 534.1895342932501 299 534.36677478009 299 C 534.544015266926 299 534.632635510344 299 534.80987599718 299 C 534.98711648402 299 535.07573672744 299 535.25297721428 299 C 535.430217701116 299 535.69607843137 299 535.69607843137 299" class="highcharts-graph" data-z-index="1" stroke="#000000" stroke-width="2" stroke-linejoin="round" stroke-linecap="round"></path></g><g data-z-index="0.1" class="highcharts-markers highcharts-series-0 highcharts-spline-series highcharts-color-0 " transform="translate(49,63) scale(1 1)" clip-path="none"></g></g><text x="300" text-anchor="middle" class="highcharts-title" data-z-index="4" style="color:#333333;font-size:18px;fill:#333333;" y="24"><tspan>Quantifiedself.com Usage Over Time</tspan></text><text x="300" text-anchor="middle" class="highcharts-subtitle" data-z-index="4" style="color:#666666;fill:#666666;" y="46"><tspan>This chart shows how your Quantifiedself.com Usage changes over time.</tspan></text><g class="highcharts-axis-labels highcharts-xaxis-labels " data-z-index="7"><text x="89.650310416564" style="color:#666666;cursor:default;font-size:11px;fill:#666666;" text-anchor="middle" transform="translate(0,0)" y="381" opacity="1"><tspan>Jan '14</tspan></text><text x="169.85163071076" style="color:#666666;cursor:default;font-size:11px;fill:#666666;" text-anchor="middle" transform="translate(0,0)" y="381" opacity="1"><tspan>Jul '14</tspan></text><text x="251.38225465625" style="color:#666666;cursor:default;font-size:11px;fill:#666666;" text-anchor="middle" transform="translate(0,0)" y="381" opacity="1"><tspan>Jan '15</tspan></text><text x="331.58357495045" style="color:#666666;cursor:default;font-size:11px;fill:#666666;" text-anchor="middle" transform="translate(0,0)" y="381" opacity="1"><tspan>Jul '15</tspan></text><text x="413.11419889593" style="color:#666666;cursor:default;font-size:11px;fill:#666666;" text-anchor="middle" transform="translate(0,0)" y="381" opacity="1"><tspan>Jan '16</tspan></text><text x="493.75862040723" style="color:#666666;cursor:default;font-size:11px;fill:#666666;" text-anchor="middle" transform="translate(0,0)" y="381" opacity="1"><tspan>Jul '16</tspan></text><text x="572" style="color:#666666;cursor:default;font-size:11px;fill:#666666;" text-anchor="middle" transform="translate(0,0)" y="381" opacity="1"><tspan>Jan '17</tspan></text></g><g class="highcharts-axis-labels highcharts-yaxis-labels " data-z-index="7"><text x="34" style="color:#666666;cursor:default;font-size:11px;fill:#666666;" text-anchor="end" transform="translate(0,0)" y="366" opacity="1">0</text><text x="34" style="color:#666666;cursor:default;font-size:11px;fill:#666666;" text-anchor="end" transform="translate(0,0)" y="316" opacity="1">0.05</text><text x="34" style="color:#666666;cursor:default;font-size:11px;fill:#666666;" text-anchor="end" transform="translate(0,0)" y="266" opacity="1">0.1</text><text x="34" style="color:#666666;cursor:default;font-size:11px;fill:#666666;" text-anchor="end" transform="translate(0,0)" y="216" opacity="1">0.15</text><text x="34" style="color:#666666;cursor:default;font-size:11px;fill:#666666;" text-anchor="end" transform="translate(0,0)" y="166" opacity="1">0.2</text><text x="34" style="color:#666666;cursor:default;font-size:11px;fill:#666666;" text-anchor="end" transform="translate(0,0)" y="116" opacity="1">0.25</text><text x="34" style="color:#666666;cursor:default;font-size:11px;fill:#666666;" text-anchor="end" transform="translate(0,0)" y="67" opacity="1">0.3</text></g><a xlink:href="https://quantimo.do" target="_blank">
                    <text x="590" class="highcharts-credits" text-anchor="end" data-z-index="8"
                          style="cursor:pointer;color:#999999;font-size:9px;fill:#999999;" y="395">https://quantimo.do
                    </text>
                </a></svg>