<?xml version="1.0" standalone="no"?><!DOCTYPE svg PUBLIC "-//W3C//DTD SVG 1.1//EN" "http://www.w3.org/Graphics/SVG/1.1/DTD/svg11.dtd"><svg xmlns:xlink="http://www.w3.org/1999/xlink" version="1.1" class="highcharts-root" style="font-family:&quot;Lucida Grande&quot;, &quot;Lucida Sans Unicode&quot;, Arial, Helvetica, sans-serif;font-size:12px;" xmlns="http://www.w3.org/2000/svg" width="600" height="400"><desc>Created with Highstock 6.2.0</desc><defs><clipPath id="highcharts-lij4d66-128"><rect x="0" y="0" width="544" height="299" fill="none"></rect></clipPath><clipPath id="highcharts-lij4d66-250"><rect x="0" y="0" width="544" height="299" fill="none"></rect></clipPath><clipPath id="highcharts-lij4d66-251"><rect x="46" y="63" width="544" height="299" fill="none"></rect></clipPath></defs><rect fill="#ffffff" class="highcharts-background" x="0" y="0" width="600" height="400" rx="0" ry="0"></rect><rect fill="none" class="highcharts-plot-background" x="46" y="63" width="544" height="299"></rect><g class="highcharts-pane-group" data-z-index="0"></g><g class="highcharts-grid highcharts-xaxis-grid " data-z-index="1"><path fill="none" data-z-index="1" class="highcharts-grid-line" d="M 77.5 63 L 77.5 362" opacity="1"></path><path fill="none" data-z-index="1" class="highcharts-grid-line" d="M 210.5 63 L 210.5 362" opacity="1"></path><path fill="none" data-z-index="1" class="highcharts-grid-line" d="M 348.5 63 L 348.5 362" opacity="1"></path><path fill="none" data-z-index="1" class="highcharts-grid-line" d="M 481.5 63 L 481.5 362" opacity="1"></path></g><g class="highcharts-grid highcharts-yaxis-grid " data-z-index="1"><path fill="none" stroke="#e6e6e6" stroke-width="1" data-z-index="1" class="highcharts-grid-line" d="M 46 362.5 L 590 362.5" opacity="1"></path><path fill="none" stroke="#e6e6e6" stroke-width="1" data-z-index="1" class="highcharts-grid-line" d="M 46 302.5 L 590 302.5" opacity="1"></path><path fill="none" stroke="#e6e6e6" stroke-width="1" data-z-index="1" class="highcharts-grid-line" d="M 46 242.5 L 590 242.5" opacity="1"></path><path fill="none" stroke="#e6e6e6" stroke-width="1" data-z-index="1" class="highcharts-grid-line" d="M 46 183.5 L 590 183.5" opacity="1"></path><path fill="none" stroke="#e6e6e6" stroke-width="1" data-z-index="1" class="highcharts-grid-line" d="M 46 123.5 L 590 123.5" opacity="1"></path><path fill="none" stroke="#e6e6e6" stroke-width="1" data-z-index="1" class="highcharts-grid-line" d="M 46 62.5 L 590 62.5" opacity="1"></path></g><rect fill="none" class="highcharts-plot-border" data-z-index="1" x="46" y="63" width="544" height="299"></rect><g class="highcharts-axis highcharts-xaxis " data-z-index="2"><path fill="none" class="highcharts-tick" stroke="#ccd6eb" stroke-width="1" d="M 77.5 362 L 77.5 372" opacity="1"></path><path fill="none" class="highcharts-tick" stroke="#ccd6eb" stroke-width="1" d="M 210.5 362 L 210.5 372" opacity="1"></path><path fill="none" class="highcharts-tick" stroke="#ccd6eb" stroke-width="1" d="M 348.5 362 L 348.5 372" opacity="1"></path><path fill="none" class="highcharts-tick" stroke="#ccd6eb" stroke-width="1" d="M 481.5 362 L 481.5 372" opacity="1"></path><path fill="none" class="highcharts-axis-line" stroke="#ccd6eb" stroke-width="1" data-z-index="7" d="M 46 362.5 L 590 362.5"></path></g><g class="highcharts-axis highcharts-yaxis " data-z-index="2"><path fill="none" class="highcharts-axis-line" data-z-index="7" d="M 46 63 L 46 362"></path></g><g class="highcharts-series-group" data-z-index="3"><g data-z-index="0.1" class="highcharts-series highcharts-series-0 highcharts-spline-series highcharts-color-0 " transform="translate(46,63) scale(1 1)" clip-path="url(#highcharts-lij4d66-250)"><path fill="none" d="M 5.3333333333333 299 C 5.3333333333333 299 8 299 9.7777777777778 299 C 11.55555555555548 299 12.444444444444319 299 14.222222222222 299 C 16 299 16.888888888889 299 18.666666666667 299 C 20.4444444444446 299 21.3333333333334 299 23.111111111111 299 C 24.888888888889 299 25.777777777778 299 27.555555555556 299 C 29.3333333333336 299 30.2222222222224 299 32 299 C 33.7777777777776 299 34.6666666666664 299 36.444444444444 299 C 38.222222222222 299 39.111111111111 299 40.888888888889 299 C 42.6666666666666 299 43.5555555555554 299 45.333333333333 299 C 47.111111111111 299 48 299 49.777777777778 299 C 51.5555555555556 299 52.4444444444444 299 54.222222222222 299 C 56 299 56.88888888888901 299 58.666666666667 299 C 60.44444444444459 299 61.33333333333339 299 63.111111111111 299 C 64.888888888889 299 65.777777777778 299 67.555555555556 299 C 69.3333333333336 299 70.2222222222224 299 72 299 C 73.7777777777776 299 74.6666666666664 299 76.444444444444 299 C 78.222222222222 299 79.111111111111 299 80.888888888889 299 C 82.6666666666666 299 83.5555555555554 299 85.333333333333 299 C 87.111111111111 299 88 299 89.777777777778 299 C 91.5555555555556 299 92.4444444444444 299 94.222222222222 299 C 96 299 96.888888888889 299 98.666666666667 299 C 100.4444444444442 299 101.3333333333328 299 103.11111111111 299 C 104.88888888889001 299 105.77777777778002 299 107.55555555556 299 C 109.33333333333601 299 110.22222222222399 299 112 299 C 113.77777777777601 299 114.66666666666399 299 116.44444444444 299 C 118.22222222221998 299 119.11111111110999 299 120.88888888889 299 C 122.66666666666599 299 123.555555555554 299 125.33333333333 299 C 127.11111111110999 299 128 299 129.77777777778 299 C 131.555555555556 299 132.444444444444 299 134.22222222222 299 C 136 299 136.88888888889 299 138.66666666667 282.256 C 140.444444444446 265.51199999999994 141.333333333334 87.30800000000002 143.11111111111 83.12200000000001 C 144.88888888889 78.936 145.77777777778002 78.936 147.55555555556 78.936 C 149.33333333333601 78.936 150.222222222224 282.256 152 282.256 C 153.777777777776 282.256 154.66666666666399 277.35239999999544 156.44444444444 273.286 C 158.22222222221998 269.21959999999547 159.11111111111 261.924 160.88888888889 261.924 C 162.666666666666 261.924 163.555555555554 294.216 165.33333333333 294.216 C 167.11111111111 294.216 168 294.216 169.77777777778 293.618 C 171.555555555556 293.02 172.444444444444 52.02600000000001 174.22222222222 52.02600000000001 C 176 52.02600000000001 176.88888888889 133.354 178.66666666667 133.354 C 180.444444444446 133.354 181.33333333333402 84.916 183.11111111111 84.916 C 184.88888888889 84.916 185.77777777778002 149.38039999995303 187.55555555556 191.36 C 189.33333333333601 233.33959999995304 190.222222222224 291.22600000000006 192 294.814 C 193.777777777776 298.402 194.66666666666399 298.402 196.44444444444 298.402 C 198.22222222221998 298.402 199.11111111111 298.402 200.88888888889 298.402 C 202.66666666666598 298.402 203.555555555554 298.402 205.33333333333 297.804 C 207.11111111111 297.20599999999996 208 208.82160000004532 209.77777777778 168.038 C 211.55555555555603 127.25440000004531 212.44444444444397 93.886 214.22222222222 93.886 C 216 93.886 216.88888888889 297.804 218.66666666667 297.804 C 220.444444444446 297.804 221.33333333333402 255.346 223.11111111111 255.346 C 224.88888888889 255.346 225.77777777778002 256.0635999999942 227.55555555556 261.326 C 229.33333333333604 266.5883999999942 230.222222222224 281.658 232 281.658 C 233.777777777776 281.658 234.66666666666396 280.462 236.44444444444 280.462 C 238.22222222221998 280.462 239.11111111111 296.60799999999995 240.88888888889 297.804 C 242.66666666666598 299 243.555555555554 299 245.33333333333 299 C 247.11111111111 299 248 299 249.77777777778 299 C 251.55555555555603 299 252.44444444444397 299 254.22222222222 299 C 256 299 256.88888888889 299 258.66666666667 299 C 260.444444444446 299 261.33333333333405 299 263.11111111111 299 C 264.88888888889 299 265.77777777778 299 267.55555555556 299 C 269.333333333336 299 270.222222222224 299 272 299 C 273.777777777776 299 274.666666666664 299 276.44444444444 299 C 278.22222222222 299 279.11111111111 299 280.88888888889 299 C 282.66666666666595 299 283.555555555554 299 285.33333333333 299 C 287.11111111111 299 288 299 289.77777777778 299 C 291.555555555556 299 292.444444444444 299 294.22222222222 299 C 296 299 296.88888888889 299 298.66666666667 299 C 300.444444444446 299 301.33333333333405 299 303.11111111111 299 C 304.88888888889 299 305.77777777778 299 307.55555555556 299 C 309.333333333336 299 310.222222222224 299 312 299 C 313.777777777776 299 314.666666666664 299 316.44444444444 299 C 318.22222222222 299 319.11111111111 299 320.88888888889 299 C 322.66666666666595 299 323.555555555554 299 325.33333333333 299 C 327.11111111111 299 328 299 329.77777777778 299 C 331.555555555556 299 332.444444444444 299 334.22222222222 299 C 336 299 336.88888888889 299 338.66666666667 299 C 340.444444444446 299 341.33333333333405 299 343.11111111111 299 C 344.88888888889 299 345.77777777778 299 347.55555555556 299 C 349.333333333336 299 350.222222222224 299 352 299 C 353.777777777776 299 354.666666666664 299 356.44444444444 299 C 358.22222222222 299 359.11111111111 299 360.88888888889 299 C 362.66666666666595 299 363.555555555554 299 365.33333333333 299 C 367.11111111111 299 368 299 369.77777777778 299 C 371.555555555556 299 372.444444444444 298.402 374.22222222222 298.402 C 376 298.402 376.88888888889 299 378.66666666667 299 C 380.444444444446 299 381.33333333333405 299 383.11111111111 299 C 384.88888888889 299 385.77777777778 299 387.55555555556 299 C 389.333333333336 299 390.222222222224 299 392 299 C 393.777777777776 299 394.666666666664 299 396.44444444444 299 C 398.22222222222 299 399.11111111111 299 400.88888888889 299 C 402.66666666666595 299 403.555555555554 299 405.33333333333 299 C 407.11111111111 299 408 299 409.77777777778 299 C 411.555555555556 299 412.444444444444 299 414.22222222222 299 C 416 299 416.88888888888994 299 418.66666666667 299 C 420.444444444446 299 421.33333333333405 299 423.11111111111 299 C 424.88888888888994 299 425.77777777778 299 427.55555555556 299 C 429.33333333333593 299 430.222222222224 299 432 299 C 433.777777777776 299 434.66666666666407 299 436.44444444444 299 C 438.22222222222 299 439.11111111111006 299 440.88888888889 299 C 442.66666666666595 299 443.555555555554 299 445.33333333333 299 C 447.11111111111006 299 448 299 449.77777777778 299 C 451.555555555556 299 452.444444444444 299 454.22222222222 299 C 456 299 456.88888888888994 299 458.66666666667 299 C 460.444444444446 299 461.33333333333405 299 463.11111111111 299 C 464.88888888888994 299 465.77777777778 299 467.55555555556 299 C 469.33333333333593 299 470.222222222224 299 472 299 C 473.777777777776 299 474.66666666666407 299 476.44444444444 299 C 478.22222222222 299 479.11111111111006 299 480.88888888889 299 C 482.66666666666595 299 483.555555555554 299 485.33333333333 299 C 487.11111111111006 299 488 299 489.77777777778 299 C 491.555555555556 299 492.444444444444 299 494.22222222222 299 C 496 299 496.88888888888994 299 498.66666666667 299 C 500.444444444446 299 501.33333333333405 299 503.11111111111 299 C 504.88888888888994 299 505.77777777778 299 507.55555555556 299 C 509.33333333333593 299 510.222222222224 299 512 299 C 513.777777777776 299 514.666666666664 299 516.44444444444 299 C 518.2222222222201 299 519.1111111111101 299 520.88888888889 299 C 522.6666666666661 299 523.5555555555541 299 525.33333333333 299 C 527.1111111111101 299 528 299 529.77777777778 299 C 531.555555555556 299 532.444444444444 299 534.22222222222 299 C 536 299 538.66666666667 299 538.66666666667 299" class="highcharts-graph" data-z-index="1" stroke="#000000" stroke-width="2" stroke-linejoin="round" stroke-linecap="round"></path></g><g data-z-index="0.1" class="highcharts-markers highcharts-series-0 highcharts-spline-series highcharts-color-0 " transform="translate(46,63) scale(1 1)" clip-path="none"></g></g><text x="300" text-anchor="middle" class="highcharts-title" data-z-index="4" style="color:#333333;font-size:18px;fill:#333333;" y="24"><tspan>ExerciseMins Over Time (Smoothed)</tspan></text><text x="300" text-anchor="middle" class="highcharts-subtitle" data-z-index="4" style="color:#666666;fill:#666666;" y="46"><tspan>This chart shows how your ExerciseMins changes over time.</tspan></text><g class="highcharts-axis-labels highcharts-xaxis-labels " data-z-index="7"><text x="78" style="color:#666666;cursor:default;font-size:11px;fill:#666666;" text-anchor="middle" transform="translate(0,0)" y="381" opacity="1"><tspan>Apr '13</tspan></text><text x="211.33333333333" style="color:#666666;cursor:default;font-size:11px;fill:#666666;" text-anchor="middle" transform="translate(0,0)" y="381" opacity="1"><tspan>May '13</tspan></text><text x="349.11111111111" style="color:#666666;cursor:default;font-size:11px;fill:#666666;" text-anchor="middle" transform="translate(0,0)" y="381" opacity="1"><tspan>Jun '13</tspan></text><text x="482.44444444444" style="color:#666666;cursor:default;font-size:11px;fill:#666666;" text-anchor="middle" transform="translate(0,0)" y="381" opacity="1"><tspan>Jul '13</tspan></text></g><g class="highcharts-axis-labels highcharts-yaxis-labels " data-z-index="7"><text x="31" style="color:#666666;cursor:default;font-size:11px;fill:#666666;" text-anchor="end" transform="translate(0,0)" y="366" opacity="1">0</text><text x="31" style="color:#666666;cursor:default;font-size:11px;fill:#666666;" text-anchor="end" transform="translate(0,0)" y="306" opacity="1">100</text><text x="31" style="color:#666666;cursor:default;font-size:11px;fill:#666666;" text-anchor="end" transform="translate(0,0)" y="246" opacity="1">200</text><text x="31" style="color:#666666;cursor:default;font-size:11px;fill:#666666;" text-anchor="end" transform="translate(0,0)" y="186" opacity="1">300</text><text x="31" style="color:#666666;cursor:default;font-size:11px;fill:#666666;" text-anchor="end" transform="translate(0,0)" y="126" opacity="1">400</text><text x="31" style="color:#666666;cursor:default;font-size:11px;fill:#666666;" text-anchor="end" transform="translate(0,0)" y="67" opacity="1">500</text></g><a xlink:href="https://quantimo.do" target="_blank">
                    <text x="590" class="highcharts-credits" text-anchor="end" data-z-index="8"
                          style="cursor:pointer;color:#999999;font-size:9px;fill:#999999;" y="295">https://quantimo.do
                    </text>
                </a></svg>