<?xml version="1.0" standalone="no"?><!DOCTYPE svg PUBLIC "-//W3C//DTD SVG 1.1//EN" "http://www.w3.org/Graphics/SVG/1.1/DTD/svg11.dtd"><svg xmlns:xlink="http://www.w3.org/1999/xlink" version="1.1" class="highcharts-root" style="font-family:&quot;Lucida Grande&quot;, &quot;Lucida Sans Unicode&quot;, Arial, Helvetica, sans-serif;font-size:12px;" xmlns="http://www.w3.org/2000/svg" width="600" height="400"><desc>Created with Highstock 6.2.0</desc><defs><clipPath id="highcharts-xy32qgp-103"><rect x="0" y="0" width="503" height="257" fill="none"></rect></clipPath><clipPath id="highcharts-xy32qgp-200"><rect x="0" y="0" width="503" height="257" fill="none"></rect></clipPath><clipPath id="highcharts-xy32qgp-201"><rect x="87" y="84" width="503" height="257" fill="none"></rect></clipPath></defs><rect fill="#ffffff" class="highcharts-background" x="0" y="0" width="600" height="400" rx="0" ry="0"></rect><rect fill="none" class="highcharts-plot-background" x="87" y="84" width="503" height="257"></rect><g class="highcharts-pane-group" data-z-index="0"></g><g class="highcharts-grid highcharts-xaxis-grid " data-z-index="1"><path fill="none" data-z-index="1" class="highcharts-grid-line" d="M 91.5 84 L 91.5 341" opacity="1"></path><path fill="none" data-z-index="1" class="highcharts-grid-line" d="M 194.5 84 L 194.5 341" opacity="1"></path><path fill="none" data-z-index="1" class="highcharts-grid-line" d="M 297.5 84 L 297.5 341" opacity="1"></path><path fill="none" data-z-index="1" class="highcharts-grid-line" d="M 400.5 84 L 400.5 341" opacity="1"></path><path fill="none" data-z-index="1" class="highcharts-grid-line" d="M 503.5 84 L 503.5 341" opacity="1"></path></g><g class="highcharts-grid highcharts-yaxis-grid " data-z-index="1"><path fill="none" stroke="#e6e6e6" stroke-width="1" data-z-index="1" class="highcharts-grid-line" d="M 87 341.5 L 590 341.5" opacity="1"></path><path fill="none" stroke="#e6e6e6" stroke-width="1" data-z-index="1" class="highcharts-grid-line" d="M 87 277.5 L 590 277.5" opacity="1"></path><path fill="none" stroke="#e6e6e6" stroke-width="1" data-z-index="1" class="highcharts-grid-line" d="M 87 213.5 L 590 213.5" opacity="1"></path><path fill="none" stroke="#e6e6e6" stroke-width="1" data-z-index="1" class="highcharts-grid-line" d="M 87 148.5 L 590 148.5" opacity="1"></path><path fill="none" stroke="#e6e6e6" stroke-width="1" data-z-index="1" class="highcharts-grid-line" d="M 87 83.5 L 590 83.5" opacity="1"></path></g><rect fill="none" class="highcharts-plot-border" data-z-index="1" x="87" y="84" width="503" height="257"></rect><g class="highcharts-axis highcharts-xaxis " data-z-index="2"><path fill="none" class="highcharts-tick" stroke="#ccd6eb" stroke-width="1" d="M 91.5 341 L 91.5 351" opacity="1"></path><path fill="none" class="highcharts-tick" stroke="#ccd6eb" stroke-width="1" d="M 194.5 341 L 194.5 351" opacity="1"></path><path fill="none" class="highcharts-tick" stroke="#ccd6eb" stroke-width="1" d="M 297.5 341 L 297.5 351" opacity="1"></path><path fill="none" class="highcharts-tick" stroke="#ccd6eb" stroke-width="1" d="M 400.5 341 L 400.5 351" opacity="1"></path><path fill="none" class="highcharts-tick" stroke="#ccd6eb" stroke-width="1" d="M 503.5 341 L 503.5 351" opacity="1"></path><text x="338.5" data-z-index="7" text-anchor="middle" transform="translate(0,0)" class="highcharts-axis-title" style="color:#666666;fill:#666666;" y="381"><tspan>Average Fat Burn Heart Rate Zone (min) for Participant</tspan></text><path fill="none" class="highcharts-axis-line" stroke="#ccd6eb" stroke-width="1" data-z-index="7" d="M 87 341.5 L 590 341.5"></path></g><g class="highcharts-axis highcharts-yaxis " data-z-index="2"><text x="26" data-z-index="7" text-anchor="middle" transform="translate(0,0) rotate(270 26 212.5)" class="highcharts-axis-title" style="color:#666666;fill:#666666;" y="212.5"><tspan>Average Resting Heart Rate (Pulse) (bpm)</tspan><tspan dy="15" x="26">for Participant</tspan></text><path fill="none" class="highcharts-axis-line" data-z-index="7" d="M 87 84 L 87 341"></path></g><g class="highcharts-series-group" data-z-index="3"><g data-z-index="0.1" class="highcharts-series highcharts-series-0 highcharts-scatter-series highcharts-color-0 " transform="translate(87,84) scale(1 1)" clip-path="url(#highcharts-xy32qgp-200)"></g><g data-z-index="0.1" class="highcharts-markers highcharts-series-0 highcharts-scatter-series highcharts-color-0 " transform="translate(87,84) scale(1 1)" clip-path="none"><path fill="#000000" d="M 8 164 A 4 4 0 1 1 7.999998000000167 163.99600000066667 Z" class="highcharts-point highcharts-color-0"></path><path fill="#000000" d="M 9 211 A 4 4 0 1 1 8.999998000000167 210.99600000066667 Z" class="highcharts-point highcharts-color-0"></path><path fill="#000000" d="M 13 93 A 4 4 0 1 1 12.999998000000167 92.99600000066667 Z" class="highcharts-point highcharts-color-0"></path><path fill="#000000" d="M 13 187 A 4 4 0 1 1 12.999998000000167 186.99600000066667 Z" class="highcharts-point highcharts-color-0"></path><path fill="#000000" d="M 14 167 A 4 4 0 1 1 13.999998000000167 166.99600000066667 Z" class="highcharts-point highcharts-color-0"></path><path fill="#000000" d="M 15 227 A 4 4 0 1 1 14.999998000000167 226.99600000066667 Z" class="highcharts-point highcharts-color-0"></path><path fill="#000000" d="M 15 225 A 4 4 0 1 1 14.999998000000167 224.99600000066667 Z" class="highcharts-point highcharts-color-0"></path><path fill="#000000" d="M 16 174 A 4 4 0 1 1 15.999998000000167 173.99600000066667 Z" class="highcharts-point highcharts-color-0"></path><path fill="#000000" d="M 17 141 A 4 4 0 1 1 16.99999800000017 140.99600000066667 Z" class="highcharts-point highcharts-color-0"></path><path fill="#000000" d="M 17 180 A 4 4 0 1 1 16.99999800000017 179.99600000066667 Z" class="highcharts-point highcharts-color-0"></path><path fill="#000000" d="M 18 237 A 4 4 0 1 1 17.99999800000017 236.99600000066667 Z" class="highcharts-point highcharts-color-0"></path><path fill="#000000" d="M 19 190 A 4 4 0 1 1 18.99999800000017 189.99600000066667 Z" class="highcharts-point highcharts-color-0"></path><path fill="#000000" d="M 20 205 A 4 4 0 1 1 19.99999800000017 204.99600000066667 Z" class="highcharts-point highcharts-color-0"></path><path fill="#000000" d="M 20 210 A 4 4 0 1 1 19.99999800000017 209.99600000066667 Z" class="highcharts-point highcharts-color-0"></path><path fill="#000000" d="M 20 171 A 4 4 0 1 1 19.99999800000017 170.99600000066667 Z" class="highcharts-point highcharts-color-0"></path><path fill="#000000" d="M 21 116 A 4 4 0 1 1 20.99999800000017 115.99600000066667 Z" class="highcharts-point highcharts-color-0"></path><path fill="#000000" d="M 21 161 A 4 4 0 1 1 20.99999800000017 160.99600000066667 Z" class="highcharts-point highcharts-color-0"></path><path fill="#000000" d="M 23 112 A 4 4 0 1 1 22.99999800000017 111.99600000066667 Z" class="highcharts-point highcharts-color-0"></path><path fill="#000000" d="M 24 188 A 4 4 0 1 1 23.99999800000017 187.99600000066667 Z" class="highcharts-point highcharts-color-0"></path><path fill="#000000" d="M 24 157 A 4 4 0 1 1 23.99999800000017 156.99600000066667 Z" class="highcharts-point highcharts-color-0"></path><path fill="#000000" d="M 24 176 A 4 4 0 1 1 23.99999800000017 175.99600000066667 Z" class="highcharts-point highcharts-color-0"></path><path fill="#000000" d="M 26 196 A 4 4 0 1 1 25.99999800000017 195.99600000066667 Z" class="highcharts-point highcharts-color-0"></path><path fill="#000000" d="M 29 183 A 4 4 0 1 1 28.99999800000017 182.99600000066667 Z" class="highcharts-point highcharts-color-0"></path><path fill="#000000" d="M 30 137 A 4 4 0 1 1 29.99999800000017 136.99600000066667 Z" class="highcharts-point highcharts-color-0"></path><path fill="#000000" d="M 32 204 A 4 4 0 1 1 31.99999800000017 203.99600000066667 Z" class="highcharts-point highcharts-color-0"></path><path fill="#000000" d="M 32 200 A 4 4 0 1 1 31.99999800000017 199.99600000066667 Z" class="highcharts-point highcharts-color-0"></path><path fill="#000000" d="M 34 168 A 4 4 0 1 1 33.99999800000017 167.99600000066667 Z" class="highcharts-point highcharts-color-0"></path><path fill="#000000" d="M 37 184 A 4 4 0 1 1 36.99999800000017 183.99600000066667 Z" class="highcharts-point highcharts-color-0"></path><path fill="#000000" d="M 37 187 A 4 4 0 1 1 36.99999800000017 186.99600000066667 Z" class="highcharts-point highcharts-color-0"></path><path fill="#000000" d="M 39 203 A 4 4 0 1 1 38.99999800000017 202.99600000066667 Z" class="highcharts-point highcharts-color-0"></path><path fill="#000000" d="M 41 150 A 4 4 0 1 1 40.99999800000017 149.99600000066667 Z" class="highcharts-point highcharts-color-0"></path><path fill="#000000" d="M 43 174 A 4 4 0 1 1 42.99999800000017 173.99600000066667 Z" class="highcharts-point highcharts-color-0"></path><path fill="#000000" d="M 44 191 A 4 4 0 1 1 43.99999800000017 190.99600000066667 Z" class="highcharts-point highcharts-color-0"></path><path fill="#000000" d="M 45 186 A 4 4 0 1 1 44.99999800000017 185.99600000066667 Z" class="highcharts-point highcharts-color-0"></path><path fill="#000000" d="M 46 190 A 4 4 0 1 1 45.99999800000017 189.99600000066667 Z" class="highcharts-point highcharts-color-0"></path><path fill="#000000" d="M 49 190 A 4 4 0 1 1 48.99999800000017 189.99600000066667 Z" class="highcharts-point highcharts-color-0"></path><path fill="#000000" d="M 49 136 A 4 4 0 1 1 48.99999800000017 135.99600000066667 Z" class="highcharts-point highcharts-color-0"></path><path fill="#000000" d="M 51 162 A 4 4 0 1 1 50.99999800000017 161.99600000066667 Z" class="highcharts-point highcharts-color-0"></path><path fill="#000000" d="M 53 148 A 4 4 0 1 1 52.99999800000017 147.99600000066667 Z" class="highcharts-point highcharts-color-0"></path><path fill="#000000" d="M 53 206 A 4 4 0 1 1 52.99999800000017 205.99600000066667 Z" class="highcharts-point highcharts-color-0"></path><path fill="#000000" d="M 53 122 A 4 4 0 1 1 52.99999800000017 121.99600000066667 Z" class="highcharts-point highcharts-color-0"></path><path fill="#000000" d="M 54 162 A 4 4 0 1 1 53.99999800000017 161.99600000066667 Z" class="highcharts-point highcharts-color-0"></path><path fill="#000000" d="M 55 150 A 4 4 0 1 1 54.99999800000017 149.99600000066667 Z" class="highcharts-point highcharts-color-0"></path><path fill="#000000" d="M 55 184 A 4 4 0 1 1 54.99999800000017 183.99600000066667 Z" class="highcharts-point highcharts-color-0"></path><path fill="#000000" d="M 56 171 A 4 4 0 1 1 55.99999800000017 170.99600000066667 Z" class="highcharts-point highcharts-color-0"></path><path fill="#000000" d="M 61 155 A 4 4 0 1 1 60.99999800000017 154.99600000066667 Z" class="highcharts-point highcharts-color-0"></path><path fill="#000000" d="M 61 179 A 4 4 0 1 1 60.99999800000017 178.99600000066667 Z" class="highcharts-point highcharts-color-0"></path><path fill="#000000" d="M 62 163 A 4 4 0 1 1 61.99999800000017 162.99600000066667 Z" class="highcharts-point highcharts-color-0"></path><path fill="#000000" d="M 71 109 A 4 4 0 1 1 70.99999800000016 108.99600000066667 Z" class="highcharts-point highcharts-color-0"></path><path fill="#000000" d="M 73 195 A 4 4 0 1 1 72.99999800000016 194.99600000066667 Z" class="highcharts-point highcharts-color-0"></path><path fill="#000000" d="M 75 194 A 4 4 0 1 1 74.99999800000016 193.99600000066667 Z" class="highcharts-point highcharts-color-0"></path><path fill="#000000" d="M 77 204 A 4 4 0 1 1 76.99999800000016 203.99600000066667 Z" class="highcharts-point highcharts-color-0"></path><path fill="#000000" d="M 83 105 A 4 4 0 1 1 82.99999800000016 104.99600000066667 Z" class="highcharts-point highcharts-color-0"></path><path fill="#000000" d="M 84 160 A 4 4 0 1 1 83.99999800000016 159.99600000066667 Z" class="highcharts-point highcharts-color-0"></path><path fill="#000000" d="M 90 130 A 4 4 0 1 1 89.99999800000016 129.99600000066667 Z" class="highcharts-point highcharts-color-0"></path><path fill="#000000" d="M 90 169 A 4 4 0 1 1 89.99999800000016 168.99600000066667 Z" class="highcharts-point highcharts-color-0"></path><path fill="#000000" d="M 98 146 A 4 4 0 1 1 97.99999800000016 145.99600000066667 Z" class="highcharts-point highcharts-color-0"></path><path fill="#000000" d="M 101 147 A 4 4 0 1 1 100.99999800000016 146.99600000066667 Z" class="highcharts-point highcharts-color-0"></path><path fill="#000000" d="M 106 83 A 4 4 0 1 1 105.99999800000016 82.99600000066667 Z" class="highcharts-point highcharts-color-0"></path><path fill="#000000" d="M 106 127 A 4 4 0 1 1 105.99999800000016 126.99600000066667 Z" class="highcharts-point highcharts-color-0"></path><path fill="#000000" d="M 109 173 A 4 4 0 1 1 108.99999800000016 172.99600000066667 Z" class="highcharts-point highcharts-color-0"></path><path fill="#000000" d="M 109 180 A 4 4 0 1 1 108.99999800000016 179.99600000066667 Z" class="highcharts-point highcharts-color-0"></path><path fill="#000000" d="M 112 159 A 4 4 0 1 1 111.99999800000016 158.99600000066667 Z" class="highcharts-point highcharts-color-0"></path><path fill="#000000" d="M 115 163 A 4 4 0 1 1 114.99999800000016 162.99600000066667 Z" class="highcharts-point highcharts-color-0"></path><path fill="#000000" d="M 119 105 A 4 4 0 1 1 118.99999800000016 104.99600000066667 Z" class="highcharts-point highcharts-color-0"></path><path fill="#000000" d="M 124 69 A 4 4 0 1 1 123.99999800000016 68.99600000066667 Z" class="highcharts-point highcharts-color-0"></path><path fill="#000000" d="M 132 196 A 4 4 0 1 1 131.99999800000018 195.99600000066667 Z" class="highcharts-point highcharts-color-0"></path><path fill="#000000" d="M 133 127 A 4 4 0 1 1 132.99999800000018 126.99600000066667 Z" class="highcharts-point highcharts-color-0"></path><path fill="#000000" d="M 134 177 A 4 4 0 1 1 133.99999800000018 176.99600000066667 Z" class="highcharts-point highcharts-color-0"></path><path fill="#000000" d="M 137 143 A 4 4 0 1 1 136.99999800000018 142.99600000066667 Z" class="highcharts-point highcharts-color-0"></path><path fill="#000000" d="M 147 156 A 4 4 0 1 1 146.99999800000018 155.99600000066667 Z" class="highcharts-point highcharts-color-0"></path><path fill="#000000" d="M 158 164 A 4 4 0 1 1 157.99999800000018 163.99600000066667 Z" class="highcharts-point highcharts-color-0"></path><path fill="#000000" d="M 159 152 A 4 4 0 1 1 158.99999800000018 151.99600000066667 Z" class="highcharts-point highcharts-color-0"></path><path fill="#000000" d="M 166 133 A 4 4 0 1 1 165.99999800000018 132.99600000066667 Z" class="highcharts-point highcharts-color-0"></path><path fill="#000000" d="M 166 136 A 4 4 0 1 1 165.99999800000018 135.99600000066667 Z" class="highcharts-point highcharts-color-0"></path><path fill="#000000" d="M 167 126 A 4 4 0 1 1 166.99999800000018 125.99600000066667 Z" class="highcharts-point highcharts-color-0"></path><path fill="#000000" d="M 170 154 A 4 4 0 1 1 169.99999800000018 153.99600000066667 Z" class="highcharts-point highcharts-color-0"></path><path fill="#000000" d="M 175 204 A 4 4 0 1 1 174.99999800000018 203.99600000066667 Z" class="highcharts-point highcharts-color-0"></path><path fill="#000000" d="M 184 137 A 4 4 0 1 1 183.99999800000018 136.99600000066667 Z" class="highcharts-point highcharts-color-0"></path><path fill="#000000" d="M 188 209 A 4 4 0 1 1 187.99999800000018 208.99600000066667 Z" class="highcharts-point highcharts-color-0"></path><path fill="#000000" d="M 198 165 A 4 4 0 1 1 197.99999800000018 164.99600000066667 Z" class="highcharts-point highcharts-color-0"></path><path fill="#000000" d="M 201 188 A 4 4 0 1 1 200.99999800000018 187.99600000066667 Z" class="highcharts-point highcharts-color-0"></path><path fill="#000000" d="M 203 104 A 4 4 0 1 1 202.99999800000018 103.99600000066667 Z" class="highcharts-point highcharts-color-0"></path><path fill="#000000" d="M 218 188 A 4 4 0 1 1 217.99999800000018 187.99600000066667 Z" class="highcharts-point highcharts-color-0"></path><path fill="#000000" d="M 219 117 A 4 4 0 1 1 218.99999800000018 116.99600000066667 Z" class="highcharts-point highcharts-color-0"></path><path fill="#000000" d="M 224 182 A 4 4 0 1 1 223.99999800000018 181.99600000066667 Z" class="highcharts-point highcharts-color-0"></path><path fill="#000000" d="M 231 181 A 4 4 0 1 1 230.99999800000018 180.99600000066667 Z" class="highcharts-point highcharts-color-0"></path><path fill="#000000" d="M 234 122 A 4 4 0 1 1 233.99999800000018 121.99600000066667 Z" class="highcharts-point highcharts-color-0"></path><path fill="#000000" d="M 239 162 A 4 4 0 1 1 238.99999800000018 161.99600000066667 Z" class="highcharts-point highcharts-color-0"></path><path fill="#000000" d="M 241 155 A 4 4 0 1 1 240.99999800000018 154.99600000066667 Z" class="highcharts-point highcharts-color-0"></path><path fill="#000000" d="M 261 124 A 4 4 0 1 1 260.9999980000002 123.99600000066667 Z" class="highcharts-point highcharts-color-0"></path><path fill="#000000" d="M 288 134 A 4 4 0 1 1 287.9999980000002 133.99600000066667 Z" class="highcharts-point highcharts-color-0"></path><path fill="#000000" d="M 341 123 A 4 4 0 1 1 340.9999980000002 122.99600000066667 Z" class="highcharts-point highcharts-color-0"></path><path fill="#000000" d="M 346 158 A 4 4 0 1 1 345.9999980000002 157.99600000066667 Z" class="highcharts-point highcharts-color-0"></path><path fill="#000000" d="M 366 130 A 4 4 0 1 1 365.9999980000002 129.99600000066667 Z" class="highcharts-point highcharts-color-0"></path><path fill="#000000" d="M 502 125 A 4 4 0 1 1 501.9999980000002 124.99600000066667 Z" class="highcharts-point highcharts-color-0"></path></g></g><text x="300" text-anchor="middle" class="highcharts-title" data-z-index="4" style="color:#333333;font-size:18px;fill:#333333;" y="24"><tspan>Trait Correlation Between Fat Burn Heart Rate Zone and</tspan><tspan dy="21" x="300">Resting Heart Rate (Pulse)</tspan></text><text x="300" text-anchor="middle" class="highcharts-subtitle" data-z-index="4" style="color:#666666;fill:#666666;" y="67"><tspan>People with higher Fat Burn Heart Rate Zone usually have higher Resting Heart Rate (Pulse)</tspan></text><g class="highcharts-axis-labels highcharts-xaxis-labels " data-z-index="7"><text x="91.59361572357" style="color:#666666;cursor:default;font-size:11px;fill:#666666;" text-anchor="middle" transform="translate(0,0)" y="360" opacity="1">0</text><text x="194.60908693151" style="color:#666666;cursor:default;font-size:11px;fill:#666666;" text-anchor="middle" transform="translate(0,0)" y="360" opacity="1">100</text><text x="297.62455813946" style="color:#666666;cursor:default;font-size:11px;fill:#666666;" text-anchor="middle" transform="translate(0,0)" y="360" opacity="1">200</text><text x="400.6400293474" style="color:#666666;cursor:default;font-size:11px;fill:#666666;" text-anchor="middle" transform="translate(0,0)" y="360" opacity="1">300</text><text x="503.65550055534" style="color:#666666;cursor:default;font-size:11px;fill:#666666;" text-anchor="middle" transform="translate(0,0)" y="360" opacity="1">400</text></g><g class="highcharts-axis-labels highcharts-yaxis-labels " data-z-index="7"><text x="72" style="color:#666666;cursor:default;font-size:11px;fill:#666666;" text-anchor="end" transform="translate(0,0)" y="345" opacity="1">40</text><text x="72" style="color:#666666;cursor:default;font-size:11px;fill:#666666;" text-anchor="end" transform="translate(0,0)" y="280" opacity="1">60</text><text x="72" style="color:#666666;cursor:default;font-size:11px;fill:#666666;" text-anchor="end" transform="translate(0,0)" y="216" opacity="1">80</text><text x="72" style="color:#666666;cursor:default;font-size:11px;fill:#666666;" text-anchor="end" transform="translate(0,0)" y="152" opacity="1">100</text><text x="72" style="color:#666666;cursor:default;font-size:11px;fill:#666666;" text-anchor="end" transform="translate(0,0)" y="88" opacity="1">120</text></g><a xlink:href="https://quantimo.do" target="_blank">
                    <text x="590" class="highcharts-credits" text-anchor="end" data-z-index="8"
                          style="cursor:pointer;color:#999999;font-size:9px;fill:#999999;" y="395">https://quantimo.do
                    </text>
                </a></svg>