<?xml version="1.0" standalone="no"?><!DOCTYPE svg PUBLIC "-//W3C//DTD SVG 1.1//EN" "http://www.w3.org/Graphics/SVG/1.1/DTD/svg11.dtd"><svg xmlns:xlink="http://www.w3.org/1999/xlink" version="1.1" class="highcharts-root" style="font-family:&quot;Lucida Grande&quot;, &quot;Lucida Sans Unicode&quot;, Arial, Helvetica, sans-serif;font-size:12px;" xmlns="http://www.w3.org/2000/svg" width="600" height="300"><desc>Created with Highstock 6.2.0</desc><defs><clipPath id="highcharts-6pm13to-27"><rect x="0" y="0" width="488" height="132" fill="none"></rect></clipPath><clipPath id="highcharts-6pm13to-48"><rect x="0" y="0" width="488" height="132" fill="none"></rect></clipPath><clipPath id="highcharts-6pm13to-49"><rect x="102" y="99" width="488" height="132" fill="none"></rect></clipPath></defs><rect fill="#ffffff" class="highcharts-background" x="0" y="0" width="600" height="300" rx="0" ry="0"></rect><rect fill="none" class="highcharts-plot-background" x="102" y="99" width="488" height="132"></rect><g class="highcharts-pane-group" data-z-index="0"></g><g class="highcharts-grid highcharts-xaxis-grid " data-z-index="1"><path fill="none" data-z-index="1" class="highcharts-grid-line" d="M 125.5 99 L 125.5 231" opacity="1"></path><path fill="none" data-z-index="1" class="highcharts-grid-line" d="M 150.5 99 L 150.5 231" opacity="1"></path><path fill="none" data-z-index="1" class="highcharts-grid-line" d="M 174.5 99 L 174.5 231" opacity="1"></path><path fill="none" data-z-index="1" class="highcharts-grid-line" d="M 199.5 99 L 199.5 231" opacity="1"></path><path fill="none" data-z-index="1" class="highcharts-grid-line" d="M 223.5 99 L 223.5 231" opacity="1"></path><path fill="none" data-z-index="1" class="highcharts-grid-line" d="M 247.5 99 L 247.5 231" opacity="1"></path><path fill="none" data-z-index="1" class="highcharts-grid-line" d="M 272.5 99 L 272.5 231" opacity="1"></path><path fill="none" data-z-index="1" class="highcharts-grid-line" d="M 296.5 99 L 296.5 231" opacity="1"></path><path fill="none" data-z-index="1" class="highcharts-grid-line" d="M 321.5 99 L 321.5 231" opacity="1"></path><path fill="none" data-z-index="1" class="highcharts-grid-line" d="M 345.5 99 L 345.5 231" opacity="1"></path><path fill="none" data-z-index="1" class="highcharts-grid-line" d="M 369.5 99 L 369.5 231" opacity="1"></path><path fill="none" data-z-index="1" class="highcharts-grid-line" d="M 394.5 99 L 394.5 231" opacity="1"></path><path fill="none" data-z-index="1" class="highcharts-grid-line" d="M 418.5 99 L 418.5 231" opacity="1"></path><path fill="none" data-z-index="1" class="highcharts-grid-line" d="M 443.5 99 L 443.5 231" opacity="1"></path><path fill="none" data-z-index="1" class="highcharts-grid-line" d="M 467.5 99 L 467.5 231" opacity="1"></path><path fill="none" data-z-index="1" class="highcharts-grid-line" d="M 491.5 99 L 491.5 231" opacity="1"></path><path fill="none" data-z-index="1" class="highcharts-grid-line" d="M 516.5 99 L 516.5 231" opacity="1"></path><path fill="none" data-z-index="1" class="highcharts-grid-line" d="M 540.5 99 L 540.5 231" opacity="1"></path><path fill="none" data-z-index="1" class="highcharts-grid-line" d="M 565.5 99 L 565.5 231" opacity="1"></path><path fill="none" data-z-index="1" class="highcharts-grid-line" d="M 589.5 99 L 589.5 231" opacity="1"></path><path fill="none" data-z-index="1" class="highcharts-grid-line" d="M 101.5 99 L 101.5 231" opacity="1"></path></g><g class="highcharts-grid highcharts-yaxis-grid " data-z-index="1"><path fill="none" stroke="#e6e6e6" stroke-width="1" data-z-index="1" class="highcharts-grid-line" d="M 102 231.5 L 590 231.5" opacity="1"></path><path fill="none" stroke="#e6e6e6" stroke-width="1" data-z-index="1" class="highcharts-grid-line" d="M 102 198.5 L 590 198.5" opacity="1"></path><path fill="none" stroke="#e6e6e6" stroke-width="1" data-z-index="1" class="highcharts-grid-line" d="M 102 165.5 L 590 165.5" opacity="1"></path><path fill="none" stroke="#e6e6e6" stroke-width="1" data-z-index="1" class="highcharts-grid-line" d="M 102 132.5 L 590 132.5" opacity="1"></path><path fill="none" stroke="#e6e6e6" stroke-width="1" data-z-index="1" class="highcharts-grid-line" d="M 102 98.5 L 590 98.5" opacity="1"></path></g><rect fill="none" class="highcharts-plot-border" data-z-index="1" x="102" y="99" width="488" height="132"></rect><g class="highcharts-axis highcharts-xaxis " data-z-index="2"><path fill="none" class="highcharts-tick" stroke="#ccd6eb" stroke-width="1" d="M 125.5 231 L 125.5 241" opacity="1"></path><path fill="none" class="highcharts-tick" stroke="#ccd6eb" stroke-width="1" d="M 150.5 231 L 150.5 241" opacity="1"></path><path fill="none" class="highcharts-tick" stroke="#ccd6eb" stroke-width="1" d="M 174.5 231 L 174.5 241" opacity="1"></path><path fill="none" class="highcharts-tick" stroke="#ccd6eb" stroke-width="1" d="M 199.5 231 L 199.5 241" opacity="1"></path><path fill="none" class="highcharts-tick" stroke="#ccd6eb" stroke-width="1" d="M 223.5 231 L 223.5 241" opacity="1"></path><path fill="none" class="highcharts-tick" stroke="#ccd6eb" stroke-width="1" d="M 247.5 231 L 247.5 241" opacity="1"></path><path fill="none" class="highcharts-tick" stroke="#ccd6eb" stroke-width="1" d="M 272.5 231 L 272.5 241" opacity="1"></path><path fill="none" class="highcharts-tick" stroke="#ccd6eb" stroke-width="1" d="M 296.5 231 L 296.5 241" opacity="1"></path><path fill="none" class="highcharts-tick" stroke="#ccd6eb" stroke-width="1" d="M 321.5 231 L 321.5 241" opacity="1"></path><path fill="none" class="highcharts-tick" stroke="#ccd6eb" stroke-width="1" d="M 345.5 231 L 345.5 241" opacity="1"></path><path fill="none" class="highcharts-tick" stroke="#ccd6eb" stroke-width="1" d="M 369.5 231 L 369.5 241" opacity="1"></path><path fill="none" class="highcharts-tick" stroke="#ccd6eb" stroke-width="1" d="M 394.5 231 L 394.5 241" opacity="1"></path><path fill="none" class="highcharts-tick" stroke="#ccd6eb" stroke-width="1" d="M 418.5 231 L 418.5 241" opacity="1"></path><path fill="none" class="highcharts-tick" stroke="#ccd6eb" stroke-width="1" d="M 443.5 231 L 443.5 241" opacity="1"></path><path fill="none" class="highcharts-tick" stroke="#ccd6eb" stroke-width="1" d="M 467.5 231 L 467.5 241" opacity="1"></path><path fill="none" class="highcharts-tick" stroke="#ccd6eb" stroke-width="1" d="M 491.5 231 L 491.5 241" opacity="1"></path><path fill="none" class="highcharts-tick" stroke="#ccd6eb" stroke-width="1" d="M 516.5 231 L 516.5 241" opacity="1"></path><path fill="none" class="highcharts-tick" stroke="#ccd6eb" stroke-width="1" d="M 540.5 231 L 540.5 241" opacity="1"></path><path fill="none" class="highcharts-tick" stroke="#ccd6eb" stroke-width="1" d="M 565.5 231 L 565.5 241" opacity="1"></path><path fill="none" class="highcharts-tick" stroke="#ccd6eb" stroke-width="1" d="M 590.5 231 L 590.5 241" opacity="1"></path><path fill="none" class="highcharts-tick" stroke="#ccd6eb" stroke-width="1" d="M 101.5 231 L 101.5 241" opacity="1"></path><text x="346" data-z-index="7" text-anchor="middle" transform="translate(0,0)" class="highcharts-axis-title" style="color:#666666;fill:#666666;" y="281.4558441227157"><tspan>Average Daily Cardio Heart Rate Zone (Minutes)</tspan></text><path fill="none" class="highcharts-axis-line" stroke="#ccd6eb" stroke-width="1" data-z-index="7" d="M 102 231.5 L 590 231.5"></path></g><g class="highcharts-axis highcharts-yaxis " data-z-index="2"><text x="26" data-z-index="7" text-anchor="middle" transform="translate(0,0) rotate(270 26 165)" class="highcharts-axis-title" style="color:#666666;fill:#666666;" y="165"><tspan>Average Daily Time</tspan><tspan dy="15" x="26">Spent On Software</tspan><tspan dy="15" x="26">Development (Hours)</tspan></text><path fill="none" class="highcharts-axis-line" data-z-index="7" d="M 102 99 L 102 231"></path></g><g class="highcharts-series-group" data-z-index="3"><g data-z-index="0.1" class="highcharts-series highcharts-series-0 highcharts-column-series highcharts-color-0 " transform="translate(102,99) scale(1 1)" clip-path="url(#highcharts-6pm13to-48)"><rect x="5.5" y="83.5" width="12" height="49" fill="#000000" stroke="#ffffff" stroke-width="1" class="highcharts-point highcharts-color-0"></rect><rect x="30.5" y="92.5" width="12" height="40" fill="#000000" stroke="#ffffff" stroke-width="1" class="highcharts-point highcharts-color-0"></rect><rect x="54.5" y="77.5" width="12" height="55" fill="#000000" stroke="#ffffff" stroke-width="1" class="highcharts-point highcharts-color-0"></rect><rect x="79.5" y="76.5" width="12" height="56" fill="#000000" stroke="#ffffff" stroke-width="1" class="highcharts-point highcharts-color-0"></rect><rect x="103.5" y="91.5" width="12" height="41" fill="#000000" stroke="#ffffff" stroke-width="1" class="highcharts-point highcharts-color-0"></rect><rect x="127.5" y="70.5" width="12" height="62" fill="#000000" stroke="#ffffff" stroke-width="1" class="highcharts-point highcharts-color-0"></rect><rect x="152.5" y="101.5" width="12" height="31" fill="#000000" stroke="#ffffff" stroke-width="1" class="highcharts-point highcharts-color-0"></rect><rect x="176.5" y="85.5" width="12" height="47" fill="#000000" stroke="#ffffff" stroke-width="1" class="highcharts-point highcharts-color-0"></rect><rect x="201.5" y="74.5" width="12" height="58" fill="#000000" stroke="#ffffff" stroke-width="1" class="highcharts-point highcharts-color-0"></rect><rect x="225.5" y="44.5" width="12" height="88" fill="#000000" stroke="#ffffff" stroke-width="1" class="highcharts-point highcharts-color-0"></rect><rect x="249.5" y="83.5" width="12" height="49" fill="#000000" stroke="#ffffff" stroke-width="1" class="highcharts-point highcharts-color-0"></rect><rect x="274.5" y="71.5" width="12" height="61" fill="#000000" stroke="#ffffff" stroke-width="1" class="highcharts-point highcharts-color-0"></rect><rect x="298.5" y="58.5" width="12" height="74" fill="#000000" stroke="#ffffff" stroke-width="1" class="highcharts-point highcharts-color-0"></rect><rect x="323.5" y="50.5" width="12" height="82" fill="#000000" stroke="#ffffff" stroke-width="1" class="highcharts-point highcharts-color-0"></rect><rect x="347.5" y="58.5" width="12" height="74" fill="#000000" stroke="#ffffff" stroke-width="1" class="highcharts-point highcharts-color-0"></rect><rect x="371.5" y="48.5" width="12" height="84" fill="#000000" stroke="#ffffff" stroke-width="1" class="highcharts-point highcharts-color-0"></rect><rect x="396.5" y="32.5" width="12" height="100" fill="#000000" stroke="#ffffff" stroke-width="1" class="highcharts-point highcharts-color-0"></rect><rect x="420.5" y="37.5" width="12" height="95" fill="#000000" stroke="#ffffff" stroke-width="1" class="highcharts-point highcharts-color-0"></rect><rect x="445.5" y="35.5" width="12" height="97" fill="#000000" stroke="#ffffff" stroke-width="1" class="highcharts-point highcharts-color-0"></rect><rect x="469.5" y="73.5" width="12" height="59" fill="#000000" stroke="#ffffff" stroke-width="1" class="highcharts-point highcharts-color-0"></rect></g><g data-z-index="0.1" class="highcharts-markers highcharts-series-0 highcharts-column-series highcharts-color-0 " transform="translate(102,99) scale(1 1)" clip-path="none"></g></g><text x="300" text-anchor="middle" class="highcharts-title" data-z-index="4" style="color:#333333;font-size:18px;fill:#333333;" y="24"><tspan>Average Time Spent on Software Development by Previous</tspan><tspan dy="21" x="300">Cardio Heart Rate Zone</tspan></text><text x="300" text-anchor="middle" class="highcharts-subtitle" data-z-index="4" style="color:#666666;fill:#666666;" y="67"><tspan>Typical values for Time Spent On Software Development following a given amount of Cardio</tspan><tspan dy="15" x="300">Heart Rate Zone over the previous 7 days.</tspan></text><g class="highcharts-axis-labels highcharts-xaxis-labels " data-z-index="7"><text x="116.79272486435069" style="color:#666666;cursor:default;font-size:11px;fill:#666666;" text-anchor="end" transform="translate(0,0) rotate(-45 116.79272486435069 247)" y="247" opacity="1">0</text><text x="141.1927248643507" style="color:#666666;cursor:default;font-size:11px;fill:#666666;" text-anchor="end" transform="translate(0,0) rotate(-45 141.1927248643507 247)" y="247" opacity="1">1</text><text x="165.59272486435069" style="color:#666666;cursor:default;font-size:11px;fill:#666666;" text-anchor="end" transform="translate(0,0) rotate(-45 165.59272486435069 247)" y="247" opacity="1">2</text><text x="189.9927248643507" style="color:#666666;cursor:default;font-size:11px;fill:#666666;" text-anchor="end" transform="translate(0,0) rotate(-45 189.9927248643507 247)" y="247" opacity="1">3</text><text x="214.3927248643507" style="color:#666666;cursor:default;font-size:11px;fill:#666666;" text-anchor="end" transform="translate(0,0) rotate(-45 214.3927248643507 247)" y="247" opacity="1">4</text><text x="238.7927248643507" style="color:#666666;cursor:default;font-size:11px;fill:#666666;" text-anchor="end" transform="translate(0,0) rotate(-45 238.7927248643507 247)" y="247" opacity="1">5</text><text x="263.1927248643507" style="color:#666666;cursor:default;font-size:11px;fill:#666666;" text-anchor="end" transform="translate(0,0) rotate(-45 263.1927248643507 247)" y="247" opacity="1">6</text><text x="287.59272486435066" style="color:#666666;cursor:default;font-size:11px;fill:#666666;" text-anchor="end" transform="translate(0,0) rotate(-45 287.59272486435066 247)" y="247" opacity="1">7</text><text x="311.9927248643507" style="color:#666666;cursor:default;font-size:11px;fill:#666666;" text-anchor="end" transform="translate(0,0) rotate(-45 311.9927248643507 247)" y="247" opacity="1">8</text><text x="336.39272486435067" style="color:#666666;cursor:default;font-size:11px;fill:#666666;" text-anchor="end" transform="translate(0,0) rotate(-45 336.39272486435067 247)" y="247" opacity="1">9</text><text x="360.79272486435065" style="color:#666666;cursor:default;font-size:11px;fill:#666666;" text-anchor="end" transform="translate(0,0) rotate(-45 360.79272486435065 247)" y="247" opacity="1">10</text><text x="385.1927248643507" style="color:#666666;cursor:default;font-size:11px;fill:#666666;" text-anchor="end" transform="translate(0,0) rotate(-45 385.1927248643507 247)" y="247" opacity="1">20</text><text x="409.59272486435066" style="color:#666666;cursor:default;font-size:11px;fill:#666666;" text-anchor="end" transform="translate(0,0) rotate(-45 409.59272486435066 247)" y="247" opacity="1">30</text><text x="433.9927248643507" style="color:#666666;cursor:default;font-size:11px;fill:#666666;" text-anchor="end" transform="translate(0,0) rotate(-45 433.9927248643507 247)" y="247" opacity="1">40</text><text x="458.39272486435067" style="color:#666666;cursor:default;font-size:11px;fill:#666666;" text-anchor="end" transform="translate(0,0) rotate(-45 458.39272486435067 247)" y="247" opacity="1">50</text><text x="482.79272486435065" style="color:#666666;cursor:default;font-size:11px;fill:#666666;" text-anchor="end" transform="translate(0,0) rotate(-45 482.79272486435065 247)" y="247" opacity="1">60</text><text x="507.1927248643506" style="color:#666666;cursor:default;font-size:11px;fill:#666666;" text-anchor="end" transform="translate(0,0) rotate(-45 507.1927248643506 247)" y="247" opacity="1">70</text><text x="531.5927248643507" style="color:#666666;cursor:default;font-size:11px;fill:#666666;" text-anchor="end" transform="translate(0,0) rotate(-45 531.5927248643507 247)" y="247" opacity="1">80</text><text x="555.9927248643506" style="color:#666666;cursor:default;font-size:11px;fill:#666666;" text-anchor="end" transform="translate(0,0) rotate(-45 555.9927248643506 247)" y="247" opacity="1">90</text><text x="580.3927248643506" style="color:#666666;cursor:default;font-size:11px;fill:#666666;" text-anchor="end" transform="translate(0,0) rotate(-45 580.3927248643506 247)" y="247" opacity="1">100</text></g><g class="highcharts-axis-labels highcharts-yaxis-labels " data-z-index="7"><text x="87" style="color:#666666;cursor:default;font-size:11px;fill:#666666;" text-anchor="end" transform="translate(0,0)" y="235" opacity="1">0</text><text x="87" style="color:#666666;cursor:default;font-size:11px;fill:#666666;" text-anchor="end" transform="translate(0,0)" y="202" opacity="1">25</text><text x="87" style="color:#666666;cursor:default;font-size:11px;fill:#666666;" text-anchor="end" transform="translate(0,0)" y="169" opacity="1">50</text><text x="87" style="color:#666666;cursor:default;font-size:11px;fill:#666666;" text-anchor="end" transform="translate(0,0)" y="136" opacity="1">75</text><text x="87" style="color:#666666;cursor:default;font-size:11px;fill:#666666;" text-anchor="end" transform="translate(0,0)" y="103" opacity="1">100</text></g><a xlink:href="https://quantimo.do" target="_blank">
                    <text x="590" class="highcharts-credits" text-anchor="end" data-z-index="8"
                          style="cursor:pointer;color:#999999;font-size:9px;fill:#999999;" y="295">https://quantimo.do
                    </text>
                </a></svg>