<?xml version="1.0" standalone="no"?><!DOCTYPE svg PUBLIC "-//W3C//DTD SVG 1.1//EN" "http://www.w3.org/Graphics/SVG/1.1/DTD/svg11.dtd"><svg xmlns:xlink="http://www.w3.org/1999/xlink" version="1.1" class="highcharts-root" style="font-family:&quot;Lucida Grande&quot;, &quot;Lucida Sans Unicode&quot;, Arial, Helvetica, sans-serif;font-size:12px;" xmlns="http://www.w3.org/2000/svg" width="600" height="300"><desc>Created with Highstock 6.2.0</desc><defs><clipPath id="highcharts-gbr63z3-19"><rect x="0" y="0" width="509" height="141" fill="none"></rect></clipPath><clipPath id="highcharts-gbr63z3-32"><rect x="0" y="0" width="509" height="141" fill="none"></rect></clipPath><clipPath id="highcharts-gbr63z3-33"><rect x="81" y="63" width="509" height="141" fill="none"></rect></clipPath></defs><rect fill="#ffffff" class="highcharts-background" x="0" y="0" width="600" height="300" rx="0" ry="0"></rect><rect fill="none" class="highcharts-plot-background" x="81" y="63" width="509" height="141"></rect><g class="highcharts-pane-group" data-z-index="0"></g><g class="highcharts-grid highcharts-xaxis-grid " data-z-index="1"><path fill="none" data-z-index="1" class="highcharts-grid-line" d="M 122.5 63 L 122.5 204" opacity="1"></path><path fill="none" data-z-index="1" class="highcharts-grid-line" d="M 165.5 63 L 165.5 204" opacity="1"></path><path fill="none" data-z-index="1" class="highcharts-grid-line" d="M 207.5 63 L 207.5 204" opacity="1"></path><path fill="none" data-z-index="1" class="highcharts-grid-line" d="M 250.5 63 L 250.5 204" opacity="1"></path><path fill="none" data-z-index="1" class="highcharts-grid-line" d="M 292.5 63 L 292.5 204" opacity="1"></path><path fill="none" data-z-index="1" class="highcharts-grid-line" d="M 335.5 63 L 335.5 204" opacity="1"></path><path fill="none" data-z-index="1" class="highcharts-grid-line" d="M 377.5 63 L 377.5 204" opacity="1"></path><path fill="none" data-z-index="1" class="highcharts-grid-line" d="M 419.5 63 L 419.5 204" opacity="1"></path><path fill="none" data-z-index="1" class="highcharts-grid-line" d="M 462.5 63 L 462.5 204" opacity="1"></path><path fill="none" data-z-index="1" class="highcharts-grid-line" d="M 504.5 63 L 504.5 204" opacity="1"></path><path fill="none" data-z-index="1" class="highcharts-grid-line" d="M 547.5 63 L 547.5 204" opacity="1"></path><path fill="none" data-z-index="1" class="highcharts-grid-line" d="M 589.5 63 L 589.5 204" opacity="1"></path><path fill="none" data-z-index="1" class="highcharts-grid-line" d="M 80.5 63 L 80.5 204" opacity="1"></path></g><g class="highcharts-grid highcharts-yaxis-grid " data-z-index="1"><path fill="none" stroke="#e6e6e6" stroke-width="1" data-z-index="1" class="highcharts-grid-line" d="M 81 204.5 L 590 204.5" opacity="1"></path><path fill="none" stroke="#e6e6e6" stroke-width="1" data-z-index="1" class="highcharts-grid-line" d="M 81 169.5 L 590 169.5" opacity="1"></path><path fill="none" stroke="#e6e6e6" stroke-width="1" data-z-index="1" class="highcharts-grid-line" d="M 81 134.5 L 590 134.5" opacity="1"></path><path fill="none" stroke="#e6e6e6" stroke-width="1" data-z-index="1" class="highcharts-grid-line" d="M 81 98.5 L 590 98.5" opacity="1"></path><path fill="none" stroke="#e6e6e6" stroke-width="1" data-z-index="1" class="highcharts-grid-line" d="M 81 62.5 L 590 62.5" opacity="1"></path></g><rect fill="none" class="highcharts-plot-border" data-z-index="1" x="81" y="63" width="509" height="141"></rect><g class="highcharts-axis highcharts-xaxis " data-z-index="2"><path fill="none" class="highcharts-tick" stroke="#ccd6eb" stroke-width="1" d="M 122.5 204 L 122.5 214" opacity="1"></path><path fill="none" class="highcharts-tick" stroke="#ccd6eb" stroke-width="1" d="M 165.5 204 L 165.5 214" opacity="1"></path><path fill="none" class="highcharts-tick" stroke="#ccd6eb" stroke-width="1" d="M 207.5 204 L 207.5 214" opacity="1"></path><path fill="none" class="highcharts-tick" stroke="#ccd6eb" stroke-width="1" d="M 250.5 204 L 250.5 214" opacity="1"></path><path fill="none" class="highcharts-tick" stroke="#ccd6eb" stroke-width="1" d="M 292.5 204 L 292.5 214" opacity="1"></path><path fill="none" class="highcharts-tick" stroke="#ccd6eb" stroke-width="1" d="M 335.5 204 L 335.5 214" opacity="1"></path><path fill="none" class="highcharts-tick" stroke="#ccd6eb" stroke-width="1" d="M 377.5 204 L 377.5 214" opacity="1"></path><path fill="none" class="highcharts-tick" stroke="#ccd6eb" stroke-width="1" d="M 419.5 204 L 419.5 214" opacity="1"></path><path fill="none" class="highcharts-tick" stroke="#ccd6eb" stroke-width="1" d="M 462.5 204 L 462.5 214" opacity="1"></path><path fill="none" class="highcharts-tick" stroke="#ccd6eb" stroke-width="1" d="M 504.5 204 L 504.5 214" opacity="1"></path><path fill="none" class="highcharts-tick" stroke="#ccd6eb" stroke-width="1" d="M 547.5 204 L 547.5 214" opacity="1"></path><path fill="none" class="highcharts-tick" stroke="#ccd6eb" stroke-width="1" d="M 590.5 204 L 590.5 214" opacity="1"></path><path fill="none" class="highcharts-tick" stroke="#ccd6eb" stroke-width="1" d="M 80.5 204 L 80.5 214" opacity="1"></path><text x="335.5" data-z-index="7" text-anchor="middle" transform="translate(0,0)" class="highcharts-axis-title" style="color:#666666;fill:#666666;" y="280.618795026618"><tspan>Month</tspan></text><path fill="none" class="highcharts-axis-line" stroke="#ccd6eb" stroke-width="1" data-z-index="7" d="M 81 204.5 L 590 204.5"></path></g><g class="highcharts-axis highcharts-yaxis " data-z-index="2"><text x="26" data-z-index="7" text-anchor="middle" transform="translate(0,0) rotate(270 26 133.5)" class="highcharts-axis-title" style="color:#666666;fill:#666666;" y="133.5"><tspan>Daily Average (min)</tspan></text><path fill="none" class="highcharts-axis-line" data-z-index="7" d="M 81 63 L 81 204"></path></g><g class="highcharts-series-group" data-z-index="3"><g data-z-index="0.1" class="highcharts-series highcharts-series-0 highcharts-column-series highcharts-color-0 " transform="translate(81,63) scale(1 1)" clip-path="url(#highcharts-gbr63z3-32)"><rect x="10.5" y="71.5" width="21" height="35" fill="#000000" stroke="#ffffff" stroke-width="1" class="highcharts-point highcharts-color-0"></rect><rect x="52.5" y="91.5" width="21" height="15" fill="#000000" stroke="#ffffff" stroke-width="1" class="highcharts-point highcharts-color-0"></rect><rect x="95.5" y="106.5" width="21" height="0" fill="#000000" stroke="#ffffff" stroke-width="1" class="highcharts-point highcharts-color-0"></rect><rect x="137.5" y="31.5" width="21" height="75" fill="#000000" stroke="#ffffff" stroke-width="1" class="highcharts-point highcharts-color-0"></rect><rect x="180.5" y="65.5" width="21" height="41" fill="#000000" stroke="#ffffff" stroke-width="1" class="highcharts-point highcharts-color-0"></rect><rect x="222.5" y="99.5" width="21" height="7" fill="#000000" stroke="#ffffff" stroke-width="1" class="highcharts-point highcharts-color-0"></rect><rect x="265.5" y="106.5" width="21" height="0" fill="#000000" stroke="#ffffff" stroke-width="1" class="highcharts-point highcharts-color-0"></rect><rect x="307.5" y="98.5" width="21" height="8" fill="#000000" stroke="#ffffff" stroke-width="1" class="highcharts-point highcharts-color-0"></rect><rect x="349.5" y="106.5" width="21" height="0" fill="#000000" stroke="#ffffff" stroke-width="1" class="highcharts-point highcharts-color-0"></rect><rect x="392.5" y="106.5" width="21" height="0" fill="#000000" stroke="#ffffff" stroke-width="1" class="highcharts-point highcharts-color-0"></rect><rect x="434.5" y="106.5" width="21" height="0" fill="#000000" stroke="#ffffff" stroke-width="1" class="highcharts-point highcharts-color-0"></rect><rect x="477.5" y="74.5" width="21" height="32" fill="#000000" stroke="#ffffff" stroke-width="1" class="highcharts-point highcharts-color-0"></rect></g><g data-z-index="0.1" class="highcharts-markers highcharts-series-0 highcharts-column-series highcharts-color-0 " transform="translate(81,63) scale(1 1)" clip-path="none"></g></g><text x="300" text-anchor="middle" class="highcharts-title" data-z-index="4" style="color:#333333;font-size:18px;fill:#333333;" y="24"><tspan>Average Cold Shower by Month</tspan></text><text x="300" text-anchor="middle" class="highcharts-subtitle" data-z-index="4" style="color:#666666;fill:#666666;" y="46"><tspan>This chart shows the typical value recorded for Cold Shower for each month of the year.</tspan></text><g class="highcharts-axis-labels highcharts-xaxis-labels " data-z-index="7"><text x="104.80105819768734" style="color:#666666;cursor:default;font-size:11px;fill:#666666;" text-anchor="end" transform="translate(0,0) rotate(-45 104.80105819768734 220)" y="220" opacity="1">January</text><text x="147.21772486434733" style="color:#666666;cursor:default;font-size:11px;fill:#666666;" text-anchor="end" transform="translate(0,0) rotate(-45 147.21772486434733 220)" y="220" opacity="1">February</text><text x="189.63439153101734" style="color:#666666;cursor:default;font-size:11px;fill:#666666;" text-anchor="end" transform="translate(0,0) rotate(-45 189.63439153101734 220)" y="220" opacity="1">March</text><text x="232.05105819768735" style="color:#666666;cursor:default;font-size:11px;fill:#666666;" text-anchor="end" transform="translate(0,0) rotate(-45 232.05105819768735 220)" y="220" opacity="1">April</text><text x="274.46772486434736" style="color:#666666;cursor:default;font-size:11px;fill:#666666;" text-anchor="end" transform="translate(0,0) rotate(-45 274.46772486434736 220)" y="220" opacity="1">May</text><text x="316.88439153101734" style="color:#666666;cursor:default;font-size:11px;fill:#666666;" text-anchor="end" transform="translate(0,0) rotate(-45 316.88439153101734 220)" y="220" opacity="1">June</text><text x="359.3010581976873" style="color:#666666;cursor:default;font-size:11px;fill:#666666;" text-anchor="end" transform="translate(0,0) rotate(-45 359.3010581976873 220)" y="220" opacity="1">July</text><text x="401.71772486434736" style="color:#666666;cursor:default;font-size:11px;fill:#666666;" text-anchor="end" transform="translate(0,0) rotate(-45 401.71772486434736 220)" y="220" opacity="1">August</text><text x="444.13439153101734" style="color:#666666;cursor:default;font-size:11px;fill:#666666;" text-anchor="end" transform="translate(0,0) rotate(-45 444.13439153101734 220)" y="220" opacity="1">September</text><text x="486.5510581976873" style="color:#666666;cursor:default;font-size:11px;fill:#666666;" text-anchor="end" transform="translate(0,0) rotate(-45 486.5510581976873 220)" y="220" opacity="1">October</text><text x="528.9677248643472" style="color:#666666;cursor:default;font-size:11px;fill:#666666;" text-anchor="end" transform="translate(0,0) rotate(-45 528.9677248643472 220)" y="220" opacity="1">November</text><text x="571.3843915310173" style="color:#666666;cursor:default;font-size:11px;fill:#666666;" text-anchor="end" transform="translate(0,0) rotate(-45 571.3843915310173 220)" y="220" opacity="1">December</text></g><g class="highcharts-axis-labels highcharts-yaxis-labels " data-z-index="7"><text x="66" style="color:#666666;cursor:default;font-size:11px;fill:#666666;" text-anchor="end" transform="translate(0,0)" y="172" opacity="1">0</text><text x="66" style="color:#666666;cursor:default;font-size:11px;fill:#666666;" text-anchor="end" transform="translate(0,0)" y="208" opacity="1">-0.25</text><text x="66" style="color:#666666;cursor:default;font-size:11px;fill:#666666;" text-anchor="end" transform="translate(0,0)" y="137" opacity="1">0.25</text><text x="66" style="color:#666666;cursor:default;font-size:11px;fill:#666666;" text-anchor="end" transform="translate(0,0)" y="102" opacity="1">0.5</text><text x="66" style="color:#666666;cursor:default;font-size:11px;fill:#666666;" text-anchor="end" transform="translate(0,0)" y="67" opacity="1">0.75</text></g><a xlink:href="https://quantimo.do" target="_blank">
                    <text x="590" class="highcharts-credits" text-anchor="end" data-z-index="8"
                          style="cursor:pointer;color:#999999;font-size:9px;fill:#999999;" y="295">https://quantimo.do
                    </text>
                </a></svg>