<?xml version="1.0" standalone="no"?><!DOCTYPE svg PUBLIC "-//W3C//DTD SVG 1.1//EN" "http://www.w3.org/Graphics/SVG/1.1/DTD/svg11.dtd"><svg xmlns:xlink="http://www.w3.org/1999/xlink" version="1.1" class="highcharts-root" style="font-family:&quot;Lucida Grande&quot;, &quot;Lucida Sans Unicode&quot;, Arial, Helvetica, sans-serif;font-size:12px;" xmlns="http://www.w3.org/2000/svg" width="600" height="400"><desc>Created with Highstock 6.2.0</desc><defs><clipPath id="highcharts-h5h9blr-259"><rect x="0" y="0" width="522" height="263" fill="none"></rect></clipPath><clipPath id="highcharts-h5h9blr-512"><rect x="0" y="0" width="522" height="263" fill="none"></rect></clipPath><clipPath id="highcharts-h5h9blr-513"><rect x="68" y="78" width="522" height="263" fill="none"></rect></clipPath></defs><rect fill="#ffffff" class="highcharts-background" x="0" y="0" width="600" height="400" rx="0" ry="0"></rect><rect fill="none" class="highcharts-plot-background" x="68" y="78" width="522" height="263"></rect><g class="highcharts-pane-group" data-z-index="0"></g><g class="highcharts-grid highcharts-xaxis-grid " data-z-index="1"><path fill="none" data-z-index="1" class="highcharts-grid-line" d="M 76.5 78 L 76.5 341" opacity="1"></path><path fill="none" data-z-index="1" class="highcharts-grid-line" d="M 177.5 78 L 177.5 341" opacity="1"></path><path fill="none" data-z-index="1" class="highcharts-grid-line" d="M 279.5 78 L 279.5 341" opacity="1"></path><path fill="none" data-z-index="1" class="highcharts-grid-line" d="M 380.5 78 L 380.5 341" opacity="1"></path><path fill="none" data-z-index="1" class="highcharts-grid-line" d="M 481.5 78 L 481.5 341" opacity="1"></path><path fill="none" data-z-index="1" class="highcharts-grid-line" d="M 583.5 78 L 583.5 341" opacity="1"></path></g><g class="highcharts-grid highcharts-yaxis-grid " data-z-index="1"><path fill="none" stroke="#e6e6e6" stroke-width="1" data-z-index="1" class="highcharts-grid-line" d="M 68 341.5 L 590 341.5" opacity="1"></path><path fill="none" stroke="#e6e6e6" stroke-width="1" data-z-index="1" class="highcharts-grid-line" d="M 68 297.5 L 590 297.5" opacity="1"></path><path fill="none" stroke="#e6e6e6" stroke-width="1" data-z-index="1" class="highcharts-grid-line" d="M 68 253.5 L 590 253.5" opacity="1"></path><path fill="none" stroke="#e6e6e6" stroke-width="1" data-z-index="1" class="highcharts-grid-line" d="M 68 210.5 L 590 210.5" opacity="1"></path><path fill="none" stroke="#e6e6e6" stroke-width="1" data-z-index="1" class="highcharts-grid-line" d="M 68 166.5 L 590 166.5" opacity="1"></path><path fill="none" stroke="#e6e6e6" stroke-width="1" data-z-index="1" class="highcharts-grid-line" d="M 68 122.5 L 590 122.5" opacity="1"></path><path fill="none" stroke="#e6e6e6" stroke-width="1" data-z-index="1" class="highcharts-grid-line" d="M 68 77.5 L 590 77.5" opacity="1"></path></g><rect fill="none" class="highcharts-plot-border" data-z-index="1" x="68" y="78" width="522" height="263"></rect><g class="highcharts-axis highcharts-xaxis " data-z-index="2"><path fill="none" class="highcharts-tick" stroke="#ccd6eb" stroke-width="1" d="M 76.5 341 L 76.5 351" opacity="1"></path><path fill="none" class="highcharts-tick" stroke="#ccd6eb" stroke-width="1" d="M 177.5 341 L 177.5 351" opacity="1"></path><path fill="none" class="highcharts-tick" stroke="#ccd6eb" stroke-width="1" d="M 279.5 341 L 279.5 351" opacity="1"></path><path fill="none" class="highcharts-tick" stroke="#ccd6eb" stroke-width="1" d="M 380.5 341 L 380.5 351" opacity="1"></path><path fill="none" class="highcharts-tick" stroke="#ccd6eb" stroke-width="1" d="M 481.5 341 L 481.5 351" opacity="1"></path><path fill="none" class="highcharts-tick" stroke="#ccd6eb" stroke-width="1" d="M 583.5 341 L 583.5 351" opacity="1"></path><text x="329" data-z-index="7" text-anchor="middle" transform="translate(0,0)" class="highcharts-axis-title" style="color:#666666;fill:#666666;" y="381"><tspan>Indoor CO2 (ppm) over previous 7 days</tspan></text><path fill="none" class="highcharts-axis-line" stroke="#ccd6eb" stroke-width="1" data-z-index="7" d="M 68 341.5 L 590 341.5"></path></g><g class="highcharts-axis highcharts-yaxis " data-z-index="2"><text x="26" data-z-index="7" text-anchor="middle" transform="translate(0,0) rotate(270 26 209.5)" class="highcharts-axis-title" style="color:#666666;fill:#666666;" y="209.5"><tspan>Energy (/5)</tspan></text><path fill="none" class="highcharts-axis-line" data-z-index="7" d="M 68 78 L 68 341"></path></g><g class="highcharts-series-group" data-z-index="3"><g data-z-index="0.1" class="highcharts-series highcharts-series-0 highcharts-scatter-series highcharts-color-0 " transform="translate(68,78) scale(1 1)" clip-path="url(#highcharts-h5h9blr-512)"></g><g data-z-index="0.1" class="highcharts-markers highcharts-series-0 highcharts-scatter-series highcharts-color-0 " transform="translate(68,78) scale(1 1)" clip-path="none"><path fill="#000000" d="M 150 69 A 4 4 0 1 1 149.99999800000018 68.99600000066667 Z" class="highcharts-point highcharts-color-0"></path><path fill="#000000" d="M 66 81 A 4 4 0 1 1 65.99999800000016 80.99600000066667 Z" class="highcharts-point highcharts-color-0"></path><path fill="#000000" d="M 62 94 A 4 4 0 1 1 61.99999800000017 93.99600000066667 Z" class="highcharts-point highcharts-color-0"></path><path fill="#000000" d="M 226 94 A 4 4 0 1 1 225.99999800000018 93.99600000066667 Z" class="highcharts-point highcharts-color-0"></path><path fill="#000000" d="M 253 106 A 4 4 0 1 1 252.99999800000018 105.99600000066667 Z" class="highcharts-point highcharts-color-0"></path><path fill="#000000" d="M 246 94 A 4 4 0 1 1 245.99999800000018 93.99600000066667 Z" class="highcharts-point highcharts-color-0"></path><path fill="#000000" d="M 161 81 A 4 4 0 1 1 160.99999800000018 80.99600000066667 Z" class="highcharts-point highcharts-color-0"></path><path fill="#000000" d="M 276 81 A 4 4 0 1 1 275.9999980000002 80.99600000066667 Z" class="highcharts-point highcharts-color-0"></path><path fill="#000000" d="M 305 56 A 4 4 0 1 1 304.9999980000002 55.99600000066666 Z" class="highcharts-point highcharts-color-0"></path><path fill="#000000" d="M 520 56 A 4 4 0 1 1 519.9999980000001 55.99600000066666 Z" class="highcharts-point highcharts-color-0"></path><path fill="#000000" d="M 263 69 A 4 4 0 1 1 262.9999980000002 68.99600000066667 Z" class="highcharts-point highcharts-color-0"></path><path fill="#000000" d="M 381 73 A 4 4 0 1 1 380.9999980000002 72.99600000066667 Z" class="highcharts-point highcharts-color-0"></path><path fill="#000000" d="M 282 86 A 4 4 0 1 1 281.9999980000002 85.99600000066667 Z" class="highcharts-point highcharts-color-0"></path><path fill="#000000" d="M 415 98 A 4 4 0 1 1 414.9999980000002 97.99600000066667 Z" class="highcharts-point highcharts-color-0"></path><path fill="#000000" d="M 411 111 A 4 4 0 1 1 410.9999980000002 110.99600000066667 Z" class="highcharts-point highcharts-color-0"></path><path fill="#000000" d="M 170 123 A 4 4 0 1 1 169.99999800000018 122.99600000066667 Z" class="highcharts-point highcharts-color-0"></path><path fill="#000000" d="M 168 123 A 4 4 0 1 1 167.99999800000018 122.99600000066667 Z" class="highcharts-point highcharts-color-0"></path><path fill="#000000" d="M 166 123 A 4 4 0 1 1 165.99999800000018 122.99600000066667 Z" class="highcharts-point highcharts-color-0"></path><path fill="#000000" d="M 309 117 A 4 4 0 1 1 308.9999980000002 116.99600000066667 Z" class="highcharts-point highcharts-color-0"></path><path fill="#000000" d="M 222 114 A 4 4 0 1 1 221.99999800000018 113.99600000066667 Z" class="highcharts-point highcharts-color-0"></path><path fill="#000000" d="M 135 110 A 4 4 0 1 1 134.99999800000018 109.99600000066667 Z" class="highcharts-point highcharts-color-0"></path><path fill="#000000" d="M 214 153 A 4 4 0 1 1 213.99999800000018 152.99600000066667 Z" class="highcharts-point highcharts-color-0"></path><path fill="#000000" d="M 153 175 A 4 4 0 1 1 152.99999800000018 174.99600000066667 Z" class="highcharts-point highcharts-color-0"></path><path fill="#000000" d="M 178 190 A 4 4 0 1 1 177.99999800000018 189.99600000066667 Z" class="highcharts-point highcharts-color-0"></path><path fill="#000000" d="M 168 161 A 4 4 0 1 1 167.99999800000018 160.99600000066667 Z" class="highcharts-point highcharts-color-0"></path><path fill="#000000" d="M 181 153 A 4 4 0 1 1 180.99999800000018 152.99600000066667 Z" class="highcharts-point highcharts-color-0"></path><path fill="#000000" d="M 162 153 A 4 4 0 1 1 161.99999800000018 152.99600000066667 Z" class="highcharts-point highcharts-color-0"></path><path fill="#000000" d="M 184 149 A 4 4 0 1 1 183.99999800000018 148.99600000066667 Z" class="highcharts-point highcharts-color-0"></path><path fill="#000000" d="M 203 110 A 4 4 0 1 1 202.99999800000018 109.99600000066667 Z" class="highcharts-point highcharts-color-0"></path><path fill="#000000" d="M 154 110 A 4 4 0 1 1 153.99999800000018 109.99600000066667 Z" class="highcharts-point highcharts-color-0"></path><path fill="#000000" d="M 153 114 A 4 4 0 1 1 152.99999800000018 113.99600000066667 Z" class="highcharts-point highcharts-color-0"></path><path fill="#000000" d="M 130 132 A 4 4 0 1 1 129.99999800000018 131.99600000066667 Z" class="highcharts-point highcharts-color-0"></path><path fill="#000000" d="M 174 140 A 4 4 0 1 1 173.99999800000018 139.99600000066667 Z" class="highcharts-point highcharts-color-0"></path><path fill="#000000" d="M 155 110 A 4 4 0 1 1 154.99999800000018 109.99600000066667 Z" class="highcharts-point highcharts-color-0"></path><path fill="#000000" d="M 154 110 A 4 4 0 1 1 153.99999800000018 109.99600000066667 Z" class="highcharts-point highcharts-color-0"></path><path fill="#000000" d="M 161 110 A 4 4 0 1 1 160.99999800000018 109.99600000066667 Z" class="highcharts-point highcharts-color-0"></path><path fill="#000000" d="M 151 110 A 4 4 0 1 1 150.99999800000018 109.99600000066667 Z" class="highcharts-point highcharts-color-0"></path><path fill="#000000" d="M 130 105 A 4 4 0 1 1 129.99999800000018 104.99600000066667 Z" class="highcharts-point highcharts-color-0"></path><path fill="#000000" d="M 151 99 A 4 4 0 1 1 150.99999800000018 98.99600000066667 Z" class="highcharts-point highcharts-color-0"></path><path fill="#000000" d="M 168 44 A 4 4 0 1 1 167.99999800000018 43.99600000066666 Z" class="highcharts-point highcharts-color-0"></path><path fill="#000000" d="M 181 110 A 4 4 0 1 1 180.99999800000018 109.99600000066667 Z" class="highcharts-point highcharts-color-0"></path><path fill="#000000" d="M 170 110 A 4 4 0 1 1 169.99999800000018 109.99600000066667 Z" class="highcharts-point highcharts-color-0"></path><path fill="#000000" d="M 163 110 A 4 4 0 1 1 162.99999800000018 109.99600000066667 Z" class="highcharts-point highcharts-color-0"></path><path fill="#000000" d="M 164 110 A 4 4 0 1 1 163.99999800000018 109.99600000066667 Z" class="highcharts-point highcharts-color-0"></path><path fill="#000000" d="M 165 114 A 4 4 0 1 1 164.99999800000018 113.99600000066667 Z" class="highcharts-point highcharts-color-0"></path><path fill="#000000" d="M 162 114 A 4 4 0 1 1 161.99999800000018 113.99600000066667 Z" class="highcharts-point highcharts-color-0"></path><path fill="#000000" d="M 158 153 A 4 4 0 1 1 157.99999800000018 152.99600000066667 Z" class="highcharts-point highcharts-color-0"></path><path fill="#000000" d="M 94 132 A 4 4 0 1 1 93.99999800000016 131.99600000066667 Z" class="highcharts-point highcharts-color-0"></path><path fill="#000000" d="M 86 132 A 4 4 0 1 1 85.99999800000016 131.99600000066667 Z" class="highcharts-point highcharts-color-0"></path><path fill="#000000" d="M 112 132 A 4 4 0 1 1 111.99999800000016 131.99600000066667 Z" class="highcharts-point highcharts-color-0"></path><path fill="#000000" d="M 114 132 A 4 4 0 1 1 113.99999800000016 131.99600000066667 Z" class="highcharts-point highcharts-color-0"></path><path fill="#000000" d="M 136 175 A 4 4 0 1 1 135.99999800000018 174.99600000066667 Z" class="highcharts-point highcharts-color-0"></path><path fill="#000000" d="M 124 175 A 4 4 0 1 1 123.99999800000016 174.99600000066667 Z" class="highcharts-point highcharts-color-0"></path><path fill="#000000" d="M 130 175 A 4 4 0 1 1 129.99999800000018 174.99600000066667 Z" class="highcharts-point highcharts-color-0"></path><path fill="#000000" d="M 126 164 A 4 4 0 1 1 125.99999800000016 163.99600000066667 Z" class="highcharts-point highcharts-color-0"></path><path fill="#000000" d="M 117 158 A 4 4 0 1 1 116.99999800000016 157.99600000066667 Z" class="highcharts-point highcharts-color-0"></path><path fill="#000000" d="M 118 158 A 4 4 0 1 1 117.99999800000016 157.99600000066667 Z" class="highcharts-point highcharts-color-0"></path><path fill="#000000" d="M 137 158 A 4 4 0 1 1 136.99999800000018 157.99600000066667 Z" class="highcharts-point highcharts-color-0"></path><path fill="#000000" d="M 123 161 A 4 4 0 1 1 122.99999800000016 160.99600000066667 Z" class="highcharts-point highcharts-color-0"></path><path fill="#000000" d="M 114 167 A 4 4 0 1 1 113.99999800000016 166.99600000066667 Z" class="highcharts-point highcharts-color-0"></path><path fill="#000000" d="M 149 175 A 4 4 0 1 1 148.99999800000018 174.99600000066667 Z" class="highcharts-point highcharts-color-0"></path><path fill="#000000" d="M 130 175 A 4 4 0 1 1 129.99999800000018 174.99600000066667 Z" class="highcharts-point highcharts-color-0"></path><path fill="#000000" d="M 181 168 A 4 4 0 1 1 180.99999800000018 167.99600000066667 Z" class="highcharts-point highcharts-color-0"></path><path fill="#000000" d="M 183 153 A 4 4 0 1 1 182.99999800000018 152.99600000066667 Z" class="highcharts-point highcharts-color-0"></path><path fill="#000000" d="M 132 153 A 4 4 0 1 1 131.99999800000018 152.99600000066667 Z" class="highcharts-point highcharts-color-0"></path><path fill="#000000" d="M 186 153 A 4 4 0 1 1 185.99999800000018 152.99600000066667 Z" class="highcharts-point highcharts-color-0"></path><path fill="#000000" d="M 125 150 A 4 4 0 1 1 124.99999800000016 149.99600000066667 Z" class="highcharts-point highcharts-color-0"></path><path fill="#000000" d="M 117 144 A 4 4 0 1 1 116.99999800000016 143.99600000066667 Z" class="highcharts-point highcharts-color-0"></path><path fill="#000000" d="M 104 144 A 4 4 0 1 1 103.99999800000016 143.99600000066667 Z" class="highcharts-point highcharts-color-0"></path><path fill="#000000" d="M 139 144 A 4 4 0 1 1 138.99999800000018 143.99600000066667 Z" class="highcharts-point highcharts-color-0"></path><path fill="#000000" d="M 115 144 A 4 4 0 1 1 114.99999800000016 143.99600000066667 Z" class="highcharts-point highcharts-color-0"></path><path fill="#000000" d="M 159 132 A 4 4 0 1 1 158.99999800000018 131.99600000066667 Z" class="highcharts-point highcharts-color-0"></path><path fill="#000000" d="M 177 132 A 4 4 0 1 1 176.99999800000018 131.99600000066667 Z" class="highcharts-point highcharts-color-0"></path><path fill="#000000" d="M 181 132 A 4 4 0 1 1 180.99999800000018 131.99600000066667 Z" class="highcharts-point highcharts-color-0"></path><path fill="#000000" d="M 129 132 A 4 4 0 1 1 128.99999800000018 131.99600000066667 Z" class="highcharts-point highcharts-color-0"></path><path fill="#000000" d="M 139 132 A 4 4 0 1 1 138.99999800000018 131.99600000066667 Z" class="highcharts-point highcharts-color-0"></path><path fill="#000000" d="M 113 157 A 4 4 0 1 1 112.99999800000016 156.99600000066667 Z" class="highcharts-point highcharts-color-0"></path><path fill="#000000" d="M 164 161 A 4 4 0 1 1 163.99999800000018 160.99600000066667 Z" class="highcharts-point highcharts-color-0"></path><path fill="#000000" d="M 106 102 A 4 4 0 1 1 105.99999800000016 101.99600000066667 Z" class="highcharts-point highcharts-color-0"></path><path fill="#000000" d="M 125 110 A 4 4 0 1 1 124.99999800000016 109.99600000066667 Z" class="highcharts-point highcharts-color-0"></path><path fill="#000000" d="M 130 114 A 4 4 0 1 1 129.99999800000018 113.99600000066667 Z" class="highcharts-point highcharts-color-0"></path><path fill="#000000" d="M 144 114 A 4 4 0 1 1 143.99999800000018 113.99600000066667 Z" class="highcharts-point highcharts-color-0"></path><path fill="#000000" d="M 128 117 A 4 4 0 1 1 127.99999800000016 116.99600000066667 Z" class="highcharts-point highcharts-color-0"></path><path fill="#000000" d="M 124 114 A 4 4 0 1 1 123.99999800000016 113.99600000066667 Z" class="highcharts-point highcharts-color-0"></path><path fill="#000000" d="M 120 149 A 4 4 0 1 1 119.99999800000016 148.99600000066667 Z" class="highcharts-point highcharts-color-0"></path><path fill="#000000" d="M 119 149 A 4 4 0 1 1 118.99999800000016 148.99600000066667 Z" class="highcharts-point highcharts-color-0"></path><path fill="#000000" d="M 69 149 A 4 4 0 1 1 68.99999800000016 148.99600000066667 Z" class="highcharts-point highcharts-color-0"></path><path fill="#000000" d="M 82 153 A 4 4 0 1 1 81.99999800000016 152.99600000066667 Z" class="highcharts-point highcharts-color-0"></path><path fill="#000000" d="M 101 153 A 4 4 0 1 1 100.99999800000016 152.99600000066667 Z" class="highcharts-point highcharts-color-0"></path><path fill="#000000" d="M 117 161 A 4 4 0 1 1 116.99999800000016 160.99600000066667 Z" class="highcharts-point highcharts-color-0"></path><path fill="#000000" d="M 96 161 A 4 4 0 1 1 95.99999800000016 160.99600000066667 Z" class="highcharts-point highcharts-color-0"></path><path fill="#000000" d="M 133 139 A 4 4 0 1 1 132.99999800000018 138.99600000066667 Z" class="highcharts-point highcharts-color-0"></path><path fill="#000000" d="M 120 163 A 4 4 0 1 1 119.99999800000016 162.99600000066667 Z" class="highcharts-point highcharts-color-0"></path><path fill="#000000" d="M 82 163 A 4 4 0 1 1 81.99999800000016 162.99600000066667 Z" class="highcharts-point highcharts-color-0"></path><path fill="#000000" d="M 82 177 A 4 4 0 1 1 81.99999800000016 176.99600000066667 Z" class="highcharts-point highcharts-color-0"></path><path fill="#000000" d="M 80 185 A 4 4 0 1 1 79.99999800000016 184.99600000066667 Z" class="highcharts-point highcharts-color-0"></path><path fill="#000000" d="M 60 185 A 4 4 0 1 1 59.99999800000017 184.99600000066667 Z" class="highcharts-point highcharts-color-0"></path><path fill="#000000" d="M 85 191 A 4 4 0 1 1 84.99999800000016 190.99600000066667 Z" class="highcharts-point highcharts-color-0"></path><path fill="#000000" d="M 62 202 A 4 4 0 1 1 61.99999800000017 201.99600000066667 Z" class="highcharts-point highcharts-color-0"></path><path fill="#000000" d="M 98 202 A 4 4 0 1 1 97.99999800000016 201.99600000066667 Z" class="highcharts-point highcharts-color-0"></path><path fill="#000000" d="M 88 219 A 4 4 0 1 1 87.99999800000016 218.99600000066667 Z" class="highcharts-point highcharts-color-0"></path><path fill="#000000" d="M 92 175 A 4 4 0 1 1 91.99999800000016 174.99600000066667 Z" class="highcharts-point highcharts-color-0"></path><path fill="#000000" d="M 84 132 A 4 4 0 1 1 83.99999800000016 131.99600000066667 Z" class="highcharts-point highcharts-color-0"></path><path fill="#000000" d="M 76 149 A 4 4 0 1 1 75.99999800000016 148.99600000066667 Z" class="highcharts-point highcharts-color-0"></path><path fill="#000000" d="M 114 149 A 4 4 0 1 1 113.99999800000016 148.99600000066667 Z" class="highcharts-point highcharts-color-0"></path><path fill="#000000" d="M 113 132 A 4 4 0 1 1 112.99999800000016 131.99600000066667 Z" class="highcharts-point highcharts-color-0"></path><path fill="#000000" d="M 87 146 A 4 4 0 1 1 86.99999800000016 145.99600000066667 Z" class="highcharts-point highcharts-color-0"></path><path fill="#000000" d="M 72 132 A 4 4 0 1 1 71.99999800000016 131.99600000066667 Z" class="highcharts-point highcharts-color-0"></path><path fill="#000000" d="M 73 146 A 4 4 0 1 1 72.99999800000016 145.99600000066667 Z" class="highcharts-point highcharts-color-0"></path><path fill="#000000" d="M 59 167 A 4 4 0 1 1 58.99999800000017 166.99600000066667 Z" class="highcharts-point highcharts-color-0"></path><path fill="#000000" d="M 86 153 A 4 4 0 1 1 85.99999800000016 152.99600000066667 Z" class="highcharts-point highcharts-color-0"></path><path fill="#000000" d="M 73 132 A 4 4 0 1 1 72.99999800000016 131.99600000066667 Z" class="highcharts-point highcharts-color-0"></path><path fill="#000000" d="M 132 132 A 4 4 0 1 1 131.99999800000018 131.99600000066667 Z" class="highcharts-point highcharts-color-0"></path><path fill="#000000" d="M 87 132 A 4 4 0 1 1 86.99999800000016 131.99600000066667 Z" class="highcharts-point highcharts-color-0"></path><path fill="#000000" d="M 98 175 A 4 4 0 1 1 97.99999800000016 174.99600000066667 Z" class="highcharts-point highcharts-color-0"></path><path fill="#000000" d="M 99 161 A 4 4 0 1 1 98.99999800000016 160.99600000066667 Z" class="highcharts-point highcharts-color-0"></path><path fill="#000000" d="M 59 175 A 4 4 0 1 1 58.99999800000017 174.99600000066667 Z" class="highcharts-point highcharts-color-0"></path><path fill="#000000" d="M 62 167 A 4 4 0 1 1 61.99999800000017 166.99600000066667 Z" class="highcharts-point highcharts-color-0"></path><path fill="#000000" d="M 31 167 A 4 4 0 1 1 30.99999800000017 166.99600000066667 Z" class="highcharts-point highcharts-color-0"></path><path fill="#000000" d="M 67 161 A 4 4 0 1 1 66.99999800000016 160.99600000066667 Z" class="highcharts-point highcharts-color-0"></path><path fill="#000000" d="M 105 117 A 4 4 0 1 1 104.99999800000016 116.99600000066667 Z" class="highcharts-point highcharts-color-0"></path><path fill="#000000" d="M 98 102 A 4 4 0 1 1 97.99999800000016 101.99600000066667 Z" class="highcharts-point highcharts-color-0"></path><path fill="#000000" d="M 83 73 A 4 4 0 1 1 82.99999800000016 72.99600000066667 Z" class="highcharts-point highcharts-color-0"></path><path fill="#000000" d="M 95 61 A 4 4 0 1 1 94.99999800000016 60.99600000066666 Z" class="highcharts-point highcharts-color-0"></path><path fill="#000000" d="M 83 58 A 4 4 0 1 1 82.99999800000016 57.99600000066666 Z" class="highcharts-point highcharts-color-0"></path><path fill="#000000" d="M 116 58 A 4 4 0 1 1 115.99999800000016 57.99600000066666 Z" class="highcharts-point highcharts-color-0"></path><path fill="#000000" d="M 124 58 A 4 4 0 1 1 123.99999800000016 57.99600000066666 Z" class="highcharts-point highcharts-color-0"></path><path fill="#000000" d="M 107 61 A 4 4 0 1 1 106.99999800000016 60.99600000066666 Z" class="highcharts-point highcharts-color-0"></path><path fill="#000000" d="M 110 66 A 4 4 0 1 1 109.99999800000016 65.99600000066667 Z" class="highcharts-point highcharts-color-0"></path><path fill="#000000" d="M 103 66 A 4 4 0 1 1 102.99999800000016 65.99600000066667 Z" class="highcharts-point highcharts-color-0"></path><path fill="#000000" d="M 86 79 A 4 4 0 1 1 85.99999800000016 78.99600000066667 Z" class="highcharts-point highcharts-color-0"></path><path fill="#000000" d="M 95 88 A 4 4 0 1 1 94.99999800000016 87.99600000066667 Z" class="highcharts-point highcharts-color-0"></path><path fill="#000000" d="M 114 110 A 4 4 0 1 1 113.99999800000016 109.99600000066667 Z" class="highcharts-point highcharts-color-0"></path><path fill="#000000" d="M 74 96 A 4 4 0 1 1 73.99999800000016 95.99600000066667 Z" class="highcharts-point highcharts-color-0"></path><path fill="#000000" d="M 10 88 A 4 4 0 1 1 9.999998000000167 87.99600000066667 Z" class="highcharts-point highcharts-color-0"></path><path fill="#000000" d="M 9 88 A 4 4 0 1 1 8.999998000000167 87.99600000066667 Z" class="highcharts-point highcharts-color-0"></path><path fill="#000000" d="M 64 88 A 4 4 0 1 1 63.99999800000017 87.99600000066667 Z" class="highcharts-point highcharts-color-0"></path><path fill="#000000" d="M 106 117 A 4 4 0 1 1 105.99999800000016 116.99600000066667 Z" class="highcharts-point highcharts-color-0"></path><path fill="#000000" d="M 53 132 A 4 4 0 1 1 52.99999800000017 131.99600000066667 Z" class="highcharts-point highcharts-color-0"></path><path fill="#000000" d="M 210 132 A 4 4 0 1 1 209.99999800000018 131.99600000066667 Z" class="highcharts-point highcharts-color-0"></path><path fill="#000000" d="M 221 132 A 4 4 0 1 1 220.99999800000018 131.99600000066667 Z" class="highcharts-point highcharts-color-0"></path><path fill="#000000" d="M 217 167 A 4 4 0 1 1 216.99999800000018 166.99600000066667 Z" class="highcharts-point highcharts-color-0"></path><path fill="#000000" d="M 209 167 A 4 4 0 1 1 208.99999800000018 166.99600000066667 Z" class="highcharts-point highcharts-color-0"></path><path fill="#000000" d="M 50 197 A 4 4 0 1 1 49.99999800000017 196.99600000066667 Z" class="highcharts-point highcharts-color-0"></path><path fill="#000000" d="M 96 197 A 4 4 0 1 1 95.99999800000016 196.99600000066667 Z" class="highcharts-point highcharts-color-0"></path><path fill="#000000" d="M 104 190 A 4 4 0 1 1 103.99999800000016 189.99600000066667 Z" class="highcharts-point highcharts-color-0"></path><path fill="#000000" d="M 78 175 A 4 4 0 1 1 77.99999800000016 174.99600000066667 Z" class="highcharts-point highcharts-color-0"></path><path fill="#000000" d="M 73 175 A 4 4 0 1 1 72.99999800000016 174.99600000066667 Z" class="highcharts-point highcharts-color-0"></path><path fill="#000000" d="M 85 197 A 4 4 0 1 1 84.99999800000016 196.99600000066667 Z" class="highcharts-point highcharts-color-0"></path><path fill="#000000" d="M 95 219 A 4 4 0 1 1 94.99999800000016 218.99600000066667 Z" class="highcharts-point highcharts-color-0"></path><path fill="#000000" d="M 100 219 A 4 4 0 1 1 99.99999800000016 218.99600000066667 Z" class="highcharts-point highcharts-color-0"></path><path fill="#000000" d="M 75 197 A 4 4 0 1 1 74.99999800000016 196.99600000066667 Z" class="highcharts-point highcharts-color-0"></path><path fill="#000000" d="M 59 184 A 4 4 0 1 1 58.99999800000017 183.99600000066667 Z" class="highcharts-point highcharts-color-0"></path><path fill="#000000" d="M 65 197 A 4 4 0 1 1 64.99999800000016 196.99600000066667 Z" class="highcharts-point highcharts-color-0"></path><path fill="#000000" d="M 80 197 A 4 4 0 1 1 79.99999800000016 196.99600000066667 Z" class="highcharts-point highcharts-color-0"></path><path fill="#000000" d="M 222 153 A 4 4 0 1 1 221.99999800000018 152.99600000066667 Z" class="highcharts-point highcharts-color-0"></path><path fill="#000000" d="M 252 153 A 4 4 0 1 1 251.99999800000018 152.99600000066667 Z" class="highcharts-point highcharts-color-0"></path><path fill="#000000" d="M 127 132 A 4 4 0 1 1 126.99999800000016 131.99600000066667 Z" class="highcharts-point highcharts-color-0"></path><path fill="#000000" d="M 217 102 A 4 4 0 1 1 216.99999800000018 101.99600000066667 Z" class="highcharts-point highcharts-color-0"></path><path fill="#000000" d="M 234 88 A 4 4 0 1 1 233.99999800000018 87.99600000066667 Z" class="highcharts-point highcharts-color-0"></path><path fill="#000000" d="M 284 102 A 4 4 0 1 1 283.9999980000002 101.99600000066667 Z" class="highcharts-point highcharts-color-0"></path><path fill="#000000" d="M 299 102 A 4 4 0 1 1 298.9999980000002 101.99600000066667 Z" class="highcharts-point highcharts-color-0"></path><path fill="#000000" d="M 335 102 A 4 4 0 1 1 334.9999980000002 101.99600000066667 Z" class="highcharts-point highcharts-color-0"></path><path fill="#000000" d="M 243 110 A 4 4 0 1 1 242.99999800000018 109.99600000066667 Z" class="highcharts-point highcharts-color-0"></path><path fill="#000000" d="M 182 96 A 4 4 0 1 1 181.99999800000018 95.99600000066667 Z" class="highcharts-point highcharts-color-0"></path><path fill="#000000" d="M 252 132 A 4 4 0 1 1 251.99999800000018 131.99600000066667 Z" class="highcharts-point highcharts-color-0"></path><path fill="#000000" d="M 177 132 A 4 4 0 1 1 176.99999800000018 131.99600000066667 Z" class="highcharts-point highcharts-color-0"></path><path fill="#000000" d="M 210 132 A 4 4 0 1 1 209.99999800000018 131.99600000066667 Z" class="highcharts-point highcharts-color-0"></path><path fill="#000000" d="M 224 132 A 4 4 0 1 1 223.99999800000018 131.99600000066667 Z" class="highcharts-point highcharts-color-0"></path><path fill="#000000" d="M 241 144 A 4 4 0 1 1 240.99999800000018 143.99600000066667 Z" class="highcharts-point highcharts-color-0"></path><path fill="#000000" d="M 249 146 A 4 4 0 1 1 248.99999800000018 145.99600000066667 Z" class="highcharts-point highcharts-color-0"></path><path fill="#000000" d="M 180 161 A 4 4 0 1 1 179.99999800000018 160.99600000066667 Z" class="highcharts-point highcharts-color-0"></path><path fill="#000000" d="M 271 161 A 4 4 0 1 1 270.9999980000002 160.99600000066667 Z" class="highcharts-point highcharts-color-0"></path><path fill="#000000" d="M 236 161 A 4 4 0 1 1 235.99999800000018 160.99600000066667 Z" class="highcharts-point highcharts-color-0"></path><path fill="#000000" d="M 146 161 A 4 4 0 1 1 145.99999800000018 160.99600000066667 Z" class="highcharts-point highcharts-color-0"></path><path fill="#000000" d="M 248 161 A 4 4 0 1 1 247.99999800000018 160.99600000066667 Z" class="highcharts-point highcharts-color-0"></path><path fill="#000000" d="M 283 146 A 4 4 0 1 1 282.9999980000002 145.99600000066667 Z" class="highcharts-point highcharts-color-0"></path><path fill="#000000" d="M 257 157 A 4 4 0 1 1 256.9999980000002 156.99600000066667 Z" class="highcharts-point highcharts-color-0"></path><path fill="#000000" d="M 226 157 A 4 4 0 1 1 225.99999800000018 156.99600000066667 Z" class="highcharts-point highcharts-color-0"></path><path fill="#000000" d="M 120 144 A 4 4 0 1 1 119.99999800000016 143.99600000066667 Z" class="highcharts-point highcharts-color-0"></path><path fill="#000000" d="M 232 144 A 4 4 0 1 1 231.99999800000018 143.99600000066667 Z" class="highcharts-point highcharts-color-0"></path><path fill="#000000" d="M 166 144 A 4 4 0 1 1 165.99999800000018 143.99600000066667 Z" class="highcharts-point highcharts-color-0"></path><path fill="#000000" d="M 137 144 A 4 4 0 1 1 136.99999800000018 143.99600000066667 Z" class="highcharts-point highcharts-color-0"></path><path fill="#000000" d="M 94 144 A 4 4 0 1 1 93.99999800000016 143.99600000066667 Z" class="highcharts-point highcharts-color-0"></path><path fill="#000000" d="M 159 132 A 4 4 0 1 1 158.99999800000018 131.99600000066667 Z" class="highcharts-point highcharts-color-0"></path><path fill="#000000" d="M 165 119 A 4 4 0 1 1 164.99999800000018 118.99600000066667 Z" class="highcharts-point highcharts-color-0"></path><path fill="#000000" d="M 26 117 A 4 4 0 1 1 25.99999800000017 116.99600000066667 Z" class="highcharts-point highcharts-color-0"></path><path fill="#000000" d="M 115 88 A 4 4 0 1 1 114.99999800000016 87.99600000066667 Z" class="highcharts-point highcharts-color-0"></path><path fill="#000000" d="M 129 88 A 4 4 0 1 1 128.99999800000018 87.99600000066667 Z" class="highcharts-point highcharts-color-0"></path><path fill="#000000" d="M 171 79 A 4 4 0 1 1 170.99999800000018 78.99600000066667 Z" class="highcharts-point highcharts-color-0"></path><path fill="#000000" d="M 211 79 A 4 4 0 1 1 210.99999800000018 78.99600000066667 Z" class="highcharts-point highcharts-color-0"></path><path fill="#000000" d="M 216 79 A 4 4 0 1 1 215.99999800000018 78.99600000066667 Z" class="highcharts-point highcharts-color-0"></path><path fill="#000000" d="M 92 96 A 4 4 0 1 1 91.99999800000016 95.99600000066667 Z" class="highcharts-point highcharts-color-0"></path><path fill="#000000" d="M 170 102 A 4 4 0 1 1 169.99999800000018 101.99600000066667 Z" class="highcharts-point highcharts-color-0"></path><path fill="#000000" d="M 269 132 A 4 4 0 1 1 268.9999980000002 131.99600000066667 Z" class="highcharts-point highcharts-color-0"></path><path fill="#000000" d="M 234 132 A 4 4 0 1 1 233.99999800000018 131.99600000066667 Z" class="highcharts-point highcharts-color-0"></path><path fill="#000000" d="M 256 132 A 4 4 0 1 1 255.99999800000018 131.99600000066667 Z" class="highcharts-point highcharts-color-0"></path><path fill="#000000" d="M 255 132 A 4 4 0 1 1 254.99999800000018 131.99600000066667 Z" class="highcharts-point highcharts-color-0"></path><path fill="#000000" d="M 280 132 A 4 4 0 1 1 279.9999980000002 131.99600000066667 Z" class="highcharts-point highcharts-color-0"></path><path fill="#000000" d="M 41 132 A 4 4 0 1 1 40.99999800000017 131.99600000066667 Z" class="highcharts-point highcharts-color-0"></path><path fill="#000000" d="M 93 132 A 4 4 0 1 1 92.99999800000016 131.99600000066667 Z" class="highcharts-point highcharts-color-0"></path><path fill="#000000" d="M 98 132 A 4 4 0 1 1 97.99999800000016 131.99600000066667 Z" class="highcharts-point highcharts-color-0"></path><path fill="#000000" d="M 245 132 A 4 4 0 1 1 244.99999800000018 131.99600000066667 Z" class="highcharts-point highcharts-color-0"></path><path fill="#000000" d="M 166 132 A 4 4 0 1 1 165.99999800000018 131.99600000066667 Z" class="highcharts-point highcharts-color-0"></path><path fill="#000000" d="M 84 132 A 4 4 0 1 1 83.99999800000016 131.99600000066667 Z" class="highcharts-point highcharts-color-0"></path><path fill="#000000" d="M 138 132 A 4 4 0 1 1 137.99999800000018 131.99600000066667 Z" class="highcharts-point highcharts-color-0"></path><path fill="#000000" d="M 117 132 A 4 4 0 1 1 116.99999800000016 131.99600000066667 Z" class="highcharts-point highcharts-color-0"></path><path fill="#000000" d="M 151 132 A 4 4 0 1 1 150.99999800000018 131.99600000066667 Z" class="highcharts-point highcharts-color-0"></path><path fill="#000000" d="M 150 132 A 4 4 0 1 1 149.99999800000018 131.99600000066667 Z" class="highcharts-point highcharts-color-0"></path><path fill="#000000" d="M 113 132 A 4 4 0 1 1 112.99999800000016 131.99600000066667 Z" class="highcharts-point highcharts-color-0"></path><path fill="#000000" d="M 151 132 A 4 4 0 1 1 150.99999800000018 131.99600000066667 Z" class="highcharts-point highcharts-color-0"></path><path fill="#000000" d="M 89 132 A 4 4 0 1 1 88.99999800000016 131.99600000066667 Z" class="highcharts-point highcharts-color-0"></path><path fill="#000000" d="M 190 132 A 4 4 0 1 1 189.99999800000018 131.99600000066667 Z" class="highcharts-point highcharts-color-0"></path><path fill="#000000" d="M 218 132 A 4 4 0 1 1 217.99999800000018 131.99600000066667 Z" class="highcharts-point highcharts-color-0"></path><path fill="#000000" d="M 232 149 A 4 4 0 1 1 231.99999800000018 148.99600000066667 Z" class="highcharts-point highcharts-color-0"></path><path fill="#000000" d="M 171 153 A 4 4 0 1 1 170.99999800000018 152.99600000066667 Z" class="highcharts-point highcharts-color-0"></path><path fill="#000000" d="M 181 161 A 4 4 0 1 1 180.99999800000018 160.99600000066667 Z" class="highcharts-point highcharts-color-0"></path><path fill="#000000" d="M 206 175 A 4 4 0 1 1 205.99999800000018 174.99600000066667 Z" class="highcharts-point highcharts-color-0"></path><path fill="#000000" d="M 145 175 A 4 4 0 1 1 144.99999800000018 174.99600000066667 Z" class="highcharts-point highcharts-color-0"></path><path fill="#000000" d="M 309 132 A 4 4 0 1 1 308.9999980000002 131.99600000066667 Z" class="highcharts-point highcharts-color-0"></path><path fill="#000000" d="M 324 161 A 4 4 0 1 1 323.9999980000002 160.99600000066667 Z" class="highcharts-point highcharts-color-0"></path><path fill="#000000" d="M 316 190 A 4 4 0 1 1 315.9999980000002 189.99600000066667 Z" class="highcharts-point highcharts-color-0"></path><path fill="#000000" d="M 202 190 A 4 4 0 1 1 201.99999800000018 189.99600000066667 Z" class="highcharts-point highcharts-color-0"></path><path fill="#000000" d="M 290 190 A 4 4 0 1 1 289.9999980000002 189.99600000066667 Z" class="highcharts-point highcharts-color-0"></path><path fill="#000000" d="M 289 175 A 4 4 0 1 1 288.9999980000002 174.99600000066667 Z" class="highcharts-point highcharts-color-0"></path><path fill="#000000" d="M 264 167 A 4 4 0 1 1 263.9999980000002 166.99600000066667 Z" class="highcharts-point highcharts-color-0"></path><path fill="#000000" d="M 243 202 A 4 4 0 1 1 242.99999800000018 201.99600000066667 Z" class="highcharts-point highcharts-color-0"></path><path fill="#000000" d="M 293 202 A 4 4 0 1 1 292.9999980000002 201.99600000066667 Z" class="highcharts-point highcharts-color-0"></path><path fill="#000000" d="M 380 184 A 4 4 0 1 1 379.9999980000002 183.99600000066667 Z" class="highcharts-point highcharts-color-0"></path><path fill="#000000" d="M 279 190 A 4 4 0 1 1 278.9999980000002 189.99600000066667 Z" class="highcharts-point highcharts-color-0"></path><path fill="#000000" d="M 207 194 A 4 4 0 1 1 206.99999800000018 193.99600000066667 Z" class="highcharts-point highcharts-color-0"></path><path fill="#000000" d="M 249 207 A 4 4 0 1 1 248.99999800000018 206.99600000066667 Z" class="highcharts-point highcharts-color-0"></path><path fill="#000000" d="M 316 219 A 4 4 0 1 1 315.9999980000002 218.99600000066667 Z" class="highcharts-point highcharts-color-0"></path><path fill="#000000" d="M 252 219 A 4 4 0 1 1 251.99999800000018 218.99600000066667 Z" class="highcharts-point highcharts-color-0"></path><path fill="#000000" d="M 34 219 A 4 4 0 1 1 33.99999800000017 218.99600000066667 Z" class="highcharts-point highcharts-color-0"></path><path fill="#000000" d="M 196 219 A 4 4 0 1 1 195.99999800000018 218.99600000066667 Z" class="highcharts-point highcharts-color-0"></path><path fill="#000000" d="M 322 207 A 4 4 0 1 1 321.9999980000002 206.99600000066667 Z" class="highcharts-point highcharts-color-0"></path><path fill="#000000" d="M 244 207 A 4 4 0 1 1 243.99999800000018 206.99600000066667 Z" class="highcharts-point highcharts-color-0"></path><path fill="#000000" d="M 386 205 A 4 4 0 1 1 385.9999980000002 204.99600000066667 Z" class="highcharts-point highcharts-color-0"></path><path fill="#000000" d="M 287 190 A 4 4 0 1 1 286.9999980000002 189.99600000066667 Z" class="highcharts-point highcharts-color-0"></path><path fill="#000000" d="M 290 175 A 4 4 0 1 1 289.9999980000002 174.99600000066667 Z" class="highcharts-point highcharts-color-0"></path><path fill="#000000" d="M 162 161 A 4 4 0 1 1 161.99999800000018 160.99600000066667 Z" class="highcharts-point highcharts-color-0"></path><path fill="#000000" d="M 234 149 A 4 4 0 1 1 233.99999800000018 148.99600000066667 Z" class="highcharts-point highcharts-color-0"></path><path fill="#000000" d="M 231 153 A 4 4 0 1 1 230.99999800000018 152.99600000066667 Z" class="highcharts-point highcharts-color-0"></path><path fill="#000000" d="M 237 132 A 4 4 0 1 1 236.99999800000018 131.99600000066667 Z" class="highcharts-point highcharts-color-0"></path><path fill="#000000" d="M 230 149 A 4 4 0 1 1 229.99999800000018 148.99600000066667 Z" class="highcharts-point highcharts-color-0"></path><path fill="#000000" d="M 156 153 A 4 4 0 1 1 155.99999800000018 152.99600000066667 Z" class="highcharts-point highcharts-color-0"></path><path fill="#000000" d="M 264 161 A 4 4 0 1 1 263.9999980000002 160.99600000066667 Z" class="highcharts-point highcharts-color-0"></path><path fill="#000000" d="M 339 175 A 4 4 0 1 1 338.9999980000002 174.99600000066667 Z" class="highcharts-point highcharts-color-0"></path><path fill="#000000" d="M 341 175 A 4 4 0 1 1 340.9999980000002 174.99600000066667 Z" class="highcharts-point highcharts-color-0"></path><path fill="#000000" d="M 299 175 A 4 4 0 1 1 298.9999980000002 174.99600000066667 Z" class="highcharts-point highcharts-color-0"></path><path fill="#000000" d="M 269 219 A 4 4 0 1 1 268.9999980000002 218.99600000066667 Z" class="highcharts-point highcharts-color-0"></path></g></g><text x="300" text-anchor="middle" class="highcharts-title" data-z-index="4" style="color:#333333;font-size:18px;fill:#333333;" y="24"><tspan>Energy Following Indoor CO2</tspan></text><text x="300" text-anchor="middle" class="highcharts-subtitle" data-z-index="4" style="color:#666666;fill:#666666;" y="46"><tspan>An increase in 7 days cumulative Indoor CO2 is usually followed by an increase in Energy. (R</tspan><tspan dy="15" x="300">= 0.006)</tspan></text><g class="highcharts-axis-labels highcharts-xaxis-labels " data-z-index="7"><text x="76.668046405877" style="color:#666666;cursor:default;font-size:11px;fill:#666666;" text-anchor="middle" transform="translate(0,0)" y="360" opacity="1">400</text><text x="178.10802775025" style="color:#666666;cursor:default;font-size:11px;fill:#666666;" text-anchor="middle" transform="translate(0,0)" y="360" opacity="1">600</text><text x="279.54800909462" style="color:#666666;cursor:default;font-size:11px;fill:#666666;" text-anchor="middle" transform="translate(0,0)" y="360" opacity="1">800</text><text x="380.98799043899" style="color:#666666;cursor:default;font-size:11px;fill:#666666;" text-anchor="middle" transform="translate(0,0)" y="360" opacity="1">1000</text><text x="482.42797178336" style="color:#666666;cursor:default;font-size:11px;fill:#666666;" text-anchor="middle" transform="translate(0,0)" y="360" opacity="1">1200</text><text x="576" style="color:#666666;cursor:default;font-size:11px;fill:#666666;" text-anchor="middle" transform="translate(0,0)" y="360" opacity="1">1400</text></g><g class="highcharts-axis-labels highcharts-yaxis-labels " data-z-index="7"><text x="53" style="color:#666666;cursor:default;font-size:11px;fill:#666666;" text-anchor="end" transform="translate(0,0)" y="345" opacity="1">1.5</text><text x="53" style="color:#666666;cursor:default;font-size:11px;fill:#666666;" text-anchor="end" transform="translate(0,0)" y="301" opacity="1">2</text><text x="53" style="color:#666666;cursor:default;font-size:11px;fill:#666666;" text-anchor="end" transform="translate(0,0)" y="257" opacity="1">2.5</text><text x="53" style="color:#666666;cursor:default;font-size:11px;fill:#666666;" text-anchor="end" transform="translate(0,0)" y="213" opacity="1">3</text><text x="53" style="color:#666666;cursor:default;font-size:11px;fill:#666666;" text-anchor="end" transform="translate(0,0)" y="169" opacity="1">3.5</text><text x="53" style="color:#666666;cursor:default;font-size:11px;fill:#666666;" text-anchor="end" transform="translate(0,0)" y="125" opacity="1">4</text><text x="53" style="color:#666666;cursor:default;font-size:11px;fill:#666666;" text-anchor="end" transform="translate(0,0)" y="82" opacity="1">4.5</text></g><a xlink:href="https://quantimo.do" target="_blank">
                    <text x="590" class="highcharts-credits" text-anchor="end" data-z-index="8"
                          style="cursor:pointer;color:#999999;font-size:9px;fill:#999999;" y="395">https://quantimo.do
                    </text>
                </a></svg>