<?xml version="1.0" standalone="no"?><!DOCTYPE svg PUBLIC "-//W3C//DTD SVG 1.1//EN" "http://www.w3.org/Graphics/SVG/1.1/DTD/svg11.dtd"><svg xmlns:xlink="http://www.w3.org/1999/xlink" version="1.1" class="highcharts-root" style="font-family:&quot;Lucida Grande&quot;, &quot;Lucida Sans Unicode&quot;, Arial, Helvetica, sans-serif;font-size:12px;" xmlns="http://www.w3.org/2000/svg" width="600" height="400"><desc>Created with Highstock 6.2.0</desc><defs><clipPath id="highcharts-on0ez67-58"><rect x="0" y="0" width="548" height="299" fill="none"></rect></clipPath><clipPath id="highcharts-on0ez67-110"><rect x="0" y="0" width="548" height="299" fill="none"></rect></clipPath><clipPath id="highcharts-on0ez67-111"><rect x="42" y="63" width="548" height="299" fill="none"></rect></clipPath></defs><rect fill="#ffffff" class="highcharts-background" x="0" y="0" width="600" height="400" rx="0" ry="0"></rect><rect fill="none" class="highcharts-plot-background" x="42" y="63" width="548" height="299"></rect><g class="highcharts-pane-group" data-z-index="0"></g><g class="highcharts-grid highcharts-xaxis-grid " data-z-index="1"><path fill="none" data-z-index="1" class="highcharts-grid-line" d="M 100.5 63 L 100.5 362" opacity="1"></path><path fill="none" data-z-index="1" class="highcharts-grid-line" d="M 186.5 63 L 186.5 362" opacity="1"></path><path fill="none" data-z-index="1" class="highcharts-grid-line" d="M 272.5 63 L 272.5 362" opacity="1"></path><path fill="none" data-z-index="1" class="highcharts-grid-line" d="M 359.5 63 L 359.5 362" opacity="1"></path><path fill="none" data-z-index="1" class="highcharts-grid-line" d="M 445.5 63 L 445.5 362" opacity="1"></path><path fill="none" data-z-index="1" class="highcharts-grid-line" d="M 531.5 63 L 531.5 362" opacity="1"></path></g><g class="highcharts-grid highcharts-yaxis-grid " data-z-index="1"><path fill="none" stroke="#e6e6e6" stroke-width="1" data-z-index="1" class="highcharts-grid-line" d="M 42 362.5 L 590 362.5" opacity="1"></path><path fill="none" stroke="#e6e6e6" stroke-width="1" data-z-index="1" class="highcharts-grid-line" d="M 42 302.5 L 590 302.5" opacity="1"></path><path fill="none" stroke="#e6e6e6" stroke-width="1" data-z-index="1" class="highcharts-grid-line" d="M 42 242.5 L 590 242.5" opacity="1"></path><path fill="none" stroke="#e6e6e6" stroke-width="1" data-z-index="1" class="highcharts-grid-line" d="M 42 183.5 L 590 183.5" opacity="1"></path><path fill="none" stroke="#e6e6e6" stroke-width="1" data-z-index="1" class="highcharts-grid-line" d="M 42 123.5 L 590 123.5" opacity="1"></path><path fill="none" stroke="#e6e6e6" stroke-width="1" data-z-index="1" class="highcharts-grid-line" d="M 42 62.5 L 590 62.5" opacity="1"></path></g><rect fill="none" class="highcharts-plot-border" data-z-index="1" x="42" y="63" width="548" height="299"></rect><g class="highcharts-axis highcharts-xaxis " data-z-index="2"><path fill="none" class="highcharts-tick" stroke="#ccd6eb" stroke-width="1" d="M 100.5 362 L 100.5 372" opacity="1"></path><path fill="none" class="highcharts-tick" stroke="#ccd6eb" stroke-width="1" d="M 186.5 362 L 186.5 372" opacity="1"></path><path fill="none" class="highcharts-tick" stroke="#ccd6eb" stroke-width="1" d="M 272.5 362 L 272.5 372" opacity="1"></path><path fill="none" class="highcharts-tick" stroke="#ccd6eb" stroke-width="1" d="M 359.5 362 L 359.5 372" opacity="1"></path><path fill="none" class="highcharts-tick" stroke="#ccd6eb" stroke-width="1" d="M 445.5 362 L 445.5 372" opacity="1"></path><path fill="none" class="highcharts-tick" stroke="#ccd6eb" stroke-width="1" d="M 531.5 362 L 531.5 372" opacity="1"></path><path fill="none" class="highcharts-axis-line" stroke="#ccd6eb" stroke-width="1" data-z-index="7" d="M 42 362.5 L 590 362.5"></path></g><g class="highcharts-axis highcharts-yaxis " data-z-index="2"><path fill="none" class="highcharts-axis-line" data-z-index="7" d="M 42 63 L 42 362"></path></g><g class="highcharts-series-group" data-z-index="3"><g data-z-index="0.1" class="highcharts-series highcharts-series-0 highcharts-spline-series highcharts-color-0 " transform="translate(42,63) scale(1 1)" clip-path="url(#highcharts-on0ez67-110)"><path fill="none" d="M 5.3725490196078 23.91999999999996 C 5.3725490196078 23.91999999999996 9.05924524699512 107.63999999999996 11.51704273192 131.55999999999997 C 14.838482944186802 155.48 16.4992030503202 155.48 19.820643262587 155.48 C 22.4559483436454 155.48 23.773600884174602 155.48 26.408905965233 155.48 C 27.8255531266826 155.48 28.533876707407398 179.4 29.950523868857 179.4 C 32.4083213537818 179.4 33.63722009624421 47.84 36.095017581169 47.84 C 38.552815066094205 47.84 39.7817138085568 65.38133333333249 42.239511293482 75.74666666666667 C 44.69730877840681 86.11199999999917 45.926207520869205 75.74666666666667 48.384005005794 99.66666666666669 C 50.841802490718806 123.5866666666667 52.070701233181204 203.32 54.528498718106 203.32 C 56.9862962030312 203.32 58.21519494549379 203.32 60.672992430419 203.32 C 63.130789915343804 203.32 64.35968865780619 168.38067415730336 66.817486142731 155.48 C 71.65115452974979 130.10867415730337 74.06798872325919 145.457970690856 78.901657110278 107.63999999999999 C 81.4055382980456 88.04997069085603 82.6574788919294 11.960000000000036 85.161360079697 11.960000000000036 C 85.19720295968541 11.960000000000036 85.2151243996796 50.232000000000056 85.250967279668 50.232000000000056 C 87.7087647645928 50.232000000000056 88.93766350705519 43.85333333333335 91.39546099198 43.85333333333335 C 93.8532584769048 43.85333333333335 95.0821572193672 155.48 97.539954704292 155.48 C 102.05615758284321 155.48 104.31425902211882 11.960000000000036 108.83046190067 11.960000000000036 C 109.22985399197 11.960000000000036 109.42955003761999 43.0559999999999 109.82894212892 69.36799999999997 C 112.28673961384399 95.68000000000004 113.515638356306 83.24567761344196 115.97343584123 95.68000000000004 C 120.32407875031 117.69047761344194 122.49940020485 155.48 126.85004311393 155.48 C 127.41499517469802 155.48 127.697471205082 131.55999999999997 128.26242326585 131.55999999999997 C 130.720220750778 131.55999999999997 131.949119493242 203.32 134.40691697817 203.32 C 136.864714463094 203.32 138.09361320555598 177.80533333333335 140.55141069048 163.45333333333335 C 143.009208175404 149.10133333333334 144.238106917866 131.55999999999997 146.69590440279 131.55999999999997 C 150.47988844729 131.55999999999997 152.37188046954 155.48 156.15586451404 155.48 C 159.745272924316 155.48 161.539977129454 155.48 165.12938553973 155.48 C 169.123306452734 155.48 171.12026690923602 155.48 175.11418782224 155.48 C 184.45381826495202 155.48 189.123633486308 203.32 198.46326392902 203.32 C 223.11463134205596 203.32 235.44031504857404 203.32 260.09168246161 203.32 C 269.887029521322 203.32 274.784703051178 203.32 284.58005011089 203.32 C 289.51100631501805 203.32 291.97648441708196 203.32 296.90744062121 203.32 C 306.69254685807 203.32 311.5850999765 155.48 321.37020621336 155.48 C 323.821176483048 155.48 325.046661617892 203.32 327.49763188758 203.32 C 330.4486956733 203.32 331.92422756615997 107.63999999999999 334.87529135188 107.63999999999999 C 336.848356555056 107.63999999999999 337.83488915664395 147.50264118283135 339.80795435982 155.48 C 347.30082308122 185.77464118283135 351.04725744191995 203.32 358.54012616332 203.32 C 360.91258345779596 203.32 362.09881210503397 155.48 364.47126939951 155.48 C 366.95296213776203 155.48 368.19380850688805 203.32 370.67550124514 203.32 C 373.12647151482804 203.32 374.351956649672 155.48 376.80292691936 155.48 C 379.20269307478003 155.48 380.40257615249004 155.48 382.80234230791 155.48 C 385.34035957185796 155.48 386.60936820383205 155.48 389.14738546778 155.48 C 403.875395535432 155.48 411.239400569258 251.16000000000003 425.96741063691 251.16000000000003 C 435.81054820327 251.16000000000003 440.73211698645 155.48 450.57525455281 155.48 C 455.4771950921901 155.48 457.92816536188 203.32 462.83010590126 203.32 C 465.299851012848 203.32 466.53472356864205 203.32 469.00446868023 203.32 C 471.445198127066 203.32 472.665562850484 203.32 475.10629229732 203.32 C 477.50947206035596 203.32 478.71106194187394 251.16000000000003 481.11424170491 251.16000000000003 C 483.589107227926 251.16000000000003 484.8265399894341 203.32 487.30140551245 203.32 C 489.74384176309405 203.32 490.965059888416 251.16000000000003 493.40749613906 251.16000000000003 C 505.69648356368396 251.16000000000003 511.840977275996 251.16000000000003 524.12996470062 251.16000000000003 C 531.528959212528 251.16000000000003 542.62745098039 251.16000000000003 542.62745098039 251.16000000000003" class="highcharts-graph" data-z-index="1" stroke="#000000" stroke-width="2" stroke-linejoin="round" stroke-linecap="round"></path></g><g data-z-index="0.1" class="highcharts-markers highcharts-series-0 highcharts-spline-series highcharts-color-0 " transform="translate(42,63) scale(1 1)" clip-path="none"></g></g><text x="300" text-anchor="middle" class="highcharts-title" data-z-index="4" style="color:#333333;font-size:18px;fill:#333333;" y="24"><tspan>Inflammatory Pain Over Time (Smoothed)</tspan></text><text x="300" text-anchor="middle" class="highcharts-subtitle" data-z-index="4" style="color:#666666;fill:#666666;" y="46"><tspan>This chart shows how your Inflammatory Pain changes over time.</tspan></text><g class="highcharts-axis-labels highcharts-xaxis-labels " data-z-index="7"><text x="104.44409368796" style="color:#666666;cursor:default;font-size:11px;fill:#666666;" text-anchor="middle" transform="translate(0,0)" y="381" opacity="1"><tspan>21. Jan</tspan></text><text x="190.46700566033" style="color:#666666;cursor:default;font-size:11px;fill:#666666;" text-anchor="middle" transform="translate(0,0)" y="381" opacity="1"><tspan>4. Feb</tspan></text><text x="276.4899176327" style="color:#666666;cursor:default;font-size:11px;fill:#666666;" text-anchor="middle" transform="translate(0,0)" y="381" opacity="1"><tspan>18. Feb</tspan></text><text x="362.51282960507" style="color:#666666;cursor:default;font-size:11px;fill:#666666;" text-anchor="middle" transform="translate(0,0)" y="381" opacity="1"><tspan>4. Mar</tspan></text><text x="448.53574157744" style="color:#666666;cursor:default;font-size:11px;fill:#666666;" text-anchor="middle" transform="translate(0,0)" y="381" opacity="1"><tspan>18. Mar</tspan></text><text x="534.55865354982" style="color:#666666;cursor:default;font-size:11px;fill:#666666;" text-anchor="middle" transform="translate(0,0)" y="381" opacity="1"><tspan>1. Apr</tspan></text></g><g class="highcharts-axis-labels highcharts-yaxis-labels " data-z-index="7"><text x="27" style="color:#666666;cursor:default;font-size:11px;fill:#666666;" text-anchor="end" transform="translate(0,0)" y="366" opacity="1">1</text><text x="27" style="color:#666666;cursor:default;font-size:11px;fill:#666666;" text-anchor="end" transform="translate(0,0)" y="306" opacity="1">1.5</text><text x="27" style="color:#666666;cursor:default;font-size:11px;fill:#666666;" text-anchor="end" transform="translate(0,0)" y="246" opacity="1">2</text><text x="27" style="color:#666666;cursor:default;font-size:11px;fill:#666666;" text-anchor="end" transform="translate(0,0)" y="186" opacity="1">2.5</text><text x="27" style="color:#666666;cursor:default;font-size:11px;fill:#666666;" text-anchor="end" transform="translate(0,0)" y="126" opacity="1">3</text><text x="27" style="color:#666666;cursor:default;font-size:11px;fill:#666666;" text-anchor="end" transform="translate(0,0)" y="67" opacity="1">3.5</text></g><a xlink:href="https://quantimo.do" target="_blank">
                    <text x="590" class="highcharts-credits" text-anchor="end" data-z-index="8"
                          style="cursor:pointer;color:#999999;font-size:9px;fill:#999999;" y="295">https://quantimo.do
                    </text>
                </a></svg>