<?xml version="1.0" standalone="no"?><!DOCTYPE svg PUBLIC "-//W3C//DTD SVG 1.1//EN" "http://www.w3.org/Graphics/SVG/1.1/DTD/svg11.dtd"><svg xmlns:xlink="http://www.w3.org/1999/xlink" version="1.1" class="highcharts-root" style="font-family:&quot;Lucida Grande&quot;, &quot;Lucida Sans Unicode&quot;, Arial, Helvetica, sans-serif;font-size:12px;" xmlns="http://www.w3.org/2000/svg" width="600" height="400"><desc>Created with Highstock 6.2.0</desc><defs><clipPath id="highcharts-xcrh585-183"><rect x="0" y="0" width="532" height="263" fill="none"></rect></clipPath><clipPath id="highcharts-xcrh585-360"><rect x="0" y="0" width="532" height="263" fill="none"></rect></clipPath><clipPath id="highcharts-xcrh585-361"><rect x="58" y="78" width="532" height="263" fill="none"></rect></clipPath></defs><rect fill="#ffffff" class="highcharts-background" x="0" y="0" width="600" height="400" rx="0" ry="0"></rect><rect fill="none" class="highcharts-plot-background" x="58" y="78" width="532" height="263"></rect><g class="highcharts-pane-group" data-z-index="0"></g><g class="highcharts-grid highcharts-xaxis-grid " data-z-index="1"><path fill="none" data-z-index="1" class="highcharts-grid-line" d="M 62.5 78 L 62.5 341" opacity="1"></path><path fill="none" data-z-index="1" class="highcharts-grid-line" d="M 162.5 78 L 162.5 341" opacity="1"></path><path fill="none" data-z-index="1" class="highcharts-grid-line" d="M 261.5 78 L 261.5 341" opacity="1"></path><path fill="none" data-z-index="1" class="highcharts-grid-line" d="M 360.5 78 L 360.5 341" opacity="1"></path><path fill="none" data-z-index="1" class="highcharts-grid-line" d="M 460.5 78 L 460.5 341" opacity="1"></path><path fill="none" data-z-index="1" class="highcharts-grid-line" d="M 559.5 78 L 559.5 341" opacity="1"></path></g><g class="highcharts-grid highcharts-yaxis-grid " data-z-index="1"><path fill="none" stroke="#e6e6e6" stroke-width="1" data-z-index="1" class="highcharts-grid-line" d="M 58 341.5 L 590 341.5" opacity="1"></path><path fill="none" stroke="#e6e6e6" stroke-width="1" data-z-index="1" class="highcharts-grid-line" d="M 58 288.5 L 590 288.5" opacity="1"></path><path fill="none" stroke="#e6e6e6" stroke-width="1" data-z-index="1" class="highcharts-grid-line" d="M 58 236.5 L 590 236.5" opacity="1"></path><path fill="none" stroke="#e6e6e6" stroke-width="1" data-z-index="1" class="highcharts-grid-line" d="M 58 183.5 L 590 183.5" opacity="1"></path><path fill="none" stroke="#e6e6e6" stroke-width="1" data-z-index="1" class="highcharts-grid-line" d="M 58 131.5 L 590 131.5" opacity="1"></path><path fill="none" stroke="#e6e6e6" stroke-width="1" data-z-index="1" class="highcharts-grid-line" d="M 58 77.5 L 590 77.5" opacity="1"></path></g><rect fill="none" class="highcharts-plot-border" data-z-index="1" x="58" y="78" width="532" height="263"></rect><g class="highcharts-axis highcharts-xaxis " data-z-index="2"><path fill="none" class="highcharts-tick" stroke="#ccd6eb" stroke-width="1" d="M 62.5 341 L 62.5 351" opacity="1"></path><path fill="none" class="highcharts-tick" stroke="#ccd6eb" stroke-width="1" d="M 162.5 341 L 162.5 351" opacity="1"></path><path fill="none" class="highcharts-tick" stroke="#ccd6eb" stroke-width="1" d="M 261.5 341 L 261.5 351" opacity="1"></path><path fill="none" class="highcharts-tick" stroke="#ccd6eb" stroke-width="1" d="M 360.5 341 L 360.5 351" opacity="1"></path><path fill="none" class="highcharts-tick" stroke="#ccd6eb" stroke-width="1" d="M 460.5 341 L 460.5 351" opacity="1"></path><path fill="none" class="highcharts-tick" stroke="#ccd6eb" stroke-width="1" d="M 559.5 341 L 559.5 351" opacity="1"></path><text x="324" data-z-index="7" text-anchor="middle" transform="translate(0,0)" class="highcharts-axis-title" style="color:#666666;fill:#666666;" y="381"><tspan>Alphalipoic Acid intake (mg) over previous 7 days</tspan></text><path fill="none" class="highcharts-axis-line" stroke="#ccd6eb" stroke-width="1" data-z-index="7" d="M 58 341.5 L 590 341.5"></path></g><g class="highcharts-axis highcharts-yaxis " data-z-index="2"><text x="26" data-z-index="7" text-anchor="middle" transform="translate(0,0) rotate(270 26 209.5)" class="highcharts-axis-title" style="color:#666666;fill:#666666;" y="209.5"><tspan>Overall Mood (/5)</tspan></text><path fill="none" class="highcharts-axis-line" data-z-index="7" d="M 58 78 L 58 341"></path></g><g class="highcharts-series-group" data-z-index="3"><g data-z-index="0.1" class="highcharts-series highcharts-series-0 highcharts-scatter-series highcharts-color-0 " transform="translate(58,78) scale(1 1)" clip-path="url(#highcharts-xcrh585-360)"></g><g data-z-index="0.1" class="highcharts-markers highcharts-series-0 highcharts-scatter-series highcharts-color-0 " transform="translate(58,78) scale(1 1)" clip-path="none"><path fill="#000000" d="M 9 158 A 4 4 0 1 1 8.999998000000167 157.99600000066667 Z" class="highcharts-point highcharts-color-0"></path><path fill="#000000" d="M 9 158 A 4 4 0 1 1 8.999998000000167 157.99600000066667 Z" class="highcharts-point highcharts-color-0"></path><path fill="#000000" d="M 9 158 A 4 4 0 1 1 8.999998000000167 157.99600000066667 Z" class="highcharts-point highcharts-color-0"></path><path fill="#000000" d="M 9 158 A 4 4 0 1 1 8.999998000000167 157.99600000066667 Z" class="highcharts-point highcharts-color-0"></path><path fill="#000000" d="M 9 210 A 4 4 0 1 1 8.999998000000167 209.99600000066667 Z" class="highcharts-point highcharts-color-0"></path><path fill="#000000" d="M 9 105 A 4 4 0 1 1 8.999998000000167 104.99600000066667 Z" class="highcharts-point highcharts-color-0"></path><path fill="#000000" d="M 9 210 A 4 4 0 1 1 8.999998000000167 209.99600000066667 Z" class="highcharts-point highcharts-color-0"></path><path fill="#000000" d="M 9 158 A 4 4 0 1 1 8.999998000000167 157.99600000066667 Z" class="highcharts-point highcharts-color-0"></path><path fill="#000000" d="M 9 105 A 4 4 0 1 1 8.999998000000167 104.99600000066667 Z" class="highcharts-point highcharts-color-0"></path><path fill="#000000" d="M 9 158 A 4 4 0 1 1 8.999998000000167 157.99600000066667 Z" class="highcharts-point highcharts-color-0"></path><path fill="#000000" d="M 9 158 A 4 4 0 1 1 8.999998000000167 157.99600000066667 Z" class="highcharts-point highcharts-color-0"></path><path fill="#000000" d="M 9 158 A 4 4 0 1 1 8.999998000000167 157.99600000066667 Z" class="highcharts-point highcharts-color-0"></path><path fill="#000000" d="M 9 210 A 4 4 0 1 1 8.999998000000167 209.99600000066667 Z" class="highcharts-point highcharts-color-0"></path><path fill="#000000" d="M 9 210 A 4 4 0 1 1 8.999998000000167 209.99600000066667 Z" class="highcharts-point highcharts-color-0"></path><path fill="#000000" d="M 9 158 A 4 4 0 1 1 8.999998000000167 157.99600000066667 Z" class="highcharts-point highcharts-color-0"></path><path fill="#000000" d="M 9 105 A 4 4 0 1 1 8.999998000000167 104.99600000066667 Z" class="highcharts-point highcharts-color-0"></path><path fill="#000000" d="M 9 105 A 4 4 0 1 1 8.999998000000167 104.99600000066667 Z" class="highcharts-point highcharts-color-0"></path><path fill="#000000" d="M 9 105 A 4 4 0 1 1 8.999998000000167 104.99600000066667 Z" class="highcharts-point highcharts-color-0"></path><path fill="#000000" d="M 9 158 A 4 4 0 1 1 8.999998000000167 157.99600000066667 Z" class="highcharts-point highcharts-color-0"></path><path fill="#000000" d="M 9 158 A 4 4 0 1 1 8.999998000000167 157.99600000066667 Z" class="highcharts-point highcharts-color-0"></path><path fill="#000000" d="M 9 105 A 4 4 0 1 1 8.999998000000167 104.99600000066667 Z" class="highcharts-point highcharts-color-0"></path><path fill="#000000" d="M 9 105 A 4 4 0 1 1 8.999998000000167 104.99600000066667 Z" class="highcharts-point highcharts-color-0"></path><path fill="#000000" d="M 9 158 A 4 4 0 1 1 8.999998000000167 157.99600000066667 Z" class="highcharts-point highcharts-color-0"></path><path fill="#000000" d="M 9 105 A 4 4 0 1 1 8.999998000000167 104.99600000066667 Z" class="highcharts-point highcharts-color-0"></path><path fill="#000000" d="M 9 105 A 4 4 0 1 1 8.999998000000167 104.99600000066667 Z" class="highcharts-point highcharts-color-0"></path><path fill="#000000" d="M 9 158 A 4 4 0 1 1 8.999998000000167 157.99600000066667 Z" class="highcharts-point highcharts-color-0"></path><path fill="#000000" d="M 9 105 A 4 4 0 1 1 8.999998000000167 104.99600000066667 Z" class="highcharts-point highcharts-color-0"></path><path fill="#000000" d="M 9 105 A 4 4 0 1 1 8.999998000000167 104.99600000066667 Z" class="highcharts-point highcharts-color-0"></path><path fill="#000000" d="M 9 158 A 4 4 0 1 1 8.999998000000167 157.99600000066667 Z" class="highcharts-point highcharts-color-0"></path><path fill="#000000" d="M 9 105 A 4 4 0 1 1 8.999998000000167 104.99600000066667 Z" class="highcharts-point highcharts-color-0"></path><path fill="#000000" d="M 9 105 A 4 4 0 1 1 8.999998000000167 104.99600000066667 Z" class="highcharts-point highcharts-color-0"></path><path fill="#000000" d="M 9 53 A 4 4 0 1 1 8.999998000000167 52.99600000066666 Z" class="highcharts-point highcharts-color-0"></path><path fill="#000000" d="M 9 105 A 4 4 0 1 1 8.999998000000167 104.99600000066667 Z" class="highcharts-point highcharts-color-0"></path><path fill="#000000" d="M 9 158 A 4 4 0 1 1 8.999998000000167 157.99600000066667 Z" class="highcharts-point highcharts-color-0"></path><path fill="#000000" d="M 9 167 A 4 4 0 1 1 8.999998000000167 166.99600000066667 Z" class="highcharts-point highcharts-color-0"></path><path fill="#000000" d="M 9 158 A 4 4 0 1 1 8.999998000000167 157.99600000066667 Z" class="highcharts-point highcharts-color-0"></path><path fill="#000000" d="M 9 143 A 4 4 0 1 1 8.999998000000167 142.99600000066667 Z" class="highcharts-point highcharts-color-0"></path><path fill="#000000" d="M 9 105 A 4 4 0 1 1 8.999998000000167 104.99600000066667 Z" class="highcharts-point highcharts-color-0"></path><path fill="#000000" d="M 9 113 A 4 4 0 1 1 8.999998000000167 112.99600000066667 Z" class="highcharts-point highcharts-color-0"></path><path fill="#000000" d="M 9 158 A 4 4 0 1 1 8.999998000000167 157.99600000066667 Z" class="highcharts-point highcharts-color-0"></path><path fill="#000000" d="M 9 158 A 4 4 0 1 1 8.999998000000167 157.99600000066667 Z" class="highcharts-point highcharts-color-0"></path><path fill="#000000" d="M 9 158 A 4 4 0 1 1 8.999998000000167 157.99600000066667 Z" class="highcharts-point highcharts-color-0"></path><path fill="#000000" d="M 9 184 A 4 4 0 1 1 8.999998000000167 183.99600000066667 Z" class="highcharts-point highcharts-color-0"></path><path fill="#000000" d="M 9 184 A 4 4 0 1 1 8.999998000000167 183.99600000066667 Z" class="highcharts-point highcharts-color-0"></path><path fill="#000000" d="M 9 158 A 4 4 0 1 1 8.999998000000167 157.99600000066667 Z" class="highcharts-point highcharts-color-0"></path><path fill="#000000" d="M 9 158 A 4 4 0 1 1 8.999998000000167 157.99600000066667 Z" class="highcharts-point highcharts-color-0"></path><path fill="#000000" d="M 9 150 A 4 4 0 1 1 8.999998000000167 149.99600000066667 Z" class="highcharts-point highcharts-color-0"></path><path fill="#000000" d="M 9 143 A 4 4 0 1 1 8.999998000000167 142.99600000066667 Z" class="highcharts-point highcharts-color-0"></path><path fill="#000000" d="M 9 150 A 4 4 0 1 1 8.999998000000167 149.99600000066667 Z" class="highcharts-point highcharts-color-0"></path><path fill="#000000" d="M 9 150 A 4 4 0 1 1 8.999998000000167 149.99600000066667 Z" class="highcharts-point highcharts-color-0"></path><path fill="#000000" d="M 9 105 A 4 4 0 1 1 8.999998000000167 104.99600000066667 Z" class="highcharts-point highcharts-color-0"></path><path fill="#000000" d="M 9 105 A 4 4 0 1 1 8.999998000000167 104.99600000066667 Z" class="highcharts-point highcharts-color-0"></path><path fill="#000000" d="M 9 158 A 4 4 0 1 1 8.999998000000167 157.99600000066667 Z" class="highcharts-point highcharts-color-0"></path><path fill="#000000" d="M 9 200 A 4 4 0 1 1 8.999998000000167 199.99600000066667 Z" class="highcharts-point highcharts-color-0"></path><path fill="#000000" d="M 9 140 A 4 4 0 1 1 8.999998000000167 139.99600000066667 Z" class="highcharts-point highcharts-color-0"></path><path fill="#000000" d="M 9 153 A 4 4 0 1 1 8.999998000000167 152.99600000066667 Z" class="highcharts-point highcharts-color-0"></path><path fill="#000000" d="M 9 149 A 4 4 0 1 1 8.999998000000167 148.99600000066667 Z" class="highcharts-point highcharts-color-0"></path><path fill="#000000" d="M 9 142 A 4 4 0 1 1 8.999998000000167 141.99600000066667 Z" class="highcharts-point highcharts-color-0"></path><path fill="#000000" d="M 9 148 A 4 4 0 1 1 8.999998000000167 147.99600000066667 Z" class="highcharts-point highcharts-color-0"></path><path fill="#000000" d="M 9 142 A 4 4 0 1 1 8.999998000000167 141.99600000066667 Z" class="highcharts-point highcharts-color-0"></path><path fill="#000000" d="M 9 150 A 4 4 0 1 1 8.999998000000167 149.99600000066667 Z" class="highcharts-point highcharts-color-0"></path><path fill="#000000" d="M 9 123 A 4 4 0 1 1 8.999998000000167 122.99600000066667 Z" class="highcharts-point highcharts-color-0"></path><path fill="#000000" d="M 9 133 A 4 4 0 1 1 8.999998000000167 132.99600000066667 Z" class="highcharts-point highcharts-color-0"></path><path fill="#000000" d="M 9 111 A 4 4 0 1 1 8.999998000000167 110.99600000066667 Z" class="highcharts-point highcharts-color-0"></path><path fill="#000000" d="M 9 105 A 4 4 0 1 1 8.999998000000167 104.99600000066667 Z" class="highcharts-point highcharts-color-0"></path><path fill="#000000" d="M 9 105 A 4 4 0 1 1 8.999998000000167 104.99600000066667 Z" class="highcharts-point highcharts-color-0"></path><path fill="#000000" d="M 9 110 A 4 4 0 1 1 8.999998000000167 109.99600000066667 Z" class="highcharts-point highcharts-color-0"></path><path fill="#000000" d="M 9 158 A 4 4 0 1 1 8.999998000000167 157.99600000066667 Z" class="highcharts-point highcharts-color-0"></path><path fill="#000000" d="M 9 110 A 4 4 0 1 1 8.999998000000167 109.99600000066667 Z" class="highcharts-point highcharts-color-0"></path><path fill="#000000" d="M 9 129 A 4 4 0 1 1 8.999998000000167 128.99600000066667 Z" class="highcharts-point highcharts-color-0"></path><path fill="#000000" d="M 9 123 A 4 4 0 1 1 8.999998000000167 122.99600000066667 Z" class="highcharts-point highcharts-color-0"></path><path fill="#000000" d="M 9 123 A 4 4 0 1 1 8.999998000000167 122.99600000066667 Z" class="highcharts-point highcharts-color-0"></path><path fill="#000000" d="M 9 158 A 4 4 0 1 1 8.999998000000167 157.99600000066667 Z" class="highcharts-point highcharts-color-0"></path><path fill="#000000" d="M 9 167 A 4 4 0 1 1 8.999998000000167 166.99600000066667 Z" class="highcharts-point highcharts-color-0"></path><path fill="#000000" d="M 9 202 A 4 4 0 1 1 8.999998000000167 201.99600000066667 Z" class="highcharts-point highcharts-color-0"></path><path fill="#000000" d="M 9 140 A 4 4 0 1 1 8.999998000000167 139.99600000066667 Z" class="highcharts-point highcharts-color-0"></path><path fill="#000000" d="M 9 126 A 4 4 0 1 1 8.999998000000167 125.99600000066667 Z" class="highcharts-point highcharts-color-0"></path><path fill="#000000" d="M 9 121 A 4 4 0 1 1 8.999998000000167 120.99600000066667 Z" class="highcharts-point highcharts-color-0"></path><path fill="#000000" d="M 9 140 A 4 4 0 1 1 8.999998000000167 139.99600000066667 Z" class="highcharts-point highcharts-color-0"></path><path fill="#000000" d="M 9 140 A 4 4 0 1 1 8.999998000000167 139.99600000066667 Z" class="highcharts-point highcharts-color-0"></path><path fill="#000000" d="M 9 138 A 4 4 0 1 1 8.999998000000167 137.99600000066667 Z" class="highcharts-point highcharts-color-0"></path><path fill="#000000" d="M 9 123 A 4 4 0 1 1 8.999998000000167 122.99600000066667 Z" class="highcharts-point highcharts-color-0"></path><path fill="#000000" d="M 9 132 A 4 4 0 1 1 8.999998000000167 131.99600000066667 Z" class="highcharts-point highcharts-color-0"></path><path fill="#000000" d="M 9 140 A 4 4 0 1 1 8.999998000000167 139.99600000066667 Z" class="highcharts-point highcharts-color-0"></path><path fill="#000000" d="M 9 143 A 4 4 0 1 1 8.999998000000167 142.99600000066667 Z" class="highcharts-point highcharts-color-0"></path><path fill="#000000" d="M 9 105 A 4 4 0 1 1 8.999998000000167 104.99600000066667 Z" class="highcharts-point highcharts-color-0"></path><path fill="#000000" d="M 9 132 A 4 4 0 1 1 8.999998000000167 131.99600000066667 Z" class="highcharts-point highcharts-color-0"></path><path fill="#000000" d="M 9 158 A 4 4 0 1 1 8.999998000000167 157.99600000066667 Z" class="highcharts-point highcharts-color-0"></path><path fill="#000000" d="M 9 132 A 4 4 0 1 1 8.999998000000167 131.99600000066667 Z" class="highcharts-point highcharts-color-0"></path><path fill="#000000" d="M 9 98 A 4 4 0 1 1 8.999998000000167 97.99600000066667 Z" class="highcharts-point highcharts-color-0"></path><path fill="#000000" d="M 9 90 A 4 4 0 1 1 8.999998000000167 89.99600000066667 Z" class="highcharts-point highcharts-color-0"></path><path fill="#000000" d="M 9 92 A 4 4 0 1 1 8.999998000000167 91.99600000066667 Z" class="highcharts-point highcharts-color-0"></path><path fill="#000000" d="M 9 59 A 4 4 0 1 1 8.999998000000167 58.99600000066666 Z" class="highcharts-point highcharts-color-0"></path><path fill="#000000" d="M 9 53 A 4 4 0 1 1 8.999998000000167 52.99600000066666 Z" class="highcharts-point highcharts-color-0"></path><path fill="#000000" d="M 9 61 A 4 4 0 1 1 8.999998000000167 60.99600000066666 Z" class="highcharts-point highcharts-color-0"></path><path fill="#000000" d="M 9 105 A 4 4 0 1 1 8.999998000000167 104.99600000066667 Z" class="highcharts-point highcharts-color-0"></path><path fill="#000000" d="M 9 98 A 4 4 0 1 1 8.999998000000167 97.99600000066667 Z" class="highcharts-point highcharts-color-0"></path><path fill="#000000" d="M 9 92 A 4 4 0 1 1 8.999998000000167 91.99600000066667 Z" class="highcharts-point highcharts-color-0"></path><path fill="#000000" d="M 9 59 A 4 4 0 1 1 8.999998000000167 58.99600000066666 Z" class="highcharts-point highcharts-color-0"></path><path fill="#000000" d="M 9 53 A 4 4 0 1 1 8.999998000000167 52.99600000066666 Z" class="highcharts-point highcharts-color-0"></path><path fill="#000000" d="M 9 53 A 4 4 0 1 1 8.999998000000167 52.99600000066666 Z" class="highcharts-point highcharts-color-0"></path><path fill="#000000" d="M 9 58 A 4 4 0 1 1 8.999998000000167 57.99600000066666 Z" class="highcharts-point highcharts-color-0"></path><path fill="#000000" d="M 9 99 A 4 4 0 1 1 8.999998000000167 98.99600000066667 Z" class="highcharts-point highcharts-color-0"></path><path fill="#000000" d="M 9 110 A 4 4 0 1 1 8.999998000000167 109.99600000066667 Z" class="highcharts-point highcharts-color-0"></path><path fill="#000000" d="M 9 72 A 4 4 0 1 1 8.999998000000167 71.99600000066667 Z" class="highcharts-point highcharts-color-0"></path><path fill="#000000" d="M 9 79 A 4 4 0 1 1 8.999998000000167 78.99600000066667 Z" class="highcharts-point highcharts-color-0"></path><path fill="#000000" d="M 9 72 A 4 4 0 1 1 8.999998000000167 71.99600000066667 Z" class="highcharts-point highcharts-color-0"></path><path fill="#000000" d="M 9 81 A 4 4 0 1 1 8.999998000000167 80.99600000066667 Z" class="highcharts-point highcharts-color-0"></path><path fill="#000000" d="M 9 84 A 4 4 0 1 1 8.999998000000167 83.99600000066667 Z" class="highcharts-point highcharts-color-0"></path><path fill="#000000" d="M 9 142 A 4 4 0 1 1 8.999998000000167 141.99600000066667 Z" class="highcharts-point highcharts-color-0"></path><path fill="#000000" d="M 9 126 A 4 4 0 1 1 8.999998000000167 125.99600000066667 Z" class="highcharts-point highcharts-color-0"></path><path fill="#000000" d="M 9 84 A 4 4 0 1 1 8.999998000000167 83.99600000066667 Z" class="highcharts-point highcharts-color-0"></path><path fill="#000000" d="M 9 105 A 4 4 0 1 1 8.999998000000167 104.99600000066667 Z" class="highcharts-point highcharts-color-0"></path><path fill="#000000" d="M 9 105 A 4 4 0 1 1 8.999998000000167 104.99600000066667 Z" class="highcharts-point highcharts-color-0"></path><path fill="#000000" d="M 9 72 A 4 4 0 1 1 8.999998000000167 71.99600000066667 Z" class="highcharts-point highcharts-color-0"></path><path fill="#000000" d="M 9 68 A 4 4 0 1 1 8.999998000000167 67.99600000066667 Z" class="highcharts-point highcharts-color-0"></path><path fill="#000000" d="M 9 79 A 4 4 0 1 1 8.999998000000167 78.99600000066667 Z" class="highcharts-point highcharts-color-0"></path><path fill="#000000" d="M 9 72 A 4 4 0 1 1 8.999998000000167 71.99600000066667 Z" class="highcharts-point highcharts-color-0"></path><path fill="#000000" d="M 9 105 A 4 4 0 1 1 8.999998000000167 104.99600000066667 Z" class="highcharts-point highcharts-color-0"></path><path fill="#000000" d="M 83 68 A 4 4 0 1 1 82.99999800000016 67.99600000066667 Z" class="highcharts-point highcharts-color-0"></path><path fill="#000000" d="M 158 72 A 4 4 0 1 1 157.99999800000018 71.99600000066667 Z" class="highcharts-point highcharts-color-0"></path><path fill="#000000" d="M 232 72 A 4 4 0 1 1 231.99999800000018 71.99600000066667 Z" class="highcharts-point highcharts-color-0"></path><path fill="#000000" d="M 307 68 A 4 4 0 1 1 306.9999980000002 67.99600000066667 Z" class="highcharts-point highcharts-color-0"></path><path fill="#000000" d="M 381 137 A 4 4 0 1 1 380.9999980000002 136.99600000066667 Z" class="highcharts-point highcharts-color-0"></path><path fill="#000000" d="M 456 123 A 4 4 0 1 1 455.9999980000002 122.99600000066667 Z" class="highcharts-point highcharts-color-0"></path><path fill="#000000" d="M 530 79 A 4 4 0 1 1 529.9999980000001 78.99600000066667 Z" class="highcharts-point highcharts-color-0"></path><path fill="#000000" d="M 530 105 A 4 4 0 1 1 529.9999980000001 104.99600000066667 Z" class="highcharts-point highcharts-color-0"></path><path fill="#000000" d="M 530 72 A 4 4 0 1 1 529.9999980000001 71.99600000066667 Z" class="highcharts-point highcharts-color-0"></path><path fill="#000000" d="M 530 113 A 4 4 0 1 1 529.9999980000001 112.99600000066667 Z" class="highcharts-point highcharts-color-0"></path><path fill="#000000" d="M 530 171 A 4 4 0 1 1 529.9999980000001 170.99600000066667 Z" class="highcharts-point highcharts-color-0"></path><path fill="#000000" d="M 530 79 A 4 4 0 1 1 529.9999980000001 78.99600000066667 Z" class="highcharts-point highcharts-color-0"></path><path fill="#000000" d="M 530 76 A 4 4 0 1 1 529.9999980000001 75.99600000066667 Z" class="highcharts-point highcharts-color-0"></path><path fill="#000000" d="M 530 64 A 4 4 0 1 1 529.9999980000001 63.99600000066666 Z" class="highcharts-point highcharts-color-0"></path><path fill="#000000" d="M 530 66 A 4 4 0 1 1 529.9999980000001 65.99600000066667 Z" class="highcharts-point highcharts-color-0"></path><path fill="#000000" d="M 530 82 A 4 4 0 1 1 529.9999980000001 81.99600000066667 Z" class="highcharts-point highcharts-color-0"></path><path fill="#000000" d="M 530 76 A 4 4 0 1 1 529.9999980000001 75.99600000066667 Z" class="highcharts-point highcharts-color-0"></path><path fill="#000000" d="M 530 84 A 4 4 0 1 1 529.9999980000001 83.99600000066667 Z" class="highcharts-point highcharts-color-0"></path><path fill="#000000" d="M 530 105 A 4 4 0 1 1 529.9999980000001 104.99600000066667 Z" class="highcharts-point highcharts-color-0"></path><path fill="#000000" d="M 530 149 A 4 4 0 1 1 529.9999980000001 148.99600000066667 Z" class="highcharts-point highcharts-color-0"></path><path fill="#000000" d="M 530 123 A 4 4 0 1 1 529.9999980000001 122.99600000066667 Z" class="highcharts-point highcharts-color-0"></path><path fill="#000000" d="M 530 113 A 4 4 0 1 1 529.9999980000001 112.99600000066667 Z" class="highcharts-point highcharts-color-0"></path><path fill="#000000" d="M 456 105 A 4 4 0 1 1 455.9999980000002 104.99600000066667 Z" class="highcharts-point highcharts-color-0"></path><path fill="#000000" d="M 456 79 A 4 4 0 1 1 455.9999980000002 78.99600000066667 Z" class="highcharts-point highcharts-color-0"></path><path fill="#000000" d="M 381 105 A 4 4 0 1 1 380.9999980000002 104.99600000066667 Z" class="highcharts-point highcharts-color-0"></path><path fill="#000000" d="M 307 132 A 4 4 0 1 1 306.9999980000002 131.99600000066667 Z" class="highcharts-point highcharts-color-0"></path><path fill="#000000" d="M 232 61 A 4 4 0 1 1 231.99999800000018 60.99600000066666 Z" class="highcharts-point highcharts-color-0"></path><path fill="#000000" d="M 232 105 A 4 4 0 1 1 231.99999800000018 104.99600000066667 Z" class="highcharts-point highcharts-color-0"></path><path fill="#000000" d="M 158 105 A 4 4 0 1 1 157.99999800000018 104.99600000066667 Z" class="highcharts-point highcharts-color-0"></path><path fill="#000000" d="M 158 158 A 4 4 0 1 1 157.99999800000018 157.99600000066667 Z" class="highcharts-point highcharts-color-0"></path><path fill="#000000" d="M 158 114 A 4 4 0 1 1 157.99999800000018 113.99600000066667 Z" class="highcharts-point highcharts-color-0"></path><path fill="#000000" d="M 158 105 A 4 4 0 1 1 157.99999800000018 104.99600000066667 Z" class="highcharts-point highcharts-color-0"></path><path fill="#000000" d="M 232 61 A 4 4 0 1 1 231.99999800000018 60.99600000066666 Z" class="highcharts-point highcharts-color-0"></path><path fill="#000000" d="M 307 105 A 4 4 0 1 1 306.9999980000002 104.99600000066667 Z" class="highcharts-point highcharts-color-0"></path><path fill="#000000" d="M 307 105 A 4 4 0 1 1 306.9999980000002 104.99600000066667 Z" class="highcharts-point highcharts-color-0"></path><path fill="#000000" d="M 307 105 A 4 4 0 1 1 306.9999980000002 104.99600000066667 Z" class="highcharts-point highcharts-color-0"></path><path fill="#000000" d="M 232 105 A 4 4 0 1 1 231.99999800000018 104.99600000066667 Z" class="highcharts-point highcharts-color-0"></path><path fill="#000000" d="M 232 105 A 4 4 0 1 1 231.99999800000018 104.99600000066667 Z" class="highcharts-point highcharts-color-0"></path><path fill="#000000" d="M 232 53 A 4 4 0 1 1 231.99999800000018 52.99600000066666 Z" class="highcharts-point highcharts-color-0"></path><path fill="#000000" d="M 158 105 A 4 4 0 1 1 157.99999800000018 104.99600000066667 Z" class="highcharts-point highcharts-color-0"></path><path fill="#000000" d="M 9 105 A 4 4 0 1 1 8.999998000000167 104.99600000066667 Z" class="highcharts-point highcharts-color-0"></path><path fill="#000000" d="M 9 105 A 4 4 0 1 1 8.999998000000167 104.99600000066667 Z" class="highcharts-point highcharts-color-0"></path><path fill="#000000" d="M 9 105 A 4 4 0 1 1 8.999998000000167 104.99600000066667 Z" class="highcharts-point highcharts-color-0"></path><path fill="#000000" d="M 9 105 A 4 4 0 1 1 8.999998000000167 104.99600000066667 Z" class="highcharts-point highcharts-color-0"></path><path fill="#000000" d="M 9 53 A 4 4 0 1 1 8.999998000000167 52.99600000066666 Z" class="highcharts-point highcharts-color-0"></path><path fill="#000000" d="M 9 105 A 4 4 0 1 1 8.999998000000167 104.99600000066667 Z" class="highcharts-point highcharts-color-0"></path><path fill="#000000" d="M 9 105 A 4 4 0 1 1 8.999998000000167 104.99600000066667 Z" class="highcharts-point highcharts-color-0"></path><path fill="#000000" d="M 9 105 A 4 4 0 1 1 8.999998000000167 104.99600000066667 Z" class="highcharts-point highcharts-color-0"></path><path fill="#000000" d="M 9 105 A 4 4 0 1 1 8.999998000000167 104.99600000066667 Z" class="highcharts-point highcharts-color-0"></path><path fill="#000000" d="M 9 105 A 4 4 0 1 1 8.999998000000167 104.99600000066667 Z" class="highcharts-point highcharts-color-0"></path><path fill="#000000" d="M 9 53 A 4 4 0 1 1 8.999998000000167 52.99600000066666 Z" class="highcharts-point highcharts-color-0"></path><path fill="#000000" d="M 9 53 A 4 4 0 1 1 8.999998000000167 52.99600000066666 Z" class="highcharts-point highcharts-color-0"></path><path fill="#000000" d="M 9 105 A 4 4 0 1 1 8.999998000000167 104.99600000066667 Z" class="highcharts-point highcharts-color-0"></path><path fill="#000000" d="M 9 105 A 4 4 0 1 1 8.999998000000167 104.99600000066667 Z" class="highcharts-point highcharts-color-0"></path><path fill="#000000" d="M 9 53 A 4 4 0 1 1 8.999998000000167 52.99600000066666 Z" class="highcharts-point highcharts-color-0"></path><path fill="#000000" d="M 9 53 A 4 4 0 1 1 8.999998000000167 52.99600000066666 Z" class="highcharts-point highcharts-color-0"></path><path fill="#000000" d="M 9 53 A 4 4 0 1 1 8.999998000000167 52.99600000066666 Z" class="highcharts-point highcharts-color-0"></path></g></g><text x="300" text-anchor="middle" class="highcharts-title" data-z-index="4" style="color:#333333;font-size:18px;fill:#333333;" y="24"><tspan>Overall Mood Following Alphalipoic Acid Intake</tspan></text><text x="300" text-anchor="middle" class="highcharts-subtitle" data-z-index="4" style="color:#666666;fill:#666666;" y="46"><tspan>An increase in 7 days cumulative Alphalipoic Acid intake is usually followed by an increase in</tspan><tspan dy="15" x="300">Overall Mood. (R = 0.23)</tspan></text><g class="highcharts-axis-labels highcharts-xaxis-labels " data-z-index="7"><text x="63.21568627451" style="color:#666666;cursor:default;font-size:11px;fill:#666666;" text-anchor="middle" transform="translate(0,0)" y="360" opacity="1">0</text><text x="162.56209150327" style="color:#666666;cursor:default;font-size:11px;fill:#666666;" text-anchor="middle" transform="translate(0,0)" y="360" opacity="1">200</text><text x="261.90849673203" style="color:#666666;cursor:default;font-size:11px;fill:#666666;" text-anchor="middle" transform="translate(0,0)" y="360" opacity="1">400</text><text x="361.25490196078" style="color:#666666;cursor:default;font-size:11px;fill:#666666;" text-anchor="middle" transform="translate(0,0)" y="360" opacity="1">600</text><text x="460.60130718954" style="color:#666666;cursor:default;font-size:11px;fill:#666666;" text-anchor="middle" transform="translate(0,0)" y="360" opacity="1">800</text><text x="559.9477124183" style="color:#666666;cursor:default;font-size:11px;fill:#666666;" text-anchor="middle" transform="translate(0,0)" y="360" opacity="1">1000</text></g><g class="highcharts-axis-labels highcharts-yaxis-labels " data-z-index="7"><text x="43" style="color:#666666;cursor:default;font-size:11px;fill:#666666;" text-anchor="end" transform="translate(0,0)" y="345" opacity="1">1</text><text x="43" style="color:#666666;cursor:default;font-size:11px;fill:#666666;" text-anchor="end" transform="translate(0,0)" y="292" opacity="1">2</text><text x="43" style="color:#666666;cursor:default;font-size:11px;fill:#666666;" text-anchor="end" transform="translate(0,0)" y="239" opacity="1">3</text><text x="43" style="color:#666666;cursor:default;font-size:11px;fill:#666666;" text-anchor="end" transform="translate(0,0)" y="187" opacity="1">4</text><text x="43" style="color:#666666;cursor:default;font-size:11px;fill:#666666;" text-anchor="end" transform="translate(0,0)" y="134" opacity="1">5</text><text x="43" style="color:#666666;cursor:default;font-size:11px;fill:#666666;" text-anchor="end" transform="translate(0,0)" y="82" opacity="1">6</text></g><a xlink:href="https://quantimo.do" target="_blank">
                    <text x="590" class="highcharts-credits" text-anchor="end" data-z-index="8"
                          style="cursor:pointer;color:#999999;font-size:9px;fill:#999999;" y="395">https://quantimo.do
                    </text>
                </a></svg>