<?xml version="1.0" standalone="no"?><!DOCTYPE svg PUBLIC "-//W3C//DTD SVG 1.1//EN" "http://www.w3.org/Graphics/SVG/1.1/DTD/svg11.dtd"><svg xmlns:xlink="http://www.w3.org/1999/xlink" version="1.1" class="highcharts-root" style="font-family:&quot;Lucida Grande&quot;, &quot;Lucida Sans Unicode&quot;, Arial, Helvetica, sans-serif;font-size:12px;" xmlns="http://www.w3.org/2000/svg" width="600" height="400"><desc>Created with Highstock 6.2.0</desc><defs><clipPath id="highcharts-ybuaqmr-971"><rect x="0" y="0" width="464" height="260" fill="none"></rect></clipPath><clipPath id="highcharts-ybuaqmr-1453"><rect x="0" y="0" width="464" height="260" fill="none"></rect></clipPath><clipPath id="highcharts-ybuaqmr-1935"><rect x="0" y="0" width="464" height="260" fill="none"></rect></clipPath><clipPath id="highcharts-ybuaqmr-1936"><rect x="68" y="63" width="464" height="260" fill="none"></rect></clipPath></defs><rect fill="#ffffff" class="highcharts-background" x="0" y="0" width="600" height="400" rx="0" ry="0"></rect><rect fill="none" class="highcharts-plot-background" x="68" y="63" width="464" height="260"></rect><g class="highcharts-pane-group" data-z-index="0"></g><g class="highcharts-grid highcharts-xaxis-grid " data-z-index="1"><path fill="none" data-z-index="1" class="highcharts-grid-line" d="M 69.5 63 L 69.5 323" opacity="1"></path><path fill="none" data-z-index="1" class="highcharts-grid-line" d="M 198.5 63 L 198.5 323" opacity="1"></path><path fill="none" data-z-index="1" class="highcharts-grid-line" d="M 330.5 63 L 330.5 323" opacity="1"></path><path fill="none" data-z-index="1" class="highcharts-grid-line" d="M 459.5 63 L 459.5 323" opacity="1"></path></g><g class="highcharts-grid highcharts-yaxis-grid " data-z-index="1"><path fill="none" stroke="#e6e6e6" stroke-width="1" data-z-index="1" class="highcharts-grid-line" d="M 68 323.5 L 532 323.5" opacity="1"></path><path fill="none" stroke="#e6e6e6" stroke-width="1" data-z-index="1" class="highcharts-grid-line" d="M 68 258.5 L 532 258.5" opacity="1"></path><path fill="none" stroke="#e6e6e6" stroke-width="1" data-z-index="1" class="highcharts-grid-line" d="M 68 193.5 L 532 193.5" opacity="1"></path><path fill="none" stroke="#e6e6e6" stroke-width="1" data-z-index="1" class="highcharts-grid-line" d="M 68 128.5 L 532 128.5" opacity="1"></path><path fill="none" stroke="#e6e6e6" stroke-width="1" data-z-index="1" class="highcharts-grid-line" d="M 68 62.5 L 532 62.5" opacity="1"></path></g><g class="highcharts-grid highcharts-yaxis-grid " data-z-index="1"><path fill="none" stroke="#e6e6e6" stroke-width="1" data-z-index="1" class="highcharts-grid-line" d="M 68 323.5 L 532 323.5" opacity="1"></path><path fill="none" stroke="#e6e6e6" stroke-width="1" data-z-index="1" class="highcharts-grid-line" d="M 68 258.5 L 532 258.5" opacity="1"></path><path fill="none" stroke="#e6e6e6" stroke-width="1" data-z-index="1" class="highcharts-grid-line" d="M 68 193.5 L 532 193.5" opacity="1"></path><path fill="none" stroke="#e6e6e6" stroke-width="1" data-z-index="1" class="highcharts-grid-line" d="M 68 128.5 L 532 128.5" opacity="1"></path><path fill="none" stroke="#e6e6e6" stroke-width="1" data-z-index="1" class="highcharts-grid-line" d="M 68 62.5 L 532 62.5" opacity="1"></path></g><rect fill="none" class="highcharts-plot-border" data-z-index="1" x="68" y="63" width="464" height="260"></rect><g class="highcharts-axis highcharts-xaxis " data-z-index="2"><path fill="none" class="highcharts-tick" stroke="#ccd6eb" stroke-width="1" d="M 69.5 323 L 69.5 333" opacity="1"></path><path fill="none" class="highcharts-tick" stroke="#ccd6eb" stroke-width="1" d="M 198.5 323 L 198.5 333" opacity="1"></path><path fill="none" class="highcharts-tick" stroke="#ccd6eb" stroke-width="1" d="M 330.5 323 L 330.5 333" opacity="1"></path><path fill="none" class="highcharts-tick" stroke="#ccd6eb" stroke-width="1" d="M 459.5 323 L 459.5 333" opacity="1"></path><path fill="none" class="highcharts-axis-line" stroke="#ccd6eb" stroke-width="1" data-z-index="7" d="M 68 323.5 L 532 323.5"></path></g><g class="highcharts-axis highcharts-yaxis " data-z-index="2"><text x="26" data-z-index="7" text-anchor="middle" transform="translate(0,0) rotate(270 26 193)" class="highcharts-axis-title" style="color:#666666;fill:#666666;" y="193"><tspan>SUM Xvideos.com Usage (h)</tspan></text><path fill="none" class="highcharts-axis-line" stroke="#ccd6eb" stroke-width="1" data-z-index="7" d="M 67.5 63 L 67.5 323"></path></g><g class="highcharts-axis highcharts-yaxis " data-z-index="2"><text x="574" data-z-index="7" text-anchor="middle" transform="translate(0,0) rotate(90 574 193)" class="highcharts-axis-title" style="color:#666666;fill:#666666;" y="193"><tspan>MEAN Overall Mood (/5)</tspan></text><path fill="none" class="highcharts-axis-line" stroke="#ccd6eb" stroke-width="1" data-z-index="7" d="M 532.5 63 L 532.5 323"></path></g><g class="highcharts-series-group" data-z-index="3"><g data-z-index="0.1" class="highcharts-series highcharts-series-0 highcharts-spline-series highcharts-color-0 " transform="translate(68,63) scale(1 1)" clip-path="url(#highcharts-ybuaqmr-1453)"><path fill="none" d="M 4.5490196078431 260 C 4.5490196078431 260 4.976923833097 260 5.2621933165996 260 C 5.54746280010216 260 5.69009754185344 260 5.975367025356 260 C 6.2606365088586005 260 6.4032712506099 260 6.6885407341125 260 C 6.9738102176150605 260 7.116444959366339 260 7.4017144428689 260 C 7.686983926371499 260 7.829618668122801 260 8.1148881516254 260 C 8.40015763512796 260 8.54279237687924 260 8.8280618603818 260 C 9.11333134388436 260 9.25596608563564 260 9.5412355691382 260 C 9.82650505264092 260 9.96913979439228 260 10.254409277895 260 C 10.5396787613974 260 10.6823135031486 260 10.967582986651 260 C 11.252852470153801 260 11.3954872119052 260 11.680756695408 260 C 11.9660261789104 260 12.1086609206616 260 12.393930404164 260 C 12.6791998876664 260 12.8218346294176 260 13.10710411292 260 C 13.3923735964228 260 13.5350083381742 260 13.820277821677 260 C 14.1055473051794 260 14.2481820469306 260 14.533451530433 260 C 14.8187210139358 260 14.9613557556872 260 15.24662523919 260 C 15.5318947226924 260 15.6745294644436 260 15.959798947946 260 C 16.2450684314488 260 16.3877031732002 260 16.672972656703 260 C 16.9582421402054 260 17.1008768819566 260 17.386146365459 260 C 17.7274792266222 260 17.8981456572038 260 18.239478518367 260 C 18.7539541077114 260 19.0111919023836 260 19.525667491728 260 C 20.152269836394 260 20.465571008727 260 21.092173353393 260 C 21.321379459235 260 21.435982512156002 260 21.665188617998 260 C 21.9839376450504 260 22.1433121585766 260 22.462061185629 260 C 22.9991206090842 260 23.2676503208118 260 23.804709744267 260 C 24.0899792277698 260 24.232613969521204 260 24.517883453024 260 C 24.803152936526402 260 24.9457876782776 260 25.23105716178 260 C 25.5163266452824 260 25.6589613870336 252.41666666666666 25.944230870536 252.41666666666666 C 26.229500354038798 252.41666666666666 26.372135095790203 252.41666666666666 26.657404579293 252.41666666666666 C 26.9426740627954 252.41666666666666 27.0853088045466 252.41666666666666 27.370578288049 252.41666666666666 C 27.655847771551798 252.41666666666666 27.798482513303203 252.41666666666666 28.083751996806 252.41666666666666 C 28.3690214803084 252.41666666666666 28.5116562220596 252.41666666666666 28.796925705562 252.41666666666666 C 29.082195189064798 252.41666666666666 29.224829930816203 252.41666666666666 29.510099414319 252.41666666666666 C 29.7953688978214 252.41666666666666 29.9380036395726 252.41666666666666 30.223273123075 252.41666666666666 C 30.508542606577798 252.41666666666666 30.651177348329202 260 30.936446831832 260 C 31.2777796929948 260 31.4484461235762 260 31.789778984739 260 C 32.018985090581 260 32.133588143501996 260 32.362794249344 260 C 32.6480637328468 260 32.7906984745982 260 33.075967958101 260 C 33.3612374416034 260 33.5038721833546 260 33.789141666857 260 C 34.0744111503598 260 34.2170458921112 260 34.502315375614 260 C 34.7875848591164 260 34.9302196008676 260 35.21548908437 260 C 35.5007585678728 260 35.6433933096242 260 35.928662793127 260 C 36.2139322766294 260 36.3565670183806 260 36.641836501883 260 C 36.9271059853858 260 37.0697407271372 260 37.35501021064 260 C 37.6402796941424 260 37.7829144358936 260 38.068183919396 260 C 38.3534534028984 260 38.496088144649605 260 38.781357628152 260 C 39.0666271116548 260 39.209261853406204 260 39.494531336909 260 C 39.7798008204114 260 39.922435562162605 260 40.207705045665 260 C 40.4929745291678 260 40.635609270919204 260 40.920878754422 260 C 41.2061482379244 260 41.348782979675605 260 41.634052463178 260 C 41.9193219466808 260 42.061956688432204 260 42.347226171935 260 C 42.6324956554374 260 42.775130397188605 260 43.060399880691 260 C 43.3456693641938 260 43.488304105945204 260 43.773573589448 260 C 44.0588430729504 260 44.201477814701605 260 44.486747298204 260 C 44.7720167817064 260 44.9146515234576 260 45.19992100696 260 C 45.4851904904628 260 45.6278252322142 260 45.913094715717 260 C 46.1983641992194 260 46.3409989409706 260 46.626268424473 260 C 46.9115379079758 260 47.0541726497272 260 47.33944213323 260 C 47.6247116167324 260 47.7673463584836 260 48.052615841986 260 C 48.3378853254888 260 48.4805200672402 260 48.765789550743 260 C 49.0510590342454 260 49.1936937759966 260 49.478963259499 260 C 49.7642327430018 260 49.9068674847532 260 50.192136968256 260 C 50.4774064517584 260 50.6200411935096 260 50.905310677012 260 C 51.1905801605144 260 51.3332149022656 260 51.618484385768 260 C 51.9037538692708 260 52.0463886110222 260 52.331658094525 260 C 52.6169275780274 260 52.759562319778595 260 53.044831803281 260 C 53.330101286783794 260 53.4727360285352 260 53.758005512038 260 C 54.0432749955404 260 54.1859097372916 260 54.471179220794 260 C 54.7564487042968 260 54.8990834460482 260 55.184352929551 260 C 55.4696224130534 260 55.612257154804595 260 55.897526638307 260 C 56.182796121809794 260 56.3254308635612 260 56.610700347064 260 C 56.8959698305664 260 57.0386045723176 260 57.32387405582 260 C 57.609143539322396 260 57.7517782810736 260 58.037047764576 260 C 58.3223172480788 260 58.464951989830205 260 58.750221473333 260 C 59.0354909568354 260 59.1781256985866 260 59.463395182089 260 C 59.7486646655918 260 59.8912994073432 260 60.176568890846 260 C 60.461838374348396 260 60.6044731160996 260 60.889742599602 260 C 61.1750120831048 260 61.317646824856205 260 61.602916308359 260 C 61.8881857918614 260 62.0308205336126 260 62.316090017115 260 C 62.6013595006178 260 62.7439942423692 260 63.029263725872 260 C 63.314533209374396 260 63.4571679511256 260 63.742437434628 260 C 64.0277069181304 260 64.1703416598816 260 64.455611143384 260 C 64.7408806268868 260 64.8835153686382 255.66666666666666 65.168784852141 255.66666666666666 C 65.4540543356434 255.66666666666666 65.5966890773946 255.66666666666666 65.881958560897 255.66666666666666 C 66.1672280443998 255.66666666666666 66.3098627861512 255.66666666666666 66.595132269654 255.66666666666666 C 66.8804017531564 255.66666666666666 67.0230364949076 255.66666666666666 67.30830597841 255.66666666666666 C 67.5935754619128 255.66666666666666 67.7362102036642 255.66666666666666 68.021479687167 255.66666666666666 C 68.3067491706694 255.66666666666666 68.4493839124206 255.66666666666666 68.734653395923 255.66666666666666 C 69.0199228794258 255.66666666666666 69.1625576211772 255.66666666666666 69.44782710468 255.66666666666666 C 69.7330965881824 255.66666666666666 69.8757313299336 260 70.161000813436 260 C 70.44627029693841 260 70.5889050386896 260 70.874174522192 260 C 71.15944400569481 260 71.3020787474462 260 71.587348230949 260 C 71.87261771445141 260 72.0152524562026 260 72.300521939705 260 C 72.58579142320781 260 72.7284261649592 260 73.013695648462 260 C 73.29896513196441 260 73.4415998737156 260 73.726869357218 260 C 74.01213884072081 260 74.1547735824722 260 74.440043065975 260 C 74.8546743360934 260 75.0619899711526 260 75.476621241271 260 C 75.6325289381578 260 75.7104827866012 260 75.866390483488 260 C 76.15165996699041 260 76.2942947087416 260 76.579564192244 260 C 76.8648336757464 260 77.0074684174976 260 77.292737901 260 C 77.5780073845028 260 77.7206421262542 260 78.005911609757 260 C 78.29118109325941 260 78.43381583501059 260 78.719085318513 260 C 79.0043548020158 260 79.1469895437672 260 79.43225902727 260 C 79.7175285107724 260 79.8601632525236 260 80.145432736026 260 C 80.4307022195288 260 80.5733369612802 260 80.858606444783 260 C 81.14387592828541 260 81.28651067003659 260 81.571780153539 260 C 81.8570496370418 260 81.9996843787932 260 82.284953862296 260 C 82.5702233457984 260 82.7128580875496 260 82.998127571052 260 C 83.2833970545544 260 83.4260317963056 260 83.711301279808 260 C 83.9965707633108 260 84.1392055050622 260 84.424474988565 260 C 84.7097444720674 260 84.8523792138186 260 85.137648697321 260 C 85.4229181808238 260 85.5655529225752 260 85.850822406078 260 C 86.1360918895804 260 86.2787266313316 260 86.563996114834 260 C 86.8492655983368 260 86.9919003400882 260 87.277169823591 260 C 87.5624393070934 260 87.70507404884461 260 87.990343532347 260 C 88.27561301584981 260 88.4182477576012 260 88.703517241104 260 C 88.9887867246064 260 89.1314214663576 260 89.41669094986 260 C 89.70196043336239 260 89.8445951751136 260 90.129864658616 260 C 90.4151341421188 260 90.5577688838702 260 90.843038367373 260 C 91.1283078508754 260 91.2709425926266 260 91.556212076129 260 C 91.8414815596318 260 91.98411630138318 251.0625 92.269385784886 249.34722222222223 C 92.59883241756958 247.63194444444446 92.7635557339114 247.63194444444446 93.093002366595 247.63194444444446 C 95.6604277181182 247.63194444444446 96.94414039387979 260 99.511565745403 260 C 101.7937216134258 260 102.93479954743721 260 105.21695541546 260 C 105.787494382464 260 106.072763865966 260 106.64330283297 260 C 112.633961986522 260 115.62929156329801 260 121.61995071685 260 C 121.86104305117401 260 121.98158921833601 260 122.22268155266 260 C 124.79010690417999 260 126.07381957994001 260 128.64124493146 260 C 128.926514414964 260 129.069149156716 260 129.35441864022 260 C 129.639688123724 260 129.782322865476 260 130.06759234898 260 C 130.35286183248 260 130.49549657423 260 130.78076605773 260 C 131.066035541234 260 131.208670282986 260 131.49393976649 260 C 131.77920924999398 260 131.921843991746 260 132.20711347525 260 C 132.49238295874997 260 132.6350177005 260 132.920287184 260 C 133.205556667504 260 133.348191409256 260 133.63346089276 260 C 133.91873037626402 260 134.061365118016 260 134.34663460152 260 C 134.63190408502 260 134.77453882677 260 135.05980831027 260 C 135.345077793774 260 135.487712535526 260 135.77298201903 260 C 136.147398216126 260 136.334606314674 260 136.70902251177 260 C 136.90514528167802 260 137.00320666663202 260 137.19932943654 260 C 137.48459892004402 260 137.62723366179603 260 137.9125031453 260 C 138.1977726288 260 138.34040737055003 260 138.62567685405 260 C 138.910946337554 260 139.053581079306 260 139.33885056281 260 C 139.624120046314 260 139.766754788066 260 140.05202427157 260 C 140.33729375507 260 140.47992849682 260 140.76519798032 260 C 141.050467463824 260 141.193102205576 260 141.47837168908 260 C 141.763641172584 260 141.906275914336 260 142.19154539784 260 C 142.47681488133998 260 142.61944962309 260 142.90471910659 260 C 143.18998859009398 260 143.33262333184598 260 143.61789281535 260 C 143.903162298854 260 144.045797040606 260 144.33106652411 260 C 144.61633600761002 260 144.75897074936 260 145.04424023286 260 C 145.32950971636402 260 145.47214445811602 260 145.75741394162 260 C 146.042683425124 260 146.18531816687602 260 146.47058765038 260 C 146.75585713388 260 146.89849187563 260 147.18376135913 260 C 147.469030842634 260 147.611665584386 260 147.89693506789 260 C 148.18220455139002 260 148.32483929314 260 148.61010877664 260 C 148.895378260144 260 149.038013001896 260 149.3232824854 260 C 149.608551968904 260 149.751186710656 260 150.03645619416 260 C 150.32172567766 260 150.46436041940999 260 150.74962990291 260 C 151.034899386414 260 151.177534128166 260 151.46280361167 260 C 151.748073095174 260 151.890707836926 260 152.17597732043 260 C 152.46124680393 260 152.60388154568 260 152.88915102918 260 C 153.17442051268398 260 153.31705525443599 260 153.60232473794 260 C 153.88759422144398 260 154.03022896319598 260 154.3154984467 260 C 154.6007679302 260 154.74340267195 260 155.02867215545 260 C 155.31394163895402 260 155.45657638070603 260 155.74184586421 260 C 156.02711534771402 260 156.16975008946602 260 156.45501957297 260 C 156.74028905647 260 156.88292379822002 256.3888888888889 157.16819328172 256.3888888888889 C 157.453462765224 256.3888888888889 157.596097506976 256.3888888888889 157.88136699048 256.3888888888889 C 158.166636473984 256.3888888888889 158.309271215736 256.3888888888889 158.59454069924 256.3888888888889 C 158.87981018274 256.3888888888889 159.02244492449 256.3888888888889 159.30771440799 256.3888888888889 C 159.592983891494 256.3888888888889 159.735618633246 256.3888888888889 160.02088811675 256.3888888888889 C 160.30615760024997 256.3888888888889 160.448792342 256.3888888888889 160.7340618255 256.3888888888889 C 161.01933130900397 256.3888888888889 161.16196605075598 256.3888888888889 161.44723553426 256.3888888888889 C 161.732505017764 256.3888888888889 161.875139759516 209.71527777777777 162.16040924302 209.71527777777777 C 162.44567872652001 209.71527777777777 162.58831346827 209.71527777777777 162.87358295177 209.71527777777777 C 163.158852435274 209.71527777777777 163.301487177026 209.71527777777777 163.58675666053 209.71527777777777 C 163.872026144034 209.71527777777777 164.014660885786 209.71527777777777 164.29993036929 209.71527777777777 C 164.58519985279 209.71527777777777 164.72783459453998 209.71527777777777 165.01310407804 209.71527777777777 C 165.298373561544 209.71527777777777 165.441008303296 209.71527777777777 165.7262777868 209.71527777777777 C 166.01154727030402 209.71527777777777 166.15418201205603 207.45833333333331 166.43945149556 207.45833333333331 C 166.72472097906 207.45833333333331 166.86735572081002 257.74305555555554 167.15262520431 257.74305555555554 C 167.437894687814 257.74305555555554 167.580529429566 257.74305555555554 167.86579891307 257.74305555555554 C 168.151068396574 257.74305555555554 168.293703138326 257.74305555555554 168.57897262183 257.74305555555554 C 168.86424210533 257.74305555555554 169.00687684708 257.74305555555554 169.29214633058 257.74305555555554 C 169.577415814084 257.74305555555554 169.720050555836 257.74305555555554 170.00532003934 257.74305555555554 C 170.29058952283998 257.74305555555554 170.43322426459002 257.74305555555554 170.71849374809 257.74305555555554 C 171.003763231594 257.74305555555554 171.146397973346 260 171.43166745685 260 C 171.716936940354 260 171.859571682106 260 172.14484116561 260 C 172.43011064911002 260 172.57274539086 260 172.85801487436 260 C 173.14328435786402 260 173.28591909961602 252.59722222222223 173.57118858312 252.59722222222223 C 173.85645806662401 252.59722222222223 173.99909280837602 252.59722222222223 174.28436229188 252.59722222222223 C 174.56963177538 252.59722222222223 174.71226651713 252.59722222222223 174.99753600063 252.59722222222223 C 175.282805484134 252.59722222222223 175.425440225886 252.59722222222223 175.71070970939 252.59722222222223 C 175.995979192894 252.59722222222223 176.138613934646 252.59722222222223 176.42388341815 252.59722222222223 C 176.70915290165001 252.59722222222223 176.8517876434 251.96527777777777 177.1370571269 251.96527777777777 C 177.422326610404 251.96527777777777 177.564961352156 251.96527777777777 177.85023083566 251.96527777777777 C 178.135500319164 251.96527777777777 178.278135060916 259.36805555555554 178.56340454442 259.36805555555554 C 178.84867402792 259.36805555555554 178.99130876966998 259.36805555555554 179.27657825317 259.36805555555554 C 179.561847736674 259.36805555555554 179.704482478426 259.36805555555554 179.98975196193 259.36805555555554 C 180.27502144543 259.36805555555554 180.41765618718 259.36805555555554 180.70292567068 259.36805555555554 C 180.98819515418398 259.36805555555554 181.130829895936 259.36805555555554 181.41609937944 259.36805555555554 C 181.70136886294398 259.36805555555554 181.84400360469598 260 182.1292730882 260 C 182.4145425717 260 182.55717731344998 260 182.84244679695 260 C 183.127716280454 260 183.27035102220597 260 183.55562050571 260 C 183.840889989214 260 183.983524730966 260 184.26879421447 260 C 184.55406369796998 260 184.69669843972 260 184.98196792322 260 C 185.26723740672398 260 185.40987214847598 260 185.69514163198 260 C 185.98041111548397 260 186.12304585723598 260 186.40831534074 260 C 186.69358482424 260 186.83621956599 260 187.12148904949 260 C 187.406758532994 260 187.549393274746 260 187.83466275825 260 C 188.119932241754 260 188.262566983506 260 188.54783646701 260 C 188.83310595050997 260 188.97574069226 260 189.26101017576 260 C 189.54627965926397 260 189.68891440101598 260 189.97418388452 260 C 190.259453368024 260 190.402088109776 260 190.68735759328 260 C 190.97262707678001 260 191.11526181853 260 191.40053130203 260 C 191.685800785534 260 191.828435527286 236.79861111111111 192.11370501079 236.79861111111111 C 192.39897449429 236.79861111111111 192.54160923604 236.79861111111111 192.82687871954 236.79861111111111 C 193.112148203044 236.79861111111111 193.25478294479598 236.79861111111111 193.5400524283 236.79861111111111 C 193.825321911804 236.79861111111111 193.967956653556 236.79861111111111 194.25322613706 236.79861111111111 C 194.53849562056 236.79861111111111 194.68113036231003 236.79861111111111 194.96639984581 236.79861111111111 C 195.251669329314 236.79861111111111 195.39430407106602 236.79861111111111 195.67957355457 236.79861111111111 C 195.964843038074 236.79861111111111 196.107477779826 236.79861111111111 196.39274726333 236.79861111111111 C 196.67801674683 236.79861111111111 196.82065148858 228.85416666666666 197.10592097208 228.85416666666666 C 197.39119045558402 228.85416666666666 197.53382519733603 228.85416666666666 197.81909468084 228.85416666666666 C 198.10436416434402 228.85416666666666 198.24699890609602 223.97916666666666 198.5322683896 223.97916666666666 C 198.8175378731 223.97916666666666 198.96017261485002 223.97916666666666 199.24544209835 223.97916666666666 C 199.530711581854 223.97916666666666 199.673346323606 223.97916666666666 199.95861580711 223.97916666666666 C 200.243885290614 223.97916666666666 200.386520032366 223.97916666666666 200.67178951587 223.97916666666666 C 200.95705899937002 223.97916666666666 201.09969374112 214.86111111111111 201.38496322462 214.86111111111111 C 201.67023270812402 214.86111111111111 201.81286744987602 246.00694444444446 202.09813693338 246.00694444444446 C 202.38340641688 246.00694444444446 202.52604115863 239.95833333333334 202.81131064213 239.95833333333334 C 203.096580125634 239.95833333333334 203.239214867386 244.83333333333334 203.52448435089 244.83333333333334 C 203.809753834394 244.83333333333334 203.952388576146 244.83333333333334 204.23765805965 244.83333333333334 C 204.52292754315 244.83333333333334 204.66556228489998 240.22916666666666 204.9508317684 240.22916666666666 C 205.236101251904 240.22916666666666 205.37873599365602 240.22916666666666 205.66400547716 240.22916666666666 C 205.949274960664 240.22916666666666 206.091909702416 249.34722222222223 206.37717918592 249.34722222222223 C 206.66244866941997 249.34722222222223 206.80508341117002 242.125 207.09035289467 242.125 C 207.375622378174 242.125 207.51825711992598 248.17361111111111 207.80352660343 248.17361111111111 C 208.088796086934 248.17361111111111 208.231430828686 248.17361111111111 208.51670031219 248.17361111111111 C 208.80196979569 248.17361111111111 208.94460453744 248.17361111111111 209.22987402094 248.17361111111111 C 209.51514350444398 248.17361111111111 209.657778246196 251.78472222222223 209.9430477297 251.78472222222223 C 210.22831721320398 251.78472222222223 210.37095195495598 251.78472222222223 210.65622143846 251.78472222222223 C 210.94149092196002 251.78472222222223 211.08412566370998 251.78472222222223 211.36939514721 251.78472222222223 C 211.65466463071397 251.78472222222223 211.79729937246603 259.00694444444446 212.08256885597 259.00694444444446 C 212.36783833947 259.00694444444446 212.51047308121997 259.00694444444446 212.79574256472 259.00694444444446 C 213.08101204822395 259.00694444444446 213.22364678997602 243.02777777777777 213.50891627348 243.02777777777777 C 213.794185756984 243.02777777777777 213.93682049873595 243.02777777777777 214.22208998224 243.02777777777777 C 214.50735946574 243.02777777777777 214.64999420749 244.02083333333334 214.93526369099 244.02083333333334 C 215.220533174494 244.02083333333334 215.363167916246 244.02083333333334 215.64843739975 244.02083333333334 C 215.933706883254 244.02083333333334 216.076341625006 242.125 216.36161110851 242.125 C 216.64688059200998 242.125 216.78951533376 242.125 217.07478481726 242.125 C 217.36005430076398 242.125 217.50268904251598 242.125 217.78795852602 242.125 C 218.07322800952397 242.125 218.21586275127598 258.1041666666667 218.50113223478 258.1041666666667 C 218.78640171828002 258.1041666666667 218.92903646003 258.1041666666667 219.21430594353 258.1041666666667 C 219.49957542703402 258.1041666666667 219.642210168786 258.1041666666667 219.92747965229 258.1041666666667 C 220.212749135794 258.1041666666667 220.355383877546 258.1041666666667 220.64065336105 258.1041666666667 C 220.92592284455 258.1041666666667 221.0685575863 260 221.3538270698 260 C 221.639096553304 260 221.78173129505598 243.75 222.06700077856 243.75 C 222.352270262064 243.75 222.49490500381597 243.75 222.78017448732 243.75 C 223.06544397082 243.75 223.20807871257003 243.75 223.49334819607 243.75 C 223.778617679574 243.75 223.92125242132602 243.75 224.20652190483 243.75 C 224.49179138833 243.75 224.63442613008002 243.75 224.91969561358 243.75 C 225.204965097084 243.75 225.347599838836 243.75 225.63286932234 243.75 C 225.91813880584405 243.75 226.060773547596 243.75 226.3460430311 243.75 C 226.63131251459998 243.75 226.77394725635003 209.08333333333331 227.05921673985 209.08333333333331 C 227.34448622335404 209.08333333333331 227.487120965106 209.08333333333331 227.77239044861 209.08333333333331 C 228.05765993211398 209.08333333333331 228.20029467386604 209.08333333333331 228.48556415737 209.08333333333331 C 228.77083364087002 209.08333333333331 228.91346838261998 152.47916666666669 229.19873786612 152.47916666666669 C 229.48400734962402 152.47916666666669 229.62664209137603 152.47916666666669 229.91191157488 152.47916666666669 C 230.19718105838402 152.47916666666669 230.33981580013602 122.86805555555554 230.62508528364 122.86805555555554 C 230.91035476714 122.86805555555554 231.05298950889 122.86805555555554 231.33825899239 122.86805555555554 C 231.623528475894 122.86805555555554 231.766163217646 173.78472222222223 232.05143270115 173.78472222222223 C 232.336702184654 173.78472222222223 232.479336926406 173.78472222222223 232.76460640991 173.78472222222223 C 233.04987589341 173.78472222222223 233.19251063515998 173.78472222222223 233.47778011866 173.78472222222223 C 233.76304960216402 173.78472222222223 233.905684343916 224.61111111111111 234.19095382742 224.61111111111111 C 234.47622331091998 224.61111111111111 234.61885805267002 201.22916666666666 234.90412753617 201.22916666666666 C 235.189397019674 201.22916666666666 235.33203176142598 230.84027777777777 235.61730124493 230.84027777777777 C 235.90257072843397 230.84027777777777 236.045205470186 230.84027777777777 236.33047495369 230.84027777777777 C 236.61574443719002 230.84027777777777 236.75837917894 230.84027777777777 237.04364866244 230.84027777777777 C 237.328918145944 230.84027777777777 237.471552887696 224.88194444444446 237.7568223712 224.88194444444446 C 238.04209185470398 224.88194444444446 238.184726596456 224.88194444444446 238.46999607996 224.88194444444446 C 238.75526556346 224.88194444444446 238.89790030521 224.88194444444446 239.18316978871 230.65972222222223 C 239.46843927221397 236.4375 239.61107401396598 254.04166666666666 239.89634349747 254.04166666666666 C 240.18161298097402 254.04166666666666 240.32424772272597 254.04166666666666 240.60951720623 254.04166666666666 C 240.89478668972998 254.04166666666666 241.03742143148003 254.04166666666666 241.32269091498 254.04166666666666 C 241.607960398484 254.04166666666666 241.75059514023596 250.97222222222223 242.03586462374 250.97222222222223 C 242.32113410724395 250.97222222222223 242.463768848996 253.68055555555554 242.7490383325 253.68055555555554 C 243.034307816 253.68055555555554 243.17694255775 253.68055555555554 243.46221204125 253.68055555555554 C 243.747481524754 253.68055555555554 243.890116266506 222.98611111111111 244.17538575001 222.98611111111111 C 244.46065523350998 222.98611111111111 244.60328997526 222.98611111111111 244.88855945876 222.98611111111111 C 245.17382894226398 222.98611111111111 245.316463684016 222.98611111111111 245.60173316752 222.98611111111111 C 245.88700265102398 222.98611111111111 246.02963739277598 212.0625 246.31490687628 212.0625 C 246.824033662808 212.0625 247.07859705607203 212.0625 247.5877238426 215.13194444444446 C 248.50078429361602 218.2013888888889 248.95731451912403 245.375 249.87037497014 245.375 C 250.21329266176798 245.375 250.384751507582 245.375 250.72766919921 245.375 C 251.24472013805797 245.375 251.503245607482 214.77083333333334 252.02029654633 214.77083333333334 C 253.14790342139798 214.77083333333334 253.711706858932 218.47222222222223 254.839313734 218.47222222222223 C 255.423323759948 218.47222222222223 255.71532877292202 214.5 256.29933879887 214.5 C 259.722572600902 214.5 261.434189501918 230.02777777777777 264.85742330395 230.02777777777777 C 265.42796227095397 230.02777777777777 265.71323175445593 230.02777777777777 266.28377072146 230.02777777777777 C 267.069252320132 230.02777777777777 267.461993119468 230.02777777777777 268.24747471814 230.02777777777777 C 268.88834053698 230.02777777777777 269.20877344639996 216.57638888888889 269.84963926524 216.57638888888889 C 270.600452697516 216.57638888888889 270.975859413654 216.57638888888889 271.72667284593 216.57638888888889 C 272.593377005874 216.57638888888889 273.026729085846 216.57638888888889 273.89343324579 216.57638888888889 C 274.832445295654 216.57638888888889 275.301951320586 209.44444444444446 276.24096337045 209.44444444444446 C 276.383598112202 209.44444444444446 276.454915483078 209.44444444444446 276.59755022483 209.44444444444446 C 276.751080676018 209.44444444444446 276.827845901612 209.44444444444446 276.9813763528 209.44444444444446 C 277.266645836304 209.44444444444446 277.409280578056 209.44444444444446 277.69455006156 209.44444444444446 C 277.979819545064 209.44444444444446 278.122454286816 209.44444444444446 278.40772377032 209.44444444444446 C 278.859202348724 209.44444444444446 279.08494163792597 260 279.53642021633 260 C 279.942334918898 260 280.14529227018204 260 280.55120697275 260 C 281.13997149009003 260 281.43435374876 260 282.0231182661 260 C 282.859116335808 260 283.27711537066205 256.56944444444446 284.11311344037 256.56944444444446 C 284.398382923874 256.56944444444446 284.541017665626 256.56944444444446 284.82628714913 256.56944444444446 C 287.964251467658 256.56944444444446 289.53323362692197 260 292.67119794545 260 C 292.95646742894996 260 293.0991021707 260 293.3843716542 260 C 293.669641137704 260 293.81227587945597 260 294.09754536296 260 C 294.38281484646393 260 294.525449588216 260 294.81071907172 260 C 295.09598855522 260 295.23862329697 232.91666666666669 295.52389278047 231.11111111111111 C 295.80916226397403 229.30555555555554 295.951797005726 231.02083333333348 296.23706648923 229.30555555555554 C 296.52233597273397 227.59027777777794 296.664970714486 229.30555555555554 296.95024019799 222.53472222222223 C 297.23550968149004 215.7638888888889 297.37814442324 150.94444444444446 297.66341390674 150.94444444444446 C 297.94868339024396 150.94444444444446 298.091318131996 150.94444444444446 298.3765876155 150.94444444444446 C 298.66185709900003 150.94444444444446 298.80449184074996 150.94444444444446 299.08976132425 150.94444444444446 C 299.37503080775394 150.94444444444446 299.517665549506 147.5138888888889 299.80293503301 147.5138888888889 C 300.088204516514 147.5138888888889 300.230839258266 174.5972222222222 300.51610874177 176.40277777777777 C 300.80137822526996 178.20833333333334 300.94401296702 176.49305555556768 301.22928245052 178.20833333333334 C 301.514551934024 179.92361111112325 301.657186675776 178.20833333333334 301.94245615928 184.97916666666669 C 302.22772564278404 191.75000000000003 302.370360384536 255.48611111111111 302.65562986804 255.48611111111111 C 302.94089935154 255.48611111111111 303.08353409329004 255.48611111111111 303.36880357679 255.48611111111111 C 305.541408038994 255.48611111111111 306.62771027009603 249.97916666666666 308.8003147323 249.97916666666666 C 309.443359693028 249.97916666666666 309.76488217339204 249.97916666666666 310.40792713412 249.97916666666666 C 310.978466101128 249.97916666666666 311.263735584632 249.97916666666666 311.83427455164 249.97916666666666 C 319.28832653480004 249.97916666666666 323.01535252638007 234.8125 330.46940450954 234.8125 C 330.75467399304 234.8125 330.89730873479004 234.8125 331.18257821829 234.8125 C 331.467847701794 234.8125 331.610482443546 234.8125 331.89575192705 234.8125 C 332.386058851822 234.8125 332.631212314208 234.8125 333.12151923898 234.8125 C 333.201751281212 234.8125 333.241867302328 175.5 333.32209934456 175.5 C 333.607368828064 175.5 333.750003569816 178.78611111111113 334.03527305332 183.625 C 334.320542536824 188.4638888888889 334.463177278576 199.69444444444446 334.74844676208 199.69444444444446 C 335.03371624557997 199.69444444444446 335.17635098733 199.69444444444446 335.46162047083 199.69444444444446 C 335.746889954334 199.69444444444446 335.88952469608597 199.69444444444446 336.17479417959 199.69444444444446 C 336.460063663094 199.69444444444446 336.60269840484597 199.69444444444446 336.88796788835 199.69444444444446 C 340.86648666416994 199.69444444444446 342.85574605208 190.9375 346.8342648279 190.9375 C 347.547438536656 190.9375 347.904025391034 253.40972222222223 348.61719909979 253.40972222222223 C 348.835311392386 253.40972222222223 348.944367538684 253.40972222222223 349.16247983128 253.40972222222223 C 349.55789503202396 253.40972222222223 349.75560263239595 253.40972222222223 350.15101783314 253.40972222222223 C 350.26591804177195 253.40972222222223 350.323368146088 260 350.43826835472 260 C 350.72353783822393 260 350.866172579976 260 351.15144206348 260 C 351.43671154698006 260 351.57934628873 260 351.86461577223 260 C 352.149885255734 260 352.292519997486 260 352.57778948099 260 C 352.86305896449005 260 353.00569370624 260 353.29096318974 257.1111111111111 C 353.714911942296 254.22222222222217 353.926886318574 198.34027777777777 354.35083507113 198.34027777777777 C 354.782694769082 198.34027777777777 354.998624618058 198.34027777777777 355.43048431601 198.34027777777777 C 355.715753799514 198.34027777777777 355.858388541266 198.34027777777777 356.14365802477 198.34027777777777 C 356.42892750827394 198.34027777777777 356.571562250026 198.34027777777777 356.85683173353 198.34027777777777 C 357.14210121703 198.34027777777777 357.28473595877995 198.34027777777777 357.57000544228 198.34027777777777 C 357.85527492578393 198.34027777777777 357.99790966753596 198.34027777777777 358.28317915104 201.22916666666666 C 358.568448634544 204.11805555555554 358.711083376296 260 358.9963528598 260 C 359.2816223433 260 359.42425708505004 260 359.70952656855 260 C 359.994796052054 260 360.137430793806 229.03472222222223 360.42270027731 229.03472222222223 C 360.707969760814 229.03472222222223 360.850604502566 229.03472222222223 361.13587398607 229.03472222222223 C 361.42114346957 229.03472222222223 361.56377821132 229.03472222222223 361.84904769482 229.03472222222223 C 362.134317178324 229.03472222222223 362.276951920076 229.03472222222223 362.56222140358 229.03472222222223 C 362.84749088707997 229.03472222222223 362.99012562883 229.03472222222223 363.27539511233 229.03472222222223 C 363.745251120658 229.03472222222223 363.98017912482203 229.03472222222223 364.45003513315 229.03472222222223 C 365.26651337431 229.03472222222223 365.67475249488996 260 366.49123073605 260 C 366.631243904078 260 366.70125048809206 260 366.84126365612 260 C 367.12653313962 260 367.26916788137004 260 367.55443736487 260 C 367.839706848374 260 367.982341590126 260 368.26761107363 260 C 368.552880557134 260 368.69551529888605 260 368.98078478239 260 C 369.26605426589003 260 369.40868900763996 260 369.69395849114 260 C 369.979227974644 260 370.12186271639604 260 370.4071321999 260 C 370.692401683404 260 370.835036425156 260 371.12030590866 260 C 371.40557539215996 260 371.54821013391 260 371.83347961741 260 C 372.118749100914 260 372.26138384266596 260 372.54665332617 260 C 372.83192280967 260 372.97455755142 260 373.25982703492 260 C 373.54509651842403 260 373.687731260176 260 373.97300074368 260 C 374.25827022718397 260 374.40090496893606 260 374.68617445244 260 C 374.97144393594004 260 375.11407867769 260 375.39934816119 260 C 375.68461764469396 260 375.82725238644605 258.46527777777777 376.11252186995 258.46527777777777 C 376.397791353454 258.46527777777777 376.540426095206 258.46527777777777 376.82569557871 258.46527777777777 C 377.11096506220997 258.46527777777777 377.25359980396 215.42083333318314 377.53886928746 194.1875 C 377.824138770964 172.95416666651647 377.966773512716 161.8680555555556 378.25204299622 152.29861111111114 C 378.53731247972394 142.72916666666669 378.679947221476 147.98333333336893 378.96521670498 142.72916666666669 C 379.25048618848007 137.4750000000356 379.39312093023 126.0277777777778 379.67839041373 126.0277777777778 C 379.963659897234 126.0277777777778 380.106294638986 126.0277777777778 380.39156412249 126.0277777777778 C 380.67683360599403 126.0277777777778 380.819468347746 127.5625 381.10473783125 127.5625 C 381.39000731475 127.5625 381.53264205650004 127.5625 381.81791154 127.5625 C 382.103181023504 127.5625 382.245815765256 170.60694444444235 382.53108524876 191.84027777777777 C 382.81635473226396 213.073611111109 382.958989474016 224.1597222222222 383.24425895752 233.72916666666666 C 383.52952844102003 243.29861111111111 383.67216318276996 239.31460121166918 383.95743266627 243.29861111111111 C 384.42459776453796 249.8229345450025 384.658180313672 260 385.12534541194 260 C 385.228719280676 260 385.28040621504397 260 385.38378008378 260 C 385.66904956728393 260 385.81168430903597 257.2555555555556 386.09695379254 232.01388888888889 C 386.382223276044 206.77222222222224 386.52485801779596 133.79166666666669 386.8101275013 133.79166666666669 C 387.0953969848 133.79166666666669 387.23803172655 133.79166666666669 387.52330121005 133.79166666666669 C 388.01416942894605 133.79166666666669 388.259603538394 133.79166666666669 388.75047175729 133.79166666666669 C 388.85810485789796 133.79166666666669 388.91192140820203 133.79166666666669 389.01955450881 133.79166666666669 C 389.276861639814 133.79166666666669 389.40551520531596 100.35436044999118 389.66282233632 91.90277777777777 C 390.233361303328 73.1626937833245 390.518630786832 65.81250000000003 391.08916975384 65.81250000000003 C 391.53499907198403 65.81250000000003 391.75791373105596 164.03472222222223 392.2037430492 164.03472222222223 C 394.212145868424 164.03472222222223 395.21634727803604 161.05555555555557 397.22475009726 161.05555555555557 C 397.337943311412 161.05555555555557 397.394539918488 166.18230666028 397.50773313264 170.80555555555554 C 398.363541583148 205.76008443805773 398.79144580840205 260 399.64725425891 260 C 399.932523742414 260 400.07515848416597 260 400.36042796767 260 C 400.645697451174 260 400.788332192926 260 401.07360167643 260 C 401.35887115993 260 401.50150590167993 260 401.78677538518 260 C 402.072044868684 260 402.21467961043606 260 402.49994909394 260 C 402.785218577444 260 402.927853319196 260 403.2131228027 260 C 403.4983922862 260 403.64102702795003 260 403.92629651145 260 C 404.211565994954 260 404.354200736706 260 404.63947022021 260 C 404.92473970371 260 405.06737444546 260 405.35264392896 260 C 405.637913412464 260 405.780548154216 260 406.06581763772 260 C 406.35108712122394 260 406.49372186297603 260 406.77899134648 260 C 407.06426082998 260 407.20689557172994 260 407.49216505523 260 C 407.777434538734 260 407.920069280486 250.71944444444446 408.20533876399 233.45833333333334 C 408.49060824749404 216.19722222222225 408.633242989246 173.69444444444446 408.91851247275 173.69444444444446 C 409.20378195625 173.69444444444446 409.34641669800004 173.69444444444446 409.6316861815 173.69444444444446 C 409.916955665004 173.69444444444446 410.059590406756 161.0555555555566 410.34485989026 150.49305555555554 C 410.63012937376396 139.9305555555566 410.772764115516 120.88194444444446 411.05803359902 120.88194444444446 C 411.34330308252004 120.88194444444446 411.48593782426997 120.88194444444446 411.77120730777 120.88194444444446 C 412.05647679127395 120.88194444444446 412.199111533026 120.88194444444446 412.48438101653 120.88194444444446 C 412.769650500034 120.88194444444446 412.912285241786 121.42361111100448 413.19755472529 136.5 C 413.48282420878996 151.57638888878225 413.62545895054 196.26388888888889 413.91072843404 196.26388888888889 C 414.195997917544 196.26388888888889 414.33863265929597 159.25 414.6239021428 159.25 C 414.90917162630393 159.25 415.05180636805596 161.41666666661123 415.33707585156 169.3611111111111 C 415.62234533506 177.30555555550012 415.76498007681005 198.97222222222223 416.05024956031 198.97222222222223 C 416.33551904381403 198.97222222222223 416.47815378556606 198.97222222222223 416.76342326907 198.97222222222223 C 417.04869275257005 198.97222222222223 417.19132749432003 198.97222222222223 417.47659697782 198.97222222222223 C 417.761866461324 198.97222222222223 417.90450120307594 209.89583333333331 418.18977068658 209.89583333333331 C 418.676931062532 209.89583333333331 418.920511250508 209.89583333333331 419.40767162646 209.89583333333331 C 419.491050217512 209.89583333333331 419.532739513038 233.81944444444446 419.61611810409 246.90972222222223 C 419.90138758759406 260 420.044022329346 260 420.32929181285 260 C 420.614561296354 260 420.7571960381059 260 421.04246552161 260 C 421.32773500510996 260 421.47036974686 260 421.75563923036 260 C 422.040908713864 260 422.183543455616 260 422.46881293912 260 C 422.75408242262404 260 422.89671716437607 213.23611111111111 423.18198664788 213.23611111111111 C 423.46725613138005 213.23611111111111 423.60989087313 213.23611111111111 423.89516035663 213.23611111111111 C 424.180429840134 213.23611111111111 424.32306458188606 213.23611111111111 424.60833406539 213.23611111111111 C 424.893603548894 213.23611111111111 425.036238290646 213.23611111111111 425.32150777415 213.23611111111111 C 425.892046741154 213.23611111111111 426.177316224656 213.23611111111111 426.74785519166 213.23611111111111 C 427.318394158664 213.23611111111111 427.603663642166 260 428.17420260917 260 C 428.459472092674 260 428.602106834426 260 428.88737631793 260 C 429.17264580143 260 429.31528054317994 260 429.60055002668 260 C 429.88581951018404 260 430.02845425193607 260 430.31372373544 260 C 430.5989932189441 260 430.74162796069595 260 431.0268974442 260 C 431.31216692769993 260 431.45480166945 260 431.74007115295 260 C 432.04535572452204 260 432.197998010308 260 432.50328258188 260 C 433.05380646081596 260 433.329068400284 260 433.87959227922 260 C 434.16486176272394 260 434.307496504476 260 434.59276598798 260 C 434.87803547148394 260 435.02067021323603 260 435.30593969674 260 C 435.59120918024 260 435.73384392199006 240.95138888888889 436.01911340549 240.95138888888889 C 436.30438288899404 240.95138888888889 436.447017630746 240.95138888888889 436.73228711425 240.95138888888889 C 437.01755659775 240.95138888888889 437.16019133950005 240.95138888888889 437.445460823 240.95138888888889 C 437.73073030650403 240.95138888888889 437.873365048256 204.75 438.15863453176 204.75 C 438.44390401526397 204.75 438.586538757016 204.75 438.87180824052 204.75 C 439.15707772402004 204.75 439.29971246576997 204.75 439.58498194927 204.75 C 439.87025143277396 204.75 440.012886174526 204.75 440.29815565803 204.75 C 440.583425141534 204.75 440.726059883286 223.79861111111111 441.01132936679 223.79861111111111 C 441.56162212461794 223.79861111111111 441.83676850353197 223.79861111111111 442.38706126136 223.79861111111111 C 442.97784643754005 223.79861111111111 443.27323902563 260 443.86402420181 260 C 444.14929368531403 260 444.29192842706595 260 444.57719791057 260 C 444.862467394074 260 445.005102135826 260 445.29037161933 260 C 445.57564110283 260 445.71827584458003 260 446.00354532808 260 C 446.2888148115841 260 446.431449553336 260 446.71671903684 260 C 447.00198852034 260 447.14462326208997 260 447.42989274559 260 C 447.71516222909395 260 447.857796970846 260 448.14306645435 260 C 448.428335937854 260 448.57097067960603 260 448.85624016311 260 C 449.14150964661 260 449.28414438836 260 449.56941387186 260 C 449.854683355364 260 449.9973180971159 260 450.28258758062 260 C 450.56785706412404 260 450.71049180587596 260 450.99576128938 260 C 451.700974526784 260 452.05358114548596 260 452.75879438289 260 C 452.90938959599396 260 452.98468720254607 260 453.13528241565 260 C 453.42055189915 260 453.5631866409 260 453.8484561244 260 C 454.133725607904 260 454.276360349656 260 454.56162983316 260 C 454.846899316664 260 454.98953405841604 260 455.27480354192 260 C 455.96129266774005 260 456.30453723065 260 456.99102635647 260 C 457.160345681158 260 457.245005343502 260 457.41432466819 260 C 458.22898695777803 260 459.45098039216 260 459.45098039216 260" class="highcharts-graph" data-z-index="1" stroke="#000000" stroke-width="2" stroke-linejoin="round" stroke-linecap="round"></path></g><g data-z-index="0.1" class="highcharts-markers highcharts-series-0 highcharts-spline-series highcharts-color-0 " transform="translate(68,63) scale(1 1)" clip-path="none"></g><g data-z-index="0.1" class="highcharts-series highcharts-series-1 highcharts-spline-series highcharts-color-1 " transform="translate(68,63) scale(1 1)" clip-path="url(#highcharts-ybuaqmr-1935)"><path fill="none" d="M 4.5490196078431 208.09027777777777 C 4.5490196078431 208.09027777777777 4.976923833097 208.09027777777777 5.2621933165996 204.02777777777777 C 5.54746280010216 199.96527777777777 5.69009754185344 185.97222222222223 5.975367025356 185.97222222222223 C 6.2606365088586005 185.97222222222223 6.4032712506099 206.76724137931035 6.6885407341125 206.76724137931035 C 6.9738102176150605 206.76724137931035 7.116444959366339 188.90625 7.4017144428689 188.90625 C 7.686983926371499 188.90625 7.829618668122801 218.24652777777777 8.1148881516254 223.88888888888889 C 8.40015763512796 229.53125 8.54279237687924 229.53125 8.8280618603818 229.53125 C 9.11333134388436 229.53125 9.25596608563564 229.0252976190452 9.5412355691382 220.41666666666666 C 9.82650505264092 211.80803571428328 9.96913979439228 186.48809523809524 10.254409277895 186.48809523809524 C 10.5396787613974 186.48809523809524 10.6823135031486 205.83333333333331 10.967582986651 205.83333333333331 C 11.252852470153801 205.83333333333331 11.3954872119052 178.75 11.680756695408 178.75 C 11.9660261789104 178.75 12.1086609206616 178.75 12.393930404164 178.75 C 12.6791998876664 178.75 12.8218346294176 205.83333333333331 13.10710411292 205.83333333333331 C 13.3923735964228 205.83333333333331 13.5350083381742 194.5833333333368 13.820277821677 189.58333333333331 C 14.1055473051794 184.5833333333368 14.2481820469306 180.83333333333331 14.533451530433 180.83333333333331 C 14.8187210139358 180.83333333333331 14.9613557556872 184.16666666666669 15.24662523919 184.16666666666669 C 15.5318947226924 184.16666666666669 15.6745294644436 178.75 15.959798947946 178.75 C 16.2450684314488 178.75 16.3877031732002 203.125 16.672972656703 203.125 C 16.9582421402054 203.125 17.1008768819566 192.29166666666666 17.386146365459 192.29166666666666 C 17.7274792266222 192.29166666666666 17.8981456572038 232.91666666666666 18.239478518367 232.91666666666666 C 18.7539541077114 232.91666666666666 19.0111919023836 205.83333333333331 19.525667491728 205.83333333333331 C 20.152269836394 205.83333333333331 20.465571008727 205.83333333333331 21.092173353393 205.83333333333331 C 21.321379459235 205.83333333333331 21.435982512156002 205.83333333333331 21.665188617998 205.83333333333331 C 21.9839376450504 205.83333333333331 22.1433121585766 205.83333333333331 22.462061185629 205.83333333333331 C 22.9991206090842 205.83333333333331 23.2676503208118 208.84259259259258 23.804709744267 208.84259259259258 C 24.0899792277698 208.84259259259258 24.232613969521204 204.30720899471265 24.517883453024 199.0625 C 24.803152936526402 193.81779100529465 24.9457876782776 183.10267857142853 25.23105716178 182.6190476190476 C 25.5163266452824 182.13541666666666 25.6589613870336 182.13541666666666 25.944230870536 182.13541666666666 C 26.229500354038798 182.13541666666666 26.372135095790203 182.2127976190473 26.657404579293 182.6190476190476 C 26.9426740627954 183.0252976190473 27.0853088045466 184.16666666666669 27.370578288049 184.16666666666669 C 27.655847771551798 184.16666666666669 27.798482513303203 184.16666666666669 28.083751996806 183.26388888888886 C 28.3690214803084 182.36111111111103 28.5116562220596 178.75 28.796925705562 178.75 C 29.082195189064798 178.75 29.224829930816203 178.75 29.510099414319 178.75 C 29.7953688978214 178.75 29.9380036395726 184.16666666667044 30.223273123075 189.58333333333331 C 30.508542606577798 195.00000000000375 30.651177348329202 205.83333333333331 30.936446831832 205.83333333333331 C 31.2777796929948 205.83333333333331 31.4484461235762 205.83333333333331 31.789778984739 205.83333333333331 C 32.018985090581 205.83333333333331 32.133588143501996 200.41666666666666 32.362794249344 200.41666666666666 C 32.6480637328468 200.41666666666666 32.7906984745982 205.83333333333331 33.075967958101 205.83333333333331 C 33.3612374416034 205.83333333333331 33.5038721833546 198.0952380952381 33.789141666857 198.0952380952381 C 34.0744111503598 198.0952380952381 34.2170458921112 212.60416666666666 34.502315375614 212.60416666666666 C 34.7875848591164 212.60416666666666 34.9302196008676 195 35.21548908437 195 C 35.5007585678728 195 35.6433933096242 217.4404761904762 35.928662793127 217.4404761904762 C 36.2139322766294 217.4404761904762 36.3565670183806 209.05753968253737 36.641836501883 205.83333333333331 C 36.9271059853858 202.60912698412469 37.0697407271372 202.523148148149 37.35501021064 201.31944444444446 C 37.6402796941424 200.11574074074161 37.7829144358936 201.31944444444446 38.068183919396 199.8148148148148 C 38.3534534028984 198.31018518518516 38.496088144649605 189.86655773420205 38.781357628152 185.97222222222223 C 39.0666271116548 182.0778867102369 39.209261853406204 180.34313725490193 39.494531336909 180.34313725490193 C 39.7798008204114 180.34313725490193 39.922435562162605 180.34313725490193 40.207705045665 181.2121212121212 C 40.4929745291678 182.08110516934045 40.635609270919204 193.08823529411762 40.920878754422 193.08823529411762 C 41.2061482379244 193.08823529411762 41.348782979675605 181.93627450980392 41.634052463178 181.93627450980392 C 41.9193219466808 181.93627450980392 42.061956688432204 191.88252005347334 42.347226171935 195.67708333333331 C 42.6324956554374 199.4716466131881 42.775130397188605 197.67413720538948 43.060399880691 200.9090909090909 C 43.3456693641938 204.1440446127969 43.488304105945204 211.85185185185185 43.773573589448 211.85185185185185 C 44.0588430729504 211.85185185185185 44.201477814701605 208.84259259259258 44.486747298204 205.83333333333331 C 44.7720167817064 202.82407407407408 44.9146515234576 199.17534722222052 45.19992100696 196.80555555555554 C 45.4851904904628 194.43576388888718 45.6278252322142 195.6257891414153 45.913094715717 193.984375 C 46.1983641992194 192.34296085858702 46.3409989409706 188.59848484848484 46.626268424473 188.59848484848484 C 46.9115379079758 188.59848484848484 47.0541726497272 195.30092592592592 47.33944213323 195.30092592592592 C 47.6247116167324 195.30092592592592 47.7673463584836 190.94192538126177 48.052615841986 188.30882352941177 C 48.3378853254888 185.67572167755804 48.4805200672402 182.13541666666666 48.765789550743 182.13541666666666 C 49.0510590342454 182.13541666666666 49.1936937759966 182.94560185185316 49.478963259499 184.76851851851853 C 49.7642327430018 186.59143518518653 49.9068674847532 191.25 50.192136968256 191.25 C 50.4774064517584 191.25 50.6200411935096 180.55555555555554 50.905310677012 180.55555555555554 C 51.1905801605144 180.55555555555554 51.3332149022656 180.55555555555554 51.618484385768 181.45833333333331 C 51.9037538692708 182.3611111111111 52.0463886110222 188.3194444444411 52.331658094525 193.19444444444443 C 52.6169275780274 198.0694444444411 52.759562319778595 205.83333333333331 53.044831803281 205.83333333333331 C 53.330101286783794 205.83333333333331 53.4727360285352 201.1111111111136 53.758005512038 197.5 C 54.0432749955404 193.8888888888914 54.1859097372916 191.14087301587062 54.471179220794 187.77777777777777 C 54.7564487042968 184.41468253968014 54.8990834460482 180.6845238095238 55.184352929551 180.6845238095238 C 55.4696224130534 180.6845238095238 55.612257154804595 204.24019607843138 55.897526638307 204.24019607843138 C 56.182796121809794 204.24019607843138 56.3254308635612 178.75 56.610700347064 178.75 C 56.8959698305664 178.75 57.0386045723176 197.21590909090907 57.32387405582 197.21590909090907 C 57.609143539322396 197.21590909090907 57.7517782810736 187.36742424242425 58.037047764576 187.36742424242425 C 58.3223172480788 187.36742424242425 58.464951989830205 192.8999554367187 58.750221473333 195 C 59.0354909568354 197.10004456327843 59.1781256985866 197.86764705882354 59.463395182089 197.86764705882354 C 59.7486646655918 197.86764705882354 59.8912994073432 187.77777777777777 60.176568890846 187.77777777777777 C 60.461838374348396 187.77777777777777 60.6044731160996 187.77777777777777 60.889742599602 192.29166666666666 C 61.1750120831048 196.80555555555554 61.317646824856205 219.375 61.602916308359 219.375 C 61.8881857918614 219.375 62.0308205336126 192.29166666666666 62.316090017115 192.29166666666666 C 62.6013595006178 192.29166666666666 62.7439942423692 192.29166666666666 63.029263725872 193.19444444444443 C 63.314533209374396 194.0972222222222 63.4571679511256 196.38425925925927 63.742437434628 197.70833333333334 C 64.0277069181304 199.03240740740742 64.1703416598816 199.8148148148148 64.455611143384 199.8148148148148 C 64.7408806268868 199.8148148148148 64.8835153686382 194.0972222222222 65.168784852141 193.19444444444443 C 65.4540543356434 192.29166666666666 65.5966890773946 192.29166666666666 65.881958560897 192.29166666666666 C 66.1672280443998 192.29166666666666 66.3098627861512 192.29166666666666 66.595132269654 192.29166666666666 C 66.8804017531564 192.29166666666666 67.0230364949076 201.96428571428572 67.30830597841 201.96428571428572 C 67.5935754619128 201.96428571428572 67.7362102036642 178.75 68.021479687167 178.75 C 68.3067491706694 178.75 68.4493839124206 178.75 68.734653395923 178.75 C 69.0199228794258 178.75 69.1625576211772 178.75 69.44782710468 178.75 C 69.7330965881824 178.75 69.8757313299336 178.75 70.161000813436 178.75 C 70.44627029693841 178.75 70.5889050386896 178.75 70.874174522192 178.75 C 71.15944400569481 178.75 71.3020787474462 180.32986111110984 71.587348230949 182.13541666666666 C 71.87261771445141 183.94097222222095 72.0152524562026 184.84375000000205 72.300521939705 187.77777777777777 C 72.58579142320781 190.7118055555576 72.7284261649592 196.80555555555554 73.013695648462 196.80555555555554 C 73.29896513196441 196.80555555555554 73.4415998737156 178.75 73.726869357218 178.75 C 74.01213884072081 178.75 74.1547735824722 178.75 74.440043065975 178.75 C 74.8546743360934 178.75 75.0619899711526 178.75 75.476621241271 178.75 C 75.6325289381578 178.75 75.7104827866012 183.26388888888886 75.866390483488 183.26388888888886 C 76.15165996699041 183.26388888888886 76.2942947087416 176.28787878787878 76.579564192244 176.28787878787878 C 76.8648336757464 176.28787878787878 77.0074684174976 179.71921596921743 77.292737901 181.75925925925924 C 77.5780073845028 183.799302549304 77.7206421262542 186.48809523809524 78.005911609757 186.48809523809524 C 78.29118109325941 186.48809523809524 78.43381583501059 184.16666666666669 78.719085318513 184.16666666666669 C 79.0043548020158 184.16666666666669 79.1469895437672 195 79.43225902727 195 C 79.7175285107724 195 79.8601632525236 190.03472222222223 80.145432736026 190.03472222222223 C 80.4307022195288 190.03472222222223 80.5733369612802 193.52272727272725 80.858606444783 193.52272727272725 C 81.14387592828541 193.52272727272725 81.28651067003659 191.08698593073441 81.571780153539 188.90625 C 81.8570496370418 186.72551406926254 81.9996843787932 184.2336309523821 82.284953862296 182.6190476190476 C 82.5702233457984 181.00446428571541 82.7128580875496 180.83333333333331 82.998127571052 180.83333333333331 C 83.2833970545544 180.83333333333331 83.4260317963056 188.90625 83.711301279808 188.90625 C 83.9965707633108 188.90625 84.1392055050622 185.52083333333331 84.424474988565 185.52083333333331 C 84.7097444720674 185.52083333333331 84.8523792138186 187.77777777777777 85.137648697321 187.77777777777777 C 85.4229181808238 187.77777777777777 85.5655529225752 187.08333333333331 85.850822406078 187.08333333333331 C 86.1360918895804 187.08333333333331 86.2787266313316 198.4469696969697 86.563996114834 198.4469696969697 C 86.8492655983368 198.4469696969697 86.9919003400882 195 87.277169823591 195 C 87.5624393070934 195 87.70507404884461 200.41666666666666 87.990343532347 200.41666666666666 C 88.27561301584981 200.41666666666666 88.4182477576012 200.41666666666666 88.703517241104 199.0625 C 88.9887867246064 197.70833333333334 89.1314214663576 182.6190476190476 89.41669094986 182.6190476190476 C 89.70196043336239 182.6190476190476 89.8445951751136 185.52083333333331 90.129864658616 185.52083333333331 C 90.4151341421188 185.52083333333331 90.5577688838702 182.6190476190476 90.843038367373 182.6190476190476 C 91.1283078508754 182.6190476190476 91.2709425926266 192.29166666666666 91.556212076129 192.29166666666666 C 91.8414815596318 192.29166666666666 91.98411630138318 191.41994642281895 92.269385784886 188.90625 C 92.59883241756958 186.0032797561523 92.7635557339114 178.75 93.093002366595 178.75 C 95.6604277181182 178.75 96.94414039387979 178.75 99.511565745403 178.75 C 101.7937216134258 178.75 102.93479954743721 178.75 105.21695541546 178.75 C 105.787494382464 178.75 106.072763865966 178.75 106.64330283297 178.75 C 112.633961986522 178.75 115.62929156329801 178.75 121.61995071685 178.75 C 121.86104305117401 178.75 121.98158921833601 192.29166666666666 122.22268155266 192.29166666666666 C 124.79010690417999 192.29166666666666 126.07381957994001 173.33333333333331 128.64124493146 173.33333333333331 C 128.926514414964 173.33333333333331 129.069149156716 184.76851851851853 129.35441864022 184.76851851851853 C 129.639688123724 184.76851851851853 129.782322865476 184.46759259260108 130.06759234898 183.26388888888886 C 130.35286183248 182.0601851851937 130.49549657423 178.75 130.78076605773 178.75 C 131.066035541234 178.75 131.208670282986 183.71527777777766 131.49393976649 185.52083333333331 C 131.77920924999398 187.32638888888877 131.921843991746 187.77777777777777 132.20711347525 187.77777777777777 C 132.49238295874997 187.77777777777777 132.6350177005 186.80555555554287 132.920287184 185 C 133.205556667504 183.19444444443175 133.348191409256 178.75 133.63346089276 178.75 C 133.91873037626402 178.75 134.061365118016 188.59848484848484 134.34663460152 188.59848484848484 C 134.63190408502 188.59848484848484 134.77453882677 178.75 135.05980831027 178.75 C 135.345077793774 178.75 135.487712535526 192.29166666666666 135.77298201903 192.29166666666666 C 136.147398216126 192.29166666666666 136.334606314674 178.75 136.70902251177 178.75 C 136.90514528167802 178.75 137.00320666663202 205.83333333333331 137.19932943654 205.83333333333331 C 137.48459892004402 205.83333333333331 137.62723366179603 199.51388888890776 137.9125031453 196.80555555555554 C 138.1977726288 194.0972222222411 138.34040737055003 192.29166666666666 138.62567685405 192.29166666666666 C 138.910946337554 192.29166666666666 139.053581079306 200.41666666666666 139.33885056281 200.41666666666666 C 139.624120046314 200.41666666666666 139.766754788066 192.29166666666666 140.05202427157 192.29166666666666 C 140.33729375507 192.29166666666666 140.47992849682 196.80555555555554 140.76519798032 196.80555555555554 C 141.050467463824 196.80555555555554 141.193102205576 178.75 141.47837168908 178.75 C 141.763641172584 178.75 141.906275914336 178.75 142.19154539784 178.75 C 142.47681488133998 178.75 142.61944962309 178.75 142.90471910659 178.75 C 143.18998859009398 178.75 143.33262333184598 178.75 143.61789281535 178.75 C 143.903162298854 178.75 144.045797040606 184.55357142857144 144.33106652411 184.55357142857144 C 144.61633600761002 184.55357142857144 144.75897074936 178.75 145.04424023286 178.75 C 145.32950971636402 178.75 145.47214445811602 178.75 145.75741394162 178.75 C 146.042683425124 178.75 146.18531816687602 178.75 146.47058765038 181.2121212121212 C 146.75585713388 183.67424242424238 146.89849187563 198.0952380952381 147.18376135913 198.0952380952381 C 147.469030842634 198.0952380952381 147.611665584386 188.8095238095238 147.89693506789 186.48809523809524 C 148.18220455139002 184.16666666666669 148.32483929314 184.16666666666669 148.61010877664 184.16666666666669 C 148.895378260144 184.16666666666669 149.038013001896 185.52083333333331 149.3232824854 185.52083333333331 C 149.608551968904 185.52083333333331 149.751186710656 185.52083333333331 150.03645619416 185.52083333333331 C 150.32172567766 185.52083333333331 150.46436041940999 183.26388888888886 150.74962990291 183.26388888888886 C 151.034899386414 183.26388888888886 151.177534128166 200.41666666666666 151.46280361167 200.41666666666666 C 151.748073095174 200.41666666666666 151.890707836926 195.67708333333331 152.17597732043 195.67708333333331 C 152.46124680393 195.67708333333331 152.60388154568 205.83333333333331 152.88915102918 205.83333333333331 C 153.17442051268398 205.83333333333331 153.31705525443599 180.34313725490193 153.60232473794 180.34313725490193 C 153.88759422144398 180.34313725490193 154.03022896319598 191.06060606060606 154.3154984467 191.06060606060606 C 154.6007679302 191.06060606060606 154.74340267195 191.06060606060606 155.02867215545 191.06060606060606 C 155.31394163895402 191.06060606060606 155.45657638070603 178.75 155.74184586421 178.75 C 156.02711534771402 178.75 156.16975008946602 178.75 156.45501957297 178.75 C 156.74028905647 178.75 156.88292379822002 182.91666666666666 157.16819328172 182.91666666666666 C 157.453462765224 182.91666666666666 157.596097506976 178.75 157.88136699048 178.75 C 158.166636473984 178.75 158.309271215736 178.75 158.59454069924 178.75 C 158.87981018274 178.75 159.02244492449 178.75 159.30771440799 178.75 C 159.592983891494 178.75 159.735618633246 192.29166666666666 160.02088811675 192.29166666666666 C 160.30615760024997 192.29166666666666 160.448792342 180.55555555555554 160.7340618255 180.55555555555554 C 161.01933130900397 180.55555555555554 161.16196605075598 197.35269360269362 161.44723553426 202.82407407407408 C 161.732505017764 208.29545454545453 161.875139759516 208.29545454545453 162.16040924302 208.29545454545453 C 162.44567872652001 208.29545454545453 162.58831346827 205.1220538720208 162.87358295177 200.41666666666666 C 163.158852435274 195.71127946124642 163.301487177026 184.76851851851853 163.58675666053 184.76851851851853 C 163.872026144034 184.76851851851853 164.014660885786 184.76851851851853 164.29993036929 184.76851851851853 C 164.58519985279 184.76851851851853 164.72783459453998 186.13636363636363 165.01310407804 186.13636363636363 C 165.298373561544 186.13636363636363 165.441008303296 184.39393939393938 165.7262777868 182.91666666666666 C 166.01154727030402 181.43939393939394 166.15418201205603 178.75 166.43945149556 178.75 C 166.72472097906 178.75 166.86735572081002 197.5 167.15262520431 197.5 C 167.437894687814 197.5 167.580529429566 186.875 167.86579891307 186.875 C 168.151068396574 186.875 168.293703138326 190.35714285714283 168.57897262183 190.35714285714283 C 168.86424210533 190.35714285714283 169.00687684708 178.75 169.29214633058 178.75 C 169.577415814084 178.75 169.720050555836 178.75 170.00532003934 178.75 C 170.29058952283998 178.75 170.43322426459002 178.75 170.71849374809 178.75 C 171.003763231594 178.75 171.146397973346 187.77777777777777 171.43166745685 187.77777777777777 C 171.716936940354 187.77777777777777 171.859571682106 176.04166666666666 172.14484116561 176.04166666666666 C 172.43011064911002 176.04166666666666 172.57274539086 180.55555555555554 172.85801487436 180.55555555555554 C 173.14328435786402 180.55555555555554 173.28591909961602 178.75 173.57118858312 178.75 C 173.85645806662401 178.75 173.99909280837602 178.75 174.28436229188 178.75 C 174.56963177538 178.75 174.71226651713 178.75 174.99753600063 178.75 C 175.282805484134 178.75 175.425440225886 178.75 175.71070970939 178.75 C 175.995979192894 178.75 176.138613934646 178.75 176.42388341815 178.75 C 176.70915290165001 178.75 176.8517876434 178.75 177.1370571269 178.75 C 177.422326610404 178.75 177.564961352156 178.75 177.85023083566 178.75 C 178.135500319164 178.75 178.278135060916 178.75 178.56340454442 178.75 C 178.84867402792 178.75 178.99130876966998 174.58333333333331 179.27657825317 174.58333333333331 C 179.561847736674 174.58333333333331 179.704482478426 178.75 179.98975196193 178.75 C 180.27502144543 178.75 180.41765618718 178.75 180.70292567068 178.75 C 180.98819515418398 178.75 181.130829895936 178.75 181.41609937944 178.75 C 181.70136886294398 178.75 181.84400360469598 180.55555555555554 182.1292730882 180.55555555555554 C 182.4145425717 180.55555555555554 182.55717731344998 177.15686274509804 182.84244679695 177.15686274509804 C 183.127716280454 177.15686274509804 183.27035102220597 177.22766884531575 183.55562050571 178.75 C 183.840889989214 180.27233115468397 183.983524730966 184.76851851851853 184.26879421447 184.76851851851853 C 184.55406369796998 184.76851851851853 184.69669843972 178.75 184.98196792322 178.75 C 185.26723740672398 178.75 185.40987214847598 178.75 185.69514163198 178.75 C 185.98041111548397 178.75 186.12304585723598 178.75 186.40831534074 178.75 C 186.69358482424 178.75 186.83621956599 178.75 187.12148904949 178.75 C 187.406758532994 178.75 187.549393274746 178.75 187.83466275825 178.75 C 188.119932241754 178.75 188.262566983506 178.75 188.54783646701 178.75 C 188.83310595050997 178.75 188.97574069226 178.75 189.26101017576 178.75 C 189.54627965926397 178.75 189.68891440101598 178.75 189.97418388452 178.75 C 190.259453368024 178.75 190.402088109776 184.16666666666669 190.68735759328 184.16666666666669 C 190.97262707678001 184.16666666666669 191.11526181853 178.75 191.40053130203 178.75 C 191.685800785534 178.75 191.828435527286 184.76851851851853 192.11370501079 184.76851851851853 C 192.39897449429 184.76851851851853 192.54160923604 178.75 192.82687871954 178.75 C 193.112148203044 178.75 193.25478294479598 178.75 193.5400524283 183.26388888888886 C 193.825321911804 187.77777777777771 193.967956653556 201.31944444444446 194.25322613706 201.31944444444446 C 194.53849562056 201.31944444444446 194.68113036231003 190.0757575757576 194.96639984581 186.875 C 195.251669329314 183.6742424242424 195.39430407106602 185.29924242424232 195.67957355457 183.6742424242424 C 195.964843038074 182.04924242424232 196.107477779826 178.75 196.39274726333 178.75 C 196.67801674683 178.75 196.82065148858 182.6190476190476 197.10592097208 182.6190476190476 C 197.39119045558402 182.6190476190476 197.53382519733603 178.75 197.81909468084 178.75 C 198.10436416434402 178.75 198.24699890609602 187.77777777777777 198.5322683896 187.77777777777777 C 198.8175378731 187.77777777777777 198.96017261485002 184.46759259258403 199.24544209835 183.26388888888886 C 199.530711581854 182.06018518517664 199.673346323606 182.66203703703695 199.95861580711 181.75925925925924 C 200.243885290614 180.8564814814814 200.386520032366 178.75 200.67178951587 178.75 C 200.95705899937002 178.75 201.09969374112 178.75 201.38496322462 178.75 C 201.67023270812402 178.75 201.81286744987602 188.90625 202.09813693338 188.90625 C 202.38340641688 188.90625 202.52604115863 178.75 202.81131064213 178.75 C 203.096580125634 178.75 203.239214867386 178.75 203.52448435089 178.75 C 203.809753834394 178.75 203.952388576146 178.75 204.23765805965 178.75 C 204.52292754315 178.75 204.66556228489998 178.75 204.9508317684 178.75 C 205.236101251904 178.75 205.37873599365602 178.75 205.66400547716 178.75 C 205.949274960664 178.75 206.091909702416 181.90972222221262 206.37717918592 183.26388888888886 C 206.66244866941997 184.61805555554594 206.80508341117002 183.71527777779053 207.09035289467 185.52083333333331 C 207.375622378174 187.32638888890165 207.51825711992598 192.29166666666666 207.80352660343 192.29166666666666 C 208.088796086934 192.29166666666666 208.231430828686 182.6190476190476 208.51670031219 182.6190476190476 C 208.80196979569 182.6190476190476 208.94460453744 198.0952380952381 209.22987402094 198.0952380952381 C 209.51514350444398 198.0952380952381 209.657778246196 181.45833333333331 209.9430477297 181.45833333333331 C 210.22831721320398 181.45833333333331 210.37095195495598 186.7916666666501 210.65622143846 189.16666666666666 C 210.94149092196002 191.5416666666501 211.08412566370998 190.4166666666867 211.36939514721 193.33333333333331 C 211.65466463071397 196.25000000002004 211.79729937246603 203.75 212.08256885597 203.75 C 212.36783833947 203.75 212.51047308121997 187.45535714285717 212.79574256472 186.48809523809524 C 213.08101204822395 185.52083333333331 213.22364678997602 186.08360389610388 213.50891627348 185.52083333333331 C 213.794185756984 184.95806277056272 213.93682049873595 185.02840909091867 214.22208998224 183.6742424242424 C 214.50735946574 182.32007575758533 214.64999420749 180.56818181816914 214.93526369099 178.75 C 215.220533174494 176.9318181818055 215.363167916246 174.58333333333331 215.64843739975 174.58333333333331 C 215.933706883254 174.58333333333331 216.076341625006 178.75 216.36161110851 178.75 C 216.64688059200998 178.75 216.78951533376 178.75 217.07478481726 178.75 C 217.36005430076398 178.75 217.50268904251598 178.75 217.78795852602 178.75 C 218.07322800952397 178.75 218.21586275127598 178.75 218.50113223478 178.75 C 218.78640171828002 178.75 218.92903646003 188.42261904761904 219.21430594353 188.42261904761904 C 219.49957542703402 188.42261904761904 219.642210168786 178.75 219.92747965229 178.75 C 220.212749135794 178.75 220.355383877546 191.25 220.64065336105 191.25 C 220.92592284455 191.25 221.0685575863 185.52083333333331 221.3538270698 185.52083333333331 C 221.639096553304 185.52083333333331 221.78173129505598 188.59848484848484 222.06700077856 188.59848484848484 C 222.352270262064 188.59848484848484 222.49490500381597 178.75 222.78017448732 178.75 C 223.06544397082 178.75 223.20807871257003 178.75 223.49334819607 178.75 C 223.778617679574 178.75 223.92125242132602 190.78703703703704 224.20652190483 190.78703703703704 C 224.49179138833 190.78703703703704 224.63442613008002 189.58333333333331 224.91969561358 189.58333333333331 C 225.204965097084 189.58333333333331 225.347599838836 190.35714285714283 225.63286932234 190.35714285714283 C 225.91813880584405 190.35714285714283 226.060773547596 187.8422619047783 226.3460430311 185.52083333333331 C 226.63131251459998 183.19940476192116 226.77394725635003 178.75 227.05921673985 178.75 C 227.34448622335404 178.75 227.487120965106 178.75 227.77239044861 178.75 C 228.05765993211398 178.75 228.20029467386604 198.0952380952381 228.48556415737 198.0952380952381 C 228.77083364087002 198.0952380952381 228.91346838261998 182.13541666666666 229.19873786612 182.13541666666666 C 229.48400734962402 182.13541666666666 229.62664209137603 187.77777777777777 229.91191157488 187.77777777777777 C 230.19718105838402 187.77777777777777 230.33981580013602 178.75 230.62508528364 178.75 C 230.91035476714 178.75 231.05298950889 182.13541666666666 231.33825899239 182.13541666666666 C 231.623528475894 182.13541666666666 231.766163217646 182.13541666666666 232.05143270115 182.13541666666666 C 232.336702184654 182.13541666666666 232.479336926406 178.75 232.76460640991 178.75 C 233.04987589341 178.75 233.19251063515998 178.75 233.47778011866 178.75 C 233.76304960216402 178.75 233.905684343916 185.52083333330458 234.19095382742 189.58333333333331 C 234.47622331091998 193.64583333330458 234.61885805267002 199.0625 234.90412753617 199.0625 C 235.189397019674 199.0625 235.33203176142598 186.875 235.61730124493 186.875 C 235.90257072843397 186.875 236.045205470186 196.16071428571428 236.33047495369 196.16071428571428 C 236.61574443719002 196.16071428571428 236.75837917894 189.0029761904519 237.04364866244 185.52083333333331 C 237.328918145944 182.03869047616618 237.471552887696 178.75 237.7568223712 178.75 C 238.04209185470398 178.75 238.184726596456 180.1569264069091 238.46999607996 182.6190476190476 C 238.75526556346 185.08116883115153 238.89790030521 188.73917748919368 239.18316978871 191.06060606060606 C 239.46843927221397 193.38203463205082 239.61107401396598 194.22619047619048 239.89634349747 194.22619047619048 C 240.18161298097402 194.22619047619048 240.32424772272597 192.29166666666666 240.60951720623 192.29166666666666 C 240.89478668972998 192.29166666666666 241.03742143148003 198.4469696969697 241.32269091498 198.4469696969697 C 241.607960398484 198.4469696969697 241.75059514023596 178.75 242.03586462374 178.75 C 242.32113410724395 178.75 242.463768848996 180.1287878787803 242.7490383325 181.2121212121212 C 243.034307816 182.29545454544697 243.17694255775 181.40909090911015 243.46221204125 184.16666666666669 C 243.747481524754 186.92424242426168 243.890116266506 195 244.17538575001 195 C 244.46065523350998 195 244.60328997526 178.75 244.88855945876 178.75 C 245.17382894226398 178.75 245.316463684016 184.16666666666669 245.60173316752 184.16666666666669 C 245.88700265102398 184.16666666666669 246.02963739277598 181.75925925925924 246.31490687628 181.75925925925924 C 246.824033662808 181.75925925925924 247.07859705607203 205.83333333333331 247.5877238426 205.83333333333331 C 248.50078429361602 205.83333333333331 248.95731451912403 178.75 249.87037497014 178.75 C 250.21329266176798 178.75 250.384751507582 178.75 250.72766919921 178.75 C 251.24472013805797 178.75 251.503245607482 192.29166666666666 252.02029654633 192.29166666666666 C 253.14790342139798 192.29166666666666 253.711706858932 178.75 254.839313734 178.75 C 255.423323759948 178.75 255.71532877292202 205.83333333333331 256.29933879887 205.83333333333331 C 259.722572600902 205.83333333333331 261.434189501918 151.66666666666666 264.85742330395 151.66666666666666 C 265.42796227095397 151.66666666666666 265.71323175445593 178.75 266.28377072146 178.75 C 267.069252320132 178.75 267.461993119468 178.75 268.24747471814 178.75 C 268.88834053698 178.75 269.20877344639996 205.83333333333331 269.84963926524 205.83333333333331 C 270.600452697516 205.83333333333331 270.975859413654 178.75 271.72667284593 178.75 C 272.593377005874 178.75 273.026729085846 178.75 273.89343324579 178.75 C 274.832445295654 178.75 275.301951320586 178.75 276.24096337045 178.75 C 276.383598112202 178.75 276.454915483078 178.75 276.59755022483 178.75 C 276.751080676018 178.75 276.827845901612 205.83333333333331 276.9813763528 205.83333333333331 C 277.266645836304 205.83333333333331 277.409280578056 178.75 277.69455006156 178.75 C 277.979819545064 178.75 278.122454286816 185.52083333333331 278.40772377032 185.52083333333331 C 278.859202348724 185.52083333333331 279.08494163792597 178.75 279.53642021633 178.75 C 279.942334918898 178.75 280.14529227018204 178.75 280.55120697275 178.75 C 281.13997149009003 178.75 281.43435374876 178.75 282.0231182661 178.75 C 282.859116335808 178.75 283.27711537066205 178.75 284.11311344037 178.75 C 284.398382923874 178.75 284.541017665626 178.75 284.82628714913 178.75 C 287.964251467658 178.75 289.53323362692197 178.75 292.67119794545 178.75 C 292.95646742894996 178.75 293.0991021707 178.75 293.3843716542 178.75 C 293.669641137704 178.75 293.81227587945597 178.75 294.09754536296 178.75 C 294.38281484646393 178.75 294.525449588216 178.75 294.81071907172 178.75 C 295.09598855522 178.75 295.23862329697 178.75 295.52389278047 178.75 C 295.80916226397403 178.75 295.951797005726 178.75 296.23706648923 178.75 C 296.52233597273397 178.75 296.664970714486 178.75 296.95024019799 178.75 C 297.23550968149004 178.75 297.37814442324 178.75 297.66341390674 178.75 C 297.94868339024396 178.75 298.091318131996 178.75 298.3765876155 178.75 C 298.66185709900003 178.75 298.80449184074996 178.75 299.08976132425 178.75 C 299.37503080775394 178.75 299.517665549506 187.77777777777777 299.80293503301 187.77777777777777 C 300.088204516514 187.77777777777777 300.230839258266 178.75 300.51610874177 178.75 C 300.80137822526996 178.75 300.94401296702 178.75 301.22928245052 178.75 C 301.514551934024 178.75 301.657186675776 178.75 301.94245615928 178.75 C 302.22772564278404 178.75 302.370360384536 178.75 302.65562986804 178.75 C 302.94089935154 178.75 303.08353409329004 175.74074074074073 303.36880357679 175.74074074074073 C 305.541408038994 175.74074074074073 306.62771027009603 178.75 308.8003147323 178.75 C 309.443359693028 178.75 309.76488217339204 178.75 310.40792713412 178.75 C 310.978466101128 178.75 311.263735584632 178.75 311.83427455164 178.75 C 319.28832653480004 178.75 323.01535252638007 184.16666666666669 330.46940450954 184.16666666666669 C 330.75467399304 184.16666666666669 330.89730873479004 178.75 331.18257821829 178.75 C 331.467847701794 178.75 331.610482443546 178.75 331.89575192705 178.75 C 332.386058851822 178.75 332.631212314208 178.75 333.12151923898 178.75 C 333.201751281212 178.75 333.241867302328 178.75 333.32209934456 178.75 C 333.607368828064 178.75 333.750003569816 178.75 334.03527305332 178.75 C 334.320542536824 178.75 334.463177278576 178.75 334.74844676208 178.75 C 335.03371624557997 178.75 335.17635098733 172.73148148148147 335.46162047083 172.73148148148147 C 335.746889954334 172.73148148148147 335.88952469608597 178.75 336.17479417959 178.75 C 336.460063663094 178.75 336.60269840484597 178.75 336.88796788835 178.75 C 340.86648666416994 178.75 342.85574605208 151.66666666666666 346.8342648279 151.66666666666666 C 347.547438536656 151.66666666666666 347.904025391034 232.91666666666666 348.61719909979 232.91666666666666 C 348.835311392386 232.91666666666666 348.944367538684 190.30392315147986 349.16247983128 178.75 C 349.55789503202396 157.80392315147986 349.75560263239595 151.66666666666666 350.15101783314 151.66666666666666 C 350.26591804177195 151.66666666666666 350.323368146088 172.5 350.43826835472 172.5 C 350.72353783822393 172.5 350.866172579976 171.97916666666666 351.15144206348 171.97916666666666 C 351.43671154698006 171.97916666666666 351.57934628873 178.75 351.86461577223 178.75 C 352.149885255734 178.75 352.292519997486 178.75 352.57778948099 178.75 C 352.86305896449005 178.75 353.00569370624 178.75 353.29096318974 178.75 C 353.714911942296 178.75 353.926886318574 178.75 354.35083507113 178.75 C 354.782694769082 178.75 354.998624618058 170.7843137254902 355.43048431601 170.7843137254902 C 355.715753799514 170.7843137254902 355.858388541266 178.75 356.14365802477 178.75 C 356.42892750827394 178.75 356.571562250026 161.82291666666666 356.85683173353 161.82291666666666 C 357.14210121703 161.82291666666666 357.28473595877995 178.75 357.57000544228 178.75 C 357.85527492578393 178.75 357.99790966753596 178.75 358.28317915104 178.75 C 358.568448634544 178.75 358.711083376296 178.75 358.9963528598 178.75 C 359.2816223433 178.75 359.42425708505004 178.75 359.70952656855 178.75 C 359.994796052054 178.75 360.137430793806 178.75 360.42270027731 178.75 C 360.707969760814 178.75 360.850604502566 172.73148148148147 361.13587398607 172.73148148148147 C 361.42114346957 172.73148148148147 361.56377821132 180.83333333333331 361.84904769482 180.83333333333331 C 362.134317178324 180.83333333333331 362.276951920076 178.75 362.56222140358 178.75 C 362.84749088707997 178.75 362.99012562883 178.75 363.27539511233 178.75 C 363.745251120658 178.75 363.98017912482203 178.75 364.45003513315 178.75 C 365.26651337431 178.75 365.67475249488996 178.75 366.49123073605 178.75 C 366.631243904078 178.75 366.70125048809206 172.3415155351156 366.84126365612 165.20833333333331 C 367.12653313962 150.67484886844892 367.26916788137004 124.58333333333331 367.55443736487 124.58333333333331 C 367.839706848374 124.58333333333331 367.982341590126 178.75 368.26761107363 178.75 C 368.552880557134 178.75 368.69551529888605 178.75 368.98078478239 178.75 C 369.26605426589003 178.75 369.40868900763996 178.75 369.69395849114 178.75 C 369.979227974644 178.75 370.12186271639604 186.48809523809524 370.4071321999 186.48809523809524 C 370.692401683404 186.48809523809524 370.835036425156 165.20833333333331 371.12030590866 165.20833333333331 C 371.40557539215996 165.20833333333331 371.54821013391 178.75 371.83347961741 178.75 C 372.118749100914 178.75 372.26138384266596 178.75 372.54665332617 178.75 C 372.83192280967 178.75 372.97455755142 178.75 373.25982703492 178.75 C 373.54509651842403 178.75 373.687731260176 178.75 373.97300074368 178.75 C 374.25827022718397 178.75 374.40090496893606 178.75 374.68617445244 178.75 C 374.97144393594004 178.75 375.11407867769 178.75 375.39934816119 178.75 C 375.68461764469396 178.75 375.82725238644605 187.77777777777777 376.11252186995 187.77777777777777 C 376.397791353454 187.77777777777777 376.540426095206 187.77777777777777 376.82569557871 187.77777777777777 C 377.11096506220997 187.77777777777777 377.25359980396 183.42858483481726 377.53886928746 180.94594594594594 C 377.824138770964 178.4633070570395 377.966773512716 180.55987008349862 378.25204299622 175.36458333333331 C 378.53731247972394 170.16929658316903 378.679947221476 154.96951219512195 378.96521670498 154.96951219512195 C 379.25048618848007 154.96951219512195 379.39312093023 178.75 379.67839041373 178.75 C 379.963659897234 178.75 380.106294638986 177.22115793954876 380.39156412249 175.01436781609195 C 380.67683360599403 172.80757769263516 380.819468347746 167.71604938271605 381.10473783125 167.71604938271605 C 381.39000731475 167.71604938271605 381.53264205650004 167.71604938271605 381.81791154 168.59375 C 382.103181023504 169.47145061728395 382.245815765256 186.48809523809524 382.53108524876 186.48809523809524 C 382.81635473226396 186.48809523809524 382.958989474016 178.75 383.24425895752 178.75 C 383.52952844102003 178.75 383.67216318276996 178.75 383.95743266627 178.75 C 384.42459776453796 178.75 384.658180313672 178.75 385.12534541194 178.75 C 385.228719280676 178.75 385.28040621504397 171.97916666666666 385.38378008378 171.97916666666666 C 385.66904956728393 171.97916666666666 385.81168430903597 171.97916666666666 386.09695379254 171.97916666666666 C 386.382223276044 171.97916666666666 386.52485801779596 174.0104166666572 386.8101275013 175.36458333333331 C 387.0953969848 176.71874999999054 387.23803172655 175.36458333333331 387.52330121005 178.75 C 388.01416942894605 182.13541666666669 388.259603538394 205.83333333333331 388.75047175729 205.83333333333331 C 388.85810485789796 205.83333333333331 388.91192140820203 178.75 389.01955450881 178.75 C 389.276861639814 178.75 389.40551520531596 178.75 389.66282233632 178.75 C 390.233361303328 178.75 390.518630786832 178.75 391.08916975384 178.75 C 391.53499907198403 178.75 391.75791373105596 178.75 392.2037430492 178.75 C 394.212145868424 178.75 395.21634727803604 178.75 397.22475009726 178.75 C 397.337943311412 178.75 397.394539918488 158.4375 397.50773313264 158.4375 C 398.363541583148 158.4375 398.79144580840205 178.75 399.64725425891 178.75 C 399.932523742414 178.75 400.07515848416597 178.75 400.36042796767 178.75 C 400.645697451174 178.75 400.788332192926 181.2121212121212 401.07360167643 181.2121212121212 C 401.35887115993 181.2121212121212 401.50150590167993 178.75 401.78677538518 178.75 C 402.072044868684 178.75 402.21467961043606 178.75 402.49994909394 178.75 C 402.785218577444 178.75 402.927853319196 178.75 403.2131228027 178.75 C 403.4983922862 178.75 403.64102702795003 178.75 403.92629651145 178.75 C 404.211565994954 178.75 404.354200736706 181.75925925925924 404.63947022021 181.75925925925924 C 404.92473970371 181.75925925925924 405.06737444546 178.75 405.35264392896 178.75 C 405.637913412464 178.75 405.780548154216 178.75 406.06581763772 178.75 C 406.35108712122394 178.75 406.49372186297603 178.75 406.77899134648 178.75 C 407.06426082998 178.75 407.20689557172994 178.75 407.49216505523 178.75 C 407.777434538734 178.75 407.920069280486 178.75 408.20533876399 178.75 C 408.49060824749404 178.75 408.633242989246 178.75 408.91851247275 178.75 C 409.20378195625 178.75 409.34641669800004 178.75 409.6316861815 178.75 C 409.916955665004 178.75 410.059590406756 178.75 410.34485989026 178.75 C 410.63012937376396 178.75 410.772764115516 178.75 411.05803359902 178.75 C 411.34330308252004 178.75 411.48593782426997 178.75 411.77120730777 178.75 C 412.05647679127395 178.75 412.199111533026 178.75 412.48438101653 178.75 C 412.769650500034 178.75 412.912285241786 178.75 413.19755472529 178.75 C 413.48282420878996 178.75 413.62545895054 178.75 413.91072843404 178.75 C 414.195997917544 178.75 414.33863265929597 178.75 414.6239021428 178.75 C 414.90917162630393 178.75 415.05180636805596 178.75 415.33707585156 178.75 C 415.62234533506 178.75 415.76498007681005 178.75 416.05024956031 178.75 C 416.33551904381403 178.75 416.47815378556606 178.75 416.76342326907 178.75 C 417.04869275257005 178.75 417.19132749432003 178.75 417.47659697782 178.75 C 417.761866461324 178.75 417.90450120307594 178.75 418.18977068658 178.75 C 418.676931062532 178.75 418.920511250508 178.75 419.40767162646 178.75 C 419.491050217512 178.75 419.532739513038 178.75 419.61611810409 178.75 C 419.90138758759406 178.75 420.044022329346 178.75 420.32929181285 178.75 C 420.614561296354 178.75 420.7571960381059 178.75 421.04246552161 178.75 C 421.32773500510996 178.75 421.47036974686 178.75 421.75563923036 178.75 C 422.040908713864 178.75 422.183543455616 178.75 422.46881293912 178.75 C 422.75408242262404 178.75 422.89671716437607 178.75 423.18198664788 178.75 C 423.46725613138005 178.75 423.60989087313 178.75 423.89516035663 178.75 C 424.180429840134 178.75 424.32306458188606 178.75 424.60833406539 178.75 C 424.893603548894 178.75 425.036238290646 178.75 425.32150777415 178.75 C 425.892046741154 178.75 426.177316224656 178.75 426.74785519166 178.75 C 427.318394158664 178.75 427.603663642166 178.75 428.17420260917 178.75 C 428.459472092674 178.75 428.602106834426 178.75 428.88737631793 178.75 C 429.17264580143 178.75 429.31528054317994 178.75 429.60055002668 178.75 C 429.88581951018404 178.75 430.02845425193607 178.75 430.31372373544 178.75 C 430.5989932189441 178.75 430.74162796069595 178.75 431.0268974442 178.75 C 431.31216692769993 178.75 431.45480166945 178.75 431.74007115295 178.75 C 432.04535572452204 178.75 432.197998010308 178.75 432.50328258188 178.75 C 433.05380646081596 178.75 433.329068400284 178.75 433.87959227922 178.75 C 434.16486176272394 178.75 434.307496504476 178.75 434.59276598798 178.75 C 434.87803547148394 178.75 435.02067021323603 178.75 435.30593969674 178.75 C 435.59120918024 178.75 435.73384392199006 178.75 436.01911340549 178.75 C 436.30438288899404 178.75 436.447017630746 178.75 436.73228711425 178.75 C 437.01755659775 178.75 437.16019133950005 178.75 437.445460823 178.75 C 437.73073030650403 178.75 437.873365048256 178.75 438.15863453176 178.75 C 438.44390401526397 178.75 438.586538757016 178.75 438.87180824052 178.75 C 439.15707772402004 178.75 439.29971246576997 178.75 439.58498194927 178.75 C 439.87025143277396 178.75 440.012886174526 178.75 440.29815565803 178.75 C 440.583425141534 178.75 440.726059883286 178.75 441.01132936679 178.75 C 441.56162212461794 178.75 441.83676850353197 178.75 442.38706126136 178.75 C 442.97784643754005 178.75 443.27323902563 178.75 443.86402420181 178.75 C 444.14929368531403 178.75 444.29192842706595 178.75 444.57719791057 178.75 C 444.862467394074 178.75 445.005102135826 178.75 445.29037161933 178.75 C 445.57564110283 178.75 445.71827584458003 178.75 446.00354532808 178.75 C 446.2888148115841 178.75 446.431449553336 178.75 446.71671903684 178.75 C 447.00198852034 178.75 447.14462326208997 181.909722222247 447.42989274559 185.52083333333331 C 447.71516222909395 189.13194444446924 447.857796970846 196.80555555555554 448.14306645435 196.80555555555554 C 448.428335937854 196.80555555555554 448.57097067960603 178.75 448.85624016311 178.75 C 449.14150964661 178.75 449.28414438836 178.75 449.56941387186 178.75 C 449.854683355364 178.75 449.9973180971159 178.75 450.28258758062 178.75 C 450.56785706412404 178.75 450.71049180587596 178.75 450.99576128938 178.75 C 451.700974526784 178.75 452.05358114548596 178.75 452.75879438289 178.75 C 452.90938959599396 178.75 452.98468720254607 178.75 453.13528241565 178.75 C 453.42055189915 178.75 453.5631866409 196.80555555555554 453.8484561244 196.80555555555554 C 454.133725607904 196.80555555555554 454.276360349656 178.75 454.56162983316 178.75 C 454.846899316664 178.75 454.98953405841604 187.77777777777777 455.27480354192 187.77777777777777 C 455.96129266774005 187.77777777777777 456.30453723065 178.75 456.99102635647 178.75 C 457.160345681158 178.75 457.245005343502 178.75 457.41432466819 178.75 C 458.22898695777803 178.75 459.45098039216 205.83333333333331 459.45098039216 205.83333333333331" class="highcharts-graph" data-z-index="1" stroke="#5D83FF" stroke-width="2" stroke-linejoin="round" stroke-linecap="round"></path></g><g data-z-index="0.1" class="highcharts-markers highcharts-series-1 highcharts-spline-series highcharts-color-1 " transform="translate(68,63) scale(1 1)" clip-path="none"></g></g><text x="300" text-anchor="middle" class="highcharts-title" data-z-index="4" style="color:#333333;font-size:18px;fill:#333333;" y="24"><tspan>Xvideos.com Usage &amp; Overall Mood Over Time</tspan></text><text x="300" text-anchor="middle" class="highcharts-subtitle" data-z-index="4" style="color:#666666;fill:#666666;" y="46"><tspan>Black represents the sum of Xvideos.com Usage over the previous 7 days</tspan></text><g class="highcharts-legend" data-z-index="7" transform="translate(126,358)"><rect fill="none" class="highcharts-legend-box" rx="0" ry="0" x="0" y="0" width="349" height="27" visibility="visible"></rect><g data-z-index="1"><g><g class="highcharts-legend-item highcharts-spline-series highcharts-color-0 highcharts-series-0" data-z-index="1" transform="translate(8,3)"><path fill="none" d="M 0 11 L 16 11" class="highcharts-graph" stroke="#000000" stroke-width="2"></path><path fill="#000000" d="M 12 11 A 4 4 0 1 1 11.999998000000167 10.996000000666664 Z" class="highcharts-point"></path><text x="21" style="color:#333333;font-size:12px;font-weight:bold;cursor:pointer;fill:#333333;" text-anchor="start" data-z-index="2" y="15"><tspan>Xvideos.com Usage (h)</tspan></text></g><g class="highcharts-legend-item highcharts-spline-series highcharts-color-1 highcharts-series-1" data-z-index="1" transform="translate(201,3)"><path fill="none" d="M 0 11 L 16 11" class="highcharts-graph" stroke="#5D83FF" stroke-width="2"></path><path fill="#5D83FF" d="M 8 7 L 12 11 8 15 4 11 Z" class="highcharts-point"></path><text x="21" y="15" style="color:#333333;font-size:12px;font-weight:bold;cursor:pointer;fill:#333333;" text-anchor="start" data-z-index="2"><tspan>Overall Mood (/5)</tspan></text></g></g></g></g><g class="highcharts-axis-labels highcharts-xaxis-labels " data-z-index="7"><text x="73.371363498536" style="color:#666666;cursor:default;font-size:11px;fill:#666666;" text-anchor="start" transform="translate(0,0)" y="342" opacity="1"><tspan>Jan '14</tspan></text><text x="333.67976719464" style="color:#666666;cursor:default;font-size:11px;fill:#666666;" text-anchor="start" transform="translate(0,0)" y="342" opacity="1"><tspan>Jan '15</tspan></text><text x="202.45580478345" style="color:#666666;cursor:default;font-size:11px;fill:#666666;" text-anchor="start" transform="translate(0,0)" y="342" opacity="1"><tspan>Jul '14</tspan></text><text x="462.76420847955" style="color:#666666;cursor:default;font-size:11px;fill:#666666;" text-anchor="start" transform="translate(0,0)" y="342" opacity="1"><tspan>Jul '15</tspan></text></g><g class="highcharts-axis-labels highcharts-yaxis-labels " data-z-index="7"><text x="53" style="color:#666666;cursor:default;font-size:11px;fill:#666666;" text-anchor="end" transform="translate(0,0)" y="327" opacity="1">0</text><text x="53" style="color:#666666;cursor:default;font-size:11px;fill:#666666;" text-anchor="end" transform="translate(0,0)" y="262" opacity="1">0.2</text><text x="53" style="color:#666666;cursor:default;font-size:11px;fill:#666666;" text-anchor="end" transform="translate(0,0)" y="197" opacity="1">0.4</text><text x="53" style="color:#666666;cursor:default;font-size:11px;fill:#666666;" text-anchor="end" transform="translate(0,0)" y="132" opacity="1">0.6</text><text x="53" style="color:#666666;cursor:default;font-size:11px;fill:#666666;" text-anchor="end" transform="translate(0,0)" y="67" opacity="1">0.8</text></g><g class="highcharts-axis-labels highcharts-yaxis-labels " data-z-index="7"><text x="547" style="color:#666666;cursor:default;font-size:11px;fill:#666666;" text-anchor="start" transform="translate(0,0)" y="327" opacity="1">0</text><text x="547" style="color:#666666;cursor:default;font-size:11px;fill:#666666;" text-anchor="start" transform="translate(0,0)" y="262" opacity="1">2.4</text><text x="547" style="color:#666666;cursor:default;font-size:11px;fill:#666666;" text-anchor="start" transform="translate(0,0)" y="197" opacity="1">4.8</text><text x="547" style="color:#666666;cursor:default;font-size:11px;fill:#666666;" text-anchor="start" transform="translate(0,0)" y="132" opacity="1">7.2</text><text x="547" style="color:#666666;cursor:default;font-size:11px;fill:#666666;" text-anchor="start" transform="translate(0,0)" y="67" opacity="1">9.6</text></g><a xlink:href="https://quantimo.do" target="_blank">
                    <text x="590" class="highcharts-credits" text-anchor="end" data-z-index="8"
                          style="cursor:pointer;color:#999999;font-size:9px;fill:#999999;" y="395">https://quantimo.do
                    </text>
                </a></svg>