<?xml version="1.0" standalone="no"?><!DOCTYPE svg PUBLIC "-//W3C//DTD SVG 1.1//EN" "http://www.w3.org/Graphics/SVG/1.1/DTD/svg11.dtd"><svg xmlns:xlink="http://www.w3.org/1999/xlink" version="1.1" class="highcharts-root" style="font-family:&quot;Lucida Grande&quot;, &quot;Lucida Sans Unicode&quot;, Arial, Helvetica, sans-serif;font-size:12px;" xmlns="http://www.w3.org/2000/svg" width="600" height="400"><desc>Created with Highstock 6.2.0</desc><defs><clipPath id="highcharts-gdv8ysb-351"><rect x="0" y="0" width="541" height="299" fill="none"></rect></clipPath><clipPath id="highcharts-gdv8ysb-696"><rect x="0" y="0" width="541" height="299" fill="none"></rect></clipPath><clipPath id="highcharts-gdv8ysb-697"><rect x="49" y="63" width="541" height="299" fill="none"></rect></clipPath></defs><rect fill="#ffffff" class="highcharts-background" x="0" y="0" width="600" height="400" rx="0" ry="0"></rect><rect fill="none" class="highcharts-plot-background" x="49" y="63" width="541" height="299"></rect><g class="highcharts-pane-group" data-z-index="0"></g><g class="highcharts-grid highcharts-xaxis-grid " data-z-index="1"><path fill="none" data-z-index="1" class="highcharts-grid-line" d="M 127.5 63 L 127.5 362" opacity="1"></path><path fill="none" data-z-index="1" class="highcharts-grid-line" d="M 223.5 63 L 223.5 362" opacity="1"></path><path fill="none" data-z-index="1" class="highcharts-grid-line" d="M 317.5 63 L 317.5 362" opacity="1"></path><path fill="none" data-z-index="1" class="highcharts-grid-line" d="M 411.5 63 L 411.5 362" opacity="1"></path><path fill="none" data-z-index="1" class="highcharts-grid-line" d="M 503.5 63 L 503.5 362" opacity="1"></path></g><g class="highcharts-grid highcharts-yaxis-grid " data-z-index="1"><path fill="none" stroke="#e6e6e6" stroke-width="1" data-z-index="1" class="highcharts-grid-line" d="M 49 362.5 L 590 362.5" opacity="1"></path><path fill="none" stroke="#e6e6e6" stroke-width="1" data-z-index="1" class="highcharts-grid-line" d="M 49 302.5 L 590 302.5" opacity="1"></path><path fill="none" stroke="#e6e6e6" stroke-width="1" data-z-index="1" class="highcharts-grid-line" d="M 49 242.5 L 590 242.5" opacity="1"></path><path fill="none" stroke="#e6e6e6" stroke-width="1" data-z-index="1" class="highcharts-grid-line" d="M 49 183.5 L 590 183.5" opacity="1"></path><path fill="none" stroke="#e6e6e6" stroke-width="1" data-z-index="1" class="highcharts-grid-line" d="M 49 123.5 L 590 123.5" opacity="1"></path><path fill="none" stroke="#e6e6e6" stroke-width="1" data-z-index="1" class="highcharts-grid-line" d="M 49 62.5 L 590 62.5" opacity="1"></path></g><rect fill="none" class="highcharts-plot-border" data-z-index="1" x="49" y="63" width="541" height="299"></rect><g class="highcharts-axis highcharts-xaxis " data-z-index="2"><path fill="none" class="highcharts-tick" stroke="#ccd6eb" stroke-width="1" d="M 127.5 362 L 127.5 372" opacity="1"></path><path fill="none" class="highcharts-tick" stroke="#ccd6eb" stroke-width="1" d="M 223.5 362 L 223.5 372" opacity="1"></path><path fill="none" class="highcharts-tick" stroke="#ccd6eb" stroke-width="1" d="M 317.5 362 L 317.5 372" opacity="1"></path><path fill="none" class="highcharts-tick" stroke="#ccd6eb" stroke-width="1" d="M 411.5 362 L 411.5 372" opacity="1"></path><path fill="none" class="highcharts-tick" stroke="#ccd6eb" stroke-width="1" d="M 503.5 362 L 503.5 372" opacity="1"></path><path fill="none" class="highcharts-axis-line" stroke="#ccd6eb" stroke-width="1" data-z-index="7" d="M 49 362.5 L 590 362.5"></path></g><g class="highcharts-axis highcharts-yaxis " data-z-index="2"><path fill="none" class="highcharts-axis-line" data-z-index="7" d="M 49 63 L 49 362"></path></g><g class="highcharts-series-group" data-z-index="3"><g data-z-index="0.1" class="highcharts-series highcharts-series-0 highcharts-spline-series highcharts-color-0 " transform="translate(49,63) scale(1 1)" clip-path="url(#highcharts-gdv8ysb-696)"><path fill="none" d="M 5.3039215686275 299 C 5.3039215686275 299 6.23172125993258 299 6.8502543874693 299 C 7.468787515006019 299 7.77805407877438 299 8.3965872063111 299 C 9.01512033384782 299 9.32438689761618 299 9.9429200251529 299 C 10.56145315268974 299 10.87071971645816 299 11.489252843995 299 C 12.1077859715318 299 12.4170525353002 299 13.035585662837 299 C 13.6541187903734 299 13.963385354141598 299 14.581918481678 299 C 15.200451609214799 299 15.509718172983199 299 16.12825130052 299 C 16.7467844280568 299 17.0560509918252 299 17.674584119362 299 C 18.2931172468988 299 18.6023838106672 299 19.220916938204 299 C 19.8394500657408 299 20.1487166295092 299 20.767249757046 299 C 21.385782884582397 299 21.695049448350602 299 22.313582575887 299 C 22.9321157034238 299 23.2413822671922 299 23.859915394729 299 C 24.4784485222658 299 24.7877150860342 299 25.406248213571 299 C 26.024781341107804 299 26.3340479048762 299 26.952581032413 299 C 27.571114159949797 299 27.8803807237182 299 28.498913851255 299 C 29.117446978791804 299 29.4267135425602 299 30.045246670097 299 C 30.663779797633403 299 30.9730463614016 299 31.591579488938 299 C 32.2101126164748 299 32.5193791802432 299 33.13791230778 299 C 33.7564454353168 299 34.0657119990852 299 34.684245126622 299 C 35.3027782541588 299 35.6120448179272 299 36.230577945464 299 C 36.8491110730008 299 37.1583776367692 299 37.776910764306 299 C 38.3954438918428 299 38.7047104556112 299 39.323243583148 299 C 39.9417767106844 299 40.2510432744526 299 40.869576401989 299 C 41.4881095295258 299 41.797376093294204 299 42.415909220831 299 C 43.0344423483678 299 43.343708912136194 299 43.962242039673 299 C 44.5807751672098 299 44.8900417309782 299 45.508574858515 299 C 46.1271079860518 299 46.4363745498202 299 47.054907677357 299 C 47.6734408048934 299 47.9827073686616 299 48.601240496198 299 C 49.21977362373481 299 49.5290401875032 299 50.14757331504 299 C 50.7661064425768 299 51.0753730063452 59.80000000000001 51.693906133882 59.80000000000001 C 52.31243926141881 59.80000000000001 52.6217058251872 59.80000000000001 53.240238952724 59.80000000000001 C 53.858772080260806 59.80000000000001 54.16803864402921 59.80000000000001 54.786571771566 59.80000000000001 C 55.4081116573616 59.80000000000001 55.718881600259394 59.80000000000001 56.340421486055 59.80000000000001 C 56.9559478553326 59.80000000000001 57.2637110399714 59.80000000000001 57.879237409249 59.80000000000001 C 58.4977705367858 59.80000000000001 58.807037100554204 59.80000000000001 59.425570228091 59.80000000000001 C 60.08533889746379 59.80000000000001 60.4152232321502 59.80000000000001 61.074991901523 59.80000000000001 C 61.7858754612958 59.80000000000001 62.14131724118219 59.80000000000001 62.852200800955 59.80000000000001 C 63.3371479544198 59.80000000000001 63.5796215311522 59.80000000000001 64.064568684617 59.80000000000001 C 64.68310181215381 59.80000000000001 64.99236837592221 59.80000000000001 65.610901503459 59.80000000000001 C 66.22943463099541 59.80000000000001 66.5387011947636 299 67.1572343223 299 C 67.7757674498368 299 68.0850340136052 59.80000000000001 68.703567141142 59.80000000000001 C 69.32210026867881 59.80000000000001 69.6313668324472 59.80000000000001 70.249899959984 59.80000000000001 C 70.8684330875208 59.80000000000001 71.1776996512892 59.80000000000001 71.796232778826 59.80000000000001 C 72.4147659063628 59.80000000000001 72.72403247013119 59.80000000000001 73.342565597668 59.80000000000001 C 73.9610987252044 59.80000000000001 74.2703652889726 299 74.888898416509 299 C 75.50743154404579 299 75.81669810781419 299 76.435231235351 299 C 77.05376436288779 299 77.3630309266562 59.80000000000001 77.981564054193 59.80000000000001 C 78.60009718172981 59.80000000000001 78.90936374549821 59.80000000000001 79.527896873035 59.80000000000001 C 80.2246057153022 59.80000000000001 80.5729601364358 59.80000000000001 81.269668978703 59.80000000000001 C 81.8100263915094 59.80000000000001 82.0802050979126 59.80000000000001 82.620562510719 59.80000000000001 C 83.2390956382554 59.80000000000001 83.5483622020236 59.80000000000001 84.16689532956 59.80000000000001 C 84.7854284570968 59.80000000000001 85.0946950208652 59.80000000000001 85.713228148402 59.80000000000001 C 86.3317612759388 59.80000000000001 86.6410278397072 59.80000000000001 87.259560967244 59.80000000000001 C 87.9279203744988 59.80000000000001 88.2621000781262 59.80000000000001 88.930459485381 59.80000000000001 C 89.4991663331998 59.80000000000001 89.7835197571092 59.80000000000001 90.352226604928 59.80000000000001 C 90.97075973246481 59.80000000000001 91.2800262962332 59.80000000000001 91.89855942377 59.80000000000001 C 92.5170925513064 59.80000000000001 92.82635911507461 59.80000000000001 93.444892242611 59.80000000000001 C 94.0634253701478 59.80000000000001 94.37269193391619 59.80000000000001 94.991225061453 59.80000000000001 C 95.7102698222146 59.80000000000001 96.06979220259541 59.80000000000001 96.788836963357 59.80000000000001 C 97.306858457669 59.80000000000001 97.565869204825 59.80000000000001 98.083890699137 59.80000000000001 C 98.70242382667381 59.80000000000001 99.01169039044221 299 99.630223517979 299 C 100.2487566455154 299 100.5580232092836 299 101.17655633682 299 C 101.795089464356 299 102.10435602812399 59.80000000000001 102.72288915566 59.80000000000001 C 103.341422283196 59.80000000000001 103.650688846964 59.80000000000001 104.2692219745 59.80000000000001 C 104.88775510204 59.80000000000001 105.19702166581001 59.80000000000001 105.81555479335 59.80000000000001 C 106.43408792088601 59.80000000000001 106.74335448465399 299 107.36188761219 299 C 107.98042073972601 299 108.28968730349399 299 108.90822043103 299 C 109.526753558566 299 109.836020122334 299 110.45455324987 299 C 111.073086377406 299 111.382352941174 299 112.00088606871 299 C 112.61941919625 299 112.92868576002002 59.80000000000001 113.54721888756 59.80000000000001 C 114.629651860748 59.80000000000001 115.17086834734201 59.80000000000001 116.25330132053 59.80000000000001 C 116.407934602414 59.80000000000001 116.48525124335602 59.80000000000001 116.63988452524 59.80000000000001 C 117.722317498428 59.80000000000001 118.26353398502201 59.80000000000001 119.34596695821 59.80000000000001 C 119.964500085746 59.80000000000001 120.273766649514 59.80000000000001 120.89229977705 59.80000000000001 C 121.51083290459 59.80000000000001 121.82009946836001 59.80000000000001 122.4386325959 59.80000000000001 C 123.05716572343599 59.80000000000001 123.36643228720399 59.80000000000001 123.98496541474 59.80000000000001 C 124.603498542276 59.80000000000001 124.912765106044 59.80000000000001 125.53129823358 59.80000000000001 C 126.149831361116 59.80000000000001 126.459097924884 59.80000000000001 127.07763105242 59.80000000000001 C 127.69616417995601 59.80000000000001 128.005430743724 59.80000000000001 128.62396387126 59.80000000000001 C 129.242496998796 59.80000000000001 129.551763562564 59.80000000000001 130.1702966901 59.80000000000001 C 130.78882981764 59.80000000000001 131.09809638141002 59.80000000000001 131.71662950895 59.80000000000001 C 132.33516263648602 59.80000000000001 132.64442920025402 59.80000000000001 133.26296232779 59.80000000000001 C 133.88149545532602 59.80000000000001 134.19076201909402 59.80000000000001 134.80929514663 59.80000000000001 C 135.427828274166 59.80000000000001 135.737094837934 59.80000000000001 136.35562796547 59.80000000000001 C 136.974161093006 59.80000000000001 137.283427656774 59.80000000000001 137.90196078431 59.80000000000001 C 138.52049391185 59.80000000000001 138.82976047562002 59.80000000000001 139.44829360316 59.80000000000001 C 140.06682673069602 59.80000000000001 140.376093294464 59.80000000000001 140.994626422 59.80000000000001 C 141.61315954953602 59.80000000000001 141.922426113304 59.80000000000001 142.54095924084 59.80000000000001 C 143.159492368376 59.80000000000001 143.468758932144 59.80000000000001 144.08729205968 59.80000000000001 C 144.70582518721602 59.80000000000001 145.01509175098403 59.80000000000001 145.63362487852 59.80000000000001 C 146.25215800605602 59.80000000000001 146.56142456982403 59.80000000000001 147.17995769736 59.80000000000001 C 147.7984908249 59.80000000000001 148.10775738867 59.80000000000001 148.72629051621 59.80000000000001 C 149.344823643746 59.80000000000001 149.654090207514 59.80000000000001 150.27262333505 59.80000000000001 C 150.42725661693402 59.80000000000001 150.504573257876 299 150.65920653976 299 C 151.74163951294798 299 152.28285599954202 59.80000000000001 153.36528897273 59.80000000000001 C 153.519922254614 59.80000000000001 153.59723889555602 299 153.75187217744 299 C 154.83430515063202 299 155.375521637228 59.80000000000001 156.45795461042 59.80000000000001 C 157.076487737956 59.80000000000001 157.385754301724 59.80000000000001 158.00428742926 59.80000000000001 C 158.62282055679597 59.80000000000001 158.93208712056398 59.80000000000001 159.5506202481 59.80000000000001 C 160.16915337563597 59.80000000000001 160.47841993940398 59.80000000000001 161.09695306694 59.80000000000001 C 161.715486194476 59.80000000000001 162.024752758244 59.80000000000001 162.64328588578 59.80000000000001 C 163.261819013316 59.80000000000001 163.57108557708398 59.80000000000001 164.18961870462 59.80000000000001 C 164.80815183216 59.80000000000001 165.11741839592997 59.80000000000001 165.73595152347 59.80000000000001 C 166.35448465100598 59.80000000000001 166.66375121477398 59.80000000000001 167.28228434231 59.80000000000001 C 167.900817469846 59.80000000000001 168.210084033614 59.80000000000001 168.82861716115 59.80000000000001 C 169.447150288686 59.80000000000001 169.756416852454 59.80000000000001 170.37494997999 59.80000000000001 C 170.99348310752598 59.80000000000001 171.30274967129398 59.80000000000001 171.92128279883 59.80000000000001 C 172.53981592636998 59.80000000000001 172.84908249014 59.80000000000001 173.46761561768 59.80000000000001 C 174.086148745216 59.80000000000001 174.395415308984 59.80000000000001 175.01394843652 59.80000000000001 C 175.632481564056 59.80000000000001 175.94174812782398 59.80000000000001 176.56028125536 59.80000000000001 C 177.178814382896 59.80000000000001 177.48808094666398 59.80000000000001 178.1066140742 59.80000000000001 C 178.72514720173598 59.80000000000001 179.03441376550398 59.80000000000001 179.65294689304 59.80000000000001 C 179.807580174924 59.80000000000001 179.884896815866 299 180.03953009775 299 C 180.65806322529002 299 180.96732978906 299 181.5858629166 299 C 182.668295889788 299 183.209512376382 59.80000000000001 184.29194534957 59.80000000000001 C 184.91047847710598 59.80000000000001 185.21974504087402 59.80000000000001 185.83827816841 59.80000000000001 C 185.992911450294 59.80000000000001 186.070228091236 299 186.22486137312 299 C 186.843394500656 299 187.152661064424 299 187.77119419196 299 C 188.853627165152 299 189.39484365174798 59.80000000000001 190.47727662494 59.80000000000001 C 191.095809752476 59.80000000000001 191.405076316244 59.80000000000001 192.02360944378 59.80000000000001 C 192.178242725664 59.80000000000001 192.255559366606 299 192.41019264849 299 C 193.492625621678 299 194.033842108272 59.80000000000001 195.11627508146 59.80000000000001 C 195.734808208996 59.80000000000001 196.044074772764 59.80000000000001 196.6626079003 59.80000000000001 C 196.81724118218398 59.80000000000001 196.89455782312604 299 197.04919110501 299 C 198.131624078202 299 198.67284056479804 59.80000000000001 199.75527353799 59.80000000000001 C 199.909906819874 59.80000000000001 199.98722346081598 299 200.1418567427 299 C 201.224289715888 299 201.765506202482 59.80000000000001 202.84793917567 59.80000000000001 C 203.466472303206 59.80000000000001 203.775738866974 59.80000000000001 204.39427199451 59.80000000000001 C 205.012805122046 59.80000000000001 205.322071685814 59.80000000000001 205.94060481335 59.80000000000001 C 206.09523809523404 59.80000000000001 206.172554736176 299 206.32718801806 299 C 206.9457211456 299 207.25498770937003 299 207.87352083691 299 C 208.492053964446 299 208.801320528214 299 209.41985365575 299 C 210.03838678328597 299 210.34765334705398 299 210.96618647459 299 C 211.584719602126 299 211.893986165894 299 212.51251929343 299 C 213.131052420966 299 213.440318984734 299 214.05885211227 299 C 214.67738523980998 299 214.98665180357997 299 215.60518493112 299 C 216.223718058656 299 216.532984622424 299 217.15151774996 299 C 217.77005087749598 299 218.07931744126398 299 218.6978505688 299 C 219.31638369633598 299 219.62565026010398 299 220.24418338764 299 C 220.862716515176 299 221.171983078944 299 221.79051620648 299 C 222.40904933401598 299 222.71831589778398 299 223.33684902532 299 C 223.95538215285995 299 224.26464871663 299 224.88318184417 299 C 225.501714971706 299 225.810981535474 299 226.42951466301 299 C 227.04804779054604 299 227.35731435431398 299 227.97584748185 299 C 228.594380609386 299 228.90364717315396 299 229.52218030069 299 C 230.14071342822598 299 230.44997999199398 299 231.06851311953 299 C 231.68704624707 299 231.99631281084004 299 232.61484593838 299 C 233.233379065916 299 233.54264562968402 299 234.16117875722 299 C 234.77971188475598 299 235.088978448524 299 235.70751157606 299 C 236.326044703596 299 236.63531126736402 299 237.2538443949 299 C 237.872377522436 299 238.18164408620402 299 238.80017721374 299 C 239.41871034127598 299 239.727976905044 299 240.34651003258 299 C 240.96504316012002 299 241.27430972389 299 241.89284285143 299 C 242.511375978966 299 242.820642542734 299 243.43917567027 299 C 244.057708797806 299 244.366975361574 299 244.98550848911 299 C 245.60404161664601 299 245.91330818041402 299 246.53184130795 299 C 247.150374435486 299 247.459640999254 299 248.07817412679 299 C 248.69670725432997 299 249.00597381810002 299 249.62450694564 299 C 250.24304007317602 299 250.55230663694402 299 251.17083976448 299 C 251.78937289201605 299 252.098639455784 299 252.71717258332 299 C 253.33570571085602 299 253.64497227462397 299 254.26350540216 299 C 254.882038529696 299 255.191305093464 299 255.809838221 299 C 256.42837134853596 299 256.73763791230397 299 257.35617103984 299 C 257.97470416737997 299 258.28397073115 299 258.90250385869 299 C 259.521036986226 299 259.830303549994 299 260.44883667753 299 C 261.06736980506605 299 261.376636368834 299 261.99516949637 299 C 262.613702623906 299 262.92296918767397 299 263.54150231521 299 C 264.160035442746 299 264.469302006514 299 265.08783513405 299 C 265.70636826159 299 266.01563482536 299 266.6341679529 299 C 267.25270108043594 299 267.561967644204 299 268.18050077174 299 C 268.79903389927597 299 269.108300463044 299 269.72683359058 299 C 270.345366718116 299 270.654633281884 299 271.27316640942 299 C 271.891699536956 299 272.20096610072403 299 272.81949922826 299 C 273.438032355796 299 273.74729891956406 299 274.3658320471 299 C 274.98436517464 299 275.29363173841 299 275.91216486595 299 C 276.530697993486 299 276.839964557254 299 277.45849768479 299 C 278.07703081232603 299 278.386297376094 299 279.00483050363 299 C 279.623363631166 299 279.93263019493395 299 280.55116332247 299 C 281.169696450006 299 281.478963013774 299 282.09749614131 299 C 282.71602926885 299 283.02529583262003 299 283.64382896016 299 C 284.26236208769603 299 284.57162865146404 299 285.190161779 299 C 285.80869490653606 299 286.117961470304 299 286.73649459784 299 C 287.35502772537603 299 287.664294289144 299 288.28282741668 299 C 288.901360544216 299 289.210627107984 299 289.82916023552 299 C 290.447693363056 299 290.756959926824 299 291.37549305436 299 C 291.9940261819 299 292.30329274567003 299 292.92182587321 299 C 293.540359000746 299 293.849625564514 299 294.46815869205 299 C 295.086691819586 299 295.395958383354 299 296.01449151089 299 C 296.63302463842604 299 296.94229120219404 299 297.56082432973 299 C 298.179357457266 299 298.48862402103407 299 299.10715714857 299 C 299.72569027611 299 300.03495683988 299 300.65348996742 299 C 301.27202309495596 299 301.58128965872396 299 302.19982278626 299 C 302.8183559137959 299 303.127622477564 299 303.7461556051 299 C 304.36468873263595 299 304.67395529640396 299 305.29248842394 299 C 305.911021551476 299 306.220288115244 299 306.83882124278 299 C 307.457354370316 299 307.766620934084 299 308.38515406162 299 C 309.00368718916 299 309.31295375293 299 309.93148688047 299 C 310.550020008006 299 310.859286571774 299 311.47781969931 299 C 312.096352826846 299 312.405619390614 299 313.02415251815 299 C 313.642685645686 299 313.95195220945396 299 314.57048533699 299 C 315.189018464526 299 315.49828502829394 299 316.11681815583 299 C 316.73535128337 299 317.04461784714 299 317.66315097468 299 C 318.281684102216 299 318.590950665984 299 319.20948379352 299 C 319.828016921056 299 320.137283484824 299 320.75581661236 299 C 321.37434973989605 299 321.683616303664 299 322.3021494312 299 C 322.920682558736 299 323.22994912250397 299 323.84848225004 299 C 324.467015377576 299 324.776281941344 299 325.39481506888 299 C 326.01334819642 299 326.32261476019 299 326.94114788773 299 C 327.55968101526594 299 327.868947579034 299 328.48748070657 299 C 329.10601383410597 299 329.41528039787397 299 330.03381352541 299 C 330.652346652946 299 330.961613216714 299 331.58014634425 299 C 332.198679471786 299 332.507946035554 299 333.12647916309 299 C 333.74501229063 299 334.0542788544 299 334.67281198194 299 C 335.291345109476 299 335.60061167324403 299 336.21914480078 299 C 336.837677928316 299 337.146944492084 299 337.76547761962 299 C 338.384010747156 299 338.693277310924 299 339.31181043846 299 C 339.930343565996 299 340.23961012976395 299 340.8581432573 299 C 341.47667638483597 299 341.78594294860403 299 342.40447607614 299 C 343.02300920368003 299 343.33227576744997 299 343.95080889499 299 C 344.569342022526 299 344.87860858629404 299 345.49714171383 299 C 346.11567484136606 299 346.424941405134 299 347.04347453267 299 C 347.66200766020603 299 347.971274223974 299 348.58980735151 299 C 349.208340479046 299 349.517607042814 299 350.13614017035 299 C 350.75467329789 299 351.06393986166 299 351.6824729892 299 C 352.30100611673595 299 352.610272680504 299 353.22880580804 299 C 353.847338935576 299 354.156605499344 299 354.77513862688 299 C 355.393671754416 299 355.702938318184 299 356.32147144572 299 C 356.94000457325603 299 357.24927113702404 299 357.86780426456 299 C 358.486337392096 299 358.79560395586407 299 359.4141370834 299 C 360.03267021094 299 360.34193677471 299 360.96046990225 299 C 361.579003029786 299 361.888269593554 299 362.50680272109 299 C 363.12533584862604 299 363.434602412394 299 364.05313553993 299 C 364.671668667466 299 364.98093523123396 299 365.59946835877 299 C 366.218001486306 299 366.52726805007404 299 367.14580117761 299 C 367.76433430515 299 368.07360086892 299 368.69213399646 299 C 369.310667123996 299 369.61993368776405 299 370.2384668153 299 C 370.949779911968 299 371.305436460302 59.80000000000001 372.01674955697 59.80000000000001 C 373.00640256102605 59.80000000000001 373.501229063054 59.80000000000001 374.49088206711 59.80000000000001 C 375.134328334506 59.80000000000001 375.456051468204 59.80000000000001 376.0994977356 59.80000000000001 C 376.69311772328 59.80000000000001 376.98992771712 59.80000000000001 377.5835477048 59.80000000000001 C 378.2330074887121 59.80000000000001 378.557737380668 59.80000000000001 379.20719716458 59.80000000000001 C 379.79480363574004 59.80000000000001 380.08860687132 59.80000000000001 380.67621334248 59.80000000000001 C 381.3943990294521 59.80000000000001 381.75349187293807 59.80000000000001 382.47167755991 59.80000000000001 C 383.01804848923405 59.80000000000001 383.291233953896 59.80000000000001 383.83760488322 59.80000000000001 C 384.428647649536 59.80000000000001 384.724169032694 299 385.31521179901 299 C 385.93374492654596 299 386.24301149031396 59.80000000000001 386.86154461785 59.80000000000001 C 387.480077745386 59.80000000000001 387.789344309154 59.80000000000001 388.40787743669 59.80000000000001 C 389.026410564226 59.80000000000001 389.335677127994 59.80000000000001 389.95421025553 59.80000000000001 C 390.572743383066 59.80000000000001 390.88200994683405 59.80000000000001 391.50054307437 59.80000000000001 C 392.119076201906 59.80000000000001 392.428342765674 59.80000000000001 393.04687589321 59.80000000000001 C 393.66540902074996 59.80000000000001 393.97467558452 59.80000000000001 394.59320871206 59.80000000000001 C 395.211741839596 59.80000000000001 395.52100840336396 59.80000000000001 396.1395415309 59.80000000000001 C 396.758074658436 59.80000000000001 397.06734122220394 59.80000000000001 397.68587434974 59.80000000000001 C 398.316864047208 59.80000000000001 398.632358895942 59.80000000000001 399.26334859341 59.80000000000001 C 399.869425151014 59.80000000000001 400.172463429816 59.80000000000001 400.77853998742 59.80000000000001 C 401.39707311495994 59.80000000000001 401.70633967873 59.80000000000001 402.32487280627 59.80000000000001 C 402.94340593380605 59.80000000000001 403.252672497574 59.80000000000001 403.87120562511 59.80000000000001 C 404.489738752646 59.80000000000001 404.79900531641397 59.80000000000001 405.41753844395 59.80000000000001 C 406.068286838546 59.80000000000001 406.393661035844 59.80000000000001 407.04440943044 59.80000000000001 C 407.630727290916 59.80000000000001 407.92388622115396 59.80000000000001 408.51020408163 59.80000000000001 C 409.12873720916593 59.80000000000001 409.438003772934 59.80000000000001 410.05653690047 59.80000000000001 C 410.67507002800994 59.80000000000001 410.98433659178 59.80000000000001 411.60286971932 59.80000000000001 C 412.22140284685594 59.80000000000001 412.53066941062406 59.80000000000001 413.14920253816 59.80000000000001 C 413.767735665696 59.80000000000001 414.07700222946403 59.80000000000001 414.695535357 59.80000000000001 C 415.314068484536 59.80000000000001 415.62333504830406 59.80000000000001 416.24186817584 59.80000000000001 C 416.8604013033761 59.80000000000001 417.169667867144 59.80000000000001 417.78820099468 59.80000000000001 C 418.40673412222003 59.80000000000001 418.71600068599 59.80000000000001 419.33453381353 59.80000000000001 C 419.953066941066 59.80000000000001 420.262333504834 59.80000000000001 420.88086663237 59.80000000000001 C 421.035499914254 59.80000000000001 421.112816555196 299 421.26744983708 299 C 422.349882810268 299 422.891099296862 59.80000000000001 423.97353227005 59.80000000000001 C 424.592065397586 59.80000000000001 424.90133196135395 59.80000000000001 425.51986508889 59.80000000000001 C 426.13839821642597 59.80000000000001 426.44766478019403 59.80000000000001 427.06619790773 59.80000000000001 C 427.68473103527003 59.80000000000001 427.99399759904 59.80000000000001 428.61253072658 59.80000000000001 C 429.23106385411603 59.80000000000001 429.540330417884 59.80000000000001 430.15886354542 59.80000000000001 C 430.313496827304 59.80000000000001 430.39081346824605 299 430.54544675013 299 C 431.16397987766607 299 431.473246441434 299 432.09177956897 299 C 432.71031269650604 299 433.019579260274 299 433.63811238781 299 C 434.72054536100205 299 435.261761847598 59.80000000000001 436.34419482079 59.80000000000001 C 436.962727948326 59.80000000000001 437.271994512094 59.80000000000001 437.89052763963 59.80000000000001 C 438.50906076716603 59.80000000000001 438.818327330934 59.80000000000001 439.43686045847 59.80000000000001 C 440.055393586006 59.80000000000001 440.36466014977407 59.80000000000001 440.98319327731 59.80000000000001 C 441.601726404846 59.80000000000001 441.91099296861404 59.80000000000001 442.52952609615 59.80000000000001 C 443.14805922368595 59.80000000000001 443.457325787454 59.80000000000001 444.07585891499 59.80000000000001 C 444.69439204253 59.80000000000001 445.0036586063 59.80000000000001 445.62219173384 59.80000000000001 C 446.240724861376 59.80000000000001 446.54999142514396 59.80000000000001 447.16852455268 59.80000000000001 C 447.787057680216 59.80000000000001 448.09632424398404 59.80000000000001 448.71485737152 59.80000000000001 C 449.33339049905607 59.80000000000001 449.642657062824 59.80000000000001 450.26119019036 59.80000000000001 C 450.879723317896 59.80000000000001 451.18898988166404 59.80000000000001 451.8075230092 59.80000000000001 C 452.42605613674004 59.80000000000001 452.73532270051 59.80000000000001 453.35385582805 59.80000000000001 C 453.97238895558604 59.80000000000001 454.281655519354 59.80000000000001 454.90018864689 59.80000000000001 C 455.518721774426 59.80000000000001 455.82798833819396 59.80000000000001 456.44652146573 59.80000000000001 C 457.065054593266 59.80000000000001 457.37432115703393 59.80000000000001 457.99285428457 59.80000000000001 C 458.61138741210596 59.80000000000001 458.920653975874 59.80000000000001 459.53918710341 59.80000000000001 C 460.157720230946 59.80000000000001 460.46698679471393 59.80000000000001 461.08551992225 59.80000000000001 C 461.72424128381397 59.80000000000001 462.043601964596 59.80000000000001 462.68232332616 59.80000000000001 C 463.31202441294397 59.80000000000001 463.626874956336 59.80000000000001 464.25657604312 59.80000000000001 C 464.868236580348 59.80000000000001 465.17406684896196 59.80000000000001 465.78572738619 59.80000000000001 C 466.37977691076196 59.80000000000001 466.676801673048 59.80000000000001 467.27085119762 59.80000000000001 C 467.88938432515596 59.80000000000001 468.198650888924 59.80000000000001 468.81718401646 59.80000000000001 C 469.43571714399997 59.80000000000001 469.74498370777 59.80000000000001 470.36351683531 59.80000000000001 C 470.982049962846 59.80000000000001 471.29131652661397 59.80000000000001 471.90984965415 59.80000000000001 C 472.528382781686 59.80000000000001 472.837649345454 59.80000000000001 473.45618247299 59.80000000000001 C 474.074715600526 59.80000000000001 474.38398216429397 59.80000000000001 475.00251529183 59.80000000000001 C 475.621048419366 59.80000000000001 475.93031498313405 59.80000000000001 476.54884811067 59.80000000000001 C 477.16738123820596 59.80000000000001 477.476647801974 59.80000000000001 478.09518092951 59.80000000000001 C 478.71371405704997 59.80000000000001 479.02298062082 59.80000000000001 479.64151374836 59.80000000000001 C 480.260046875896 59.80000000000001 480.569313439664 59.80000000000001 481.1878465672 59.80000000000001 C 481.806379694736 59.80000000000001 482.11564625850394 59.80000000000001 482.73417938604 59.80000000000001 C 483.35271251357597 59.80000000000001 483.66197907734403 59.80000000000001 484.28051220488 59.80000000000001 C 484.89904533241605 59.80000000000001 485.208311896184 59.80000000000001 485.82684502372 59.80000000000001 C 486.44537815125994 59.80000000000001 486.75464471503 59.80000000000001 487.37317784257 59.80000000000001 C 487.99171097010606 59.80000000000001 488.300977533874 59.80000000000001 488.91951066141 59.80000000000001 C 489.538043788946 59.80000000000001 489.847310352714 59.80000000000001 490.46584348025 59.80000000000001 C 490.620476762134 59.80000000000001 490.69779340307593 299 490.85242668496 299 C 491.47095981249606 299 491.780226376264 299 492.3987595038 299 C 493.01729263133603 299 493.326559195104 299 493.94509232264 299 C 494.56362545018 299 494.87289201395 299 495.49142514149 299 C 496.109958269026 299 496.41922483279393 299 497.03775796033 299 C 497.65629108786595 299 497.965557651634 299 498.58409077917 299 C 499.202623906706 299 499.511890470474 299 500.13042359801 299 C 500.74895672554595 299 501.05822328931407 299 501.67675641685 299 C 502.29528954438604 299 502.60455610815404 299 503.22308923569 299 C 503.84162236323 299 504.150888927 299 504.76942205454 299 C 505.387955182076 299 505.69722174584405 299 506.31575487338 299 C 506.93428800091596 299 507.243554564684 299 507.86208769222 299 C 508.4806208197559 299 508.789887383524 299 509.40842051106 299 C 510.026953638596 299 510.33622020236396 299 510.9547533299 299 C 511.57328645744 299 511.88255302120996 299 512.50108614875 299 C 513.119619276286 299 513.4288858400539 299 514.04741896759 299 C 514.6659520951259 299 514.9752186588939 299 515.59375178643 299 C 516.212284913966 299 516.521551477734 299 517.14008460527 299 C 517.758617732806 299 518.067884296574 299 518.68641742411 299 C 519.304950551646 299 519.614217115414 299 520.23275024295 299 C 520.85128337049 299 521.16054993426 299 521.7790830618 299 C 522.3976161893358 299 522.7068827531041 299 523.32541588064 299 C 523.9439490081761 299 524.253215571944 299 524.87174869948 299 C 525.490281827016 299 525.799548390784 299 526.41808151832 299 C 527.036614645856 299 527.3458812096239 299 527.96441433716 299 C 528.5829474647 299 528.89221402847 299 529.51074715601 299 C 530.129280283546 299 530.438546847314 299 531.05707997485 299 C 531.675613102386 299 531.984879666154 299 532.60341279369 299 C 533.2219459212259 299 533.5312124849941 299 534.14974561253 299 C 534.768278740066 299 535.69607843137 299 535.69607843137 299" class="highcharts-graph" data-z-index="1" stroke="#000000" stroke-width="2" stroke-linejoin="round" stroke-linecap="round"></path></g><g data-z-index="0.1" class="highcharts-markers highcharts-series-0 highcharts-spline-series highcharts-color-0 " transform="translate(49,63) scale(1 1)" clip-path="none"></g></g><text x="300" text-anchor="middle" class="highcharts-title" data-z-index="4" style="color:#333333;font-size:18px;fill:#333333;" y="24"><tspan>Multivitamin Over Time</tspan></text><text x="300" text-anchor="middle" class="highcharts-subtitle" data-z-index="4" style="color:#666666;fill:#666666;" y="46"><tspan>This chart shows how your Multivitamin changes over time.</tspan></text><g class="highcharts-axis-labels highcharts-xaxis-labels " data-z-index="7"><text x="130.75473046361" style="color:#666666;cursor:default;font-size:11px;fill:#666666;" text-anchor="middle" transform="translate(0,0)" y="381" opacity="1"><tspan>Jul '12</tspan></text><text x="226.62736523181" style="color:#666666;cursor:default;font-size:11px;fill:#666666;" text-anchor="middle" transform="translate(0,0)" y="381" opacity="1"><tspan>Sep '12</tspan></text><text x="320.95366718116" style="color:#666666;cursor:default;font-size:11px;fill:#666666;" text-anchor="middle" transform="translate(0,0)" y="381" opacity="1"><tspan>Nov '12</tspan></text><text x="415.27996913051" style="color:#666666;cursor:default;font-size:11px;fill:#666666;" text-anchor="middle" transform="translate(0,0)" y="381" opacity="1"><tspan>Jan '13</tspan></text><text x="506.51360544218" style="color:#666666;cursor:default;font-size:11px;fill:#666666;" text-anchor="middle" transform="translate(0,0)" y="381" opacity="1"><tspan>Mar '13</tspan></text></g><g class="highcharts-axis-labels highcharts-yaxis-labels " data-z-index="7"><text x="34" style="color:#666666;cursor:default;font-size:11px;fill:#666666;" text-anchor="end" transform="translate(0,0)" y="366" opacity="1">0</text><text x="34" style="color:#666666;cursor:default;font-size:11px;fill:#666666;" text-anchor="end" transform="translate(0,0)" y="306" opacity="1">0.25</text><text x="34" style="color:#666666;cursor:default;font-size:11px;fill:#666666;" text-anchor="end" transform="translate(0,0)" y="246" opacity="1">0.5</text><text x="34" style="color:#666666;cursor:default;font-size:11px;fill:#666666;" text-anchor="end" transform="translate(0,0)" y="186" opacity="1">0.75</text><text x="34" style="color:#666666;cursor:default;font-size:11px;fill:#666666;" text-anchor="end" transform="translate(0,0)" y="126" opacity="1">1</text><text x="34" style="color:#666666;cursor:default;font-size:11px;fill:#666666;" text-anchor="end" transform="translate(0,0)" y="67" opacity="1">1.25</text></g><a xlink:href="https://quantimo.do" target="_blank">
                    <text x="590" class="highcharts-credits" text-anchor="end" data-z-index="8"
                          style="cursor:pointer;color:#999999;font-size:9px;fill:#999999;" y="395">https://quantimo.do
                    </text>
                </a></svg>