<?xml version="1.0" standalone="no"?><!DOCTYPE svg PUBLIC "-//W3C//DTD SVG 1.1//EN" "http://www.w3.org/Graphics/SVG/1.1/DTD/svg11.dtd"><svg xmlns:xlink="http://www.w3.org/1999/xlink" version="1.1" class="highcharts-root" style="font-family:&quot;Lucida Grande&quot;, &quot;Lucida Sans Unicode&quot;, Arial, Helvetica, sans-serif;font-size:12px;" xmlns="http://www.w3.org/2000/svg" width="600" height="300"><desc>Created with Highstock 6.2.0</desc><defs><clipPath id="highcharts-0y1zigv-23"><rect x="0" y="0" width="488" height="142" fill="none"></rect></clipPath><clipPath id="highcharts-0y1zigv-40"><rect x="0" y="0" width="488" height="142" fill="none"></rect></clipPath><clipPath id="highcharts-0y1zigv-41"><rect x="102" y="99" width="488" height="142" fill="none"></rect></clipPath></defs><rect fill="#ffffff" class="highcharts-background" x="0" y="0" width="600" height="300" rx="0" ry="0"></rect><rect fill="none" class="highcharts-plot-background" x="102" y="99" width="488" height="142"></rect><g class="highcharts-pane-group" data-z-index="0"></g><g class="highcharts-grid highcharts-xaxis-grid " data-z-index="1"><path fill="none" data-z-index="1" class="highcharts-grid-line" d="M 132.5 99 L 132.5 241" opacity="1"></path><path fill="none" data-z-index="1" class="highcharts-grid-line" d="M 162.5 99 L 162.5 241" opacity="1"></path><path fill="none" data-z-index="1" class="highcharts-grid-line" d="M 193.5 99 L 193.5 241" opacity="1"></path><path fill="none" data-z-index="1" class="highcharts-grid-line" d="M 223.5 99 L 223.5 241" opacity="1"></path><path fill="none" data-z-index="1" class="highcharts-grid-line" d="M 254.5 99 L 254.5 241" opacity="1"></path><path fill="none" data-z-index="1" class="highcharts-grid-line" d="M 284.5 99 L 284.5 241" opacity="1"></path><path fill="none" data-z-index="1" class="highcharts-grid-line" d="M 315.5 99 L 315.5 241" opacity="1"></path><path fill="none" data-z-index="1" class="highcharts-grid-line" d="M 345.5 99 L 345.5 241" opacity="1"></path><path fill="none" data-z-index="1" class="highcharts-grid-line" d="M 376.5 99 L 376.5 241" opacity="1"></path><path fill="none" data-z-index="1" class="highcharts-grid-line" d="M 406.5 99 L 406.5 241" opacity="1"></path><path fill="none" data-z-index="1" class="highcharts-grid-line" d="M 437.5 99 L 437.5 241" opacity="1"></path><path fill="none" data-z-index="1" class="highcharts-grid-line" d="M 467.5 99 L 467.5 241" opacity="1"></path><path fill="none" data-z-index="1" class="highcharts-grid-line" d="M 498.5 99 L 498.5 241" opacity="1"></path><path fill="none" data-z-index="1" class="highcharts-grid-line" d="M 528.5 99 L 528.5 241" opacity="1"></path><path fill="none" data-z-index="1" class="highcharts-grid-line" d="M 559.5 99 L 559.5 241" opacity="1"></path><path fill="none" data-z-index="1" class="highcharts-grid-line" d="M 589.5 99 L 589.5 241" opacity="1"></path><path fill="none" data-z-index="1" class="highcharts-grid-line" d="M 101.5 99 L 101.5 241" opacity="1"></path></g><g class="highcharts-grid highcharts-yaxis-grid " data-z-index="1"><path fill="none" stroke="#e6e6e6" stroke-width="1" data-z-index="1" class="highcharts-grid-line" d="M 102 241.5 L 590 241.5" opacity="1"></path><path fill="none" stroke="#e6e6e6" stroke-width="1" data-z-index="1" class="highcharts-grid-line" d="M 102 206.5 L 590 206.5" opacity="1"></path><path fill="none" stroke="#e6e6e6" stroke-width="1" data-z-index="1" class="highcharts-grid-line" d="M 102 170.5 L 590 170.5" opacity="1"></path><path fill="none" stroke="#e6e6e6" stroke-width="1" data-z-index="1" class="highcharts-grid-line" d="M 102 135.5 L 590 135.5" opacity="1"></path><path fill="none" stroke="#e6e6e6" stroke-width="1" data-z-index="1" class="highcharts-grid-line" d="M 102 98.5 L 590 98.5" opacity="1"></path></g><rect fill="none" class="highcharts-plot-border" data-z-index="1" x="102" y="99" width="488" height="142"></rect><g class="highcharts-axis highcharts-xaxis " data-z-index="2"><path fill="none" class="highcharts-tick" stroke="#ccd6eb" stroke-width="1" d="M 132.5 241 L 132.5 251" opacity="1"></path><path fill="none" class="highcharts-tick" stroke="#ccd6eb" stroke-width="1" d="M 162.5 241 L 162.5 251" opacity="1"></path><path fill="none" class="highcharts-tick" stroke="#ccd6eb" stroke-width="1" d="M 193.5 241 L 193.5 251" opacity="1"></path><path fill="none" class="highcharts-tick" stroke="#ccd6eb" stroke-width="1" d="M 223.5 241 L 223.5 251" opacity="1"></path><path fill="none" class="highcharts-tick" stroke="#ccd6eb" stroke-width="1" d="M 254.5 241 L 254.5 251" opacity="1"></path><path fill="none" class="highcharts-tick" stroke="#ccd6eb" stroke-width="1" d="M 284.5 241 L 284.5 251" opacity="1"></path><path fill="none" class="highcharts-tick" stroke="#ccd6eb" stroke-width="1" d="M 315.5 241 L 315.5 251" opacity="1"></path><path fill="none" class="highcharts-tick" stroke="#ccd6eb" stroke-width="1" d="M 345.5 241 L 345.5 251" opacity="1"></path><path fill="none" class="highcharts-tick" stroke="#ccd6eb" stroke-width="1" d="M 376.5 241 L 376.5 251" opacity="1"></path><path fill="none" class="highcharts-tick" stroke="#ccd6eb" stroke-width="1" d="M 406.5 241 L 406.5 251" opacity="1"></path><path fill="none" class="highcharts-tick" stroke="#ccd6eb" stroke-width="1" d="M 437.5 241 L 437.5 251" opacity="1"></path><path fill="none" class="highcharts-tick" stroke="#ccd6eb" stroke-width="1" d="M 467.5 241 L 467.5 251" opacity="1"></path><path fill="none" class="highcharts-tick" stroke="#ccd6eb" stroke-width="1" d="M 498.5 241 L 498.5 251" opacity="1"></path><path fill="none" class="highcharts-tick" stroke="#ccd6eb" stroke-width="1" d="M 528.5 241 L 528.5 251" opacity="1"></path><path fill="none" class="highcharts-tick" stroke="#ccd6eb" stroke-width="1" d="M 559.5 241 L 559.5 251" opacity="1"></path><path fill="none" class="highcharts-tick" stroke="#ccd6eb" stroke-width="1" d="M 590.5 241 L 590.5 251" opacity="1"></path><path fill="none" class="highcharts-tick" stroke="#ccd6eb" stroke-width="1" d="M 101.5 241 L 101.5 251" opacity="1"></path><text x="346" data-z-index="7" text-anchor="middle" transform="translate(0,0)" class="highcharts-axis-title" style="color:#666666;fill:#666666;" y="281"><tspan>Average Daily CauseVariableName (Milligrams)</tspan></text><path fill="none" class="highcharts-axis-line" stroke="#ccd6eb" stroke-width="1" data-z-index="7" d="M 102 241.5 L 590 241.5"></path></g><g class="highcharts-axis highcharts-yaxis " data-z-index="2"><text x="26" data-z-index="7" text-anchor="middle" transform="translate(0,0) rotate(270 26 170)" class="highcharts-axis-title" style="color:#666666;fill:#666666;" y="170"><tspan>Average Daily</tspan><tspan dy="15" x="26">EffectVariableName</tspan><tspan dy="15" x="26">(Percent)</tspan></text><path fill="none" class="highcharts-axis-line" data-z-index="7" d="M 102 99 L 102 241"></path></g><g class="highcharts-series-group" data-z-index="3"><g data-z-index="0.1" class="highcharts-series highcharts-series-0 highcharts-column-series highcharts-color-0 " transform="translate(102,99) scale(1 1)" clip-path="url(#highcharts-0y1zigv-40)"><rect x="7.5" y="16.5" width="15" height="126" fill="#000000" stroke="#ffffff" stroke-width="1" class="highcharts-point highcharts-color-0"></rect><rect x="37.5" y="54.5" width="15" height="88" fill="#000000" stroke="#ffffff" stroke-width="1" class="highcharts-point highcharts-color-0"></rect><rect x="68.5" y="50.5" width="15" height="92" fill="#000000" stroke="#ffffff" stroke-width="1" class="highcharts-point highcharts-color-0"></rect><rect x="98.5" y="14.5" width="15" height="128" fill="#000000" stroke="#ffffff" stroke-width="1" class="highcharts-point highcharts-color-0"></rect><rect x="129.5" y="97.5" width="15" height="45" fill="#000000" stroke="#ffffff" stroke-width="1" class="highcharts-point highcharts-color-0"></rect><rect x="159.5" y="96.5" width="15" height="46" fill="#000000" stroke="#ffffff" stroke-width="1" class="highcharts-point highcharts-color-0"></rect><rect x="190.5" y="76.5" width="15" height="66" fill="#000000" stroke="#ffffff" stroke-width="1" class="highcharts-point highcharts-color-0"></rect><rect x="220.5" y="46.5" width="15" height="96" fill="#000000" stroke="#ffffff" stroke-width="1" class="highcharts-point highcharts-color-0"></rect><rect x="251.5" y="59.5" width="15" height="83" fill="#000000" stroke="#ffffff" stroke-width="1" class="highcharts-point highcharts-color-0"></rect><rect x="281.5" y="62.5" width="15" height="80" fill="#000000" stroke="#ffffff" stroke-width="1" class="highcharts-point highcharts-color-0"></rect><rect x="312.5" y="107.5" width="15" height="35" fill="#000000" stroke="#ffffff" stroke-width="1" class="highcharts-point highcharts-color-0"></rect><rect x="342.5" y="79.5" width="15" height="63" fill="#000000" stroke="#ffffff" stroke-width="1" class="highcharts-point highcharts-color-0"></rect><rect x="373.5" y="83.5" width="15" height="59" fill="#000000" stroke="#ffffff" stroke-width="1" class="highcharts-point highcharts-color-0"></rect><rect x="403.5" y="86.5" width="15" height="56" fill="#000000" stroke="#ffffff" stroke-width="1" class="highcharts-point highcharts-color-0"></rect><rect x="434.5" y="71.5" width="15" height="71" fill="#000000" stroke="#ffffff" stroke-width="1" class="highcharts-point highcharts-color-0"></rect><rect x="464.5" y="78.5" width="15" height="64" fill="#000000" stroke="#ffffff" stroke-width="1" class="highcharts-point highcharts-color-0"></rect></g><g data-z-index="0.1" class="highcharts-markers highcharts-series-0 highcharts-column-series highcharts-color-0 " transform="translate(102,99) scale(1 1)" clip-path="none"></g></g><text x="300" text-anchor="middle" class="highcharts-title" data-z-index="4" style="color:#333333;font-size:18px;fill:#333333;" y="24"><tspan>Average EffectVariableName by Previous CauseVariableName</tspan><tspan dy="21" x="300">Intake</tspan></text><text x="300" text-anchor="middle" class="highcharts-subtitle" data-z-index="4" style="color:#666666;fill:#666666;" y="67"><tspan>Typical values for EffectVariableName following a given amount of CauseVariableName</tspan><tspan dy="15" x="300">intake over the previous 24 hours.</tspan></text><g class="highcharts-axis-labels highcharts-xaxis-labels " data-z-index="7"><text x="117.25" style="color:#666666;cursor:default;font-size:11px;fill:#666666;" text-anchor="middle" transform="translate(0,0)" y="260" opacity="1">1</text><text x="147.75" style="color:#666666;cursor:default;font-size:11px;fill:#666666;" text-anchor="middle" transform="translate(0,0)" y="260" opacity="1">3</text><text x="178.25" style="color:#666666;cursor:default;font-size:11px;fill:#666666;" text-anchor="middle" transform="translate(0,0)" y="260" opacity="1">4</text><text x="208.75" style="color:#666666;cursor:default;font-size:11px;fill:#666666;" text-anchor="middle" transform="translate(0,0)" y="260" opacity="1">6</text><text x="239.25" style="color:#666666;cursor:default;font-size:11px;fill:#666666;" text-anchor="middle" transform="translate(0,0)" y="260" opacity="1">7</text><text x="269.75" style="color:#666666;cursor:default;font-size:11px;fill:#666666;" text-anchor="middle" transform="translate(0,0)" y="260" opacity="1">8</text><text x="300.25" style="color:#666666;cursor:default;font-size:11px;fill:#666666;" text-anchor="middle" transform="translate(0,0)" y="260" opacity="1">10</text><text x="330.75" style="color:#666666;cursor:default;font-size:11px;fill:#666666;" text-anchor="middle" transform="translate(0,0)" y="260" opacity="1">20</text><text x="361.25" style="color:#666666;cursor:default;font-size:11px;fill:#666666;" text-anchor="middle" transform="translate(0,0)" y="260" opacity="1">30</text><text x="391.75" style="color:#666666;cursor:default;font-size:11px;fill:#666666;" text-anchor="middle" transform="translate(0,0)" y="260" opacity="1">40</text><text x="422.25" style="color:#666666;cursor:default;font-size:11px;fill:#666666;" text-anchor="middle" transform="translate(0,0)" y="260" opacity="1">50</text><text x="452.75" style="color:#666666;cursor:default;font-size:11px;fill:#666666;" text-anchor="middle" transform="translate(0,0)" y="260" opacity="1">60</text><text x="483.25" style="color:#666666;cursor:default;font-size:11px;fill:#666666;" text-anchor="middle" transform="translate(0,0)" y="260" opacity="1">70</text><text x="513.75" style="color:#666666;cursor:default;font-size:11px;fill:#666666;" text-anchor="middle" transform="translate(0,0)" y="260" opacity="1">80</text><text x="544.25" style="color:#666666;cursor:default;font-size:11px;fill:#666666;" text-anchor="middle" transform="translate(0,0)" y="260" opacity="1">90</text><text x="574.75" style="color:#666666;cursor:default;font-size:11px;fill:#666666;" text-anchor="middle" transform="translate(0,0)" y="260" opacity="1">100</text></g><g class="highcharts-axis-labels highcharts-yaxis-labels " data-z-index="7"><text x="87" style="color:#666666;cursor:default;font-size:11px;fill:#666666;" text-anchor="end" transform="translate(0,0)" y="245" opacity="1">0</text><text x="87" style="color:#666666;cursor:default;font-size:11px;fill:#666666;" text-anchor="end" transform="translate(0,0)" y="209" opacity="1">25</text><text x="87" style="color:#666666;cursor:default;font-size:11px;fill:#666666;" text-anchor="end" transform="translate(0,0)" y="174" opacity="1">50</text><text x="87" style="color:#666666;cursor:default;font-size:11px;fill:#666666;" text-anchor="end" transform="translate(0,0)" y="138" opacity="1">75</text><text x="87" style="color:#666666;cursor:default;font-size:11px;fill:#666666;" text-anchor="end" transform="translate(0,0)" y="103" opacity="1">100</text></g><a xlink:href="https://quantimo.do" target="_blank">
                    <text x="590" class="highcharts-credits" text-anchor="end" data-z-index="8"
                          style="cursor:pointer;color:#999999;font-size:9px;fill:#999999;" y="295">https://quantimo.do
                    </text>
                </a></svg>