<?xml version="1.0" standalone="no"?><!DOCTYPE svg PUBLIC "-//W3C//DTD SVG 1.1//EN" "http://www.w3.org/Graphics/SVG/1.1/DTD/svg11.dtd"><svg xmlns:xlink="http://www.w3.org/1999/xlink" version="1.1" class="highcharts-root" style="font-family:&quot;Lucida Grande&quot;, &quot;Lucida Sans Unicode&quot;, Arial, Helvetica, sans-serif;font-size:12px;" xmlns="http://www.w3.org/2000/svg" width="600" height="300"><desc>Created with Highstock 6.2.0</desc><defs><clipPath id="highcharts-in28izz-17"><rect x="0" y="0" width="511" height="126" fill="none"></rect></clipPath><clipPath id="highcharts-in28izz-28"><rect x="0" y="0" width="511" height="126" fill="none"></rect></clipPath><clipPath id="highcharts-in28izz-29"><rect x="79" y="78" width="511" height="126" fill="none"></rect></clipPath></defs><rect fill="#ffffff" class="highcharts-background" x="0" y="0" width="600" height="300" rx="0" ry="0"></rect><rect fill="none" class="highcharts-plot-background" x="79" y="78" width="511" height="126"></rect><g class="highcharts-pane-group" data-z-index="0"></g><g class="highcharts-grid highcharts-xaxis-grid " data-z-index="1"><path fill="none" data-z-index="1" class="highcharts-grid-line" d="M 129.5 78 L 129.5 204" opacity="1"></path><path fill="none" data-z-index="1" class="highcharts-grid-line" d="M 180.5 78 L 180.5 204" opacity="1"></path><path fill="none" data-z-index="1" class="highcharts-grid-line" d="M 231.5 78 L 231.5 204" opacity="1"></path><path fill="none" data-z-index="1" class="highcharts-grid-line" d="M 282.5 78 L 282.5 204" opacity="1"></path><path fill="none" data-z-index="1" class="highcharts-grid-line" d="M 334.5 78 L 334.5 204" opacity="1"></path><path fill="none" data-z-index="1" class="highcharts-grid-line" d="M 385.5 78 L 385.5 204" opacity="1"></path><path fill="none" data-z-index="1" class="highcharts-grid-line" d="M 436.5 78 L 436.5 204" opacity="1"></path><path fill="none" data-z-index="1" class="highcharts-grid-line" d="M 487.5 78 L 487.5 204" opacity="1"></path><path fill="none" data-z-index="1" class="highcharts-grid-line" d="M 538.5 78 L 538.5 204" opacity="1"></path><path fill="none" data-z-index="1" class="highcharts-grid-line" d="M 589.5 78 L 589.5 204" opacity="1"></path><path fill="none" data-z-index="1" class="highcharts-grid-line" d="M 78.5 78 L 78.5 204" opacity="1"></path></g><g class="highcharts-grid highcharts-yaxis-grid " data-z-index="1"><path fill="none" stroke="#e6e6e6" stroke-width="1" data-z-index="1" class="highcharts-grid-line" d="M 79 204.5 L 590 204.5" opacity="1"></path><path fill="none" stroke="#e6e6e6" stroke-width="1" data-z-index="1" class="highcharts-grid-line" d="M 79 162.5 L 590 162.5" opacity="1"></path><path fill="none" stroke="#e6e6e6" stroke-width="1" data-z-index="1" class="highcharts-grid-line" d="M 79 120.5 L 590 120.5" opacity="1"></path><path fill="none" stroke="#e6e6e6" stroke-width="1" data-z-index="1" class="highcharts-grid-line" d="M 79 77.5 L 590 77.5" opacity="1"></path></g><rect fill="none" class="highcharts-plot-border" data-z-index="1" x="79" y="78" width="511" height="126"></rect><g class="highcharts-axis highcharts-xaxis " data-z-index="2"><path fill="none" class="highcharts-tick" stroke="#ccd6eb" stroke-width="1" d="M 129.5 204 L 129.5 214" opacity="1"></path><path fill="none" class="highcharts-tick" stroke="#ccd6eb" stroke-width="1" d="M 180.5 204 L 180.5 214" opacity="1"></path><path fill="none" class="highcharts-tick" stroke="#ccd6eb" stroke-width="1" d="M 231.5 204 L 231.5 214" opacity="1"></path><path fill="none" class="highcharts-tick" stroke="#ccd6eb" stroke-width="1" d="M 282.5 204 L 282.5 214" opacity="1"></path><path fill="none" class="highcharts-tick" stroke="#ccd6eb" stroke-width="1" d="M 334.5 204 L 334.5 214" opacity="1"></path><path fill="none" class="highcharts-tick" stroke="#ccd6eb" stroke-width="1" d="M 385.5 204 L 385.5 214" opacity="1"></path><path fill="none" class="highcharts-tick" stroke="#ccd6eb" stroke-width="1" d="M 436.5 204 L 436.5 214" opacity="1"></path><path fill="none" class="highcharts-tick" stroke="#ccd6eb" stroke-width="1" d="M 487.5 204 L 487.5 214" opacity="1"></path><path fill="none" class="highcharts-tick" stroke="#ccd6eb" stroke-width="1" d="M 538.5 204 L 538.5 214" opacity="1"></path><path fill="none" class="highcharts-tick" stroke="#ccd6eb" stroke-width="1" d="M 590.5 204 L 590.5 214" opacity="1"></path><path fill="none" class="highcharts-tick" stroke="#ccd6eb" stroke-width="1" d="M 78.5 204 L 78.5 214" opacity="1"></path><text x="334.5" data-z-index="7" text-anchor="middle" transform="translate(0,0)" class="highcharts-axis-title" style="color:#666666;fill:#666666;" y="280.618795026618"><tspan>Month</tspan></text><path fill="none" class="highcharts-axis-line" stroke="#ccd6eb" stroke-width="1" data-z-index="7" d="M 79 204.5 L 590 204.5"></path></g><g class="highcharts-axis highcharts-yaxis " data-z-index="2"><text x="26" data-z-index="7" text-anchor="middle" transform="translate(0,0) rotate(270 26 141)" class="highcharts-axis-title" style="color:#666666;fill:#666666;" y="141"><tspan>Daily Average (mcg)</tspan></text><path fill="none" class="highcharts-axis-line" data-z-index="7" d="M 79 78 L 79 204"></path></g><g class="highcharts-series-group" data-z-index="3"><g data-z-index="0.1" class="highcharts-series highcharts-series-0 highcharts-column-series highcharts-color-0 " transform="translate(79,78) scale(1 1)" clip-path="url(#highcharts-in28izz-28)"><rect x="12.5" y="84.5" width="25" height="0" fill="#000000" stroke="#ffffff" stroke-width="1" class="highcharts-point highcharts-color-0"></rect><rect x="63.5" y="72.5" width="25" height="12" fill="#000000" stroke="#ffffff" stroke-width="1" class="highcharts-point highcharts-color-0"></rect><rect x="114.5" y="8.5" width="25" height="76" fill="#000000" stroke="#ffffff" stroke-width="1" class="highcharts-point highcharts-color-0"></rect><rect x="166.5" y="8.5" width="25" height="76" fill="#000000" stroke="#ffffff" stroke-width="1" class="highcharts-point highcharts-color-0"></rect><rect x="217.5" y="34.5" width="25" height="50" fill="#000000" stroke="#ffffff" stroke-width="1" class="highcharts-point highcharts-color-0"></rect><rect x="268.5" y="84.5" width="25" height="0" fill="#000000" stroke="#ffffff" stroke-width="1" class="highcharts-point highcharts-color-0"></rect><rect x="319.5" y="84.5" width="25" height="0" fill="#000000" stroke="#ffffff" stroke-width="1" class="highcharts-point highcharts-color-0"></rect><rect x="370.5" y="84.5" width="25" height="0" fill="#000000" stroke="#ffffff" stroke-width="1" class="highcharts-point highcharts-color-0"></rect><rect x="421.5" y="84.5" width="25" height="0" fill="#000000" stroke="#ffffff" stroke-width="1" class="highcharts-point highcharts-color-0"></rect><rect x="472.5" y="84.5" width="25" height="0" fill="#000000" stroke="#ffffff" stroke-width="1" class="highcharts-point highcharts-color-0"></rect></g><g data-z-index="0.1" class="highcharts-markers highcharts-series-0 highcharts-column-series highcharts-color-0 " transform="translate(79,78) scale(1 1)" clip-path="none"></g></g><text x="300" text-anchor="middle" class="highcharts-title" data-z-index="4" style="color:#333333;font-size:18px;fill:#333333;" y="24"><tspan>Average Vitamin D3 by NatureMade by Month</tspan></text><text x="300" text-anchor="middle" class="highcharts-subtitle" data-z-index="4" style="color:#666666;fill:#666666;" y="46"><tspan>This chart shows the typical value recorded for Vitamin D3 By NatureMade for each month of</tspan><tspan dy="15" x="300">the year.</tspan></text><g class="highcharts-axis-labels highcharts-xaxis-labels " data-z-index="7"><text x="107.14272486435068" style="color:#666666;cursor:default;font-size:11px;fill:#666666;" text-anchor="end" transform="translate(0,0) rotate(-45 107.14272486435068 220)" y="220" opacity="1">January</text><text x="158.24272486435066" style="color:#666666;cursor:default;font-size:11px;fill:#666666;" text-anchor="end" transform="translate(0,0) rotate(-45 158.24272486435066 220)" y="220" opacity="1">February</text><text x="209.34272486435069" style="color:#666666;cursor:default;font-size:11px;fill:#666666;" text-anchor="end" transform="translate(0,0) rotate(-45 209.34272486435069 220)" y="220" opacity="1">March</text><text x="260.4427248643506" style="color:#666666;cursor:default;font-size:11px;fill:#666666;" text-anchor="end" transform="translate(0,0) rotate(-45 260.4427248643506 220)" y="220" opacity="1">April</text><text x="311.54272486435065" style="color:#666666;cursor:default;font-size:11px;fill:#666666;" text-anchor="end" transform="translate(0,0) rotate(-45 311.54272486435065 220)" y="220" opacity="1">May</text><text x="362.64272486435067" style="color:#666666;cursor:default;font-size:11px;fill:#666666;" text-anchor="end" transform="translate(0,0) rotate(-45 362.64272486435067 220)" y="220" opacity="1">June</text><text x="413.74272486435063" style="color:#666666;cursor:default;font-size:11px;fill:#666666;" text-anchor="end" transform="translate(0,0) rotate(-45 413.74272486435063 220)" y="220" opacity="1">September</text><text x="464.84272486435066" style="color:#666666;cursor:default;font-size:11px;fill:#666666;" text-anchor="end" transform="translate(0,0) rotate(-45 464.84272486435066 220)" y="220" opacity="1">October</text><text x="515.9427248643507" style="color:#666666;cursor:default;font-size:11px;fill:#666666;" text-anchor="end" transform="translate(0,0) rotate(-45 515.9427248643507 220)" y="220" opacity="1">November</text><text x="567.0427248643507" style="color:#666666;cursor:default;font-size:11px;fill:#666666;" text-anchor="end" transform="translate(0,0) rotate(-45 567.0427248643507 220)" y="220" opacity="1">December</text></g><g class="highcharts-axis-labels highcharts-yaxis-labels " data-z-index="7"><text x="64" style="color:#666666;cursor:default;font-size:11px;fill:#666666;" text-anchor="end" transform="translate(0,0)" y="166" opacity="1">0</text><text x="64" style="color:#666666;cursor:default;font-size:11px;fill:#666666;" text-anchor="end" transform="translate(0,0)" y="124" opacity="1">500</text><text x="64" style="color:#666666;cursor:default;font-size:11px;fill:#666666;" text-anchor="end" transform="translate(0,0)" y="82" opacity="1">1000</text><text x="64" style="color:#666666;cursor:default;font-size:11px;fill:#666666;" text-anchor="end" transform="translate(0,0)" y="208" opacity="1">-500</text></g><a xlink:href="https://quantimo.do" target="_blank">
                    <text x="590" class="highcharts-credits" text-anchor="end" data-z-index="8"
                          style="cursor:pointer;color:#999999;font-size:9px;fill:#999999;" y="295">https://quantimo.do
                    </text>
                </a></svg>