<?xml version="1.0" standalone="no"?><!DOCTYPE svg PUBLIC "-//W3C//DTD SVG 1.1//EN" "http://www.w3.org/Graphics/SVG/1.1/DTD/svg11.dtd"><svg xmlns:xlink="http://www.w3.org/1999/xlink" version="1.1" class="highcharts-root" style="font-family:&quot;Lucida Grande&quot;, &quot;Lucida Sans Unicode&quot;, Arial, Helvetica, sans-serif;font-size:12px;" xmlns="http://www.w3.org/2000/svg" width="600" height="400"><desc>Created with Highstock 6.2.0</desc><defs><clipPath id="highcharts-2kafrgb-302"><rect x="0" y="0" width="537" height="299" fill="none"></rect></clipPath><clipPath id="highcharts-2kafrgb-598"><rect x="0" y="0" width="537" height="299" fill="none"></rect></clipPath><clipPath id="highcharts-2kafrgb-599"><rect x="53" y="63" width="537" height="299" fill="none"></rect></clipPath></defs><rect fill="#ffffff" class="highcharts-background" x="0" y="0" width="600" height="400" rx="0" ry="0"></rect><rect fill="none" class="highcharts-plot-background" x="53" y="63" width="537" height="299"></rect><g class="highcharts-pane-group" data-z-index="0"></g><g class="highcharts-grid highcharts-xaxis-grid " data-z-index="1"><path fill="none" data-z-index="1" class="highcharts-grid-line" d="M 54.5 63 L 54.5 362" opacity="1"></path><path fill="none" data-z-index="1" class="highcharts-grid-line" d="M 163.5 63 L 163.5 362" opacity="1"></path><path fill="none" data-z-index="1" class="highcharts-grid-line" d="M 272.5 63 L 272.5 362" opacity="1"></path><path fill="none" data-z-index="1" class="highcharts-grid-line" d="M 378.5 63 L 378.5 362" opacity="1"></path><path fill="none" data-z-index="1" class="highcharts-grid-line" d="M 487.5 63 L 487.5 362" opacity="1"></path></g><g class="highcharts-grid highcharts-yaxis-grid " data-z-index="1"><path fill="none" stroke="#e6e6e6" stroke-width="1" data-z-index="1" class="highcharts-grid-line" d="M 53 362.5 L 590 362.5" opacity="1"></path><path fill="none" stroke="#e6e6e6" stroke-width="1" data-z-index="1" class="highcharts-grid-line" d="M 53 302.5 L 590 302.5" opacity="1"></path><path fill="none" stroke="#e6e6e6" stroke-width="1" data-z-index="1" class="highcharts-grid-line" d="M 53 242.5 L 590 242.5" opacity="1"></path><path fill="none" stroke="#e6e6e6" stroke-width="1" data-z-index="1" class="highcharts-grid-line" d="M 53 183.5 L 590 183.5" opacity="1"></path><path fill="none" stroke="#e6e6e6" stroke-width="1" data-z-index="1" class="highcharts-grid-line" d="M 53 123.5 L 590 123.5" opacity="1"></path><path fill="none" stroke="#e6e6e6" stroke-width="1" data-z-index="1" class="highcharts-grid-line" d="M 53 62.5 L 590 62.5" opacity="1"></path></g><rect fill="none" class="highcharts-plot-border" data-z-index="1" x="53" y="63" width="537" height="299"></rect><g class="highcharts-axis highcharts-xaxis " data-z-index="2"><path fill="none" class="highcharts-tick" stroke="#ccd6eb" stroke-width="1" d="M 54.5 362 L 54.5 372" opacity="1"></path><path fill="none" class="highcharts-tick" stroke="#ccd6eb" stroke-width="1" d="M 163.5 362 L 163.5 372" opacity="1"></path><path fill="none" class="highcharts-tick" stroke="#ccd6eb" stroke-width="1" d="M 272.5 362 L 272.5 372" opacity="1"></path><path fill="none" class="highcharts-tick" stroke="#ccd6eb" stroke-width="1" d="M 378.5 362 L 378.5 372" opacity="1"></path><path fill="none" class="highcharts-tick" stroke="#ccd6eb" stroke-width="1" d="M 487.5 362 L 487.5 372" opacity="1"></path><path fill="none" class="highcharts-axis-line" stroke="#ccd6eb" stroke-width="1" data-z-index="7" d="M 53 362.5 L 590 362.5"></path></g><g class="highcharts-axis highcharts-yaxis " data-z-index="2"><path fill="none" class="highcharts-axis-line" data-z-index="7" d="M 53 63 L 53 362"></path></g><g class="highcharts-series-group" data-z-index="3"><g data-z-index="0.1" class="highcharts-series highcharts-series-0 highcharts-spline-series highcharts-color-0 " transform="translate(53,63) scale(1 1)" clip-path="url(#highcharts-2kafrgb-598)"><path fill="none" d="M 5.2647058823529 299 C 5.2647058823529 299 6.339135654261659 299 7.0554221688675 299 C 7.7717086834733795 299 8.12985194077632 299 8.8461384553822 299 C 9.56242496998812 299 9.92056822729108 299 10.636854741897 299 C 11.3531412565026 299 11.7112845138054 299 12.427571028411 299 C 13.143857543017 299 13.50200080032 299 14.218287314926 299 C 14.934573829532003 299 15.292717086835001 299 16.009003601441 299 C 16.7252901160466 299 17.0834333733494 299 17.799719887955 299 C 18.516006402560997 299 18.874149659864 299 19.59043617447 299 C 20.3067226890756 299 20.664865946378402 299 21.381152460984 299 C 22.097438975590002 299 22.455582232893 299 23.171868747499 299 C 23.888155262105 299 24.246298519408004 299 24.962585034014 299 C 25.6788715486196 299 26.0370148059224 299 26.753301320528 299 C 27.469587835134 299 27.827731092437 299 28.544017607043 299 C 29.260304121648595 299 29.6184473789514 299 30.334733893557 299 C 31.051020408163005 299 31.409163665466004 299 32.125450180072 299 C 32.841736694678005 299 33.199879951981 299 33.916166466587 299 C 34.6324529811926 299 34.9905962384954 299 35.706882753101 299 C 36.423169267706996 299 36.781312525009994 299 37.497599039616 299 C 38.2138855542216 299 38.5720288115244 299 39.28831532613 299 C 40.004601840735994 299 40.362745098039 299 41.079031612645 299 C 41.795318127250994 299 42.153461384554 299 42.86974789916 299 C 43.5860344137656 299 43.944177671068395 299 44.660464185674 299 C 45.37675070028 299 45.734893957583 299 46.451180472189 299 C 47.1674669867946 299 47.5256102440974 299 48.241896758703 299 C 48.958183273309 299 49.316326530612 299 50.032613045218 299 C 50.748899559824 299 51.107042817127 299 51.823329331733 299 C 52.5396158463386 299 52.8977591036414 299 53.614045618247 299 C 54.330332132853 299 54.688475390156 299 55.404761904762 299 C 56.121048419368 299 56.47919167667099 299 57.195478191277 299 C 57.91176470588259 299 58.2699079631854 293.02 58.986194477791 293.02 C 60.2934173669466 293.02 60.9470288115244 293.02 62.25425170068 293.02 C 62.379601840735994 293.02 62.44227691076401 299 62.56762705082 299 C 63.283913565426 299 63.642056822729 299 64.358343337335 299 C 65.074629851941 299 65.432773109244 299 66.14905962385 299 C 66.86534613845559 299 67.2234893957584 299 67.939775910364 299 C 68.65606242497 299 69.014205682273 299 69.730492196879 299 C 70.4467787114846 299 70.8049219687874 299 71.521208483393 299 C 72.237494997999 299 72.595638255302 299 73.311924769908 299 C 74.02821128451401 299 74.38635454181698 299 75.102641056423 299 C 75.8189275710286 299 76.1770708283314 299 76.893357342937 299 C 77.60964385754299 299 77.967787114846 299 78.684073629452 299 C 79.4003601440576 299 79.7585034013604 299 80.474789915966 299 C 81.191076430572 299 81.54921968787501 299 82.265506202481 299 C 82.981792717087 299 83.33993597439 299 84.056222488996 299 C 84.77250900360158 299 85.13065226090438 299 85.84693877551 299 C 86.563225290116 299 86.92136854741901 299 87.637655062025 299 C 88.3539415766306 299 88.7120848339334 299 89.428371348539 299 C 90.144657863145 299 90.502801120448 299 91.219087635054 299 C 91.93537414965999 299 92.29351740696299 299 93.009803921569 299 C 93.7260904361746 299 94.0842336934774 299 94.800520208083 299 C 95.51680672268898 299 95.874949979992 299 96.591236494598 299 C 97.3075230092036 299 97.6656662665064 299 98.381952781112 299 C 99.09823929571921 299 99.45638255302279 299 100.17266906763 299 C 100.88895558223399 299 101.24709883953601 299 101.96338535414 299 C 102.679671868748 299 103.03781512605201 299 103.75410164066 299 C 104.470388155264 299 104.82853141256601 299 105.54481792717 299 C 106.261104441778 299 106.61924769908201 299 107.33553421369 299 C 108.051820728294 299 108.40996398559601 299 109.1262505002 299 C 109.842537014804 299 110.200680272106 299 110.91696678671 299 C 111.63325330131799 299 111.991396558622 299 112.70768307323 299 C 113.42396958783402 299 113.782112845136 299 114.49839935974 299 C 115.21468587434802 299 115.572829131652 299 116.28911564626 299 C 117.005402160864 299 117.363545418166 299 118.07983193277 299 C 118.796118447378 299 119.154261704682 299 119.87054821929 299 C 120.58683473389401 299 120.94497799119601 299 121.6612645058 299 C 122.377551020408 299 122.73569427771199 299 123.45198079232 299 C 124.16826730692401 299 124.52641056422598 299 125.24269707883 299 C 125.958983593438 299 126.31712685074201 299 127.03341336535 299 C 127.74969987995401 299 128.107843137256 299 128.82412965186 299 C 129.540416166468 299 129.898559423772 299 130.61484593838 299 C 131.331132452984 299 131.68927571028598 299 132.40556222489 299 C 133.121848739494 299 133.479991996796 299 134.1962785114 299 C 134.912565026008 299 135.270708283312 299 135.98699479792 299 C 136.70328131252398 299 137.061424569826 299 137.77771108443 299 C 138.49399759903798 299 138.852140856342 299 139.56842737095 299 C 140.284713885554 299 140.64285714285603 299 141.35914365746 299 C 142.07543017206802 299 142.43357342937202 299 143.14985994398 299 C 143.86614645858398 299 144.224289715886 299 144.94057623049 299 C 145.65686274509798 299 146.015006002402 299 146.73129251701 299 C 147.447579031614 299 147.805722288916 299 148.52200880352 299 C 149.238295318128 299 149.59643857543202 299 150.31272509004 299 C 151.029011604644 299 151.38715486194602 299 152.10344137655 299 C 152.81972789115798 299 153.17787114846197 299 153.89415766307 299 C 154.61044417767397 299 154.968587434976 299 155.68487394958 299 C 156.401160464184 299 156.759303721486 299 157.47559023609 299 C 158.191876750698 299 158.550020008002 299 159.26630652261 299 C 159.98259303721403 299 160.340736294516 299 161.05702280912 299 C 161.77330932372803 299 162.131452581032 299 162.84773909564 299 C 163.56402561024402 299 163.922168867546 299 164.63845538215 299 C 165.354741896758 299 165.712885154062 299 166.42917166867 299 C 167.145458183274 299 167.503601440576 299 168.21988795518 299 C 168.936174469788 299 169.29431772709202 299 170.0106042417 299 C 170.72689075630402 299 171.085034013606 299 171.80132052821 299 C 172.517607042818 299 172.87575030012198 299 173.59203681473 299 C 174.308323329334 299 174.66646658663598 299 175.38275310124 299 C 176.099039615848 299 176.45718287315202 299 177.17346938776 299 C 177.88975590236402 299 178.24789915966602 299 178.96418567427 299 C 179.680472188874 299 180.03861544617598 299 180.75490196078 299 C 181.471188475388 299 181.829331732692 299 182.5456182473 299 C 183.261904761904 299 183.620048019206 299 184.33633453381 299 C 185.052621048418 299 185.410764305722 299 186.12705082033 299 C 186.843337334934 299 187.201480592236 299 187.91776710684 299 C 188.634053621448 299 188.99219687875203 299 189.70848339336 299 C 190.42476990796402 299 190.78291316526602 299 191.49919967987 299 C 192.215486194478 299 192.57362945178198 299 193.28991596639 299 C 194.00620248099398 299 194.364345738296 299 195.0806322529 299 C 195.796918767508 299 196.155062024812 299 196.87134853942 299 C 197.587635054024 299 197.94577831132602 299 198.66206482593 299 C 199.378351340534 299 199.736494597836 299 200.45278111244 299 C 201.16906762704798 299 201.52721088435197 299 202.24349739896 299 C 202.95978391356397 299 203.317927170866 299 204.03421368547 299 C 204.750500200078 299 205.10864345738202 299 205.82492997199 299 C 206.54121648659398 299 206.899359743896 299 207.6156462585 299 C 208.331932773108 299 208.690076030412 299 209.40636254502 299 C 210.12264905962402 299 210.480792316926 299 211.19707883153 299 C 211.91336534613802 299 212.271508603442 299 212.98779511805 299 C 213.704081632654 299 214.06222488995598 299 214.77851140456 299 C 215.49479791916798 299 215.852941176472 299 216.56922769108 299 C 217.28551420568402 299 217.643657462986 299 218.35994397759 299 C 219.07623049219802 299 219.434373749502 299 220.15066026411 299 C 220.866946778714 299 221.22509003601598 299 221.94137655062 299 C 222.657663065224 299 223.01580632252598 299 223.73209283713 299 C 224.448379351738 299 224.80652260904202 299 225.52280912365 299 C 226.239095638254 299 226.597238895556 299 227.31352541016 299 C 228.029811924768 299 228.38795518207198 299 229.10424169668 299 C 229.820528211284 299 230.17867146858597 299 230.89495798319 299 C 231.611244497798 299 231.969387755102 299 232.68567426971 299 C 233.40196078431399 299 233.76010404161602 299 234.47639055622 299 C 235.19267707082798 299 235.55082032813198 299 236.26710684274 299 C 236.983393357344 299 237.34153661464603 299 238.05782312925 299 C 238.774109643858 299 239.13225290116202 299 239.84853941577 299 C 240.56482593037398 299 240.92296918767596 299 241.63925570228 299 C 242.35554221688798 299 242.713685474192 299 243.4299719888 299 C 244.146258503404 299 244.50440176070597 299 245.22068827531 299 C 245.936974789914 299 246.29511804721602 299 247.01140456182 299 C 247.727691076428 299 248.085834333732 299 248.80212084834 299 C 249.51840736294398 299 249.87655062024595 299 250.59283713485 299 C 251.30912364945797 299 251.667266906762 299 252.38355342137 299 C 253.099839935974 299 253.457983193276 299 254.17426970788 299 C 254.890556222488 299 255.248699479792 299 255.9649859944 299 C 256.681272509004 299 257.039415766306 299 257.75570228091 299 C 258.471988795518 299 258.830132052822 299 259.54641856743 299 C 260.26270508203396 299 260.620848339336 299 261.33713485394 299 C 262.05342136854796 299 262.41156462585195 299 263.12785114046 299 C 263.84413765506395 299 264.20228091236606 299 264.91856742697 299 C 265.634853941578 299 265.992997198882 299 266.70928371349 299 C 267.425570228094 299 267.783713485396 299 268.5 299 C 269.216286514604 299 269.574429771906 299 270.29071628651 299 C 271.007002801118 299 271.365146058422 299 272.08143257303 299 C 272.79771908763394 299 273.15586234493605 299 273.87214885954 299 C 274.58843537414805 299 274.94657863145204 299 275.66286514606 299 C 276.379151660664 299 276.73729491796604 299 277.45358143257 299 C 278.169867947178 299 278.528011204482 299 279.24429771909 299 C 279.960584233694 299 280.31872749099597 299 281.0350140056 299 C 281.75130052020796 299 282.109443777512 299 282.82573029212 299 C 283.54201680672406 299 283.900160064026 299 284.61644657863 299 C 285.332733093238 299 285.690876350542 299 286.40716286515 299 C 287.123449379754 299 287.481592637056 299 288.19787915166 299 C 288.91416566626805 299 289.27230892357204 299 289.98859543818 299 C 290.70488195278404 299 291.06302521008604 299 291.77931172469 299 C 292.49559823929405 299 292.853741496596 299 293.5700280112 299 C 294.286314525808 299 294.644457783112 299 295.36074429772 299 C 296.077030812324 299 296.435174069626 299 297.15146058423 299 C 297.86774709883804 299 298.22589035614203 299 298.94217687075 299 C 299.658463385354 299 300.01660664265603 299 300.73289315726 299 C 301.449179671868 299 301.807322929172 299 302.52360944378 299 C 303.239895958384 299 303.598039215686 299 304.31432573029 299 C 305.030612244898 299 305.388755502202 299 306.10504201681 299 C 307.263038548754 299 307.842036814726 299 309.00003334667 299 C 309.716319861278 299 310.074463118582 59.80000000000001 310.79074963319 59.80000000000001 C 311.065326130454 59.80000000000001 311.20261437908596 299 311.47719087635 299 C 312.19347739095804 299 312.551620648262 299 313.26790716287 299 C 313.984193677474 299 314.342336934776 299 315.05862344938 299 C 315.774909963984 299 316.133053221286 299 316.84933973589 299 C 317.565626250498 299 317.923769507802 299 318.64005602241 299 C 319.79805255435406 299 320.37705082032596 59.80000000000001 321.53504735227 59.80000000000001 C 322.25133386687804 59.80000000000001 322.60947712418204 59.80000000000001 323.32576363879 59.80000000000001 C 324.04205015339403 59.80000000000001 324.40019341069603 59.80000000000001 325.1164799253 59.80000000000001 C 325.832766439908 59.80000000000001 326.190909697212 299 326.90719621182 299 C 327.623482726424 299 327.981625983726 59.80000000000001 328.69791249833 59.80000000000001 C 329.414199012938 59.80000000000001 329.772342270242 59.80000000000001 330.48862878485 59.80000000000001 C 331.204915299454 59.80000000000001 331.563058556756 59.80000000000001 332.27934507136 59.80000000000001 C 332.995631585968 59.80000000000001 333.353774843272 59.80000000000001 334.07006135788 59.80000000000001 C 334.78634787248404 59.80000000000001 335.144491129786 59.80000000000001 335.86077764439 59.80000000000001 C 336.57706415899804 59.80000000000001 336.935207416302 59.80000000000001 337.65149393091 59.80000000000001 C 338.36778044551403 59.80000000000001 338.725923702816 59.80000000000001 339.44221021742 59.80000000000001 C 340.158496732024 59.80000000000001 340.516639989326 59.80000000000001 341.23292650393 59.80000000000001 C 341.949213018538 59.80000000000001 342.307356275842 59.80000000000001 343.02364279045 59.80000000000001 C 343.73992930505403 59.80000000000001 344.098072562356 59.80000000000001 344.81435907696 59.80000000000001 C 345.53064559156803 59.80000000000001 345.88878884887197 59.80000000000001 346.60507536348 59.80000000000001 C 347.321361878084 59.80000000000001 347.67950513538597 59.80000000000001 348.39579164999 59.80000000000001 C 349.112078164598 59.80000000000001 349.470221421902 59.80000000000001 350.18650793651 59.80000000000001 C 350.902794451114 59.80000000000001 351.260937708416 59.80000000000001 351.97722422302 59.80000000000001 C 352.693510737628 59.80000000000001 353.051653994932 59.80000000000001 353.76794050954 59.80000000000001 C 354.484227024144 59.80000000000001 354.842370281446 59.80000000000001 355.55865679605 59.80000000000001 C 356.274943310658 59.80000000000001 356.633086567962 59.80000000000001 357.34937308257 59.80000000000001 C 358.065659597174 59.80000000000001 358.423802854476 59.80000000000001 359.14008936908 59.80000000000001 C 359.856375883688 59.80000000000001 360.21451914099197 59.80000000000001 360.9308056556 59.80000000000001 C 361.667983860212 59.80000000000001 362.036572962518 59.80000000000001 362.77375116713 59.80000000000001 C 363.616880085366 59.80000000000001 364.038444544484 59.80000000000001 364.88157346272 59.80000000000001 C 365.00841586634795 59.80000000000001 365.071837068162 299 365.19867947179 299 C 366.356676003734 299 366.935674269706 59.80000000000001 368.09367080165 59.80000000000001 C 368.89203181272194 59.80000000000001 369.291212318258 59.80000000000001 370.08957332933 59.80000000000001 C 370.72378534746997 59.80000000000001 371.04089135654004 59.80000000000001 371.67510337468 59.80000000000001 C 372.391389889288 59.80000000000001 372.749533146592 59.80000000000001 373.4658196612 59.80000000000001 C 373.740396158464 59.80000000000001 373.87768440709596 299 374.15226090436 299 C 375.488334222576 299 376.156370881684 59.80000000000001 377.4924441999 59.80000000000001 C 378.03065392823595 59.80000000000001 378.29975879240396 59.80000000000001 378.83796852074 59.80000000000001 C 379.554255035348 59.80000000000001 379.91239829265203 59.80000000000001 380.62868480726 59.80000000000001 C 381.34497132186397 59.80000000000001 381.703114579166 59.80000000000001 382.41940109377 59.80000000000001 C 383.13568760837796 59.80000000000001 383.49383086568196 299 384.21011738029 299 C 385.070158619006 299 385.500179238364 59.80000000000001 386.36022047708 59.80000000000001 C 386.932752267572 59.80000000000001 387.219018162818 59.80000000000001 387.79154995331 59.80000000000001 C 388.549619847938 59.80000000000001 388.928654795252 59.80000000000001 389.68672468988 59.80000000000001 C 390.361227824464 59.80000000000001 390.69847939175605 59.80000000000001 391.37298252634 59.80000000000001 C 392.08926904094807 59.80000000000001 392.447412298252 59.80000000000001 393.16369881286 59.80000000000001 C 393.881477591036 59.80000000000001 394.24036698012407 59.80000000000001 394.9581457583 59.80000000000001 C 395.8047566248721 59.80000000000001 396.228062058158 59.80000000000001 397.07467292473 59.80000000000001 C 397.659142823798 59.80000000000001 397.951377773332 59.80000000000001 398.5358476724 59.80000000000001 C 399.252134187008 59.80000000000001 399.61027744431203 59.80000000000001 400.32656395892 59.80000000000001 C 401.042850473524 59.80000000000001 401.400993730826 59.80000000000001 402.11728024543 59.80000000000001 C 402.83356676003797 59.80000000000001 403.191710017342 59.80000000000001 403.90799653195 59.80000000000001 C 404.62428304655407 59.80000000000001 404.982426303856 59.80000000000001 405.69871281846 59.80000000000001 C 406.414999333068 59.80000000000001 406.773142590372 59.80000000000001 407.48942910498 59.80000000000001 C 408.205715619584 59.80000000000001 408.563858876886 59.80000000000001 409.28014539149 59.80000000000001 C 409.996431906094 59.80000000000001 410.354575163396 59.80000000000001 411.070861678 59.80000000000001 C 412.0040238317521 59.80000000000001 412.47060490862805 59.80000000000001 413.40376706238 59.80000000000001 C 413.90317793784 59.80000000000001 414.15288337556996 59.80000000000001 414.65229425103 59.80000000000001 C 414.92687074829803 59.80000000000001 415.064158996932 299 415.3387354942 299 C 416.49673202614395 299 417.07573029211596 59.80000000000001 418.23372682406 59.80000000000001 C 418.95001333866804 59.80000000000001 419.30815659597204 59.80000000000001 420.02444311058 59.80000000000001 C 420.74072962518403 59.80000000000001 421.09887288248603 59.80000000000001 421.81515939709 59.80000000000001 C 422.53144591169803 59.80000000000001 422.889589169002 59.80000000000001 423.60587568361 59.80000000000001 C 423.880452180874 59.80000000000001 424.01774042950603 299 424.29231692677 299 C 425.567704859722 299 426.20539882619795 59.80000000000001 427.48078675915 59.80000000000001 C 428.07968187275003 59.80000000000001 428.37912942955 59.80000000000001 428.97802454315 59.80000000000001 C 429.694311057758 59.80000000000001 430.052454315062 59.80000000000001 430.76874082967 59.80000000000001 C 431.48502734427404 59.80000000000001 431.843170601576 59.80000000000001 432.55945711618 59.80000000000001 C 433.275743630784 59.80000000000001 433.633886888086 59.80000000000001 434.35017340269 59.80000000000001 C 435.066459917298 59.80000000000001 435.424603174602 59.80000000000001 436.14088968921 59.80000000000001 C 436.857176203814 59.80000000000001 437.215319461116 299 437.93160597572 299 C 438.647892490328 299 439.006035747632 59.80000000000001 439.72232226224 59.80000000000001 C 440.43860877684403 59.80000000000001 440.796752034146 59.80000000000001 441.51303854875 59.80000000000001 C 442.22932506335803 59.80000000000001 442.58746832066197 59.80000000000001 443.30375483527 59.80000000000001 C 444.020041349874 59.80000000000001 444.37818460717597 59.80000000000001 445.09447112178 59.80000000000001 C 445.810757636388 59.80000000000001 446.168900893692 59.80000000000001 446.8851874083 59.80000000000001 C 447.601473922904 59.80000000000001 447.959617180206 59.80000000000001 448.67590369481 59.80000000000001 C 448.950480192078 59.80000000000001 449.087768440712 299 449.36234493798 299 C 450.520341469924 299 451.099339735896 59.80000000000001 452.25733626784 59.80000000000001 C 452.973622782448 59.80000000000001 453.331766039752 299 454.04805255436 299 C 454.764339068964 299 455.122482326266 299 455.83876884087 299 C 456.656031857186 299 457.06466336534396 59.80000000000001 457.88192638166 59.80000000000001 C 458.49723639455596 59.80000000000001 458.804891401004 299 459.4202014139 299 C 459.69477791116395 299 459.832066159796 299 460.10664265706 299 C 461.264639189008 299 461.84363745498194 59.80000000000001 463.00163398693 59.80000000000001 C 463.71792050153397 59.80000000000001 464.07606375883597 59.80000000000001 464.79235027344 59.80000000000001 C 465.50863678804797 59.80000000000001 465.86678004535196 59.80000000000001 466.58306655996 59.80000000000001 C 467.299353074564 59.80000000000001 467.65749633186607 59.80000000000001 468.37378284647 59.80000000000001 C 469.090069361078 59.80000000000001 469.44821261838206 59.80000000000001 470.16449913299 59.80000000000001 C 470.880785647594 59.80000000000001 471.23892890489594 59.80000000000001 471.9552154195 59.80000000000001 C 472.671501934108 59.80000000000001 473.029645191412 59.80000000000001 473.74593170602 59.80000000000001 C 474.462218220624 59.80000000000001 474.820361477926 59.80000000000001 475.53664799253 59.80000000000001 C 476.252934507134 59.80000000000001 476.61107776443606 59.80000000000001 477.32736427904 59.80000000000001 C 478.043650793648 59.80000000000001 478.40179405095205 59.80000000000001 479.11808056556 59.80000000000001 C 479.392657062824 59.80000000000001 479.52994531145595 299 479.80452180872 299 C 480.52080832332797 299 480.878951580632 299 481.59523809524 299 C 482.311524609844 299 482.669667867146 299 483.38595438175 299 C 484.102240896358 299 484.460384153662 299 485.17667066827 299 C 485.89295718287406 299 486.251100440176 299 486.96738695478 299 C 487.68367346938794 299 488.041816726692 299 488.7581032413 299 C 489.4743897559039 299 489.832533013206 299 490.54881952781 299 C 491.26510604241804 299 491.62324929972203 299 492.33953581433 299 C 493.055822328934 299 493.41396558623603 299 494.13025210084 299 C 494.84653861544405 299 495.204681872746 299 495.92096838735 299 C 496.63725490195804 299 496.995398159262 299 497.71168467387 299 C 498.42797118847403 299 498.786114445776 299 499.50240096038 299 C 500.21868747498803 299 500.576830732292 299 501.2931172469 299 C 502.009403761504 299 502.367547018806 299 503.08383353341 299 C 503.800120048018 299 504.158263305322 299 504.87454981993 299 C 505.590836334534 299 505.948979591836 299 506.66526610644 299 C 507.381552621048 299 507.739695878352 299 508.45598239296 299 C 509.172268907564 299 509.530412164866 299 510.24669867947 299 C 510.962985194078 299 511.321128451382 299 512.03741496599 299 C 512.753701480594 299 513.111844737896 299 513.8281312525 299 C 514.544417767108 299 514.902561024412 299 515.61884753902 299 C 516.335134053624 299 516.693277310926 299 517.40956382553 299 C 518.125850340134 299 518.483993597436 299 519.20028011204 299 C 519.916566626648 299 520.274709883952 299 520.99099639856 299 C 521.707282913164 299 522.065426170466 299 522.78171268507 299 C 523.4979991996781 299 523.8561424569821 299 524.57242897159 299 C 525.2887154861941 299 525.646858743496 299 526.3631452581 299 C 527.079431772708 299 527.437575030012 299 528.15386154462 299 C 528.870148059224 299 529.228291316526 299 529.94457783113 299 C 530.660864345738 299 531.73529411765 299 531.73529411765 299" class="highcharts-graph" data-z-index="1" stroke="#000000" stroke-width="2" stroke-linejoin="round" stroke-linecap="round"></path></g><g data-z-index="0.1" class="highcharts-markers highcharts-series-0 highcharts-spline-series highcharts-color-0 " transform="translate(53,63) scale(1 1)" clip-path="none"></g></g><text x="300" text-anchor="middle" class="highcharts-title" data-z-index="4" style="color:#333333;font-size:18px;fill:#333333;" y="24"><tspan>Vitamin D3 by NatureMade Over Time</tspan></text><text x="300" text-anchor="middle" class="highcharts-subtitle" data-z-index="4" style="color:#666666;fill:#666666;" y="46"><tspan>This chart shows how your Vitamin D3 By NatureMade changes over time.</tspan></text><g class="highcharts-axis-labels highcharts-xaxis-labels " data-z-index="7"><text x="57.892190209417" style="color:#666666;cursor:default;font-size:11px;fill:#666666;" text-anchor="middle" transform="translate(0,0)" y="381" opacity="1"><tspan>Sep '13</tspan></text><text x="167.12588368681" style="color:#666666;cursor:default;font-size:11px;fill:#666666;" text-anchor="middle" transform="translate(0,0)" y="381" opacity="1"><tspan>Nov '13</tspan></text><text x="276.3595771642" style="color:#666666;cursor:default;font-size:11px;fill:#666666;" text-anchor="middle" transform="translate(0,0)" y="381" opacity="1"><tspan>Jan '14</tspan></text><text x="382.01183806856" style="color:#666666;cursor:default;font-size:11px;fill:#666666;" text-anchor="middle" transform="translate(0,0)" y="381" opacity="1"><tspan>Mar '14</tspan></text><text x="491.24553154595" style="color:#666666;cursor:default;font-size:11px;fill:#666666;" text-anchor="middle" transform="translate(0,0)" y="381" opacity="1"><tspan>May '14</tspan></text></g><g class="highcharts-axis-labels highcharts-yaxis-labels " data-z-index="7"><text x="38" style="color:#666666;cursor:default;font-size:11px;fill:#666666;" text-anchor="end" transform="translate(0,0)" y="366" opacity="1">0</text><text x="38" style="color:#666666;cursor:default;font-size:11px;fill:#666666;" text-anchor="end" transform="translate(0,0)" y="306" opacity="1">250</text><text x="38" style="color:#666666;cursor:default;font-size:11px;fill:#666666;" text-anchor="end" transform="translate(0,0)" y="246" opacity="1">500</text><text x="38" style="color:#666666;cursor:default;font-size:11px;fill:#666666;" text-anchor="end" transform="translate(0,0)" y="186" opacity="1">750</text><text x="38" style="color:#666666;cursor:default;font-size:11px;fill:#666666;" text-anchor="end" transform="translate(0,0)" y="126" opacity="1">1000</text><text x="38" style="color:#666666;cursor:default;font-size:11px;fill:#666666;" text-anchor="end" transform="translate(0,0)" y="67" opacity="1">1250</text></g><a xlink:href="https://quantimo.do" target="_blank">
                    <text x="590" class="highcharts-credits" text-anchor="end" data-z-index="8"
                          style="cursor:pointer;color:#999999;font-size:9px;fill:#999999;" y="395">https://quantimo.do
                    </text>
                </a></svg>