<?xml version="1.0" standalone="no"?><!DOCTYPE svg PUBLIC "-//W3C//DTD SVG 1.1//EN" "http://www.w3.org/Graphics/SVG/1.1/DTD/svg11.dtd"><svg xmlns:xlink="http://www.w3.org/1999/xlink" version="1.1" class="highcharts-root" style="font-family:&quot;Lucida Grande&quot;, &quot;Lucida Sans Unicode&quot;, Arial, Helvetica, sans-serif;font-size:12px;" xmlns="http://www.w3.org/2000/svg" width="600" height="300"><desc>Created with Highstock 6.2.0</desc><defs><clipPath id="highcharts-d2q2hcd-25"><rect x="0" y="0" width="511" height="156" fill="none"></rect></clipPath><clipPath id="highcharts-d2q2hcd-44"><rect x="0" y="0" width="511" height="156" fill="none"></rect></clipPath><clipPath id="highcharts-d2q2hcd-45"><rect x="79" y="63" width="511" height="156" fill="none"></rect></clipPath></defs><rect fill="#ffffff" class="highcharts-background" x="0" y="0" width="600" height="300" rx="0" ry="0"></rect><rect fill="none" class="highcharts-plot-background" x="79" y="63" width="511" height="156"></rect><g class="highcharts-pane-group" data-z-index="0"></g><g class="highcharts-grid highcharts-xaxis-grid " data-z-index="1"><path fill="none" data-z-index="1" class="highcharts-grid-line" d="M 106.5 63 L 106.5 219" opacity="1"></path><path fill="none" data-z-index="1" class="highcharts-grid-line" d="M 135.5 63 L 135.5 219" opacity="1"></path><path fill="none" data-z-index="1" class="highcharts-grid-line" d="M 163.5 63 L 163.5 219" opacity="1"></path><path fill="none" data-z-index="1" class="highcharts-grid-line" d="M 192.5 63 L 192.5 219" opacity="1"></path><path fill="none" data-z-index="1" class="highcharts-grid-line" d="M 220.5 63 L 220.5 219" opacity="1"></path><path fill="none" data-z-index="1" class="highcharts-grid-line" d="M 248.5 63 L 248.5 219" opacity="1"></path><path fill="none" data-z-index="1" class="highcharts-grid-line" d="M 277.5 63 L 277.5 219" opacity="1"></path><path fill="none" data-z-index="1" class="highcharts-grid-line" d="M 305.5 63 L 305.5 219" opacity="1"></path><path fill="none" data-z-index="1" class="highcharts-grid-line" d="M 334.5 63 L 334.5 219" opacity="1"></path><path fill="none" data-z-index="1" class="highcharts-grid-line" d="M 362.5 63 L 362.5 219" opacity="1"></path><path fill="none" data-z-index="1" class="highcharts-grid-line" d="M 390.5 63 L 390.5 219" opacity="1"></path><path fill="none" data-z-index="1" class="highcharts-grid-line" d="M 419.5 63 L 419.5 219" opacity="1"></path><path fill="none" data-z-index="1" class="highcharts-grid-line" d="M 447.5 63 L 447.5 219" opacity="1"></path><path fill="none" data-z-index="1" class="highcharts-grid-line" d="M 475.5 63 L 475.5 219" opacity="1"></path><path fill="none" data-z-index="1" class="highcharts-grid-line" d="M 504.5 63 L 504.5 219" opacity="1"></path><path fill="none" data-z-index="1" class="highcharts-grid-line" d="M 532.5 63 L 532.5 219" opacity="1"></path><path fill="none" data-z-index="1" class="highcharts-grid-line" d="M 561.5 63 L 561.5 219" opacity="1"></path><path fill="none" data-z-index="1" class="highcharts-grid-line" d="M 589.5 63 L 589.5 219" opacity="1"></path><path fill="none" data-z-index="1" class="highcharts-grid-line" d="M 78.5 63 L 78.5 219" opacity="1"></path></g><g class="highcharts-grid highcharts-yaxis-grid " data-z-index="1"><path fill="none" stroke="#e6e6e6" stroke-width="1" data-z-index="1" class="highcharts-grid-line" d="M 79 219.5 L 590 219.5" opacity="1"></path><path fill="none" stroke="#e6e6e6" stroke-width="1" data-z-index="1" class="highcharts-grid-line" d="M 79 180.5 L 590 180.5" opacity="1"></path><path fill="none" stroke="#e6e6e6" stroke-width="1" data-z-index="1" class="highcharts-grid-line" d="M 79 141.5 L 590 141.5" opacity="1"></path><path fill="none" stroke="#e6e6e6" stroke-width="1" data-z-index="1" class="highcharts-grid-line" d="M 79 102.5 L 590 102.5" opacity="1"></path><path fill="none" stroke="#e6e6e6" stroke-width="1" data-z-index="1" class="highcharts-grid-line" d="M 79 62.5 L 590 62.5" opacity="1"></path></g><rect fill="none" class="highcharts-plot-border" data-z-index="1" x="79" y="63" width="511" height="156"></rect><g class="highcharts-axis highcharts-xaxis " data-z-index="2"><path fill="none" class="highcharts-tick" stroke="#ccd6eb" stroke-width="1" d="M 106.5 219 L 106.5 229" opacity="1"></path><path fill="none" class="highcharts-tick" stroke="#ccd6eb" stroke-width="1" d="M 135.5 219 L 135.5 229" opacity="1"></path><path fill="none" class="highcharts-tick" stroke="#ccd6eb" stroke-width="1" d="M 163.5 219 L 163.5 229" opacity="1"></path><path fill="none" class="highcharts-tick" stroke="#ccd6eb" stroke-width="1" d="M 192.5 219 L 192.5 229" opacity="1"></path><path fill="none" class="highcharts-tick" stroke="#ccd6eb" stroke-width="1" d="M 220.5 219 L 220.5 229" opacity="1"></path><path fill="none" class="highcharts-tick" stroke="#ccd6eb" stroke-width="1" d="M 248.5 219 L 248.5 229" opacity="1"></path><path fill="none" class="highcharts-tick" stroke="#ccd6eb" stroke-width="1" d="M 277.5 219 L 277.5 229" opacity="1"></path><path fill="none" class="highcharts-tick" stroke="#ccd6eb" stroke-width="1" d="M 305.5 219 L 305.5 229" opacity="1"></path><path fill="none" class="highcharts-tick" stroke="#ccd6eb" stroke-width="1" d="M 334.5 219 L 334.5 229" opacity="1"></path><path fill="none" class="highcharts-tick" stroke="#ccd6eb" stroke-width="1" d="M 362.5 219 L 362.5 229" opacity="1"></path><path fill="none" class="highcharts-tick" stroke="#ccd6eb" stroke-width="1" d="M 390.5 219 L 390.5 229" opacity="1"></path><path fill="none" class="highcharts-tick" stroke="#ccd6eb" stroke-width="1" d="M 419.5 219 L 419.5 229" opacity="1"></path><path fill="none" class="highcharts-tick" stroke="#ccd6eb" stroke-width="1" d="M 447.5 219 L 447.5 229" opacity="1"></path><path fill="none" class="highcharts-tick" stroke="#ccd6eb" stroke-width="1" d="M 475.5 219 L 475.5 229" opacity="1"></path><path fill="none" class="highcharts-tick" stroke="#ccd6eb" stroke-width="1" d="M 504.5 219 L 504.5 229" opacity="1"></path><path fill="none" class="highcharts-tick" stroke="#ccd6eb" stroke-width="1" d="M 532.5 219 L 532.5 229" opacity="1"></path><path fill="none" class="highcharts-tick" stroke="#ccd6eb" stroke-width="1" d="M 561.5 219 L 561.5 229" opacity="1"></path><path fill="none" class="highcharts-tick" stroke="#ccd6eb" stroke-width="1" d="M 590.5 219 L 590.5 229" opacity="1"></path><path fill="none" class="highcharts-tick" stroke="#ccd6eb" stroke-width="1" d="M 78.5 219 L 78.5 229" opacity="1"></path><text x="334.5" data-z-index="7" text-anchor="middle" transform="translate(0,0)" class="highcharts-axis-title" style="color:#666666;fill:#666666;" y="281.47665940288704"><tspan>Daily Values (h)</tspan></text><path fill="none" class="highcharts-axis-line" stroke="#ccd6eb" stroke-width="1" data-z-index="7" d="M 79 219.5 L 590 219.5"></path></g><g class="highcharts-axis highcharts-yaxis " data-z-index="2"><text x="26" data-z-index="7" text-anchor="middle" transform="translate(0,0) rotate(270 26 141)" class="highcharts-axis-title" style="color:#666666;fill:#666666;" y="141"><tspan>Number of Days</tspan></text><path fill="none" class="highcharts-axis-line" data-z-index="7" d="M 79 63 L 79 219"></path></g><g class="highcharts-series-group" data-z-index="3"><g data-z-index="0.1" class="highcharts-series highcharts-series-0 highcharts-column-series highcharts-color-0 " transform="translate(79,63) scale(1 1)" clip-path="url(#highcharts-d2q2hcd-44)"><rect x="6.5" y="29.5" width="14" height="127" fill="#000000" stroke="#ffffff" stroke-width="1" class="highcharts-point highcharts-color-0"></rect><rect x="35.5" y="156.5" width="14" height="0" fill="#000000" stroke="#ffffff" stroke-width="1" class="highcharts-point highcharts-color-0"></rect><rect x="63.5" y="155.5" width="14" height="1" fill="#000000" stroke="#ffffff" stroke-width="1" class="highcharts-point highcharts-color-0"></rect><rect x="92.5" y="155.5" width="14" height="1" fill="#000000" stroke="#ffffff" stroke-width="1" class="highcharts-point highcharts-color-0"></rect><rect x="120.5" y="154.5" width="14" height="2" fill="#000000" stroke="#ffffff" stroke-width="1" class="highcharts-point highcharts-color-0"></rect><rect x="148.5" y="156.5" width="14" height="0" fill="#000000" stroke="#ffffff" stroke-width="1" class="highcharts-point highcharts-color-0"></rect><rect x="177.5" y="155.5" width="14" height="1" fill="#000000" stroke="#ffffff" stroke-width="1" class="highcharts-point highcharts-color-0"></rect><rect x="205.5" y="156.5" width="14" height="0" fill="#000000" stroke="#ffffff" stroke-width="1" class="highcharts-point highcharts-color-0"></rect><rect x="233.5" y="155.5" width="14" height="1" fill="#000000" stroke="#ffffff" stroke-width="1" class="highcharts-point highcharts-color-0"></rect><rect x="262.5" y="156.5" width="14" height="0" fill="#000000" stroke="#ffffff" stroke-width="1" class="highcharts-point highcharts-color-0"></rect><rect x="290.5" y="156.5" width="14" height="0" fill="#000000" stroke="#ffffff" stroke-width="1" class="highcharts-point highcharts-color-0"></rect><rect x="319.5" y="156.5" width="14" height="0" fill="#000000" stroke="#ffffff" stroke-width="1" class="highcharts-point highcharts-color-0"></rect><rect x="347.5" y="156.5" width="14" height="0" fill="#000000" stroke="#ffffff" stroke-width="1" class="highcharts-point highcharts-color-0"></rect><rect x="375.5" y="155.5" width="14" height="1" fill="#000000" stroke="#ffffff" stroke-width="1" class="highcharts-point highcharts-color-0"></rect><rect x="404.5" y="156.5" width="14" height="0" fill="#000000" stroke="#ffffff" stroke-width="1" class="highcharts-point highcharts-color-0"></rect><rect x="432.5" y="156.5" width="14" height="0" fill="#000000" stroke="#ffffff" stroke-width="1" class="highcharts-point highcharts-color-0"></rect><rect x="461.5" y="156.5" width="14" height="0" fill="#000000" stroke="#ffffff" stroke-width="1" class="highcharts-point highcharts-color-0"></rect><rect x="489.5" y="156.5" width="14" height="0" fill="#000000" stroke="#ffffff" stroke-width="1" class="highcharts-point highcharts-color-0"></rect></g><g data-z-index="0.1" class="highcharts-markers highcharts-series-0 highcharts-column-series highcharts-color-0 " transform="translate(79,63) scale(1 1)" clip-path="none"></g></g><text x="300" text-anchor="middle" class="highcharts-title" data-z-index="4" style="color:#333333;font-size:18px;fill:#333333;" y="24"><tspan>Daily Patientslikeme.com Usage Distribution</tspan></text><text x="300" text-anchor="middle" class="highcharts-subtitle" data-z-index="4" style="color:#666666;fill:#666666;" y="46"><tspan>Each column represents the number of days this value occurred.</tspan></text><g class="highcharts-axis-labels highcharts-xaxis-labels " data-z-index="7"><text x="95.78716930879622" style="color:#666666;cursor:default;font-size:11px;fill:#666666;" text-anchor="end" transform="translate(0,0) rotate(-45 95.78716930879622 235)" y="235" opacity="1">0</text><text x="124.17605819768623" style="color:#666666;cursor:default;font-size:11px;fill:#666666;" text-anchor="end" transform="translate(0,0) rotate(-45 124.17605819768623 235)" y="235" opacity="1">0.0003</text><text x="152.56494708657624" style="color:#666666;cursor:default;font-size:11px;fill:#666666;" text-anchor="end" transform="translate(0,0) rotate(-45 152.56494708657624 235)" y="235" opacity="1">0.0008</text><text x="180.95383597546623" style="color:#666666;cursor:default;font-size:11px;fill:#666666;" text-anchor="end" transform="translate(0,0) rotate(-45 180.95383597546623 235)" y="235" opacity="1">0.001</text><text x="209.34272486434622" style="color:#666666;cursor:default;font-size:11px;fill:#666666;" text-anchor="end" transform="translate(0,0) rotate(-45 209.34272486434622 235)" y="235" opacity="1">0.002</text><text x="237.73161375323622" style="color:#666666;cursor:default;font-size:11px;fill:#666666;" text-anchor="end" transform="translate(0,0) rotate(-45 237.73161375323622 235)" y="235" opacity="1">0.003</text><text x="266.1205026421262" style="color:#666666;cursor:default;font-size:11px;fill:#666666;" text-anchor="end" transform="translate(0,0) rotate(-45 266.1205026421262 235)" y="235" opacity="1">0.004</text><text x="294.5093915310162" style="color:#666666;cursor:default;font-size:11px;fill:#666666;" text-anchor="end" transform="translate(0,0) rotate(-45 294.5093915310162 235)" y="235" opacity="1">0.005</text><text x="322.8982804199062" style="color:#666666;cursor:default;font-size:11px;fill:#666666;" text-anchor="end" transform="translate(0,0) rotate(-45 322.8982804199062 235)" y="235" opacity="1">0.006</text><text x="351.2871693087962" style="color:#666666;cursor:default;font-size:11px;fill:#666666;" text-anchor="end" transform="translate(0,0) rotate(-45 351.2871693087962 235)" y="235" opacity="1">0.007</text><text x="379.6760581976862" style="color:#666666;cursor:default;font-size:11px;fill:#666666;" text-anchor="end" transform="translate(0,0) rotate(-45 379.6760581976862 235)" y="235" opacity="1">0.008</text><text x="408.0649470865762" style="color:#666666;cursor:default;font-size:11px;fill:#666666;" text-anchor="end" transform="translate(0,0) rotate(-45 408.0649470865762 235)" y="235" opacity="1">0.01</text><text x="436.4538359754662" style="color:#666666;cursor:default;font-size:11px;fill:#666666;" text-anchor="end" transform="translate(0,0) rotate(-45 436.4538359754662 235)" y="235" opacity="1">0.02</text><text x="464.8427248643462" style="color:#666666;cursor:default;font-size:11px;fill:#666666;" text-anchor="end" transform="translate(0,0) rotate(-45 464.8427248643462 235)" y="235" opacity="1">0.03</text><text x="493.2316137532362" style="color:#666666;cursor:default;font-size:11px;fill:#666666;" text-anchor="end" transform="translate(0,0) rotate(-45 493.2316137532362 235)" y="235" opacity="1">0.04</text><text x="521.6205026421262" style="color:#666666;cursor:default;font-size:11px;fill:#666666;" text-anchor="end" transform="translate(0,0) rotate(-45 521.6205026421262 235)" y="235" opacity="1">0.05</text><text x="550.0093915310161" style="color:#666666;cursor:default;font-size:11px;fill:#666666;" text-anchor="end" transform="translate(0,0) rotate(-45 550.0093915310161 235)" y="235" opacity="1">0.06</text><text x="578.3982804199062" style="color:#666666;cursor:default;font-size:11px;fill:#666666;" text-anchor="end" transform="translate(0,0) rotate(-45 578.3982804199062 235)" y="235" opacity="1">0.2</text></g><g class="highcharts-axis-labels highcharts-yaxis-labels " data-z-index="7"><text x="64" style="color:#666666;cursor:default;font-size:11px;fill:#666666;" text-anchor="end" transform="translate(0,0)" y="223" opacity="1">0</text><text x="64" style="color:#666666;cursor:default;font-size:11px;fill:#666666;" text-anchor="end" transform="translate(0,0)" y="184" opacity="1">250</text><text x="64" style="color:#666666;cursor:default;font-size:11px;fill:#666666;" text-anchor="end" transform="translate(0,0)" y="145" opacity="1">500</text><text x="64" style="color:#666666;cursor:default;font-size:11px;fill:#666666;" text-anchor="end" transform="translate(0,0)" y="106" opacity="1">750</text><text x="64" style="color:#666666;cursor:default;font-size:11px;fill:#666666;" text-anchor="end" transform="translate(0,0)" y="67" opacity="1">1000</text></g><a xlink:href="https://quantimo.do" target="_blank">
                    <text x="590" class="highcharts-credits" text-anchor="end" data-z-index="8"
                          style="cursor:pointer;color:#999999;font-size:9px;fill:#999999;" y="295">https://quantimo.do
                    </text>
                </a></svg>