<?xml version="1.0" standalone="no"?><!DOCTYPE svg PUBLIC "-//W3C//DTD SVG 1.1//EN" "http://www.w3.org/Graphics/SVG/1.1/DTD/svg11.dtd"><svg xmlns:xlink="http://www.w3.org/1999/xlink" version="1.1" class="highcharts-root" style="font-family:&quot;Lucida Grande&quot;, &quot;Lucida Sans Unicode&quot;, Arial, Helvetica, sans-serif;font-size:12px;" xmlns="http://www.w3.org/2000/svg" width="600" height="400"><desc>Created with Highstock 6.2.0</desc><defs><clipPath id="highcharts-a2ctdx9-878"><rect x="0" y="0" width="541" height="299" fill="none"></rect></clipPath><clipPath id="highcharts-a2ctdx9-1750"><rect x="0" y="0" width="541" height="299" fill="none"></rect></clipPath><clipPath id="highcharts-a2ctdx9-1751"><rect x="49" y="63" width="541" height="299" fill="none"></rect></clipPath></defs><rect fill="#ffffff" class="highcharts-background" x="0" y="0" width="600" height="400" rx="0" ry="0"></rect><rect fill="none" class="highcharts-plot-background" x="49" y="63" width="541" height="299"></rect><g class="highcharts-pane-group" data-z-index="0"></g><g class="highcharts-grid highcharts-xaxis-grid " data-z-index="1"><path fill="none" data-z-index="1" class="highcharts-grid-line" d="M 84.5 63 L 84.5 362" opacity="1"></path><path fill="none" data-z-index="1" class="highcharts-grid-line" d="M 194.5 63 L 194.5 362" opacity="1"></path><path fill="none" data-z-index="1" class="highcharts-grid-line" d="M 306.5 63 L 306.5 362" opacity="1"></path><path fill="none" data-z-index="1" class="highcharts-grid-line" d="M 417.5 63 L 417.5 362" opacity="1"></path><path fill="none" data-z-index="1" class="highcharts-grid-line" d="M 529.5 63 L 529.5 362" opacity="1"></path></g><g class="highcharts-grid highcharts-yaxis-grid " data-z-index="1"><path fill="none" stroke="#e6e6e6" stroke-width="1" data-z-index="1" class="highcharts-grid-line" d="M 49 362.5 L 590 362.5" opacity="1"></path><path fill="none" stroke="#e6e6e6" stroke-width="1" data-z-index="1" class="highcharts-grid-line" d="M 49 287.5 L 590 287.5" opacity="1"></path><path fill="none" stroke="#e6e6e6" stroke-width="1" data-z-index="1" class="highcharts-grid-line" d="M 49 213.5 L 590 213.5" opacity="1"></path><path fill="none" stroke="#e6e6e6" stroke-width="1" data-z-index="1" class="highcharts-grid-line" d="M 49 138.5 L 590 138.5" opacity="1"></path><path fill="none" stroke="#e6e6e6" stroke-width="1" data-z-index="1" class="highcharts-grid-line" d="M 49 62.5 L 590 62.5" opacity="1"></path></g><rect fill="none" class="highcharts-plot-border" data-z-index="1" x="49" y="63" width="541" height="299"></rect><g class="highcharts-axis highcharts-xaxis " data-z-index="2"><path fill="none" class="highcharts-tick" stroke="#ccd6eb" stroke-width="1" d="M 84.5 362 L 84.5 372" opacity="1"></path><path fill="none" class="highcharts-tick" stroke="#ccd6eb" stroke-width="1" d="M 194.5 362 L 194.5 372" opacity="1"></path><path fill="none" class="highcharts-tick" stroke="#ccd6eb" stroke-width="1" d="M 306.5 362 L 306.5 372" opacity="1"></path><path fill="none" class="highcharts-tick" stroke="#ccd6eb" stroke-width="1" d="M 417.5 362 L 417.5 372" opacity="1"></path><path fill="none" class="highcharts-tick" stroke="#ccd6eb" stroke-width="1" d="M 529.5 362 L 529.5 372" opacity="1"></path><path fill="none" class="highcharts-axis-line" stroke="#ccd6eb" stroke-width="1" data-z-index="7" d="M 49 362.5 L 590 362.5"></path></g><g class="highcharts-axis highcharts-yaxis " data-z-index="2"><path fill="none" class="highcharts-axis-line" data-z-index="7" d="M 49 63 L 49 362"></path></g><g class="highcharts-series-group" data-z-index="3"><g data-z-index="0.1" class="highcharts-series highcharts-series-0 highcharts-spline-series highcharts-color-0 " transform="translate(49,63) scale(1 1)" clip-path="url(#highcharts-a2ctdx9-1750)"><path fill="none" d="M 5.3039215686275 299 C 5.3039215686275 299 5.6697092630156 299 5.913567725941 299 C 6.1574261888664 299 6.2793554203291 299 6.5232138832545 299 C 6.7670723461799 299 6.8890015776426 299 7.132860040568 299 C 7.3767185034934 299 7.4986477349561 299 7.7425061978815 299 C 7.986364660806901 299 8.1082938922696 299 8.352152355195 299 C 8.5960108181204 299 8.7179400495831 299 8.9617985125085 299 C 9.2056569754339 299 9.327586206896601 299 9.571444669822 299 C 9.8153031327472 299 9.9372323642098 299 10.181090827135 299 C 10.4249492900606 299 10.5468785215234 299 10.790736984449 299 C 11.0345954473742 299 11.1565246788368 299 11.400383141762 299 C 11.644241604687599 299 11.7661708361504 299 12.010029299076 299 C 12.2538877620012 299 12.3758169934638 299 12.619675456389 299 C 12.8635339193146 299 12.9854631507774 299 13.229321613703 299 C 13.4731800766282 299 13.595109308090798 299 13.838967771016 299 C 14.0828262339416 299 14.2047554654044 299 14.44861392833 299 C 14.6924723912552 299 14.8144016227178 299 15.058260085643 299 C 15.3021185485686 299 15.424047780031401 299 15.667906242957 299 C 15.9117647058822 299 16.0336939373448 299 16.27755240027 299 C 16.5214108631956 299 16.643340094658402 299 16.887198557584 299 C 17.1310570205092 299 17.252986251971798 299 17.496844714897 299 C 17.740703177822603 299 17.862632409285403 299 18.106490872211 299 C 18.3503493351362 299 18.4722785665988 299 18.716137029524 299 C 18.9599954924496 299 19.0819247239124 299 19.325783186838 299 C 19.569641649763202 299 19.6915708812258 299 19.935429344151 299 C 20.179287807076598 299 20.3012170385394 299 20.545075501465 299 C 20.788933964390203 299 20.9108631958528 299 21.154721658778 299 C 21.3985801217036 299 21.5205093531664 299 21.764367816092 299 C 22.0082262790172 299 22.130155510479803 299 22.374013973405 299 C 22.6178724363306 299 22.739801667793397 299 22.983660130719 299 C 23.2275185936442 299 23.3494478251068 215.52916666666667 23.593306288032 215.52916666666667 C 23.8371647509576 215.52916666666667 23.9590939824204 299 24.202952445346 299 C 24.4468109082712 299 24.5687401397338 299 24.812598602659 299 C 25.056457065584603 299 25.178386297047403 299 25.422244759973 299 C 25.666103222898197 299 25.788032454360795 299 26.031890917286 299 C 26.275749380211597 299 26.3976786116744 299 26.6415370746 299 C 26.8853955375252 299 27.007324768987797 299 27.251183231913 299 C 27.495041694838598 299 27.6169709263014 299 27.860829389227 299 C 28.1046878521522 299 28.226617083614805 299 28.47047554654 299 C 28.714334009465603 299 28.8362632409284 299 29.080121703854 299 C 29.3239801667792 299 29.4459093982418 299 29.689767861167 299 C 29.933626324092597 299 30.055555555555394 299 30.299414018481 299 C 30.5432724814062 299 30.6652017128688 299 30.909060175794 299 C 31.152918638719598 299 31.274847870182402 299 31.518706333108 299 C 31.7625647960332 299 31.884494027495798 299 32.128352490421 299 C 32.372210953346595 299 32.494140184809396 299 32.737998647735 299 C 32.9818571106602 299 33.1037863421228 299 33.347644805048 299 C 33.5915032679736 299 33.713432499436394 299 33.957290962362 299 C 34.2011494252872 299 34.32307865674981 293.6013888888889 34.566937119675 293.6013888888889 C 34.8107955826006 293.6013888888889 34.932724814063405 299 35.176583276989 299 C 35.4204417399142 299 35.5423709713768 299 35.786229434302 299 C 36.0300878972276 299 36.152017128690396 299 36.395875591616 299 C 36.639734054541194 299 36.761663286003795 299 37.005521748929 299 C 37.2493802118546 299 37.3713094433174 299 37.615167906243 299 C 37.859026369168205 299 37.9809556006308 299 38.224814063556 299 C 38.4686725264816 299 38.5906017579444 279.06666666666666 38.83446022087 279.06666666666666 C 39.0783186837952 279.06666666666666 39.200247915257805 299 39.444106378183 299 C 39.6879648411086 299 39.809894072571396 299 40.053752535497 299 C 40.2976109984222 299 40.419540229884795 299 40.66339869281 299 C 40.9072571557356 299 41.0291863871984 299 41.273044850124 299 C 41.516903313049205 299 41.6388325445118 299 41.882691007437 299 C 42.126549470362605 299 42.2484787018254 299 42.492337164751 299 C 42.736195627676196 299 42.8581248591388 299 43.101983322064 299 C 43.3458417849896 299 43.4677710164524 299 43.711629479378 299 C 43.9554879423032 299 44.077417173765795 299 44.321275636691 299 C 44.5651340996166 299 44.6870633310794 299 44.930921794005 299 C 45.174780256930205 299 45.29670948839281 299 45.540567951318 299 C 45.784426414243605 299 45.9063556457064 299 46.150214108632 299 C 46.3940725715572 299 46.5160018030198 299 46.759860265945 299 C 47.003718728870595 299 47.1256479603334 299 47.369506423259 299 C 47.61336488618419 299 47.7352941176468 299 47.979152580572 299 C 48.22301104349761 299 48.3449402749604 299 48.588798737886 299 C 48.8326572008112 299 48.9545864322738 299 49.198444895199 299 C 49.442303358124605 299 49.564232589587405 299 49.808091052513 299 C 50.0519495154382 299 50.1738787469008 299 50.417737209826 299 C 50.6615956727516 299 50.783524904214396 299 51.02738336714 299 C 51.27124183006519 299 51.3931710615278 299 51.637029524453 299 C 51.88088798737861 299 52.0028172188414 299 52.246675681767 299 C 52.490534144692205 299 52.6124633761548 299 52.85632183908 299 C 53.100180302005604 299 53.222109533468405 299 53.465967996394 299 C 53.709826459319196 299 53.831755690781804 299 54.075614153707 299 C 54.31947261663261 299 54.441401848095396 299 54.685260311021 299 C 54.9291187739462 299 55.0510480054088 299 55.294906468334 299 C 55.53876493125959 299 55.66069416272241 299 55.904552625648 299 C 56.1484110885732 299 56.2703403200358 299 56.514198782961 299 C 56.758057245886604 299 56.87998647734939 299 57.123844940275 299 C 57.367703403200196 299 57.489632634662804 299 57.733491097588 299 C 57.977349560513595 299 58.099278791976396 299 58.343137254902 299 C 58.5869957178272 299 58.708924949289795 299 58.952783412215 299 C 59.1966418751406 299 59.31857110660339 299 59.562429569529 299 C 59.8062880324542 299 59.92821726391681 299 60.172075726842 299 C 60.41593418976761 299 60.5378634212304 299 60.781721884156 299 C 61.0255803470812 299 61.147509578543804 299 61.391368041469 299 C 61.635226504394595 299 61.757155735857395 299 62.001014198783 299 C 62.2448726617082 299 62.3668018931708 240.86111111111111 62.610660356096 240.86111111111111 C 62.8545188190216 240.86111111111111 62.97644805048439 286.5416666666667 63.22030651341 286.5416666666667 C 63.4641649763352 286.5416666666667 63.58609420779781 239.61527777777778 63.829952670723 239.61527777777778 C 64.0738111336486 239.61527777777778 64.1957403651114 299 64.439598828037 299 C 64.6834572909622 299 64.80538652242481 251.65833333333333 65.04924498535 251.65833333333333 C 65.2931034482756 251.65833333333333 65.4150326797384 299 65.658891142664 299 C 65.90274960558921 299 66.02467883705181 294.76416666666466 66.268537299977 292.35555555555555 C 66.5123957629026 289.9469444444424 66.6343249943654 286.95694444444445 66.878183457291 286.95694444444445 C 67.1220419202162 286.95694444444445 67.2439711516788 288.0366666666682 67.487829614604 289.8638888888889 C 67.7316880775296 291.69111111111266 67.8536173089924 296.09305555555557 68.097475771918 296.09305555555557 C 68.3413342348432 296.09305555555557 68.46326346630579 296.09305555555557 68.707121929231 292.35555555555555 C 68.9509803921566 288.61805555555554 69.0729096236194 274.0833333333333 69.316768086545 274.0833333333333 C 69.5606265494702 274.0833333333333 69.6825557809328 289.0333333333333 69.926414243858 292.35555555555555 C 70.1702727067836 295.6777777777778 70.2922019382464 294.3488888888878 70.536060401172 295.6777777777778 C 70.7799188640972 297.0066666666656 70.9018480955598 299 71.145706558485 299 C 71.3895650214106 299 71.5114942528734 299 71.755352715799 299 C 71.99921117872421 299 72.12114041018681 295.2625 72.364998873112 295.2625 C 72.6088573360376 295.2625 72.7307865675004 299 72.974645030426 299 C 73.21850349335121 299 73.34043272481381 290.27916666666664 73.584291187739 290.27916666666664 C 73.8281496506646 290.27916666666664 73.9500788821274 295.6777777777778 74.193937345053 295.6777777777778 C 74.4377958079782 295.6777777777778 74.55972503944079 266.69138888887767 74.803583502366 252.90416666666667 C 75.0474419652916 239.1169444444332 75.1693711967544 226.74166666666667 75.41322965968 226.74166666666667 C 75.6570881226052 226.74166666666667 75.77901735406779 287.37222222222226 76.022875816993 293.18611111111113 C 76.2667342799186 299 76.3886635113814 299 76.632521974307 299 C 76.8763804372322 299 76.9983096686948 299 77.24216813162 299 C 77.48602659454559 299 77.6079558260084 299 77.851814288934 299 C 78.0956727518592 299 78.2176019833218 299 78.461460446247 299 C 78.7053189091726 299 78.8272481406354 299 79.071106603561 299 C 79.31496506648621 299 79.43689429794881 299 79.680752760874 299 C 79.9246112237996 299 80.0465404552624 299 80.290398918188 299 C 80.5342573811132 299 80.6561866125758 299 80.900045075501 299 C 81.1439035384266 299 81.2658327698894 299 81.509691232815 299 C 81.7535496957402 299 81.87547892720279 299 82.119337390128 299 C 82.3631958530536 299 82.4851250845164 299 82.728983547442 299 C 82.9728420103672 299 83.09477124182979 299 83.338629704755 299 C 83.5824881676806 299 83.7044173991434 299 83.948275862069 299 C 84.1921343249942 299 84.3140635564568 299 84.557922019382 299 C 84.80178048230759 299 84.9237097137704 299 85.167568176696 299 C 85.4114266396212 299 85.5333558710838 299 85.777214334009 299 C 86.0210727969346 299 86.1430020283974 299 86.386860491323 299 C 86.63071895424821 299 86.7526481857108 299 86.996506648636 299 C 87.2403651115616 299 87.3622943430244 299 87.60615280595 299 C 87.8500112688752 299 87.9719405003378 299 88.215798963263 299 C 88.4596574261886 299 88.5815866576514 299 88.825445120577 299 C 89.0693035835022 299 89.19123281496479 299 89.43509127789 299 C 89.6789497408156 299 89.8008789722784 299 90.044737435204 299 C 90.28859589812919 299 90.41052512959179 299 90.654383592517 299 C 90.8982420554426 299 91.02017128690538 299 91.264029749831 299 C 91.50788821275619 299 91.6298174442188 299 91.873675907144 299 C 92.11753437006959 299 92.2394636015324 299 92.483322064458 299 C 92.7271805273832 299 92.8491097588458 299 93.092968221771 299 C 93.3368266846966 299 93.4587559161594 299 93.702614379085 299 C 93.94647284201021 299 94.0684020734728 299 94.312260536398 299 C 94.5561189993236 299 94.6780482307864 299 94.921906693712 299 C 95.1657651566372 299 95.2876943880998 299 95.531552851025 299 C 95.7754113139506 299 95.8973405454134 217.1902777777778 96.141199008339 217.1902777777778 C 96.38505747126419 217.1902777777778 96.50698670272679 298.58472222222224 96.750845165652 298.58472222222224 C 96.9947036285776 298.58472222222224 97.11663286004038 296.5083333333333 97.360491322966 296.5083333333333 C 97.60434978589119 296.5083333333333 97.7262790173538 299 97.970137480279 299 C 98.2139959432046 299 98.33592517466741 299 98.579783637593 299 C 98.8236421005182 299 98.9455713319808 299 99.189429794906 299 C 99.4332882578316 299 99.55521748929439 299 99.79907595222 299 C 100.042934415144 299 100.164863646606 299 100.40872210953 299 C 100.652580572458 299 100.774509803922 299 101.01836826685 299 C 101.262226729774 299 101.384155961236 299 101.62801442416 299 C 101.87187288708398 299 101.993802118546 299 102.23766058147 299 C 102.48151904439801 299 102.60344827586201 299 102.84730673879 299 C 103.091165201714 299 103.213094433176 299 103.4569528961 299 C 103.70081135902402 299 103.822740590486 299 104.06659905341 299 C 104.310457516338 299 104.432386747802 299 104.67624521073 299 C 104.92010367365398 299 105.042032905116 299 105.28589136804 299 C 105.52974983096401 299 105.651679062426 299 105.89553752535 299 C 106.13939598827798 299 106.261325219742 299 106.50518368267 299 C 106.74904214559399 299 106.87097137705601 299 107.11482983998 299 C 107.358688302908 299 107.480617534372 299 107.7244759973 299 C 107.96833446022399 299 108.090263691686 299 108.33412215461 299 C 108.57798061753401 299 108.699909848996 299 108.94376831192 299 C 109.18762677484798 299 109.30955600631201 299 109.55341446924 299 C 109.79727293216399 299 109.91920216362601 299 110.16306062655 299 C 110.40691908947402 299 110.528848320936 299 110.77270678386 299 C 111.01656524678799 299 111.138494478252 299 111.38235294118 299 C 111.62621140410401 299 111.748140635566 299 111.99199909849 299 C 112.235857561414 299 112.357786792876 299 112.6016452558 299 C 112.845503718728 299 112.967432950192 299 113.21129141312 299 C 113.45514987604402 299 113.57707910750601 54.81666666666666 113.82093757043 54.81666666666666 C 114.06479603335399 54.81666666666666 114.186725264816 299 114.43058372774 299 C 114.67444219066802 299 114.79637142213201 299 115.04022988506 299 C 115.284088347984 299 115.406017579446 299 115.64987604237 299 C 115.89373450529399 299 116.01566373675601 299 116.25952219968 299 C 116.50338066260801 299 116.625309894072 299 116.869168357 299 C 117.11302681992399 299 117.234956051386 299 117.47881451431 299 C 117.72267297723401 299 117.844602208696 299 118.08846067162 299 C 118.33231913454799 299 118.45424836601201 299 118.69810682894 299 C 118.941965291864 299 119.06389452332601 299 119.30775298625 299 C 119.551611449178 299 119.673540680642 299 119.91739914357 299 C 120.16125760649399 299 120.28318683795601 299 120.52704530088 299 C 120.77090376380401 299 120.892832995266 299 121.13669145819 299 C 121.38054992111799 299 121.50247915258201 299 121.74633761551 299 C 121.990196078434 299 122.11212530989602 299 122.35598377282 299 C 122.59984223574402 299 122.72177146720601 299 122.96562993013 299 C 123.209488393058 299 123.331417624522 299 123.57527608745 299 C 123.81913455037402 299 123.94106378183601 299 124.18492224476 299 C 124.428780707684 299 124.550709939146 299 124.79456840207 299 C 125.038426864998 299 125.16035609646201 299 125.40421455939 299 C 125.648073022314 299 125.77000225377601 299 126.0138607167 299 C 126.25771917962399 299 126.37964841108601 299 126.62350687401 299 C 126.86736533693802 299 126.98929456840202 299 127.23315303133 299 C 127.477011494254 299 127.598940725716 299 127.84279918864 299 C 128.086657651564 299 128.20858688302602 299 128.45244534595 299 C 128.696303808878 299 128.81823304034202 294.84722222222223 129.06209150327 294.84722222222223 C 129.305949966194 294.84722222222223 129.427879197656 299 129.67173766058 299 C 129.915596123504 299 130.03752535496602 299 130.28138381789 299 C 130.525242280818 299 130.647171512282 299 130.89102997521 299 C 131.13488843813397 299 131.25681766959602 290.27916666666664 131.50067613252 290.27916666666664 C 131.74453459544802 290.27916666666664 131.86646382691202 299 132.11032228984 299 C 132.354180752764 299 132.476109984226 299 132.71996844715 299 C 132.963826910074 299 133.08575614153602 299 133.32961460446 299 C 133.573473067388 299 133.695402298852 299 133.93926076178 299 C 134.18311922470397 299 134.30504845616602 299 134.54890691909 299 C 134.792765382014 299 134.914694613476 299 135.1585530764 299 C 135.402411539328 299 135.524340770792 299 135.76819923372 299 C 136.012057696644 299 136.13398692810603 299 136.37784539103 299 C 136.621703853954 299 136.74363308541598 299 136.98749154834 299 C 137.23135001126798 299 137.35327924273201 299 137.59713770566 299 C 137.840996168584 299 137.962925400046 299 138.20678386297 299 C 138.450642325894 299 138.572571557356 299 138.81643002028 299 C 139.060288483208 299 139.18221771467202 299 139.4260761776 299 C 139.669934640524 299 139.79186387198598 299 140.03572233491 299 C 140.27958079783397 299 140.40151002929602 299 140.64536849222 299 C 140.889226955148 299 141.011156186612 299 141.25501464954 299 C 141.49887311246397 299 141.620802343926 299 141.86466080685 299 C 142.108519269774 299 142.23044850123603 299 142.47430696416 299 C 142.718165427088 299 142.840094658552 299 143.08395312148 299 C 143.32781158440397 299 143.44974081586602 299 143.69359927879 299 C 143.937457741718 299 144.059386973182 299 144.30324543611 299 C 144.54710389903397 299 144.669033130496 299 144.91289159342 299 C 145.156750056344 299 145.27867928780603 299 145.52253775073 299 C 145.766396213658 299 145.888325445122 299 146.13218390805 299 C 146.37604237097398 299 146.49797160243602 299 146.74183006536 299 C 146.98568852828402 299 147.107617759746 299 147.35147622267 299 C 147.59533468559798 299 147.71726391706198 299 147.96112237999 299 C 148.204980842914 299 148.32691007437603 299 148.5707685373 299 C 148.814627000224 299 148.93655623168598 299 149.18041469461 299 C 149.42427315753798 299 149.54620238900202 299 149.79006085193 299 C 150.03391931485402 299 150.155848546316 299 150.39970700924 299 C 150.64356547216397 299 150.765494703626 299 151.00935316655 299 C 151.25321162947802 299 151.37514086094203 299 151.61899932387 299 C 151.862857786794 299 151.984787018256 299 152.22864548118 299 C 152.47250394410398 299 152.59443317556602 299 152.83829163849 299 C 153.082150101418 299 153.204079332882 299 153.44793779581 299 C 153.69179625873397 299 153.813725490196 299 154.05758395312 299 C 154.301442416044 299 154.42337164750603 299 154.66723011043 299 C 154.911088573358 299 155.033017804822 299 155.27687626775 299 C 155.52073473067398 299 155.64266396213603 299 155.88652242506 299 C 156.130380887988 299 156.252310119452 299 156.49616858238 299 C 156.74002704530398 299 156.861956276766 299 157.10581473969 299 C 157.349673202614 299 157.47160243407603 299 157.715460897 299 C 157.959319359928 299 158.081248591392 299 158.32510705432 299 C 158.56896551724398 299 158.69089474870603 299 158.93475321163 299 C 159.17861167455402 299 159.300540906016 299 159.54439936894 299 C 159.78825783186798 299 159.910187063332 299 160.15404552626 299 C 160.397903989184 299 160.519833220646 299 160.76369168357 299 C 161.007550146494 299 161.129479377956 299 161.37333784088 299 C 161.617196303808 299 161.73912553527202 256.64166666666665 161.9829839982 256.64166666666665 C 162.22684246112402 256.64166666666665 162.348771692586 294.01666666666665 162.59263015551 296.5083333333333 C 162.83648861843398 299 162.958417849896 299 163.20227631282 299 C 163.446134775748 299 163.568064007212 299 163.81192247014 299 C 164.055780933064 299 164.177710164526 297.75416666666666 164.42156862745 297.75416666666666 C 164.66542709037398 297.75416666666666 164.78735632183603 297.75416666666666 165.03121478476 297.75416666666666 C 165.275073247688 297.75416666666666 165.397002479152 299 165.64086094208 299 C 165.88471940500398 299 166.006648636466 299 166.25050709939 299 C 166.494365562314 299 166.616294793776 299 166.8601532567 299 C 167.10401171962798 299 167.22594095109199 293.6013888888889 167.46979941402 293.6013888888889 C 167.71365787694398 293.6013888888889 167.83558710840603 299 168.07944557133 299 C 168.323304034258 299 168.445233265722 299 168.68909172865 299 C 168.93295019157398 299 169.054879423036 299 169.29873788596 299 C 169.542596348884 299 169.664525580346 299 169.90838404327 299 C 170.15224250619798 299 170.274171737662 296.09305555555557 170.51803020059 296.09305555555557 C 170.761888663514 296.09305555555557 170.88381789497598 296.5083333333333 171.1276763579 296.5083333333333 C 171.371534820824 296.5083333333333 171.493464052286 296.5083333333333 171.73732251521 296.5083333333333 C 171.98118097813798 296.5083333333333 172.103110209602 299 172.34696867253 299 C 172.590827135454 299 172.712756366916 299 172.95661482984 299 C 173.200473292764 299 173.322402524226 296.09305555555557 173.56626098715 296.09305555555557 C 173.810119450078 296.09305555555557 173.93204868154197 299 174.17590714447 299 C 174.419765607394 299 174.541694838856 299 174.78555330178 299 C 175.02941176470398 299 175.151340996166 296.5083333333333 175.39519945909 296.5083333333333 C 175.639057922018 296.5083333333333 175.760987153482 299 176.00484561641 299 C 176.248704079334 299 176.370633310796 299 176.61449177372 299 C 176.858350236644 299 176.98027946810598 299 177.22413793103 299 C 177.467996393958 299 177.58992562542198 299 177.83378408835 299 C 178.07764255127398 299 178.199571782736 297.3388888888889 178.44343024566 297.3388888888889 C 178.687288708584 297.3388888888889 178.809217940046 297.3388888888889 179.05307640297 297.3388888888889 C 179.29693486589798 297.3388888888889 179.418864097362 299 179.66272256029 299 C 179.906581023214 299 180.02851025467598 299 180.2723687176 299 C 180.516227180528 299 180.638156411992 296.5083333333333 180.88201487492 296.5083333333333 C 181.12587333784398 296.5083333333333 181.247802569306 296.5083333333333 181.49166103223 296.5083333333333 C 181.735519495154 296.5083333333333 181.857448726616 297.2558333333374 182.10130718954 297.75416666666666 C 182.34516565246798 298.2525000000041 182.467094883932 299 182.71095334686 299 C 182.954811809784 299 183.07674104124598 299 183.32059950417 299 C 183.564457967094 299 183.686387198556 299 183.93024566148 299 C 184.174104124408 299 184.296033355872 299 184.5398918188 299 C 184.783750281724 299 184.905679513186 299 185.14953797611 299 C 185.393396439034 299 185.515325670496 299 185.75918413342 299 C 186.003042596348 299 186.12497182781198 299 186.36883029074 299 C 186.612688753664 299 186.734617985126 299 186.97847644805 299 C 187.22233491097398 299 187.344264142436 299 187.58812260536 299 C 187.831981068288 299 187.953910299752 299 188.19776876268 299 C 188.441627225604 299 188.563556457066 299 188.80741491999 299 C 189.051273382914 299 189.17320261437598 299 189.4170610773 299 C 189.660919540228 299 189.782848771692 299 190.02670723462 299 C 190.270565697544 299 190.39249492900598 299 190.63635339193 299 C 190.880211854854 299 191.002141086316 299 191.24599954924 299 C 191.48985801216799 299 191.611787243632 299 191.85564570656 299 C 192.099504169484 299 192.22143340094598 299 192.46529186387 299 C 192.709150326798 299 192.831079558262 299 193.07493802119 299 C 193.318796484114 299 193.44072571557598 299 193.6845841785 299 C 193.928442641424 299 194.050371872886 299 194.29423033581 299 C 194.538088798738 299 194.660018030202 299 194.90387649313 299 C 195.147734956054 299 195.26966418751599 299 195.51352265044 299 C 195.757381113364 299 195.879310344826 299 196.12316880775 299 C 196.367027270678 299 196.488956502142 299 196.73281496507 299 C 196.976673427994 299 197.098602659456 299 197.34246112238 299 C 197.586319585304 299 197.708248816766 299 197.95210727969 299 C 198.195965742618 299 198.31789497408198 299 198.56175343701 299 C 198.805611899934 299 198.927541131396 299 199.17139959432 299 C 199.415258057244 299 199.53718728870598 299 199.78104575163 299 C 200.024904214558 299 200.146833446022 296.9236111111111 200.39069190895 296.9236111111111 C 200.634550371874 296.9236111111111 200.756479603336 299 201.00033806626 299 C 201.244196529184 299 201.36612576064599 299 201.60998422357 299 C 201.853842686498 299 201.975771917962 299 202.21963038089 299 C 202.463488843814 299 202.58541807527598 299 202.8292765382 299 C 203.073135001124 299 203.195064232586 299 203.43892269551 299 C 203.682781158438 299 203.804710389902 299 204.04856885283 299 C 204.292427315754 299 204.414356547216 299 204.65821501014 299 C 204.90207347306801 299 205.024002704532 299 205.26786116746 299 C 205.511719630384 299 205.63364886184598 299 205.87750732477 299 C 206.121365787694 299 206.243295019156 299 206.48715348208 299 C 206.731011945008 299 206.852941176472 298.0863888888916 207.0967996394 297.75416666666666 C 207.340658102324 297.42194444444715 207.462587333786 297.3388888888889 207.70644579671 297.3388888888889 C 207.950304259634 297.3388888888889 208.072233491096 299 208.31609195402 299 C 208.559950416948 299 208.681879648412 299 208.92573811134 299 C 209.169596574264 299 209.291525805726 299 209.53538426865 299 C 209.77924273157402 299 209.901171963036 299 210.14503042596 299 C 210.388888888888 299 210.51081812035198 299 210.75467658328 299 C 210.998535046204 299 211.120464277666 299 211.36432274059 299 C 211.608181203514 299 211.73011043497598 299 211.9739688979 299 C 212.217827360828 299 212.339756592292 299 212.58361505522 299 C 212.82747351814402 299 212.949402749606 299 213.19326121253 299 C 213.437119675454 299 213.559048906916 299 213.80290736984 299 C 214.04676583276802 299 214.168695064232 299 214.41255352716 299 C 214.656411990084 299 214.778341221546 299 215.02219968447 299 C 215.266058147394 299 215.387987378856 299 215.63184584178 299 C 215.875704304708 299 215.997633536172 299 216.2414919991 299 C 216.485350462024 299 216.607279693486 299 216.85113815641 299 C 217.09499661933802 299 217.216925850802 299 217.46078431373 299 C 217.704642776654 299 217.826572008116 299 218.07043047104 299 C 218.314288933964 299 218.436218165426 299 218.68007662835 299 C 218.923935091278 299 219.045864322742 297.75416666666666 219.28972278567 297.75416666666666 C 219.533581248594 297.75416666666666 219.655510480056 299 219.89936894298 299 C 220.143227405904 299 220.265156637366 299 220.50901510029 299 C 220.752873563218 299 220.874802794682 299 221.11866125761 299 C 221.362519720534 299 221.484448951996 299 221.72830741492 299 C 221.97216587784402 299 222.094095109306 299 222.33795357223 299 C 222.581812035158 299 222.703741266622 299 222.94759972955 299 C 223.19145819247402 299 223.313387423936 299 223.55724588686 299 C 223.801104349784 299 223.923033581246 288.2027777777778 224.16689204417 288.2027777777778 C 224.41075050709802 288.2027777777778 224.532679738562 294.34888888887116 224.77653820149 296.5083333333333 C 225.02039666441402 298.66777777776 225.142325895876 299 225.3861843588 299 C 225.630042821724 299 225.751972053186 299 225.99583051611 299 C 226.23968897903802 299 226.361618210502 299 226.60547667343 299 C 226.849335136354 299 226.971264367816 282.8041666666667 227.21512283074 282.8041666666667 C 227.458981293664 282.8041666666667 227.580910525126 299 227.82476898805 299 C 228.068627450978 299 228.190556682442 299 228.43441514537 299 C 228.678273608294 299 228.800202839756 299 229.04406130268 299 C 229.28791976560802 299 229.409848997072 299 229.65370746 299 C 229.897565922924 299 230.019495154386 299 230.26335361731 299 C 230.507212080234 299 230.629141311696 290.69444444444446 230.87299977462 290.69444444444446 C 231.116858237548 290.69444444444446 231.238787469012 299 231.48264593194 299 C 231.726504394864 299 231.848433626326 299 232.09229208925 299 C 232.33615055217402 299 232.458079783636 299 232.70193824656 299 C 232.945796709488 299 233.06772594095202 296.5083333333333 233.31158440388 296.5083333333333 C 233.55544286680396 296.5083333333333 233.677372098266 299 233.92123056119 299 C 234.16508902411397 299 234.28701825557602 299 234.5308767185 299 C 234.774735181428 299 234.896664412892 299 235.14052287582 299 C 235.38438133874402 299 235.506310570206 299 235.75016903313 299 C 235.994027496054 299 236.115956727516 299 236.35981519044 299 C 236.60367365336796 299 236.725602884832 299 236.96946134776 299 C 237.21331981068397 299 237.33524904214602 299 237.57910750507 299 C 237.822965967994 299 237.944895199456 299 238.18875366238 299 C 238.43261212530803 299 238.554541356772 299 238.7983998197 299 C 239.042258282624 299 239.164187514086 299 239.40804597701 299 C 239.65190443993396 299 239.773833671396 299 240.01769213432 299 C 240.26155059724798 299 240.383479828712 299 240.62733829164 299 C 240.871196754564 299 240.993125986026 299 241.23698444895 299 C 241.48084291187803 299 241.602772143342 299 241.84663060627 299 C 242.090489069194 299 242.212418300656 299 242.45627676358 299 C 242.70013522650396 299 242.822064457966 299 243.06592292089 299 C 243.30978138381798 299 243.43171061528201 299 243.67556907821 299 C 243.919427541134 299 244.041356772596 299 244.28521523552 299 C 244.52907369844402 299 244.651002929906 299 244.89486139283 299 C 245.138719855758 299 245.26064908722202 294.01666666666665 245.50450755015 294.01666666666665 C 245.74836601307396 294.01666666666665 245.870295244536 299 246.11415370746 299 C 246.35801217038397 299 246.47994140184602 299 246.72379986477 299 C 246.96765832769802 299 247.089587559162 299 247.33344602209 299 C 247.57730448501397 299 247.69923371647602 299 247.9430921794 299 C 248.186950642324 299 248.308879873786 299 248.55273833671 299 C 248.79659679963797 299 248.918526031102 299 249.16238449403 299 C 249.40624295695397 299 249.52817218841602 299 249.77203065134 299 C 250.015889114264 299 250.137818345726 299 250.38167680865 299 C 250.62553527157803 299 250.747464503042 233.38611111111112 250.99132296597 233.38611111111112 C 251.235181428894 233.38611111111112 251.357110660356 274.9138888888889 251.60096912328 286.95694444444445 C 251.84482758620396 299 251.966756817666 299 252.21061528059 299 C 252.45447374351798 299 252.57640297498202 299 252.82026143791 299 C 253.06411990083402 299 253.186049132296 299 253.42990759522 299 C 253.67376605814798 299 253.795695289612 299 254.03955375254 299 C 254.283412215464 299 254.405341446926 299 254.64919990985 299 C 254.89305837277396 299 255.014987604236 299 255.25884606716 299 C 255.50270453008798 299 255.62463376155202 299 255.86849222448 299 C 256.11235068740405 299 256.23427991886604 299 256.47813838179 299 C 256.721996844714 299 256.843926076176 299 257.0877845391 299 C 257.331643002028 299 257.453572233492 299 257.69743069642 299 C 257.94128915934397 299 258.063218390806 299 258.30707685373 299 C 258.550935316654 299 258.672864548116 299 258.91672301104 299 C 259.160581473968 299 259.282510705432 299 259.52636916836 299 C 259.770227631284 299 259.892156862746 299 260.13601532567 299 C 260.37987378859395 299 260.50180302005595 299 260.74566148298 299 C 260.989519945908 299 261.11144917737204 299 261.3553076403 299 C 261.599166103224 299 261.721095334686 299 261.96495379761 299 C 262.20881226053405 299 262.33074149199604 299 262.57459995492 299 C 262.818458417848 299 262.940387649312 299 263.18424611224 299 C 263.42810457516396 299 263.55003380662595 299 263.79389226955 299 C 264.03775073247397 299 264.159679963936 299 264.40353842686 299 C 264.64739688978796 299 264.769326121252 299 265.01318458418 299 C 265.25704304710405 299 265.37897227856604 299 265.62283074149 299 C 265.866689204418 299 265.988618435882 299 266.23247689881 299 C 266.47633536173396 299 266.59826459319595 299 266.84212305612 299 C 267.08598151904397 299 267.207910750506 299 267.45176921343 299 C 267.69562767635796 299 267.817556907822 299 268.06141537075 299 C 268.30527383367405 299 268.42720306513604 299 268.67106152806 299 C 268.914919990984 299 269.036849222446 299 269.28070768537 299 C 269.524566148298 299 269.646495379762 299 269.89035384269 299 C 270.13421230561397 299 270.256141537076 299 270.5 299 C 270.743858462924 299 270.86578769438603 299 271.10964615731 299 C 271.353504620238 299 271.475433851702 299 271.71929231463 299 C 271.963150777554 299 272.085080009016 299 272.32893847194 299 C 272.57279693486396 299 272.69472616632595 299 272.93858462925 299 C 273.182443092178 299 273.30437232364204 299 273.54823078657 299 C 273.792089249494 299 273.91401848095603 299 274.15787694388 299 C 274.40173540680405 299 274.52366463826604 299 274.76752310119 299 C 275.011381564118 299 275.133310795582 299 275.37716925851 299 C 275.62102772143396 299 275.74295695289595 299 275.98681541582 299 C 276.230673878748 299 276.35260311021204 299 276.59646157314 299 C 276.840320036064 299 276.96224926752603 299 277.20610773045 299 C 277.44996619337405 299 277.57189542483604 299 277.81575388776 299 C 278.059612350688 299 278.181541582152 299 278.42540004508 299 C 278.66925850800396 299 278.79118773946595 299 279.03504620239 299 C 279.278904665314 299 279.400833896776 299 279.6446923597 299 C 279.88855082262796 299 280.010480054092 299 280.25433851702 299 C 280.49819697994405 299 280.62012621140605 299 280.86398467433 299 C 281.107843137254 299 281.229772368716 299 281.47363083164 299 C 281.717489294568 299 281.839418526032 299 282.08327698896 299 C 282.327135451884 299 282.449064683346 299 282.69292314627 299 C 282.936781609194 299 283.05871084065603 299 283.30256930358 299 C 283.546427766508 299 283.668356997972 299 283.9122154609 299 C 284.156073923824 299 284.278003155286 299 284.52186161821 299 C 284.76572008113396 299 284.88764931259595 299 285.13150777552 299 C 285.375366238448 299 285.49729546991205 299 285.74115393284 299 C 285.985012395764 299 286.10694162722604 299 286.35080009015 299 C 286.59465855307405 299 286.71658778453605 299 286.96044624746 299 C 287.204304710388 299 287.326233941852 299 287.57009240478 299 C 287.81395086770397 299 287.93588009916596 299 288.17973856209 299 C 288.423597025018 299 288.54552625648205 299 288.78938471941 299 C 289.033243182334 299 289.15517241379604 299 289.39903087672 299 C 289.642889339644 299 289.76481857110605 299 290.00867703403 299 C 290.252535496958 299 290.37446472842197 299 290.61832319135 299 C 290.86218165427397 299 290.98411088573596 299 291.22796934866 299 C 291.471827811584 299 291.593757043046 299 291.83761550597 299 C 292.08147396889797 299 292.203403200362 299 292.44726166329 299 C 292.691120126214 299 292.81304935767605 299 293.0569078206 299 C 293.300766283524 299 293.422695514986 299 293.66655397791 299 C 293.910412440838 299 294.032341672302 299 294.27620013523 299 C 294.520058598154 299 294.641987829616 291.9402777777778 294.88584629254 291.9402777777778 C 295.129704755464 291.9402777777778 295.25163398692604 299 295.49549244985 299 C 295.739350912778 299 295.861280144242 299 296.10513860717 299 C 296.348997070094 299 296.470926301556 299 296.71478476448 299 C 296.95864322740397 299 297.08057245886596 299 297.32443092179 299 C 297.568289384718 299 297.69021861618205 299 297.93407707911 299 C 298.177935542034 299 298.29986477349604 299 298.54372323642 299 C 298.787581699344 299 298.90951093080605 299 299.15336939373 299 C 299.397227856658 299 299.519157088122 299 299.76301555105 299 C 300.00687401397397 299 300.12880324543596 299 300.37266170836 299 C 300.616520171288 299 300.73844940275205 299 300.98230786568 299 C 301.226166328604 299 301.34809556006604 299 301.59195402299 299 C 301.835812485914 299 301.95774171737605 299 302.2016001803 299 C 302.445458643228 299 302.567387874692 299 302.81124633762 299 C 303.055104800544 299 303.17703403200596 299 303.42089249493 299 C 303.664750957854 299 303.78668018931603 299 304.03053865224 299 C 304.274397115168 299 304.396326346632 299 304.64018480956 299 C 304.884043272484 299 305.00597250394605 299 305.24983096687 299 C 305.493689429794 299 305.615618661256 299 305.85947712418 299 C 306.103335587108 299 306.225264818572 299 306.4691232815 299 C 306.712981744424 299 306.83491097588603 299 307.07876943881 299 C 307.322627901734 299 307.44455713319604 299 307.68841559612 299 C 307.932274059048 299 308.054203290512 299 308.29806175344 299 C 308.541920216364 299 308.663849447826 299 308.90770791075 299 C 309.151566373674 299 309.27349560513596 299 309.51735406806 299 C 309.761212530988 299 309.88314176245206 299 310.12700022538 299 C 310.370858688304 299 310.49278791976604 299 310.73664638269 299 C 310.980504845614 299 311.10243407707605 299 311.34629254 299 C 311.590151002928 299 311.712080234392 299 311.95593869732 299 C 312.199797160244 299 312.32172639170597 299 312.56558485463 299 C 312.809443317558 299 312.93137254902206 299 313.17523101195 299 C 313.419089474874 299 313.54101870633605 299 313.78487716926 299 C 314.028735632184 299 314.15066486364606 299 314.39452332657 299 C 314.638381789498 299 314.760311020962 299 315.00416948389 299 C 315.248027946814 299 315.36995717827597 299 315.6138156412 299 C 315.857674104124 299 315.97960333558603 299 316.22346179851 299 C 316.467320261438 299 316.589249492902 299 316.83310795583 299 C 317.076966418754 299 317.198895650216 299 317.44275411314 299 C 317.686612576064 299 317.808541807526 299 318.05240027045 299 C 318.296258733378 299 318.418187964842 299 318.66204642777 299 C 318.905904890694 299 319.02783412215604 299 319.27169258508 299 C 319.515551048004 299 319.63748027946605 299 319.88133874239 299 C 320.125197205318 299 320.247126436782 299 320.49098489971 299 C 320.734843362634 299 320.856772594096 299 321.10063105702 299 C 321.344489519944 299 321.46641875140597 299 321.71027721433 299 C 321.954135677258 299 322.07606490872206 299 322.31992337165 299 C 322.563781834574 299 322.685711066036 299 322.92956952896 299 C 323.173427991884 299 323.295357223346 299 323.53921568627 299 C 323.783074149198 299 323.905003380662 299 324.14886184359 299 C 324.392720306514 299 324.51464953797597 299 324.7585080009 299 C 325.002366463828 299 325.12429569529206 299 325.36815415822 299 C 325.612012621144 299 325.733941852606 299 325.97780031553 299 C 326.221658778454 299 326.343588009916 299 326.58744647284 299 C 326.831304935768 299 326.953234167232 299 327.19709263016 299 C 327.440951093084 299 327.562880324546 299 327.80673878747 299 C 328.050597250394 299 328.17252648185604 299 328.41638494478 299 C 328.660243407708 299 328.782172639172 299 329.0260311021 299 C 329.269889565024 299 329.391818796486 299 329.63567725941 299 C 329.879535722334 299 330.001464953796 299 330.24532341672 299 C 330.489181879648 299 330.611111111112 299 330.85496957404 299 C 331.098828036964 299 331.22075726842604 299 331.46461573135 299 C 331.708474194274 299 331.830403425736 299 332.07426188866 299 C 332.318120351588 299 332.440049583052 299 332.68390804598 299 C 332.927766508904 299 333.049695740366 299 333.29355420329 299 C 333.537412666214 299 333.659341897676 299 333.9032003606 299 C 334.147058823528 299 334.26898805499206 299 334.51284651792 299 C 334.756704980844 299 334.878634212306 299 335.12249267523 299 C 335.366351138154 299 335.488280369616 299 335.73213883254 299 C 335.975997295468 299 336.097926526932 299 336.34178498986 299 C 336.585643452784 299 336.707572684246 299 336.95143114717 299 C 337.19528961009803 299 337.31721884156207 299 337.56107730449 299 C 337.804935767414 299 337.926864998876 299 338.1707234618 299 C 338.414581924724 299 338.536511156186 299 338.78036961911 299 C 339.024228082038 299 339.146157313502 299 339.39001577643 299 C 339.633874239354 299 339.755803470816 299 339.99966193374 299 C 340.243520396664 299 340.36544962812604 299 340.60930809105 299 C 340.853166553978 299 340.975095785442 299 341.21895424837 299 C 341.462812711294 299 341.584741942756 299 341.82860040568 299 C 342.07245886860403 299 342.19438810006596 299 342.43824656299 299 C 342.682105025918 299 342.804034257382 299 343.04789272031 299 C 343.291751183234 299 343.41368041469605 299 343.65753887762 299 C 343.901397340544 299 344.023326572006 299 344.26718503493 299 C 344.511043497858 299 344.632972729322 299 344.87683119225 299 C 345.12068965517403 299 345.24261888663597 299 345.48647734956 299 C 345.730335812484 299 345.852265043946 299 346.09612350687 299 C 346.33998196979803 299 346.46191120126196 299 346.70576966419 299 C 346.94962812711395 299 347.07155735857594 299 347.3154158215 299 C 347.559274284424 299 347.681203515886 299 347.92506197881 299 C 348.168920441738 299 348.29084967320193 299 348.53470813613 299 C 348.778566599054 299 348.900495830516 299 349.14435429344 299 C 349.388212756364 299 349.51014198782605 299 349.75400045075 299 C 349.997858913678 299 350.119788145142 299 350.36364660807 299 C 350.607505070994 299 350.729434302456 299 350.97329276538 299 C 351.217151228308 299 351.33908045977194 299 351.5829389227 299 C 351.826797385624 299 351.948726617086 299 352.19258508001 299 C 352.436443542934 299 352.55837277439593 299 352.80223123732 299 C 353.046089700248 299 353.16801893171197 299 353.41187739464 299 C 353.655735857564 299 353.777665089026 299 354.02152355195 299 C 354.26538201487404 299 354.38731124633597 299 354.63116970926 299 C 354.875028172188 299 354.996957403652 299 355.24081586658 299 C 355.484674329504 299 355.60660356096594 299 355.85046202389 299 C 356.09432048681396 299 356.21624971827595 299 356.4601081812 299 C 356.703966644128 299 356.825895875592 299 357.06975433852 299 C 357.31361280144404 299 357.43554203290597 299 357.67940049583 299 C 357.923258958754 299 358.045188190216 299 358.28904665314 299 C 358.53290511606804 299 358.65483434753196 299 358.89869281046 299 C 359.14255127338396 299 359.26448050484595 299 359.50833896777 299 C 359.752197430694 299 359.874126662156 299 360.11798512508 299 C 360.361843588008 299 360.48377281947194 299 360.7276312824 299 C 360.971489745324 299 361.093418976786 299 361.33727743971 299 C 361.581135902634 299 361.70306513409594 299 361.94692359702 299 C 362.190782059948 299 362.312711291412 299 362.55656975434 299 C 362.800428217264 299 362.922357448726 299 363.16621591165 299 C 363.410074374578 299 363.53200360604194 299 363.77586206897 299 C 364.019720531894 299 364.141649763356 299 364.38550822628 299 C 364.629366689204 299 364.75129592066594 299 364.99515438359 299 C 365.239012846518 299 365.360942077982 299 365.60480054091 299 C 365.84865900383403 299 365.970588235296 299 366.21444669822 299 C 366.45830516114404 299 366.580234392606 299 366.82409285553 299 C 367.06795131845803 299 367.189880549922 299 367.43373901285 299 C 367.677597475774 299 367.79952670723594 299 368.04338517016 299 C 368.28724363308396 299 368.40917286454595 299 368.65303132747 299 C 368.896889790398 299 369.018819021862 299 369.26267748479 299 C 369.50653594771404 299 369.628465179176 299 369.8723236421 299 C 370.116182105024 299 370.238111336486 299 370.48196979941 299 C 370.72582826233804 299 370.84775749380196 299 371.09161595673 299 C 371.33547441965396 299 371.45740365111595 299 371.70126211404 299 C 371.94512057696403 299 372.067049808426 299 372.31090827135 299 C 372.554766734278 299 372.67669596574194 299 372.92055442867 299 C 373.164412891594 299 373.286342123056 299 373.53020058598 299 C 373.774059048904 299 373.89598828036594 299 374.13984674329 299 C 374.383705206218 299 374.505634437682 299 374.74949290061 299 C 374.99335136353403 299 375.115280594996 299 375.35913905792 299 C 375.602997520848 299 375.72492675231194 299 375.96878521524 299 C 376.212643678164 299 376.334572909626 299 376.57843137255 299 C 376.822289835474 299 376.94421906693594 299 377.18807752986 299 C 377.431935992788 299 377.553865224252 299 377.79772368718 299 C 378.04158215010403 299 378.163511381566 299 378.40736984449 299 C 378.65122830741404 299 378.773157538876 299 379.0170160018 299 C 379.260874464728 299 379.382803696192 299 379.62666215912 299 C 379.870520622044 299 379.99244985350595 299 380.23630831643 299 C 380.48016677935397 299 380.60209601081596 299 380.84595447374 299 C 381.089812936668 299 381.211742168132 299 381.45560063106 299 C 381.69945909398405 299 381.821388325446 299 382.06524678837 299 C 382.309105251294 299 382.431034482756 299 382.67489294568 299 C 382.91875140860805 299 383.04068064007197 299 383.284539103 299 C 383.52839756592397 299 383.65032679738596 299 383.89418526031 299 C 384.13804372323403 299 384.259972954696 299 384.50383141762 299 C 384.747689880548 299 384.86961911201195 299 385.11347757494 299 C 385.357336037864 299 385.479265269326 299 385.72312373225 299 C 385.966982195174 299 386.08891142663595 299 386.33276988956 299 C 386.576628352488 299 386.698557583952 299 386.94241604688 299 C 387.18627450980404 299 387.308203741266 299 387.55206220419 299 C 387.795920667118 299 387.91784989858195 299 388.16170836151 299 C 388.405566824434 299 388.527496055896 299 388.77135451882 299 C 389.015212981744 299 389.13714221320595 299 389.38100067613 299 C 389.624859139058 299 389.746788370522 299 389.99064683345 299 C 390.23450529637404 299 390.35643452783603 299 390.60029299076 299 C 390.84415145368405 299 390.966080685146 299 391.20993914807 299 C 391.453797610998 299 391.575726842462 299 391.81958530539 299 C 392.063443768314 299 392.18537299977595 299 392.4292314627 299 C 392.67308992562397 299 392.79501915708596 299 393.03887762001 299 C 393.282736082938 299 393.404665314402 299 393.64852377733 299 C 393.89238224025405 299 394.014311471716 299 394.25816993464 299 C 394.502028397564 299 394.623957629026 299 394.86781609195 299 C 395.11167455487805 299 395.233603786342 299 395.47746224927 299 C 395.721320712194 299 395.84324994365596 299 396.08710840658 299 C 396.33096686950404 299 396.45289610096603 299 396.69675456389 299 C 396.940613026818 299 397.06254225828195 299 397.30640072121 299 C 397.550259184134 299 397.672188415596 299 397.91604687852 299 C 398.159905341444 299 398.28183457290595 299 398.52569303583 299 C 398.769551498758 299 398.891480730222 299 399.13533919315 299 C 399.37919765607404 299 399.50112688753603 299 399.74498535046 299 C 399.98884381338803 299 400.11077304485195 299 400.35463150778 299 C 400.598489970704 299 400.720419202166 299 400.96427766509 299 C 401.208136128014 299 401.33006535947595 299 401.5739238224 299 C 401.817782285328 299 401.939711516792 299 402.18356997972 299 C 402.42742844264404 299 402.54935767410603 299 402.79321613703 299 C 403.03707459995405 299 403.159003831416 299 403.40286229434 299 C 403.646720757268 299 403.768649988732 299 404.01250845166 299 C 404.256366914584 299 404.37829614604595 299 404.62215460897 299 C 404.866013071894 299 404.98794230335596 299 405.23180076628 299 C 405.475659229208 299 405.597588460672 299 405.8414469236 299 C 406.08530538652406 299 406.207234617986 299 406.45109308091 299 C 406.694951543834 299 406.816880775296 299 407.06073923822 299 C 407.30459770114805 299 407.426526932612 299 407.67038539554 299 C 407.914243858464 299 408.03617308992597 299 408.28003155285 299 C 408.52389001577404 299 408.64581924723603 299 408.88967771016 299 C 409.13353617308803 299 409.25546540455196 299 409.49932386748 299 C 409.74318233040395 299 409.865111561866 299 410.10897002479 299 C 410.352828487714 299 410.47475771917595 299 410.7186161821 299 C 410.96247464502795 299 411.084403876492 299 411.32826233942 299 C 411.57212080234405 299 411.694050033806 299 411.93790849673 299 C 412.18176695965803 299 412.30369619112196 299 412.54755465405 299 C 412.791413116974 299 412.913342348436 299 413.15720081136 299 C 413.401059274284 299 413.52298850574596 299 413.76684696867 299 C 414.010705431598 299 414.132634663062 299 414.37649312599 299 C 414.62035158891405 299 414.7422808203761 299 414.9861392833 299 C 415.22999774622406 299 415.351926977686 299 415.59578544061 299 C 415.83964390353793 299 415.96157313500197 299 416.20543159793 299 C 416.449290060854 299 416.57121929231596 299 416.81507775524 299 C 417.0589362181639 299 417.18086544962597 299 417.42472391255 299 C 417.668582375478 299 417.790511606942 299 418.03437006987 299 C 418.27822853279406 299 418.400157764256 299 418.64401622718 299 C 418.887874690104 299 419.009803921566 299 419.25366238449 299 C 419.49752084741806 299 419.619450078882 299 419.86330854181 299 C 420.10716700473404 299 420.22909623619597 299 420.47295469912 299 C 420.71681316204405 299 420.8387423935061 299 421.08260085643 299 C 421.32645931935804 299 421.44838855082196 299 421.69224701375 299 C 421.93610547667396 299 422.058034708136 299 422.30189317106 299 C 422.545751633984 299 422.66768086544596 299 422.91153932837 299 C 423.15539779129796 299 423.277327022762 299 423.52118548569 299 C 423.76504394861405 299 423.886973180076 292.35555555555555 424.130831643 292.35555555555555 C 424.37469010592804 292.35555555555555 424.49661933739196 299 424.74047780032 299 C 424.984336263244 299 425.106265494706 299 425.35012395763 299 C 425.593982420554 299 425.71591165201596 299 425.95977011494 299 C 426.203628577868 299 426.325557809332 299 426.56941627226 299 C 426.81327473518405 299 426.9352039666461 299 427.17906242957 299 C 427.42292089249406 299 427.544850123956 299 427.78870858688 299 C 428.03256704980794 299 428.154496281272 299 428.3983547442 299 C 428.64221320712403 299 428.76414243858596 299 429.00800090151 299 C 429.2518593644339 299 429.373788595896 299 429.61764705882 299 C 429.86150552174803 299 429.983434753212 299 430.22729321614 299 C 430.47115167906406 299 430.593080910526 299 430.83693937345 299 C 431.080797836374 299 431.202727067836 299 431.44658553076 299 C 431.69044399368806 299 431.812373225152 259.9638888888889 432.05623168808 259.9638888888889 C 432.30009015100404 259.9638888888889 432.422019382466 299 432.66587784539 299 C 432.90973630831405 299 433.0316655397761 299 433.2755240027 299 C 433.51938246562804 299 433.64131169709196 299 433.88517016002 299 C 434.12902862294396 299 434.250957854406 299 434.49481631733 299 C 434.73867478025807 299 434.860604011722 299 435.10446247465 299 C 435.34832093757393 299 435.470250169036 299 435.71410863196 299 C 435.95796709488405 299 436.079896326346 299 436.32375478927 299 C 436.56761325219804 299 436.68954248366197 299 436.93340094659 299 C 437.177259409514 299 437.299188640976 299 437.5430471039 299 C 437.78690556682403 299 437.90883479828597 299 438.15269326121 299 C 438.396551724138 299 438.518480955602 299 438.76233941853 299 C 439.00619788145394 299 439.128127112916 299 439.37198557584 299 C 439.61584403876395 299 439.737773270226 299 439.98163173315 299 C 440.22549019607794 299 440.347419427542 299 440.59127789047 299 C 440.83513635339403 299 440.95706558485597 299 441.20092404778 299 C 441.44478251070393 299 441.566711742166 299 441.81057020509 299 C 442.05442866801803 299 442.176357899482 299 442.42021636241 299 C 442.66407482533396 299 442.786004056796 299 443.02986251972 299 C 443.273720982644 299 443.395650214106 299 443.63950867703 299 C 443.88336713995807 299 444.005296371422 299 444.24915483435 299 C 444.49301329727405 299 444.614942528736 299 444.85880099166 299 C 445.10265945458394 299 445.224588686046 299 445.46844714897 299 C 445.71230561189793 299 445.83423484336197 299 446.07809330629 299 C 446.32195176921397 299 446.443881000676 299 446.6877394636 299 C 446.93159792652807 299 447.053527157992 299 447.29738562092 299 C 447.54124408384394 299 447.663173315306 299 447.90703177823 299 C 448.15089024115406 299 448.272819472616 299 448.51667793554 299 C 448.76053639846793 299 448.88246562993197 299 449.12632409286 299 C 449.370182555784 299 449.492111787246 299 449.73597025017 299 C 449.97982871309404 299 450.10175794455597 299 450.34561640748 299 C 450.589474870408 299 450.711404101872 299 450.9552625648 299 C 451.19912102772395 299 451.321050259186 299 451.56490872211 299 C 451.80876718503396 299 451.930696416496 299 452.17455487942 299 C 452.41841334234795 299 452.540342573812 299 452.78420103674 299 C 453.02805949966404 299 453.149988731126 299 453.39384719405 299 C 453.63770565697394 299 453.759634888436 299 454.00349335136 299 C 454.24735181428804 299 454.369281045752 299 454.61313950868 299 C 454.85699797160396 299 454.978927203066 299 455.22278566599 299 C 455.466644128914 299 455.588573360376 299 455.8324318233 299 C 456.0762902862281 299 456.198219517692 299 456.44207798062 299 C 456.68593644354405 299 456.807865675006 299 457.05172413793 299 C 457.29558260085395 299 457.417511832316 299 457.66137029524 299 C 457.90522875816794 299 458.027157989632 299 458.27101645256 299 C 458.514874915484 299 458.636804146946 299 458.88066260987 299 C 459.1245210727981 299 459.246450304262 299 459.49030876719 299 C 459.73416723011394 299 459.856096461576 299 460.0999549245 299 C 460.34381338742406 299 460.465742618886 299 460.70960108181 299 C 460.95345954473794 299 461.075388776202 299 461.31924723913 299 C 461.56310570205403 299 461.685034933516 299 461.92889339644 299 C 462.17275185936404 299 462.294681090826 299 462.53853955375 299 C 462.78239801667803 299 462.904327248142 299 463.14818571107 299 C 463.39204417399395 299 463.513973405456 299 463.75783186838 299 C 464.00169033130396 299 464.123619562766 299 464.36747802569 299 C 464.61133648861795 299 464.733265720082 299 464.97712418301 299 C 465.22098264593404 299 465.342911877396 299 465.58677034032 299 C 465.83062880324394 299 465.952558034706 299 466.19641649763 299 C 466.44027496055804 299 466.562204192022 299 466.80606265495 299 C 467.04992111787396 299 467.171850349336 299 467.41570881226 299 C 467.65956727518403 299 467.781496506646 299 468.02535496957 299 C 468.2692134324981 299 468.391142663962 299 468.63500112689 299 C 468.87885958981406 299 469.000788821276 299 469.2446472842 299 C 469.48850574712395 299 469.610434978586 299 469.85429344151 299 C 470.09815190443794 299 470.220081135902 299 470.46393959883 299 C 470.707798061754 299 470.829727293216 299 471.07358575614 299 C 471.3174442190681 299 471.439373450532 299 471.68323191346 299 C 471.92709037638394 299 472.049019607846 299 472.29287807077 299 C 472.53673653369395 299 472.658665765156 299 472.90252422808 299 C 473.14638269100794 299 473.268311922472 299 473.5121703854 299 C 473.75602884832404 299 473.877958079786 299 474.12181654271 299 C 474.36567500563405 299 474.487604237096 299 474.73146270002 299 C 474.975321162948 299 475.097250394412 299 475.34110885734 299 C 475.58496732026396 299 475.706896551726 299 475.95075501465 299 C 476.19461347757397 299 476.316542709036 299 476.56040117196 299 C 476.80425963488796 299 476.926188866352 299 477.17004732928 299 C 477.41390579220405 299 477.535835023666 299 477.77969348659 299 C 478.02355194951394 299 478.145481180976 299 478.3893396439 299 C 478.633198106828 299 478.755127338292 299 478.99898580122 299 C 479.24284426414397 299 479.364773495606 299 479.60863195853 299 C 479.85249042145404 299 479.974419652916 299 480.21827811584 299 C 480.4621365787681 299 480.584065810232 299 480.82792427316 299 C 481.07178273608395 299 481.193711967546 299 481.43757043047 299 C 481.68142889339396 299 481.803358124856 299 482.04721658778 299 C 482.29107505070795 299 482.413004282172 299 482.6568627451 299 C 482.900721208024 299 483.02265043948603 299 483.26650890241 299 C 483.5103673653381 299 483.632296596802 299 483.87615505973 299 C 484.12001352265395 299 484.241942754116 299 484.48580121704 299 C 484.72965967996396 299 484.851588911426 299 485.09544737435 299 C 485.33930583727795 299 485.461235068742 299 485.70509353167 299 C 485.94895199459404 299 486.07088122605603 299 486.31473968898 299 C 486.55859815190405 299 486.680527383366 299 486.92438584629 299 C 487.168244309218 299 487.290173540682 299 487.53403200361 299 C 487.77789046653396 299 487.899819697996 299 488.14367816092 299 C 488.38753662384397 299 488.509465855306 299 488.75332431823 299 C 488.99718278115796 299 489.119112012622 299 489.36297047555 299 C 489.60682893847405 299 489.728758169936 299 489.97261663286 299 C 490.21647509578395 299 490.338404327246 299 490.58226279017 299 C 490.826121253098 299 490.94805048456203 299 491.19190894749 299 C 491.435767410414 299 491.557696641876 299 491.8015551048 299 C 492.04541356772404 299 492.16734279918603 299 492.41120126211 299 C 492.6550597250381 299 492.776988956502 299 493.02084741943 299 C 493.26470588235395 299 493.386635113816 299 493.63049357674 299 C 493.87435203966396 299 493.996281271126 299 494.24013973405 299 C 494.48399819697795 299 494.605927428442 299 494.84978589137 299 C 495.093644354294 299 495.21557358575603 299 495.45943204868 299 C 495.7032905116081 299 495.825219743072 299 496.069078206 299 C 496.31293666892395 299 496.43486590038594 299 496.67872436331 299 C 496.92258282623396 299 497.044512057696 299 497.28837052062 299 C 497.53222898354795 299 497.654158215012 299 497.89801667794 299 C 498.14187514086404 299 498.26380437232604 299 498.50766283525 299 C 498.75152129817405 299 498.873450529636 299 499.11730899256 299 C 499.361167455488 299 499.483096686952 299 499.72695514988 299 C 499.97081361280397 299 500.092742844266 299 500.33660130719 299 C 500.580459770114 299 500.702389001576 299 500.9462474645 299 C 501.19010592742796 299 501.312035158892 299 501.55589362182 299 C 501.79975208474406 299 501.921681316206 299 502.16553977913 299 C 502.40939824205395 299 502.53132747351594 299 502.77518593644 299 C 503.019044399368 299 503.14097363083204 299 503.38483209376 299 C 503.628690556684 299 503.750619788146 299 503.99447825107 299 C 504.23833671399404 299 504.36026594545604 299 504.60412440838 299 C 504.847982871308 299 504.9699121027719 299 505.2137705657 299 C 505.45762902862396 299 505.579558260086 299 505.82341672301 299 C 506.06727518593397 299 506.189204417396 299 506.43306288032 299 C 506.67692134324795 299 506.798850574712 299 507.04270903764 299 C 507.286567500564 299 507.40849673202604 299 507.65235519495 299 C 507.8962136578781 299 508.018142889342 299 508.26200135227 299 C 508.50585981519396 299 508.62778904665595 299 508.87164750958 299 C 509.11550597250397 299 509.237435203966 299 509.48129366689 299 C 509.72515212981796 299 509.847081361282 299 510.09093982421 299 C 510.33479828713405 299 510.45672751859604 299 510.70058598152 299 C 510.944444444444 299 511.06637367590594 299 511.31023213883 299 C 511.554090601758 299 511.676019833222 299 511.91987829615 299 C 512.163736759074 299 512.285665990536 299 512.52952445346 299 C 512.773382916384 299 512.895312147846 299 513.13917061077 299 C 513.383029073698 299 513.5049583051621 299 513.74881676809 299 C 513.9926752310141 299 514.114604462476 299 514.3584629254 299 C 514.602321388324 299 514.7242506197861 299 514.96810908271 299 C 515.2119675456381 299 515.333896777102 299 515.57775524003 299 C 515.821613702954 299 515.943542934416 299 516.18740139734 299 C 516.4312598602639 299 516.553189091726 299 516.79704755465 299 C 517.040906017578 299 517.1628352490419 258.3027777777778 517.40669371197 258.3027777777778 C 517.650552174894 258.3027777777778 517.7724814063561 299 518.01633986928 299 C 518.260198332204 299 518.382127563666 299 518.62598602659 299 C 518.869844489518 299 518.991773720982 299 519.23563218391 299 C 519.4794906468339 299 519.601419878296 299 519.84527834122 299 C 520.0891368041441 299 520.211066035606 299 520.45492449853 299 C 520.6987829614579 299 520.820712192922 299 521.06457065585 299 C 521.308429118774 299 521.430358350236 299 521.67421681316 299 C 521.918075276088 299 522.0400045075519 299 522.28386297048 299 C 522.5277214334039 299 522.649650664866 299 522.89350912779 299 C 523.137367590714 299 523.2592968221759 299 523.5031552851 299 C 523.7470137480279 299 523.868942979492 299 524.11280144242 299 C 524.356659905344 299 524.478589136806 299 524.72244759973 299 C 524.966306062654 299 525.088235294116 299 525.33209375704 299 C 525.575952219968 299 525.6978814514321 299 525.94173991436 299 C 526.1855983772841 299 526.307527608746 299 526.55138607167 299 C 526.795244534594 299 526.9171737660561 299 527.16103222898 299 C 527.4048906919081 299 527.526819923372 299 527.7706783863 299 C 528.014536849224 299 528.136466080686 299 528.38032454361 299 C 528.6241830065339 299 528.746112237996 299 528.98997070092 299 C 529.233829163848 299 529.3557583953119 299 529.59961685824 299 C 529.843475321164 299 529.9654045526261 299 530.20926301555 299 C 530.453121478474 299 530.575050709936 299 530.81890917286 299 C 531.062767635788 299 531.184696867252 299 531.42855533018 299 C 531.6724137931039 299 531.794343024566 299 532.03820148749 299 C 532.2820599504141 299 532.403989181876 299 532.6478476448 299 C 532.8917061077279 299 533.013635339192 299 533.25749380212 299 C 533.501352265044 299 533.623281496506 299 533.86713995943 299 C 534.110998422358 299 534.2329276538219 299 534.47678611675 299 C 534.720644579674 299 534.842573811136 299 535.08643227406 299 C 535.330290736984 299 535.69607843137 299 535.69607843137 299" class="highcharts-graph" data-z-index="1" stroke="#000000" stroke-width="2" stroke-linejoin="round" stroke-linecap="round"></path></g><g data-z-index="0.1" class="highcharts-markers highcharts-series-0 highcharts-spline-series highcharts-color-0 " transform="translate(49,63) scale(1 1)" clip-path="none"></g></g><text x="300" text-anchor="middle" class="highcharts-title" data-z-index="4" style="color:#333333;font-size:18px;fill:#333333;" y="24"><tspan>Patientslikeme.com Usage Over Time</tspan></text><text x="300" text-anchor="middle" class="highcharts-subtitle" data-z-index="4" style="color:#666666;fill:#666666;" y="46"><tspan>This chart shows how your Patientslikeme.com Usage changes over time.</tspan></text><g class="highcharts-axis-labels highcharts-xaxis-labels " data-z-index="7"><text x="87.786229434302" style="color:#666666;cursor:default;font-size:11px;fill:#666666;" text-anchor="middle" transform="translate(0,0)" y="381" opacity="1"><tspan>Jan '14</tspan></text><text x="198.13218390805" style="color:#666666;cursor:default;font-size:11px;fill:#666666;" text-anchor="middle" transform="translate(0,0)" y="381" opacity="1"><tspan>Jul '14</tspan></text><text x="310.30707685373" style="color:#666666;cursor:default;font-size:11px;fill:#666666;" text-anchor="middle" transform="translate(0,0)" y="381" opacity="1"><tspan>Jan '15</tspan></text><text x="420.65303132747" style="color:#666666;cursor:default;font-size:11px;fill:#666666;" text-anchor="middle" transform="translate(0,0)" y="381" opacity="1"><tspan>Jul '15</tspan></text><text x="532.82792427316" style="color:#666666;cursor:default;font-size:11px;fill:#666666;" text-anchor="middle" transform="translate(0,0)" y="381" opacity="1"><tspan>Jan '16</tspan></text></g><g class="highcharts-axis-labels highcharts-yaxis-labels " data-z-index="7"><text x="34" style="color:#666666;cursor:default;font-size:11px;fill:#666666;" text-anchor="end" transform="translate(0,0)" y="366" opacity="1">0</text><text x="34" style="color:#666666;cursor:default;font-size:11px;fill:#666666;" text-anchor="end" transform="translate(0,0)" y="291" opacity="1">0.05</text><text x="34" style="color:#666666;cursor:default;font-size:11px;fill:#666666;" text-anchor="end" transform="translate(0,0)" y="216" opacity="1">0.1</text><text x="34" style="color:#666666;cursor:default;font-size:11px;fill:#666666;" text-anchor="end" transform="translate(0,0)" y="141" opacity="1">0.15</text><text x="34" style="color:#666666;cursor:default;font-size:11px;fill:#666666;" text-anchor="end" transform="translate(0,0)" y="67" opacity="1">0.2</text></g><a xlink:href="https://quantimo.do" target="_blank">
                    <text x="590" class="highcharts-credits" text-anchor="end" data-z-index="8"
                          style="cursor:pointer;color:#999999;font-size:9px;fill:#999999;" y="395">https://quantimo.do
                    </text>
                </a></svg>