<?xml version="1.0" standalone="no"?><!DOCTYPE svg PUBLIC "-//W3C//DTD SVG 1.1//EN" "http://www.w3.org/Graphics/SVG/1.1/DTD/svg11.dtd"><svg xmlns:xlink="http://www.w3.org/1999/xlink" version="1.1" class="highcharts-root" style="font-family:&quot;Lucida Grande&quot;, &quot;Lucida Sans Unicode&quot;, Arial, Helvetica, sans-serif;font-size:12px;" xmlns="http://www.w3.org/2000/svg" width="600" height="300"><desc>Created with Highstock 6.2.0</desc><defs><clipPath id="highcharts-v7p30te-23"><rect x="0" y="0" width="507" height="148" fill="none"></rect></clipPath><clipPath id="highcharts-v7p30te-40"><rect x="0" y="0" width="507" height="148" fill="none"></rect></clipPath><clipPath id="highcharts-v7p30te-41"><rect x="83" y="78" width="507" height="148" fill="none"></rect></clipPath></defs><rect fill="#ffffff" class="highcharts-background" x="0" y="0" width="600" height="300" rx="0" ry="0"></rect><rect fill="none" class="highcharts-plot-background" x="83" y="78" width="507" height="148"></rect><g class="highcharts-pane-group" data-z-index="0"></g><g class="highcharts-grid highcharts-xaxis-grid " data-z-index="1"><path fill="none" data-z-index="1" class="highcharts-grid-line" d="M 114.5 78 L 114.5 226" opacity="1"></path><path fill="none" data-z-index="1" class="highcharts-grid-line" d="M 145.5 78 L 145.5 226" opacity="1"></path><path fill="none" data-z-index="1" class="highcharts-grid-line" d="M 177.5 78 L 177.5 226" opacity="1"></path><path fill="none" data-z-index="1" class="highcharts-grid-line" d="M 209.5 78 L 209.5 226" opacity="1"></path><path fill="none" data-z-index="1" class="highcharts-grid-line" d="M 240.5 78 L 240.5 226" opacity="1"></path><path fill="none" data-z-index="1" class="highcharts-grid-line" d="M 272.5 78 L 272.5 226" opacity="1"></path><path fill="none" data-z-index="1" class="highcharts-grid-line" d="M 304.5 78 L 304.5 226" opacity="1"></path><path fill="none" data-z-index="1" class="highcharts-grid-line" d="M 336.5 78 L 336.5 226" opacity="1"></path><path fill="none" data-z-index="1" class="highcharts-grid-line" d="M 367.5 78 L 367.5 226" opacity="1"></path><path fill="none" data-z-index="1" class="highcharts-grid-line" d="M 399.5 78 L 399.5 226" opacity="1"></path><path fill="none" data-z-index="1" class="highcharts-grid-line" d="M 431.5 78 L 431.5 226" opacity="1"></path><path fill="none" data-z-index="1" class="highcharts-grid-line" d="M 462.5 78 L 462.5 226" opacity="1"></path><path fill="none" data-z-index="1" class="highcharts-grid-line" d="M 494.5 78 L 494.5 226" opacity="1"></path><path fill="none" data-z-index="1" class="highcharts-grid-line" d="M 526.5 78 L 526.5 226" opacity="1"></path><path fill="none" data-z-index="1" class="highcharts-grid-line" d="M 557.5 78 L 557.5 226" opacity="1"></path><path fill="none" data-z-index="1" class="highcharts-grid-line" d="M 589.5 78 L 589.5 226" opacity="1"></path><path fill="none" data-z-index="1" class="highcharts-grid-line" d="M 82.5 78 L 82.5 226" opacity="1"></path></g><g class="highcharts-grid highcharts-yaxis-grid " data-z-index="1"><path fill="none" stroke="#e6e6e6" stroke-width="1" data-z-index="1" class="highcharts-grid-line" d="M 83 226.5 L 590 226.5" opacity="1"></path><path fill="none" stroke="#e6e6e6" stroke-width="1" data-z-index="1" class="highcharts-grid-line" d="M 83 177.5 L 590 177.5" opacity="1"></path><path fill="none" stroke="#e6e6e6" stroke-width="1" data-z-index="1" class="highcharts-grid-line" d="M 83 127.5 L 590 127.5" opacity="1"></path><path fill="none" stroke="#e6e6e6" stroke-width="1" data-z-index="1" class="highcharts-grid-line" d="M 83 77.5 L 590 77.5" opacity="1"></path></g><rect fill="none" class="highcharts-plot-border" data-z-index="1" x="83" y="78" width="507" height="148"></rect><g class="highcharts-axis highcharts-xaxis " data-z-index="2"><path fill="none" class="highcharts-tick" stroke="#ccd6eb" stroke-width="1" d="M 114.5 226 L 114.5 236" opacity="1"></path><path fill="none" class="highcharts-tick" stroke="#ccd6eb" stroke-width="1" d="M 145.5 226 L 145.5 236" opacity="1"></path><path fill="none" class="highcharts-tick" stroke="#ccd6eb" stroke-width="1" d="M 177.5 226 L 177.5 236" opacity="1"></path><path fill="none" class="highcharts-tick" stroke="#ccd6eb" stroke-width="1" d="M 209.5 226 L 209.5 236" opacity="1"></path><path fill="none" class="highcharts-tick" stroke="#ccd6eb" stroke-width="1" d="M 240.5 226 L 240.5 236" opacity="1"></path><path fill="none" class="highcharts-tick" stroke="#ccd6eb" stroke-width="1" d="M 272.5 226 L 272.5 236" opacity="1"></path><path fill="none" class="highcharts-tick" stroke="#ccd6eb" stroke-width="1" d="M 304.5 226 L 304.5 236" opacity="1"></path><path fill="none" class="highcharts-tick" stroke="#ccd6eb" stroke-width="1" d="M 336.5 226 L 336.5 236" opacity="1"></path><path fill="none" class="highcharts-tick" stroke="#ccd6eb" stroke-width="1" d="M 367.5 226 L 367.5 236" opacity="1"></path><path fill="none" class="highcharts-tick" stroke="#ccd6eb" stroke-width="1" d="M 399.5 226 L 399.5 236" opacity="1"></path><path fill="none" class="highcharts-tick" stroke="#ccd6eb" stroke-width="1" d="M 431.5 226 L 431.5 236" opacity="1"></path><path fill="none" class="highcharts-tick" stroke="#ccd6eb" stroke-width="1" d="M 462.5 226 L 462.5 236" opacity="1"></path><path fill="none" class="highcharts-tick" stroke="#ccd6eb" stroke-width="1" d="M 494.5 226 L 494.5 236" opacity="1"></path><path fill="none" class="highcharts-tick" stroke="#ccd6eb" stroke-width="1" d="M 526.5 226 L 526.5 236" opacity="1"></path><path fill="none" class="highcharts-tick" stroke="#ccd6eb" stroke-width="1" d="M 557.5 226 L 557.5 236" opacity="1"></path><path fill="none" class="highcharts-tick" stroke="#ccd6eb" stroke-width="1" d="M 590.5 226 L 590.5 236" opacity="1"></path><path fill="none" class="highcharts-tick" stroke="#ccd6eb" stroke-width="1" d="M 82.5 226 L 82.5 236" opacity="1"></path><text x="336.5" data-z-index="7" text-anchor="middle" transform="translate(0,0)" class="highcharts-axis-title" style="color:#666666;fill:#666666;" y="281.40559159102156"><tspan>Average Daily Calories (Kilocalories)</tspan></text><path fill="none" class="highcharts-axis-line" stroke="#ccd6eb" stroke-width="1" data-z-index="7" d="M 83 226.5 L 590 226.5"></path></g><g class="highcharts-axis highcharts-yaxis " data-z-index="2"><text x="26" data-z-index="7" text-anchor="middle" transform="translate(0,0) rotate(270 26 152)" class="highcharts-axis-title" style="color:#666666;fill:#666666;" y="152"><tspan>Average Daily Overall</tspan><tspan dy="15" x="26">Mood (1 to 5 Rating)</tspan></text><path fill="none" class="highcharts-axis-line" data-z-index="7" d="M 83 78 L 83 226"></path></g><g class="highcharts-series-group" data-z-index="3"><g data-z-index="0.1" class="highcharts-series highcharts-series-0 highcharts-column-series highcharts-color-0 " transform="translate(83,78) scale(1 1)" clip-path="url(#highcharts-v7p30te-40)"><rect x="7.5" y="30.5" width="16" height="118" fill="#000000" stroke="#ffffff" stroke-width="1" class="highcharts-point highcharts-color-0"></rect><rect x="39.5" y="103.5" width="16" height="45" fill="#000000" stroke="#ffffff" stroke-width="1" class="highcharts-point highcharts-color-0"></rect><rect x="71.5" y="84.5" width="16" height="64" fill="#000000" stroke="#ffffff" stroke-width="1" class="highcharts-point highcharts-color-0"></rect><rect x="102.5" y="65.5" width="16" height="83" fill="#000000" stroke="#ffffff" stroke-width="1" class="highcharts-point highcharts-color-0"></rect><rect x="134.5" y="65.5" width="16" height="83" fill="#000000" stroke="#ffffff" stroke-width="1" class="highcharts-point highcharts-color-0"></rect><rect x="166.5" y="73.5" width="16" height="75" fill="#000000" stroke="#ffffff" stroke-width="1" class="highcharts-point highcharts-color-0"></rect><rect x="197.5" y="99.5" width="16" height="49" fill="#000000" stroke="#ffffff" stroke-width="1" class="highcharts-point highcharts-color-0"></rect><rect x="229.5" y="79.5" width="16" height="69" fill="#000000" stroke="#ffffff" stroke-width="1" class="highcharts-point highcharts-color-0"></rect><rect x="261.5" y="92.5" width="16" height="56" fill="#000000" stroke="#ffffff" stroke-width="1" class="highcharts-point highcharts-color-0"></rect><rect x="292.5" y="78.5" width="16" height="70" fill="#000000" stroke="#ffffff" stroke-width="1" class="highcharts-point highcharts-color-0"></rect><rect x="324.5" y="105.5" width="16" height="43" fill="#000000" stroke="#ffffff" stroke-width="1" class="highcharts-point highcharts-color-0"></rect><rect x="356.5" y="100.5" width="16" height="48" fill="#000000" stroke="#ffffff" stroke-width="1" class="highcharts-point highcharts-color-0"></rect><rect x="387.5" y="85.5" width="16" height="63" fill="#000000" stroke="#ffffff" stroke-width="1" class="highcharts-point highcharts-color-0"></rect><rect x="419.5" y="84.5" width="16" height="64" fill="#000000" stroke="#ffffff" stroke-width="1" class="highcharts-point highcharts-color-0"></rect><rect x="451.5" y="74.5" width="16" height="74" fill="#000000" stroke="#ffffff" stroke-width="1" class="highcharts-point highcharts-color-0"></rect><rect x="483.5" y="81.5" width="16" height="67" fill="#000000" stroke="#ffffff" stroke-width="1" class="highcharts-point highcharts-color-0"></rect></g><g data-z-index="0.1" class="highcharts-markers highcharts-series-0 highcharts-column-series highcharts-color-0 " transform="translate(83,78) scale(1 1)" clip-path="none"></g></g><text x="300" text-anchor="middle" class="highcharts-title" data-z-index="4" style="color:#333333;font-size:18px;fill:#333333;" y="24"><tspan>Average Overall Mood by Previous Calories Intake</tspan></text><text x="300" text-anchor="middle" class="highcharts-subtitle" data-z-index="4" style="color:#666666;fill:#666666;" y="46"><tspan>Typical values for Overall Mood following a given amount of Calories intake over the previous</tspan><tspan dy="15" x="300">7 days.</tspan></text><g class="highcharts-axis-labels highcharts-xaxis-labels " data-z-index="7"><text x="101.43647486435067" style="color:#666666;cursor:default;font-size:11px;fill:#666666;" text-anchor="end" transform="translate(0,0) rotate(-45 101.43647486435067 242)" y="242" opacity="1">0</text><text x="133.12397486435069" style="color:#666666;cursor:default;font-size:11px;fill:#666666;" text-anchor="end" transform="translate(0,0) rotate(-45 133.12397486435069 242)" y="242" opacity="1">100</text><text x="164.81147486435069" style="color:#666666;cursor:default;font-size:11px;fill:#666666;" text-anchor="end" transform="translate(0,0) rotate(-45 164.81147486435069 242)" y="242" opacity="1">200</text><text x="196.49897486435069" style="color:#666666;cursor:default;font-size:11px;fill:#666666;" text-anchor="end" transform="translate(0,0) rotate(-45 196.49897486435069 242)" y="242" opacity="1">300</text><text x="228.18647486435069" style="color:#666666;cursor:default;font-size:11px;fill:#666666;" text-anchor="end" transform="translate(0,0) rotate(-45 228.18647486435069 242)" y="242" opacity="1">400</text><text x="259.87397486435066" style="color:#666666;cursor:default;font-size:11px;fill:#666666;" text-anchor="end" transform="translate(0,0) rotate(-45 259.87397486435066 242)" y="242" opacity="1">500</text><text x="291.56147486435066" style="color:#666666;cursor:default;font-size:11px;fill:#666666;" text-anchor="end" transform="translate(0,0) rotate(-45 291.56147486435066 242)" y="242" opacity="1">600</text><text x="323.24897486435066" style="color:#666666;cursor:default;font-size:11px;fill:#666666;" text-anchor="end" transform="translate(0,0) rotate(-45 323.24897486435066 242)" y="242" opacity="1">700</text><text x="354.93647486435066" style="color:#666666;cursor:default;font-size:11px;fill:#666666;" text-anchor="end" transform="translate(0,0) rotate(-45 354.93647486435066 242)" y="242" opacity="1">800</text><text x="386.62397486435066" style="color:#666666;cursor:default;font-size:11px;fill:#666666;" text-anchor="end" transform="translate(0,0) rotate(-45 386.62397486435066 242)" y="242" opacity="1">900</text><text x="418.31147486435066" style="color:#666666;cursor:default;font-size:11px;fill:#666666;" text-anchor="end" transform="translate(0,0) rotate(-45 418.31147486435066 242)" y="242" opacity="1">1000</text><text x="449.99897486435066" style="color:#666666;cursor:default;font-size:11px;fill:#666666;" text-anchor="end" transform="translate(0,0) rotate(-45 449.99897486435066 242)" y="242" opacity="1">2000</text><text x="481.68647486435066" style="color:#666666;cursor:default;font-size:11px;fill:#666666;" text-anchor="end" transform="translate(0,0) rotate(-45 481.68647486435066 242)" y="242" opacity="1">3000</text><text x="513.3739748643507" style="color:#666666;cursor:default;font-size:11px;fill:#666666;" text-anchor="end" transform="translate(0,0) rotate(-45 513.3739748643507 242)" y="242" opacity="1">4000</text><text x="545.0614748643507" style="color:#666666;cursor:default;font-size:11px;fill:#666666;" text-anchor="end" transform="translate(0,0) rotate(-45 545.0614748643507 242)" y="242" opacity="1">5000</text><text x="576.7489748643507" style="color:#666666;cursor:default;font-size:11px;fill:#666666;" text-anchor="end" transform="translate(0,0) rotate(-45 576.7489748643507 242)" y="242" opacity="1">6000</text></g><g class="highcharts-axis-labels highcharts-yaxis-labels " data-z-index="7"><text x="68" style="color:#666666;cursor:default;font-size:11px;fill:#666666;" text-anchor="end" transform="translate(0,0)" y="180" opacity="1">2.5</text><text x="68" style="color:#666666;cursor:default;font-size:11px;fill:#666666;" text-anchor="end" transform="translate(0,0)" y="131" opacity="1">3</text><text x="68" style="color:#666666;cursor:default;font-size:11px;fill:#666666;" text-anchor="end" transform="translate(0,0)" y="230" opacity="1">2</text><text x="68" style="color:#666666;cursor:default;font-size:11px;fill:#666666;" text-anchor="end" transform="translate(0,0)" y="82" opacity="1">3.5</text></g><a xlink:href="https://quantimo.do" target="_blank">
                    <text x="590" class="highcharts-credits" text-anchor="end" data-z-index="8"
                          style="cursor:pointer;color:#999999;font-size:9px;fill:#999999;" y="295">https://quantimo.do
                    </text>
                </a></svg>