<?xml version="1.0" standalone="no"?><!DOCTYPE svg PUBLIC "-//W3C//DTD SVG 1.1//EN" "http://www.w3.org/Graphics/SVG/1.1/DTD/svg11.dtd"><svg xmlns:xlink="http://www.w3.org/1999/xlink" version="1.1" class="highcharts-root" style="font-family:&quot;Lucida Grande&quot;, &quot;Lucida Sans Unicode&quot;, Arial, Helvetica, sans-serif;font-size:12px;" xmlns="http://www.w3.org/2000/svg" width="600" height="400"><desc>Created with Highstock 6.2.0</desc><defs><clipPath id="highcharts-itoaaru-435"><rect x="0" y="0" width="468" height="260" fill="none"></rect></clipPath><clipPath id="highcharts-itoaaru-649"><rect x="0" y="0" width="468" height="260" fill="none"></rect></clipPath><clipPath id="highcharts-itoaaru-863"><rect x="0" y="0" width="468" height="260" fill="none"></rect></clipPath><clipPath id="highcharts-itoaaru-864"><rect x="64" y="63" width="468" height="260" fill="none"></rect></clipPath></defs><rect fill="#ffffff" class="highcharts-background" x="0" y="0" width="600" height="400" rx="0" ry="0"></rect><rect fill="none" class="highcharts-plot-background" x="64" y="63" width="468" height="260"></rect><g class="highcharts-pane-group" data-z-index="0"></g><g class="highcharts-grid highcharts-xaxis-grid " data-z-index="1"><path fill="none" data-z-index="1" class="highcharts-grid-line" d="M 160.5 63 L 160.5 323" opacity="1"></path><path fill="none" data-z-index="1" class="highcharts-grid-line" d="M 255.5 63 L 255.5 323" opacity="1"></path><path fill="none" data-z-index="1" class="highcharts-grid-line" d="M 350.5 63 L 350.5 323" opacity="1"></path><path fill="none" data-z-index="1" class="highcharts-grid-line" d="M 442.5 63 L 442.5 323" opacity="1"></path></g><g class="highcharts-grid highcharts-yaxis-grid " data-z-index="1"><path fill="none" stroke="#e6e6e6" stroke-width="1" data-z-index="1" class="highcharts-grid-line" d="M 64 323.5 L 532 323.5" opacity="1"></path><path fill="none" stroke="#e6e6e6" stroke-width="1" data-z-index="1" class="highcharts-grid-line" d="M 64 258.5 L 532 258.5" opacity="1"></path><path fill="none" stroke="#e6e6e6" stroke-width="1" data-z-index="1" class="highcharts-grid-line" d="M 64 193.5 L 532 193.5" opacity="1"></path><path fill="none" stroke="#e6e6e6" stroke-width="1" data-z-index="1" class="highcharts-grid-line" d="M 64 128.5 L 532 128.5" opacity="1"></path><path fill="none" stroke="#e6e6e6" stroke-width="1" data-z-index="1" class="highcharts-grid-line" d="M 64 62.5 L 532 62.5" opacity="1"></path></g><g class="highcharts-grid highcharts-yaxis-grid " data-z-index="1"><path fill="none" stroke="#e6e6e6" stroke-width="1" data-z-index="1" class="highcharts-grid-line" d="M 64 323.5 L 532 323.5" opacity="1"></path><path fill="none" stroke="#e6e6e6" stroke-width="1" data-z-index="1" class="highcharts-grid-line" d="M 64 258.5 L 532 258.5" opacity="1"></path><path fill="none" stroke="#e6e6e6" stroke-width="1" data-z-index="1" class="highcharts-grid-line" d="M 64 193.5 L 532 193.5" opacity="1"></path><path fill="none" stroke="#e6e6e6" stroke-width="1" data-z-index="1" class="highcharts-grid-line" d="M 64 128.5 L 532 128.5" opacity="1"></path><path fill="none" stroke="#e6e6e6" stroke-width="1" data-z-index="1" class="highcharts-grid-line" d="M 64 62.5 L 532 62.5" opacity="1"></path></g><rect fill="none" class="highcharts-plot-border" data-z-index="1" x="64" y="63" width="468" height="260"></rect><g class="highcharts-axis highcharts-xaxis " data-z-index="2"><path fill="none" class="highcharts-tick" stroke="#ccd6eb" stroke-width="1" d="M 160.5 323 L 160.5 333" opacity="1"></path><path fill="none" class="highcharts-tick" stroke="#ccd6eb" stroke-width="1" d="M 255.5 323 L 255.5 333" opacity="1"></path><path fill="none" class="highcharts-tick" stroke="#ccd6eb" stroke-width="1" d="M 350.5 323 L 350.5 333" opacity="1"></path><path fill="none" class="highcharts-tick" stroke="#ccd6eb" stroke-width="1" d="M 442.5 323 L 442.5 333" opacity="1"></path><path fill="none" class="highcharts-axis-line" stroke="#ccd6eb" stroke-width="1" data-z-index="7" d="M 64 323.5 L 532 323.5"></path></g><g class="highcharts-axis highcharts-yaxis " data-z-index="2"><text x="26" data-z-index="7" text-anchor="middle" transform="translate(0,0) rotate(270 26 193)" class="highcharts-axis-title" style="color:#666666;fill:#666666;" y="193"><tspan>SUM Calories intake (kcal)</tspan></text><path fill="none" class="highcharts-axis-line" stroke="#ccd6eb" stroke-width="1" data-z-index="7" d="M 63.5 63 L 63.5 323"></path></g><g class="highcharts-axis highcharts-yaxis " data-z-index="2"><text x="574" data-z-index="7" text-anchor="middle" transform="translate(0,0) rotate(90 574 193)" class="highcharts-axis-title" style="color:#666666;fill:#666666;" y="193"><tspan>MEAN Overall Mood (/5)</tspan></text><path fill="none" class="highcharts-axis-line" stroke="#ccd6eb" stroke-width="1" data-z-index="7" d="M 532.5 63 L 532.5 323"></path></g><g class="highcharts-series-group" data-z-index="3"><g data-z-index="0.1" class="highcharts-series highcharts-series-0 highcharts-spline-series highcharts-color-0 " transform="translate(64,63) scale(1 1)" clip-path="url(#highcharts-itoaaru-649)"><path fill="none" d="M 4.5882352941176 260 C 4.5882352941176 260 5.52460984393754 260 6.1488595438175 260 C 6.773109243697459 260 7.085234093637441 260 7.7094837935174 260 C 8.33373349339736 260 8.645858343337341 260 9.2701080432173 260 C 9.89435774309718 260 10.20648259303712 260 10.830732292917 260 C 11.454981992797 260 11.767106842736998 260 12.391356542617 260 C 13.015606242497 260 13.327731092437 260 13.951980792317 260 C 14.576230492196999 260 14.888355342137 260 15.512605042017 260 C 16.136854741897 260 16.448979591837 260 17.073229291717 260 C 17.697478991597002 260 18.009603841537 260 18.633853541417 260 C 19.258103241296602 260 19.5702280912364 260 20.194477791116 260 C 20.818727490996 260 21.130852340936 260 21.755102040816 260 C 22.379351740696002 260 22.691476590636 260 23.315726290516 260 C 23.939975990396 260 24.252100840336 260 24.876350540216 260 C 25.500600240096 260 25.812725090035997 260 26.436974789916 260 C 27.061224489795997 260 27.373349339736002 260 27.997599039616 260 C 28.621848739496 260 28.933973589436 260 29.558223289316 260 C 30.182472989195997 260 30.494597839136 260 31.118847539016 260 C 31.743097238895597 260 32.0552220888354 192.595 32.679471788715 192.595 C 33.303721488595 192.595 33.61584633853499 238.225 34.240096038415 238.225 C 34.864345738295 238.225 35.176470588235 238.225 35.800720288115 238.225 C 36.424969987995 238.225 36.737094837935004 156.39 37.361344537815 156.39 C 37.985594237695 156.39 38.297719087635 211.12000000000003 38.921968787515 227.175 C 39.546218487394995 243.23 39.858343337335 243.23 40.482593037215 243.23 C 41.10684273709499 243.23 41.418967587035 234.845 42.043217286915 234.7475 C 42.667466986795 234.65 42.979591836735004 234.65 43.603841536615 234.65 C 44.228091236495004 234.65 44.540216086434995 260 45.164465786315 260 C 45.7887154861946 260 46.1008403361344 245.7 46.725090036014 245.7 C 47.349339735894 245.7 47.661464585834004 260 48.285714285714 260 C 48.909963985594004 260 49.222088835533995 260 49.846338535414 260 C 50.470588235293995 260 50.782713085234 260 51.406962785114 260 C 52.031212484994 260 52.34333733493399 260 52.967587034814 260 C 53.59183673469399 260 53.903961584634 260 54.528211284514 260 C 55.152460984394 260 55.464585834334 260 56.088835534214 260 C 56.713085234094 260 57.02521008403401 260 57.649459783914 260 C 58.273709483793596 260 58.585834333733395 260 59.210084033613 260 C 59.83433373349301 260 60.14645858343299 260 60.770708283313 260 C 61.39495798319299 260 61.70708283313299 260 62.331332533013 260 C 62.95558223289301 260 63.267707082833 260 63.891956782713 260 C 64.51620648259299 260 64.828331332533 260 65.452581032413 260 C 66.076830732293 260 66.38895558223301 260 67.013205282113 260 C 67.637454981993 260 67.94957983193301 260 68.573829531813 260 C 69.19807923169301 260 69.510204081633 260 70.134453781513 260 C 70.7587034813926 260 71.07082833133241 260 71.695078031212 260 C 72.319327731092 260 72.631452581032 260 73.255702280912 260 C 73.879951980792 260 74.192076830732 247.51999999999998 74.816326530612 209.04 C 75.440576230492 170.56 75.752701080432 67.6 76.376950780312 67.6 C 77.00120048019201 67.6 77.313325330132 83.6485 77.937575030012 105.495 C 78.561824729892 127.3415 78.87394957983199 171.59999999999997 79.498199279712 176.83249999999998 C 80.122448979592 182.065 80.434573829532 176.83249999999998 81.058823529412 182.065 C 81.68307322929199 187.2975 81.995198079232 260 82.619447779112 260 C 83.243697478992 260 83.55582232893201 189.28 84.180072028812 189.28 C 84.8043217286916 189.28 85.1164465786314 190.96350000000186 85.740696278511 196.7875 C 86.36494597839099 202.61150000000185 86.67707082833098 218.4 87.301320528211 218.4 C 87.92557022809099 218.4 88.23769507803101 181.60999999999962 88.861944777911 150.01999999999998 C 89.48619447779102 118.42999999999962 89.798319327731 60.44999999999999 90.422569027611 60.44999999999999 C 91.046818727491 60.44999999999999 91.358943577431 99.97 91.983193277311 108.9075 C 92.607442977191 117.845 92.919567827131 117.845 93.543817527011 117.845 C 94.168067226891 117.845 94.480192076831 57.004999999999995 95.104441776711 57.004999999999995 C 95.72869147659101 57.004999999999995 96.04081632653099 60.11199999999279 96.665066026411 81.965 C 97.2893157262906 103.81799999999278 97.6014405762304 166.26999999999998 98.22569027611 166.26999999999998 C 98.84993997599 166.26999999999998 99.16206482593 59.442499999999995 99.78631452581 59.442499999999995 C 100.41056422569 59.442499999999995 100.72268907563 85.67000000000002 101.34693877551 115.14750000000001 C 101.97118847539 144.625 102.28331332533 206.82999999999998 102.90756302521 206.82999999999998 C 103.53181272509 206.82999999999998 103.84393757502998 91.25999999999999 104.46818727491 91.25999999999999 C 105.09243697479 91.25999999999999 105.40456182473001 115.87550000000016 106.02881152461 133.08749999999998 C 106.65306122449002 150.29950000000017 106.96518607443 177.32 107.58943577431 177.32 C 108.21368547419002 177.32 108.52581032412999 82.2575 109.15006002401 82.2575 C 109.77430972389 82.2575 110.08643457383 206.89499999999998 110.71068427371 206.89499999999998 C 111.33493397359 206.89499999999998 111.64705882353 167.10849999999976 112.27130852341 145.89249999999998 C 112.89555822329001 124.67649999999973 113.20768307323002 100.815 113.83193277311 100.815 C 114.45618247298998 100.815 114.76830732292999 207.805 115.39255702281 207.805 C 116.01680672268999 207.805 116.32893157263 77.67499999999998 116.95318127251 77.67499999999998 C 117.57743097238999 77.67499999999998 117.88955582233 98.3125 118.51380552221 98.3125 C 119.13805522209 98.3125 119.45018007203001 87.39249999999998 120.07442977191 87.39249999999998 C 120.69867947179 87.39249999999998 121.01080432173 131.1375 121.63505402161 131.1375 C 122.25930372149 131.1375 122.57142857143 100.52249999999998 123.19567827131 99.57999999999998 C 123.81992797119001 98.63749999999999 124.13205282112999 98.63749999999999 124.75630252101 98.63749999999999 C 125.38055222089 98.63749999999999 125.69267707083 98.63749999999999 126.31692677071 112.44999999999999 C 126.94117647059 126.26249999999999 127.25330132053 200.0375 127.87755102041 200.0375 C 128.50180072029 200.0375 128.81392557023 132.535 129.43817527011 132.535 C 130.06242496999 132.535 130.37454981993 163.94950000000003 130.99879951981 189.4425 C 131.62304921969002 214.9355 131.93517406963002 260 132.55942376951 260 C 133.18367346939002 260 133.49579831933002 260 134.12004801921 260 C 134.74429771908999 260 135.05642256903 260 135.68067226891 239.0375 C 136.30492196878998 218.075 136.61704681873 147.615 137.24129651861 147.615 C 137.86554621849 147.615 138.17767106843002 236.4375 138.80192076831 236.4375 C 139.42617046819 236.4375 139.73829531812999 194.857 140.36254501801 170.7875 C 140.98679471789 146.71800000000002 141.29891956782998 123.01250000000002 141.92316926771 116.09 C 142.54741896758998 109.16749999999999 142.85954381752998 109.16749999999999 143.48379351741 109.16749999999999 C 144.10804321729 109.16749999999999 144.42016806723 157.3260000000007 145.04441776711 187.4925 C 145.66866746699 217.6590000000007 145.98079231693 260 146.60504201681 260 C 147.22929171668997 260 147.54141656662998 260 148.16566626651 260 C 148.78991596638997 260 149.10204081633 248.9825000000004 149.72629051621 229.255 C 150.35054021609 209.52750000000046 150.66266506603 181.28500000000003 151.28691476591 161.3625 C 151.91116446579002 141.44 152.22328931573003 129.64249999999998 152.84753901561 129.64249999999998 C 153.47178871549002 129.64249999999998 153.78391356543003 154.92749999999998 154.40816326531 174.7525 C 155.03241296519 194.5775 155.34453781513 228.76749999999998 155.96878751501 228.76749999999998 C 156.59303721489 228.76749999999998 156.90516206483 223.34 157.52941176471 223.34 C 158.15366146459002 223.34 158.46578631453002 232.05 159.09003601441 232.05 C 159.71428571429 232.05 160.02641056423 232.05 160.65066026411 227.11 C 161.27490996399 222.17000000000002 161.58703481393 188.825 162.21128451381 188.825 C 162.83553421368998 188.825 163.14765906363 193.89499999999998 163.77190876351 193.89499999999998 C 164.39615846339 193.89499999999998 164.70828331333 190.39799999999988 165.33253301321 185.9975 C 165.95678271309 181.5969999999999 166.26890756303 182.39649999999997 166.89315726291 171.89249999999998 C 167.51740696278998 161.38849999999996 167.82953181272998 133.4775 168.45378151261 133.4775 C 169.078031212486 133.4775 169.39015606242398 195.58499999999998 170.0144057623 195.58499999999998 C 170.63865546218 195.58499999999998 170.95078031212 194.3825 171.575030012 194.3825 C 172.19927971188 194.3825 172.51140456182003 198.25 173.1356542617 198.25 C 173.75990396158002 198.25 174.07202881152003 148.85 174.6962785114 148.85 C 175.32052821128 148.85 175.63265306122 211.575 176.2569027611 211.575 C 176.88115246098 211.575 177.19327731092002 148.785 177.8175270108 148.785 C 178.44177671068002 148.785 178.75390156062002 171.5870000000003 179.3781512605 185.51 C 180.00240096038002 199.4330000000003 180.31452581032 218.4 180.9387755102 218.4 C 181.56302521008 218.4 181.87515006002 218.4 182.4993997599 212.55 C 183.12364945977998 206.70000000000002 183.43577430972 186.22500000000002 184.0600240096 185.25 C 184.68427370947998 184.27499999999998 184.99639855942002 185.25 185.6206482593 184.27499999999998 C 186.24489795918 183.29999999999995 186.55702280912 154.635 187.181272509 154.635 C 187.80552220887998 154.635 188.11764705881998 175.175 188.7418967587 175.175 C 189.36614645857998 175.175 189.67827130852 148.785 190.3025210084 148.785 C 190.92677070828 148.785 191.23889555822 170.495 191.8631452581 177.385 C 192.48739495798 184.27499999999998 192.79951980791998 184.27499999999998 193.4237695078 184.27499999999998 C 194.04801920768 184.27499999999998 194.36014405761998 169.0975 194.9843937575 169.0975 C 195.60864345738 169.0975 195.92076830731997 172.47750000000002 196.5450180072 173.35500000000002 C 197.16926770708 174.23250000000002 197.48139255702003 173.63450000000003 198.1056422569 174.23250000000002 C 198.72989195678002 174.83050000000003 199.04201680672003 176.345 199.6662665066 176.345 C 200.29051620648002 176.345 200.60264105642 171.34 201.2268907563 171.34 C 201.85114045618002 171.34 202.16326530612 186.16 202.787515006 186.16 C 203.41176470588 186.16 203.72388955582 186.16 204.3481392557 177.77499999999998 C 204.97238895558 169.38999999999996 205.28451380552002 133.83499999999998 205.9087635054 133.83499999999998 C 206.53301320527999 133.83499999999998 206.84513805522002 188.825 207.4693877551 188.825 C 208.09363745497998 188.825 208.40576230491996 180.4725 209.0300120048 180.4725 C 209.65426170467998 180.4725 209.96638655462002 196.56 210.5906362545 196.56 C 211.21488595438 196.56 211.52701080431999 188.3765 212.1512605042 183.625 C 212.77551020408 178.87349999999998 213.08763505401998 172.8025 213.7118847539 172.8025 C 214.33613445378 172.8025 214.64825930371998 186.29 215.2725090036 191.035 C 215.89675870348 195.78 216.20888355341998 196.5275 216.8331332533 196.5275 C 217.45738295317997 196.5275 217.76950780312 178.49 218.393757503 178.49 C 219.01800720288003 178.49 219.33013205282 182.29250000000002 219.9543817527 182.29250000000002 C 220.57863145257997 182.29250000000002 220.89075630252 172.6985 221.5150060024 168.87 C 222.13925570228002 165.04149999999998 222.45138055222 163.14999999999998 223.0756302521 163.14999999999998 C 223.69987995198 163.14999999999998 224.01200480192 182.4225 224.6362545018 182.4225 C 225.26050420168 182.4225 225.57262905162003 179.27 226.1968787515 177.6775 C 226.82112845138 176.085 227.13325330132002 177.6775 227.7575030012 174.45999999999998 C 228.38175270108 171.24249999999995 228.69387755101997 157.39749999999998 229.3181272509 157.39749999999998 C 229.94237695078 157.39749999999998 230.25450180072002 203.7425 230.8787515006 203.7425 C 231.50300120048 203.7425 231.81512605042 156.8775 232.4393757503 156.8775 C 233.06362545018 156.8775 233.37575030012 156.8775 234 162.0125 C 234.62424969988 167.14749999999998 234.93637454982 207.64249999999998 235.5606242497 207.64249999999998 C 236.18487394958 207.64249999999998 236.49699879952 183.0075 237.1212484994 183.0075 C 237.74549819927998 183.0075 238.05762304922 211.2175 238.6818727491 211.2175 C 239.30612244898003 211.2175 239.61824729892 180.05 240.2424969988 180.05 C 240.86674669867998 180.05 241.17887154862 197.1775 241.8031212485 197.1775 C 242.42737094837997 197.1775 242.73949579832 197.1775 243.3637454982 191.165 C 243.98799519808 185.15249999999997 244.30012004802 164.2875 244.9243697479 164.2875 C 245.54861944778 164.2875 245.86074429771998 210.14499999999998 246.4849939976 210.14499999999998 C 247.10924369748 210.14499999999998 247.42136854742003 200.564 248.0456182473 193.31 C 248.66986794718 186.05599999999998 248.98199279711997 173.875 249.606242497 173.875 C 250.23049219688 173.875 250.54261704682003 213.785 251.1668667467 213.785 C 251.79111644658002 213.785 252.10324129652 184.6325 252.7274909964 177.9375 C 253.35174069628002 171.2425 253.66386554622 171.2425 254.2881152461 171.2425 C 254.91236494598002 171.2425 255.22448979592 196.3 255.8487394958 196.3 C 256.47298919568004 196.3 256.78511404562 196.3 257.4093637455 191.88 C 258.03361344537996 187.45999999999998 258.34573829532 160.7775 258.9699879952 160.7775 C 259.59423769508 160.7775 259.90636254502 171.67800000000003 260.5306122449 189.0525 C 261.15486194478 206.42700000000002 261.46698679472 247.65 262.0912364946 247.65 C 262.71548619448004 247.65 263.02761104442004 230.91249999999965 263.6518607443 223.89249999999998 C 264.27611044418 216.8724999999997 264.58823529412 212.55 265.212484994 212.55 C 265.83673469388 212.55 266.14885954382 247.65 266.7731092437 247.65 C 267.39735894358 247.65 267.70948379352 170.885 268.3337334934 170.885 C 268.95798319328003 170.885 269.27010804322 203.515 269.8943577431 203.515 C 270.51860744298 203.515 270.83073229292006 201.92249999999984 271.4549819928 198.51 C 272.07923169268 195.09749999999983 272.39135654262 190.12499999999997 273.0156062425 186.4525 C 273.63985594238 182.77999999999997 273.95198079232 180.14749999999998 274.5762304922 180.14749999999998 C 275.20048019207997 180.14749999999998 275.51260504202 189.0915000000003 276.1368547419 192.53 C 276.76110444178005 195.96850000000032 277.07322929171994 192.53 277.6974789916 197.34 C 278.32172869147996 202.15 278.63385354142 226.23250000000002 279.2581032413 226.23250000000002 C 279.88235294118 226.23250000000002 280.19447779112 188.37 280.818727491 188.37 C 281.44297719088 188.37 281.75510204081996 237.0875 282.3793517407 237.0875 C 283.0036014405799 237.0875 283.31572629052 205.5625 283.9399759904 205.5625 C 284.56422569028 205.5625 284.87635054022 213.98 285.5006002401 213.98 C 286.12484993998 213.98 286.43697478992 209.365 287.0612244898 209.365 C 287.68547418968 209.365 287.99759903962 216.6775 288.6218487395 216.6775 C 289.24609843938003 216.6775 289.55822328932 171.89249999999998 290.1824729892 171.89249999999998 C 290.80672268908 171.89249999999998 291.11884753902007 182.2275000000004 291.7430972389 190.905 C 292.36734693878003 199.5825000000004 292.67947178872 206.5505 293.3037214886 215.28 C 293.92797118848 224.0095 294.24009603842 234.03250000000003 294.8643457383 234.5525 C 295.48859543817997 235.0725 295.80072028812003 234.5525 296.424969988 235.0725 C 297.04921968788005 235.59249999999997 297.36134453781995 260 297.9855942377 260 C 298.609843937576 260 298.921968787514 179.725 299.54621848739 179.725 C 300.17046818727 179.725 300.48259303721 260 301.10684273709 260 C 301.73109243697 260 302.04321728690996 249.24250000000023 302.66746698679 244.4325 C 303.29171668666993 239.6225000000002 303.60384153661 241.5855 304.22809123649 235.95 C 304.85234093637 230.31449999999998 305.16446578630996 216.255 305.78871548619 216.255 C 315.620648259302 216.255 320.53661464585804 255.1575 330.36854741897 255.1575 C 332.605442176874 255.1575 333.723889555826 223.5025 335.96078431373 223.5025 C 347.197278911566 223.5025 352.81552621048405 253.2725 364.05202080832 253.2725 C 364.6762705082 253.2725 364.98839535814 53.625 365.61264505802 53.625 C 366.028811524608 53.625 366.23689475790195 191.10000000000002 366.65306122449 192.53 C 369.15006002401 193.95999999999998 370.39855942377 192.53 372.89555822329 193.95999999999998 C 373.51980792317 195.38999999999996 373.83193277311 196.13045070422515 374.45618247299 197.21 C 384.9123649459781 215.2924507042252 390.140456182472 241.865 400.59663865546 241.865 C 404.34213685474003 241.865 406.21488595438007 241.865 409.96038415366 241.345 C 411.05282112845197 240.825 411.599039615848 233.805 412.69147659064 233.805 C 416.957182873152 233.805 419.090036014408 253.2725 423.35574229692 253.2725 C 426.737094837936 253.2725 428.427771108444 253.2725 431.80912364946 250.6725 C 440.080432172868 248.07250000000002 444.21608643457193 192.04250000000002 452.48739495798 192.04250000000002 C 453.319727891156 192.04250000000002 453.7358943577439 212.9075 454.56822729092 212.9075 C 454.98439375750405 212.9075 455.1924769907961 164.7425 455.60864345738 164.7425 C 456.23289315726004 164.7425 456.5450180072 194.805 457.16926770708 194.805 C 457.79351740696 194.805 458.10564225690007 190.385 458.72989195678 190.385 C 459.562224889956 190.385 459.978391356544 242.8725 460.81072428972 242.8725 C 461.851140456184 242.8725 463.41176470588 207.805 463.41176470588 207.805" class="highcharts-graph" data-z-index="1" stroke="#000000" stroke-width="2" stroke-linejoin="round" stroke-linecap="round"></path></g><g data-z-index="0.1" class="highcharts-markers highcharts-series-0 highcharts-spline-series highcharts-color-0 " transform="translate(64,63) scale(1 1)" clip-path="none"></g><g data-z-index="0.1" class="highcharts-series highcharts-series-1 highcharts-spline-series highcharts-color-1 " transform="translate(64,63) scale(1 1)" clip-path="url(#highcharts-itoaaru-863)"><path fill="none" d="M 4.5882352941176 97.5 C 4.5882352941176 97.5 5.52460984393754 97.5 6.1488595438175 97.5 C 6.773109243697459 97.5 7.085234093637441 97.5 7.7094837935174 97.5 C 8.33373349339736 97.5 8.645858343337341 97.5 9.2701080432173 97.5 C 9.89435774309718 97.5 10.20648259303712 97.5 10.830732292917 97.5 C 11.454981992797 97.5 11.767106842736998 86.66666666666663 12.391356542617 86.66666666666663 C 13.015606242497 86.66666666666663 13.327731092437 86.66666666666663 13.951980792317 86.66666666666663 C 14.576230492196999 86.66666666666663 14.888355342137 85.40277777777776 15.512605042017 83.95833333333331 C 16.136854741897 82.51388888888887 16.448979591837 82.15277777777774 17.073229291717 79.44444444444443 C 17.697478991597002 76.7361111111111 18.009603841537 77.63888888889117 18.633853541417 70.41666666666666 C 19.258103241296602 63.194444444446745 19.5702280912364 43.333333333333314 20.194477791116 43.333333333333314 C 20.818727490996 43.333333333333314 21.130852340936 43.333333333333314 21.755102040816 43.333333333333314 C 22.379351740696002 43.333333333333314 22.691476590636 43.333333333333314 23.315726290516 43.333333333333314 C 23.939975990396 43.333333333333314 24.252100840336 43.333333333333314 24.876350540216 43.333333333333314 C 25.500600240096 43.333333333333314 25.812725090035997 61.388888888888886 26.436974789916 61.388888888888886 C 27.061224489795997 61.388888888888886 27.373349339736002 61.388888888888886 27.997599039616 61.388888888888886 C 28.621848739496 61.388888888888886 28.933973589436 65.90277777777776 29.558223289316 70.41666666666666 C 30.182472989195997 74.93055555555554 30.494597839136 83.95833333333331 31.118847539016 83.95833333333331 C 31.743097238895597 83.95833333333331 32.0552220888354 83.95833333333331 32.679471788715 83.95833333333331 C 33.303721488595 83.95833333333331 33.61584633853499 97.5 34.240096038415 97.5 C 34.864345738295 97.5 35.176470588235 97.5 35.800720288115 97.5 C 36.424969987995 97.5 36.737094837935004 97.5 37.361344537815 97.5 C 37.985594237695 97.5 38.297719087635 97.5 38.921968787515 97.5 C 39.546218487394995 97.5 39.858343337335 97.5 40.482593037215 97.5 C 41.10684273709499 97.5 41.418967587035 88.29166666666667 42.043217286915 83.95833333333331 C 42.667466986795 79.625 42.979591836735004 79.62499999999996 43.603841536615 75.83333333333331 C 44.228091236495004 72.04166666666661 44.540216086434995 68.79166666666787 45.164465786315 64.99999999999997 C 45.7887154861946 61.208333333334544 46.1008403361344 59.04166666666596 46.725090036014 56.87499999999997 C 47.349339735894 54.70833333333263 47.661464585834004 54.16666666666666 48.285714285714 54.16666666666666 C 48.909963985594004 54.16666666666666 49.222088835533995 54.16666666666666 49.846338535414 54.16666666666666 C 50.470588235293995 54.16666666666666 50.782713085234 43.333333333333314 51.406962785114 43.333333333333314 C 52.031212484994 43.333333333333314 52.34333733493399 47.04761904761902 52.967587034814 48.75 C 53.59183673469399 50.45238095238092 53.903961584634 48.75 54.528211284514 51.845238095238074 C 55.152460984394 54.94047619047615 55.464585834334 62.059523809523824 56.088835534214 68.09523809523807 C 56.713085234094 74.1309523809524 57.02521008403401 77.1316137566122 57.649459783914 82.02380952380949 C 58.273709483793596 86.91600529100373 58.585834333733395 88.76086545729524 59.210084033613 92.55621693121691 C 59.83433373349301 96.35156840514104 60.14645858343299 96.21645880574441 60.770708283313 101.00056689342401 C 61.39495798319299 105.78467498110344 61.70708283313299 112.16553287981856 62.331332533013 116.47675736961446 C 62.95558223289301 120.78798185941041 63.267707082833 120.89852607709747 63.891956782713 122.55668934240362 C 64.51620648259299 124.21485260770973 64.828331332533 124.76757369614512 65.452581032413 124.76757369614512 C 66.076830732293 124.76757369614512 66.38895558223301 124.10430839002267 67.013205282113 122.00396825396825 C 67.637454981993 119.90362811791383 67.94957983193301 117.36111111111104 68.573829531813 114.26587301587298 C 69.19807923169301 111.17063492063485 69.510204081633 110.39682539682661 70.134453781513 106.52777777777777 C 70.7587034813926 102.65873015873139 71.07082833133241 99.89512471655169 71.695078031212 94.92063492063491 C 72.319327731092 89.94614512471495 72.631452581032 81.6553287981859 73.255702280912 81.6553287981859 C 73.879951980792 81.6553287981859 74.192076830732 87.18253968253967 74.816326530612 87.18253968253967 C 75.440576230492 87.18253968253967 75.752701080432 86.07709750566889 76.376950780312 86.07709750566889 C 77.00120048019201 86.07709750566889 77.313325330132 87.84580498866211 77.937575030012 88.84070294784578 C 78.561824729892 89.83560090702946 78.87394957983199 88.84070294784578 79.498199279712 91.05158730158726 C 80.122448979592 93.26247165532874 80.434573829532 94.99433106575962 81.058823529412 100.81632653061223 C 81.68307322929199 106.63832199546485 81.995198079232 113.8973922902495 82.619447779112 120.16156462585033 C 83.243697478992 126.42573696145132 83.55582232893201 132.13718820861678 84.180072028812 132.13718820861678 C 84.8043217286916 132.13718820861678 85.1164465786314 131.4337250051536 85.740696278511 131.4337250051536 C 86.36494597839099 131.4337250051536 86.67707082833098 144.88327149041436 87.301320528211 144.88327149041436 C 87.92557022809099 144.88327149041436 88.23769507803101 143.1782106782107 88.861944777911 143.0777159348588 C 89.48619447779102 142.97722119150689 89.798319327731 142.97722119150689 90.422569027611 142.97722119150689 C 91.046818727491 142.97722119150689 91.358943577431 144.63538445681303 91.983193277311 144.63538445681303 C 92.607442977191 144.63538445681303 92.919567827131 135.8102710781282 93.543817527011 131.5773487425273 C 94.168067226891 127.3444264069264 94.480192076831 126.42163342609767 95.104441776711 123.47077277880848 C 95.72869147659101 120.51991213151922 96.04081632653099 119.80338461142128 96.665066026411 116.8230455060812 C 97.2893157262906 113.84270640074308 97.6014405762304 109.44209312512882 98.22569027611 108.56907725211295 C 98.84993997599 107.69606137909707 99.16206482593 108.29274247577817 99.78631452581 107.69606137909707 C 100.41056422569 107.09938028241598 100.72268907563 107.00264764996906 101.34693877551 105.58567176870747 C 101.97118847539 104.16869588744588 102.28331332533 101.97066326530609 102.90756302521 100.6111819727891 C 103.53181272509 99.25170068027208 103.84393757502998 98.78826530612241 104.46818727491 98.78826530612241 C 105.09243697479 98.78826530612241 105.40456182473001 99.88265306122449 106.02881152461 100.44642857142858 C 106.65306122449002 101.01020408163268 106.96518607443 100.7559523809524 107.58943577431 101.60714285714286 C 108.21368547419002 102.45833333333333 108.52581032412999 104.234693877551 109.15006002401 104.70238095238093 C 109.77430972389 105.17006802721087 110.08643457383 104.70238095238093 110.71068427371 105.17006802721087 C 111.33493397359 105.63775510204081 111.64705882353 106.71768707482994 112.27130852341 107.90116046418566 C 112.89555822329001 109.08463385354142 113.20768307323002 111.08743497398956 113.83193277311 111.08743497398956 C 114.45618247298998 111.08743497398956 114.76830732292999 111.00806989462453 115.39255702281 111.00806989462453 C 116.01680672268999 111.00806989462453 116.32893157263 111.74134653861546 116.95318127251 112.66623315993064 C 117.57743097238999 113.59111978124582 117.88955582233 115.63250300120046 118.51380552221 115.63250300120046 C 119.13805522209 115.63250300120046 119.45018007203001 114.80342136854739 120.07442977191 114.3428204615179 C 120.69867947179 113.88221955448843 121.01080432173 113.95933373349338 121.63505402161 113.32949846605308 C 122.25930372149 112.69966319861277 122.57142857143 112.15489529144986 123.19567827131 111.19364412431636 C 123.81992797119001 110.23239295718284 124.13205282112999 108.52324263038551 124.75630252101 108.52324263038551 C 125.38055222089 108.52324263038551 125.69267707083 111.61848072562358 126.31692677071 111.61848072562358 C 126.94117647059 111.61848072562358 127.25330132053 108.8632498453927 127.87755102041 107.74943310657596 C 128.50180072029 106.63561636775921 128.81392557023 106.04939703153988 129.43817527011 106.04939703153988 C 130.06242496999 106.04939703153988 130.37454981993 108.07604102246955 130.99879951981 109.54996392496389 C 131.62304921969002 111.02388682745823 131.93517406963002 112.03595832272306 132.55942376951 113.41901154401154 C 133.18367346939002 114.80206476530009 133.49579831933002 115.00677998472112 134.12004801921 116.46523003140646 C 134.74429771908999 117.92368007809182 135.05642256903 120.71126177743827 135.68067226891 120.71126177743827 C 136.30492196878998 120.71126177743827 136.61704681873 119.67951574569221 137.24129651861 119.67951574569221 C 137.86554621849 119.67951574569221 138.17767106843002 121.80246719900083 138.80192076831 121.89040009943372 C 139.42617046819 121.97833299986661 139.73829531812999 121.97833299986661 140.36254501801 121.97833299986661 C 140.98679471789 121.97833299986661 141.29891956782998 118.40406996131792 141.92316926771 115.89840102707748 C 142.54741896758998 113.39273209283716 142.85954381752998 111.34891456582632 143.48379351741 109.44998832866477 C 144.10804321729 107.55106209150324 144.42016806723 106.74390589569154 145.04441776711 106.40376984126982 C 145.66866746699 106.0636337868481 145.98079231693 106.06363378684816 146.60504201681 106.0636337868481 C 147.22929171668997 106.06363378684804 147.54141656662998 106.06363378684804 148.16566626651 106.06363378684804 C 148.78991596638997 106.06363378684804 149.10204081633 106.50783676129294 149.72629051621 106.76709699031125 C 150.35054021609 107.02635721932954 150.66266506603 106.76709699031125 151.28691476591 107.35993493193953 C 151.91116446579002 107.95277287356782 152.22328931573003 111.15776858152843 152.84753901561 113.27730187871825 C 153.47178871549002 115.39683517590815 153.78391356543003 116.46350579576894 154.40816326531 117.95760141788875 C 155.03241296519 119.45169704000855 155.34453781513 120.74777998931731 155.96878751501 120.74777998931731 C 156.59303721489 120.74777998931731 156.90516206483 118.26053509135815 157.52941176471 118.26053509135815 C 158.15366146459002 118.26053509135815 158.46578631453002 119.1013411107356 159.09003601441 120.10293871947604 C 159.71428571429 121.10453632821654 160.02641056423 121.39980717360255 160.65066026411 123.26852313506046 C 161.27490996399 125.13723909651836 161.58703481393 128.39959975925848 162.21128451381 129.44651852676552 C 162.83553421368998 130.49343729427255 163.14765906363 129.44651852676552 163.77190876351 130.49343729427255 C 164.39615846339 131.5403560617796 164.70828331333 136.49090684660968 165.33253301321 139.3548044217687 C 165.95678271309 142.21870199692785 166.26890756303 142.56058673469389 166.89315726291 144.812925170068 C 167.51740696278998 147.06526360544217 167.82953181272998 148.79251700679688 168.45378151261 150.61649659863946 C 169.078031212486 152.44047619047032 169.39015606242398 153.15901360544217 170.0144057623 153.9328231292517 C 170.63865546218 154.7066326530612 170.95078031212 154.7066326530612 171.575030012 154.7066326530612 C 172.19927971188 154.7066326530612 172.51140456182003 152.42389455782308 173.1356542617 150.83758503401359 C 173.75990396158002 149.25127551020404 174.07202881152003 148.3613945578231 174.6962785114 146.77508503401359 C 175.32052821128 145.18877551020404 175.63265306122 143.90093537414967 176.2569027611 142.90603741496597 C 176.88115246098 141.91113945578232 177.19327731092002 142.90603741496597 177.8175270108 141.8005952380952 C 178.44177671068002 140.69515306122446 178.75390156062002 137.93154761904756 179.3781512605 135.35218253968253 C 180.00240096038002 132.77281746031738 180.31452581032 131.1220238095238 180.9387755102 128.90376984126985 C 181.56302521008 126.68551587301589 181.87515006002 126.04067460317464 182.4993997599 124.26091269841268 C 183.12364945977998 122.4811507936508 183.43577430972 122.98412698412704 184.0600240096 120.0049603174603 C 184.68427370947998 117.0257936507937 184.99639855942002 113.0406746031745 185.6206482593 109.36507936507934 C 186.24489795918 105.68948412698403 186.55702280912 106.26984126984125 187.181272509 101.6269841269841 C 187.80552220887998 96.98412698412696 188.11764705881998 89.54695767195761 188.7418967587 86.15079365079362 C 189.36614645857998 82.75462962962962 189.67827130852 83.73478835978833 190.3025210084 82.75462962962962 C 190.92677070828 81.77447089947087 191.23889555822 81.24999999999997 191.8631452581 81.24999999999997 C 192.48739495798 81.24999999999997 192.79951980791998 81.24999999999997 193.4237695078 81.24999999999997 C 194.04801920768 81.24999999999997 194.36014405761998 82.21296296296295 194.9843937575 85.46296296296296 C 195.60864345738 88.71296296296296 195.92076830731997 94.92063492063494 196.5450180072 97.5 C 197.16926770708 100.07936507936506 197.48139255702003 97.75793650793655 198.1056422569 100.07936507936506 C 198.72989195678002 102.40079365079369 199.04201680672003 106.08560090702952 199.6662665066 109.10714285714283 C 200.29051620648002 112.12868480725628 200.60264105642 112.53401360544215 201.2268907563 115.18707482993196 C 201.85114045618002 117.84013605442175 202.16326530612 122.37244897959181 202.787515006 122.37244897959181 C 203.41176470588 122.37244897959181 203.72388955582 122.37244897959181 204.3481392557 122.37244897959181 C 204.97238895558 122.37244897959181 205.28451380552002 118.50340136054422 205.9087635054 118.50340136054422 C 206.53301320527999 118.50340136054422 206.84513805522002 119.00870954442382 207.4693877551 119.19784580498865 C 208.09363745497998 119.38698206555347 208.40576230491996 119.19784580498865 209.0300120048 119.44908266336836 C 209.65426170467998 119.70031952174807 209.96638655462002 125.7802514945372 210.5906362545 125.7802514945372 C 211.21488595438 125.7802514945372 211.52701080431999 124.74113584827869 212.1512605042 123.84572768501337 C 212.77551020408 122.95031952174807 213.08763505401998 121.30321067821066 213.7118847539 121.30321067821066 C 214.33613445378 121.30321067821066 214.64825930371998 124.55434446505873 215.2725090036 126.8304215625644 C 215.89675870348 129.1064986600701 216.20888355341998 132.683596165739 216.8331332533 132.683596165739 C 217.45738295317997 132.683596165739 217.76950780312 132.25935374149657 218.393757503 131.66673108637394 C 219.01800720288003 131.07410843125126 219.33013205282 131.37596629560915 219.9543817527 129.72048289012577 C 220.57863145257997 128.06499948464236 220.89075630252 125.81626211090496 221.5150060024 123.3893140589569 C 222.13925570228002 120.96236600700885 222.45138055222 119.6750283446712 223.0756302521 117.58574263038545 C 223.69987995198 115.49645691609979 224.01200480192 114.97689909297054 224.6362545018 112.94288548752832 C 225.26050420168 110.90887188208619 225.57262905162003 109.08989984882838 226.1968787515 107.41567460317458 C 226.82112845138 105.74144935752078 227.13325330132002 104.57175925925927 227.7575030012 104.57175925925927 C 228.38175270108 104.57175925925927 228.69387755101997 106.90256734006724 229.3181272509 108.64598364598362 C 229.94237695078 110.38939995189983 230.25450180072002 111.19955507455511 230.8787515006 113.28884078884079 C 231.50300120048 115.37812650312655 231.81512605042 117.1063011063011 232.4393757503 119.0924122174122 C 233.06362545018 121.07852332852332 233.37575030012 120.84638047138047 234 123.21939634439633 C 234.62424969988 125.5924122174122 234.93637454982 128.37812650312645 235.5606242497 130.95749158249154 C 236.18487394958 133.53685666185663 236.49699879952 136.11622174122175 237.1212484994 136.11622174122175 C 237.74549819927998 136.11622174122175 238.05762304922 135.5940957190956 238.6818727491 133.88077200577197 C 239.30612244898003 132.1674482924482 239.61824729892 128.54166666666669 240.2424969988 127.54960317460316 C 240.86674669867998 126.55753968253964 241.17887154862 126.55753968253964 241.8031212485 126.55753968253964 C 242.42737094837997 126.55753968253964 242.73949579832 128.49206349206344 243.3637454982 128.49206349206344 C 243.98799519808 128.49206349206344 244.30012004802 128.23412698412696 244.9243697479 128.23412698412696 C 245.54861944778 128.23412698412696 245.86074429771998 130.7152305366591 246.4849939976 131.55045351473922 C 247.10924369748 132.38567649281936 247.42136854742003 131.55045351473922 248.0456182473 132.41024187452757 C 248.66986794718 133.27003023431593 248.98199279711997 136.65513983371113 249.606242497 139.3745275888133 C 250.23049219688 142.09391534391523 250.54261704682003 144.22430083144374 251.1668667467 146.0071806500378 C 251.79111644658002 147.79006046863194 252.10324129652 148.2889266817838 252.7274909964 148.2889266817838 C 253.35174069628002 148.2889266817838 253.66386554622 147.687074829932 254.2881152461 146.9992441421013 C 254.91236494598002 146.31141345427062 255.22448979592 146.13638510959936 255.8487394958 144.8497732426304 C 256.47298919568004 143.56316137566134 256.78511404562 142.6266061980349 257.4093637455 140.56618480725626 C 258.03361344537996 138.5057634164778 258.34573829532 136.9378779289493 258.9699879952 134.54766628873773 C 259.59423769508 132.15745464852597 259.90636254502 128.615126606198 260.5306122449 128.615126606198 C 261.15486194478 128.615126606198 261.46698679472 128.615126606198 262.0912364946 128.7533068783069 C 262.71548619448004 128.89148715041577 263.02761104442004 130.90277777777777 263.6518607443 130.90277777777777 C 264.27611044418 130.90277777777777 264.58823529412 129.9815759637188 265.212484994 129.9815759637188 C 265.83673469388 129.9815759637188 266.14885954382 133.38899911816577 266.7731092437 133.38899911816577 C 267.39735894358 133.38899911816577 267.70948379352 131.50821208112873 268.3337334934 131.50821208112873 C 268.95798319328003 131.50821208112873 269.27010804322 137.48374118165782 269.8943577431 139.03136022927688 C 270.51860744298 140.57897927689595 270.83073229292006 140.57897927689595 271.4549819928 140.57897927689595 C 272.07923169268 140.57897927689595 272.39135654262 134.911541005291 273.0156062425 132.67967372134038 C 273.63985594238 130.44780643738977 273.95198079232 131.03304874138217 274.5762304922 129.41964285714286 C 275.20048019207997 127.8062369729037 275.51260504202 124.6126443001443 276.1368547419 124.6126443001443 C 276.76110444178005 124.6126443001443 277.07322929171994 128.2195681302824 277.6974789916 128.4775046382189 C 278.32172869147996 128.7354411461554 278.63385354142 128.7354411461554 279.2581032413 128.7354411461554 C 279.88235294118 128.7354411461554 280.19447779112 128.09059987631414 280.818727491 128.09059987631414 C 281.44297719088 128.09059987631414 281.75510204081996 129.81508967223243 282.3793517407 132.05176767676767 C 283.0036014405799 134.2884456813027 283.31572629052 139.2739898989899 283.9399759904 139.2739898989899 C 284.56422569028 139.2739898989899 284.87635054022 135.53391053391056 285.5006002401 135.53391053391056 C 286.12484993998 135.53391053391056 286.43697478992 142.13191023535853 287.0612244898 142.13191023535853 C 287.68547418968 142.13191023535853 287.99759903962 137.29560071154899 288.6218487395 137.29560071154899 C 289.24609843938003 137.29560071154899 289.55822328932 141.53865626710453 290.1824729892 144.7757594417077 C 290.80672268908 148.01286261631088 291.11884753902007 151.03568007662844 291.7430972389 153.48111658456486 C 292.36734693878003 155.92655309250148 292.67947178872 157.00294198139025 293.3037214886 157.00294198139025 C 293.92797118848 157.00294198139025 294.24009603842 151.9916041129095 294.8643457383 151.9916041129095 C 295.48859543817997 151.9916041129095 295.80072028812003 157.6662072875127 296.424969988 157.6662072875127 C 297.04921968788005 157.6662072875127 297.36134453781995 151.8426235436775 297.9855942377 149.6612811791383 C 298.609843937576 147.47993881461346 298.921968787514 148.37159863945055 299.54621848739 146.7594954648526 C 300.17046818727 145.1473922902442 300.48259303721 144.91524943310657 301.10684273709 141.60076530612244 C 301.73109243697 138.2862811791383 302.04321728690996 134.731717687075 302.66746698679 130.18707482993196 C 303.29171668666993 125.64243197278932 303.60384153661 119.54081632653063 304.22809123649 118.87755102040816 C 304.85234093637 118.2142857142857 305.16446578630996 118.2142857142857 305.78871548619 118.2142857142857 C 315.620648259302 118.2142857142857 320.53661464585804 127.03731261022926 330.36854741897 127.03731261022926 C 332.605442176874 127.03731261022926 333.723889555826 103.51544784580497 335.96078431373 103.51544784580497 C 347.197278911566 103.51544784580497 352.81552621048405 111.51320877899276 364.05202080832 116.58396818323286 C 364.6762705082 116.86567703902408 364.98839535814 116.89661849588322 365.61264505802 116.89661849588322 C 366.028811524608 116.89661849588322 366.23689475790195 116.89661849588322 366.65306122449 116.89661849588322 C 369.15006002401 116.89661849588322 370.39855942377 129.4716140749229 372.89555822329 136.28501842656254 C 373.51980792317 137.98836951447248 373.83193277311 138.18850709475709 374.45618247299 138.18850709475709 C 384.9123649459781 138.18850709475709 390.140456182472 120.29595171401894 400.59663865546 120.29595171401894 C 404.34213685474003 120.29595171401894 406.21488595438007 129.1072138532851 409.96038415366 133.656629318394 C 411.05282112845197 134.9835421623865 411.599039615848 134.98677248677248 412.69147659064 134.98677248677248 C 416.957182873152 134.98677248677248 419.090036014408 122.41970809487788 423.35574229692 115.99773242630386 C 426.737094837936 110.90714195731174 428.427771108444 106.20535714285711 431.80912364946 106.20535714285711 C 440.080432172868 106.20535714285711 444.21608643457193 117.35357400535969 452.48739495798 117.35357400535969 C 453.319727891156 117.35357400535969 453.7358943577439 116.97202681577681 454.56822729092 116.97202681577681 C 454.98439375750405 116.97202681577681 455.1924769907961 116.97202681577681 455.60864345738 116.97202681577681 C 456.23289315726004 116.97202681577681 456.5450180072 115.17270171957672 457.16926770708 114.36643217893217 C 457.79351740696 113.56016263828762 458.10564225690007 114.36643217893217 458.72989195678 112.94067911255408 C 459.562224889956 111.51492604617599 459.978391356544 105.23809523809521 460.81072428972 103.45238095238093 C 461.851140456184 101.66666666666666 463.41176470588 101.66666666666666 463.41176470588 101.66666666666666" class="highcharts-graph" data-z-index="1" stroke="#5D83FF" stroke-width="2" stroke-linejoin="round" stroke-linecap="round"></path></g><g data-z-index="0.1" class="highcharts-markers highcharts-series-1 highcharts-spline-series highcharts-color-1 " transform="translate(64,63) scale(1 1)" clip-path="none"></g></g><text x="300" text-anchor="middle" class="highcharts-title" data-z-index="4" style="color:#333333;font-size:18px;fill:#333333;" y="24"><tspan>Calories Intake &amp; Overall Mood Over Time</tspan></text><text x="300" text-anchor="middle" class="highcharts-subtitle" data-z-index="4" style="color:#666666;fill:#666666;" y="46"><tspan>Black represents the sum of Calories intake over the previous 7 days</tspan></text><g class="highcharts-legend" data-z-index="7" transform="translate(131,358)"><rect fill="none" class="highcharts-legend-box" rx="0" ry="0" x="0" y="0" width="339" height="27" visibility="visible"></rect><g data-z-index="1"><g><g class="highcharts-legend-item highcharts-spline-series highcharts-color-0 highcharts-series-0" data-z-index="1" transform="translate(8,3)"><path fill="none" d="M 0 11 L 16 11" class="highcharts-graph" stroke="#000000" stroke-width="2"></path><path fill="#000000" d="M 12 11 A 4 4 0 1 1 11.999998000000167 10.996000000666664 Z" class="highcharts-point"></path><text x="21" style="color:#333333;font-size:12px;font-weight:bold;cursor:pointer;fill:#333333;" text-anchor="start" data-z-index="2" y="15"><tspan>Calories intake (kcal)</tspan></text></g><g class="highcharts-legend-item highcharts-spline-series highcharts-color-1 highcharts-series-1" data-z-index="1" transform="translate(191,3)"><path fill="none" d="M 0 11 L 16 11" class="highcharts-graph" stroke="#5D83FF" stroke-width="2"></path><path fill="#5D83FF" d="M 8 7 L 12 11 8 15 4 11 Z" class="highcharts-point"></path><text x="21" y="15" style="color:#333333;font-size:12px;font-weight:bold;cursor:pointer;fill:#333333;" text-anchor="start" data-z-index="2"><tspan>Overall Mood (/5)</tspan></text></g></g></g></g><g class="highcharts-axis-labels highcharts-xaxis-labels " data-z-index="7"><text x="163.66506602641" style="color:#666666;cursor:default;font-size:11px;fill:#666666;" text-anchor="start" transform="translate(0,0)" y="342" opacity="1"><tspan>Sep '13</tspan></text><text x="258.86314525809996" style="color:#666666;cursor:default;font-size:11px;fill:#666666;" text-anchor="start" transform="translate(0,0)" y="342" opacity="1"><tspan>Nov '13</tspan></text><text x="354.0612244898" style="color:#666666;cursor:default;font-size:11px;fill:#666666;" text-anchor="start" transform="translate(0,0)" y="342" opacity="1"><tspan>Jan '14</tspan></text><text x="446.13805522209" style="color:#666666;cursor:default;font-size:11px;fill:#666666;" text-anchor="start" transform="translate(0,0)" y="342" opacity="1"><tspan>Mar '14</tspan></text></g><g class="highcharts-axis-labels highcharts-yaxis-labels " data-z-index="7"><text x="49" style="color:#666666;cursor:default;font-size:11px;fill:#666666;" text-anchor="end" transform="translate(0,0)" y="327" opacity="1">0</text><text x="49" style="color:#666666;cursor:default;font-size:11px;fill:#666666;" text-anchor="end" transform="translate(0,0)" y="262" opacity="1">2k</text><text x="49" style="color:#666666;cursor:default;font-size:11px;fill:#666666;" text-anchor="end" transform="translate(0,0)" y="197" opacity="1">4k</text><text x="49" style="color:#666666;cursor:default;font-size:11px;fill:#666666;" text-anchor="end" transform="translate(0,0)" y="132" opacity="1">6k</text><text x="49" style="color:#666666;cursor:default;font-size:11px;fill:#666666;" text-anchor="end" transform="translate(0,0)" y="67" opacity="1">8k</text></g><g class="highcharts-axis-labels highcharts-yaxis-labels " data-z-index="7"><text x="547" style="color:#666666;cursor:default;font-size:11px;fill:#666666;" text-anchor="start" transform="translate(0,0)" y="327" opacity="1">0</text><text x="547" style="color:#666666;cursor:default;font-size:11px;fill:#666666;" text-anchor="start" transform="translate(0,0)" y="262" opacity="1">1.2</text><text x="547" style="color:#666666;cursor:default;font-size:11px;fill:#666666;" text-anchor="start" transform="translate(0,0)" y="197" opacity="1">2.4</text><text x="547" style="color:#666666;cursor:default;font-size:11px;fill:#666666;" text-anchor="start" transform="translate(0,0)" y="132" opacity="1">3.6</text><text x="547" style="color:#666666;cursor:default;font-size:11px;fill:#666666;" text-anchor="start" transform="translate(0,0)" y="67" opacity="1">4.8</text></g><a xlink:href="https://quantimo.do" target="_blank">
                    <text x="590" class="highcharts-credits" text-anchor="end" data-z-index="8"
                          style="cursor:pointer;color:#999999;font-size:9px;fill:#999999;" y="395">https://quantimo.do
                    </text>
                </a></svg>