<?xml version="1.0" standalone="no"?><!DOCTYPE svg PUBLIC "-//W3C//DTD SVG 1.1//EN" "http://www.w3.org/Graphics/SVG/1.1/DTD/svg11.dtd"><svg xmlns:xlink="http://www.w3.org/1999/xlink" version="1.1" class="highcharts-root" style="font-family:&quot;Lucida Grande&quot;, &quot;Lucida Sans Unicode&quot;, Arial, Helvetica, sans-serif;font-size:12px;" xmlns="http://www.w3.org/2000/svg" width="600" height="400"><desc>Created with Highstock 6.2.0</desc><defs><clipPath id="highcharts-wfojl4x-220"><rect x="0" y="0" width="522" height="263" fill="none"></rect></clipPath><clipPath id="highcharts-wfojl4x-434"><rect x="0" y="0" width="522" height="263" fill="none"></rect></clipPath><clipPath id="highcharts-wfojl4x-435"><rect x="68" y="78" width="522" height="263" fill="none"></rect></clipPath></defs><rect fill="#ffffff" class="highcharts-background" x="0" y="0" width="600" height="400" rx="0" ry="0"></rect><rect fill="none" class="highcharts-plot-background" x="68" y="78" width="522" height="263"></rect><g class="highcharts-pane-group" data-z-index="0"></g><g class="highcharts-grid highcharts-xaxis-grid " data-z-index="1"><path fill="none" data-z-index="1" class="highcharts-grid-line" d="M 72.5 78 L 72.5 341" opacity="1"></path><path fill="none" data-z-index="1" class="highcharts-grid-line" d="M 153.5 78 L 153.5 341" opacity="1"></path><path fill="none" data-z-index="1" class="highcharts-grid-line" d="M 233.5 78 L 233.5 341" opacity="1"></path><path fill="none" data-z-index="1" class="highcharts-grid-line" d="M 314.5 78 L 314.5 341" opacity="1"></path><path fill="none" data-z-index="1" class="highcharts-grid-line" d="M 394.5 78 L 394.5 341" opacity="1"></path><path fill="none" data-z-index="1" class="highcharts-grid-line" d="M 475.5 78 L 475.5 341" opacity="1"></path><path fill="none" data-z-index="1" class="highcharts-grid-line" d="M 556.5 78 L 556.5 341" opacity="1"></path></g><g class="highcharts-grid highcharts-yaxis-grid " data-z-index="1"><path fill="none" stroke="#e6e6e6" stroke-width="1" data-z-index="1" class="highcharts-grid-line" d="M 68 341.5 L 590 341.5" opacity="1"></path><path fill="none" stroke="#e6e6e6" stroke-width="1" data-z-index="1" class="highcharts-grid-line" d="M 68 297.5 L 590 297.5" opacity="1"></path><path fill="none" stroke="#e6e6e6" stroke-width="1" data-z-index="1" class="highcharts-grid-line" d="M 68 253.5 L 590 253.5" opacity="1"></path><path fill="none" stroke="#e6e6e6" stroke-width="1" data-z-index="1" class="highcharts-grid-line" d="M 68 210.5 L 590 210.5" opacity="1"></path><path fill="none" stroke="#e6e6e6" stroke-width="1" data-z-index="1" class="highcharts-grid-line" d="M 68 166.5 L 590 166.5" opacity="1"></path><path fill="none" stroke="#e6e6e6" stroke-width="1" data-z-index="1" class="highcharts-grid-line" d="M 68 122.5 L 590 122.5" opacity="1"></path><path fill="none" stroke="#e6e6e6" stroke-width="1" data-z-index="1" class="highcharts-grid-line" d="M 68 77.5 L 590 77.5" opacity="1"></path></g><rect fill="none" class="highcharts-plot-border" data-z-index="1" x="68" y="78" width="522" height="263"></rect><g class="highcharts-axis highcharts-xaxis " data-z-index="2"><path fill="none" class="highcharts-tick" stroke="#ccd6eb" stroke-width="1" d="M 72.5 341 L 72.5 351" opacity="1"></path><path fill="none" class="highcharts-tick" stroke="#ccd6eb" stroke-width="1" d="M 153.5 341 L 153.5 351" opacity="1"></path><path fill="none" class="highcharts-tick" stroke="#ccd6eb" stroke-width="1" d="M 233.5 341 L 233.5 351" opacity="1"></path><path fill="none" class="highcharts-tick" stroke="#ccd6eb" stroke-width="1" d="M 314.5 341 L 314.5 351" opacity="1"></path><path fill="none" class="highcharts-tick" stroke="#ccd6eb" stroke-width="1" d="M 394.5 341 L 394.5 351" opacity="1"></path><path fill="none" class="highcharts-tick" stroke="#ccd6eb" stroke-width="1" d="M 475.5 341 L 475.5 351" opacity="1"></path><path fill="none" class="highcharts-tick" stroke="#ccd6eb" stroke-width="1" d="M 556.5 341 L 556.5 351" opacity="1"></path><text x="329" data-z-index="7" text-anchor="middle" transform="translate(0,0)" class="highcharts-axis-title" style="color:#666666;fill:#666666;" y="381"><tspan>Calories intake (kcal) over previous 7 days</tspan></text><path fill="none" class="highcharts-axis-line" stroke="#ccd6eb" stroke-width="1" data-z-index="7" d="M 68 341.5 L 590 341.5"></path></g><g class="highcharts-axis highcharts-yaxis " data-z-index="2"><text x="26" data-z-index="7" text-anchor="middle" transform="translate(0,0) rotate(270 26 209.5)" class="highcharts-axis-title" style="color:#666666;fill:#666666;" y="209.5"><tspan>Overall Mood (/5)</tspan></text><path fill="none" class="highcharts-axis-line" data-z-index="7" d="M 68 78 L 68 341"></path></g><g class="highcharts-series-group" data-z-index="3"><g data-z-index="0.1" class="highcharts-series highcharts-series-0 highcharts-scatter-series highcharts-color-0 " transform="translate(68,78) scale(1 1)" clip-path="url(#highcharts-wfojl4x-434)"></g><g data-z-index="0.1" class="highcharts-markers highcharts-series-0 highcharts-scatter-series highcharts-color-0 " transform="translate(68,78) scale(1 1)" clip-path="none"><path fill="#000000" d="M 9 132 A 4 4 0 1 1 8.999998000000167 131.99600000066667 Z" class="highcharts-point highcharts-color-0"></path><path fill="#000000" d="M 9 132 A 4 4 0 1 1 8.999998000000167 131.99600000066667 Z" class="highcharts-point highcharts-color-0"></path><path fill="#000000" d="M 9 132 A 4 4 0 1 1 8.999998000000167 131.99600000066667 Z" class="highcharts-point highcharts-color-0"></path><path fill="#000000" d="M 9 132 A 4 4 0 1 1 8.999998000000167 131.99600000066667 Z" class="highcharts-point highcharts-color-0"></path><path fill="#000000" d="M 9 132 A 4 4 0 1 1 8.999998000000167 131.99600000066667 Z" class="highcharts-point highcharts-color-0"></path><path fill="#000000" d="M 9 114 A 4 4 0 1 1 8.999998000000167 113.99600000066667 Z" class="highcharts-point highcharts-color-0"></path><path fill="#000000" d="M 9 114 A 4 4 0 1 1 8.999998000000167 113.99600000066667 Z" class="highcharts-point highcharts-color-0"></path><path fill="#000000" d="M 9 110 A 4 4 0 1 1 8.999998000000167 109.99600000066667 Z" class="highcharts-point highcharts-color-0"></path><path fill="#000000" d="M 9 102 A 4 4 0 1 1 8.999998000000167 101.99600000066667 Z" class="highcharts-point highcharts-color-0"></path><path fill="#000000" d="M 9 88 A 4 4 0 1 1 8.999998000000167 87.99600000066667 Z" class="highcharts-point highcharts-color-0"></path><path fill="#000000" d="M 9 44 A 4 4 0 1 1 8.999998000000167 43.99600000066666 Z" class="highcharts-point highcharts-color-0"></path><path fill="#000000" d="M 9 44 A 4 4 0 1 1 8.999998000000167 43.99600000066666 Z" class="highcharts-point highcharts-color-0"></path><path fill="#000000" d="M 9 44 A 4 4 0 1 1 8.999998000000167 43.99600000066666 Z" class="highcharts-point highcharts-color-0"></path><path fill="#000000" d="M 9 44 A 4 4 0 1 1 8.999998000000167 43.99600000066666 Z" class="highcharts-point highcharts-color-0"></path><path fill="#000000" d="M 9 73 A 4 4 0 1 1 8.999998000000167 72.99600000066667 Z" class="highcharts-point highcharts-color-0"></path><path fill="#000000" d="M 9 73 A 4 4 0 1 1 8.999998000000167 72.99600000066667 Z" class="highcharts-point highcharts-color-0"></path><path fill="#000000" d="M 9 88 A 4 4 0 1 1 8.999998000000167 87.99600000066667 Z" class="highcharts-point highcharts-color-0"></path><path fill="#000000" d="M 9 110 A 4 4 0 1 1 8.999998000000167 109.99600000066667 Z" class="highcharts-point highcharts-color-0"></path><path fill="#000000" d="M 176 110 A 4 4 0 1 1 175.99999800000018 109.99600000066667 Z" class="highcharts-point highcharts-color-0"></path><path fill="#000000" d="M 63 132 A 4 4 0 1 1 62.99999800000017 131.99600000066667 Z" class="highcharts-point highcharts-color-0"></path><path fill="#000000" d="M 63 132 A 4 4 0 1 1 62.99999800000017 131.99600000066667 Z" class="highcharts-point highcharts-color-0"></path><path fill="#000000" d="M 266 132 A 4 4 0 1 1 265.9999980000002 131.99600000066667 Z" class="highcharts-point highcharts-color-0"></path><path fill="#000000" d="M 90 132 A 4 4 0 1 1 89.99999800000016 131.99600000066667 Z" class="highcharts-point highcharts-color-0"></path><path fill="#000000" d="M 50 132 A 4 4 0 1 1 49.99999800000017 131.99600000066667 Z" class="highcharts-point highcharts-color-0"></path><path fill="#000000" d="M 71 110 A 4 4 0 1 1 70.99999800000016 109.99600000066667 Z" class="highcharts-point highcharts-color-0"></path><path fill="#000000" d="M 71 96 A 4 4 0 1 1 70.99999800000016 95.99600000066667 Z" class="highcharts-point highcharts-color-0"></path><path fill="#000000" d="M 9 79 A 4 4 0 1 1 8.999998000000167 78.99600000066667 Z" class="highcharts-point highcharts-color-0"></path><path fill="#000000" d="M 44 66 A 4 4 0 1 1 43.99999800000017 65.99600000066667 Z" class="highcharts-point highcharts-color-0"></path><path fill="#000000" d="M 9 61 A 4 4 0 1 1 8.999998000000167 60.99600000066666 Z" class="highcharts-point highcharts-color-0"></path><path fill="#000000" d="M 9 61 A 4 4 0 1 1 8.999998000000167 60.99600000066666 Z" class="highcharts-point highcharts-color-0"></path><path fill="#000000" d="M 9 44 A 4 4 0 1 1 8.999998000000167 43.99600000066666 Z" class="highcharts-point highcharts-color-0"></path><path fill="#000000" d="M 9 53 A 4 4 0 1 1 8.999998000000167 52.99600000066666 Z" class="highcharts-point highcharts-color-0"></path><path fill="#000000" d="M 9 58 A 4 4 0 1 1 8.999998000000167 57.99600000066666 Z" class="highcharts-point highcharts-color-0"></path><path fill="#000000" d="M 9 84 A 4 4 0 1 1 8.999998000000167 83.99600000066667 Z" class="highcharts-point highcharts-color-0"></path><path fill="#000000" d="M 9 106 A 4 4 0 1 1 8.999998000000167 105.99600000066667 Z" class="highcharts-point highcharts-color-0"></path><path fill="#000000" d="M 9 123 A 4 4 0 1 1 8.999998000000167 122.99600000066667 Z" class="highcharts-point highcharts-color-0"></path><path fill="#000000" d="M 9 137 A 4 4 0 1 1 8.999998000000167 136.99600000066667 Z" class="highcharts-point highcharts-color-0"></path><path fill="#000000" d="M 9 162 A 4 4 0 1 1 8.999998000000167 161.99600000066667 Z" class="highcharts-point highcharts-color-0"></path><path fill="#000000" d="M 9 172 A 4 4 0 1 1 8.999998000000167 171.99600000066667 Z" class="highcharts-point highcharts-color-0"></path><path fill="#000000" d="M 9 176 A 4 4 0 1 1 8.999998000000167 175.99600000066667 Z" class="highcharts-point highcharts-color-0"></path><path fill="#000000" d="M 9 171 A 4 4 0 1 1 8.999998000000167 170.99600000066667 Z" class="highcharts-point highcharts-color-0"></path><path fill="#000000" d="M 9 159 A 4 4 0 1 1 8.999998000000167 158.99600000066667 Z" class="highcharts-point highcharts-color-0"></path><path fill="#000000" d="M 9 146 A 4 4 0 1 1 8.999998000000167 145.99600000066667 Z" class="highcharts-point highcharts-color-0"></path><path fill="#000000" d="M 9 127 A 4 4 0 1 1 8.999998000000167 126.99600000066667 Z" class="highcharts-point highcharts-color-0"></path><path fill="#000000" d="M 9 106 A 4 4 0 1 1 8.999998000000167 105.99600000066667 Z" class="highcharts-point highcharts-color-0"></path><path fill="#000000" d="M 135 115 A 4 4 0 1 1 134.99999800000018 114.99600000066667 Z" class="highcharts-point highcharts-color-0"></path><path fill="#000000" d="M 486 113 A 4 4 0 1 1 485.9999980000002 112.99600000066667 Z" class="highcharts-point highcharts-color-0"></path><path fill="#000000" d="M 392 117 A 4 4 0 1 1 391.9999980000002 116.99600000066667 Z" class="highcharts-point highcharts-color-0"></path><path fill="#000000" d="M 215 121 A 4 4 0 1 1 214.99999800000018 120.99600000066667 Z" class="highcharts-point highcharts-color-0"></path><path fill="#000000" d="M 202 137 A 4 4 0 1 1 201.99999800000018 136.99600000066667 Z" class="highcharts-point highcharts-color-0"></path><path fill="#000000" d="M 9 168 A 4 4 0 1 1 8.999998000000167 167.99600000066667 Z" class="highcharts-point highcharts-color-0"></path><path fill="#000000" d="M 184 188 A 4 4 0 1 1 183.99999800000018 187.99600000066667 Z" class="highcharts-point highcharts-color-0"></path><path fill="#000000" d="M 165 186 A 4 4 0 1 1 164.99999800000018 185.99600000066667 Z" class="highcharts-point highcharts-color-0"></path><path fill="#000000" d="M 112 208 A 4 4 0 1 1 111.99999800000016 207.99600000066667 Z" class="highcharts-point highcharts-color-0"></path><path fill="#000000" d="M 281 205 A 4 4 0 1 1 280.9999980000002 204.99600000066667 Z" class="highcharts-point highcharts-color-0"></path><path fill="#000000" d="M 503 205 A 4 4 0 1 1 502.9999980000002 204.99600000066667 Z" class="highcharts-point highcharts-color-0"></path><path fill="#000000" d="M 383 208 A 4 4 0 1 1 382.9999980000002 207.99600000066667 Z" class="highcharts-point highcharts-color-0"></path><path fill="#000000" d="M 361 187 A 4 4 0 1 1 360.9999980000002 186.99600000066667 Z" class="highcharts-point highcharts-color-0"></path><path fill="#000000" d="M 512 174 A 4 4 0 1 1 511.9999980000002 173.99600000066667 Z" class="highcharts-point highcharts-color-0"></path><path fill="#000000" d="M 450 163 A 4 4 0 1 1 449.9999980000002 162.99600000066667 Z" class="highcharts-point highcharts-color-0"></path><path fill="#000000" d="M 241 149 A 4 4 0 1 1 240.99999800000018 148.99600000066667 Z" class="highcharts-point highcharts-color-0"></path><path fill="#000000" d="M 506 148 A 4 4 0 1 1 505.9999980000002 147.99600000066667 Z" class="highcharts-point highcharts-color-0"></path><path fill="#000000" d="M 368 145 A 4 4 0 1 1 367.9999980000002 144.99600000066667 Z" class="highcharts-point highcharts-color-0"></path><path fill="#000000" d="M 140 137 A 4 4 0 1 1 139.99999800000018 136.99600000066667 Z" class="highcharts-point highcharts-color-0"></path><path fill="#000000" d="M 427 134 A 4 4 0 1 1 426.9999980000002 133.99600000066667 Z" class="highcharts-point highcharts-color-0"></path><path fill="#000000" d="M 323 136 A 4 4 0 1 1 322.9999980000002 135.99600000066667 Z" class="highcharts-point highcharts-color-0"></path><path fill="#000000" d="M 214 138 A 4 4 0 1 1 213.99999800000018 137.99600000066667 Z" class="highcharts-point highcharts-color-0"></path><path fill="#000000" d="M 449 143 A 4 4 0 1 1 448.9999980000002 142.99600000066667 Z" class="highcharts-point highcharts-color-0"></path><path fill="#000000" d="M 140 144 A 4 4 0 1 1 139.99999800000018 143.99600000066667 Z" class="highcharts-point highcharts-color-0"></path><path fill="#000000" d="M 292 148 A 4 4 0 1 1 291.9999980000002 147.99600000066667 Z" class="highcharts-point highcharts-color-0"></path><path fill="#000000" d="M 403 153 A 4 4 0 1 1 402.9999980000002 152.99600000066667 Z" class="highcharts-point highcharts-color-0"></path><path fill="#000000" d="M 138 153 A 4 4 0 1 1 137.99999800000018 152.99600000066667 Z" class="highcharts-point highcharts-color-0"></path><path fill="#000000" d="M 461 156 A 4 4 0 1 1 460.9999980000002 155.99600000066667 Z" class="highcharts-point highcharts-color-0"></path><path fill="#000000" d="M 410 161 A 4 4 0 1 1 409.9999980000002 160.99600000066667 Z" class="highcharts-point highcharts-color-0"></path><path fill="#000000" d="M 437 159 A 4 4 0 1 1 436.9999980000002 158.99600000066667 Z" class="highcharts-point highcharts-color-0"></path><path fill="#000000" d="M 328 157 A 4 4 0 1 1 327.9999980000002 156.99600000066667 Z" class="highcharts-point highcharts-color-0"></path><path fill="#000000" d="M 406 154 A 4 4 0 1 1 405.9999980000002 153.99600000066667 Z" class="highcharts-point highcharts-color-0"></path><path fill="#000000" d="M 409 149 A 4 4 0 1 1 408.9999980000002 148.99600000066667 Z" class="highcharts-point highcharts-color-0"></path><path fill="#000000" d="M 375 154 A 4 4 0 1 1 374.9999980000002 153.99600000066667 Z" class="highcharts-point highcharts-color-0"></path><path fill="#000000" d="M 157 148 A 4 4 0 1 1 156.99999800000018 147.99600000066667 Z" class="highcharts-point highcharts-color-0"></path><path fill="#000000" d="M 325 145 A 4 4 0 1 1 324.9999980000002 144.99600000066667 Z" class="highcharts-point highcharts-color-0"></path><path fill="#000000" d="M 184 151 A 4 4 0 1 1 183.99999800000018 150.99600000066667 Z" class="highcharts-point highcharts-color-0"></path><path fill="#000000" d="M 9 157 A 4 4 0 1 1 8.999998000000167 156.99600000066667 Z" class="highcharts-point highcharts-color-0"></path><path fill="#000000" d="M 9 162 A 4 4 0 1 1 8.999998000000167 161.99600000066667 Z" class="highcharts-point highcharts-color-0"></path><path fill="#000000" d="M 61 169 A 4 4 0 1 1 60.99999800000017 168.99600000066667 Z" class="highcharts-point highcharts-color-0"></path><path fill="#000000" d="M 287 167 A 4 4 0 1 1 286.9999980000002 166.99600000066667 Z" class="highcharts-point highcharts-color-0"></path><path fill="#000000" d="M 67 171 A 4 4 0 1 1 66.99999800000016 170.99600000066667 Z" class="highcharts-point highcharts-color-0"></path><path fill="#000000" d="M 230 171 A 4 4 0 1 1 229.99999800000018 170.99600000066667 Z" class="highcharts-point highcharts-color-0"></path><path fill="#000000" d="M 365 161 A 4 4 0 1 1 364.9999980000002 160.99600000066667 Z" class="highcharts-point highcharts-color-0"></path><path fill="#000000" d="M 383 151 A 4 4 0 1 1 382.9999980000002 150.99600000066667 Z" class="highcharts-point highcharts-color-0"></path><path fill="#000000" d="M 188 146 A 4 4 0 1 1 187.99999800000018 145.99600000066667 Z" class="highcharts-point highcharts-color-0"></path><path fill="#000000" d="M 9 145 A 4 4 0 1 1 8.999998000000167 144.99600000066667 Z" class="highcharts-point highcharts-color-0"></path><path fill="#000000" d="M 9 145 A 4 4 0 1 1 8.999998000000167 144.99600000066667 Z" class="highcharts-point highcharts-color-0"></path><path fill="#000000" d="M 85 146 A 4 4 0 1 1 84.99999800000016 145.99600000066667 Z" class="highcharts-point highcharts-color-0"></path><path fill="#000000" d="M 253 147 A 4 4 0 1 1 252.99999800000018 146.99600000066667 Z" class="highcharts-point highcharts-color-0"></path><path fill="#000000" d="M 332 157 A 4 4 0 1 1 331.9999980000002 156.99600000066667 Z" class="highcharts-point highcharts-color-0"></path><path fill="#000000" d="M 220 165 A 4 4 0 1 1 219.99999800000018 164.99600000066667 Z" class="highcharts-point highcharts-color-0"></path><path fill="#000000" d="M 86 169 A 4 4 0 1 1 85.99999800000016 168.99600000066667 Z" class="highcharts-point highcharts-color-0"></path><path fill="#000000" d="M 100 165 A 4 4 0 1 1 99.99999800000016 164.99600000066667 Z" class="highcharts-point highcharts-color-0"></path><path fill="#000000" d="M 78 168 A 4 4 0 1 1 77.99999800000016 167.99600000066667 Z" class="highcharts-point highcharts-color-0"></path><path fill="#000000" d="M 90 173 A 4 4 0 1 1 89.99999800000016 172.99600000066667 Z" class="highcharts-point highcharts-color-0"></path><path fill="#000000" d="M 185 183 A 4 4 0 1 1 184.99999800000018 182.99600000066667 Z" class="highcharts-point highcharts-color-0"></path><path fill="#000000" d="M 173 185 A 4 4 0 1 1 172.99999800000018 184.99600000066667 Z" class="highcharts-point highcharts-color-0"></path><path fill="#000000" d="M 192 199 A 4 4 0 1 1 191.99999800000018 198.99600000066667 Z" class="highcharts-point highcharts-color-0"></path><path fill="#000000" d="M 227 208 A 4 4 0 1 1 226.99999800000018 207.99600000066667 Z" class="highcharts-point highcharts-color-0"></path><path fill="#000000" d="M 322 217 A 4 4 0 1 1 321.9999980000002 216.99600000066667 Z" class="highcharts-point highcharts-color-0"></path><path fill="#000000" d="M 168 223 A 4 4 0 1 1 167.99999800000018 222.99600000066667 Z" class="highcharts-point highcharts-color-0"></path><path fill="#000000" d="M 171 224 A 4 4 0 1 1 170.99999800000018 223.99600000066667 Z" class="highcharts-point highcharts-color-0"></path><path fill="#000000" d="M 162 218 A 4 4 0 1 1 161.99999800000018 217.99600000066667 Z" class="highcharts-point highcharts-color-0"></path><path fill="#000000" d="M 284 211 A 4 4 0 1 1 283.9999980000002 210.99600000066667 Z" class="highcharts-point highcharts-color-0"></path><path fill="#000000" d="M 129 205 A 4 4 0 1 1 128.99999800000018 204.99600000066667 Z" class="highcharts-point highcharts-color-0"></path><path fill="#000000" d="M 284 203 A 4 4 0 1 1 283.9999980000002 202.99600000066667 Z" class="highcharts-point highcharts-color-0"></path><path fill="#000000" d="M 193 193 A 4 4 0 1 1 192.99999800000018 192.99600000066667 Z" class="highcharts-point highcharts-color-0"></path><path fill="#000000" d="M 112 182 A 4 4 0 1 1 111.99999800000016 181.99600000066667 Z" class="highcharts-point highcharts-color-0"></path><path fill="#000000" d="M 126 175 A 4 4 0 1 1 125.99999800000016 174.99600000066667 Z" class="highcharts-point highcharts-color-0"></path><path fill="#000000" d="M 194 168 A 4 4 0 1 1 193.99999800000018 167.99600000066667 Z" class="highcharts-point highcharts-color-0"></path><path fill="#000000" d="M 196 151 A 4 4 0 1 1 195.99999800000018 150.99600000066667 Z" class="highcharts-point highcharts-color-0"></path><path fill="#000000" d="M 270 138 A 4 4 0 1 1 269.9999980000002 137.99600000066667 Z" class="highcharts-point highcharts-color-0"></path><path fill="#000000" d="M 219 113 A 4 4 0 1 1 218.99999800000018 112.99600000066667 Z" class="highcharts-point highcharts-color-0"></path><path fill="#000000" d="M 284 108 A 4 4 0 1 1 283.9999980000002 107.99600000066667 Z" class="highcharts-point highcharts-color-0"></path><path fill="#000000" d="M 213 105 A 4 4 0 1 1 212.99999800000018 104.99600000066667 Z" class="highcharts-point highcharts-color-0"></path><path fill="#000000" d="M 196 105 A 4 4 0 1 1 195.99999800000018 104.99600000066667 Z" class="highcharts-point highcharts-color-0"></path><path fill="#000000" d="M 234 112 A 4 4 0 1 1 233.99999800000018 111.99600000066667 Z" class="highcharts-point highcharts-color-0"></path><path fill="#000000" d="M 223 132 A 4 4 0 1 1 222.99999800000018 131.99600000066667 Z" class="highcharts-point highcharts-color-0"></path><path fill="#000000" d="M 221 136 A 4 4 0 1 1 220.99999800000018 135.99600000066667 Z" class="highcharts-point highcharts-color-0"></path><path fill="#000000" d="M 216 150 A 4 4 0 1 1 215.99999800000018 149.99600000066667 Z" class="highcharts-point highcharts-color-0"></path><path fill="#000000" d="M 228 160 A 4 4 0 1 1 227.99999800000018 159.99600000066667 Z" class="highcharts-point highcharts-color-0"></path><path fill="#000000" d="M 192 172 A 4 4 0 1 1 191.99999800000018 171.99600000066667 Z" class="highcharts-point highcharts-color-0"></path><path fill="#000000" d="M 213 172 A 4 4 0 1 1 212.99999800000018 171.99600000066667 Z" class="highcharts-point highcharts-color-0"></path><path fill="#000000" d="M 321 165 A 4 4 0 1 1 320.9999980000002 164.99600000066667 Z" class="highcharts-point highcharts-color-0"></path><path fill="#000000" d="M 185 167 A 4 4 0 1 1 184.99999800000018 166.99600000066667 Z" class="highcharts-point highcharts-color-0"></path><path fill="#000000" d="M 206 167 A 4 4 0 1 1 205.99999800000018 166.99600000066667 Z" class="highcharts-point highcharts-color-0"></path><path fill="#000000" d="M 166 177 A 4 4 0 1 1 165.99999800000018 176.99600000066667 Z" class="highcharts-point highcharts-color-0"></path><path fill="#000000" d="M 198 174 A 4 4 0 1 1 197.99999800000018 173.99600000066667 Z" class="highcharts-point highcharts-color-0"></path><path fill="#000000" d="M 225 170 A 4 4 0 1 1 224.99999800000018 169.99600000066667 Z" class="highcharts-point highcharts-color-0"></path><path fill="#000000" d="M 180 179 A 4 4 0 1 1 179.99999800000018 178.99600000066667 Z" class="highcharts-point highcharts-color-0"></path><path fill="#000000" d="M 166 188 A 4 4 0 1 1 165.99999800000018 187.99600000066667 Z" class="highcharts-point highcharts-color-0"></path><path fill="#000000" d="M 211 187 A 4 4 0 1 1 210.99999800000018 186.99600000066667 Z" class="highcharts-point highcharts-color-0"></path><path fill="#000000" d="M 201 184 A 4 4 0 1 1 200.99999800000018 183.99600000066667 Z" class="highcharts-point highcharts-color-0"></path><path fill="#000000" d="M 235 173 A 4 4 0 1 1 234.99999800000018 172.99600000066667 Z" class="highcharts-point highcharts-color-0"></path><path fill="#000000" d="M 249 164 A 4 4 0 1 1 248.99999800000018 163.99600000066667 Z" class="highcharts-point highcharts-color-0"></path><path fill="#000000" d="M 201 156 A 4 4 0 1 1 200.99999800000018 155.99600000066667 Z" class="highcharts-point highcharts-color-0"></path><path fill="#000000" d="M 213 148 A 4 4 0 1 1 212.99999800000018 147.99600000066667 Z" class="highcharts-point highcharts-color-0"></path><path fill="#000000" d="M 221 143 A 4 4 0 1 1 220.99999800000018 142.99600000066667 Z" class="highcharts-point highcharts-color-0"></path><path fill="#000000" d="M 263 150 A 4 4 0 1 1 262.9999980000002 149.99600000066667 Z" class="highcharts-point highcharts-color-0"></path><path fill="#000000" d="M 148 157 A 4 4 0 1 1 147.99999800000018 156.99600000066667 Z" class="highcharts-point highcharts-color-0"></path><path fill="#000000" d="M 264 166 A 4 4 0 1 1 263.9999980000002 165.99600000066667 Z" class="highcharts-point highcharts-color-0"></path><path fill="#000000" d="M 252 173 A 4 4 0 1 1 251.99999800000018 172.99600000066667 Z" class="highcharts-point highcharts-color-0"></path><path fill="#000000" d="M 138 186 A 4 4 0 1 1 137.99999800000018 185.99600000066667 Z" class="highcharts-point highcharts-color-0"></path><path fill="#000000" d="M 200 194 A 4 4 0 1 1 199.99999800000018 193.99600000066667 Z" class="highcharts-point highcharts-color-0"></path><path fill="#000000" d="M 130 190 A 4 4 0 1 1 129.99999800000018 189.99600000066667 Z" class="highcharts-point highcharts-color-0"></path><path fill="#000000" d="M 207 180 A 4 4 0 1 1 206.99999800000018 179.99600000066667 Z" class="highcharts-point highcharts-color-0"></path><path fill="#000000" d="M 164 179 A 4 4 0 1 1 163.99999800000018 178.99600000066667 Z" class="highcharts-point highcharts-color-0"></path><path fill="#000000" d="M 179 182 A 4 4 0 1 1 178.99999800000018 181.99600000066667 Z" class="highcharts-point highcharts-color-0"></path><path fill="#000000" d="M 246 181 A 4 4 0 1 1 245.99999800000018 180.99600000066667 Z" class="highcharts-point highcharts-color-0"></path><path fill="#000000" d="M 132 187 A 4 4 0 1 1 131.99999800000018 186.99600000066667 Z" class="highcharts-point highcharts-color-0"></path><path fill="#000000" d="M 174 188 A 4 4 0 1 1 173.99999800000018 187.99600000066667 Z" class="highcharts-point highcharts-color-0"></path><path fill="#000000" d="M 222 199 A 4 4 0 1 1 221.99999800000018 198.99600000066667 Z" class="highcharts-point highcharts-color-0"></path><path fill="#000000" d="M 123 210 A 4 4 0 1 1 122.99999800000016 209.99600000066667 Z" class="highcharts-point highcharts-color-0"></path><path fill="#000000" d="M 212 214 A 4 4 0 1 1 211.99999800000018 213.99600000066667 Z" class="highcharts-point highcharts-color-0"></path><path fill="#000000" d="M 229 212 A 4 4 0 1 1 228.99999800000018 211.99600000066667 Z" class="highcharts-point highcharts-color-0"></path><path fill="#000000" d="M 167 208 A 4 4 0 1 1 166.99999800000018 207.99600000066667 Z" class="highcharts-point highcharts-color-0"></path><path fill="#000000" d="M 178 201 A 4 4 0 1 1 177.99999800000018 200.99600000066667 Z" class="highcharts-point highcharts-color-0"></path><path fill="#000000" d="M 255 191 A 4 4 0 1 1 254.99999800000018 190.99600000066667 Z" class="highcharts-point highcharts-color-0"></path><path fill="#000000" d="M 185 182 A 4 4 0 1 1 184.99999800000018 181.99600000066667 Z" class="highcharts-point highcharts-color-0"></path><path fill="#000000" d="M 39 182 A 4 4 0 1 1 38.99999800000017 181.99600000066667 Z" class="highcharts-point highcharts-color-0"></path><path fill="#000000" d="M 98 186 A 4 4 0 1 1 97.99999800000016 185.99600000066667 Z" class="highcharts-point highcharts-color-0"></path><path fill="#000000" d="M 126 184 A 4 4 0 1 1 125.99999800000016 183.99600000066667 Z" class="highcharts-point highcharts-color-0"></path><path fill="#000000" d="M 39 190 A 4 4 0 1 1 38.99999800000017 189.99600000066667 Z" class="highcharts-point highcharts-color-0"></path><path fill="#000000" d="M 230 187 A 4 4 0 1 1 229.99999800000018 186.99600000066667 Z" class="highcharts-point highcharts-color-0"></path><path fill="#000000" d="M 149 199 A 4 4 0 1 1 148.99999800000018 198.99600000066667 Z" class="highcharts-point highcharts-color-0"></path><path fill="#000000" d="M 161 201 A 4 4 0 1 1 160.99999800000018 200.99600000066667 Z" class="highcharts-point highcharts-color-0"></path><path fill="#000000" d="M 191 188 A 4 4 0 1 1 190.99999800000018 187.99600000066667 Z" class="highcharts-point highcharts-color-0"></path><path fill="#000000" d="M 207 183 A 4 4 0 1 1 206.99999800000018 182.99600000066667 Z" class="highcharts-point highcharts-color-0"></path><path fill="#000000" d="M 176 175 A 4 4 0 1 1 175.99999800000018 174.99600000066667 Z" class="highcharts-point highcharts-color-0"></path><path fill="#000000" d="M 164 182 A 4 4 0 1 1 163.99999800000018 181.99600000066667 Z" class="highcharts-point highcharts-color-0"></path><path fill="#000000" d="M 92 182 A 4 4 0 1 1 91.99999800000016 181.99600000066667 Z" class="highcharts-point highcharts-color-0"></path><path fill="#000000" d="M 186 181 A 4 4 0 1 1 185.99999800000018 180.99600000066667 Z" class="highcharts-point highcharts-color-0"></path><path fill="#000000" d="M 65 187 A 4 4 0 1 1 64.99999800000016 186.99600000066667 Z" class="highcharts-point highcharts-color-0"></path><path fill="#000000" d="M 144 199 A 4 4 0 1 1 143.99999800000018 198.99600000066667 Z" class="highcharts-point highcharts-color-0"></path><path fill="#000000" d="M 123 193 A 4 4 0 1 1 122.99999800000016 192.99600000066667 Z" class="highcharts-point highcharts-color-0"></path><path fill="#000000" d="M 134 204 A 4 4 0 1 1 133.99999800000018 203.99600000066667 Z" class="highcharts-point highcharts-color-0"></path><path fill="#000000" d="M 116 196 A 4 4 0 1 1 115.99999800000016 195.99600000066667 Z" class="highcharts-point highcharts-color-0"></path><path fill="#000000" d="M 227 208 A 4 4 0 1 1 226.99999800000018 207.99600000066667 Z" class="highcharts-point highcharts-color-0"></path><path fill="#000000" d="M 180 222 A 4 4 0 1 1 179.99999800000018 221.99600000066667 Z" class="highcharts-point highcharts-color-0"></path><path fill="#000000" d="M 120 228 A 4 4 0 1 1 119.99999800000016 227.99600000066667 Z" class="highcharts-point highcharts-color-0"></path><path fill="#000000" d="M 72 220 A 4 4 0 1 1 71.99999800000016 219.99600000066667 Z" class="highcharts-point highcharts-color-0"></path><path fill="#000000" d="M 70 229 A 4 4 0 1 1 69.99999800000016 228.99600000066667 Z" class="highcharts-point highcharts-color-0"></path><path fill="#000000" d="M 9 216 A 4 4 0 1 1 8.999998000000167 215.99600000066667 Z" class="highcharts-point highcharts-color-0"></path><path fill="#000000" d="M 208 211 A 4 4 0 1 1 207.99999800000018 210.99600000066667 Z" class="highcharts-point highcharts-color-0"></path><path fill="#000000" d="M 9 203 A 4 4 0 1 1 8.999998000000167 202.99600000066667 Z" class="highcharts-point highcharts-color-0"></path><path fill="#000000" d="M 47 184 A 4 4 0 1 1 46.99999800000017 183.99600000066667 Z" class="highcharts-point highcharts-color-0"></path><path fill="#000000" d="M 68 166 A 4 4 0 1 1 67.99999800000016 165.99600000066667 Z" class="highcharts-point highcharts-color-0"></path><path fill="#000000" d="M 117 165 A 4 4 0 1 1 116.99999800000016 164.99600000066667 Z" class="highcharts-point highcharts-color-0"></path><path fill="#000000" d="M 21 179 A 4 4 0 1 1 20.99999800000017 178.99600000066667 Z" class="highcharts-point highcharts-color-0"></path><path fill="#000000" d="M 99 141 A 4 4 0 1 1 98.99999800000016 140.99600000066667 Z" class="highcharts-point highcharts-color-0"></path><path fill="#000000" d="M 25 162 A 4 4 0 1 1 24.99999800000017 161.99600000066667 Z" class="highcharts-point highcharts-color-0"></path><path fill="#000000" d="M 520 163 A 4 4 0 1 1 519.9999980000001 162.99600000066667 Z" class="highcharts-point highcharts-color-0"></path><path fill="#000000" d="M 176 163 A 4 4 0 1 1 175.99999800000018 162.99600000066667 Z" class="highcharts-point highcharts-color-0"></path><path fill="#000000" d="M 172 194 A 4 4 0 1 1 171.99999800000018 193.99600000066667 Z" class="highcharts-point highcharts-color-0"></path><path fill="#000000" d="M 164 197 A 4 4 0 1 1 163.99999800000018 196.99600000066667 Z" class="highcharts-point highcharts-color-0"></path><path fill="#000000" d="M 54 168 A 4 4 0 1 1 53.99999800000017 167.99600000066667 Z" class="highcharts-point highcharts-color-0"></path><path fill="#000000" d="M 55 190 A 4 4 0 1 1 54.99999800000017 189.99600000066667 Z" class="highcharts-point highcharts-color-0"></path><path fill="#000000" d="M 74 192 A 4 4 0 1 1 73.99999800000016 191.99600000066667 Z" class="highcharts-point highcharts-color-0"></path><path fill="#000000" d="M 25 161 A 4 4 0 1 1 24.99999800000017 160.99600000066667 Z" class="highcharts-point highcharts-color-0"></path><path fill="#000000" d="M 32 146 A 4 4 0 1 1 31.99999800000017 145.99600000066667 Z" class="highcharts-point highcharts-color-0"></path><path fill="#000000" d="M 177 164 A 4 4 0 1 1 176.99999800000018 163.99600000066667 Z" class="highcharts-point highcharts-color-0"></path><path fill="#000000" d="M 125 163 A 4 4 0 1 1 124.99999800000016 162.99600000066667 Z" class="highcharts-point highcharts-color-0"></path><path fill="#000000" d="M 245 163 A 4 4 0 1 1 244.99999800000018 162.99600000066667 Z" class="highcharts-point highcharts-color-0"></path><path fill="#000000" d="M 170 159 A 4 4 0 1 1 169.99999800000018 158.99600000066667 Z" class="highcharts-point highcharts-color-0"></path><path fill="#000000" d="M 181 156 A 4 4 0 1 1 180.99999800000018 155.99600000066667 Z" class="highcharts-point highcharts-color-0"></path><path fill="#000000" d="M 51 141 A 4 4 0 1 1 50.99999800000017 140.99600000066667 Z" class="highcharts-point highcharts-color-0"></path><path fill="#000000" d="M 138 138 A 4 4 0 1 1 137.99999800000018 137.99600000066667 Z" class="highcharts-point highcharts-color-0"></path></g></g><text x="300" text-anchor="middle" class="highcharts-title" data-z-index="4" style="color:#333333;font-size:18px;fill:#333333;" y="24"><tspan>Overall Mood Following Calories Intake</tspan></text><text x="300" text-anchor="middle" class="highcharts-subtitle" data-z-index="4" style="color:#666666;fill:#666666;" y="46"><tspan>An increase in 7 days cumulative Calories intake is usually followed by an decrease in</tspan><tspan dy="15" x="300">Overall Mood. (R = -0.275)</tspan></text><g class="highcharts-axis-labels highcharts-xaxis-labels " data-z-index="7"><text x="73.117647058824" style="color:#666666;cursor:default;font-size:11px;fill:#666666;" text-anchor="middle" transform="translate(0,0)" y="360" opacity="1">0</text><text x="153.71051412691" style="color:#666666;cursor:default;font-size:11px;fill:#666666;" text-anchor="middle" transform="translate(0,0)" y="360" opacity="1">1k</text><text x="234.303381195" style="color:#666666;cursor:default;font-size:11px;fill:#666666;" text-anchor="middle" transform="translate(0,0)" y="360" opacity="1">2k</text><text x="314.89624826308" style="color:#666666;cursor:default;font-size:11px;fill:#666666;" text-anchor="middle" transform="translate(0,0)" y="360" opacity="1">3k</text><text x="395.48911533117" style="color:#666666;cursor:default;font-size:11px;fill:#666666;" text-anchor="middle" transform="translate(0,0)" y="360" opacity="1">4k</text><text x="476.08198239926" style="color:#666666;cursor:default;font-size:11px;fill:#666666;" text-anchor="middle" transform="translate(0,0)" y="360" opacity="1">5k</text><text x="556.67484946735" style="color:#666666;cursor:default;font-size:11px;fill:#666666;" text-anchor="middle" transform="translate(0,0)" y="360" opacity="1">6k</text></g><g class="highcharts-axis-labels highcharts-yaxis-labels " data-z-index="7"><text x="53" style="color:#666666;cursor:default;font-size:11px;fill:#666666;" text-anchor="end" transform="translate(0,0)" y="345" opacity="1">1.5</text><text x="53" style="color:#666666;cursor:default;font-size:11px;fill:#666666;" text-anchor="end" transform="translate(0,0)" y="301" opacity="1">2</text><text x="53" style="color:#666666;cursor:default;font-size:11px;fill:#666666;" text-anchor="end" transform="translate(0,0)" y="257" opacity="1">2.5</text><text x="53" style="color:#666666;cursor:default;font-size:11px;fill:#666666;" text-anchor="end" transform="translate(0,0)" y="213" opacity="1">3</text><text x="53" style="color:#666666;cursor:default;font-size:11px;fill:#666666;" text-anchor="end" transform="translate(0,0)" y="169" opacity="1">3.5</text><text x="53" style="color:#666666;cursor:default;font-size:11px;fill:#666666;" text-anchor="end" transform="translate(0,0)" y="125" opacity="1">4</text><text x="53" style="color:#666666;cursor:default;font-size:11px;fill:#666666;" text-anchor="end" transform="translate(0,0)" y="82" opacity="1">4.5</text></g><a xlink:href="https://quantimo.do" target="_blank">
                    <text x="590" class="highcharts-credits" text-anchor="end" data-z-index="8"
                          style="cursor:pointer;color:#999999;font-size:9px;fill:#999999;" y="395">https://quantimo.do
                    </text>
                </a></svg>