<?xml version="1.0" standalone="no"?><!DOCTYPE svg PUBLIC "-//W3C//DTD SVG 1.1//EN" "http://www.w3.org/Graphics/SVG/1.1/DTD/svg11.dtd"><svg xmlns:xlink="http://www.w3.org/1999/xlink" version="1.1" class="highcharts-root" style="font-family:&quot;Lucida Grande&quot;, &quot;Lucida Sans Unicode&quot;, Arial, Helvetica, sans-serif;font-size:12px;" xmlns="http://www.w3.org/2000/svg" width="600" height="400"><desc>Created with Highstock 6.2.0</desc><defs><clipPath id="highcharts-tf3ee3j-623"><rect x="0" y="0" width="459" height="208" fill="none"></rect></clipPath><clipPath id="highcharts-tf3ee3j-931"><rect x="0" y="0" width="459" height="208" fill="none"></rect></clipPath><clipPath id="highcharts-tf3ee3j-1239"><rect x="0" y="0" width="459" height="208" fill="none"></rect></clipPath><clipPath id="highcharts-tf3ee3j-1240"><rect x="83" y="99" width="459" height="208" fill="none"></rect></clipPath></defs><rect fill="#ffffff" class="highcharts-background" x="0" y="0" width="600" height="400" rx="0" ry="0"></rect><rect fill="none" class="highcharts-plot-background" x="83" y="99" width="459" height="208"></rect><g class="highcharts-pane-group" data-z-index="0"></g><g class="highcharts-grid highcharts-xaxis-grid " data-z-index="1"><path fill="none" data-z-index="1" class="highcharts-grid-line" d="M 156.5 99 L 156.5 307" opacity="1"></path><path fill="none" data-z-index="1" class="highcharts-grid-line" d="M 269.5 99 L 269.5 307" opacity="1"></path><path fill="none" data-z-index="1" class="highcharts-grid-line" d="M 383.5 99 L 383.5 307" opacity="1"></path><path fill="none" data-z-index="1" class="highcharts-grid-line" d="M 497.5 99 L 497.5 307" opacity="1"></path></g><g class="highcharts-grid highcharts-yaxis-grid " data-z-index="1"><path fill="none" stroke="#e6e6e6" stroke-width="1" data-z-index="1" class="highcharts-grid-line" d="M 83 307.5 L 542 307.5" opacity="1"></path><path fill="none" stroke="#e6e6e6" stroke-width="1" data-z-index="1" class="highcharts-grid-line" d="M 83 238.5 L 542 238.5" opacity="1"></path><path fill="none" stroke="#e6e6e6" stroke-width="1" data-z-index="1" class="highcharts-grid-line" d="M 83 168.5 L 542 168.5" opacity="1"></path><path fill="none" stroke="#e6e6e6" stroke-width="1" data-z-index="1" class="highcharts-grid-line" d="M 83 98.5 L 542 98.5" opacity="1"></path></g><g class="highcharts-grid highcharts-yaxis-grid " data-z-index="1"><path fill="none" stroke="#e6e6e6" stroke-width="1" data-z-index="1" class="highcharts-grid-line" d="M 83 307.5 L 542 307.5" opacity="1"></path><path fill="none" stroke="#e6e6e6" stroke-width="1" data-z-index="1" class="highcharts-grid-line" d="M 83 238.5 L 542 238.5" opacity="1"></path><path fill="none" stroke="#e6e6e6" stroke-width="1" data-z-index="1" class="highcharts-grid-line" d="M 83 168.5 L 542 168.5" opacity="1"></path><path fill="none" stroke="#e6e6e6" stroke-width="1" data-z-index="1" class="highcharts-grid-line" d="M 83 98.5 L 542 98.5" opacity="1"></path></g><rect fill="none" class="highcharts-plot-border" data-z-index="1" x="83" y="99" width="459" height="208"></rect><g class="highcharts-axis highcharts-xaxis " data-z-index="2"><path fill="none" class="highcharts-tick" stroke="#ccd6eb" stroke-width="1" d="M 156.5 307 L 156.5 317" opacity="1"></path><path fill="none" class="highcharts-tick" stroke="#ccd6eb" stroke-width="1" d="M 269.5 307 L 269.5 317" opacity="1"></path><path fill="none" class="highcharts-tick" stroke="#ccd6eb" stroke-width="1" d="M 383.5 307 L 383.5 317" opacity="1"></path><path fill="none" class="highcharts-tick" stroke="#ccd6eb" stroke-width="1" d="M 497.5 307 L 497.5 317" opacity="1"></path><path fill="none" class="highcharts-axis-line" stroke="#ccd6eb" stroke-width="1" data-z-index="7" d="M 83 307.5 L 542 307.5"></path></g><g class="highcharts-axis highcharts-yaxis " data-z-index="2"><text x="26" data-z-index="7" text-anchor="middle" transform="translate(0,0) rotate(270 26 203)" class="highcharts-axis-title" style="color:#666666;fill:#666666;" y="203"><tspan>SUM Gluten Free Pasta With Olive Oil</tspan><tspan dy="15" x="26">consumption (serving)</tspan></text><path fill="none" class="highcharts-axis-line" stroke="#ccd6eb" stroke-width="1" data-z-index="7" d="M 82.5 99 L 82.5 307"></path></g><g class="highcharts-axis highcharts-yaxis " data-z-index="2"><text x="574" data-z-index="7" text-anchor="middle" transform="translate(0,0) rotate(90 574 203)" class="highcharts-axis-title" style="color:#666666;fill:#666666;" y="203"><tspan>MEAN Overall Mood (/5)</tspan></text><path fill="none" class="highcharts-axis-line" stroke="#ccd6eb" stroke-width="1" data-z-index="7" d="M 542.5 99 L 542.5 307"></path></g><g class="highcharts-series-group" data-z-index="3"><g data-z-index="0.1" class="highcharts-series highcharts-series-0 highcharts-spline-series highcharts-color-0 " transform="translate(83,99) scale(1 1)" clip-path="url(#highcharts-tf3ee3j-931)"><path fill="none" d="M 4.5 208 C 4.5 208 5.24380165289256 208 5.7396694214876 208 C 6.23553719008264 208 6.48347107438016 208 6.9793388429752 208 C 7.475206611570241 208 7.72314049586776 208 8.2190082644628 208 C 8.71487603305784 208 8.962809917355361 208 9.4586776859504 208 C 9.95454545454544 208 10.20247933884296 208 10.698347107438 208 C 11.1942148760332 208 11.442148760330799 208 11.938016528926 208 C 12.4338842975208 208 12.6818181818182 208 13.177685950413 208 C 13.6735537190082 208 13.9214876033058 208 14.417355371901 208 C 14.913223140495802 208 15.161157024793198 208 15.657024793388 208 C 16.1528925619832 208 16.4008264462808 208 16.896694214876 208 C 17.3925619834712 208 17.6404958677688 208 18.136363636364 208 C 18.632231404958798 208 18.8801652892562 208 19.376033057851 208 C 19.8719008264462 208 20.1198347107438 208 20.615702479339 208 C 21.1115702479338 208 21.3595041322312 208 21.855371900826 208 C 22.351239669421197 208 22.5991735537188 208 23.095041322314 208 C 23.5909090909092 208 23.838842975206802 208 24.334710743802 208 C 24.8305785123968 208 25.0785123966942 208 25.574380165289 208 C 26.0702479338842 208 26.318181818181802 208 26.814049586777 208 C 27.3099173553718 208 27.5578512396692 208 28.053719008264 208 C 28.5495867768592 208 28.797520661156803 208 29.293388429752 208 C 29.789256198347196 208 30.0371900826448 208 30.53305785124 208 C 31.028925619834798 208 31.276859504132197 208 31.772727272727 208 C 32.2685950413222 208 32.516528925619795 208 33.012396694215 208 C 33.508264462809805 208 33.7561983471072 208 34.252066115702 208 C 34.7479338842972 208 34.995867768594806 208 35.49173553719 208 C 35.9876033057852 208 36.2355371900828 208 36.731404958678 208 C 37.2272727272728 208 37.4752066115702 208 37.971074380165 208 C 38.4669421487602 208 38.714876033057806 208 39.210743801653 208 C 39.7066115702478 208 39.9545454545452 208 40.45041322314 208 C 40.94628099173521 208 41.1942148760328 173.33333333333317 41.690082644628 150.22222222222223 C 42.1859504132232 127.11111111111094 42.4338842975208 92.44444444444444 42.929752066116 92.44444444444444 C 43.4256198347108 92.44444444444444 43.673553719008204 92.44444444444444 44.169421487603 92.44444444444444 C 44.66528925619819 92.44444444444444 44.9132231404958 92.44444444444444 45.409090909091 92.44444444444444 C 45.9049586776862 92.44444444444444 46.1528925619838 92.44444444444444 46.648760330579 92.44444444444444 C 47.1446280991738 92.44444444444444 47.392561983471204 92.44444444444444 47.888429752066 92.44444444444444 C 48.3842975206612 92.44444444444444 48.6322314049588 92.44444444444444 49.128099173554 92.44444444444444 C 49.6239669421488 92.44444444444444 49.8719008264462 127.11111111112038 50.367768595041 150.22222222222223 C 50.863636363636196 173.3333333333426 51.111570247933805 208 51.607438016529 208 C 52.1033057851242 208 52.35123966942181 208 52.847107438017 208 C 53.3429752066118 208 53.5909090909092 208 54.086776859504 208 C 54.5826446280992 208 54.8305785123968 208 55.326446280992 208 C 55.82231404958681 208 56.070247933884204 208 56.566115702479 208 C 57.0619834710742 208 57.30991735537181 208 57.805785123967 208 C 58.301652892562196 208 58.54958677685979 208 59.045454545455 208 C 59.54132231404979 208 59.789256198347196 208 60.285123966942 208 C 60.7809917355372 208 61.028925619834794 208 61.52479338843 208 C 62.020661157024804 208 62.26859504132219 208 62.764462809917 208 C 63.260330578512196 208 63.508264462809805 208 64.004132231405 208 C 64.5000000000002 208 64.7479338842978 208 65.243801652893 208 C 65.73966942148779 208 65.9876033057852 208 66.48347107438 208 C 66.9793388429752 208 67.22727272727279 208 67.723140495868 208 C 68.2190082644628 208 68.4669421487602 208 68.962809917355 208 C 69.4586776859502 208 69.70661157024782 208 70.202479338843 208 C 70.6983471074382 208 70.94628099173579 208 71.442148760331 208 C 71.9380165289258 208 72.1859504132232 208 72.681818181818 208 C 73.1776859504132 208 73.4256198347108 208 73.921487603306 208 C 74.41735537190081 208 74.66528925619821 208 75.161157024793 208 C 75.6570247933882 208 75.9049586776858 208 76.400826446281 208 C 76.89669421487619 208 77.1446280991738 208 77.640495867769 208 C 78.13636363636381 208 78.38429752066119 208 78.880165289256 208 C 79.37603305785119 208 79.62396694214881 208 80.119834710744 208 C 80.61570247933881 208 80.86363636363619 208 81.359504132231 208 C 81.8553719008262 208 82.10330578512381 208 82.599173553719 208 C 83.0950413223142 208 83.3429752066118 208 83.838842975207 208 C 84.33471074380179 208 84.58264462809919 208 85.078512396694 208 C 85.5743801652892 208 85.8223140495868 150.22222222222223 86.318181818182 150.22222222222223 C 86.8140495867768 150.22222222222223 87.0619834710742 150.22222222222223 87.557851239669 150.22222222222223 C 88.05371900826421 150.22222222222223 88.30165289256179 150.22222222222223 88.797520661157 150.22222222222223 C 89.29338842975218 150.22222222222223 89.5413223140498 150.22222222222223 90.037190082645 150.22222222222223 C 90.5330578512398 150.22222222222223 90.7809917355372 150.22222222222223 91.276859504132 150.22222222222223 C 91.77272727272721 150.22222222222223 92.0206611570248 92.44444444444444 92.51652892562 92.44444444444444 C 93.4817493112948 92.44444444444444 93.9643595041322 92.44444444444444 94.929579889807 92.44444444444444 C 94.95609504132221 92.44444444444444 94.9693526170798 92.44444444444444 94.995867768595 92.44444444444444 C 95.4917355371902 92.44444444444444 95.73966942148779 92.44444444444444 96.235537190083 92.44444444444444 C 96.7314049586778 92.44444444444444 96.9793388429752 34.66666666666666 97.47520661157 34.66666666666666 C 97.9710743801652 34.66666666666666 98.21900826446281 34.66666666666666 98.714876033058 34.66666666666666 C 99.2107438016528 34.66666666666666 99.4586776859502 34.66666666666666 99.954545454545 34.66666666666666 C 100.45041322313901 34.66666666666666 100.698347107436 92.44444444444444 101.19421487603 92.44444444444444 C 101.690082644626 92.44444444444444 101.93801652892401 92.44444444444444 102.43388429752 92.44444444444444 C 102.929752066116 92.44444444444444 103.177685950414 34.66666666666666 103.67355371901 34.66666666666666 C 104.169421487606 34.66666666666666 104.417355371904 34.66666666666666 104.9132231405 34.66666666666666 C 105.40909090909199 34.66666666666666 105.65702479338799 92.44444444444444 106.15289256198 92.44444444444444 C 107.144628099172 92.44444444444444 107.64049586776801 92.44444444444444 108.63223140496 92.44444444444444 C 109.12809917355598 92.44444444444444 109.37603305785402 34.66666666666666 109.87190082645 34.66666666666666 C 110.36776859504201 34.66666666666666 110.61570247933801 69.33333333342671 111.11157024793 92.44444444444444 C 111.607438016526 115.55555555564895 111.855371900824 150.22222222222223 112.35123966942 150.22222222222223 C 113.34297520661198 150.22222222222223 113.838842975208 150.22222222222223 114.8305785124 150.22222222222223 C 115.32644628099199 150.22222222222223 115.57438016528799 150.22222222222223 116.07024793388 150.22222222222223 C 116.56611570247601 150.22222222222223 116.81404958677402 150.22222222222223 117.30991735537 150.22222222222223 C 117.805785123966 150.22222222222223 118.05371900826398 208 118.54958677686 208 C 119.54132231404802 208 120.037190082642 208 121.02892561983 208 C 121.52479338842599 208 121.772727272724 208 122.26859504132 208 C 122.764462809916 208 123.012396694214 150.22222222222223 123.50826446281 150.22222222222223 C 124.00413223140599 150.22222222222223 124.252066115704 150.22222222222223 124.7479338843 150.22222222222223 C 125.739669421488 150.22222222222223 126.235537190082 150.22222222222223 127.22727272727 150.22222222222223 C 127.723140495866 150.22222222222223 127.97107438016401 150.22222222222223 128.46694214876 150.22222222222223 C 129.954545454544 150.22222222222223 130.69834710743604 208 132.18595041322 208 C 133.177685950412 208 133.673553719008 208 134.6652892562 208 C 135.16115702479598 208 135.409090909094 208 135.90495867769 208 C 137.39256198347397 208 138.13636363636599 208 139.62396694215 208 C 140.615702479338 208 141.11157024793198 208 142.10330578512 208 C 143.095041322312 208 143.590909090908 208 144.5826446281 208 C 145.078512396696 208 145.32644628099402 208 145.82231404959 208 C 146.318181818182 208 146.56611570247802 208 147.06198347107 208 C 147.557851239666 208 147.805785123964 208 148.30165289256 208 C 148.79752066115603 208 149.045454545454 208 149.54132231405 208 C 151.02892561983398 208 151.77272727272603 208 153.26033057851 208 C 153.75619834710602 208 154.004132231404 208 154.5 208 C 154.995867768596 208 155.24380165289398 208 155.73966942149 208 C 156.235537190086 208 156.483471074384 208 156.97933884298 208 C 157.971074380168 208 158.46694214876203 208 159.45867768595 208 C 161.44214876032999 208 162.43388429752 208 164.4173553719 208 C 164.91322314049597 208 165.16115702479402 208 165.65702479339 208 C 172.599173553718 208 176.070247933882 208 183.01239669421 208 C 184.499999999998 208 185.243801652892 208 186.73140495868 208 C 188.71487603306 208 189.70661157025 208 191.69008264463 208 C 194.169421487606 208 195.409090909094 208 197.88842975207 208 C 198.384297520662 208 198.632231404958 208 199.12809917355 208 C 199.62396694214598 208 199.871900826444 208 200.36776859504 208 C 200.863636363636 208 201.111570247934 208 201.60743801653 208 C 202.599173553718 208 203.095041322312 208 204.0867768595 208 C 206.566115702476 208 207.805785123964 208 210.28512396694 208 C 211.276859504132 208 211.772727272728 208 212.76446280992 208 C 213.75619834710795 208 214.252066115702 208 215.24380165289 208 C 216.235537190082 208 216.731404958678 208 217.72314049587 208 C 218.219008264466 208 218.46694214876402 208 218.96280991736 208 C 219.954545454548 208 220.450413223142 208 221.44214876033 208 C 221.93801652892597 208 222.18595041322402 208 222.68181818182 208 C 224.16942148760398 208 224.91322314049603 208 226.40082644628 208 C 226.89669421487602 208 227.14462809917399 208 227.64049586777 208 C 228.13636363636596 208 228.384297520664 208 228.88016528926 208 C 229.37603305785197 208 229.62396694214803 208 230.11983471074 208 C 231.111570247932 208 231.60743801652796 208 232.59917355372 208 C 233.590909090908 208 234.08677685950198 208 235.07851239669 208 C 235.574380165286 208 235.822314049584 208 236.31818181818 208 C 236.81404958677598 208 237.06198347107403 208 237.55785123967 208 C 238.053719008266 208 238.30165289256402 208 238.79752066116 208 C 239.370179063364 208 239.656508264466 208 240.22916666667 208 C 240.64824380165402 208 240.85778236914598 208 241.27685950413 208 C 241.849517906334 208 242.13584710743598 208 242.70850550964 208 C 243.55561294765602 208 243.979166666664 208 244.82627410468 208 C 244.89411157024801 208 244.92803030303202 208 244.9958677686 208 C 245.49173553719203 208 245.739669421488 208 246.23553719008 208 C 246.73140495867602 208 246.979338842974 208 247.47520661157 208 C 248.04786501377401 208 248.33419421487602 208 248.90685261708 208 C 249.325929752068 208 249.535468319562 208 249.95454545455 208 C 250.450413223142 208 250.698347107438 208 251.19421487603 208 C 251.690082644626 208 251.93801652892398 208 252.43388429752 208 C 252.929752066116 208 253.17768595041397 208 253.67355371901 208 C 254.169421487606 208 254.41735537190397 208 254.9132231405 208 C 255.409090909092 208 255.65702479338802 208 256.15289256198 208 C 256.648760330576 208 256.896694214874 208 257.39256198347 208 C 257.888429752066 208 258.13636363636397 208 258.63223140496 208 C 259.204889807164 208 259.49121900826606 208 260.06387741047 208 C 260.482954545454 208 260.69249311294595 208 261.11157024793 208 C 261.607438016526 208 261.855371900824 208 262.35123966942 208 C 262.847107438016 208 263.095041322314 208 263.59090909091 208 C 264.08677685950596 208 264.33471074380395 208 264.8305785124 208 C 265.32644628099195 208 265.57438016528806 208 266.07024793388 208 C 266.566115702476 208 266.814049586774 208 267.30991735537 208 C 267.80578512396596 208 268.053719008264 208 268.54958677686 208 C 269.045454545456 208 269.29338842975403 208 269.78925619835 208 C 270.285123966942 208 270.53305785123797 208 271.02892561983 208 C 271.52479338842596 208 271.772727272724 208 272.26859504132 208 C 272.76446280991604 208 273.01239669421403 208 273.50826446281 208 C 274.004132231406 208 274.252066115704 208 274.7479338843 208 C 275.24380165289597 208 275.491735537194 208 275.98760330579 208 C 276.483471074382 208 276.731404958678 208 277.22727272727 208 C 277.723140495866 208 277.971074380164 208 278.46694214876 208 C 278.962809917356 208 279.210743801654 208 279.70661157025 208 C 280.20247933884605 208 280.450413223144 208 280.94628099174 208 C 281.44214876033203 208 281.690082644628 208 282.18595041322 208 C 282.681818181816 208 282.929752066114 208 283.42561983471 208 C 283.921487603306 208 284.169421487604 208 284.6652892562 208 C 285.161157024796 208 285.409090909094 208 285.90495867769 208 C 286.400826446282 208 286.648760330578 208 287.14462809917 208 C 287.640495867766 208 287.888429752064 208 288.38429752066 208 C 288.880165289256 208 289.128099173554 208 289.62396694215 208 C 290.119834710746 208 290.36776859504397 208 290.86363636364 208 C 291.359504132232 208 291.607438016528 208 292.10330578512 208 C 292.599173553716 208 292.847107438014 208 293.34297520661 208 C 293.838842975206 208 294.08677685950397 208 294.5826446281 208 C 295.078512396696 208 295.326446280994 208 295.82231404959 208 C 296.318181818182 208 296.566115702478 208 297.06198347107 208 C 297.557851239666 208 297.80578512396403 208 298.30165289256 208 C 298.797520661156 208 299.045454545454 208 299.54132231405 208 C 300.03719008264596 208 300.28512396694396 208 300.78099173554 208 C 301.27685950413195 208 301.52479338842807 208 302.02066115702 208 C 302.516528925616 208 302.764462809914 208 303.26033057851 208 C 303.75619834710596 208 304.004132231404 208 304.5 208 C 304.995867768596 208 305.24380165289404 208 305.73966942149 208 C 306.235537190086 208 306.483471074384 208 306.97933884298 208 C 307.47520661157193 208 307.72314049586805 208 308.21900826446 208 C 308.71487603305604 208 308.96280991735404 208 309.45867768595 208 C 309.954545454546 208 310.202479338844 208 310.69834710744 208 C 311.19421487603597 208 311.442148760334 208 311.93801652893 208 C 312.433884297522 208 312.681818181818 208 313.17768595041 208 C 313.673553719006 208 313.921487603304 208 314.4173553719 208 C 314.91322314049603 208 315.161157024794 208 315.65702479339 208 C 316.152892561986 208 316.400826446284 208 316.89669421488 208 C 317.392561983472 208 317.640495867768 208 318.13636363636 208 C 318.63223140495603 208 318.880165289254 208 319.37603305785 208 C 319.871900826446 208 320.119834710744 208 320.61570247934 208 C 321.111570247936 208 321.359504132234 208 321.85537190083 208 C 322.351239669422 208 322.599173553718 208 323.09504132231 208 C 323.590909090906 208 323.838842975204 208 324.3347107438 208 C 324.830578512396 208 325.078512396694 208 325.57438016529 208 C 326.070247933886 208 326.318181818184 208 326.81404958678 208 C 327.309917355372 208 327.55785123966797 208 328.05371900826 208 C 328.549586776856 208 328.79752066115395 208 329.29338842975 208 C 329.789256198346 208 330.037190082644 208 330.53305785124 208 C 331.028925619836 208 331.276859504134 208 331.77272727273 208 C 332.268595041322 208 332.516528925618 208 333.01239669421 208 C 333.585055096414 208 333.871384297516 208 334.44404269972 208 C 334.86311983470796 208 335.07265840220197 208 335.49173553719 208 C 335.98760330578597 208 336.23553719008396 150.22222222222223 336.73140495868 150.22222222222223 C 337.227272727276 150.22222222222223 337.47520661157404 150.22222222222223 337.97107438017 150.22222222222223 C 338.54373278237006 150.22222222222223 338.83006198347005 150.22222222222223 339.40272038567 150.22222222222223 C 339.82179752065804 150.22222222222223 340.031336088152 150.22222222222223 340.45041322314 150.22222222222223 C 340.946280991736 150.22222222222223 341.19421487603404 150.22222222222223 341.69008264463 150.22222222222223 C 342.18595041322607 150.22222222222223 342.433884297524 150.22222222222223 342.92975206612 150.22222222222223 C 343.42561983471194 150.22222222222223 343.67355371900805 150.22222222222223 344.1694214876 150.22222222222223 C 345.16115702479203 150.22222222222223 345.65702479338796 208 346.64876033058 208 C 347.144628099176 208 347.392561983474 208 347.88842975207 208 C 348.384297520662 208 348.632231404958 208 349.12809917355 208 C 349.623966942146 208 349.871900826444 208 350.36776859504 208 C 350.86363636363603 208 351.111570247934 208 351.60743801653 208 C 352.103305785126 208 352.351239669424 208 352.84710743802 208 C 353.342975206612 208 353.590909090908 208 354.0867768595 208 C 354.58264462809603 208 354.830578512394 208 355.32644628099 208 C 355.822314049586 208 356.070247933884 208 356.56611570248 208 C 357.061983471076 208 357.309917355374 208 357.80578512397 208 C 358.301652892562 208 358.549586776858 208 359.04545454545 208 C 359.541322314046 208 359.789256198344 208 360.28512396694 208 C 360.780991735536 208 361.028925619834 208 361.52479338843 208 C 362.020661157026 208 362.268595041324 208 362.76446280992 208 C 363.260330578512 208 363.508264462808 208 364.0041322314 208 C 364.499999999996 208 364.74793388429396 208 365.24380165289 208 C 365.739669421486 208 365.987603305784 208 366.48347107438 208 C 366.979338842976 208 367.227272727274 208 367.72314049587 208 C 368.21900826446597 208 368.46694214876396 208 368.96280991736 208 C 369.458677685952 208 369.706611570248 208 370.20247933884 208 C 370.698347107436 208 370.946280991734 208 371.44214876033 208 C 371.93801652892597 208 372.18595041322396 208 372.68181818182 208 C 373.177685950416 208 373.42561983471404 208 373.92148760331 208 C 374.41735537190203 208 374.665289256198 208 375.16115702479 208 C 375.657024793386 208 375.904958677684 208 376.40082644628 208 C 376.896694214876 208 377.14462809917404 208 377.64049586777 208 C 378.13636363636607 208 378.384297520664 208 378.88016528926 208 C 379.37603305785194 208 379.62396694214806 208 380.11983471074 208 C 380.615702479336 208 380.86363636363393 208 381.35950413223 208 C 381.85537190082596 208 382.103305785124 208 382.59917355372 208 C 383.095041322316 208 383.342975206614 208 383.83884297521 208 C 384.334710743802 208 384.58264462809797 208 385.07851239669 208 C 385.57438016528596 208 385.822314049584 150.22222222222223 386.31818181818 150.22222222222223 C 386.81404958677604 150.22222222222223 387.06198347107403 150.22222222222223 387.55785123967 150.22222222222223 C 388.053719008266 150.22222222222223 388.301652892564 150.22222222222223 388.79752066116 150.22222222222223 C 389.293388429752 150.22222222222223 389.541322314048 150.22222222222223 390.03719008264 150.22222222222223 C 390.53305785123604 150.22222222222223 390.78099173553403 150.22222222222223 391.27685950413 150.22222222222223 C 391.772727272726 150.22222222222223 392.020661157024 150.22222222222223 392.51652892562 150.22222222222223 C 393.012396694216 150.22222222222223 393.260330578514 150.22222222222223 393.75619834711 150.22222222222223 C 394.25206611570604 150.22222222222223 394.500000000004 208 394.9958677686 208 C 395.491735537192 208 395.739669421488 208 396.23553719008 208 C 396.731404958676 208 396.979338842974 208 397.47520661157 208 C 397.971074380166 208 398.219008264464 208 398.71487603306 208 C 399.437327823692 208 399.79855371900805 208 400.52100550964 208 C 400.79028925619605 208 400.92493112947403 208 401.19421487603 208 C 401.690082644626 208 401.938016528924 208 402.43388429752 208 C 402.929752066116 208 403.177685950414 208 403.67355371901 208 C 404.169421487606 208 404.41735537190397 208 404.9132231405 208 C 405.90495867768794 208 406.400826446282 208 407.39256198347 208 C 407.888429752066 208 408.13636363636397 208 408.63223140496 208 C 409.128099173556 208 409.376033057854 208 409.87190082645 208 C 410.367768595042 208 410.615702479338 208 411.11157024793 208 C 411.607438016526 208 411.85537190082397 208 412.35123966942 208 C 412.847107438016 208 413.09504132231393 208 413.59090909091 208 C 414.08677685950596 208 414.33471074380395 208 414.8305785124 208 C 415.32644628099195 208 415.57438016528806 208 416.07024793388 208 C 416.56611570247605 208 416.81404958677393 208 417.30991735537 208 C 417.80578512396596 208 418.05371900826395 150.22222222222223 418.54958677686 150.22222222222223 C 419.04545454545604 150.22222222222223 419.29338842975403 150.22222222222223 419.78925619835 150.22222222222223 C 420.285123966942 150.22222222222223 420.5330578512379 150.22222222222223 421.02892561983 150.22222222222223 C 421.52479338842596 150.22222222222223 421.772727272724 150.22222222222223 422.26859504132 150.22222222222223 C 422.76446280991604 150.22222222222223 423.01239669421403 150.22222222222223 423.50826446281 150.22222222222223 C 424.00413223140606 150.22222222222223 424.252066115704 150.22222222222223 424.7479338843 150.22222222222223 C 425.243801652896 150.22222222222223 425.491735537194 150.22222222222223 425.98760330579 150.22222222222223 C 426.483471074382 150.22222222222223 426.731404958678 208 427.22727272727 208 C 427.723140495866 208 427.971074380164 208 428.46694214876 208 C 428.962809917356 208 429.210743801654 208 429.70661157025 208 C 430.20247933884605 208 430.450413223144 208 430.94628099174 208 C 431.44214876033203 208 431.690082644628 208 432.18595041322 208 C 432.681818181816 208 432.929752066114 208 433.42561983471 208 C 433.921487603306 208 434.169421487604 208 434.6652892562 208 C 435.161157024796 208 435.409090909094 208 435.90495867769 208 C 436.400826446282 208 436.648760330578 208 437.14462809917 208 C 437.640495867766 208 437.888429752064 208 438.38429752066 208 C 438.880165289256 208 439.128099173554 208 439.62396694215 208 C 440.119834710746 208 440.36776859504397 208 440.86363636364 208 C 441.4569559228679 208 441.7536157024821 208 442.34693526171 208 C 443.24121900826606 208 443.68836088154404 208 444.5826446281 208 C 445.67183195592395 208 446.216425619836 208 447.30561294766 208 C 447.70402892562 208 447.9032369146 208 448.30165289256 208 C 448.85571625344403 208 449.132747933886 208 449.68681129477 208 C 450.62035123966996 208 451.08712121212 208 452.02066115702 208 C 452.51652892561594 208 452.76446280991394 208 453.26033057851 208 C 453.75619834710596 208 454.5 208 454.5 208" class="highcharts-graph" data-z-index="1" stroke="#000000" stroke-width="2" stroke-linejoin="round" stroke-linecap="round"></path></g><g data-z-index="0.1" class="highcharts-markers highcharts-series-0 highcharts-spline-series highcharts-color-0 " transform="translate(83,99) scale(1 1)" clip-path="none"></g><g data-z-index="0.1" class="highcharts-series highcharts-series-1 highcharts-spline-series highcharts-color-1 " transform="translate(83,99) scale(1 1)" clip-path="url(#highcharts-tf3ee3j-1239)"><path fill="none" d="M 4.5 124.8 C 4.5 124.8 5.24380165289256 122.48888888888888 5.7396694214876 122.48888888888888 C 6.23553719008264 122.48888888888888 6.48347107438016 130.96296296296296 6.9793388429752 130.96296296296296 C 7.475206611570241 130.96296296296296 7.72314049586776 130.96296296296296 8.2190082644628 130.96296296296296 C 8.71487603305784 130.96296296296296 8.962809917355361 130.96296296296296 9.4586776859504 130 C 9.95454545454544 129.03703703703704 10.20247933884296 123.25925925925927 10.698347107438 123.25925925925927 C 11.1942148760332 123.25925925925927 11.442148760330799 125.57037037036977 11.938016528926 127.11111111111111 C 12.4338842975208 128.65185185185123 12.6818181818182 129.97248677248717 13.177685950413 130.96296296296296 C 13.6735537190082 131.95343915343955 13.9214876033058 132.06349206349205 14.417355371901 132.06349206349205 C 14.913223140495802 132.06349206349205 15.161157024793198 115.55555555555556 15.657024793388 115.55555555555556 C 16.1528925619832 115.55555555555556 16.4008264462808 122.4888888888889 16.896694214876 127.11111111111111 C 17.3925619834712 131.73333333333335 17.6404958677688 138.66666666666669 18.136363636364 138.66666666666669 C 18.632231404958798 138.66666666666669 18.8801652892562 132.39365079364865 19.376033057851 127.11111111111111 C 19.8719008264462 121.82857142856929 20.1198347107438 115.55555555555554 20.615702479339 112.25396825396825 C 21.1115702479338 108.95238095238096 21.3595041322312 108.95238095238096 21.855371900826 108.95238095238096 C 22.351239669421197 108.95238095238096 22.5991735537188 109.77777777777779 23.095041322314 109.77777777777779 C 23.5909090909092 109.77777777777779 23.838842975206802 98.22222222222221 24.334710743802 95.33333333333333 C 24.8305785123968 92.44444444444444 25.0785123966942 92.44444444444444 25.574380165289 92.44444444444444 C 26.0702479338842 92.44444444444444 26.318181818181802 92.44444444444444 26.814049586777 96.2962962962963 C 27.3099173553718 100.14814814814817 27.5578512396692 115.55555555555556 28.053719008264 115.55555555555556 C 28.5495867768592 115.55555555555556 28.797520661156803 113.4095238095238 29.293388429752 112.25396825396825 C 29.789256198347196 111.09841269841269 30.0371900826448 112.25396825396825 30.53305785124 109.77777777777779 C 31.028925619834798 107.30158730158732 31.276859504132197 98.22222222222221 31.772727272727 95.33333333333333 C 32.2685950413222 92.44444444444444 32.516528925619795 92.44444444444444 33.012396694215 92.44444444444444 C 33.508264462809805 92.44444444444444 33.7561983471072 92.44444444444444 34.252066115702 92.44444444444444 C 34.7479338842972 92.44444444444444 34.995867768594806 92.44444444444444 35.49173553719 94.75555555555555 C 35.9876033057852 97.06666666666665 36.2355371900828 108.04444444444259 36.731404958678 112.66666666666667 C 37.2272727272728 117.28888888888704 37.4752066115702 117.86666666666667 37.971074380165 117.86666666666667 C 38.4669421487602 117.86666666666667 38.714876033057806 101.11111111111111 39.210743801653 101.11111111111111 C 39.7066115702478 101.11111111111111 39.9545454545452 104 40.45041322314 104 C 40.94628099173521 104 41.1942148760328 101.11111111111111 41.690082644628 101.11111111111111 C 42.1859504132232 101.11111111111111 42.4338842975208 104.01050505050465 42.929752066116 105.05050505050507 C 43.4256198347108 106.09050505050463 43.673553719008204 105.05050505050507 44.169421487603 106.3111111111111 C 44.66528925619819 107.57171717171714 44.9132231404958 131.73333333333335 45.409090909091 131.73333333333335 C 45.9049586776862 131.73333333333335 46.1528925619838 129.88444444444653 46.648760330579 124.8 C 47.1446280991738 119.71555555555761 47.392561983471204 106.3111111111111 47.888429752066 106.3111111111111 C 48.3842975206612 106.3111111111111 48.6322314049588 115.55555555555556 49.128099173554 115.55555555555556 C 49.6239669421488 115.55555555555556 49.8719008264462 115.55555555555556 50.367768595041 115.55555555555556 C 50.863636363636196 115.55555555555556 51.111570247933805 103.17460317460318 51.607438016529 101.11111111111111 C 52.1033057851242 99.04761904761905 52.35123966942181 99.04761904761905 52.847107438017 99.04761904761905 C 53.3429752066118 99.04761904761905 53.5909090909092 104 54.086776859504 104 C 54.5826446280992 104 54.8305785123968 101.11111111111111 55.326446280992 101.11111111111111 C 55.82231404958681 101.11111111111111 56.070247933884204 115.55555555555556 56.566115702479 115.55555555555556 C 57.0619834710742 115.55555555555556 57.30991735537181 99.04761904761905 57.805785123967 99.04761904761905 C 58.301652892562196 99.04761904761905 58.54958677685979 101.11111111111111 59.045454545455 101.11111111111111 C 59.54132231404979 101.11111111111111 59.789256198347196 101.11111111111111 60.285123966942 101.11111111111111 C 60.7809917355372 101.11111111111111 61.028925619834794 99.04761904761905 61.52479338843 99.04761904761905 C 62.020661157024804 99.04761904761905 62.26859504132219 129.42222222222222 62.764462809917 129.42222222222222 C 63.260330578512196 129.42222222222222 63.508264462809805 128.34370370370362 64.004132231405 123.25925925925927 C 64.5000000000002 118.17481481481475 64.7479338842978 104 65.243801652893 104 C 65.73966942148779 104 65.9876033057852 115.55555555555556 66.48347107438 115.55555555555556 C 66.9793388429752 115.55555555555556 67.22727272727279 101.11111111111111 67.723140495868 101.11111111111111 C 68.2190082644628 101.11111111111111 68.4669421487602 110.44444444444792 68.962809917355 119.11111111111111 C 69.4586776859502 127.77777777778127 69.70661157024782 144.44444444444446 70.202479338843 144.44444444444446 C 70.6983471074382 144.44444444444446 70.94628099173579 105.28395061728395 71.442148760331 104 C 71.9380165289258 102.71604938271605 72.1859504132232 103.99999999999949 72.681818181818 102.71604938271605 C 73.1776859504132 101.43209876543159 73.4256198347108 97.58024691358025 73.921487603306 97.58024691358025 C 74.41735537190081 97.58024691358025 74.66528925619821 97.58024691358025 75.161157024793 98.22222222222223 C 75.6570247933882 98.8641975308642 75.9049586776858 105.28395061728395 76.400826446281 105.28395061728395 C 76.89669421487619 105.28395061728395 77.1446280991738 102.71604938271605 77.640495867769 102.71604938271605 C 78.13636363636381 102.71604938271605 78.38429752066119 103.7432098765442 78.880165289256 106.3111111111111 C 79.37603305785119 108.87901234568 79.62396694214881 109.85481481481261 80.119834710744 115.55555555555556 C 80.61570247933881 121.2562962962941 80.86363636363619 134.81481481481484 81.359504132231 134.81481481481484 C 81.8553719008262 134.81481481481484 82.10330578512381 126.45079365079361 82.599173553719 123.25925925925927 C 83.0950413223142 120.06772486772483 83.3429752066118 120.39788359788426 83.838842975207 118.85714285714286 C 84.33471074380179 117.31640211640276 84.58264462809919 118.52698412698294 85.078512396694 115.55555555555556 C 85.5743801652892 112.5841269841258 85.8223140495868 104 86.318181818182 104 C 86.8140495867768 104 87.0619834710742 110.9333333333352 87.557851239669 115.55555555555556 C 88.05371900826421 120.17777777777962 88.30165289256179 127.11111111111111 88.797520661157 127.11111111111111 C 89.29338842975218 127.11111111111111 89.5413223140498 96.2962962962963 90.037190082645 96.2962962962963 C 90.5330578512398 96.2962962962963 90.7809917355372 115.55555555555556 91.276859504132 115.55555555555556 C 91.77272727272721 115.55555555555556 92.0206611570248 115.55555555555556 92.51652892562 115.55555555555556 C 93.4817493112948 115.55555555555556 93.9643595041322 138.66666666666669 94.929579889807 138.66666666666669 C 94.95609504132221 138.66666666666669 94.9693526170798 123.25925925925925 94.995867768595 119.4074074074074 C 95.4917355371902 115.55555555555556 95.73966942148779 119.4074074074074 96.235537190083 115.55555555555556 C 96.7314049586778 111.70370370370371 96.9793388429752 96.2962962962963 97.47520661157 96.2962962962963 C 97.9710743801652 96.2962962962963 98.21900826446281 115.55555555555556 98.714876033058 115.55555555555556 C 99.2107438016528 115.55555555555556 99.4586776859502 115.55555555555556 99.954545454545 115.55555555555556 C 100.45041322313901 115.55555555555556 100.698347107436 115.55555555555556 101.19421487603 115.55555555555556 C 101.690082644626 115.55555555555556 101.93801652892401 115.55555555555556 102.43388429752 115.55555555555556 C 102.929752066116 115.55555555555556 103.177685950414 115.55555555555556 103.67355371901 115.55555555555556 C 104.169421487606 115.55555555555556 104.417355371904 92.44444444444444 104.9132231405 92.44444444444444 C 105.40909090909199 92.44444444444444 105.65702479338799 115.55555555555556 106.15289256198 115.55555555555556 C 107.144628099172 115.55555555555556 107.64049586776801 115.55555555555556 108.63223140496 115.55555555555556 C 109.12809917355598 115.55555555555556 109.37603305785402 115.55555555555556 109.87190082645 115.55555555555556 C 110.36776859504201 115.55555555555556 110.61570247933801 115.55555555555556 111.11157024793 115.55555555555556 C 111.607438016526 115.55555555555556 111.855371900824 115.55555555555556 112.35123966942 115.55555555555556 C 113.34297520661198 115.55555555555556 113.838842975208 92.44444444444444 114.8305785124 92.44444444444444 C 115.32644628099199 92.44444444444444 115.57438016528799 115.55555555555556 116.07024793388 115.55555555555556 C 116.56611570247601 115.55555555555556 116.81404958677402 115.55555555555556 117.30991735537 115.55555555555556 C 117.805785123966 115.55555555555556 118.05371900826398 115.55555555555556 118.54958677686 115.55555555555556 C 119.54132231404802 115.55555555555556 120.037190082642 115.55555555555556 121.02892561983 115.55555555555556 C 121.52479338842599 115.55555555555556 121.772727272724 115.55555555555556 122.26859504132 115.55555555555556 C 122.764462809916 115.55555555555556 123.012396694214 92.44444444444444 123.50826446281 92.44444444444444 C 124.00413223140599 92.44444444444444 124.252066115704 92.44444444444444 124.7479338843 92.44444444444444 C 125.739669421488 92.44444444444444 126.235537190082 115.55555555555556 127.22727272727 115.55555555555556 C 127.723140495866 115.55555555555556 127.97107438016401 115.55555555555556 128.46694214876 115.55555555555556 C 129.954545454544 115.55555555555556 130.69834710743604 92.44444444444444 132.18595041322 92.44444444444444 C 133.177685950412 92.44444444444444 133.673553719008 92.44444444444444 134.6652892562 92.44444444444444 C 135.16115702479598 92.44444444444444 135.409090909094 92.44444444444444 135.90495867769 92.44444444444444 C 137.39256198347397 92.44444444444444 138.13636363636599 115.55555555555556 139.62396694215 115.55555555555556 C 140.615702479338 115.55555555555556 141.11157024793198 115.55555555555556 142.10330578512 115.55555555555556 C 143.095041322312 115.55555555555556 143.590909090908 92.44444444444444 144.5826446281 92.44444444444444 C 145.078512396696 92.44444444444444 145.32644628099402 92.44444444444444 145.82231404959 92.44444444444444 C 146.318181818182 92.44444444444444 146.56611570247802 92.44444444444444 147.06198347107 92.44444444444444 C 147.557851239666 92.44444444444444 147.805785123964 115.55555555555556 148.30165289256 115.55555555555556 C 148.79752066115603 115.55555555555556 149.045454545454 115.55555555555556 149.54132231405 115.55555555555556 C 151.02892561983398 115.55555555555556 151.77272727272603 138.66666666666669 153.26033057851 138.66666666666669 C 153.75619834710602 138.66666666666669 154.004132231404 138.66666666666669 154.5 138.66666666666669 C 154.995867768596 138.66666666666669 155.24380165289398 138.66666666666669 155.73966942149 138.66666666666669 C 156.235537190086 138.66666666666669 156.483471074384 92.44444444444444 156.97933884298 92.44444444444444 C 157.971074380168 92.44444444444444 158.46694214876203 92.44444444444444 159.45867768595 92.44444444444444 C 161.44214876032999 92.44444444444444 162.43388429752 138.66666666666669 164.4173553719 138.66666666666669 C 164.91322314049597 138.66666666666669 165.16115702479402 115.55555555555556 165.65702479339 115.55555555555556 C 172.599173553718 115.55555555555556 176.070247933882 115.55555555555556 183.01239669421 115.55555555555556 C 184.499999999998 115.55555555555556 185.243801652892 115.55555555555556 186.73140495868 115.55555555555556 C 188.71487603306 115.55555555555556 189.70661157025 138.66666666666669 191.69008264463 138.66666666666669 C 194.169421487606 138.66666666666669 195.409090909094 138.66666666666669 197.88842975207 138.66666666666669 C 198.384297520662 138.66666666666669 198.632231404958 138.66666666666669 199.12809917355 138.66666666666669 C 199.62396694214598 138.66666666666669 199.871900826444 138.66666666666669 200.36776859504 138.66666666666669 C 200.863636363636 138.66666666666669 201.111570247934 138.66666666666669 201.60743801653 138.66666666666669 C 202.599173553718 138.66666666666669 203.095041322312 115.55555555555556 204.0867768595 115.55555555555556 C 206.566115702476 115.55555555555556 207.805785123964 115.55555555555556 210.28512396694 115.55555555555556 C 211.276859504132 115.55555555555556 211.772727272728 115.55555555555556 212.76446280992 115.55555555555556 C 213.75619834710795 115.55555555555556 214.252066115702 138.66666666666669 215.24380165289 138.66666666666669 C 216.235537190082 138.66666666666669 216.731404958678 138.66666666666669 217.72314049587 138.66666666666669 C 218.219008264466 138.66666666666669 218.46694214876402 138.66666666666669 218.96280991736 138.66666666666669 C 219.954545454548 138.66666666666669 220.450413223142 138.66666666666669 221.44214876033 138.66666666666669 C 221.93801652892597 138.66666666666669 222.18595041322402 138.66666666666669 222.68181818182 138.66666666666669 C 224.16942148760398 138.66666666666669 224.91322314049603 138.66666666666669 226.40082644628 138.66666666666669 C 226.89669421487602 138.66666666666669 227.14462809917399 115.55555555555556 227.64049586777 115.55555555555556 C 228.13636363636596 115.55555555555556 228.384297520664 115.55555555555556 228.88016528926 115.55555555555556 C 229.37603305785197 115.55555555555556 229.62396694214803 115.55555555555556 230.11983471074 115.55555555555556 C 231.111570247932 115.55555555555556 231.60743801652796 115.55555555555556 232.59917355372 115.55555555555556 C 233.590909090908 115.55555555555556 234.08677685950198 115.55555555555556 235.07851239669 115.55555555555556 C 235.574380165286 115.55555555555556 235.822314049584 127.11111111111111 236.31818181818 127.11111111111111 C 236.81404958677598 127.11111111111111 237.06198347107403 122.15873015873015 237.55785123967 122.15873015873015 C 238.053719008266 122.15873015873015 238.30165289256402 142.86786468803209 238.79752066116 150.22222222222223 C 239.370179063364 158.71548373565113 239.656508264466 161.77777777777777 240.22916666667 161.77777777777777 C 240.64824380165402 161.77777777777777 240.85778236914598 142.51851851851853 241.27685950413 142.51851851851853 C 241.849517906334 142.51851851851853 242.13584710743598 161.77777777777777 242.70850550964 161.77777777777777 C 243.55561294765602 161.77777777777777 243.979166666664 161.77777777777777 244.82627410468 161.77777777777777 C 244.89411157024801 161.77777777777777 244.92803030303202 146.85912092394872 244.9958677686 145.26984126984127 C 245.49173553719203 133.65277171759953 245.739669421488 128.76190476190476 246.23553719008 128.76190476190476 C 246.73140495867602 128.76190476190476 246.979338842974 141.96825396825398 247.47520661157 141.96825396825398 C 248.04786501377401 141.96825396825398 248.33419421487602 141.96825396825398 248.90685261708 138.66666666666669 C 249.325929752068 135.3650793650794 249.535468319562 119.4074074074074 249.95454545455 119.4074074074074 C 250.450413223142 119.4074074074074 250.698347107438 127.11111111111111 251.19421487603 127.11111111111111 C 251.690082644626 127.11111111111111 251.93801652892398 122.15873015873015 252.43388429752 122.15873015873015 C 252.929752066116 122.15873015873015 253.17768595041397 161.77777777777777 253.67355371901 161.77777777777777 C 254.169421487606 161.77777777777777 254.41735537190397 125.46031746031746 254.9132231405 125.46031746031746 C 255.409090909092 125.46031746031746 255.65702479338802 150.22222222222223 256.15289256198 150.22222222222223 C 256.648760330576 150.22222222222223 256.896694214874 145.26984126984127 257.39256198347 145.26984126984127 C 257.888429752066 145.26984126984127 258.13636363636397 145.26984126984127 258.63223140496 148.57142857142856 C 259.204889807164 151.87301587301585 259.49121900826606 184.88888888888889 260.06387741047 184.88888888888889 C 260.482954545454 184.88888888888889 260.69249311294595 157.92592592592592 261.11157024793 157.92592592592592 C 261.607438016526 157.92592592592592 261.855371900824 158.13602693602692 262.35123966942 159.67676767676767 C 262.847107438016 161.21750841750838 263.095041322314 165.62962962962962 263.59090909091 165.62962962962962 C 264.08677685950596 165.62962962962962 264.33471074380395 144.82962962962964 264.8305785124 144.82962962962964 C 265.32644628099195 144.82962962962964 265.57438016528806 144.82962962962964 266.07024793388 144.96969696969697 C 266.566115702476 145.1097643097643 266.814049586774 153.52380952380952 267.30991735537 153.52380952380952 C 267.80578512396596 153.52380952380952 268.053719008264 149.85079365079363 268.54958677686 145.88888888888889 C 269.045454545456 141.92698412698414 269.29338842975403 133.71428571428572 269.78925619835 133.71428571428572 C 270.285123966942 133.71428571428572 270.53305785123797 138.66666666666669 271.02892561983 139.82222222222222 C 271.52479338842596 140.97777777777776 271.772727272724 140.49777777777777 272.26859504132 140.97777777777776 C 272.76446280991604 141.45777777777778 273.01239669421403 142.22222222222223 273.50826446281 142.22222222222223 C 274.004132231406 142.22222222222223 274.252066115704 138.66666666666669 274.7479338843 138.66666666666669 C 275.24380165289597 138.66666666666669 275.491735537194 138.66666666666669 275.98760330579 138.66666666666669 C 276.483471074382 138.66666666666669 276.731404958678 140.44444444444446 277.22727272727 140.44444444444446 C 277.723140495866 140.44444444444446 277.971074380164 138.66666666666669 278.46694214876 138.66666666666669 C 278.962809917356 138.66666666666669 279.210743801654 140.9777777777779 279.70661157025 143.2888888888889 C 280.20247933884605 145.60000000000014 280.450413223144 150.22222222222223 280.94628099174 150.22222222222223 C 281.44214876033203 150.22222222222223 281.690082644628 143.61904761904762 282.18595041322 143.61904761904762 C 282.681818181816 143.61904761904762 282.929752066114 145.91073762838468 283.42561983471 146.8235294117647 C 283.921487603306 147.7363211951447 284.169421487604 148.1830065359477 284.6652892562 148.1830065359477 C 285.161157024796 148.1830065359477 285.409090909094 140.2074074074074 285.90495867769 140.2074074074074 C 286.400826446282 140.2074074074074 286.648760330578 141.23089947090907 287.14462809917 143.61904761904762 C 287.640495867766 146.00719576720536 287.888429752064 152.14814814814815 288.38429752066 152.14814814814815 C 288.880165289256 152.14814814814815 289.128099173554 148.68148148148148 289.62396694215 146.37037037037038 C 290.119834710746 144.05925925925925 290.36776859504397 140.74074074074076 290.86363636364 140.5925925925926 C 291.359504132232 140.44444444444446 291.607438016528 140.52148148148117 292.10330578512 140.44444444444446 C 292.599173553716 140.36740740740711 292.847107438014 140.2074074074074 293.34297520661 140.2074074074074 C 293.838842975206 140.2074074074074 294.08677685950397 149.45185185185187 294.5826446281 149.45185185185187 C 295.078512396696 149.45185185185187 295.326446280994 132.06349206349205 295.82231404959 132.06349206349205 C 296.318181818182 132.06349206349205 296.566115702478 142.11832611834598 297.06198347107 147.07070707070707 C 297.557851239666 152.0230880231079 297.80578512396403 156.8253968253968 298.30165289256 156.8253968253968 C 298.797520661156 156.8253968253968 299.045454545454 153.60473078120137 299.54132231405 152.14814814814815 C 300.03719008264596 150.6915655150949 300.28512396694396 149.54248366013073 300.78099173554 149.54248366013073 C 301.27685950413195 149.54248366013073 301.52479338842807 152.88888888888889 302.02066115702 152.88888888888889 C 302.516528925616 152.88888888888889 302.764462809914 149.21481481481482 303.26033057851 146.37037037037038 C 303.75619834710596 143.52592592592595 304.004132231404 138.66666666666669 304.5 138.66666666666669 C 304.995867768596 138.66666666666669 305.24380165289404 147.33333333333334 305.73966942149 147.33333333333334 C 306.235537190086 147.33333333333334 306.483471074384 141.55555555556734 306.97933884298 138.66666666666669 C 307.47520661157193 135.77777777778954 307.72314049586805 132.88888888888889 308.21900826446 132.88888888888889 C 308.71487603305604 132.88888888888889 308.96280991735404 136.64761904761906 309.45867768595 140.44444444444446 C 309.954545454546 144.24126984126985 310.202479338844 151.87301587301587 310.69834710744 151.87301587301587 C 311.19421487603597 151.87301587301587 311.442148760334 148.5914381914471 311.93801652893 146.37037037037038 C 312.433884297522 144.14930254931147 312.681818181818 140.76767676767676 313.17768595041 140.76767676767676 C 313.673553719006 140.76767676767676 313.921487603304 145.9895041496561 314.4173553719 149.10394265232975 C 314.91322314049603 152.21838115500373 315.161157024794 156.33986928104576 315.65702479339 156.33986928104576 C 316.152892561986 156.33986928104576 316.400826446284 146.8673835125448 316.89669421488 146.8673835125448 C 317.392561983472 146.8673835125448 317.640495867768 148.77777777777777 318.13636363636 148.77777777777777 C 318.63223140495603 148.77777777777777 318.880165289254 144.44444444444446 319.37603305785 144.44444444444446 C 319.871900826446 144.44444444444446 320.119834710744 151.87301587301587 320.61570247934 151.87301587301587 C 321.111570247936 151.87301587301587 321.359504132234 150.22222222222223 321.85537190083 150.22222222222223 C 322.351239669422 150.22222222222223 322.599173553718 167.55555555555554 323.09504132231 167.55555555555554 C 323.590909090906 167.55555555555554 323.838842975204 159.46666666666667 324.3347107438 159.46666666666667 C 324.830578512396 159.46666666666667 325.078512396694 173.33333333333334 325.57438016529 173.33333333333334 C 326.070247933886 173.33333333333334 326.318181818184 167.39047619048557 326.81404958678 165.07936507936506 C 327.309917355372 162.76825396826334 327.55785123966797 161.77777777777777 328.05371900826 161.77777777777777 C 328.549586776856 161.77777777777777 328.79752066115395 161.77777777777777 329.29338842975 161.77777777777777 C 329.789256198346 161.77777777777777 330.037190082644 152.53333333333333 330.53305785124 152.53333333333333 C 331.028925619836 152.53333333333333 331.276859504134 156 331.77272727273 156 C 332.268595041322 156 332.516528925618 147.33333333333334 333.01239669421 147.33333333333334 C 333.585055096414 147.33333333333334 333.871384297516 161.77777777777777 334.44404269972 161.77777777777777 C 334.86311983470796 161.77777777777777 335.07265840220197 161.77777777777777 335.49173553719 161.77777777777777 C 335.98760330578597 161.77777777777777 336.23553719008396 142.51851851851853 336.73140495868 142.51851851851853 C 337.227272727276 142.51851851851853 337.47520661157404 142.51851851851853 337.97107438017 142.51851851851853 C 338.54373278237006 142.51851851851853 338.83006198347005 138.66666666666669 339.40272038567 138.66666666666669 C 339.82179752065804 138.66666666666669 340.031336088152 143.2888888888889 340.45041322314 143.2888888888889 C 340.946280991736 143.2888888888889 341.19421487603404 115.55555555555556 341.69008264463 115.55555555555556 C 342.18595041322607 115.55555555555556 342.433884297524 138.66666666666669 342.92975206612 138.66666666666669 C 343.42561983471194 138.66666666666669 343.67355371900805 115.55555555555556 344.1694214876 115.55555555555556 C 345.16115702479203 115.55555555555556 345.65702479338796 138.66666666666669 346.64876033058 138.66666666666669 C 347.144628099176 138.66666666666669 347.392561983474 138.66666666666669 347.88842975207 138.66666666666669 C 348.384297520662 138.66666666666669 348.632231404958 154.07407407407408 349.12809917355 154.07407407407408 C 349.623966942146 154.07407407407408 349.871900826444 147.4708994708995 350.36776859504 146.37037037037038 C 350.86363636363603 145.26984126984127 351.111570247934 146.37037037037038 351.60743801653 145.26984126984127 C 352.103305785126 144.16931216931215 352.351239669424 138.66666666666669 352.84710743802 138.66666666666669 C 353.342975206612 138.66666666666669 353.590909090908 161.77777777777777 354.0867768595 161.77777777777777 C 354.58264462809603 161.77777777777777 354.830578512394 161.77777777777777 355.32644628099 160.12698412698413 C 355.822314049586 158.47619047619048 356.070247933884 138.66666666666669 356.56611570248 138.66666666666669 C 357.061983471076 138.66666666666669 357.309917355374 140.5629629629551 357.80578512397 142.51851851851853 C 358.301652892562 144.47407407406624 358.549586776858 148.44444444444446 359.04545454545 148.44444444444446 C 359.541322314046 148.44444444444446 359.789256198344 146.02020202020202 360.28512396694 146.02020202020202 C 360.780991735536 146.02020202020202 361.028925619834 157.57575757575756 361.52479338843 157.57575757575756 C 362.020661157026 157.57575757575756 362.268595041324 157.00848484848896 362.76446280992 156 C 363.260330578512 154.99151515151925 363.508264462808 152.53333333333333 364.0041322314 152.53333333333333 C 364.499999999996 152.53333333333333 364.74793388429396 153.68126984126977 365.24380165289 155.1746031746032 C 365.739669421486 156.66793650793645 365.987603305784 160 366.48347107438 160 C 366.979338842976 160 367.227272727274 149.3659259259259 367.72314049587 145.4074074074074 C 368.21900826446597 141.44888888888886 368.46694214876396 141.55555555556106 368.96280991736 140.2074074074074 C 369.458677685952 138.85925925926475 369.706611570248 138.66666666666669 370.20247933884 138.66666666666669 C 370.698347107436 138.66666666666669 370.946280991734 138.66666666666669 371.44214876033 138.66666666666669 C 371.93801652892597 138.66666666666669 372.18595041322396 138.66666666666669 372.68181818182 138.66666666666669 C 373.177685950416 138.66666666666669 373.42561983471404 138.66666666666669 373.92148760331 138.66666666666669 C 374.41735537190203 138.66666666666669 374.665289256198 147.72435465770317 375.16115702479 151.50617283950618 C 375.657024793386 155.28799102133954 375.904958677684 157.57575757575756 376.40082644628 157.57575757575756 C 376.896694214876 157.57575757575756 377.14462809917404 154.07407407407408 377.64049586777 154.07407407407408 C 378.13636363636607 154.07407407407408 378.384297520664 156 378.88016528926 156 C 379.37603305785194 156 379.62396694214806 150.9925925925926 380.11983471074 150.9925925925926 C 380.615702479336 150.9925925925926 380.86363636363393 161.77777777777777 381.35950413223 161.77777777777777 C 381.85537190082596 161.77777777777777 382.103305785124 157.46370370370371 382.59917355372 154.07407407407408 C 383.095041322316 150.68444444444444 383.342975206614 147.91111111112346 383.83884297521 144.82962962962964 C 384.334710743802 141.7481481481605 384.58264462809797 138.66666666666669 385.07851239669 138.66666666666669 C 385.57438016528596 138.66666666666669 385.822314049584 146.48888888888916 386.31818181818 151.11111111111111 C 386.81404958677604 155.7333333333336 387.06198347107403 161.77777777777777 387.55785123967 161.77777777777777 C 388.053719008266 161.77777777777777 388.301652892564 150.22222222222223 388.79752066116 150.22222222222223 C 389.293388429752 150.22222222222223 389.541322314048 171.6825396825397 390.03719008264 171.6825396825397 C 390.53305785123604 171.6825396825397 390.78099173553403 156.64197530864197 391.27685950413 156.64197530864197 C 391.772727272726 156.64197530864197 392.020661157024 165.62962962962962 392.51652892562 165.62962962962962 C 393.012396694216 165.62962962962962 393.260330578514 159.02645502645504 393.75619834711 158.47619047619048 C 394.25206611570604 157.92592592592592 394.500000000004 157.92592592592592 394.9958677686 157.92592592592592 C 395.491735537192 157.92592592592592 395.739669421488 157.92592592592592 396.23553719008 157.92592592592592 C 396.731404958676 157.92592592592592 396.979338842974 143.80246913580248 397.47520661157 143.80246913580248 C 397.971074380166 143.80246913580248 398.219008264464 158.88888888888889 398.71487603306 158.88888888888889 C 399.437327823692 158.88888888888889 399.79855371900805 138.66666666666669 400.52100550964 138.66666666666669 C 400.79028925619605 138.66666666666669 400.92493112947403 145.06434643465042 401.19421487603 147.9111111111111 C 401.690082644626 153.15323532353932 401.938016528924 155.60197530864178 402.43388429752 158.88888888888889 C 402.929752066116 162.17580246913562 403.177685950414 164.34567901234567 403.67355371901 164.34567901234567 C 404.169421487606 164.34567901234567 404.41735537190397 156.2751322751323 404.9132231405 155.1746031746032 C 405.90495867768794 154.07407407407408 406.400826446282 154.07407407407408 407.39256198347 154.07407407407408 C 407.888429752066 154.07407407407408 408.13636363636397 157.92592592592592 408.63223140496 157.92592592592592 C 409.128099173556 157.92592592592592 409.376033057854 155.72486772488318 409.87190082645 151.87301587301587 C 410.367768595042 148.0211640211795 410.615702479338 138.66666666666669 411.11157024793 138.66666666666669 C 411.607438016526 138.66666666666669 411.85537190082397 156 412.35123966942 156 C 412.847107438016 156 413.09504132231393 142.86868686868686 413.59090909091 142.86868686868686 C 414.08677685950596 142.86868686868686 414.33471074380395 161.77777777777777 414.8305785124 161.77777777777777 C 415.32644628099195 161.77777777777777 415.57438016528806 154.84444444444443 416.07024793388 154.84444444444443 C 416.56611570247605 154.84444444444443 416.81404958677393 154.84444444444443 417.30991735537 156 C 417.80578512396596 157.15555555555557 418.05371900826395 163.7037037037037 418.54958677686 163.7037037037037 C 419.04545454545604 163.7037037037037 419.29338842975403 163.7037037037037 419.78925619835 160.23703703703703 C 420.285123966942 156.77037037037036 420.5330578512379 144.82962962962964 421.02892561983 144.82962962962964 C 421.52479338842596 144.82962962962964 421.772727272724 162.57471264367817 422.26859504132 162.57471264367817 C 422.76446280991604 162.57471264367817 423.01239669421403 147.33333333333334 423.50826446281 147.33333333333334 C 424.00413223140606 147.33333333333334 424.252066115704 172.37037037037038 424.7479338843 177.1851851851852 C 425.243801652896 182 425.491735537194 182 425.98760330579 182 C 426.483471074382 182 426.731404958678 181.5682539682245 427.22727272727 174.22222222222223 C 427.723140495866 166.876190476161 427.971074380164 145.26984126984127 428.46694214876 145.26984126984127 C 428.962809917356 145.26984126984127 429.210743801654 161.77777777777777 429.70661157025 161.77777777777777 C 430.20247933884605 161.77777777777777 430.450413223144 138.66666666666669 430.94628099174 138.66666666666669 C 431.44214876033203 138.66666666666669 431.690082644628 138.66666666666669 432.18595041322 138.66666666666669 C 432.681818181816 138.66666666666669 432.929752066114 161.77777777777777 433.42561983471 161.77777777777777 C 433.921487603306 161.77777777777777 434.169421487604 152.177777777778 434.6652892562 147.9111111111111 C 435.161157024796 143.6444444444447 435.409090909094 140.44444444444446 435.90495867769 140.44444444444446 C 436.400826446282 140.44444444444446 436.648760330578 143.2888888888889 437.14462809917 143.2888888888889 C 437.640495867766 143.2888888888889 437.888429752064 138.66666666666669 438.38429752066 138.66666666666669 C 438.880165289256 138.66666666666669 439.128099173554 159.46666666666667 439.62396694215 159.46666666666667 C 440.119834710746 159.46666666666667 440.36776859504397 150.22222222222223 440.86363636364 150.22222222222223 C 441.4569559228679 150.22222222222223 441.7536157024821 184.88888888888889 442.34693526171 184.88888888888889 C 443.24121900826606 184.88888888888889 443.68836088154404 161.77777777777777 444.5826446281 161.77777777777777 C 445.67183195592395 161.77777777777777 446.216425619836 161.77777777777777 447.30561294766 161.77777777777777 C 447.70402892562 161.77777777777777 447.9032369146 161.77777777777777 448.30165289256 161.77777777777777 C 448.85571625344403 161.77777777777777 449.132747933886 161.77777777777777 449.68681129477 161.77777777777777 C 450.62035123966996 161.77777777777777 451.08712121212 164.34567901234567 452.02066115702 164.34567901234567 C 452.51652892561594 164.34567901234567 452.76446280991394 160.4754850088186 453.26033057851 156 C 453.75619834710596 151.52451499118192 454.5 141.96825396825398 454.5 141.96825396825398" class="highcharts-graph" data-z-index="1" stroke="#5D83FF" stroke-width="2" stroke-linejoin="round" stroke-linecap="round"></path></g><g data-z-index="0.1" class="highcharts-markers highcharts-series-1 highcharts-spline-series highcharts-color-1 " transform="translate(83,99) scale(1 1)" clip-path="none"></g></g><text x="300" text-anchor="middle" class="highcharts-title" data-z-index="4" style="color:#333333;font-size:18px;fill:#333333;" y="24"><tspan>Gluten Free Pasta With Olive Oil Consumption &amp; Overall</tspan><tspan dy="21" x="300">Mood Over Time</tspan></text><text x="300" text-anchor="middle" class="highcharts-subtitle" data-z-index="4" style="color:#666666;fill:#666666;" y="67"><tspan>Black represents the sum of Gluten Free Pasta With Olive Oil consumption over the previous 7</tspan><tspan dy="15" x="300">days</tspan></text><g class="highcharts-legend" data-z-index="7" transform="translate(100,342)"><rect fill="none" class="highcharts-legend-box" rx="0" ry="0" x="0" y="0" width="401" height="43" visibility="visible"></rect><g data-z-index="1"><g><g class="highcharts-legend-item highcharts-spline-series highcharts-color-0 highcharts-series-0" data-z-index="1" transform="translate(8,3)"><path fill="none" d="M 0 11 L 16 11" class="highcharts-graph" stroke="#000000" stroke-width="2"></path><path fill="#000000" d="M 12 11 A 4 4 0 1 1 11.999998000000167 10.996000000666664 Z" class="highcharts-point"></path><text x="21" style="color:#333333;font-size:12px;font-weight:bold;cursor:pointer;fill:#333333;" text-anchor="start" data-z-index="2" y="15"><tspan>Gluten Free Pasta With Olive Oil consumption (serving)</tspan></text></g><g class="highcharts-legend-item highcharts-spline-series highcharts-color-1 highcharts-series-1" data-z-index="1" transform="translate(8,19)"><path fill="none" d="M 0 11 L 16 11" class="highcharts-graph" stroke="#5D83FF" stroke-width="2"></path><path fill="#5D83FF" d="M 8 7 L 12 11 8 15 4 11 Z" class="highcharts-point"></path><text x="21" y="15" style="color:#333333;font-size:12px;font-weight:bold;cursor:pointer;fill:#333333;" text-anchor="start" data-z-index="2"><tspan>Overall Mood (/5)</tspan></text></g></g></g></g><g class="highcharts-axis-labels highcharts-xaxis-labels " data-z-index="7"><text x="272.66511707989" style="color:#666666;cursor:default;font-size:11px;fill:#666666;" text-anchor="start" transform="translate(0,0)" y="326" opacity="1"><tspan>Jul '13</tspan></text><text x="500.76429063361" style="color:#666666;cursor:default;font-size:11px;fill:#666666;" text-anchor="start" transform="translate(0,0)" y="326" opacity="1"><tspan>Jan '14</tspan></text><text x="159.85519972452" style="color:#666666;cursor:default;font-size:11px;fill:#666666;" text-anchor="start" transform="translate(0,0)" y="326" opacity="1"><tspan>Apr '13</tspan></text><text x="386.71470385675" style="color:#666666;cursor:default;font-size:11px;fill:#666666;" text-anchor="start" transform="translate(0,0)" y="326" opacity="1"><tspan>Oct '13</tspan></text></g><g class="highcharts-axis-labels highcharts-yaxis-labels " data-z-index="7"><text x="68" style="color:#666666;cursor:default;font-size:11px;fill:#666666;" text-anchor="end" transform="translate(0,0)" y="311" opacity="1">0</text><text x="68" style="color:#666666;cursor:default;font-size:11px;fill:#666666;" text-anchor="end" transform="translate(0,0)" y="241" opacity="1">1.2</text><text x="68" style="color:#666666;cursor:default;font-size:11px;fill:#666666;" text-anchor="end" transform="translate(0,0)" y="172" opacity="1">2.4</text><text x="68" style="color:#666666;cursor:default;font-size:11px;fill:#666666;" text-anchor="end" transform="translate(0,0)" y="103" opacity="1">3.6</text></g><g class="highcharts-axis-labels highcharts-yaxis-labels " data-z-index="7"><text x="557" style="color:#666666;cursor:default;font-size:11px;fill:#666666;" text-anchor="start" transform="translate(0,0)" y="311" opacity="1">0</text><text x="557" style="color:#666666;cursor:default;font-size:11px;fill:#666666;" text-anchor="start" transform="translate(0,0)" y="241" opacity="1">3</text><text x="557" style="color:#666666;cursor:default;font-size:11px;fill:#666666;" text-anchor="start" transform="translate(0,0)" y="172" opacity="1">6</text><text x="557" style="color:#666666;cursor:default;font-size:11px;fill:#666666;" text-anchor="start" transform="translate(0,0)" y="103" opacity="1">9</text></g><a xlink:href="https://quantimo.do" target="_blank">
                    <text x="590" class="highcharts-credits" text-anchor="end" data-z-index="8"
                          style="cursor:pointer;color:#999999;font-size:9px;fill:#999999;" y="395">https://quantimo.do
                    </text>
                </a></svg>