<?xml version="1.0" standalone="no"?><!DOCTYPE svg PUBLIC "-//W3C//DTD SVG 1.1//EN" "http://www.w3.org/Graphics/SVG/1.1/DTD/svg11.dtd"><svg xmlns:xlink="http://www.w3.org/1999/xlink" version="1.1" class="highcharts-root" style="font-family:&quot;Lucida Grande&quot;, &quot;Lucida Sans Unicode&quot;, Arial, Helvetica, sans-serif;font-size:12px;" xmlns="http://www.w3.org/2000/svg" width="600" height="300"><desc>Created with Highstock 6.2.0</desc><defs><clipPath id="highcharts-eqrl14o-19"><rect x="0" y="0" width="507" height="163" fill="none"></rect></clipPath><clipPath id="highcharts-eqrl14o-32"><rect x="0" y="0" width="507" height="163" fill="none"></rect></clipPath><clipPath id="highcharts-eqrl14o-33"><rect x="83" y="78" width="507" height="163" fill="none"></rect></clipPath></defs><rect fill="#ffffff" class="highcharts-background" x="0" y="0" width="600" height="300" rx="0" ry="0"></rect><rect fill="none" class="highcharts-plot-background" x="83" y="78" width="507" height="163"></rect><g class="highcharts-pane-group" data-z-index="0"></g><g class="highcharts-grid highcharts-xaxis-grid " data-z-index="1"><path fill="none" data-z-index="1" class="highcharts-grid-line" d="M 124.5 78 L 124.5 241" opacity="1"></path><path fill="none" data-z-index="1" class="highcharts-grid-line" d="M 167.5 78 L 167.5 241" opacity="1"></path><path fill="none" data-z-index="1" class="highcharts-grid-line" d="M 209.5 78 L 209.5 241" opacity="1"></path><path fill="none" data-z-index="1" class="highcharts-grid-line" d="M 251.5 78 L 251.5 241" opacity="1"></path><path fill="none" data-z-index="1" class="highcharts-grid-line" d="M 293.5 78 L 293.5 241" opacity="1"></path><path fill="none" data-z-index="1" class="highcharts-grid-line" d="M 336.5 78 L 336.5 241" opacity="1"></path><path fill="none" data-z-index="1" class="highcharts-grid-line" d="M 378.5 78 L 378.5 241" opacity="1"></path><path fill="none" data-z-index="1" class="highcharts-grid-line" d="M 420.5 78 L 420.5 241" opacity="1"></path><path fill="none" data-z-index="1" class="highcharts-grid-line" d="M 462.5 78 L 462.5 241" opacity="1"></path><path fill="none" data-z-index="1" class="highcharts-grid-line" d="M 505.5 78 L 505.5 241" opacity="1"></path><path fill="none" data-z-index="1" class="highcharts-grid-line" d="M 547.5 78 L 547.5 241" opacity="1"></path><path fill="none" data-z-index="1" class="highcharts-grid-line" d="M 589.5 78 L 589.5 241" opacity="1"></path><path fill="none" data-z-index="1" class="highcharts-grid-line" d="M 82.5 78 L 82.5 241" opacity="1"></path></g><g class="highcharts-grid highcharts-yaxis-grid " data-z-index="1"><path fill="none" stroke="#e6e6e6" stroke-width="1" data-z-index="1" class="highcharts-grid-line" d="M 83 241.5 L 590 241.5" opacity="1"></path><path fill="none" stroke="#e6e6e6" stroke-width="1" data-z-index="1" class="highcharts-grid-line" d="M 83 200.5 L 590 200.5" opacity="1"></path><path fill="none" stroke="#e6e6e6" stroke-width="1" data-z-index="1" class="highcharts-grid-line" d="M 83 160.5 L 590 160.5" opacity="1"></path><path fill="none" stroke="#e6e6e6" stroke-width="1" data-z-index="1" class="highcharts-grid-line" d="M 83 119.5 L 590 119.5" opacity="1"></path><path fill="none" stroke="#e6e6e6" stroke-width="1" data-z-index="1" class="highcharts-grid-line" d="M 83 77.5 L 590 77.5" opacity="1"></path></g><rect fill="none" class="highcharts-plot-border" data-z-index="1" x="83" y="78" width="507" height="163"></rect><g class="highcharts-axis highcharts-xaxis " data-z-index="2"><path fill="none" class="highcharts-tick" stroke="#ccd6eb" stroke-width="1" d="M 124.5 241 L 124.5 251" opacity="1"></path><path fill="none" class="highcharts-tick" stroke="#ccd6eb" stroke-width="1" d="M 167.5 241 L 167.5 251" opacity="1"></path><path fill="none" class="highcharts-tick" stroke="#ccd6eb" stroke-width="1" d="M 209.5 241 L 209.5 251" opacity="1"></path><path fill="none" class="highcharts-tick" stroke="#ccd6eb" stroke-width="1" d="M 251.5 241 L 251.5 251" opacity="1"></path><path fill="none" class="highcharts-tick" stroke="#ccd6eb" stroke-width="1" d="M 293.5 241 L 293.5 251" opacity="1"></path><path fill="none" class="highcharts-tick" stroke="#ccd6eb" stroke-width="1" d="M 336.5 241 L 336.5 251" opacity="1"></path><path fill="none" class="highcharts-tick" stroke="#ccd6eb" stroke-width="1" d="M 378.5 241 L 378.5 251" opacity="1"></path><path fill="none" class="highcharts-tick" stroke="#ccd6eb" stroke-width="1" d="M 420.5 241 L 420.5 251" opacity="1"></path><path fill="none" class="highcharts-tick" stroke="#ccd6eb" stroke-width="1" d="M 462.5 241 L 462.5 251" opacity="1"></path><path fill="none" class="highcharts-tick" stroke="#ccd6eb" stroke-width="1" d="M 505.5 241 L 505.5 251" opacity="1"></path><path fill="none" class="highcharts-tick" stroke="#ccd6eb" stroke-width="1" d="M 547.5 241 L 547.5 251" opacity="1"></path><path fill="none" class="highcharts-tick" stroke="#ccd6eb" stroke-width="1" d="M 590.5 241 L 590.5 251" opacity="1"></path><path fill="none" class="highcharts-tick" stroke="#ccd6eb" stroke-width="1" d="M 82.5 241 L 82.5 251" opacity="1"></path><text x="336.5" data-z-index="7" text-anchor="middle" transform="translate(0,0)" class="highcharts-axis-title" style="color:#666666;fill:#666666;" y="281"><tspan>Average Daily Body Fat (Percent)</tspan></text><path fill="none" class="highcharts-axis-line" stroke="#ccd6eb" stroke-width="1" data-z-index="7" d="M 83 241.5 L 590 241.5"></path></g><g class="highcharts-axis highcharts-yaxis " data-z-index="2"><text x="26" data-z-index="7" text-anchor="middle" transform="translate(0,0) rotate(270 26 159.5)" class="highcharts-axis-title" style="color:#666666;fill:#666666;" y="159.5"><tspan>Average Daily Overall Mood</tspan><tspan dy="15" x="26">(1 to 5 Rating)</tspan></text><path fill="none" class="highcharts-axis-line" data-z-index="7" d="M 83 78 L 83 241"></path></g><g class="highcharts-series-group" data-z-index="3"><g data-z-index="0.1" class="highcharts-series highcharts-series-0 highcharts-column-series highcharts-color-0 " transform="translate(83,78) scale(1 1)" clip-path="url(#highcharts-eqrl14o-32)"><rect x="10.5" y="81.5" width="21" height="82" fill="#000000" stroke="#ffffff" stroke-width="1" class="highcharts-point highcharts-color-0"></rect><rect x="52.5" y="82.5" width="21" height="81" fill="#000000" stroke="#ffffff" stroke-width="1" class="highcharts-point highcharts-color-0"></rect><rect x="94.5" y="68.5" width="21" height="95" fill="#000000" stroke="#ffffff" stroke-width="1" class="highcharts-point highcharts-color-0"></rect><rect x="137.5" y="100.5" width="21" height="63" fill="#000000" stroke="#ffffff" stroke-width="1" class="highcharts-point highcharts-color-0"></rect><rect x="179.5" y="78.5" width="21" height="85" fill="#000000" stroke="#ffffff" stroke-width="1" class="highcharts-point highcharts-color-0"></rect><rect x="221.5" y="82.5" width="21" height="81" fill="#000000" stroke="#ffffff" stroke-width="1" class="highcharts-point highcharts-color-0"></rect><rect x="263.5" y="125.5" width="21" height="38" fill="#000000" stroke="#ffffff" stroke-width="1" class="highcharts-point highcharts-color-0"></rect><rect x="306.5" y="51.5" width="21" height="112" fill="#000000" stroke="#ffffff" stroke-width="1" class="highcharts-point highcharts-color-0"></rect><rect x="348.5" y="58.5" width="21" height="105" fill="#000000" stroke="#ffffff" stroke-width="1" class="highcharts-point highcharts-color-0"></rect><rect x="390.5" y="84.5" width="21" height="79" fill="#000000" stroke="#ffffff" stroke-width="1" class="highcharts-point highcharts-color-0"></rect><rect x="432.5" y="41.5" width="21" height="122" fill="#000000" stroke="#ffffff" stroke-width="1" class="highcharts-point highcharts-color-0"></rect><rect x="475.5" y="41.5" width="21" height="122" fill="#000000" stroke="#ffffff" stroke-width="1" class="highcharts-point highcharts-color-0"></rect></g><g data-z-index="0.1" class="highcharts-markers highcharts-series-0 highcharts-column-series highcharts-color-0 " transform="translate(83,78) scale(1 1)" clip-path="none"></g></g><text x="300" text-anchor="middle" class="highcharts-title" data-z-index="4" style="color:#333333;font-size:18px;fill:#333333;" y="24"><tspan>Average Overall Mood by Previous Body Fat</tspan></text><text x="300" text-anchor="middle" class="highcharts-subtitle" data-z-index="4" style="color:#666666;fill:#666666;" y="46"><tspan>Typical values for Overall Mood following a given amount of Body Fat over the previous 7</tspan><tspan dy="15" x="300">days.</tspan></text><g class="highcharts-axis-labels highcharts-xaxis-labels " data-z-index="7"><text x="104.125" style="color:#666666;cursor:default;font-size:11px;fill:#666666;" text-anchor="middle" transform="translate(0,0)" y="260" opacity="1">3</text><text x="146.375" style="color:#666666;cursor:default;font-size:11px;fill:#666666;" text-anchor="middle" transform="translate(0,0)" y="260" opacity="1">4</text><text x="188.625" style="color:#666666;cursor:default;font-size:11px;fill:#666666;" text-anchor="middle" transform="translate(0,0)" y="260" opacity="1">5</text><text x="230.875" style="color:#666666;cursor:default;font-size:11px;fill:#666666;" text-anchor="middle" transform="translate(0,0)" y="260" opacity="1">6</text><text x="273.125" style="color:#666666;cursor:default;font-size:11px;fill:#666666;" text-anchor="middle" transform="translate(0,0)" y="260" opacity="1">7</text><text x="315.375" style="color:#666666;cursor:default;font-size:11px;fill:#666666;" text-anchor="middle" transform="translate(0,0)" y="260" opacity="1">8</text><text x="357.625" style="color:#666666;cursor:default;font-size:11px;fill:#666666;" text-anchor="middle" transform="translate(0,0)" y="260" opacity="1">9</text><text x="399.875" style="color:#666666;cursor:default;font-size:11px;fill:#666666;" text-anchor="middle" transform="translate(0,0)" y="260" opacity="1">10</text><text x="442.125" style="color:#666666;cursor:default;font-size:11px;fill:#666666;" text-anchor="middle" transform="translate(0,0)" y="260" opacity="1">20</text><text x="484.375" style="color:#666666;cursor:default;font-size:11px;fill:#666666;" text-anchor="middle" transform="translate(0,0)" y="260" opacity="1">30</text><text x="526.625" style="color:#666666;cursor:default;font-size:11px;fill:#666666;" text-anchor="middle" transform="translate(0,0)" y="260" opacity="1">50</text><text x="568.875" style="color:#666666;cursor:default;font-size:11px;fill:#666666;" text-anchor="middle" transform="translate(0,0)" y="260" opacity="1">80</text></g><g class="highcharts-axis-labels highcharts-yaxis-labels " data-z-index="7"><text x="68" style="color:#666666;cursor:default;font-size:11px;fill:#666666;" text-anchor="end" transform="translate(0,0)" y="245" opacity="1">2.4</text><text x="68" style="color:#666666;cursor:default;font-size:11px;fill:#666666;" text-anchor="end" transform="translate(0,0)" y="204" opacity="1">2.6</text><text x="68" style="color:#666666;cursor:default;font-size:11px;fill:#666666;" text-anchor="end" transform="translate(0,0)" y="163" opacity="1">2.8</text><text x="68" style="color:#666666;cursor:default;font-size:11px;fill:#666666;" text-anchor="end" transform="translate(0,0)" y="122" opacity="1">3</text><text x="68" style="color:#666666;cursor:default;font-size:11px;fill:#666666;" text-anchor="end" transform="translate(0,0)" y="82" opacity="1">3.2</text></g><a xlink:href="https://quantimo.do" target="_blank">
                    <text x="590" class="highcharts-credits" text-anchor="end" data-z-index="8"
                          style="cursor:pointer;color:#999999;font-size:9px;fill:#999999;" y="295">https://quantimo.do
                    </text>
                </a></svg>