<?xml version="1.0" standalone="no"?><!DOCTYPE svg PUBLIC "-//W3C//DTD SVG 1.1//EN" "http://www.w3.org/Graphics/SVG/1.1/DTD/svg11.dtd"><svg xmlns:xlink="http://www.w3.org/1999/xlink" version="1.1" class="highcharts-root" style="font-family:&quot;Lucida Grande&quot;, &quot;Lucida Sans Unicode&quot;, Arial, Helvetica, sans-serif;font-size:12px;" xmlns="http://www.w3.org/2000/svg" width="600" height="300"><desc>Created with Highstock 6.2.0</desc><defs><clipPath id="highcharts-q9baq6h-28"><rect x="0" y="0" width="511" height="156" fill="none"></rect></clipPath><clipPath id="highcharts-q9baq6h-50"><rect x="0" y="0" width="511" height="156" fill="none"></rect></clipPath><clipPath id="highcharts-q9baq6h-51"><rect x="79" y="63" width="511" height="156" fill="none"></rect></clipPath></defs><rect fill="#ffffff" class="highcharts-background" x="0" y="0" width="600" height="300" rx="0" ry="0"></rect><rect fill="none" class="highcharts-plot-background" x="79" y="63" width="511" height="156"></rect><g class="highcharts-pane-group" data-z-index="0"></g><g class="highcharts-grid highcharts-xaxis-grid " data-z-index="1"><path fill="none" data-z-index="1" class="highcharts-grid-line" d="M 102.5 63 L 102.5 219" opacity="1"></path><path fill="none" data-z-index="1" class="highcharts-grid-line" d="M 127.5 63 L 127.5 219" opacity="1"></path><path fill="none" data-z-index="1" class="highcharts-grid-line" d="M 151.5 63 L 151.5 219" opacity="1"></path><path fill="none" data-z-index="1" class="highcharts-grid-line" d="M 175.5 63 L 175.5 219" opacity="1"></path><path fill="none" data-z-index="1" class="highcharts-grid-line" d="M 200.5 63 L 200.5 219" opacity="1"></path><path fill="none" data-z-index="1" class="highcharts-grid-line" d="M 224.5 63 L 224.5 219" opacity="1"></path><path fill="none" data-z-index="1" class="highcharts-grid-line" d="M 248.5 63 L 248.5 219" opacity="1"></path><path fill="none" data-z-index="1" class="highcharts-grid-line" d="M 273.5 63 L 273.5 219" opacity="1"></path><path fill="none" data-z-index="1" class="highcharts-grid-line" d="M 297.5 63 L 297.5 219" opacity="1"></path><path fill="none" data-z-index="1" class="highcharts-grid-line" d="M 321.5 63 L 321.5 219" opacity="1"></path><path fill="none" data-z-index="1" class="highcharts-grid-line" d="M 346.5 63 L 346.5 219" opacity="1"></path><path fill="none" data-z-index="1" class="highcharts-grid-line" d="M 370.5 63 L 370.5 219" opacity="1"></path><path fill="none" data-z-index="1" class="highcharts-grid-line" d="M 394.5 63 L 394.5 219" opacity="1"></path><path fill="none" data-z-index="1" class="highcharts-grid-line" d="M 419.5 63 L 419.5 219" opacity="1"></path><path fill="none" data-z-index="1" class="highcharts-grid-line" d="M 443.5 63 L 443.5 219" opacity="1"></path><path fill="none" data-z-index="1" class="highcharts-grid-line" d="M 467.5 63 L 467.5 219" opacity="1"></path><path fill="none" data-z-index="1" class="highcharts-grid-line" d="M 492.5 63 L 492.5 219" opacity="1"></path><path fill="none" data-z-index="1" class="highcharts-grid-line" d="M 516.5 63 L 516.5 219" opacity="1"></path><path fill="none" data-z-index="1" class="highcharts-grid-line" d="M 540.5 63 L 540.5 219" opacity="1"></path><path fill="none" data-z-index="1" class="highcharts-grid-line" d="M 565.5 63 L 565.5 219" opacity="1"></path><path fill="none" data-z-index="1" class="highcharts-grid-line" d="M 589.5 63 L 589.5 219" opacity="1"></path><path fill="none" data-z-index="1" class="highcharts-grid-line" d="M 78.5 63 L 78.5 219" opacity="1"></path></g><g class="highcharts-grid highcharts-yaxis-grid " data-z-index="1"><path fill="none" stroke="#e6e6e6" stroke-width="1" data-z-index="1" class="highcharts-grid-line" d="M 79 219.5 L 590 219.5" opacity="1"></path><path fill="none" stroke="#e6e6e6" stroke-width="1" data-z-index="1" class="highcharts-grid-line" d="M 79 167.5 L 590 167.5" opacity="1"></path><path fill="none" stroke="#e6e6e6" stroke-width="1" data-z-index="1" class="highcharts-grid-line" d="M 79 115.5 L 590 115.5" opacity="1"></path><path fill="none" stroke="#e6e6e6" stroke-width="1" data-z-index="1" class="highcharts-grid-line" d="M 79 62.5 L 590 62.5" opacity="1"></path></g><rect fill="none" class="highcharts-plot-border" data-z-index="1" x="79" y="63" width="511" height="156"></rect><g class="highcharts-axis highcharts-xaxis " data-z-index="2"><path fill="none" class="highcharts-tick" stroke="#ccd6eb" stroke-width="1" d="M 102.5 219 L 102.5 229" opacity="1"></path><path fill="none" class="highcharts-tick" stroke="#ccd6eb" stroke-width="1" d="M 127.5 219 L 127.5 229" opacity="1"></path><path fill="none" class="highcharts-tick" stroke="#ccd6eb" stroke-width="1" d="M 151.5 219 L 151.5 229" opacity="1"></path><path fill="none" class="highcharts-tick" stroke="#ccd6eb" stroke-width="1" d="M 175.5 219 L 175.5 229" opacity="1"></path><path fill="none" class="highcharts-tick" stroke="#ccd6eb" stroke-width="1" d="M 200.5 219 L 200.5 229" opacity="1"></path><path fill="none" class="highcharts-tick" stroke="#ccd6eb" stroke-width="1" d="M 224.5 219 L 224.5 229" opacity="1"></path><path fill="none" class="highcharts-tick" stroke="#ccd6eb" stroke-width="1" d="M 248.5 219 L 248.5 229" opacity="1"></path><path fill="none" class="highcharts-tick" stroke="#ccd6eb" stroke-width="1" d="M 273.5 219 L 273.5 229" opacity="1"></path><path fill="none" class="highcharts-tick" stroke="#ccd6eb" stroke-width="1" d="M 297.5 219 L 297.5 229" opacity="1"></path><path fill="none" class="highcharts-tick" stroke="#ccd6eb" stroke-width="1" d="M 321.5 219 L 321.5 229" opacity="1"></path><path fill="none" class="highcharts-tick" stroke="#ccd6eb" stroke-width="1" d="M 346.5 219 L 346.5 229" opacity="1"></path><path fill="none" class="highcharts-tick" stroke="#ccd6eb" stroke-width="1" d="M 370.5 219 L 370.5 229" opacity="1"></path><path fill="none" class="highcharts-tick" stroke="#ccd6eb" stroke-width="1" d="M 394.5 219 L 394.5 229" opacity="1"></path><path fill="none" class="highcharts-tick" stroke="#ccd6eb" stroke-width="1" d="M 419.5 219 L 419.5 229" opacity="1"></path><path fill="none" class="highcharts-tick" stroke="#ccd6eb" stroke-width="1" d="M 443.5 219 L 443.5 229" opacity="1"></path><path fill="none" class="highcharts-tick" stroke="#ccd6eb" stroke-width="1" d="M 467.5 219 L 467.5 229" opacity="1"></path><path fill="none" class="highcharts-tick" stroke="#ccd6eb" stroke-width="1" d="M 492.5 219 L 492.5 229" opacity="1"></path><path fill="none" class="highcharts-tick" stroke="#ccd6eb" stroke-width="1" d="M 516.5 219 L 516.5 229" opacity="1"></path><path fill="none" class="highcharts-tick" stroke="#ccd6eb" stroke-width="1" d="M 540.5 219 L 540.5 229" opacity="1"></path><path fill="none" class="highcharts-tick" stroke="#ccd6eb" stroke-width="1" d="M 565.5 219 L 565.5 229" opacity="1"></path><path fill="none" class="highcharts-tick" stroke="#ccd6eb" stroke-width="1" d="M 590.5 219 L 590.5 229" opacity="1"></path><path fill="none" class="highcharts-tick" stroke="#ccd6eb" stroke-width="1" d="M 78.5 219 L 78.5 229" opacity="1"></path><text x="334.5" data-z-index="7" text-anchor="middle" transform="translate(0,0)" class="highcharts-axis-title" style="color:#666666;fill:#666666;" y="281.47665940288704"><tspan>Daily Values (h)</tspan></text><path fill="none" class="highcharts-axis-line" stroke="#ccd6eb" stroke-width="1" data-z-index="7" d="M 79 219.5 L 590 219.5"></path></g><g class="highcharts-axis highcharts-yaxis " data-z-index="2"><text x="26" data-z-index="7" text-anchor="middle" transform="translate(0,0) rotate(270 26 141)" class="highcharts-axis-title" style="color:#666666;fill:#666666;" y="141"><tspan>Number of Days</tspan></text><path fill="none" class="highcharts-axis-line" data-z-index="7" d="M 79 63 L 79 219"></path></g><g class="highcharts-series-group" data-z-index="3"><g data-z-index="0.1" class="highcharts-series highcharts-series-0 highcharts-column-series highcharts-color-0 " transform="translate(79,63) scale(1 1)" clip-path="url(#highcharts-q9baq6h-50)"><rect x="5.5" y="40.5" width="12" height="116" fill="#000000" stroke="#ffffff" stroke-width="1" class="highcharts-point highcharts-color-0"></rect><rect x="30.5" y="156.5" width="12" height="0" fill="#000000" stroke="#ffffff" stroke-width="1" class="highcharts-point highcharts-color-0"></rect><rect x="54.5" y="156.5" width="12" height="0" fill="#000000" stroke="#ffffff" stroke-width="1" class="highcharts-point highcharts-color-0"></rect><rect x="78.5" y="156.5" width="12" height="0" fill="#000000" stroke="#ffffff" stroke-width="1" class="highcharts-point highcharts-color-0"></rect><rect x="103.5" y="156.5" width="12" height="0" fill="#000000" stroke="#ffffff" stroke-width="1" class="highcharts-point highcharts-color-0"></rect><rect x="127.5" y="155.5" width="12" height="1" fill="#000000" stroke="#ffffff" stroke-width="1" class="highcharts-point highcharts-color-0"></rect><rect x="151.5" y="155.5" width="12" height="1" fill="#000000" stroke="#ffffff" stroke-width="1" class="highcharts-point highcharts-color-0"></rect><rect x="176.5" y="156.5" width="12" height="0" fill="#000000" stroke="#ffffff" stroke-width="1" class="highcharts-point highcharts-color-0"></rect><rect x="200.5" y="156.5" width="12" height="0" fill="#000000" stroke="#ffffff" stroke-width="1" class="highcharts-point highcharts-color-0"></rect><rect x="224.5" y="155.5" width="12" height="1" fill="#000000" stroke="#ffffff" stroke-width="1" class="highcharts-point highcharts-color-0"></rect><rect x="249.5" y="155.5" width="12" height="1" fill="#000000" stroke="#ffffff" stroke-width="1" class="highcharts-point highcharts-color-0"></rect><rect x="273.5" y="156.5" width="12" height="0" fill="#000000" stroke="#ffffff" stroke-width="1" class="highcharts-point highcharts-color-0"></rect><rect x="297.5" y="155.5" width="12" height="1" fill="#000000" stroke="#ffffff" stroke-width="1" class="highcharts-point highcharts-color-0"></rect><rect x="322.5" y="155.5" width="12" height="1" fill="#000000" stroke="#ffffff" stroke-width="1" class="highcharts-point highcharts-color-0"></rect><rect x="346.5" y="155.5" width="12" height="1" fill="#000000" stroke="#ffffff" stroke-width="1" class="highcharts-point highcharts-color-0"></rect><rect x="370.5" y="156.5" width="12" height="0" fill="#000000" stroke="#ffffff" stroke-width="1" class="highcharts-point highcharts-color-0"></rect><rect x="395.5" y="156.5" width="12" height="0" fill="#000000" stroke="#ffffff" stroke-width="1" class="highcharts-point highcharts-color-0"></rect><rect x="419.5" y="156.5" width="12" height="0" fill="#000000" stroke="#ffffff" stroke-width="1" class="highcharts-point highcharts-color-0"></rect><rect x="443.5" y="156.5" width="12" height="0" fill="#000000" stroke="#ffffff" stroke-width="1" class="highcharts-point highcharts-color-0"></rect><rect x="468.5" y="156.5" width="12" height="0" fill="#000000" stroke="#ffffff" stroke-width="1" class="highcharts-point highcharts-color-0"></rect><rect x="492.5" y="156.5" width="12" height="0" fill="#000000" stroke="#ffffff" stroke-width="1" class="highcharts-point highcharts-color-0"></rect></g><g data-z-index="0.1" class="highcharts-markers highcharts-series-0 highcharts-column-series highcharts-color-0 " transform="translate(79,63) scale(1 1)" clip-path="none"></g></g><text x="300" text-anchor="middle" class="highcharts-title" data-z-index="4" style="color:#333333;font-size:18px;fill:#333333;" y="24"><tspan>Daily Quantifiedself.com Usage Distribution</tspan></text><text x="300" text-anchor="middle" class="highcharts-subtitle" data-z-index="4" style="color:#666666;fill:#666666;" y="46"><tspan>Each column represents the number of days this value occurred.</tspan></text><g class="highcharts-axis-labels highcharts-xaxis-labels " data-z-index="7"><text x="93.759391531014" style="color:#666666;cursor:default;font-size:11px;fill:#666666;" text-anchor="end" transform="translate(0,0) rotate(-45 93.759391531014 235)" y="235" opacity="1">0</text><text x="118.092724864354" style="color:#666666;cursor:default;font-size:11px;fill:#666666;" text-anchor="end" transform="translate(0,0) rotate(-45 118.092724864354 235)" y="235" opacity="1">0.0006</text><text x="142.42605819768403" style="color:#666666;cursor:default;font-size:11px;fill:#666666;" text-anchor="end" transform="translate(0,0) rotate(-45 142.42605819768403 235)" y="235" opacity="1">0.0008</text><text x="166.75939153101402" style="color:#666666;cursor:default;font-size:11px;fill:#666666;" text-anchor="end" transform="translate(0,0) rotate(-45 166.75939153101402 235)" y="235" opacity="1">0.001</text><text x="191.09272486435404" style="color:#666666;cursor:default;font-size:11px;fill:#666666;" text-anchor="end" transform="translate(0,0) rotate(-45 191.09272486435404 235)" y="235" opacity="1">0.002</text><text x="215.42605819768403" style="color:#666666;cursor:default;font-size:11px;fill:#666666;" text-anchor="end" transform="translate(0,0) rotate(-45 215.42605819768403 235)" y="235" opacity="1">0.003</text><text x="239.75939153101402" style="color:#666666;cursor:default;font-size:11px;fill:#666666;" text-anchor="end" transform="translate(0,0) rotate(-45 239.75939153101402 235)" y="235" opacity="1">0.004</text><text x="264.09272486435395" style="color:#666666;cursor:default;font-size:11px;fill:#666666;" text-anchor="end" transform="translate(0,0) rotate(-45 264.09272486435395 235)" y="235" opacity="1">0.005</text><text x="288.426058197684" style="color:#666666;cursor:default;font-size:11px;fill:#666666;" text-anchor="end" transform="translate(0,0) rotate(-45 288.426058197684 235)" y="235" opacity="1">0.006</text><text x="312.759391531014" style="color:#666666;cursor:default;font-size:11px;fill:#666666;" text-anchor="end" transform="translate(0,0) rotate(-45 312.759391531014 235)" y="235" opacity="1">0.007</text><text x="337.09272486435395" style="color:#666666;cursor:default;font-size:11px;fill:#666666;" text-anchor="end" transform="translate(0,0) rotate(-45 337.09272486435395 235)" y="235" opacity="1">0.008</text><text x="361.426058197684" style="color:#666666;cursor:default;font-size:11px;fill:#666666;" text-anchor="end" transform="translate(0,0) rotate(-45 361.426058197684 235)" y="235" opacity="1">0.009</text><text x="385.759391531014" style="color:#666666;cursor:default;font-size:11px;fill:#666666;" text-anchor="end" transform="translate(0,0) rotate(-45 385.759391531014 235)" y="235" opacity="1">0.01</text><text x="410.09272486435395" style="color:#666666;cursor:default;font-size:11px;fill:#666666;" text-anchor="end" transform="translate(0,0) rotate(-45 410.09272486435395 235)" y="235" opacity="1">0.02</text><text x="434.426058197684" style="color:#666666;cursor:default;font-size:11px;fill:#666666;" text-anchor="end" transform="translate(0,0) rotate(-45 434.426058197684 235)" y="235" opacity="1">0.03</text><text x="458.759391531014" style="color:#666666;cursor:default;font-size:11px;fill:#666666;" text-anchor="end" transform="translate(0,0) rotate(-45 458.759391531014 235)" y="235" opacity="1">0.04</text><text x="483.09272486435395" style="color:#666666;cursor:default;font-size:11px;fill:#666666;" text-anchor="end" transform="translate(0,0) rotate(-45 483.09272486435395 235)" y="235" opacity="1">0.05</text><text x="507.426058197684" style="color:#666666;cursor:default;font-size:11px;fill:#666666;" text-anchor="end" transform="translate(0,0) rotate(-45 507.426058197684 235)" y="235" opacity="1">0.07</text><text x="531.759391531014" style="color:#666666;cursor:default;font-size:11px;fill:#666666;" text-anchor="end" transform="translate(0,0) rotate(-45 531.759391531014 235)" y="235" opacity="1">0.08</text><text x="556.0927248643541" style="color:#666666;cursor:default;font-size:11px;fill:#666666;" text-anchor="end" transform="translate(0,0) rotate(-45 556.0927248643541 235)" y="235" opacity="1">0.1</text><text x="580.426058197684" style="color:#666666;cursor:default;font-size:11px;fill:#666666;" text-anchor="end" transform="translate(0,0) rotate(-45 580.426058197684 235)" y="235" opacity="1">0.2</text></g><g class="highcharts-axis-labels highcharts-yaxis-labels " data-z-index="7"><text x="64" style="color:#666666;cursor:default;font-size:11px;fill:#666666;" text-anchor="end" transform="translate(0,0)" y="223" opacity="1">0</text><text x="64" style="color:#666666;cursor:default;font-size:11px;fill:#666666;" text-anchor="end" transform="translate(0,0)" y="171" opacity="1">500</text><text x="64" style="color:#666666;cursor:default;font-size:11px;fill:#666666;" text-anchor="end" transform="translate(0,0)" y="119" opacity="1">1000</text><text x="64" style="color:#666666;cursor:default;font-size:11px;fill:#666666;" text-anchor="end" transform="translate(0,0)" y="67" opacity="1">1500</text></g><a xlink:href="https://quantimo.do" target="_blank">
                    <text x="590" class="highcharts-credits" text-anchor="end" data-z-index="8"
                          style="cursor:pointer;color:#999999;font-size:9px;fill:#999999;" y="295">https://quantimo.do
                    </text>
                </a></svg>