<?xml version="1.0" standalone="no"?><!DOCTYPE svg PUBLIC "-//W3C//DTD SVG 1.1//EN" "http://www.w3.org/Graphics/SVG/1.1/DTD/svg11.dtd"><svg xmlns:xlink="http://www.w3.org/1999/xlink" version="1.1" class="highcharts-root" style="font-family:&quot;Lucida Grande&quot;, &quot;Lucida Sans Unicode&quot;, Arial, Helvetica, sans-serif;font-size:12px;" xmlns="http://www.w3.org/2000/svg" width="600" height="400"><desc>Created with Highstock 6.2.0</desc><defs><clipPath id="highcharts-8we6amv-341"><rect x="0" y="0" width="544" height="299" fill="none"></rect></clipPath><clipPath id="highcharts-8we6amv-676"><rect x="0" y="0" width="544" height="299" fill="none"></rect></clipPath><clipPath id="highcharts-8we6amv-677"><rect x="46" y="63" width="544" height="299" fill="none"></rect></clipPath></defs><rect fill="#ffffff" class="highcharts-background" x="0" y="0" width="600" height="400" rx="0" ry="0"></rect><rect fill="none" class="highcharts-plot-background" x="46" y="63" width="544" height="299"></rect><g class="highcharts-pane-group" data-z-index="0"></g><g class="highcharts-grid highcharts-xaxis-grid " data-z-index="1"><path fill="none" data-z-index="1" class="highcharts-grid-line" d="M 65.5 63 L 65.5 362" opacity="1"></path><path fill="none" data-z-index="1" class="highcharts-grid-line" d="M 165.5 63 L 165.5 362" opacity="1"></path><path fill="none" data-z-index="1" class="highcharts-grid-line" d="M 262.5 63 L 262.5 362" opacity="1"></path><path fill="none" data-z-index="1" class="highcharts-grid-line" d="M 360.5 63 L 360.5 362" opacity="1"></path><path fill="none" data-z-index="1" class="highcharts-grid-line" d="M 454.5 63 L 454.5 362" opacity="1"></path><path fill="none" data-z-index="1" class="highcharts-grid-line" d="M 552.5 63 L 552.5 362" opacity="1"></path></g><g class="highcharts-grid highcharts-yaxis-grid " data-z-index="1"><path fill="none" stroke="#e6e6e6" stroke-width="1" data-z-index="1" class="highcharts-grid-line" d="M 46 362.5 L 590 362.5" opacity="1"></path><path fill="none" stroke="#e6e6e6" stroke-width="1" data-z-index="1" class="highcharts-grid-line" d="M 46 302.5 L 590 302.5" opacity="1"></path><path fill="none" stroke="#e6e6e6" stroke-width="1" data-z-index="1" class="highcharts-grid-line" d="M 46 242.5 L 590 242.5" opacity="1"></path><path fill="none" stroke="#e6e6e6" stroke-width="1" data-z-index="1" class="highcharts-grid-line" d="M 46 183.5 L 590 183.5" opacity="1"></path><path fill="none" stroke="#e6e6e6" stroke-width="1" data-z-index="1" class="highcharts-grid-line" d="M 46 123.5 L 590 123.5" opacity="1"></path><path fill="none" stroke="#e6e6e6" stroke-width="1" data-z-index="1" class="highcharts-grid-line" d="M 46 62.5 L 590 62.5" opacity="1"></path></g><rect fill="none" class="highcharts-plot-border" data-z-index="1" x="46" y="63" width="544" height="299"></rect><g class="highcharts-axis highcharts-xaxis " data-z-index="2"><path fill="none" class="highcharts-tick" stroke="#ccd6eb" stroke-width="1" d="M 65.5 362 L 65.5 372" opacity="1"></path><path fill="none" class="highcharts-tick" stroke="#ccd6eb" stroke-width="1" d="M 165.5 362 L 165.5 372" opacity="1"></path><path fill="none" class="highcharts-tick" stroke="#ccd6eb" stroke-width="1" d="M 262.5 362 L 262.5 372" opacity="1"></path><path fill="none" class="highcharts-tick" stroke="#ccd6eb" stroke-width="1" d="M 360.5 362 L 360.5 372" opacity="1"></path><path fill="none" class="highcharts-tick" stroke="#ccd6eb" stroke-width="1" d="M 454.5 362 L 454.5 372" opacity="1"></path><path fill="none" class="highcharts-tick" stroke="#ccd6eb" stroke-width="1" d="M 552.5 362 L 552.5 372" opacity="1"></path><path fill="none" class="highcharts-axis-line" stroke="#ccd6eb" stroke-width="1" data-z-index="7" d="M 46 362.5 L 590 362.5"></path></g><g class="highcharts-axis highcharts-yaxis " data-z-index="2"><path fill="none" class="highcharts-axis-line" data-z-index="7" d="M 46 63 L 46 362"></path></g><g class="highcharts-series-group" data-z-index="3"><g data-z-index="0.1" class="highcharts-series highcharts-series-0 highcharts-spline-series highcharts-color-0 " transform="translate(46,63) scale(1 1)" clip-path="url(#highcharts-8we6amv-676)"><path fill="none" d="M 5.3333333333333 299 C 5.3333333333333 299 6.29429429429426 299 6.9349349349349 299 C 7.57557557557554 299 7.89589589589586 299 8.5365365365365 299 C 9.1771771771771 299 9.4974974974974 299 10.138138138138 299 C 10.7787787787788 299 11.099099099099199 299 11.73973973974 299 C 12.380380380380398 299 12.7007007007006 299 13.341341341341 299 C 13.9819819819818 299 14.3023023023022 299 14.942942942943 299 C 15.583583583583799 299 15.9039039039042 299 16.544544544545 299 C 17.1851851851854 299 17.505505505505603 299 18.146146146146 299 C 18.7867867867868 299 19.1071071071072 299 19.747747747748 299 C 20.3883883883884 299 20.708708708708603 299 21.349349349349 299 C 21.9899899899898 299 22.3103103103102 299 22.950950950951 299 C 23.5915915915918 299 23.9119119119122 299 24.552552552553 299 C 25.1931931931934 299 25.5135135135136 299 26.154154154154 299 C 26.794794794794804 299 27.115115115115202 299 27.755755755756 299 C 28.396396396396398 299 28.716716716716597 299 29.357357357357 299 C 29.9979979979978 299 30.318318318318198 299 30.958958958959 299 C 31.5995995995998 299 31.919919919920197 299 32.560560560561 299 C 33.2012012012014 299 33.5215215215216 299 34.162162162162 299 C 34.802802802802795 299 35.12312312312319 299 35.763763763764 299 C 36.404404404404396 299 36.7247247247246 299 37.365365365365 299 C 38.006006006005805 299 38.3263263263262 299 38.966966966967 299 C 39.607607607607804 299 39.9279279279282 299 40.568568568569 299 C 41.209209209209405 299 41.5295295295296 299 42.17017017017 299 C 42.8108108108108 299 43.1311311311312 299 43.771771771772 299 C 44.4124124124124 299 44.7327327327326 299 45.373373373373 299 C 46.014014014013796 299 46.3343343343342 299 46.974974974975 299 C 47.615615615615795 299 47.9359359359362 299 48.576576576577 299 C 49.217217217217396 299 49.5375375375376 299 50.178178178178 299 C 50.8188188188188 299 51.1391391391392 299 51.77977977978 299 C 52.4204204204204 299 52.740740740740605 59.80000000000001 53.381381381381 59.80000000000001 C 54.022022022021794 59.80000000000001 54.34234234234221 299 54.982982982983 299 C 55.6236236236238 299 55.943943943944205 299 56.584584584585 299 C 57.2252252252254 299 57.5455455455456 299 58.186186186186 299 C 58.8268268268268 299 59.1471471471472 299 59.787787787788 299 C 60.428428428428404 299 60.748748748748596 299 61.389389389389 299 C 62.0300300300298 299 62.3503503503502 299 62.990990990991 299 C 63.65521076632181 299 63.987320653987204 59.80000000000001 64.651540429318 59.80000000000001 C 65.2686019352684 59.80000000000001 65.57713268824361 299 66.194194194194 299 C 66.83483483483481 299 67.1551551551552 299 67.795795795796 299 C 68.43643643643641 299 68.75675675675659 299 69.397397397397 299 C 70.0380380380378 299 70.35835835835819 299 70.998998998999 299 C 71.6396396396398 299 71.9599599599602 299 72.600600600601 299 C 73.2412412412414 299 73.5615615615616 299 74.202202202202 299 C 74.84284284284281 299 75.1631631631632 299 75.803803803804 299 C 76.44444444444441 299 76.76476476476459 299 77.405405405405 299 C 78.0460460460458 299 78.3663663663662 299 79.007007007007 299 C 79.6476476476478 299 79.9679679679682 299 80.608608608609 299 C 81.2492492492494 299 81.56956956956961 299 82.21021021021 299 C 82.85085085085079 299 83.17117117117121 299 83.811811811812 299 C 84.4524524524524 299 84.7727727727726 299 85.413413413413 299 C 86.05405405405381 299 86.37437437437418 299 87.015015015015 299 C 87.65565565565579 299 87.9759759759762 299 88.616616616617 299 C 89.25725725725741 299 89.5775775775776 299 90.218218218218 299 C 90.8588588588588 299 91.1791791791792 299 91.81981981982 299 C 92.4604604604604 299 92.7807807807806 299 93.421421421421 299 C 94.06206206206181 299 94.38238238238219 299 95.023023023023 299 C 95.6636636636638 299 95.9839839839842 299 96.624624624625 299 C 97.26526526526541 299 97.5855855855856 299 98.226226226226 299 C 98.8668668668668 299 99.1871871871872 299 99.827827827828 299 C 100.4684684684688 299 100.7887887887892 299 101.42942942943 299 C 102.07007007007 299 102.39039039039 299 103.03103103103 299 C 103.67167167167 299 103.99199199198999 299 104.63263263263 299 C 105.27327327327001 299 105.59359359359 299 106.23423423423 299 C 106.874874874874 299 107.19519519519599 299 107.83583583584 299 C 108.47647647648 299 108.79679679680001 299 109.43743743744 299 C 110.07807807807998 299 110.39839839840002 299 111.03903903904 299 C 111.67967967967999 299 112 299 112.64064064064 299 C 113.28128128128 299 113.60160160160001 299 114.24224224224 299 C 114.88288288288 299 115.20320320320002 299 115.84384384384 299 C 116.484484484484 299 116.80480480480601 299 117.44544544545 299 C 118.08608608609002 299 118.40640640641 299 119.04704704705 299 C 119.68768768769 299 120.00800800800998 299 120.64864864865 299 C 121.28928928929 299 121.60960960960999 299 122.25025025025 299 C 122.89089089089 299 123.21121121121 299 123.85185185185 299 C 124.49249249248999 299 124.81281281281 299 125.45345345345 299 C 126.094094094094 299 126.414414414416 299 127.05505505506 299 C 127.69569569569998 299 128.01601601602002 299 128.65665665666 299 C 129.29729729730002 299 129.61761761762 299 130.25825825826 299 C 130.8988988989 299 131.21921921922 299 131.85985985986 299 C 132.50050050049998 299 132.82082082082002 299 133.46146146146 299 C 134.10210210210002 299 134.42242242242 299 135.06306306306 299 C 135.7037037037 299 136.02402402401998 299 136.66466466466 299 C 137.305305305304 299 137.62562562562601 299 138.26626626627 299 C 138.90690690691 299 139.22722722723 299 139.86786786787 299 C 140.50850850850998 299 140.82882882883 299 141.46946946947 299 C 142.11011011011 299 142.43043043043 299 143.07107107107 299 C 143.71171171171 299 144.03203203203 299 144.67267267267 299 C 145.31331331330998 299 145.63363363363 299 146.27427427427 299 C 146.91491491491402 299 147.235235235236 299 147.87587587588 299 C 148.51651651652 299 148.83683683684 299 149.47747747748 299 C 150.11811811811998 299 150.43843843844002 299 151.07907907908 299 C 151.71971971972002 299 152.04004004004 299 152.68068068068 299 C 153.32132132132 299 153.64164164163998 299 154.28228228228 299 C 154.92292292292 299 155.24324324324 299 155.88388388388 299 C 156.524524524524 299 156.844844844846 299 157.48548548549 299 C 158.12612612612998 299 158.44644644645 299 159.08708708709 299 C 159.72772772773 299 160.04804804805 299 160.68868868869 299 C 161.32932932933 299 161.64964964965 299 162.29029029029 299 C 162.93093093092997 299 163.25125125125 299 163.89189189189 299 C 164.53253253253 299 164.85285285285 299 165.49349349349 299 C 166.134134134134 299 166.454454454456 299 167.0950950951 299 C 167.73573573573998 299 168.05605605606002 299 168.6966966967 299 C 169.33733733734002 299 169.65765765766 299 170.2982982983 299 C 170.93893893894 299 171.25925925925998 299 171.8998998999 299 C 172.54054054054 299 172.86086086086 299 173.5015015015 299 C 174.14214214214002 299 174.46246246246 299 175.1031031031 299 C 175.74374374374003 299 176.06406406406 299 176.7047047047 299 C 177.34534534534401 299 177.66566566566598 299 178.30630630631 299 C 178.94694694695 299 179.26726726727003 299 179.90790790791 299 C 180.54854854855 299 180.86886886886998 299 181.50950950951 299 C 182.15015015014998 299 182.47047047047002 299 183.11111111111 299 C 183.75175175175 299 184.07207207207 299 184.71271271271 299 C 185.35335335334997 299 185.67367367367 299 186.31431431431 299 C 186.95495495495402 299 187.275275275276 299 187.91591591592 299 C 188.55655655656 299 188.87687687687998 299 189.51751751752 299 C 190.15815815816 299 190.47847847847999 299 191.11911911912 299 C 191.75975975976002 299 192.08008008008 299 192.72072072072 299 C 193.36136136136003 299 193.68168168168 299 194.32232232232 299 C 194.96296296296 299 195.28328328327999 299 195.92392392392 299 C 196.564564564564 299 196.88488488488602 299 197.52552552553 299 C 198.16616616617 299 198.48648648649 299 199.12712712713 299 C 199.76776776776998 299 200.08808808809002 299 200.72872872873 299 C 201.36936936937002 299 201.68968968969 299 202.33033033033 299 C 202.97097097096997 299 203.29129129129 299 203.93193193193 299 C 204.57257257257 299 204.89289289289 299 205.53353353353 299 C 206.174174174174 299 206.494494494496 299 207.13513513514 299 C 207.77577577578 299 208.09609609609998 299 208.73673673674 299 C 209.37737737738 299 209.6976976977 299 210.33833833834 299 C 210.97897897898002 299 211.2992992993 299 211.93993993994 299 C 212.58058058058 299 212.90090090089998 299 213.54154154154 299 C 214.18218218218 299 214.50250250250002 299 215.14314314314 299 C 215.78378378378002 299 216.1041041041 299 216.74474474474 299 C 217.38538538538396 299 217.70570570570598 299 218.34634634635 299 C 218.98698698699 299 219.30730730731003 299 219.94794794795 299 C 220.58858858858997 299 220.90890890891 299 221.54954954955 299 C 222.19019019019 299 222.51051051051 299 223.15115115115 299 C 223.79179179179 299 224.11211211211003 299 224.75275275275 299 C 225.39339339339003 299 225.71371371371 299 226.35435435435 299 C 226.994994994994 299 227.315315315316 299 227.95595595596 299 C 228.59659659660002 299 228.91691691692 299 229.55755755756 299 C 230.1981981982 299 230.51851851851998 299 231.15915915916 299 C 231.79979979979998 299 232.12012012012002 299 232.76076076076 299 C 233.40140140140002 299 233.72172172172 299 234.36236236236 299 C 235.00300300299995 299 235.32332332331998 299 235.96396396396 299 C 236.604604604604 299 236.92492492492602 299 237.56556556557 299 C 238.20620620620997 299 238.52652652653 299 239.16716716717 299 C 239.80780780781 299 240.12812812813 299 240.76876876877 299 C 241.40940940941 299 241.72972972973002 299 242.37037037037 299 C 243.01101101101003 299 243.33133133133 299 243.97197197197 299 C 244.61261261260998 299 244.93293293293 299 245.57357357357 299 C 246.214214214214 299 246.534534534536 299 247.17517517518 299 C 247.81581581582 299 248.13613613613998 299 248.77677677678 299 C 249.41741741741998 299 249.73773773774002 299 250.37837837838 299 C 251.01901901902002 299 251.33933933934 299 251.97997997998 299 C 252.62062062061995 299 252.94094094093998 299 253.58158158158 299 C 254.22222222221998 299 254.54254254254002 299 255.18318318318 299 C 255.82382382382002 299 256.14414414414006 299 256.78478478478 299 C 257.425425425424 299 257.745745745746 299 258.38638638639 299 C 259.02702702703 299 259.34734734734997 299 259.98798798799 299 C 260.62862862863 299 260.94894894895 299 261.58958958959 299 C 262.23023023022995 299 262.55055055055 299 263.19119119119 299 C 263.83183183183 299 264.15215215215005 299 264.79279279279 299 C 265.43343343343 299 265.75375375375 299 266.39439439439 299 C 267.03503503503396 299 267.355355355356 299 267.995995996 299 C 268.63663663664 299 268.95695695695997 299 269.5975975976 299 C 270.23823823823994 299 270.55855855856 299 271.1991991992 299 C 271.83983983984 299 272.16016016016 299 272.8008008008 299 C 273.44144144144 299 273.76176176176006 299 274.4024024024 299 C 275.04304304304003 299 275.36336336336 299 276.004004004 299 C 276.644644644644 299 276.96496496496604 299 277.60560560561 299 C 278.24624624625 299 278.56656656657 299 279.20720720721 299 C 279.84784784784995 299 280.16816816817 299 280.80880880881 299 C 281.44944944945 299 281.76976976977005 299 282.41041041041 299 C 283.05105105105 299 283.37137137137 299 284.01201201201 299 C 284.65265265265003 299 284.97297297297 299 285.61361361361 299 C 286.254254254254 299 286.574574574576 299 287.21521521522 299 C 287.85585585585994 299 288.17617617618 299 288.81681681682 299 C 289.45745745746 299 289.77777777778 299 290.41841841842 299 C 291.05905905906 299 291.37937937938005 299 292.02002002002 299 C 292.66066066066 299 292.98098098098 299 293.62162162162 299 C 294.26226226226 299 294.58258258258 299 295.22322322322 299 C 295.86386386386 299 296.18418418417997 299 296.82482482482 299 C 297.465465465464 299 297.785785785786 299 298.42642642643 299 C 299.06706706707 299 299.38738738739005 299 300.02802802803 299 C 300.66866866867 299 300.98898898899 299 301.62962962963 299 C 302.27027027027003 299 302.59059059059 299 303.23123123123 299 C 303.87187187187 299 304.19219219218996 299 304.83283283283 299 C 305.47347347346994 299 305.79379379379 299 306.43443443443 299 C 307.075075075074 299 307.395395395396 299 308.03603603604 299 C 308.67667667668 299 308.99699699700005 299 309.63763763764 299 C 310.27827827828 299 310.5985985986 299 311.23923923924 299 C 311.87987987988 299 312.2002002002 299 312.84084084084 299 C 313.48148148148 299 313.80180180179997 299 314.44244244244 299 C 315.08308308307994 299 315.4034034034 299 316.04404404404 299 C 316.684684684684 299 317.005005005006 299 317.64564564565 299 C 318.28628628629 299 318.60660660661 299 319.24724724725 299 C 319.88788788789003 299 320.20820820821 299 320.84884884885 299 C 321.48948948949 299 321.80980980980996 299 322.45045045045 299 C 323.09109109108994 299 323.41141141141 299 324.05205205205 299 C 324.69269269269 299 325.01301301301 299 325.65365365365 299 C 326.294294294294 299 326.614614614616 299 327.25525525526 299 C 327.8958958959 299 328.21621621622 299 328.85685685686 299 C 329.4974974975 299 329.81781781782 299 330.45845845846 299 C 331.0990990991 299 331.41941941941997 299 332.06006006006 299 C 332.70070070069994 299 333.02102102102 299 333.66166166166 299 C 334.3023023023 299 334.62262262262004 299 335.26326326326 299 C 335.9039039039 299 336.22422422422 299 336.86486486486 299 C 337.505505505504 299 337.825825825826 299 338.46646646647 299 C 339.10710710711 299 339.42742742742996 299 340.06806806807 299 C 340.70870870870993 299 341.02902902902997 299 341.66966966967 299 C 342.31031031031 299 342.63063063063 299 343.27127127127 299 C 343.91191191191 299 344.23223223223005 299 344.87287287287 299 C 345.51351351351 299 345.83383383383 299 346.47447447447 299 C 347.115115115114 299 347.43543543543603 299 348.07607607608 299 C 348.71671671672004 299 349.03703703703997 299 349.67767767768 299 C 350.31831831831994 299 350.63863863864 299 351.27927927928 299 C 351.91991991992 299 352.24024024024004 299 352.88088088088 299 C 353.52152152152 299 353.84184184184 299 354.48248248248 299 C 355.12312312312 299 355.44344344344 299 356.08408408408 299 C 356.724724724724 299 357.045045045046 299 357.68568568569 299 C 358.32632632632993 299 358.64664664664997 299 359.28728728729 299 C 359.92792792793 299 360.24824824825 299 360.88888888889 299 C 361.52952952953 299 361.84984984985005 299 362.49049049049 299 C 363.13113113113 299 363.45145145145 299 364.09209209209 299 C 364.73273273272997 299 365.05305305305 299 365.69369369369 299 C 366.334334334334 299 366.65465465465593 299 367.2952952953 299 C 367.93593593593994 299 368.25625625626 299 368.8968968969 299 C 369.53753753754 299 369.85785785786004 299 370.4984984985 299 C 371.13913913914 299 371.45945945946 299 372.1001001001 299 C 372.74074074074 299 373.06106106106 299 373.7017017017 299 C 374.34234234234 299 374.66266266266 299 375.3033033033 299 C 375.94394394394004 299 376.26426426426 299 376.9049049049 299 C 377.545545545544 299 377.865865865866 299 378.50650650651 299 C 379.14714714715 299 379.46746746747004 299 380.10810810811 299 C 380.74874874875 299 381.06906906907 299 381.70970970971 299 C 382.35035035034997 299 382.67067067067 299 383.31131131131 299 C 383.95195195195004 299 384.27227227226996 299 384.91291291291 299 C 385.55355355354993 299 385.87387387386997 299 386.51451451451 299 C 387.155155155154 299 387.475475475476 299 388.11611611612 299 C 388.75675675676 299 389.07707707708 299 389.71771771772 299 C 390.35835835836 299 390.67867867868 299 391.31931931932 299 C 391.95995995996 299 392.28028028028 299 392.92092092092 299 C 393.56156156156004 299 393.88188188188 299 394.52252252252 299 C 395.16316316316 299 395.48348348348 299 396.12412412412 299 C 396.764764764764 299 397.085085085086 299 397.72572572573 299 C 398.36636636637 299 398.68668668669 299 399.32732732733 299 C 399.96796796796997 299 400.28828828829 299 400.92892892893 299 C 401.56956956957004 299 401.88988988988996 299 402.53053053053 299 C 403.17117117116993 299 403.49149149148997 299 404.13213213213 299 C 404.77277277277 299 405.09309309309003 299 405.73373373373 299 C 406.37437437437404 299 406.694694694696 299 407.33533533534 299 C 407.97597597598 299 408.2962962963 299 408.93693693694 299 C 409.57757757758 299 409.8978978979 299 410.53853853854 299 C 411.17917917918004 299 411.4994994995001 299 412.14014014014 299 C 412.78078078078 299 413.10110110109997 299 413.74174174174 299 C 414.38238238238 299 414.70270270270004 299 415.34334334334 299 C 415.98398398398 299 416.3043043043 299 416.94494494494 299 C 417.585585585584 299 417.905905905906 299 418.54654654655 299 C 419.18718718719003 299 419.50750750751 299 420.14814814815 299 C 420.78878878879004 299 421.10910910910997 299 421.74974974975 299 C 422.39039039039 299 422.71071071071003 299 423.35135135135 299 C 423.99199199199 299 424.3123123123099 299 424.95295295295 299 C 425.59359359359007 299 425.91391391391 299 426.55455455455 299 C 427.195195195194 299 427.51551551551603 299 428.15615615616 299 C 428.79679679680004 299 429.11711711711996 299 429.75775775776 299 C 430.3983983984 299 430.71871871871997 299 431.35935935936 299 C 432 299 432.32032032032004 299 432.96096096096 299 C 433.6016016016 299 433.92192192192 299 434.56256256256 299 C 435.558669780892 299 436.05672339005804 119.6 437.05283060839 119.6 C 437.69347124903 119.6 438.01379156935 119.6 438.65443220999 119.6 C 439.29507285063 119.6 439.6153931709499 119.6 440.25603381159 119.6 C 440.89667445223006 119.6 441.21699477255 119.6 441.85763541319 119.6 C 442.49827605382995 119.6 442.81859637415 119.6 443.45923701479 119.6 C 444.09987765543 119.6 444.42019797575006 119.6 445.06083861639 119.6 C 445.70147925703407 119.6 446.021799577356 119.6 446.662440218 119.6 C 447.30308085864 119.6 447.62340117896 119.6 448.2640418196 119.6 C 448.90468246024 119.6 449.22500278056 119.6 449.8656434212 119.6 C 450.50628406183995 119.6 450.82660438216 119.6 451.4672450228 119.6 C 452.10788566344 119.6 452.42820598376 119.6 453.0688466244 119.6 C 453.70948726504 119.6 454.02980758536006 119.6 454.670448226 119.6 C 455.31108886664407 119.6 455.631409186966 119.6 456.27204982761 119.6 C 456.91269046825 119.6 457.23301078857 119.6 457.87365142921 119.6 C 458.51429206984994 119.6 458.83461239017 119.6 459.47525303081 119.6 C 460.11589367144995 119.6 460.43621399177 119.6 461.07685463241 119.6 C 461.71749527305 119.6 462.03781559337006 119.6 462.67845623401 119.6 C 463.31909687465003 119.6 463.63941719496995 119.6 464.28005783561 119.6 C 464.92069847625 119.6 465.24101879657 119.6 465.88165943721 119.6 C 466.522300077854 119.6 466.84262039817594 119.6 467.48326103882 119.6 C 468.12390167945995 119.6 468.44422199978 119.6 469.08486264042 119.6 C 469.72550328106 119.6 470.04582360138 119.6 470.68646424202 119.6 C 471.32710488266 119.6 471.64742520298006 299 472.28806584362 299 C 472.92870648426003 299 473.24902680458 119.6 473.88966744522 119.6 C 474.53030808586 119.6 474.85062840618 299 475.49126904682 299 C 476.13190968746403 299 476.45223000778594 299 477.09287064843 299 C 477.73351128906995 299 478.05383160939 299 478.69447225003 299 C 479.33511289067 299 479.65543321099005 119.6 480.29607385163 119.6 C 480.58124791458204 119.6 480.723834946058 299 481.00900900901 299 C 482.005116227338 299 482.503169836502 119.6 483.49927705483 119.6 C 483.784451117782 119.6 483.927038149258 299 484.21221221221 299 C 484.85285285285 299 485.17317317317 299 485.81381381381 299 C 486.80992103214203 299 487.307974641308 119.6 488.30408185964 119.6 C 488.94472250028 119.6 489.26504282060006 119.6 489.90568346124 119.6 C 490.54632410188003 119.6 490.8666444222 119.6 491.50728506284 119.6 C 491.792459125792 119.6 491.93504615726806 299 492.22022022022 299 C 492.86086086086 299 493.18118118118 299 493.82182182182 299 C 494.46246246246 299 494.7827827827799 299 495.42342342342 299 C 496.06406406406404 299 496.38438438438595 299 497.02502502503 299 C 497.66566566566996 299 497.98598598599 299 498.62662662663 299 C 499.26726726727003 299 499.58758758759006 299 500.22822822823 299 C 500.86886886887004 299 501.18918918918996 299 501.82982982983 299 C 502.47047047047 299 502.79079079079 299 503.43143143143 299 C 504.07207207207 299 504.39239239239 299 505.03303303303 299 C 505.67367367366995 299 505.99399399399 299 506.63463463463 299 C 507.275275275274 299 507.595595595596 299 508.23623623624 299 C 508.87687687688003 299 509.19719719720007 299 509.83783783784 299 C 510.47847847848004 299 510.7987987988 299 511.43943943944 299 C 512.08008008008 299 512.4004004004 299 513.04104104104 299 C 513.68168168168 299 514.0020020019999 299 514.64264264264 299 C 515.28328328328 299 515.6036036036 299 516.24424424424 299 C 516.8848848848841 299 517.2052052052061 299 517.84584584585 299 C 518.4864864864901 299 518.80680680681 299 519.44744744745 299 C 520.0880880880901 299 520.40840840841 299 521.04904904905 299 C 521.68968968969 299 522.0100100100101 299 522.65065065065 299 C 523.29129129129 299 523.61161161161 299 524.25225225225 299 C 524.8928928928899 299 525.2132132132099 299 525.85385385385 299 C 526.4944944944939 299 526.8148148148159 299 527.45545545546 299 C 528.0960960960999 299 528.41641641642 299 529.05705705706 299 C 529.6976976977 299 530.0180180180199 299 530.65865865866 299 C 531.2992992993001 299 531.6196196196199 299 532.26026026026 299 C 532.9009009009 299 533.22122122122 299 533.86186186186 299 C 534.5025025025 299 534.8228228228201 299 535.46346346346 299 C 536.1041041041041 299 536.4244244244261 299 537.06506506507 299 C 537.70570570571 299 538.66666666667 299 538.66666666667 299" class="highcharts-graph" data-z-index="1" stroke="#000000" stroke-width="2" stroke-linejoin="round" stroke-linecap="round"></path></g><g data-z-index="0.1" class="highcharts-markers highcharts-series-0 highcharts-spline-series highcharts-color-0 " transform="translate(46,63) scale(1 1)" clip-path="none"></g></g><text x="300" text-anchor="middle" class="highcharts-title" data-z-index="4" style="color:#333333;font-size:18px;fill:#333333;" y="24"><tspan>Alphalipoic Acid Over Time</tspan></text><text x="300" text-anchor="middle" class="highcharts-subtitle" data-z-index="4" style="color:#666666;fill:#666666;" y="46"><tspan>This chart shows how your Alphalipoic Acid changes over time.</tspan></text><g class="highcharts-axis-labels highcharts-xaxis-labels " data-z-index="7"><text x="69.236013791569" style="color:#666666;cursor:default;font-size:11px;fill:#666666;" text-anchor="middle" transform="translate(0,0)" y="381" opacity="1"><tspan>Jul '12</tspan></text><text x="168.53531309087" style="color:#666666;cursor:default;font-size:11px;fill:#666666;" text-anchor="middle" transform="translate(0,0)" y="381" opacity="1"><tspan>Sep '12</tspan></text><text x="266.23301078857" style="color:#666666;cursor:default;font-size:11px;fill:#666666;" text-anchor="middle" transform="translate(0,0)" y="381" opacity="1"><tspan>Nov '12</tspan></text><text x="363.93070848626" style="color:#666666;cursor:default;font-size:11px;fill:#666666;" text-anchor="middle" transform="translate(0,0)" y="381" opacity="1"><tspan>Jan '13</tspan></text><text x="458.42520298076" style="color:#666666;cursor:default;font-size:11px;fill:#666666;" text-anchor="middle" transform="translate(0,0)" y="381" opacity="1"><tspan>Mar '13</tspan></text><text x="556.12290067846" style="color:#666666;cursor:default;font-size:11px;fill:#666666;" text-anchor="middle" transform="translate(0,0)" y="381" opacity="1"><tspan>May '13</tspan></text></g><g class="highcharts-axis-labels highcharts-yaxis-labels " data-z-index="7"><text x="31" style="color:#666666;cursor:default;font-size:11px;fill:#666666;" text-anchor="end" transform="translate(0,0)" y="366" opacity="1">0</text><text x="31" style="color:#666666;cursor:default;font-size:11px;fill:#666666;" text-anchor="end" transform="translate(0,0)" y="306" opacity="1">50</text><text x="31" style="color:#666666;cursor:default;font-size:11px;fill:#666666;" text-anchor="end" transform="translate(0,0)" y="246" opacity="1">100</text><text x="31" style="color:#666666;cursor:default;font-size:11px;fill:#666666;" text-anchor="end" transform="translate(0,0)" y="186" opacity="1">150</text><text x="31" style="color:#666666;cursor:default;font-size:11px;fill:#666666;" text-anchor="end" transform="translate(0,0)" y="126" opacity="1">200</text><text x="31" style="color:#666666;cursor:default;font-size:11px;fill:#666666;" text-anchor="end" transform="translate(0,0)" y="67" opacity="1">250</text></g><a xlink:href="https://quantimo.do" target="_blank">
                    <text x="590" class="highcharts-credits" text-anchor="end" data-z-index="8"
                          style="cursor:pointer;color:#999999;font-size:9px;fill:#999999;" y="395">https://quantimo.do
                    </text>
                </a></svg>