<?xml version="1.0" standalone="no"?><!DOCTYPE svg PUBLIC "-//W3C//DTD SVG 1.1//EN" "http://www.w3.org/Graphics/SVG/1.1/DTD/svg11.dtd"><svg xmlns:xlink="http://www.w3.org/1999/xlink" version="1.1" class="highcharts-root" style="font-family:&quot;Lucida Grande&quot;, &quot;Lucida Sans Unicode&quot;, Arial, Helvetica, sans-serif;font-size:12px;" xmlns="http://www.w3.org/2000/svg" width="600" height="400"><desc>Created with Highstock 6.2.0</desc><defs><clipPath id="highcharts-teqkgns-1109"><rect x="0" y="0" width="449" height="224" fill="none"></rect></clipPath><clipPath id="highcharts-teqkgns-1660"><rect x="0" y="0" width="449" height="224" fill="none"></rect></clipPath><clipPath id="highcharts-teqkgns-2211"><rect x="0" y="0" width="449" height="224" fill="none"></rect></clipPath><clipPath id="highcharts-teqkgns-2212"><rect x="83" y="99" width="449" height="224" fill="none"></rect></clipPath></defs><rect fill="#ffffff" class="highcharts-background" x="0" y="0" width="600" height="400" rx="0" ry="0"></rect><rect fill="none" class="highcharts-plot-background" x="83" y="99" width="449" height="224"></rect><g class="highcharts-pane-group" data-z-index="0"></g><g class="highcharts-grid highcharts-xaxis-grid " data-z-index="1"><path fill="none" data-z-index="1" class="highcharts-grid-line" d="M 94.5 99 L 94.5 323" opacity="1"></path><path fill="none" data-z-index="1" class="highcharts-grid-line" d="M 206.5 99 L 206.5 323" opacity="1"></path><path fill="none" data-z-index="1" class="highcharts-grid-line" d="M 320.5 99 L 320.5 323" opacity="1"></path><path fill="none" data-z-index="1" class="highcharts-grid-line" d="M 432.5 99 L 432.5 323" opacity="1"></path></g><g class="highcharts-grid highcharts-yaxis-grid " data-z-index="1"><path fill="none" stroke="#e6e6e6" stroke-width="1" data-z-index="1" class="highcharts-grid-line" d="M 83 323.5 L 532 323.5" opacity="1"></path><path fill="none" stroke="#e6e6e6" stroke-width="1" data-z-index="1" class="highcharts-grid-line" d="M 83 267.5 L 532 267.5" opacity="1"></path><path fill="none" stroke="#e6e6e6" stroke-width="1" data-z-index="1" class="highcharts-grid-line" d="M 83 211.5 L 532 211.5" opacity="1"></path><path fill="none" stroke="#e6e6e6" stroke-width="1" data-z-index="1" class="highcharts-grid-line" d="M 83 155.5 L 532 155.5" opacity="1"></path><path fill="none" stroke="#e6e6e6" stroke-width="1" data-z-index="1" class="highcharts-grid-line" d="M 83 98.5 L 532 98.5" opacity="1"></path></g><g class="highcharts-grid highcharts-yaxis-grid " data-z-index="1"><path fill="none" stroke="#e6e6e6" stroke-width="1" data-z-index="1" class="highcharts-grid-line" d="M 83 323.5 L 532 323.5" opacity="1"></path><path fill="none" stroke="#e6e6e6" stroke-width="1" data-z-index="1" class="highcharts-grid-line" d="M 83 267.5 L 532 267.5" opacity="1"></path><path fill="none" stroke="#e6e6e6" stroke-width="1" data-z-index="1" class="highcharts-grid-line" d="M 83 211.5 L 532 211.5" opacity="1"></path><path fill="none" stroke="#e6e6e6" stroke-width="1" data-z-index="1" class="highcharts-grid-line" d="M 83 155.5 L 532 155.5" opacity="1"></path><path fill="none" stroke="#e6e6e6" stroke-width="1" data-z-index="1" class="highcharts-grid-line" d="M 83 98.5 L 532 98.5" opacity="1"></path></g><rect fill="none" class="highcharts-plot-border" data-z-index="1" x="83" y="99" width="449" height="224"></rect><g class="highcharts-axis highcharts-xaxis " data-z-index="2"><path fill="none" class="highcharts-tick" stroke="#ccd6eb" stroke-width="1" d="M 94.5 323 L 94.5 333" opacity="1"></path><path fill="none" class="highcharts-tick" stroke="#ccd6eb" stroke-width="1" d="M 206.5 323 L 206.5 333" opacity="1"></path><path fill="none" class="highcharts-tick" stroke="#ccd6eb" stroke-width="1" d="M 320.5 323 L 320.5 333" opacity="1"></path><path fill="none" class="highcharts-tick" stroke="#ccd6eb" stroke-width="1" d="M 432.5 323 L 432.5 333" opacity="1"></path><path fill="none" class="highcharts-axis-line" stroke="#ccd6eb" stroke-width="1" data-z-index="7" d="M 83 323.5 L 532 323.5"></path></g><g class="highcharts-axis highcharts-yaxis " data-z-index="2"><text x="26" data-z-index="7" text-anchor="middle" transform="translate(0,0) rotate(270 26 211)" class="highcharts-axis-title" style="color:#666666;fill:#666666;" y="211"><tspan>SUM Microwave Popcorn - Butter</tspan><tspan dy="15" x="26">consumption (serving)</tspan></text><path fill="none" class="highcharts-axis-line" stroke="#ccd6eb" stroke-width="1" data-z-index="7" d="M 82.5 99 L 82.5 323"></path></g><g class="highcharts-axis highcharts-yaxis " data-z-index="2"><text x="574" data-z-index="7" text-anchor="middle" transform="translate(0,0) rotate(90 574 211)" class="highcharts-axis-title" style="color:#666666;fill:#666666;" y="211"><tspan>MEAN Overall Mood (/5)</tspan></text><path fill="none" class="highcharts-axis-line" stroke="#ccd6eb" stroke-width="1" data-z-index="7" d="M 532.5 99 L 532.5 323"></path></g><g class="highcharts-series-group" data-z-index="3"><g data-z-index="0.1" class="highcharts-series highcharts-series-0 highcharts-spline-series highcharts-color-0 " transform="translate(83,99) scale(1 1)" clip-path="url(#highcharts-teqkgns-1660)"><path fill="none" d="M 4.4019607843137 224 C 4.4019607843137 224 4.60410574850232 224 4.7388690579614 224 C 4.9870265587556 224 5.1111053091527 224 5.3592628099469 224 C 5.6074203107411 224 5.7314990611382 224 5.9796565619324 224 C 6.227814062726599 224 6.351892813123699 224 6.6000503139179 224 C 7.0963653155063 224 7.3445228163005 224 7.8408378178889 224 C 8.088995318683141 224 8.21307406908026 224 8.4612315698745 224 C 8.709389070668701 224 8.833467821065799 224 9.08162532186 224 C 9.3297828226542 224 9.453861573051302 224 9.7020190738455 224 C 9.950176574639702 224 10.074255325036798 224 10.322412825831 224 C 10.570570326624999 224 10.694649077022001 224 10.942806577816 224 C 11.190964078610401 224 11.315042829007599 224 11.563200329802 224 C 11.811357830596398 224 11.9354365809936 224 12.183594081788 224 C 12.431751582581999 224 12.555830332979 224 12.803987833773 224 C 13.052145334567399 224 13.176224084964598 224 13.424381585759 224 C 13.672539086553002 224 13.79661783695 224 14.044775337744 224 C 14.2929328385384 224 14.4170115889356 224 14.66516908973 224 C 14.913326590524 224 15.037405340921001 224 15.285562841715 224 C 15.533720342509401 224 15.6577990929066 224 15.905956593701 224 C 16.154114094495 224 16.278192844892 224 16.526350345686 224 C 16.7745078464804 224 16.8985865968776 224 17.146744097672 224 C 17.394901598466 224 17.518980348863 224 17.767137849657 224 C 18.015295350451403 224 18.139374100848602 224 18.387531601643 224 C 18.635689102437 224 18.759767852834 224 19.007925353628 224 C 19.256082854422402 224 19.3801616048196 224 19.628319105614 224 C 19.876476606407998 224 20.000555356805002 224 20.248712857599 224 C 20.496870358393398 224 20.620949108790597 224 20.869106609585 224 C 21.117264110379 224 21.241342860776 224 21.48950036157 224 C 21.737657862364397 224 21.861736612761597 224 22.109894113556 224 C 22.35805161435 224 22.482130364747 186.66666666666666 22.730287865541 186.66666666666666 C 22.9784453663354 186.66666666666666 23.1025241167326 186.66666666666666 23.350681617527 186.66666666666666 C 23.598839118321 186.66666666666666 23.722917868718003 186.66666666666666 23.971075369512 186.66666666666666 C 24.219232870306403 186.66666666666666 24.343311620703602 149.33333333333331 24.591469121498 149.33333333333331 C 24.888396464462 149.33333333333331 25.036860135944004 149.33333333333331 25.333787478908 149.33333333333331 C 25.781332638326397 149.33333333333331 26.005105218035602 149.33333333333331 26.452650377454 149.33333333333331 C 26.997735221212395 149.33333333333331 27.270277643091596 149.33333333333331 27.81536248685 149.33333333333331 C 28.014750145474398 149.33333333333331 28.1144439747866 112 28.313831633411 112 C 28.591113174228997 112 28.729753944638002 149.33333333333331 29.007035485456 149.33333333333331 C 29.474226447020403 149.33333333333331 29.707821927802605 112 30.175012889367 112 C 30.423170390161403 112 30.547249140558602 112 30.795406641353 112 C 31.043564142146998 112 31.167642892544002 149.33333333333331 31.415800393338 149.33333333333331 C 31.6639578941324 149.33333333333331 31.788036644529598 149.33333333333331 32.036194145324 149.33333333333331 C 32.284351646118 149.33333333333331 32.408430396514994 186.66666666666666 32.656587897309 186.66666666666666 C 32.9047453981034 186.66666666666666 33.0288241485006 186.66666666666666 33.276981649295 186.66666666666666 C 33.525139150089004 186.66666666666666 33.649217900486 149.33333333333331 33.89737540128 149.33333333333331 C 34.1455329020744 149.33333333333331 34.269611652471596 186.66666666666666 34.517769153266 186.66666666666666 C 34.76592665406 186.66666666666666 34.890005404457 149.33333333333331 35.138162905251 149.33333333333331 C 35.3863204060454 149.33333333333331 35.5103991564426 149.33333333333331 35.758556657237 149.33333333333331 C 36.006714158031 149.33333333333331 36.130792908428 112 36.378950409222 112 C 36.675877752186395 112 36.8243414236686 112 37.121268766633 112 C 37.320656425257006 112 37.420350254568994 112 37.619737913193 112 C 37.8678954139874 112 37.9919741643846 112 38.240131665179 112 C 38.488289165973 112 38.61236791637 112 38.860525417164 112 C 39.108682917958404 112 39.2327616683556 112 39.48091916915 112 C 39.729076669944 112 39.853155420341 74.66666666666666 40.101312921135 74.66666666666666 C 40.349470421929404 74.66666666666666 40.4735491723266 112 40.721706673121 112 C 40.969864173915 112 41.093942924312 112 41.342100425106 112 C 41.590257925900396 112 41.7143366762976 112 41.962494177092 112 C 42.210651677886 112 42.334730428283 112 42.582887929077 112 C 42.8310454298714 112 42.9551241802686 112 43.203281681063 112 C 43.451439181857 112 43.575517932254 134.40000000001197 43.823675433048 149.33333333333331 C 44.0718329338424 164.26666666667862 44.195911684239604 186.66666666666666 44.444069185034 186.66666666666666 C 44.692226685828004 186.66666666666666 44.816305436225 186.66666666666666 45.064462937019 186.66666666666666 C 45.3126204378134 186.66666666666666 45.436699188210596 186.66666666666666 45.684856689005 186.66666666666666 C 45.933014189798996 186.66666666666666 46.057092940196 186.66666666666666 46.30525044099 186.66666666666666 C 46.55340794178441 186.66666666666666 46.6774866921816 224 46.925644192976 224 C 47.17380169377 224 47.297880444167006 224 47.546037944961 224 C 47.7941954457554 224 47.9182741961526 224 48.166431696947 224 C 48.414589197740995 224 48.538667948138 224 48.786825448932 224 C 49.0349829497264 224 49.159061700123594 224 49.407219200918 224 C 49.655376701712 224 49.779455452109005 186.66666666666666 50.027612952903 186.66666666666666 C 50.275770453697405 186.66666666666666 50.3998492040946 186.66666666666666 50.648006704889 186.66666666666666 C 50.896164205683 186.66666666666666 51.02024295608 164.26666666665466 51.268400456874 149.33333333333331 C 51.5165579576684 134.399999999988 51.6406367080656 126.9333333333453 51.88879420886 112 C 52.136951709654 97.06666666667864 52.261030460050996 89.59999999998803 52.509187960845 74.66666666666666 C 52.757345461639396 59.733333333321355 52.8814242120366 37.333333333333314 53.129581712831 37.333333333333314 C 53.3777392136254 37.333333333333314 53.5018179640226 37.333333333333314 53.749975464817 37.333333333333314 C 53.998132965611 37.333333333333314 54.122211716007996 37.333333333333314 54.370369216802 37.333333333333314 C 54.618526717596396 37.333333333333314 54.7426054679936 37.333333333333314 54.990762968788 37.333333333333314 C 55.238920469582 37.333333333333314 55.362999219978995 59.73333333334508 55.611156720773 74.66666666666666 C 55.8593142215674 89.60000000001175 55.9833929719646 112 56.231550472759 112 C 56.47970797355299 112 56.603786723949995 112 56.851944224744 112 C 57.10010172553841 112 57.2241804759356 112 57.47233797673 112 C 57.720495477524004 112 57.844574227921 112 58.092731728715 112 C 58.3408892295094 112 58.4649679799066 112 58.713125480701 112 C 58.961282981495 112 59.085361731892 89.59999999998803 59.333519232686 74.66666666666666 C 59.5816767334804 59.733333333321355 59.7057554838776 37.333333333333314 59.953912984672 37.333333333333314 C 60.202070485466 37.333333333333314 60.326149235863 37.333333333333314 60.574306736657 37.333333333333314 C 60.8224642374514 37.333333333333314 60.9465429878486 59.733333333321134 61.194700488643 74.66666666666666 C 61.442857989436995 89.5999999999878 61.566936739834 112 61.815094240628 112 C 62.06325174142239 112 62.1873304918196 112 62.435487992614 112 C 62.683645493407994 112 62.807724243805 134.40000000001217 63.055881744599 149.33333333333331 C 63.304039245393405 164.26666666667882 63.4281179957906 171.73333333332113 63.676275496585 186.66666666666666 C 63.92443299737899 201.5999999999878 64.048511747776 224 64.29666924857 224 C 64.54482674936439 224 64.6689054997616 224 64.917063000556 224 C 65.16522050134999 224 65.289299251747 224 65.537456752541 224 C 65.78561425333541 224 65.9096930037326 224 66.157850504527 224 C 66.406008005321 224 66.530086755718 224 66.778244256512 224 C 67.02640175730639 224 67.1504805077036 186.66666666666666 67.398638008498 186.66666666666666 C 67.64679550929199 186.66666666666666 67.77087425968901 186.66666666666666 68.019031760483 186.66666666666666 C 68.2671892612774 186.66666666666666 68.39126801167461 186.66666666666666 68.639425512469 186.66666666666666 C 68.887583013263 186.66666666666666 69.01166176366 186.66666666666666 69.259819264454 186.66666666666666 C 69.5079767652484 186.66666666666666 69.63205551564559 186.66666666666666 69.88021301644 186.66666666666666 C 70.128370517234 186.66666666666666 70.25244926763101 186.66666666666666 70.500606768425 186.66666666666666 C 70.7487642692194 186.66666666666666 70.87284301961661 149.33333333333331 71.121000520411 149.33333333333331 C 71.369158021205 149.33333333333331 71.493236771602 186.66666666666666 71.741394272396 186.66666666666666 C 71.9895517731904 186.66666666666666 72.11363052358759 186.66666666666666 72.361788024382 186.66666666666666 C 72.609945525176 186.66666666666666 72.734024275573 186.66666666666666 72.982181776367 186.66666666666666 C 73.23033927716139 186.66666666666666 73.35441802755861 186.66666666666666 73.602575528353 186.66666666666666 C 73.850733029147 186.66666666666666 73.97481177954401 186.66666666666666 74.222969280338 186.66666666666666 C 74.58365931447841 186.66666666666666 74.7640043315486 186.66666666666666 75.124694365689 186.66666666666666 C 75.260319333137 186.66666666666666 75.32813181686099 224 75.463756784309 224 C 75.7119142851034 224 75.8359930355006 224 76.084150536295 224 C 76.332308037089 224 76.45638678748601 224 76.70454428828 224 C 76.9527017890744 224 77.07678053947161 224 77.324938040266 224 C 77.57309554106 224 77.697174291457 224 77.945331792251 224 C 78.1934892930454 224 78.31756804344259 224 78.565725544237 224 C 78.813883045031 224 78.93796179542801 224 79.186119296222 224 C 79.4342767970164 224 79.55835554741361 224 79.806513048208 224 C 80.054670549002 224 80.178749299399 224 80.426906800193 224 C 80.6750643009874 224 80.79914305138459 224 81.047300552179 224 C 81.295458052973 224 81.41953680337 224 81.667694304164 224 C 81.91585180495841 224 82.0399305553556 224 82.28808805615 224 C 82.53624555694401 224 82.660324307341 224 82.908481808135 224 C 83.1566393089294 224 83.28071805932659 224 83.528875560121 224 C 83.777033060915 224 83.90111181131199 224 84.149269312106 224 C 84.3974268129004 224 84.5215055632976 224 84.769663064092 224 C 85.01782056488601 224 85.14189931528301 224 85.390056816077 224 C 85.6382143168714 224 85.76229306726862 224 86.010450568063 224 C 86.258608068857 224 86.38268681925399 224 86.630844320048 224 C 86.87900182084239 224 87.00308057123961 224 87.251238072034 224 C 87.499395572828 224 87.623474323225 224 87.871631824019 224 C 88.11978932481341 224 88.2438680752106 224 88.492025576005 224 C 88.74018307679901 224 88.864261827196 224 89.11241932799 224 C 89.3605768287844 224 89.48465557918159 224 89.732813079976 224 C 90.0194005270736 224 90.1626942506224 224 90.44928169772 224 C 92.682699204868 224 93.799407958442 224 96.03282546559 224 C 98.01808547194199 224 99.01071547511799 224 100.99597548147 224 C 101.49229048305799 224 101.740447983852 224 102.23676298544 224 C 107.44807050211998 224 110.05372426045999 224 115.26503177714 224 C 115.474759331632 224 115.57962310887801 224 115.78935066337 224 C 118.02276817051799 224 119.139476924092 224 121.37289443124 224 C 121.62105193203199 224 121.745130682428 224 121.99328818322 224 C 122.241445684016 224 122.36552443441398 224 122.61368193521 224 C 122.86183943600199 224 122.985918186398 224 123.23407568719 224 C 123.482233187986 224 123.60631193838398 224 123.85446943918 224 C 124.102626939972 224 124.226705690368 224 124.47486319116 224 C 124.72302069195601 224 124.84709944235401 224 125.09525694315 224 C 125.34341444394599 224 125.467493194344 224 125.71565069514 224 C 125.963808195932 224 126.08788694632798 224 126.33604444712 224 C 126.584201947916 224 126.708280698314 224 126.95643819911 224 C 127.204595699902 224 127.328674450298 224 127.57683195109 224 C 127.902538670882 224 128.065392030778 224 128.39109875057 224 C 128.56170703236597 224 128.647011173264 224 128.81761945506 224 C 129.065776955856 224 129.189855706254 224 129.43801320705 224 C 129.686170707842 224 129.81024945823802 224 130.05840695903 224 C 130.306564459826 224 130.430643210224 224 130.67880071102 224 C 130.92695821181198 224 131.051036962208 224 131.299194463 224 C 131.547351963796 224 131.671430714194 224 131.91958821499 224 C 132.167745715786 224 132.291824466184 224 132.53998196698 224 C 132.788139467772 224 132.912218218168 224 133.16037571896 224 C 133.408533219756 224 133.532611970154 224 133.78076947095 224 C 134.028926971742 224 134.153005722138 224 134.40116322293 224 C 134.649320723726 224 134.773399474124 224 135.02155697492 224 C 135.269714475712 224 135.39379322610802 224 135.6419507269 224 C 135.890108227696 224 136.014186978094 224 136.26234447889 224 C 136.51050197968198 224 136.63458073007797 224 136.88273823087 224 C 137.130895731666 224 137.254974482064 224 137.50313198286 224 C 137.751289483656 224 137.875368234054 224 138.12352573485 224 C 138.37168323564202 224 138.495761986038 224 138.74391948683 224 C 138.992076987626 224 139.11615573802402 224 139.36431323882 224 C 139.61247073961198 224 139.736549490008 224 139.9847069908 224 C 140.232864491596 224 140.35694324199397 224 140.60510074279 224 C 140.85325824358202 224 140.97733699397799 224 141.22549449477 224 C 141.473651995566 224 141.59773074596401 224 141.84588824676 224 C 142.094045747552 224 142.218124497948 224 142.46628199874 224 C 142.714439499536 224 142.838518249934 224 143.08667575073 224 C 143.334833251526 224 143.458912001924 224 143.70706950272 224 C 143.955227003512 224 144.07930575390802 224 144.3274632547 224 C 144.575620755496 224 144.699699505894 224 144.94785700669 224 C 145.19601450748198 224 145.320093257878 186.66666666666666 145.56825075867 186.66666666666666 C 145.816408259466 186.66666666666666 145.940487009864 186.66666666666666 146.18864451066 186.66666666666666 C 146.43680201145202 186.66666666666666 146.560880761848 186.66666666666666 146.80903826264 186.66666666666666 C 147.057195763436 186.66666666666666 147.181274513834 186.66666666666666 147.42943201463 186.66666666666666 C 147.677589515422 186.66666666666666 147.80166826581802 186.66666666666666 148.04982576661 186.66666666666666 C 148.297983267406 186.66666666666666 148.422062017804 186.66666666666666 148.6702195186 186.66666666666666 C 148.91837701939198 186.66666666666666 149.04245576978798 186.66666666666666 149.29061327058 186.66666666666666 C 149.538770771376 186.66666666666666 149.662849521774 224 149.91100702257 224 C 150.159164523366 224 150.28324327376401 224 150.53140077456 224 C 150.77955827535203 224 150.903637025748 224 151.15179452654 224 C 151.39995202733598 224 151.524030777734 224 151.77218827853 224 C 152.02034577932199 224 152.144424529718 224 152.39258203051 224 C 152.640739531306 224 152.76481828170398 224 153.0129757825 224 C 153.26113328329203 224 153.385212033688 224 153.63336953448 224 C 153.88152703527598 224 154.00560578567402 224 154.25376328647 224 C 154.501920787262 224 154.62599953765798 224 154.87415703845 224 C 155.12231453924602 224 155.246393289644 224 155.49455079044 224 C 155.742708291236 224 155.866787041634 224 156.11494454243 224 C 156.363102043222 224 156.48718079361802 224 156.73533829441 224 C 156.983495795206 224 157.107574545604 224 157.3557320464 224 C 157.60388954719198 224 157.727968297588 224 157.97612579838 224 C 158.224283299176 224 158.348362049574 224 158.59651955037 224 C 158.84467705116202 224 158.96875580155802 224 159.21691330235 224 C 159.465070803146 224 159.589149553544 224 159.83730705434 224 C 160.08546455513198 224 160.209543305528 224 160.45770080632 224 C 160.705858307116 224 160.829937057514 224 161.07809455831 224 C 161.326252059102 224 161.45033080949798 224 161.69848831029 224 C 161.946645811086 224 162.070724561484 224 162.31888206228 224 C 162.567039563076 224 162.691118313474 224 162.93927581427 224 C 163.18743331506198 224 163.31151206545798 224 163.55966956625 224 C 163.807827067046 224 163.931905817444 224 164.18006331824 224 C 164.428220819032 224 164.55229956942802 224 164.80045707022 224 C 165.048614571016 224 165.172693321414 224 165.42085082221 224 C 165.669008323002 224 165.793087073398 224 166.04124457419 224 C 166.289402074986 224 166.413480825384 224 166.66163832618 224 C 166.90979582697202 224 167.03387457736798 224 167.28203207816 224 C 167.53018957895603 224 167.654268329354 224 167.90242583015 224 C 168.15058333094598 224 168.27466208134402 224 168.52281958214 224 C 168.770977082932 224 168.89505583332797 224 169.14321333412 224 C 169.39137083491602 224 169.515449585314 224 169.76360708611 224 C 170.011764586902 224 170.135843337298 224 170.38400083809 224 C 170.632158338886 224 170.756237089284 224 171.00439459008 224 C 171.252552090872 224 171.37663084126797 224 171.62478834206 224 C 171.87294584285598 224 171.997024593254 224 172.24518209405 224 C 172.49333959484198 224 172.617418345238 224 172.86557584603 224 C 173.113733346826 224 173.237812097224 224 173.48596959802 224 C 173.734127098812 224 173.858205849208 224 174.10636335 224 C 174.354520850796 224 174.478599601194 224 174.72675710199 224 C 174.974914602786 224 175.098993353184 224 175.34715085398 224 C 175.595308354772 224 175.71938710516798 224 175.96754460596 224 C 176.215702106756 224 176.33978085715404 224 176.58793835795 224 C 176.836095858742 224 176.96017460913802 224 177.20833210993 224 C 177.456489610726 224 177.580568361124 224 177.82872586192 224 C 178.07688336271198 224 178.200962113108 224 178.4491196139 224 C 178.697277114696 224 178.821355865094 224 179.06951336589 224 C 179.31767086668202 224 179.441749617078 224 179.68990711787 224 C 179.938064618666 224 180.06214336906402 224 180.31030086986 224 C 180.55845837065598 224 180.682537121054 224 180.93069462185 224 C 181.178852122642 224 181.30293087303798 224 181.55108837383 224 C 181.79924587462602 224 181.923324625024 224 182.17148212582 224 C 182.419639626612 224 182.54371837700802 224 182.7918758778 224 C 183.04003337859598 224 183.164112128994 224 183.41226962979 224 C 183.660427130582 224 183.78450588097797 224 184.03266338177 224 C 184.280820882566 224 184.404899632964 224 184.65305713376 224 C 184.901214634552 224 185.02529338494801 224 185.27345088574 224 C 185.521608386536 224 185.64568713693401 224 185.89384463773 224 C 186.142002138526 224 186.266080888924 224 186.51423838972 224 C 186.76239589051198 224 186.886474640908 224 187.1346321417 224 C 187.382789642496 224 187.506868392894 224 187.75502589369 224 C 188.003183394482 224 188.127262144878 224 188.37541964567 224 C 188.623577146466 224 188.747655896864 224 188.99581339766 224 C 189.243970898452 224 189.368049648848 224 189.61620714964 224 C 189.864364650436 224 189.988443400834 224 190.23660090163 224 C 190.484758402422 224 190.608837152818 224 190.85699465361 224 C 191.105152154406 224 191.229230904804 224 191.4773884056 224 C 191.72554590639203 224 191.849624656788 224 192.09778215758 224 C 192.345939658376 224 192.47001840877402 224 192.71817590957 224 C 192.966333410366 224 193.090412160764 224 193.33856966156 224 C 193.58672716235202 224 193.710805912748 224 193.95896341354 224 C 194.20712091433603 224 194.33119966473402 224 194.57935716553 224 C 194.82751466632197 224 194.95159341671803 224 195.19975091751 224 C 195.44790841830599 224 195.57198716870397 224 195.8201446695 224 C 196.06830217029201 224 196.19238092068798 224 196.44053842148 224 C 196.688695922276 224 196.812774672674 224 197.06093217347 224 C 197.309089674262 224 197.43316842465802 224 197.68132592545 224 C 197.929483426246 224 198.053562176644 224 198.30171967744 224 C 198.549877178236 224 198.673955928634 224 198.92211342943 224 C 199.170270930222 224 199.294349680618 224 199.54250718141 224 C 199.790664682206 224 199.914743432604 224 200.1629009334 224 C 200.411058434192 224 200.535137184588 224 200.78329468538 224 C 201.031452186176 224 201.155530936574 224 201.40368843737 224 C 201.651845938162 224 201.775924688558 224 202.02408218935 224 C 202.272239690146 224 202.396318440544 224 202.64447594134 224 C 202.892633442132 224 203.01671219252802 224 203.26486969332 224 C 203.513027194116 224 203.637105944514 224 203.88526344531 224 C 204.13342094610198 224 204.25749969649797 224 204.50565719729 224 C 204.753814698086 224 204.87789344848403 224 205.12605094928 224 C 205.374208450076 224 205.49828720047398 224 205.74644470127 224 C 205.99460220206203 224 206.118680952458 224 206.36683845325 224 C 206.61499595404604 224 206.73907470444402 224 206.98723220524 224 C 207.23538970603198 224 207.35946845642803 224 207.60762595722 224 C 207.855783458016 224 207.97986220841398 224 208.22801970921 224 C 208.47617721000202 224 208.600255960398 224 208.84841346119 224 C 209.09657096198598 224 209.22064971238402 224 209.46880721318 224 C 209.716964713972 224 209.84104346436797 224 210.08920096516 224 C 210.33735846595602 224 210.461437216354 224 210.70959471715 224 C 210.95775221794602 224 211.081830968344 224 211.32998846914 224 C 211.578145969932 224 211.70222472032802 224 211.95038222112 224 C 212.198539721916 224 212.322618472314 224 212.57077597311 224 C 212.81893347390195 224 212.943012224298 224 213.19116972509 224 C 213.43932722588596 224 213.563405976284 224 213.81156347708 224 C 214.059720977872 224 214.183799728268 224 214.43195722906 224 C 214.680114729856 224 214.80419348025399 224 215.05235098105 224 C 215.300508481842 224 215.424587232238 224 215.67274473303 224 C 215.920902233826 224 216.044980984224 224 216.29313848502 224 C 216.541295985816 224 216.665374736214 224 216.91353223701 224 C 217.161689737802 224 217.28576848819802 224 217.53392598899 224 C 217.782083489786 224 217.906162240184 224 218.15431974098 224 C 218.40247724177198 224 218.52655599216797 224 218.77471349296 224 C 219.022870993756 224 219.14694974415403 224 219.39510724495 224 C 219.643264745742 224 219.76734349613798 224 220.01550099693 224 C 220.263658497726 224 220.38773724812398 224 220.63589474892 224 C 220.88405224971203 224 221.008131000108 224 221.2562885009 224 C 221.50444600169598 224 221.62852475209402 224 221.87668225289 224 C 222.124839753682 224 222.24891850407798 224 222.49707600487 224 C 222.74523350566602 224 222.869312256064 224 223.11746975686 224 C 223.36562725765597 224 223.48970600805401 224 223.73786350885 224 C 224.180755715126 224 224.402201818264 224 224.84509402454 224 C 225.63937035868003 224 226.03650852575 224 226.83078485989 224 C 227.12909085563803 224 227.278243853512 224 227.57654984926 224 C 228.02633531944804 224 228.25122805454203 224 228.70101352473 224 C 229.681924979258 224 230.172380706522 224 231.15329216105 224 C 231.661325711286 224 231.915342486404 224 232.42337603664 224 C 235.401266046172 224 236.89021105093798 224 239.86810106047 224 C 240.36441606205798 224 240.612573562852 224 241.10888856444 224 C 241.792183349612 224 242.133830742198 224 242.81712552737 224 C 243.37461824617003 224 243.65336460557 224 244.21085732437 224 C 244.86399407993002 224 245.19056245770997 224 245.84369921327 224 C 246.59764995352998 224 246.97462532366004 224 247.72857606392 224 C 248.545427837368 224 248.953853724092 224 249.77070549754 224 C 249.89478424794 224 249.95682362314 224 250.08090237354 224 C 250.21445936181198 224 250.28123785594798 224 250.41479484422 224 C 250.66295234501598 224 250.78703109541402 224 251.03518859621 224 C 251.283346097002 224 251.40742484739798 224 251.65558234819 224 C 252.04832605951796 224 252.244697915182 224 252.63744162651 224 C 252.99054907034997 224 253.16710279227 224 253.52021023611 224 C 254.03237974469002 224 254.28846449898 224 254.80063400756 224 C 255.52787335016802 224 255.89149302147203 224 256.61873236408 224 C 256.866889864872 224 256.990968615268 224 257.23912611606 224 C 259.968858624796 224 261.333724879164 224 264.0634573879 224 C 264.311614888696 224 264.435693639094 224 264.68385113989 224 C 264.932008640682 224 265.056087391078 224 265.30424489187 224 C 265.552402392666 224 265.67648114306405 224 265.92463864386 224 C 266.172796144656 224 266.296874895054 224 266.54503239585 224 C 266.793189896642 224 266.917268647038 224 267.16542614783 224 C 267.413583648626 224 267.537662399024 224 267.78581989982 224 C 268.033977400612 224 268.158056151008 224 268.4062136518 224 C 268.654371152596 224 268.778449902994 224 269.02660740379 224 C 269.274764904582 224 269.398843654978 224 269.64700115577 224 C 269.89515865656597 224 270.01923740696395 224 270.26739490776 224 C 270.51555240855197 224 270.639631158948 224 270.88778865974 224 C 271.13594616053604 224 271.260024910934 224 271.50818241173 224 C 271.75633991252596 224 271.880418662924 224 272.12857616372 224 C 272.376733664512 224 272.500812414908 224 272.7489699157 224 C 272.997127416496 224 273.121206166894 224 273.36936366769 224 C 275.25932430047396 224 276.204304616866 224 278.09426524965 224 C 278.653653616022 224 278.93334779920804 224 279.49273616558 224 C 279.989051167168 224 280.237208667962 224 280.73352366955 224 C 287.21784469898597 224 290.460005213704 224 296.94432624314 224 C 297.19248374393203 224 297.31656249432797 224 297.56471999512 224 C 297.81287749591604 224 297.936956246314 224 298.18511374711 224 C 298.611634451598 224 298.824894803842 224 299.25141550833 224 C 299.32120980543004 224 299.35610695398 224 299.42590125108 224 C 299.674058751872 224 299.798137502268 224 300.04629500306 224 C 300.29445250385595 224 300.418531254254 224 300.66668875505 224 C 300.914846255842 224 301.038925006238 224 301.28708250703 224 C 301.535240007826 224 301.659318758224 224 301.90747625902 224 C 302.155633759816 224 302.279712510214 224 302.52787001101 224 C 305.988805489098 224 307.719273228142 224 311.18020870623 224 C 311.80060245821403 224 312.11079933420604 224 312.73119308619 224 C 312.920930175342 224 313.015798719918 224 313.20553580907 224 C 313.549509678226 224 313.721496612804 224 314.06547048196 224 C 314.165422808668 224 314.215398972022 224 314.31535129873 224 C 314.56350879952595 224 314.687587549924 224 314.93574505072 224 C 315.183902551512 224 315.307981301908 224 315.5561388027 224 C 315.804296303496 224 315.928375053894 224 316.17653255469 224 C 316.424690055482 224 316.548768805878 224 316.79692630667 224 C 317.165721670294 224 317.350119352106 224 317.71891471573 224 C 318.09459185449 224 318.28243042387004 224 318.65810756263 224 C 318.906265063422 224 319.03034381381804 224 319.27850131461 224 C 319.526658815406 224 319.650737565804 224 319.8988950666 224 C 320.147052567392 224 320.271131317788 224 320.51928881858 224 C 320.767446319376 224 320.891525069774 224 321.13968257057 224 C 321.387840071366 224 321.51191882176397 224 321.76007632256 224 C 322.00823382335204 224 322.132312573748 224 322.38047007454 224 C 322.62862757533605 224 322.75270632573404 224 323.00086382653 224 C 323.249021327322 224 323.373100077718 224 323.62125757851 224 C 323.86941507930595 224 323.99349382970405 224 324.2416513305 224 C 324.489808831292 224 324.613887581688 224 324.86204508248 224 C 325.11020258327596 224 325.23428133367395 224 325.48243883447 224 C 325.891169173682 224 326.095534343288 224 326.5042646825 224 C 327.21452361833997 224 327.56965308626 224 328.2799120221 224 C 328.40171025102 224 328.46260936548 224 328.5844075944 224 C 328.83256509519197 224 328.956643845588 224 329.20480134638 224 C 329.452958847176 224 329.577037597574 224 329.82519509837 224 C 330.073352599162 224 330.197431349558 224 330.44558885035 224 C 330.693746351146 224 330.817825101544 224 331.06598260234 224 C 331.314140103132 224 331.438218853528 224 331.68637635432 224 C 331.934533855116 224 332.058612605514 224 332.30677010631 224 C 332.554927607102 224 332.679006357498 224 332.92716385829 224 C 333.175321359086 224 333.29940010948405 224 333.54755761028 224 C 333.795715111076 224 333.919793861474 224 334.16795136227 224 C 334.416108863062 224 334.540187613458 224 334.78834511425 224 C 335.036502615046 224 335.160581365444 224 335.40873886624 224 C 335.656896367032 224 335.780975117428 224 336.02913261822 224 C 336.277290119016 224 336.401368869414 224 336.64952637021 224 C 336.897683871002 224 337.021762621398 224 337.26992012219 224 C 337.51807762298597 224 337.64215637338395 224 337.89031387418 224 C 338.13847137497197 224 338.262550125368 224 338.51070762616 224 C 338.75886512695604 224 338.882943877354 224 339.13110137815 224 C 339.37925887894596 224 339.50333762934395 224 339.75149513014 224 C 339.999652630932 224 340.12373138132796 224 340.37188888212 224 C 340.62004638291603 224 340.744125133314 224 340.99228263411 224 C 341.24044013490203 224 341.364518885298 224 341.61267638609 224 C 341.86083388688604 224 341.984912637284 224 342.23307013808 224 C 342.48122763887204 224 342.60530638926804 224 342.85346389006 224 C 343.101621390856 224 343.22570014125404 224 343.47385764205 224 C 343.880247143726 224 344.08344189456403 224 344.48983139624 224 C 344.57975689615205 224 344.624719646108 224 344.71464514602 224 C 344.962802646816 224 345.086881397214 224 345.33503889801 224 C 345.583196398802 224 345.707275149198 224 345.95543264999 224 C 346.203590150786 224 346.327668901184 224 346.57582640198 224 C 347.002835379328 224 347.21633986800197 224 347.64334884535 224 C 347.736979474614 224 347.783794789246 224 347.87742541851 224 C 348.10125831427797 224 348.213174762162 224 348.43700765793 224 C 348.933322659518 224 349.181480160312 224 349.6777951619 224 C 350.06562455049595 224 350.259539244794 224 350.64736863339 224 C 352.39448934917 224 353.26804970705996 224 355.01517042284 224 C 355.113637825612 224 355.162871526998 224 355.26133892977 224 C 356.005811432154 224 356.378047683346 224 357.12252018573 224 C 357.370677686526 224 357.49475643692404 224 357.74291393772 224 C 357.991071438512 224 358.115150188908 224 358.3633076897 224 C 358.611465190496 224 358.735543940894 224 358.98370144169 224 C 359.231858942482 224 359.355937692878 224 359.60409519367 224 C 359.852252694466 224 359.976331444864 224 360.22448894566 224 C 360.472646446452 224 360.596725196848 224 360.84488269764 224 C 361.093040198436 224 361.217118948834 224 361.46527644963 224 C 361.713433950422 224 361.837512700818 224 362.08567020161 224 C 362.33382770240604 224 362.45790645280397 224 362.7060639536 224 C 362.954221454392 224 363.07830020478804 224 363.32645770558 224 C 363.57461520637605 224 363.698693956774 224 363.94685145757 224 C 364.195008958366 224 364.31908770876396 224 364.56724520956 224 C 364.81540271035203 224 364.93948146074797 224 365.18763896154 224 C 365.43579646233604 224 365.559875212734 224 365.80803271353 224 C 366.05619021432204 224 366.180268964718 224 366.42842646551 224 C 366.67658396630594 224 366.80066271670404 224 367.0488202175 224 C 367.296977718292 224 367.42105646868794 224 367.66921396948 224 C 367.91737147027595 224 368.041450220674 224 368.28960772147 224 C 368.537765222262 224 368.661843972658 224 368.91000147345 224 C 369.158158974246 224 369.282237724644 224 369.53039522544 224 C 369.778552726236 224 369.902631476634 224 370.15078897743 224 C 370.398946478222 224 370.523025228618 224 370.77118272941 224 C 371.019340230206 224 371.143418980604 224 371.3915764814 224 C 371.639733982192 224 371.763812732588 224 372.01197023338 224 C 372.26012773417597 224 372.384206484574 224 372.63236398537 224 C 372.88052148616197 224 373.00460023655796 224 373.25275773735 224 C 373.67654124163 224 373.88843299377004 224 374.31221649805 224 C 374.384747995358 224 374.421013744012 224 374.49354524132 224 C 374.741702742116 224 374.865781492514 224 375.11393899331 224 C 375.362096494102 224 375.486175244498 224 375.73433274529 224 C 375.982490246086 224 376.10656899648404 224 376.35472649728 224 C 376.60288399807604 224 376.72696274847397 224 376.97512024927 224 C 377.223277750062 224 377.34735650045803 224 377.59551400125 224 C 377.84367150204605 224 377.967750252444 224 378.21590775324 224 C 378.464065254032 224 378.588144004428 224 378.83630150522 224 C 379.084459006016 224 379.208537756414 224 379.45669525721 224 C 379.95301025879803 224 380.20116775959207 224 380.69748276118 224 C 381.193797762768 224 381.44195526356197 224 381.93827026515 224 C 382.18642776594595 224 382.310506516344 224 382.55866401714 224 C 382.806821517932 224 382.930900268328 224 383.17905776912 224 C 383.427215269916 224 383.551294020314 224 383.79945152111 224 C 384.047609021902 224 384.171687772298 224 384.41984527309 224 C 384.66800277388603 224 384.792081524284 224 385.04023902508 224 C 385.30580776163595 224 385.438592129914 224 385.70416086647 224 C 386.183064632294 224 386.422516515206 224 386.90142028103 224 C 387.14957778182605 224 387.273656532224 224 387.52181403302 224 C 387.769971533816 224 387.89405028421396 224 388.14220778501 224 C 388.390365285802 224 388.514444036198 224 388.76260153699 224 C 389.010759037786 224 389.134837788184 224 389.38299528898 224 C 389.631152789772 224 389.755231540168 224 390.00338904096 224 C 390.251546541756 224 390.37562529215404 224 390.62378279295 224 C 390.87194029374206 224 390.996019044138 224 391.24417654493 224 C 391.49233404572595 224 391.61641279612405 224 391.86457029692 224 C 392.112727797712 224 392.23680654810795 224 392.4849640489 224 C 392.73312154969597 224 392.85720030009395 224 393.10535780089 224 C 393.584060513186 224 393.823411869334 224 394.30211458163 224 C 394.81604187250997 224 395.07300551795004 224 395.58693280883 224 C 395.835090309626 224 395.95916906002395 224 396.20732656082 224 C 396.45548406161197 224 396.579562812008 224 396.8277203128 224 C 397.075877813596 224 397.199956563994 224 397.44811406479 224 C 397.696271565582 224 397.820350315978 224 398.06850781677 224 C 398.316665317566 224 398.440744067964 224 398.68890156876 224 C 398.937059069552 224 399.061137819948 224 399.30929532074 224 C 399.557452821536 224 399.681531571934 224 399.92968907273 224 C 400.177846573526 224 400.301925323924 224 400.55008282472 224 C 400.798240325512 224 400.92231907590804 224 401.1704765767 224 C 401.41863407749605 224 401.542712827894 224 401.79087032869 224 C 402.404339222638 224 402.71107366961195 224 403.32454256356 224 C 403.45554617199195 224 403.52104797620797 224 403.65205158464 224 C 403.900209085436 224 404.024287835834 224 404.27244533663 224 C 404.520602837422 224 404.644681587818 224 404.89283908861 224 C 405.14099658940603 224 405.26507533980396 224 405.5132328406 224 C 406.11041352636397 224 406.409003869246 224 407.00618455501 224 C 407.15347637163006 224 407.22712227994 224 407.37441409656 224 C 408.08309332608394 224 408.43743294084595 224 409.14611217037 224 C 409.22161925993396 224 409.259372804716 224 409.33487989428 224 C 409.543323578368 224 409.64754542041203 224 409.8559891045 224 C 410.10414660529204 224 410.2282253556879 224 410.47638285648 224 C 410.72454035727594 224 410.8486191076739 224 411.09677660847 224 C 411.344934109262 224 411.46901285965794 224 411.71717036045 224 C 411.965327861246 224 412.089406611644 224 412.33756411244 224 C 412.585721613236 224 412.709800363634 224 412.95795786443 224 C 413.206115365222 224 413.330194115618 224 413.57835161641 224 C 413.826509117206 224 413.950587867604 224 414.1987453684 224 C 414.44690286919194 224 414.570981619588 224 414.81913912038 224 C 415.24808108382 224 415.46255206553997 224 415.89149402898 224 C 416.188231807188 224 416.33660069629207 224 416.6333384745 224 C 416.87879324140005 224 417.00152062485006 224 417.24697539175 224 C 417.26847088637805 224 417.27921863369204 224 417.30071412832 224 C 417.73845074763193 224 417.9573190572881 224 418.3950556766 224 C 418.453634058876 224 418.48292325001404 224 418.54150163229 224 C 418.78965913308605 224 418.91373788348403 224 419.16189538428 224 C 419.410052885076 224 419.53413163547395 224 419.78228913627 224 C 420.03044663706197 224 420.154525387458 224 420.40268288825 224 C 420.65084038904604 224 420.77491913944397 224 421.02307664024 224 C 421.271234141032 224 421.395312891428 224 421.64347039222 224 C 422.02034810778 224 422.20878696556 224 422.58566468112 224 C 422.70510196714804 224 422.764820610162 224 422.88425789619 224 C 423.132415396986 224 423.256494147384 224 423.50465164818 224 C 423.752809148972 224 423.876887899368 224 424.12504540016 224 C 424.373202900956 224 424.497281651354 224 424.74543915215 224 C 424.99359665294594 224 425.11767540334404 224 425.36583290414 224 C 425.613990404932 224 425.73806915532805 224 425.98622665612 224 C 426.234384156916 224 426.358462907314 186.66666666666666 426.60662040811 186.66666666666666 C 426.854777908902 186.66666666666666 426.978856659298 186.66666666666666 427.22701416009 186.66666666666666 C 427.475171660886 186.66666666666666 427.599250411284 186.66666666666666 427.84740791208 186.66666666666666 C 428.095565412872 186.66666666666666 428.219644163268 186.66666666666666 428.46780166406 186.66666666666666 C 428.71595916485603 186.66666666666666 428.840037915254 186.66666666666666 429.08819541605 186.66666666666666 C 429.33635291684203 186.66666666666666 429.460431667238 186.66666666666666 429.70858916803 186.66666666666666 C 429.979936757498 186.66666666666666 430.115610552232 186.66666666666666 430.3869581417 186.66666666666666 C 430.61192555382405 186.66666666666666 430.72440925988593 224 430.94937667201 224 C 431.19753417280197 224 431.32161292319796 224 431.56977042399 224 C 431.817927924786 224 431.94200667518396 224 432.19016417598 224 C 432.43832167677203 224 432.562400427168 224 432.81055792796 224 C 433.275563150428 224 433.50806576166195 224 433.97307098413 224 C 434.00438076324997 224 434.02003565280995 224 434.05134543193 224 C 434.29950293272594 224 434.42358168312404 224 434.67173918392 224 C 434.91989668471194 224 435.04397543510794 224 435.2921329359 224 C 435.54029043669595 224 435.66436918709405 224 435.91252668789 224 C 436.160684188682 224 436.28476293907806 224 436.53292043987 224 C 436.781077940666 224 436.905156691064 224 437.15331419186 224 C 437.401471692656 224 437.525550443054 224 437.77370794385 224 C 438.51818044622996 224 438.89041669742 224 439.6348891998 224 C 439.88304670059597 224 440.00712545099395 224 440.25528295179 224 C 440.50344045258197 224 440.62751920297796 224 440.87567670377 224 C 441.123834204566 224 441.24791295496397 224 441.49607045576 224 C 441.744227956552 224 441.868306706948 224 442.11646420774 224 C 442.40203202621996 224 442.54481593546006 224 442.83038375394 224 C 443.289288437844 224 443.518740779796 224 443.9776454637 224 C 444.22580296449604 224 444.59803921569 224 444.59803921569 224" class="highcharts-graph" data-z-index="1" stroke="#000000" stroke-width="2" stroke-linejoin="round" stroke-linecap="round"></path></g><g data-z-index="0.1" class="highcharts-markers highcharts-series-0 highcharts-spline-series highcharts-color-0 " transform="translate(83,99) scale(1 1)" clip-path="none"></g><g data-z-index="0.1" class="highcharts-series highcharts-series-1 highcharts-spline-series highcharts-color-1 " transform="translate(83,99) scale(1 1)" clip-path="url(#highcharts-teqkgns-2211)"><path fill="none" d="M 4.4019607843137 154 C 4.4019607843137 154 4.60410574850232 160.45919591959185 4.7388690579614 163.33333333333331 C 4.9870265587556 168.6258625862585 5.1111053091527 171.0981481481481 5.3592628099469 174.41666666666666 C 5.6074203107411 177.73518518518517 5.7314990611382 179.92592592592592 5.9796565619324 179.92592592592592 C 6.227814062726599 179.92592592592592 6.351892813123699 171.77777777777777 6.6000503139179 170.66666666666666 C 7.0963653155063 169.55555555555554 7.3445228163005 169.55555555555554 7.8408378178889 169.55555555555554 C 8.088995318683141 169.55555555555554 8.21307406908026 173.44444444444446 8.4612315698745 173.44444444444446 C 8.709389070668701 173.44444444444446 8.833467821065799 171.2222222222222 9.08162532186 167.33333333333331 C 9.3297828226542 163.44444444444443 9.453861573051302 154 9.7020190738455 154 C 9.950176574639702 154 10.074255325036798 171.5 10.322412825831 171.5 C 10.570570326624999 171.5 10.694649077022001 158.24242424242425 10.942806577816 158.24242424242425 C 11.190964078610401 158.24242424242425 11.315042829007599 177.33333333333331 11.563200329802 177.33333333333331 C 11.811357830596398 177.33333333333331 11.9354365809936 170.33333333333331 12.183594081788 170.33333333333331 C 12.431751582581999 170.33333333333331 12.555830332979 170.33333333333331 12.803987833773 171.5 C 13.052145334567399 172.66666666666669 13.176224084964598 179.27777777777777 13.424381585759 179.27777777777777 C 13.672539086553002 179.27777777777777 13.79661783695 179.27777777777777 14.044775337744 175.77777777777777 C 14.2929328385384 172.27777777777777 14.4170115889356 160.22222222222223 14.66516908973 160.22222222222223 C 14.913326590524 160.22222222222223 15.037405340921001 178.13793103448276 15.285562841715 178.13793103448276 C 15.533720342509401 178.13793103448276 15.6577990929066 162.75 15.905956593701 162.75 C 16.154114094495 162.75 16.278192844892 188.02777777777777 16.526350345686 192.88888888888889 C 16.7745078464804 197.75 16.8985865968776 197.75 17.146744097672 197.75 C 17.394901598466 197.75 17.518980348863 197.31410256409657 17.767137849657 189.8974358974359 C 18.015295350451403 182.48076923076326 18.139374100848602 160.66666666666666 18.387531601643 160.66666666666666 C 18.635689102437 160.66666666666666 18.759767852834 177.33333333333331 19.007925353628 177.33333333333331 C 19.256082854422402 177.33333333333331 19.3801616048196 154 19.628319105614 154 C 19.876476606407998 154 20.000555356805002 154 20.248712857599 154 C 20.496870358393398 154 20.620949108790597 177.33333333333331 20.869106609585 177.33333333333331 C 21.117264110379 177.33333333333331 21.241342860776 167.64102564102214 21.48950036157 163.33333333333331 C 21.737657862364397 159.02564102563753 21.861736612761597 155.7948717948718 22.109894113556 155.7948717948718 C 22.35805161435 155.7948717948718 22.482130364747 158.66666666666666 22.730287865541 158.66666666666666 C 22.9784453663354 158.66666666666666 23.1025241167326 154 23.350681617527 154 C 23.598839118321 154 23.722917868718003 175 23.971075369512 175 C 24.219232870306403 175 24.343311620703602 165.66666666666666 24.591469121498 165.66666666666666 C 24.888396464462 165.66666666666666 25.036860135944004 200.66666666666666 25.333787478908 200.66666666666666 C 25.781332638326397 200.66666666666666 26.005105218035602 177.33333333333331 26.452650377454 177.33333333333331 C 26.997735221212395 177.33333333333331 27.270277643091596 177.33333333333331 27.81536248685 177.33333333333331 C 28.014750145474398 177.33333333333331 28.1144439747866 177.33333333333331 28.313831633411 177.33333333333331 C 28.591113174228997 177.33333333333331 28.729753944638002 177.33333333333331 29.007035485456 177.33333333333331 C 29.474226447020403 177.33333333333331 29.707821927802605 179.92592592592592 30.175012889367 179.92592592592592 C 30.423170390161403 179.92592592592592 30.547249140558602 176.0185185185222 30.795406641353 171.5 C 31.043564142146998 166.98148148148513 31.167642892544002 157.74999999999997 31.415800393338 157.33333333333331 C 31.6639578941324 156.91666666666666 31.788036644529598 156.91666666666666 32.036194145324 156.91666666666666 C 32.284351646118 156.91666666666666 32.408430396514994 156.9833333333336 32.656587897309 157.33333333333331 C 32.9047453981034 157.6833333333336 33.0288241485006 158.66666666666666 33.276981649295 158.66666666666666 C 33.525139150089004 158.66666666666666 33.649217900486 158.66666666666666 33.89737540128 157.88888888888889 C 34.1455329020744 157.11111111111111 34.269611652471596 154 34.517769153266 154 C 34.76592665406 154 34.890005404457 154 35.138162905251 154 C 35.3863204060454 154 35.5103991564426 158.6666666666629 35.758556657237 163.33333333333331 C 36.006714158031 167.99999999999622 36.130792908428 177.33333333333331 36.378950409222 177.33333333333331 C 36.675877752186395 177.33333333333331 36.8243414236686 177.33333333333331 37.121268766633 177.33333333333331 C 37.320656425257006 177.33333333333331 37.420350254568994 172.66666666666666 37.619737913193 172.66666666666666 C 37.8678954139874 172.66666666666666 37.9919741643846 177.33333333333331 38.240131665179 177.33333333333331 C 38.488289165973 177.33333333333331 38.61236791637 170.66666666666666 38.860525417164 170.66666666666666 C 39.108682917958404 170.66666666666666 39.2327616683556 183.16666666666666 39.48091916915 183.16666666666666 C 39.729076669944 183.16666666666666 39.853155420341 168 40.101312921135 168 C 40.349470421929404 168 40.4735491723266 187.33333333333331 40.721706673121 187.33333333333331 C 40.969864173915 187.33333333333331 41.093942924312 180.1111111111088 41.342100425106 177.33333333333331 C 41.590257925900396 174.55555555555327 41.7143366762976 174.48148148148232 41.962494177092 173.44444444444446 C 42.210651677886 172.40740740740824 42.334730428283 173.44444444444446 42.582887929077 172.14814814814815 C 42.8310454298714 170.85185185185185 42.9551241802686 163.57734204793297 43.203281681063 160.22222222222223 C 43.451439181857 156.86710239651686 43.575517932254 155.37254901960785 43.823675433048 155.37254901960785 C 44.0718329338424 155.37254901960785 44.195911684239604 155.37254901960785 44.444069185034 156.12121212121212 C 44.692226685828004 156.8698752228164 44.816305436225 166.35294117647058 45.064462937019 166.35294117647058 C 45.3126204378134 166.35294117647058 45.436699188210596 156.7450980392157 45.684856689005 156.7450980392157 C 45.933014189798996 156.7450980392157 46.057092940196 165.3141711229973 46.30525044099 168.58333333333331 C 46.55340794178441 171.85249554367465 46.6774866921816 170.3038720538698 46.925644192976 173.0909090909091 C 47.17380169377 175.8779461279439 47.297880444167006 182.51851851851853 47.546037944961 182.51851851851853 C 47.7941954457554 182.51851851851853 47.9182741961526 179.92592592592803 48.166431696947 177.33333333333331 C 48.414589197740995 174.74074074074284 48.538667948138 171.59722222222058 48.786825448932 169.55555555555554 C 49.0349829497264 167.51388888888724 49.159061700123594 168.53914141414256 49.407219200918 167.125 C 49.655376701712 165.71085858585974 49.779455452109005 162.4848484848485 50.027612952903 162.4848484848485 C 50.275770453697405 162.4848484848485 50.3998492040946 168.25925925925924 50.648006704889 168.25925925925924 C 50.896164205683 168.25925925925924 51.02024295608 164.50381263616376 51.268400456874 162.23529411764704 C 51.5165579576684 159.96677559912672 51.6406367080656 156.91666666666666 51.88879420886 156.91666666666666 C 52.136951709654 156.91666666666666 52.261030460050996 157.6146723646736 52.509187960845 159.18518518518516 C 52.757345461639396 160.75569800569923 52.8814242120366 164.76923076923077 53.129581712831 164.76923076923077 C 53.3777392136254 164.76923076923077 53.5018179640226 155.55555555555554 53.749975464817 155.55555555555554 C 53.998132965611 155.55555555555554 54.122211716007996 155.55555555555554 54.370369216802 156.33333333333331 C 54.618526717596396 157.1111111111111 54.7426054679936 162.24444444444106 54.990762968788 166.44444444444443 C 55.238920469582 170.64444444444106 55.362999219978995 177.33333333333331 55.611156720773 177.33333333333331 C 55.8593142215674 177.33333333333331 55.9833929719646 173.2649572649598 56.231550472759 170.15384615384616 C 56.47970797355299 167.04273504273758 56.603786723949995 164.67521367521135 56.851944224744 161.77777777777777 C 57.10010172553841 158.88034188033953 57.2241804759356 155.66666666666666 57.47233797673 155.66666666666666 C 57.720495477524004 155.66666666666666 57.844574227921 175.9607843137255 58.092731728715 175.9607843137255 C 58.3408892295094 175.9607843137255 58.4649679799066 154 58.713125480701 154 C 58.961282981495 154 59.085361731892 169.9090909090909 59.333519232686 169.9090909090909 C 59.5816767334804 169.9090909090909 59.7057554838776 161.42424242424244 59.953912984672 161.42424242424244 C 60.202070485466 161.42424242424244 60.326149235863 166.1907308377911 60.574306736657 168 C 60.8224642374514 169.8092691622118 60.9465429878486 170.47058823529412 61.194700488643 170.47058823529412 C 61.442857989436995 170.47058823529412 61.566936739834 161.77777777777777 61.815094240628 161.77777777777777 C 62.06325174142239 161.77777777777777 62.1873304918196 161.77777777777777 62.435487992614 165.66666666666666 C 62.683645493407994 169.55555555555554 62.807724243805 189 63.055881744599 189 C 63.304039245393405 189 63.4281179957906 165.66666666666666 63.676275496585 165.66666666666666 C 63.92443299737899 165.66666666666666 64.048511747776 165.66666666666666 64.29666924857 166.44444444444443 C 64.54482674936439 167.2222222222222 64.6689054997616 169.19259259259167 64.917063000556 170.33333333333331 C 65.16522050134999 171.47407407407314 65.289299251747 172.14814814814815 65.537456752541 172.14814814814815 C 65.78561425333541 172.14814814814815 65.9096930037326 167.2222222222222 66.157850504527 166.44444444444443 C 66.406008005321 165.66666666666666 66.530086755718 165.66666666666666 66.778244256512 165.66666666666666 C 67.02640175730639 165.66666666666666 67.1504805077036 165.66666666666666 67.398638008498 165.66666666666666 C 67.64679550929199 165.66666666666666 67.77087425968901 174 68.019031760483 174 C 68.2671892612774 174 68.39126801167461 154 68.639425512469 154 C 68.887583013263 154 69.01166176366 154 69.259819264454 154 C 69.5079767652484 154 69.63205551564559 154 69.88021301644 154 C 70.128370517234 154 70.25244926763101 154 70.500606768425 154 C 70.7487642692194 154 70.87284301961661 154 71.121000520411 154 C 71.369158021205 154 71.493236771602 155.3611111111124 71.741394272396 156.91666666666666 C 71.9895517731904 158.4722222222235 72.11363052358759 159.24999999999798 72.361788024382 161.77777777777777 C 72.609945525176 164.30555555555352 72.734024275573 169.55555555555554 72.982181776367 169.55555555555554 C 73.23033927716139 169.55555555555554 73.35441802755861 154 73.602575528353 154 C 73.850733029147 154 73.97481177954401 154 74.222969280338 154 C 74.58365931447841 154 74.7640043315486 154 75.124694365689 154 C 75.260319333137 154 75.32813181686099 157.88888888888889 75.463756784309 157.88888888888889 C 75.7119142851034 157.88888888888889 75.8359930355006 151.87878787878788 76.084150536295 151.87878787878788 C 76.332308037089 151.87878787878788 76.45638678748601 154.83501683501822 76.70454428828 156.59259259259258 C 76.9527017890744 158.35016835016975 77.07678053947161 160.66666666666666 77.324938040266 160.66666666666666 C 77.57309554106 160.66666666666666 77.697174291457 158.66666666666666 77.945331792251 158.66666666666666 C 78.1934892930454 158.66666666666666 78.31756804344259 168 78.565725544237 168 C 78.813883045031 168 78.93796179542801 163.72222222222223 79.186119296222 163.72222222222223 C 79.4342767970164 163.72222222222223 79.55835554741361 166.72727272727272 79.806513048208 166.72727272727272 C 80.054670549002 166.72727272727272 80.178749299399 164.62878787878634 80.426906800193 162.75 C 80.6750643009874 160.87121212121056 80.79914305138459 158.7243589743601 81.047300552179 157.33333333333331 C 81.295458052973 155.9423076923088 81.41953680337 155.7948717948718 81.667694304164 155.7948717948718 C 81.91585180495841 155.7948717948718 82.0399305553556 162.75 82.28808805615 162.75 C 82.53624555694401 162.75 82.660324307341 159.83333333333331 82.908481808135 159.83333333333331 C 83.1566393089294 159.83333333333331 83.28071805932659 161.77777777777777 83.528875560121 161.77777777777777 C 83.777033060915 161.77777777777777 83.90111181131199 161.17948717948718 84.149269312106 161.17948717948718 C 84.3974268129004 161.17948717948718 84.5215055632976 170.96969696969697 84.769663064092 170.96969696969697 C 85.01782056488601 170.96969696969697 85.14189931528301 168 85.390056816077 168 C 85.6382143168714 168 85.76229306726862 172.66666666666666 86.010450568063 172.66666666666666 C 86.258608068857 172.66666666666666 86.38268681925399 172.66666666666666 86.630844320048 171.5 C 86.87900182084239 170.33333333333334 87.00308057123961 157.33333333333331 87.251238072034 157.33333333333331 C 87.499395572828 157.33333333333331 87.623474323225 159.83333333333331 87.871631824019 159.83333333333331 C 88.11978932481341 159.83333333333331 88.2438680752106 157.33333333333331 88.492025576005 157.33333333333331 C 88.74018307679901 157.33333333333331 88.864261827196 165.66666666666666 89.11241932799 165.66666666666666 C 89.3605768287844 165.66666666666666 89.48465557918159 164.91564614888972 89.732813079976 162.75 C 90.0194005270736 160.24897948222306 90.1626942506224 154 90.44928169772 154 C 92.682699204868 154 93.799407958442 154 96.03282546559 154 C 98.01808547194199 154 99.01071547511799 154 100.99597548147 154 C 101.49229048305799 154 101.740447983852 154 102.23676298544 154 C 107.44807050211998 154 110.05372426045999 154 115.26503177714 154 C 115.474759331632 154 115.57962310887801 165.66666666666666 115.78935066337 165.66666666666666 C 118.02276817051799 165.66666666666666 119.139476924092 149.33333333333331 121.37289443124 149.33333333333331 C 121.62105193203199 149.33333333333331 121.745130682428 159.18518518518516 121.99328818322 159.18518518518516 C 122.241445684016 159.18518518518516 122.36552443441398 158.92592592593434 122.61368193521 157.88888888888889 C 122.86183943600199 156.85185185186026 122.985918186398 154 123.23407568719 154 C 123.482233187986 154 123.60631193838398 158.2777777777652 123.85446943918 159.83333333333331 C 124.102626939972 161.3888888888763 124.226705690368 161.77777777777777 124.47486319116 161.77777777777777 C 124.72302069195601 161.77777777777777 124.84709944235401 160.94017094017096 125.09525694315 159.38461538461536 C 125.34341444394599 157.82905982905987 125.467493194344 154 125.71565069514 154 C 125.963808195932 154 126.08788694632798 162.4848484848485 126.33604444712 162.4848484848485 C 126.584201947916 162.4848484848485 126.708280698314 154 126.95643819911 154 C 127.204595699902 154 127.328674450298 165.66666666666666 127.57683195109 165.66666666666666 C 127.902538670882 165.66666666666666 128.065392030778 154 128.39109875057 154 C 128.56170703236597 154 128.647011173264 177.33333333333331 128.81761945506 177.33333333333331 C 129.065776955856 177.33333333333331 129.189855706254 171.8888888889077 129.43801320705 169.55555555555554 C 129.686170707842 167.22222222224104 129.81024945823802 165.66666666666666 130.05840695903 165.66666666666666 C 130.306564459826 165.66666666666666 130.430643210224 172.66666666666666 130.67880071102 172.66666666666666 C 130.92695821181198 172.66666666666666 131.051036962208 165.66666666666666 131.299194463 165.66666666666666 C 131.547351963796 165.66666666666666 131.671430714194 169.55555555555554 131.91958821499 169.55555555555554 C 132.167745715786 169.55555555555554 132.291824466184 154 132.53998196698 154 C 132.788139467772 154 132.912218218168 154 133.16037571896 154 C 133.408533219756 154 133.532611970154 154 133.78076947095 154 C 134.028926971742 154 134.153005722138 154 134.40116322293 154 C 134.649320723726 154 134.773399474124 159 135.02155697492 159 C 135.269714475712 159 135.39379322610802 154 135.6419507269 154 C 135.890108227696 154 136.014186978094 154 136.26234447889 154 C 136.51050197968198 154 136.63458073007797 154 136.88273823087 156.12121212121212 C 137.130895731666 158.24242424242425 137.254974482064 170.66666666666666 137.50313198286 170.66666666666666 C 137.751289483656 170.66666666666666 137.875368234054 162.66666666666666 138.12352573485 160.66666666666666 C 138.37168323564202 158.66666666666666 138.495761986038 158.66666666666666 138.74391948683 158.66666666666666 C 138.992076987626 158.66666666666666 139.11615573802402 159.83333333333331 139.36431323882 159.83333333333331 C 139.61247073961198 159.83333333333331 139.736549490008 159.83333333333331 139.9847069908 159.83333333333331 C 140.232864491596 159.83333333333331 140.35694324199397 157.88888888888889 140.60510074279 157.88888888888889 C 140.85325824358202 157.88888888888889 140.97733699397799 172.66666666666666 141.22549449477 172.66666666666666 C 141.473651995566 172.66666666666666 141.59773074596401 168.58333333333331 141.84588824676 168.58333333333331 C 142.094045747552 168.58333333333331 142.218124497948 177.33333333333331 142.46628199874 177.33333333333331 C 142.714439499536 177.33333333333331 142.838518249934 155.37254901960785 143.08667575073 155.37254901960785 C 143.334833251526 155.37254901960785 143.458912001924 164.6060606060606 143.70706950272 164.6060606060606 C 143.955227003512 164.6060606060606 144.07930575390802 164.6060606060606 144.3274632547 164.6060606060606 C 144.575620755496 164.6060606060606 144.699699505894 154 144.94785700669 154 C 145.19601450748198 154 145.320093257878 154 145.56825075867 154 C 145.816408259466 154 145.940487009864 157.5897435897436 146.18864451066 157.5897435897436 C 146.43680201145202 157.5897435897436 146.560880761848 154 146.80903826264 154 C 147.057195763436 154 147.181274513834 154 147.42943201463 154 C 147.677589515422 154 147.80166826581802 154 148.04982576661 154 C 148.297983267406 154 148.422062017804 165.66666666666666 148.6702195186 165.66666666666666 C 148.91837701939198 165.66666666666666 149.04245576978798 155.55555555555554 149.29061327058 155.55555555555554 C 149.538770771376 155.55555555555554 149.662849521774 170.02693602693603 149.91100702257 174.74074074074073 C 150.159164523366 179.45454545454544 150.28324327376401 179.45454545454544 150.53140077456 179.45454545454544 C 150.77955827535203 179.45454545454544 150.903637025748 176.72053872050597 151.15179452654 172.66666666666666 C 151.39995202733598 168.61279461276186 151.524030777734 159.18518518518516 151.77218827853 159.18518518518516 C 152.02034577932199 159.18518518518516 152.144424529718 159.18518518518516 152.39258203051 159.18518518518516 C 152.640739531306 159.18518518518516 152.76481828170398 160.36363636363637 153.0129757825 160.36363636363637 C 153.26113328329203 160.36363636363637 153.385212033688 158.86247086246075 153.63336953448 157.5897435897436 C 153.88152703527598 156.3170163170062 154.00560578567402 154 154.25376328647 154 C 154.501920787262 154 154.62599953765798 170.15384615384616 154.87415703845 170.15384615384616 C 155.12231453924602 170.15384615384616 155.246393289644 161 155.49455079044 161 C 155.742708291236 161 155.866787041634 164 156.11494454243 164 C 156.363102043222 164 156.48718079361802 154 156.73533829441 154 C 156.983495795206 154 157.107574545604 154 157.3557320464 154 C 157.60388954719198 154 157.727968297588 154 157.97612579838 154 C 158.224283299176 154 158.348362049574 161.77777777777777 158.59651955037 161.77777777777777 C 158.84467705116202 161.77777777777777 158.96875580155802 151.66666666666666 159.21691330235 151.66666666666666 C 159.465070803146 151.66666666666666 159.589149553544 155.55555555555554 159.83730705434 155.55555555555554 C 160.08546455513198 155.55555555555554 160.209543305528 154 160.45770080632 154 C 160.705858307116 154 160.829937057514 154 161.07809455831 154 C 161.326252059102 154 161.45033080949798 154 161.69848831029 154 C 161.946645811086 154 162.070724561484 154 162.31888206228 154 C 162.567039563076 154 162.691118313474 154 162.93927581427 154 C 163.18743331506198 154 163.31151206545798 154 163.55966956625 154 C 163.807827067046 154 163.931905817444 154 164.18006331824 154 C 164.428220819032 154 164.55229956942802 154 164.80045707022 154 C 165.048614571016 154 165.172693321414 150.4102564102564 165.42085082221 150.4102564102564 C 165.669008323002 150.4102564102564 165.793087073398 154 166.04124457419 154 C 166.289402074986 154 166.413480825384 154 166.66163832618 154 C 166.90979582697202 154 167.03387457736798 154 167.28203207816 154 C 167.53018957895603 154 167.654268329354 155.55555555555554 167.90242583015 155.55555555555554 C 168.15058333094598 155.55555555555554 168.27466208134402 152.62745098039215 168.52281958214 152.62745098039215 C 168.770977082932 152.62745098039215 168.89505583332797 152.688453159052 169.14321333412 154 C 169.39137083491602 155.3115468409692 169.515449585314 159.18518518518516 169.76360708611 159.18518518518516 C 170.011764586902 159.18518518518516 170.135843337298 154 170.38400083809 154 C 170.632158338886 154 170.756237089284 154 171.00439459008 154 C 171.252552090872 154 171.37663084126797 154 171.62478834206 154 C 171.87294584285598 154 171.997024593254 154 172.24518209405 154 C 172.49333959484198 154 172.617418345238 154 172.86557584603 154 C 173.113733346826 154 173.237812097224 154 173.48596959802 154 C 173.734127098812 154 173.858205849208 154 174.10636335 154 C 174.354520850796 154 174.478599601194 154 174.72675710199 154 C 174.974914602786 154 175.098993353184 158.66666666666666 175.34715085398 158.66666666666666 C 175.595308354772 158.66666666666666 175.71938710516798 154 175.96754460596 154 C 176.215702106756 154 176.33978085715404 159.18518518518516 176.58793835795 159.18518518518516 C 176.836095858742 159.18518518518516 176.96017460913802 154 177.20833210993 154 C 177.456489610726 154 177.580568361124 154 177.82872586192 157.88888888888889 C 178.07688336271198 161.77777777777777 178.200962113108 173.44444444444446 178.4491196139 173.44444444444446 C 178.697277114696 173.44444444444446 178.821355865094 163.75757575757575 179.06951336589 161 C 179.31767086668202 158.24242424242425 179.441749617078 159.64242424241303 179.68990711787 158.24242424242425 C 179.938064618666 156.84242424241305 180.06214336906402 154 180.31030086986 154 C 180.55845837065598 154 180.682537121054 157.33333333333331 180.93069462185 157.33333333333331 C 181.178852122642 157.33333333333331 181.30293087303798 154 181.55108837383 154 C 181.79924587462602 154 181.923324625024 161.77777777777777 182.17148212582 161.77777777777777 C 182.419639626612 161.77777777777777 182.54371837700802 158.9259259259176 182.7918758778 157.88888888888889 C 183.04003337859598 156.85185185184352 183.164112128994 157.37037037037658 183.41226962979 156.59259259259258 C 183.660427130582 155.81481481482103 183.78450588097797 154 184.03266338177 154 C 184.280820882566 154 184.404899632964 154 184.65305713376 154 C 184.901214634552 154 185.02529338494801 162.75 185.27345088574 162.75 C 185.521608386536 162.75 185.64568713693401 154 185.89384463773 154 C 186.142002138526 154 186.266080888924 154 186.51423838972 154 C 186.76239589051198 154 186.886474640908 154 187.1346321417 154 C 187.382789642496 154 187.506868392894 154 187.75502589369 154 C 188.003183394482 154 188.127262144878 154 188.37541964567 154 C 188.623577146466 154 188.747655896864 156.72222222221285 188.99581339766 157.88888888888889 C 189.243970898452 159.0555555555462 189.368049648848 158.2777777777903 189.61620714964 159.83333333333331 C 189.864364650436 161.38888888890142 189.988443400834 165.66666666666666 190.23660090163 165.66666666666666 C 190.484758402422 165.66666666666666 190.608837152818 157.33333333333331 190.85699465361 157.33333333333331 C 191.105152154406 157.33333333333331 191.229230904804 170.66666666666666 191.4773884056 170.66666666666666 C 191.72554590639203 170.66666666666666 191.849624656788 156.33333333333331 192.09778215758 156.33333333333331 C 192.345939658376 156.33333333333331 192.47001840877402 160.92820512820524 192.71817590957 162.97435897435898 C 192.966333410366 165.02051282051295 193.090412160764 164.0512820512619 193.33856966156 166.56410256410254 C 193.58672716235202 169.0769230769029 193.710805912748 175.53846153846155 193.95896341354 175.53846153846155 C 194.20712091433603 175.53846153846155 194.33119966473402 161.5 194.57935716553 160.66666666666666 C 194.82751466632197 159.83333333333331 194.95159341671803 160.31818181817786 195.19975091751 159.83333333333331 C 195.44790841830599 159.3484848484809 195.57198716870397 159.4090909091003 195.8201446695 158.24242424242425 C 196.06830217029201 157.075757575767 196.19238092068798 155.566433566421 196.44053842148 154 C 196.688695922276 152.4335664335539 196.812774672674 150.4102564102564 197.06093217347 150.4102564102564 C 197.309089674262 150.4102564102564 197.43316842465802 154 197.68132592545 154 C 197.929483426246 154 198.053562176644 154 198.30171967744 154 C 198.549877178236 154 198.673955928634 154 198.92211342943 154 C 199.170270930222 154 199.294349680618 154 199.54250718141 154 C 199.790664682206 154 199.914743432604 162.33333333333331 200.1629009334 162.33333333333331 C 200.411058434192 162.33333333333331 200.535137184588 154 200.78329468538 154 C 201.031452186176 154 201.155530936574 164.76923076923077 201.40368843737 164.76923076923077 C 201.651845938162 164.76923076923077 201.775924688558 159.83333333333331 202.02408218935 159.83333333333331 C 202.272239690146 159.83333333333331 202.396318440544 162.4848484848485 202.64447594134 162.4848484848485 C 202.892633442132 162.4848484848485 203.01671219252802 154 203.26486969332 154 C 203.513027194116 154 203.637105944514 154 203.88526344531 154 C 204.13342094610198 154 204.25749969649797 164.37037037037038 204.50565719729 164.37037037037038 C 204.753814698086 164.37037037037038 204.87789344848403 163.33333333333331 205.12605094928 163.33333333333331 C 205.374208450076 163.33333333333331 205.49828720047398 164 205.74644470127 164 C 205.99460220206203 164 206.118680952458 161.83333333331717 206.36683845325 159.83333333333331 C 206.61499595404604 157.83333333331717 206.73907470444402 154 206.98723220524 154 C 207.23538970603198 154 207.35946845642803 154 207.60762595722 154 C 207.855783458016 154 207.97986220841398 170.66666666666666 208.22801970921 170.66666666666666 C 208.47617721000202 170.66666666666666 208.600255960398 156.91666666666666 208.84841346119 156.91666666666666 C 209.09657096198598 156.91666666666666 209.22064971238402 161.77777777777777 209.46880721318 161.77777777777777 C 209.716964713972 161.77777777777777 209.84104346436797 154 210.08920096516 154 C 210.33735846595602 154 210.461437216354 156.91666666666666 210.70959471715 156.91666666666666 C 210.95775221794602 156.91666666666666 211.081830968344 156.91666666666666 211.32998846914 156.91666666666666 C 211.578145969932 156.91666666666666 211.70222472032802 154 211.95038222112 154 C 212.198539721916 154 212.322618472314 154 212.57077597311 154 C 212.81893347390195 154 212.943012224298 159.83333333336137 213.19116972509 163.33333333333331 C 213.43932722588596 166.83333333336137 213.563405976284 171.5 213.81156347708 171.5 C 214.059720977872 171.5 214.183799728268 161 214.43195722906 161 C 214.680114729856 161 214.80419348025399 169 215.05235098105 169 C 215.300508481842 169 215.424587232238 162.83333333330893 215.67274473303 159.83333333333331 C 215.920902233826 156.83333333330893 216.044980984224 154 216.29313848502 154 C 216.541295985816 154 216.665374736214 155.21212121210408 216.91353223701 157.33333333333331 C 217.161689737802 159.4545454545283 217.28576848819802 162.60606060607674 217.53392598899 164.6060606060606 C 217.782083489786 166.60606060607674 217.906162240184 167.33333333333331 218.15431974098 167.33333333333331 C 218.40247724177198 167.33333333333331 218.52655599216797 165.66666666666666 218.77471349296 165.66666666666666 C 219.022870993756 165.66666666666666 219.14694974415403 170.96969696969697 219.39510724495 170.96969696969697 C 219.643264745742 170.96969696969697 219.76734349613798 154 220.01550099693 154 C 220.263658497726 154 220.38773724812398 155.18787878787126 220.63589474892 156.12121212121212 C 220.88405224971203 157.05454545453793 221.008131000108 156.29090909092798 221.2562885009 158.66666666666666 C 221.50444600169598 161.04242424244313 221.62852475209402 168 221.87668225289 168 C 222.124839753682 168 222.24891850407798 154 222.49707600487 154 C 222.74523350566602 154 222.869312256064 158.66666666666666 223.11746975686 158.66666666666666 C 223.36562725765597 158.66666666666666 223.48970600805401 156.59259259259258 223.73786350885 156.59259259259258 C 224.180755715126 156.59259259259258 224.402201818264 177.33333333333331 224.84509402454 177.33333333333331 C 225.63937035868003 177.33333333333331 226.03650852575 154 226.83078485989 154 C 227.12909085563803 154 227.278243853512 154 227.57654984926 154 C 228.02633531944804 154 228.25122805454203 165.66666666666666 228.70101352473 165.66666666666666 C 229.681924979258 165.66666666666666 230.172380706522 154 231.15329216105 154 C 231.661325711286 154 231.915342486404 177.33333333333331 232.42337603664 177.33333333333331 C 235.401266046172 177.33333333333331 236.89021105093798 130.66666666666666 239.86810106047 130.66666666666666 C 240.36441606205798 130.66666666666666 240.612573562852 154 241.10888856444 154 C 241.792183349612 154 242.133830742198 154 242.81712552737 154 C 243.37461824617003 154 243.65336460557 177.33333333333331 244.21085732437 177.33333333333331 C 244.86399407993002 177.33333333333331 245.19056245770997 154 245.84369921327 154 C 246.59764995352998 154 246.97462532366004 154 247.72857606392 154 C 248.545427837368 154 248.953853724092 154 249.77070549754 154 C 249.89478424794 154 249.95682362314 154 250.08090237354 154 C 250.21445936181198 154 250.28123785594798 177.33333333333331 250.41479484422 177.33333333333331 C 250.66295234501598 177.33333333333331 250.78703109541402 154 251.03518859621 154 C 251.283346097002 154 251.40742484739798 159.83333333333331 251.65558234819 159.83333333333331 C 252.04832605951796 159.83333333333331 252.244697915182 154 252.63744162651 154 C 252.99054907034997 154 253.16710279227 154 253.52021023611 154 C 254.03237974469002 154 254.28846449898 154 254.80063400756 154 C 255.52787335016802 154 255.89149302147203 154 256.61873236408 154 C 256.866889864872 154 256.990968615268 154 257.23912611606 154 C 259.968858624796 154 261.333724879164 154 264.0634573879 154 C 264.311614888696 154 264.435693639094 154 264.68385113989 154 C 264.932008640682 154 265.056087391078 154 265.30424489187 154 C 265.552402392666 154 265.67648114306405 154 265.92463864386 154 C 266.172796144656 154 266.296874895054 154 266.54503239585 154 C 266.793189896642 154 266.917268647038 154 267.16542614783 154 C 267.413583648626 154 267.537662399024 154 267.78581989982 154 C 268.033977400612 154 268.158056151008 154 268.4062136518 154 C 268.654371152596 154 268.778449902994 154 269.02660740379 154 C 269.274764904582 154 269.398843654978 154 269.64700115577 154 C 269.89515865656597 154 270.01923740696395 161.77777777777777 270.26739490776 161.77777777777777 C 270.51555240855197 161.77777777777777 270.639631158948 154 270.88778865974 154 C 271.13594616053604 154 271.260024910934 154 271.50818241173 154 C 271.75633991252596 154 271.880418662924 154 272.12857616372 154 C 272.376733664512 154 272.500812414908 154 272.7489699157 154 C 272.997127416496 154 273.121206166894 151.4074074074074 273.36936366769 151.4074074074074 C 275.25932430047396 151.4074074074074 276.204304616866 154 278.09426524965 154 C 278.653653616022 154 278.93334779920804 154 279.49273616558 154 C 279.989051167168 154 280.237208667962 154 280.73352366955 154 C 287.21784469898597 154 290.460005213704 158.66666666666666 296.94432624314 158.66666666666666 C 297.19248374393203 158.66666666666666 297.31656249432797 154 297.56471999512 154 C 297.81287749591604 154 297.936956246314 154 298.18511374711 154 C 298.611634451598 154 298.824894803842 154 299.25141550833 154 C 299.32120980543004 154 299.35610695398 154 299.42590125108 154 C 299.674058751872 154 299.798137502268 154 300.04629500306 154 C 300.29445250385595 154 300.418531254254 154 300.66668875505 154 C 300.914846255842 154 301.038925006238 148.8148148148148 301.28708250703 148.8148148148148 C 301.535240007826 148.8148148148148 301.659318758224 154 301.90747625902 154 C 302.155633759816 154 302.279712510214 154 302.52787001101 154 C 305.988805489098 154 307.719273228142 130.66666666666666 311.18020870623 130.66666666666666 C 311.80060245821403 130.66666666666666 312.11079933420604 200.66666666666666 312.73119308619 200.66666666666666 C 312.920930175342 200.66666666666666 313.015798719918 163.95414917673503 313.20553580907 154 C 313.549509678226 135.95414917673503 313.721496612804 130.66666666666666 314.06547048196 130.66666666666666 C 314.165422808668 130.66666666666666 314.215398972022 148.6153846153846 314.31535129873 148.6153846153846 C 314.56350879952595 148.6153846153846 314.687587549924 148.16666666666666 314.93574505072 148.16666666666666 C 315.183902551512 148.16666666666666 315.307981301908 154 315.5561388027 154 C 315.804296303496 154 315.928375053894 154 316.17653255469 154 C 316.424690055482 154 316.548768805878 154 316.79692630667 154 C 317.165721670294 154 317.350119352106 154 317.71891471573 154 C 318.09459185449 154 318.28243042387004 147.13725490196077 318.65810756263 147.13725490196077 C 318.906265063422 147.13725490196077 319.03034381381804 154 319.27850131461 154 C 319.526658815406 154 319.650737565804 139.41666666666666 319.8988950666 139.41666666666666 C 320.147052567392 139.41666666666666 320.271131317788 154 320.51928881858 154 C 320.767446319376 154 320.891525069774 154 321.13968257057 154 C 321.387840071366 154 321.51191882176397 154 321.76007632256 154 C 322.00823382335204 154 322.132312573748 154 322.38047007454 154 C 322.62862757533605 154 322.75270632573404 154 323.00086382653 154 C 323.249021327322 154 323.373100077718 148.8148148148148 323.62125757851 148.8148148148148 C 323.86941507930595 148.8148148148148 323.99349382970405 155.7948717948718 324.2416513305 155.7948717948718 C 324.489808831292 155.7948717948718 324.613887581688 154 324.86204508248 154 C 325.11020258327596 154 325.23428133367395 154 325.48243883447 154 C 325.891169173682 154 326.095534343288 154 326.5042646825 154 C 327.21452361833997 154 327.56965308626 154 328.2799120221 154 C 328.40171025102 154 328.46260936548 148.47884415326294 328.5844075944 142.33333333333331 C 328.83256509519197 129.81217748659625 328.956643845588 107.33333333333331 329.20480134638 107.33333333333331 C 329.452958847176 107.33333333333331 329.577037597574 154 329.82519509837 154 C 330.073352599162 154 330.197431349558 154 330.44558885035 154 C 330.693746351146 154 330.817825101544 154 331.06598260234 154 C 331.314140103132 154 331.438218853528 160.66666666666666 331.68637635432 160.66666666666666 C 331.934533855116 160.66666666666666 332.058612605514 142.33333333333331 332.30677010631 142.33333333333331 C 332.554927607102 142.33333333333331 332.679006357498 154 332.92716385829 154 C 333.175321359086 154 333.29940010948405 154 333.54755761028 154 C 333.795715111076 154 333.919793861474 154 334.16795136227 154 C 334.416108863062 154 334.540187613458 154 334.78834511425 154 C 335.036502615046 154 335.160581365444 154 335.40873886624 154 C 335.656896367032 154 335.780975117428 154 336.02913261822 154 C 336.277290119016 154 336.401368869414 161.77777777777777 336.64952637021 161.77777777777777 C 336.897683871002 161.77777777777777 337.021762621398 161.77777777777777 337.26992012219 161.77777777777777 C 337.51807762298597 161.77777777777777 337.64215637338395 158.03078078079815 337.89031387418 155.89189189189187 C 338.13847137497197 153.75300300302035 338.262550125368 155.55927268728504 338.51070762616 151.08333333333331 C 338.75886512695604 146.6073939793088 338.882943877354 133.5121951219512 339.13110137815 133.5121951219512 C 339.37925887894596 133.5121951219512 339.50333762934395 154 339.75149513014 154 C 339.999652630932 154 340.12373138132796 152.68284376328828 340.37188888212 150.7816091954023 C 340.62004638291603 148.88037462748582 340.744125133314 144.49382716049382 340.99228263411 144.49382716049382 C 341.24044013490203 144.49382716049382 341.364518885298 144.49382716049382 341.61267638609 145.25 C 341.86083388688604 146.00617283950618 341.984912637284 160.66666666666666 342.23307013808 160.66666666666666 C 342.48122763887204 160.66666666666666 342.60530638926804 154 342.85346389006 154 C 343.101621390856 154 343.22570014125404 154 343.47385764205 154 C 343.880247143726 154 344.08344189456403 154 344.48983139624 154 C 344.57975689615205 154 344.624719646108 148.16666666666666 344.71464514602 148.16666666666666 C 344.962802646816 148.16666666666666 345.086881397214 148.16666666666666 345.33503889801 148.16666666666666 C 345.583196398802 148.16666666666666 345.707275149198 149.91666666667612 345.95543264999 151.08333333333331 C 346.203590150786 152.25000000000946 346.327668901184 151.08333333333331 346.57582640198 154 C 347.002835379328 156.91666666666669 347.21633986800197 177.33333333333331 347.64334884535 177.33333333333331 C 347.736979474614 177.33333333333331 347.783794789246 154 347.87742541851 154 C 348.10125831427797 154 348.213174762162 154 348.43700765793 154 C 348.933322659518 154 349.181480160312 154 349.6777951619 154 C 350.06562455049595 154 350.259539244794 154 350.64736863339 154 C 352.39448934917 154 353.26804970705996 154 355.01517042284 154 C 355.113637825612 154 355.162871526998 136.5 355.26133892977 136.5 C 356.005811432154 136.5 356.378047683346 154 357.12252018573 154 C 357.370677686526 154 357.49475643692404 154 357.74291393772 154 C 357.991071438512 154 358.115150188908 156.12121212121212 358.3633076897 156.12121212121212 C 358.611465190496 156.12121212121212 358.735543940894 154 358.98370144169 154 C 359.231858942482 154 359.355937692878 154 359.60409519367 154 C 359.852252694466 154 359.976331444864 154 360.22448894566 154 C 360.472646446452 154 360.596725196848 154 360.84488269764 154 C 361.093040198436 154 361.217118948834 156.59259259259258 361.46527644963 156.59259259259258 C 361.713433950422 156.59259259259258 361.837512700818 154 362.08567020161 154 C 362.33382770240604 154 362.45790645280397 154 362.7060639536 154 C 362.954221454392 154 363.07830020478804 154 363.32645770558 154 C 363.57461520637605 154 363.698693956774 154 363.94685145757 154 C 364.195008958366 154 364.31908770876396 154 364.56724520956 154 C 364.81540271035203 154 364.93948146074797 154 365.18763896154 154 C 365.43579646233604 154 365.559875212734 154 365.80803271353 154 C 366.05619021432204 154 366.180268964718 154 366.42842646551 154 C 366.67658396630594 154 366.80066271670404 154 367.0488202175 154 C 367.296977718292 154 367.42105646868794 154 367.66921396948 154 C 367.91737147027595 154 368.041450220674 154 368.28960772147 154 C 368.537765222262 154 368.661843972658 154 368.91000147345 154 C 369.158158974246 154 369.282237724644 154 369.53039522544 154 C 369.778552726236 154 369.902631476634 154 370.15078897743 154 C 370.398946478222 154 370.523025228618 154 370.77118272941 154 C 371.019340230206 154 371.143418980604 154 371.3915764814 154 C 371.639733982192 154 371.763812732588 154 372.01197023338 154 C 372.26012773417597 154 372.384206484574 154 372.63236398537 154 C 372.88052148616197 154 373.00460023655796 154 373.25275773735 154 C 373.67654124163 154 373.88843299377004 154 374.31221649805 154 C 374.384747995358 154 374.421013744012 154 374.49354524132 154 C 374.741702742116 154 374.865781492514 154 375.11393899331 154 C 375.362096494102 154 375.486175244498 154 375.73433274529 154 C 375.982490246086 154 376.10656899648404 154 376.35472649728 154 C 376.60288399807604 154 376.72696274847397 154 376.97512024927 154 C 377.223277750062 154 377.34735650045803 154 377.59551400125 154 C 377.84367150204605 154 377.967750252444 154 378.21590775324 154 C 378.464065254032 154 378.588144004428 154 378.83630150522 154 C 379.084459006016 154 379.208537756414 154 379.45669525721 154 C 379.95301025879803 154 380.20116775959207 154 380.69748276118 154 C 381.193797762768 154 381.44195526356197 154 381.93827026515 154 C 382.18642776594595 154 382.310506516344 154 382.55866401714 154 C 382.806821517932 154 382.930900268328 154 383.17905776912 154 C 383.427215269916 154 383.551294020314 154 383.79945152111 154 C 384.047609021902 154 384.171687772298 154 384.41984527309 154 C 384.66800277388603 154 384.792081524284 154 385.04023902508 154 C 385.30580776163595 154 385.438592129914 154 385.70416086647 154 C 386.183064632294 154 386.422516515206 154 386.90142028103 154 C 387.14957778182605 154 387.273656532224 154 387.52181403302 154 C 387.769971533816 154 387.89405028421396 154 388.14220778501 154 C 388.390365285802 154 388.514444036198 154 388.76260153699 154 C 389.010759037786 154 389.134837788184 154 389.38299528898 154 C 389.631152789772 154 389.755231540168 154 390.00338904096 154 C 390.251546541756 154 390.37562529215404 154 390.62378279295 154 C 390.87194029374206 154 390.996019044138 154 391.24417654493 154 C 391.49233404572595 154 391.61641279612405 154 391.86457029692 154 C 392.112727797712 154 392.23680654810795 154 392.4849640489 154 C 392.73312154969597 154 392.85720030009395 154 393.10535780089 154 C 393.584060513186 154 393.823411869334 154 394.30211458163 154 C 394.81604187250997 154 395.07300551795004 154 395.58693280883 154 C 395.835090309626 154 395.95916906002395 154 396.20732656082 154 C 396.45548406161197 154 396.579562812008 154 396.8277203128 154 C 397.075877813596 154 397.199956563994 154 397.44811406479 154 C 397.696271565582 154 397.820350315978 154 398.06850781677 154 C 398.316665317566 154 398.440744067964 156.7222222221969 398.68890156876 159.83333333333331 C 398.937059069552 162.94444444441913 399.061137819948 169.55555555555554 399.30929532074 169.55555555555554 C 399.557452821536 169.55555555555554 399.681531571934 154 399.92968907273 154 C 400.177846573526 154 400.301925323924 154 400.55008282472 154 C 400.798240325512 154 400.92231907590804 154 401.1704765767 154 C 401.41863407749605 154 401.542712827894 154 401.79087032869 154 C 402.404339222638 154 402.71107366961195 154 403.32454256356 154 C 403.45554617199195 154 403.52104797620797 154 403.65205158464 154 C 403.900209085436 154 404.024287835834 169.55555555555554 404.27244533663 169.55555555555554 C 404.520602837422 169.55555555555554 404.644681587818 154 404.89283908861 154 C 405.14099658940603 154 405.26507533980396 161.77777777777777 405.5132328406 161.77777777777777 C 406.11041352636397 161.77777777777777 406.409003869246 154 407.00618455501 154 C 407.15347637163006 154 407.22712227994 154 407.37441409656 154 C 408.08309332608394 154 408.43743294084595 177.33333333333331 409.14611217037 177.33333333333331 C 409.22161925993396 177.33333333333331 409.259372804716 154 409.33487989428 154 C 409.543323578368 154 409.64754542041203 154 409.8559891045 154 C 410.10414660529204 154 410.2282253556879 165.66666666666666 410.47638285648 165.66666666666666 C 410.72454035727594 165.66666666666666 410.8486191076739 154 411.09677660847 154 C 411.344934109262 154 411.46901285965794 165.66666666666666 411.71717036045 165.66666666666666 C 411.965327861246 165.66666666666666 412.089406611644 154 412.33756411244 154 C 412.585721613236 154 412.709800363634 174.41666666666666 412.95795786443 174.41666666666666 C 413.206115365222 174.41666666666666 413.330194115618 154 413.57835161641 154 C 413.826509117206 154 413.950587867604 156.91666666666666 414.1987453684 156.91666666666666 C 414.44690286919194 156.91666666666666 414.570981619588 154 414.81913912038 154 C 415.24808108382 154 415.46255206553997 177.33333333333331 415.89149402898 177.33333333333331 C 416.188231807188 177.33333333333331 416.33660069629207 154 416.6333384745 154 C 416.87879324140005 154 417.00152062485006 154 417.24697539175 154 C 417.26847088637805 154 417.27921863369204 154 417.30071412832 154 C 417.73845074763193 154 417.9573190572881 154 418.3950556766 154 C 418.453634058876 154 418.48292325001404 159.99535974949376 418.54150163229 161.77777777777777 C 418.78965913308605 169.3286930828271 418.91373788348403 177.33333333333331 419.16189538428 177.33333333333331 C 419.410052885076 177.33333333333331 419.53413163547395 154 419.78228913627 154 C 420.03044663706197 154 420.154525387458 158.66666666666666 420.40268288825 158.66666666666666 C 420.65084038904604 158.66666666666666 420.77491913944397 154 421.02307664024 154 C 421.271234141032 154 421.395312891428 154 421.64347039222 154 C 422.02034810778 154 422.20878696556 154 422.58566468112 154 C 422.70510196714804 154 422.764820610162 177.33333333333331 422.88425789619 177.33333333333331 C 423.132415396986 177.33333333333331 423.256494147384 163.33333333337126 423.50465164818 158.66666666666666 C 423.752809148972 154.00000000003794 423.876887899368 154 424.12504540016 154 C 424.373202900956 154 424.497281651354 154 424.74543915215 154 C 424.99359665294594 154 425.11767540334404 154 425.36583290414 154 C 425.613990404932 154 425.73806915532805 154 425.98622665612 154 C 426.234384156916 154 426.358462907314 165.66666666666666 426.60662040811 165.66666666666666 C 426.854777908902 165.66666666666666 426.978856659298 154 427.22701416009 154 C 427.475171660886 154 427.599250411284 159.83333333333331 427.84740791208 159.83333333333331 C 428.095565412872 159.83333333333331 428.219644163268 156.91666666666666 428.46780166406 156.91666666666666 C 428.71595916485603 156.91666666666666 428.840037915254 158.91666666665282 429.08819541605 160.66666666666666 C 429.33635291684203 162.41666666665282 429.460431667238 165.66666666666666 429.70858916803 165.66666666666666 C 429.979936757498 165.66666666666666 430.115610552232 154 430.3869581417 154 C 430.61192555382405 154 430.72440925988593 161.77777777777777 430.94937667201 161.77777777777777 C 431.19753417280197 161.77777777777777 431.32161292319796 148.16666666666666 431.56977042399 148.16666666666666 C 431.817927924786 148.16666666666666 431.94200667518396 148.16666666666666 432.19016417598 154 C 432.43832167677203 159.83333333333334 432.562400427168 177.33333333333331 432.81055792796 177.33333333333331 C 433.275563150428 177.33333333333331 433.50806576166195 154 433.97307098413 154 C 434.00438076324997 154 434.02003565280995 154 434.05134543193 154 C 434.29950293272594 154 434.42358168312404 154 434.67173918392 154 C 434.91989668471194 154 435.04397543510794 165.66666666666666 435.2921329359 165.66666666666666 C 435.54029043669595 165.66666666666666 435.66436918709405 163.33333333333331 435.91252668789 163.33333333333331 C 436.160684188682 163.33333333333331 436.28476293907806 165.66666666666666 436.53292043987 165.66666666666666 C 436.781077940666 165.66666666666666 436.905156691064 162.16666666666637 437.15331419186 159.83333333333331 C 437.401471692656 157.49999999999972 437.525550443054 154 437.77370794385 154 C 438.51818044622996 154 438.89041669742 177.33333333333331 439.6348891998 177.33333333333331 C 439.88304670059597 177.33333333333331 440.00712545099395 154 440.25528295179 154 C 440.50344045258197 154 440.62751920297796 154 440.87567670377 154 C 441.123834204566 154 441.24791295496397 154 441.49607045576 154 C 441.744227956552 154 441.868306706948 154 442.11646420774 154 C 442.40203202621996 154 442.54481593546006 154 442.83038375394 154 C 443.289288437844 154 443.518740779796 154 443.9776454637 154 C 444.22580296449604 154 444.59803921569 154 444.59803921569 154" class="highcharts-graph" data-z-index="1" stroke="#5D83FF" stroke-width="2" stroke-linejoin="round" stroke-linecap="round"></path></g><g data-z-index="0.1" class="highcharts-markers highcharts-series-1 highcharts-spline-series highcharts-color-1 " transform="translate(83,99) scale(1 1)" clip-path="none"></g></g><text x="300" text-anchor="middle" class="highcharts-title" data-z-index="4" style="color:#333333;font-size:18px;fill:#333333;" y="24"><tspan>Microwave Popcorn - Butter Consumption &amp; Overall Mood</tspan><tspan dy="21" x="300">Over Time</tspan></text><text x="300" text-anchor="middle" class="highcharts-subtitle" data-z-index="4" style="color:#666666;fill:#666666;" y="67"><tspan>Black represents the sum of Microwave Popcorn - Butter consumption over the previous 7</tspan><tspan dy="15" x="300">days</tspan></text><g class="highcharts-legend" data-z-index="7" transform="translate(33,358)"><rect fill="none" class="highcharts-legend-box" rx="0" ry="0" x="0" y="0" width="535" height="27" visibility="visible"></rect><g data-z-index="1"><g><g class="highcharts-legend-item highcharts-spline-series highcharts-color-0 highcharts-series-0" data-z-index="1" transform="translate(8,3)"><path fill="none" d="M 0 11 L 16 11" class="highcharts-graph" stroke="#000000" stroke-width="2"></path><path fill="#000000" d="M 12 11 A 4 4 0 1 1 11.999998000000167 10.996000000666664 Z" class="highcharts-point"></path><text x="21" style="color:#333333;font-size:12px;font-weight:bold;cursor:pointer;fill:#333333;" text-anchor="start" data-z-index="2" y="15"><tspan>Microwave Popcorn - Butter consumption (serving)</tspan></text></g><g class="highcharts-legend-item highcharts-spline-series highcharts-color-1 highcharts-series-1" data-z-index="1" transform="translate(387,3)"><path fill="none" d="M 0 11 L 16 11" class="highcharts-graph" stroke="#5D83FF" stroke-width="2"></path><path fill="#5D83FF" d="M 8 7 L 12 11 8 15 4 11 Z" class="highcharts-point"></path><text x="21" y="15" style="color:#333333;font-size:12px;font-weight:bold;cursor:pointer;fill:#333333;" text-anchor="start" data-z-index="2"><tspan>Overall Mood (/5)</tspan></text></g></g></g></g><g class="highcharts-axis-labels highcharts-xaxis-labels " data-z-index="7"><text x="97.530026497231" style="color:#666666;cursor:default;font-size:11px;fill:#666666;" text-anchor="start" transform="translate(0,0)" y="342" opacity="1"><tspan>Jan '14</tspan></text><text x="323.97374597194" style="color:#666666;cursor:default;font-size:11px;fill:#666666;" text-anchor="start" transform="translate(0,0)" y="342" opacity="1"><tspan>Jan '15</tspan></text><text x="209.82129560661" style="color:#666666;cursor:default;font-size:11px;fill:#666666;" text-anchor="start" transform="translate(0,0)" y="342" opacity="1"><tspan>Jul '14</tspan></text><text x="436.26501508132" style="color:#666666;cursor:default;font-size:11px;fill:#666666;" text-anchor="start" transform="translate(0,0)" y="342" opacity="1"><tspan>Jul '15</tspan></text></g><g class="highcharts-axis-labels highcharts-yaxis-labels " data-z-index="7"><text x="68" style="color:#666666;cursor:default;font-size:11px;fill:#666666;" text-anchor="end" transform="translate(0,0)" y="327" opacity="1">0</text><text x="68" style="color:#666666;cursor:default;font-size:11px;fill:#666666;" text-anchor="end" transform="translate(0,0)" y="271" opacity="1">1.5</text><text x="68" style="color:#666666;cursor:default;font-size:11px;fill:#666666;" text-anchor="end" transform="translate(0,0)" y="215" opacity="1">3</text><text x="68" style="color:#666666;cursor:default;font-size:11px;fill:#666666;" text-anchor="end" transform="translate(0,0)" y="159" opacity="1">4.5</text><text x="68" style="color:#666666;cursor:default;font-size:11px;fill:#666666;" text-anchor="end" transform="translate(0,0)" y="103" opacity="1">6</text></g><g class="highcharts-axis-labels highcharts-yaxis-labels " data-z-index="7"><text x="547" style="color:#666666;cursor:default;font-size:11px;fill:#666666;" text-anchor="start" transform="translate(0,0)" y="327" opacity="1">0</text><text x="547" style="color:#666666;cursor:default;font-size:11px;fill:#666666;" text-anchor="start" transform="translate(0,0)" y="271" opacity="1">2.4</text><text x="547" style="color:#666666;cursor:default;font-size:11px;fill:#666666;" text-anchor="start" transform="translate(0,0)" y="215" opacity="1">4.8</text><text x="547" style="color:#666666;cursor:default;font-size:11px;fill:#666666;" text-anchor="start" transform="translate(0,0)" y="159" opacity="1">7.2</text><text x="547" style="color:#666666;cursor:default;font-size:11px;fill:#666666;" text-anchor="start" transform="translate(0,0)" y="103" opacity="1">9.6</text></g><a xlink:href="https://quantimo.do" target="_blank">
                    <text x="590" class="highcharts-credits" text-anchor="end" data-z-index="8"
                          style="cursor:pointer;color:#999999;font-size:9px;fill:#999999;" y="395">https://quantimo.do
                    </text>
                </a></svg>