<?xml version="1.0" standalone="no"?><!DOCTYPE svg PUBLIC "-//W3C//DTD SVG 1.1//EN" "http://www.w3.org/Graphics/SVG/1.1/DTD/svg11.dtd"><svg xmlns:xlink="http://www.w3.org/1999/xlink" version="1.1" class="highcharts-root" style="font-family:&quot;Lucida Grande&quot;, &quot;Lucida Sans Unicode&quot;, Arial, Helvetica, sans-serif;font-size:12px;" xmlns="http://www.w3.org/2000/svg" width="600" height="400"><desc>Created with Highstock 6.2.0</desc><defs><clipPath id="highcharts-1h46z68-380"><rect x="0" y="0" width="558" height="299" fill="none"></rect></clipPath><clipPath id="highcharts-1h46z68-754"><rect x="0" y="0" width="558" height="299" fill="none"></rect></clipPath><clipPath id="highcharts-1h46z68-755"><rect x="32" y="63" width="558" height="299" fill="none"></rect></clipPath></defs><rect fill="#ffffff" class="highcharts-background" x="0" y="0" width="600" height="400" rx="0" ry="0"></rect><rect fill="none" class="highcharts-plot-background" x="32" y="63" width="558" height="299"></rect><g class="highcharts-pane-group" data-z-index="0"></g><g class="highcharts-grid highcharts-xaxis-grid " data-z-index="1"><path fill="none" data-z-index="1" class="highcharts-grid-line" d="M 48.5 63 L 48.5 362" opacity="1"></path><path fill="none" data-z-index="1" class="highcharts-grid-line" d="M 135.5 63 L 135.5 362" opacity="1"></path><path fill="none" data-z-index="1" class="highcharts-grid-line" d="M 225.5 63 L 225.5 362" opacity="1"></path><path fill="none" data-z-index="1" class="highcharts-grid-line" d="M 314.5 63 L 314.5 362" opacity="1"></path><path fill="none" data-z-index="1" class="highcharts-grid-line" d="M 406.5 63 L 406.5 362" opacity="1"></path><path fill="none" data-z-index="1" class="highcharts-grid-line" d="M 495.5 63 L 495.5 362" opacity="1"></path><path fill="none" data-z-index="1" class="highcharts-grid-line" d="M 585.5 63 L 585.5 362" opacity="1"></path></g><g class="highcharts-grid highcharts-yaxis-grid " data-z-index="1"><path fill="none" stroke="#e6e6e6" stroke-width="1" data-z-index="1" class="highcharts-grid-line" d="M 32 362.5 L 590 362.5" opacity="1"></path><path fill="none" stroke="#e6e6e6" stroke-width="1" data-z-index="1" class="highcharts-grid-line" d="M 32 287.5 L 590 287.5" opacity="1"></path><path fill="none" stroke="#e6e6e6" stroke-width="1" data-z-index="1" class="highcharts-grid-line" d="M 32 213.5 L 590 213.5" opacity="1"></path><path fill="none" stroke="#e6e6e6" stroke-width="1" data-z-index="1" class="highcharts-grid-line" d="M 32 138.5 L 590 138.5" opacity="1"></path><path fill="none" stroke="#e6e6e6" stroke-width="1" data-z-index="1" class="highcharts-grid-line" d="M 32 62.5 L 590 62.5" opacity="1"></path></g><rect fill="none" class="highcharts-plot-border" data-z-index="1" x="32" y="63" width="558" height="299"></rect><g class="highcharts-axis highcharts-xaxis " data-z-index="2"><path fill="none" class="highcharts-tick" stroke="#ccd6eb" stroke-width="1" d="M 48.5 362 L 48.5 372" opacity="1"></path><path fill="none" class="highcharts-tick" stroke="#ccd6eb" stroke-width="1" d="M 135.5 362 L 135.5 372" opacity="1"></path><path fill="none" class="highcharts-tick" stroke="#ccd6eb" stroke-width="1" d="M 225.5 362 L 225.5 372" opacity="1"></path><path fill="none" class="highcharts-tick" stroke="#ccd6eb" stroke-width="1" d="M 314.5 362 L 314.5 372" opacity="1"></path><path fill="none" class="highcharts-tick" stroke="#ccd6eb" stroke-width="1" d="M 406.5 362 L 406.5 372" opacity="1"></path><path fill="none" class="highcharts-tick" stroke="#ccd6eb" stroke-width="1" d="M 495.5 362 L 495.5 372" opacity="1"></path><path fill="none" class="highcharts-tick" stroke="#ccd6eb" stroke-width="1" d="M 585.5 362 L 585.5 372" opacity="1"></path><path fill="none" class="highcharts-axis-line" stroke="#ccd6eb" stroke-width="1" data-z-index="7" d="M 32 362.5 L 590 362.5"></path></g><g class="highcharts-axis highcharts-yaxis " data-z-index="2"><path fill="none" class="highcharts-axis-line" data-z-index="7" d="M 32 63 L 32 362"></path></g><g class="highcharts-series-group" data-z-index="3"><g data-z-index="0.1" class="highcharts-series highcharts-series-0 highcharts-spline-series highcharts-color-0 " transform="translate(32,63) scale(1 1)" clip-path="url(#highcharts-1h46z68-754)"><path fill="none" d="M 5.4705882352941 299 C 5.4705882352941 299 6.35294117647056 299 6.9411764705882 299 C 7.52941176470588 299 7.82352941176472 299 8.4117647058824 299 C 9.000000000000039 299 9.29411764705886 299 9.8823529411765 299 C 10.4705882352943 299 10.764705882353201 299 11.352941176471 299 C 11.941176470588601 299 12.235294117647399 299 12.823529411765 299 C 13.411764705882598 299 13.705882352941401 299 14.294117647059 299 C 14.8823529411766 299 15.1764705882354 299 15.764705882353 299 C 16.3529411764706 299 16.6470588235294 299 17.235294117647 299 C 17.8235294117646 299 18.1176470588234 299 18.705882352941 299 C 19.2941176470586 299 19.5882352941174 299 20.176470588235 299 C 20.764705882352597 299 21.058823529411402 299 21.647058823529 299 C 22.235294117647005 299 22.529411764706 299 23.117647058824 299 C 23.7058823529416 299 24.000000000000405 299 24.588235294118 299 C 25.1764705882356 299 25.4705882352944 299 26.058823529412 299 C 26.6470588235296 299 26.941176470588402 299 27.529411764706 299 C 28.117647058823604 299 28.411764705882398 299 29 299 C 29.588235294117602 299 29.882352941176396 299 30.470588235294 299 C 31.058823529411598 299 31.3529411764704 299 31.941176470588 299 C 32.5294117647056 299 32.8235294117644 299 33.411764705882 299 C 33.9999999999996 299 34.2941176470584 299 34.882352941176 299 C 35.470588235293995 299 35.764705882353 299 36.352941176471 299 C 36.941176470588594 299 37.2352941176474 299 37.823529411765 299 C 38.4117647058826 299 38.7058823529414 299 39.294117647059 299 C 39.8823529411766 299 40.1764705882354 299 40.764705882353 299 C 41.352941176470594 299 41.647058823529406 299 42.235294117647 299 C 42.8235294117646 299 43.11764705882341 299 43.705882352941 299 C 44.2941176470586 299 44.5882352941174 299 45.176470588235 299 C 45.7647058823526 299 46.058823529411406 299 46.647058823529 299 C 47.235294117647 299 47.529411764706005 299 48.117647058824 299 C 48.7058823529416 299 49.0000000000004 149.5 49.588235294118 149.5 C 50.1764705882356 149.5 50.47058823529441 194.35 51.058823529412 224.25 C 51.6470588235296 254.15 51.9411764705884 299 52.529411764706 299 C 53.11764705882361 299 53.4117647058824 224.25 54 224.25 C 54.5882352941176 224.25 54.88235294117639 299 55.470588235294 299 C 56.0588235294116 299 56.3529411764704 299 56.941176470588 299 C 57.52941176470559 299 57.8235294117644 224.25 58.411764705882 224.25 C 58.9999999999996 224.25 59.2941176470584 224.25 59.882352941176 224.25 C 60.470588235293995 224.25 60.764705882353 299 61.352941176471 299 C 61.941176470588594 299 62.2352941176474 299 62.823529411765 299 C 63.41176470588259 299 63.7058823529414 299 64.294117647059 299 C 64.8823529411766 299 65.1764705882354 224.25 65.764705882353 224.25 C 66.35294117647061 224.25 66.64705882352939 299 67.235294117647 299 C 67.8235294117646 299 68.1176470588234 224.25 68.705882352941 224.25 C 69.2941176470586 224.25 69.58823529411741 299 70.176470588235 299 C 70.7647058823526 299 71.0588235294114 224.25 71.647058823529 224.25 C 72.235294117647 224.25 72.529411764706 299 73.117647058824 299 C 73.7058823529416 299 74.0000000000004 299 74.588235294118 299 C 75.17647058823559 299 75.4705882352944 299 76.058823529412 299 C 76.64705882352959 299 76.9411764705884 299 77.529411764706 299 C 78.11764705882361 299 78.4117647058824 299 79 299 C 79.5882352941176 299 79.88235294117639 299 80.470588235294 299 C 81.0588235294116 299 81.35294117647041 299 81.941176470588 299 C 82.5294117647056 299 82.82352941176441 299 83.411764705882 299 C 83.9999999999996 299 84.2941176470584 299 84.882352941176 299 C 85.470588235294 299 85.764705882353 299 86.352941176471 299 C 86.9411764705886 299 87.2352941176474 299 87.823529411765 299 C 88.41176470588259 299 88.7058823529414 299 89.294117647059 299 C 89.8823529411766 299 90.1764705882354 299 90.764705882353 299 C 91.35294117647061 299 91.64705882352939 299 92.235294117647 299 C 92.8235294117646 299 93.1176470588234 299 93.705882352941 299 C 94.2941176470586 299 94.58823529411741 149.5 95.176470588235 149.5 C 95.7647058823526 149.5 96.0588235294114 194.35000000001048 96.647058823529 224.25 C 97.235294117647 254.1500000000105 97.529411764706 299 98.117647058824 299 C 98.7058823529416 299 99.00000000000038 224.25 99.588235294118 224.25 C 100.17647058823479 224.25 100.4705882352932 299 101.05882352941 299 C 101.64705882353 299 101.94117647059001 299 102.52941176471 299 C 103.11764705882601 299 103.411764705884 224.25 104 224.25 C 104.588235294116 224.25 104.88235294117399 224.25 105.47058823529 224.25 C 106.05882352940998 224.25 106.35294117647 224.25 106.94117647059 224.25 C 107.529411764706 224.25 107.823529411764 299 108.41176470588 299 C 109 299 109.29411764706 224.25 109.88235294118 224.25 C 110.470588235296 224.25 110.764705882354 299 111.35294117647 299 C 111.94117647058602 299 112.235294117644 299 112.82352941176 299 C 113.41176470588002 299 113.70588235294 224.25 114.29411764706 224.25 C 114.88235294117598 224.25 115.176470588234 299 115.76470588235 299 C 116.35294117647 299 116.64705882353 254.1500000001015 117.23529411765 224.25 C 117.823529411766 194.3500000001015 118.11764705882402 149.5 118.70588235294 149.5 C 119.85784313725601 149.5 120.43382352941398 224.25 121.58578431373 224.25 C 122.174019607846 224.25 122.468137254904 224.25 123.05637254902 224.25 C 123.08088235294 224.25 123.09313725489999 149.5 123.11764705882 149.5 C 123.70588235294 149.5 124 149.5 124.58823529412 149.5 C 125.176470588236 149.5 125.470588235294 299 126.05882352941 299 C 127.21078431372601 299 127.786764705884 282.8041666667466 128.9387254902 224.25 C 128.96323529412 223.00416666674658 128.97549019608 149.5 129 149.5 C 129.588235294116 149.5 129.882352941174 149.5 130.47058823529 149.5 C 131.05882352940998 149.5 131.35294117646998 149.5 131.94117647059 149.5 C 132.529411764706 149.5 132.823529411764 74.75 133.41176470588 74.75 C 134 74.75 134.29411764705998 104.64999999984829 134.88235294118 149.5 C 135.47058823529602 194.3499999998483 135.764705882354 299 136.35294117647 299 C 136.94117647058602 299 137.23529411764403 299 137.82352941176 299 C 138.73039215686 299 139.18382352941 270.3458333334059 140.09068627451 224.25 C 140.360294117646 210.54583333340588 140.495098039214 149.5 140.76470588235 149.5 C 141.916666666666 149.5 142.49264705882402 224.25 143.64460784314 224.25 C 144.232843137256 224.25 144.52696078431399 224.25 145.11519607843 224.25 C 145.13970588235398 224.25 145.151960784316 149.5 145.17647058824 149.5 C 146.083333333336 149.5 146.53676470588397 178.15416666664157 147.44362745098 224.25 C 147.713235294116 237.95416666664158 147.848039215684 299 148.11764705882 299 C 149.26960784313601 299 149.845588235294 299 150.99754901961 224.25 C 151.02205882353002 149.5 151.03431372549 74.75 151.05882352941 74.75 C 151.64705882353002 74.75 151.94117647059002 125.9721311474521 152.52941176471 149.5 C 153.436274509806 185.77213114745211 153.889705882354 224.25 154.79656862745 224.25 C 155.38480392156998 224.25 155.67892156863 224.25 156.26715686275 224.25 C 156.53676470588601 224.25 156.671568627454 149.5 156.94117647059 149.5 C 158.09313725490202 149.5 158.66911764705802 165.6958333334557 159.82107843137 224.25 C 159.845588235294 225.49583333345572 159.857843137256 299 159.88235294118 299 C 161.03431372549198 299 161.610294117648 224.25 162.76225490196 224.25 C 162.78676470588002 224.25 162.79901960784 299 162.82352941176 299 C 163.41176470588002 299 163.70588235294 149.5 164.29411764706 149.5 C 165.446078431372 149.5 166.022058823528 224.25 167.17401960784 224.25 C 167.76225490195998 224.25 168.05637254901998 224.25 168.64460784314 224.25 C 168.66911764706 224.25 168.68137254901998 149.5 168.70588235294 149.5 C 169.857843137256 149.5 170.43382352941398 165.695833333252 171.58578431373 224.25 C 171.61029411764997 225.49583333325202 171.62254901961 299 171.64705882353 299 C 172.799019607842 299 173.374999999998 282.80416666654287 174.52696078431 224.25 C 174.55147058823403 223.0041666665429 174.563725490196 149.5 174.58823529412 149.5 C 175.740196078432 149.5 176.316176470588 224.25 177.4681372549 224.25 C 177.492647058824 224.25 177.50490196078601 151.89200000023334 177.52941176471 149.5 C 178.117647058826 92.09200000023333 178.411764705884 74.75 179 74.75 C 179.588235294116 74.75 179.882352941174 104.65000000015166 180.47058823529 149.5 C 181.05882352940998 194.35000000015168 181.35294117646998 299 181.94117647059 299 C 182.529411764706 299 182.823529411764 299 183.41176470588 299 C 184.31862745098002 299 184.77205882353 224.25 185.67892156863 224.25 C 186.51225490196197 224.25 186.928921568628 224.25 187.76225490196 224.25 C 188.350490196076 224.25 188.644607843134 224.25 189.23284313725 224.25 C 189.82107843137 224.25 190.11519607843002 224.25 190.70343137255 224.25 C 190.72794117646998 224.25 190.74019607843002 299 190.76470588235 299 C 191.67156862745 299 192.125 224.25 193.0318627451 224.25 C 193.865196078432 224.25 194.28186274509798 224.25 195.11519607843 224.25 C 195.70343137255 224.25 195.99754901961 149.5 196.58578431373 149.5 C 196.61029411764997 149.5 196.62254901961 149.5 196.64705882353 149.5 C 197.55392156862598 149.5 198.007352941174 178.1541666667975 198.91421568627 224.25 C 199.18382352941 237.9541666667975 199.31862745098002 299 199.58823529412 299 C 200.176470588236 299 200.470588235294 299 201.05882352941 299 C 201.64705882353002 299 201.94117647059002 299 202.52941176471 299 C 203.117647058826 299 203.411764705884 299 204 299 C 204.9068627451 299 205.36029411765003 224.25 206.26715686275 224.25 C 206.855392156866 224.25 207.149509803924 224.25 207.73774509804 224.25 C 208.00735294117598 224.25 208.142156862744 299 208.41176470588 299 C 209 299 209.29411764706 299 209.88235294118 299 C 210.47058823529602 299 210.76470588235398 299 211.35294117647 299 C 211.94117647058602 299 212.23529411764403 299 212.82352941176 299 C 213.73039215686003 299 214.18382352940998 224.25 215.09068627451 224.25 C 215.360294117646 224.25 215.495098039214 299 215.76470588235 299 C 216.35294117646998 299 216.64705882353002 299 217.23529411765 299 C 217.823529411766 299 218.11764705882402 299 218.70588235294 299 C 219.61274509803997 299 220.06617647058997 224.25 220.97303921569 224.25 C 221.24264705882598 224.25 221.377450980394 299 221.64705882353 299 C 222.23529411764602 299 222.52941176470398 299 223.11764705882 299 C 223.70588235294 299 224 299 224.58823529412 299 C 225.176470588236 299 225.470588235294 299 226.05882352941 299 C 226.64705882353002 299 226.94117647059002 299 227.52941176471 299 C 228.117647058826 299 228.41176470588397 299 229 299 C 229.9068627451 299 230.36029411765003 224.25 231.26715686275 224.25 C 231.536764705886 224.25 231.671568627454 299 231.94117647059 299 C 232.529411764706 299 232.823529411764 299 233.41176470588 299 C 234 299 234.29411764706 149.5 234.88235294118 149.5 C 235.789215686276 149.5 236.24264705882402 178.1541666666408 237.14950980392 224.25 C 237.419117647056 237.95416666664082 237.553921568624 299 237.82352941176 299 C 238.41176470588002 299 238.70588235294 299 239.29411764706 299 C 240.200980392156 299 240.65441176470398 224.25 241.5612745098 224.25 C 241.83088235294 224.25 241.96568627450998 299 242.23529411765 299 C 242.823529411766 299 243.11764705882402 299 243.70588235294 299 C 244.61274509803997 299 245.06617647058997 224.25 245.97303921569 224.25 C 246.56127450980597 224.25 246.85539215686399 224.25 247.44362745098 224.25 C 247.71323529411603 224.25 247.848039215684 299 248.11764705882 299 C 248.70588235294 299 249 299 249.58823529412 299 C 250.495098039216 299 250.948529411764 224.25 251.85539215686 224.25 C 252.44362745098002 224.25 252.73774509804002 224.25 253.32598039216 224.25 C 253.59558823529602 224.25 253.73039215686399 299 254 299 C 254.58823529411603 299 254.882352941174 299 255.47058823529 299 C 256.05882352941 299 256.35294117647 299 256.94117647059 299 C 257.52941176470597 299 257.823529411764 299 258.41176470588 299 C 259 299 259.29411764706003 299 259.88235294118 299 C 260.47058823529596 299 260.76470588235395 299 261.35294117647 299 C 261.94117647058596 299 262.235294117644 299 262.82352941176 299 C 263.41176470588 299 263.70588235293997 299 264.29411764706 299 C 264.882352941176 299 265.17647058823394 299 265.76470588235 299 C 266.35294117647 299 266.64705882353 299 267.23529411765 299 C 267.82352941176606 299 268.117647058824 299 268.70588235294 299 C 269.29411764706003 299 269.58823529412 299 270.17647058824 299 C 270.764705882356 299 271.05882352941404 299 271.64705882353 299 C 272.23529411764605 299 272.52941176470404 299 273.11764705882 299 C 273.70588235293997 299 274 299 274.58823529412 299 C 275.176470588236 299 275.47058823529403 299 276.05882352941 299 C 276.64705882353 299 276.94117647059 299 277.52941176471 299 C 278.11764705882604 299 278.41176470588397 299 279 299 C 279.58823529411603 299 279.88235294117396 299 280.47058823529 299 C 281.05882352941 299 281.35294117647 299 281.94117647059 299 C 282.52941176470597 299 282.823529411764 299 283.41176470588 299 C 284 299 284.29411764706003 299 284.88235294118 299 C 285.47058823529596 299 285.76470588235395 299 286.35294117647 299 C 286.94117647058596 299 287.235294117644 299 287.82352941176 299 C 288.41176470588 299 288.70588235293997 299 289.29411764706 299 C 289.882352941176 299 290.17647058823394 299 290.76470588235 299 C 291.35294117647 299 291.64705882353 299 292.23529411765 299 C 292.82352941176606 299 293.117647058824 299 293.70588235294 299 C 294.29411764706003 299 294.58823529412 299 295.17647058824 299 C 295.764705882356 299 296.05882352941404 299 296.64705882353 299 C 297.23529411764605 299 297.52941176470404 299 298.11764705882 299 C 298.70588235293997 299 299 299 299.58823529412 299 C 300.176470588236 299 300.47058823529403 299 301.05882352941 299 C 301.64705882353 299 301.94117647059 299 302.52941176471 299 C 303.11764705882604 299 303.41176470588397 299 304 299 C 304.58823529411603 299 304.88235294117396 299 305.47058823529 299 C 306.05882352941 299 306.35294117647 299 306.94117647059 299 C 307.52941176470597 299 307.823529411764 299 308.41176470588 299 C 309 299 309.29411764706003 299 309.88235294118 299 C 310.47058823529596 299 310.76470588235395 299 311.35294117647 299 C 311.94117647058596 299 312.235294117644 299 312.82352941176 299 C 313.41176470588 299 313.70588235293997 299 314.29411764706 299 C 314.882352941176 299 315.17647058823394 299 315.76470588235 299 C 316.35294117647 299 316.64705882353 299 317.23529411765 299 C 317.82352941176606 299 318.117647058824 299 318.70588235294 299 C 319.29411764706003 299 319.58823529412 299 320.17647058824 299 C 320.764705882356 299 321.05882352941404 299 321.64705882353 299 C 322.23529411764605 299 322.52941176470404 299 323.11764705882 299 C 323.70588235293997 299 324 299 324.58823529412 299 C 325.176470588236 299 325.47058823529403 299 326.05882352941 299 C 326.64705882353 299 326.94117647059 299 327.52941176471 299 C 328.11764705882604 299 328.41176470588397 299 329 299 C 329.58823529411603 299 329.88235294117396 299 330.47058823529 299 C 331.05882352941 299 331.35294117647 299 331.94117647059 299 C 332.52941176470597 299 332.823529411764 299 333.41176470588 299 C 334 299 334.29411764706003 299 334.88235294118 299 C 335.47058823529596 299 335.76470588235395 299 336.35294117647 299 C 336.94117647058596 299 337.235294117644 299 337.82352941176 299 C 338.41176470588 299 338.70588235293997 299 339.29411764706 299 C 339.882352941176 299 340.17647058823394 299 340.76470588235 299 C 341.35294117647 299 341.64705882353 299 342.23529411765 299 C 342.82352941176606 299 343.117647058824 299 343.70588235294 299 C 344.29411764706003 299 344.58823529412 299 345.17647058824 299 C 345.764705882356 299 346.05882352941404 299 346.64705882353 299 C 347.23529411764605 299 347.52941176470404 299 348.11764705882 299 C 348.70588235293997 299 349 299 349.58823529412 299 C 350.176470588236 299 350.47058823529403 299 351.05882352941 299 C 351.64705882353 299 351.94117647059 299 352.52941176471 299 C 353.11764705882604 299 353.41176470588397 299 354 299 C 354.58823529411603 299 354.88235294117396 299 355.47058823529 299 C 356.05882352941 299 356.35294117647 299 356.94117647059 299 C 357.52941176470597 299 357.823529411764 299 358.41176470588 299 C 359 299 359.29411764706003 299 359.88235294118 299 C 360.47058823529596 299 360.76470588235395 299 361.35294117647 299 C 361.94117647058596 299 362.235294117644 299 362.82352941176 299 C 363.41176470588 299 363.70588235293997 299 364.29411764706 299 C 364.882352941176 299 365.17647058823394 299 365.76470588235 299 C 366.35294117647 299 366.64705882353 299 367.23529411765 299 C 367.82352941176606 299 368.117647058824 299 368.70588235294 299 C 369.29411764706003 299 369.58823529412 299 370.17647058824 299 C 370.764705882356 299 371.05882352941404 299 371.64705882353 299 C 372.23529411764605 299 372.52941176470404 299 373.11764705882 299 C 373.70588235293997 299 374 299 374.58823529412 299 C 375.176470588236 299 375.47058823529403 299 376.05882352941 299 C 376.64705882353 299 376.94117647059 299 377.52941176471 299 C 378.68137254902206 299 379.25735294117806 224.25 380.40931372549 224.25 C 380.43382352941 224.25 380.44607843137 299 380.47058823529 299 C 381.05882352941 299 381.35294117647 299 381.94117647059 299 C 382.52941176470597 299 382.823529411764 299 383.41176470588 299 C 384 299 384.29411764706003 299 384.88235294118 299 C 385.47058823529596 299 385.76470588235395 299 386.35294117647 299 C 386.94117647058596 299 387.235294117644 299 387.82352941176 299 C 388.41176470588 299 388.70588235293997 299 389.29411764706 299 C 389.882352941176 299 390.17647058823394 299 390.76470588235 299 C 391.35294117647 299 391.64705882353 299 392.23529411765 299 C 392.82352941176606 299 393.117647058824 299 393.70588235294 299 C 394.29411764706003 299 394.58823529412 299 395.17647058824 299 C 396.328431372552 299 396.904411764708 224.25 398.05637254902 224.25 C 398.08088235293997 224.25 398.0931372549 299 398.11764705882 299 C 398.70588235293997 299 399 299 399.58823529412 299 C 400.740196078432 299 401.316176470588 224.25 402.4681372549 224.25 C 402.492647058824 224.25 402.504901960786 299 402.52941176471 299 C 403.11764705882604 299 403.41176470588397 299 404 299 C 404.58823529411603 299 404.88235294117396 299 405.47058823529 299 C 406.05882352941 299 406.35294117647 299 406.94117647059 299 C 407.52941176470597 299 407.823529411764 299 408.41176470588 299 C 409 299 409.29411764706003 299 409.88235294118 299 C 410.47058823529596 299 410.76470588235395 299 411.35294117647 299 C 411.9411764705859 299 412.235294117644 299 412.82352941176 299 C 413.41176470588 299 413.70588235293997 299 414.29411764706 299 C 414.882352941176 299 415.17647058823394 299 415.76470588235 299 C 416.35294117647 299 416.64705882353 299 417.23529411765 299 C 417.82352941176606 299 418.117647058824 299 418.70588235294 299 C 419.29411764706003 299 419.58823529412 299 420.17647058824 299 C 420.764705882356 299 421.0588235294141 299 421.64705882353 299 C 422.799019607842 299 423.374999999998 224.25 424.52696078431 224.25 C 424.55147058823405 224.25 424.56372549019596 299 424.58823529412 299 C 425.17647058823604 299 425.47058823529403 299 426.05882352941 299 C 426.64705882353 299 426.94117647059 299 427.52941176471 299 C 428.117647058826 299 428.41176470588397 299 429 299 C 429.58823529411603 299 429.882352941174 299 430.47058823529 299 C 431.05882352941 299 431.35294117647 299 431.94117647059 299 C 432.52941176470597 299 432.82352941176396 299 433.41176470588 299 C 434 299 434.29411764706003 299 434.88235294118 299 C 435.47058823529596 299 435.76470588235395 299 436.35294117647 299 C 436.9411764705859 299 437.235294117644 299 437.82352941176 299 C 438.41176470588 299 438.70588235293997 299 439.29411764706 299 C 440.44607843137203 299 441.022058823528 224.25 442.17401960784 224.25 C 442.19852941176407 224.25 442.2107843137261 299 442.23529411765 299 C 442.82352941176606 299 443.117647058824 299 443.70588235294 299 C 444.29411764706003 299 444.58823529412 299 445.17647058824 299 C 445.764705882356 299 446.0588235294141 299 446.64705882353 299 C 447.23529411764605 299 447.52941176470404 299 448.11764705882 299 C 448.70588235293997 299 449 299 449.58823529412 299 C 450.17647058823604 299 450.47058823529403 299 451.05882352941 299 C 451.64705882353 299 451.94117647059 299 452.52941176471 299 C 453.117647058826 299 453.41176470588397 299 454 299 C 454.58823529411603 299 454.882352941174 299 455.47058823529 299 C 456.05882352941 299 456.35294117647 299 456.94117647059 299 C 457.52941176470597 299 457.82352941176396 299 458.41176470588 299 C 459.31862745098005 299 459.77205882353 224.25 460.67892156863 224.25 C 460.94852941176606 224.25 461.08333333333394 299 461.35294117647 299 C 462.25980392157 299 462.71323529412 224.25 463.62009803922 224.25 C 463.889705882356 224.25 464.02450980392405 299 464.29411764706 299 C 464.882352941176 299 465.17647058823394 299 465.76470588235 299 C 466.35294117647 299 466.64705882353 299 467.23529411765 299 C 467.82352941176606 299 468.117647058824 299 468.70588235294 299 C 469.29411764706003 299 469.58823529412 299 470.17647058824 299 C 470.764705882356 299 471.0588235294141 299 471.64705882353 299 C 472.57843137255 299 473.04411764706003 224.25 473.97549019608 224.25 C 474.22058823529596 224.25 474.34313725490404 299 474.58823529412 299 C 475.17647058823604 299 475.47058823529403 299 476.05882352941 299 C 476.64705882353 299 476.94117647059 299 477.52941176471 299 C 478.117647058826 299 478.41176470588397 299 479 299 C 479.58823529411603 299 479.882352941174 299 480.47058823529 299 C 481.05882352941 299 481.35294117647 299 481.94117647059 299 C 482.52941176470597 299 482.82352941176396 299 483.41176470588 299 C 484 299 484.29411764706003 299 484.88235294118 299 C 485.47058823529596 299 485.76470588235395 299 486.35294117647 299 C 487.28431372549005 299 487.75 224.25 488.68137254902 224.25 C 488.92647058823593 224.25 489.049019607844 299 489.29411764706 299 C 489.882352941176 299 490.17647058823394 299 490.76470588235 299 C 491.35294117647 299 491.64705882353 299 492.23529411765 299 C 492.82352941176606 299 493.117647058824 299 493.70588235294 299 C 494.29411764706003 299 494.58823529412 299 495.17647058824 299 C 495.764705882356 299 496.0588235294141 299 496.64705882353 299 C 497.23529411764605 299 497.52941176470404 299 498.11764705882 299 C 498.70588235293997 299 499 299 499.58823529412 299 C 500.17647058823604 299 500.47058823529403 299 501.05882352941 299 C 501.64705882353 299 501.94117647059 299 502.52941176471 299 C 503.117647058826 299 503.41176470588397 299 504 299 C 504.93137254902 299 505.39705882353 224.25 506.32843137255 224.25 C 506.57352941176595 224.25 506.696078431374 299 506.94117647059 299 C 507.87254901960995 299 508.33823529412 224.25 509.26960784314 224.25 C 509.51470588235605 224.25 509.637254901964 299 509.88235294118 299 C 510.47058823529596 299 510.76470588235395 299 511.35294117647 299 C 511.9411764705859 299 512.235294117644 299 512.82352941176 299 C 513.4117647058799 299 513.70588235294 299 514.29411764706 299 C 514.882352941176 299 515.176470588234 299 515.76470588235 299 C 516.35294117647 299 516.64705882353 299 517.23529411765 299 C 517.823529411766 299 518.117647058824 299 518.70588235294 299 C 519.29411764706 299 519.5882352941201 299 520.17647058824 299 C 520.764705882356 299 521.058823529414 299 521.64705882353 299 C 522.2352941176459 299 522.5294117647039 299 523.11764705882 299 C 523.70588235294 299 524 299 524.58823529412 299 C 525.176470588236 299 525.470588235294 299 526.05882352941 299 C 526.64705882353 299 526.9411764705899 299 527.52941176471 299 C 528.1176470588259 299 528.411764705884 299 529 299 C 529.588235294116 299 529.8823529411741 299 530.47058823529 299 C 531.0588235294101 299 531.35294117647 299 531.94117647059 299 C 532.529411764706 299 532.823529411764 299 533.41176470588 299 C 534 299 534.29411764706 299 534.88235294118 299 C 535.4705882352961 299 535.7647058823541 299 536.35294117647 299 C 536.941176470586 299 537.235294117644 299 537.82352941176 299 C 538.4117647058799 299 538.70588235294 299 539.29411764706 299 C 539.882352941176 299 540.176470588234 299 540.76470588235 299 C 541.35294117647 299 541.64705882353 299 542.23529411765 299 C 542.823529411766 299 543.117647058824 299 543.70588235294 299 C 544.29411764706 299 544.5882352941201 299 545.17647058824 299 C 545.764705882356 299 546.058823529414 299 546.64705882353 299 C 547.2352941176459 299 547.5294117647039 299 548.11764705882 299 C 548.70588235294 299 549 299 549.58823529412 299 C 550.176470588236 299 550.470588235294 299 551.05882352941 299 C 551.64705882353 299 552.52941176471 299 552.52941176471 299" class="highcharts-graph" data-z-index="1" stroke="#000000" stroke-width="2" stroke-linejoin="round" stroke-linecap="round"></path></g><g data-z-index="0.1" class="highcharts-markers highcharts-series-0 highcharts-spline-series highcharts-color-0 " transform="translate(32,63) scale(1 1)" clip-path="none"></g></g><text x="300" text-anchor="middle" class="highcharts-title" data-z-index="4" style="color:#333333;font-size:18px;fill:#333333;" y="24"><tspan>Vegetable Skillet Over Time</tspan></text><text x="300" text-anchor="middle" class="highcharts-subtitle" data-z-index="4" style="color:#666666;fill:#666666;" y="46"><tspan>This chart shows how your Vegetable Skillet changes over time.</tspan></text><g class="highcharts-axis-labels highcharts-xaxis-labels " data-z-index="7"><text x="52.235294117647" style="color:#666666;cursor:default;font-size:11px;fill:#666666;" text-anchor="middle" transform="translate(0,0)" y="381" opacity="1"><tspan>Jan '13</tspan></text><text x="139" style="color:#666666;cursor:default;font-size:11px;fill:#666666;" text-anchor="middle" transform="translate(0,0)" y="381" opacity="1"><tspan>Mar '13</tspan></text><text x="228.70588235294" style="color:#666666;cursor:default;font-size:11px;fill:#666666;" text-anchor="middle" transform="translate(0,0)" y="381" opacity="1"><tspan>May '13</tspan></text><text x="318.41176470588" style="color:#666666;cursor:default;font-size:11px;fill:#666666;" text-anchor="middle" transform="translate(0,0)" y="381" opacity="1"><tspan>Jul '13</tspan></text><text x="409.58823529412" style="color:#666666;cursor:default;font-size:11px;fill:#666666;" text-anchor="middle" transform="translate(0,0)" y="381" opacity="1"><tspan>Sep '13</tspan></text><text x="499.29411764706" style="color:#666666;cursor:default;font-size:11px;fill:#666666;" text-anchor="middle" transform="translate(0,0)" y="381" opacity="1"><tspan>Nov '13</tspan></text><text x="572" style="color:#666666;cursor:default;font-size:11px;fill:#666666;" text-anchor="middle" transform="translate(0,0)" y="381" opacity="1"><tspan>Jan '14</tspan></text></g><g class="highcharts-axis-labels highcharts-yaxis-labels " data-z-index="7"><text x="17" style="color:#666666;cursor:default;font-size:11px;fill:#666666;" text-anchor="end" transform="translate(0,0)" y="366" opacity="1">0</text><text x="17" style="color:#666666;cursor:default;font-size:11px;fill:#666666;" text-anchor="end" transform="translate(0,0)" y="291" opacity="1">1</text><text x="17" style="color:#666666;cursor:default;font-size:11px;fill:#666666;" text-anchor="end" transform="translate(0,0)" y="216" opacity="1">2</text><text x="17" style="color:#666666;cursor:default;font-size:11px;fill:#666666;" text-anchor="end" transform="translate(0,0)" y="141" opacity="1">3</text><text x="17" style="color:#666666;cursor:default;font-size:11px;fill:#666666;" text-anchor="end" transform="translate(0,0)" y="67" opacity="1">4</text></g><a xlink:href="https://quantimo.do" target="_blank">
                    <text x="590" class="highcharts-credits" text-anchor="end" data-z-index="8"
                          style="cursor:pointer;color:#999999;font-size:9px;fill:#999999;" y="395">https://quantimo.do
                    </text>
                </a></svg>