<?xml version="1.0" standalone="no"?><!DOCTYPE svg PUBLIC "-//W3C//DTD SVG 1.1//EN" "http://www.w3.org/Graphics/SVG/1.1/DTD/svg11.dtd"><svg xmlns:xlink="http://www.w3.org/1999/xlink" version="1.1" class="highcharts-root" style="font-family:&quot;Lucida Grande&quot;, &quot;Lucida Sans Unicode&quot;, Arial, Helvetica, sans-serif;font-size:12px;" xmlns="http://www.w3.org/2000/svg" width="600" height="300"><desc>Created with Highstock 6.2.0</desc><defs><clipPath id="highcharts-p7tvrs4-29"><rect x="0" y="0" width="511" height="168" fill="none"></rect></clipPath><clipPath id="highcharts-p7tvrs4-52"><rect x="0" y="0" width="511" height="168" fill="none"></rect></clipPath><clipPath id="highcharts-p7tvrs4-53"><rect x="79" y="63" width="511" height="168" fill="none"></rect></clipPath></defs><rect fill="#ffffff" class="highcharts-background" x="0" y="0" width="600" height="300" rx="0" ry="0"></rect><rect fill="none" class="highcharts-plot-background" x="79" y="63" width="511" height="168"></rect><g class="highcharts-pane-group" data-z-index="0"></g><g class="highcharts-grid highcharts-xaxis-grid " data-z-index="1"><path fill="none" data-z-index="1" class="highcharts-grid-line" d="M 101.5 63 L 101.5 231" opacity="1"></path><path fill="none" data-z-index="1" class="highcharts-grid-line" d="M 124.5 63 L 124.5 231" opacity="1"></path><path fill="none" data-z-index="1" class="highcharts-grid-line" d="M 148.5 63 L 148.5 231" opacity="1"></path><path fill="none" data-z-index="1" class="highcharts-grid-line" d="M 171.5 63 L 171.5 231" opacity="1"></path><path fill="none" data-z-index="1" class="highcharts-grid-line" d="M 194.5 63 L 194.5 231" opacity="1"></path><path fill="none" data-z-index="1" class="highcharts-grid-line" d="M 217.5 63 L 217.5 231" opacity="1"></path><path fill="none" data-z-index="1" class="highcharts-grid-line" d="M 241.5 63 L 241.5 231" opacity="1"></path><path fill="none" data-z-index="1" class="highcharts-grid-line" d="M 264.5 63 L 264.5 231" opacity="1"></path><path fill="none" data-z-index="1" class="highcharts-grid-line" d="M 287.5 63 L 287.5 231" opacity="1"></path><path fill="none" data-z-index="1" class="highcharts-grid-line" d="M 310.5 63 L 310.5 231" opacity="1"></path><path fill="none" data-z-index="1" class="highcharts-grid-line" d="M 334.5 63 L 334.5 231" opacity="1"></path><path fill="none" data-z-index="1" class="highcharts-grid-line" d="M 357.5 63 L 357.5 231" opacity="1"></path><path fill="none" data-z-index="1" class="highcharts-grid-line" d="M 380.5 63 L 380.5 231" opacity="1"></path><path fill="none" data-z-index="1" class="highcharts-grid-line" d="M 403.5 63 L 403.5 231" opacity="1"></path><path fill="none" data-z-index="1" class="highcharts-grid-line" d="M 426.5 63 L 426.5 231" opacity="1"></path><path fill="none" data-z-index="1" class="highcharts-grid-line" d="M 450.5 63 L 450.5 231" opacity="1"></path><path fill="none" data-z-index="1" class="highcharts-grid-line" d="M 473.5 63 L 473.5 231" opacity="1"></path><path fill="none" data-z-index="1" class="highcharts-grid-line" d="M 496.5 63 L 496.5 231" opacity="1"></path><path fill="none" data-z-index="1" class="highcharts-grid-line" d="M 519.5 63 L 519.5 231" opacity="1"></path><path fill="none" data-z-index="1" class="highcharts-grid-line" d="M 543.5 63 L 543.5 231" opacity="1"></path><path fill="none" data-z-index="1" class="highcharts-grid-line" d="M 566.5 63 L 566.5 231" opacity="1"></path><path fill="none" data-z-index="1" class="highcharts-grid-line" d="M 589.5 63 L 589.5 231" opacity="1"></path><path fill="none" data-z-index="1" class="highcharts-grid-line" d="M 78.5 63 L 78.5 231" opacity="1"></path></g><g class="highcharts-grid highcharts-yaxis-grid " data-z-index="1"><path fill="none" stroke="#e6e6e6" stroke-width="1" data-z-index="1" class="highcharts-grid-line" d="M 79 231.5 L 590 231.5" opacity="1"></path><path fill="none" stroke="#e6e6e6" stroke-width="1" data-z-index="1" class="highcharts-grid-line" d="M 79 175.5 L 590 175.5" opacity="1"></path><path fill="none" stroke="#e6e6e6" stroke-width="1" data-z-index="1" class="highcharts-grid-line" d="M 79 119.5 L 590 119.5" opacity="1"></path><path fill="none" stroke="#e6e6e6" stroke-width="1" data-z-index="1" class="highcharts-grid-line" d="M 79 62.5 L 590 62.5" opacity="1"></path></g><rect fill="none" class="highcharts-plot-border" data-z-index="1" x="79" y="63" width="511" height="168"></rect><g class="highcharts-axis highcharts-xaxis " data-z-index="2"><path fill="none" class="highcharts-tick" stroke="#ccd6eb" stroke-width="1" d="M 101.5 231 L 101.5 241" opacity="1"></path><path fill="none" class="highcharts-tick" stroke="#ccd6eb" stroke-width="1" d="M 124.5 231 L 124.5 241" opacity="1"></path><path fill="none" class="highcharts-tick" stroke="#ccd6eb" stroke-width="1" d="M 148.5 231 L 148.5 241" opacity="1"></path><path fill="none" class="highcharts-tick" stroke="#ccd6eb" stroke-width="1" d="M 171.5 231 L 171.5 241" opacity="1"></path><path fill="none" class="highcharts-tick" stroke="#ccd6eb" stroke-width="1" d="M 194.5 231 L 194.5 241" opacity="1"></path><path fill="none" class="highcharts-tick" stroke="#ccd6eb" stroke-width="1" d="M 217.5 231 L 217.5 241" opacity="1"></path><path fill="none" class="highcharts-tick" stroke="#ccd6eb" stroke-width="1" d="M 241.5 231 L 241.5 241" opacity="1"></path><path fill="none" class="highcharts-tick" stroke="#ccd6eb" stroke-width="1" d="M 264.5 231 L 264.5 241" opacity="1"></path><path fill="none" class="highcharts-tick" stroke="#ccd6eb" stroke-width="1" d="M 287.5 231 L 287.5 241" opacity="1"></path><path fill="none" class="highcharts-tick" stroke="#ccd6eb" stroke-width="1" d="M 310.5 231 L 310.5 241" opacity="1"></path><path fill="none" class="highcharts-tick" stroke="#ccd6eb" stroke-width="1" d="M 334.5 231 L 334.5 241" opacity="1"></path><path fill="none" class="highcharts-tick" stroke="#ccd6eb" stroke-width="1" d="M 357.5 231 L 357.5 241" opacity="1"></path><path fill="none" class="highcharts-tick" stroke="#ccd6eb" stroke-width="1" d="M 380.5 231 L 380.5 241" opacity="1"></path><path fill="none" class="highcharts-tick" stroke="#ccd6eb" stroke-width="1" d="M 403.5 231 L 403.5 241" opacity="1"></path><path fill="none" class="highcharts-tick" stroke="#ccd6eb" stroke-width="1" d="M 426.5 231 L 426.5 241" opacity="1"></path><path fill="none" class="highcharts-tick" stroke="#ccd6eb" stroke-width="1" d="M 450.5 231 L 450.5 241" opacity="1"></path><path fill="none" class="highcharts-tick" stroke="#ccd6eb" stroke-width="1" d="M 473.5 231 L 473.5 241" opacity="1"></path><path fill="none" class="highcharts-tick" stroke="#ccd6eb" stroke-width="1" d="M 496.5 231 L 496.5 241" opacity="1"></path><path fill="none" class="highcharts-tick" stroke="#ccd6eb" stroke-width="1" d="M 519.5 231 L 519.5 241" opacity="1"></path><path fill="none" class="highcharts-tick" stroke="#ccd6eb" stroke-width="1" d="M 543.5 231 L 543.5 241" opacity="1"></path><path fill="none" class="highcharts-tick" stroke="#ccd6eb" stroke-width="1" d="M 566.5 231 L 566.5 241" opacity="1"></path><path fill="none" class="highcharts-tick" stroke="#ccd6eb" stroke-width="1" d="M 590.5 231 L 590.5 241" opacity="1"></path><path fill="none" class="highcharts-tick" stroke="#ccd6eb" stroke-width="1" d="M 78.5 231 L 78.5 241" opacity="1"></path><text x="334.5" data-z-index="7" text-anchor="middle" transform="translate(0,0)" class="highcharts-axis-title" style="color:#666666;fill:#666666;" y="281.4558441227157"><tspan>Daily Values (%RDA)</tspan></text><path fill="none" class="highcharts-axis-line" stroke="#ccd6eb" stroke-width="1" data-z-index="7" d="M 79 231.5 L 590 231.5"></path></g><g class="highcharts-axis highcharts-yaxis " data-z-index="2"><text x="26" data-z-index="7" text-anchor="middle" transform="translate(0,0) rotate(270 26 147)" class="highcharts-axis-title" style="color:#666666;fill:#666666;" y="147"><tspan>Number of Days</tspan></text><path fill="none" class="highcharts-axis-line" data-z-index="7" d="M 79 63 L 79 231"></path></g><g class="highcharts-series-group" data-z-index="3"><g data-z-index="0.1" class="highcharts-series highcharts-series-0 highcharts-column-series highcharts-color-0 " transform="translate(79,63) scale(1 1)" clip-path="url(#highcharts-p7tvrs4-52)"><rect x="5.5" y="3.5" width="12" height="165" fill="#000000" stroke="#ffffff" stroke-width="1" class="highcharts-point highcharts-color-0"></rect><rect x="28.5" y="168.5" width="12" height="0" fill="#000000" stroke="#ffffff" stroke-width="1" class="highcharts-point highcharts-color-0"></rect><rect x="51.5" y="168.5" width="12" height="0" fill="#000000" stroke="#ffffff" stroke-width="1" class="highcharts-point highcharts-color-0"></rect><rect x="75.5" y="168.5" width="12" height="0" fill="#000000" stroke="#ffffff" stroke-width="1" class="highcharts-point highcharts-color-0"></rect><rect x="98.5" y="168.5" width="12" height="0" fill="#000000" stroke="#ffffff" stroke-width="1" class="highcharts-point highcharts-color-0"></rect><rect x="121.5" y="167.5" width="12" height="1" fill="#000000" stroke="#ffffff" stroke-width="1" class="highcharts-point highcharts-color-0"></rect><rect x="144.5" y="166.5" width="12" height="2" fill="#000000" stroke="#ffffff" stroke-width="1" class="highcharts-point highcharts-color-0"></rect><rect x="168.5" y="167.5" width="12" height="1" fill="#000000" stroke="#ffffff" stroke-width="1" class="highcharts-point highcharts-color-0"></rect><rect x="191.5" y="151.5" width="12" height="17" fill="#000000" stroke="#ffffff" stroke-width="1" class="highcharts-point highcharts-color-0"></rect><rect x="214.5" y="167.5" width="12" height="1" fill="#000000" stroke="#ffffff" stroke-width="1" class="highcharts-point highcharts-color-0"></rect><rect x="237.5" y="167.5" width="12" height="1" fill="#000000" stroke="#ffffff" stroke-width="1" class="highcharts-point highcharts-color-0"></rect><rect x="261.5" y="163.5" width="12" height="5" fill="#000000" stroke="#ffffff" stroke-width="1" class="highcharts-point highcharts-color-0"></rect><rect x="284.5" y="153.5" width="12" height="15" fill="#000000" stroke="#ffffff" stroke-width="1" class="highcharts-point highcharts-color-0"></rect><rect x="307.5" y="160.5" width="12" height="8" fill="#000000" stroke="#ffffff" stroke-width="1" class="highcharts-point highcharts-color-0"></rect><rect x="330.5" y="164.5" width="12" height="4" fill="#000000" stroke="#ffffff" stroke-width="1" class="highcharts-point highcharts-color-0"></rect><rect x="353.5" y="164.5" width="12" height="4" fill="#000000" stroke="#ffffff" stroke-width="1" class="highcharts-point highcharts-color-0"></rect><rect x="377.5" y="166.5" width="12" height="2" fill="#000000" stroke="#ffffff" stroke-width="1" class="highcharts-point highcharts-color-0"></rect><rect x="400.5" y="166.5" width="12" height="2" fill="#000000" stroke="#ffffff" stroke-width="1" class="highcharts-point highcharts-color-0"></rect><rect x="423.5" y="166.5" width="12" height="2" fill="#000000" stroke="#ffffff" stroke-width="1" class="highcharts-point highcharts-color-0"></rect><rect x="446.5" y="166.5" width="12" height="2" fill="#000000" stroke="#ffffff" stroke-width="1" class="highcharts-point highcharts-color-0"></rect><rect x="470.5" y="164.5" width="12" height="4" fill="#000000" stroke="#ffffff" stroke-width="1" class="highcharts-point highcharts-color-0"></rect><rect x="493.5" y="167.5" width="12" height="1" fill="#000000" stroke="#ffffff" stroke-width="1" class="highcharts-point highcharts-color-0"></rect></g><g data-z-index="0.1" class="highcharts-markers highcharts-series-0 highcharts-column-series highcharts-color-0 " transform="translate(79,63) scale(1 1)" clip-path="none"></g></g><text x="300" text-anchor="middle" class="highcharts-title" data-z-index="4" style="color:#333333;font-size:18px;fill:#333333;" y="24"><tspan>Daily Iron Distribution</tspan></text><text x="300" text-anchor="middle" class="highcharts-subtitle" data-z-index="4" style="color:#666666;fill:#666666;" y="46"><tspan>Each column represents the number of days this value occurred.</tspan></text><g class="highcharts-axis-labels highcharts-xaxis-labels " data-z-index="7"><text x="93.20636122798432" style="color:#666666;cursor:default;font-size:11px;fill:#666666;" text-anchor="end" transform="translate(0,0) rotate(-45 93.20636122798432 247)" y="247" opacity="1">0</text><text x="116.43363395526431" style="color:#666666;cursor:default;font-size:11px;fill:#666666;" text-anchor="end" transform="translate(0,0) rotate(-45 116.43363395526431 247)" y="247" opacity="1">0.5</text><text x="139.66090668253432" style="color:#666666;cursor:default;font-size:11px;fill:#666666;" text-anchor="end" transform="translate(0,0) rotate(-45 139.66090668253432 247)" y="247" opacity="1">1</text><text x="162.8881794098043" style="color:#666666;cursor:default;font-size:11px;fill:#666666;" text-anchor="end" transform="translate(0,0) rotate(-45 162.8881794098043 247)" y="247" opacity="1">2</text><text x="186.1154521370743" style="color:#666666;cursor:default;font-size:11px;fill:#666666;" text-anchor="end" transform="translate(0,0) rotate(-45 186.1154521370743 247)" y="247" opacity="1">3</text><text x="209.34272486435432" style="color:#666666;cursor:default;font-size:11px;fill:#666666;" text-anchor="end" transform="translate(0,0) rotate(-45 209.34272486435432 247)" y="247" opacity="1">4</text><text x="232.56999759162431" style="color:#666666;cursor:default;font-size:11px;fill:#666666;" text-anchor="end" transform="translate(0,0) rotate(-45 232.56999759162431 247)" y="247" opacity="1">5</text><text x="255.79727031889428" style="color:#666666;cursor:default;font-size:11px;fill:#666666;" text-anchor="end" transform="translate(0,0) rotate(-45 255.79727031889428 247)" y="247" opacity="1">6</text><text x="279.0245430461643" style="color:#666666;cursor:default;font-size:11px;fill:#666666;" text-anchor="end" transform="translate(0,0) rotate(-45 279.0245430461643 247)" y="247" opacity="1">7</text><text x="302.25181577344426" style="color:#666666;cursor:default;font-size:11px;fill:#666666;" text-anchor="end" transform="translate(0,0) rotate(-45 302.25181577344426 247)" y="247" opacity="1">8</text><text x="325.4790885007143" style="color:#666666;cursor:default;font-size:11px;fill:#666666;" text-anchor="end" transform="translate(0,0) rotate(-45 325.4790885007143 247)" y="247" opacity="1">9</text><text x="348.7063612279843" style="color:#666666;cursor:default;font-size:11px;fill:#666666;" text-anchor="end" transform="translate(0,0) rotate(-45 348.7063612279843 247)" y="247" opacity="1">10</text><text x="371.93363395526427" style="color:#666666;cursor:default;font-size:11px;fill:#666666;" text-anchor="end" transform="translate(0,0) rotate(-45 371.93363395526427 247)" y="247" opacity="1">20</text><text x="395.1609066825343" style="color:#666666;cursor:default;font-size:11px;fill:#666666;" text-anchor="end" transform="translate(0,0) rotate(-45 395.1609066825343 247)" y="247" opacity="1">30</text><text x="418.3881794098043" style="color:#666666;cursor:default;font-size:11px;fill:#666666;" text-anchor="end" transform="translate(0,0) rotate(-45 418.3881794098043 247)" y="247" opacity="1">40</text><text x="441.61545213707427" style="color:#666666;cursor:default;font-size:11px;fill:#666666;" text-anchor="end" transform="translate(0,0) rotate(-45 441.61545213707427 247)" y="247" opacity="1">50</text><text x="464.8427248643543" style="color:#666666;cursor:default;font-size:11px;fill:#666666;" text-anchor="end" transform="translate(0,0) rotate(-45 464.8427248643543 247)" y="247" opacity="1">60</text><text x="488.06999759162426" style="color:#666666;cursor:default;font-size:11px;fill:#666666;" text-anchor="end" transform="translate(0,0) rotate(-45 488.06999759162426 247)" y="247" opacity="1">70</text><text x="511.29727031889433" style="color:#666666;cursor:default;font-size:11px;fill:#666666;" text-anchor="end" transform="translate(0,0) rotate(-45 511.29727031889433 247)" y="247" opacity="1">80</text><text x="534.5245430461642" style="color:#666666;cursor:default;font-size:11px;fill:#666666;" text-anchor="end" transform="translate(0,0) rotate(-45 534.5245430461642 247)" y="247" opacity="1">90</text><text x="557.7518157734443" style="color:#666666;cursor:default;font-size:11px;fill:#666666;" text-anchor="end" transform="translate(0,0) rotate(-45 557.7518157734443 247)" y="247" opacity="1">100</text><text x="580.9790885007143" style="color:#666666;cursor:default;font-size:11px;fill:#666666;" text-anchor="end" transform="translate(0,0) rotate(-45 580.9790885007143 247)" y="247" opacity="1">200</text></g><g class="highcharts-axis-labels highcharts-yaxis-labels " data-z-index="7"><text x="64" style="color:#666666;cursor:default;font-size:11px;fill:#666666;" text-anchor="end" transform="translate(0,0)" y="235" opacity="1">0</text><text x="64" style="color:#666666;cursor:default;font-size:11px;fill:#666666;" text-anchor="end" transform="translate(0,0)" y="179" opacity="1">500</text><text x="64" style="color:#666666;cursor:default;font-size:11px;fill:#666666;" text-anchor="end" transform="translate(0,0)" y="123" opacity="1">1000</text><text x="64" style="color:#666666;cursor:default;font-size:11px;fill:#666666;" text-anchor="end" transform="translate(0,0)" y="67" opacity="1">1500</text></g><a xlink:href="https://quantimo.do" target="_blank">
                    <text x="590" class="highcharts-credits" text-anchor="end" data-z-index="8"
                          style="cursor:pointer;color:#999999;font-size:9px;fill:#999999;" y="295">https://quantimo.do
                    </text>
                </a></svg>