<?xml version="1.0" standalone="no"?><!DOCTYPE svg PUBLIC "-//W3C//DTD SVG 1.1//EN" "http://www.w3.org/Graphics/SVG/1.1/DTD/svg11.dtd"><svg xmlns:xlink="http://www.w3.org/1999/xlink" version="1.1" class="highcharts-root" style="font-family:&quot;Lucida Grande&quot;, &quot;Lucida Sans Unicode&quot;, Arial, Helvetica, sans-serif;font-size:12px;" xmlns="http://www.w3.org/2000/svg" width="600" height="400"><desc>Created with Highstock 6.2.0</desc><defs><clipPath id="highcharts-h0jzef1-675"><rect x="0" y="0" width="532" height="242" fill="none"></rect></clipPath><clipPath id="highcharts-h0jzef1-1344"><rect x="0" y="0" width="532" height="242" fill="none"></rect></clipPath><clipPath id="highcharts-h0jzef1-1345"><rect x="58" y="99" width="532" height="242" fill="none"></rect></clipPath></defs><rect fill="#ffffff" class="highcharts-background" x="0" y="0" width="600" height="400" rx="0" ry="0"></rect><rect fill="none" class="highcharts-plot-background" x="58" y="99" width="532" height="242"></rect><g class="highcharts-pane-group" data-z-index="0"></g><g class="highcharts-grid highcharts-xaxis-grid " data-z-index="1"><path fill="none" data-z-index="1" class="highcharts-grid-line" d="M 62.5 99 L 62.5 341" opacity="1"></path><path fill="none" data-z-index="1" class="highcharts-grid-line" d="M 146.5 99 L 146.5 341" opacity="1"></path><path fill="none" data-z-index="1" class="highcharts-grid-line" d="M 230.5 99 L 230.5 341" opacity="1"></path><path fill="none" data-z-index="1" class="highcharts-grid-line" d="M 315.5 99 L 315.5 341" opacity="1"></path><path fill="none" data-z-index="1" class="highcharts-grid-line" d="M 399.5 99 L 399.5 341" opacity="1"></path><path fill="none" data-z-index="1" class="highcharts-grid-line" d="M 483.5 99 L 483.5 341" opacity="1"></path><path fill="none" data-z-index="1" class="highcharts-grid-line" d="M 567.5 99 L 567.5 341" opacity="1"></path></g><g class="highcharts-grid highcharts-yaxis-grid " data-z-index="1"><path fill="none" stroke="#e6e6e6" stroke-width="1" data-z-index="1" class="highcharts-grid-line" d="M 58 341.5 L 590 341.5" opacity="1"></path><path fill="none" stroke="#e6e6e6" stroke-width="1" data-z-index="1" class="highcharts-grid-line" d="M 58 293.5 L 590 293.5" opacity="1"></path><path fill="none" stroke="#e6e6e6" stroke-width="1" data-z-index="1" class="highcharts-grid-line" d="M 58 244.5 L 590 244.5" opacity="1"></path><path fill="none" stroke="#e6e6e6" stroke-width="1" data-z-index="1" class="highcharts-grid-line" d="M 58 196.5 L 590 196.5" opacity="1"></path><path fill="none" stroke="#e6e6e6" stroke-width="1" data-z-index="1" class="highcharts-grid-line" d="M 58 147.5 L 590 147.5" opacity="1"></path><path fill="none" stroke="#e6e6e6" stroke-width="1" data-z-index="1" class="highcharts-grid-line" d="M 58 98.5 L 590 98.5" opacity="1"></path></g><rect fill="none" class="highcharts-plot-border" data-z-index="1" x="58" y="99" width="532" height="242"></rect><g class="highcharts-axis highcharts-xaxis " data-z-index="2"><path fill="none" class="highcharts-tick" stroke="#ccd6eb" stroke-width="1" d="M 62.5 341 L 62.5 351" opacity="1"></path><path fill="none" class="highcharts-tick" stroke="#ccd6eb" stroke-width="1" d="M 146.5 341 L 146.5 351" opacity="1"></path><path fill="none" class="highcharts-tick" stroke="#ccd6eb" stroke-width="1" d="M 230.5 341 L 230.5 351" opacity="1"></path><path fill="none" class="highcharts-tick" stroke="#ccd6eb" stroke-width="1" d="M 315.5 341 L 315.5 351" opacity="1"></path><path fill="none" class="highcharts-tick" stroke="#ccd6eb" stroke-width="1" d="M 399.5 341 L 399.5 351" opacity="1"></path><path fill="none" class="highcharts-tick" stroke="#ccd6eb" stroke-width="1" d="M 483.5 341 L 483.5 351" opacity="1"></path><path fill="none" class="highcharts-tick" stroke="#ccd6eb" stroke-width="1" d="M 567.5 341 L 567.5 351" opacity="1"></path><text x="324" data-z-index="7" text-anchor="middle" transform="translate(0,0)" class="highcharts-axis-title" style="color:#666666;fill:#666666;" y="381"><tspan>Time Spent On Communication And Scheduling (h) over previous 7 days</tspan></text><path fill="none" class="highcharts-axis-line" stroke="#ccd6eb" stroke-width="1" data-z-index="7" d="M 58 341.5 L 590 341.5"></path></g><g class="highcharts-axis highcharts-yaxis " data-z-index="2"><text x="26" data-z-index="7" text-anchor="middle" transform="translate(0,0) rotate(270 26 220)" class="highcharts-axis-title" style="color:#666666;fill:#666666;" y="220"><tspan>Overall Mood (/5)</tspan></text><path fill="none" class="highcharts-axis-line" data-z-index="7" d="M 58 99 L 58 341"></path></g><g class="highcharts-series-group" data-z-index="3"><g data-z-index="0.1" class="highcharts-series highcharts-series-0 highcharts-scatter-series highcharts-color-0 " transform="translate(58,99) scale(1 1)" clip-path="url(#highcharts-h0jzef1-1344)"></g><g data-z-index="0.1" class="highcharts-markers highcharts-series-0 highcharts-scatter-series highcharts-color-0 " transform="translate(58,99) scale(1 1)" clip-path="none"><path fill="#000000" d="M 9 97 A 4 4 0 1 1 8.999998000000167 96.99600000066667 Z" class="highcharts-point highcharts-color-0"></path><path fill="#000000" d="M 9 97 A 4 4 0 1 1 8.999998000000167 96.99600000066667 Z" class="highcharts-point highcharts-color-0"></path><path fill="#000000" d="M 9 97 A 4 4 0 1 1 8.999998000000167 96.99600000066667 Z" class="highcharts-point highcharts-color-0"></path><path fill="#000000" d="M 9 97 A 4 4 0 1 1 8.999998000000167 96.99600000066667 Z" class="highcharts-point highcharts-color-0"></path><path fill="#000000" d="M 9 97 A 4 4 0 1 1 8.999998000000167 96.99600000066667 Z" class="highcharts-point highcharts-color-0"></path><path fill="#000000" d="M 9 97 A 4 4 0 1 1 8.999998000000167 96.99600000066667 Z" class="highcharts-point highcharts-color-0"></path><path fill="#000000" d="M 9 97 A 4 4 0 1 1 8.999998000000167 96.99600000066667 Z" class="highcharts-point highcharts-color-0"></path><path fill="#000000" d="M 9 97 A 4 4 0 1 1 8.999998000000167 96.99600000066667 Z" class="highcharts-point highcharts-color-0"></path><path fill="#000000" d="M 9 97 A 4 4 0 1 1 8.999998000000167 96.99600000066667 Z" class="highcharts-point highcharts-color-0"></path><path fill="#000000" d="M 9 97 A 4 4 0 1 1 8.999998000000167 96.99600000066667 Z" class="highcharts-point highcharts-color-0"></path><path fill="#000000" d="M 9 97 A 4 4 0 1 1 8.999998000000167 96.99600000066667 Z" class="highcharts-point highcharts-color-0"></path><path fill="#000000" d="M 9 97 A 4 4 0 1 1 8.999998000000167 96.99600000066667 Z" class="highcharts-point highcharts-color-0"></path><path fill="#000000" d="M 9 97 A 4 4 0 1 1 8.999998000000167 96.99600000066667 Z" class="highcharts-point highcharts-color-0"></path><path fill="#000000" d="M 9 97 A 4 4 0 1 1 8.999998000000167 96.99600000066667 Z" class="highcharts-point highcharts-color-0"></path><path fill="#000000" d="M 9 97 A 4 4 0 1 1 8.999998000000167 96.99600000066667 Z" class="highcharts-point highcharts-color-0"></path><path fill="#000000" d="M 9 97 A 4 4 0 1 1 8.999998000000167 96.99600000066667 Z" class="highcharts-point highcharts-color-0"></path><path fill="#000000" d="M 9 97 A 4 4 0 1 1 8.999998000000167 96.99600000066667 Z" class="highcharts-point highcharts-color-0"></path><path fill="#000000" d="M 283 97 A 4 4 0 1 1 282.9999980000002 96.99600000066667 Z" class="highcharts-point highcharts-color-0"></path><path fill="#000000" d="M 283 97 A 4 4 0 1 1 282.9999980000002 96.99600000066667 Z" class="highcharts-point highcharts-color-0"></path><path fill="#000000" d="M 417 97 A 4 4 0 1 1 416.9999980000002 96.99600000066667 Z" class="highcharts-point highcharts-color-0"></path><path fill="#000000" d="M 451 48 A 4 4 0 1 1 450.9999980000002 47.99600000066666 Z" class="highcharts-point highcharts-color-0"></path><path fill="#000000" d="M 451 97 A 4 4 0 1 1 450.9999980000002 96.99600000066667 Z" class="highcharts-point highcharts-color-0"></path><path fill="#000000" d="M 454 48 A 4 4 0 1 1 453.9999980000002 47.99600000066666 Z" class="highcharts-point highcharts-color-0"></path><path fill="#000000" d="M 485 97 A 4 4 0 1 1 484.9999980000002 96.99600000066667 Z" class="highcharts-point highcharts-color-0"></path><path fill="#000000" d="M 485 194 A 4 4 0 1 1 484.9999980000002 193.99600000066667 Z" class="highcharts-point highcharts-color-0"></path><path fill="#000000" d="M 485 145 A 4 4 0 1 1 484.9999980000002 144.99600000066667 Z" class="highcharts-point highcharts-color-0"></path><path fill="#000000" d="M 506 113 A 4 4 0 1 1 505.9999980000002 112.99600000066667 Z" class="highcharts-point highcharts-color-0"></path><path fill="#000000" d="M 502 129 A 4 4 0 1 1 501.9999980000002 128.99600000066667 Z" class="highcharts-point highcharts-color-0"></path><path fill="#000000" d="M 504 134 A 4 4 0 1 1 503.9999980000002 133.99600000066667 Z" class="highcharts-point highcharts-color-0"></path><path fill="#000000" d="M 505 140 A 4 4 0 1 1 504.9999980000002 139.99600000066667 Z" class="highcharts-point highcharts-color-0"></path><path fill="#000000" d="M 486 97 A 4 4 0 1 1 485.9999980000002 96.99600000066667 Z" class="highcharts-point highcharts-color-0"></path><path fill="#000000" d="M 312 97 A 4 4 0 1 1 311.9999980000002 96.99600000066667 Z" class="highcharts-point highcharts-color-0"></path><path fill="#000000" d="M 313 97 A 4 4 0 1 1 312.9999980000002 96.99600000066667 Z" class="highcharts-point highcharts-color-0"></path><path fill="#000000" d="M 342 102 A 4 4 0 1 1 341.9999980000002 101.99600000066667 Z" class="highcharts-point highcharts-color-0"></path><path fill="#000000" d="M 307 102 A 4 4 0 1 1 306.9999980000002 101.99600000066667 Z" class="highcharts-point highcharts-color-0"></path><path fill="#000000" d="M 292 97 A 4 4 0 1 1 291.9999980000002 96.99600000066667 Z" class="highcharts-point highcharts-color-0"></path><path fill="#000000" d="M 285 97 A 4 4 0 1 1 284.9999980000002 96.99600000066667 Z" class="highcharts-point highcharts-color-0"></path><path fill="#000000" d="M 356 97 A 4 4 0 1 1 355.9999980000002 96.99600000066667 Z" class="highcharts-point highcharts-color-0"></path><path fill="#000000" d="M 424 97 A 4 4 0 1 1 423.9999980000002 96.99600000066667 Z" class="highcharts-point highcharts-color-0"></path><path fill="#000000" d="M 390 97 A 4 4 0 1 1 389.9999980000002 96.99600000066667 Z" class="highcharts-point highcharts-color-0"></path><path fill="#000000" d="M 353 97 A 4 4 0 1 1 352.9999980000002 96.99600000066667 Z" class="highcharts-point highcharts-color-0"></path><path fill="#000000" d="M 391 97 A 4 4 0 1 1 390.9999980000002 96.99600000066667 Z" class="highcharts-point highcharts-color-0"></path><path fill="#000000" d="M 387 97 A 4 4 0 1 1 386.9999980000002 96.99600000066667 Z" class="highcharts-point highcharts-color-0"></path><path fill="#000000" d="M 426 116 A 4 4 0 1 1 425.9999980000002 115.99600000066667 Z" class="highcharts-point highcharts-color-0"></path><path fill="#000000" d="M 359 97 A 4 4 0 1 1 358.9999980000002 96.99600000066667 Z" class="highcharts-point highcharts-color-0"></path><path fill="#000000" d="M 266 97 A 4 4 0 1 1 265.9999980000002 96.99600000066667 Z" class="highcharts-point highcharts-color-0"></path><path fill="#000000" d="M 292 97 A 4 4 0 1 1 291.9999980000002 96.99600000066667 Z" class="highcharts-point highcharts-color-0"></path><path fill="#000000" d="M 297 97 A 4 4 0 1 1 296.9999980000002 96.99600000066667 Z" class="highcharts-point highcharts-color-0"></path><path fill="#000000" d="M 309 97 A 4 4 0 1 1 308.9999980000002 96.99600000066667 Z" class="highcharts-point highcharts-color-0"></path><path fill="#000000" d="M 260 97 A 4 4 0 1 1 259.9999980000002 96.99600000066667 Z" class="highcharts-point highcharts-color-0"></path><path fill="#000000" d="M 260 111 A 4 4 0 1 1 259.9999980000002 110.99600000066667 Z" class="highcharts-point highcharts-color-0"></path><path fill="#000000" d="M 308 97 A 4 4 0 1 1 307.9999980000002 96.99600000066667 Z" class="highcharts-point highcharts-color-0"></path><path fill="#000000" d="M 287 97 A 4 4 0 1 1 286.9999980000002 96.99600000066667 Z" class="highcharts-point highcharts-color-0"></path><path fill="#000000" d="M 302 97 A 4 4 0 1 1 301.9999980000002 96.99600000066667 Z" class="highcharts-point highcharts-color-0"></path><path fill="#000000" d="M 241 97 A 4 4 0 1 1 240.99999800000018 96.99600000066667 Z" class="highcharts-point highcharts-color-0"></path><path fill="#000000" d="M 251 97 A 4 4 0 1 1 250.99999800000018 96.99600000066667 Z" class="highcharts-point highcharts-color-0"></path><path fill="#000000" d="M 257 97 A 4 4 0 1 1 256.9999980000002 96.99600000066667 Z" class="highcharts-point highcharts-color-0"></path><path fill="#000000" d="M 230 97 A 4 4 0 1 1 229.99999800000018 96.99600000066667 Z" class="highcharts-point highcharts-color-0"></path><path fill="#000000" d="M 238 97 A 4 4 0 1 1 237.99999800000018 96.99600000066667 Z" class="highcharts-point highcharts-color-0"></path><path fill="#000000" d="M 238 97 A 4 4 0 1 1 237.99999800000018 96.99600000066667 Z" class="highcharts-point highcharts-color-0"></path><path fill="#000000" d="M 373 97 A 4 4 0 1 1 372.9999980000002 96.99600000066667 Z" class="highcharts-point highcharts-color-0"></path><path fill="#000000" d="M 397 97 A 4 4 0 1 1 396.9999980000002 96.99600000066667 Z" class="highcharts-point highcharts-color-0"></path><path fill="#000000" d="M 397 97 A 4 4 0 1 1 396.9999980000002 96.99600000066667 Z" class="highcharts-point highcharts-color-0"></path><path fill="#000000" d="M 401 97 A 4 4 0 1 1 400.9999980000002 96.99600000066667 Z" class="highcharts-point highcharts-color-0"></path><path fill="#000000" d="M 421 97 A 4 4 0 1 1 420.9999980000002 96.99600000066667 Z" class="highcharts-point highcharts-color-0"></path><path fill="#000000" d="M 438 97 A 4 4 0 1 1 437.9999980000002 96.99600000066667 Z" class="highcharts-point highcharts-color-0"></path><path fill="#000000" d="M 383 97 A 4 4 0 1 1 382.9999980000002 96.99600000066667 Z" class="highcharts-point highcharts-color-0"></path><path fill="#000000" d="M 326 97 A 4 4 0 1 1 325.9999980000002 96.99600000066667 Z" class="highcharts-point highcharts-color-0"></path><path fill="#000000" d="M 306 97 A 4 4 0 1 1 305.9999980000002 96.99600000066667 Z" class="highcharts-point highcharts-color-0"></path><path fill="#000000" d="M 299 97 A 4 4 0 1 1 298.9999980000002 96.99600000066667 Z" class="highcharts-point highcharts-color-0"></path><path fill="#000000" d="M 316 113 A 4 4 0 1 1 315.9999980000002 112.99600000066667 Z" class="highcharts-point highcharts-color-0"></path><path fill="#000000" d="M 234 97 A 4 4 0 1 1 233.99999800000018 96.99600000066667 Z" class="highcharts-point highcharts-color-0"></path><path fill="#000000" d="M 211 97 A 4 4 0 1 1 210.99999800000018 96.99600000066667 Z" class="highcharts-point highcharts-color-0"></path><path fill="#000000" d="M 211 97 A 4 4 0 1 1 210.99999800000018 96.99600000066667 Z" class="highcharts-point highcharts-color-0"></path><path fill="#000000" d="M 198 97 A 4 4 0 1 1 197.99999800000018 96.99600000066667 Z" class="highcharts-point highcharts-color-0"></path><path fill="#000000" d="M 185 97 A 4 4 0 1 1 184.99999800000018 96.99600000066667 Z" class="highcharts-point highcharts-color-0"></path><path fill="#000000" d="M 206 97 A 4 4 0 1 1 205.99999800000018 96.99600000066667 Z" class="highcharts-point highcharts-color-0"></path><path fill="#000000" d="M 153 97 A 4 4 0 1 1 152.99999800000018 96.99600000066667 Z" class="highcharts-point highcharts-color-0"></path><path fill="#000000" d="M 178 97 A 4 4 0 1 1 177.99999800000018 96.99600000066667 Z" class="highcharts-point highcharts-color-0"></path><path fill="#000000" d="M 182 99 A 4 4 0 1 1 181.99999800000018 98.99600000066667 Z" class="highcharts-point highcharts-color-0"></path><path fill="#000000" d="M 193 97 A 4 4 0 1 1 192.99999800000018 96.99600000066667 Z" class="highcharts-point highcharts-color-0"></path><path fill="#000000" d="M 204 97 A 4 4 0 1 1 203.99999800000018 96.99600000066667 Z" class="highcharts-point highcharts-color-0"></path><path fill="#000000" d="M 246 97 A 4 4 0 1 1 245.99999800000018 96.99600000066667 Z" class="highcharts-point highcharts-color-0"></path><path fill="#000000" d="M 298 97 A 4 4 0 1 1 297.9999980000002 96.99600000066667 Z" class="highcharts-point highcharts-color-0"></path><path fill="#000000" d="M 340 136 A 4 4 0 1 1 339.9999980000002 135.99600000066667 Z" class="highcharts-point highcharts-color-0"></path><path fill="#000000" d="M 318 127 A 4 4 0 1 1 317.9999980000002 126.99600000066667 Z" class="highcharts-point highcharts-color-0"></path><path fill="#000000" d="M 306 97 A 4 4 0 1 1 305.9999980000002 96.99600000066667 Z" class="highcharts-point highcharts-color-0"></path><path fill="#000000" d="M 336 97 A 4 4 0 1 1 335.9999980000002 96.99600000066667 Z" class="highcharts-point highcharts-color-0"></path><path fill="#000000" d="M 316 97 A 4 4 0 1 1 315.9999980000002 96.99600000066667 Z" class="highcharts-point highcharts-color-0"></path><path fill="#000000" d="M 274 106 A 4 4 0 1 1 273.9999980000002 105.99600000066667 Z" class="highcharts-point highcharts-color-0"></path><path fill="#000000" d="M 192 145 A 4 4 0 1 1 191.99999800000018 144.99600000066667 Z" class="highcharts-point highcharts-color-0"></path><path fill="#000000" d="M 161 97 A 4 4 0 1 1 160.99999800000018 96.99600000066667 Z" class="highcharts-point highcharts-color-0"></path><path fill="#000000" d="M 131 97 A 4 4 0 1 1 130.99999800000018 96.99600000066667 Z" class="highcharts-point highcharts-color-0"></path><path fill="#000000" d="M 130 97 A 4 4 0 1 1 129.99999800000018 96.99600000066667 Z" class="highcharts-point highcharts-color-0"></path><path fill="#000000" d="M 166 97 A 4 4 0 1 1 165.99999800000018 96.99600000066667 Z" class="highcharts-point highcharts-color-0"></path><path fill="#000000" d="M 180 97 A 4 4 0 1 1 179.99999800000018 96.99600000066667 Z" class="highcharts-point highcharts-color-0"></path><path fill="#000000" d="M 197 91 A 4 4 0 1 1 196.99999800000018 90.99600000066667 Z" class="highcharts-point highcharts-color-0"></path><path fill="#000000" d="M 197 97 A 4 4 0 1 1 196.99999800000018 96.99600000066667 Z" class="highcharts-point highcharts-color-0"></path><path fill="#000000" d="M 182 145 A 4 4 0 1 1 181.99999800000018 144.99600000066667 Z" class="highcharts-point highcharts-color-0"></path><path fill="#000000" d="M 182 129 A 4 4 0 1 1 181.99999800000018 128.99600000066667 Z" class="highcharts-point highcharts-color-0"></path><path fill="#000000" d="M 145 121 A 4 4 0 1 1 144.99999800000018 120.99600000066667 Z" class="highcharts-point highcharts-color-0"></path><path fill="#000000" d="M 92 97 A 4 4 0 1 1 91.99999800000016 96.99600000066667 Z" class="highcharts-point highcharts-color-0"></path><path fill="#000000" d="M 63 97 A 4 4 0 1 1 62.99999800000017 96.99600000066667 Z" class="highcharts-point highcharts-color-0"></path><path fill="#000000" d="M 32 97 A 4 4 0 1 1 31.99999800000017 96.99600000066667 Z" class="highcharts-point highcharts-color-0"></path><path fill="#000000" d="M 26 97 A 4 4 0 1 1 25.99999800000017 96.99600000066667 Z" class="highcharts-point highcharts-color-0"></path><path fill="#000000" d="M 20 97 A 4 4 0 1 1 19.99999800000017 96.99600000066667 Z" class="highcharts-point highcharts-color-0"></path><path fill="#000000" d="M 9 97 A 4 4 0 1 1 8.999998000000167 96.99600000066667 Z" class="highcharts-point highcharts-color-0"></path><path fill="#000000" d="M 9 97 A 4 4 0 1 1 8.999998000000167 96.99600000066667 Z" class="highcharts-point highcharts-color-0"></path><path fill="#000000" d="M 9 97 A 4 4 0 1 1 8.999998000000167 96.99600000066667 Z" class="highcharts-point highcharts-color-0"></path><path fill="#000000" d="M 9 97 A 4 4 0 1 1 8.999998000000167 96.99600000066667 Z" class="highcharts-point highcharts-color-0"></path><path fill="#000000" d="M 9 97 A 4 4 0 1 1 8.999998000000167 96.99600000066667 Z" class="highcharts-point highcharts-color-0"></path><path fill="#000000" d="M 9 97 A 4 4 0 1 1 8.999998000000167 96.99600000066667 Z" class="highcharts-point highcharts-color-0"></path><path fill="#000000" d="M 9 104 A 4 4 0 1 1 8.999998000000167 103.99600000066667 Z" class="highcharts-point highcharts-color-0"></path><path fill="#000000" d="M 9 97 A 4 4 0 1 1 8.999998000000167 96.99600000066667 Z" class="highcharts-point highcharts-color-0"></path><path fill="#000000" d="M 9 97 A 4 4 0 1 1 8.999998000000167 96.99600000066667 Z" class="highcharts-point highcharts-color-0"></path><path fill="#000000" d="M 9 97 A 4 4 0 1 1 8.999998000000167 96.99600000066667 Z" class="highcharts-point highcharts-color-0"></path><path fill="#000000" d="M 9 97 A 4 4 0 1 1 8.999998000000167 96.99600000066667 Z" class="highcharts-point highcharts-color-0"></path><path fill="#000000" d="M 9 97 A 4 4 0 1 1 8.999998000000167 96.99600000066667 Z" class="highcharts-point highcharts-color-0"></path><path fill="#000000" d="M 9 97 A 4 4 0 1 1 8.999998000000167 96.99600000066667 Z" class="highcharts-point highcharts-color-0"></path><path fill="#000000" d="M 9 97 A 4 4 0 1 1 8.999998000000167 96.99600000066667 Z" class="highcharts-point highcharts-color-0"></path><path fill="#000000" d="M 9 97 A 4 4 0 1 1 8.999998000000167 96.99600000066667 Z" class="highcharts-point highcharts-color-0"></path><path fill="#000000" d="M 9 97 A 4 4 0 1 1 8.999998000000167 96.99600000066667 Z" class="highcharts-point highcharts-color-0"></path><path fill="#000000" d="M 9 97 A 4 4 0 1 1 8.999998000000167 96.99600000066667 Z" class="highcharts-point highcharts-color-0"></path><path fill="#000000" d="M 9 99 A 4 4 0 1 1 8.999998000000167 98.99600000066667 Z" class="highcharts-point highcharts-color-0"></path><path fill="#000000" d="M 9 97 A 4 4 0 1 1 8.999998000000167 96.99600000066667 Z" class="highcharts-point highcharts-color-0"></path><path fill="#000000" d="M 9 97 A 4 4 0 1 1 8.999998000000167 96.99600000066667 Z" class="highcharts-point highcharts-color-0"></path><path fill="#000000" d="M 9 97 A 4 4 0 1 1 8.999998000000167 96.99600000066667 Z" class="highcharts-point highcharts-color-0"></path><path fill="#000000" d="M 9 99 A 4 4 0 1 1 8.999998000000167 98.99600000066667 Z" class="highcharts-point highcharts-color-0"></path><path fill="#000000" d="M 9 127 A 4 4 0 1 1 8.999998000000167 126.99600000066667 Z" class="highcharts-point highcharts-color-0"></path><path fill="#000000" d="M 9 137 A 4 4 0 1 1 8.999998000000167 136.99600000066667 Z" class="highcharts-point highcharts-color-0"></path><path fill="#000000" d="M 9 97 A 4 4 0 1 1 8.999998000000167 96.99600000066667 Z" class="highcharts-point highcharts-color-0"></path><path fill="#000000" d="M 9 97 A 4 4 0 1 1 8.999998000000167 96.99600000066667 Z" class="highcharts-point highcharts-color-0"></path><path fill="#000000" d="M 9 112 A 4 4 0 1 1 8.999998000000167 111.99600000066667 Z" class="highcharts-point highcharts-color-0"></path><path fill="#000000" d="M 9 100 A 4 4 0 1 1 8.999998000000167 99.99600000066667 Z" class="highcharts-point highcharts-color-0"></path><path fill="#000000" d="M 9 116 A 4 4 0 1 1 8.999998000000167 115.99600000066667 Z" class="highcharts-point highcharts-color-0"></path><path fill="#000000" d="M 9 105 A 4 4 0 1 1 8.999998000000167 104.99600000066667 Z" class="highcharts-point highcharts-color-0"></path><path fill="#000000" d="M 9 105 A 4 4 0 1 1 8.999998000000167 104.99600000066667 Z" class="highcharts-point highcharts-color-0"></path><path fill="#000000" d="M 9 105 A 4 4 0 1 1 8.999998000000167 104.99600000066667 Z" class="highcharts-point highcharts-color-0"></path><path fill="#000000" d="M 9 116 A 4 4 0 1 1 8.999998000000167 115.99600000066667 Z" class="highcharts-point highcharts-color-0"></path><path fill="#000000" d="M 9 119 A 4 4 0 1 1 8.999998000000167 118.99600000066667 Z" class="highcharts-point highcharts-color-0"></path><path fill="#000000" d="M 9 103 A 4 4 0 1 1 8.999998000000167 102.99600000066667 Z" class="highcharts-point highcharts-color-0"></path><path fill="#000000" d="M 9 97 A 4 4 0 1 1 8.999998000000167 96.99600000066667 Z" class="highcharts-point highcharts-color-0"></path><path fill="#000000" d="M 9 97 A 4 4 0 1 1 8.999998000000167 96.99600000066667 Z" class="highcharts-point highcharts-color-0"></path><path fill="#000000" d="M 9 97 A 4 4 0 1 1 8.999998000000167 96.99600000066667 Z" class="highcharts-point highcharts-color-0"></path><path fill="#000000" d="M 9 105 A 4 4 0 1 1 8.999998000000167 104.99600000066667 Z" class="highcharts-point highcharts-color-0"></path><path fill="#000000" d="M 9 112 A 4 4 0 1 1 8.999998000000167 111.99600000066667 Z" class="highcharts-point highcharts-color-0"></path><path fill="#000000" d="M 9 97 A 4 4 0 1 1 8.999998000000167 96.99600000066667 Z" class="highcharts-point highcharts-color-0"></path><path fill="#000000" d="M 9 101 A 4 4 0 1 1 8.999998000000167 100.99600000066667 Z" class="highcharts-point highcharts-color-0"></path><path fill="#000000" d="M 9 111 A 4 4 0 1 1 8.999998000000167 110.99600000066667 Z" class="highcharts-point highcharts-color-0"></path><path fill="#000000" d="M 9 97 A 4 4 0 1 1 8.999998000000167 96.99600000066667 Z" class="highcharts-point highcharts-color-0"></path><path fill="#000000" d="M 9 97 A 4 4 0 1 1 8.999998000000167 96.99600000066667 Z" class="highcharts-point highcharts-color-0"></path><path fill="#000000" d="M 9 126 A 4 4 0 1 1 8.999998000000167 125.99600000066667 Z" class="highcharts-point highcharts-color-0"></path><path fill="#000000" d="M 9 141 A 4 4 0 1 1 8.999998000000167 140.99600000066667 Z" class="highcharts-point highcharts-color-0"></path><path fill="#000000" d="M 9 104 A 4 4 0 1 1 8.999998000000167 103.99600000066667 Z" class="highcharts-point highcharts-color-0"></path><path fill="#000000" d="M 9 101 A 4 4 0 1 1 8.999998000000167 100.99600000066667 Z" class="highcharts-point highcharts-color-0"></path><path fill="#000000" d="M 9 97 A 4 4 0 1 1 8.999998000000167 96.99600000066667 Z" class="highcharts-point highcharts-color-0"></path><path fill="#000000" d="M 9 97 A 4 4 0 1 1 8.999998000000167 96.99600000066667 Z" class="highcharts-point highcharts-color-0"></path><path fill="#000000" d="M 9 97 A 4 4 0 1 1 8.999998000000167 96.99600000066667 Z" class="highcharts-point highcharts-color-0"></path><path fill="#000000" d="M 9 97 A 4 4 0 1 1 8.999998000000167 96.99600000066667 Z" class="highcharts-point highcharts-color-0"></path><path fill="#000000" d="M 9 97 A 4 4 0 1 1 8.999998000000167 96.99600000066667 Z" class="highcharts-point highcharts-color-0"></path><path fill="#000000" d="M 9 97 A 4 4 0 1 1 8.999998000000167 96.99600000066667 Z" class="highcharts-point highcharts-color-0"></path><path fill="#000000" d="M 9 97 A 4 4 0 1 1 8.999998000000167 96.99600000066667 Z" class="highcharts-point highcharts-color-0"></path><path fill="#000000" d="M 9 102 A 4 4 0 1 1 8.999998000000167 101.99600000066667 Z" class="highcharts-point highcharts-color-0"></path><path fill="#000000" d="M 9 97 A 4 4 0 1 1 8.999998000000167 96.99600000066667 Z" class="highcharts-point highcharts-color-0"></path><path fill="#000000" d="M 9 97 A 4 4 0 1 1 8.999998000000167 96.99600000066667 Z" class="highcharts-point highcharts-color-0"></path><path fill="#000000" d="M 9 87 A 4 4 0 1 1 8.999998000000167 86.99600000066667 Z" class="highcharts-point highcharts-color-0"></path><path fill="#000000" d="M 21 97 A 4 4 0 1 1 20.99999800000017 96.99600000066667 Z" class="highcharts-point highcharts-color-0"></path><path fill="#000000" d="M 102 97 A 4 4 0 1 1 101.99999800000016 96.99600000066667 Z" class="highcharts-point highcharts-color-0"></path><path fill="#000000" d="M 135 102 A 4 4 0 1 1 134.99999800000018 101.99600000066667 Z" class="highcharts-point highcharts-color-0"></path><path fill="#000000" d="M 165 97 A 4 4 0 1 1 164.99999800000018 96.99600000066667 Z" class="highcharts-point highcharts-color-0"></path><path fill="#000000" d="M 211 97 A 4 4 0 1 1 210.99999800000018 96.99600000066667 Z" class="highcharts-point highcharts-color-0"></path><path fill="#000000" d="M 248 97 A 4 4 0 1 1 247.99999800000018 96.99600000066667 Z" class="highcharts-point highcharts-color-0"></path><path fill="#000000" d="M 277 97 A 4 4 0 1 1 276.9999980000002 96.99600000066667 Z" class="highcharts-point highcharts-color-0"></path><path fill="#000000" d="M 293 97 A 4 4 0 1 1 292.9999980000002 96.99600000066667 Z" class="highcharts-point highcharts-color-0"></path><path fill="#000000" d="M 242 97 A 4 4 0 1 1 241.99999800000018 96.99600000066667 Z" class="highcharts-point highcharts-color-0"></path><path fill="#000000" d="M 239 97 A 4 4 0 1 1 238.99999800000018 96.99600000066667 Z" class="highcharts-point highcharts-color-0"></path><path fill="#000000" d="M 269 97 A 4 4 0 1 1 268.9999980000002 96.99600000066667 Z" class="highcharts-point highcharts-color-0"></path><path fill="#000000" d="M 254 97 A 4 4 0 1 1 253.99999800000018 96.99600000066667 Z" class="highcharts-point highcharts-color-0"></path><path fill="#000000" d="M 276 108 A 4 4 0 1 1 275.9999980000002 107.99600000066667 Z" class="highcharts-point highcharts-color-0"></path><path fill="#000000" d="M 285 97 A 4 4 0 1 1 284.9999980000002 96.99600000066667 Z" class="highcharts-point highcharts-color-0"></path><path fill="#000000" d="M 316 97 A 4 4 0 1 1 315.9999980000002 96.99600000066667 Z" class="highcharts-point highcharts-color-0"></path><path fill="#000000" d="M 328 124 A 4 4 0 1 1 327.9999980000002 123.99600000066667 Z" class="highcharts-point highcharts-color-0"></path><path fill="#000000" d="M 332 106 A 4 4 0 1 1 331.9999980000002 105.99600000066667 Z" class="highcharts-point highcharts-color-0"></path><path fill="#000000" d="M 292 134 A 4 4 0 1 1 291.9999980000002 133.99600000066667 Z" class="highcharts-point highcharts-color-0"></path><path fill="#000000" d="M 289 108 A 4 4 0 1 1 288.9999980000002 107.99600000066667 Z" class="highcharts-point highcharts-color-0"></path><path fill="#000000" d="M 280 97 A 4 4 0 1 1 279.9999980000002 96.99600000066667 Z" class="highcharts-point highcharts-color-0"></path><path fill="#000000" d="M 269 97 A 4 4 0 1 1 268.9999980000002 96.99600000066667 Z" class="highcharts-point highcharts-color-0"></path><path fill="#000000" d="M 210 97 A 4 4 0 1 1 209.99999800000018 96.99600000066667 Z" class="highcharts-point highcharts-color-0"></path><path fill="#000000" d="M 194 97 A 4 4 0 1 1 193.99999800000018 96.99600000066667 Z" class="highcharts-point highcharts-color-0"></path><path fill="#000000" d="M 285 97 A 4 4 0 1 1 284.9999980000002 96.99600000066667 Z" class="highcharts-point highcharts-color-0"></path><path fill="#000000" d="M 339 113 A 4 4 0 1 1 338.9999980000002 112.99600000066667 Z" class="highcharts-point highcharts-color-0"></path><path fill="#000000" d="M 365 118 A 4 4 0 1 1 364.9999980000002 117.99600000066667 Z" class="highcharts-point highcharts-color-0"></path><path fill="#000000" d="M 346 103 A 4 4 0 1 1 345.9999980000002 102.99600000066667 Z" class="highcharts-point highcharts-color-0"></path><path fill="#000000" d="M 375 97 A 4 4 0 1 1 374.9999980000002 96.99600000066667 Z" class="highcharts-point highcharts-color-0"></path><path fill="#000000" d="M 389 108 A 4 4 0 1 1 388.9999980000002 107.99600000066667 Z" class="highcharts-point highcharts-color-0"></path><path fill="#000000" d="M 381 116 A 4 4 0 1 1 380.9999980000002 115.99600000066667 Z" class="highcharts-point highcharts-color-0"></path><path fill="#000000" d="M 285 116 A 4 4 0 1 1 284.9999980000002 115.99600000066667 Z" class="highcharts-point highcharts-color-0"></path><path fill="#000000" d="M 241 109 A 4 4 0 1 1 240.99999800000018 108.99600000066667 Z" class="highcharts-point highcharts-color-0"></path><path fill="#000000" d="M 286 97 A 4 4 0 1 1 285.9999980000002 96.99600000066667 Z" class="highcharts-point highcharts-color-0"></path><path fill="#000000" d="M 371 109 A 4 4 0 1 1 370.9999980000002 108.99600000066667 Z" class="highcharts-point highcharts-color-0"></path><path fill="#000000" d="M 341 126 A 4 4 0 1 1 340.9999980000002 125.99600000066667 Z" class="highcharts-point highcharts-color-0"></path><path fill="#000000" d="M 351 118 A 4 4 0 1 1 350.9999980000002 117.99600000066667 Z" class="highcharts-point highcharts-color-0"></path><path fill="#000000" d="M 354 97 A 4 4 0 1 1 353.9999980000002 96.99600000066667 Z" class="highcharts-point highcharts-color-0"></path><path fill="#000000" d="M 414 97 A 4 4 0 1 1 413.9999980000002 96.99600000066667 Z" class="highcharts-point highcharts-color-0"></path><path fill="#000000" d="M 421 103 A 4 4 0 1 1 420.9999980000002 102.99600000066667 Z" class="highcharts-point highcharts-color-0"></path><path fill="#000000" d="M 341 113 A 4 4 0 1 1 340.9999980000002 112.99600000066667 Z" class="highcharts-point highcharts-color-0"></path><path fill="#000000" d="M 280 126 A 4 4 0 1 1 279.9999980000002 125.99600000066667 Z" class="highcharts-point highcharts-color-0"></path><path fill="#000000" d="M 288 138 A 4 4 0 1 1 287.9999980000002 137.99600000066667 Z" class="highcharts-point highcharts-color-0"></path><path fill="#000000" d="M 311 101 A 4 4 0 1 1 310.9999980000002 100.99600000066667 Z" class="highcharts-point highcharts-color-0"></path><path fill="#000000" d="M 315 121 A 4 4 0 1 1 314.9999980000002 120.99600000066667 Z" class="highcharts-point highcharts-color-0"></path><path fill="#000000" d="M 242 145 A 4 4 0 1 1 241.99999800000018 144.99600000066667 Z" class="highcharts-point highcharts-color-0"></path><path fill="#000000" d="M 273 145 A 4 4 0 1 1 272.9999980000002 144.99600000066667 Z" class="highcharts-point highcharts-color-0"></path><path fill="#000000" d="M 342 106 A 4 4 0 1 1 341.9999980000002 105.99600000066667 Z" class="highcharts-point highcharts-color-0"></path><path fill="#000000" d="M 392 108 A 4 4 0 1 1 391.9999980000002 107.99600000066667 Z" class="highcharts-point highcharts-color-0"></path><path fill="#000000" d="M 465 97 A 4 4 0 1 1 464.9999980000002 96.99600000066667 Z" class="highcharts-point highcharts-color-0"></path><path fill="#000000" d="M 430 113 A 4 4 0 1 1 429.9999980000002 112.99600000066667 Z" class="highcharts-point highcharts-color-0"></path><path fill="#000000" d="M 416 97 A 4 4 0 1 1 415.9999980000002 96.99600000066667 Z" class="highcharts-point highcharts-color-0"></path><path fill="#000000" d="M 399 113 A 4 4 0 1 1 398.9999980000002 112.99600000066667 Z" class="highcharts-point highcharts-color-0"></path><path fill="#000000" d="M 331 97 A 4 4 0 1 1 330.9999980000002 96.99600000066667 Z" class="highcharts-point highcharts-color-0"></path><path fill="#000000" d="M 244 97 A 4 4 0 1 1 243.99999800000018 96.99600000066667 Z" class="highcharts-point highcharts-color-0"></path><path fill="#000000" d="M 139 97 A 4 4 0 1 1 138.99999800000018 96.99600000066667 Z" class="highcharts-point highcharts-color-0"></path><path fill="#000000" d="M 32 97 A 4 4 0 1 1 31.99999800000017 96.99600000066667 Z" class="highcharts-point highcharts-color-0"></path><path fill="#000000" d="M 20 100 A 4 4 0 1 1 19.99999800000017 99.99600000066667 Z" class="highcharts-point highcharts-color-0"></path><path fill="#000000" d="M 9 97 A 4 4 0 1 1 8.999998000000167 96.99600000066667 Z" class="highcharts-point highcharts-color-0"></path><path fill="#000000" d="M 9 97 A 4 4 0 1 1 8.999998000000167 96.99600000066667 Z" class="highcharts-point highcharts-color-0"></path><path fill="#000000" d="M 9 113 A 4 4 0 1 1 8.999998000000167 112.99600000066667 Z" class="highcharts-point highcharts-color-0"></path><path fill="#000000" d="M 9 109 A 4 4 0 1 1 8.999998000000167 108.99600000066667 Z" class="highcharts-point highcharts-color-0"></path><path fill="#000000" d="M 9 104 A 4 4 0 1 1 8.999998000000167 103.99600000066667 Z" class="highcharts-point highcharts-color-0"></path><path fill="#000000" d="M 9 97 A 4 4 0 1 1 8.999998000000167 96.99600000066667 Z" class="highcharts-point highcharts-color-0"></path><path fill="#000000" d="M 9 97 A 4 4 0 1 1 8.999998000000167 96.99600000066667 Z" class="highcharts-point highcharts-color-0"></path><path fill="#000000" d="M 9 113 A 4 4 0 1 1 8.999998000000167 112.99600000066667 Z" class="highcharts-point highcharts-color-0"></path><path fill="#000000" d="M 9 136 A 4 4 0 1 1 8.999998000000167 135.99600000066667 Z" class="highcharts-point highcharts-color-0"></path><path fill="#000000" d="M 9 106 A 4 4 0 1 1 8.999998000000167 105.99600000066667 Z" class="highcharts-point highcharts-color-0"></path><path fill="#000000" d="M 9 116 A 4 4 0 1 1 8.999998000000167 115.99600000066667 Z" class="highcharts-point highcharts-color-0"></path><path fill="#000000" d="M 9 97 A 4 4 0 1 1 8.999998000000167 96.99600000066667 Z" class="highcharts-point highcharts-color-0"></path><path fill="#000000" d="M 9 97 A 4 4 0 1 1 8.999998000000167 96.99600000066667 Z" class="highcharts-point highcharts-color-0"></path><path fill="#000000" d="M 9 109 A 4 4 0 1 1 8.999998000000167 108.99600000066667 Z" class="highcharts-point highcharts-color-0"></path><path fill="#000000" d="M 9 102 A 4 4 0 1 1 8.999998000000167 101.99600000066667 Z" class="highcharts-point highcharts-color-0"></path><path fill="#000000" d="M 9 105 A 4 4 0 1 1 8.999998000000167 104.99600000066667 Z" class="highcharts-point highcharts-color-0"></path><path fill="#000000" d="M 9 97 A 4 4 0 1 1 8.999998000000167 96.99600000066667 Z" class="highcharts-point highcharts-color-0"></path><path fill="#000000" d="M 9 103 A 4 4 0 1 1 8.999998000000167 102.99600000066667 Z" class="highcharts-point highcharts-color-0"></path><path fill="#000000" d="M 9 97 A 4 4 0 1 1 8.999998000000167 96.99600000066667 Z" class="highcharts-point highcharts-color-0"></path><path fill="#000000" d="M 9 97 A 4 4 0 1 1 8.999998000000167 96.99600000066667 Z" class="highcharts-point highcharts-color-0"></path><path fill="#000000" d="M 9 97 A 4 4 0 1 1 8.999998000000167 96.99600000066667 Z" class="highcharts-point highcharts-color-0"></path><path fill="#000000" d="M 47 89 A 4 4 0 1 1 46.99999800000017 88.99600000066667 Z" class="highcharts-point highcharts-color-0"></path><path fill="#000000" d="M 126 97 A 4 4 0 1 1 125.99999800000016 96.99600000066667 Z" class="highcharts-point highcharts-color-0"></path><path fill="#000000" d="M 227 97 A 4 4 0 1 1 226.99999800000018 96.99600000066667 Z" class="highcharts-point highcharts-color-0"></path><path fill="#000000" d="M 331 97 A 4 4 0 1 1 330.9999980000002 96.99600000066667 Z" class="highcharts-point highcharts-color-0"></path><path fill="#000000" d="M 388 97 A 4 4 0 1 1 387.9999980000002 96.99600000066667 Z" class="highcharts-point highcharts-color-0"></path><path fill="#000000" d="M 442 97 A 4 4 0 1 1 441.9999980000002 96.99600000066667 Z" class="highcharts-point highcharts-color-0"></path><path fill="#000000" d="M 506 97 A 4 4 0 1 1 505.9999980000002 96.99600000066667 Z" class="highcharts-point highcharts-color-0"></path><path fill="#000000" d="M 522 97 A 4 4 0 1 1 521.9999980000001 96.99600000066667 Z" class="highcharts-point highcharts-color-0"></path><path fill="#000000" d="M 530 97 A 4 4 0 1 1 529.9999980000001 96.99600000066667 Z" class="highcharts-point highcharts-color-0"></path><path fill="#000000" d="M 467 97 A 4 4 0 1 1 466.9999980000002 96.99600000066667 Z" class="highcharts-point highcharts-color-0"></path><path fill="#000000" d="M 414 97 A 4 4 0 1 1 413.9999980000002 96.99600000066667 Z" class="highcharts-point highcharts-color-0"></path><path fill="#000000" d="M 391 110 A 4 4 0 1 1 390.9999980000002 109.99600000066667 Z" class="highcharts-point highcharts-color-0"></path><path fill="#000000" d="M 442 97 A 4 4 0 1 1 441.9999980000002 96.99600000066667 Z" class="highcharts-point highcharts-color-0"></path><path fill="#000000" d="M 396 111 A 4 4 0 1 1 395.9999980000002 110.99600000066667 Z" class="highcharts-point highcharts-color-0"></path><path fill="#000000" d="M 370 113 A 4 4 0 1 1 369.9999980000002 112.99600000066667 Z" class="highcharts-point highcharts-color-0"></path><path fill="#000000" d="M 317 93 A 4 4 0 1 1 316.9999980000002 92.99600000066667 Z" class="highcharts-point highcharts-color-0"></path><path fill="#000000" d="M 354 97 A 4 4 0 1 1 353.9999980000002 96.99600000066667 Z" class="highcharts-point highcharts-color-0"></path><path fill="#000000" d="M 384 97 A 4 4 0 1 1 383.9999980000002 96.99600000066667 Z" class="highcharts-point highcharts-color-0"></path><path fill="#000000" d="M 398 97 A 4 4 0 1 1 397.9999980000002 96.99600000066667 Z" class="highcharts-point highcharts-color-0"></path><path fill="#000000" d="M 335 97 A 4 4 0 1 1 334.9999980000002 96.99600000066667 Z" class="highcharts-point highcharts-color-0"></path><path fill="#000000" d="M 378 97 A 4 4 0 1 1 377.9999980000002 96.99600000066667 Z" class="highcharts-point highcharts-color-0"></path><path fill="#000000" d="M 364 102 A 4 4 0 1 1 363.9999980000002 101.99600000066667 Z" class="highcharts-point highcharts-color-0"></path><path fill="#000000" d="M 381 108 A 4 4 0 1 1 380.9999980000002 107.99600000066667 Z" class="highcharts-point highcharts-color-0"></path><path fill="#000000" d="M 350 116 A 4 4 0 1 1 349.9999980000002 115.99600000066667 Z" class="highcharts-point highcharts-color-0"></path><path fill="#000000" d="M 302 112 A 4 4 0 1 1 301.9999980000002 111.99600000066667 Z" class="highcharts-point highcharts-color-0"></path><path fill="#000000" d="M 273 118 A 4 4 0 1 1 272.9999980000002 117.99600000066667 Z" class="highcharts-point highcharts-color-0"></path><path fill="#000000" d="M 257 113 A 4 4 0 1 1 256.9999980000002 112.99600000066667 Z" class="highcharts-point highcharts-color-0"></path><path fill="#000000" d="M 232 97 A 4 4 0 1 1 231.99999800000018 96.99600000066667 Z" class="highcharts-point highcharts-color-0"></path><path fill="#000000" d="M 243 97 A 4 4 0 1 1 242.99999800000018 96.99600000066667 Z" class="highcharts-point highcharts-color-0"></path><path fill="#000000" d="M 243 97 A 4 4 0 1 1 242.99999800000018 96.99600000066667 Z" class="highcharts-point highcharts-color-0"></path><path fill="#000000" d="M 243 97 A 4 4 0 1 1 242.99999800000018 96.99600000066667 Z" class="highcharts-point highcharts-color-0"></path><path fill="#000000" d="M 264 105 A 4 4 0 1 1 263.9999980000002 104.99600000066667 Z" class="highcharts-point highcharts-color-0"></path><path fill="#000000" d="M 268 104 A 4 4 0 1 1 267.9999980000002 103.99600000066667 Z" class="highcharts-point highcharts-color-0"></path><path fill="#000000" d="M 281 115 A 4 4 0 1 1 280.9999980000002 114.99600000066667 Z" class="highcharts-point highcharts-color-0"></path><path fill="#000000" d="M 277 102 A 4 4 0 1 1 276.9999980000002 101.99600000066667 Z" class="highcharts-point highcharts-color-0"></path><path fill="#000000" d="M 275 101 A 4 4 0 1 1 274.9999980000002 100.99600000066667 Z" class="highcharts-point highcharts-color-0"></path><path fill="#000000" d="M 274 97 A 4 4 0 1 1 273.9999980000002 96.99600000066667 Z" class="highcharts-point highcharts-color-0"></path><path fill="#000000" d="M 246 97 A 4 4 0 1 1 245.99999800000018 96.99600000066667 Z" class="highcharts-point highcharts-color-0"></path><path fill="#000000" d="M 244 97 A 4 4 0 1 1 243.99999800000018 96.99600000066667 Z" class="highcharts-point highcharts-color-0"></path><path fill="#000000" d="M 289 97 A 4 4 0 1 1 288.9999980000002 96.99600000066667 Z" class="highcharts-point highcharts-color-0"></path><path fill="#000000" d="M 285 111 A 4 4 0 1 1 284.9999980000002 110.99600000066667 Z" class="highcharts-point highcharts-color-0"></path><path fill="#000000" d="M 291 97 A 4 4 0 1 1 290.9999980000002 96.99600000066667 Z" class="highcharts-point highcharts-color-0"></path><path fill="#000000" d="M 280 97 A 4 4 0 1 1 279.9999980000002 96.99600000066667 Z" class="highcharts-point highcharts-color-0"></path><path fill="#000000" d="M 331 97 A 4 4 0 1 1 330.9999980000002 96.99600000066667 Z" class="highcharts-point highcharts-color-0"></path><path fill="#000000" d="M 335 104 A 4 4 0 1 1 334.9999980000002 103.99600000066667 Z" class="highcharts-point highcharts-color-0"></path><path fill="#000000" d="M 332 101 A 4 4 0 1 1 331.9999980000002 100.99600000066667 Z" class="highcharts-point highcharts-color-0"></path><path fill="#000000" d="M 299 105 A 4 4 0 1 1 298.9999980000002 104.99600000066667 Z" class="highcharts-point highcharts-color-0"></path><path fill="#000000" d="M 277 97 A 4 4 0 1 1 276.9999980000002 96.99600000066667 Z" class="highcharts-point highcharts-color-0"></path><path fill="#000000" d="M 300 101 A 4 4 0 1 1 299.9999980000002 100.99600000066667 Z" class="highcharts-point highcharts-color-0"></path><path fill="#000000" d="M 293 97 A 4 4 0 1 1 292.9999980000002 96.99600000066667 Z" class="highcharts-point highcharts-color-0"></path><path fill="#000000" d="M 254 97 A 4 4 0 1 1 253.99999800000018 96.99600000066667 Z" class="highcharts-point highcharts-color-0"></path><path fill="#000000" d="M 280 97 A 4 4 0 1 1 279.9999980000002 96.99600000066667 Z" class="highcharts-point highcharts-color-0"></path><path fill="#000000" d="M 311 97 A 4 4 0 1 1 310.9999980000002 96.99600000066667 Z" class="highcharts-point highcharts-color-0"></path><path fill="#000000" d="M 347 113 A 4 4 0 1 1 346.9999980000002 112.99600000066667 Z" class="highcharts-point highcharts-color-0"></path><path fill="#000000" d="M 346 102 A 4 4 0 1 1 345.9999980000002 101.99600000066667 Z" class="highcharts-point highcharts-color-0"></path><path fill="#000000" d="M 367 100 A 4 4 0 1 1 366.9999980000002 99.99600000066667 Z" class="highcharts-point highcharts-color-0"></path><path fill="#000000" d="M 397 97 A 4 4 0 1 1 396.9999980000002 96.99600000066667 Z" class="highcharts-point highcharts-color-0"></path><path fill="#000000" d="M 412 97 A 4 4 0 1 1 411.9999980000002 96.99600000066667 Z" class="highcharts-point highcharts-color-0"></path><path fill="#000000" d="M 449 97 A 4 4 0 1 1 448.9999980000002 96.99600000066667 Z" class="highcharts-point highcharts-color-0"></path><path fill="#000000" d="M 430 97 A 4 4 0 1 1 429.9999980000002 96.99600000066667 Z" class="highcharts-point highcharts-color-0"></path><path fill="#000000" d="M 406 97 A 4 4 0 1 1 405.9999980000002 96.99600000066667 Z" class="highcharts-point highcharts-color-0"></path><path fill="#000000" d="M 416 97 A 4 4 0 1 1 415.9999980000002 96.99600000066667 Z" class="highcharts-point highcharts-color-0"></path><path fill="#000000" d="M 377 97 A 4 4 0 1 1 376.9999980000002 96.99600000066667 Z" class="highcharts-point highcharts-color-0"></path><path fill="#000000" d="M 432 97 A 4 4 0 1 1 431.9999980000002 96.99600000066667 Z" class="highcharts-point highcharts-color-0"></path><path fill="#000000" d="M 462 97 A 4 4 0 1 1 461.9999980000002 96.99600000066667 Z" class="highcharts-point highcharts-color-0"></path><path fill="#000000" d="M 420 103 A 4 4 0 1 1 419.9999980000002 102.99600000066667 Z" class="highcharts-point highcharts-color-0"></path><path fill="#000000" d="M 419 97 A 4 4 0 1 1 418.9999980000002 96.99600000066667 Z" class="highcharts-point highcharts-color-0"></path><path fill="#000000" d="M 407 97 A 4 4 0 1 1 406.9999980000002 96.99600000066667 Z" class="highcharts-point highcharts-color-0"></path><path fill="#000000" d="M 411 97 A 4 4 0 1 1 410.9999980000002 96.99600000066667 Z" class="highcharts-point highcharts-color-0"></path><path fill="#000000" d="M 409 104 A 4 4 0 1 1 408.9999980000002 103.99600000066667 Z" class="highcharts-point highcharts-color-0"></path><path fill="#000000" d="M 380 104 A 4 4 0 1 1 379.9999980000002 103.99600000066667 Z" class="highcharts-point highcharts-color-0"></path><path fill="#000000" d="M 379 102 A 4 4 0 1 1 378.9999980000002 101.99600000066667 Z" class="highcharts-point highcharts-color-0"></path><path fill="#000000" d="M 392 104 A 4 4 0 1 1 391.9999980000002 103.99600000066667 Z" class="highcharts-point highcharts-color-0"></path><path fill="#000000" d="M 409 97 A 4 4 0 1 1 408.9999980000002 96.99600000066667 Z" class="highcharts-point highcharts-color-0"></path><path fill="#000000" d="M 488 97 A 4 4 0 1 1 487.9999980000002 96.99600000066667 Z" class="highcharts-point highcharts-color-0"></path><path fill="#000000" d="M 462 97 A 4 4 0 1 1 461.9999980000002 96.99600000066667 Z" class="highcharts-point highcharts-color-0"></path><path fill="#000000" d="M 460 145 A 4 4 0 1 1 459.9999980000002 144.99600000066667 Z" class="highcharts-point highcharts-color-0"></path><path fill="#000000" d="M 515 97 A 4 4 0 1 1 514.9999980000001 96.99600000066667 Z" class="highcharts-point highcharts-color-0"></path><path fill="#000000" d="M 505 97 A 4 4 0 1 1 504.9999980000002 96.99600000066667 Z" class="highcharts-point highcharts-color-0"></path><path fill="#000000" d="M 499 97 A 4 4 0 1 1 498.9999980000002 96.99600000066667 Z" class="highcharts-point highcharts-color-0"></path><path fill="#000000" d="M 485 97 A 4 4 0 1 1 484.9999980000002 96.99600000066667 Z" class="highcharts-point highcharts-color-0"></path><path fill="#000000" d="M 455 97 A 4 4 0 1 1 454.9999980000002 96.99600000066667 Z" class="highcharts-point highcharts-color-0"></path><path fill="#000000" d="M 491 97 A 4 4 0 1 1 490.9999980000002 96.99600000066667 Z" class="highcharts-point highcharts-color-0"></path><path fill="#000000" d="M 496 97 A 4 4 0 1 1 495.9999980000002 96.99600000066667 Z" class="highcharts-point highcharts-color-0"></path><path fill="#000000" d="M 430 97 A 4 4 0 1 1 429.9999980000002 96.99600000066667 Z" class="highcharts-point highcharts-color-0"></path><path fill="#000000" d="M 396 97 A 4 4 0 1 1 395.9999980000002 96.99600000066667 Z" class="highcharts-point highcharts-color-0"></path><path fill="#000000" d="M 397 97 A 4 4 0 1 1 396.9999980000002 96.99600000066667 Z" class="highcharts-point highcharts-color-0"></path><path fill="#000000" d="M 397 97 A 4 4 0 1 1 396.9999980000002 96.99600000066667 Z" class="highcharts-point highcharts-color-0"></path><path fill="#000000" d="M 311 97 A 4 4 0 1 1 310.9999980000002 96.99600000066667 Z" class="highcharts-point highcharts-color-0"></path><path fill="#000000" d="M 308 115 A 4 4 0 1 1 307.9999980000002 114.99600000066667 Z" class="highcharts-point highcharts-color-0"></path><path fill="#000000" d="M 325 108 A 4 4 0 1 1 324.9999980000002 107.99600000066667 Z" class="highcharts-point highcharts-color-0"></path><path fill="#000000" d="M 306 109 A 4 4 0 1 1 305.9999980000002 108.99600000066667 Z" class="highcharts-point highcharts-color-0"></path><path fill="#000000" d="M 314 97 A 4 4 0 1 1 313.9999980000002 96.99600000066667 Z" class="highcharts-point highcharts-color-0"></path><path fill="#000000" d="M 310 117 A 4 4 0 1 1 309.9999980000002 116.99600000066667 Z" class="highcharts-point highcharts-color-0"></path><path fill="#000000" d="M 358 113 A 4 4 0 1 1 357.9999980000002 112.99600000066667 Z" class="highcharts-point highcharts-color-0"></path><path fill="#000000" d="M 376 97 A 4 4 0 1 1 375.9999980000002 96.99600000066667 Z" class="highcharts-point highcharts-color-0"></path><path fill="#000000" d="M 365 102 A 4 4 0 1 1 364.9999980000002 101.99600000066667 Z" class="highcharts-point highcharts-color-0"></path><path fill="#000000" d="M 361 97 A 4 4 0 1 1 360.9999980000002 96.99600000066667 Z" class="highcharts-point highcharts-color-0"></path><path fill="#000000" d="M 402 117 A 4 4 0 1 1 401.9999980000002 116.99600000066667 Z" class="highcharts-point highcharts-color-0"></path><path fill="#000000" d="M 390 117 A 4 4 0 1 1 389.9999980000002 116.99600000066667 Z" class="highcharts-point highcharts-color-0"></path><path fill="#000000" d="M 394 108 A 4 4 0 1 1 393.9999980000002 107.99600000066667 Z" class="highcharts-point highcharts-color-0"></path><path fill="#000000" d="M 363 131 A 4 4 0 1 1 362.9999980000002 130.99600000066667 Z" class="highcharts-point highcharts-color-0"></path><path fill="#000000" d="M 392 106 A 4 4 0 1 1 391.9999980000002 105.99600000066667 Z" class="highcharts-point highcharts-color-0"></path><path fill="#000000" d="M 388 121 A 4 4 0 1 1 387.9999980000002 120.99600000066667 Z" class="highcharts-point highcharts-color-0"></path><path fill="#000000" d="M 397 106 A 4 4 0 1 1 396.9999980000002 105.99600000066667 Z" class="highcharts-point highcharts-color-0"></path><path fill="#000000" d="M 385 136 A 4 4 0 1 1 384.9999980000002 135.99600000066667 Z" class="highcharts-point highcharts-color-0"></path><path fill="#000000" d="M 364 115 A 4 4 0 1 1 363.9999980000002 114.99600000066667 Z" class="highcharts-point highcharts-color-0"></path><path fill="#000000" d="M 352 103 A 4 4 0 1 1 351.9999980000002 102.99600000066667 Z" class="highcharts-point highcharts-color-0"></path><path fill="#000000" d="M 315 97 A 4 4 0 1 1 314.9999980000002 96.99600000066667 Z" class="highcharts-point highcharts-color-0"></path><path fill="#000000" d="M 295 97 A 4 4 0 1 1 294.9999980000002 96.99600000066667 Z" class="highcharts-point highcharts-color-0"></path><path fill="#000000" d="M 271 126 A 4 4 0 1 1 270.9999980000002 125.99600000066667 Z" class="highcharts-point highcharts-color-0"></path><path fill="#000000" d="M 237 113 A 4 4 0 1 1 236.99999800000018 112.99600000066667 Z" class="highcharts-point highcharts-color-0"></path><path fill="#000000" d="M 203 97 A 4 4 0 1 1 202.99999800000018 96.99600000066667 Z" class="highcharts-point highcharts-color-0"></path><path fill="#000000" d="M 291 111 A 4 4 0 1 1 290.9999980000002 110.99600000066667 Z" class="highcharts-point highcharts-color-0"></path><path fill="#000000" d="M 300 97 A 4 4 0 1 1 299.9999980000002 96.99600000066667 Z" class="highcharts-point highcharts-color-0"></path><path fill="#000000" d="M 300 121 A 4 4 0 1 1 299.9999980000002 120.99600000066667 Z" class="highcharts-point highcharts-color-0"></path><path fill="#000000" d="M 325 105 A 4 4 0 1 1 324.9999980000002 104.99600000066667 Z" class="highcharts-point highcharts-color-0"></path><path fill="#000000" d="M 332 102 A 4 4 0 1 1 331.9999980000002 101.99600000066667 Z" class="highcharts-point highcharts-color-0"></path><path fill="#000000" d="M 331 106 A 4 4 0 1 1 330.9999980000002 105.99600000066667 Z" class="highcharts-point highcharts-color-0"></path><path fill="#000000" d="M 307 97 A 4 4 0 1 1 306.9999980000002 96.99600000066667 Z" class="highcharts-point highcharts-color-0"></path><path fill="#000000" d="M 229 97 A 4 4 0 1 1 228.99999800000018 96.99600000066667 Z" class="highcharts-point highcharts-color-0"></path><path fill="#000000" d="M 204 97 A 4 4 0 1 1 203.99999800000018 96.99600000066667 Z" class="highcharts-point highcharts-color-0"></path><path fill="#000000" d="M 204 97 A 4 4 0 1 1 203.99999800000018 96.99600000066667 Z" class="highcharts-point highcharts-color-0"></path><path fill="#000000" d="M 192 97 A 4 4 0 1 1 191.99999800000018 96.99600000066667 Z" class="highcharts-point highcharts-color-0"></path><path fill="#000000" d="M 184 103 A 4 4 0 1 1 183.99999800000018 102.99600000066667 Z" class="highcharts-point highcharts-color-0"></path><path fill="#000000" d="M 177 97 A 4 4 0 1 1 176.99999800000018 96.99600000066667 Z" class="highcharts-point highcharts-color-0"></path><path fill="#000000" d="M 179 97 A 4 4 0 1 1 178.99999800000018 96.99600000066667 Z" class="highcharts-point highcharts-color-0"></path><path fill="#000000" d="M 168 97 A 4 4 0 1 1 167.99999800000018 96.99600000066667 Z" class="highcharts-point highcharts-color-0"></path><path fill="#000000" d="M 173 97 A 4 4 0 1 1 172.99999800000018 96.99600000066667 Z" class="highcharts-point highcharts-color-0"></path><path fill="#000000" d="M 179 106 A 4 4 0 1 1 178.99999800000018 105.99600000066667 Z" class="highcharts-point highcharts-color-0"></path><path fill="#000000" d="M 150 97 A 4 4 0 1 1 149.99999800000018 96.99600000066667 Z" class="highcharts-point highcharts-color-0"></path><path fill="#000000" d="M 164 97 A 4 4 0 1 1 163.99999800000018 96.99600000066667 Z" class="highcharts-point highcharts-color-0"></path><path fill="#000000" d="M 204 97 A 4 4 0 1 1 203.99999800000018 96.99600000066667 Z" class="highcharts-point highcharts-color-0"></path><path fill="#000000" d="M 202 97 A 4 4 0 1 1 201.99999800000018 96.99600000066667 Z" class="highcharts-point highcharts-color-0"></path><path fill="#000000" d="M 191 97 A 4 4 0 1 1 190.99999800000018 96.99600000066667 Z" class="highcharts-point highcharts-color-0"></path><path fill="#000000" d="M 198 97 A 4 4 0 1 1 197.99999800000018 96.99600000066667 Z" class="highcharts-point highcharts-color-0"></path><path fill="#000000" d="M 171 97 A 4 4 0 1 1 170.99999800000018 96.99600000066667 Z" class="highcharts-point highcharts-color-0"></path><path fill="#000000" d="M 171 97 A 4 4 0 1 1 170.99999800000018 96.99600000066667 Z" class="highcharts-point highcharts-color-0"></path><path fill="#000000" d="M 155 97 A 4 4 0 1 1 154.99999800000018 96.99600000066667 Z" class="highcharts-point highcharts-color-0"></path><path fill="#000000" d="M 135 97 A 4 4 0 1 1 134.99999800000018 96.99600000066667 Z" class="highcharts-point highcharts-color-0"></path><path fill="#000000" d="M 131 97 A 4 4 0 1 1 130.99999800000018 96.99600000066667 Z" class="highcharts-point highcharts-color-0"></path><path fill="#000000" d="M 132 97 A 4 4 0 1 1 131.99999800000018 96.99600000066667 Z" class="highcharts-point highcharts-color-0"></path><path fill="#000000" d="M 113 97 A 4 4 0 1 1 112.99999800000016 96.99600000066667 Z" class="highcharts-point highcharts-color-0"></path><path fill="#000000" d="M 110 97 A 4 4 0 1 1 109.99999800000016 96.99600000066667 Z" class="highcharts-point highcharts-color-0"></path><path fill="#000000" d="M 116 97 A 4 4 0 1 1 115.99999800000016 96.99600000066667 Z" class="highcharts-point highcharts-color-0"></path><path fill="#000000" d="M 118 121 A 4 4 0 1 1 117.99999800000016 120.99600000066667 Z" class="highcharts-point highcharts-color-0"></path><path fill="#000000" d="M 91 106 A 4 4 0 1 1 90.99999800000016 105.99600000066667 Z" class="highcharts-point highcharts-color-0"></path><path fill="#000000" d="M 89 121 A 4 4 0 1 1 88.99999800000016 120.99600000066667 Z" class="highcharts-point highcharts-color-0"></path><path fill="#000000" d="M 104 99 A 4 4 0 1 1 103.99999800000016 98.99600000066667 Z" class="highcharts-point highcharts-color-0"></path><path fill="#000000" d="M 135 97 A 4 4 0 1 1 134.99999800000018 96.99600000066667 Z" class="highcharts-point highcharts-color-0"></path><path fill="#000000" d="M 266 97 A 4 4 0 1 1 265.9999980000002 96.99600000066667 Z" class="highcharts-point highcharts-color-0"></path><path fill="#000000" d="M 284 85 A 4 4 0 1 1 283.9999980000002 84.99600000066667 Z" class="highcharts-point highcharts-color-0"></path><path fill="#000000" d="M 305 97 A 4 4 0 1 1 304.9999980000002 96.99600000066667 Z" class="highcharts-point highcharts-color-0"></path><path fill="#000000" d="M 320 73 A 4 4 0 1 1 319.9999980000002 72.99600000066667 Z" class="highcharts-point highcharts-color-0"></path><path fill="#000000" d="M 324 103 A 4 4 0 1 1 323.9999980000002 102.99600000066667 Z" class="highcharts-point highcharts-color-0"></path><path fill="#000000" d="M 342 97 A 4 4 0 1 1 341.9999980000002 96.99600000066667 Z" class="highcharts-point highcharts-color-0"></path><path fill="#000000" d="M 304 97 A 4 4 0 1 1 303.9999980000002 96.99600000066667 Z" class="highcharts-point highcharts-color-0"></path><path fill="#000000" d="M 244 97 A 4 4 0 1 1 243.99999800000018 96.99600000066667 Z" class="highcharts-point highcharts-color-0"></path><path fill="#000000" d="M 234 97 A 4 4 0 1 1 233.99999800000018 96.99600000066667 Z" class="highcharts-point highcharts-color-0"></path><path fill="#000000" d="M 216 97 A 4 4 0 1 1 215.99999800000018 96.99600000066667 Z" class="highcharts-point highcharts-color-0"></path><path fill="#000000" d="M 219 97 A 4 4 0 1 1 218.99999800000018 96.99600000066667 Z" class="highcharts-point highcharts-color-0"></path><path fill="#000000" d="M 231 97 A 4 4 0 1 1 230.99999800000018 96.99600000066667 Z" class="highcharts-point highcharts-color-0"></path><path fill="#000000" d="M 208 97 A 4 4 0 1 1 207.99999800000018 96.99600000066667 Z" class="highcharts-point highcharts-color-0"></path><path fill="#000000" d="M 209 97 A 4 4 0 1 1 208.99999800000018 96.99600000066667 Z" class="highcharts-point highcharts-color-0"></path><path fill="#000000" d="M 157 102 A 4 4 0 1 1 156.99999800000018 101.99600000066667 Z" class="highcharts-point highcharts-color-0"></path><path fill="#000000" d="M 166 97 A 4 4 0 1 1 165.99999800000018 96.99600000066667 Z" class="highcharts-point highcharts-color-0"></path><path fill="#000000" d="M 167 97 A 4 4 0 1 1 166.99999800000018 96.99600000066667 Z" class="highcharts-point highcharts-color-0"></path><path fill="#000000" d="M 160 97 A 4 4 0 1 1 159.99999800000018 96.99600000066667 Z" class="highcharts-point highcharts-color-0"></path><path fill="#000000" d="M 137 97 A 4 4 0 1 1 136.99999800000018 96.99600000066667 Z" class="highcharts-point highcharts-color-0"></path><path fill="#000000" d="M 147 103 A 4 4 0 1 1 146.99999800000018 102.99600000066667 Z" class="highcharts-point highcharts-color-0"></path><path fill="#000000" d="M 135 97 A 4 4 0 1 1 134.99999800000018 96.99600000066667 Z" class="highcharts-point highcharts-color-0"></path><path fill="#000000" d="M 145 104 A 4 4 0 1 1 144.99999800000018 103.99600000066667 Z" class="highcharts-point highcharts-color-0"></path><path fill="#000000" d="M 143 102 A 4 4 0 1 1 142.99999800000018 101.99600000066667 Z" class="highcharts-point highcharts-color-0"></path><path fill="#000000" d="M 153 97 A 4 4 0 1 1 152.99999800000018 96.99600000066667 Z" class="highcharts-point highcharts-color-0"></path><path fill="#000000" d="M 149 97 A 4 4 0 1 1 148.99999800000018 96.99600000066667 Z" class="highcharts-point highcharts-color-0"></path><path fill="#000000" d="M 169 97 A 4 4 0 1 1 168.99999800000018 96.99600000066667 Z" class="highcharts-point highcharts-color-0"></path><path fill="#000000" d="M 182 97 A 4 4 0 1 1 181.99999800000018 96.99600000066667 Z" class="highcharts-point highcharts-color-0"></path><path fill="#000000" d="M 246 97 A 4 4 0 1 1 245.99999800000018 96.99600000066667 Z" class="highcharts-point highcharts-color-0"></path><path fill="#000000" d="M 242 97 A 4 4 0 1 1 241.99999800000018 96.99600000066667 Z" class="highcharts-point highcharts-color-0"></path><path fill="#000000" d="M 235 97 A 4 4 0 1 1 234.99999800000018 96.99600000066667 Z" class="highcharts-point highcharts-color-0"></path><path fill="#000000" d="M 218 97 A 4 4 0 1 1 217.99999800000018 96.99600000066667 Z" class="highcharts-point highcharts-color-0"></path><path fill="#000000" d="M 214 129 A 4 4 0 1 1 213.99999800000018 128.99600000066667 Z" class="highcharts-point highcharts-color-0"></path><path fill="#000000" d="M 229 118 A 4 4 0 1 1 228.99999800000018 117.99600000066667 Z" class="highcharts-point highcharts-color-0"></path><path fill="#000000" d="M 254 137 A 4 4 0 1 1 253.99999800000018 136.99600000066667 Z" class="highcharts-point highcharts-color-0"></path><path fill="#000000" d="M 208 97 A 4 4 0 1 1 207.99999800000018 96.99600000066667 Z" class="highcharts-point highcharts-color-0"></path><path fill="#000000" d="M 267 97 A 4 4 0 1 1 266.9999980000002 96.99600000066667 Z" class="highcharts-point highcharts-color-0"></path><path fill="#000000" d="M 248 97 A 4 4 0 1 1 247.99999800000018 96.99600000066667 Z" class="highcharts-point highcharts-color-0"></path><path fill="#000000" d="M 252 97 A 4 4 0 1 1 251.99999800000018 96.99600000066667 Z" class="highcharts-point highcharts-color-0"></path><path fill="#000000" d="M 257 97 A 4 4 0 1 1 256.9999980000002 96.99600000066667 Z" class="highcharts-point highcharts-color-0"></path><path fill="#000000" d="M 219 97 A 4 4 0 1 1 218.99999800000018 96.99600000066667 Z" class="highcharts-point highcharts-color-0"></path><path fill="#000000" d="M 179 97 A 4 4 0 1 1 178.99999800000018 96.99600000066667 Z" class="highcharts-point highcharts-color-0"></path><path fill="#000000" d="M 198 97 A 4 4 0 1 1 197.99999800000018 96.99600000066667 Z" class="highcharts-point highcharts-color-0"></path><path fill="#000000" d="M 106 97 A 4 4 0 1 1 105.99999800000016 96.99600000066667 Z" class="highcharts-point highcharts-color-0"></path><path fill="#000000" d="M 97 97 A 4 4 0 1 1 96.99999800000016 96.99600000066667 Z" class="highcharts-point highcharts-color-0"></path><path fill="#000000" d="M 94 97 A 4 4 0 1 1 93.99999800000016 96.99600000066667 Z" class="highcharts-point highcharts-color-0"></path><path fill="#000000" d="M 80 97 A 4 4 0 1 1 79.99999800000016 96.99600000066667 Z" class="highcharts-point highcharts-color-0"></path><path fill="#000000" d="M 77 97 A 4 4 0 1 1 76.99999800000016 96.99600000066667 Z" class="highcharts-point highcharts-color-0"></path><path fill="#000000" d="M 50 97 A 4 4 0 1 1 49.99999800000017 96.99600000066667 Z" class="highcharts-point highcharts-color-0"></path><path fill="#000000" d="M 9 97 A 4 4 0 1 1 8.999998000000167 96.99600000066667 Z" class="highcharts-point highcharts-color-0"></path><path fill="#000000" d="M 9 116 A 4 4 0 1 1 8.999998000000167 115.99600000066667 Z" class="highcharts-point highcharts-color-0"></path><path fill="#000000" d="M 9 97 A 4 4 0 1 1 8.999998000000167 96.99600000066667 Z" class="highcharts-point highcharts-color-0"></path><path fill="#000000" d="M 9 102 A 4 4 0 1 1 8.999998000000167 101.99600000066667 Z" class="highcharts-point highcharts-color-0"></path><path fill="#000000" d="M 9 97 A 4 4 0 1 1 8.999998000000167 96.99600000066667 Z" class="highcharts-point highcharts-color-0"></path><path fill="#000000" d="M 9 102 A 4 4 0 1 1 8.999998000000167 101.99600000066667 Z" class="highcharts-point highcharts-color-0"></path><path fill="#000000" d="M 9 97 A 4 4 0 1 1 8.999998000000167 96.99600000066667 Z" class="highcharts-point highcharts-color-0"></path><path fill="#000000" d="M 9 118 A 4 4 0 1 1 8.999998000000167 117.99600000066667 Z" class="highcharts-point highcharts-color-0"></path><path fill="#000000" d="M 9 97 A 4 4 0 1 1 8.999998000000167 96.99600000066667 Z" class="highcharts-point highcharts-color-0"></path><path fill="#000000" d="M 9 97 A 4 4 0 1 1 8.999998000000167 96.99600000066667 Z" class="highcharts-point highcharts-color-0"></path><path fill="#000000" d="M 9 97 A 4 4 0 1 1 8.999998000000167 96.99600000066667 Z" class="highcharts-point highcharts-color-0"></path><path fill="#000000" d="M 9 113 A 4 4 0 1 1 8.999998000000167 112.99600000066667 Z" class="highcharts-point highcharts-color-0"></path><path fill="#000000" d="M 9 97 A 4 4 0 1 1 8.999998000000167 96.99600000066667 Z" class="highcharts-point highcharts-color-0"></path><path fill="#000000" d="M 9 97 A 4 4 0 1 1 8.999998000000167 96.99600000066667 Z" class="highcharts-point highcharts-color-0"></path><path fill="#000000" d="M 9 109 A 4 4 0 1 1 8.999998000000167 108.99600000066667 Z" class="highcharts-point highcharts-color-0"></path><path fill="#000000" d="M 9 97 A 4 4 0 1 1 8.999998000000167 96.99600000066667 Z" class="highcharts-point highcharts-color-0"></path><path fill="#000000" d="M 9 97 A 4 4 0 1 1 8.999998000000167 96.99600000066667 Z" class="highcharts-point highcharts-color-0"></path><path fill="#000000" d="M 9 97 A 4 4 0 1 1 8.999998000000167 96.99600000066667 Z" class="highcharts-point highcharts-color-0"></path><path fill="#000000" d="M 9 97 A 4 4 0 1 1 8.999998000000167 96.99600000066667 Z" class="highcharts-point highcharts-color-0"></path><path fill="#000000" d="M 9 97 A 4 4 0 1 1 8.999998000000167 96.99600000066667 Z" class="highcharts-point highcharts-color-0"></path><path fill="#000000" d="M 9 97 A 4 4 0 1 1 8.999998000000167 96.99600000066667 Z" class="highcharts-point highcharts-color-0"></path><path fill="#000000" d="M 16 97 A 4 4 0 1 1 15.999998000000167 96.99600000066667 Z" class="highcharts-point highcharts-color-0"></path><path fill="#000000" d="M 18 97 A 4 4 0 1 1 17.99999800000017 96.99600000066667 Z" class="highcharts-point highcharts-color-0"></path><path fill="#000000" d="M 43 97 A 4 4 0 1 1 42.99999800000017 96.99600000066667 Z" class="highcharts-point highcharts-color-0"></path><path fill="#000000" d="M 53 97 A 4 4 0 1 1 52.99999800000017 96.99600000066667 Z" class="highcharts-point highcharts-color-0"></path><path fill="#000000" d="M 88 81 A 4 4 0 1 1 87.99999800000016 80.99600000066667 Z" class="highcharts-point highcharts-color-0"></path><path fill="#000000" d="M 154 97 A 4 4 0 1 1 153.99999800000018 96.99600000066667 Z" class="highcharts-point highcharts-color-0"></path><path fill="#000000" d="M 182 97 A 4 4 0 1 1 181.99999800000018 96.99600000066667 Z" class="highcharts-point highcharts-color-0"></path><path fill="#000000" d="M 223 97 A 4 4 0 1 1 222.99999800000018 96.99600000066667 Z" class="highcharts-point highcharts-color-0"></path><path fill="#000000" d="M 261 97 A 4 4 0 1 1 260.9999980000002 96.99600000066667 Z" class="highcharts-point highcharts-color-0"></path><path fill="#000000" d="M 239 97 A 4 4 0 1 1 238.99999800000018 96.99600000066667 Z" class="highcharts-point highcharts-color-0"></path><path fill="#000000" d="M 240 97 A 4 4 0 1 1 239.99999800000018 96.99600000066667 Z" class="highcharts-point highcharts-color-0"></path><path fill="#000000" d="M 241 97 A 4 4 0 1 1 240.99999800000018 96.99600000066667 Z" class="highcharts-point highcharts-color-0"></path><path fill="#000000" d="M 241 97 A 4 4 0 1 1 240.99999800000018 96.99600000066667 Z" class="highcharts-point highcharts-color-0"></path><path fill="#000000" d="M 281 97 A 4 4 0 1 1 280.9999980000002 96.99600000066667 Z" class="highcharts-point highcharts-color-0"></path><path fill="#000000" d="M 254 97 A 4 4 0 1 1 253.99999800000018 96.99600000066667 Z" class="highcharts-point highcharts-color-0"></path><path fill="#000000" d="M 251 97 A 4 4 0 1 1 250.99999800000018 96.99600000066667 Z" class="highcharts-point highcharts-color-0"></path><path fill="#000000" d="M 260 97 A 4 4 0 1 1 259.9999980000002 96.99600000066667 Z" class="highcharts-point highcharts-color-0"></path><path fill="#000000" d="M 250 121 A 4 4 0 1 1 249.99999800000018 120.99600000066667 Z" class="highcharts-point highcharts-color-0"></path><path fill="#000000" d="M 225 97 A 4 4 0 1 1 224.99999800000018 96.99600000066667 Z" class="highcharts-point highcharts-color-0"></path><path fill="#000000" d="M 176 97 A 4 4 0 1 1 175.99999800000018 96.99600000066667 Z" class="highcharts-point highcharts-color-0"></path><path fill="#000000" d="M 140 113 A 4 4 0 1 1 139.99999800000018 112.99600000066667 Z" class="highcharts-point highcharts-color-0"></path><path fill="#000000" d="M 132 97 A 4 4 0 1 1 131.99999800000018 96.99600000066667 Z" class="highcharts-point highcharts-color-0"></path><path fill="#000000" d="M 115 77 A 4 4 0 1 1 114.99999800000016 76.99600000066667 Z" class="highcharts-point highcharts-color-0"></path><path fill="#000000" d="M 106 97 A 4 4 0 1 1 105.99999800000016 96.99600000066667 Z" class="highcharts-point highcharts-color-0"></path><path fill="#000000" d="M 112 97 A 4 4 0 1 1 111.99999800000016 96.99600000066667 Z" class="highcharts-point highcharts-color-0"></path><path fill="#000000" d="M 215 124 A 4 4 0 1 1 214.99999800000018 123.99600000066667 Z" class="highcharts-point highcharts-color-0"></path><path fill="#000000" d="M 229 109 A 4 4 0 1 1 228.99999800000018 108.99600000066667 Z" class="highcharts-point highcharts-color-0"></path><path fill="#000000" d="M 283 97 A 4 4 0 1 1 282.9999980000002 96.99600000066667 Z" class="highcharts-point highcharts-color-0"></path><path fill="#000000" d="M 386 97 A 4 4 0 1 1 385.9999980000002 96.99600000066667 Z" class="highcharts-point highcharts-color-0"></path><path fill="#000000" d="M 398 97 A 4 4 0 1 1 397.9999980000002 96.99600000066667 Z" class="highcharts-point highcharts-color-0"></path><path fill="#000000" d="M 395 97 A 4 4 0 1 1 394.9999980000002 96.99600000066667 Z" class="highcharts-point highcharts-color-0"></path><path fill="#000000" d="M 412 97 A 4 4 0 1 1 411.9999980000002 96.99600000066667 Z" class="highcharts-point highcharts-color-0"></path><path fill="#000000" d="M 345 97 A 4 4 0 1 1 344.9999980000002 96.99600000066667 Z" class="highcharts-point highcharts-color-0"></path><path fill="#000000" d="M 261 97 A 4 4 0 1 1 260.9999980000002 96.99600000066667 Z" class="highcharts-point highcharts-color-0"></path><path fill="#000000" d="M 261 97 A 4 4 0 1 1 260.9999980000002 96.99600000066667 Z" class="highcharts-point highcharts-color-0"></path><path fill="#000000" d="M 298 104 A 4 4 0 1 1 297.9999980000002 103.99600000066667 Z" class="highcharts-point highcharts-color-0"></path><path fill="#000000" d="M 294 97 A 4 4 0 1 1 293.9999980000002 96.99600000066667 Z" class="highcharts-point highcharts-color-0"></path><path fill="#000000" d="M 296 97 A 4 4 0 1 1 295.9999980000002 96.99600000066667 Z" class="highcharts-point highcharts-color-0"></path><path fill="#000000" d="M 313 106 A 4 4 0 1 1 312.9999980000002 105.99600000066667 Z" class="highcharts-point highcharts-color-0"></path><path fill="#000000" d="M 288 97 A 4 4 0 1 1 287.9999980000002 96.99600000066667 Z" class="highcharts-point highcharts-color-0"></path><path fill="#000000" d="M 293 97 A 4 4 0 1 1 292.9999980000002 96.99600000066667 Z" class="highcharts-point highcharts-color-0"></path><path fill="#000000" d="M 309 97 A 4 4 0 1 1 308.9999980000002 96.99600000066667 Z" class="highcharts-point highcharts-color-0"></path><path fill="#000000" d="M 217 97 A 4 4 0 1 1 216.99999800000018 96.99600000066667 Z" class="highcharts-point highcharts-color-0"></path><path fill="#000000" d="M 238 97 A 4 4 0 1 1 237.99999800000018 96.99600000066667 Z" class="highcharts-point highcharts-color-0"></path><path fill="#000000" d="M 256 97 A 4 4 0 1 1 255.99999800000018 96.99600000066667 Z" class="highcharts-point highcharts-color-0"></path><path fill="#000000" d="M 218 97 A 4 4 0 1 1 217.99999800000018 96.99600000066667 Z" class="highcharts-point highcharts-color-0"></path><path fill="#000000" d="M 246 101 A 4 4 0 1 1 245.99999800000018 100.99600000066667 Z" class="highcharts-point highcharts-color-0"></path><path fill="#000000" d="M 223 85 A 4 4 0 1 1 222.99999800000018 84.99600000066667 Z" class="highcharts-point highcharts-color-0"></path><path fill="#000000" d="M 209 97 A 4 4 0 1 1 208.99999800000018 96.99600000066667 Z" class="highcharts-point highcharts-color-0"></path><path fill="#000000" d="M 167 103 A 4 4 0 1 1 166.99999800000018 102.99600000066667 Z" class="highcharts-point highcharts-color-0"></path><path fill="#000000" d="M 122 118 A 4 4 0 1 1 121.99999800000016 117.99600000066667 Z" class="highcharts-point highcharts-color-0"></path><path fill="#000000" d="M 112 97 A 4 4 0 1 1 111.99999800000016 96.99600000066667 Z" class="highcharts-point highcharts-color-0"></path><path fill="#000000" d="M 128 105 A 4 4 0 1 1 127.99999800000016 104.99600000066667 Z" class="highcharts-point highcharts-color-0"></path><path fill="#000000" d="M 102 114 A 4 4 0 1 1 101.99999800000016 113.99600000066667 Z" class="highcharts-point highcharts-color-0"></path><path fill="#000000" d="M 120 111 A 4 4 0 1 1 119.99999800000016 110.99600000066667 Z" class="highcharts-point highcharts-color-0"></path><path fill="#000000" d="M 152 115 A 4 4 0 1 1 151.99999800000018 114.99600000066667 Z" class="highcharts-point highcharts-color-0"></path><path fill="#000000" d="M 150 97 A 4 4 0 1 1 149.99999800000018 96.99600000066667 Z" class="highcharts-point highcharts-color-0"></path><path fill="#000000" d="M 157 102 A 4 4 0 1 1 156.99999800000018 101.99600000066667 Z" class="highcharts-point highcharts-color-0"></path><path fill="#000000" d="M 171 97 A 4 4 0 1 1 170.99999800000018 96.99600000066667 Z" class="highcharts-point highcharts-color-0"></path><path fill="#000000" d="M 161 97 A 4 4 0 1 1 160.99999800000018 96.99600000066667 Z" class="highcharts-point highcharts-color-0"></path><path fill="#000000" d="M 204 99 A 4 4 0 1 1 203.99999800000018 98.99600000066667 Z" class="highcharts-point highcharts-color-0"></path><path fill="#000000" d="M 216 97 A 4 4 0 1 1 215.99999800000018 96.99600000066667 Z" class="highcharts-point highcharts-color-0"></path><path fill="#000000" d="M 307 101 A 4 4 0 1 1 306.9999980000002 100.99600000066667 Z" class="highcharts-point highcharts-color-0"></path><path fill="#000000" d="M 316 97 A 4 4 0 1 1 315.9999980000002 96.99600000066667 Z" class="highcharts-point highcharts-color-0"></path><path fill="#000000" d="M 341 97 A 4 4 0 1 1 340.9999980000002 96.99600000066667 Z" class="highcharts-point highcharts-color-0"></path><path fill="#000000" d="M 319 97 A 4 4 0 1 1 318.9999980000002 96.99600000066667 Z" class="highcharts-point highcharts-color-0"></path><path fill="#000000" d="M 321 97 A 4 4 0 1 1 320.9999980000002 96.99600000066667 Z" class="highcharts-point highcharts-color-0"></path><path fill="#000000" d="M 264 97 A 4 4 0 1 1 263.9999980000002 96.99600000066667 Z" class="highcharts-point highcharts-color-0"></path><path fill="#000000" d="M 244 102 A 4 4 0 1 1 243.99999800000018 101.99600000066667 Z" class="highcharts-point highcharts-color-0"></path><path fill="#000000" d="M 118 97 A 4 4 0 1 1 117.99999800000016 96.99600000066667 Z" class="highcharts-point highcharts-color-0"></path><path fill="#000000" d="M 106 97 A 4 4 0 1 1 105.99999800000016 96.99600000066667 Z" class="highcharts-point highcharts-color-0"></path><path fill="#000000" d="M 77 97 A 4 4 0 1 1 76.99999800000016 96.99600000066667 Z" class="highcharts-point highcharts-color-0"></path><path fill="#000000" d="M 92 97 A 4 4 0 1 1 91.99999800000016 96.99600000066667 Z" class="highcharts-point highcharts-color-0"></path><path fill="#000000" d="M 126 97 A 4 4 0 1 1 125.99999800000016 96.99600000066667 Z" class="highcharts-point highcharts-color-0"></path><path fill="#000000" d="M 195 97 A 4 4 0 1 1 194.99999800000018 96.99600000066667 Z" class="highcharts-point highcharts-color-0"></path><path fill="#000000" d="M 222 97 A 4 4 0 1 1 221.99999800000018 96.99600000066667 Z" class="highcharts-point highcharts-color-0"></path><path fill="#000000" d="M 234 88 A 4 4 0 1 1 233.99999800000018 87.99600000066667 Z" class="highcharts-point highcharts-color-0"></path><path fill="#000000" d="M 224 97 A 4 4 0 1 1 223.99999800000018 96.99600000066667 Z" class="highcharts-point highcharts-color-0"></path><path fill="#000000" d="M 234 119 A 4 4 0 1 1 233.99999800000018 118.99600000066667 Z" class="highcharts-point highcharts-color-0"></path><path fill="#000000" d="M 219 109 A 4 4 0 1 1 218.99999800000018 108.99600000066667 Z" class="highcharts-point highcharts-color-0"></path><path fill="#000000" d="M 178 115 A 4 4 0 1 1 177.99999800000018 114.99600000066667 Z" class="highcharts-point highcharts-color-0"></path><path fill="#000000" d="M 100 97 A 4 4 0 1 1 99.99999800000016 96.99600000066667 Z" class="highcharts-point highcharts-color-0"></path><path fill="#000000" d="M 63 97 A 4 4 0 1 1 62.99999800000017 96.99600000066667 Z" class="highcharts-point highcharts-color-0"></path><path fill="#000000" d="M 47 106 A 4 4 0 1 1 46.99999800000017 105.99600000066667 Z" class="highcharts-point highcharts-color-0"></path><path fill="#000000" d="M 47 97 A 4 4 0 1 1 46.99999800000017 96.99600000066667 Z" class="highcharts-point highcharts-color-0"></path><path fill="#000000" d="M 42 97 A 4 4 0 1 1 41.99999800000017 96.99600000066667 Z" class="highcharts-point highcharts-color-0"></path><path fill="#000000" d="M 50 97 A 4 4 0 1 1 49.99999800000017 96.99600000066667 Z" class="highcharts-point highcharts-color-0"></path><path fill="#000000" d="M 58 106 A 4 4 0 1 1 57.99999800000017 105.99600000066667 Z" class="highcharts-point highcharts-color-0"></path><path fill="#000000" d="M 143 97 A 4 4 0 1 1 142.99999800000018 96.99600000066667 Z" class="highcharts-point highcharts-color-0"></path><path fill="#000000" d="M 145 97 A 4 4 0 1 1 144.99999800000018 96.99600000066667 Z" class="highcharts-point highcharts-color-0"></path><path fill="#000000" d="M 171 126 A 4 4 0 1 1 170.99999800000018 125.99600000066667 Z" class="highcharts-point highcharts-color-0"></path><path fill="#000000" d="M 294 145 A 4 4 0 1 1 293.9999980000002 144.99600000066667 Z" class="highcharts-point highcharts-color-0"></path><path fill="#000000" d="M 306 145 A 4 4 0 1 1 305.9999980000002 144.99600000066667 Z" class="highcharts-point highcharts-color-0"></path><path fill="#000000" d="M 325 121 A 4 4 0 1 1 324.9999980000002 120.99600000066667 Z" class="highcharts-point highcharts-color-0"></path><path fill="#000000" d="M 322 97 A 4 4 0 1 1 321.9999980000002 96.99600000066667 Z" class="highcharts-point highcharts-color-0"></path><path fill="#000000" d="M 252 105 A 4 4 0 1 1 251.99999800000018 104.99600000066667 Z" class="highcharts-point highcharts-color-0"></path><path fill="#000000" d="M 270 97 A 4 4 0 1 1 269.9999980000002 96.99600000066667 Z" class="highcharts-point highcharts-color-0"></path><path fill="#000000" d="M 273 97 A 4 4 0 1 1 272.9999980000002 96.99600000066667 Z" class="highcharts-point highcharts-color-0"></path><path fill="#000000" d="M 196 97 A 4 4 0 1 1 195.99999800000018 96.99600000066667 Z" class="highcharts-point highcharts-color-0"></path><path fill="#000000" d="M 219 116 A 4 4 0 1 1 218.99999800000018 115.99600000066667 Z" class="highcharts-point highcharts-color-0"></path><path fill="#000000" d="M 201 121 A 4 4 0 1 1 200.99999800000018 120.99600000066667 Z" class="highcharts-point highcharts-color-0"></path><path fill="#000000" d="M 208 97 A 4 4 0 1 1 207.99999800000018 96.99600000066667 Z" class="highcharts-point highcharts-color-0"></path><path fill="#000000" d="M 250 61 A 4 4 0 1 1 249.99999800000018 60.99600000066666 Z" class="highcharts-point highcharts-color-0"></path><path fill="#000000" d="M 273 89 A 4 4 0 1 1 272.9999980000002 88.99600000066667 Z" class="highcharts-point highcharts-color-0"></path><path fill="#000000" d="M 289 77 A 4 4 0 1 1 288.9999980000002 76.99600000066667 Z" class="highcharts-point highcharts-color-0"></path><path fill="#000000" d="M 268 97 A 4 4 0 1 1 267.9999980000002 96.99600000066667 Z" class="highcharts-point highcharts-color-0"></path><path fill="#000000" d="M 240 97 A 4 4 0 1 1 239.99999800000018 96.99600000066667 Z" class="highcharts-point highcharts-color-0"></path><path fill="#000000" d="M 232 124 A 4 4 0 1 1 231.99999800000018 123.99600000066667 Z" class="highcharts-point highcharts-color-0"></path><path fill="#000000" d="M 248 97 A 4 4 0 1 1 247.99999800000018 96.99600000066667 Z" class="highcharts-point highcharts-color-0"></path><path fill="#000000" d="M 217 97 A 4 4 0 1 1 216.99999800000018 96.99600000066667 Z" class="highcharts-point highcharts-color-0"></path><path fill="#000000" d="M 217 194 A 4 4 0 1 1 216.99999800000018 193.99600000066667 Z" class="highcharts-point highcharts-color-0"></path><path fill="#000000" d="M 256 76 A 4 4 0 1 1 255.99999800000018 75.99600000066667 Z" class="highcharts-point highcharts-color-0"></path><path fill="#000000" d="M 269 48 A 4 4 0 1 1 268.9999980000002 47.99600000066666 Z" class="highcharts-point highcharts-color-0"></path><path fill="#000000" d="M 282 67 A 4 4 0 1 1 281.9999980000002 66.99600000066667 Z" class="highcharts-point highcharts-color-0"></path><path fill="#000000" d="M 270 97 A 4 4 0 1 1 269.9999980000002 96.99600000066667 Z" class="highcharts-point highcharts-color-0"></path><path fill="#000000" d="M 304 97 A 4 4 0 1 1 303.9999980000002 96.99600000066667 Z" class="highcharts-point highcharts-color-0"></path><path fill="#000000" d="M 265 97 A 4 4 0 1 1 264.9999980000002 96.99600000066667 Z" class="highcharts-point highcharts-color-0"></path><path fill="#000000" d="M 174 97 A 4 4 0 1 1 173.99999800000018 96.99600000066667 Z" class="highcharts-point highcharts-color-0"></path><path fill="#000000" d="M 171 48 A 4 4 0 1 1 170.99999800000018 47.99600000066666 Z" class="highcharts-point highcharts-color-0"></path><path fill="#000000" d="M 160 97 A 4 4 0 1 1 159.99999800000018 96.99600000066667 Z" class="highcharts-point highcharts-color-0"></path><path fill="#000000" d="M 151 145 A 4 4 0 1 1 150.99999800000018 144.99600000066667 Z" class="highcharts-point highcharts-color-0"></path><path fill="#000000" d="M 153 97 A 4 4 0 1 1 152.99999800000018 96.99600000066667 Z" class="highcharts-point highcharts-color-0"></path><path fill="#000000" d="M 190 121 A 4 4 0 1 1 189.99999800000018 120.99600000066667 Z" class="highcharts-point highcharts-color-0"></path><path fill="#000000" d="M 201 97 A 4 4 0 1 1 200.99999800000018 96.99600000066667 Z" class="highcharts-point highcharts-color-0"></path><path fill="#000000" d="M 214 97 A 4 4 0 1 1 213.99999800000018 96.99600000066667 Z" class="highcharts-point highcharts-color-0"></path><path fill="#000000" d="M 194 97 A 4 4 0 1 1 193.99999800000018 96.99600000066667 Z" class="highcharts-point highcharts-color-0"></path><path fill="#000000" d="M 152 97 A 4 4 0 1 1 151.99999800000018 96.99600000066667 Z" class="highcharts-point highcharts-color-0"></path><path fill="#000000" d="M 115 129 A 4 4 0 1 1 114.99999800000016 128.99600000066667 Z" class="highcharts-point highcharts-color-0"></path><path fill="#000000" d="M 107 97 A 4 4 0 1 1 106.99999800000016 96.99600000066667 Z" class="highcharts-point highcharts-color-0"></path><path fill="#000000" d="M 80 145 A 4 4 0 1 1 79.99999800000016 144.99600000066667 Z" class="highcharts-point highcharts-color-0"></path><path fill="#000000" d="M 72 97 A 4 4 0 1 1 71.99999800000016 96.99600000066667 Z" class="highcharts-point highcharts-color-0"></path><path fill="#000000" d="M 81 145 A 4 4 0 1 1 80.99999800000016 144.99600000066667 Z" class="highcharts-point highcharts-color-0"></path><path fill="#000000" d="M 71 97 A 4 4 0 1 1 70.99999800000016 96.99600000066667 Z" class="highcharts-point highcharts-color-0"></path><path fill="#000000" d="M 69 97 A 4 4 0 1 1 68.99999800000016 96.99600000066667 Z" class="highcharts-point highcharts-color-0"></path><path fill="#000000" d="M 83 100 A 4 4 0 1 1 82.99999800000016 99.99600000066667 Z" class="highcharts-point highcharts-color-0"></path><path fill="#000000" d="M 72 97 A 4 4 0 1 1 71.99999800000016 96.99600000066667 Z" class="highcharts-point highcharts-color-0"></path><path fill="#000000" d="M 64 97 A 4 4 0 1 1 63.99999800000017 96.99600000066667 Z" class="highcharts-point highcharts-color-0"></path><path fill="#000000" d="M 56 97 A 4 4 0 1 1 55.99999800000017 96.99600000066667 Z" class="highcharts-point highcharts-color-0"></path><path fill="#000000" d="M 56 128 A 4 4 0 1 1 55.99999800000017 127.99600000066667 Z" class="highcharts-point highcharts-color-0"></path><path fill="#000000" d="M 56 97 A 4 4 0 1 1 55.99999800000017 96.99600000066667 Z" class="highcharts-point highcharts-color-0"></path><path fill="#000000" d="M 40 97 A 4 4 0 1 1 39.99999800000017 96.99600000066667 Z" class="highcharts-point highcharts-color-0"></path><path fill="#000000" d="M 37 97 A 4 4 0 1 1 36.99999800000017 96.99600000066667 Z" class="highcharts-point highcharts-color-0"></path><path fill="#000000" d="M 37 97 A 4 4 0 1 1 36.99999800000017 96.99600000066667 Z" class="highcharts-point highcharts-color-0"></path><path fill="#000000" d="M 32 97 A 4 4 0 1 1 31.99999800000017 96.99600000066667 Z" class="highcharts-point highcharts-color-0"></path><path fill="#000000" d="M 39 97 A 4 4 0 1 1 38.99999800000017 96.99600000066667 Z" class="highcharts-point highcharts-color-0"></path><path fill="#000000" d="M 59 97 A 4 4 0 1 1 58.99999800000017 96.99600000066667 Z" class="highcharts-point highcharts-color-0"></path><path fill="#000000" d="M 107 97 A 4 4 0 1 1 106.99999800000016 96.99600000066667 Z" class="highcharts-point highcharts-color-0"></path><path fill="#000000" d="M 113 97 A 4 4 0 1 1 112.99999800000016 96.99600000066667 Z" class="highcharts-point highcharts-color-0"></path><path fill="#000000" d="M 134 97 A 4 4 0 1 1 133.99999800000018 96.99600000066667 Z" class="highcharts-point highcharts-color-0"></path><path fill="#000000" d="M 139 97 A 4 4 0 1 1 138.99999800000018 96.99600000066667 Z" class="highcharts-point highcharts-color-0"></path><path fill="#000000" d="M 131 97 A 4 4 0 1 1 130.99999800000018 96.99600000066667 Z" class="highcharts-point highcharts-color-0"></path><path fill="#000000" d="M 125 97 A 4 4 0 1 1 124.99999800000016 96.99600000066667 Z" class="highcharts-point highcharts-color-0"></path><path fill="#000000" d="M 104 113 A 4 4 0 1 1 103.99999800000016 112.99600000066667 Z" class="highcharts-point highcharts-color-0"></path><path fill="#000000" d="M 76 97 A 4 4 0 1 1 75.99999800000016 96.99600000066667 Z" class="highcharts-point highcharts-color-0"></path><path fill="#000000" d="M 64 97 A 4 4 0 1 1 63.99999800000017 96.99600000066667 Z" class="highcharts-point highcharts-color-0"></path><path fill="#000000" d="M 65 106 A 4 4 0 1 1 64.99999800000016 105.99600000066667 Z" class="highcharts-point highcharts-color-0"></path><path fill="#000000" d="M 40 116 A 4 4 0 1 1 39.99999800000017 115.99600000066667 Z" class="highcharts-point highcharts-color-0"></path><path fill="#000000" d="M 40 121 A 4 4 0 1 1 39.99999800000017 120.99600000066667 Z" class="highcharts-point highcharts-color-0"></path><path fill="#000000" d="M 28 97 A 4 4 0 1 1 27.99999800000017 96.99600000066667 Z" class="highcharts-point highcharts-color-0"></path><path fill="#000000" d="M 39 106 A 4 4 0 1 1 38.99999800000017 105.99600000066667 Z" class="highcharts-point highcharts-color-0"></path><path fill="#000000" d="M 54 97 A 4 4 0 1 1 53.99999800000017 96.99600000066667 Z" class="highcharts-point highcharts-color-0"></path><path fill="#000000" d="M 58 97 A 4 4 0 1 1 57.99999800000017 96.99600000066667 Z" class="highcharts-point highcharts-color-0"></path><path fill="#000000" d="M 69 97 A 4 4 0 1 1 68.99999800000016 96.99600000066667 Z" class="highcharts-point highcharts-color-0"></path><path fill="#000000" d="M 81 73 A 4 4 0 1 1 80.99999800000016 72.99600000066667 Z" class="highcharts-point highcharts-color-0"></path><path fill="#000000" d="M 110 97 A 4 4 0 1 1 109.99999800000016 96.99600000066667 Z" class="highcharts-point highcharts-color-0"></path><path fill="#000000" d="M 121 97 A 4 4 0 1 1 120.99999800000016 96.99600000066667 Z" class="highcharts-point highcharts-color-0"></path><path fill="#000000" d="M 123 97 A 4 4 0 1 1 122.99999800000016 96.99600000066667 Z" class="highcharts-point highcharts-color-0"></path><path fill="#000000" d="M 110 97 A 4 4 0 1 1 109.99999800000016 96.99600000066667 Z" class="highcharts-point highcharts-color-0"></path><path fill="#000000" d="M 108 97 A 4 4 0 1 1 107.99999800000016 96.99600000066667 Z" class="highcharts-point highcharts-color-0"></path><path fill="#000000" d="M 122 97 A 4 4 0 1 1 121.99999800000016 96.99600000066667 Z" class="highcharts-point highcharts-color-0"></path><path fill="#000000" d="M 116 97 A 4 4 0 1 1 115.99999800000016 96.99600000066667 Z" class="highcharts-point highcharts-color-0"></path><path fill="#000000" d="M 87 97 A 4 4 0 1 1 86.99999800000016 96.99600000066667 Z" class="highcharts-point highcharts-color-0"></path><path fill="#000000" d="M 82 97 A 4 4 0 1 1 81.99999800000016 96.99600000066667 Z" class="highcharts-point highcharts-color-0"></path><path fill="#000000" d="M 76 87 A 4 4 0 1 1 75.99999800000016 86.99600000066667 Z" class="highcharts-point highcharts-color-0"></path><path fill="#000000" d="M 75 97 A 4 4 0 1 1 74.99999800000016 96.99600000066667 Z" class="highcharts-point highcharts-color-0"></path><path fill="#000000" d="M 75 105 A 4 4 0 1 1 74.99999800000016 104.99600000066667 Z" class="highcharts-point highcharts-color-0"></path><path fill="#000000" d="M 80 97 A 4 4 0 1 1 79.99999800000016 96.99600000066667 Z" class="highcharts-point highcharts-color-0"></path><path fill="#000000" d="M 108 133 A 4 4 0 1 1 107.99999800000016 132.99600000066667 Z" class="highcharts-point highcharts-color-0"></path><path fill="#000000" d="M 121 129 A 4 4 0 1 1 120.99999800000016 128.99600000066667 Z" class="highcharts-point highcharts-color-0"></path><path fill="#000000" d="M 129 116 A 4 4 0 1 1 128.99999800000018 115.99600000066667 Z" class="highcharts-point highcharts-color-0"></path><path fill="#000000" d="M 134 97 A 4 4 0 1 1 133.99999800000018 96.99600000066667 Z" class="highcharts-point highcharts-color-0"></path><path fill="#000000" d="M 136 109 A 4 4 0 1 1 135.99999800000018 108.99600000066667 Z" class="highcharts-point highcharts-color-0"></path><path fill="#000000" d="M 137 145 A 4 4 0 1 1 136.99999800000018 144.99600000066667 Z" class="highcharts-point highcharts-color-0"></path><path fill="#000000" d="M 104 145 A 4 4 0 1 1 103.99999800000016 144.99600000066667 Z" class="highcharts-point highcharts-color-0"></path><path fill="#000000" d="M 104 145 A 4 4 0 1 1 103.99999800000016 144.99600000066667 Z" class="highcharts-point highcharts-color-0"></path><path fill="#000000" d="M 124 121 A 4 4 0 1 1 123.99999800000016 120.99600000066667 Z" class="highcharts-point highcharts-color-0"></path><path fill="#000000" d="M 123 145 A 4 4 0 1 1 122.99999800000016 144.99600000066667 Z" class="highcharts-point highcharts-color-0"></path><path fill="#000000" d="M 119 145 A 4 4 0 1 1 118.99999800000016 144.99600000066667 Z" class="highcharts-point highcharts-color-0"></path><path fill="#000000" d="M 119 121 A 4 4 0 1 1 118.99999800000016 120.99600000066667 Z" class="highcharts-point highcharts-color-0"></path><path fill="#000000" d="M 132 133 A 4 4 0 1 1 131.99999800000018 132.99600000066667 Z" class="highcharts-point highcharts-color-0"></path><path fill="#000000" d="M 141 145 A 4 4 0 1 1 140.99999800000018 144.99600000066667 Z" class="highcharts-point highcharts-color-0"></path><path fill="#000000" d="M 140 129 A 4 4 0 1 1 139.99999800000018 128.99600000066667 Z" class="highcharts-point highcharts-color-0"></path><path fill="#000000" d="M 159 145 A 4 4 0 1 1 158.99999800000018 144.99600000066667 Z" class="highcharts-point highcharts-color-0"></path><path fill="#000000" d="M 159 145 A 4 4 0 1 1 158.99999800000018 144.99600000066667 Z" class="highcharts-point highcharts-color-0"></path><path fill="#000000" d="M 193 145 A 4 4 0 1 1 192.99999800000018 144.99600000066667 Z" class="highcharts-point highcharts-color-0"></path><path fill="#000000" d="M 194 142 A 4 4 0 1 1 193.99999800000018 141.99600000066667 Z" class="highcharts-point highcharts-color-0"></path><path fill="#000000" d="M 160 97 A 4 4 0 1 1 159.99999800000018 96.99600000066667 Z" class="highcharts-point highcharts-color-0"></path><path fill="#000000" d="M 157 113 A 4 4 0 1 1 156.99999800000018 112.99600000066667 Z" class="highcharts-point highcharts-color-0"></path><path fill="#000000" d="M 139 145 A 4 4 0 1 1 138.99999800000018 144.99600000066667 Z" class="highcharts-point highcharts-color-0"></path><path fill="#000000" d="M 88 121 A 4 4 0 1 1 87.99999800000016 120.99600000066667 Z" class="highcharts-point highcharts-color-0"></path><path fill="#000000" d="M 86 113 A 4 4 0 1 1 85.99999800000016 112.99600000066667 Z" class="highcharts-point highcharts-color-0"></path><path fill="#000000" d="M 104 97 A 4 4 0 1 1 103.99999800000016 96.99600000066667 Z" class="highcharts-point highcharts-color-0"></path><path fill="#000000" d="M 118 65 A 4 4 0 1 1 117.99999800000016 64.99600000066667 Z" class="highcharts-point highcharts-color-0"></path><path fill="#000000" d="M 153 81 A 4 4 0 1 1 152.99999800000018 80.99600000066667 Z" class="highcharts-point highcharts-color-0"></path><path fill="#000000" d="M 154 101 A 4 4 0 1 1 153.99999800000018 100.99600000066667 Z" class="highcharts-point highcharts-color-0"></path></g></g><text x="300" text-anchor="middle" class="highcharts-title" data-z-index="4" style="color:#333333;font-size:18px;fill:#333333;" y="24"><tspan>Overall Mood Following Time Spent on Communication and</tspan><tspan dy="21" x="300">Scheduling</tspan></text><text x="300" text-anchor="middle" class="highcharts-subtitle" data-z-index="4" style="color:#666666;fill:#666666;" y="67"><tspan>An increase in 7 days cumulative Time Spent On Communication And Scheduling is usually</tspan><tspan dy="15" x="300">followed by an decrease in Overall Mood. (R = -0.032)</tspan></text><g class="highcharts-axis-labels highcharts-xaxis-labels " data-z-index="7"><text x="63.21568627451" style="color:#666666;cursor:default;font-size:11px;fill:#666666;" text-anchor="middle" transform="translate(0,0)" y="360" opacity="1">0</text><text x="147.33965844402" style="color:#666666;cursor:default;font-size:11px;fill:#666666;" text-anchor="middle" transform="translate(0,0)" y="360" opacity="1">2</text><text x="231.46363061354" style="color:#666666;cursor:default;font-size:11px;fill:#666666;" text-anchor="middle" transform="translate(0,0)" y="360" opacity="1">4</text><text x="315.58760278305" style="color:#666666;cursor:default;font-size:11px;fill:#666666;" text-anchor="middle" transform="translate(0,0)" y="360" opacity="1">6</text><text x="399.71157495256" style="color:#666666;cursor:default;font-size:11px;fill:#666666;" text-anchor="middle" transform="translate(0,0)" y="360" opacity="1">8</text><text x="483.83554712207" style="color:#666666;cursor:default;font-size:11px;fill:#666666;" text-anchor="middle" transform="translate(0,0)" y="360" opacity="1">10</text><text x="567.95951929159" style="color:#666666;cursor:default;font-size:11px;fill:#666666;" text-anchor="middle" transform="translate(0,0)" y="360" opacity="1">12</text></g><g class="highcharts-axis-labels highcharts-yaxis-labels " data-z-index="7"><text x="43" style="color:#666666;cursor:default;font-size:11px;fill:#666666;" text-anchor="end" transform="translate(0,0)" y="345" opacity="1">0</text><text x="43" style="color:#666666;cursor:default;font-size:11px;fill:#666666;" text-anchor="end" transform="translate(0,0)" y="296" opacity="1">1</text><text x="43" style="color:#666666;cursor:default;font-size:11px;fill:#666666;" text-anchor="end" transform="translate(0,0)" y="248" opacity="1">2</text><text x="43" style="color:#666666;cursor:default;font-size:11px;fill:#666666;" text-anchor="end" transform="translate(0,0)" y="199" opacity="1">3</text><text x="43" style="color:#666666;cursor:default;font-size:11px;fill:#666666;" text-anchor="end" transform="translate(0,0)" y="151" opacity="1">4</text><text x="43" style="color:#666666;cursor:default;font-size:11px;fill:#666666;" text-anchor="end" transform="translate(0,0)" y="103" opacity="1">5</text></g><a xlink:href="https://quantimo.do" target="_blank">
                    <text x="590" class="highcharts-credits" text-anchor="end" data-z-index="8"
                          style="cursor:pointer;color:#999999;font-size:9px;fill:#999999;" y="395">https://quantimo.do
                    </text>
                </a></svg>