<?xml version="1.0" standalone="no"?><!DOCTYPE svg PUBLIC "-//W3C//DTD SVG 1.1//EN" "http://www.w3.org/Graphics/SVG/1.1/DTD/svg11.dtd"><svg xmlns:xlink="http://www.w3.org/1999/xlink" version="1.1" class="highcharts-root" style="font-family:&quot;Lucida Grande&quot;, &quot;Lucida Sans Unicode&quot;, Arial, Helvetica, sans-serif;font-size:12px;" xmlns="http://www.w3.org/2000/svg" width="600" height="400"><desc>Created with Highstock 6.2.0</desc><defs><clipPath id="highcharts-c1o3yma-682"><rect x="0" y="0" width="558" height="299" fill="none"></rect></clipPath><clipPath id="highcharts-c1o3yma-1358"><rect x="0" y="0" width="558" height="299" fill="none"></rect></clipPath><clipPath id="highcharts-c1o3yma-1359"><rect x="32" y="63" width="558" height="299" fill="none"></rect></clipPath></defs><rect fill="#ffffff" class="highcharts-background" x="0" y="0" width="600" height="400" rx="0" ry="0"></rect><rect fill="none" class="highcharts-plot-background" x="32" y="63" width="558" height="299"></rect><g class="highcharts-pane-group" data-z-index="0"></g><g class="highcharts-grid highcharts-xaxis-grid " data-z-index="1"><path fill="none" data-z-index="1" class="highcharts-grid-line" d="M 33.5 63 L 33.5 362" opacity="1"></path><path fill="none" data-z-index="1" class="highcharts-grid-line" d="M 122.5 63 L 122.5 362" opacity="1"></path><path fill="none" data-z-index="1" class="highcharts-grid-line" d="M 210.5 63 L 210.5 362" opacity="1"></path><path fill="none" data-z-index="1" class="highcharts-grid-line" d="M 299.5 63 L 299.5 362" opacity="1"></path><path fill="none" data-z-index="1" class="highcharts-grid-line" d="M 387.5 63 L 387.5 362" opacity="1"></path><path fill="none" data-z-index="1" class="highcharts-grid-line" d="M 476.5 63 L 476.5 362" opacity="1"></path><path fill="none" data-z-index="1" class="highcharts-grid-line" d="M 564.5 63 L 564.5 362" opacity="1"></path></g><g class="highcharts-grid highcharts-yaxis-grid " data-z-index="1"><path fill="none" stroke="#e6e6e6" stroke-width="1" data-z-index="1" class="highcharts-grid-line" d="M 32 362.5 L 590 362.5" opacity="1"></path><path fill="none" stroke="#e6e6e6" stroke-width="1" data-z-index="1" class="highcharts-grid-line" d="M 32 312.5 L 590 312.5" opacity="1"></path><path fill="none" stroke="#e6e6e6" stroke-width="1" data-z-index="1" class="highcharts-grid-line" d="M 32 262.5 L 590 262.5" opacity="1"></path><path fill="none" stroke="#e6e6e6" stroke-width="1" data-z-index="1" class="highcharts-grid-line" d="M 32 213.5 L 590 213.5" opacity="1"></path><path fill="none" stroke="#e6e6e6" stroke-width="1" data-z-index="1" class="highcharts-grid-line" d="M 32 163.5 L 590 163.5" opacity="1"></path><path fill="none" stroke="#e6e6e6" stroke-width="1" data-z-index="1" class="highcharts-grid-line" d="M 32 113.5 L 590 113.5" opacity="1"></path><path fill="none" stroke="#e6e6e6" stroke-width="1" data-z-index="1" class="highcharts-grid-line" d="M 32 62.5 L 590 62.5" opacity="1"></path></g><rect fill="none" class="highcharts-plot-border" data-z-index="1" x="32" y="63" width="558" height="299"></rect><g class="highcharts-axis highcharts-xaxis " data-z-index="2"><path fill="none" class="highcharts-tick" stroke="#ccd6eb" stroke-width="1" d="M 33.5 362 L 33.5 372" opacity="1"></path><path fill="none" class="highcharts-tick" stroke="#ccd6eb" stroke-width="1" d="M 122.5 362 L 122.5 372" opacity="1"></path><path fill="none" class="highcharts-tick" stroke="#ccd6eb" stroke-width="1" d="M 210.5 362 L 210.5 372" opacity="1"></path><path fill="none" class="highcharts-tick" stroke="#ccd6eb" stroke-width="1" d="M 299.5 362 L 299.5 372" opacity="1"></path><path fill="none" class="highcharts-tick" stroke="#ccd6eb" stroke-width="1" d="M 387.5 362 L 387.5 372" opacity="1"></path><path fill="none" class="highcharts-tick" stroke="#ccd6eb" stroke-width="1" d="M 476.5 362 L 476.5 372" opacity="1"></path><path fill="none" class="highcharts-tick" stroke="#ccd6eb" stroke-width="1" d="M 564.5 362 L 564.5 372" opacity="1"></path><path fill="none" class="highcharts-axis-line" stroke="#ccd6eb" stroke-width="1" data-z-index="7" d="M 32 362.5 L 590 362.5"></path></g><g class="highcharts-axis highcharts-yaxis " data-z-index="2"><path fill="none" class="highcharts-axis-line" data-z-index="7" d="M 32 63 L 32 362"></path></g><g class="highcharts-series-group" data-z-index="3"><g data-z-index="0.1" class="highcharts-series highcharts-series-0 highcharts-spline-series highcharts-color-0 " transform="translate(32,63) scale(1 1)" clip-path="url(#highcharts-c1o3yma-1358)"><path fill="none" d="M 5.4705882352941 174.41666666666666 C 5.4705882352941 174.41666666666666 5.74090846079202 174.41666666666666 5.9211219444573 174.41666666666666 C 5.938416517012181 174.41666666666666 5.947063803289621 199.33333333333331 5.9643583758445 199.33333333333331 C 6.05756064428226 199.33333333333331 6.1041617785011395 141.19444444444443 6.1973640469389 137.04166666666666 C 6.29426748849158 132.88888888888889 6.342719209267921 132.88888888888889 6.4396226508206 132.88888888888889 C 6.536526092373241 132.88888888888889 6.5849778131495595 141.19444444444446 6.6818812547022 141.19444444444446 C 6.77878469625484 141.19444444444446 6.827236417031161 116.27777777777777 6.9241398585838 116.27777777777777 C 7.021043300136441 116.27777777777777 7.069495020912759 159.46666666666658 7.1663984624654 174.41666666666666 C 7.26330190401804 189.3666666666666 7.311753624794361 186.88578643578643 7.408657066347 191.02777777777777 C 7.544927531030399 196.8524531024531 7.613062763372101 199.33333333333331 7.7493332280555 199.33333333333331 C 7.84596749338162 199.33333333333331 7.89428462604468 199.33333333333331 7.9909188913708 199.33333333333331 C 8.139840638701362 199.33333333333331 8.21430151236664 199.33333333333331 8.3632232596972 199.33333333333331 C 8.369010548567681 199.33333333333331 8.371904193002921 199.33333333333331 8.3776914818734 199.33333333333331 C 8.496734668058561 199.33333333333331 8.55625626115114 199.33333333333331 8.6752994473363 199.33333333333331 C 8.750063144256462 199.33333333333331 8.78744499271654 224.25 8.8622086896367 224.25 C 9.137374087212219 224.25 9.27495678599998 210.76334314963205 9.5501221835755 199.33333333333331 C 9.7548307038553 190.83000981629868 9.8571849639952 189.03508518159447 10.061893484275 174.41666666666666 C 10.066536774183001 174.08508518159448 10.068858419137001 162.64193174291546 10.073501709045 161.95833333333331 C 10.1704051505974 147.69193174291544 10.2188568713736 137.04166666666666 10.315760312926 137.04166666666666 C 10.4126637544788 137.04166666666666 10.461115475255202 166.11111111111114 10.558018916808 182.72222222222223 C 10.7559980314244 199.33333333333331 10.854987588732602 199.33333333333331 11.052966703349 199.33333333333331 C 11.2357373611666 199.33333333333331 11.3271226900754 199.33333333333331 11.509893347893 199.33333333333331 C 11.619582660205799 199.33333333333331 11.674427316362198 174.41666666666666 11.784116628675 174.41666666666666 C 48.884541343897 174.41666666666666 67.43475370150801 199.33333333333331 104.53517841673 199.33333333333331 C 162.94938051334603 199.33333333333331 192.156481561654 99.66666666666666 250.57068365827 99.66666666666666 C 290.842811850754 99.66666666666666 310.978875946996 199.33333333333331 351.25100413948 199.33333333333331 C 351.347907581032 199.33333333333331 351.39635930180805 199.33333333333331 351.49326274336 199.33333333333331 C 351.590166184912 199.33333333333331 351.63861790568797 199.33333333333331 351.73552134724 199.33333333333331 C 351.832424788796 199.33333333333331 351.880876509574 199.33333333333331 351.97777995113 199.33333333333331 C 352.074683392682 199.33333333333331 352.12313511345803 199.33333333333331 352.22003855501 199.33333333333331 C 352.316941996562 199.33333333333331 352.36539371733795 199.33333333333331 352.46229715889 199.33333333333331 C 352.559200600442 199.33333333333331 352.607652321218 199.33333333333331 352.70455576277 199.33333333333331 C 352.801459204322 199.33333333333331 352.849910925098 199.33333333333331 352.94681436665 199.33333333333331 C 353.043717808202 199.33333333333331 353.09216952897793 199.33333333333331 353.18907297053 199.33333333333331 C 353.285976412086 199.33333333333331 353.334428132864 199.33333333333331 353.43133157442 199.33333333333331 C 353.52823501597203 199.33333333333331 353.576686736748 199.33333333333331 353.6735901783 199.33333333333331 C 353.770493619852 199.33333333333331 353.8189453406279 199.33333333333331 353.91584878218 199.33333333333331 C 354.012752223732 199.33333333333331 354.061203944508 199.33333333333331 354.15810738606 199.33333333333331 C 354.255010827612 199.33333333333331 354.303462548388 199.33333333333331 354.40036598994 199.33333333333331 C 354.497269431492 199.33333333333331 354.545721152268 199.33333333333331 354.64262459382 199.33333333333331 C 354.739528035376 199.33333333333331 354.78797975615396 199.33333333333331 354.88488319771 199.33333333333331 C 354.981786639262 199.33333333333331 355.030238360038 199.33333333333331 355.12714180159 199.33333333333331 C 355.2240452431421 199.33333333333331 355.272496963918 199.33333333333331 355.36940040547 199.33333333333331 C 355.466303847022 199.33333333333331 355.514755567798 199.33333333333331 355.61165900935 199.33333333333331 C 355.708562450902 199.33333333333331 355.757014171678 199.33333333333331 355.85391761323 199.33333333333331 C 355.95082105478207 199.33333333333331 355.999272775558 199.33333333333331 356.09617621711 199.33333333333331 C 356.193079658666 199.33333333333331 356.24153137944404 199.33333333333331 356.338434821 199.33333333333331 C 356.435338262552 199.33333333333331 356.483789983328 199.33333333333331 356.58069342488 199.33333333333331 C 356.64664160038 199.33333333333331 356.67961568813 199.33333333333331 356.74556386363 199.33333333333331 C 356.842467305182 199.33333333333331 356.890919025958 199.33333333333331 356.98782246751 199.33333333333331 C 357.08472590906206 199.33333333333331 357.133177629838 199.33333333333331 357.23008107139 199.33333333333331 C 357.326984512942 199.33333333333331 357.375436233718 199.33333333333331 357.47233967527 199.33333333333331 C 357.569243116826 199.33333333333331 357.617694837604 199.33333333333331 357.71459827916 199.33333333333331 C 357.81150172071204 199.33333333333331 357.859953441488 199.33333333333331 357.95685688304 199.33333333333331 C 358.05376032459196 199.33333333333331 358.102212045368 199.33333333333331 358.19911548692 199.33333333333331 C 358.29601892847205 199.33333333333331 358.34447064924797 199.33333333333331 358.4413740908 199.33333333333331 C 358.538277532352 199.33333333333331 358.58672925312806 199.33333333333331 358.68363269468 199.33333333333331 C 358.78053613623194 199.33333333333331 358.828987857008 174.41666666666666 358.92589129856 174.41666666666666 C 359.022794740116 174.41666666666666 359.071246460894 199.33333333333331 359.16814990245 199.33333333333331 C 359.265053344002 199.33333333333331 359.31350506477804 199.33333333333331 359.41040850633 199.33333333333331 C 359.507311947882 199.33333333333331 359.55576366865796 199.33333333333331 359.65266711021 199.33333333333331 C 359.749570551762 199.33333333333331 359.798022272538 199.33333333333331 359.89492571409 199.33333333333331 C 359.991829155642 199.33333333333331 360.040280876418 199.33333333333331 360.13718431797 199.33333333333331 C 360.234087759522 199.33333333333331 360.28253948029794 199.33333333333331 360.37944292185 199.33333333333331 C 360.476346363406 199.33333333333331 360.524798084184 199.33333333333331 360.62170152574 199.33333333333331 C 360.718604967292 199.33333333333331 360.767056688068 199.33333333333331 360.86396012962 199.33333333333331 C 360.960863571172 199.33333333333331 361.0093152919479 199.33333333333331 361.1062187335 199.33333333333331 C 361.234077441104 199.33333333333331 361.298006794906 199.33333333333331 361.42586550251 199.33333333333331 C 361.522768944062 199.33333333333331 361.571220664838 199.33333333333331 361.66812410639 199.33333333333331 C 361.765027547942 199.33333333333331 361.813479268718 199.33333333333331 361.91038271027 199.33333333333331 C 362.0072861518221 199.33333333333331 362.055737872598 249.16666666666666 362.15264131415 249.16666666666666 C 362.249544755706 249.16666666666666 362.29799647648395 199.33333333333331 362.39489991804 199.33333333333331 C 362.491803359592 199.33333333333331 362.540255080368 249.16666666666666 362.63715852192 249.16666666666666 C 362.7340619634721 249.16666666666666 362.782513684248 199.33333333333331 362.8794171258 199.33333333333331 C 362.976320567352 199.33333333333331 363.024772288128 199.33333333333331 363.12167572968 199.33333333333331 C 363.218579171232 199.33333333333331 363.267030892008 199.33333333333331 363.36393433356 199.33333333333331 C 363.46083777511205 199.33333333333331 363.509289495888 199.33333333333331 363.60619293744 199.33333333333331 C 363.799999820548 199.33333333333331 363.896903262102 199.33333333333331 364.09071014521 199.33333333333331 C 364.18761358676204 199.33333333333331 364.236065307538 199.33333333333331 364.33296874909 199.33333333333331 C 364.720582515302 199.33333333333331 364.914389398408 149.5 365.30200316462 149.5 C 365.39890660617203 149.5 365.44735832694795 149.5 365.5442617685 149.5 C 365.641165210052 149.5 365.68961693082804 149.5 365.78652037238 149.5 C 365.883423813932 149.5 365.93187553470796 149.5 366.02877897626 149.5 C 366.125682417812 149.5 366.174134138588 149.5 366.27103758014 149.5 C 366.367941021692 149.5 366.416392742468 149.5 366.51329618402 149.5 C 366.610199625572 149.5 366.65865134634794 149.5 366.7555547879 149.5 C 366.852458229456 149.5 366.900909950234 149.5 366.99781339179 149.5 C 367.094716833342 149.5 367.143168554118 149.5 367.24007199567 149.5 C 367.336975437222 149.5 367.3854271579979 149.5 367.48233059955 149.5 C 367.579234041102 149.5 367.627685761878 149.5 367.72458920343 149.5 C 367.821492644982 149.5 367.869944365758 149.5 367.96684780731 149.5 C 368.063751248862 149.5 368.112202969638 199.33333333333331 368.20910641119 199.33333333333331 C 368.306009852746 199.33333333333331 368.35446157352396 199.33333333333331 368.45136501508 199.33333333333331 C 368.548268456632 199.33333333333331 368.596720177408 149.5 368.69362361896 149.5 C 368.790527060512 149.5 368.838978781288 149.5 368.93588222284 149.5 C 369.032785664392 149.5 369.081237385168 149.5 369.17814082672 149.5 C 369.275044268272 149.5 369.323495989048 149.5 369.4203994306 149.5 C 369.5173028721521 149.5 369.565754592928 149.5 369.66265803448 149.5 C 369.759561476036 149.5 369.80801319681404 199.33333333333331 369.90491663837 199.33333333333331 C 370.001820079922 199.33333333333331 370.050271800698 149.5 370.14717524225 149.5 C 370.340982125354 149.5 370.437885566906 199.33333333333331 370.63169245001 199.33333333333331 C 370.728595891562 199.33333333333331 370.777047612338 149.5 370.87395105389 149.5 C 370.97085449544204 149.5 371.019306216218 149.5 371.11620965777 149.5 C 371.213113099326 149.5 371.261564820104 199.33333333333331 371.35846826166 199.33333333333331 C 371.45537170321205 199.33333333333331 371.50382342398797 149.5 371.60072686554 149.5 C 371.697630307092 149.5 371.74608202786806 199.33333333333331 371.84298546942 199.33333333333331 C 371.93988891097194 199.33333333333331 371.988340631748 199.33333333333331 372.0852440733 199.33333333333331 C 372.18214751485203 199.33333333333331 372.23059923562795 199.33333333333331 372.32750267718 199.33333333333331 C 372.424406118732 199.33333333333331 372.47285783950804 149.5 372.56976128106 149.5 C 372.666664722616 149.5 372.715116443394 149.5 372.81201988495 149.5 C 372.908923326502 149.5 372.957375047278 149.5 373.05427848883 149.5 C 373.151181930382 149.5 373.199633651158 149.5 373.29653709271 149.5 C 373.49034397581397 149.5 373.587247417366 149.5 373.78105430047 149.5 C 373.877957742022 149.5 373.926409462798 149.5 374.02331290435 149.5 C 374.120216345902 149.5 374.1686680666779 149.5 374.26557150823 149.5 C 374.36247494978596 149.5 374.410926670564 199.33333333333331 374.50783011212 199.33333333333331 C 374.604733553672 199.33333333333331 374.653185274448 199.33333333333331 374.750088716 199.33333333333331 C 374.846992157552 199.33333333333331 374.895443878328 199.33333333333331 374.99234731988 199.33333333333331 C 375.089250761432 199.33333333333331 375.137702482208 199.33333333333331 375.23460592376 199.33333333333331 C 375.331509365312 199.33333333333331 375.379961086088 199.33333333333331 375.47686452764 199.33333333333331 C 375.573767969192 199.33333333333331 375.622219689968 199.33333333333331 375.71912313152 199.33333333333331 C 375.816026573076 199.33333333333331 375.86447829385395 199.33333333333331 375.96138173541 199.33333333333331 C 376.058285176962 199.33333333333331 376.106736897738 199.33333333333331 376.20364033929 199.33333333333331 C 376.3005437808421 199.33333333333331 376.348995501618 199.33333333333331 376.44589894317 199.33333333333331 C 376.542802384722 199.33333333333331 376.591254105498 199.33333333333331 376.68815754705 199.33333333333331 C 376.785060988602 199.33333333333331 376.833512709378 199.33333333333331 376.93041615093 199.33333333333331 C 377.02731959248206 199.33333333333331 377.075771313258 199.33333333333331 377.17267475481 199.33333333333331 C 377.269578196366 199.33333333333331 377.31802991714403 199.33333333333331 377.4149333587 199.33333333333331 C 377.511836800252 199.33333333333331 377.560288521028 199.33333333333331 377.65719196258 199.33333333333331 C 377.75409540413204 199.33333333333331 377.802547124908 199.33333333333331 377.89945056646 199.33333333333331 C 377.99635400801196 199.33333333333331 378.044805728788 249.16666666666666 378.14170917034 249.16666666666666 C 378.23861261189205 249.16666666666666 378.28706433266797 199.33333333333331 378.38396777422 199.33333333333331 C 378.480871215772 199.33333333333331 378.52932293654806 199.33333333333331 378.6262263781 199.33333333333331 C 378.723129819656 199.33333333333331 378.771581540434 249.16666666666666 378.86848498199 249.16666666666666 C 378.96538842354204 249.16666666666666 379.01384014431795 199.33333333333331 379.11074358587 199.33333333333331 C 379.207647027422 199.33333333333331 379.25609874819804 199.33333333333331 379.35300218975 199.33333333333331 C 379.449905631302 199.33333333333331 379.49835735207796 199.33333333333331 379.59526079363 199.33333333333331 C 379.692164235182 199.33333333333331 379.740615955958 199.33333333333331 379.83751939751 199.33333333333331 C 379.934422839062 199.33333333333331 379.982874559838 199.33333333333331 380.07977800139 199.33333333333331 C 380.176681442946 199.33333333333331 380.22513316372397 149.5 380.32203660528 149.5 C 380.418940046832 149.5 380.467391767608 199.33333333333331 380.56429520916 199.33333333333331 C 380.661198650712 199.33333333333331 380.709650371488 199.33333333333331 380.80655381304 199.33333333333331 C 380.903457254592 199.33333333333331 380.9519089753679 199.33333333333331 381.04881241692 199.33333333333331 C 381.145715858472 199.33333333333331 381.194167579248 199.33333333333331 381.2910710208 199.33333333333331 C 381.387974462352 199.33333333333331 381.436426183128 199.33333333333331 381.53332962468 199.33333333333331 C 381.630233066232 199.33333333333331 381.678684787008 149.5 381.77558822856 149.5 C 381.872491670116 149.5 381.92094339089397 149.5 382.01784683245 149.5 C 382.114750274002 149.5 382.163201994778 199.33333333333331 382.26010543633 199.33333333333331 C 382.357008877882 199.33333333333331 382.405460598658 149.5 382.50236404021 149.5 C 382.599267481762 149.5 382.647719202538 199.33333333333331 382.74462264409 199.33333333333331 C 382.841526085642 199.33333333333331 382.889977806418 199.33333333333331 382.98688124797 199.33333333333331 C 383.0837846895221 199.33333333333331 383.132236410298 199.33333333333331 383.22913985185 199.33333333333331 C 383.326043293406 199.33333333333331 383.37449501418394 149.5 383.47139845574 149.5 C 383.568301897292 149.5 383.616753618068 199.33333333333331 383.71365705962 199.33333333333331 C 383.81056050117206 199.33333333333331 383.859012221948 149.5 383.9559156635 149.5 C 384.052819105052 149.5 384.101270825828 199.33333333333331 384.19817426738 199.33333333333331 C 384.295077708932 199.33333333333331 384.343529429708 199.33333333333331 384.44043287126 199.33333333333331 C 384.53733631281204 199.33333333333331 384.585788033588 199.33333333333331 384.68269147514 199.33333333333331 C 384.779594916696 199.33333333333331 384.828046637474 149.5 384.92495007903 149.5 C 385.021853520582 149.5 385.07030524135797 149.5 385.16720868291 149.5 C 385.26411212446203 149.5 385.312563845238 149.5 385.40946728679 149.5 C 385.50637072834195 149.5 385.554822449118 149.5 385.65172589067 149.5 C 385.74862933222204 149.5 385.79708105299795 149.5 385.89398449455 149.5 C 385.990887936102 149.5 386.03933965687804 149.5 386.13624309843 149.5 C 386.233146539986 149.5 386.281598260764 149.5 386.37850170232 149.5 C 386.475405143872 149.5 386.523856864648 149.5 386.6207603062 149.5 C 386.717663747752 149.5 386.766115468528 149.5 386.86301891008 149.5 C 386.959922351632 149.5 387.00837407240795 149.5 387.10527751396 149.5 C 387.202180955512 149.5 387.250632676288 199.33333333333331 387.34753611784 199.33333333333331 C 387.444439559392 199.33333333333331 387.492891280168 199.33333333333331 387.58979472172 199.33333333333331 C 387.686698163272 199.33333333333331 387.7351498840479 199.33333333333331 387.8320533256 199.33333333333331 C 387.92895676715597 199.33333333333331 387.977408487934 149.5 388.07431192949 149.5 C 388.171215371042 149.5 388.219667091818 199.33333333333331 388.31657053337 199.33333333333331 C 388.413473974922 199.33333333333331 388.4619256956979 199.33333333333331 388.55882913725 199.33333333333331 C 388.655732578802 199.33333333333331 388.704184299578 199.33333333333331 388.80108774113 199.33333333333331 C 388.897991182682 199.33333333333331 388.946442903458 199.33333333333331 389.04334634501 199.33333333333331 C 389.140249786562 199.33333333333331 389.188701507338 149.5 389.28560494889 149.5 C 389.479411831998 149.5 389.57631527355204 149.5 389.77012215666 149.5 C 389.8670255982121 149.5 389.915477318988 149.5 390.01238076054 149.5 C 390.206187643644 149.5 390.30309108519606 199.33333333333331 390.4968979683 199.33333333333331 C 390.78760829296004 199.33333333333331 390.93296345529 199.33333333333331 391.22367377995 199.33333333333331 C 391.32057722150205 199.33333333333331 391.369028942278 199.33333333333331 391.46593238383 199.33333333333331 C 391.56283582538197 199.33333333333331 391.611287546158 199.33333333333331 391.70819098771 199.33333333333331 C 391.805094429262 199.33333333333331 391.85354615003797 199.33333333333331 391.95044959159 199.33333333333331 C 392.04735303314203 199.33333333333331 392.095804753918 199.33333333333331 392.19270819547 199.33333333333331 C 392.289611637026 199.33333333333331 392.338063357804 199.33333333333331 392.43496679936 199.33333333333331 C 392.53187024091204 199.33333333333331 392.58032196168796 199.33333333333331 392.67722540324 199.33333333333331 C 392.871032286344 199.33333333333331 392.967935727896 199.33333333333331 393.161742611 199.33333333333331 C 393.258646052552 199.33333333333331 393.307097773328 249.16666666666666 393.40400121488 249.16666666666666 C 393.500904656432 249.16666666666666 393.549356377208 149.5 393.64625981876 149.5 C 393.743163260316 149.5 393.79161498109397 149.5 393.88851842265 149.5 C 393.985421864202 149.5 394.033873584978 199.33333333333331 394.13077702653 199.33333333333331 C 394.227680468082 199.33333333333331 394.276132188858 199.33333333333331 394.37303563041 199.33333333333331 C 394.469939071962 199.33333333333331 394.51839079273793 199.33333333333331 394.61529423429 199.33333333333331 C 394.712197675842 199.33333333333331 394.760649396618 199.33333333333331 394.85755283817 199.33333333333331 C 394.954456279722 199.33333333333331 395.002908000498 199.33333333333331 395.09981144205 199.33333333333331 C 395.196714883602 199.33333333333331 395.2451666043779 199.33333333333331 395.34207004593 199.33333333333331 C 395.43897348748595 199.33333333333331 395.48742520826397 199.33333333333331 395.58432864982 199.33333333333331 C 395.681232091372 199.33333333333331 395.729683812148 199.33333333333331 395.8265872537 199.33333333333331 C 395.923490695252 199.33333333333331 395.971942416028 199.33333333333331 396.06884585758 199.33333333333331 C 396.165749299132 199.33333333333331 396.214201019908 199.33333333333331 396.31110446146 199.33333333333331 C 396.408007903012 199.33333333333331 396.456459623788 199.33333333333331 396.55336306534 199.33333333333331 C 396.6502665068921 199.33333333333331 396.698718227668 199.33333333333331 396.79562166922 199.33333333333331 C 396.892525110776 199.33333333333331 396.94097683155394 199.33333333333331 397.03788027311 199.33333333333331 C 397.134783714662 199.33333333333331 397.183235435438 199.33333333333331 397.28013887699 199.33333333333331 C 397.570849201646 199.33333333333331 397.71620436397404 199.33333333333331 398.00691468863 199.33333333333331 C 398.10381813018205 199.33333333333331 398.152269850958 199.33333333333331 398.24917329251 199.33333333333331 C 398.346076734066 199.33333333333331 398.394528454844 149.5 398.4914318964 149.5 C 398.588335337952 149.5 398.636787058728 149.5 398.73369050028 149.5 C 398.83059394183203 149.5 398.879045662608 149.5 398.97594910416 149.5 C 399.07285254571195 149.5 399.121304266488 149.5 399.21820770804 149.5 C 399.31511114959204 149.5 399.36356287036796 149.5 399.46046631192 149.5 C 399.557369753472 149.5 399.60582147424805 149.5 399.7027249158 149.5 C 399.799628357356 149.5 399.848080078134 149.5 399.94498351969 149.5 C 400.041886961242 149.5 400.090338682018 149.5 400.18724212357 149.5 C 400.284145565122 149.5 400.33259728589803 149.5 400.42950072745 149.5 C 400.526404169002 149.5 400.57485588977795 149.5 400.67175933133 149.5 C 401.059373097542 149.5 401.25317998064804 199.33333333333331 401.64079374686 199.33333333333331 C 401.737697188412 199.33333333333331 401.786148909188 199.33333333333331 401.88305235074 199.33333333333331 C 401.979955792292 199.33333333333331 402.0284075130679 199.33333333333331 402.12531095462 199.33333333333331 C 402.222214396172 199.33333333333331 402.270666116948 199.33333333333331 402.3675695585 199.33333333333331 C 402.464473000052 199.33333333333331 402.512924720828 199.33333333333331 402.60982816238 199.33333333333331 C 402.706731603932 199.33333333333331 402.755183324708 199.33333333333331 402.85208676626 199.33333333333331 C 402.948990207816 199.33333333333331 402.99744192859396 199.33333333333331 403.09434537015 199.33333333333331 C 403.191248811702 199.33333333333331 403.239700532478 199.33333333333331 403.33660397403 199.33333333333331 C 403.4335074155821 199.33333333333331 403.481959136358 199.33333333333331 403.57886257791 199.33333333333331 C 403.675766019462 199.33333333333331 403.724217740238 199.33333333333331 403.82112118179 199.33333333333331 C 403.918024623342 199.33333333333331 403.966476344118 199.33333333333331 404.06337978567 199.33333333333331 C 404.16028322722207 199.33333333333331 404.208734947998 199.33333333333331 404.30563838955 199.33333333333331 C 404.402541831106 199.33333333333331 404.45099355188404 249.16666666666666 404.54789699344 249.16666666666666 C 404.644800434992 249.16666666666666 404.693252155768 249.16666666666666 404.79015559732 249.16666666666666 C 404.88705903887205 249.16666666666666 404.935510759648 249.16666666666666 405.0324142012 249.16666666666666 C 405.12931764275197 249.16666666666666 405.177769363528 199.33333333333331 405.27467280508 199.33333333333331 C 405.371576246632 199.33333333333331 405.420027967408 199.33333333333331 405.51693140896 199.33333333333331 C 405.61383485051203 199.33333333333331 405.662286571288 249.16666666666666 405.75919001284 249.16666666666666 C 405.856093454396 249.16666666666666 405.904545175174 249.16666666666666 406.00144861673 249.16666666666666 C 406.09835205828205 249.16666666666666 406.14680377905796 249.16666666666666 406.24370722061 249.16666666666666 C 406.340610662162 249.16666666666666 406.38906238293805 249.16666666666666 406.48596582449 249.16666666666666 C 406.582869266042 249.16666666666666 406.63132098681797 249.16666666666666 406.72822442837 249.16666666666666 C 406.825127869922 249.16666666666666 406.873579590698 249.16666666666666 406.97048303225 249.16666666666666 C 407.067386473802 249.16666666666666 407.11583819457803 249.16666666666666 407.21274163613 249.16666666666666 C 407.309645077686 249.16666666666666 407.358096798464 199.33333333333331 407.45500024002 199.33333333333331 C 407.551903681572 199.33333333333331 407.600355402348 199.33333333333331 407.6972588439 199.33333333333331 C 407.794162285452 199.33333333333331 407.842614006228 249.16666666666666 407.93951744778 249.16666666666666 C 408.036420889332 249.16666666666666 408.08487261010794 199.33333333333331 408.18177605166 199.33333333333331 C 408.278679493212 199.33333333333331 408.327131213988 249.16666666666666 408.42403465554 249.16666666666666 C 408.520938097092 249.16666666666666 408.569389817868 149.5 408.66629325942 149.5 C 408.763196700976 149.5 408.81164842175394 149.5 408.90855186331 149.5 C 409.489972512622 149.5 409.780682837278 249.16666666666666 410.36210348659 249.16666666666666 C 410.4590069281459 249.16666666666666 410.50745864892394 249.16666666666666 410.60436209048 249.16666666666666 C 411.28268618134797 249.16666666666666 411.621848226782 199.33333333333331 412.30017231765 199.33333333333331 C 412.39707575920204 199.33333333333331 412.44552747997807 199.33333333333331 412.54243092153 199.33333333333331 C 412.63933436308196 199.33333333333331 412.687786083858 249.16666666666666 412.78468952541 249.16666666666666 C 412.88159296696205 249.16666666666666 412.93004468773796 249.16666666666666 413.02694812929 249.16666666666666 C 413.123851570842 249.16666666666666 413.17230329161805 249.16666666666666 413.26920673317 249.16666666666666 C 413.366110174726 249.16666666666666 413.414561895504 249.16666666666666 413.51146533706 249.16666666666666 C 413.60836877861203 249.16666666666666 413.65682049938795 249.16666666666666 413.75372394094 249.16666666666666 C 413.850627382492 249.16666666666666 413.89907910326804 249.16666666666666 413.99598254482 249.16666666666666 C 414.0928859863719 249.16666666666666 414.14133770714795 249.16666666666666 414.2382411487 249.16666666666666 C 414.335144590252 249.16666666666666 414.38359631102793 249.16666666666666 414.48049975258 249.16666666666666 C 414.577403194132 249.16666666666666 414.625854914908 249.16666666666666 414.72275835646 249.16666666666666 C 414.819661798016 249.16666666666666 414.86811351879396 249.16666666666666 414.96501696035 249.16666666666666 C 417.87212020692596 249.16666666666666 419.325671830214 249.16666666666666 422.23277507679 249.16666666666666 C 422.329678518346 249.16666666666666 422.37813023912395 199.33333333333331 422.47503368068 199.33333333333331 C 422.571937122232 199.33333333333331 422.620388843008 199.33333333333331 422.71729228456 199.33333333333331 C 422.814195726112 199.33333333333331 422.862647446888 199.33333333333331 422.95955088844 199.33333333333331 C 423.056454329992 199.33333333333331 423.104906050768 199.33333333333331 423.20180949232 199.33333333333331 C 423.298712933872 199.33333333333331 423.347164654648 199.33333333333331 423.4440680962 199.33333333333331 C 423.540971537752 199.33333333333331 423.58942325852803 199.33333333333331 423.68632670008 199.33333333333331 C 423.78323014163595 199.33333333333331 423.83168186241403 199.33333333333331 423.92858530397 199.33333333333331 C 424.02548874552195 199.33333333333331 424.073940466298 199.33333333333331 424.17084390785 199.33333333333331 C 424.267747349402 199.33333333333331 424.316199070178 199.33333333333331 424.41310251173 199.33333333333331 C 424.5100059532821 199.33333333333331 424.558457674058 199.33333333333331 424.65536111561 199.33333333333331 C 424.752264557162 199.33333333333331 424.800716277938 199.33333333333331 424.89761971949 199.33333333333331 C 424.99452316104197 199.33333333333331 425.042974881818 199.33333333333331 425.13987832337 199.33333333333331 C 425.540727708954 199.33333333333331 425.741152401746 199.33333333333331 426.14200178733 199.33333333333331 C 426.22566960950996 199.33333333333331 426.2675035206 249.16666666666666 426.35117134278 249.16666666666666 C 426.514022959836 249.16666666666666 426.595448768364 199.33333333333331 426.75830038542 199.33333333333331 C 426.886159093024 199.33333333333331 426.950088446826 199.33333333333331 427.07794715443 199.33333333333331 C 427.17485059598204 199.33333333333331 427.22330231675795 149.5 427.32020575831 149.5 C 427.417109199862 149.5 427.46556092063804 149.5 427.56246436219 149.5 C 427.62841253769 149.5 427.66138662544 199.33333333333331 427.72733480094 199.33333333333331 C 427.855193508544 199.33333333333331 427.919122862346 149.5 428.04698156995 149.5 C 428.1129297454539 149.5 428.14590383320603 149.5 428.21185200871 149.5 C 428.32431383615403 149.5 428.38054474987604 199.33333333333331 428.49300657732 199.33333333333331 C 428.589910018872 199.33333333333331 428.638361739648 149.5 428.7352651812 149.5 C 428.832168622752 149.5 428.88062034352805 149.5 428.97752378508 149.5 C 429.05886884074 149.5 429.09954136856993 174.41666666666666 429.18088642423 174.41666666666666 C 429.29334825167797 174.41666666666666 429.34957916540196 149.5 429.46204099285 149.5 C 429.558944434402 149.5 429.607396155178 149.5 429.70429959673 149.5 C 429.801763822086 149.5 429.85049593476396 149.5 429.94796016012 149.5 C 430.044302817868 149.5 430.092474146742 149.5 430.18881680449 149.5 C 430.285720246042 149.5 430.334171966818 149.5 430.43107540837 149.5 C 430.51242046403 149.5 430.55309299186 149.5 430.63443804752 149.5 C 430.74689987496805 149.5 430.80313078869204 149.5 430.91559261614 149.5 C 431.012496057692 149.5 431.060947778468 149.5 431.15785122002 149.5 C 431.23919627568 149.5 431.27986880351 149.5 431.36121385917 149.5 C 431.473675686614 149.5 431.529906600336 149.5 431.64236842778 149.5 C 431.7418122199721 149.5 431.791534116068 149.5 431.89097790826 149.5 C 431.987138872052 149.5 432.03521935394804 149.5 432.13138031774 149.5 C 432.22648588641607 149.5 432.274038670754 149.5 432.36914423943 149.5 C 432.46604768098206 149.5 432.514499401758 149.5 432.61140284331 149.5 C 432.70830628486203 149.5 432.75675800563806 149.5 432.85366144719 149.5 C 432.95056488874195 149.5 432.999016609518 149.5 433.09592005107 149.5 C 433.19282349262204 149.5 433.24127521339796 149.5 433.33817865495 149.5 C 433.435082096502 149.5 433.48353381727804 99.66666666666666 433.58043725883 99.66666666666666 C 433.677505570822 99.66666666666666 433.726039726818 149.5 433.82310803881 149.5 C 433.919846609926 149.5 433.968215895484 149.5 434.0649544666 149.5 C 434.16581143397997 149.5 434.21623991767 149.5 434.31709688505 149.5 C 434.410046800774 149.5 434.456521758636 149.5 434.54947167436 149.5 C 434.74327855746395 149.5 434.840181999016 149.5 435.03398888212 149.5 C 435.130892323676 149.5 435.17934404445396 149.5 435.27624748601 149.5 C 435.373150927562 149.5 435.421602648338 149.5 435.51850608989 149.5 C 435.615409531442 149.5 435.663861252218 149.5 435.76076469377 149.5 C 435.95457157687395 149.5 436.051475018426 149.5 436.24528190153 149.5 C 436.342185343082 149.5 436.39063706385804 99.66666666666666 436.48754050541 99.66666666666666 C 436.58444394696596 99.66666666666666 436.63289566774404 149.5 436.7297991093 149.5 C 436.82670255085196 149.5 436.875154271628 149.5 436.97205771318 149.5 C 437.075600834988 149.5 437.12737239589205 149.5 437.2309155177 149.5 C 437.321179278996 149.5 437.366311159644 149.5 437.45657492094 149.5 C 437.634823418152 149.5 437.72394766675797 149.5 437.90219616397 149.5 C 437.99909960552196 149.5 438.047551326298 149.5 438.14445476785 149.5 C 438.25691659529804 149.5 438.31314750902203 149.5 438.42560933647 149.5 C 438.603857833682 149.5 438.69298208228804 149.5 438.8712305795 149.5 C 438.9842027202079 149.5 439.04068879056194 149.5 439.15366093127 149.5 C 439.250054059558 149.5 439.298250623702 149.5 439.39464375199 149.5 C 439.491547193546 149.5 439.539998914324 149.5 439.63690235588 149.5 C 439.74009330545596 149.5 439.79168878024404 149.5 439.89487972982 149.5 C 439.989163189432 149.5 440.036304919238 149.5 440.13058837885 149.5 C 440.208265908426 149.5 440.24710467321404 149.5 440.32478220279 149.5 C 440.42168564434195 149.5 440.470137365118 149.5 440.56704080667 149.5 C 440.779926676398 149.5 440.88636961126196 149.5 441.09925548099 149.5 C 441.177079935918 149.5 441.215992163382 149.5 441.29381661831 149.5 C 441.406278445758 149.5 441.462509359482 199.33333333333331 441.57497118693 199.33333333333331 C 441.753219684142 199.33333333333331 441.842343932748 199.33333333333331 442.02059242996 199.33333333333331 C 442.117495871512 199.33333333333331 442.16594759228803 199.33333333333331 442.26285103384 199.33333333333331 C 442.386463486472 199.33333333333331 442.448269712788 199.33333333333331 442.57188216542 199.33333333333331 C 442.657634981788 199.33333333333331 442.70051138997195 149.5 442.78626420634 149.5 C 442.86760926199594 149.5 442.908281789824 149.5 442.98962684548 149.5 C 443.10208867292806 149.5 443.15831958665206 149.5 443.2707814141 149.5 C 443.367684855652 149.5 443.416136576428 199.33333333333331 443.51304001798 199.33333333333331 C 443.609943459532 199.33333333333331 443.658395180308 199.33333333333331 443.75529862186 199.33333333333331 C 443.852202063412 199.33333333333331 443.900653784188 199.33333333333331 443.99755722574 199.33333333333331 C 444.09446066729606 199.33333333333331 444.142912388074 199.33333333333331 444.23981582963 199.33333333333331 C 444.33671927118195 199.33333333333331 444.385170991958 199.33333333333331 444.48207443351 199.33333333333331 C 444.563419489166 199.33333333333331 444.60409201699406 199.33333333333331 444.68543707265 199.33333333333331 C 444.89480234165 199.33333333333331 444.99948497615003 199.33333333333331 445.20885024515 199.33333333333331 C 445.30575368670196 199.33333333333331 445.354205407478 199.33333333333331 445.45110884903 199.33333333333331 C 445.54801229058603 199.33333333333331 445.596464011364 199.33333333333331 445.69336745292 199.33333333333331 C 445.790270894472 199.33333333333331 445.838722615248 199.33333333333331 445.9356260568 199.33333333333331 C 446.03252949835206 199.33333333333331 446.080981219128 199.33333333333331 446.17788466068 199.33333333333331 C 446.27478810223204 199.33333333333331 446.32323982300807 199.33333333333331 446.42014326456 199.33333333333331 C 446.51704670611196 199.33333333333331 446.565498426888 199.33333333333331 446.66240186844 199.33333333333331 C 446.75930530999204 199.33333333333331 446.80775703076796 199.33333333333331 446.90466047232 199.33333333333331 C 447.001563913876 199.33333333333331 447.050015634654 199.33333333333331 447.14691907621 199.33333333333331 C 447.24382251776194 199.33333333333331 447.29227423853797 199.33333333333331 447.38917768009 199.33333333333331 C 447.48608112164203 199.33333333333331 447.53453284241795 199.33333333333331 447.63143628397 199.33333333333331 C 447.728339725522 199.33333333333331 447.77679144629803 199.33333333333331 447.87369488785 199.33333333333331 C 448.00382252673 199.33333333333331 448.06888634616996 199.33333333333331 448.19901398505 199.33333333333331 C 448.262693229274 199.33333333333331 448.29453285138595 199.33333333333331 448.35821209561 199.33333333333331 C 448.455115537162 199.33333333333331 448.503567257938 199.33333333333331 448.60047069949 199.33333333333331 C 448.697374141046 199.33333333333331 448.74582586182396 199.33333333333331 448.84272930338 199.33333333333331 C 448.939632744932 199.33333333333331 448.988084465708 199.33333333333331 449.08498790726 199.33333333333331 C 449.181891348812 199.33333333333331 449.230343069588 199.33333333333331 449.32724651114 199.33333333333331 C 449.424149952692 199.33333333333331 449.4726016734679 199.33333333333331 449.56950511502 199.33333333333331 C 449.679822505196 199.33333333333331 449.734981200284 149.5 449.84529859046 149.5 C 449.928788083388 149.5 449.970532829852 199.33333333333331 450.05402232278 199.33333333333331 C 450.15092576433597 199.33333333333331 450.19937748511404 149.5 450.29628092667 149.5 C 450.493248387302 149.5 450.591732117618 149.5 450.78869957825 149.5 C 451.2700562084859 149.5 451.51073452360396 199.33333333333331 451.99209115384 199.33333333333331 C 452.10653815595595 199.33333333333331 452.16376165701394 199.33333333333331 452.27820865913 199.33333333333331 C 452.357568540118 199.33333333333331 452.39724848061195 149.5 452.4766083616 149.5 C 452.57492385677597 149.5 452.624081604364 199.33333333333331 452.72239709954 199.33333333333331 C 452.89923354312793 199.33333333333331 452.98765176492196 149.5 453.16448820851 149.5 C 453.27715976909803 149.5 453.33349554939207 149.5 453.44616710998 149.5 C 453.52730243249596 149.5 453.56787009375404 149.5 453.64900541627 149.5 C 453.745908857826 149.5 453.794360578604 149.5 453.89126402016 149.5 C 454.29443617226406 149.5 454.49602224831597 199.33333333333331 454.89919440042 199.33333333333331 C 455.514348438756 199.33333333333331 455.82192545792407 199.33333333333331 456.43707949626 199.33333333333331 C 456.678498046004 199.33333333333331 456.79920732087595 149.5 457.04062587062 149.5 C 457.137529312172 149.5 457.185981032948 149.5 457.2828844745 149.5 C 457.379787916052 149.5 457.4282396368279 149.5 457.52514307838 149.5 C 457.622046519932 149.5 457.670498240708 149.5 457.76740168226 149.5 C 457.97676695126 149.5 458.08144958576 199.33333333333331 458.29081485476 199.33333333333331 C 458.3877182963121 199.33333333333331 458.436170017088 199.33333333333331 458.53307345864 199.33333333333331 C 458.629976900192 199.33333333333331 458.678428620968 199.33333333333331 458.77533206252 199.33333333333331 C 458.8566771181801 199.33333333333331 458.89734964601 182.72222222222223 458.97869470167 182.72222222222223 C 459.07559814322195 182.72222222222223 459.124049863998 199.33333333333331 459.22095330555 199.33333333333331 C 459.317856747102 199.33333333333331 459.366308467878 199.33333333333331 459.46321190943 199.33333333333331 C 459.5784126049821 199.33333333333331 459.63601295275805 199.33333333333331 459.75121364831 199.33333333333331 C 459.84751368648995 199.33333333333331 459.89566370558003 199.33333333333331 459.99196374376 199.33333333333331 C 460.089770047236 199.33333333333331 460.138673198974 199.33333333333331 460.23647950245 199.33333333333331 C 460.35832997236594 199.33333333333331 460.419255207324 199.33333333333331 460.54110567724 199.33333333333331 C 460.6134232352 199.33333333333331 460.64958201417994 199.33333333333331 460.72189957214 199.33333333333331 C 460.815403542268 199.33333333333331 460.862155527332 199.33333333333331 460.95565949746 199.33333333333331 C 461.037004553116 199.33333333333331 461.077677080944 199.33333333333331 461.1590221366 199.33333333333331 C 461.271644348216 199.33333333333331 461.32795545402405 199.33333333333331 461.44057766564 199.33333333333331 C 461.521762337132 199.33333333333331 461.562354672878 174.41666666666666 461.64353934437 174.41666666666666 C 461.757570244902 174.41666666666666 461.814585695168 199.33333333333331 461.9286165957 199.33333333333331 C 462.00839257827204 199.33333333333331 462.048280569558 199.33333333333331 462.12805655213 199.33333333333331 C 462.24051837957796 199.33333333333331 462.29674929330196 149.5 462.40921112075 149.5 C 462.507918043018 149.5 462.557271504152 199.33333333333331 462.65597842642 199.33333333333331 C 462.7355200013641 199.33333333333331 462.775290788836 174.41666666666666 462.85483236378 174.41666666666666 C 462.967404104852 174.41666666666666 463.023689975388 199.33333333333331 463.13626171646 199.33333333333331 C 463.217496858492 199.33333333333331 463.258114429508 182.77656599232662 463.33934957154 174.41666666666666 C 463.45181139898403 162.8432326589933 463.50804231270604 149.5 463.62050414015 149.5 C 463.71756908744203 149.5 463.766101561088 199.33333333333331 463.86316650838 199.33333333333331 C 464.15371532730006 199.33333333333331 464.29898973676 149.5 464.58953855568 149.5 C 464.686441997232 149.5 464.734893718008 149.5 464.83179715956 149.5 C 464.928700601112 149.5 464.977152321888 149.5 465.07405576344 149.5 C 465.17095920499605 149.5 465.219410925774 149.5 465.31631436733 149.5 C 465.444594784354 149.5 465.508734992866 199.33333333333331 465.63701540989 199.33333333333331 C 465.70254187597004 199.33333333333331 465.73530510901 149.5 465.80083157509 149.5 C 465.89773501664206 149.5 465.946186737418 179.4 466.04309017897 199.33333333333331 C 466.139993620522 219.26666666666665 466.188445341298 249.16666666666666 466.28534878285 249.16666666666666 C 466.38225222440195 249.16666666666666 466.430703945178 149.5 466.52760738673 149.5 C 466.624510828286 149.5 466.672962549064 149.5 466.76986599062 149.5 C 466.86676943217196 149.5 466.915221152948 49.833333333333314 467.0121245945 49.833333333333314 C 467.10902803605205 49.833333333333314 467.15747975682797 149.5 467.25438319838 149.5 C 467.351286639932 149.5 467.39973836070806 149.5 467.49664180226 149.5 C 467.59354524381195 149.5 467.641996964588 149.5 467.73890040614 149.5 C 467.83580384769203 149.5 467.88425556846795 199.33333333333331 467.98115901002 199.33333333333331 C 468.078062451576 199.33333333333331 468.126514172354 199.33333333333331 468.22341761391 199.33333333333331 C 468.32032105546205 199.33333333333331 468.36877277623796 199.33333333333331 468.46567621779 199.33333333333331 C 468.562579659342 199.33333333333331 468.61103138011805 199.33333333333331 468.70793482167 199.33333333333331 C 468.804838263222 199.33333333333331 468.853289983998 199.33333333333331 468.95019342555 199.33333333333331 C 469.047184349378 199.33333333333331 469.09567981129203 149.5 469.19267073512 149.5 C 469.289486694396 149.5 469.3378946740339 199.33333333333331 469.43471063331 199.33333333333331 C 469.531614074862 199.33333333333331 469.580065795638 199.33333333333331 469.67696923719 199.33333333333331 C 469.773872678746 199.33333333333331 469.82232439952395 199.33333333333331 469.91922784108 199.33333333333331 C 470.016131282632 199.33333333333331 470.064583003408 199.33333333333331 470.16148644496 199.33333333333331 C 470.258389886512 199.33333333333331 470.306841607288 199.33333333333331 470.40374504884 199.33333333333331 C 470.500648490392 199.33333333333331 470.549100211168 199.33333333333331 470.64600365272 199.33333333333331 C 470.742907094272 199.33333333333331 470.791358815048 199.33333333333331 470.8882622566 199.33333333333331 C 470.985165698152 199.33333333333331 471.03361741892803 199.33333333333331 471.13052086048 199.33333333333331 C 471.22758692934 199.33333333333331 471.27611996377 199.33333333333331 471.37318603263 199.33333333333331 C 471.4699268468779 199.33333333333331 471.51829725400205 199.33333333333331 471.61503806825 199.33333333333331 C 471.711941509802 199.33333333333331 471.760393230578 199.33333333333331 471.85729667213 199.33333333333331 C 471.9542001136821 199.33333333333331 472.002651834458 199.33333333333331 472.09955527601 199.33333333333331 C 472.196458717562 199.33333333333331 472.244910438338 199.33333333333331 472.34181387989 199.33333333333331 C 472.46357798909804 199.33333333333331 472.52446004370205 199.33333333333331 472.64622415291 199.33333333333331 C 472.72321976937803 199.33333333333331 472.76171757761205 149.5 472.83871319408 149.5 C 472.930663793064 149.5 472.97663909255607 199.33333333333331 473.06858969154 199.33333333333331 C 473.16549313309207 199.33333333333331 473.213944853868 199.33333333333331 473.31084829542 199.33333333333331 C 473.40775173697205 199.33333333333331 473.4562034577481 199.33333333333331 473.5531068993 199.33333333333331 C 473.65001034085196 199.33333333333331 473.698462061628 199.33333333333331 473.79536550318 199.33333333333331 C 473.89226894473205 199.33333333333331 473.94072066550797 249.16666666666666 474.03762410706 249.16666666666666 C 474.134527548616 249.16666666666666 474.182979269394 199.33333333333331 474.27988271095 199.33333333333331 C 474.37678615250195 199.33333333333331 474.425237873278 199.33333333333331 474.52214131483 199.33333333333331 C 474.62053756287 199.33333333333331 474.66973568689 199.33333333333331 474.76813193493 199.33333333333331 C 474.863542569994 199.33333333333331 474.91124788752603 199.33333333333331 475.00665852259 199.33333333333331 C 475.10356196414193 199.33333333333331 475.15201368491796 199.33333333333331 475.24891712647 199.33333333333331 C 475.345820568022 199.33333333333331 475.39427228879794 199.33333333333331 475.49117573035 199.33333333333331 C 475.60733424464195 199.33333333333331 475.66541350178807 199.33333333333331 475.78157201608 199.33333333333331 C 475.85922038489605 199.33333333333331 475.898044569304 199.33333333333331 475.97569293812 199.33333333333331 C 476.072596379672 199.33333333333331 476.12104810044804 149.5 476.217951542 149.5 C 476.60556530820793 149.5 476.799372191312 199.33333333333331 477.18698595752 199.33333333333331 C 477.462137896288 199.33333333333331 477.59971386567196 174.41666666666666 477.87486580444 174.41666666666666 C 478.18113451498795 174.41666666666666 478.334268870262 199.33333333333331 478.64053758081 199.33333333333331 C 478.73744102236606 199.33333333333331 478.785892743144 199.33333333333331 478.8827961847 199.33333333333331 C 478.97969962625194 199.33333333333331 479.028151347028 199.33333333333331 479.12505478858 199.33333333333331 C 479.221958230132 199.33333333333331 479.270409950908 199.33333333333331 479.36731339246 199.33333333333331 C 479.46421683401206 199.33333333333331 479.512668554788 249.16666666666666 479.60957199634 249.16666666666666 C 479.706475437892 249.16666666666666 479.754927158668 199.33333333333331 479.85183060022 199.33333333333331 C 479.94873404177196 199.33333333333331 479.997185762548 199.33333333333331 480.0940892041 199.33333333333331 C 480.250894450168 199.33333333333331 480.329297073202 199.33333333333331 480.48610231927 199.33333333333331 C 480.52310395631 199.33333333333331 480.54160477483003 149.5 480.57860641187 149.5 C 480.679351222486 149.5 480.729723627794 249.16666666666666 480.83046843841 249.16666666666666 C 480.92353051089793 249.16666666666666 480.970061547142 149.5 481.06312361963 149.5 C 481.16002706118195 149.5 481.208478781958 149.5 481.30538222351 149.5 C 481.40228566506204 149.5 481.45073738583795 199.33333333333331 481.54764082739 199.33333333333331 C 481.644544268946 199.33333333333331 481.692995989724 149.5 481.78989943128 149.5 C 481.88680287283205 149.5 481.93525459360797 149.5 482.03215803516 149.5 C 482.129061476712 149.5 482.17751319748805 149.5 482.27441663904 149.5 C 482.371320080592 149.5 482.41977180136803 149.5 482.51667524292 149.5 C 482.6135786844719 149.5 482.66203040524795 199.33333333333331 482.7589338468 199.33333333333331 C 482.855837288352 199.33333333333331 482.9042890091279 149.5 483.00119245068 149.5 C 483.09809589223596 149.5 483.146547613014 149.5 483.24345105457 149.5 C 483.340354496122 149.5 483.38880621689793 149.5 483.48570965845 149.5 C 483.582613100002 149.5 483.631064820778 149.5 483.72796826233 149.5 C 483.83828565250604 149.5 483.893444347594 149.5 484.00376173777 149.5 C 484.087251230698 149.5 484.12899597716194 149.5 484.21248547009 149.5 C 484.29383052574997 149.5 484.33450305358 149.5 484.41584810924 149.5 C 484.528309936684 149.5 484.58454085040603 149.5 484.69700267785 149.5 C 484.77834773351003 149.5 484.81902026134003 166.07304244363579 484.900365317 174.41666666666666 C 485.01335764592807 186.00637577696912 485.06985381039203 199.33333333333331 485.18284613932 199.33333333333331 C 485.360564135052 199.33333333333331 485.449423132918 199.33333333333331 485.62714112865 199.33333333333331 C 485.73960295609396 199.33333333333331 485.79583386981597 149.5 485.90829569726 149.5 C 486.005199138812 149.5 486.053650859588 149.5 486.15055430114 149.5 C 486.2318993568 149.5 486.27257188463 174.50885677144586 486.35391694029 182.72222222222223 C 486.46999133701 194.4421901047792 486.52802853536997 199.33333333333331 486.64410293209 199.33333333333331 C 486.73739380437 199.33333333333331 486.78403924050997 149.5 486.87733011279 149.5 C 486.97423355434205 149.5 487.0226852751181 149.5 487.11958871667 149.5 C 487.2009337723301 149.5 487.24160630016 149.5 487.32295135582 149.5 C 487.4354131832641 149.5 487.4916440969861 149.5 487.60410592443 149.5 C 487.701773153526 149.5 487.75060676807396 149.5 487.84827399717 149.5 C 487.944413651182 149.5 487.99248347818803 149.5 488.0886231322 149.5 C 488.18994779327204 149.5 488.240610123808 149.5 488.34193478488 149.5 C 488.41885862102 149.5 488.45732053908995 149.5 488.53424437523 149.5 C 488.64670620267407 149.5 488.70293711639596 149.5 488.81539894384 149.5 C 488.91315477677597 149.5 488.96203269324394 149.5 489.05978852618 149.5 C 489.155839576352 149.5 489.203865101438 149.5 489.29991615161 149.5 C 489.39763609438194 149.5 489.44649606576803 149.5 489.54421600854 149.5 C 489.640302948872 149.5 489.68834641903794 149.5 489.78443335937 149.5 C 489.881336800922 149.5 489.929788521698 149.5 490.02669196325 149.5 C 490.123595404802 149.5 490.17204712557793 149.5 490.26895056713 149.5 C 490.365854008682 149.5 490.414305729458 149.5 490.51120917101 149.5 C 490.60811261256606 149.5 490.6565643333441 149.5 490.7534677749 149.5 C 490.850371216452 149.5 490.8988229372279 149.5 490.99572637878 149.5 C 491.092629820332 149.5 491.141081541108 149.5 491.23798498266 149.5 C 491.916309073528 149.5 492.255471118962 149.5 492.93379520983 149.5 C 493.127602092934 149.5 493.22450553448596 149.5 493.41831241759 149.5 C 493.49965747325007 149.5 493.54033000108 149.5 493.62167505674 149.5 C 493.73413688418805 149.5 493.79036779791204 149.5 493.90282962536 149.5 C 494.00050358386 149.5 494.04934056311004 149.5 494.14701452161 149.5 C 494.24314744621404 149.5 494.29121390851594 149.5 494.38734683312 149.5 C 494.565595330332 149.5 494.65471957893806 99.66666666666666 494.83296807615 99.66666666666666 C 494.92987151770205 99.66666666666666 494.97832323847797 174.41666666666666 495.07522668003 174.41666666666666 C 495.482172907142 174.41666666666666 495.685646020698 99.66666666666666 496.09259224781 99.66666666666666 C 496.18572161435407 99.66666666666666 496.232286297626 99.66666666666666 496.32541566417 99.66666666666666 C 496.422319105722 99.66666666666666 496.4707708264979 99.66666666666666 496.56767426805 99.66666666666666 C 496.668617596138 99.66666666666666 496.71908926018205 99.66666666666666 496.82003258827 99.66666666666666 C 496.91289614328997 99.66666666666666 496.95932792080004 99.66666666666666 497.05219147582 99.66666666666666 C 497.343648764504 99.66666666666666 497.48937740884594 99.66666666666666 497.78083469753 99.66666666666666 C 498.167701499714 99.66666666666666 498.36113490080595 99.66666666666666 498.74800170299 99.66666666666666 C 498.844905144542 99.66666666666666 498.893356865318 99.66666666666666 498.99026030687 99.66666666666666 C 499.0871637484221 99.66666666666666 499.135615469198 99.66666666666666 499.23251891075 99.66666666666666 C 499.31386396641 99.66666666666666 499.35453649424 99.66666666666666 499.4358815499 99.66666666666666 C 499.6452468189 99.66666666666666 499.7499294534 99.66666666666666 499.9592947224 99.66666666666666 C 500.056198163952 99.66666666666666 500.104649884728 99.66666666666666 500.20155332628 99.66666666666666 C 500.4767052650441 99.66666666666666 500.614281234426 149.5 500.88943317319 149.5 C 501.195701883742 149.5 501.34883623901806 99.66666666666666 501.65510494957 99.66666666666666 C 501.75200839112205 99.66666666666666 501.80046011189796 99.66666666666666 501.89736355345 99.66666666666666 C 501.994266995002 99.66666666666666 502.04271871577805 99.66666666666666 502.13962215733 99.66666666666666 C 502.23652559888194 99.66666666666666 502.28497731965797 99.66666666666666 502.38188076121 99.66666666666666 C 502.575687644318 99.66666666666666 502.67259108587206 99.66666666666666 502.86639796898 99.66666666666666 C 503.060204852084 99.66666666666666 503.157108293636 99.66666666666666 503.35091517674 99.66666666666666 C 503.447818618292 99.66666666666666 503.496270339068 99.66666666666666 503.59317378062 99.66666666666666 C 504.077690988384 99.66666666666666 504.319949592266 149.5 504.80446680003 149.5 C 505.482790890898 149.5 505.821952936332 149.5 506.5002770272 149.5 C 506.5971804687521 149.5 506.645632189528 149.5 506.74253563108 149.5 C 506.839439072632 149.5 506.887890793408 149.5 506.98479423496 149.5 C 507.17860111806806 149.5 507.275504559622 149.5 507.46931144273 149.5 C 507.566214884282 149.5 507.614666605058 149.5 507.71157004661 149.5 C 507.80847348816206 149.5 507.856925208938 199.33333333333331 507.95382865049 199.33333333333331 C 508.05073209204204 199.33333333333331 508.09918381281807 149.5 508.19608725437 149.5 C 508.29299069592196 149.5 508.341442416698 149.5 508.43834585825 149.5 C 508.53524929980205 149.5 508.58370102057796 199.33333333333331 508.68060446213 199.33333333333331 C 508.777507903686 199.33333333333331 508.825959624464 149.5 508.92286306602 149.5 C 509.01976650757194 149.5 509.068218228348 199.33333333333331 509.1651216699 199.33333333333331 C 509.358928553004 199.33333333333331 509.455831994556 199.33333333333331 509.64963887766 199.33333333333331 C 509.7465423192119 199.33333333333331 509.79499403998796 199.33333333333331 509.89189748154 199.33333333333331 C 510.085704364648 199.33333333333331 510.18260780620204 199.33333333333331 510.37641468931 199.33333333333331 C 510.57022157241397 199.33333333333331 510.667125013966 199.33333333333331 510.86093189707 199.33333333333331 C 511.05473878017403 199.33333333333331 511.151642221726 199.33333333333331 511.34544910483 199.33333333333331 C 511.442352546382 199.33333333333331 511.490804267158 199.33333333333331 511.58770770871 199.33333333333331 C 511.975321474922 199.33333333333331 512.169128358028 199.33333333333331 512.55674212424 199.33333333333331 C 512.750549007344 199.33333333333331 512.847452448896 199.33333333333331 513.041259332 199.33333333333331 C 513.3319696566599 199.33333333333331 513.47732481899 199.33333333333331 513.76803514365 199.33333333333331 C 513.864938585202 199.33333333333331 513.913390305978 199.33333333333331 514.01029374753 199.33333333333331 C 514.301004072186 199.33333333333331 514.446359234514 199.33333333333331 514.73706955917 199.33333333333331 C 515.221586766934 199.33333333333331 515.463845370816 199.33333333333331 515.94836257858 199.33333333333331 C 516.142169461688 199.33333333333331 516.239072903242 199.33333333333331 516.43287978635 199.33333333333331 C 516.529783227902 199.33333333333331 516.578234948678 199.33333333333331 516.67513839023 199.33333333333331 C 517.062752156438 199.33333333333331 517.256559039542 199.33333333333331 517.64417280575 199.33333333333331 C 517.837979688858 199.33333333333331 517.934883130412 199.33333333333331 518.12869001352 199.33333333333331 C 518.2255934550719 199.33333333333331 518.274045175848 199.33333333333331 518.3709486174 199.33333333333331 C 518.564755500504 199.33333333333331 518.661658942056 199.33333333333331 518.85546582516 199.33333333333331 C 519.049272708268 199.33333333333331 519.1461761498219 199.33333333333331 519.33998303293 199.33333333333331 C 519.436886474482 199.33333333333331 519.485338195258 199.33333333333331 519.58224163681 199.33333333333331 C 519.6791450783619 199.33333333333331 519.7275967991379 199.33333333333331 519.82450024069 199.33333333333331 C 519.921403682242 199.33333333333331 519.9698554030181 199.33333333333331 520.06675884457 199.33333333333331 C 520.1636622861221 199.33333333333331 520.2121140068981 199.33333333333331 520.30901744845 199.33333333333331 C 520.405920890002 199.33333333333331 520.454372610778 199.33333333333331 520.55127605233 199.33333333333331 C 520.648179493882 199.33333333333331 520.696631214658 199.33333333333331 520.79353465621 199.33333333333331 C 520.890438097766 199.33333333333331 520.938889818544 199.33333333333331 521.0357932601 199.33333333333331 C 521.132696701652 199.33333333333331 521.1811484224279 199.33333333333331 521.27805186398 199.33333333333331 C 521.374955305532 199.33333333333331 521.423407026308 199.33333333333331 521.52031046786 199.33333333333331 C 521.617213909412 199.33333333333331 521.6656656301881 199.33333333333331 521.76256907174 199.33333333333331 C 521.859472513292 199.33333333333331 521.907924234068 199.33333333333331 522.00482767562 199.33333333333331 C 522.101731117172 199.33333333333331 522.150182837948 199.33333333333331 522.2470862795 199.33333333333331 C 522.343989721056 199.33333333333331 522.392441441834 199.33333333333331 522.48934488339 199.33333333333331 C 522.5862483249421 199.33333333333331 522.634700045718 199.33333333333331 522.73160348727 199.33333333333331 C 523.022313811926 199.33333333333331 523.1676689742541 199.33333333333331 523.45837929891 199.33333333333331 C 523.652186182018 199.33333333333331 523.749089623572 199.33333333333331 523.94289650668 199.33333333333331 C 524.8150274806519 199.33333333333331 525.251092967638 199.33333333333331 526.12322394161 199.33333333333331 C 526.2201273831621 199.33333333333331 526.2685791039379 199.33333333333331 526.36548254549 199.33333333333331 C 526.4623859870419 199.33333333333331 526.5108377078179 199.33333333333331 526.60774114937 199.33333333333331 C 526.704644590926 199.33333333333331 526.753096311704 199.33333333333331 526.84999975326 199.33333333333331 C 526.9469031948121 199.33333333333331 526.995354915588 199.33333333333331 527.09225835714 199.33333333333331 C 527.189161798692 199.33333333333331 527.2376135194679 199.33333333333331 527.33451696102 199.33333333333331 C 527.431420402572 199.33333333333331 527.4798721233481 199.33333333333331 527.5767755649 199.33333333333331 C 527.6736790064521 199.33333333333331 527.7221307272281 199.33333333333331 527.81903416878 199.33333333333331 C 527.915937610332 199.33333333333331 527.964389331108 199.33333333333331 528.06129277266 199.33333333333331 C 528.158196214212 199.33333333333331 528.206647934988 199.33333333333331 528.30355137654 199.33333333333331 C 528.400454818096 199.33333333333331 528.448906538874 199.33333333333331 528.54580998043 199.33333333333331 C 528.6427134219821 199.33333333333331 528.691165142758 199.33333333333331 528.78806858431 199.33333333333331 C 528.884972025862 199.33333333333331 528.933423746638 199.33333333333331 529.03032718819 199.33333333333331 C 529.127230629742 199.33333333333331 529.1756823505181 199.33333333333331 529.27258579207 199.33333333333331 C 529.369489233622 199.33333333333331 529.417940954398 199.33333333333331 529.51484439595 199.33333333333331 C 529.902458162162 199.33333333333331 530.0962650452681 149.5 530.48387881148 149.5 C 530.968396019244 149.5 531.210654623126 149.5 531.69517183089 149.5 C 532.858013129522 149.5 533.4394337788381 199.33333333333331 534.60227507747 199.33333333333331 C 534.699178519022 199.33333333333331 534.7476302397979 199.33333333333331 534.84453368135 199.33333333333331 C 534.941437122902 199.33333333333331 534.989888843678 199.33333333333331 535.08679228523 199.33333333333331 C 535.183695726782 199.33333333333331 535.2321474475581 199.33333333333331 535.32905088911 199.33333333333331 C 535.425954330662 199.33333333333331 535.474406051438 199.33333333333331 535.57130949299 199.33333333333331 C 535.668212934542 199.33333333333331 535.716664655318 199.33333333333331 535.81356809687 199.33333333333331 C 536.007374979978 199.33333333333331 536.1042784215321 199.33333333333331 536.29808530464 199.33333333333331 C 536.394988746192 199.33333333333331 536.443440466968 199.33333333333331 536.54034390852 199.33333333333331 C 536.637247350072 199.33333333333331 536.685699070848 199.33333333333331 536.7826025124 199.33333333333331 C 536.8795059539519 199.33333333333331 536.927957674728 199.33333333333331 537.02486111628 199.33333333333331 C 537.121764557832 199.33333333333331 537.170216278608 199.33333333333331 537.26711972016 199.33333333333331 C 537.3640231617161 199.33333333333331 537.412474882494 199.33333333333331 537.50937832405 199.33333333333331 C 537.606281765602 199.33333333333331 537.654733486378 199.33333333333331 537.75163692793 199.33333333333331 C 537.848540369482 199.33333333333331 537.896992090258 199.33333333333331 537.99389553181 199.33333333333331 C 538.187702414914 199.33333333333331 538.284605856466 199.33333333333331 538.47841273957 199.33333333333331 C 538.5753161811219 199.33333333333331 538.623767901898 199.33333333333331 538.72067134345 199.33333333333331 C 538.8175747850061 199.33333333333331 538.866026505784 149.5 538.96292994734 149.5 C 539.059833388892 149.5 539.1082851096679 199.33333333333331 539.20518855122 199.33333333333331 C 539.3020919927719 199.33333333333331 539.350543713548 199.33333333333331 539.4474471551 199.33333333333331 C 539.5443505966521 199.33333333333331 539.5928023174281 199.33333333333331 539.68970575898 199.33333333333331 C 539.7866092005321 199.33333333333331 539.8350609213079 199.33333333333331 539.93196436286 199.33333333333331 C 540.0288678044119 199.33333333333331 540.0773195251879 199.33333333333331 540.17422296674 199.33333333333331 C 540.271126408296 199.33333333333331 540.319578129074 199.33333333333331 540.41648157063 199.33333333333331 C 540.513385012182 199.33333333333331 540.561836732958 199.33333333333331 540.65874017451 199.33333333333331 C 540.7556436160619 199.33333333333331 540.8040953368379 199.33333333333331 540.90099877839 199.33333333333331 C 540.997902219942 199.33333333333331 541.0463539407181 199.33333333333331 541.14325738227 199.33333333333331 C 541.2401608238221 199.33333333333331 541.2886125445981 199.33333333333331 541.38551598615 199.33333333333331 C 541.482419427702 199.33333333333331 541.530871148478 249.16666666666666 541.62777459003 249.16666666666666 C 541.724678031582 249.16666666666666 541.773129752358 199.33333333333331 541.87003319391 199.33333333333331 C 541.966936635466 199.33333333333331 542.015388356244 249.16666666666666 542.1122917978 249.16666666666666 C 542.209195239352 249.16666666666666 542.2576469601279 249.16666666666666 542.35455040168 249.16666666666666 C 542.451453843232 249.16666666666666 542.499905564008 199.33333333333331 542.59680900556 199.33333333333331 C 542.693712447112 199.33333333333331 542.7421641678881 199.33333333333331 542.83906760944 199.33333333333331 C 542.935971050992 199.33333333333331 542.984422771768 199.33333333333331 543.08132621332 199.33333333333331 C 543.178229654872 199.33333333333331 543.226681375648 199.33333333333331 543.3235848172 199.33333333333331 C 543.420488258756 199.33333333333331 543.468939979534 199.33333333333331 543.56584342109 199.33333333333331 C 543.662746862642 199.33333333333331 543.711198583418 199.33333333333331 543.80810202497 199.33333333333331 C 543.905005466522 199.33333333333331 543.953457187298 199.33333333333331 544.05036062885 199.33333333333331 C 544.147264070402 199.33333333333331 544.195715791178 149.5 544.29261923273 149.5 C 544.3895226742819 149.5 544.437974395058 199.33333333333331 544.53487783661 199.33333333333331 C 544.631781278162 199.33333333333331 544.680232998938 149.5 544.77713644049 149.5 C 544.8740398820461 149.5 544.922491602824 149.5 545.01939504438 149.5 C 545.116298485932 149.5 545.1647502067079 149.5 545.26165364826 149.5 C 545.3585570898119 149.5 545.407008810588 149.5 545.50391225214 149.5 C 545.600815693692 149.5 545.649267414468 149.5 545.74617085602 149.5 C 545.8430742975719 149.5 545.8915260183479 149.5 545.9884294599 149.5 C 546.0853329014519 149.5 546.133784622228 149.5 546.23068806378 149.5 C 546.327591505336 149.5 546.376043226114 149.5 546.47294666767 149.5 C 546.569850109222 149.5 546.618301829998 149.5 546.71520527155 149.5 C 546.8121087131019 149.5 546.8605604338779 149.5 546.95746387543 149.5 C 547.054367316982 149.5 547.1028190377581 149.5 547.19972247931 149.5 C 547.2966259208621 149.5 547.3450776416379 149.5 547.44198108319 149.5 C 547.5388845247419 149.5 547.5873362455179 149.5 547.68423968707 149.5 C 547.781143128626 149.5 547.829594849404 149.5 547.92649829096 149.5 C 548.0234017325121 149.5 548.071853453288 149.5 548.16875689484 149.5 C 548.265660336392 149.5 548.3141120571679 149.5 548.41101549872 149.5 C 548.507918940272 149.5 548.556370661048 149.5 548.6532741026 149.5 C 548.750177544152 149.5 548.7986292649281 149.5 548.89553270648 149.5 C 548.992436148032 149.5 549.040887868808 149.5 549.13779131036 149.5 C 549.234694751912 149.5 549.283146472688 149.5 549.38004991424 149.5 C 549.476953355796 149.5 549.525405076574 149.5 549.62230851813 149.5 C 549.7192119596821 149.5 549.767663680458 149.5 549.86456712201 149.5 C 549.961470563562 149.5 550.009922284338 149.5 550.10682572589 149.5 C 550.203729167442 149.5 550.252180888218 149.5 550.34908432977 149.5 C 550.4459877713219 149.5 550.494439492098 149.5 550.59134293365 149.5 C 550.688246375202 149.5 550.736698095978 149.5 550.83360153753 149.5 C 550.930504979086 149.5 550.9789566998639 99.66666666666666 551.07586014142 99.66666666666666 C 551.172763582972 99.66666666666666 551.221215303748 99.66666666666666 551.3181187453 99.66666666666666 C 551.415022186852 99.66666666666666 551.463473907628 99.66666666666666 551.56037734918 99.66666666666666 C 551.657280790732 99.66666666666666 551.705732511508 99.66666666666666 551.80263595306 99.66666666666666 C 551.8995393946119 99.66666666666666 551.9479911153879 99.66666666666666 552.04489455694 99.66666666666666 C 552.1417979984919 99.66666666666666 552.190249719268 99.66666666666666 552.28715316082 99.66666666666666 C 552.3840566023761 99.66666666666666 552.52941176471 99.66666666666666 552.52941176471 99.66666666666666" class="highcharts-graph" data-z-index="1" stroke="#000000" stroke-width="2" stroke-linejoin="round" stroke-linecap="round"></path></g><g data-z-index="0.1" class="highcharts-markers highcharts-series-0 highcharts-spline-series highcharts-color-0 " transform="translate(32,63) scale(1 1)" clip-path="none"></g></g><text x="300" text-anchor="middle" class="highcharts-title" data-z-index="4" style="color:#333333;font-size:18px;fill:#333333;" y="24"><tspan>Psoriasis Severity Over Time</tspan></text><text x="300" text-anchor="middle" class="highcharts-subtitle" data-z-index="4" style="color:#666666;fill:#666666;" y="46"><tspan>This chart shows how your Psoriasis Severity changes over time.</tspan></text><g class="highcharts-axis-labels highcharts-xaxis-labels " data-z-index="7"><text x="34.378426332972" style="color:#666666;cursor:default;font-size:11px;fill:#666666;" text-anchor="middle" transform="translate(0,0)" y="381" opacity="1">2013</text><text x="122.80281674976" style="color:#666666;cursor:default;font-size:11px;fill:#666666;" text-anchor="middle" transform="translate(0,0)" y="381" opacity="1">2014</text><text x="211.22720716655" style="color:#666666;cursor:default;font-size:11px;fill:#666666;" text-anchor="middle" transform="translate(0,0)" y="381" opacity="1">2015</text><text x="299.65159758334" style="color:#666666;cursor:default;font-size:11px;fill:#666666;" text-anchor="middle" transform="translate(0,0)" y="381" opacity="1">2016</text><text x="388.31824660401" style="color:#666666;cursor:default;font-size:11px;fill:#666666;" text-anchor="middle" transform="translate(0,0)" y="381" opacity="1">2017</text><text x="476.74263702079" style="color:#666666;cursor:default;font-size:11px;fill:#666666;" text-anchor="middle" transform="translate(0,0)" y="381" opacity="1">2018</text><text x="565.16702743758" style="color:#666666;cursor:default;font-size:11px;fill:#666666;" text-anchor="middle" transform="translate(0,0)" y="381" opacity="1">2019</text></g><g class="highcharts-axis-labels highcharts-yaxis-labels " data-z-index="7"><text x="17" style="color:#666666;cursor:default;font-size:11px;fill:#666666;" text-anchor="end" transform="translate(0,0)" y="366" opacity="1">0</text><text x="17" style="color:#666666;cursor:default;font-size:11px;fill:#666666;" text-anchor="end" transform="translate(0,0)" y="316" opacity="1">1</text><text x="17" style="color:#666666;cursor:default;font-size:11px;fill:#666666;" text-anchor="end" transform="translate(0,0)" y="266" opacity="1">2</text><text x="17" style="color:#666666;cursor:default;font-size:11px;fill:#666666;" text-anchor="end" transform="translate(0,0)" y="216" opacity="1">3</text><text x="17" style="color:#666666;cursor:default;font-size:11px;fill:#666666;" text-anchor="end" transform="translate(0,0)" y="166" opacity="1">4</text><text x="17" style="color:#666666;cursor:default;font-size:11px;fill:#666666;" text-anchor="end" transform="translate(0,0)" y="116" opacity="1">5</text><text x="17" style="color:#666666;cursor:default;font-size:11px;fill:#666666;" text-anchor="end" transform="translate(0,0)" y="67" opacity="1">6</text></g><a xlink:href="https://quantimo.do" target="_blank">
                    <text x="590" class="highcharts-credits" text-anchor="end" data-z-index="8"
                          style="cursor:pointer;color:#999999;font-size:9px;fill:#999999;" y="395">https://quantimo.do
                    </text>
                </a></svg>