<?xml version="1.0" standalone="no"?><!DOCTYPE svg PUBLIC "-//W3C//DTD SVG 1.1//EN" "http://www.w3.org/Graphics/SVG/1.1/DTD/svg11.dtd"><svg xmlns:xlink="http://www.w3.org/1999/xlink" version="1.1" class="highcharts-root" style="font-family:&quot;Lucida Grande&quot;, &quot;Lucida Sans Unicode&quot;, Arial, Helvetica, sans-serif;font-size:12px;" xmlns="http://www.w3.org/2000/svg" width="600" height="400"><desc>Created with Highstock 6.2.0</desc><defs><clipPath id="highcharts-f7zddzu-349"><rect x="0" y="0" width="541" height="299" fill="none"></rect></clipPath><clipPath id="highcharts-f7zddzu-692"><rect x="0" y="0" width="541" height="299" fill="none"></rect></clipPath><clipPath id="highcharts-f7zddzu-693"><rect x="49" y="63" width="541" height="299" fill="none"></rect></clipPath></defs><rect fill="#ffffff" class="highcharts-background" x="0" y="0" width="600" height="400" rx="0" ry="0"></rect><rect fill="none" class="highcharts-plot-background" x="49" y="63" width="541" height="299"></rect><g class="highcharts-pane-group" data-z-index="0"></g><g class="highcharts-grid highcharts-xaxis-grid " data-z-index="1"><path fill="none" data-z-index="1" class="highcharts-grid-line" d="M 81.5 63 L 81.5 362" opacity="1"></path><path fill="none" data-z-index="1" class="highcharts-grid-line" d="M 177.5 63 L 177.5 362" opacity="1"></path><path fill="none" data-z-index="1" class="highcharts-grid-line" d="M 272.5 63 L 272.5 362" opacity="1"></path><path fill="none" data-z-index="1" class="highcharts-grid-line" d="M 367.5 63 L 367.5 362" opacity="1"></path><path fill="none" data-z-index="1" class="highcharts-grid-line" d="M 459.5 63 L 459.5 362" opacity="1"></path><path fill="none" data-z-index="1" class="highcharts-grid-line" d="M 554.5 63 L 554.5 362" opacity="1"></path></g><g class="highcharts-grid highcharts-yaxis-grid " data-z-index="1"><path fill="none" stroke="#e6e6e6" stroke-width="1" data-z-index="1" class="highcharts-grid-line" d="M 49 362.5 L 590 362.5" opacity="1"></path><path fill="none" stroke="#e6e6e6" stroke-width="1" data-z-index="1" class="highcharts-grid-line" d="M 49 302.5 L 590 302.5" opacity="1"></path><path fill="none" stroke="#e6e6e6" stroke-width="1" data-z-index="1" class="highcharts-grid-line" d="M 49 242.5 L 590 242.5" opacity="1"></path><path fill="none" stroke="#e6e6e6" stroke-width="1" data-z-index="1" class="highcharts-grid-line" d="M 49 183.5 L 590 183.5" opacity="1"></path><path fill="none" stroke="#e6e6e6" stroke-width="1" data-z-index="1" class="highcharts-grid-line" d="M 49 123.5 L 590 123.5" opacity="1"></path><path fill="none" stroke="#e6e6e6" stroke-width="1" data-z-index="1" class="highcharts-grid-line" d="M 49 62.5 L 590 62.5" opacity="1"></path></g><rect fill="none" class="highcharts-plot-border" data-z-index="1" x="49" y="63" width="541" height="299"></rect><g class="highcharts-axis highcharts-xaxis " data-z-index="2"><path fill="none" class="highcharts-tick" stroke="#ccd6eb" stroke-width="1" d="M 81.5 362 L 81.5 372" opacity="1"></path><path fill="none" class="highcharts-tick" stroke="#ccd6eb" stroke-width="1" d="M 177.5 362 L 177.5 372" opacity="1"></path><path fill="none" class="highcharts-tick" stroke="#ccd6eb" stroke-width="1" d="M 272.5 362 L 272.5 372" opacity="1"></path><path fill="none" class="highcharts-tick" stroke="#ccd6eb" stroke-width="1" d="M 367.5 362 L 367.5 372" opacity="1"></path><path fill="none" class="highcharts-tick" stroke="#ccd6eb" stroke-width="1" d="M 459.5 362 L 459.5 372" opacity="1"></path><path fill="none" class="highcharts-tick" stroke="#ccd6eb" stroke-width="1" d="M 554.5 362 L 554.5 372" opacity="1"></path><path fill="none" class="highcharts-axis-line" stroke="#ccd6eb" stroke-width="1" data-z-index="7" d="M 49 362.5 L 590 362.5"></path></g><g class="highcharts-axis highcharts-yaxis " data-z-index="2"><path fill="none" class="highcharts-axis-line" data-z-index="7" d="M 49 63 L 49 362"></path></g><g class="highcharts-series-group" data-z-index="3"><g data-z-index="0.1" class="highcharts-series highcharts-series-0 highcharts-spline-series highcharts-color-0 " transform="translate(49,63) scale(1 1)" clip-path="url(#highcharts-f7zddzu-692)"><path fill="none" d="M 5.3039215686275 299 C 5.3039215686275 299 6.23716290035078 299 6.8593237881663 299 C 7.481484675981821 299 7.792565119889581 299 8.4147260077051 299 C 9.036886895520661 299 9.34796733942844 299 9.970128227244 299 C 10.5922891150596 299 10.9033695589674 299 11.525530446783 299 C 12.1476913345986 299 12.4587717785064 299 13.080932666322 299 C 13.703093554137599 299 14.014173998045399 299 14.636334885861 299 C 15.258495773676199 299 15.569576217583801 299 16.191737105399 299 C 16.813897993214603 299 17.1249784371224 299 17.747139324938 299 C 18.369300212753597 299 18.680380656661402 299 19.302541544477 299 C 19.924702432292598 299 20.235782876200396 299 20.857943764016 299 C 21.480104651831603 299 21.7911850957394 299 22.413345983555 299 C 23.035506871370597 299 23.346587315278402 299 23.968748203094 299 C 24.5909090909092 299 24.9019895348168 299 25.524150422632 299 C 26.1463113104476 299 26.4573917543554 299 27.079552642171 299 C 27.701713529986602 299 28.0127939738944 299 28.63495486171 299 C 29.2571157495256 299 29.5681961934334 299 30.190357081249 299 C 30.8125179690646 299 31.1235984129724 299 31.745759300788 299 C 32.624561554827196 299 33.063962681846796 299 33.942764935886 299 C 34.3082844574776 299 34.491044218273395 299 34.856563739865 299 C 35.4787246276806 299 35.7898050715884 299 36.411965959404 299 C 37.0341268472196 299 37.3452072911274 299 37.967368178943 299 C 38.5895290667586 299 38.9006095106664 299 39.522770398482 299 C 40.1449312862976 299 40.4560117302054 299 41.078172618021 299 C 41.7003335058366 299 42.0114139497444 299 42.63357483756 299 C 43.2557357253752 299 43.5668161692828 59.80000000000001 44.188977057098 59.80000000000001 C 44.811137944913604 59.80000000000001 45.122218388821395 299 45.744379276637 299 C 46.3665401644526 299 46.67762060836041 299 47.299781496176 299 C 47.921942383991606 299 48.233022827899404 299 48.855183715715 299 C 49.477344603530604 299 49.788425047438395 299 50.410585935254 299 C 51.0327468230696 299 51.34382726697741 299 51.965988154793 299 C 52.5881490426086 299 52.899229486516404 299 53.521390374332 299 C 54.143551262147206 299 54.454631706054805 299 55.07679259387 299 C 55.6989534816856 299 56.010033925593405 299 56.632194813409 299 C 57.2543557012246 299 57.5654361451324 299 58.187597032948 299 C 58.8097579207636 299 59.1208383646714 299 59.742999252487 299 C 60.3651601403026 299 60.676240584210404 299 61.298401472026 299 C 61.9205623598416 299 62.2316428037494 299 62.853803691565 299 C 63.475964579380204 299 63.787045023287796 299 64.409205911103 299 C 65.0313667989186 299 65.34244724282641 299 65.964608130642 299 C 66.5867690184576 299 66.8978494623654 299 67.520010350181 299 C 68.1421712379966 299 68.45325168190439 299 69.07541256972 299 C 69.6975734575356 299 70.00865390144341 299 70.630814789259 299 C 71.2529756770746 299 71.5640561209824 299 72.186217008798 299 C 72.80837789661321 299 73.11945834052081 299 73.741619228336 299 C 74.36378011615162 299 74.67486056005939 299 75.297021447875 299 C 75.91918233569059 299 76.2302627795984 299 76.852423667414 299 C 77.4745845552296 299 77.78566499913741 299 78.407825886953 299 C 79.0299867747686 299 79.3410672186764 299 79.963228106492 299 C 80.58538899430759 299 80.8964694382154 299 81.518630326031 299 C 82.1407912138466 299 82.45187165775441 299 83.07403254557 299 C 83.6961934333852 299 84.0072738772928 299 84.629434765108 299 C 85.25159565292361 299 85.56267609683141 59.80000000000001 86.184836984647 59.80000000000001 C 86.8069978724626 59.80000000000001 87.1180783163704 299 87.740239204186 299 C 88.3624000920016 299 88.6734805359094 299 89.295641423725 299 C 89.91780231154061 299 90.2288827554484 299 90.851043643264 299 C 91.4732045310796 299 91.7842849749874 299 92.406445862803 299 C 93.0286067506182 299 93.3396871945258 299 93.961848082341 299 C 94.5840089701566 299 94.89508941406442 299 95.51725030188 299 C 96.13941118969561 299 96.4504916336034 299 97.072652521419 299 C 97.6948134092346 299 98.0058938531424 299 98.628054740958 299 C 99.2502156287748 299 99.56129607268319 299 100.1834569605 299 C 100.805617848316 299 101.116698292224 299 101.73885918004 299 C 102.361020067852 299 102.672100511758 299 103.29426139957 299 C 103.91642228738601 299 104.227502731294 299 104.84966361911 299 C 105.47182450692601 299 105.78290495083402 299 106.40506583865 299 C 107.02722672646601 299 107.338307170374 299 107.96046805819 299 C 108.582628946006 299 108.89370938991401 299 109.51587027773 299 C 110.138031165546 299 110.44911160945401 299 111.07127249727 299 C 111.693433385086 299 112.004513828994 299 112.62667471681 299 C 113.248835604626 299 113.559916048534 299 114.18207693635 299 C 114.80423782416601 299 115.11531826807399 299 115.73747915589 299 C 116.35964004370199 299 116.670720487608 299 117.29288137542 299 C 117.915042263236 299 118.22612270714399 59.80000000000001 118.84828359496 59.80000000000001 C 119.470444482776 59.80000000000001 119.78152492668399 299 120.4036858145 299 C 121.02584670231599 299 121.33692714622399 299 121.95908803404 299 C 122.58124892185599 299 122.892329365764 299 123.51449025358 299 C 124.13665114139599 299 124.447731585304 299 125.06989247312 299 C 125.692053360936 299 126.003133804844 299 126.62529469266 299 C 127.247455580476 299 127.55853602438401 299 128.1806969122 299 C 128.802857800012 299 129.11393824391797 59.80000000000001 129.73609913173 59.80000000000001 C 130.35826001954598 59.80000000000001 130.669340463454 299 131.29150135127 299 C 131.91366223908602 299 132.22474268299402 299 132.84690357081 299 C 133.469064458626 299 133.780144902534 299 134.40230579035 299 C 135.024466678166 299 135.33554712207402 299 135.95770800989 299 C 136.579868897706 299 136.89094934161398 299 137.51311022943 299 C 138.135271117246 299 138.44635156115402 299 139.06851244897 299 C 139.690673336786 299 140.001753780694 299 140.62391466851 299 C 141.24607555632602 299 141.557156000234 299 142.17931688805 299 C 142.801477775862 299 143.112558219768 299 143.73471910758 299 C 144.356879995396 299 144.66796043930398 299 145.29012132712 299 C 145.912282214936 299 146.223362658844 299 146.84552354666 299 C 147.46768443447598 299 147.778764878384 299 148.4009257662 299 C 149.02308665401603 299 149.334167097924 299 149.95632798574 299 C 150.57848887355598 299 150.889569317464 59.80000000000001 151.51173020528 59.80000000000001 C 152.133891093096 59.80000000000001 152.444971537004 299 153.06713242482 299 C 153.68929331263598 299 154.00037375654398 299 154.62253464436 299 C 155.244695532176 299 155.555775976084 299 156.1779368639 299 C 156.800097751712 299 157.111178195618 299 157.73333908343 299 C 158.355499971246 299 158.666580415154 299 159.28874130297 299 C 159.910902190786 299 160.221982634694 299 160.84414352251 299 C 161.46630441032602 299 161.77738485423401 299 162.39954574205 299 C 163.021706629866 299 163.332787073774 299 163.95494796159 299 C 164.577108849406 299 164.888189293314 299 165.51035018113 299 C 166.132511068946 299 166.44359151285397 299 167.06575240067 299 C 167.687913288486 299 167.998993732394 299 168.62115462021 299 C 169.243315508022 299 169.554395951928 299 170.17655683974 299 C 170.798717727556 299 171.10979817146398 299 171.73195905928 299 C 172.35411994709597 299 172.66520039100402 299 173.28736127882 299 C 173.909522166636 299 174.22060261054398 299 174.84276349836 299 C 175.46492438617602 299 175.776004830084 299 176.3981657179 299 C 177.02032660571598 299 177.33140704962403 299 177.95356793744 299 C 178.57572882525602 299 178.886809269164 299 179.50897015698 299 C 180.131131044796 299 180.442211488704 299 181.06437237652 299 C 181.686533264336 299 181.99761370824402 299 182.61977459606 299 C 183.24193548387203 299 183.553015927778 299 184.17517681559 299 C 184.797337703406 299 185.108418147314 299 185.73057903513 299 C 186.352739922946 299 186.663820366854 299 187.28598125467 299 C 187.90814214248599 299 188.21922258639398 299 188.84138347421 299 C 189.463544362026 299 189.774624805934 299 190.39678569375 299 C 191.018946581566 299 191.330027025474 299 191.95218791329 299 C 192.574348801106 299 192.885429245014 299 193.50759013283 299 C 194.12975102064598 299 194.440831464554 299 195.06299235237 299 C 195.685153240186 299 195.99623368409397 299 196.61839457191 299 C 197.24055545972197 299 197.55163590362798 299 198.17379679144 299 C 198.795957679256 299 199.10703812316402 299 199.72919901098 299 C 200.351359898796 299 200.66244034270397 299 201.28460123052 299 C 201.906762118336 299 202.21784256224402 299 202.84000345006 299 C 203.462164337876 299 203.773244781784 299 204.3954056696 299 C 205.01756655741602 299 205.328647001324 299 205.95080788914 299 C 206.57296877695597 299 206.88404922086403 299 207.50621010868 299 C 208.12837099649602 299 208.43945144040399 299 209.06161232822 299 C 209.68377321603202 299 209.994853659938 299 210.61701454775 299 C 211.23917543556598 299 211.55025587947404 299 212.17241676729 299 C 212.79457765510602 299 213.105658099014 299 213.72781898683 299 C 214.34997987464598 299 214.661060318554 299 215.28322120637 299 C 215.905382094186 299 216.216462538094 299 216.83862342591 299 C 217.46078431372598 299 217.771864757634 299 218.39402564545 299 C 219.016186533266 299 219.32726697717402 299 219.94942786499 299 C 220.571588752806 299 220.882669196714 299 221.50483008453 299 C 222.126990972346 299 222.43807141625402 299 223.06023230407 299 C 223.682393191882 299 223.993473635788 299 224.6156345236 299 C 225.23779541141602 299 225.548875855324 299 226.17103674314 299 C 226.793197630956 299 227.104278074864 299 227.72643896268 299 C 228.348599850496 299 228.659680294404 299 229.28184118222 299 C 229.904002070036 299 230.21508251394397 299 230.83724340176 299 C 231.459404289576 299 231.770484733484 299 232.3926456213 299 C 233.014806509116 299 233.32588695302402 299 233.94804784084 299 C 234.570208728656 299 234.88128917256398 299 235.50345006038 299 C 236.12561094819202 299 236.436691392098 299 237.05885227991 299 C 237.681013167726 299 237.99209361163403 299 238.61425449945 299 C 239.23641538726602 299 239.547495831174 299 240.16965671899 299 C 240.79181760680598 299 241.10289805071403 299 241.72505893853 299 C 242.34721982634602 299 242.658300270254 299 243.28046115807 299 C 243.90262204588598 299 244.213702489794 299 244.83586337761 299 C 245.458024265426 299 245.769104709334 299 246.39126559715 299 C 247.01342648496603 299 247.324506928874 299 247.94666781669 299 C 248.568828704506 299 248.87990914841401 299 249.50207003623 299 C 250.12423092404202 299 250.435311367948 299 251.05747225576 299 C 251.67963314357598 299 251.99071358748398 299 252.6128744753 299 C 253.235035363116 299 253.546115807024 299 254.16827669484 299 C 254.79043758265598 299 255.101518026564 299 255.72367891438 299 C 256.345839802196 299 256.656920246104 299 257.27908113392 299 C 257.901242021736 299 258.212322465644 299 258.83448335346 299 C 259.45664424127597 299 259.767724685184 299 260.389885573 299 C 261.012046460816 299 261.323126904724 299 261.94528779254 299 C 262.567448680356 299 262.878529124264 299 263.50069001208 299 C 264.122850899892 299 264.433931343798 299 265.05609223161 299 C 265.678253119426 299 265.989333563334 299 266.61149445115 299 C 267.233655338966 299 267.544735782874 299 268.16689667069 299 C 268.789057558506 299 269.100138002414 299 269.72229889023 299 C 270.344459778046 299 270.655540221954 299 271.27770110977 299 C 271.899861997586 299 272.210942441494 299 272.83310332931 299 C 273.455264217126 299 273.766344661034 299 274.38850554885 299 C 275.010666436666 299 275.321746880574 299 275.94390776839 299 C 276.566068656202 299 276.877149100108 299 277.49930998792 299 C 278.121470875736 299 278.432551319644 299 279.05471220746 299 C 279.676873095276 299 279.987953539184 299 280.610114427 299 C 281.232275314816 299 281.54335575872403 299 282.16551664654 299 C 282.787677534356 299 283.098757978264 299 283.72091886608 299 C 284.343079753896 299 284.654160197804 299 285.27632108562 299 C 285.898481973436 299 286.209562417344 299 286.83172330516 299 C 287.453884192976 299 287.764964636884 299 288.3871255247 299 C 289.009286412516 299 289.320366856424 299 289.94252774424 299 C 290.564688632052 299 290.875769075958 299 291.49792996377 299 C 292.120090851586 299 292.431171295494 299 293.05333218331 299 C 293.67549307112597 299 293.98657351503397 299 294.60873440285 299 C 295.230895290666 299 295.541975734574 299 296.16413662239 299 C 296.786297510206 299 297.097377954114 299 297.71953884193 299 C 298.341699729746 299 298.652780173654 299 299.27494106147 299 C 299.897101949286 299 300.20818239319397 299 300.83034328101 299 C 301.452504168826 299 301.763584612734 299 302.38574550055 299 C 303.007906388366 299 303.318986832274 299 303.94114772009 299 C 304.56330860790206 299 304.87438905180795 299 305.49654993962 299 C 306.118710827436 299 306.429791271344 299 307.05195215916 299 C 307.674113046976 299 307.985193490884 299 308.6073543787 299 C 309.229515266516 299 309.540595710424 299 310.16275659824 299 C 310.78491748605603 299 311.095997929964 299 311.71815881778 299 C 312.340319705596 299 312.651400149504 299 313.27356103732 299 C 313.895721925136 299 314.206802369044 299 314.82896325686 299 C 315.451124144676 299 315.762204588584 299 316.3843654764 299 C 317.006526364212 299 317.31760680811806 299 317.93976769593 299 C 318.561928583746 299 318.873009027654 299 319.49516991547 299 C 320.117330803286 299 320.428411247194 299 321.05057213501 299 C 321.67273302282604 299 321.98381346673403 299 322.60597435455 299 C 323.228135242366 299 323.539215686274 299 324.16137657409 299 C 324.783537461906 299 325.094617905814 299 325.71677879363 299 C 326.338939681446 299 326.650020125354 299 327.27218101317 299 C 327.894341900986 299 328.20542234489403 299 328.82758323271 299 C 329.449744120526 299 329.760824564434 299 330.38298545225 299 C 331.00514634006197 299 331.316226783968 299 331.93838767178 299 C 332.560548559596 299 332.871629003504 299 333.49378989132 299 C 334.11595077913597 299 334.427031223044 299 335.04919211086 299 C 335.671352998676 299 335.982433442584 59.80000000000001 336.6045943304 59.80000000000001 C 337.226755218216 59.80000000000001 337.537835662124 299 338.15999654994 299 C 338.782157437756 299 339.093237881664 299 339.71539876948 299 C 340.746284796096 299 341.261727809404 59.80000000000001 342.29261383602 59.80000000000001 C 342.506049585036 59.80000000000001 342.612767459544 299 342.82620320856 299 C 343.448364096372 299 343.75944454027797 299 344.38160542809 299 C 345.003766315906 299 345.31484675981403 299 345.93700764763 299 C 346.559168535446 299 346.870248979354 59.80000000000001 347.49240986717 59.80000000000001 C 348.114570754986 59.80000000000001 348.42565119889395 299 349.04781208671 299 C 349.669972974526 299 349.981053418434 299 350.60321430625 299 C 351.225375194066 299 351.536455637974 299 352.15861652579 299 C 352.780777413606 299 353.09185785751396 299 353.71401874533 299 C 354.336179633146 299 354.647260077054 299 355.26942096487 299 C 355.891581852686 299 356.202662296594 299 356.82482318441 299 C 357.566231575722 299 357.936935771378 299 358.67834416269 299 C 359.18125754700606 299 359.432714239164 299 359.93562762348 299 C 360.557788511296 299 360.868868955204 299 361.49102984302 299 C 362.113190730836 299 362.424271174744 299 363.04643206256 299 C 363.668592950376 299 363.97967339428396 299 364.6018342821 299 C 365.223995169916 299 365.535075613824 299 366.15723650164 299 C 366.779397389456 299 367.090477833364 299 367.71263872118 299 C 368.33479960899604 299 368.645880052904 59.80000000000001 369.26804094072 59.80000000000001 C 369.890201828536 59.80000000000001 370.201282272444 299 370.82344316026 299 C 371.44560404807197 299 371.75668449197804 299 372.37884537979 299 C 373.001006267606 299 373.312086711514 299 373.93424759933 299 C 374.55640848714603 299 374.867488931054 299 375.48964981887 299 C 376.111810706686 299 376.422891150594 299 377.04505203841 299 C 377.667212926226 299 377.978293370134 299 378.60045425795 299 C 379.22261514576604 299 379.533695589674 299 380.15585647749 299 C 380.778017365306 299 381.089097809214 299 381.71125869703 299 C 382.333419584846 299 382.644500028754 299 383.26666091657 299 C 383.96832014005 299 384.31914975178995 59.80000000000001 385.02080897527 59.80000000000001 C 385.563471527418 59.80000000000001 385.83480280349204 299 386.37746535564 299 C 386.999626243456 299 387.310706687364 299 387.93286757518 299 C 388.55502846299606 299 388.866108906904 299 389.48826979472 299 C 390.110430682536 299 390.421511126444 299 391.04367201426 299 C 391.665832902076 299 391.97691334598403 299 392.5990742338 299 C 393.2212351216161 299 393.532315565524 299 394.15447645334 299 C 394.776637341156 299 395.087717785064 299 395.70987867288 299 C 396.332039560696 299 396.643120004604 299 397.26528089242 299 C 397.887441780232 299 398.198522224138 299 398.82068311195 299 C 399.442843999766 299 399.753924443674 299 400.37608533149 299 C 400.998246219306 299 401.309326663214 59.80000000000001 401.93148755103 59.80000000000001 C 402.553648438846 59.80000000000001 402.8647288827539 299 403.48688977057 299 C 404.10905065838597 299 404.420131102294 299 405.04229199011 299 C 405.664452877926 299 405.975533321834 299 406.59769420965 299 C 407.219855097466 299 407.53093554137394 299 408.15309642919 299 C 408.775257317006 299 409.086337760914 299 409.70849864873 299 C 410.33065953654597 299 410.64173998045396 299 411.26390086827 299 C 411.88606175608203 299 412.197142199988 59.80000000000001 412.8193030878 59.80000000000001 C 413.441463975616 59.80000000000001 413.75254441952404 299 414.37470530734 299 C 414.996866195156 299 415.30794663906397 299 415.93010752688 299 C 416.552268414696 299 416.86334885860396 299 417.48550974642 299 C 418.107670634236 299 418.41875107814394 299 419.04091196596 299 C 419.663072853776 299 419.974153297684 299 420.5963141855 299 C 421.21847507331603 299 421.52955551722397 299 422.15171640504 299 C 422.773877292856 299 423.08495773676407 59.80000000000001 423.70711862458 59.80000000000001 C 424.32927951239196 59.80000000000001 424.640359956298 299 425.26252084411 299 C 425.884681731926 299 426.195762175834 299 426.81792306365 299 C 427.440083951466 299 427.75116439537396 299 428.37332528319 299 C 428.995486171006 299 429.306566614914 299 429.92872750273 299 C 430.550888390546 299 430.861968834454 299 431.48412972227 299 C 432.10629061008603 299 432.417371053994 299 433.03953194181 299 C 433.661692829626 299 433.972773273534 299 434.59493416135 299 C 435.217095049166 299 435.528175493074 299 436.15033638089 299 C 436.77249726870593 299 437.083577712614 299 437.70573860043 299 C 438.327899488242 299 438.63897993214795 299 439.26114081996 299 C 439.883301707776 299 440.194382151684 299 440.8165430395 299 C 441.43870392731606 299 441.749784371224 299 442.37194525904 299 C 442.99410614685604 299 443.305186590764 299 443.92734747858 299 C 444.549508366396 299 444.860588810304 59.80000000000001 445.48274969812 59.80000000000001 C 446.10491058593595 59.80000000000001 446.415991029844 299 447.03815191766 299 C 447.66031280547605 299 447.971393249384 299 448.5935541372 299 C 449.2157150250159 299 449.526795468924 299 450.14895635674 299 C 450.77111724455597 299 451.082197688464 299 451.70435857628 299 C 452.32651946409203 299 452.637599907998 299 453.25976079581 299 C 453.88192168362605 299 454.193002127534 299 454.81516301535 299 C 455.437323903166 299 455.74840434707403 59.80000000000001 456.37056523489 59.80000000000001 C 456.9927261227061 59.80000000000001 457.303806566614 299 457.92596745443 299 C 458.54812834224595 299 458.859208786154 299 459.48136967397 299 C 460.103530561786 299 460.4146110056939 299 461.03677189351 299 C 461.658932781326 299 461.970013225234 299 462.59217411305 299 C 463.2143350008661 299 463.525415444774 299 464.14757633259 299 C 464.769737220402 299 465.08081766430803 299 465.70297855212 299 C 466.325139439936 299 466.6362198838439 59.80000000000001 467.25838077166 59.80000000000001 C 467.88054165947597 59.80000000000001 468.191622103384 299 468.8137829912 299 C 469.435943879016 299 469.74702432292395 299 470.36918521074 299 C 470.991346098556 299 471.30242654246393 299 471.92458743028 299 C 472.546748318096 299 472.85782876200403 299 473.47998964982 299 C 474.102150537636 299 474.4132309815441 299 475.03539186936 299 C 475.657552757176 299 475.96863320108395 299 476.5907940889 299 C 477.212954976716 299 477.52403542062405 299 478.14619630844 299 C 478.76835719625194 299 479.079437640158 299 479.70159852797 299 C 480.323759415786 299 480.63483985969395 299 481.25700074751 299 C 481.879161635326 299 482.19024207923394 299 482.81240296705 299 C 483.434563854866 299 483.745644298774 299 484.36780518659 299 C 484.989966074406 299 485.30104651831397 299 485.92320740613 299 C 486.545368293946 299 486.85644873785407 299 487.47860962567 299 C 488.100770513486 299 488.411850957394 59.80000000000001 489.03401184521 59.80000000000001 C 489.656172733026 59.80000000000001 489.967253176934 299 490.58941406475 299 C 491.21157495256205 299 491.52265539646794 299 492.14481628428 299 C 492.766977172096 299 493.078057616004 299 493.70021850382 299 C 494.322379391636 299 494.633459835544 299 495.25562072336 299 C 495.87778161117603 299 496.188862055084 299 496.8110229429 299 C 497.433183830716 299 497.744264274624 299 498.36642516244 299 C 498.988586050256 299 499.299666494164 299 499.92182738198 299 C 500.54398826979593 299 500.855068713704 299 501.47722960152 299 C 502.09939048933603 299 502.41047093324397 299 503.03263182106 299 C 503.654792708876 299 503.965873152784 299 504.5880340406 299 C 505.2101949284121 299 505.521275372318 299 506.14343626013 299 C 506.76559714794604 299 507.076677591854 299 507.69883847967 299 C 508.320999367486 299 508.632079811394 299 509.25424069921 299 C 509.87640158702595 299 510.187482030934 299 510.80964291875 299 C 511.43180380656605 299 511.742884250474 299 512.36504513829 299 C 512.987206026106 299 513.298286470014 299 513.92044735783 299 C 514.542608245646 299 514.853688689554 299 515.47584957737 299 C 516.098010465186 299 516.4090909090941 299 517.03125179691 299 C 517.653412684726 299 517.9644931286341 299 518.58665401645 299 C 519.208814904262 299 519.519895348168 299 520.14205623598 299 C 520.764217123796 299 521.075297567704 299 521.69745845552 299 C 522.319619343336 299 522.630699787244 299 523.25286067506 299 C 523.875021562876 299 524.186102006784 299 524.8082628946 299 C 525.430423782416 299 525.741504226324 299 526.36366511414 299 C 526.985826001956 299 527.296906445864 299 527.91906733368 299 C 528.541228221496 299 528.852308665404 299 529.47446955322 299 C 530.096630441036 299 530.407710884944 299 531.02987177276 299 C 531.652032660572 299 531.963113104478 299 532.58527399229 299 C 533.207434880106 299 533.5185153240141 299 534.14067621183 299 C 534.762837099646 299 535.69607843137 299 535.69607843137 299" class="highcharts-graph" data-z-index="1" stroke="#000000" stroke-width="2" stroke-linejoin="round" stroke-linecap="round"></path></g><g data-z-index="0.1" class="highcharts-markers highcharts-series-0 highcharts-spline-series highcharts-color-0 " transform="translate(49,63) scale(1 1)" clip-path="none"></g></g><text x="300" text-anchor="middle" class="highcharts-title" data-z-index="4" style="color:#333333;font-size:18px;fill:#333333;" y="24"><tspan>Humira Over Time</tspan></text><text x="300" text-anchor="middle" class="highcharts-subtitle" data-z-index="4" style="color:#666666;fill:#666666;" y="46"><tspan>This chart shows how your Humira changes over time.</tspan></text><g class="highcharts-axis-labels highcharts-xaxis-labels " data-z-index="7"><text x="84.912310965442" style="color:#666666;cursor:default;font-size:11px;fill:#666666;" text-anchor="middle" transform="translate(0,0)" y="381" opacity="1"><tspan>Jul '12</tspan></text><text x="181.34724857685" style="color:#666666;cursor:default;font-size:11px;fill:#666666;" text-anchor="middle" transform="translate(0,0)" y="381" opacity="1"><tspan>Sep '12</tspan></text><text x="276.22678396872" style="color:#666666;cursor:default;font-size:11px;fill:#666666;" text-anchor="middle" transform="translate(0,0)" y="381" opacity="1"><tspan>Nov '12</tspan></text><text x="371.10631936059" style="color:#666666;cursor:default;font-size:11px;fill:#666666;" text-anchor="middle" transform="translate(0,0)" y="381" opacity="1"><tspan>Jan '13</tspan></text><text x="462.87505031338" style="color:#666666;cursor:default;font-size:11px;fill:#666666;" text-anchor="middle" transform="translate(0,0)" y="381" opacity="1"><tspan>Mar '13</tspan></text><text x="557.75458570525" style="color:#666666;cursor:default;font-size:11px;fill:#666666;" text-anchor="middle" transform="translate(0,0)" y="381" opacity="1"><tspan>May '13</tspan></text></g><g class="highcharts-axis-labels highcharts-yaxis-labels " data-z-index="7"><text x="34" style="color:#666666;cursor:default;font-size:11px;fill:#666666;" text-anchor="end" transform="translate(0,0)" y="366" opacity="1">0</text><text x="34" style="color:#666666;cursor:default;font-size:11px;fill:#666666;" text-anchor="end" transform="translate(0,0)" y="306" opacity="1">0.25</text><text x="34" style="color:#666666;cursor:default;font-size:11px;fill:#666666;" text-anchor="end" transform="translate(0,0)" y="246" opacity="1">0.5</text><text x="34" style="color:#666666;cursor:default;font-size:11px;fill:#666666;" text-anchor="end" transform="translate(0,0)" y="186" opacity="1">0.75</text><text x="34" style="color:#666666;cursor:default;font-size:11px;fill:#666666;" text-anchor="end" transform="translate(0,0)" y="126" opacity="1">1</text><text x="34" style="color:#666666;cursor:default;font-size:11px;fill:#666666;" text-anchor="end" transform="translate(0,0)" y="67" opacity="1">1.25</text></g><a xlink:href="https://quantimo.do" target="_blank">
                    <text x="590" class="highcharts-credits" text-anchor="end" data-z-index="8"
                          style="cursor:pointer;color:#999999;font-size:9px;fill:#999999;" y="395">https://quantimo.do
                    </text>
                </a></svg>