<?xml version="1.0" standalone="no"?><!DOCTYPE svg PUBLIC "-//W3C//DTD SVG 1.1//EN" "http://www.w3.org/Graphics/SVG/1.1/DTD/svg11.dtd"><svg xmlns:xlink="http://www.w3.org/1999/xlink" version="1.1" class="highcharts-root" style="font-family:&quot;Lucida Grande&quot;, &quot;Lucida Sans Unicode&quot;, Arial, Helvetica, sans-serif;font-size:12px;" xmlns="http://www.w3.org/2000/svg" width="600" height="300"><desc>Created with Highstock 6.2.0</desc><defs><clipPath id="highcharts-nic4pwy-30"><rect x="0" y="0" width="488" height="129" fill="none"></rect></clipPath><clipPath id="highcharts-nic4pwy-54"><rect x="0" y="0" width="488" height="129" fill="none"></rect></clipPath><clipPath id="highcharts-nic4pwy-55"><rect x="102" y="99" width="488" height="129" fill="none"></rect></clipPath></defs><rect fill="#ffffff" class="highcharts-background" x="0" y="0" width="600" height="300" rx="0" ry="0"></rect><rect fill="none" class="highcharts-plot-background" x="102" y="99" width="488" height="129"></rect><g class="highcharts-pane-group" data-z-index="0"></g><g class="highcharts-grid highcharts-xaxis-grid " data-z-index="1"><path fill="none" data-z-index="1" class="highcharts-grid-line" d="M 122.5 99 L 122.5 228" opacity="1"></path><path fill="none" data-z-index="1" class="highcharts-grid-line" d="M 143.5 99 L 143.5 228" opacity="1"></path><path fill="none" data-z-index="1" class="highcharts-grid-line" d="M 165.5 99 L 165.5 228" opacity="1"></path><path fill="none" data-z-index="1" class="highcharts-grid-line" d="M 186.5 99 L 186.5 228" opacity="1"></path><path fill="none" data-z-index="1" class="highcharts-grid-line" d="M 207.5 99 L 207.5 228" opacity="1"></path><path fill="none" data-z-index="1" class="highcharts-grid-line" d="M 228.5 99 L 228.5 228" opacity="1"></path><path fill="none" data-z-index="1" class="highcharts-grid-line" d="M 250.5 99 L 250.5 228" opacity="1"></path><path fill="none" data-z-index="1" class="highcharts-grid-line" d="M 271.5 99 L 271.5 228" opacity="1"></path><path fill="none" data-z-index="1" class="highcharts-grid-line" d="M 292.5 99 L 292.5 228" opacity="1"></path><path fill="none" data-z-index="1" class="highcharts-grid-line" d="M 313.5 99 L 313.5 228" opacity="1"></path><path fill="none" data-z-index="1" class="highcharts-grid-line" d="M 334.5 99 L 334.5 228" opacity="1"></path><path fill="none" data-z-index="1" class="highcharts-grid-line" d="M 356.5 99 L 356.5 228" opacity="1"></path><path fill="none" data-z-index="1" class="highcharts-grid-line" d="M 377.5 99 L 377.5 228" opacity="1"></path><path fill="none" data-z-index="1" class="highcharts-grid-line" d="M 398.5 99 L 398.5 228" opacity="1"></path><path fill="none" data-z-index="1" class="highcharts-grid-line" d="M 419.5 99 L 419.5 228" opacity="1"></path><path fill="none" data-z-index="1" class="highcharts-grid-line" d="M 440.5 99 L 440.5 228" opacity="1"></path><path fill="none" data-z-index="1" class="highcharts-grid-line" d="M 462.5 99 L 462.5 228" opacity="1"></path><path fill="none" data-z-index="1" class="highcharts-grid-line" d="M 483.5 99 L 483.5 228" opacity="1"></path><path fill="none" data-z-index="1" class="highcharts-grid-line" d="M 504.5 99 L 504.5 228" opacity="1"></path><path fill="none" data-z-index="1" class="highcharts-grid-line" d="M 525.5 99 L 525.5 228" opacity="1"></path><path fill="none" data-z-index="1" class="highcharts-grid-line" d="M 547.5 99 L 547.5 228" opacity="1"></path><path fill="none" data-z-index="1" class="highcharts-grid-line" d="M 568.5 99 L 568.5 228" opacity="1"></path><path fill="none" data-z-index="1" class="highcharts-grid-line" d="M 589.5 99 L 589.5 228" opacity="1"></path><path fill="none" data-z-index="1" class="highcharts-grid-line" d="M 101.5 99 L 101.5 228" opacity="1"></path></g><g class="highcharts-grid highcharts-yaxis-grid " data-z-index="1"><path fill="none" stroke="#e6e6e6" stroke-width="1" data-z-index="1" class="highcharts-grid-line" d="M 102 228.5 L 590 228.5" opacity="1"></path><path fill="none" stroke="#e6e6e6" stroke-width="1" data-z-index="1" class="highcharts-grid-line" d="M 102 185.5 L 590 185.5" opacity="1"></path><path fill="none" stroke="#e6e6e6" stroke-width="1" data-z-index="1" class="highcharts-grid-line" d="M 102 142.5 L 590 142.5" opacity="1"></path><path fill="none" stroke="#e6e6e6" stroke-width="1" data-z-index="1" class="highcharts-grid-line" d="M 102 98.5 L 590 98.5" opacity="1"></path></g><rect fill="none" class="highcharts-plot-border" data-z-index="1" x="102" y="99" width="488" height="129"></rect><g class="highcharts-axis highcharts-xaxis " data-z-index="2"><path fill="none" class="highcharts-tick" stroke="#ccd6eb" stroke-width="1" d="M 122.5 228 L 122.5 238" opacity="1"></path><path fill="none" class="highcharts-tick" stroke="#ccd6eb" stroke-width="1" d="M 143.5 228 L 143.5 238" opacity="1"></path><path fill="none" class="highcharts-tick" stroke="#ccd6eb" stroke-width="1" d="M 165.5 228 L 165.5 238" opacity="1"></path><path fill="none" class="highcharts-tick" stroke="#ccd6eb" stroke-width="1" d="M 186.5 228 L 186.5 238" opacity="1"></path><path fill="none" class="highcharts-tick" stroke="#ccd6eb" stroke-width="1" d="M 207.5 228 L 207.5 238" opacity="1"></path><path fill="none" class="highcharts-tick" stroke="#ccd6eb" stroke-width="1" d="M 228.5 228 L 228.5 238" opacity="1"></path><path fill="none" class="highcharts-tick" stroke="#ccd6eb" stroke-width="1" d="M 250.5 228 L 250.5 238" opacity="1"></path><path fill="none" class="highcharts-tick" stroke="#ccd6eb" stroke-width="1" d="M 271.5 228 L 271.5 238" opacity="1"></path><path fill="none" class="highcharts-tick" stroke="#ccd6eb" stroke-width="1" d="M 292.5 228 L 292.5 238" opacity="1"></path><path fill="none" class="highcharts-tick" stroke="#ccd6eb" stroke-width="1" d="M 313.5 228 L 313.5 238" opacity="1"></path><path fill="none" class="highcharts-tick" stroke="#ccd6eb" stroke-width="1" d="M 334.5 228 L 334.5 238" opacity="1"></path><path fill="none" class="highcharts-tick" stroke="#ccd6eb" stroke-width="1" d="M 356.5 228 L 356.5 238" opacity="1"></path><path fill="none" class="highcharts-tick" stroke="#ccd6eb" stroke-width="1" d="M 377.5 228 L 377.5 238" opacity="1"></path><path fill="none" class="highcharts-tick" stroke="#ccd6eb" stroke-width="1" d="M 398.5 228 L 398.5 238" opacity="1"></path><path fill="none" class="highcharts-tick" stroke="#ccd6eb" stroke-width="1" d="M 419.5 228 L 419.5 238" opacity="1"></path><path fill="none" class="highcharts-tick" stroke="#ccd6eb" stroke-width="1" d="M 440.5 228 L 440.5 238" opacity="1"></path><path fill="none" class="highcharts-tick" stroke="#ccd6eb" stroke-width="1" d="M 462.5 228 L 462.5 238" opacity="1"></path><path fill="none" class="highcharts-tick" stroke="#ccd6eb" stroke-width="1" d="M 483.5 228 L 483.5 238" opacity="1"></path><path fill="none" class="highcharts-tick" stroke="#ccd6eb" stroke-width="1" d="M 504.5 228 L 504.5 238" opacity="1"></path><path fill="none" class="highcharts-tick" stroke="#ccd6eb" stroke-width="1" d="M 525.5 228 L 525.5 238" opacity="1"></path><path fill="none" class="highcharts-tick" stroke="#ccd6eb" stroke-width="1" d="M 547.5 228 L 547.5 238" opacity="1"></path><path fill="none" class="highcharts-tick" stroke="#ccd6eb" stroke-width="1" d="M 568.5 228 L 568.5 238" opacity="1"></path><path fill="none" class="highcharts-tick" stroke="#ccd6eb" stroke-width="1" d="M 590.5 228 L 590.5 238" opacity="1"></path><path fill="none" class="highcharts-tick" stroke="#ccd6eb" stroke-width="1" d="M 101.5 228 L 101.5 238" opacity="1"></path><text x="346" data-z-index="7" text-anchor="middle" transform="translate(0,0)" class="highcharts-axis-title" style="color:#666666;fill:#666666;" y="280.57716446627535"><tspan>Avg Daily Time Spent On Software Development (Hours)</tspan></text><path fill="none" class="highcharts-axis-line" stroke="#ccd6eb" stroke-width="1" data-z-index="7" d="M 102 228.5 L 590 228.5"></path></g><g class="highcharts-axis highcharts-yaxis " data-z-index="2"><text x="26" data-z-index="7" text-anchor="middle" transform="translate(0,0) rotate(270 26 163.5)" class="highcharts-axis-title" style="color:#666666;fill:#666666;" y="163.5"><tspan>Avg Daily Cardio</tspan><tspan dy="15" x="26">Heart Rate Zone</tspan><tspan dy="15" x="26">(Minutes)</tspan></text><path fill="none" class="highcharts-axis-line" data-z-index="7" d="M 102 99 L 102 228"></path></g><g class="highcharts-series-group" data-z-index="3"><g data-z-index="0.1" class="highcharts-series highcharts-series-0 highcharts-column-series highcharts-color-0 " transform="translate(102,99) scale(1 1)" clip-path="url(#highcharts-nic4pwy-54)"><rect x="5.5" y="100.5" width="11" height="29" fill="#000000" stroke="#ffffff" stroke-width="1" class="highcharts-point highcharts-color-0"></rect><rect x="26.5" y="30.5" width="11" height="99" fill="#000000" stroke="#ffffff" stroke-width="1" class="highcharts-point highcharts-color-0"></rect><rect x="47.5" y="117.5" width="11" height="12" fill="#000000" stroke="#ffffff" stroke-width="1" class="highcharts-point highcharts-color-0"></rect><rect x="68.5" y="95.5" width="11" height="34" fill="#000000" stroke="#ffffff" stroke-width="1" class="highcharts-point highcharts-color-0"></rect><rect x="89.5" y="61.5" width="11" height="68" fill="#000000" stroke="#ffffff" stroke-width="1" class="highcharts-point highcharts-color-0"></rect><rect x="111.5" y="87.5" width="11" height="42" fill="#000000" stroke="#ffffff" stroke-width="1" class="highcharts-point highcharts-color-0"></rect><rect x="132.5" y="83.5" width="11" height="46" fill="#000000" stroke="#ffffff" stroke-width="1" class="highcharts-point highcharts-color-0"></rect><rect x="153.5" y="84.5" width="11" height="45" fill="#000000" stroke="#ffffff" stroke-width="1" class="highcharts-point highcharts-color-0"></rect><rect x="174.5" y="67.5" width="11" height="62" fill="#000000" stroke="#ffffff" stroke-width="1" class="highcharts-point highcharts-color-0"></rect><rect x="195.5" y="72.5" width="11" height="57" fill="#000000" stroke="#ffffff" stroke-width="1" class="highcharts-point highcharts-color-0"></rect><rect x="217.5" y="90.5" width="11" height="39" fill="#000000" stroke="#ffffff" stroke-width="1" class="highcharts-point highcharts-color-0"></rect><rect x="238.5" y="72.5" width="11" height="57" fill="#000000" stroke="#ffffff" stroke-width="1" class="highcharts-point highcharts-color-0"></rect><rect x="259.5" y="89.5" width="11" height="40" fill="#000000" stroke="#ffffff" stroke-width="1" class="highcharts-point highcharts-color-0"></rect><rect x="280.5" y="62.5" width="11" height="67" fill="#000000" stroke="#ffffff" stroke-width="1" class="highcharts-point highcharts-color-0"></rect><rect x="302.5" y="78.5" width="11" height="51" fill="#000000" stroke="#ffffff" stroke-width="1" class="highcharts-point highcharts-color-0"></rect><rect x="323.5" y="91.5" width="11" height="38" fill="#000000" stroke="#ffffff" stroke-width="1" class="highcharts-point highcharts-color-0"></rect><rect x="344.5" y="73.5" width="11" height="56" fill="#000000" stroke="#ffffff" stroke-width="1" class="highcharts-point highcharts-color-0"></rect><rect x="365.5" y="69.5" width="11" height="60" fill="#000000" stroke="#ffffff" stroke-width="1" class="highcharts-point highcharts-color-0"></rect><rect x="386.5" y="70.5" width="11" height="59" fill="#000000" stroke="#ffffff" stroke-width="1" class="highcharts-point highcharts-color-0"></rect><rect x="408.5" y="68.5" width="11" height="61" fill="#000000" stroke="#ffffff" stroke-width="1" class="highcharts-point highcharts-color-0"></rect><rect x="429.5" y="58.5" width="11" height="71" fill="#000000" stroke="#ffffff" stroke-width="1" class="highcharts-point highcharts-color-0"></rect><rect x="450.5" y="49.5" width="11" height="80" fill="#000000" stroke="#ffffff" stroke-width="1" class="highcharts-point highcharts-color-0"></rect><rect x="471.5" y="45.5" width="11" height="84" fill="#000000" stroke="#ffffff" stroke-width="1" class="highcharts-point highcharts-color-0"></rect></g><g data-z-index="0.1" class="highcharts-markers highcharts-series-0 highcharts-column-series highcharts-color-0 " transform="translate(102,99) scale(1 1)" clip-path="none"></g></g><text x="300" text-anchor="middle" class="highcharts-title" data-z-index="4" style="color:#333333;font-size:18px;fill:#333333;" y="24"><tspan>Average Cardio Heart Rate Zone Preceding Time Spent on</tspan><tspan dy="21" x="300">Software Development</tspan></text><text x="300" text-anchor="middle" class="highcharts-subtitle" data-z-index="4" style="color:#666666;fill:#666666;" y="67"><tspan>Typical Cardio Heart Rate Zone seen over the previous 7 days preceding the given Time</tspan><tspan dy="15" x="300">Spent On Software Development value.</tspan></text><g class="highcharts-axis-labels highcharts-xaxis-labels " data-z-index="7"><text x="115.20142051652677" style="color:#666666;cursor:default;font-size:11px;fill:#666666;" text-anchor="end" transform="translate(0,0) rotate(-45 115.20142051652677 244)" y="244" opacity="1">0</text><text x="136.41881182087678" style="color:#666666;cursor:default;font-size:11px;fill:#666666;" text-anchor="end" transform="translate(0,0) rotate(-45 136.41881182087678 244)" y="244" opacity="1">0.01</text><text x="157.63620312521678" style="color:#666666;cursor:default;font-size:11px;fill:#666666;" text-anchor="end" transform="translate(0,0) rotate(-45 157.63620312521678 244)" y="244" opacity="1">0.07</text><text x="178.85359442956678" style="color:#666666;cursor:default;font-size:11px;fill:#666666;" text-anchor="end" transform="translate(0,0) rotate(-45 178.85359442956678 244)" y="244" opacity="1">0.08</text><text x="200.07098573391679" style="color:#666666;cursor:default;font-size:11px;fill:#666666;" text-anchor="end" transform="translate(0,0) rotate(-45 200.07098573391679 244)" y="244" opacity="1">0.09</text><text x="221.2883770382668" style="color:#666666;cursor:default;font-size:11px;fill:#666666;" text-anchor="end" transform="translate(0,0) rotate(-45 221.2883770382668 244)" y="244" opacity="1">0.1</text><text x="242.50576834260679" style="color:#666666;cursor:default;font-size:11px;fill:#666666;" text-anchor="end" transform="translate(0,0) rotate(-45 242.50576834260679 244)" y="244" opacity="1">0.2</text><text x="263.72315964695673" style="color:#666666;cursor:default;font-size:11px;fill:#666666;" text-anchor="end" transform="translate(0,0) rotate(-45 263.72315964695673 244)" y="244" opacity="1">0.3</text><text x="284.9405509513067" style="color:#666666;cursor:default;font-size:11px;fill:#666666;" text-anchor="end" transform="translate(0,0) rotate(-45 284.9405509513067 244)" y="244" opacity="1">0.4</text><text x="306.15794225565674" style="color:#666666;cursor:default;font-size:11px;fill:#666666;" text-anchor="end" transform="translate(0,0) rotate(-45 306.15794225565674 244)" y="244" opacity="1">0.6</text><text x="327.3753335600067" style="color:#666666;cursor:default;font-size:11px;fill:#666666;" text-anchor="end" transform="translate(0,0) rotate(-45 327.3753335600067 244)" y="244" opacity="1">0.8</text><text x="348.59272486434674" style="color:#666666;cursor:default;font-size:11px;fill:#666666;" text-anchor="end" transform="translate(0,0) rotate(-45 348.59272486434674 244)" y="244" opacity="1">0.9</text><text x="369.8101161686967" style="color:#666666;cursor:default;font-size:11px;fill:#666666;" text-anchor="end" transform="translate(0,0) rotate(-45 369.8101161686967 244)" y="244" opacity="1">1</text><text x="391.02750747304674" style="color:#666666;cursor:default;font-size:11px;fill:#666666;" text-anchor="end" transform="translate(0,0) rotate(-45 391.02750747304674 244)" y="244" opacity="1">2</text><text x="412.2448987773967" style="color:#666666;cursor:default;font-size:11px;fill:#666666;" text-anchor="end" transform="translate(0,0) rotate(-45 412.2448987773967 244)" y="244" opacity="1">3</text><text x="433.46229008174674" style="color:#666666;cursor:default;font-size:11px;fill:#666666;" text-anchor="end" transform="translate(0,0) rotate(-45 433.46229008174674 244)" y="244" opacity="1">4</text><text x="454.6796813860867" style="color:#666666;cursor:default;font-size:11px;fill:#666666;" text-anchor="end" transform="translate(0,0) rotate(-45 454.6796813860867 244)" y="244" opacity="1">5</text><text x="475.89707269043674" style="color:#666666;cursor:default;font-size:11px;fill:#666666;" text-anchor="end" transform="translate(0,0) rotate(-45 475.89707269043674 244)" y="244" opacity="1">6</text><text x="497.1144639947867" style="color:#666666;cursor:default;font-size:11px;fill:#666666;" text-anchor="end" transform="translate(0,0) rotate(-45 497.1144639947867 244)" y="244" opacity="1">7</text><text x="518.3318552991368" style="color:#666666;cursor:default;font-size:11px;fill:#666666;" text-anchor="end" transform="translate(0,0) rotate(-45 518.3318552991368 244)" y="244" opacity="1">8</text><text x="539.5492466034768" style="color:#666666;cursor:default;font-size:11px;fill:#666666;" text-anchor="end" transform="translate(0,0) rotate(-45 539.5492466034768 244)" y="244" opacity="1">9</text><text x="560.7666379078267" style="color:#666666;cursor:default;font-size:11px;fill:#666666;" text-anchor="end" transform="translate(0,0) rotate(-45 560.7666379078267 244)" y="244" opacity="1">10</text><text x="581.9840292121768" style="color:#666666;cursor:default;font-size:11px;fill:#666666;" text-anchor="end" transform="translate(0,0) rotate(-45 581.9840292121768 244)" y="244" opacity="1">20</text></g><g class="highcharts-axis-labels highcharts-yaxis-labels " data-z-index="7"><text x="87" style="color:#666666;cursor:default;font-size:11px;fill:#666666;" text-anchor="end" transform="translate(0,0)" y="232" opacity="1">0</text><text x="87" style="color:#666666;cursor:default;font-size:11px;fill:#666666;" text-anchor="end" transform="translate(0,0)" y="189" opacity="1">100</text><text x="87" style="color:#666666;cursor:default;font-size:11px;fill:#666666;" text-anchor="end" transform="translate(0,0)" y="146" opacity="1">200</text><text x="87" style="color:#666666;cursor:default;font-size:11px;fill:#666666;" text-anchor="end" transform="translate(0,0)" y="103" opacity="1">300</text></g><a xlink:href="https://quantimo.do" target="_blank">
                    <text x="590" class="highcharts-credits" text-anchor="end" data-z-index="8"
                          style="cursor:pointer;color:#999999;font-size:9px;fill:#999999;" y="295">https://quantimo.do
                    </text>
                </a></svg>