<?xml version="1.0" standalone="no"?><!DOCTYPE svg PUBLIC "-//W3C//DTD SVG 1.1//EN" "http://www.w3.org/Graphics/SVG/1.1/DTD/svg11.dtd"><svg xmlns:xlink="http://www.w3.org/1999/xlink" version="1.1" class="highcharts-root" style="font-family:&quot;Lucida Grande&quot;, &quot;Lucida Sans Unicode&quot;, Arial, Helvetica, sans-serif;font-size:12px;" xmlns="http://www.w3.org/2000/svg" width="600" height="400"><desc>Created with Highstock 6.2.0</desc><defs><clipPath id="highcharts-f81s5sz-135"><rect x="0" y="0" width="532" height="263" fill="none"></rect></clipPath><clipPath id="highcharts-f81s5sz-264"><rect x="0" y="0" width="532" height="263" fill="none"></rect></clipPath><clipPath id="highcharts-f81s5sz-265"><rect x="58" y="78" width="532" height="263" fill="none"></rect></clipPath></defs><rect fill="#ffffff" class="highcharts-background" x="0" y="0" width="600" height="400" rx="0" ry="0"></rect><rect fill="none" class="highcharts-plot-background" x="58" y="78" width="532" height="263"></rect><g class="highcharts-pane-group" data-z-index="0"></g><g class="highcharts-grid highcharts-xaxis-grid " data-z-index="1"><path fill="none" data-z-index="1" class="highcharts-grid-line" d="M 142.5 78 L 142.5 341" opacity="1"></path><path fill="none" data-z-index="1" class="highcharts-grid-line" d="M 243.5 78 L 243.5 341" opacity="1"></path><path fill="none" data-z-index="1" class="highcharts-grid-line" d="M 344.5 78 L 344.5 341" opacity="1"></path><path fill="none" data-z-index="1" class="highcharts-grid-line" d="M 445.5 78 L 445.5 341" opacity="1"></path><path fill="none" data-z-index="1" class="highcharts-grid-line" d="M 546.5 78 L 546.5 341" opacity="1"></path></g><g class="highcharts-grid highcharts-yaxis-grid " data-z-index="1"><path fill="none" stroke="#e6e6e6" stroke-width="1" data-z-index="1" class="highcharts-grid-line" d="M 58 341.5 L 590 341.5" opacity="1"></path><path fill="none" stroke="#e6e6e6" stroke-width="1" data-z-index="1" class="highcharts-grid-line" d="M 58 288.5 L 590 288.5" opacity="1"></path><path fill="none" stroke="#e6e6e6" stroke-width="1" data-z-index="1" class="highcharts-grid-line" d="M 58 236.5 L 590 236.5" opacity="1"></path><path fill="none" stroke="#e6e6e6" stroke-width="1" data-z-index="1" class="highcharts-grid-line" d="M 58 183.5 L 590 183.5" opacity="1"></path><path fill="none" stroke="#e6e6e6" stroke-width="1" data-z-index="1" class="highcharts-grid-line" d="M 58 131.5 L 590 131.5" opacity="1"></path><path fill="none" stroke="#e6e6e6" stroke-width="1" data-z-index="1" class="highcharts-grid-line" d="M 58 77.5 L 590 77.5" opacity="1"></path></g><rect fill="none" class="highcharts-plot-border" data-z-index="1" x="58" y="78" width="532" height="263"></rect><g class="highcharts-axis highcharts-xaxis " data-z-index="2"><path fill="none" class="highcharts-tick" stroke="#ccd6eb" stroke-width="1" d="M 142.5 341 L 142.5 351" opacity="1"></path><path fill="none" class="highcharts-tick" stroke="#ccd6eb" stroke-width="1" d="M 243.5 341 L 243.5 351" opacity="1"></path><path fill="none" class="highcharts-tick" stroke="#ccd6eb" stroke-width="1" d="M 344.5 341 L 344.5 351" opacity="1"></path><path fill="none" class="highcharts-tick" stroke="#ccd6eb" stroke-width="1" d="M 445.5 341 L 445.5 351" opacity="1"></path><path fill="none" class="highcharts-tick" stroke="#ccd6eb" stroke-width="1" d="M 546.5 341 L 546.5 351" opacity="1"></path><text x="324" data-z-index="7" text-anchor="middle" transform="translate(0,0)" class="highcharts-axis-title" style="color:#666666;fill:#666666;" y="381"><tspan>Calories Burned (kcal) over previous 7 days</tspan></text><path fill="none" class="highcharts-axis-line" stroke="#ccd6eb" stroke-width="1" data-z-index="7" d="M 58 341.5 L 590 341.5"></path></g><g class="highcharts-axis highcharts-yaxis " data-z-index="2"><text x="26" data-z-index="7" text-anchor="middle" transform="translate(0,0) rotate(270 26 209.5)" class="highcharts-axis-title" style="color:#666666;fill:#666666;" y="209.5"><tspan>Sleep Duration (h)</tspan></text><path fill="none" class="highcharts-axis-line" data-z-index="7" d="M 58 78 L 58 341"></path></g><g class="highcharts-series-group" data-z-index="3"><g data-z-index="0.1" class="highcharts-series highcharts-series-0 highcharts-scatter-series highcharts-color-0 " transform="translate(58,78) scale(1 1)" clip-path="url(#highcharts-f81s5sz-264)"></g><g data-z-index="0.1" class="highcharts-markers highcharts-series-0 highcharts-scatter-series highcharts-color-0 " transform="translate(58,78) scale(1 1)" clip-path="none"><path fill="#000000" d="M 328 113 A 4 4 0 1 1 327.9999980000002 112.99600000066667 Z" class="highcharts-point highcharts-color-0"></path><path fill="#000000" d="M 337 105 A 4 4 0 1 1 336.9999980000002 104.99600000066667 Z" class="highcharts-point highcharts-color-0"></path><path fill="#000000" d="M 480 149 A 4 4 0 1 1 479.9999980000002 148.99600000066667 Z" class="highcharts-point highcharts-color-0"></path><path fill="#000000" d="M 367 117 A 4 4 0 1 1 366.9999980000002 116.99600000066667 Z" class="highcharts-point highcharts-color-0"></path><path fill="#000000" d="M 371 120 A 4 4 0 1 1 370.9999980000002 119.99600000066667 Z" class="highcharts-point highcharts-color-0"></path><path fill="#000000" d="M 399 106 A 4 4 0 1 1 398.9999980000002 105.99600000066667 Z" class="highcharts-point highcharts-color-0"></path><path fill="#000000" d="M 322 108 A 4 4 0 1 1 321.9999980000002 107.99600000066667 Z" class="highcharts-point highcharts-color-0"></path><path fill="#000000" d="M 341 102 A 4 4 0 1 1 340.9999980000002 101.99600000066667 Z" class="highcharts-point highcharts-color-0"></path><path fill="#000000" d="M 456 102 A 4 4 0 1 1 455.9999980000002 101.99600000066667 Z" class="highcharts-point highcharts-color-0"></path><path fill="#000000" d="M 324 80 A 4 4 0 1 1 323.9999980000002 79.99600000066667 Z" class="highcharts-point highcharts-color-0"></path><path fill="#000000" d="M 496 78 A 4 4 0 1 1 495.9999980000002 77.99600000066667 Z" class="highcharts-point highcharts-color-0"></path><path fill="#000000" d="M 326 83 A 4 4 0 1 1 325.9999980000002 82.99600000066667 Z" class="highcharts-point highcharts-color-0"></path><path fill="#000000" d="M 333 79 A 4 4 0 1 1 332.9999980000002 78.99600000066667 Z" class="highcharts-point highcharts-color-0"></path><path fill="#000000" d="M 486 79 A 4 4 0 1 1 485.9999980000002 78.99600000066667 Z" class="highcharts-point highcharts-color-0"></path><path fill="#000000" d="M 296 81 A 4 4 0 1 1 295.9999980000002 80.99600000066667 Z" class="highcharts-point highcharts-color-0"></path><path fill="#000000" d="M 427 96 A 4 4 0 1 1 426.9999980000002 95.99600000066667 Z" class="highcharts-point highcharts-color-0"></path><path fill="#000000" d="M 312 106 A 4 4 0 1 1 311.9999980000002 105.99600000066667 Z" class="highcharts-point highcharts-color-0"></path><path fill="#000000" d="M 326 115 A 4 4 0 1 1 325.9999980000002 114.99600000066667 Z" class="highcharts-point highcharts-color-0"></path><path fill="#000000" d="M 306 110 A 4 4 0 1 1 305.9999980000002 109.99600000066667 Z" class="highcharts-point highcharts-color-0"></path><path fill="#000000" d="M 335 119 A 4 4 0 1 1 334.9999980000002 118.99600000066667 Z" class="highcharts-point highcharts-color-0"></path><path fill="#000000" d="M 318 121 A 4 4 0 1 1 317.9999980000002 120.99600000066667 Z" class="highcharts-point highcharts-color-0"></path><path fill="#000000" d="M 427 122 A 4 4 0 1 1 426.9999980000002 121.99600000066667 Z" class="highcharts-point highcharts-color-0"></path><path fill="#000000" d="M 345 137 A 4 4 0 1 1 344.9999980000002 136.99600000066667 Z" class="highcharts-point highcharts-color-0"></path><path fill="#000000" d="M 326 115 A 4 4 0 1 1 325.9999980000002 114.99600000066667 Z" class="highcharts-point highcharts-color-0"></path><path fill="#000000" d="M 333 112 A 4 4 0 1 1 332.9999980000002 111.99600000066667 Z" class="highcharts-point highcharts-color-0"></path><path fill="#000000" d="M 337 102 A 4 4 0 1 1 336.9999980000002 101.99600000066667 Z" class="highcharts-point highcharts-color-0"></path><path fill="#000000" d="M 302 110 A 4 4 0 1 1 301.9999980000002 109.99600000066667 Z" class="highcharts-point highcharts-color-0"></path><path fill="#000000" d="M 361 124 A 4 4 0 1 1 360.9999980000002 123.99600000066667 Z" class="highcharts-point highcharts-color-0"></path><path fill="#000000" d="M 296 130 A 4 4 0 1 1 295.9999980000002 129.99600000066667 Z" class="highcharts-point highcharts-color-0"></path><path fill="#000000" d="M 300 119 A 4 4 0 1 1 299.9999980000002 118.99600000066667 Z" class="highcharts-point highcharts-color-0"></path><path fill="#000000" d="M 328 144 A 4 4 0 1 1 327.9999980000002 143.99600000066667 Z" class="highcharts-point highcharts-color-0"></path><path fill="#000000" d="M 294 179 A 4 4 0 1 1 293.9999980000002 178.99600000066667 Z" class="highcharts-point highcharts-color-0"></path><path fill="#000000" d="M 290 202 A 4 4 0 1 1 289.9999980000002 201.99600000066667 Z" class="highcharts-point highcharts-color-0"></path><path fill="#000000" d="M 318 196 A 4 4 0 1 1 317.9999980000002 195.99600000066667 Z" class="highcharts-point highcharts-color-0"></path><path fill="#000000" d="M 314 204 A 4 4 0 1 1 313.9999980000002 203.99600000066667 Z" class="highcharts-point highcharts-color-0"></path><path fill="#000000" d="M 314 211 A 4 4 0 1 1 313.9999980000002 210.99600000066667 Z" class="highcharts-point highcharts-color-0"></path><path fill="#000000" d="M 282 233 A 4 4 0 1 1 281.9999980000002 232.99600000066667 Z" class="highcharts-point highcharts-color-0"></path><path fill="#000000" d="M 308 231 A 4 4 0 1 1 307.9999980000002 230.99600000066667 Z" class="highcharts-point highcharts-color-0"></path><path fill="#000000" d="M 361 198 A 4 4 0 1 1 360.9999980000002 197.99600000066667 Z" class="highcharts-point highcharts-color-0"></path><path fill="#000000" d="M 290 200 A 4 4 0 1 1 289.9999980000002 199.99600000066667 Z" class="highcharts-point highcharts-color-0"></path><path fill="#000000" d="M 316 207 A 4 4 0 1 1 315.9999980000002 206.99600000066667 Z" class="highcharts-point highcharts-color-0"></path><path fill="#000000" d="M 274 192 A 4 4 0 1 1 273.9999980000002 191.99600000066667 Z" class="highcharts-point highcharts-color-0"></path><path fill="#000000" d="M 306 196 A 4 4 0 1 1 305.9999980000002 195.99600000066667 Z" class="highcharts-point highcharts-color-0"></path><path fill="#000000" d="M 292 165 A 4 4 0 1 1 291.9999980000002 164.99600000066667 Z" class="highcharts-point highcharts-color-0"></path><path fill="#000000" d="M 357 158 A 4 4 0 1 1 356.9999980000002 157.99600000066667 Z" class="highcharts-point highcharts-color-0"></path><path fill="#000000" d="M 312 167 A 4 4 0 1 1 311.9999980000002 166.99600000066667 Z" class="highcharts-point highcharts-color-0"></path><path fill="#000000" d="M 456 154 A 4 4 0 1 1 455.9999980000002 153.99600000066667 Z" class="highcharts-point highcharts-color-0"></path><path fill="#000000" d="M 328 172 A 4 4 0 1 1 327.9999980000002 171.99600000066667 Z" class="highcharts-point highcharts-color-0"></path><path fill="#000000" d="M 312 179 A 4 4 0 1 1 311.9999980000002 178.99600000066667 Z" class="highcharts-point highcharts-color-0"></path><path fill="#000000" d="M 308 157 A 4 4 0 1 1 307.9999980000002 156.99600000066667 Z" class="highcharts-point highcharts-color-0"></path><path fill="#000000" d="M 314 177 A 4 4 0 1 1 313.9999980000002 176.99600000066667 Z" class="highcharts-point highcharts-color-0"></path><path fill="#000000" d="M 399 165 A 4 4 0 1 1 398.9999980000002 164.99600000066667 Z" class="highcharts-point highcharts-color-0"></path><path fill="#000000" d="M 458 158 A 4 4 0 1 1 457.9999980000002 157.99600000066667 Z" class="highcharts-point highcharts-color-0"></path><path fill="#000000" d="M 341 139 A 4 4 0 1 1 340.9999980000002 138.99600000066667 Z" class="highcharts-point highcharts-color-0"></path><path fill="#000000" d="M 296 109 A 4 4 0 1 1 295.9999980000002 108.99600000066667 Z" class="highcharts-point highcharts-color-0"></path><path fill="#000000" d="M 345 95 A 4 4 0 1 1 344.9999980000002 94.99600000066667 Z" class="highcharts-point highcharts-color-0"></path><path fill="#000000" d="M 365 99 A 4 4 0 1 1 364.9999980000002 98.99600000066667 Z" class="highcharts-point highcharts-color-0"></path><path fill="#000000" d="M 280 109 A 4 4 0 1 1 279.9999980000002 108.99600000066667 Z" class="highcharts-point highcharts-color-0"></path><path fill="#000000" d="M 252 107 A 4 4 0 1 1 251.99999800000018 106.99600000066667 Z" class="highcharts-point highcharts-color-0"></path><path fill="#000000" d="M 288 98 A 4 4 0 1 1 287.9999980000002 97.99600000066667 Z" class="highcharts-point highcharts-color-0"></path><path fill="#000000" d="M 387 120 A 4 4 0 1 1 386.9999980000002 119.99600000066667 Z" class="highcharts-point highcharts-color-0"></path><path fill="#000000" d="M 401 131 A 4 4 0 1 1 400.9999980000002 130.99600000066667 Z" class="highcharts-point highcharts-color-0"></path><path fill="#000000" d="M 308 141 A 4 4 0 1 1 307.9999980000002 140.99600000066667 Z" class="highcharts-point highcharts-color-0"></path><path fill="#000000" d="M 387 145 A 4 4 0 1 1 386.9999980000002 144.99600000066667 Z" class="highcharts-point highcharts-color-0"></path><path fill="#000000" d="M 498 130 A 4 4 0 1 1 497.9999980000002 129.99600000066667 Z" class="highcharts-point highcharts-color-0"></path><path fill="#000000" d="M 300 131 A 4 4 0 1 1 299.9999980000002 130.99600000066667 Z" class="highcharts-point highcharts-color-0"></path><path fill="#000000" d="M 9 150 A 4 4 0 1 1 8.999998000000167 149.99600000066667 Z" class="highcharts-point highcharts-color-0"></path><path fill="#000000" d="M 57 134 A 4 4 0 1 1 56.99999800000017 133.99600000066667 Z" class="highcharts-point highcharts-color-0"></path><path fill="#000000" d="M 286 118 A 4 4 0 1 1 285.9999980000002 117.99600000066667 Z" class="highcharts-point highcharts-color-0"></path><path fill="#000000" d="M 402 122 A 4 4 0 1 1 401.9999980000002 121.99600000066667 Z" class="highcharts-point highcharts-color-0"></path><path fill="#000000" d="M 244 126 A 4 4 0 1 1 243.99999800000018 125.99600000066667 Z" class="highcharts-point highcharts-color-0"></path><path fill="#000000" d="M 387 125 A 4 4 0 1 1 386.9999980000002 124.99600000066667 Z" class="highcharts-point highcharts-color-0"></path><path fill="#000000" d="M 296 142 A 4 4 0 1 1 295.9999980000002 141.99600000066667 Z" class="highcharts-point highcharts-color-0"></path><path fill="#000000" d="M 393 144 A 4 4 0 1 1 392.9999980000002 143.99600000066667 Z" class="highcharts-point highcharts-color-0"></path><path fill="#000000" d="M 315 117 A 4 4 0 1 1 314.9999980000002 116.99600000066667 Z" class="highcharts-point highcharts-color-0"></path><path fill="#000000" d="M 364 140 A 4 4 0 1 1 363.9999980000002 139.99600000066667 Z" class="highcharts-point highcharts-color-0"></path><path fill="#000000" d="M 272 158 A 4 4 0 1 1 271.9999980000002 157.99600000066667 Z" class="highcharts-point highcharts-color-0"></path><path fill="#000000" d="M 196 172 A 4 4 0 1 1 195.99999800000018 171.99600000066667 Z" class="highcharts-point highcharts-color-0"></path><path fill="#000000" d="M 189 179 A 4 4 0 1 1 188.99999800000018 178.99600000066667 Z" class="highcharts-point highcharts-color-0"></path><path fill="#000000" d="M 234 178 A 4 4 0 1 1 233.99999800000018 177.99600000066667 Z" class="highcharts-point highcharts-color-0"></path><path fill="#000000" d="M 220 191 A 4 4 0 1 1 219.99999800000018 190.99600000066667 Z" class="highcharts-point highcharts-color-0"></path><path fill="#000000" d="M 448 184 A 4 4 0 1 1 447.9999980000002 183.99600000066667 Z" class="highcharts-point highcharts-color-0"></path><path fill="#000000" d="M 476 182 A 4 4 0 1 1 475.9999980000002 181.99600000066667 Z" class="highcharts-point highcharts-color-0"></path><path fill="#000000" d="M 212 176 A 4 4 0 1 1 211.99999800000018 175.99600000066667 Z" class="highcharts-point highcharts-color-0"></path><path fill="#000000" d="M 210 168 A 4 4 0 1 1 209.99999800000018 167.99600000066667 Z" class="highcharts-point highcharts-color-0"></path><path fill="#000000" d="M 391 175 A 4 4 0 1 1 390.9999980000002 174.99600000066667 Z" class="highcharts-point highcharts-color-0"></path><path fill="#000000" d="M 303 171 A 4 4 0 1 1 302.9999980000002 170.99600000066667 Z" class="highcharts-point highcharts-color-0"></path><path fill="#000000" d="M 211 164 A 4 4 0 1 1 210.99999800000018 163.99600000066667 Z" class="highcharts-point highcharts-color-0"></path><path fill="#000000" d="M 168 168 A 4 4 0 1 1 167.99999800000018 167.99600000066667 Z" class="highcharts-point highcharts-color-0"></path><path fill="#000000" d="M 55 179 A 4 4 0 1 1 54.99999800000017 178.99600000066667 Z" class="highcharts-point highcharts-color-0"></path><path fill="#000000" d="M 171 169 A 4 4 0 1 1 170.99999800000018 168.99600000066667 Z" class="highcharts-point highcharts-color-0"></path><path fill="#000000" d="M 213 163 A 4 4 0 1 1 212.99999800000018 162.99600000066667 Z" class="highcharts-point highcharts-color-0"></path><path fill="#000000" d="M 366 156 A 4 4 0 1 1 365.9999980000002 155.99600000066667 Z" class="highcharts-point highcharts-color-0"></path><path fill="#000000" d="M 225 150 A 4 4 0 1 1 224.99999800000018 149.99600000066667 Z" class="highcharts-point highcharts-color-0"></path><path fill="#000000" d="M 296 151 A 4 4 0 1 1 295.9999980000002 150.99600000066667 Z" class="highcharts-point highcharts-color-0"></path><path fill="#000000" d="M 255 142 A 4 4 0 1 1 254.99999800000018 141.99600000066667 Z" class="highcharts-point highcharts-color-0"></path><path fill="#000000" d="M 308 142 A 4 4 0 1 1 307.9999980000002 141.99600000066667 Z" class="highcharts-point highcharts-color-0"></path><path fill="#000000" d="M 443 132 A 4 4 0 1 1 442.9999980000002 131.99600000066667 Z" class="highcharts-point highcharts-color-0"></path><path fill="#000000" d="M 328 115 A 4 4 0 1 1 327.9999980000002 114.99600000066667 Z" class="highcharts-point highcharts-color-0"></path><path fill="#000000" d="M 362 105 A 4 4 0 1 1 361.9999980000002 104.99600000066667 Z" class="highcharts-point highcharts-color-0"></path><path fill="#000000" d="M 222 111 A 4 4 0 1 1 221.99999800000018 110.99600000066667 Z" class="highcharts-point highcharts-color-0"></path><path fill="#000000" d="M 407 111 A 4 4 0 1 1 406.9999980000002 110.99600000066667 Z" class="highcharts-point highcharts-color-0"></path><path fill="#000000" d="M 309 140 A 4 4 0 1 1 308.9999980000002 139.99600000066667 Z" class="highcharts-point highcharts-color-0"></path><path fill="#000000" d="M 530 151 A 4 4 0 1 1 529.9999980000001 150.99600000066667 Z" class="highcharts-point highcharts-color-0"></path><path fill="#000000" d="M 120 150 A 4 4 0 1 1 119.99999800000016 149.99600000066667 Z" class="highcharts-point highcharts-color-0"></path><path fill="#000000" d="M 489 144 A 4 4 0 1 1 488.9999980000002 143.99600000066667 Z" class="highcharts-point highcharts-color-0"></path><path fill="#000000" d="M 407 157 A 4 4 0 1 1 406.9999980000002 156.99600000066667 Z" class="highcharts-point highcharts-color-0"></path><path fill="#000000" d="M 304 122 A 4 4 0 1 1 303.9999980000002 121.99600000066667 Z" class="highcharts-point highcharts-color-0"></path><path fill="#000000" d="M 306 132 A 4 4 0 1 1 305.9999980000002 131.99600000066667 Z" class="highcharts-point highcharts-color-0"></path><path fill="#000000" d="M 47 109 A 4 4 0 1 1 46.99999800000017 108.99600000066667 Z" class="highcharts-point highcharts-color-0"></path><path fill="#000000" d="M 395 89 A 4 4 0 1 1 394.9999980000002 88.99600000066667 Z" class="highcharts-point highcharts-color-0"></path><path fill="#000000" d="M 522 90 A 4 4 0 1 1 521.9999980000001 89.99600000066667 Z" class="highcharts-point highcharts-color-0"></path><path fill="#000000" d="M 419 104 A 4 4 0 1 1 418.9999980000002 103.99600000066667 Z" class="highcharts-point highcharts-color-0"></path><path fill="#000000" d="M 339 92 A 4 4 0 1 1 338.9999980000002 91.99600000066667 Z" class="highcharts-point highcharts-color-0"></path><path fill="#000000" d="M 268 114 A 4 4 0 1 1 267.9999980000002 113.99600000066667 Z" class="highcharts-point highcharts-color-0"></path><path fill="#000000" d="M 296 129 A 4 4 0 1 1 295.9999980000002 128.99600000066667 Z" class="highcharts-point highcharts-color-0"></path><path fill="#000000" d="M 120 92 A 4 4 0 1 1 119.99999800000016 91.99600000066667 Z" class="highcharts-point highcharts-color-0"></path><path fill="#000000" d="M 375 50 A 4 4 0 1 1 374.9999980000002 49.99600000066666 Z" class="highcharts-point highcharts-color-0"></path><path fill="#000000" d="M 310 46 A 4 4 0 1 1 309.9999980000002 45.99600000066666 Z" class="highcharts-point highcharts-color-0"></path><path fill="#000000" d="M 189 27 A 4 4 0 1 1 188.99999800000018 26.996000000666665 Z" class="highcharts-point highcharts-color-0"></path><path fill="#000000" d="M 307 50 A 4 4 0 1 1 306.9999980000002 49.99600000066666 Z" class="highcharts-point highcharts-color-0"></path><path fill="#000000" d="M 423 54 A 4 4 0 1 1 422.9999980000002 53.99600000066666 Z" class="highcharts-point highcharts-color-0"></path><path fill="#000000" d="M 279 46 A 4 4 0 1 1 278.9999980000002 45.99600000066666 Z" class="highcharts-point highcharts-color-0"></path><path fill="#000000" d="M 427 76 A 4 4 0 1 1 426.9999980000002 75.99600000066667 Z" class="highcharts-point highcharts-color-0"></path><path fill="#000000" d="M 322 117 A 4 4 0 1 1 321.9999980000002 116.99600000066667 Z" class="highcharts-point highcharts-color-0"></path><path fill="#000000" d="M 245 131 A 4 4 0 1 1 244.99999800000018 130.99600000066667 Z" class="highcharts-point highcharts-color-0"></path><path fill="#000000" d="M 421 149 A 4 4 0 1 1 420.9999980000002 148.99600000066667 Z" class="highcharts-point highcharts-color-0"></path><path fill="#000000" d="M 155 109 A 4 4 0 1 1 154.99999800000018 108.99600000066667 Z" class="highcharts-point highcharts-color-0"></path></g></g><text x="300" text-anchor="middle" class="highcharts-title" data-z-index="4" style="color:#333333;font-size:18px;fill:#333333;" y="24"><tspan>Sleep Duration Following Calories Burned</tspan></text><text x="300" text-anchor="middle" class="highcharts-subtitle" data-z-index="4" style="color:#666666;fill:#666666;" y="46"><tspan>An increase in 7 days cumulative Calories Burned is usually followed by an increase in Sleep</tspan><tspan dy="15" x="300">Duration. (R = 0.153)</tspan></text><g class="highcharts-axis-labels highcharts-xaxis-labels " data-z-index="7"><text x="142.62571846978" style="color:#666666;cursor:default;font-size:11px;fill:#666666;" text-anchor="middle" transform="translate(0,0)" y="360" opacity="1">1000</text><text x="243.61010355701" style="color:#666666;cursor:default;font-size:11px;fill:#666666;" text-anchor="middle" transform="translate(0,0)" y="360" opacity="1">1500</text><text x="344.59448864423" style="color:#666666;cursor:default;font-size:11px;fill:#666666;" text-anchor="middle" transform="translate(0,0)" y="360" opacity="1">2000</text><text x="445.57887373146" style="color:#666666;cursor:default;font-size:11px;fill:#666666;" text-anchor="middle" transform="translate(0,0)" y="360" opacity="1">2500</text><text x="546.56325881869" style="color:#666666;cursor:default;font-size:11px;fill:#666666;" text-anchor="middle" transform="translate(0,0)" y="360" opacity="1">3000</text></g><g class="highcharts-axis-labels highcharts-yaxis-labels " data-z-index="7"><text x="43" style="color:#666666;cursor:default;font-size:11px;fill:#666666;" text-anchor="end" transform="translate(0,0)" y="345" opacity="1">4</text><text x="43" style="color:#666666;cursor:default;font-size:11px;fill:#666666;" text-anchor="end" transform="translate(0,0)" y="292" opacity="1">5</text><text x="43" style="color:#666666;cursor:default;font-size:11px;fill:#666666;" text-anchor="end" transform="translate(0,0)" y="239" opacity="1">6</text><text x="43" style="color:#666666;cursor:default;font-size:11px;fill:#666666;" text-anchor="end" transform="translate(0,0)" y="187" opacity="1">7</text><text x="43" style="color:#666666;cursor:default;font-size:11px;fill:#666666;" text-anchor="end" transform="translate(0,0)" y="134" opacity="1">8</text><text x="43" style="color:#666666;cursor:default;font-size:11px;fill:#666666;" text-anchor="end" transform="translate(0,0)" y="82" opacity="1">9</text></g><a xlink:href="https://quantimo.do" target="_blank">
                    <text x="590" class="highcharts-credits" text-anchor="end" data-z-index="8"
                          style="cursor:pointer;color:#999999;font-size:9px;fill:#999999;" y="395">https://quantimo.do
                    </text>
                </a></svg>