<?xml version="1.0" standalone="no"?><!DOCTYPE svg PUBLIC "-//W3C//DTD SVG 1.1//EN" "http://www.w3.org/Graphics/SVG/1.1/DTD/svg11.dtd"><svg xmlns:xlink="http://www.w3.org/1999/xlink" version="1.1" class="highcharts-root" style="font-family:&quot;Lucida Grande&quot;, &quot;Lucida Sans Unicode&quot;, Arial, Helvetica, sans-serif;font-size:12px;" xmlns="http://www.w3.org/2000/svg" width="600" height="400"><desc>Created with Highstock 6.2.0</desc><defs><clipPath id="highcharts-6g8erh6-563"><rect x="0" y="0" width="478" height="260" fill="none"></rect></clipPath><clipPath id="highcharts-6g8erh6-841"><rect x="0" y="0" width="478" height="260" fill="none"></rect></clipPath><clipPath id="highcharts-6g8erh6-1119"><rect x="0" y="0" width="478" height="260" fill="none"></rect></clipPath><clipPath id="highcharts-6g8erh6-1120"><rect x="64" y="63" width="478" height="260" fill="none"></rect></clipPath></defs><rect fill="#ffffff" class="highcharts-background" x="0" y="0" width="600" height="400" rx="0" ry="0"></rect><rect fill="none" class="highcharts-plot-background" x="64" y="63" width="478" height="260"></rect><g class="highcharts-pane-group" data-z-index="0"></g><g class="highcharts-grid highcharts-xaxis-grid " data-z-index="1"><path fill="none" data-z-index="1" class="highcharts-grid-line" d="M 135.5 63 L 135.5 323" opacity="1"></path><path fill="none" data-z-index="1" class="highcharts-grid-line" d="M 248.5 63 L 248.5 323" opacity="1"></path><path fill="none" data-z-index="1" class="highcharts-grid-line" d="M 361.5 63 L 361.5 323" opacity="1"></path><path fill="none" data-z-index="1" class="highcharts-grid-line" d="M 471.5 63 L 471.5 323" opacity="1"></path></g><g class="highcharts-grid highcharts-yaxis-grid " data-z-index="1"><path fill="none" stroke="#e6e6e6" stroke-width="1" data-z-index="1" class="highcharts-grid-line" d="M 64 323.5 L 542 323.5" opacity="1"></path><path fill="none" stroke="#e6e6e6" stroke-width="1" data-z-index="1" class="highcharts-grid-line" d="M 64 258.5 L 542 258.5" opacity="1"></path><path fill="none" stroke="#e6e6e6" stroke-width="1" data-z-index="1" class="highcharts-grid-line" d="M 64 193.5 L 542 193.5" opacity="1"></path><path fill="none" stroke="#e6e6e6" stroke-width="1" data-z-index="1" class="highcharts-grid-line" d="M 64 128.5 L 542 128.5" opacity="1"></path><path fill="none" stroke="#e6e6e6" stroke-width="1" data-z-index="1" class="highcharts-grid-line" d="M 64 62.5 L 542 62.5" opacity="1"></path></g><g class="highcharts-grid highcharts-yaxis-grid " data-z-index="1"><path fill="none" stroke="#e6e6e6" stroke-width="1" data-z-index="1" class="highcharts-grid-line" d="M 64 323.5 L 542 323.5" opacity="1"></path><path fill="none" stroke="#e6e6e6" stroke-width="1" data-z-index="1" class="highcharts-grid-line" d="M 64 258.5 L 542 258.5" opacity="1"></path><path fill="none" stroke="#e6e6e6" stroke-width="1" data-z-index="1" class="highcharts-grid-line" d="M 64 193.5 L 542 193.5" opacity="1"></path><path fill="none" stroke="#e6e6e6" stroke-width="1" data-z-index="1" class="highcharts-grid-line" d="M 64 128.5 L 542 128.5" opacity="1"></path><path fill="none" stroke="#e6e6e6" stroke-width="1" data-z-index="1" class="highcharts-grid-line" d="M 64 62.5 L 542 62.5" opacity="1"></path></g><rect fill="none" class="highcharts-plot-border" data-z-index="1" x="64" y="63" width="478" height="260"></rect><g class="highcharts-axis highcharts-xaxis " data-z-index="2"><path fill="none" class="highcharts-tick" stroke="#ccd6eb" stroke-width="1" d="M 135.5 323 L 135.5 333" opacity="1"></path><path fill="none" class="highcharts-tick" stroke="#ccd6eb" stroke-width="1" d="M 248.5 323 L 248.5 333" opacity="1"></path><path fill="none" class="highcharts-tick" stroke="#ccd6eb" stroke-width="1" d="M 361.5 323 L 361.5 333" opacity="1"></path><path fill="none" class="highcharts-tick" stroke="#ccd6eb" stroke-width="1" d="M 471.5 323 L 471.5 333" opacity="1"></path><path fill="none" class="highcharts-axis-line" stroke="#ccd6eb" stroke-width="1" data-z-index="7" d="M 64 323.5 L 542 323.5"></path></g><g class="highcharts-axis highcharts-yaxis " data-z-index="2"><text x="26" data-z-index="7" text-anchor="middle" transform="translate(0,0) rotate(270 26 193)" class="highcharts-axis-title" style="color:#666666;fill:#666666;" y="193"><tspan>MEAN CaloriesOut (kcal)</tspan></text><path fill="none" class="highcharts-axis-line" stroke="#ccd6eb" stroke-width="1" data-z-index="7" d="M 63.5 63 L 63.5 323"></path></g><g class="highcharts-axis highcharts-yaxis " data-z-index="2"><text x="574" data-z-index="7" text-anchor="middle" transform="translate(0,0) rotate(90 574 193)" class="highcharts-axis-title" style="color:#666666;fill:#666666;" y="193"><tspan>MEAN Overall Mood (/5)</tspan></text><path fill="none" class="highcharts-axis-line" stroke="#ccd6eb" stroke-width="1" data-z-index="7" d="M 542.5 63 L 542.5 323"></path></g><g class="highcharts-series-group" data-z-index="3"><g data-z-index="0.1" class="highcharts-series highcharts-series-0 highcharts-spline-series highcharts-color-0 " transform="translate(64,63) scale(1 1)" clip-path="url(#highcharts-6g8erh6-841)"><path fill="none" d="M 4.6862745098039 140.075 C 4.6862745098039 140.075 6.8944666871984595 106.02800000000026 8.3665948054615 87.035 C 8.85730417821582 80.70400000000025 9.10265886459298 76.76499999999999 9.5933682373473 76.76499999999999 C 10.08407761010158 76.76499999999999 10.32943229647872 105.56 10.820141669233 105.56 C 11.3108510419874 105.56 11.5562057283646 96.954 12.046915101119 88.26999999999998 C 12.5376244738734 79.58599999999998 12.7829791602506 62.139999999999986 13.273688533005 62.139999999999986 C 13.7643979057594 62.139999999999986 14.009752592136602 85.475 14.500461964891 85.475 C 14.991171337645401 85.475 15.2365260240226 75.33499999999998 15.727235396777 75.33499999999998 C 16.217944769530998 75.33499999999998 16.463299455908004 101.85499999999996 16.954008828662 102.11499999999998 C 17.4447182014164 102.375 17.690072887793598 102.11499999999998 18.180782260548 102.375 C 18.671491633302402 102.63500000000002 18.9168463196796 132.6 19.407555692434 132.6 C 19.8982650651884 132.6 20.1436197515656 116.64900000000003 20.63432912432 108.16 C 21.1250384970744 99.67100000000002 21.370393183451604 90.155 21.861102556206 90.155 C 22.3518119289604 90.155 22.5971666153376 135.52499999999998 23.087875988092 135.52499999999998 C 23.578585360846 135.52499999999998 23.823940047222997 108.09499999999997 24.314649419977 100.35999999999999 C 24.805358792731397 92.625 25.0507134791086 100.35999999999999 25.541422851863 92.625 C 26.032132224617396 84.89000000000001 26.2774869109946 58.75999999999999 26.768196283749 58.75999999999999 C 27.258905656503394 58.75999999999999 27.504260342880606 81.61400000000005 27.994969715635 95.095 C 28.4856790883894 108.57600000000005 28.731033774766605 126.16499999999999 29.221743147521 126.16499999999999 C 29.7124525202754 126.16499999999999 29.957807206652596 52.25999999999999 30.448516579407 52.25999999999999 C 30.939225952160996 52.25999999999999 31.184580638538 54.522000000003274 31.675290011292 62.465 C 32.1659993840464 70.40800000000328 32.4113540704236 78.52 32.902063443178 91.975 C 33.3927728159324 105.42999999999999 33.6381275023096 129.74 34.128836875064 129.74 C 34.619546247818406 129.74 34.8649009341956 77.285 35.35561030695 77.285 C 35.8463196797044 77.285 36.0916743660816 111.73499999999999 36.582383738836 111.73499999999999 C 38.0545118570988 111.73499999999999 38.790575916230196 105.7874999999996 40.262704034493 100.035 C 40.7534134072474 98.1174999999996 40.9987680936246 95.39400000000002 41.489477466379 92.56 C 41.980186839133395 89.72600000000001 42.2255415255106 89.349 42.716250898265 85.86499999999998 C 43.2069602710194 82.381 43.4523149573966 75.13999999999999 43.943024330151 75.13999999999999 C 44.4337337029054 75.13999999999999 44.6790883892826 145.14499999999998 45.169797762037 145.14499999999998 C 45.660507134791395 145.14499999999998 45.90586182116861 118.78100000000425 46.396571193923 108.095 C 46.887280566677006 97.40900000000426 47.132635253054005 102.90799999999538 47.623344625808 91.715 C 48.114053998562405 80.52199999999539 48.359408684939595 52.129999999999995 48.850118057694 52.129999999999995 C 49.34082743044839 52.129999999999995 49.586182116825604 70.785 50.07689148958 76.44 C 50.5676008623344 82.095 50.8129555487116 78.41599999999994 51.303664921466 82.095 C 51.79437429422039 85.77399999999994 52.0397289805976 89.27100000000002 52.530438353352 94.83500000000001 C 53.02114772610639 100.399 53.266502412483604 102.11499999999688 53.757211785238 109.91499999999999 C 54.247921157992 117.71499999999688 54.493275844368995 133.83499999999998 54.983985217123 133.83499999999998 C 55.4746945898774 133.83499999999998 55.7200492762546 90.35 56.210758649009 90.35 C 56.701468021763404 90.35 56.9468227081406 91.13 57.437532080895 91.13 C 57.9282414536494 91.13 58.173596140026596 87.88 58.664305512781 87.88 C 59.1550148855354 87.88 59.4003695719126 120.445 59.891078944667 120.445 C 60.381788317421396 120.445 60.627143003798594 82.03 61.117852376553 82.03 C 61.6085617493074 82.03 61.853916435684596 130.84499999999997 62.344625808439 134.355 C 62.835335181193 137.865 63.080689867569994 137.865 63.571399240324 137.865 C 64.0621086130784 137.865 64.30746329945559 64.285 64.79817267221 64.285 C 65.28888204496441 64.285 65.53423673134161 80.34 66.024946104096 80.34 C 66.51565547685041 80.34 66.76101016322761 76.76499999999999 67.251719535982 76.76499999999999 C 67.7424289087364 76.76499999999999 67.9877835951136 114.595 68.478492967868 128.31 C 68.96920234062239 142.02499999999998 69.21455702699959 145.33999999999997 69.705266399754 145.33999999999997 C 70.19597577250799 145.33999999999997 70.441330458885 127.51699999999421 70.932039831639 113.29499999999999 C 71.4227492043934 99.07299999999422 71.6681038907706 84.95500000000015 72.158813263525 74.22999999999999 C 72.6495226362794 63.505000000000145 72.89487732265661 59.66999999999999 73.385586695411 59.66999999999999 C 73.8762960681654 59.66999999999999 74.1216507545426 76.72600000000008 74.612360127297 84.04499999999999 C 75.1030695000514 91.36400000000009 75.3484241864286 93.97328571428545 75.839133559183 96.26499999999999 C 78.783389795709 110.01528571428548 80.255517913972 124.15 83.199774150498 124.15 C 83.6904835232524 124.15 83.93583820962961 85.15 84.426547582384 84.63 C 84.91725695513841 84.10999999999999 85.16261164151561 84.10999999999999 85.65332101427 84.10999999999999 C 86.144030387024 84.10999999999999 86.389385073401 84.10999999999999 86.880094446155 90.805 C 87.3708038189094 97.50000000000003 87.6161585052866 118.96300000000015 88.106867878041 128.635 C 88.59757725079541 138.30700000000013 88.84293193717261 139.165 89.333641309927 139.165 C 89.82435068268141 139.165 90.0697053690586 75.26999999999998 90.560414741813 74.42499999999998 C 91.05112411456739 73.57999999999998 91.2964788009446 74.22999999999998 91.787188173699 73.57999999999998 C 92.27789754645339 72.92999999999998 92.5232522328306 71.17499999999998 93.013961605585 71.17499999999998 C 93.504670978339 71.17499999999998 93.75002566471599 71.17499999999998 94.24073503747 73.64499999999998 C 94.7314444102244 76.11499999999998 94.9767990966016 91.25999999999999 95.467508469356 91.25999999999999 C 104.7909865516896 91.25999999999999 109.45272559285641 82.35499999999999 118.77620367519 82.35499999999999 C 119.26691304794198 82.35499999999999 119.51226773431799 138.06 120.00297710707 138.06 C 120.49368647982598 138.06 120.73904116620402 83.39499999999998 121.22975053896 83.39499999999998 C 121.72045991171201 83.39499999999998 121.96581459808799 129.15500000000003 122.45652397084 133.12 C 122.94723334359601 137.08499999999998 123.19258802997402 137.08499999999998 123.68329740273 137.08499999999998 C 124.174006775486 137.08499999999998 124.41936146186399 126.555 124.91007083462 126.555 C 125.40078020737201 126.555 125.64613489374801 130.585 126.1368442665 130.585 C 126.627553639256 130.585 126.87290832563401 82.87499999999997 127.36361769839 79.36499999999998 C 127.85432707114201 75.85499999999999 128.099681757518 75.85499999999999 128.59039113027 75.85499999999999 C 129.081100503026 75.85499999999999 129.32645518940402 95.41999999999999 129.81716456216 101.91999999999999 C 130.30787393491602 108.41999999999999 130.553228621294 108.41999999999999 131.04393799405 108.41999999999999 C 131.53464736680198 108.41999999999999 131.78000205317798 106.46999999997054 132.27071142593 99.255 C 132.761420798686 92.03999999997053 133.006775485064 72.345 133.49748485782 72.345 C 133.988194230572 72.345 134.233548916948 80.98999999999998 134.7242582897 80.98999999999998 C 135.214967662456 80.98999999999998 135.460322348834 76.18 135.95103172159 76.18 C 136.441741094342 76.18 136.68709578071798 80.08000000000001 137.17780515347 80.34 C 137.668514526226 80.6 137.913869212604 80.34 138.40457858536 80.6 C 138.89528795811603 80.85999999999999 139.140642644494 144.625 139.63135201725 144.625 C 140.122061390002 144.625 140.367416076378 144.625 140.85812544913 139.49 C 141.348834821886 134.35500000000002 141.594189508264 89.76500000000001 142.08489888102 87.815 C 142.575608253772 85.86499999999998 142.820962940148 85.86499999999998 143.3116723129 85.86499999999998 C 143.802381685656 85.86499999999998 144.047736372034 93.92499999999998 144.53844574479 93.92499999999998 C 145.029155117546 93.92499999999998 145.274509803924 93.39200000001412 145.76521917668 89.96000000000001 C 146.25592854943199 86.52800000001412 146.501283235808 76.76499999999999 146.99199260856 76.76499999999999 C 147.48270198131598 76.76499999999999 147.728056667694 112.775 148.21876604045 112.775 C 148.70947541320203 112.775 148.95483009957803 110.82499999999999 149.44553947233 110.82499999999999 C 149.93624884508603 110.82499999999999 150.181603531464 114.78999999999999 150.67231290422 114.78999999999999 C 151.16302227697602 114.78999999999999 151.408376963354 85.215 151.89908633611 85.215 C 152.38979570886198 85.215 152.63515039523799 88.91999999999999 153.12585976799 88.91999999999999 C 153.61656914074598 88.91999999999999 153.861923827124 72.28 154.35263319988 72.28 C 154.843342572632 72.28 155.088697259008 104.78 155.57940663176 104.78 C 156.07011600451602 104.78 156.31547069089402 89.04999999999998 156.80618006365 89.04999999999998 C 157.29688943640198 89.04999999999998 157.542244122778 117.13 158.03295349553 117.13 C 158.52366286828598 117.13 158.769017554664 98.81299999999999 159.25972692742 90.47999999999999 C 159.75043630017598 82.14699999999999 159.995790986554 75.465 160.48650035931 75.465 C 160.97720973206202 75.465 161.22256441843803 85.01999999999998 161.71327379119 85.01999999999998 C 162.20398316394602 85.01999999999998 162.44933785032399 82.16 162.94004722308 82.16 C 163.430756595832 82.16 163.67611128220798 88.20500000005033 164.16682065496 100.62 C 164.65753002771598 113.03500000005033 164.902884714094 144.235 165.39359408685 144.235 C 165.884303459606 144.235 166.12965814598402 140.34800000003773 166.62036751874 131.04 C 167.11107689149202 121.73200000003771 167.35643157786802 100.75 167.84714095062 97.695 C 168.33785032337602 94.63999999999999 168.583205009754 94.63999999999999 169.07391438251 94.63999999999999 C 169.56462375526198 94.63999999999999 169.80997844163798 132.86 170.30068781439 132.86 C 170.791397187146 132.86 171.036751873524 88.53 171.52746124628 88.53 C 172.018170619032 88.53 172.26352530540802 94.38 172.75423467816 94.38 C 173.244944050916 94.38 173.490298737294 88.20499999999998 173.98100811005 88.20499999999998 C 174.471717482806 88.20499999999998 174.71707216918398 122.72 175.20778154194 122.72 C 175.698490914692 122.72 175.943845601068 97.695 176.43455497382 97.695 C 176.92526434657603 97.695 177.170619032954 97.695 177.66132840571 97.75999999999999 C 178.152037778462 97.82499999999999 178.397392464838 100.15200000003298 178.88810183759 108.28999999999999 C 179.378811210346 116.42800000003298 179.624165896724 138.45 180.11487526948 138.45 C 180.605584642236 138.45 180.850939328614 112.255 181.34164870137 112.255 C 181.832358074122 112.255 182.077712760498 117.65 182.56842213325 117.65 C 183.059131506006 117.65 183.304486192384 117.65 183.79519556514 117.38999999999999 C 184.28590493789198 117.12999999999997 184.53125962426802 105.755 185.02196899702 104.78 C 185.51267836977598 103.805 185.758033056154 103.805 186.24874242891 103.805 C 186.73945180166203 103.805 186.98480648803803 111.66999999999999 187.47551586079 111.66999999999999 C 187.96622523354603 111.66999999999999 188.211579919924 87.035 188.70228929268 87.035 C 189.19299866543602 87.035 189.438353351814 133.185 189.92906272457 139.815 C 225.750846935634 146.445 243.661739041166 146.445 279.48352325223 146.445 C 279.974232624986 146.445 280.219587311364 146.445 280.71029668412 146.445 C 281.20100605687196 146.445 281.44636074324796 146.445 281.937070116 146.445 C 282.427779488756 146.445 282.67313417513395 146.445 283.16384354789 146.445 C 283.654552920646 146.445 283.89990760702403 146.445 284.39061697978 146.445 C 284.881326352532 146.445 285.12668103890803 146.445 285.61739041166 146.445 C 286.108099784416 146.445 286.35345447079396 146.445 286.84416384355 146.445 C 287.334873216302 146.445 287.5802279026781 146.445 288.07093727543 146.445 C 288.561646648186 146.445 288.807001334564 146.445 289.29771070732 146.445 C 289.788420080076 146.445 290.03377476645403 146.445 290.52448413921 146.445 C 291.015193511962 146.445 291.260548198338 146.445 291.75125757109 146.445 C 292.241966943846 146.445 292.48732163022396 146.445 292.97803100298 146.445 C 293.46874037573195 146.445 293.714095062108 146.445 294.20480443486 146.445 C 294.695513807616 146.445 294.940868493994 146.445 295.43157786675 146.445 C 295.922287239502 146.445 296.167641925878 146.76999999999998 296.65835129863 146.76999999999998 C 297.149060671386 146.76999999999998 297.394415357764 146.76999999999998 297.88512473052 146.76999999999998 C 298.37583410327596 146.76999999999998 298.621188789654 146.76999999999998 299.11189816241 146.76999999999998 C 299.60260753516206 146.76999999999998 299.847962221538 146.76999999999998 300.33867159429 146.76999999999998 C 300.829380967046 146.76999999999998 301.074735653424 146.76999999999998 301.56544502618 146.76999999999998 C 302.056154398932 146.76999999999998 302.301509085308 146.76999999999998 302.79221845806 146.76999999999998 C 303.282927830816 146.76999999999998 303.528282517194 146.76999999999998 304.01899188995 146.76999999999998 C 304.50970126270596 146.76999999999998 304.755055949084 146.76999999999998 305.24576532184 146.76999999999998 C 305.736474694592 146.76999999999998 305.98182938096795 146.76999999999998 306.47253875372 146.76999999999998 C 306.963248126476 146.76999999999998 307.208602812854 146.76999999999998 307.69931218561 146.76999999999998 C 308.190021558362 146.76999999999998 308.435376244738 146.76999999999998 308.92608561749 146.76999999999998 C 309.41679499024605 146.76999999999998 309.662149676624 146.76999999999998 310.15285904938 146.76999999999998 C 310.64356842213203 146.76999999999998 310.88892310850804 146.76999999999998 311.37963248126 146.76999999999998 C 311.870341854016 146.76999999999998 312.115696540394 146.76999999999998 312.60640591315 146.76999999999998 C 313.097115285906 146.76999999999998 313.342469972284 146.76999999999998 313.83317934504 146.76999999999998 C 314.323888717792 146.76999999999998 314.569243404168 146.76999999999998 315.05995277692 146.76999999999998 C 315.550662149676 146.76999999999998 315.79601683605404 146.76999999999998 316.28672620881 146.76999999999998 C 316.777435581562 146.76999999999998 317.022790267938 146.76999999999998 317.51349964069 146.76999999999998 C 318.004209013446 146.76999999999998 318.249563699824 146.76999999999998 318.74027307258 146.76999999999998 C 319.230982445336 146.76999999999998 319.476337131714 145.66500000000156 319.96704650447 145.27499999999998 C 320.457755877222 144.88500000000155 320.703110563598 144.96299999999943 321.19381993635 144.82 C 321.684529309106 144.6769999999994 321.92988399548403 144.63800000000032 322.42059336824 144.56 C 322.911302740992 144.4820000000003 323.15665742736803 144.4819999999998 323.64736680012 144.43 C 324.138076172876 144.3779999999998 324.38343085925396 144.33900000000017 324.87414023201 144.3 C 325.364849604762 144.2610000000002 325.6102042911381 144.2609999999999 326.10091366389 144.235 C 326.591623036646 144.2089999999999 326.836977723024 144.196 327.32768709578 144.17000000000002 C 327.818396468536 144.144 328.06375115491403 144.17000000000002 328.55446052767 144.105 C 329.045169900422 144.03999999999996 329.29052458679797 138.5149999999452 329.78123395955 125.19 C 330.271943332306 111.8649999999452 330.51729801868396 79.16999999999999 331.00800739144 77.47999999999999 C 331.49871676419195 75.78999999999999 331.744071450568 77.34999999999366 332.23478082332 75.78999999999999 C 332.725490196076 74.22999999999368 332.970844882454 69.68 333.46155425521 69.68 C 333.95226362796603 69.68 334.19761831434397 78.195 334.6883276871 78.195 C 335.179037059852 78.195 335.424391746228 71.37 335.91510111898 71.37 C 336.40581049173596 71.37 336.651165178114 89.57 337.14187455087 93.535 C 337.63258392362206 97.5 337.877938609998 93.535 338.36864798275 97.5 C 338.859357355506 101.465 339.104712041884 114.4 339.59542141464 114.4 C 340.086130787396 114.4 340.331485473774 78.715 340.82219484653 78.715 C 341.31290421928196 78.715 341.55825890565796 113.29499999999999 342.04896827841 113.29499999999999 C 342.53967765116596 113.29499999999999 342.785032337544 87.29499999999999 343.2757417103 87.29499999999999 C 343.766451083052 87.29499999999999 344.01180576942795 127.26999999999998 344.50251514218 127.26999999999998 C 344.993224514936 127.26999999999998 345.23857920131405 111.73499999999999 345.72928857407 111.73499999999999 C 346.219997946822 111.73499999999999 346.465352633198 124.63100000002595 346.95606200595 131.04 C 347.446771378706 137.449000000026 347.69212606508404 143.78 348.18283543784 143.78 C 348.673544810596 143.78 348.918899496974 143.78 349.40960886973 143.78 C 349.900318242482 143.78 350.14567292885806 143.78 350.63638230161 143.78 C 351.127091674366 143.78 351.372446360744 143.78 351.8631557335 143.78 C 352.353865106252 143.78 352.599219792628 143.78 353.08992916538 143.78 C 353.580638538136 143.78 353.82599322451404 143.78 354.31670259727 143.78 C 354.807411970026 143.78 355.052766656404 143.78 355.54347602916 143.78 C 356.03418540191194 143.78 356.279540088288 143.78 356.77024946104 143.78 C 357.260958833796 143.78 357.506313520174 143.78 357.99702289293 143.78 C 358.487732265682 143.78 358.733086952058 143.78 359.22379632481 143.78 C 359.71450569756604 143.78 359.959860383944 143.78 360.4505697567 143.78 C 360.94127912945197 143.78 361.18663381582803 143.78 361.67734318858 143.78 C 362.168052561336 143.78 362.41340724771396 119.21000000000001 362.90411662047 111.15 C 363.394825993226 103.09 363.640180679604 103.09 364.13089005236 103.09 C 364.621599425112 103.09 364.866954111488 141.57 365.35766348424 141.57 C 365.848372856996 141.57 366.09372754337403 90.47999999999999 366.58443691613 90.47999999999999 C 367.075146288882 90.47999999999999 367.32050097525797 104.91 367.81121034801 104.91 C 368.301919720766 104.91 368.54727440714396 80.7170000000005 369.0379837799 72.01999999999998 C 369.528693152656 63.323000000000484 369.77404783903404 61.42499999999998 370.26475721179 61.42499999999998 C 370.755466584542 61.42499999999998 371.000821270918 86.64500000004557 371.49153064367 97.88999999999999 C 371.982240016426 109.1350000000456 372.227594702804 117.65 372.71830407556 117.65 C 373.209013448312 117.65 373.454368134688 69.94 373.94507750744 69.94 C 374.43578688019596 69.94 374.681141566574 92.36499999999998 375.17185093933 92.36499999999998 C 375.66256031208206 92.36499999999998 375.907914998458 82.91399999997981 376.39862437121 77.935 C 376.889333743966 72.95599999997981 377.134688430344 67.47 377.6253978031 67.47 C 378.116107175856 67.47 378.361461862234 258.44000000000005 378.85217123499 259.22 C 379.34288060774196 260 379.58823529411796 260 380.07894466687 260 C 384.004619648906 260 385.96745713992397 260 389.89313212196 258.96 C 390.383841494712 257.91999999999996 390.629196181088 70.07 391.11990555384 70.07 C 391.610614926596 70.07 391.85596961297404 70.07 392.34667898573 84.17499999999998 C 392.837388358486 98.27999999999997 393.082743044864 201.11 393.57345241762 224.185 C 394.06416179037194 247.26 394.309516476748 247.26 394.8002258495 247.26 C 395.290935222256 247.26 395.536289908634 92.495 396.02699928139 92.495 C 396.517708654142 92.495 396.763063340518 92.495 397.25377271327 95.35499999999999 C 397.74448208602604 98.21499999999997 397.989836772404 140.81599999999617 398.48054614516 173.745 C 398.97125551791595 206.6739999999962 399.216610204294 260 399.70731957705 260 C 400.19802894980205 260 400.443383636178 260 400.93409300893 260 C 401.424802381686 260 401.670157068064 202.345 402.16086644082 202.345 C 402.651575813572 202.345 402.896930499948 210.5740000000467 403.3876398727 222.105 C 403.878349245456 233.63600000004675 404.12370393183403 260 404.61441330459 260 C 405.105122677342 260 405.35047736371797 260 405.84118673647 256.945 C 406.331896109226 253.89 406.57725079560396 140.93300000000227 407.06796016836 101.53 C 407.558669541116 62.12700000000229 407.80402422749404 59.93000000000001 408.29473360025 59.93000000000001 C 408.785442973002 59.93000000000001 409.030797659378 64.70100000001086 409.52150703213 67.34 C 410.01221640488603 69.97900000001086 410.2575710912641 67.34 410.74828046402 73.125 C 411.238989836772 78.91 411.48434452314797 97.5 411.9750538959 97.5 C 412.46576326865596 97.5 412.711117955034 70.19999999999999 413.20182732779 70.19999999999999 C 413.69253670054604 70.19999999999999 413.937891386924 100.88 414.42860075968 100.88 C 414.91931013243203 100.88 415.164664818808 92.03999999999999 415.65537419156 92.03999999999999 C 416.146083564316 92.03999999999999 416.391438250694 253.305 416.88214762345 253.305 C 417.37285699620196 253.305 417.6182116825779 92.03999999999999 418.10892105533 92.03999999999999 C 418.59963042808596 92.03999999999999 418.844985114464 221.195 419.33569448722 221.195 C 419.826403859972 221.195 420.07175854634795 106.79499999999999 420.5624679191 106.79499999999999 C 421.053177291856 106.79499999999999 421.29853197823405 255.125 421.78924135099 255.125 C 422.27995072374597 255.125 422.525305410124 232.57 423.01601478288 232.57 C 423.506724155632 232.57 423.7520788420081 260 424.24278821476 260 C 424.733497587516 260 424.97885227389395 260 425.46956164665 260 C 425.960271019402 260 426.20562570577806 243.36 426.69633507853 243.36 C 427.18704445128606 243.36 427.432399137664 243.36 427.92310851042 244.985 C 428.41381788317597 246.61 428.659172569554 255.71 429.14988194231 255.71 C 429.640591315062 255.71 429.88594600143807 97.88999999999999 430.37665537419 97.88999999999999 C 430.867364746946 97.88999999999999 431.11271943332395 110.08399999997656 431.60342880608 115.69999999999999 C 432.09413817883194 121.31599999997657 432.339492865208 125.97 432.83020223796 125.97 C 433.32091161071605 125.97 433.566266297094 107.70500000000001 434.05697566985 102.44 C 434.5476850426019 97.17499999999998 434.793039728978 97.17499999999998 435.28374910173 97.17499999999998 C 435.774458474486 97.17499999999998 436.01981316086403 110.88999999999999 436.51052253362 110.88999999999999 C 437.00123190637595 110.88999999999999 437.246586592754 90.28500000000003 437.73729596551 89.96000000000001 C 438.22800533826205 89.63499999999999 438.473360024638 89.63499999999999 438.96406939739 89.63499999999999 C 439.454778770146 89.63499999999999 439.700133456524 127.71199999986186 440.19084282928 161.785 C 440.681552202032 195.85799999986185 440.9269068884079 260 441.41761626116 260 C 441.908325633916 260 442.15368032029403 123.11000000000001 442.64438969305 110.305 C 443.135099065806 97.5 443.380453752184 102.62200000002076 443.87116312494 97.5 C 444.361872497692 92.37800000002076 444.60722718406794 84.75999999999999 445.09793655682 84.695 C 445.588645929576 84.63 445.83400061595404 84.63 446.32470998871 84.63 C 446.81541936146203 84.63 447.060774047838 96.38200000001797 447.55148342059 100.88 C 448.0421927933459 105.37800000001798 448.28754747972397 100.88 448.77825685248 107.12 C 449.268966225236 113.36000000000001 449.51432091161405 130.10399999987783 450.00503028437 160.68 C 450.495739657122 191.25599999987782 450.74109434349805 260 451.23180371625 260 C 451.72251308900604 260 451.967867775384 116.34999999999997 452.45857714814 95.54999999999998 C 452.94928652089203 74.75 453.194641207268 74.75 453.68535058002 74.75 C 454.176059952776 74.75 454.42141463915397 215.54000000000002 454.91212401191 219.245 C 455.40283338466196 222.95 455.648188071038 219.245 456.13889744379 222.95 C 456.62960681654596 226.65499999999997 456.874961502924 260 457.36567087568 260 C 457.85638024843604 260 458.101734934814 118.10499999999999 458.59244430757 118.10499999999999 C 459.08315368032197 118.10499999999999 459.32850836669803 260 459.81921773945 260 C 460.3099271122061 260 460.5552817985839 239.85 461.04599117134 239.85 C 461.53670054409196 239.85 461.782055230468 241.215 462.27276460322 241.215 C 462.763473975976 241.215 463.00882866235406 241.215 463.49953803511 241.215 C 463.990247407866 241.215 464.23560209424403 260 464.726311467 260 C 465.21702083975197 260 465.462375526128 260 465.95308489888 260 C 466.443794271636 260 466.689148958014 260 467.17985833077 260 C 467.670567703522 260 467.91592238989796 128.44 468.40663176265 118.10499999999999 C 468.897341135406 107.76999999999998 469.14269582178406 107.76999999999998 469.63340519454 107.76999999999998 C 470.12411456729194 107.76999999999998 470.369469253668 215.40999999999997 470.86017862642 237.70499999999998 C 471.35088799917594 260 471.596242685554 260 472.08695205831 260 C 472.577661431066 260 473.3137254902 221.715 473.3137254902 221.715" class="highcharts-graph" data-z-index="1" stroke="#000000" stroke-width="2" stroke-linejoin="round" stroke-linecap="round"></path></g><g data-z-index="0.1" class="highcharts-markers highcharts-series-0 highcharts-spline-series highcharts-color-0 " transform="translate(64,63) scale(1 1)" clip-path="none"></g><g data-z-index="0.1" class="highcharts-series highcharts-series-1 highcharts-spline-series highcharts-color-1 " transform="translate(64,63) scale(1 1)" clip-path="url(#highcharts-6g8erh6-1119)"><path fill="none" d="M 4.6862745098039 195 C 4.6862745098039 195 6.8944666871984595 195 8.3665948054615 195 C 8.85730417821582 195 9.10265886459298 195 9.5933682373473 195 C 10.08407761010158 195 10.32943229647872 195 10.820141669233 195 C 11.3108510419874 195 11.5562057283646 195 12.046915101119 195 C 12.5376244738734 195 12.7829791602506 195 13.273688533005 195 C 13.7643979057594 195 14.009752592136602 195 14.500461964891 195 C 14.991171337645401 195 15.2365260240226 195 15.727235396777 195 C 16.217944769530998 195 16.463299455908004 195 16.954008828662 195 C 17.4447182014164 195 17.690072887793598 188.5 18.180782260548 188.5 C 18.671491633302402 188.5 18.9168463196796 188.5 19.407555692434 188.5 C 19.8982650651884 188.5 20.1436197515656 186.875 20.63432912432 186.875 C 21.1250384970744 186.875 21.370393183451604 188.5 21.861102556206 188.5 C 22.3518119289604 188.5 22.5971666153376 188.5 23.087875988092 188.5 C 23.578585360846 188.5 23.823940047222997 188.5 24.314649419977 188.5 C 24.805358792731397 188.5 25.0507134791086 188.5 25.541422851863 188.5 C 26.032132224617396 188.5 26.2774869109946 195 26.768196283749 195 C 27.258905656503394 195 27.504260342880606 195 27.994969715635 195 C 28.4856790883894 195 28.731033774766605 195 29.221743147521 195 C 29.7124525202754 195 29.957807206652596 195 30.448516579407 195 C 30.939225952160996 195 31.184580638538 195 31.675290011292 195 C 32.1659993840464 195 32.4113540704236 195 32.902063443178 195 C 33.3927728159324 195 33.6381275023096 195 34.128836875064 195 C 34.619546247818406 195 34.8649009341956 195 35.35561030695 195 C 35.8463196797044 195 36.0916743660816 195 36.582383738836 195 C 38.0545118570988 195 38.790575916230196 195 40.262704034493 195 C 40.7534134072474 195 40.9987680936246 195 41.489477466379 195 C 41.980186839133395 195 42.2255415255106 162.5 42.716250898265 162.5 C 43.2069602710194 162.5 43.4523149573966 162.5 43.943024330151 162.5 C 44.4337337029054 162.5 44.6790883892826 154.375 45.169797762037 154.375 C 45.660507134791395 154.375 45.90586182116861 154.375 46.396571193923 154.375 C 46.887280566677006 154.375 47.132635253054005 156 47.623344625808 156 C 48.114053998562405 156 48.359408684939595 149.5 48.850118057694 149.5 C 49.34082743044839 149.5 49.586182116825604 150.36666666666667 50.07689148958 151.66666666666666 C 50.5676008623344 152.96666666666667 50.8129555487116 156 51.303664921466 156 C 51.79437429422039 156 52.0397289805976 156 52.530438353352 156 C 53.02114772610639 156 53.266502412483604 162.5 53.757211785238 162.5 C 54.247921157992 162.5 54.493275844368995 162.5 54.983985217123 162.5 C 55.4746945898774 162.5 55.7200492762546 162.5 56.210758649009 162.5 C 56.701468021763404 162.5 56.9468227081406 162.5 57.437532080895 162.5 C 57.9282414536494 162.5 58.173596140026596 162.5 58.664305512781 162.5 C 59.1550148855354 162.5 59.4003695719126 166.5625 59.891078944667 167.91666666666669 C 60.381788317421396 169.27083333333334 60.627143003798594 168.54861111111111 61.117852376553 169.27083333333334 C 61.6085617493074 169.99305555555554 61.853916435684596 171.52777777777777 62.344625808439 171.52777777777777 C 62.835335181193 171.52777777777777 63.080689867569994 161.14583333333334 63.571399240324 161.14583333333334 C 64.0621086130784 161.14583333333334 64.30746329945559 169.27083333333334 64.79817267221 169.27083333333334 C 65.28888204496441 169.27083333333334 65.53423673134161 168.40416666666667 66.024946104096 167.91666666666669 C 66.51565547685041 167.42916666666667 66.76101016322761 167.91666666666669 67.251719535982 166.83333333333334 C 67.7424289087364 165.75 67.9877835951136 161.41666666666669 68.478492967868 161.41666666666669 C 68.96920234062239 161.41666666666669 69.21455702699959 161.41666666666669 69.705266399754 161.41666666666669 C 70.19597577250799 161.41666666666669 70.441330458885 161.41666666666669 70.932039831639 161.41666666666669 C 71.4227492043934 161.41666666666669 71.6681038907706 169.27083333333334 72.158813263525 169.27083333333334 C 72.6495226362794 169.27083333333334 72.89487732265661 161.59722222222223 73.385586695411 160.69444444444446 C 73.8762960681654 159.79166666666669 74.1216507545426 159.79166666666669 74.612360127297 159.79166666666669 C 75.1030695000514 159.79166666666669 75.3484241864286 162.5 75.839133559183 162.5 C 78.783389795709 162.5 80.255517913972 162.5 83.199774150498 162.5 C 83.6904835232524 162.5 83.93583820962961 162.5 84.426547582384 162.5 C 84.91725695513841 162.5 85.16261164151561 162.5 85.65332101427 162.5 C 86.144030387024 162.5 86.389385073401 162.5 86.880094446155 162.5 C 87.3708038189094 162.5 87.6161585052866 178.75 88.106867878041 178.75 C 88.59757725079541 178.75 88.84293193717261 178.75 89.333641309927 178.75 C 89.82435068268141 178.75 90.0697053690586 178.75 90.560414741813 178.75 C 91.05112411456739 178.75 91.2964788009446 195 91.787188173699 195 C 92.27789754645339 195 92.5232522328306 195 93.013961605585 195 C 93.504670978339 195 93.75002566471599 195 94.24073503747 195 C 94.7314444102244 195 94.9767990966016 195 95.467508469356 195 C 104.7909865516896 195 109.45272559285641 195 118.77620367519 195 C 119.26691304794198 195 119.51226773431799 195 120.00297710707 195 C 120.49368647982598 195 120.73904116620402 195 121.22975053896 195 C 121.72045991171201 195 121.96581459808799 195 122.45652397084 195 C 122.94723334359601 195 123.19258802997402 195 123.68329740273 195 C 124.174006775486 195 124.41936146186399 185.25000000002655 124.91007083462 178.75 C 125.40078020737201 172.25000000002655 125.64613489374801 168.99999999997345 126.1368442665 162.5 C 126.627553639256 155.99999999997345 126.87290832563401 150.5833333333509 127.36361769839 146.25 C 127.85432707114201 141.91666666668425 128.099681757518 140.83333333333334 128.59039113027 140.83333333333334 C 129.081100503026 140.83333333333334 129.32645518940402 140.83333333333334 129.81716456216 140.83333333333334 C 130.30787393491602 140.83333333333334 130.553228621294 138.125 131.04393799405 138.125 C 131.53464736680198 138.125 131.78000205317798 138.125 132.27071142593 138.125 C 132.761420798686 138.125 133.006775485064 138.125 133.49748485782 138.125 C 133.988194230572 138.125 134.233548916948 146.25 134.7242582897 146.25 C 135.214967662456 146.25 135.460322348834 146.25 135.95103172159 146.25 C 136.441741094342 146.25 136.68709578071798 146.25 137.17780515347 146.25 C 137.668514526226 146.25 137.913869212604 146.25 138.40457858536 146.25 C 138.89528795811603 146.25 139.140642644494 151.66666666666666 139.63135201725 151.66666666666666 C 140.122061390002 151.66666666666666 140.367416076378 146.25 140.85812544913 146.25 C 141.348834821886 146.25 141.594189508264 146.25 142.08489888102 146.25 C 142.575608253772 146.25 142.820962940148 139.75 143.3116723129 138.125 C 143.802381685656 136.5 144.047736372034 136.5 144.53844574479 136.5 C 145.029155117546 136.5 145.274509803924 138.125 145.76521917668 138.125 C 146.25592854943199 138.125 146.501283235808 138.125 146.99199260856 138.125 C 147.48270198131598 138.125 147.728056667694 138.125 148.21876604045 138.125 C 148.70947541320203 138.125 148.95483009957803 146.25 149.44553947233 146.25 C 149.93624884508603 146.25 150.181603531464 140.83333333333334 150.67231290422 140.83333333333334 C 151.16302227697602 140.83333333333334 151.408376963354 141.91666666664887 151.89908633611 146.25 C 152.38979570886198 150.58333333331552 152.63515039523799 162.5 153.12585976799 162.5 C 153.61656914074598 162.5 153.861923827124 150.5833333333509 154.35263319988 146.25 C 154.843342572632 141.91666666668425 155.088697259008 140.83333333333334 155.57940663176 140.83333333333334 C 156.07011600451602 140.83333333333334 156.31547069089402 140.83333333333334 156.80618006365 140.83333333333334 C 157.29688943640198 140.83333333333334 157.542244122778 130 158.03295349553 130 C 158.52366286828598 130 158.769017554664 130 159.25972692742 130 C 159.75043630017598 130 159.995790986554 140.83333333333334 160.48650035931 140.83333333333334 C 160.97720973206202 140.83333333333334 161.22256441843803 138.125 161.71327379119 138.125 C 162.20398316394602 138.125 162.44933785032399 139.20833333332672 162.94004722308 140.83333333333334 C 163.430756595832 142.45833333332672 163.67611128220798 146.25 164.16682065496 146.25 C 164.65753002771598 146.25 164.902884714094 146.25 165.39359408685 146.25 C 165.884303459606 146.25 166.12965814598402 146.25 166.62036751874 146.25 C 167.11107689149202 146.25 167.35643157786802 144.08333333331998 167.84714095062 140.83333333333334 C 168.33785032337602 137.58333333331998 168.583205009754 130 169.07391438251 130 C 169.56462375526198 130 169.80997844163798 130 170.30068781439 130 C 170.791397187146 130 171.036751873524 130 171.52746124628 130 C 172.018170619032 130 172.26352530540802 130 172.75423467816 130 C 173.244944050916 130 173.490298737294 130 173.98100811005 130 C 174.471717482806 130 174.71707216918398 130 175.20778154194 130 C 175.698490914692 130 175.943845601068 97.5 176.43455497382 97.5 C 176.92526434657603 97.5 177.170619032954 97.5 177.66132840571 97.5 C 178.152037778462 97.5 178.397392464838 97.5 178.88810183759 97.5 C 179.378811210346 97.5 179.624165896724 97.5 180.11487526948 97.5 C 180.605584642236 97.5 180.850939328614 97.5 181.34164870137 97.5 C 181.832358074122 97.5 182.077712760498 113.75 182.56842213325 113.75 C 183.059131506006 113.75 183.304486192384 113.75 183.79519556514 113.75 C 184.28590493789198 113.75 184.53125962426802 130 185.02196899702 130 C 185.51267836977598 130 185.758033056154 130 186.24874242891 130 C 186.73945180166203 130 186.98480648803803 130 187.47551586079 130 C 187.96622523354603 130 188.211579919924 130 188.70228929268 130 C 189.19299866543602 130 189.438353351814 130 189.92906272457 130 C 225.750846935634 130 243.661739041166 162.5 279.48352325223 162.5 C 279.974232624986 162.5 280.219587311364 162.5 280.71029668412 162.5 C 281.20100605687196 162.5 281.44636074324796 165.59523809523807 281.937070116 165.59523809523807 C 282.427779488756 165.59523809523807 282.67313417513395 164.41904761904772 283.16384354789 162.5 C 283.654552920646 160.58095238095248 283.89990760702403 158.16666666667547 284.39061697978 156 C 284.881326352532 153.83333333334213 285.12668103890803 151.66666666666666 285.61739041166 151.66666666666666 C 286.108099784416 151.66666666666666 286.35345447079396 153.21428571428572 286.84416384355 153.21428571428572 C 287.334873216302 153.21428571428572 287.5802279026781 153.21428571428572 288.07093727543 153.21428571428572 C 288.561646648186 153.21428571428572 288.807001334564 153.21428571428572 289.29771070732 153.21428571428572 C 289.788420080076 153.21428571428572 290.03377476645403 151.8877551020408 290.52448413921 151.8877551020408 C 291.015193511962 151.8877551020408 291.260548198338 155.73469387755975 291.75125757109 157.85714285714286 C 292.241966943846 159.97959183674345 292.48732163022396 160.48809523808686 292.97803100298 162.5 C 293.46874037573195 164.51190476189635 293.714095062108 167.91666666666666 294.20480443486 167.91666666666666 C 294.695513807616 167.91666666666666 294.940868493994 167.91666666666666 295.43157786675 167.91666666666666 C 295.922287239502 167.91666666666666 296.167641925878 166.98809523809274 296.65835129863 166.36904761904762 C 297.149060671386 165.7499999999975 297.394415357764 164.82142857142858 297.88512473052 164.82142857142858 C 298.37583410327596 164.82142857142858 298.621188789654 164.82142857142858 299.11189816241 164.82142857142858 C 299.60260753516206 164.82142857142858 299.847962221538 157.23809523808205 300.33867159429 153.98809523809524 C 300.829380967046 150.73809523808205 301.074735653424 148.57142857142858 301.56544502618 148.57142857142858 C 302.056154398932 148.57142857142858 302.301509085308 148.57142857142858 302.79221845806 149.23469387755102 C 303.282927830816 149.89795918367346 303.528282517194 153.8775510204082 304.01899188995 153.8775510204082 C 304.50970126270596 153.8775510204082 304.755055949084 153.46301020408163 305.24576532184 153.46301020408163 C 305.736474694592 153.46301020408163 305.98182938096795 154.40263605442178 306.47253875372 154.40263605442178 C 306.963248126476 154.40263605442178 307.208602812854 153.62882653061226 307.69931218561 153.62882653061226 C 308.190021558362 153.62882653061226 308.435376244738 155.33120748299896 308.92608561749 156.72406462585036 C 309.41679499024605 158.11692176871324 309.662149676624 160.29832766439907 310.15285904938 160.59311224489795 C 310.64356842213203 160.88789682539684 310.88892310850804 160.88789682539684 311.37963248126 160.88789682539684 C 311.870341854016 160.88789682539684 312.115696540394 156.6706349206349 312.60640591315 155.31646825396825 C 313.097115285906 153.9623015873016 313.342469972284 154.58908730158984 313.83317934504 153.9623015873016 C 314.323888717792 153.33551587301844 314.569243404168 153.20912698412286 315.05995277692 152.1825396825397 C 315.550662149676 151.15595238094824 315.79601683605404 150.1190476190529 316.28672620881 148.82936507936506 C 316.777435581562 147.53968253968782 317.022790267938 147.12698412697847 317.51349964069 145.734126984127 C 318.004209013446 144.3412698412642 318.249563699824 143.36111111111111 318.74027307258 141.86507936507937 C 319.230982445336 140.36904761904762 319.476337131714 138.25396825396825 319.96704650447 138.25396825396825 C 320.457755877222 138.25396825396825 320.703110563598 139.64682539682542 321.19381993635 139.64682539682542 C 321.684529309106 139.64682539682542 321.92988399548403 138.8945887445899 322.42059336824 138.6150793650794 C 322.911302740992 138.33556998557114 323.15665742736803 138.2492784992785 323.64736680012 138.2492784992785 C 324.138076172876 138.2492784992785 324.38343085925396 138.47943722943552 324.87414023201 138.89411976911975 C 325.364849604762 139.30880230880058 325.6102042911381 139.10840548341048 326.10091366389 140.3226911976912 C 326.591623036646 141.5369769119819 326.836977723024 143.10840548340545 327.32768709578 144.9655483405483 C 327.818396468536 146.82269119769114 328.06375115491403 147.65840548339756 328.55446052767 149.60840548340548 C 329.045169900422 151.55840548339756 329.29052458679797 153.0234848484918 329.78123395955 154.71554834054834 C 330.271943332306 156.40761183261878 330.51729801868396 158.06872294372295 331.00800739144 158.06872294372295 C 331.49871676419195 158.06872294372295 331.744071450568 157.64664502164499 332.23478082332 157.64664502164499 C 332.725490196076 157.64664502164499 332.970844882454 157.79307359307364 333.46155425521 158.3430735930736 C 333.95226362796603 158.89307359307364 334.19761831434397 160.396645021645 334.6883276871 160.396645021645 C 335.179037059852 160.396645021645 335.424391746228 159.25914502164204 335.91510111898 158.53950216450215 C 336.40581049173596 157.81985930735635 336.651165178114 158.53950216450215 337.14187455087 156.79843073593076 C 337.63258392362206 155.05735930735938 337.877938609998 148.90557359307365 338.36864798275 146.58414502164504 C 338.859357355506 144.26271645021643 339.104712041884 144.26271645021643 339.59542141464 144.26271645021643 C 340.086130787396 144.26271645021643 340.331485473774 146.3345160791553 340.82219484653 147.2172619047619 C 341.31290421928196 148.10000773036123 341.55825890565796 148.6764455782313 342.04896827841 148.6764455782313 C 342.53967765116596 148.6764455782313 342.785032337544 146.44787414966495 343.2757417103 145.19430272108843 C 343.766451083052 143.9407312925221 344.01180576942795 142.40858843537416 344.50251514218 142.40858843537416 C 344.993224514936 142.40858843537416 345.23857920131405 142.87287414965476 345.72928857407 144.14965986394557 C 346.219997946822 145.42644557822618 346.465352633198 148.7925170068027 346.95606200595 148.7925170068027 C 347.446771378706 148.7925170068027 347.69212606508404 148.7482993197279 348.18283543784 147.24489795918367 C 348.673544810596 145.74149659863946 348.918899496974 143.36479591837582 349.40960886973 141.27551020408163 C 349.900318242482 139.18622448980437 350.14567292885806 138.5063775510134 350.63638230161 136.79846938775512 C 351.127091674366 135.0905612244828 351.372446360744 134.4770408163336 351.8631557335 132.73596938775512 C 352.353865106252 130.99489795919072 352.599219792628 130.87882653060095 353.08992916538 128.09311224489795 C 353.580638538136 125.30739795917238 353.82599322451404 121.59311224489797 354.31670259727 118.80739795918367 C 354.807411970026 116.02168367346938 355.052766656404 114.16454081632654 355.54347602916 114.16454081632654 C 356.03418540191194 114.16454081632654 356.279540088288 114.16454081632654 356.77024946104 114.16454081632654 C 357.260958833796 114.16454081632654 357.506313520174 114.33035714285717 357.99702289293 114.33035714285717 C 358.487732265682 114.33035714285717 358.733086952058 111.94444444444446 359.22379632481 111.36408730158732 C 359.71450569756604 110.78373015873018 359.959860383944 110.78373015873018 360.4505697567 110.78373015873018 C 360.94127912945197 110.78373015873018 361.18663381582803 110.78373015873018 361.67734318858 110.78373015873018 C 362.168052561336 110.78373015873018 362.41340724771396 110.78373015873018 362.90411662047 110.78373015873018 C 363.394825993226 110.78373015873018 363.640180679604 110.20337301587304 364.13089005236 110.20337301587304 C 364.621599425112 110.20337301587304 364.866954111488 110.66765873015873 365.35766348424 110.66765873015873 C 365.848372856996 110.66765873015873 366.09372754337403 108.92658730158729 366.58443691613 108.92658730158729 C 367.075146288882 108.92658730158729 367.32050097525797 110.02281746032038 367.81121034801 110.73214285714286 C 368.301919720766 111.44146825397117 368.54727440714396 111.61850649350646 369.0379837799 112.4732142857143 C 369.528693152656 113.32792207792205 369.77404783903404 113.9420454545411 370.26475721179 115.00568181818184 C 370.755466584542 116.06931818181383 371.000821270918 116.46818181818722 371.49153064367 117.79139610389615 C 371.982240016426 119.1146103896158 372.227594702804 120.57711038960618 372.71830407556 121.62175324675326 C 373.209013448312 122.66639610389186 373.454368134688 122.56838023088208 373.94507750744 123.0146103896104 C 374.43578688019596 123.46084054834238 374.681141566574 123.22095959595705 375.17185093933 123.85290404040401 C 375.66256031208206 124.48484848484593 375.907914998458 125.129689754694 376.39862437121 126.17433261183263 C 376.889333743966 127.21897546897972 377.134688430344 129.07611832611832 377.6253978031 129.07611832611832 C 378.116107175856 129.07611832611832 378.361461862234 128.4032055246363 378.85217123499 127.87018140589566 C 379.34288060774196 127.33715728715944 379.58823529411796 126.87831317712057 380.07894466687 126.4109977324263 C 384.004619648906 122.67247417485301 385.96745713992397 117.35558390022675 389.89313212196 117.35558390022675 C 390.383841494712 117.35558390022675 390.629196181088 121.8049886621315 391.11990555384 121.8049886621315 C 391.610614926596 121.8049886621315 391.85596961297404 119.48356009070292 392.34667898573 119.48356009070292 C 392.837388358486 119.48356009070292 393.082743044864 122.3853458049887 393.57345241762 122.79988662131521 C 394.06416179037194 123.21442743764172 394.309516476748 122.79988662131521 394.8002258495 123.21442743764172 C 395.290935222256 123.62896825396822 395.536289908634 123.78925736960484 396.02699928139 126.1806972789116 C 396.517708654142 128.57213718819895 396.763063340518 135.171626984127 397.25377271327 135.171626984127 C 397.74448208602604 135.171626984127 397.989836772404 131.91130952380973 398.48054614516 130.06448412698413 C 398.97125551791595 128.21765873015894 399.216610204294 127.02083333333766 399.70731957705 125.9375 C 400.19802894980205 124.854166666671 400.443383636178 125.60218253967868 400.93409300893 124.64781746031747 C 401.424802381686 123.69345238094851 401.670157068064 121.16567460317458 402.16086644082 121.16567460317458 C 402.651575813572 121.16567460317458 402.896930499948 122.00396825396825 403.3876398727 122.00396825396825 C 403.878349245456 122.00396825396825 404.12370393183403 121.13730158731009 404.61441330459 119.0376984126984 C 405.105122677342 116.93809523810376 405.35047736371797 111.50595238095238 405.84118673647 111.50595238095238 C 406.331896109226 111.50595238095238 406.57725079560396 112.18395691609969 407.06796016836 113.82738095238096 C 407.558669541116 115.47080498866204 407.80402422749404 117.58956916098897 408.29473360025 119.72307256235828 C 408.785442973002 121.85657596371006 409.030797659378 122.6119614512549 409.52150703213 124.49489795918367 C 410.01221640488603 126.37783446712793 410.2575710912641 127.79648526076565 410.74828046402 129.13775510204084 C 411.238989836772 130.47902494330532 411.48434452314797 130.27267573696523 411.9750538959 131.2012471655329 C 412.46576326865596 132.12981859410806 412.711117955034 133.78061224489795 413.20182732779 133.78061224489795 C 413.69253670054604 133.78061224489795 413.937891386924 130.99489795918367 414.42860075968 130.99489795918367 C 414.91931013243203 130.99489795918367 415.164664818808 135.6377551020408 415.65537419156 135.6377551020408 C 416.146083564316 135.6377551020408 416.391438250694 130.1658163265306 416.88214762345 129.00510204081633 C 417.37285699620196 127.84438775510205 417.6182116825779 128.3086734693859 418.10892105533 127.84438775510205 C 418.59963042808596 127.38010204081448 418.844985114464 127.0263605442191 419.33569448722 126.68367346938777 C 419.826403859972 126.34098639455922 420.07175854634795 126.13095238095238 420.5624679191 126.13095238095238 C 421.053177291856 126.13095238095238 421.29853197823405 126.28571428571438 421.78924135099 127.67857142857142 C 422.27995072374597 129.07142857142864 422.525305410124 133.09523809523807 423.01601478288 133.09523809523807 C 423.506724155632 133.09523809523807 423.7520788420081 123.16468253968253 424.24278821476 123.16468253968253 C 424.733497587516 123.16468253968253 424.97885227389395 127.03373015873018 425.46956164665 127.03373015873018 C 425.960271019402 127.03373015873018 426.20562570577806 127.03373015873018 426.69633507853 127.03373015873018 C 427.18704445128606 127.03373015873018 427.432399137664 127.03373015873018 427.92310851042 127.03373015873018 C 428.41381788317597 127.03373015873018 428.659172569554 127.45748299319729 429.14988194231 127.45748299319729 C 429.640591315062 127.45748299319729 429.88594600143807 127.32482993196791 430.37665537419 126.13095238095241 C 430.867364746946 124.9370748299271 431.11271943332395 121.48809523809524 431.60342880608 121.48809523809524 C 432.09413817883194 121.48809523809524 432.339492865208 125.35714285714283 432.83020223796 125.35714285714283 C 433.32091161071605 125.35714285714283 433.566266297094 124.58333333333331 434.05697566985 124.58333333333331 C 434.5476850426019 124.58333333333331 434.793039728978 124.58333333333331 435.28374910173 124.58333333333331 C 435.774458474486 124.58333333333331 436.01981316086403 124.58333333333331 436.51052253362 124.58333333333331 C 437.00123190637595 124.58333333333331 437.246586592754 124.58333333333331 437.73729596551 124.58333333333331 C 438.22800533826205 124.58333333333331 438.473360024638 124.58333333333331 438.96406939739 124.58333333333331 C 439.454778770146 124.58333333333331 439.700133456524 130 440.19084282928 130 C 440.681552202032 130 440.9269068884079 123.5 441.41761626116 123.5 C 441.908325633916 123.5 442.15368032029403 124.58333333333331 442.64438969305 124.58333333333331 C 443.135099065806 124.58333333333331 443.380453752184 124.58333333333331 443.87116312494 124.58333333333331 C 444.361872497692 124.58333333333331 444.60722718406794 124.58333333333331 445.09793655682 124.58333333333331 C 445.588645929576 124.58333333333331 445.83400061595404 123.5 446.32470998871 123.5 C 446.81541936146203 123.5 447.060774047838 123.5 447.55148342059 123.5 C 448.0421927933459 123.5 448.28754747972397 124.58333333333331 448.77825685248 124.58333333333331 C 449.268966225236 124.58333333333331 449.51432091161405 124.58333333333331 450.00503028437 124.58333333333331 C 450.495739657122 124.58333333333331 450.74109434349805 120.68333333332703 451.23180371625 119.16666666666669 C 451.72251308900604 117.64999999999368 451.967867775384 117 452.45857714814 117 C 452.94928652089203 117 453.194641207268 117 453.68535058002 117 C 454.176059952776 117 454.42141463915397 119.16666666666669 454.91212401191 119.16666666666669 C 455.40283338466196 119.16666666666669 455.648188071038 118.08333333332888 456.13889744379 117 C 456.62960681654596 115.91666666666221 456.874961502924 113.75 457.36567087568 113.75 C 457.85638024843604 113.75 458.101734934814 113.75 458.59244430757 113.75 C 459.08315368032197 113.75 459.32850836669803 119.16666666666669 459.81921773945 119.16666666666669 C 460.3099271122061 119.16666666666669 460.5552817985839 116.45833333334478 461.04599117134 113.75 C 461.53670054409196 111.04166666667811 461.782055230468 108.87499999998683 462.27276460322 105.625 C 462.763473975976 102.37499999998683 463.00882866235406 97.5 463.49953803511 97.5 C 463.990247407866 97.5 464.23560209424403 97.5 464.726311467 97.5 C 465.21702083975197 97.5 465.462375526128 103.45833333334237 465.95308489888 105.625 C 466.443794271636 107.7916666666757 466.689148958014 108.33333333333331 467.17985833077 108.33333333333331 C 467.670567703522 108.33333333333331 467.91592238989796 108.33333333333331 468.40663176265 108.33333333333331 C 468.897341135406 108.33333333333331 469.14269582178406 109.41666666664909 469.63340519454 113.75 C 470.12411456729194 118.08333333331576 470.369469253668 130 470.86017862642 130 C 471.35088799917594 130 471.596242685554 130 472.08695205831 130 C 472.577661431066 130 473.3137254902 130 473.3137254902 130" class="highcharts-graph" data-z-index="1" stroke="#5D83FF" stroke-width="2" stroke-linejoin="round" stroke-linecap="round"></path></g><g data-z-index="0.1" class="highcharts-markers highcharts-series-1 highcharts-spline-series highcharts-color-1 " transform="translate(64,63) scale(1 1)" clip-path="none"></g></g><text x="300" text-anchor="middle" class="highcharts-title" data-z-index="4" style="color:#333333;font-size:18px;fill:#333333;" y="24"><tspan>CaloriesOut &amp; Overall Mood Over Time</tspan></text><text x="300" text-anchor="middle" class="highcharts-subtitle" data-z-index="4" style="color:#666666;fill:#666666;" y="46"><tspan>Black represents the mean of CaloriesOut over the previous 7 days</tspan></text><g class="highcharts-legend" data-z-index="7" transform="translate(142,358)"><rect fill="none" class="highcharts-legend-box" rx="0" ry="0" x="0" y="0" width="316" height="27" visibility="visible"></rect><g data-z-index="1"><g><g class="highcharts-legend-item highcharts-spline-series highcharts-color-0 highcharts-series-0" data-z-index="1" transform="translate(8,3)"><path fill="none" d="M 0 11 L 16 11" class="highcharts-graph" stroke="#000000" stroke-width="2"></path><path fill="#000000" d="M 12 11 A 4 4 0 1 1 11.999998000000167 10.996000000666664 Z" class="highcharts-point"></path><text x="21" style="color:#333333;font-size:12px;font-weight:bold;cursor:pointer;fill:#333333;" text-anchor="start" data-z-index="2" y="15"><tspan>CaloriesOut (kcal)</tspan></text></g><g class="highcharts-legend-item highcharts-spline-series highcharts-color-1 highcharts-series-1" data-z-index="1" transform="translate(168,3)"><path fill="none" d="M 0 11 L 16 11" class="highcharts-graph" stroke="#5D83FF" stroke-width="2"></path><path fill="#5D83FF" d="M 8 7 L 12 11 8 15 4 11 Z" class="highcharts-point"></path><text x="21" y="15" style="color:#333333;font-size:12px;font-weight:bold;cursor:pointer;fill:#333333;" text-anchor="start" data-z-index="2"><tspan>Overall Mood (/5)</tspan></text></g></g></g></g><g class="highcharts-axis-labels highcharts-xaxis-labels " data-z-index="7"><text x="139.15881326353" style="color:#666666;cursor:default;font-size:11px;fill:#666666;" text-anchor="start" transform="translate(0,0)" y="342" opacity="1"><tspan>Jul '12</tspan></text><text x="364.88512473052" style="color:#666666;cursor:default;font-size:11px;fill:#666666;" text-anchor="start" transform="translate(0,0)" y="342" opacity="1"><tspan>Jan '13</tspan></text><text x="252.02196899702" style="color:#666666;cursor:default;font-size:11px;fill:#666666;" text-anchor="start" transform="translate(0,0)" y="342" opacity="1"><tspan>Oct '12</tspan></text><text x="475.29473360025" style="color:#666666;cursor:default;font-size:11px;fill:#666666;" text-anchor="start" transform="translate(0,0)" y="342" opacity="1"><tspan>Apr '13</tspan></text></g><g class="highcharts-axis-labels highcharts-yaxis-labels " data-z-index="7"><text x="49" style="color:#666666;cursor:default;font-size:11px;fill:#666666;" text-anchor="end" transform="translate(0,0)" y="327" opacity="1">0</text><text x="49" style="color:#666666;cursor:default;font-size:11px;fill:#666666;" text-anchor="end" transform="translate(0,0)" y="262" opacity="1">1k</text><text x="49" style="color:#666666;cursor:default;font-size:11px;fill:#666666;" text-anchor="end" transform="translate(0,0)" y="197" opacity="1">2k</text><text x="49" style="color:#666666;cursor:default;font-size:11px;fill:#666666;" text-anchor="end" transform="translate(0,0)" y="132" opacity="1">3k</text><text x="49" style="color:#666666;cursor:default;font-size:11px;fill:#666666;" text-anchor="end" transform="translate(0,0)" y="67" opacity="1">4k</text></g><g class="highcharts-axis-labels highcharts-yaxis-labels " data-z-index="7"><text x="557" style="color:#666666;cursor:default;font-size:11px;fill:#666666;" text-anchor="start" transform="translate(0,0)" y="327" opacity="1">0</text><text x="557" style="color:#666666;cursor:default;font-size:11px;fill:#666666;" text-anchor="start" transform="translate(0,0)" y="262" opacity="1">2</text><text x="557" style="color:#666666;cursor:default;font-size:11px;fill:#666666;" text-anchor="start" transform="translate(0,0)" y="197" opacity="1">4</text><text x="557" style="color:#666666;cursor:default;font-size:11px;fill:#666666;" text-anchor="start" transform="translate(0,0)" y="132" opacity="1">6</text><text x="557" style="color:#666666;cursor:default;font-size:11px;fill:#666666;" text-anchor="start" transform="translate(0,0)" y="67" opacity="1">8</text></g><a xlink:href="https://quantimo.do" target="_blank">
                    <text x="590" class="highcharts-credits" text-anchor="end" data-z-index="8"
                          style="cursor:pointer;color:#999999;font-size:9px;fill:#999999;" y="395">https://quantimo.do
                    </text>
                </a></svg>