<?xml version="1.0" standalone="no"?><!DOCTYPE svg PUBLIC "-//W3C//DTD SVG 1.1//EN" "http://www.w3.org/Graphics/SVG/1.1/DTD/svg11.dtd"><svg xmlns:xlink="http://www.w3.org/1999/xlink" version="1.1" class="highcharts-root" style="font-family:&quot;Lucida Grande&quot;, &quot;Lucida Sans Unicode&quot;, Arial, Helvetica, sans-serif;font-size:12px;" xmlns="http://www.w3.org/2000/svg" width="600" height="400"><desc>Created with Highstock 6.2.0</desc><defs><clipPath id="highcharts-p6tl3mg-463"><rect x="0" y="0" width="464" height="260" fill="none"></rect></clipPath><clipPath id="highcharts-p6tl3mg-691"><rect x="0" y="0" width="464" height="260" fill="none"></rect></clipPath><clipPath id="highcharts-p6tl3mg-919"><rect x="0" y="0" width="464" height="260" fill="none"></rect></clipPath><clipPath id="highcharts-p6tl3mg-920"><rect x="68" y="63" width="464" height="260" fill="none"></rect></clipPath></defs><rect fill="#ffffff" class="highcharts-background" x="0" y="0" width="600" height="400" rx="0" ry="0"></rect><rect fill="none" class="highcharts-plot-background" x="68" y="63" width="464" height="260"></rect><g class="highcharts-pane-group" data-z-index="0"></g><g class="highcharts-grid highcharts-xaxis-grid " data-z-index="1"><path fill="none" data-z-index="1" class="highcharts-grid-line" d="M 150.5 63 L 150.5 323" opacity="1"></path><path fill="none" data-z-index="1" class="highcharts-grid-line" d="M 250.5 63 L 250.5 323" opacity="1"></path><path fill="none" data-z-index="1" class="highcharts-grid-line" d="M 350.5 63 L 350.5 323" opacity="1"></path><path fill="none" data-z-index="1" class="highcharts-grid-line" d="M 451.5 63 L 451.5 323" opacity="1"></path></g><g class="highcharts-grid highcharts-yaxis-grid " data-z-index="1"><path fill="none" stroke="#e6e6e6" stroke-width="1" data-z-index="1" class="highcharts-grid-line" d="M 68 323.5 L 532 323.5" opacity="1"></path><path fill="none" stroke="#e6e6e6" stroke-width="1" data-z-index="1" class="highcharts-grid-line" d="M 68 258.5 L 532 258.5" opacity="1"></path><path fill="none" stroke="#e6e6e6" stroke-width="1" data-z-index="1" class="highcharts-grid-line" d="M 68 193.5 L 532 193.5" opacity="1"></path><path fill="none" stroke="#e6e6e6" stroke-width="1" data-z-index="1" class="highcharts-grid-line" d="M 68 128.5 L 532 128.5" opacity="1"></path><path fill="none" stroke="#e6e6e6" stroke-width="1" data-z-index="1" class="highcharts-grid-line" d="M 68 62.5 L 532 62.5" opacity="1"></path></g><g class="highcharts-grid highcharts-yaxis-grid " data-z-index="1"><path fill="none" stroke="#e6e6e6" stroke-width="1" data-z-index="1" class="highcharts-grid-line" d="M 68 323.5 L 532 323.5" opacity="1"></path><path fill="none" stroke="#e6e6e6" stroke-width="1" data-z-index="1" class="highcharts-grid-line" d="M 68 258.5 L 532 258.5" opacity="1"></path><path fill="none" stroke="#e6e6e6" stroke-width="1" data-z-index="1" class="highcharts-grid-line" d="M 68 193.5 L 532 193.5" opacity="1"></path><path fill="none" stroke="#e6e6e6" stroke-width="1" data-z-index="1" class="highcharts-grid-line" d="M 68 128.5 L 532 128.5" opacity="1"></path><path fill="none" stroke="#e6e6e6" stroke-width="1" data-z-index="1" class="highcharts-grid-line" d="M 68 62.5 L 532 62.5" opacity="1"></path></g><rect fill="none" class="highcharts-plot-border" data-z-index="1" x="68" y="63" width="464" height="260"></rect><g class="highcharts-axis highcharts-xaxis " data-z-index="2"><path fill="none" class="highcharts-tick" stroke="#ccd6eb" stroke-width="1" d="M 150.5 323 L 150.5 333" opacity="1"></path><path fill="none" class="highcharts-tick" stroke="#ccd6eb" stroke-width="1" d="M 250.5 323 L 250.5 333" opacity="1"></path><path fill="none" class="highcharts-tick" stroke="#ccd6eb" stroke-width="1" d="M 350.5 323 L 350.5 333" opacity="1"></path><path fill="none" class="highcharts-tick" stroke="#ccd6eb" stroke-width="1" d="M 451.5 323 L 451.5 333" opacity="1"></path><path fill="none" class="highcharts-axis-line" stroke="#ccd6eb" stroke-width="1" data-z-index="7" d="M 68 323.5 L 532 323.5"></path></g><g class="highcharts-axis highcharts-yaxis " data-z-index="2"><text x="26" data-z-index="7" text-anchor="middle" transform="translate(0,0) rotate(270 26 193)" class="highcharts-axis-title" style="color:#666666;fill:#666666;" y="193"><tspan>SUM Fruity Pebbles consumption (serving)</tspan></text><path fill="none" class="highcharts-axis-line" stroke="#ccd6eb" stroke-width="1" data-z-index="7" d="M 67.5 63 L 67.5 323"></path></g><g class="highcharts-axis highcharts-yaxis " data-z-index="2"><text x="574" data-z-index="7" text-anchor="middle" transform="translate(0,0) rotate(90 574 193)" class="highcharts-axis-title" style="color:#666666;fill:#666666;" y="193"><tspan>MEAN Overall Mood (/5)</tspan></text><path fill="none" class="highcharts-axis-line" stroke="#ccd6eb" stroke-width="1" data-z-index="7" d="M 532.5 63 L 532.5 323"></path></g><g class="highcharts-series-group" data-z-index="3"><g data-z-index="0.1" class="highcharts-series highcharts-series-0 highcharts-spline-series highcharts-color-0 " transform="translate(68,63) scale(1 1)" clip-path="url(#highcharts-p6tl3mg-691)"><path fill="none" d="M 4.5490196078431 260 C 4.5490196078431 260 5.53082240090278 260 6.1853575962759 260 C 6.839892791649021 260 7.167160389335581 151.66666666666666 7.8216955847087 151.66666666666666 C 8.47623078008182 151.66666666666666 8.803498377768381 151.66666666666666 9.4580335731415 151.66666666666666 C 10.112568768514501 151.66666666666666 10.439836366201002 151.66666666666666 11.094371561574 151.66666666666666 C 11.748906756947202 151.66666666666666 12.076174354633801 151.66666666666666 12.730709550007 151.66666666666666 C 13.3852447453802 151.66666666666666 13.7125123430668 151.66666666666666 14.36704753844 151.66666666666666 C 15.021582733813199 151.66666666666666 15.348850331499799 151.66666666666666 16.003385526873 151.66666666666666 C 16.657920722245798 151.66666666666666 16.9851883199322 151.66666666666666 17.639723515305 151.66666666666666 C 18.2942587106782 151.66666666666666 18.6215263083648 151.66666666666666 19.276061503738 151.66666666666666 C 19.9305966991112 151.66666666666666 20.2578642967978 151.66666666666666 20.912399492171 151.66666666666666 C 21.566934687544197 151.66666666666666 21.8942022852308 151.66666666666666 22.548737480604 151.66666666666666 C 23.2032726759772 151.66666666666666 23.530540273663796 151.66666666666666 24.185075469037 151.66666666666666 C 24.839610664409797 151.66666666666666 25.1668782620962 151.66666666666666 25.821413457469 151.66666666666666 C 26.475948652842202 151.66666666666666 26.8032162505288 151.66666666666666 27.457751445902 151.66666666666666 C 28.112286641275197 151.66666666666666 28.4395542389618 43.333333333333314 29.094089434335 43.333333333333314 C 29.7486246297082 43.333333333333314 30.075892227394796 151.66666666666666 30.730427422768 151.66666666666666 C 31.384962618140797 151.66666666666666 31.7122302158272 151.66666666666666 32.3667654112 151.66666666666666 C 33.0213006065732 151.66666666666666 33.3485682042598 151.66666666666666 34.003103399633 151.66666666666666 C 34.6576385950062 151.66666666666666 34.984906192692804 151.66666666666666 35.639441388066 151.66666666666666 C 36.2939765834392 151.66666666666666 36.6212441811258 151.66666666666666 37.275779376499 151.66666666666666 C 37.9303145718722 151.66666666666666 38.2575821695588 151.66666666666666 38.912117364932 151.66666666666666 C 39.5666525603048 151.66666666666666 39.8939201579912 260 40.548455353364 260 C 41.20299054873719 260 41.5302581464238 260 42.184793341797 260 C 42.8393285371702 260 43.166596134856796 260 43.82113133023 260 C 44.4756665256032 260 44.8029341232898 260 45.457469318663 260 C 46.1120045140362 260 46.4392721117228 260 47.093807307096 260 C 47.7483425024688 260 48.0756101001552 260 48.730145295528 260 C 49.384680490901204 260 49.7119480885878 260 50.366483283961 260 C 51.0210184793342 260 51.3482860770208 260 52.002821272394 260 C 52.6573564677672 260 52.984624065453794 260 53.639159260827 260 C 54.293694456199795 260 54.6209620538862 260 55.275497249259 260 C 55.930032444632204 260 56.257300042318796 260 56.911835237692 260 C 57.56637043306521 260 57.8936380307518 151.66666666666666 58.548173226125 151.66666666666666 C 59.2027084214982 151.66666666666666 59.5299760191848 151.66666666666666 60.184511214558 151.66666666666666 C 60.8390464099312 151.66666666666666 61.1663140076178 151.66666666666666 61.820849202991 151.66666666666666 C 62.4753843983638 151.66666666666666 62.8026519960502 151.66666666666666 63.457187191423 151.66666666666666 C 64.1117223867962 151.66666666666666 64.4389899844828 151.66666666666666 65.093525179856 151.66666666666666 C 65.7480603752292 151.66666666666666 66.0753279729158 151.66666666666666 66.729863168289 151.66666666666666 C 67.3843983636622 151.66666666666666 67.7116659613488 151.66666666666666 68.366201156722 151.66666666666666 C 69.0207363520948 151.66666666666666 69.3480039497812 151.66666666666666 70.002539145154 151.66666666666666 C 70.6570743405272 151.66666666666666 70.9843419382138 151.66666666666666 71.638877133587 151.66666666666666 C 72.2934123289602 151.66666666666666 72.6206799266468 151.66666666666666 73.27521512202 151.66666666666666 C 73.9297503173932 151.66666666666666 74.2570179150798 151.66666666666666 74.911553110453 151.66666666666666 C 75.5660883058262 151.66666666666666 75.8933559035128 151.66666666666666 76.547891098886 151.66666666666666 C 77.2024262942588 151.66666666666666 77.5296938919452 151.66666666666666 78.184229087318 151.66666666666666 C 78.8387642826912 151.66666666666666 79.1660318803778 43.333333333333314 79.820567075751 43.333333333333314 C 80.4751022711242 43.333333333333314 80.8023698688108 151.66666666666666 81.456905064184 151.66666666666666 C 82.1114402595572 151.66666666666666 82.4387078572438 151.66666666666666 83.093243052617 151.66666666666666 C 83.7477782479902 151.66666666666666 84.0750458456768 151.66666666666666 84.72958104105 151.66666666666666 C 85.3841162364228 151.66666666666666 85.71138383410918 151.66666666666666 86.365919029482 151.66666666666666 C 87.02045422485519 151.66666666666666 87.3477218225418 151.66666666666666 88.002257017915 151.66666666666666 C 88.6567922132882 151.66666666666666 88.9840598109748 151.66666666666666 89.638595006348 151.66666666666666 C 90.2931302017212 151.66666666666666 90.6203977994078 260 91.274932994781 260 C 91.9294681901538 260 92.2567357878402 260 92.911270983213 260 C 93.5658061785862 260 93.8930737762728 260 94.547608971646 260 C 95.2021441670192 260 95.52941176470581 260 96.183946960079 260 C 96.8384821554522 260 97.1657497531388 260 97.820284948512 260 C 98.4748201438852 260 98.8020877415718 260 99.456622936945 260 C 100.11115813231899 260 100.438425730006 260 101.09296092538 260 C 101.747496120752 260 102.07476371843799 260 102.72929891381 260 C 103.383834109182 260 103.71110170686799 260 104.36563690224 260 C 105.020172097616 260 105.347439695304 260 106.00197489068 260 C 106.65651008605201 260 106.983777683738 260 107.63831287911 260 C 108.29284807448201 260 108.620115672168 260 109.27465086754 260 C 109.92918606291201 260 110.256453660598 260 110.91098885597 260 C 111.565524051346 260 111.89279164903401 260 112.54732684441 260 C 113.20186203978199 260 113.52912963746799 260 114.18366483284 260 C 114.83820002821199 260 115.16546762589799 260 115.82000282127 260 C 116.474538016646 260 116.80180561433399 260 117.45634080971 260 C 118.11087600508199 260 118.438143602768 260 119.09267879814 260 C 119.74721399351199 260 120.074481591198 260 120.72901678657 260 C 121.38355198194199 260 121.710819579628 260 122.365354775 260 C 123.019889970376 260 123.34715756806399 260 124.00169276344 260 C 124.656227958812 260 124.983495556498 260 125.63803075187 260 C 126.292565947242 260 126.619833544928 260 127.2743687403 260 C 127.928903935672 260 128.25617153335799 260 128.91070672873 260 C 129.56524192410598 260 129.892509521794 260 130.54704471717 260 C 131.201579912542 260 131.528847510228 260 132.1833827056 260 C 132.83791790097197 260 133.165185498658 260 133.81972069403 260 C 134.474255889406 260 134.801523487094 260 135.45605868247 260 C 136.11059387784198 260 136.437861475528 260 137.0923966709 260 C 137.746931866272 260 138.074199463958 151.66666666666666 138.72873465933 151.66666666666666 C 139.38326985470198 151.66666666666666 139.710537452388 151.66666666666666 140.36507264776 151.66666666666666 C 141.01960784313601 151.66666666666666 141.346875440824 151.66666666666666 142.0014106362 151.66666666666666 C 142.65594583157198 151.66666666666666 142.983213429258 151.66666666666666 143.63774862463 151.66666666666666 C 144.292283820002 151.66666666666666 144.619551417688 151.66666666666666 145.27408661306 151.66666666666666 C 145.928621808436 151.66666666666666 146.25588940612403 151.66666666666666 146.9104246015 151.66666666666666 C 147.56495979687202 151.66666666666666 147.892227394558 151.66666666666666 148.54676258993 151.66666666666666 C 149.201297785302 151.66666666666666 149.528565382988 260 150.18310057836 260 C 150.83763577373202 260 151.164903371418 260 151.81943856679 260 C 152.473973762166 260 152.801241359854 260 153.45577655523 260 C 154.11031175060197 260 154.437579348288 260 155.09211454366 260 C 155.746649739032 260 156.07391733671798 260 156.72845253209 260 C 157.38298772746197 260 157.710255325148 260 158.36479052052 260 C 159.638861459848 260 160.27589692951202 260 161.54996786884 260 C 161.58496732026 260 161.60246704597 260 161.63746649739 260 C 162.292001692762 260 162.619269290448 260 163.27380448582 260 C 163.92833968119598 260 164.255607278884 260 164.91014247426 260 C 165.564677669632 260 165.891945267318 260 166.54648046269 260 C 167.20101565806198 260 167.52828325574802 260 168.18281845112 260 C 168.837353646492 260 169.164621244178 260 169.81915643955 260 C 170.47369163492598 260 170.800959232614 260 171.45549442799 260 C 172.11002962336198 260 172.43729722104803 260 173.09183241642 260 C 173.746367611792 260 174.073635209478 260 174.72817040485 260 C 175.382705600226 260 175.70997319791402 260 176.36450839329 260 C 177.67357878403402 260 178.32811397940603 260 179.63718437015 260 C 180.29171956552202 260 180.618987163208 260 181.27352235858 260 C 181.92805755395597 260 182.255325151644 260 182.90986034702 260 C 183.564395542392 260 183.89166314007798 260 184.54619833545 260 C 185.85526872619397 260 186.50980392156598 260 187.81887431231 260 C 188.47340950768597 260 188.800677105374 260 189.45521230075 260 C 190.109747496122 260 190.437015093808 260 191.09155028918 260 C 191.746085484552 260 192.07335308223801 260 192.72788827761 260 C 194.036958668358 260 194.691493863732 260 196.00056425448 260 C 196.655099449852 260 196.982367047538 260 197.63690224291 260 C 198.291437438282 260 198.61870503596802 260 199.27324023134 260 C 199.927775426716 260 200.255043024404 260 200.90957821978 260 C 202.21864861052399 260 202.873183805896 260 204.18225419664 260 C 204.836789392016 260 205.16405698970402 260 205.81859218508 260 C 207.78219777119602 260 208.764000564254 260 210.72760615037 260 C 212.036676541118 260 212.691211736492 260 214.00028212724 260 C 214.65481732261202 260 214.98208492029804 260 215.63662011567 260 C 217.60022570178998 260 218.58202849485002 260 220.54563408097 260 C 221.854704471718 260 222.50923966709198 260 223.81831005784 260 C 225.12738044858398 260 225.781915643956 260 227.0909860347 260 C 227.74552123007197 260 228.072788827758 260 228.72732402313 260 C 229.381859218506 260 229.70912681619401 260 230.36366201157 260 C 231.01819720694203 260 231.345464804628 260 232 260 C 232.654535195372 260 232.98180279305797 260 233.63633798843 260 C 235.59994357454997 260 236.58174636761 260 238.54535195373 260 C 239.199887149102 260 239.52715474678797 260 240.18168994216 260 C 240.836225137536 260 241.163492735224 260 241.8180279306 260 C 242.47256312597202 260 242.79983072365803 260 243.45436591903 260 C 244.763436309778 260 245.417971505152 260 246.7270418959 260 C 249.345182677392 260 250.654253068138 260 253.27239384963 260 C 253.926929045002 260 254.254196642688 260 254.90873183806 260 C 264.07222457328396 260 268.653970940896 260 277.81746367612 260 C 279.78106926224 260 280.76287205529997 260 282.72647764142 260 C 285.34461842291205 260 286.65368881365805 260 289.27182959515 260 C 292.544505572014 260 294.180843560446 260 297.45351953731 260 C 298.10805473268204 260 298.435322330368 260 299.08985752574 260 C 299.744392721116 260 300.071660318804 260 300.72619551418 260 C 301.380730709552 260 301.707998307238 260 302.36253350261 260 C 303.67160389335805 260 304.326139088732 260 305.63520947948 260 C 308.90788545634405 260 310.544223444776 260 313.81689942164 260 C 315.125969812384 260 315.780505007756 260 317.0895753985 260 C 318.398645789248 260 319.05318098462203 260 320.36225137537 260 C 321.671321766118 260 322.325856961492 260 323.63492735224 260 C 324.28946254761206 260 324.61673014529805 260 325.27126534067 260 C 326.58033573141404 260 327.2348709267861 260 328.54394131753 260 C 329.19847651290604 260 329.525744110594 260 330.18027930597 260 C 332.14388489208994 260 333.12568768514996 260 335.08929327127 260 C 335.74382846664196 260 336.07109606432795 260 336.7256312597 260 C 337.38016645507196 260 337.707434052758 260 338.36196924813 260 C 339.01650444350196 260 339.343772041188 260 339.99830723656 260 C 341.307377627308 260 341.96191282268194 260 343.27098321343 260 C 344.58005360417394 260 345.23458879954603 260 346.54365919029 260 C 347.198194385666 260 347.525461983354 260 348.17999717873 260 C 348.83453237410197 260 349.16179997178796 260 349.81633516716 260 C 350.47087036253197 260 350.798137960218 260 351.45267315559 260 C 352.208570398582 260 352.586519020078 260 353.34241626307 260 C 353.895589410826 260 354.172175984704 260 354.72534913246 260 C 355.481246375448 260 355.859194996942 260 356.61509223993 260 C 357.733256532026 260 358.292338678074 260 359.41050297017 260 C 359.500047021206 260 359.544819046724 260 359.63436309776 260 C 360.28889829313204 260 360.616165890818 260 361.27070108619 260 C 361.925236281562 260 362.25250387924797 260 362.90703907462 260 C 363.662936317612 260 364.04088493910797 260 364.7967821821 260 C 365.349955329856 260 365.62654190373405 260 366.17971505149 260 C 366.83425024686204 260 367.16151784454803 260 367.81605303992 260 C 368.470588235292 260 368.797855832978 260 369.45239102835 260 C 370.10692622372596 260 370.434193821414 260 371.08872901679 260 C 371.743264212162 260 372.07053180984803 260 372.72506700522 260 C 373.37960220059205 260 373.70686979827803 260 374.36140499365 260 C 375.015940189022 260 375.343207786708 260 375.99774298208 260 C 376.65227817745597 260 376.979545775144 260 377.63408097052 260 C 378.389978213508 260 378.767926835002 205.83333333333331 379.52382407799 205.83333333333331 C 380.076997225746 205.83333333333331 380.353583799624 205.83333333333331 380.90675694738 205.83333333333331 C 381.56129214275603 205.83333333333331 381.888559740444 205.83333333333331 382.54309493582 205.83333333333331 C 383.197630131192 205.83333333333331 383.52489772887805 151.66666666666666 384.17943292425 151.66666666666666 C 384.833968119622 151.66666666666666 385.16123571730805 151.66666666666666 385.81577091268 151.66666666666666 C 386.47030610805206 151.66666666666666 386.79757370573805 151.66666666666666 387.45210890111 151.66666666666666 C 388.10664409648604 151.66666666666666 388.433911694174 151.66666666666666 389.08844688955 151.66666666666666 C 389.742982084922 151.66666666666666 390.07024968260805 205.83333333333331 390.72478487798 205.83333333333331 C 391.379320073352 205.83333333333331 391.70658767103805 205.83333333333331 392.36112286641 205.83333333333331 C 393.01565806178604 205.83333333333331 393.34292565947396 97.5 393.99746085485 97.5 C 394.651996050222 97.5 394.979263647908 151.66666666666666 395.63379884328 151.66666666666666 C 396.288334038652 151.66666666666666 396.61560163633794 151.66666666666666 397.27013683171 151.66666666666666 C 397.92467202708195 151.66666666666666 398.25193962476794 97.5 398.90647482014 97.5 C 399.561010015516 97.5 399.88827761320397 97.5 400.54281280858 97.5 C 401.197348003952 97.5 401.524615601638 97.5 402.17915079701 97.5 C 402.833685992382 97.5 403.16095359006795 43.333333333333314 403.81548878544 43.333333333333314 C 404.47002398081594 43.333333333333314 404.797291578504 151.66666666666666 405.45182677388 151.66666666666666 C 406.10636196925196 151.66666666666666 406.433629566938 151.66666666666666 407.08816476231 151.66666666666666 C 407.742699957682 151.66666666666666 408.069967555368 151.66666666666666 408.72450275074 151.66666666666666 C 409.379037946112 151.66666666666666 409.70630554379795 205.83333333333331 410.36084073917 205.83333333333331 C 411.01537593454594 205.83333333333331 411.342643532234 151.66666666666666 411.99717872761 151.66666666666666 C 412.65171392298197 151.66666666666666 412.978981520668 151.66666666666666 413.63351671604 151.66666666666666 C 414.288051911412 151.66666666666666 414.615319509098 205.83333333333331 415.26985470447 205.83333333333331 C 415.924389899842 205.83333333333331 416.25165749752796 205.83333333333331 416.9061926929 205.83333333333331 C 417.56072788827595 205.83333333333331 417.887995485964 205.83333333333331 418.54253068134 205.83333333333331 C 419.197065876712 205.83333333333331 419.524333474398 205.83333333333331 420.17886866977 205.83333333333331 C 420.83340386514203 205.83333333333331 421.160671462828 205.83333333333331 421.8152066582 205.83333333333331 C 422.469741853576 205.83333333333331 422.797009451264 205.83333333333331 423.45154464664 205.83333333333331 C 424.106079842012 205.83333333333331 424.43334743969797 205.83333333333331 425.08788263507 205.83333333333331 C 425.742417830442 205.83333333333331 426.069685428128 205.83333333333331 426.7242206235 205.83333333333331 C 427.37875581887204 205.83333333333331 427.706023416558 173.33333333326652 428.36055861193 151.66666666666666 C 429.015093807306 129.9999999999332 429.342361404994 97.5 429.99689660037 97.5 C 430.651431795742 97.5 430.978699393428 97.5 431.6332345888 97.5 C 432.287769784172 97.5 432.61503738185803 97.5 433.26957257723 97.5 C 433.924107772606 97.5 434.25137537029406 97.5 434.90591056567 97.5 C 435.56044576104205 97.5 435.887713358728 97.5 436.5422485541 97.5 C 437.196783749472 97.5 437.524051347158 97.5 438.17858654253 97.5 C 438.833121737902 97.5 439.16038933558804 130.0000000000668 439.81492453096 151.66666666666666 C 440.469459726336 173.3333333334001 440.79672732402406 205.83333333333331 441.4512625194 205.83333333333331 C 442.10579771477205 205.83333333333331 442.433065312458 97.5 443.08760050783 97.5 C 443.742135703202 97.5 444.069403300888 97.5 444.72393849626 97.5 C 445.378473691632 97.5 445.70574128931804 151.66666666666666 446.36027648469 151.66666666666666 C 447.01481168006603 151.66666666666666 447.34207927775407 97.5 447.99661447313 97.5 C 448.65114966850206 97.5 448.978417266188 97.5 449.63295246156 97.5 C 450.287487656932 97.5 450.614755254618 97.5 451.26929044999 97.5 C 451.92382564536604 97.5 452.251093243054 43.333333333333314 452.90562843843 43.333333333333314 C 453.56016363380206 43.333333333333314 453.887431231488 151.66666666666666 454.54196642686 151.66666666666666 C 455.19650162223195 151.66666666666666 455.523769219918 151.66666666666666 456.17830441529 151.66666666666666 C 456.832839610662 151.66666666666666 457.160107208348 151.66666666666666 457.81464240372 151.66666666666666 C 458.46917759909593 151.66666666666666 459.45098039216 205.83333333333331 459.45098039216 205.83333333333331" class="highcharts-graph" data-z-index="1" stroke="#000000" stroke-width="2" stroke-linejoin="round" stroke-linecap="round"></path></g><g data-z-index="0.1" class="highcharts-markers highcharts-series-0 highcharts-spline-series highcharts-color-0 " transform="translate(68,63) scale(1 1)" clip-path="none"></g><g data-z-index="0.1" class="highcharts-series highcharts-series-1 highcharts-spline-series highcharts-color-1 " transform="translate(68,63) scale(1 1)" clip-path="url(#highcharts-p6tl3mg-919)"><path fill="none" d="M 4.5490196078431 200.41666666666666 C 4.5490196078431 200.41666666666666 5.53082240090278 169.72222222222223 6.1853575962759 169.72222222222223 C 6.839892791649021 169.72222222222223 7.167160389335581 176.28787878787878 7.8216955847087 176.28787878787878 C 8.47623078008182 176.28787878787878 8.803498377768381 175.36868686868698 9.4580335731415 174.23611111111111 C 10.112568768514501 173.10353535353548 10.439836366201002 170.625 11.094371561574 170.625 C 11.748906756947202 170.625 12.076174354633801 173.82575757575756 12.730709550007 173.82575757575756 C 13.3852447453802 173.82575757575756 13.7125123430668 170.625 14.36704753844 170.625 C 15.021582733813199 170.625 15.348850331499799 174.88095238095238 16.003385526873 174.88095238095238 C 16.657920722245798 174.88095238095238 16.9851883199322 160.69444444444446 17.639723515305 160.69444444444446 C 18.2942587106782 160.69444444444446 18.6215263083648 166.1111111111111 19.276061503738 166.1111111111111 C 19.9305966991112 166.1111111111111 20.2578642967978 157.56481481481484 20.912399492171 154.67592592592592 C 21.566934687544197 151.78703703703707 21.8942022852308 151.66666666666666 22.548737480604 151.66666666666666 C 23.2032726759772 151.66666666666666 23.530540273663796 151.66666666666666 24.185075469037 151.66666666666666 C 24.839610664409797 151.66666666666666 25.1668782620962 151.66666666666666 25.821413457469 154.375 C 26.475948652842202 157.08333333333334 26.8032162505288 178.75 27.457751445902 178.75 C 28.112286641275197 178.75 28.4395542389618 154.375 29.094089434335 154.375 C 29.7486246297082 154.375 30.075892227394796 163.97727272727272 30.730427422768 163.97727272727272 C 31.384962618140797 163.97727272727272 31.7122302158272 160.69444444444446 32.3667654112 160.69444444444446 C 33.0213006065732 160.69444444444446 33.3485682042598 160.69444444444446 34.003103399633 160.69444444444446 C 34.6576385950062 160.69444444444446 34.984906192692804 174.23611111111114 35.639441388066 178.75 C 36.2939765834392 183.26388888888886 36.6212441811258 178.75 37.275779376499 183.26388888888886 C 37.9303145718722 187.77777777777771 38.2575821695588 201.31944444444446 38.912117364932 201.31944444444446 C 39.5666525603048 201.31944444444446 39.8939201579912 176.94444444444446 40.548455353364 169.72222222222223 C 41.20299054873719 162.5 41.5302581464238 164.48611111111111 42.184793341797 162.5 C 42.8393285371702 160.51388888888889 43.166596134856796 159.79166666666666 43.82113133023 159.79166666666666 C 44.4756665256032 159.79166666666666 44.8029341232898 169.72222222222223 45.457469318663 169.72222222222223 C 46.1120045140362 169.72222222222223 46.4392721117228 169.72222222222223 47.093807307096 169.72222222222223 C 47.7483425024688 169.72222222222223 48.0756101001552 169.72222222222223 48.730145295528 168.59375 C 49.384680490901204 167.46527777777777 49.7119480885878 160.69444444444446 50.366483283961 160.69444444444446 C 51.0210184793342 160.69444444444446 51.3482860770208 163.40277777777777 52.002821272394 165.20833333333331 C 52.6573564677672 167.01388888888886 52.984624065453794 168.56150793650758 53.639159260827 169.72222222222223 C 54.293694456199795 170.88293650793617 54.6209620538862 171.01190476190476 55.275497249259 171.01190476190476 C 55.930032444632204 171.01190476190476 56.257300042318796 151.66666666666666 56.911835237692 151.66666666666666 C 57.56637043306521 151.66666666666666 57.8936380307518 159.79166666666666 58.548173226125 165.20833333333331 C 59.2027084214982 170.625 59.5299760191848 178.75 60.184511214558 178.75 C 60.8390464099312 178.75 61.1663140076178 171.3988095238114 61.820849202991 165.20833333333331 C 62.4753843983638 159.01785714285901 62.8026519960502 151.66666666666666 63.457187191423 147.79761904761904 C 64.1117223867962 143.92857142857142 64.4389899844828 143.92857142857142 65.093525179856 143.92857142857142 C 65.7480603752292 143.92857142857142 66.0753279729158 144.89583333333331 66.729863168289 144.89583333333331 C 67.3843983636622 144.89583333333331 67.7116659613488 131.35416666666669 68.366201156722 127.96875 C 69.0207363520948 124.58333333333331 69.3480039497812 124.58333333333331 70.002539145154 124.58333333333331 C 70.6570743405272 124.58333333333331 70.9843419382138 124.58333333333331 71.638877133587 129.09722222222223 C 72.2934123289602 133.61111111111114 72.6206799266468 151.66666666666666 73.27521512202 151.66666666666666 C 73.9297503173932 151.66666666666666 74.2570179150798 149.1517857142857 74.911553110453 147.79761904761904 C 75.5660883058262 146.44345238095238 75.8933559035128 147.79761904761904 76.547891098886 144.89583333333331 C 77.2024262942588 141.9940476190476 77.5296938919452 131.35416666666669 78.184229087318 127.96875 C 78.8387642826912 124.58333333333331 79.1660318803778 124.58333333333331 79.820567075751 124.58333333333331 C 80.4751022711242 124.58333333333331 80.8023698688108 124.58333333333331 81.456905064184 124.58333333333331 C 82.1114402595572 124.58333333333331 82.4387078572438 124.58333333333331 83.093243052617 127.29166666666666 C 83.7477782479902 130 84.0750458456768 142.8645833333317 84.72958104105 148.28125 C 85.3841162364228 153.69791666666504 85.71138383410918 154.375 86.365919029482 154.375 C 87.02045422485519 154.375 87.3477218225418 134.73958333333331 88.002257017915 134.73958333333331 C 88.6567922132882 134.73958333333331 88.9840598109748 138.125 89.638595006348 138.125 C 90.2931302017212 138.125 90.6203977994078 134.73958333333331 91.274932994781 134.73958333333331 C 91.9294681901538 134.73958333333331 92.2567357878402 138.137310606061 92.911270983213 139.35606060606062 C 93.5658061785862 140.574810606061 93.8930737762728 139.35606060606062 94.547608971646 140.83333333333331 C 95.2021441670192 142.310606060606 95.52941176470581 170.625 96.183946960079 170.625 C 96.8384821554522 170.625 97.1657497531388 168.45833333333334 97.820284948512 162.5 C 98.4748201438852 156.54166666666666 98.8020877415718 140.83333333333331 99.456622936945 140.83333333333331 C 100.11115813231899 140.83333333333331 100.438425730006 151.66666666666666 101.09296092538 151.66666666666666 C 101.747496120752 151.66666666666666 102.07476371843799 151.66666666666666 102.72929891381 151.66666666666666 C 103.383834109182 151.66666666666666 103.71110170686799 137.15773809523807 104.36563690224 134.73958333333331 C 105.020172097616 132.32142857142856 105.347439695304 132.32142857142856 106.00197489068 132.32142857142856 C 106.65651008605201 132.32142857142856 106.983777683738 138.125 107.63831287911 138.125 C 108.29284807448201 138.125 108.620115672168 134.73958333333331 109.27465086754 134.73958333333331 C 109.92918606291201 134.73958333333331 110.256453660598 151.66666666666666 110.91098885597 151.66666666666666 C 111.565524051346 151.66666666666666 111.89279164903401 132.32142857142856 112.54732684441 132.32142857142856 C 113.20186203978199 132.32142857142856 113.52912963746799 134.73958333333331 114.18366483284 134.73958333333331 C 114.83820002821199 134.73958333333331 115.16546762589799 134.73958333333331 115.82000282127 134.73958333333331 C 116.474538016646 134.73958333333331 116.80180561433399 132.32142857142856 117.45634080971 132.32142857142856 C 118.11087600508199 132.32142857142856 118.438143602768 167.91666666666666 119.09267879814 167.91666666666666 C 119.74721399351199 167.91666666666666 120.074481591198 166.65277777777786 120.72901678657 160.69444444444446 C 121.38355198194199 154.7361111111112 121.710819579628 138.125 122.365354775 138.125 C 123.019889970376 138.125 123.34715756806399 151.66666666666666 124.00169276344 151.66666666666666 C 124.656227958812 151.66666666666666 124.983495556498 134.73958333333331 125.63803075187 134.73958333333331 C 126.292565947242 134.73958333333331 126.619833544928 145.6770833333332 127.2743687403 155.83333333333331 C 127.928903935672 165.9895833333332 128.25617153335799 185.52083333333331 128.91070672873 185.52083333333331 C 129.56524192410598 185.52083333333331 129.892509521794 139.62962962962962 130.54704471717 138.125 C 131.201579912542 136.62037037037038 131.528847510228 138.125 132.1833827056 136.62037037037038 C 132.83791790097197 135.11574074074076 133.165185498658 130.60185185185185 133.81972069403 130.60185185185185 C 134.474255889406 130.60185185185185 134.801523487094 130.60185185185185 135.45605868247 131.35416666666666 C 136.11059387784198 132.10648148148147 136.437861475528 139.62962962962962 137.0923966709 139.62962962962962 C 137.746931866272 139.62962962962962 138.074199463958 136.62037037037038 138.72873465933 136.62037037037038 C 139.38326985470198 136.62037037037038 139.710537452388 137.82407407408326 140.36507264776 140.83333333333331 C 141.01960784313601 143.8425925926018 141.346875440824 144.9861111110905 142.0014106362 151.66666666666666 C 142.65594583157198 158.34722222220162 142.983213429258 174.23611111111111 143.63774862463 174.23611111111111 C 144.292283820002 174.23611111111111 144.619551417688 164.43452380951248 145.27408661306 160.69444444444446 C 145.928621808436 156.95436507935372 146.25588940612403 157.34126984127533 146.9104246015 155.53571428571428 C 147.56495979687202 153.73015873016422 147.892227394558 155.1488095238096 148.54676258993 151.66666666666666 C 149.201297785302 148.18452380952388 149.528565382988 138.125 150.18310057836 138.125 C 150.83763577373202 138.125 151.164903371418 146.25000000001646 151.81943856679 151.66666666666666 C 152.473973762166 157.08333333334977 152.801241359854 165.20833333333331 153.45577655523 165.20833333333331 C 154.11031175060197 165.20833333333331 154.437579348288 129.09722222222223 155.09211454366 129.09722222222223 C 155.746649739032 129.09722222222223 156.07391733671798 151.66666666666666 156.72845253209 151.66666666666666 C 157.38298772746197 151.66666666666666 157.710255325148 151.66666666666666 158.36479052052 151.66666666666666 C 159.638861459848 151.66666666666666 160.27589692951202 178.75 161.54996786884 178.75 C 161.58496732026 178.75 161.60246704597 160.69444444444443 161.63746649739 156.18055555555554 C 162.292001692762 151.66666666666666 162.619269290448 156.18055555555554 163.27380448582 151.66666666666666 C 163.92833968119598 147.15277777777777 164.255607278884 129.09722222222223 164.91014247426 129.09722222222223 C 165.564677669632 129.09722222222223 165.891945267318 151.66666666666666 166.54648046269 151.66666666666666 C 167.20101565806198 151.66666666666666 167.52828325574802 151.66666666666666 168.18281845112 151.66666666666666 C 168.837353646492 151.66666666666666 169.164621244178 151.66666666666666 169.81915643955 151.66666666666666 C 170.47369163492598 151.66666666666666 170.800959232614 151.66666666666666 171.45549442799 151.66666666666666 C 172.11002962336198 151.66666666666666 172.43729722104803 151.66666666666666 173.09183241642 151.66666666666666 C 173.746367611792 151.66666666666666 174.073635209478 124.58333333333331 174.72817040485 124.58333333333331 C 175.382705600226 124.58333333333331 175.70997319791402 151.66666666666666 176.36450839329 151.66666666666666 C 177.67357878403402 151.66666666666666 178.32811397940603 151.66666666666666 179.63718437015 151.66666666666666 C 180.29171956552202 151.66666666666666 180.618987163208 151.66666666666666 181.27352235858 151.66666666666666 C 181.92805755395597 151.66666666666666 182.255325151644 151.66666666666666 182.90986034702 151.66666666666666 C 183.564395542392 151.66666666666666 183.89166314007798 151.66666666666666 184.54619833545 151.66666666666666 C 185.85526872619397 151.66666666666666 186.50980392156598 124.58333333333331 187.81887431231 124.58333333333331 C 188.47340950768597 124.58333333333331 188.800677105374 151.66666666666666 189.45521230075 151.66666666666666 C 190.109747496122 151.66666666666666 190.437015093808 151.66666666666666 191.09155028918 151.66666666666666 C 191.746085484552 151.66666666666666 192.07335308223801 151.66666666666666 192.72788827761 151.66666666666666 C 194.036958668358 151.66666666666666 194.691493863732 151.66666666666666 196.00056425448 151.66666666666666 C 196.655099449852 151.66666666666666 196.982367047538 151.66666666666666 197.63690224291 151.66666666666666 C 198.291437438282 151.66666666666666 198.61870503596802 124.58333333333331 199.27324023134 124.58333333333331 C 199.927775426716 124.58333333333331 200.255043024404 124.58333333333331 200.90957821978 124.58333333333331 C 202.21864861052399 124.58333333333331 202.873183805896 151.66666666666666 204.18225419664 151.66666666666666 C 204.836789392016 151.66666666666666 205.16405698970402 151.66666666666666 205.81859218508 151.66666666666666 C 207.78219777119602 151.66666666666666 208.764000564254 124.58333333333331 210.72760615037 124.58333333333331 C 212.036676541118 124.58333333333331 212.691211736492 124.58333333333331 214.00028212724 124.58333333333331 C 214.65481732261202 124.58333333333331 214.98208492029804 124.58333333333331 215.63662011567 124.58333333333331 C 217.60022570178998 124.58333333333331 218.58202849485002 151.66666666666666 220.54563408097 151.66666666666666 C 221.854704471718 151.66666666666666 222.50923966709198 151.66666666666666 223.81831005784 151.66666666666666 C 225.12738044858398 151.66666666666666 225.781915643956 124.58333333333331 227.0909860347 124.58333333333331 C 227.74552123007197 124.58333333333331 228.072788827758 124.58333333333331 228.72732402313 124.58333333333331 C 229.381859218506 124.58333333333331 229.70912681619401 124.58333333333331 230.36366201157 124.58333333333331 C 231.01819720694203 124.58333333333331 231.345464804628 151.66666666666666 232 151.66666666666666 C 232.654535195372 151.66666666666666 232.98180279305797 151.66666666666666 233.63633798843 151.66666666666666 C 235.59994357454997 151.66666666666666 236.58174636761 178.75 238.54535195373 178.75 C 239.199887149102 178.75 239.52715474678797 178.75 240.18168994216 178.75 C 240.836225137536 178.75 241.163492735224 178.75 241.8180279306 178.75 C 242.47256312597202 178.75 242.79983072365803 124.58333333333331 243.45436591903 124.58333333333331 C 244.763436309778 124.58333333333331 245.417971505152 124.58333333333331 246.7270418959 124.58333333333331 C 249.345182677392 124.58333333333331 250.654253068138 178.75 253.27239384963 178.75 C 253.926929045002 178.75 254.254196642688 151.66666666666666 254.90873183806 151.66666666666666 C 264.07222457328396 151.66666666666666 268.653970940896 151.66666666666666 277.81746367612 151.66666666666666 C 279.78106926224 151.66666666666666 280.76287205529997 151.66666666666666 282.72647764142 151.66666666666666 C 285.34461842291205 151.66666666666666 286.65368881365805 178.75 289.27182959515 178.75 C 292.544505572014 178.75 294.180843560446 178.75 297.45351953731 178.75 C 298.10805473268204 178.75 298.435322330368 178.75 299.08985752574 178.75 C 299.744392721116 178.75 300.071660318804 178.75 300.72619551418 178.75 C 301.380730709552 178.75 301.707998307238 178.75 302.36253350261 178.75 C 303.67160389335805 178.75 304.326139088732 151.66666666666666 305.63520947948 151.66666666666666 C 308.90788545634405 151.66666666666666 310.544223444776 151.66666666666666 313.81689942164 151.66666666666666 C 315.125969812384 151.66666666666666 315.780505007756 151.66666666666666 317.0895753985 151.66666666666666 C 318.398645789248 151.66666666666666 319.05318098462203 178.75 320.36225137537 178.75 C 321.671321766118 178.75 322.325856961492 178.75 323.63492735224 178.75 C 324.28946254761206 178.75 324.61673014529805 178.75 325.27126534067 178.75 C 326.58033573141404 178.75 327.2348709267861 178.75 328.54394131753 178.75 C 329.19847651290604 178.75 329.525744110594 178.75 330.18027930597 178.75 C 332.14388489208994 178.75 333.12568768514996 178.75 335.08929327127 178.75 C 335.74382846664196 178.75 336.07109606432795 151.66666666666666 336.7256312597 151.66666666666666 C 337.38016645507196 151.66666666666666 337.707434052758 151.66666666666666 338.36196924813 151.66666666666666 C 339.01650444350196 151.66666666666666 339.343772041188 151.66666666666666 339.99830723656 151.66666666666666 C 341.307377627308 151.66666666666666 341.96191282268194 151.66666666666666 343.27098321343 151.66666666666666 C 344.58005360417394 151.66666666666666 345.23458879954603 151.66666666666666 346.54365919029 151.66666666666666 C 347.198194385666 151.66666666666666 347.525461983354 165.20833333333331 348.17999717873 165.20833333333331 C 348.83453237410197 165.20833333333331 349.16179997178796 159.4047619047619 349.81633516716 159.4047619047619 C 350.47087036253197 159.4047619047619 350.798137960218 183.6732789313163 351.45267315559 192.29166666666666 C 352.208570398582 202.24470750274486 352.586519020078 205.83333333333331 353.34241626307 205.83333333333331 C 353.895589410826 205.83333333333331 354.172175984704 183.26388888888886 354.72534913246 183.26388888888886 C 355.481246375448 183.26388888888886 355.859194996942 205.83333333333331 356.61509223993 205.83333333333331 C 357.733256532026 205.83333333333331 358.292338678074 205.83333333333331 359.41050297017 205.83333333333331 C 359.500047021206 205.83333333333331 359.544819046724 188.35053233270938 359.63436309776 186.48809523809524 C 360.28889829313204 172.8743418565189 360.616165890818 167.14285714285714 361.27070108619 167.14285714285714 C 361.925236281562 167.14285714285714 362.25250387924797 182.6190476190476 362.90703907462 182.6190476190476 C 363.662936317612 182.6190476190476 364.04088493910797 182.6190476190476 364.7967821821 178.75 C 365.349955329856 174.8809523809524 365.62654190373405 156.18055555555554 366.17971505149 156.18055555555554 C 366.83425024686204 156.18055555555554 367.16151784454803 165.20833333333331 367.81605303992 165.20833333333331 C 368.470588235292 165.20833333333331 368.797855832978 159.4047619047619 369.45239102835 159.4047619047619 C 370.10692622372596 159.4047619047619 370.434193821414 205.83333333333331 371.08872901679 205.83333333333331 C 371.743264212162 205.83333333333331 372.07053180984803 163.27380952380952 372.72506700522 163.27380952380952 C 373.37960220059205 163.27380952380952 373.70686979827803 192.29166666666666 374.36140499365 192.29166666666666 C 375.015940189022 192.29166666666666 375.343207786708 186.48809523809524 375.99774298208 186.48809523809524 C 376.65227817745597 186.48809523809524 376.979545775144 186.48809523809524 377.63408097052 190.35714285714283 C 378.389978213508 194.22619047619042 378.767926835002 232.91666666666666 379.52382407799 232.91666666666666 C 380.076997225746 232.91666666666666 380.353583799624 201.31944444444446 380.90675694738 201.31944444444446 C 381.56129214275603 201.31944444444446 381.888559740444 201.565656565651 382.54309493582 203.37121212121212 C 383.197630131192 205.17676767676213 383.52489772887805 210.34722222222223 384.17943292425 210.34722222222223 C 384.833968119622 210.34722222222223 385.16123571730805 185.97222222222223 385.81577091268 185.97222222222223 C 386.47030610805206 185.97222222222223 386.79757370573805 185.97222222222223 387.45210890111 186.13636363636363 C 388.10664409648604 186.30050505050502 388.433911694174 196.16071428571428 389.08844688955 196.16071428571428 C 389.742982084922 196.16071428571428 390.07024968260805 191.85639880952382 390.72478487798 187.21354166666666 C 391.379320073352 182.57068452380952 391.70658767103805 172.94642857142856 392.36112286641 172.94642857142856 C 393.01565806178604 172.94642857142856 393.34292565947396 178.75 393.99746085485 180.10416666666666 C 394.651996050222 181.45833333333331 394.979263647908 180.89583333333334 395.63379884328 181.45833333333331 C 396.288334038652 182.02083333333334 396.61560163633794 182.91666666666666 397.27013683171 182.91666666666666 C 397.92467202708195 182.91666666666666 398.25193962476794 178.75 398.90647482014 178.75 C 399.561010015516 178.75 399.88827761320397 178.75 400.54281280858 178.75 C 401.197348003952 178.75 401.524615601638 180.83333333333331 402.17915079701 180.83333333333331 C 402.833685992382 180.83333333333331 403.16095359006795 178.75 403.81548878544 178.75 C 404.47002398081594 178.75 404.797291578504 181.45833333332502 405.45182677388 184.16666666666669 C 406.10636196925196 186.87499999999167 406.433629566938 192.29166666666666 407.08816476231 192.29166666666666 C 407.742699957682 192.29166666666666 408.069967555368 184.55357142857144 408.72450275074 184.55357142857144 C 409.379037946112 184.55357142857144 409.70630554379795 187.23914565826652 410.36084073917 188.30882352941177 C 411.01537593454594 189.3785014005634 411.342643532234 189.9019607843137 411.99717872761 189.9019607843137 C 412.65171392298197 189.9019607843137 412.978981520668 180.55555555555554 413.63351671604 180.55555555555554 C 414.288051911412 180.55555555555554 414.615319509098 181.75496031746044 415.26985470447 184.55357142857144 C 415.924389899842 187.35218253968267 416.25165749752796 194.54861111111111 416.9061926929 194.54861111111111 C 417.56072788827595 194.54861111111111 417.887995485964 190.48611111111944 418.54253068134 187.77777777777777 C 419.197065876712 185.06944444445278 419.524333474398 181.1805555555556 420.17886866977 181.00694444444446 C 420.83340386514203 180.83333333333331 421.160671462828 180.9236111111108 421.8152066582 180.83333333333331 C 422.469741853576 180.74305555555526 422.797009451264 180.55555555555554 423.45154464664 180.55555555555554 C 424.106079842012 180.55555555555554 424.43334743969797 191.38888888888889 425.08788263507 191.38888888888889 C 425.742417830442 191.38888888888889 426.069685428128 171.01190476190476 426.7242206235 171.01190476190476 C 427.37875581887204 171.01190476190476 427.706023416558 182.7949134199313 428.36055861193 188.59848484848484 C 429.015093807306 194.40205627707417 429.342361404994 200.0297619047619 429.99689660037 200.0297619047619 C 430.651431795742 200.0297619047619 430.978699393428 196.25554388422043 431.6332345888 194.54861111111111 C 432.287769784172 192.84167833800197 432.61503738185803 191.4950980392157 433.26957257723 191.4950980392157 C 433.924107772606 191.4950980392157 434.25137537029406 195.41666666666666 434.90591056567 195.41666666666666 C 435.56044576104205 195.41666666666666 435.887713358728 191.11111111111126 436.5422485541 187.77777777777777 C 437.196783749472 184.4444444444446 437.524051347158 178.75 438.17858654253 178.75 C 438.833121737902 178.75 439.16038933558804 188.90625 439.81492453096 188.90625 C 440.469459726336 188.90625 440.79672732402406 182.1354166666768 441.4512625194 178.75 C 442.10579771477205 175.36458333334346 442.433065312458 171.97916666666666 443.08760050783 171.97916666666666 C 443.742135703202 171.97916666666666 444.069403300888 176.38392857142836 444.72393849626 180.83333333333331 C 445.378473691632 185.2827380952379 445.70574128931804 194.22619047619048 446.36027648469 194.22619047619048 C 447.01481168006603 194.22619047619048 447.34207927775407 190.3805916305994 447.99661447313 187.77777777777777 C 448.65114966850206 185.1749639249717 448.978417266188 181.2121212121212 449.63295246156 181.2121212121212 C 450.287487656932 181.2121212121212 450.614755254618 187.33145017538916 451.26929044999 190.9811827956989 C 451.92382564536604 194.63091541603086 452.251093243054 199.46078431372547 452.90562843843 199.46078431372547 C 453.56016363380206 199.46078431372547 453.887431231488 188.36021505376345 454.54196642686 188.36021505376345 C 455.19650162223195 188.36021505376345 455.523769219918 190.59895833333331 456.17830441529 190.59895833333331 C 456.832839610662 190.59895833333331 457.160107208348 185.52083333333331 457.81464240372 185.52083333333331 C 458.46917759909593 185.52083333333331 459.45098039216 194.22619047619048 459.45098039216 194.22619047619048" class="highcharts-graph" data-z-index="1" stroke="#5D83FF" stroke-width="2" stroke-linejoin="round" stroke-linecap="round"></path></g><g data-z-index="0.1" class="highcharts-markers highcharts-series-1 highcharts-spline-series highcharts-color-1 " transform="translate(68,63) scale(1 1)" clip-path="none"></g></g><text x="300" text-anchor="middle" class="highcharts-title" data-z-index="4" style="color:#333333;font-size:18px;fill:#333333;" y="24"><tspan>Fruity Pebbles Consumption &amp; Overall Mood Over Time</tspan></text><text x="300" text-anchor="middle" class="highcharts-subtitle" data-z-index="4" style="color:#666666;fill:#666666;" y="46"><tspan>Black represents the sum of Fruity Pebbles consumption over the previous 7 days</tspan></text><g class="highcharts-legend" data-z-index="7" transform="translate(78,358)"><rect fill="none" class="highcharts-legend-box" rx="0" ry="0" x="0" y="0" width="444" height="27" visibility="visible"></rect><g data-z-index="1"><g><g class="highcharts-legend-item highcharts-spline-series highcharts-color-0 highcharts-series-0" data-z-index="1" transform="translate(8,3)"><path fill="none" d="M 0 11 L 16 11" class="highcharts-graph" stroke="#000000" stroke-width="2"></path><path fill="#000000" d="M 12 11 A 4 4 0 1 1 11.999998000000167 10.996000000666664 Z" class="highcharts-point"></path><text x="21" style="color:#333333;font-size:12px;font-weight:bold;cursor:pointer;fill:#333333;" text-anchor="start" data-z-index="2" y="15"><tspan>Fruity Pebbles consumption (serving)</tspan></text></g><g class="highcharts-legend-item highcharts-spline-series highcharts-color-1 highcharts-series-1" data-z-index="1" transform="translate(296,3)"><path fill="none" d="M 0 11 L 16 11" class="highcharts-graph" stroke="#5D83FF" stroke-width="2"></path><path fill="#5D83FF" d="M 8 7 L 12 11 8 15 4 11 Z" class="highcharts-point"></path><text x="21" y="15" style="color:#333333;font-size:12px;font-weight:bold;cursor:pointer;fill:#333333;" text-anchor="start" data-z-index="2"><tspan>Overall Mood (/5)</tspan></text></g></g></g></g><g class="highcharts-axis-labels highcharts-xaxis-labels " data-z-index="7"><text x="154.00574442407" style="color:#666666;cursor:default;font-size:11px;fill:#666666;" text-anchor="start" transform="translate(0,0)" y="342" opacity="1"><tspan>Mar '13</tspan></text><text x="253.82236171847" style="color:#666666;cursor:default;font-size:11px;fill:#666666;" text-anchor="start" transform="translate(0,0)" y="342" opacity="1"><tspan>May '13</tspan></text><text x="353.63897901287" style="color:#666666;cursor:default;font-size:11px;fill:#666666;" text-anchor="start" transform="translate(0,0)" y="342" opacity="1"><tspan>Jul '13</tspan></text><text x="455.0919342957" style="color:#666666;cursor:default;font-size:11px;fill:#666666;" text-anchor="start" transform="translate(0,0)" y="342" opacity="1"><tspan>Sep '13</tspan></text></g><g class="highcharts-axis-labels highcharts-yaxis-labels " data-z-index="7"><text x="53" style="color:#666666;cursor:default;font-size:11px;fill:#666666;" text-anchor="end" transform="translate(0,0)" y="327" opacity="1">0</text><text x="53" style="color:#666666;cursor:default;font-size:11px;fill:#666666;" text-anchor="end" transform="translate(0,0)" y="262" opacity="1">1.2</text><text x="53" style="color:#666666;cursor:default;font-size:11px;fill:#666666;" text-anchor="end" transform="translate(0,0)" y="197" opacity="1">2.4</text><text x="53" style="color:#666666;cursor:default;font-size:11px;fill:#666666;" text-anchor="end" transform="translate(0,0)" y="132" opacity="1">3.6</text><text x="53" style="color:#666666;cursor:default;font-size:11px;fill:#666666;" text-anchor="end" transform="translate(0,0)" y="67" opacity="1">4.8</text></g><g class="highcharts-axis-labels highcharts-yaxis-labels " data-z-index="7"><text x="547" style="color:#666666;cursor:default;font-size:11px;fill:#666666;" text-anchor="start" transform="translate(0,0)" y="327" opacity="1">0</text><text x="547" style="color:#666666;cursor:default;font-size:11px;fill:#666666;" text-anchor="start" transform="translate(0,0)" y="262" opacity="1">2.4</text><text x="547" style="color:#666666;cursor:default;font-size:11px;fill:#666666;" text-anchor="start" transform="translate(0,0)" y="197" opacity="1">4.8</text><text x="547" style="color:#666666;cursor:default;font-size:11px;fill:#666666;" text-anchor="start" transform="translate(0,0)" y="132" opacity="1">7.2</text><text x="547" style="color:#666666;cursor:default;font-size:11px;fill:#666666;" text-anchor="start" transform="translate(0,0)" y="67" opacity="1">9.6</text></g><a xlink:href="https://quantimo.do" target="_blank">
                    <text x="590" class="highcharts-credits" text-anchor="end" data-z-index="8"
                          style="cursor:pointer;color:#999999;font-size:9px;fill:#999999;" y="395">https://quantimo.do
                    </text>
                </a></svg>