<?xml version="1.0" standalone="no"?><!DOCTYPE svg PUBLIC "-//W3C//DTD SVG 1.1//EN" "http://www.w3.org/Graphics/SVG/1.1/DTD/svg11.dtd"><svg xmlns:xlink="http://www.w3.org/1999/xlink" version="1.1" class="highcharts-root" style="font-family:&quot;Lucida Grande&quot;, &quot;Lucida Sans Unicode&quot;, Arial, Helvetica, sans-serif;font-size:12px;" xmlns="http://www.w3.org/2000/svg" width="600" height="400"><desc>Created with Highstock 6.2.0</desc><defs><clipPath id="highcharts-3l132e1-505"><rect x="0" y="0" width="463" height="260" fill="none"></rect></clipPath><clipPath id="highcharts-3l132e1-754"><rect x="0" y="0" width="463" height="260" fill="none"></rect></clipPath><clipPath id="highcharts-3l132e1-1003"><rect x="0" y="0" width="463" height="260" fill="none"></rect></clipPath><clipPath id="highcharts-3l132e1-1004"><rect x="79" y="63" width="463" height="260" fill="none"></rect></clipPath></defs><rect fill="#ffffff" class="highcharts-background" x="0" y="0" width="600" height="400" rx="0" ry="0"></rect><rect fill="none" class="highcharts-plot-background" x="79" y="63" width="463" height="260"></rect><g class="highcharts-pane-group" data-z-index="0"></g><g class="highcharts-grid highcharts-xaxis-grid " data-z-index="1"><path fill="none" data-z-index="1" class="highcharts-grid-line" d="M 79.5 63 L 79.5 323" opacity="1"></path><path fill="none" data-z-index="1" class="highcharts-grid-line" d="M 175.5 63 L 175.5 323" opacity="1"></path><path fill="none" data-z-index="1" class="highcharts-grid-line" d="M 272.5 63 L 272.5 323" opacity="1"></path><path fill="none" data-z-index="1" class="highcharts-grid-line" d="M 365.5 63 L 365.5 323" opacity="1"></path><path fill="none" data-z-index="1" class="highcharts-grid-line" d="M 461.5 63 L 461.5 323" opacity="1"></path></g><g class="highcharts-grid highcharts-yaxis-grid " data-z-index="1"><path fill="none" stroke="#e6e6e6" stroke-width="1" data-z-index="1" class="highcharts-grid-line" d="M 79 323.5 L 542 323.5" opacity="1"></path><path fill="none" stroke="#e6e6e6" stroke-width="1" data-z-index="1" class="highcharts-grid-line" d="M 79 258.5 L 542 258.5" opacity="1"></path><path fill="none" stroke="#e6e6e6" stroke-width="1" data-z-index="1" class="highcharts-grid-line" d="M 79 193.5 L 542 193.5" opacity="1"></path><path fill="none" stroke="#e6e6e6" stroke-width="1" data-z-index="1" class="highcharts-grid-line" d="M 79 128.5 L 542 128.5" opacity="1"></path><path fill="none" stroke="#e6e6e6" stroke-width="1" data-z-index="1" class="highcharts-grid-line" d="M 79 62.5 L 542 62.5" opacity="1"></path></g><g class="highcharts-grid highcharts-yaxis-grid " data-z-index="1"><path fill="none" stroke="#e6e6e6" stroke-width="1" data-z-index="1" class="highcharts-grid-line" d="M 79 323.5 L 542 323.5" opacity="1"></path><path fill="none" stroke="#e6e6e6" stroke-width="1" data-z-index="1" class="highcharts-grid-line" d="M 79 258.5 L 542 258.5" opacity="1"></path><path fill="none" stroke="#e6e6e6" stroke-width="1" data-z-index="1" class="highcharts-grid-line" d="M 79 193.5 L 542 193.5" opacity="1"></path><path fill="none" stroke="#e6e6e6" stroke-width="1" data-z-index="1" class="highcharts-grid-line" d="M 79 128.5 L 542 128.5" opacity="1"></path><path fill="none" stroke="#e6e6e6" stroke-width="1" data-z-index="1" class="highcharts-grid-line" d="M 79 62.5 L 542 62.5" opacity="1"></path></g><rect fill="none" class="highcharts-plot-border" data-z-index="1" x="79" y="63" width="463" height="260"></rect><g class="highcharts-axis highcharts-xaxis " data-z-index="2"><path fill="none" class="highcharts-tick" stroke="#ccd6eb" stroke-width="1" d="M 79.5 323 L 79.5 333" opacity="1"></path><path fill="none" class="highcharts-tick" stroke="#ccd6eb" stroke-width="1" d="M 175.5 323 L 175.5 333" opacity="1"></path><path fill="none" class="highcharts-tick" stroke="#ccd6eb" stroke-width="1" d="M 272.5 323 L 272.5 333" opacity="1"></path><path fill="none" class="highcharts-tick" stroke="#ccd6eb" stroke-width="1" d="M 365.5 323 L 365.5 333" opacity="1"></path><path fill="none" class="highcharts-tick" stroke="#ccd6eb" stroke-width="1" d="M 461.5 323 L 461.5 333" opacity="1"></path><path fill="none" class="highcharts-axis-line" stroke="#ccd6eb" stroke-width="1" data-z-index="7" d="M 79 323.5 L 542 323.5"></path></g><g class="highcharts-axis highcharts-yaxis " data-z-index="2"><text x="26" data-z-index="7" text-anchor="middle" transform="translate(0,0) rotate(270 26 193)" class="highcharts-axis-title" style="color:#666666;fill:#666666;" y="193"><tspan>MEAN Vitamin D3 By NatureMade (mcg)</tspan></text><path fill="none" class="highcharts-axis-line" stroke="#ccd6eb" stroke-width="1" data-z-index="7" d="M 78.5 63 L 78.5 323"></path></g><g class="highcharts-axis highcharts-yaxis " data-z-index="2"><text x="574" data-z-index="7" text-anchor="middle" transform="translate(0,0) rotate(90 574 193)" class="highcharts-axis-title" style="color:#666666;fill:#666666;" y="193"><tspan>MEAN Overall Mood (/5)</tspan></text><path fill="none" class="highcharts-axis-line" stroke="#ccd6eb" stroke-width="1" data-z-index="7" d="M 542.5 63 L 542.5 323"></path></g><g class="highcharts-series-group" data-z-index="3"><g data-z-index="0.1" class="highcharts-series highcharts-series-0 highcharts-spline-series highcharts-color-0 " transform="translate(79,63) scale(1 1)" clip-path="url(#highcharts-3l132e1-754)"><path fill="none" d="M 4.5392156862745 260 C 4.5392156862745 260 5.48488562091502 260 6.1153322440087 260 C 6.745778867102381 260 7.06100217864922 260 7.6914488017429 260 C 8.32189542483658 260 8.63711873638342 260 9.2675653594771 260 C 9.89801198257066 260 10.21323529411744 260 10.843681917211 260 C 11.474128540305 260 11.789351851852 260 12.419798474946 260 C 13.050245098039602 260 13.365468409586398 260 13.99591503268 260 C 14.626361655773598 260 14.941584967320399 260 15.572031590414 260 C 16.2024782135076 260 16.5177015250544 260 17.148148148148 260 C 17.7785947712416 260 18.0938180827884 260 18.724264705882 260 C 19.354711328976 260 19.669934640523 260 20.300381263617 260 C 20.930827886710595 260 21.246051198257398 260 21.876497821351 260 C 22.5069444444446 260 22.822167755991398 260 23.452614379085 260 C 24.083061002178603 260 24.398284313725398 260 25.028730936819 260 C 25.6591775599126 260 25.974400871459398 260 26.604847494553 260 C 27.235294117646998 260 27.550517429193995 260 28.180964052288 260 C 28.8114106753816 260 29.126633986928404 260 29.757080610022 260 C 30.3875272331156 260 30.7027505446624 260 31.333197167756 260 C 31.963643790849602 260 32.278867102396404 260 32.90931372549 260 C 33.539760348583606 260 33.8549836601304 260 34.485430283224 260 C 35.115876906318 260 35.431100217864994 260 36.061546840959 260 C 36.6919934640526 260 37.007216775599396 260 37.637663398693 260 C 38.2681100217866 260 38.58333333333339 260 39.213779956427 260 C 39.844226579520594 260 40.1594498910674 260 40.789896514161 260 C 41.4203431372546 260 41.7355664488014 260 42.366013071895 260 C 42.996459694989 260 43.311683006536 260 43.94212962963 260 C 44.5725762527236 260 44.887799564270395 260 45.518246187364 260 C 46.148692810457604 260 46.4639161220044 260 47.094362745098 260 C 47.7248093681916 260 48.040032679738395 260 48.670479302832 260 C 49.3009259259256 260 49.616149237472406 260 50.246595860566 260 C 50.87704248366 260 51.19226579520701 259.35515873015873 51.822712418301 259.2261904761905 C 52.4531590413946 259.09722222222223 52.7683823529414 259.2261904761905 53.398828976035 259.09722222222223 C 54.029275599128596 258.968253968254 54.3444989106754 258.45238095238096 54.974945533769 258.45238095238096 C 55.60539215686261 258.45238095238096 55.920615468409395 258.45238095238096 56.551062091503 258.45238095238096 C 57.1815087145966 258.45238095238096 57.4967320261434 258.45238095238096 58.127178649237 258.45238095238096 C 58.757625272331005 258.45238095238096 59.072848583878 258.45238095238096 59.703295206972 258.45238095238096 C 60.333741830065605 258.45238095238096 60.64896514161239 258.45238095238096 61.279411764706 258.45238095238096 C 61.9098583877996 258.45238095238096 62.225081699346404 259.1294642857143 62.85552832244 259.2261904761905 C 63.4859749455336 259.3229166666667 63.8011982570804 259.2261904761905 64.431644880174 259.3229166666667 C 65.06209150326761 259.4196428571429 65.3773148148144 260 66.007761437908 260 C 66.638208061002 260 66.95343137254899 260 67.583877995643 260 C 68.2143246187366 260 68.5295479302834 260 69.159994553377 260 C 69.79044117647061 260 70.1056644880174 260 70.736111111111 260 C 71.36655773420459 260 71.6817810457514 260 72.312227668845 260 C 72.942674291939 260 73.257897603486 260 73.88834422658 260 C 74.51879084967361 260 74.8340141612204 260 75.464460784314 260 C 76.09490740740759 260 76.4101307189544 260 77.040577342048 260 C 77.6710239651416 260 77.9862472766884 260 78.616693899782 260 C 79.24714052287561 260 79.5623638344224 260 80.192810457516 260 C 80.82325708061 260 81.13848039215699 260 81.768927015251 260 C 82.3993736383446 260 82.7145969498914 260 83.345043572985 260 C 83.97549019607861 260 84.2907135076254 260 84.921160130719 260 C 85.55160675381259 260 85.86683006535941 260 86.497276688453 260 C 87.1277233115466 260 87.44294662309339 260 88.073393246187 260 C 88.703839869281 260 89.019063180828 260 89.649509803922 260 C 90.37758809156401 260 90.741627235385 260 91.469705523027 260 C 92.00252048157219 260 92.2689279608448 260 92.80174291939 260 C 93.4321895424836 260 93.7474128540304 260 94.377859477124 260 C 95.0083061002176 260 95.32352941176441 260 95.953976034858 260 C 96.6820543225004 260 97.0460934663216 260 97.774171753964 260 C 98.3069867125092 260 98.5733941917818 260 99.106209150327 260 C 99.73665577342021 260 100.0518790849668 260 100.68232570806 260 C 101.312772331156 260 101.62799564270401 260 102.2584422658 260 C 102.88888888889201 260 103.204112200438 260 103.83455882353 260 C 105.095452069718 260 105.72589869281201 260 106.986791939 260 C 107.61723856209201 260 107.932461873638 260 108.56290849673 260 C 109.193355119826 260 109.508578431374 260 110.13902505447 260 C 110.769471677562 260 111.08469498910799 260 111.7151416122 260 C 112.34558823529201 260 112.660811546838 260 113.29125816993 260 C 113.921704793026 260 114.236928104574 260 114.86737472767 260 C 115.497821350762 260 115.81304466230799 260 116.4434912854 260 C 117.073937908496 260 117.389161220044 260 118.01960784314 260 C 118.65005446623199 260 118.96527777777801 260 119.59572440087 260 C 120.226171023966 260 120.541394335514 260 121.17184095861 260 C 121.80228758170202 260 122.11751089324801 260 122.74795751634 260 C 123.37840413943199 260 123.69362745097801 260 124.32407407407 260 C 124.954520697166 260 125.269744008714 260 125.90019063181 260 C 126.53063725490202 260 126.84586056644801 260 127.47630718954 260 C 128.106753812636 260 128.421977124184 260 129.05242374728 260 C 129.68287037037197 260 129.998093681918 260 130.62854030501 260 C 131.25898692810603 260 131.574210239654 260 132.20465686275 260 C 132.835103485842 260 133.150326797388 260 133.78077342048 260 C 134.41122004357197 260 134.726443355118 260 135.35688997821 260 C 135.98733660130603 260 136.302559912854 260 136.93300653595 260 C 137.563453159042 260 137.878676470588 260 138.50912309368 260 C 139.13956971677598 260 139.454793028324 260 140.08523965142 260 C 140.71568627451202 260 141.03090958605802 260 141.66135620915 260 C 142.291802832242 260 142.607026143788 260 143.23747276688 260 C 143.86791938997598 260 144.183142701524 260 144.81358932462 260 C 145.44403594771202 260 145.75925925925802 260 146.38970588235 260 C 147.020152505446 260 147.335375816994 260 147.96582244009 260 C 148.59626906318198 260 148.911492374728 260 149.54193899782 260 C 150.17238562091603 260 150.487608932464 260 151.11805555556 260 C 151.74850217865202 260 152.063725490198 260 152.69417211329 260 C 153.32461873638198 260 153.639842047928 260 154.27028867102 260 C 154.90073529411603 260 155.215958605664 260 155.84640522876 260 C 156.47685185185202 260 156.792075163398 260 157.42252178649 260 C 158.052968409586 260 158.368191721134 260 158.99863834423 260 C 159.62908496732197 260 159.944308278868 260 160.57475490196 260 C 161.20520152505202 260 161.520424836598 260 162.15087145969 260 C 162.781318082786 260 163.096541394334 260 163.72698801743 260 C 164.35743464052197 260 164.672657952068 260 165.30310457516 260 C 165.933551198256 260 166.248774509804 260 166.8792211329 260 C 167.50966775599198 260 167.82489106753798 260 168.45533769063 260 C 169.08578431372598 260 169.401007625274 260 170.03145424837 260 C 170.66190087146202 260 170.977124183008 260 171.6075708061 260 C 172.23801742919198 260 172.55324074073798 260 173.18368736383 260 C 174.10221306886598 260 174.561475921384 260 175.48000162642 260 C 175.822369167572 260 175.99355293814799 260 176.3359204793 260 C 176.966367102396 260 177.281590413944 260 177.91203703704 260 C 178.54248366013198 260 178.857706971678 260 179.48815359477 260 C 180.118600217866 260 180.43382352941398 260 181.06427015251 260 C 182.32516339869397 260 182.95561002178601 260 184.21650326797 260 C 184.846949891066 260 185.16217320261399 260 185.79261982571 260 C 186.423066448802 260 186.73828976034798 260 187.36873638344 260 C 187.999183006536 260 188.314406318084 260 188.94485294118 260 C 189.575299564272 260 189.890522875818 260 190.52096949891 260 C 191.151416122002 260 191.46663943354798 260 192.09708605664 260 C 192.727532679736 260 193.042755991284 260 193.67320261438 260 C 194.303649237472 260 194.618872549018 260 195.24931917211 260 C 195.879765795206 260 196.194989106754 260 196.82543572985 260 C 197.45588235294198 260 197.771105664488 260 198.40155228758 260 C 199.031998910676 260 199.347222222224 260 199.97766884532 260 C 200.608115468412 260 200.923338779958 260 201.55378540305 260 C 202.18423202614198 260 202.499455337688 260 203.12990196078 260 C 203.760348583876 260 204.075571895424 260 204.70601851852 260 C 205.336465141612 260 205.65168845315802 260 206.28213507625 260 C 206.912581699346 260 207.227805010894 260 207.85825163399 260 C 208.48869825708198 260 208.803921568628 260 209.43436819172 260 C 210.064814814816 260 210.38003812636398 260 211.01048474946 260 C 211.640931372552 260 211.956154684098 260 212.58660130719 260 C 213.21704793028204 260 213.532271241828 260 214.16271786492 260 C 214.793164488016 260 215.108387799564 260 215.73883442266 260 C 216.369281045752 260 216.684504357298 260 217.31495098039 260 C 217.945397603486 260 218.260620915034 260 218.89106753813 260 C 219.521514161222 260 219.836737472768 260 220.46718409586 260 C 221.097630718952 260 221.412854030498 260 222.04330065359 260 C 222.673747276686 260 222.988970588234 260 223.61941721133 260 C 224.249863834422 260 224.565087145968 260 225.19553376906 260 C 225.825980392156 260 226.141203703704 260 226.7716503268 260 C 227.52599722373597 260 227.903170672204 260 228.65751756914 260 C 229.794510541484 260 230.363007027656 260 231.5 260 C 232.88479352003202 260 233.577190280048 260 234.96198380008 260 C 235.468530149328 260 235.721803323952 260 236.2283496732 260 C 236.932786212476 260 237.28500448211398 260 237.98944102139 260 C 239.17634435139797 260 239.769796016402 260 240.95669934641 260 C 241.587145969502 260 241.902369281048 260 242.53281590414 260 C 243.163262527232 260 243.478485838778 260 244.10893246187 260 C 244.739379084966 260 245.054602396514 260 245.68504901961 260 C 246.315495642702 260 246.630718954248 260 247.26116557734 260 C 247.891612200436 260 248.206835511984 260 248.83728213508 260 C 249.467728758172 260 249.78295206971796 260 250.41339869281 260 C 251.043845315902 260 251.359068627448 260 251.98951525054 260 C 252.61996187363602 260 252.935185185184 260 253.56563180828 260 C 254.196078431372 260 254.51130174291802 260 255.14174836601 260 C 255.772194989106 260 256.087418300654 260 256.71786492375 260 C 257.472211820686 260 257.849385269154 260 258.60373216609 260 C 259.110278515342 260 259.363551689968 260 259.87009803922 260 C 260.50054466231205 260 260.815767973858 260 261.44621459695 260 C 262.076661220042 260 262.39188453158806 260 263.02233115468 260 C 263.652777777776 260 263.96800108932405 260 264.59844771242 260 C 265.228894335512 260 265.544117647058 260 266.17456427015 260 C 266.805010893246 260 267.120234204794 260 267.75068082789 260 C 268.38112745098204 260 268.69635076252797 260 269.32679738562 260 C 269.957244008716 260 270.27246732026396 260 270.90291394336 260 C 271.53336056645196 260 271.848583877998 260 272.47903050109 260 C 273.10947712418204 260 273.424700435728 229.04761904761904 274.05514705882 229.04761904761904 C 274.685593681916 229.04761904761904 275.000816993464 229.04761904761904 275.63126361656 229.04761904761904 C 276.26171023965196 229.04761904761904 276.576933551198 229.04761904761904 277.20738017429 229.04761904761904 C 277.837826797386 229.04761904761904 278.153050108934 229.04761904761904 278.78349673203 229.04761904761904 C 279.413943355122 229.04761904761904 279.729166666668 229.04761904761904 280.35961328976 229.04761904761904 C 280.99005991285196 229.04761904761904 281.305283224398 229.04761904761904 281.93572984749 229.04761904761904 C 282.566176470586 229.04761904761904 282.88139978213405 206.3492063492324 283.51184640523 198.0952380952381 C 284.142293028322 189.8412698412959 284.457516339868 197.06349206346232 285.08796296296 187.77777777777777 C 285.718409586056 178.49206349203376 286.033632897604 151.66666666666666 286.6640795207 151.66666666666666 C 287.29452614379204 151.66666666666666 287.609749455338 151.66666666666666 288.24019607843 151.66666666666666 C 288.870642701526 151.66666666666666 289.18586601307396 130.00000000004624 289.81631263617 115.55555555555557 C 290.44675925926197 101.11111111115736 290.761982570808 84.60317460317458 291.3924291939 79.44444444444443 C 292.02287581699204 74.28571428571428 292.33809912853803 74.28571428571428 292.96854575163 74.28571428571428 C 293.598992374726 74.28571428571428 293.914215686274 74.28571428571428 294.54466230937 74.28571428571428 C 295.17510893246197 74.28571428571428 295.490332244008 74.28571428571428 296.1207788671 74.28571428571428 C 296.751225490196 74.28571428571428 297.066448801744 74.28571428571428 297.69689542484 74.28571428571428 C 298.327342047932 74.28571428571428 298.642565359478 43.333333333333314 299.27301198257 43.333333333333314 C 299.903458605666 43.333333333333314 300.218681917214 43.333333333333314 300.84912854031 43.333333333333314 C 301.47957516340205 43.333333333333314 301.79479847494804 43.333333333333314 302.42524509804 43.333333333333314 C 303.055691721132 43.333333333333314 303.370915032678 43.333333333333314 304.00136165577 43.333333333333314 C 304.631808278866 43.333333333333314 304.947031590414 43.333333333333314 305.57747821351 43.333333333333314 C 306.20792483660205 43.333333333333314 306.523148148148 43.333333333333314 307.15359477124 43.333333333333314 C 307.784041394336 43.333333333333314 308.09926470588397 43.333333333333314 308.72971132898 43.333333333333314 C 309.360157952072 43.333333333333314 309.675381263618 43.333333333333314 310.30582788671 43.333333333333314 C 310.93627450980205 43.333333333333314 311.25149782134804 43.333333333333314 311.88194444444 43.333333333333314 C 312.512391067536 43.333333333333314 312.827614379084 43.333333333333314 313.45806100218 43.333333333333314 C 314.088507625272 43.333333333333314 314.403730936818 43.333333333333314 315.03417755991 43.333333333333314 C 315.664624183006 43.333333333333314 315.979847494554 43.333333333333314 316.61029411765 43.333333333333314 C 317.240740740742 43.333333333333314 317.555964052288 43.333333333333314 318.18641067538 43.333333333333314 C 318.816857298476 43.333333333333314 319.132080610024 43.333333333333314 319.76252723312 43.333333333333314 C 320.39297385621205 43.333333333333314 320.70819716775804 66.54761904761904 321.33864379085 70.41666666666666 C 321.969090413942 74.28571428571428 322.284313725488 74.28571428571428 322.91476034858 74.28571428571428 C 323.545206971676 74.28571428571428 323.860430283224 74.28571428571428 324.49087690632 74.28571428571428 C 325.121323529412 74.28571428571428 325.436546840958 74.28571428571428 326.06699346405 74.28571428571428 C 326.697440087146 74.28571428571428 327.012663398694 74.28571428571428 327.64311002179 74.28571428571428 C 328.273556644882 74.28571428571428 328.588779956428 91.3095238095241 329.21922657952 97.5 C 329.84967320261205 103.69047619047647 330.16489651415793 105.23809523809521 330.79534313725 105.23809523809521 C 331.425789760346 105.23809523809521 331.741013071894 84.60317460317458 332.37145969499 79.44444444444443 C 333.001906318082 74.28571428571428 333.317129629628 74.28571428571428 333.94757625272 74.28571428571428 C 334.578022875816 74.28571428571428 334.893246187364 74.28571428571428 335.52369281046 74.28571428571428 C 336.15413943355196 74.28571428571428 336.469362745098 74.28571428571428 337.09980936819 74.28571428571428 C 337.730255991286 74.28571428571428 338.045479302834 105.23809523809521 338.67592592593 105.23809523809521 C 339.30637254902206 105.23809523809521 339.62159586056794 84.60317460317458 340.25204248366 79.44444444444443 C 340.88248910675196 74.28571428571428 341.197712418298 74.28571428571428 341.82815904139 74.28571428571428 C 342.458605664486 74.28571428571428 342.773828976034 74.28571428571428 343.40427559913 74.28571428571428 C 344.034722222222 74.28571428571428 344.349945533768 74.28571428571428 344.98039215686 74.28571428571428 C 345.610838779956 74.28571428571428 345.926062091504 74.28571428571428 346.5565087146 74.28571428571428 C 347.186955337692 74.28571428571428 347.50217864923803 74.28571428571428 348.13262527233 74.28571428571428 C 348.76307189542604 74.28571428571428 349.07829520697396 43.333333333333314 349.70874183007 43.333333333333314 C 350.33918845316197 43.333333333333314 350.654411764708 43.333333333333314 351.2848583878 43.333333333333314 C 351.915305010892 43.333333333333314 352.23052832243803 43.333333333333314 352.86097494553 43.333333333333314 C 353.77731159979004 43.333333333333314 354.23547992692 43.333333333333314 355.15181658118 43.333333333333314 C 355.49637317310805 43.333333333333314 355.66865146907196 43.333333333333314 356.013208061 43.333333333333314 C 356.64365468409596 43.333333333333314 356.958877995644 43.333333333333314 357.58932461874 43.333333333333314 C 358.21977124183206 43.333333333333314 358.53499455337794 43.333333333333314 359.16544117647 43.333333333333314 C 359.79588779956197 43.333333333333314 360.111111111108 43.333333333333314 360.7415577342 43.333333333333314 C 361.372004357296 43.333333333333314 361.687227668844 43.333333333333314 362.31767429194 43.333333333333314 C 362.948120915032 43.333333333333314 363.263344226578 43.333333333333314 363.89379084967 43.333333333333314 C 364.524237472766 43.333333333333314 364.839460784314 66.54761904761904 365.46990740741 70.41666666666666 C 366.100354030502 74.28571428571428 366.41557734204804 74.28571428571428 367.04602396514 74.28571428571428 C 367.67647058823604 74.28571428571428 367.99169389978397 74.28571428571428 368.62214052288 74.28571428571428 C 369.252587145972 74.28571428571428 369.567810457518 74.28571428571428 370.19825708061 74.28571428571428 C 370.828703703702 74.28571428571428 371.14392701524804 74.28571428571428 371.77437363834 74.28571428571428 C 372.404820261436 74.28571428571428 372.720043572984 91.30952380950427 373.35049019608 97.5 C 373.980936819172 103.69047619045665 374.296160130718 105.23809523809521 374.92660675381 105.23809523809521 C 375.55705337690597 105.23809523809521 375.872276688454 84.60317460317458 376.50272331155 79.44444444444443 C 377.13316993464207 74.28571428571428 377.44839324618795 74.28571428571428 378.07883986928 74.28571428571428 C 378.709286492376 74.28571428571428 379.02450980392405 74.28571428571428 379.65495642702 74.28571428571428 C 380.285403050112 74.28571428571428 380.60062636165804 74.28571428571428 381.23107298475 74.28571428571428 C 381.861519607842 74.28571428571428 382.176742919388 74.28571428571428 382.80718954248 74.28571428571428 C 383.437636165576 74.28571428571428 383.752859477124 43.333333333333314 384.38330610022 43.333333333333314 C 385.013752723312 43.333333333333314 385.328976034858 74.28571428571428 385.95942265795 74.28571428571428 C 386.58986928104594 74.28571428571428 386.905092592594 74.28571428571428 387.53553921569 74.28571428571428 C 388.165985838782 74.28571428571428 388.481209150328 74.28571428571428 389.11165577342 74.28571428571428 C 389.742102396512 74.28571428571428 390.057325708058 74.28571428571428 390.68777233115 74.28571428571428 C 391.318218954246 74.28571428571428 391.633442265794 74.28571428571428 392.26388888889 74.28571428571428 C 392.99196717653 74.28571428571428 393.35600632035005 74.28571428571428 394.08408460799 74.28571428571428 C 399.758104215834 74.28571428571428 402.595114019756 167.14285714285714 408.2691336276 167.14285714285714 C 413.31270661235203 167.14285714285714 415.83449310472804 43.333333333333314 420.87806608948 43.333333333333314 C 422.138959335664 43.333333333333314 422.76940595875595 89.96376811596063 424.03029920494 97.5 C 437.26967828990803 176.6304347826273 443.88936783239205 260 457.12874691736 260 C 457.66156187590803 260 458.46078431373 260 458.46078431373 260" class="highcharts-graph" data-z-index="1" stroke="#000000" stroke-width="2" stroke-linejoin="round" stroke-linecap="round"></path></g><g data-z-index="0.1" class="highcharts-markers highcharts-series-0 highcharts-spline-series highcharts-color-0 " transform="translate(79,63) scale(1 1)" clip-path="none"></g><g data-z-index="0.1" class="highcharts-series highcharts-series-1 highcharts-spline-series highcharts-color-1 " transform="translate(79,63) scale(1 1)" clip-path="url(#highcharts-3l132e1-1003)"><path fill="none" d="M 4.5392156862745 171.36363636363637 C 4.5392156862745 171.36363636363637 5.48488562091502 183.39285714285714 6.1153322440087 183.39285714285714 C 6.745778867102381 183.39285714285714 7.06100217864922 178.22767857142856 7.6914488017429 172.65625 C 8.32189542483658 167.08482142857144 8.63711873638342 155.53571428571428 9.2675653594771 155.53571428571428 C 9.89801198257066 155.53571428571428 10.21323529411744 162.5 10.843681917211 164.125 C 11.474128540305 165.75 11.789351851852 165.0749999999998 12.419798474946 165.75 C 13.050245098039602 166.42499999999978 13.365468409586398 167.5 13.99591503268 167.5 C 14.626361655773598 167.5 14.941584967320399 162.5 15.572031590414 162.5 C 16.2024782135076 162.5 16.5177015250544 162.5 17.148148148148 162.5 C 17.7785947712416 162.5 18.0938180827884 165 18.724264705882 165 C 19.354711328976 165 19.669934640523 162.5 20.300381263617 162.5 C 20.930827886710595 162.5 21.246051198257398 165.75 21.876497821351 169 C 22.5069444444446 172.25 22.822167755991398 178.75 23.452614379085 178.75 C 24.083061002178603 178.75 24.398284313725398 169.46428571428572 25.028730936819 169.46428571428572 C 25.6591775599126 169.46428571428572 25.974400871459398 172.68697478991638 26.604847494553 173.97058823529412 C 27.235294117646998 175.25420168067268 27.550517429193995 175.88235294117646 28.180964052288 175.88235294117646 C 28.8114106753816 175.88235294117646 29.126633986928404 164.66666666666669 29.757080610022 164.66666666666669 C 30.3875272331156 164.66666666666669 30.7027505446624 166.1059523809524 31.333197167756 169.46428571428572 C 31.963643790849602 172.82261904761904 32.278867102396404 181.45833333333334 32.90931372549 181.45833333333334 C 33.539760348583606 181.45833333333334 33.8549836601304 176.5833333333323 34.485430283224 173.33333333333334 C 35.115876906318 170.0833333333323 35.431100217864994 165.41666666666669 36.061546840959 165.20833333333334 C 36.6919934640526 165 37.007216775599396 165.10833333333335 37.637663398693 165 C 38.2681100217866 164.89166666666668 38.58333333333339 164.66666666666669 39.213779956427 164.66666666666669 C 39.844226579520594 164.66666666666669 40.1594498910674 177.66666666666669 40.789896514161 177.66666666666669 C 41.4203431372546 177.66666666666669 41.7355664488014 153.21428571428572 42.366013071895 153.21428571428572 C 42.996459694989 153.21428571428572 43.311683006536 167.35389610389387 43.94212962963 174.3181818181818 C 44.5725762527236 181.2824675324653 44.887799564270395 188.03571428571428 45.518246187364 188.03571428571428 C 46.148692810457604 188.03571428571428 46.4639161220044 183.50665266106444 47.094362745098 181.45833333333334 C 47.7248093681916 179.41001400560225 48.040032679738395 177.79411764705884 48.670479302832 177.79411764705884 C 49.3009259259256 177.79411764705884 49.616149237472406 182.5 50.246595860566 182.5 C 50.87704248366 182.5 51.19226579520701 177.3333333333346 51.822712418301 173.33333333333334 C 52.4531590413946 169.3333333333346 52.7683823529414 162.5 53.398828976035 162.5 C 54.029275599128596 162.5 54.3444989106754 174.6875 54.974945533769 174.6875 C 55.60539215686261 174.6875 55.920615468409395 166.5625 56.551062091503 162.5 C 57.1815087145966 158.4375 57.4967320261434 154.375 58.127178649237 154.375 C 58.757625272331005 154.375 59.072848583878 159.6607142857126 59.703295206972 165 C 60.333741830065605 170.33928571428402 60.64896514161239 181.07142857142858 61.279411764706 181.07142857142858 C 61.9098583877996 181.07142857142858 62.225081699346404 176.45670995670994 62.85552832244 173.33333333333334 C 63.4859749455336 170.2099567099567 63.8011982570804 165.45454545454544 64.431644880174 165.45454545454544 C 65.06209150326761 165.45454545454544 65.3773148148144 172.79774021045506 66.007761437908 177.17741935483872 C 66.638208061002 181.55709849922513 66.95343137254899 187.35294117647058 67.583877995643 187.35294117647058 C 68.2143246187366 187.35294117647058 68.5295479302834 174.03225806451613 69.159994553377 174.03225806451613 C 69.79044117647061 174.03225806451613 70.1056644880174 176.71875 70.736111111111 176.71875 C 71.36655773420459 176.71875 71.6817810457514 170.625 72.312227668845 170.625 C 72.942674291939 170.625 73.257897603486 181.07142857142858 73.88834422658 181.07142857142858 C 74.51879084967361 181.07142857142858 74.8340141612204 178.75 75.464460784314 178.75 C 76.09490740740759 178.75 76.4101307189544 203.125 77.040577342048 203.125 C 77.6710239651416 203.125 77.9862472766884 191.75 78.616693899782 191.75 C 79.24714052287561 191.75 79.5623638344224 211.25 80.192810457516 211.25 C 80.82325708061 211.25 81.13848039215699 202.89285714285816 81.768927015251 199.64285714285714 C 82.3993736383446 196.39285714285816 82.7145969498914 195 83.345043572985 195 C 83.97549019607861 195 84.2907135076254 195 84.921160130719 195 C 85.55160675381259 195 85.86683006535941 182 86.497276688453 182 C 87.1277233115466 182 87.44294662309339 186.875 88.073393246187 186.875 C 88.703839869281 186.875 89.019063180828 174.6875 89.649509803922 174.6875 C 90.37758809156401 174.6875 90.741627235385 195 91.469705523027 195 C 92.00252048157219 195 92.2689279608448 195 92.80174291939 195 C 93.4321895424836 195 93.7474128540304 167.91666666666666 94.377859477124 167.91666666666666 C 95.0083061002176 167.91666666666666 95.32352941176441 167.91666666666666 95.953976034858 167.91666666666666 C 96.6820543225004 167.91666666666666 97.0460934663216 162.5 97.774171753964 162.5 C 98.3069867125092 162.5 98.5733941917818 169 99.106209150327 169 C 99.73665577342021 169 100.0518790849668 130 100.68232570806 130 C 101.312772331156 130 101.62799564270401 162.5 102.2584422658 162.5 C 102.88888888889201 162.5 103.204112200438 130 103.83455882353 130 C 105.095452069718 130 105.72589869281201 162.5 106.986791939 162.5 C 107.61723856209201 162.5 107.932461873638 162.5 108.56290849673 162.5 C 109.193355119826 162.5 109.508578431374 184.16666666666666 110.13902505447 184.16666666666666 C 110.769471677562 184.16666666666666 111.08469498910799 174.8809523809524 111.7151416122 173.33333333333334 C 112.34558823529201 171.78571428571428 112.660811546838 173.33333333333334 113.29125816993 171.78571428571428 C 113.921704793026 170.2380952380952 114.236928104574 162.5 114.86737472767 162.5 C 115.497821350762 162.5 115.81304466230799 195 116.4434912854 195 C 117.073937908496 195 117.389161220044 195 118.01960784314 192.67857142857142 C 118.65005446623199 190.35714285714283 118.96527777777801 162.5 119.59572440087 162.5 C 120.226171023966 162.5 120.541394335514 165.16666666665796 121.17184095861 167.91666666666666 C 121.80228758170202 170.66666666665796 122.11751089324801 176.25 122.74795751634 176.25 C 123.37840413943199 176.25 123.69362745097801 172.8409090909091 124.32407407407 172.8409090909091 C 124.954520697166 172.8409090909091 125.269744008714 189.0909090909091 125.90019063181 189.0909090909091 C 126.53063725490202 189.0909090909091 126.84586056644801 188.29318181817732 127.47630718954 186.875 C 128.106753812636 185.45681818181367 128.421977124184 182 129.05242374728 182 C 129.68287037037197 182 129.998093681918 183.6142857142924 130.62854030501 185.71428571428572 C 131.25898692810603 187.8142857142924 131.574210239654 192.5 132.20465686275 192.5 C 132.835103485842 192.5 133.150326797388 177.54583333333332 133.78077342048 171.97916666666666 C 134.41122004357197 166.4125 134.726443355118 166.562499999994 135.35688997821 164.66666666666669 C 135.98733660130603 162.77083333332735 136.302559912854 162.5 136.93300653595 162.5 C 137.563453159042 162.5 137.878676470588 162.5 138.50912309368 162.5 C 139.13956971677598 162.5 139.454793028324 162.5 140.08523965142 162.5 C 140.71568627451202 162.5 141.03090958605802 162.5 141.66135620915 162.5 C 142.291802832242 162.5 142.607026143788 175.23737373739064 143.23747276688 180.55555555555554 C 143.86791938997598 185.87373737375427 144.183142701524 189.0909090909091 144.81358932462 189.0909090909091 C 145.44403594771202 189.0909090909091 145.75925925925802 184.16666666666666 146.38970588235 184.16666666666666 C 147.020152505446 184.16666666666666 147.335375816994 186.875 147.96582244009 186.875 C 148.59626906318198 186.875 148.911492374728 179.83333333333331 149.54193899782 179.83333333333331 C 150.17238562091603 179.83333333333331 150.487608932464 195 151.11805555556 195 C 151.74850217865202 195 152.063725490198 188.9333333333333 152.69417211329 184.16666666666666 C 153.32461873638198 179.39999999999998 153.639842047928 175.49999999998624 154.27028867102 171.16666666666669 C 154.90073529411603 166.8333333333196 155.215958605664 162.5 155.84640522876 162.5 C 156.47685185185202 162.5 156.792075163398 173.50000000002066 157.42252178649 180 C 158.052968409586 186.50000000002066 158.368191721134 195 158.99863834423 195 C 159.62908496732197 195 159.944308278868 178.75 160.57475490196 178.75 C 161.20520152505202 178.75 161.520424836598 208.92857142857144 162.15087145969 208.92857142857144 C 162.781318082786 208.92857142857144 163.096541394334 187.77777777777777 163.72698801743 187.77777777777777 C 164.35743464052197 187.77777777777777 164.672657952068 200.41666666666669 165.30310457516 200.41666666666669 C 165.933551198256 200.41666666666669 166.248774509804 191.13095238095238 166.8792211329 190.35714285714286 C 167.50966775599198 189.58333333333334 167.82489106753798 189.58333333333334 168.45533769063 189.58333333333334 C 169.08578431372598 189.58333333333334 169.401007625274 189.58333333333334 170.03145424837 189.58333333333334 C 170.66190087146202 189.58333333333334 170.977124183008 169.72222222222223 171.6075708061 169.72222222222223 C 172.23801742919198 169.72222222222223 172.55324074073798 190.9375 173.18368736383 190.9375 C 174.10221306886598 190.9375 174.561475921384 162.5 175.48000162642 162.5 C 175.822369167572 162.5 175.99355293814799 171.49673717372875 176.3359204793 175.5 C 176.966367102396 182.87173717372875 177.281590413944 186.3152777777631 177.91203703704 190.9375 C 178.54248366013198 195.55972222220754 178.857706971678 198.61111111111111 179.48815359477 198.61111111111111 C 180.118600217866 198.61111111111111 180.43382352941398 187.2619047619048 181.06427015251 185.71428571428572 C 182.32516339869397 184.16666666666666 182.95561002178601 184.16666666666666 184.21650326797 184.16666666666666 C 184.846949891066 184.16666666666666 185.16217320261399 189.58333333333334 185.79261982571 189.58333333333334 C 186.423066448802 189.58333333333334 186.73828976034798 186.48809523807816 187.36873638344 181.07142857142858 C 187.999183006536 175.65476190474482 188.314406318084 162.5 188.94485294118 162.5 C 189.575299564272 162.5 189.890522875818 186.875 190.52096949891 186.875 C 191.151416122002 186.875 191.46663943354798 168.4090909090909 192.09708605664 168.4090909090909 C 192.727532679736 168.4090909090909 193.042755991284 195 193.67320261438 195 C 194.303649237472 195 194.618872549018 185.25 195.24931917211 185.25 C 195.879765795206 185.25 196.194989106754 185.25 196.82543572985 186.875 C 197.45588235294198 188.5 197.771105664488 197.70833333333331 198.40155228758 197.70833333333331 C 199.031998910676 197.70833333333331 199.347222222224 197.70833333333331 199.97766884532 192.83333333333331 C 200.608115468412 187.95833333333331 200.923338779958 171.16666666666669 201.55378540305 171.16666666666669 C 202.18423202614198 171.16666666666669 202.499455337688 196.1206896551724 203.12990196078 196.1206896551724 C 203.760348583876 196.1206896551724 204.075571895424 174.6875 204.70601851852 174.6875 C 205.336465141612 174.6875 205.65168845315802 209.89583333333337 206.28213507625 216.66666666666669 C 206.912581699346 223.4375 207.227805010894 223.4375 207.85825163399 223.4375 C 208.48869825708198 223.4375 208.803921568628 222.83035714282454 209.43436819172 212.5 C 210.064814814816 202.16964285711026 210.38003812636398 171.78571428571428 211.01048474946 171.78571428571428 C 211.640931372552 171.78571428571428 211.956154684098 195 212.58660130719 195 C 213.21704793028204 195 213.532271241828 162.5 214.16271786492 162.5 C 214.793164488016 162.5 215.108387799564 162.5 215.73883442266 162.5 C 216.369281045752 162.5 216.684504357298 195 217.31495098039 195 C 217.945397603486 195 218.260620915034 181.50000000001893 218.89106753813 175.5 C 219.521514161222 169.50000000001893 219.836737472768 165 220.46718409586 165 C 221.097630718952 165 221.412854030498 169 222.04330065359 169 C 222.673747276686 169 222.988970588234 162.5 223.61941721133 162.5 C 224.249863834422 162.5 224.565087145968 191.75 225.19553376906 191.75 C 225.825980392156 191.75 226.141203703704 178.75 226.7716503268 178.75 C 227.52599722373597 178.75 227.903170672204 227.5 228.65751756914 227.5 C 229.794510541484 227.5 230.363007027656 195 231.5 195 C 232.88479352003202 195 233.577190280048 195 234.96198380008 195 C 235.468530149328 195 235.721803323952 195 236.2283496732 195 C 236.932786212476 195 237.28500448211398 195 237.98944102139 195 C 239.17634435139797 195 239.769796016402 198.61111111111111 240.95669934641 198.61111111111111 C 241.587145969502 198.61111111111111 241.902369281048 193.16865079365064 242.53281590414 186.875 C 243.163262527232 180.58134920634905 243.478485838778 167.72321428571428 244.10893246187 167.14285714285714 C 244.739379084966 166.5625 245.054602396514 166.5625 245.68504901961 166.5625 C 246.315495642702 166.5625 246.630718954248 166.6553571428587 247.26116557734 167.14285714285714 C 247.891612200436 167.6303571428587 248.206835511984 169 248.83728213508 169 C 249.467728758172 169 249.78295206971796 169 250.41339869281 167.91666666666666 C 251.043845315902 166.83333333333331 251.359068627448 162.5 251.98951525054 162.5 C 252.61996187363602 162.5 252.935185185184 162.5 253.56563180828 162.5 C 254.196078431372 162.5 254.51130174291802 169.00000000002066 255.14174836601 175.5 C 255.772194989106 182.00000000002066 256.087418300654 195 256.71786492375 195 C 257.472211820686 195 257.849385269154 195 258.60373216609 195 C 259.110278515342 195 259.363551689968 188.5 259.87009803922 188.5 C 260.50054466231205 188.5 260.815767973858 195 261.44621459695 195 C 262.076661220042 195 262.39188453158806 185.71428571428572 263.02233115468 185.71428571428572 C 263.652777777776 185.71428571428572 263.96800108932405 203.125 264.59844771242 203.125 C 265.228894335512 203.125 265.544117647058 182 266.17456427015 182 C 266.805010893246 182 267.120234204794 208.92857142857144 267.75068082789 208.92857142857144 C 268.38112745098204 208.92857142857144 268.69635076252797 198.8690476190356 269.32679738562 195 C 269.957244008716 191.13095238094036 270.27246732026396 191.0277777777824 270.90291394336 189.58333333333334 C 271.53336056645196 188.13888888889352 271.848583877998 189.58333333333334 272.47903050109 187.77777777777777 C 273.10947712418204 185.9722222222222 273.424700435728 175.83986928103104 274.05514705882 171.16666666666669 C 274.685593681916 166.49346405227286 275.000816993464 164.41176470588235 275.63126361656 164.41176470588235 C 276.26171023965196 164.41176470588235 276.576933551198 164.41176470588235 277.20738017429 165.45454545454544 C 277.837826797386 166.49732620320853 278.153050108934 179.70588235294116 278.78349673203 179.70588235294116 C 279.413943355122 179.70588235294116 279.729166666668 166.3235294117647 280.35961328976 166.3235294117647 C 280.99005991285196 166.3235294117647 281.305283224398 178.2590240641857 281.93572984749 182.8125 C 282.566176470586 187.36597593584347 282.88139978213405 185.2089646464524 283.51184640523 189.0909090909091 C 284.142293028322 192.9728535353413 284.457516339868 202.22222222222223 285.08796296296 202.22222222222223 C 285.718409586056 202.22222222222223 286.033632897604 198.6111111111225 286.6640795207 195 C 287.29452614379204 191.38888888890028 287.609749455338 187.01041666665782 288.24019607843 184.16666666666666 C 288.870642701526 181.32291666665782 289.18586601307396 182.75094696970328 289.81631263617 180.78125 C 290.44675925926197 178.81155303030934 290.761982570808 174.3181818181818 291.3924291939 174.3181818181818 C 292.02287581699204 174.3181818181818 292.33809912853803 182.36111111111111 292.96854575163 182.36111111111111 C 293.598992374726 182.36111111111111 293.914215686274 177.13031045752632 294.54466230937 173.97058823529412 C 295.17510893246197 170.81086601308186 295.490332244008 166.5625 296.1207788671 166.5625 C 296.751225490196 166.5625 297.066448801744 167.53472222221524 297.69689542484 169.72222222222223 C 298.327342047932 171.90972222221524 298.642565359478 177.5 299.27301198257 177.5 C 299.903458605666 177.5 300.218681917214 164.66666666666669 300.84912854031 164.66666666666669 C 301.47957516340205 164.66666666666669 301.79479847494804 164.66666666666669 302.42524509804 165.75 C 303.055691721132 166.83333333333331 303.370915032678 173.98333333335202 304.00136165577 179.83333333333331 C 304.631808278866 185.68333333335204 304.947031590414 195 305.57747821351 195 C 306.20792483660205 195 306.523148148148 189.33333333331984 307.15359477124 185 C 307.784041394336 180.66666666665319 308.09926470588397 177.36904761906055 308.72971132898 173.33333333333334 C 309.360157952072 169.29761904763197 309.675381263618 164.82142857142858 310.30582788671 164.82142857142858 C 310.93627450980205 164.82142857142858 311.25149782134804 193.08823529411765 311.88194444444 193.08823529411765 C 312.512391067536 193.08823529411765 312.827614379084 162.5 313.45806100218 162.5 C 314.088507625272 162.5 314.403730936818 184.6590909090909 315.03417755991 184.6590909090909 C 315.664624183006 184.6590909090909 315.979847494554 172.8409090909091 316.61029411765 172.8409090909091 C 317.240740740742 172.8409090909091 317.555964052288 179.47994652407223 318.18641067538 182 C 318.816857298476 184.52005347594388 319.132080610024 185.44117647058823 319.76252723312 185.44117647058823 C 320.39297385621205 185.44117647058823 320.70819716775804 173.33333333333334 321.33864379085 173.33333333333334 C 321.969090413942 173.33333333333334 322.284313725488 173.33333333333334 322.91476034858 178.75 C 323.545206971676 184.16666666666666 323.860430283224 211.25 324.49087690632 211.25 C 325.121323529412 211.25 325.436546840958 178.75 326.06699346405 178.75 C 326.697440087146 178.75 327.012663398694 178.75 327.64311002179 179.83333333333331 C 328.273556644882 180.91666666666663 328.588779956428 183.66111111111118 329.21922657952 185.25 C 329.84967320261205 186.838888888889 330.16489651415793 187.77777777777777 330.79534313725 187.77777777777777 C 331.425789760346 187.77777777777777 331.741013071894 180.91666666666663 332.37145969499 179.83333333333331 C 333.001906318082 178.75 333.317129629628 178.75 333.94757625272 178.75 C 334.578022875816 178.75 334.893246187364 178.75 335.52369281046 178.75 C 336.15413943355196 178.75 336.469362745098 190.35714285714286 337.09980936819 190.35714285714286 C 337.730255991286 190.35714285714286 338.045479302834 162.5 338.67592592593 162.5 C 339.30637254902206 162.5 339.62159586056794 162.5 340.25204248366 162.5 C 340.88248910675196 162.5 341.197712418298 162.5 341.82815904139 162.5 C 342.458605664486 162.5 342.773828976034 162.5 343.40427559913 162.5 C 344.034722222222 162.5 344.349945533768 162.5 344.98039215686 162.5 C 345.610838779956 162.5 345.926062091504 164.39583333332638 346.5565087146 166.5625 C 347.186955337692 168.72916666665972 347.50217864923803 169.81250000001128 348.13262527233 173.33333333333334 C 348.76307189542604 176.85416666667794 349.07829520697396 184.16666666666666 349.70874183007 184.16666666666666 C 350.33918845316197 184.16666666666666 350.654411764708 162.5 351.2848583878 162.5 C 351.915305010892 162.5 352.23052832243803 162.5 352.86097494553 162.5 C 353.77731159979004 162.5 354.23547992692 162.5 355.15181658118 162.5 C 355.49637317310805 162.5 355.66865146907196 167.91666666666666 356.013208061 167.91666666666666 C 356.64365468409596 167.91666666666666 356.958877995644 159.54545454545456 357.58932461874 159.54545454545456 C 358.21977124183206 159.54545454545456 358.53499455337794 163.66305916305907 359.16544117647 166.11111111111111 C 359.79588779956197 168.55916305916296 360.111111111108 171.78571428571428 360.7415577342 171.78571428571428 C 361.372004357296 171.78571428571428 361.687227668844 169 362.31767429194 169 C 362.948120915032 169 363.263344226578 182 363.89379084967 182 C 364.524237472766 182 364.839460784314 176.04166666666666 365.46990740741 176.04166666666666 C 366.100354030502 176.04166666666666 366.41557734204804 180.22727272727272 367.04602396514 180.22727272727272 C 367.67647058823604 180.22727272727272 367.99169389978397 177.3043831168915 368.62214052288 174.6875 C 369.252587145972 172.07061688312524 369.567810457518 169.08035714285714 370.19825708061 167.14285714285714 C 370.828703703702 165.20535714285714 371.14392701524804 165 371.77437363834 165 C 372.404820261436 165 372.720043572984 174.6875 373.35049019608 174.6875 C 373.980936819172 174.6875 374.296160130718 170.625 374.92660675381 170.625 C 375.55705337690597 170.625 375.872276688454 173.33333333333334 376.50272331155 173.33333333333334 C 377.13316993464207 173.33333333333334 377.44839324618795 172.5 378.07883986928 172.5 C 378.709286492376 172.5 379.02450980392405 186.13636363636363 379.65495642702 186.13636363636363 C 380.285403050112 186.13636363636363 380.60062636165804 182 381.23107298475 182 C 381.861519607842 182 382.176742919388 188.5 382.80718954248 188.5 C 383.437636165576 188.5 383.752859477124 188.5 384.38330610022 186.875 C 385.013752723312 185.25 385.328976034858 167.14285714285714 385.95942265795 167.14285714285714 C 386.58986928104594 167.14285714285714 386.905092592594 170.625 387.53553921569 170.625 C 388.165985838782 170.625 388.481209150328 167.14285714285714 389.11165577342 167.14285714285714 C 389.742102396512 167.14285714285714 390.057325708058 178.75 390.68777233115 178.75 C 391.318218954246 178.75 391.633442265794 177.70393570739083 392.26388888889 174.6875 C 392.99196717653 171.20393570739083 393.35600632035005 162.5 394.08408460799 162.5 C 399.758104215834 162.5 402.595114019756 162.5 408.2691336276 162.5 C 413.31270661235203 162.5 415.83449310472804 162.5 420.87806608948 162.5 C 422.138959335664 162.5 422.76940595875595 162.5 424.03029920494 162.5 C 437.26967828990803 162.5 443.88936783239205 162.5 457.12874691736 162.5 C 457.66156187590803 162.5 458.46078431373 178.75 458.46078431373 178.75" class="highcharts-graph" data-z-index="1" stroke="#5D83FF" stroke-width="2" stroke-linejoin="round" stroke-linecap="round"></path></g><g data-z-index="0.1" class="highcharts-markers highcharts-series-1 highcharts-spline-series highcharts-color-1 " transform="translate(79,63) scale(1 1)" clip-path="none"></g></g><text x="300" text-anchor="middle" class="highcharts-title" data-z-index="4" style="color:#333333;font-size:18px;fill:#333333;" y="24"><tspan>Vitamin D3 by NatureMade &amp; Overall Mood Over Time</tspan></text><text x="300" text-anchor="middle" class="highcharts-subtitle" data-z-index="4" style="color:#666666;fill:#666666;" y="46"><tspan>Black represents the mean of Vitamin D3 By NatureMade over the previous 7 days</tspan></text><g class="highcharts-legend" data-z-index="7" transform="translate(91,358)"><rect fill="none" class="highcharts-legend-box" rx="0" ry="0" x="0" y="0" width="419" height="27" visibility="visible"></rect><g data-z-index="1"><g><g class="highcharts-legend-item highcharts-spline-series highcharts-color-0 highcharts-series-0" data-z-index="1" transform="translate(8,3)"><path fill="none" d="M 0 11 L 16 11" class="highcharts-graph" stroke="#000000" stroke-width="2"></path><path fill="#000000" d="M 12 11 A 4 4 0 1 1 11.999998000000167 10.996000000666664 Z" class="highcharts-point"></path><text x="21" style="color:#333333;font-size:12px;font-weight:bold;cursor:pointer;fill:#333333;" text-anchor="start" data-z-index="2" y="15"><tspan>Vitamin D3 By NatureMade (mcg)</tspan></text></g><g class="highcharts-legend-item highcharts-spline-series highcharts-color-1 highcharts-series-1" data-z-index="1" transform="translate(271,3)"><path fill="none" d="M 0 11 L 16 11" class="highcharts-graph" stroke="#5D83FF" stroke-width="2"></path><path fill="#5D83FF" d="M 8 7 L 12 11 8 15 4 11 Z" class="highcharts-point"></path><text x="21" y="15" style="color:#333333;font-size:12px;font-weight:bold;cursor:pointer;fill:#333333;" text-anchor="start" data-z-index="2"><tspan>Overall Mood (/5)</tspan></text></g></g></g></g><g class="highcharts-axis-labels highcharts-xaxis-labels " data-z-index="7"><text x="83.302704115983" style="color:#666666;cursor:default;font-size:11px;fill:#666666;" text-anchor="start" transform="translate(0,0)" y="342" opacity="1"><tspan>Sep '13</tspan></text><text x="179.44581413777" style="color:#666666;cursor:default;font-size:11px;fill:#666666;" text-anchor="start" transform="translate(0,0)" y="342" opacity="1"><tspan>Nov '13</tspan></text><text x="275.58892415956" style="color:#666666;cursor:default;font-size:11px;fill:#666666;" text-anchor="start" transform="translate(0,0)" y="342" opacity="1"><tspan>Jan '14</tspan></text><text x="368.57980106587" style="color:#666666;cursor:default;font-size:11px;fill:#666666;" text-anchor="start" transform="translate(0,0)" y="342" opacity="1"><tspan>Mar '14</tspan></text><text x="464.72291108766" style="color:#666666;cursor:default;font-size:11px;fill:#666666;" text-anchor="start" transform="translate(0,0)" y="342" opacity="1"><tspan>May '14</tspan></text></g><g class="highcharts-axis-labels highcharts-yaxis-labels " data-z-index="7"><text x="64" style="color:#666666;cursor:default;font-size:11px;fill:#666666;" text-anchor="end" transform="translate(0,0)" y="327" opacity="1">0</text><text x="64" style="color:#666666;cursor:default;font-size:11px;fill:#666666;" text-anchor="end" transform="translate(0,0)" y="262" opacity="1">300</text><text x="64" style="color:#666666;cursor:default;font-size:11px;fill:#666666;" text-anchor="end" transform="translate(0,0)" y="197" opacity="1">600</text><text x="64" style="color:#666666;cursor:default;font-size:11px;fill:#666666;" text-anchor="end" transform="translate(0,0)" y="132" opacity="1">900</text><text x="64" style="color:#666666;cursor:default;font-size:11px;fill:#666666;" text-anchor="end" transform="translate(0,0)" y="67" opacity="1">1200</text></g><g class="highcharts-axis-labels highcharts-yaxis-labels " data-z-index="7"><text x="557" style="color:#666666;cursor:default;font-size:11px;fill:#666666;" text-anchor="start" transform="translate(0,0)" y="327" opacity="1">0</text><text x="557" style="color:#666666;cursor:default;font-size:11px;fill:#666666;" text-anchor="start" transform="translate(0,0)" y="262" opacity="1">2</text><text x="557" style="color:#666666;cursor:default;font-size:11px;fill:#666666;" text-anchor="start" transform="translate(0,0)" y="197" opacity="1">4</text><text x="557" style="color:#666666;cursor:default;font-size:11px;fill:#666666;" text-anchor="start" transform="translate(0,0)" y="132" opacity="1">6</text><text x="557" style="color:#666666;cursor:default;font-size:11px;fill:#666666;" text-anchor="start" transform="translate(0,0)" y="67" opacity="1">8</text></g><a xlink:href="https://quantimo.do" target="_blank">
                    <text x="590" class="highcharts-credits" text-anchor="end" data-z-index="8"
                          style="cursor:pointer;color:#999999;font-size:9px;fill:#999999;" y="395">https://quantimo.do
                    </text>
                </a></svg>