<?xml version="1.0" standalone="no"?><!DOCTYPE svg PUBLIC "-//W3C//DTD SVG 1.1//EN" "http://www.w3.org/Graphics/SVG/1.1/DTD/svg11.dtd"><svg xmlns:xlink="http://www.w3.org/1999/xlink" version="1.1" class="highcharts-root" style="font-family:&quot;Lucida Grande&quot;, &quot;Lucida Sans Unicode&quot;, Arial, Helvetica, sans-serif;font-size:12px;" xmlns="http://www.w3.org/2000/svg" width="600" height="300"><desc>Created with Highstock 6.2.0</desc><defs><clipPath id="highcharts-a66yg07-26"><rect x="0" y="0" width="507" height="141" fill="none"></rect></clipPath><clipPath id="highcharts-a66yg07-46"><rect x="0" y="0" width="507" height="141" fill="none"></rect></clipPath><clipPath id="highcharts-a66yg07-47"><rect x="83" y="78" width="507" height="141" fill="none"></rect></clipPath></defs><rect fill="#ffffff" class="highcharts-background" x="0" y="0" width="600" height="300" rx="0" ry="0"></rect><rect fill="none" class="highcharts-plot-background" x="83" y="78" width="507" height="141"></rect><g class="highcharts-pane-group" data-z-index="0"></g><g class="highcharts-grid highcharts-xaxis-grid " data-z-index="1"><path fill="none" data-z-index="1" class="highcharts-grid-line" d="M 109.5 78 L 109.5 219" opacity="1"></path><path fill="none" data-z-index="1" class="highcharts-grid-line" d="M 135.5 78 L 135.5 219" opacity="1"></path><path fill="none" data-z-index="1" class="highcharts-grid-line" d="M 162.5 78 L 162.5 219" opacity="1"></path><path fill="none" data-z-index="1" class="highcharts-grid-line" d="M 189.5 78 L 189.5 219" opacity="1"></path><path fill="none" data-z-index="1" class="highcharts-grid-line" d="M 215.5 78 L 215.5 219" opacity="1"></path><path fill="none" data-z-index="1" class="highcharts-grid-line" d="M 242.5 78 L 242.5 219" opacity="1"></path><path fill="none" data-z-index="1" class="highcharts-grid-line" d="M 269.5 78 L 269.5 219" opacity="1"></path><path fill="none" data-z-index="1" class="highcharts-grid-line" d="M 295.5 78 L 295.5 219" opacity="1"></path><path fill="none" data-z-index="1" class="highcharts-grid-line" d="M 322.5 78 L 322.5 219" opacity="1"></path><path fill="none" data-z-index="1" class="highcharts-grid-line" d="M 349.5 78 L 349.5 219" opacity="1"></path><path fill="none" data-z-index="1" class="highcharts-grid-line" d="M 376.5 78 L 376.5 219" opacity="1"></path><path fill="none" data-z-index="1" class="highcharts-grid-line" d="M 402.5 78 L 402.5 219" opacity="1"></path><path fill="none" data-z-index="1" class="highcharts-grid-line" d="M 429.5 78 L 429.5 219" opacity="1"></path><path fill="none" data-z-index="1" class="highcharts-grid-line" d="M 456.5 78 L 456.5 219" opacity="1"></path><path fill="none" data-z-index="1" class="highcharts-grid-line" d="M 482.5 78 L 482.5 219" opacity="1"></path><path fill="none" data-z-index="1" class="highcharts-grid-line" d="M 509.5 78 L 509.5 219" opacity="1"></path><path fill="none" data-z-index="1" class="highcharts-grid-line" d="M 536.5 78 L 536.5 219" opacity="1"></path><path fill="none" data-z-index="1" class="highcharts-grid-line" d="M 562.5 78 L 562.5 219" opacity="1"></path><path fill="none" data-z-index="1" class="highcharts-grid-line" d="M 589.5 78 L 589.5 219" opacity="1"></path><path fill="none" data-z-index="1" class="highcharts-grid-line" d="M 82.5 78 L 82.5 219" opacity="1"></path></g><g class="highcharts-grid highcharts-yaxis-grid " data-z-index="1"><path fill="none" stroke="#e6e6e6" stroke-width="1" data-z-index="1" class="highcharts-grid-line" d="M 83 219.5 L 590 219.5" opacity="1"></path><path fill="none" stroke="#e6e6e6" stroke-width="1" data-z-index="1" class="highcharts-grid-line" d="M 83 172.5 L 590 172.5" opacity="1"></path><path fill="none" stroke="#e6e6e6" stroke-width="1" data-z-index="1" class="highcharts-grid-line" d="M 83 125.5 L 590 125.5" opacity="1"></path><path fill="none" stroke="#e6e6e6" stroke-width="1" data-z-index="1" class="highcharts-grid-line" d="M 83 77.5 L 590 77.5" opacity="1"></path></g><rect fill="none" class="highcharts-plot-border" data-z-index="1" x="83" y="78" width="507" height="141"></rect><g class="highcharts-axis highcharts-xaxis " data-z-index="2"><path fill="none" class="highcharts-tick" stroke="#ccd6eb" stroke-width="1" d="M 109.5 219 L 109.5 229" opacity="1"></path><path fill="none" class="highcharts-tick" stroke="#ccd6eb" stroke-width="1" d="M 135.5 219 L 135.5 229" opacity="1"></path><path fill="none" class="highcharts-tick" stroke="#ccd6eb" stroke-width="1" d="M 162.5 219 L 162.5 229" opacity="1"></path><path fill="none" class="highcharts-tick" stroke="#ccd6eb" stroke-width="1" d="M 189.5 219 L 189.5 229" opacity="1"></path><path fill="none" class="highcharts-tick" stroke="#ccd6eb" stroke-width="1" d="M 215.5 219 L 215.5 229" opacity="1"></path><path fill="none" class="highcharts-tick" stroke="#ccd6eb" stroke-width="1" d="M 242.5 219 L 242.5 229" opacity="1"></path><path fill="none" class="highcharts-tick" stroke="#ccd6eb" stroke-width="1" d="M 269.5 219 L 269.5 229" opacity="1"></path><path fill="none" class="highcharts-tick" stroke="#ccd6eb" stroke-width="1" d="M 295.5 219 L 295.5 229" opacity="1"></path><path fill="none" class="highcharts-tick" stroke="#ccd6eb" stroke-width="1" d="M 322.5 219 L 322.5 229" opacity="1"></path><path fill="none" class="highcharts-tick" stroke="#ccd6eb" stroke-width="1" d="M 349.5 219 L 349.5 229" opacity="1"></path><path fill="none" class="highcharts-tick" stroke="#ccd6eb" stroke-width="1" d="M 376.5 219 L 376.5 229" opacity="1"></path><path fill="none" class="highcharts-tick" stroke="#ccd6eb" stroke-width="1" d="M 402.5 219 L 402.5 229" opacity="1"></path><path fill="none" class="highcharts-tick" stroke="#ccd6eb" stroke-width="1" d="M 429.5 219 L 429.5 229" opacity="1"></path><path fill="none" class="highcharts-tick" stroke="#ccd6eb" stroke-width="1" d="M 456.5 219 L 456.5 229" opacity="1"></path><path fill="none" class="highcharts-tick" stroke="#ccd6eb" stroke-width="1" d="M 482.5 219 L 482.5 229" opacity="1"></path><path fill="none" class="highcharts-tick" stroke="#ccd6eb" stroke-width="1" d="M 509.5 219 L 509.5 229" opacity="1"></path><path fill="none" class="highcharts-tick" stroke="#ccd6eb" stroke-width="1" d="M 536.5 219 L 536.5 229" opacity="1"></path><path fill="none" class="highcharts-tick" stroke="#ccd6eb" stroke-width="1" d="M 562.5 219 L 562.5 229" opacity="1"></path><path fill="none" class="highcharts-tick" stroke="#ccd6eb" stroke-width="1" d="M 590.5 219 L 590.5 229" opacity="1"></path><path fill="none" class="highcharts-tick" stroke="#ccd6eb" stroke-width="1" d="M 82.5 219 L 82.5 229" opacity="1"></path><text x="336.5" data-z-index="7" text-anchor="middle" transform="translate(0,0)" class="highcharts-axis-title" style="color:#666666;fill:#666666;" y="281.47665940288704"><tspan>Average Daily Webmd.com Usage (Hours)</tspan></text><path fill="none" class="highcharts-axis-line" stroke="#ccd6eb" stroke-width="1" data-z-index="7" d="M 83 219.5 L 590 219.5"></path></g><g class="highcharts-axis highcharts-yaxis " data-z-index="2"><text x="26" data-z-index="7" text-anchor="middle" transform="translate(0,0) rotate(270 26 148.5)" class="highcharts-axis-title" style="color:#666666;fill:#666666;" y="148.5"><tspan>Average Daily Overall</tspan><tspan dy="15" x="26">Mood (1 to 5 Rating)</tspan></text><path fill="none" class="highcharts-axis-line" data-z-index="7" d="M 83 78 L 83 219"></path></g><g class="highcharts-series-group" data-z-index="3"><g data-z-index="0.1" class="highcharts-series highcharts-series-0 highcharts-column-series highcharts-color-0 " transform="translate(83,78) scale(1 1)" clip-path="url(#highcharts-a66yg07-46)"><rect x="6.5" y="66.5" width="13" height="75" fill="#000000" stroke="#ffffff" stroke-width="1" class="highcharts-point highcharts-color-0"></rect><rect x="33.5" y="91.5" width="13" height="50" fill="#000000" stroke="#ffffff" stroke-width="1" class="highcharts-point highcharts-color-0"></rect><rect x="59.5" y="43.5" width="13" height="98" fill="#000000" stroke="#ffffff" stroke-width="1" class="highcharts-point highcharts-color-0"></rect><rect x="86.5" y="72.5" width="13" height="69" fill="#000000" stroke="#ffffff" stroke-width="1" class="highcharts-point highcharts-color-0"></rect><rect x="113.5" y="58.5" width="13" height="83" fill="#000000" stroke="#ffffff" stroke-width="1" class="highcharts-point highcharts-color-0"></rect><rect x="139.5" y="93.5" width="13" height="48" fill="#000000" stroke="#ffffff" stroke-width="1" class="highcharts-point highcharts-color-0"></rect><rect x="166.5" y="38.5" width="13" height="103" fill="#000000" stroke="#ffffff" stroke-width="1" class="highcharts-point highcharts-color-0"></rect><rect x="193.5" y="83.5" width="13" height="58" fill="#000000" stroke="#ffffff" stroke-width="1" class="highcharts-point highcharts-color-0"></rect><rect x="219.5" y="75.5" width="13" height="66" fill="#000000" stroke="#ffffff" stroke-width="1" class="highcharts-point highcharts-color-0"></rect><rect x="246.5" y="47.5" width="13" height="94" fill="#000000" stroke="#ffffff" stroke-width="1" class="highcharts-point highcharts-color-0"></rect><rect x="273.5" y="69.5" width="13" height="72" fill="#000000" stroke="#ffffff" stroke-width="1" class="highcharts-point highcharts-color-0"></rect><rect x="299.5" y="65.5" width="13" height="76" fill="#000000" stroke="#ffffff" stroke-width="1" class="highcharts-point highcharts-color-0"></rect><rect x="326.5" y="65.5" width="13" height="76" fill="#000000" stroke="#ffffff" stroke-width="1" class="highcharts-point highcharts-color-0"></rect><rect x="353.5" y="69.5" width="13" height="72" fill="#000000" stroke="#ffffff" stroke-width="1" class="highcharts-point highcharts-color-0"></rect><rect x="380.5" y="96.5" width="13" height="45" fill="#000000" stroke="#ffffff" stroke-width="1" class="highcharts-point highcharts-color-0"></rect><rect x="406.5" y="96.5" width="13" height="45" fill="#000000" stroke="#ffffff" stroke-width="1" class="highcharts-point highcharts-color-0"></rect><rect x="433.5" y="71.5" width="13" height="70" fill="#000000" stroke="#ffffff" stroke-width="1" class="highcharts-point highcharts-color-0"></rect><rect x="460.5" y="116.5" width="13" height="25" fill="#000000" stroke="#ffffff" stroke-width="1" class="highcharts-point highcharts-color-0"></rect><rect x="486.5" y="92.5" width="13" height="49" fill="#000000" stroke="#ffffff" stroke-width="1" class="highcharts-point highcharts-color-0"></rect></g><g data-z-index="0.1" class="highcharts-markers highcharts-series-0 highcharts-column-series highcharts-color-0 " transform="translate(83,78) scale(1 1)" clip-path="none"></g></g><text x="300" text-anchor="middle" class="highcharts-title" data-z-index="4" style="color:#333333;font-size:18px;fill:#333333;" y="24"><tspan>Average Overall Mood by Previous Webmd.com Usage</tspan></text><text x="300" text-anchor="middle" class="highcharts-subtitle" data-z-index="4" style="color:#666666;fill:#666666;" y="46"><tspan>Typical values for Overall Mood following a given amount of Webmd.com Usage over the</tspan><tspan dy="15" x="300">previous 7 days.</tspan></text><g class="highcharts-axis-labels highcharts-xaxis-labels " data-z-index="7"><text x="98.93483012751278" style="color:#666666;cursor:default;font-size:11px;fill:#666666;" text-anchor="end" transform="translate(0,0) rotate(-45 98.93483012751278 235)" y="235" opacity="1">0</text><text x="125.6190406538228" style="color:#666666;cursor:default;font-size:11px;fill:#666666;" text-anchor="end" transform="translate(0,0) rotate(-45 125.6190406538228 235)" y="235" opacity="1">0.0006</text><text x="152.3032511801428" style="color:#666666;cursor:default;font-size:11px;fill:#666666;" text-anchor="end" transform="translate(0,0) rotate(-45 152.3032511801428 235)" y="235" opacity="1">0.001</text><text x="178.9874617064528" style="color:#666666;cursor:default;font-size:11px;fill:#666666;" text-anchor="end" transform="translate(0,0) rotate(-45 178.9874617064528 235)" y="235" opacity="1">0.002</text><text x="205.6716722327728" style="color:#666666;cursor:default;font-size:11px;fill:#666666;" text-anchor="end" transform="translate(0,0) rotate(-45 205.6716722327728 235)" y="235" opacity="1">0.003</text><text x="232.3558827590828" style="color:#666666;cursor:default;font-size:11px;fill:#666666;" text-anchor="end" transform="translate(0,0) rotate(-45 232.3558827590828 235)" y="235" opacity="1">0.004</text><text x="259.04009328540275" style="color:#666666;cursor:default;font-size:11px;fill:#666666;" text-anchor="end" transform="translate(0,0) rotate(-45 259.04009328540275 235)" y="235" opacity="1">0.005</text><text x="285.72430381172273" style="color:#666666;cursor:default;font-size:11px;fill:#666666;" text-anchor="end" transform="translate(0,0) rotate(-45 285.72430381172273 235)" y="235" opacity="1">0.006</text><text x="312.4085143380327" style="color:#666666;cursor:default;font-size:11px;fill:#666666;" text-anchor="end" transform="translate(0,0) rotate(-45 312.4085143380327 235)" y="235" opacity="1">0.008</text><text x="339.09272486435276" style="color:#666666;cursor:default;font-size:11px;fill:#666666;" text-anchor="end" transform="translate(0,0) rotate(-45 339.09272486435276 235)" y="235" opacity="1">0.009</text><text x="365.77693539066274" style="color:#666666;cursor:default;font-size:11px;fill:#666666;" text-anchor="end" transform="translate(0,0) rotate(-45 365.77693539066274 235)" y="235" opacity="1">0.01</text><text x="392.46114591698273" style="color:#666666;cursor:default;font-size:11px;fill:#666666;" text-anchor="end" transform="translate(0,0) rotate(-45 392.46114591698273 235)" y="235" opacity="1">0.02</text><text x="419.1453564433027" style="color:#666666;cursor:default;font-size:11px;fill:#666666;" text-anchor="end" transform="translate(0,0) rotate(-45 419.1453564433027 235)" y="235" opacity="1">0.03</text><text x="445.82956696961276" style="color:#666666;cursor:default;font-size:11px;fill:#666666;" text-anchor="end" transform="translate(0,0) rotate(-45 445.82956696961276 235)" y="235" opacity="1">0.04</text><text x="472.51377749593274" style="color:#666666;cursor:default;font-size:11px;fill:#666666;" text-anchor="end" transform="translate(0,0) rotate(-45 472.51377749593274 235)" y="235" opacity="1">0.05</text><text x="499.1979880222427" style="color:#666666;cursor:default;font-size:11px;fill:#666666;" text-anchor="end" transform="translate(0,0) rotate(-45 499.1979880222427 235)" y="235" opacity="1">0.06</text><text x="525.8821985485628" style="color:#666666;cursor:default;font-size:11px;fill:#666666;" text-anchor="end" transform="translate(0,0) rotate(-45 525.8821985485628 235)" y="235" opacity="1">0.07</text><text x="552.5664090748727" style="color:#666666;cursor:default;font-size:11px;fill:#666666;" text-anchor="end" transform="translate(0,0) rotate(-45 552.5664090748727 235)" y="235" opacity="1">0.08</text><text x="579.2506196011927" style="color:#666666;cursor:default;font-size:11px;fill:#666666;" text-anchor="end" transform="translate(0,0) rotate(-45 579.2506196011927 235)" y="235" opacity="1">0.1</text></g><g class="highcharts-axis-labels highcharts-yaxis-labels " data-z-index="7"><text x="68" style="color:#666666;cursor:default;font-size:11px;fill:#666666;" text-anchor="end" transform="translate(0,0)" y="176" opacity="1">2.5</text><text x="68" style="color:#666666;cursor:default;font-size:11px;fill:#666666;" text-anchor="end" transform="translate(0,0)" y="129" opacity="1">3</text><text x="68" style="color:#666666;cursor:default;font-size:11px;fill:#666666;" text-anchor="end" transform="translate(0,0)" y="223" opacity="1">2</text><text x="68" style="color:#666666;cursor:default;font-size:11px;fill:#666666;" text-anchor="end" transform="translate(0,0)" y="82" opacity="1">3.5</text></g><a xlink:href="https://quantimo.do" target="_blank">
                    <text x="590" class="highcharts-credits" text-anchor="end" data-z-index="8"
                          style="cursor:pointer;color:#999999;font-size:9px;fill:#999999;" y="295">https://quantimo.do
                    </text>
                </a></svg>