<?xml version="1.0" standalone="no"?><!DOCTYPE svg PUBLIC "-//W3C//DTD SVG 1.1//EN" "http://www.w3.org/Graphics/SVG/1.1/DTD/svg11.dtd"><svg xmlns:xlink="http://www.w3.org/1999/xlink" version="1.1" class="highcharts-root" style="font-family:&quot;Lucida Grande&quot;, &quot;Lucida Sans Unicode&quot;, Arial, Helvetica, sans-serif;font-size:12px;" xmlns="http://www.w3.org/2000/svg" width="600" height="400"><desc>Created with Highstock 6.2.0</desc><defs><clipPath id="highcharts-xdjxlb9-405"><rect x="0" y="0" width="558" height="299" fill="none"></rect></clipPath><clipPath id="highcharts-xdjxlb9-804"><rect x="0" y="0" width="558" height="299" fill="none"></rect></clipPath><clipPath id="highcharts-xdjxlb9-805"><rect x="32" y="63" width="558" height="299" fill="none"></rect></clipPath></defs><rect fill="#ffffff" class="highcharts-background" x="0" y="0" width="600" height="400" rx="0" ry="0"></rect><rect fill="none" class="highcharts-plot-background" x="32" y="63" width="558" height="299"></rect><g class="highcharts-pane-group" data-z-index="0"></g><g class="highcharts-grid highcharts-xaxis-grid " data-z-index="1"><path fill="none" data-z-index="1" class="highcharts-grid-line" d="M 96.5 63 L 96.5 362" opacity="1"></path><path fill="none" data-z-index="1" class="highcharts-grid-line" d="M 211.5 63 L 211.5 362" opacity="1"></path><path fill="none" data-z-index="1" class="highcharts-grid-line" d="M 327.5 63 L 327.5 362" opacity="1"></path><path fill="none" data-z-index="1" class="highcharts-grid-line" d="M 443.5 63 L 443.5 362" opacity="1"></path><path fill="none" data-z-index="1" class="highcharts-grid-line" d="M 559.5 63 L 559.5 362" opacity="1"></path></g><g class="highcharts-grid highcharts-yaxis-grid " data-z-index="1"><path fill="none" stroke="#e6e6e6" stroke-width="1" data-z-index="1" class="highcharts-grid-line" d="M 32 362.5 L 590 362.5" opacity="1"></path><path fill="none" stroke="#e6e6e6" stroke-width="1" data-z-index="1" class="highcharts-grid-line" d="M 32 312.5 L 590 312.5" opacity="1"></path><path fill="none" stroke="#e6e6e6" stroke-width="1" data-z-index="1" class="highcharts-grid-line" d="M 32 262.5 L 590 262.5" opacity="1"></path><path fill="none" stroke="#e6e6e6" stroke-width="1" data-z-index="1" class="highcharts-grid-line" d="M 32 213.5 L 590 213.5" opacity="1"></path><path fill="none" stroke="#e6e6e6" stroke-width="1" data-z-index="1" class="highcharts-grid-line" d="M 32 163.5 L 590 163.5" opacity="1"></path><path fill="none" stroke="#e6e6e6" stroke-width="1" data-z-index="1" class="highcharts-grid-line" d="M 32 113.5 L 590 113.5" opacity="1"></path><path fill="none" stroke="#e6e6e6" stroke-width="1" data-z-index="1" class="highcharts-grid-line" d="M 32 62.5 L 590 62.5" opacity="1"></path></g><rect fill="none" class="highcharts-plot-border" data-z-index="1" x="32" y="63" width="558" height="299"></rect><g class="highcharts-axis highcharts-xaxis " data-z-index="2"><path fill="none" class="highcharts-tick" stroke="#ccd6eb" stroke-width="1" d="M 96.5 362 L 96.5 372" opacity="1"></path><path fill="none" class="highcharts-tick" stroke="#ccd6eb" stroke-width="1" d="M 211.5 362 L 211.5 372" opacity="1"></path><path fill="none" class="highcharts-tick" stroke="#ccd6eb" stroke-width="1" d="M 327.5 362 L 327.5 372" opacity="1"></path><path fill="none" class="highcharts-tick" stroke="#ccd6eb" stroke-width="1" d="M 443.5 362 L 443.5 372" opacity="1"></path><path fill="none" class="highcharts-tick" stroke="#ccd6eb" stroke-width="1" d="M 559.5 362 L 559.5 372" opacity="1"></path><path fill="none" class="highcharts-axis-line" stroke="#ccd6eb" stroke-width="1" data-z-index="7" d="M 32 362.5 L 590 362.5"></path></g><g class="highcharts-axis highcharts-yaxis " data-z-index="2"><path fill="none" class="highcharts-axis-line" data-z-index="7" d="M 32 63 L 32 362"></path></g><g class="highcharts-series-group" data-z-index="3"><g data-z-index="0.1" class="highcharts-series highcharts-series-0 highcharts-spline-series highcharts-color-0 " transform="translate(32,63) scale(1 1)" clip-path="url(#highcharts-xdjxlb9-804)"><path fill="none" d="M 5.4705882352941 99.66666666666666 C 5.4705882352941 99.66666666666666 201.02400752303365 120.69550219460334 331.39295371486 160.46333333333334 C 331.716961417932 160.56216886126998 331.87896526946804 199.33333333333331 332.20297297254 199.33333333333331 C 332.724612728548 199.33333333333331 332.985432606552 182.72222222222223 333.50707236256 182.72222222222223 C 334.18422482979605 182.72222222222223 334.522801063414 227.24 335.19995353065 227.24 C 335.45375351837004 227.24 335.58065351223 160.46333333333334 335.83445349995 160.46333333333334 C 336.08825348766595 160.46333333333334 336.215153481524 227.24 336.46895346924 227.24 C 336.55320096516397 227.24 336.59532471312593 219.5988888888889 336.67957220905 219.5988888888889 C 336.849124700846 219.5988888888889 336.93390094674396 249.16666666666666 337.10345343854 249.16666666666666 C 337.23035343239997 249.16666666666666 337.29380342933 94.18499999999997 337.42070342319 94.18499999999997 C 337.54760341705 94.18499999999997 337.61105341397996 249.16666666666666 337.73795340784 249.16666666666666 C 337.86485340170003 249.16666666666666 337.92830339862996 249.16666666666666 338.05520339249 249.16666666666666 C 338.30900338021 249.16666666666666 338.43590337407005 204.815 338.68970336179 204.815 C 338.81660335565005 204.815 338.88005335258003 249.16666666666666 339.00695334644 249.16666666666666 C 339.21810083622404 249.16666666666666 339.32367458111605 197.50611111111112 339.5348220709 197.50611111111112 C 339.66736206448405 197.50611111111112 339.73363206127596 197.62078930050333 339.86617205486 204.815 C 340.11433204285197 218.28501152272554 340.238412036848 249.16666666666666 340.48657202484 249.16666666666666 C 340.74037201256 249.16666666666666 340.86727200641997 182.63916666666665 341.12107199414 182.63916666666665 C 341.62867196957995 182.63916666666665 341.8824719573 249.16666666666666 342.39007193274 249.16666666666666 C 342.5169719266 249.16666666666666 342.58042192353 171.67583333333332 342.70732191739 171.67583333333332 C 342.83422191125 171.67583333333332 342.89767190818003 249.16666666666666 343.02457190204 249.16666666666666 C 343.15147189590004 249.16666666666666 343.21492189283 238.20333333333332 343.34182188669 238.20333333333332 C 343.46872188055005 238.20333333333332 343.53217187748 249.16666666666666 343.65907187134 249.16666666666666 C 344.166671846776 249.16666666666666 344.42047183449404 249.16666666666666 344.92807180993 249.16666666666666 C 345.18187179765 249.16666666666666 345.30877179150997 193.85166666666663 345.56257177923 193.85166666666663 C 345.94327176081 193.85166666666663 346.1336217516 249.16666666666666 346.51432173318 249.16666666666666 C 346.7681217209 249.16666666666666 346.89502171476 249.16666666666666 347.14882170248 249.16666666666666 C 347.40826168992396 249.16666666666666 347.537981683646 249.16666666666666 347.79742167109 249.16666666666666 C 347.96133416315797 249.16666666666666 348.043290409192 116.11166666666665 348.20720290126 116.11166666666665 C 348.29709039691204 116.11166666666665 348.34203414473797 204.815 348.43192164039 204.815 C 348.81262162197 204.815 349.00297161276 204.815 349.38367159434 204.815 C 349.63747158205996 204.815 349.76437157592 249.16666666666666 350.01817156364 249.16666666666666 C 350.14507155750005 249.16666666666666 350.20852155443 249.16666666666666 350.33542154829 249.16666666666666 C 350.589221536006 249.16666666666666 350.716121529864 249.16666666666666 350.96992151758 249.16666666666666 C 351.09118151171594 249.16666666666666 351.151811508784 249.16666666666666 351.27307150292 249.16666666666666 C 351.40561149650404 249.16666666666666 351.47188149329605 249.16666666666666 351.60442148688 249.16666666666666 C 351.725681481012 249.16666666666666 351.786311478078 249.16666666666666 351.90757147221 249.16666666666666 C 352.03447146607 249.16666666666666 352.09792146300003 249.16666666666666 352.22482145686 249.16666666666666 C 352.35172145072 249.16666666666666 352.41517144765004 249.16666666666666 352.54207144151 249.16666666666666 C 352.66897143537005 249.16666666666666 352.7324214323 249.16666666666666 352.85932142616 249.16666666666666 C 352.98622142002006 249.16666666666666 353.04967141695 249.16666666666666 353.17657141081 249.16666666666666 C 353.30911140439804 249.16666666666666 353.37538140119204 249.16666666666666 353.50792139478 249.16666666666666 C 353.798733880708 249.16666666666666 353.94414012367196 249.16666666666666 354.2349526096 249.16666666666666 C 354.36185260346 249.16666666666666 354.42530260038995 249.16666666666666 354.55220259425 249.16666666666666 C 355.39785005333 249.16666666666666 355.82067378287 249.16666666666666 356.66632124195 249.16666666666666 C 356.79322123581 249.16666666666666 356.85667123274004 249.16666666666666 356.9835712266 249.16666666666666 C 357.11047122046 249.16666666666666 357.17392121739005 249.16666666666666 357.30082121125 249.16666666666666 C 357.42772120511 249.16666666666666 357.49117120204 249.16666666666666 357.6180711959 249.16666666666666 C 357.74497118975995 249.16666666666666 357.80842118669 249.16666666666666 357.93532118055 249.16666666666666 C 358.06222117440996 249.16666666666666 358.12567117134 249.16666666666666 358.2525711652 249.16666666666666 C 358.37947115906 249.16666666666666 358.44292115599 249.16666666666666 358.56982114985 249.16666666666666 C 358.69672114370996 249.16666666666666 358.76017114063995 249.16666666666666 358.8870711345 249.16666666666666 C 359.01397112835997 249.16666666666666 359.07742112529 249.16666666666666 359.20432111915 249.16666666666666 C 359.331221113006 249.16666666666666 359.394671109934 249.16666666666666 359.52157110379 249.16666666666666 C 359.64847109765003 249.16666666666666 359.71192109457996 249.16666666666666 359.83882108844 249.16666666666666 C 359.96572108230004 249.16666666666666 360.02917107922997 249.16666666666666 360.15607107309 249.16666666666666 C 360.28297106695 249.16666666666666 360.34642106388003 249.16666666666666 360.47332105774 249.16666666666666 C 360.6002210516 249.16666666666666 360.66367104853003 249.16666666666666 360.79057104239 249.16666666666666 C 360.91747103625005 249.16666666666666 360.98092103318004 249.16666666666666 361.10782102704 249.16666666666666 C 361.2347210209 249.16666666666666 361.29817101783 249.16666666666666 361.42507101169 249.16666666666666 C 361.55197100555 249.16666666666666 361.61542100248005 249.16666666666666 361.74232099634 249.16666666666666 C 361.8692209902 249.16666666666666 361.93267098713 249.16666666666666 362.05957098099 249.16666666666666 C 362.18647097485 249.16666666666666 362.24992097177994 249.16666666666666 362.37682096564 249.16666666666666 C 362.50372095949996 249.16666666666666 362.56717095643 249.16666666666666 362.69407095029 249.16666666666666 C 362.82097094414996 249.16666666666666 362.88442094108 249.16666666666666 363.01132093494 249.16666666666666 C 363.143860928524 249.16666666666666 363.21013092531604 249.16666666666666 363.3426709189 249.16666666666666 C 363.506583410968 249.16666666666666 363.588539657002 160.46333333333334 363.75245214907 160.46333333333334 C 363.842339644722 160.46333333333334 363.88728339254806 160.46333333333334 363.9771708882 160.46333333333334 C 364.098430882332 160.46333333333334 364.159060879398 249.16666666666666 364.28032087353 249.16666666666666 C 364.41286086711796 249.16666666666666 364.479130863912 204.815 364.6116708575 204.815 C 364.732930851632 204.815 364.79356084869795 249.16666666666666 364.91482084283 249.16666666666666 C 365.04172083669 249.16666666666666 365.10517083362004 249.16666666666666 365.23207082748 249.16666666666666 C 365.36461082106797 249.16666666666666 365.430880817862 249.16666666666666 365.56342081145 249.16666666666666 C 366.31918077487796 249.16666666666666 366.69706075659195 249.16666666666666 367.45282072002 249.16666666666666 C 367.58536071360794 249.16666666666666 367.651630710402 249.16666666666666 367.78417070399 249.16666666666666 C 368.41867067329 249.16666666666666 368.73592065794 249.16666666666666 369.37042062724 249.16666666666666 C 369.61858061523196 249.16666666666666 369.742660609228 249.16666666666666 369.99082059722 249.16666666666666 C 370.921773052172 249.16666666666666 371.387249279648 160.46333333333334 372.3182017346 160.46333333333334 C 372.78878921183195 160.46333333333334 373.02408295044796 249.16666666666666 373.49467042768 249.16666666666666 C 377.042230256024 249.16666666666666 378.816010170196 249.16666666666666 382.36356999854 249.16666666666666 C 382.623009985984 249.16666666666666 382.75272997970603 204.815 383.01216996715 204.815 C 384.52932989374204 204.815 385.287909857038 211.03350222918647 386.80506978363 226.99083333333334 C 386.974622275426 228.77416889585314 387.05939852132406 249.16666666666666 387.22895101312 249.16666666666666 C 387.355851006976 249.16666666666666 387.419301003904 249.16666666666666 387.54620099776 249.16666666666666 C 387.67310099162 249.16666666666666 387.73655098855 249.16666666666666 387.86345098241 249.16666666666666 C 387.99035097626995 249.16666666666666 388.0538009732 249.16666666666666 388.18070096706 249.16666666666666 C 388.264948462984 249.16666666666666 388.307072210946 249.16666666666666 388.39131970687 249.16666666666666 C 388.56087219866595 249.16666666666666 388.645648444564 249.16666666666666 388.81520093636 249.16666666666666 C 388.94210093021996 249.16666666666666 389.00555092715 249.16666666666666 389.13245092101 249.16666666666666 C 389.25935091486997 249.16666666666666 389.3228009118 249.16666666666666 389.44970090566 249.16666666666666 C 389.533948401584 249.16666666666666 389.57607214954595 249.16666666666666 389.66031964547 249.16666666666666 C 389.829872137266 249.16666666666666 389.914648383164 249.16666666666666 390.08420087496 249.16666666666666 C 390.21110086882 249.16666666666666 390.27455086575003 249.16666666666666 390.40145085961 249.16666666666666 C 390.52835085347 249.16666666666666 390.59180085040003 249.16666666666666 390.71870084426 249.16666666666666 C 390.84560083812005 249.16666666666666 390.90905083505004 227.24 391.03595082891 227.24 C 391.162850822766 227.24 391.226300819694 227.24 391.35320081355 227.24 C 391.60700080127 227.24 391.73390079513 249.16666666666666 391.98770078285 249.16666666666666 C 392.49530075829 249.16666666666666 392.74910074601 249.16666666666666 393.25670072145 249.16666666666666 C 393.63740070303004 249.16666666666666 393.82775069382 227.24 394.2084506754 227.24 C 394.33535066926004 227.24 394.39880066618997 227.24 394.52570066005 227.24 C 394.653847622598 227.24 394.717921103872 249.16666666666666 394.84606806642 249.16666666666666 C 394.97172109159203 249.16666666666666 395.034547604178 249.16666666666666 395.16020062935 249.16666666666666 C 395.31594393431396 249.16666666666666 395.393815586796 204.815 395.54955889176 204.815 C 395.64761557451203 204.815 395.69664391588805 227.24 395.79470059864 227.24 C 396.17540058022 227.24 396.36575057101 227.24 396.74645055259 227.24 C 396.87335054645 227.24 396.93680054337995 227.24 397.06370053724 227.24 C 397.368784866228 227.24 397.52132703072203 249.16666666666666 397.82641135971 249.16666666666666 C 397.90718232455004 249.16666666666666 397.94756780696997 249.16666666666666 398.02833877181 249.16666666666666 C 398.292845946514 249.16666666666666 398.42509953386605 174.63333333358474 398.68960670857 149.5 C 399.054444190914 114.83333333358478 399.236862932086 99.66666666666666 399.60170041443 99.66666666666666 C 399.72860040829 99.66666666666666 399.79205040522004 99.66666666666666 399.91895039908 99.66666666666666 C 400.04585039294 99.66666666666666 400.10930038987004 149.5 400.23620038373 149.5 C 400.36310037759006 149.5 400.42655037452005 99.66666666666666 400.55345036838 99.66666666666666 C 400.68035036224 99.66666666666666 400.74380035917 249.16666666666666 400.87070035303 249.16666666666666 C 400.99760034688995 249.16666666666666 401.06105034382 99.66666666666666 401.18795033768 99.66666666666666 C 401.31485033154 99.66666666666666 401.37830032846995 99.66666666666666 401.50520032233 99.66666666666666 C 401.63210031619 99.66666666666666 401.69555031311995 99.66666666666666 401.82245030698 99.66666666666666 C 401.9904679551 99.66666666666666 402.07447677915997 159.74524884272125 402.24249442728 199.33333333333331 C 402.32827676688004 219.54524884272126 402.37116793668 249.16666666666666 402.45695027628 249.16666666666666 C 402.58385027014003 249.16666666666666 402.64730026707 99.66666666666666 402.77420026093 99.66666666666666 C 403.028000248646 99.66666666666666 403.154900242504 99.66666666666666 403.40870023022 99.66666666666666 C 403.53560022408 99.66666666666666 403.59905022101003 149.5 403.72595021487 149.5 C 403.85285020873005 149.5 403.91630020566 149.5 404.04320019952 149.5 C 404.29700018724003 149.5 404.4239001811 149.5 404.67770016882 149.5 C 404.80460016268 149.5 404.86805015961 149.5 404.99495015347 149.5 C 405.24875014119 149.5 405.37565013505 199.33333333333331 405.62945012277 199.33333333333331 C 405.88507282915003 199.33333333333331 406.01288418234003 199.33333333333331 406.26850688872 199.33333333333331 C 406.4014361010401 199.33333333333331 406.4679007072 199.33333333333331 406.60082991952 199.33333333333331 C 406.67722547832 199.33333333333331 406.71542325772 199.33333333333331 406.79181881652 199.33333333333331 C 406.984814025932 199.33333333333331 407.08131163063797 199.33333333333331 407.27430684005 199.33333333333331 C 407.40764436484994 199.33333333333331 407.47431312725 172.30337966439626 407.60765065205 149.5 C 407.70742430347 132.4367129977296 407.75731112918004 99.66666666666666 407.8570847806 99.66666666666666 C 408.23503085606404 99.66666666666666 408.424003893796 249.16666666666666 408.80194996926 249.16666666666666 C 408.940726275044 249.16666666666666 409.010114427936 249.16666666666666 409.14889073372 249.16666666666666 C 409.263914415656 249.16666666666666 409.321426256624 149.5 409.43644993856 149.5 C 409.69024992628 149.5 409.81714992013997 189.3666666666265 410.07094990786 199.33333333333331 C 410.83234987101594 229.23333333329313 411.21304985259405 249.16666666666666 411.97444981575 249.16666666666666 C 412.48204979119 249.16666666666666 412.73584977891005 199.33333333333331 413.24344975435 199.33333333333331 C 414.512449692946 199.33333333333331 415.14694966224397 249.16666666666666 416.41594960084 249.16666666666666 C 416.66974958855997 249.16666666666666 416.79664958242 249.16666666666666 417.05044957014 249.16666666666666 C 417.32014730708795 249.16666666666666 417.454996175562 249.16666666666666 417.72469391251 249.16666666666666 C 418.21639613871804 249.16666666666666 418.462247251822 249.16666666666666 418.95394947803 249.16666666666666 C 419.08084947189 249.16666666666666 419.14429946882 249.16666666666666 419.27119946268 249.16666666666666 C 419.5249994504 249.16666666666666 419.65189944426004 199.33333333333331 419.90569943198 199.33333333333331 C 420.03259942584 199.33333333333331 420.09604942277 199.33333333333331 420.22294941663 199.33333333333331 C 420.85744938592995 199.33333333333331 421.17469937058 199.33333333333331 421.80919933988 199.33333333333331 C 422.06299932760004 199.33333333333331 422.18989932145996 249.16666666666666 422.44369930918 249.16666666666666 C 422.697798921884 249.16666666666666 422.82484872823596 199.33333333333331 423.07894834094 199.33333333333331 C 423.162896211876 199.33333333333331 423.20487014734397 249.16666666666666 423.28881801828 249.16666666666666 C 423.458370510076 249.16666666666666 423.54314675597396 249.16666666666666 423.71269924777 249.16666666666666 C 423.839825429118 249.16666666666666 423.90338851979203 199.33333333333331 424.03051470114 199.33333333333331 C 424.19368841199605 199.33333333333331 424.275275267424 199.33333333333331 424.43844897828 199.33333333333331 C 424.782649055376 199.33333333333331 424.95474909392397 199.33333333333331 425.29894917102 199.33333333333331 C 425.55274915873997 199.33333333333331 425.6796491526 199.33333333333331 425.93344914032 199.33333333333331 C 426.821749097336 199.33333333333331 427.265899075844 199.33333333333331 428.15419903286 199.33333333333331 C 428.28109902671997 199.33333333333331 428.34454902364996 149.5 428.47144901751 149.5 C 429.11828795496206 149.5 429.44170742368794 199.33333333333331 430.08854636114 199.33333333333331 C 430.45690737456397 199.33333333333331 430.64108788127595 199.33333333333331 431.0094488947 199.33333333333331 C 431.26408313238 199.33333333333331 431.39140025122 149.5 431.6460344889 149.5 C 431.77276410776796 149.5 431.836128917202 199.33333333333331 431.96285853607 199.33333333333331 C 432.09350677975 199.33333333333331 432.15883090158997 199.33333333333331 432.28947914527 199.33333333333331 C 432.41297457679394 199.33333333333331 432.474722292556 199.33333333333331 432.59821772408 199.33333333333331 C 432.72444649922 199.33333333333331 432.78756088679 199.33333333333331 432.91378966193 199.33333333333331 C 433.040638249542 199.33333333333331 433.10406254334805 199.33333333333331 433.23091113096 199.33333333333331 C 433.38242002988 199.33333333333331 433.4581744793401 149.5 433.60968337826 149.5 C 433.6690370316401 149.5 433.69871385832994 199.33333333333331 433.75806751171 199.33333333333331 C 433.88496750557 199.33333333333331 433.9484175025 199.33333333333331 434.07531749636 199.33333333333331 C 434.245082956892 199.33333333333331 434.329965687158 149.5 434.49973114769 149.5 C 434.62660911030196 149.5 434.690048091608 199.33333333333331 434.81692605422 199.33333333333331 C 434.94484389177995 199.33333333333331 435.00880281056 199.33333333333331 435.13672064812 199.33333333333331 C 435.21975936285196 199.33333333333331 435.26127872021806 199.33333333333331 435.34431743495 199.33333333333331 C 435.513869926746 199.33333333333331 435.598646172644 199.33333333333331 435.76819866444 199.33333333333331 C 435.89509865829996 199.33333333333331 435.95854865522995 99.66666666666666 436.08544864909 99.66666666666666 C 436.169696145014 99.66666666666666 436.211819892976 118.41682217195344 436.2960673889 124.58333333333331 C 436.48415109854795 138.3501555052868 436.57819295337197 130.53000247735625 436.76627666302 149.5 C 436.874645439028 160.43000247735625 436.92882982703196 199.33333333333331 437.03719860304 199.33333333333331 C 437.16451572188 199.33333333333331 437.2281742813 199.33333333333331 437.35549140014 199.33333333333331 C 437.73577425674 199.33333333333331 437.92591568504 199.33333333333331 438.30619854164 199.33333333333331 C 438.433098535496 199.33333333333331 438.496548532424 199.33333333333331 438.62344852628 199.33333333333331 C 438.75034852013994 199.33333333333331 438.81379851707004 199.33333333333331 438.94069851093 199.33333333333331 C 439.06759850479 199.33333333333331 439.13104850172004 199.33333333333331 439.25794849558 199.33333333333331 C 439.416328206668 199.33333333333331 439.495518062212 199.33333333333331 439.6538977733 199.33333333333331 C 439.74931804993196 199.33333333333331 439.79702818824796 199.33333333333331 439.89244846488 199.33333333333331 C 440.01934845873996 199.33333333333331 440.08279845566994 149.5 440.20969844953 149.5 C 440.33659844339 149.5 440.40004844032 199.33333333333331 440.52694843418 199.33333333333331 C 440.65384842803996 199.33333333333331 440.71729842496995 199.33333333333331 440.84419841883 199.33333333333331 C 440.9710984126899 199.33333333333331 441.03454840962 199.33333333333331 441.16144840348 199.33333333333331 C 441.28834839734 199.33333333333331 441.35179839427 199.33333333333331 441.47869838813 199.33333333333331 C 441.60559838199003 199.33333333333331 441.66904837891997 199.33333333333331 441.79594837278 199.33333333333331 C 441.92284836664004 199.33333333333331 441.98629836357 199.33333333333331 442.11319835743 199.33333333333331 C 442.24009835129 199.33333333333331 442.30354834822003 199.33333333333331 442.43044834208 199.33333333333331 C 442.55734833593596 199.33333333333331 442.62079833286407 199.33333333333331 442.74769832672 199.33333333333331 C 442.87459832058005 199.33333333333331 442.93804831751004 199.33333333333331 443.06494831137 199.33333333333331 C 443.192031898974 199.33333333333331 443.25557369277595 149.5 443.38265728038 149.5 C 443.50937368049597 149.5 443.57273188055404 199.33333333333331 443.69944828067 199.33333333333331 C 443.82634827453 199.33333333333331 443.88979827145994 199.33333333333331 444.01669826532 199.33333333333331 C 444.14393166541197 199.33333333333331 444.207548365458 149.5 444.33478176555 149.5 C 444.4613483531781 149.5 444.524631646992 199.33333333333331 444.65119823462 199.33333333333331 C 444.77809822847996 199.33333333333331 444.84154822541007 199.33333333333331 444.96844821927 199.33333333333331 C 445.09534821313 199.33333333333331 445.15879821006 249.16666666666666 445.28569820392 249.16666666666666 C 445.41259819777997 249.16666666666666 445.47604819470996 199.33333333333331 445.60294818857 199.33333333333331 C 445.730303494906 199.33333333333331 445.793981148074 249.16666666666666 445.92133645441 249.16666666666666 C 446.04778113579397 249.16666666666666 446.11100347648596 199.33333333333331 446.23744815787 199.33333333333331 C 446.36434815172595 199.33333333333331 446.427798148654 199.33333333333331 446.55469814251 199.33333333333331 C 446.68159813637004 199.33333333333331 446.74504813330003 199.33333333333331 446.87194812716 199.33333333333331 C 446.99884812102 199.33333333333331 447.06229811795004 199.33333333333331 447.18919811181 199.33333333333331 C 447.31609810567 199.33333333333331 447.3795481026 199.33333333333331 447.50644809646 199.33333333333331 C 447.63334809032006 199.33333333333331 447.69679808725004 149.5 447.82369808111 149.5 C 447.95059807497 149.5 448.0140480719 199.33333333333331 448.14094806576 199.33333333333331 C 448.26784805961995 199.33333333333331 448.33129805655 199.33333333333331 448.45819805041 199.33333333333331 C 448.58509804426996 199.33333333333331 448.64854804119994 199.33333333333331 448.77544803506 199.33333333333331 C 448.90234802892 199.33333333333331 448.96579802585 199.33333333333331 449.09269801971 199.33333333333331 C 449.21959801356996 199.33333333333331 449.2830480105 149.5 449.40994800436 149.5 C 449.53684799821997 149.5 449.60029799514996 199.33333333333331 449.72719798901 199.33333333333331 C 449.85409798287003 199.33333333333331 449.9175479798 199.33333333333331 450.04444797366 199.33333333333331 C 450.171347967516 199.33333333333331 450.234797964444 199.33333333333331 450.3616979583 199.33333333333331 C 450.4885979521599 199.33333333333331 450.55204794909 199.33333333333331 450.67894794295 199.33333333333331 C 450.80584793681 199.33333333333331 450.86929793374003 199.33333333333331 450.9961979276 199.33333333333331 C 451.12309792146004 199.33333333333331 451.18654791839 199.33333333333331 451.31344791225 199.33333333333331 C 451.4691794672141 199.33333333333331 451.547045244696 199.33333333333331 451.70277679966 199.33333333333331 C 451.800845232416 199.33333333333331 451.84987944879396 199.33333333333331 451.94794788155 199.33333333333331 C 452.07484787541 199.33333333333331 452.1382978723401 149.5 452.2651978662 149.5 C 452.39209786006006 149.5 452.45554785698994 249.16666666666666 452.58244785085 249.16666666666666 C 452.7093478447099 249.16666666666666 452.77279784164 149.5 452.8996978355 149.5 C 453.03561742267203 149.5 453.103577216258 249.16666666666666 453.23949680343 249.16666666666666 C 453.35737720397793 249.16666666666666 453.416317404252 206.65767081080938 453.5341978048 199.33333333333331 C 454.057945216956 166.79100414414273 454.319818923034 149.5 454.84356633519 149.5 C 455.335425717642 149.5 455.58135540886803 199.33333333333331 456.07321479132 199.33333333333331 C 456.714591447784 199.33333333333331 457.03527977601595 199.33333333333331 457.67665643248 199.33333333333331 C 457.753620397508 199.33333333333331 457.79210238002196 224.25 457.86906634505 224.25 C 457.995966338906 224.25 458.059416335834 199.33333333333331 458.18631632969 199.33333333333331 C 458.3132163235499 199.33333333333331 458.37666632048 199.33333333333331 458.50356631434 199.33333333333331 C 458.67763961842 199.33333333333331 458.76467627046003 249.16666666666666 458.93874957454 249.16666666666666 C 459.061128756116 249.16666666666666 459.122318346904 249.16666666666666 459.24469752848 249.16666666666666 C 459.45105248724803 249.16666666666666 459.554229966632 199.33333333333331 459.7605849254 199.33333333333331 C 459.808029954352 199.33333333333331 459.83175246882803 249.16666666666666 459.87919749778 249.16666666666666 C 460.00609749163993 249.16666666666666 460.06954748857004 249.16666666666666 460.19644748243 249.16666666666666 C 460.32554472618204 249.16666666666666 460.390093348058 249.16666666666666 460.51919059181 249.16666666666666 C 460.718295800926 249.16666666666666 460.8178484054841 249.16666666666666 461.0169536146 249.16666666666666 C 461.074007205592 249.16666666666666 461.10253400108803 249.16666666666666 461.15958759208 249.16666666666666 C 461.28193152366003 249.16666666666666 461.34310348945 249.16666666666666 461.46544742103 249.16666666666666 C 461.59234741489 249.16666666666666 461.65579741182 199.33333333333331 461.78269740568 199.33333333333331 C 461.90959739953996 199.33333333333331 461.97304739646995 199.33333333333331 462.09994739033 199.33333333333331 C 462.18419488624994 199.33333333333331 462.22631863421003 217.63324074093043 462.31056613013 224.25 C 462.48011862192595 237.56657407426377 462.564894867824 249.16666666666666 462.73444735962 249.16666666666666 C 462.86134735348 249.16666666666666 462.92479735040996 249.16666666666666 463.05169734427 249.16666666666666 C 463.17859733813003 249.16666666666666 463.24204733505997 249.16666666666666 463.36894732892 249.16666666666666 C 463.453194824844 249.16666666666666 463.495318572806 228.59717279559464 463.57956606873 224.25 C 463.881623304114 208.6638394622613 464.03265192180595 199.33333333333331 464.33470915719 199.33333333333331 C 464.582904395182 199.33333333333331 464.70700201417804 249.16666666666666 464.95519725217 249.16666666666666 C 465.03944474809407 249.16666666666666 465.08156849605604 207.61290696329127 465.16581599198 199.33333333333331 C 465.41961597970004 174.39068474106904 465.5465159735601 184.49932379542426 465.80031596128 166.11111111111111 C 466.09676844693206 144.63265712875761 466.244994689758 99.66666666666666 466.54144717541 99.66666666666666 C 466.669137356734 99.66666666666666 466.732982447396 99.66666666666666 466.86067262872 99.66666666666666 C 466.988427435036 99.66666666666666 467.05230483819395 199.33333333333331 467.18005964451 199.33333333333331 C 467.43252894479394 199.33333333333331 467.55876359493595 199.33333333333331 467.81123289522 199.33333333333331 C 467.89516607866 199.33333333333331 467.93713267038004 199.33333333333331 468.02106585382 199.33333333333331 C 468.14796584768 199.33333333333331 468.21141584461003 199.33333333333331 468.33831583847 199.33333333333331 C 468.46521583233005 199.33333333333331 468.52866582926 199.33333333333331 468.65556582312 199.33333333333331 C 468.95514233987194 199.33333333333331 469.104930598248 199.33333333333331 469.404507115 199.33333333333331 C 470.111451705796 199.33333333333331 470.46492400119405 199.33333333333331 471.17186859199 199.33333333333331 C 473.512687322474 199.33333333333331 474.683096687716 149.5 477.0239154182 149.5 C 477.15081541206 149.5 477.21426540898995 249.16666666666666 477.34116540285 249.16666666666666 C 477.46806539670996 249.16666666666666 477.53151539364 99.66666666666666 477.6584153875 99.66666666666666 C 477.79419691218 99.66666666666666 477.86208767452 249.16666666666666 477.9978691992 249.16666666666666 C 478.579116702324 249.16666666666666 478.869740453886 149.5 479.45098795701 149.5 C 479.622576136206 149.5 479.708370225804 149.5 479.879958405 149.5 C 480.006541148876 149.5 480.069832520814 99.66666666666666 480.19641526469 99.66666666666666 C 480.32331525855 99.66666666666666 480.38676525548 99.66666666666666 480.51366524934 99.66666666666666 C 480.59262524552 99.66666666666666 480.63210524361 99.66666666666666 480.71106523979 99.66666666666666 C 480.88590523132996 99.66666666666666 480.9733252271 99.66666666666666 481.14816521864 99.66666666666666 C 481.27506521249995 99.66666666666666 481.33851520943 99.66666666666666 481.46541520329 99.66666666666666 C 481.59601057196994 99.66666666666666 481.66130825631 99.66666666666666 481.79190362499 99.66666666666666 C 482.29580822560604 99.66666666666666 482.54776052591404 151.56339731714323 483.05166512653 199.33333333333331 C 483.17856512039 211.36339731714324 483.24201511731997 249.16666666666666 483.36891511118 249.16666666666666 C 483.62271509889996 249.16666666666666 483.74961509276 99.66666666666666 484.00341508048 99.66666666666666 C 484.2572150682 99.66666666666666 484.38411506206 149.5 484.63791504978 149.5 C 485.52621500679595 149.5 485.97036498530395 99.66666666666666 486.85866494232 99.66666666666666 C 486.98556493617997 99.66666666666666 487.04901493311 129.56666666666666 487.17591492697 149.5 C 487.30281492083 169.43333333333334 487.3662649177601 199.33333333333331 487.49316491162 199.33333333333331 C 487.62006490548004 199.33333333333331 487.68351490241 199.33333333333331 487.81041489627 199.33333333333331 C 488.31801487171 199.33333333333331 488.57181485943 199.33333333333331 489.07941483487 199.33333333333331 C 489.20631482873006 199.33333333333331 489.26976482566005 199.33333333333331 489.39666481952 199.33333333333331 C 489.65046480723595 199.33333333333331 489.777364801094 199.33333333333331 490.03116478881 199.33333333333331 C 490.28496477653 199.33333333333331 490.41186477039 199.33333333333331 490.66566475811 199.33333333333331 C 490.79256475196996 199.33333333333331 490.8560147489 249.16666666666666 490.98291474276 249.16666666666666 C 492.125014687496 249.16666666666666 492.69606465986396 149.5 493.8381646046 149.5 C 494.09196459232 149.5 494.21886458618 199.33333333333331 494.4726645739 199.33333333333331 C 494.59956456776 199.33333333333331 494.66301456469 199.33333333333331 494.78991455855 199.33333333333331 C 494.91681455240996 199.33333333333331 494.98026454933995 199.33333333333331 495.1071645432 199.33333333333331 C 495.2340645370599 199.33333333333331 495.29751453399 199.33333333333331 495.42441452785 199.33333333333331 C 495.80511450943004 199.33333333333331 495.99546450022 149.5 496.3761644818 149.5 C 496.75686446338005 149.5 496.94721445416997 249.16666666666666 497.32791443575 249.16666666666666 C 497.45481442961 249.16666666666666 497.51826442654 149.5 497.6451644204 149.5 C 498.02586440197604 149.5 498.21621439276396 149.5 498.59691437434 149.5 C 498.72381436819995 149.5 498.78726436513 149.5 498.91416435899 149.5 C 499.04106435284996 149.5 499.10451434978006 99.66666666666666 499.23141434364 99.66666666666666 C 500.11971430066006 99.66666666666666 500.56386427916993 99.66666666666666 501.45216423619 99.66666666666666 C 501.705964223906 99.66666666666666 501.83286421776404 149.5 502.08666420548 149.5 C 502.59426418092 149.5 502.84806416863995 149.5 503.35566414408 149.5 C 504.37086409495595 149.5 504.878464070394 249.16666666666666 505.89366402127 249.16666666666666 C 506.52816399057 249.16666666666666 506.84541397521997 199.33333333333331 507.47991394452 199.33333333333331 C 507.60681393838 199.33333333333331 507.67026393530995 249.16666666666666 507.79716392917 249.16666666666666 C 507.92406392303 249.16666666666666 507.98751391995995 179.40000000000668 508.11441391382 149.5 C 508.24131390767997 119.6000000000067 508.30476390461 99.66666666666666 508.43166389847 99.66666666666666 C 508.55856389232997 99.66666666666666 508.6220138892601 149.5 508.74891388312 149.5 C 508.87581387698003 149.5 508.93926387391 149.5 509.06616386777 149.5 C 509.446863849346 149.5 509.63721384013405 199.33333333333331 510.01791382171 199.33333333333331 C 510.14481381557 199.33333333333331 510.2082638125 149.5 510.33516380636 149.5 C 510.46206380022005 149.5 510.52551379715004 199.33333333333331 510.65241379101 199.33333333333331 C 510.77931378487 199.33333333333331 510.84276378180004 199.33333333333331 510.96966377566 199.33333333333331 C 511.09656376952 199.33333333333331 511.16001376645 199.33333333333331 511.28691376031 199.33333333333331 C 511.41381375416995 199.33333333333331 511.47726375109994 199.33333333333331 511.60416374496 199.33333333333331 C 511.73106373882 199.33333333333331 511.79451373575 149.5 511.92141372961 149.5 C 512.04831372347 149.5 512.1117637204001 199.33333333333331 512.23866371426 199.33333333333331 C 512.36556370812 199.33333333333331 512.42901370505 199.33333333333331 512.55591369891 199.33333333333331 C 512.68281369277 199.33333333333331 512.7462636897001 199.33333333333331 512.87316368356 199.33333333333331 C 513.00006367742 199.33333333333331 513.06351367435 199.33333333333331 513.19041366821 199.33333333333331 C 513.317313662066 199.33333333333331 513.3807636589939 199.33333333333331 513.50766365285 199.33333333333331 C 513.63456364671 199.33333333333331 513.69801364364 199.33333333333331 513.8249136375 199.33333333333331 C 513.95181363136 199.33333333333331 514.01526362829 199.33333333333331 514.14216362215 199.33333333333331 C 514.2690636160099 199.33333333333331 514.33251361294 199.33333333333331 514.4594136068 199.33333333333331 C 517.251213471712 199.33333333333331 518.647113404168 199.33333333333331 521.43891326908 199.33333333333331 C 522.07341323838 199.33333333333331 522.39066322303 149.5 523.02516319233 149.5 C 524.167263137066 149.5 524.7383131094341 199.33333333333331 525.88041305417 199.33333333333331 C 526.00731304803 199.33333333333331 526.07076304496 99.66666666666666 526.19766303882 99.66666666666666 C 526.70526301426 99.66666666666666 526.95906300198 199.33333333333331 527.46666297742 199.33333333333331 C 527.59356297128 199.33333333333331 527.65701296821 149.5 527.78391296207 149.5 C 527.9108129559299 149.5 527.97426295286 149.5 528.10116294672 149.5 C 528.22806294058 149.5 528.29151293751 149.5 528.41841293137 149.5 C 528.5453129252301 149.5 528.6087629221599 149.5 528.73566291602 149.5 C 528.86256290988 149.5 528.92601290681 149.5 529.05291290067 149.5 C 529.179812894526 149.5 529.243262891454 149.5 529.37016288531 149.5 C 529.49706287917 149.5 529.5605128761 149.5 529.68741286996 149.5 C 530.06811285154 149.5 530.25846284233 149.5 530.63916282391 149.5 C 530.76606281777 149.5 530.8295128147 149.5 530.95641280856 149.5 C 531.08331280242 149.5 531.14676279935 149.5 531.27366279321 149.5 C 531.4005627870699 149.5 531.464012784 149.5 531.59091277786 149.5 C 531.84471276558 149.5 531.97161275944 149.5 532.22541274716 149.5 C 532.35231274102 149.5 532.41576273795 99.66666666666666 532.54266273181 99.66666666666666 C 532.6695627256701 99.66666666666666 532.7330127225999 149.5 532.85991271646 149.5 C 533.113712704176 149.5 533.240612698034 149.5 533.49441268575 149.5 C 533.62131267961 149.5 533.68476267654 199.33333333333331 533.8116626704 199.33333333333331 C 533.93856266426 199.33333333333331 534.0020126611901 149.5 534.12891265505 149.5 C 534.25581264891 149.5 534.31926264584 149.5 534.4461626397 149.5 C 534.5730626335601 149.5 534.63651263049 149.5 534.76341262435 149.5 C 535.01721261207 149.5 535.1441126059301 199.33333333333331 535.39791259365 199.33333333333331 C 535.5248125875099 199.33333333333331 535.58826258444 199.33333333333331 535.7151625783 199.33333333333331 C 535.84206257216 199.33333333333331 535.90551256909 199.33333333333331 536.03241256295 199.33333333333331 C 536.1593125568099 199.33333333333331 536.22276255374 199.33333333333331 536.3496625476 199.33333333333331 C 536.47656254146 199.33333333333331 536.54001253839 199.33333333333331 536.66691253225 199.33333333333331 C 536.7938125261101 199.33333333333331 536.8572625230399 199.33333333333331 536.9841625169 199.33333333333331 C 537.111062510756 199.33333333333331 537.174512507684 199.33333333333331 537.30141250154 199.33333333333331 C 537.4283124954 199.33333333333331 537.49176249233 199.33333333333331 537.61866248619 199.33333333333331 C 537.87246247391 199.33333333333331 537.9993624677701 249.16666666666666 538.25316245549 249.16666666666666 C 538.38006244935 249.16666666666666 538.44351244628 249.16666666666666 538.57041244014 249.16666666666666 C 538.697312434 249.16666666666666 538.7607624309301 249.16666666666666 538.88766242479 249.16666666666666 C 539.01456241865 249.16666666666666 539.07801241558 249.16666666666666 539.20491240944 249.16666666666666 C 539.3318124033 249.16666666666666 539.39526240023 199.33333333333331 539.52216239409 199.33333333333331 C 539.6490623879499 199.33333333333331 539.71251238488 249.16666666666666 539.83941237874 249.16666666666666 C 539.9663123726 249.16666666666666 540.02976236953 249.16666666666666 540.15666236339 249.16666666666666 C 540.28356235725 249.16666666666666 540.3470123541799 249.16666666666666 540.47391234804 249.16666666666666 C 540.6008123419 249.16666666666666 540.66426233883 249.16666666666666 540.79116233269 249.16666666666666 C 540.918062326546 249.16666666666666 540.981512323474 149.5 541.10841231733 149.5 C 541.23531231119 149.5 541.29876230812 249.16666666666666 541.42566230198 249.16666666666666 C 541.55256229584 249.16666666666666 541.61601229277 199.33333333333331 541.74291228663 199.33333333333331 C 541.86981228049 199.33333333333331 541.93326227742 199.33333333333331 542.06016227128 199.33333333333331 C 542.1870622651401 199.33333333333331 542.25051226207 199.33333333333331 542.37741225593 199.33333333333331 C 542.50431224979 199.33333333333331 542.56776224672 199.33333333333331 542.69466224058 199.33333333333331 C 542.82156223444 199.33333333333331 542.8850122313701 149.5 543.01191222523 149.5 C 543.13881221909 149.5 543.20226221602 199.33333333333331 543.32916220988 199.33333333333331 C 543.45606220374 199.33333333333331 543.51951220067 99.66666666666666 543.64641219453 99.66666666666666 C 543.7733121883899 99.66666666666666 543.83676218532 199.33333333333331 543.96366217918 199.33333333333331 C 544.09056217304 199.33333333333331 544.15401216997 199.33333333333331 544.28091216383 199.33333333333331 C 544.40781215769 199.33333333333331 544.4712621546199 199.33333333333331 544.59816214848 199.33333333333331 C 544.72506214234 199.33333333333331 544.78851213927 199.33333333333331 544.91541213313 199.33333333333331 C 545.042312126986 199.33333333333331 545.105762123914 199.33333333333331 545.23266211777 199.33333333333331 C 545.35956211163 199.33333333333331 545.42301210856 199.33333333333331 545.54991210242 199.33333333333331 C 545.67681209628 199.33333333333331 545.74026209321 199.33333333333331 545.86716208707 199.33333333333331 C 545.99406208093 199.33333333333331 546.05751207786 199.33333333333331 546.18441207172 199.33333333333331 C 546.3113120655801 199.33333333333331 546.37476206251 199.33333333333331 546.50166205637 199.33333333333331 C 546.62856205023 199.33333333333331 546.69201204716 199.33333333333331 546.81891204102 199.33333333333331 C 546.94581203488 199.33333333333331 547.0092620318101 199.33333333333331 547.13616202567 199.33333333333331 C 547.26306201953 199.33333333333331 547.32651201646 149.5 547.45341201032 149.5 C 547.5803120041801 149.5 547.64376200111 149.5 547.77066199497 149.5 C 547.89756198883 149.5 547.96101198576 149.5 548.08791197962 149.5 C 548.21481197348 149.5 548.27826197041 149.5 548.40516196427 149.5 C 548.53206195813 149.5 548.5955119550599 149.5 548.72241194892 149.5 C 548.849311942776 149.5 548.912761939704 149.5 549.03966193356 149.5 C 549.1665619274199 149.5 549.23001192435 149.5 549.35691191821 149.5 C 549.48381191207 149.5 549.547261909 149.5 549.67416190286 149.5 C 549.8010618967201 149.5 549.8645118936499 149.5 549.99141188751 149.5 C 550.11831188137 149.5 550.1817618783 99.66666666666666 550.30866187216 99.66666666666666 C 550.43556186602 99.66666666666666 550.49901186295 99.66666666666666 550.62591185681 99.66666666666666 C 550.75281185067 99.66666666666666 550.8162618476 249.16666666666666 550.94316184146 249.16666666666666 C 551.1969618291799 249.16666666666666 551.32386182304 189.36666666665477 551.57766181076 149.5 C 551.7045618046201 129.56666666665478 551.76801180155 112.95555555556348 551.89491179541 99.66666666666666 C 552.14871178313 73.0888888888968 552.52941176471 49.833333333333314 552.52941176471 49.833333333333314" class="highcharts-graph" data-z-index="1" stroke="#000000" stroke-width="2" stroke-linejoin="round" stroke-linecap="round"></path></g><g data-z-index="0.1" class="highcharts-markers highcharts-series-0 highcharts-spline-series highcharts-color-0 " transform="translate(32,63) scale(1 1)" clip-path="none"></g></g><text x="300" text-anchor="middle" class="highcharts-title" data-z-index="4" style="color:#333333;font-size:18px;fill:#333333;" y="24"><tspan>Tiredness / Fatigue Over Time</tspan></text><text x="300" text-anchor="middle" class="highcharts-subtitle" data-z-index="4" style="color:#666666;fill:#666666;" y="46"><tspan>This chart shows how your Tiredness / Fatigue changes over time.</tspan></text><g class="highcharts-axis-labels highcharts-xaxis-labels " data-z-index="7"><text x="96.585716624885" style="color:#666666;cursor:default;font-size:11px;fill:#666666;" text-anchor="middle" transform="translate(0,0)" y="381" opacity="1">2015</text><text x="212.38196102184" style="color:#666666;cursor:default;font-size:11px;fill:#666666;" text-anchor="middle" transform="translate(0,0)" y="381" opacity="1">2016</text><text x="328.49545540345" style="color:#666666;cursor:default;font-size:11px;fill:#666666;" text-anchor="middle" transform="translate(0,0)" y="381" opacity="1">2017</text><text x="444.2916998004" style="color:#666666;cursor:default;font-size:11px;fill:#666666;" text-anchor="middle" transform="translate(0,0)" y="381" opacity="1">2018</text><text x="560.08794419736" style="color:#666666;cursor:default;font-size:11px;fill:#666666;" text-anchor="middle" transform="translate(0,0)" y="381" opacity="1">2019</text></g><g class="highcharts-axis-labels highcharts-yaxis-labels " data-z-index="7"><text x="17" style="color:#666666;cursor:default;font-size:11px;fill:#666666;" text-anchor="end" transform="translate(0,0)" y="366" opacity="1">0</text><text x="17" style="color:#666666;cursor:default;font-size:11px;fill:#666666;" text-anchor="end" transform="translate(0,0)" y="316" opacity="1">1</text><text x="17" style="color:#666666;cursor:default;font-size:11px;fill:#666666;" text-anchor="end" transform="translate(0,0)" y="266" opacity="1">2</text><text x="17" style="color:#666666;cursor:default;font-size:11px;fill:#666666;" text-anchor="end" transform="translate(0,0)" y="216" opacity="1">3</text><text x="17" style="color:#666666;cursor:default;font-size:11px;fill:#666666;" text-anchor="end" transform="translate(0,0)" y="166" opacity="1">4</text><text x="17" style="color:#666666;cursor:default;font-size:11px;fill:#666666;" text-anchor="end" transform="translate(0,0)" y="116" opacity="1">5</text><text x="17" style="color:#666666;cursor:default;font-size:11px;fill:#666666;" text-anchor="end" transform="translate(0,0)" y="67" opacity="1">6</text></g><a xlink:href="https://quantimo.do" target="_blank">
                    <text x="590" class="highcharts-credits" text-anchor="end" data-z-index="8"
                          style="cursor:pointer;color:#999999;font-size:9px;fill:#999999;" y="395">https://quantimo.do
                    </text>
                </a></svg>