<?xml version="1.0" standalone="no"?><!DOCTYPE svg PUBLIC "-//W3C//DTD SVG 1.1//EN" "http://www.w3.org/Graphics/SVG/1.1/DTD/svg11.dtd"><svg xmlns:xlink="http://www.w3.org/1999/xlink" version="1.1" class="highcharts-root" style="font-family:&quot;Lucida Grande&quot;, &quot;Lucida Sans Unicode&quot;, Arial, Helvetica, sans-serif;font-size:12px;" xmlns="http://www.w3.org/2000/svg" width="600" height="300"><desc>Created with Highstock 6.2.0</desc><defs><clipPath id="highcharts-ibuw2tv-19"><rect x="0" y="0" width="532" height="126" fill="none"></rect></clipPath><clipPath id="highcharts-ibuw2tv-32"><rect x="0" y="0" width="532" height="126" fill="none"></rect></clipPath><clipPath id="highcharts-ibuw2tv-33"><rect x="58" y="78" width="532" height="126" fill="none"></rect></clipPath></defs><rect fill="#ffffff" class="highcharts-background" x="0" y="0" width="600" height="300" rx="0" ry="0"></rect><rect fill="none" class="highcharts-plot-background" x="58" y="78" width="532" height="126"></rect><g class="highcharts-pane-group" data-z-index="0"></g><g class="highcharts-grid highcharts-xaxis-grid " data-z-index="1"><path fill="none" data-z-index="1" class="highcharts-grid-line" d="M 101.5 78 L 101.5 204" opacity="1"></path><path fill="none" data-z-index="1" class="highcharts-grid-line" d="M 146.5 78 L 146.5 204" opacity="1"></path><path fill="none" data-z-index="1" class="highcharts-grid-line" d="M 190.5 78 L 190.5 204" opacity="1"></path><path fill="none" data-z-index="1" class="highcharts-grid-line" d="M 234.5 78 L 234.5 204" opacity="1"></path><path fill="none" data-z-index="1" class="highcharts-grid-line" d="M 279.5 78 L 279.5 204" opacity="1"></path><path fill="none" data-z-index="1" class="highcharts-grid-line" d="M 323.5 78 L 323.5 204" opacity="1"></path><path fill="none" data-z-index="1" class="highcharts-grid-line" d="M 367.5 78 L 367.5 204" opacity="1"></path><path fill="none" data-z-index="1" class="highcharts-grid-line" d="M 412.5 78 L 412.5 204" opacity="1"></path><path fill="none" data-z-index="1" class="highcharts-grid-line" d="M 456.5 78 L 456.5 204" opacity="1"></path><path fill="none" data-z-index="1" class="highcharts-grid-line" d="M 500.5 78 L 500.5 204" opacity="1"></path><path fill="none" data-z-index="1" class="highcharts-grid-line" d="M 545.5 78 L 545.5 204" opacity="1"></path><path fill="none" data-z-index="1" class="highcharts-grid-line" d="M 589.5 78 L 589.5 204" opacity="1"></path><path fill="none" data-z-index="1" class="highcharts-grid-line" d="M 57.5 78 L 57.5 204" opacity="1"></path></g><g class="highcharts-grid highcharts-yaxis-grid " data-z-index="1"><path fill="none" stroke="#e6e6e6" stroke-width="1" data-z-index="1" class="highcharts-grid-line" d="M 58 204.5 L 590 204.5" opacity="1"></path><path fill="none" stroke="#e6e6e6" stroke-width="1" data-z-index="1" class="highcharts-grid-line" d="M 58 141.5 L 590 141.5" opacity="1"></path><path fill="none" stroke="#e6e6e6" stroke-width="1" data-z-index="1" class="highcharts-grid-line" d="M 58 77.5 L 590 77.5" opacity="1"></path></g><rect fill="none" class="highcharts-plot-border" data-z-index="1" x="58" y="78" width="532" height="126"></rect><g class="highcharts-axis highcharts-xaxis " data-z-index="2"><path fill="none" class="highcharts-tick" stroke="#ccd6eb" stroke-width="1" d="M 101.5 204 L 101.5 214" opacity="1"></path><path fill="none" class="highcharts-tick" stroke="#ccd6eb" stroke-width="1" d="M 146.5 204 L 146.5 214" opacity="1"></path><path fill="none" class="highcharts-tick" stroke="#ccd6eb" stroke-width="1" d="M 190.5 204 L 190.5 214" opacity="1"></path><path fill="none" class="highcharts-tick" stroke="#ccd6eb" stroke-width="1" d="M 234.5 204 L 234.5 214" opacity="1"></path><path fill="none" class="highcharts-tick" stroke="#ccd6eb" stroke-width="1" d="M 279.5 204 L 279.5 214" opacity="1"></path><path fill="none" class="highcharts-tick" stroke="#ccd6eb" stroke-width="1" d="M 323.5 204 L 323.5 214" opacity="1"></path><path fill="none" class="highcharts-tick" stroke="#ccd6eb" stroke-width="1" d="M 367.5 204 L 367.5 214" opacity="1"></path><path fill="none" class="highcharts-tick" stroke="#ccd6eb" stroke-width="1" d="M 412.5 204 L 412.5 214" opacity="1"></path><path fill="none" class="highcharts-tick" stroke="#ccd6eb" stroke-width="1" d="M 456.5 204 L 456.5 214" opacity="1"></path><path fill="none" class="highcharts-tick" stroke="#ccd6eb" stroke-width="1" d="M 500.5 204 L 500.5 214" opacity="1"></path><path fill="none" class="highcharts-tick" stroke="#ccd6eb" stroke-width="1" d="M 545.5 204 L 545.5 214" opacity="1"></path><path fill="none" class="highcharts-tick" stroke="#ccd6eb" stroke-width="1" d="M 590.5 204 L 590.5 214" opacity="1"></path><path fill="none" class="highcharts-tick" stroke="#ccd6eb" stroke-width="1" d="M 57.5 204 L 57.5 214" opacity="1"></path><text x="324" data-z-index="7" text-anchor="middle" transform="translate(0,0)" class="highcharts-axis-title" style="color:#666666;fill:#666666;" y="280.618795026618"><tspan>Month</tspan></text><path fill="none" class="highcharts-axis-line" stroke="#ccd6eb" stroke-width="1" data-z-index="7" d="M 58 204.5 L 590 204.5"></path></g><g class="highcharts-axis highcharts-yaxis " data-z-index="2"><text x="26" data-z-index="7" text-anchor="middle" transform="translate(0,0) rotate(270 26 141)" class="highcharts-axis-title" style="color:#666666;fill:#666666;" y="141"><tspan>Daily Average (/5)</tspan></text><path fill="none" class="highcharts-axis-line" data-z-index="7" d="M 58 78 L 58 204"></path></g><g class="highcharts-series-group" data-z-index="3"><g data-z-index="0.1" class="highcharts-series highcharts-series-0 highcharts-column-series highcharts-color-0 " transform="translate(58,78) scale(1 1)" clip-path="url(#highcharts-ibuw2tv-32)"><rect x="11.5" y="40.5" width="22" height="86" fill="#000000" stroke="#ffffff" stroke-width="1" class="highcharts-point highcharts-color-0"></rect><rect x="55.5" y="75.5" width="22" height="51" fill="#000000" stroke="#ffffff" stroke-width="1" class="highcharts-point highcharts-color-0"></rect><rect x="99.5" y="26.5" width="22" height="100" fill="#000000" stroke="#ffffff" stroke-width="1" class="highcharts-point highcharts-color-0"></rect><rect x="144.5" y="57.5" width="22" height="69" fill="#000000" stroke="#ffffff" stroke-width="1" class="highcharts-point highcharts-color-0"></rect><rect x="188.5" y="78.5" width="22" height="48" fill="#000000" stroke="#ffffff" stroke-width="1" class="highcharts-point highcharts-color-0"></rect><rect x="232.5" y="87.5" width="22" height="39" fill="#000000" stroke="#ffffff" stroke-width="1" class="highcharts-point highcharts-color-0"></rect><rect x="277.5" y="109.5" width="22" height="17" fill="#000000" stroke="#ffffff" stroke-width="1" class="highcharts-point highcharts-color-0"></rect><rect x="321.5" y="39.5" width="22" height="87" fill="#000000" stroke="#ffffff" stroke-width="1" class="highcharts-point highcharts-color-0"></rect><rect x="365.5" y="59.5" width="22" height="67" fill="#000000" stroke="#ffffff" stroke-width="1" class="highcharts-point highcharts-color-0"></rect><rect x="410.5" y="79.5" width="22" height="47" fill="#000000" stroke="#ffffff" stroke-width="1" class="highcharts-point highcharts-color-0"></rect><rect x="454.5" y="48.5" width="22" height="78" fill="#000000" stroke="#ffffff" stroke-width="1" class="highcharts-point highcharts-color-0"></rect><rect x="498.5" y="33.5" width="22" height="93" fill="#000000" stroke="#ffffff" stroke-width="1" class="highcharts-point highcharts-color-0"></rect></g><g data-z-index="0.1" class="highcharts-markers highcharts-series-0 highcharts-column-series highcharts-color-0 " transform="translate(58,78) scale(1 1)" clip-path="none"></g></g><text x="300" text-anchor="middle" class="highcharts-title" data-z-index="4" style="color:#333333;font-size:18px;fill:#333333;" y="24"><tspan>Average Tiredness / Fatigue by Month</tspan></text><text x="300" text-anchor="middle" class="highcharts-subtitle" data-z-index="4" style="color:#666666;fill:#666666;" y="46"><tspan>This chart shows the typical value recorded for Tiredness / Fatigue for each month of the</tspan><tspan dy="15" x="300">year.</tspan></text><g class="highcharts-axis-labels highcharts-xaxis-labels " data-z-index="7"><text x="82.759391531014" style="color:#666666;cursor:default;font-size:11px;fill:#666666;" text-anchor="end" transform="translate(0,0) rotate(-45 82.759391531014 220)" y="220" opacity="1">January</text><text x="127.09272486435403" style="color:#666666;cursor:default;font-size:11px;fill:#666666;" text-anchor="end" transform="translate(0,0) rotate(-45 127.09272486435403 220)" y="220" opacity="1">February</text><text x="171.42605819768403" style="color:#666666;cursor:default;font-size:11px;fill:#666666;" text-anchor="end" transform="translate(0,0) rotate(-45 171.42605819768403 220)" y="220" opacity="1">March</text><text x="215.75939153101402" style="color:#666666;cursor:default;font-size:11px;fill:#666666;" text-anchor="end" transform="translate(0,0) rotate(-45 215.75939153101402 220)" y="220" opacity="1">April</text><text x="260.09272486435395" style="color:#666666;cursor:default;font-size:11px;fill:#666666;" text-anchor="end" transform="translate(0,0) rotate(-45 260.09272486435395 220)" y="220" opacity="1">May</text><text x="304.426058197684" style="color:#666666;cursor:default;font-size:11px;fill:#666666;" text-anchor="end" transform="translate(0,0) rotate(-45 304.426058197684 220)" y="220" opacity="1">June</text><text x="348.759391531014" style="color:#666666;cursor:default;font-size:11px;fill:#666666;" text-anchor="end" transform="translate(0,0) rotate(-45 348.759391531014 220)" y="220" opacity="1">July</text><text x="393.09272486435395" style="color:#666666;cursor:default;font-size:11px;fill:#666666;" text-anchor="end" transform="translate(0,0) rotate(-45 393.09272486435395 220)" y="220" opacity="1">August</text><text x="437.426058197684" style="color:#666666;cursor:default;font-size:11px;fill:#666666;" text-anchor="end" transform="translate(0,0) rotate(-45 437.426058197684 220)" y="220" opacity="1">September</text><text x="481.759391531014" style="color:#666666;cursor:default;font-size:11px;fill:#666666;" text-anchor="end" transform="translate(0,0) rotate(-45 481.759391531014 220)" y="220" opacity="1">October</text><text x="526.0927248643541" style="color:#666666;cursor:default;font-size:11px;fill:#666666;" text-anchor="end" transform="translate(0,0) rotate(-45 526.0927248643541 220)" y="220" opacity="1">November</text><text x="570.426058197684" style="color:#666666;cursor:default;font-size:11px;fill:#666666;" text-anchor="end" transform="translate(0,0) rotate(-45 570.426058197684 220)" y="220" opacity="1">December</text></g><g class="highcharts-axis-labels highcharts-yaxis-labels " data-z-index="7"><text x="43" style="color:#666666;cursor:default;font-size:11px;fill:#666666;" text-anchor="end" transform="translate(0,0)" y="208" opacity="1">1</text><text x="43" style="color:#666666;cursor:default;font-size:11px;fill:#666666;" text-anchor="end" transform="translate(0,0)" y="145" opacity="1">2</text><text x="43" style="color:#666666;cursor:default;font-size:11px;fill:#666666;" text-anchor="end" transform="translate(0,0)" y="82" opacity="1">3</text></g><a xlink:href="https://quantimo.do" target="_blank">
                    <text x="590" class="highcharts-credits" text-anchor="end" data-z-index="8"
                          style="cursor:pointer;color:#999999;font-size:9px;fill:#999999;" y="295">https://quantimo.do
                    </text>
                </a></svg>