<?xml version="1.0" standalone="no"?><!DOCTYPE svg PUBLIC "-//W3C//DTD SVG 1.1//EN" "http://www.w3.org/Graphics/SVG/1.1/DTD/svg11.dtd"><svg xmlns:xlink="http://www.w3.org/1999/xlink" version="1.1" class="highcharts-root" style="font-family:&quot;Lucida Grande&quot;, &quot;Lucida Sans Unicode&quot;, Arial, Helvetica, sans-serif;font-size:12px;" xmlns="http://www.w3.org/2000/svg" width="600" height="400"><desc>Created with Highstock 6.2.0</desc><defs><clipPath id="highcharts-qirgqz7-701"><rect x="0" y="0" width="558" height="299" fill="none"></rect></clipPath><clipPath id="highcharts-qirgqz7-1396"><rect x="0" y="0" width="558" height="299" fill="none"></rect></clipPath><clipPath id="highcharts-qirgqz7-1397"><rect x="32" y="63" width="558" height="299" fill="none"></rect></clipPath></defs><rect fill="#ffffff" class="highcharts-background" x="0" y="0" width="600" height="400" rx="0" ry="0"></rect><rect fill="none" class="highcharts-plot-background" x="32" y="63" width="558" height="299"></rect><g class="highcharts-pane-group" data-z-index="0"></g><g class="highcharts-grid highcharts-xaxis-grid " data-z-index="1"><path fill="none" data-z-index="1" class="highcharts-grid-line" d="M 34.5 63 L 34.5 362" opacity="1"></path><path fill="none" data-z-index="1" class="highcharts-grid-line" d="M 122.5 63 L 122.5 362" opacity="1"></path><path fill="none" data-z-index="1" class="highcharts-grid-line" d="M 211.5 63 L 211.5 362" opacity="1"></path><path fill="none" data-z-index="1" class="highcharts-grid-line" d="M 299.5 63 L 299.5 362" opacity="1"></path><path fill="none" data-z-index="1" class="highcharts-grid-line" d="M 388.5 63 L 388.5 362" opacity="1"></path><path fill="none" data-z-index="1" class="highcharts-grid-line" d="M 476.5 63 L 476.5 362" opacity="1"></path><path fill="none" data-z-index="1" class="highcharts-grid-line" d="M 564.5 63 L 564.5 362" opacity="1"></path></g><g class="highcharts-grid highcharts-yaxis-grid " data-z-index="1"><path fill="none" stroke="#e6e6e6" stroke-width="1" data-z-index="1" class="highcharts-grid-line" d="M 32 362.5 L 590 362.5" opacity="1"></path><path fill="none" stroke="#e6e6e6" stroke-width="1" data-z-index="1" class="highcharts-grid-line" d="M 32 312.5 L 590 312.5" opacity="1"></path><path fill="none" stroke="#e6e6e6" stroke-width="1" data-z-index="1" class="highcharts-grid-line" d="M 32 262.5 L 590 262.5" opacity="1"></path><path fill="none" stroke="#e6e6e6" stroke-width="1" data-z-index="1" class="highcharts-grid-line" d="M 32 213.5 L 590 213.5" opacity="1"></path><path fill="none" stroke="#e6e6e6" stroke-width="1" data-z-index="1" class="highcharts-grid-line" d="M 32 163.5 L 590 163.5" opacity="1"></path><path fill="none" stroke="#e6e6e6" stroke-width="1" data-z-index="1" class="highcharts-grid-line" d="M 32 113.5 L 590 113.5" opacity="1"></path><path fill="none" stroke="#e6e6e6" stroke-width="1" data-z-index="1" class="highcharts-grid-line" d="M 32 62.5 L 590 62.5" opacity="1"></path></g><rect fill="none" class="highcharts-plot-border" data-z-index="1" x="32" y="63" width="558" height="299"></rect><g class="highcharts-axis highcharts-xaxis " data-z-index="2"><path fill="none" class="highcharts-tick" stroke="#ccd6eb" stroke-width="1" d="M 34.5 362 L 34.5 372" opacity="1"></path><path fill="none" class="highcharts-tick" stroke="#ccd6eb" stroke-width="1" d="M 122.5 362 L 122.5 372" opacity="1"></path><path fill="none" class="highcharts-tick" stroke="#ccd6eb" stroke-width="1" d="M 211.5 362 L 211.5 372" opacity="1"></path><path fill="none" class="highcharts-tick" stroke="#ccd6eb" stroke-width="1" d="M 299.5 362 L 299.5 372" opacity="1"></path><path fill="none" class="highcharts-tick" stroke="#ccd6eb" stroke-width="1" d="M 388.5 362 L 388.5 372" opacity="1"></path><path fill="none" class="highcharts-tick" stroke="#ccd6eb" stroke-width="1" d="M 476.5 362 L 476.5 372" opacity="1"></path><path fill="none" class="highcharts-tick" stroke="#ccd6eb" stroke-width="1" d="M 564.5 362 L 564.5 372" opacity="1"></path><path fill="none" class="highcharts-axis-line" stroke="#ccd6eb" stroke-width="1" data-z-index="7" d="M 32 362.5 L 590 362.5"></path></g><g class="highcharts-axis highcharts-yaxis " data-z-index="2"><path fill="none" class="highcharts-axis-line" data-z-index="7" d="M 32 63 L 32 362"></path></g><g class="highcharts-series-group" data-z-index="3"><g data-z-index="0.1" class="highcharts-series highcharts-series-0 highcharts-spline-series highcharts-color-0 " transform="translate(32,63) scale(1 1)" clip-path="url(#highcharts-qirgqz7-1396)"><path fill="none" d="M 5.4705882352941 224.25 C 5.4705882352941 224.25 5.61588938364192 176.49305555555557 5.7127568158738 166.11111111111111 C 5.80962424810564 155.72916666666666 5.85805796422156 155.72916666666666 5.9549253964534 155.72916666666666 C 6.051792828685239 155.72916666666666 6.10022654480116 203.4861111111111 6.197093977033 203.4861111111111 C 6.29396140926488 203.4861111111111 6.34239512538082 187.2072222222249 6.4392625576127 174.41666666666666 C 6.5361299898445395 161.6261111111138 6.58456370596046 139.5333333333333 6.6814311381923 139.5333333333333 C 6.778298570424179 139.5333333333333 6.826732286540121 157.80555555555554 6.923599718772 157.80555555555554 C 7.0204671510038406 157.80555555555554 7.06890086711976 138.82142857142856 7.1657682993516 138.82142857142856 C 7.2626357315834795 138.82142857142856 7.31106944769942 186.875 7.4079368799313 186.875 C 7.50480431216314 186.875 7.553238028279059 132.88888888888889 7.6501054605109 132.88888888888889 C 7.74697289274274 132.88888888888889 7.79540660885866 137.04166666666666 7.8922740410905 137.04166666666666 C 7.98914147332238 137.04166666666666 8.03757518943832 99.66666666666666 8.1344426216702 99.66666666666666 C 8.231310053902039 99.66666666666666 8.27974377001796 99.66666666666666 8.3766112022498 99.66666666666666 C 8.47347863448168 99.66666666666666 8.52191235059762 99.66666666666666 8.6187797828295 99.66666666666666 C 8.715647215061342 99.66666666666666 8.764080931177261 139.5333333333333 8.8609483634091 139.5333333333333 C 8.957815795640979 139.5333333333333 9.00624951175692 87.20833333333331 9.1031169439888 87.20833333333331 C 9.19998437622064 87.20833333333331 9.24841809233656 101.66000000000001 9.3452855245684 112.125 C 9.44215295680024 122.59 9.49058667291616 139.5333333333333 9.587454105148 139.5333333333333 C 9.68432153737988 139.5333333333333 9.732755253495819 124.58333333333331 9.8296226857277 124.58333333333331 C 9.926490117959421 124.58333333333331 9.97492383407528 124.58333333333331 10.071791266307 124.58333333333331 C 10.168658698539 124.58333333333331 10.217092414655 131.22777777777762 10.313959846887 149.5 C 10.410827279119 167.77222222222207 10.459260995234999 215.94444444444446 10.556128427467 215.94444444444446 C 10.6529958596986 215.94444444444446 10.701429575814398 137.04166666666666 10.798297008046 137.04166666666666 C 10.895164440278 137.04166666666666 10.943598156394 157.80555555555554 11.040465588626 157.80555555555554 C 11.137333020858 157.80555555555554 11.185766736974 118.35416666666666 11.282634169206 118.35416666666666 C 11.3795016014376 118.35416666666666 11.4279353175534 174.41666666666666 11.524802749785 174.41666666666666 C 11.621670182017 174.41666666666666 11.670103898133 124.58333333333331 11.766971330365 124.58333333333331 C 11.8638387625966 124.58333333333331 11.9122724787124 124.58333333333331 12.009139910944 124.58333333333331 C 12.3966096398716 124.58333333333331 12.5903445043354 99.66666666666666 12.977814233263 99.66666666666666 C 13.655886258886198 99.66666666666666 13.9949222716978 99.66666666666666 14.672994297321 99.66666666666666 C 14.9635965940162 99.66666666666666 15.1088977423638 99.66666666666666 15.399500039059 99.66666666666666 C 15.496367471291 99.66666666666666 15.544801187407 99.66666666666666 15.641668619639 99.66666666666666 C 15.835403484102603 99.66666666666666 15.9322709163344 99.66666666666666 16.126005780798 99.66666666666666 C 16.22287321303 99.66666666666666 16.271306929146 49.833333333333314 16.368174361378 49.833333333333314 C 16.5619092258416 49.833333333333314 16.6587766580734 64.78333333334017 16.852511522537 74.75 C 16.949378954769 79.73333333334016 16.997812670885 87.20833333333331 17.094680103117 87.20833333333331 C 17.191547535349 87.20833333333331 17.239981251465 83.05555555555557 17.336848683697 83.05555555555557 C 17.433716115928597 83.05555555555557 17.4821498320444 137.04166666666666 17.579017264276 137.04166666666666 C 17.675884696508 137.04166666666666 17.724318412624 91.36111111111109 17.821185844856 91.36111111111109 C 17.918053277088 91.36111111111109 17.966486993204 116.27777777777777 18.063354425436 116.27777777777777 C 18.1602218576676 116.27777777777777 18.2086555737834 116.27777777777777 18.305523006015 116.27777777777777 C 18.402390438247 116.27777777777777 18.450824154362998 115.73198412698791 18.547691586595 113.9047619047619 C 18.6445590188266 112.07753968254346 18.6929927349424 107.14166666666665 18.789860167174 107.14166666666665 C 18.886727599406004 107.14166666666665 18.935161315522002 136.36212121212122 19.032028747754 140.43939393939394 C 19.128896179986004 144.51666666666665 19.177329896102002 144.51666666666665 19.274197328334 144.51666666666665 C 19.3710647605656 144.51666666666665 19.4194984766814 138.41801587300932 19.516365908913 135.26190476190476 C 19.613233341144998 132.10579365078712 19.661667057261003 135.26190476190476 19.758534489493 128.73611111111111 C 19.855401921725 122.21031746031747 19.903835637841002 99.66666666666666 20.000703070073 99.66666666666666 C 20.0975705023046 99.66666666666666 20.146004218420398 119.60000000001772 20.242871650652 128.14285714285714 C 20.339739082884 136.685714285732 20.388172799 142.38095238095238 20.485040231232 142.38095238095238 C 20.581907663464 142.38095238095238 20.63034137958 142.38095238095238 20.727208811812 142.38095238095238 C 20.824076244043603 142.38095238095238 20.8725099601594 124.58333333333331 20.969377392391 124.58333333333331 C 21.066244824623 124.58333333333331 21.114678540739 128.73611111111111 21.211545972971 128.73611111111111 C 21.308413405202998 128.73611111111111 21.356847121319 117.31597222223287 21.453714553551 112.125 C 21.5505819857826 106.93402777778844 21.599015701898402 105.2729166666615 21.69588313413 102.78125 C 21.792750566362 100.28958333332817 21.841184282478 99.66666666666666 21.93805171471 99.66666666666666 C 22.034919146941597 99.66666666666666 22.0833528630574 99.66666666666666 22.180220295289 107.9722222222222 C 22.277087727521 116.27777777777774 22.325521443637 147.00833333333333 22.422388875869 155.72916666666666 C 22.519256308101 164.45 22.567690024217 164.45 22.664557456449 164.45 C 22.7614248886806 164.45 22.809858604796403 130.8125 22.906726037028 130.8125 C 23.003593469260004 130.8125 23.052027185376 141.19444444444446 23.148894617608 141.19444444444446 C 23.245762049840003 141.19444444444446 23.294195765956 116.27777777777777 23.391063198188 116.27777777777777 C 23.4879306304196 116.27777777777777 23.5363643465354 116.27777777777777 23.633231778767 120.43055555555554 C 23.730099210999004 124.58333333333331 23.778532927115002 142.70454545454544 23.875400359347 142.70454545454544 C 23.972267791579004 142.70454545454544 24.020701507695 124.58333333333331 24.117568939927 124.58333333333331 C 24.2144363721586 124.58333333333331 24.2628700882744 158.56060606060603 24.359737520506 158.56060606060603 C 24.456604952737997 158.56060606060603 24.505038668854002 153.9547979798158 24.601906101086 145.3472222222222 C 24.6987735333176 136.7396464646643 24.747207249433398 117.53619528619532 24.844074681665 115.52272727272728 C 24.940942113896998 113.50925925925924 24.989375830012996 113.50925925925924 25.086243262245 113.50925925925924 C 25.183110694476998 113.50925925925924 25.231544410592996 113.50925925925924 25.328411842825 117.10833333333332 C 25.425279275056596 120.7074074074074 25.4737129911724 141.98544973544975 25.570580423404 143.96296296296296 C 25.667447855636 145.94047619047618 25.715881571752 143.96296296296296 25.812749003984 145.94047619047618 C 25.909616436215998 147.9179894179894 25.958050152332 169.4333333333333 26.054917584564 169.4333333333333 C 26.1517850167956 169.4333333333333 26.200218732911402 149.5 26.297086165143 149.5 C 26.393953597375003 149.5 26.442387313490997 168.1875 26.539254745723 168.1875 C 26.636122177954995 168.1875 26.684555894071003 149.5 26.781423326303 149.5 C 61.5568314975378 149.5 78.9445355831552 199.33333333333331 113.71994375439 199.33333333333331 C 152.66065151159802 199.33333333333331 172.131005390202 129.56666666666666 211.07171314741 129.56666666666666 C 249.23748144676202 129.56666666666666 268.32036559643797 199.33333333333331 306.48613389579 199.33333333333331 C 306.776736192486 199.33333333333331 306.922037340834 149.5 307.21263963753 149.5 C 307.309507069762 149.5 307.357940785878 149.5 307.45480821811 149.5 C 318.20709319584597 149.5 323.58323568471394 149.5 334.33552066245 149.5 C 334.81985782361 149.5 335.06202640419 149.5 335.54636356535 149.5 C 335.643230997582 149.5 335.691664713698 199.33333333333331 335.78853214593 199.33333333333331 C 335.88539957816204 199.33333333333331 335.933833294278 149.5 336.03070072651 149.5 C 336.127568158742 149.5 336.176001874858 149.5 336.27286930709 149.5 C 336.369736739322 149.5 336.41817045543803 149.5 336.51503788767 149.5 C 336.611905319898 149.5 336.66033903601203 149.5 336.75720646824 149.5 C 336.85407390047203 149.5 336.90250761658797 149.5 336.99937504882 149.5 C 337.096242481052 149.5 337.144676197168 149.5 337.2415436294 149.5 C 337.338411061632 149.5 337.386844777748 149.5 337.48371220998 149.5 C 337.677447074444 149.5 337.774314506676 149.5 337.96804937114 149.5 C 338.064916803372 149.5 338.113350519488 149.5 338.21021795172 149.5 C 338.307085383952 149.5 338.35551910006797 149.5 338.4523865323 149.5 C 338.549253964532 149.5 338.597687680648 149.5 338.69455511288 149.5 C 338.79142254511197 149.5 338.839856261228 149.5 338.93672369346 149.5 C 339.033591125692 149.5 339.082024841808 149.5 339.17889227404 149.5 C 339.27575970627197 149.5 339.324193422388 149.5 339.42106085462 149.5 C 339.517928286852 149.5 339.566362002968 149.5 339.6632294352 149.5 C 339.760096867432 149.5 339.80853058354796 149.5 339.90539801578 149.5 C 340.002265448012 149.5 340.050699164128 149.5 340.14756659636 149.5 C 340.24443402859197 149.5 340.292867744708 149.5 340.38973517694 149.5 C 340.486602609172 149.5 340.535036325288 149.5 340.63190375752 149.5 C 340.728771189752 149.5 340.77720490586796 149.5 340.8740723381 149.5 C 340.970939770332 149.5 341.019373486448 149.5 341.11624091868 149.5 C 341.21310835091197 149.5 341.261542067028 149.5 341.35840949926 149.5 C 341.455276931492 149.5 341.503710647608 199.33333333333331 341.60057807984 199.33333333333331 C 341.69744551207197 199.33333333333331 341.745879228188 149.5 341.84274666042 149.5 C 341.939614092652 149.5 341.988047808768 149.5 342.084915241 149.5 C 342.18178267323196 149.5 342.230216389348 149.5 342.32708382158 149.5 C 342.423951253812 149.5 342.472384969928 149.5 342.56925240216 149.5 C 342.66611983439196 149.5 342.714553550508 149.5 342.81142098274 149.5 C 342.908288414972 149.5 342.956722131088 149.5 343.05358956332 149.5 C 343.15045699555196 149.5 343.198890711668 149.5 343.2957581439 149.5 C 343.392625576128 149.5 343.441059292242 149.5 343.53792672447 149.5 C 343.634794156702 149.5 343.683227872818 149.5 343.78009530505 149.5 C 343.876962737282 149.5 343.92539645339804 149.5 344.02226388563 149.5 C 344.119131317862 149.5 344.167565033978 149.5 344.26443246621 149.5 C 344.361299898442 149.5 344.40973361455804 149.5 344.50660104679 149.5 C 344.603468479022 149.5 344.651902195138 149.5 344.74876962737 149.5 C 344.845637059602 149.5 344.89407077571803 149.5 344.99093820795 149.5 C 345.087805640182 149.5 345.136239356298 149.5 345.23310678853 149.5 C 345.329974220762 149.5 345.37840793687803 149.5 345.47527536911 149.5 C 345.572142801342 149.5 345.620576517458 149.5 345.71744394969 149.5 C 345.81431138192204 149.5 345.862745098038 149.5 345.95961253027 149.5 C 346.056479962502 149.5 346.10491367861806 149.5 346.20178111085 149.5 C 346.29864854308204 149.5 346.347082259198 149.5 346.44394969143 149.5 C 346.54081712366195 149.5 346.589250839778 149.5 346.68611827201 149.5 C 346.78298570424204 149.5 346.831419420358 149.5 346.92828685259 149.5 C 347.025154284822 149.5 347.073588000938 149.5 347.17045543317 149.5 C 347.267322865402 149.5 347.31575658151803 149.5 347.41262401375 149.5 C 347.509491445982 149.5 347.557925162098 149.5 347.65479259433 149.5 C 347.751660026562 149.5 347.80009374267803 199.33333333333331 347.89696117491 199.33333333333331 C 347.993828607142 199.33333333333331 348.042262323258 149.5 348.13912975549 149.5 C 348.235997187722 149.5 348.28443090383803 149.5 348.38129833607 149.5 C 348.478165768302 149.5 348.526599484418 149.5 348.62346691665 149.5 C 348.720334348882 149.5 348.768768064998 149.5 348.86563549723 149.5 C 348.962502929462 149.5 349.010936645578 149.5 349.10780407781 149.5 C 349.204671510042 149.5 349.253105226158 149.5 349.34997265839 149.5 C 349.446840090622 149.5 349.495273806738 149.5 349.59214123897 149.5 C 349.68900867120203 149.5 349.73744238731797 149.5 349.83430981955 149.5 C 349.93117725177797 149.5 349.97961096789203 149.5 350.07647840012 149.5 C 350.173345832352 149.5 350.22177954846796 99.66666666666666 350.3186469807 99.66666666666666 C 350.41551441293194 99.66666666666666 350.463948129048 149.5 350.56081556128 149.5 C 350.657682993512 149.5 350.70611670962796 149.5 350.80298414186 149.5 C 350.899851574092 149.5 350.948285290208 149.5 351.04515272244 149.5 C 351.14202015467197 149.5 351.190453870788 149.5 351.28732130302 149.5 C 351.384188735252 149.5 351.432622451368 149.5 351.5294898836 149.5 C 351.62635731583197 149.5 351.674791031948 149.5 351.77165846418 149.5 C 351.868525896412 149.5 351.916959612528 149.5 352.01382704476 149.5 C 352.11069447699197 149.5 352.159128193108 149.5 352.25599562534 149.5 C 352.352863057572 149.5 352.401296773688 149.5 352.49816420592 149.5 C 352.59503163815197 149.5 352.643465354268 149.5 352.7403327865 149.5 C 352.837200218732 149.5 352.885633934848 149.5 352.98250136708 149.5 C 353.07936879931196 149.5 353.127802515428 149.5 353.22466994766 149.5 C 353.321537379892 149.5 353.369971096008 199.33333333333331 353.46683852824 199.33333333333331 C 353.563705960472 199.33333333333331 353.61213967658796 199.33333333333331 353.70900710882 199.33333333333331 C 353.805874541052 199.33333333333331 353.85430825716804 149.5 353.9511756894 149.5 C 354.048043121632 149.5 354.09647683774796 199.33333333333331 354.19334426998 199.33333333333331 C 354.29021170221193 199.33333333333331 354.338645418328 199.33333333333331 354.43551285056 199.33333333333331 C 354.532380282792 199.33333333333331 354.58081399890796 199.33333333333331 354.67768143114 199.33333333333331 C 354.774548863372 199.33333333333331 354.822982579488 149.5 354.91985001172 149.5 C 355.01671744395196 149.5 355.065151160068 199.33333333333331 355.1620185923 199.33333333333331 C 355.258886024532 199.33333333333331 355.307319740648 199.33333333333331 355.40418717288 199.33333333333331 C 355.50105460511196 199.33333333333331 355.549488321228 149.5 355.64635575346 149.5 C 355.74322318569205 149.5 355.791656901808 199.33333333333331 355.88852433404 199.33333333333331 C 355.985391766272 199.33333333333331 356.03382548238807 149.5 356.13069291462 149.5 C 356.22756034685204 149.5 356.275994062968 149.5 356.3728614952 149.5 C 356.46972892743196 149.5 356.518162643548 199.33333333333331 356.61503007578 199.33333333333331 C 356.71189750800806 199.33333333333331 356.760331224122 149.5 356.85719865635 149.5 C 356.954066088582 149.5 357.002499804698 149.5 357.09936723693 149.5 C 357.196234669162 149.5 357.24466838527803 149.5 357.34153581751 149.5 C 357.438403249742 149.5 357.486836965858 149.5 357.58370439809 149.5 C 357.680571830322 149.5 357.72900554643803 149.5 357.82587297867 149.5 C 357.922740410902 149.5 357.971174127018 149.5 358.06804155925 149.5 C 358.164908991482 149.5 358.21334270759803 149.5 358.31021013983 149.5 C 358.407077572062 149.5 358.455511288178 199.33333333333331 358.55237872041 199.33333333333331 C 358.649246152642 199.33333333333331 358.69767986875803 199.33333333333331 358.79454730099 199.33333333333331 C 358.891414733222 199.33333333333331 358.939848449338 149.5 359.03671588157 149.5 C 359.133583313802 149.5 359.18201702991803 199.33333333333331 359.27888446215 199.33333333333331 C 359.375751894382 199.33333333333331 359.424185610498 149.5 359.52105304273 149.5 C 359.61792047496203 149.5 359.66635419107797 149.5 359.76322162331 149.5 C 359.860089055542 149.5 359.90852277165806 149.5 360.00539020389 149.5 C 360.10225763612203 149.5 360.15069135223797 199.33333333333331 360.24755878447 199.33333333333331 C 360.34442621670195 199.33333333333331 360.392859932818 149.5 360.48972736505 149.5 C 360.58659479728203 149.5 360.63502851339797 149.5 360.73189594563 149.5 C 360.828763377862 149.5 360.877197093978 149.5 360.97406452621 149.5 C 361.070931958442 149.5 361.119365674558 149.5 361.21623310679 149.5 C 361.313100539022 149.5 361.361534255138 149.5 361.45840168737 149.5 C 361.555269119602 149.5 361.603702835718 99.66666666666666 361.70057026795 99.66666666666666 C 361.797437700182 99.66666666666666 361.845871416298 199.33333333333331 361.94273884853 199.33333333333331 C 362.039606280762 199.33333333333331 362.088039996878 199.33333333333331 362.18490742911 199.33333333333331 C 362.378642293574 199.33333333333331 362.47550972580603 176.07777777777778 362.66924459027 149.5 C 362.766112022502 136.2111111111111 362.814545738618 99.66666666666666 362.91141317085 99.66666666666666 C 363.00828060308197 99.66666666666666 363.056714319198 99.66666666666666 363.15358175143 99.66666666666666 C 363.250449183662 99.66666666666666 363.298882899778 99.66666666666666 363.39575033201 99.66666666666666 C 363.976954925398 99.66666666666666 364.267557222092 149.5 364.84876181548 149.5 C 365.139364112176 149.5 365.284665260524 149.5 365.57526755722 149.5 C 365.672134989452 149.5 365.720568705568 149.5 365.8174361378 149.5 C 366.01117100226395 149.5 366.108038434496 149.5 366.30177329896 149.5 C 366.39864073119196 149.5 366.447074447308 149.5 366.54394187954 149.5 C 366.73767674400403 149.5 366.83454417623597 149.5 367.0282790407 149.5 C 367.22201390516403 149.5 367.31888133739596 149.5 367.51261620186 149.5 C 367.609483634092 149.5 367.65791735020804 149.5 367.75478478244 149.5 C 367.851652214672 149.5 367.900085930788 149.5 367.99695336302 149.5 C 368.093820795252 149.5 368.14225451136804 149.5 368.2391219436 149.5 C 368.335989375832 149.5 368.384423091948 149.5 368.48129052418 149.5 C 368.578157956412 149.5 368.62659167252804 149.5 368.72345910476 149.5 C 368.820326536992 149.5 368.868760253108 149.5 368.96562768534 149.5 C 369.062495117572 149.5 369.11092883368804 149.5 369.20779626592 149.5 C 369.304663698152 149.5 369.353097414268 199.33333333333331 369.4499648465 199.33333333333331 C 369.54683227873204 199.33333333333331 369.595265994848 199.33333333333331 369.69213342708 199.33333333333331 C 369.789000859312 199.33333333333331 369.83743457542806 149.5 369.93430200766 149.5 C 370.03116943989204 149.5 370.079603156008 149.5 370.17647058824 149.5 C 370.273338020468 149.5 370.32177173658204 149.5 370.41863916881 149.5 C 370.709241465506 149.5 370.85454261385405 149.5 371.14514491055 149.5 C 371.242012342782 149.5 371.290446058898 149.5 371.38731349113 149.5 C 371.484180923362 149.5 371.532614639478 149.5 371.62948207171 149.5 C 371.726349503942 149.5 371.774783220058 149.5 371.87165065229 149.5 C 371.968518084522 149.5 372.016951800638 149.5 372.11381923287 149.5 C 372.210686665102 149.5 372.259120381218 149.5 372.35598781345 149.5 C 372.452855245682 149.5 372.501288961798 149.5 372.59815639403 149.5 C 372.695023826262 149.5 372.743457542378 149.5 372.84032497461 149.5 C 372.937192406842 149.5 372.985626122958 149.5 373.08249355519 149.5 C 373.27622841965405 149.5 373.373095851886 149.5 373.56683071635 149.5 C 373.760565580814 149.5 373.85743301304603 149.5 374.05116787751 149.5 C 374.14803530974194 149.5 374.196469025858 149.5 374.29333645809 149.5 C 374.390203890322 149.5 374.43863760643796 149.5 374.53550503867 149.5 C 374.632372470902 149.5 374.680806187018 149.5 374.77767361925 149.5 C 374.87454105148197 149.5 374.922974767598 199.33333333333331 375.01984219983 199.33333333333331 C 375.116709632062 199.33333333333331 375.165143348178 199.33333333333331 375.26201078041 199.33333333333331 C 375.35887821264197 199.33333333333331 375.407311928758 199.33333333333331 375.50417936099 199.33333333333331 C 375.601046793222 199.33333333333331 375.649480509338 249.16666666666666 375.74634794157 249.16666666666666 C 375.84321537380197 249.16666666666666 375.891649089918 219.26666666666662 375.98851652215 199.33333333333331 C 376.085383954382 179.39999999999998 376.133817670498 149.5 376.23068510273 149.5 C 376.32755253496197 149.5 376.375986251078 199.33333333333331 376.47285368331 199.33333333333331 C 376.569721115542 199.33333333333331 376.618154831658 149.5 376.71502226389 149.5 C 376.81188969612197 149.5 376.860323412238 179.3999999995906 376.95719084447 199.33333333333331 C 377.054058276698 219.26666666625724 377.10249199281196 249.16666666666666 377.19935942504 249.16666666666666 C 377.296226857272 249.16666666666666 377.34466057338796 179.40000000000876 377.44152800562 149.5 C 377.538395437852 119.60000000000878 377.58682915396804 99.66666666666666 377.6836965862 99.66666666666666 C 377.780564018432 99.66666666666666 377.828997734548 129.56666666666666 377.92586516678 149.5 C 378.022732599012 169.43333333333334 378.07116631512804 199.33333333333331 378.16803374736 199.33333333333331 C 378.264901179592 199.33333333333331 378.313334895708 149.5 378.41020232794 149.5 C 378.507069760172 149.5 378.55550347628804 149.5 378.65237090852 149.5 C 378.84610577298406 149.5 378.942973205216 199.33333333333331 379.13670806968 199.33333333333331 C 381.364659011012 199.33333333333331 382.478634481678 199.33333333333331 384.70658542301 199.33333333333331 C 385.28779001640197 199.33333333333331 385.578392313098 149.5 386.15959690649 149.5 C 386.353331770954 149.5 386.450199203186 199.33333333333331 386.64393406765 199.33333333333331 C 386.83766893211396 199.33333333333331 386.93453636434595 149.5 387.12827122881 149.5 C 387.225138661042 149.5 387.27357237715796 199.33333333333331 387.37043980939 199.33333333333331 C 387.467307241622 199.33333333333331 387.51574095773805 149.5 387.61260838997 149.5 C 387.709475822202 149.5 387.75790953831796 199.33333333333331 387.85477697055 199.33333333333331 C 387.95164440278194 199.33333333333331 388.000078118898 99.66666666666666 388.09694555113 99.66666666666666 C 388.193812983362 99.66666666666666 388.24224669947796 149.5 388.33911413171 149.5 C 388.53284899617404 149.5 388.629716428406 149.5 388.82345129287 149.5 C 388.920318725102 149.5 388.968752441218 99.66666666666666 389.06561987345 99.66666666666666 C 389.25935473791395 99.66666666666666 389.356222170146 199.33333333333331 389.54995703461 199.33333333333331 C 389.74369189907395 199.33333333333331 389.840559331306 99.66666666666666 390.03429419577 99.66666666666666 C 390.13116162800196 99.66666666666666 390.179595344118 99.66666666666666 390.27646277635 99.66666666666666 C 390.47019764081 99.66666666666666 390.56706507304 249.16666666666666 390.7607999375 249.16666666666666 C 391.148269666428 249.16666666666666 391.342004530892 149.5 391.72947425982 149.5 C 391.826341692052 149.5 391.87477540816803 199.33333333333331 391.9716428404 199.33333333333331 C 392.068510272632 199.33333333333331 392.116943988748 149.5 392.21381142098 149.5 C 392.310678853212 149.5 392.35911256932803 149.5 392.45598000156 149.5 C 392.552847433792 149.5 392.601281149908 149.5 392.69814858214 149.5 C 392.98875087883596 149.5 393.134052027184 99.66666666666666 393.42465432388 99.66666666666666 C 393.521521756112 99.66666666666666 393.56995547222806 129.56666666667448 393.66682290446 149.5 C 393.86055776892397 189.36666666667446 393.957425201156 249.16666666666666 394.15116006562 249.16666666666666 C 394.441762362316 249.16666666666666 394.58706351066405 99.66666666666666 394.87766580736 99.66666666666666 C 395.071400671824 99.66666666666666 395.168268104056 99.66666666666666 395.36200296852 99.66666666666666 C 395.555737832984 99.66666666666666 395.65260526521604 122.92222222222222 395.84634012968 149.5 C 395.943207561912 162.7888888888889 395.991641278028 199.33333333333331 396.08850871026 199.33333333333331 C 397.057183032576 199.33333333333331 397.54152019373396 170.48245614030992 398.51019451605 149.5 C 399.382001406138 130.61578947364325 399.817904851182 99.66666666666666 400.68971174127 99.66666666666666 C 400.786579173502 99.66666666666666 400.835012889618 99.66666666666666 400.93188032185 99.66666666666666 C 401.803687211938 99.66666666666666 402.239590656982 149.5 403.11139754707 149.5 C 403.98320443715403 149.5 404.41910788219604 149.5 405.29091477228 149.5 C 405.484649636744 149.5 405.58151706897604 99.66666666666666 405.77525193344 99.66666666666666 C 406.35645652683206 99.66666666666666 406.647058823528 99.66666666666666 407.22826341692 99.66666666666666 C 407.325130849152 99.66666666666666 407.37356456526805 99.66666666666666 407.4704319975 99.66666666666666 C 407.66416686196396 99.66666666666666 407.761034294196 249.16666666666666 407.95476915866 249.16666666666666 C 408.148504023124 249.16666666666666 408.24537145535595 149.5 408.43910631982 149.5 C 408.729708616516 149.5 408.875009764864 149.5 409.16561206156 149.5 C 409.843684087184 149.5 410.182720099996 149.5 410.86079212562 149.5 C 411.63573158347197 149.5 412.02320131239793 149.5 412.79814077025 149.5 C 413.185610499178 149.5 413.379345363642 199.33333333333331 413.76681509257 199.33333333333331 C 414.057417389266 199.33333333333331 414.20271853761403 199.33333333333331 414.49332083431 199.33333333333331 C 417.59307866573 199.33333333333331 419.14295758144 149.5 422.24271541286 149.5 C 422.533317709556 149.5 422.678618857904 149.5 422.9692211546 149.5 C 423.06608858683194 149.5 423.114522302948 149.5 423.21138973518 149.5 C 423.308257167412 149.5 423.3566908835281 149.5 423.45355831576 149.5 C 423.550425747992 149.5 423.59885946410793 149.5 423.69572689634 149.5 C 423.79259432857197 149.5 423.841028044688 149.5 423.93789547692 149.5 C 424.03476290915205 149.5 424.083196625268 149.5 424.1800640575 149.5 C 424.27693148973196 149.5 424.325365205848 149.5 424.42223263808 149.5 C 424.519100070308 149.5 424.5675337864221 149.5 424.66440121865 149.5 C 424.761268650882 149.5 424.80970236699795 149.5 424.90656979923 149.5 C 425.003437231462 149.5 425.05187094757804 149.5 425.14873837981 149.5 C 425.2456058120421 149.5 425.294039528158 149.5 425.39090696039 149.5 C 425.48777439262193 149.5 425.536208108738 149.5 425.63307554097 149.5 C 426.31114756659406 149.5 426.6501835794061 149.5 427.32825560503 149.5 C 427.425123037262 149.5 427.47355675337803 149.5 427.57042418561 149.5 C 427.66729161784195 149.5 427.715725333958 149.5 427.81259276619 149.5 C 427.90946019842204 149.5 427.957893914538 99.66666666666666 428.05476134677 99.66666666666666 C 428.151628779002 99.66666666666666 428.200062495118 149.5 428.29692992735 149.5 C 428.393797359582 149.5 428.442231075698 149.5 428.53909850793 149.5 C 428.635965940162 149.5 428.68439965627806 149.5 428.78126708851 149.5 C 428.878134520742 149.5 428.92656823685803 134.5500000000029 429.02343566909 124.58333333333331 C 429.12030310132195 114.61666666666956 429.168736817438 99.66666666666666 429.26560424967 99.66666666666666 C 429.36247168190204 99.66666666666666 429.4109053980181 129.56666666667252 429.50777283025 149.5 C 429.604640262482 169.4333333333392 429.65307397859794 199.33333333333331 429.74994141083 199.33333333333331 C 429.846808843062 199.33333333333331 429.89524255917803 129.5666666666579 429.99210999141 99.66666666666666 C 430.08897742364206 69.76666666665788 430.137411139758 49.833333333333314 430.23427857199 49.833333333333314 C 430.331146004222 49.833333333333314 430.37957972033803 149.5 430.47644715257 149.5 C 430.573314584802 149.5 430.621748300918 149.5 430.71861573315 149.5 C 430.81548316538203 149.5 430.86391688149797 149.5 430.96078431373 149.5 C 431.057651745962 149.5 431.10608546207806 149.5 431.20295289431 149.5 C 431.29982032653805 149.5 431.34825404265194 144.51666666626897 431.44512147488 124.58333333333331 C 431.54198890711194 104.64999999960226 431.590422623228 49.833333333333314 431.68729005546 49.833333333333314 C 431.784157487692 49.833333333333314 431.83259120380797 79.73333333332747 431.92945863604 99.66666666666666 C 432.026326068272 119.59999999999414 432.074759784388 149.5 432.17162721662 149.5 C 432.26849464885197 149.5 432.316928364968 149.5 432.4137957972 149.5 C 432.607530661664 149.5 432.704398093896 149.5 432.89813295836 149.5 C 432.99500039059205 149.5 433.043434106708 149.5 433.14030153894 149.5 C 433.33403640340396 149.5 433.43090383563595 149.5 433.6246387001 149.5 C 433.72150613233197 149.5 433.769939848448 149.5 433.86680728068 149.5 C 433.96367471291194 149.5 434.012108429028 149.5 434.10897586126 149.5 C 434.205843293492 149.5 434.254277009608 199.33333333333331 434.35114444184 199.33333333333331 C 434.7386141707681 199.33333333333331 434.932349035232 199.33333333333331 435.31981876416 199.33333333333331 C 435.41668619639194 199.33333333333331 435.465119912508 199.33333333333331 435.56198734474 199.33333333333331 C 435.658854776972 199.33333333333331 435.70728849308796 199.33333333333331 435.80415592532 199.33333333333331 C 435.901023357552 199.33333333333331 435.949457073668 199.33333333333331 436.0463245059 199.33333333333331 C 436.14319193813196 199.33333333333331 436.19162565424796 149.5 436.28849308648 149.5 C 436.385360518712 149.5 436.43379423482804 199.33333333333331 436.53066166706 199.33333333333331 C 436.62752909929196 199.33333333333331 436.675962815408 149.5 436.77283024764 149.5 C 436.86969767987193 149.5 436.918131395988 199.33333333333331 437.01499882822 199.33333333333331 C 437.111866260452 199.33333333333331 437.16029997656807 99.66666666666666 437.2571674088 99.66666666666666 C 437.354034841032 99.66666666666666 437.4024685571479 129.5666666666608 437.49933598938 149.5 C 437.59620342161196 169.43333333332748 437.644637137728 199.33333333333331 437.74150456996 199.33333333333331 C 437.83837200219205 199.33333333333331 437.886805718308 199.33333333333331 437.98367315054 199.33333333333331 C 438.08054058276804 199.33333333333331 438.128974298882 199.33333333333331 438.22584173111 199.33333333333331 C 438.322709163342 199.33333333333331 438.37114287945803 149.5 438.46801031169 149.5 C 438.564877743922 149.5 438.61331146003795 149.5 438.71017889227 149.5 C 438.807046324502 149.5 438.85548004061803 199.33333333333331 438.95234747285 199.33333333333331 C 439.04921490508207 199.33333333333331 439.097648621198 149.5 439.19451605343 149.5 C 439.2913834856619 149.5 439.339817201778 149.5 439.43668463401 149.5 C 439.533552066242 149.5 439.58198578235806 149.5 439.67885321459 149.5 C 439.775720646822 149.5 439.82415436293803 99.66666666666666 439.92102179517 99.66666666666666 C 440.11475665963405 99.66666666666666 440.211624091866 149.5 440.40535895633 149.5 C 440.502226388562 149.5 440.550660104678 149.5 440.64752753691 149.5 C 440.74439496914204 149.5 440.792828685258 149.5 440.88969611749 149.5 C 440.986563549722 149.5 441.03499726583806 99.66666666666666 441.13186469807 99.66666666666666 C 441.228732130302 99.66666666666666 441.27716584641803 199.33333333333331 441.37403327865 199.33333333333331 C 441.47090071088195 199.33333333333331 441.519334426998 199.33333333333331 441.61620185923 199.33333333333331 C 441.90680415592595 199.33333333333331 442.05210530427405 149.5 442.34270760097 149.5 C 442.439575033202 149.5 442.48800874931806 149.5 442.58487618155 149.5 C 442.681743613782 149.5 442.730177329898 149.5 442.82704476213 149.5 C 442.92391219436195 149.5 442.972345910478 149.5 443.06921334271 149.5 C 443.16608077494203 149.5 443.2145144910581 149.5 443.31138192329 149.5 C 443.89258651668206 149.5 444.183188813378 99.66666666666666 444.76439340677 99.66666666666666 C 445.15186313569404 99.66666666666666 445.34559800015603 149.5 445.73306772908 149.5 C 446.7017420514 149.5 447.18607921256 99.66666666666666 448.15475353488 99.66666666666666 C 448.34848839934403 99.66666666666666 448.44535583157597 99.66666666666666 448.63909069604 99.66666666666666 C 448.735958128272 99.66666666666666 448.78439184438804 99.66666666666666 448.88125927662 99.66666666666666 C 449.36559643778 99.66666666666666 449.60776501836 49.833333333333314 450.09210217952 49.833333333333314 C 450.188969611752 49.833333333333314 450.23740332786804 99.66666666666666 450.3342707601 99.66666666666666 C 450.52800562456406 99.66666666666666 450.62487305679605 99.66666666666666 450.81860792126 99.66666666666666 C 450.915475353492 99.66666666666666 450.96390906960806 99.66666666666666 451.06077650184 99.66666666666666 C 451.448246230764 99.66666666666666 451.641981095226 149.5 452.02945082415 149.5 C 452.126318256382 149.5 452.17475197249803 149.5 452.27161940473 149.5 C 452.465354269194 149.5 452.562221701426 99.66666666666666 452.75595656589 99.66666666666666 C 452.85282399812206 99.66666666666666 452.901257714238 149.5 452.99812514647 149.5 C 453.0949925787019 149.5 453.14342629481797 149.5 453.24029372705 149.5 C 453.337161159282 149.5 453.38559487539806 119.59999999999414 453.48246230763 99.66666666666666 C 453.579329739862 79.73333333332747 453.627763455978 49.833333333333314 453.72463088821 49.833333333333314 C 453.82149832044195 49.833333333333314 453.869932036558 149.5 453.96679946879 149.5 C 454.06366690102203 149.5 454.112100617138 149.5 454.20896804937 149.5 C 454.305835481602 149.5 454.354269197718 149.5 454.45113662995 149.5 C 454.54800406218203 149.5 454.59643777829797 149.5 454.69330521053 149.5 C 454.790172642762 149.5 454.83860635887805 149.5 454.93547379111 149.5 C 455.12920865557396 149.5 455.226076087806 149.5 455.41981095227 149.5 C 456.097882977894 149.5 456.436918990706 149.5 457.11499101633 149.5 C 457.211858448562 149.5 457.26029216467794 149.5 457.35715959691 149.5 C 457.744629325838 149.5 457.93836419030197 199.33333333333331 458.32583391923 199.33333333333331 C 458.422701351458 199.33333333333331 458.47113506757194 149.5 458.5680024998 149.5 C 458.858604796496 149.5 459.00390594484395 149.5 459.29450824154 149.5 C 459.48824310600395 149.5 459.58511053823594 199.33333333333331 459.7788454027 199.33333333333331 C 459.87571283493196 199.33333333333331 459.924146551048 149.5 460.02101398328 149.5 C 460.11788141551204 149.5 460.16631513162804 149.5 460.26318256386 149.5 C 460.360049996092 149.5 460.408483712208 149.5 460.50535114444 149.5 C 460.60221857667204 149.5 460.650652292788 149.5 460.74751972502 149.5 C 460.844387157252 149.5 460.89282087336807 134.54999999999706 460.9896883056 124.58333333333331 C 461.086555737832 114.6166666666637 461.13498945394804 99.66666666666666 461.23185688618 99.66666666666666 C 461.32872431841196 99.66666666666666 461.377158034528 149.5 461.47402546676 149.5 C 461.57089289899204 149.5 461.619326615108 149.5 461.71619404734 149.5 C 461.813061479572 149.5 461.861495195688 199.33333333333331 461.95836262792 199.33333333333331 C 462.055230060152 199.33333333333331 462.103663776268 149.5 462.2005312085 149.5 C 462.297398640732 149.5 462.34583235684806 149.5 462.44269978908 149.5 C 462.539567221312 149.5 462.58800093742803 149.5 462.68486836966 149.5 C 462.78173580189195 149.5 462.830169518008 99.66666666666666 462.92703695024 99.66666666666666 C 463.02390438247204 99.66666666666666 463.0723380985881 215.94444444444446 463.16920553082 215.94444444444446 C 463.266072963052 215.94444444444446 463.31450667916795 212.6222222222261 463.4113741114 199.33333333333331 C 463.508241543632 186.04444444444832 463.55667525974803 169.43333333332748 463.65354269198 149.5 C 463.75041012421207 129.5666666666608 463.798843840328 99.66666666666666 463.89571127256 99.66666666666666 C 463.992578704792 99.66666666666666 464.04101242090803 149.5 464.13787985314 149.5 C 464.42848214983604 149.5 464.573783298184 99.66666666666666 464.86438559488 99.66666666666666 C 464.9612530271121 99.66666666666666 465.0096867432279 99.66666666666666 465.10655417546 99.66666666666666 C 465.20342160768797 99.66666666666666 465.25185532380203 99.66666666666666 465.34872275603 99.66666666666666 C 465.44559018826203 99.66666666666666 465.49402390437797 99.66666666666666 465.59089133661 99.66666666666666 C 465.687758768842 99.66666666666666 465.736192484958 149.5 465.83305991719 149.5 C 465.929927349422 149.5 465.978361065538 99.66666666666666 466.07522849777 99.66666666666666 C 466.172095930002 99.66666666666666 466.22052964611794 149.5 466.31739707835 149.5 C 466.414264510582 149.5 466.462698226698 149.5 466.55956565893 149.5 C 466.65643309116206 149.5 466.704866807278 99.66666666666666 466.80173423951 99.66666666666666 C 466.8986016717419 99.66666666666666 466.94703538785797 99.66666666666666 467.04390282009 99.66666666666666 C 467.140770252322 99.66666666666666 467.18920396843805 99.66666666666666 467.28607140067 99.66666666666666 C 467.38293883290197 99.66666666666666 467.431372549018 99.66666666666666 467.52823998125 99.66666666666666 C 467.62510741348194 99.66666666666666 467.673541129598 99.66666666666666 467.77040856183 99.66666666666666 C 467.867275994062 99.66666666666666 467.915709710178 99.66666666666666 468.01257714241 99.66666666666666 C 468.109444574642 99.66666666666666 468.157878290758 99.66666666666666 468.25474572299 99.66666666666666 C 468.351613155222 99.66666666666666 468.40004687133796 99.66666666666666 468.49691430357 99.66666666666666 C 468.593781735802 99.66666666666666 468.64221545191805 149.5 468.73908288415 149.5 C 468.83595031638197 149.5 468.884384032498 99.66666666666666 468.98125146473 99.66666666666666 C 469.07811889696194 99.66666666666666 469.126552613078 99.66666666666666 469.22342004531 99.66666666666666 C 469.320287477542 99.66666666666666 469.36872119365796 149.5 469.46558862589 149.5 C 469.562456058122 149.5 469.610889774238 99.66666666666666 469.70775720647 99.66666666666666 C 469.80462463870197 99.66666666666666 469.85305835481796 99.66666666666666 469.94992578705 99.66666666666666 C 470.046793219282 99.66666666666666 470.09522693539805 49.833333333333314 470.19209436763 49.833333333333314 C 470.28896179986197 49.833333333333314 470.337395515978 79.73333333332747 470.43426294821 99.66666666666666 C 470.53113038044194 119.59999999999414 470.579564096558 149.5 470.67643152879 149.5 C 470.773298961022 149.5 470.8217326771381 99.66666666666666 470.91860010937 99.66666666666666 C 471.015467541602 99.66666666666666 471.06390125771793 99.66666666666666 471.16076868995 99.66666666666666 C 471.25763612218196 99.66666666666666 471.306069838298 99.66666666666666 471.40293727053 99.66666666666666 C 471.49980470276205 99.66666666666666 471.548238418878 99.66666666666666 471.64510585111 99.66666666666666 C 471.74197328334196 99.66666666666666 471.790406999458 149.5 471.88727443169 149.5 C 471.984141863918 149.5 472.0325755800321 149.5 472.12944301226 149.5 C 472.226310444492 149.5 472.27474416060795 99.66666666666666 472.37161159284 99.66666666666666 C 472.468479025072 99.66666666666666 472.51691274118804 149.5 472.61378017342 149.5 C 472.71064760565207 149.5 472.759081321768 149.5 472.855948754 149.5 C 472.9528161862319 149.5 473.001249902348 99.66666666666666 473.09811733458 99.66666666666666 C 473.194984766812 99.66666666666666 473.24341848292806 149.5 473.34028591516 149.5 C 473.437153347392 149.5 473.48558706350804 99.66666666666666 473.58245449574 99.66666666666666 C 473.67932192797196 99.66666666666666 473.727755644088 99.66666666666666 473.82462307632 99.66666666666666 C 473.92149050855204 99.66666666666666 473.96992422466803 99.66666666666666 474.0667916569 99.66666666666666 C 474.163659089132 99.66666666666666 474.212092805248 49.833333333333314 474.30896023748 49.833333333333314 C 474.40582766971204 49.833333333333314 474.454261385828 149.5 474.55112881806 149.5 C 474.647996250292 149.5 474.69642996640806 149.5 474.79329739864 149.5 C 474.890164830872 149.5 474.93859854698803 166.11111111111111 475.03546597922 166.11111111111111 C 475.13233341145195 166.11111111111111 475.180767127568 149.5 475.2776345598 149.5 C 475.37450199203204 149.5 475.422935708148 149.5 475.51980314038 149.5 C 475.616670572612 149.5 475.665104288728 149.5 475.76197172096 149.5 C 475.858839153192 149.5 475.907272869308 99.66666666666666 476.00414030154 99.66666666666666 C 476.101007733772 99.66666666666666 476.14944144988806 149.5 476.24630888212 149.5 C 476.343176314352 149.5 476.39161003046803 149.5 476.4884774627 149.5 C 476.875947191628 149.5 477.069682056092 249.16666666666666 477.45715178502 249.16666666666666 C 477.55401921725206 249.16666666666666 477.602452933368 169.43333333333334 477.6993203656 149.5 C 477.89305523006396 109.63333333333335 477.98992266229595 99.66666666666666 478.18365752676 99.66666666666666 C 478.28052495899203 99.66666666666666 478.32895867510797 149.5 478.42582610734 149.5 C 478.6195609718 149.5 478.71642840403 149.5 478.91016326849 149.5 C 479.103898132954 149.5 479.200765565186 149.5 479.39450042965 149.5 C 479.491367861882 149.5 479.539801577998 149.5 479.63666901023 149.5 C 479.73353644246197 149.5 479.781970158578 149.5 479.87883759081 149.5 C 479.975705023042 149.5 480.02413873915793 174.41666666666666 480.12100617139 174.41666666666666 C 480.21787360362197 174.41666666666666 480.266307319738 49.833333333333314 480.36317475197 49.833333333333314 C 480.46004218420205 49.833333333333314 480.508475900318 149.5 480.60534333255 149.5 C 480.79907819701396 149.5 480.89594562924594 149.5 481.08968049371 149.5 C 481.380282790406 149.5 481.525583938754 49.833333333333314 481.81618623545 49.833333333333314 C 481.913053667682 49.833333333333314 481.961487383798 199.33333333333331 482.05835481603 199.33333333333331 C 482.155222248262 199.33333333333331 482.20365596437796 149.5 482.30052339661 149.5 C 482.494258261074 149.5 482.591125693306 149.5 482.78486055777 149.5 C 482.88172799000193 149.5 482.930161706118 149.5 483.02702913835 149.5 C 483.51136629951 149.5 483.75353488008994 149.5 484.23787204125 149.5 C 484.43160690571403 149.5 484.528474337946 199.33333333333331 484.72220920241 199.33333333333331 C 484.915944066874 199.33333333333331 485.012811499106 187.70555555555296 485.20654636357 174.41666666666666 C 485.30341379580204 167.77222222221963 485.351847511918 149.5 485.44871494415 149.5 C 485.54558237637804 149.5 485.594016092492 149.5 485.69088352472 149.5 C 485.787750956952 149.5 485.83618467306803 149.5 485.9330521053 149.5 C 486.126786969764 149.5 486.223654401996 199.33333333333331 486.41738926646 199.33333333333331 C 486.51425669869207 199.33333333333331 486.562690414808 199.33333333333331 486.65955784704 199.33333333333331 C 486.7564252792719 199.33333333333331 486.804858995388 149.5 486.90172642762 149.5 C 487.095461292084 149.5 487.19232872431604 174.41666666666666 487.38606358878 174.41666666666666 C 487.48293102101195 174.41666666666666 487.531364737128 149.5 487.62823216936 149.5 C 487.72509960159204 149.5 487.77353331770803 149.5 487.87040074994 149.5 C 487.967268182172 149.5 488.015701898288 149.5 488.11256933052 149.5 C 488.20943676275203 149.5 488.25787047886797 199.33333333333331 488.3547379111 199.33333333333331 C 488.451605343332 199.33333333333331 488.50003905944806 149.5 488.59690649168 149.5 C 488.693773923912 149.5 488.742207640028 149.5 488.83907507226 149.5 C 488.93594250449195 149.5 488.984376220608 149.5 489.08124365284 149.5 C 489.17811108507203 149.5 489.22654480118797 149.5 489.32341223342 149.5 C 489.420279665652 149.5 489.468713381768 149.5 489.565580814 149.5 C 489.662448246232 149.5 489.71088196234797 149.5 489.80774939458 149.5 C 489.904616826812 149.5 489.95305054292805 149.5 490.04991797516 149.5 C 490.146785407392 149.5 490.195219123508 149.5 490.29208655574 149.5 C 490.38895398797195 149.5 490.437387704088 149.5 490.53425513632 149.5 C 490.63112256855203 149.5 490.6795562846681 149.5 490.7764237169 149.5 C 490.873291149132 149.5 490.92172486524794 149.5 491.01859229748 149.5 C 491.115459729712 149.5 491.163893445828 249.16666666666666 491.26076087806 249.16666666666666 C 491.93883290368 249.16666666666666 492.27786891649004 201.82499999995775 492.95594094211 149.5 C 493.052808374342 142.02499999995777 493.10124209045796 99.66666666666666 493.19810952269 99.66666666666666 C 493.294976954922 99.66666666666666 493.343410671038 149.5 493.44027810327 149.5 C 493.53714553550196 149.5 493.585579251618 149.5 493.68244668385 149.5 C 493.779314116082 149.5 493.82774783219793 149.5 493.92461526443 149.5 C 494.11835012889395 149.5 494.215217561126 149.5 494.40895242559 149.5 C 494.60268729005395 149.5 494.69955472228594 199.33333333333331 494.89328958675 199.33333333333331 C 494.99015701898196 199.33333333333331 495.038590735098 149.5 495.13545816733 149.5 C 495.23232559956205 149.5 495.280759315678 149.5 495.37762674791 149.5 C 495.8619639090701 149.5 496.10413248964994 149.5000000000008 496.58846965081 162.7888888888889 C 496.68533708304204 165.44666666666745 496.7337707991581 189.36666666666665 496.83063823139 189.36666666666665 C 496.927505663622 189.36666666666665 496.97593937973795 149.5 497.07280681197 149.5 C 497.169674244202 149.5 497.21810796031804 199.33333333333331 497.31497539255 199.33333333333331 C 497.41184282478207 199.33333333333331 497.460276540898 199.33333333333331 497.55714397313 199.33333333333331 C 497.750878837594 199.33333333333331 497.84774626982596 199.33333333333331 498.04148113429 199.33333333333331 C 498.13834856652204 199.33333333333331 498.186782282638 199.33333333333331 498.28364971487 199.33333333333331 C 498.574252011562 199.33333333333331 498.719553159908 99.66666666666666 499.0101554566 99.66666666666666 C 499.10702288883203 99.66666666666666 499.155456604948 99.66666666666666 499.25232403718 99.66666666666666 C 499.349191469412 99.66666666666666 499.397625185528 199.33333333333331 499.49449261776 199.33333333333331 C 499.591360049992 199.33333333333331 499.639793766108 199.33333333333331 499.73666119834 199.33333333333331 C 499.833528630572 199.33333333333331 499.88196234668794 149.5 499.97882977892 149.5 C 500.075697211152 149.5 500.124130927268 199.33333333333331 500.2209983595 199.33333333333331 C 500.31786579173206 199.33333333333331 500.366299507848 99.66666666666666 500.46316694008 99.66666666666666 C 501.044371533472 99.66666666666666 501.334973830168 199.33333333333331 501.91617842356 199.33333333333331 C 502.01304585579203 199.33333333333331 502.06147957190797 149.5 502.15834700414 149.5 C 502.255214436372 149.5 502.30364815248805 149.5 502.40051558472 149.5 C 502.49738301695197 149.5 502.545816733068 199.33333333333331 502.6426841653 199.33333333333331 C 502.73955159753194 199.33333333333331 502.787985313648 149.5 502.88485274588 149.5 C 503.078587610344 149.5 503.17545504257595 149.5 503.36918990704 149.5 C 503.46605733927197 149.5 503.51449105538796 99.66666666666666 503.61135848762 99.66666666666666 C 503.708225919852 99.66666666666666 503.75665963596805 99.66666666666666 503.8535270682 99.66666666666666 C 503.95039450043197 99.66666666666666 503.998828216548 99.66666666666666 504.09569564878 99.66666666666666 C 504.19256308101194 99.66666666666666 504.240996797128 99.66666666666666 504.33786422936 99.66666666666666 C 504.53159909382396 99.66666666666666 504.62846652605606 99.66666666666666 504.82220139052 99.66666666666666 C 504.91906882275197 99.66666666666666 504.967502538868 149.5 505.0643699711 149.5 C 505.16123740333205 149.5 505.209671119448 99.66666666666666 505.30653855168 99.66666666666666 C 505.59714084837196 99.66666666666666 505.74244199671796 99.66666666666666 506.03304429341 99.66666666666666 C 506.129911725642 99.66666666666666 506.17834544175804 136.2111111111163 506.27521287399 149.5 C 506.46894773845395 176.07777777778298 506.56581517068605 199.33333333333331 506.75955003515 199.33333333333331 C 506.953284899614 199.33333333333331 507.05015233184605 149.5 507.24388719631 149.5 C 507.34075462854196 149.5 507.389188344658 149.5 507.48605577689 149.5 C 507.58292320912204 149.5 507.63135692523804 149.5 507.72822435747 149.5 C 507.825091789702 149.5 507.873525505818 149.5 507.97039293805 149.5 C 508.06726037028204 149.5 508.115694086398 149.5 508.21256151863 149.5 C 508.309428950862 149.5 508.35786266697806 149.5 508.45473009921 149.5 C 508.745332395906 149.5 508.890633544254 149.5 509.18123584095 149.5 C 509.278103273182 149.5 509.326536989298 99.66666666666666 509.42340442153 99.66666666666666 C 509.520271853762 99.66666666666666 509.568705569878 99.66666666666666 509.66557300211 99.66666666666666 C 509.762440434342 99.66666666666666 509.81087415045806 149.5 509.90774158269 149.5 C 510.004609014922 149.5 510.05304273103803 149.5 510.14991016327 149.5 C 510.34364502773406 149.5 510.44051245996604 99.66666666666666 510.63424732443 99.66666666666666 C 510.731114756662 99.66666666666666 510.77954847277795 149.5 510.87641590501 149.5 C 510.973283337242 149.5 511.02171705335803 99.66666666666666 511.11858448559 99.66666666666666 C 511.21545191782207 99.66666666666666 511.263885633938 199.33333333333331 511.36075306617 199.33333333333331 C 511.457620498402 199.33333333333331 511.50605421451803 199.33333333333331 511.60292164675 199.33333333333331 C 511.89352394344604 199.33333333333331 512.038825091794 199.33333333333331 512.32942738849 199.33333333333331 C 512.4262948207181 199.33333333333331 512.4747285368319 149.5 512.57159596906 149.5 C 512.765330833524 149.5 512.862198265756 199.33333333333331 513.05593313022 199.33333333333331 C 513.249667994684 199.33333333333331 513.3465354269159 149.5 513.54027029138 149.5 C 513.734005155844 149.5 513.830872588076 249.16666666666666 514.02460745254 249.16666666666666 C 514.2183423170039 249.16666666666666 514.315209749236 225.91111111111107 514.5089446137 199.33333333333331 C 514.605812045932 186.04444444444442 514.654245762048 149.5 514.75111319428 149.5 C 514.847980626512 149.5 514.896414342628 149.5 514.99328177486 149.5 C 515.283884071556 149.5 515.429185219904 149.5 515.7197875166 149.5 C 516.010389813296 149.5 516.155690961644 99.66666666666666 516.44629325834 99.66666666666666 C 516.640028122804 99.66666666666666 516.736895555036 149.5 516.9306304195 149.5 C 517.1243652839639 149.5 517.221232716196 149.5 517.41496758066 149.5 C 517.511835012892 149.5 517.560268729008 149.5 517.65713616124 149.5 C 517.754003593472 149.5 517.802437309588 99.66666666666666 517.89930474182 99.66666666666666 C 517.9961721740519 99.66666666666666 518.044605890168 199.33333333333331 518.1414733224 199.33333333333331 C 518.238340754632 199.33333333333331 518.286774470748 149.5 518.38364190298 149.5 C 518.4805093352121 149.5 518.5289430513279 149.5 518.62581048356 149.5 C 518.722677915792 149.5 518.7711116319081 149.5 518.86797906414 149.5 C 518.9648464963719 149.5 519.0132802124879 199.33333333333331 519.11014764472 199.33333333333331 C 519.3038825091801 199.33333333333331 519.4007499414099 149.5 519.59448480587 149.5 C 519.6913522381021 149.5 519.7397859542181 199.33333333333331 519.83665338645 199.33333333333331 C 519.9335208186819 199.33333333333331 519.981954534798 149.5 520.07882196703 149.5 C 520.1756893992621 149.5 520.2241231153779 149.5 520.32099054761 149.5 C 520.417857979842 149.5 520.466291695958 149.5 520.56315912819 149.5 C 520.660026560422 149.5 520.7084602765381 149.5 520.80532770877 149.5 C 520.902195141002 149.5 520.950628857118 199.33333333333331 521.04749628935 199.33333333333331 C 521.144363721582 199.33333333333331 521.192797437698 149.5 521.28966486993 149.5 C 521.3865323021621 149.5 521.434966018278 149.5 521.53183345051 149.5 C 521.628700882742 149.5 521.677134598858 149.5 521.77400203109 149.5 C 521.870869463322 149.5 521.919303179438 149.5 522.01617061167 149.5 C 522.113038043902 149.5 522.161471760018 149.5 522.25833919225 149.5 C 522.355206624482 149.5 522.403640340598 149.5 522.50050777283 149.5 C 522.597375205062 149.5 522.6458089211781 149.5 522.74267635341 149.5 C 522.839543785642 149.5 522.887977501758 112.95555555555555 522.98484493399 99.66666666666666 C 523.1785797984539 73.08888888888887 523.275447230686 49.833333333333314 523.46918209515 49.833333333333314 C 523.566049527382 49.833333333333314 523.6144832434981 149.5 523.71135067573 149.5 C 523.905085540194 149.5 524.001952972426 149.5 524.19568783689 149.5 C 524.292555269122 149.5 524.340988985238 149.5 524.43785641747 149.5 C 524.5347238497021 149.5 524.5831575658179 149.5 524.68002499805 149.5 C 524.776892430282 149.5 524.8253261463981 149.5 524.92219357863 149.5 C 525.019061010862 149.5 525.0674947269779 149.5 525.16436215921 149.5 C 525.261229591442 149.5 525.309663307558 149.5 525.40653073979 149.5 C 525.503398172022 149.5 525.551831888138 149.5 525.64869932037 149.5 C 525.84243418483 149.5 525.93930161706 149.5 526.13303648152 149.5 C 526.2299039137521 149.5 526.2783376298679 149.5 526.3752050621 149.5 C 526.472072494332 149.5 526.520506210448 149.5 526.61737364268 149.5 C 526.714241074912 149.5 526.762674791028 149.5 526.85954222326 149.5 C 526.9564096554919 149.5 527.004843371608 149.5 527.10171080384 149.5 C 527.198578236072 149.5 527.247011952188 149.5 527.34387938442 149.5 C 527.4407468166521 149.5 527.489180532768 149.5 527.586047965 149.5 C 527.6829153972319 149.5 527.731349113348 149.5 527.82821654558 149.5 C 527.925083977812 149.5 527.9735176939279 149.5 528.07038512616 149.5 C 528.167252558392 149.5 528.215686274508 149.5 528.31255370674 149.5 C 528.409421138972 149.5 528.457854855088 149.5 528.55472228732 149.5 C 528.651589719552 149.5 528.700023435668 149.5 528.7968908679 149.5 C 528.8937583001319 149.5 528.942192016248 149.5 529.03905944848 149.5 C 529.1359268807121 149.5 529.184360596828 149.5 529.28122802906 149.5 C 529.378095461292 149.5 529.4265291774079 149.5 529.52339660964 149.5 C 529.813998906336 149.5 529.959300054684 149.5 530.24990235138 149.5 C 530.346769783612 149.5 530.395203499728 199.33333333333331 530.49207093196 199.33333333333331 C 530.9764080931201 199.33333333333331 531.2185766737 99.66666666666666 531.70291383486 99.66666666666666 C 531.799781267092 99.66666666666666 531.848214983208 169.4333333333333 531.94508241544 199.33333333333331 C 532.041949847672 229.23333333333332 532.090383563788 249.16666666666666 532.18725099602 249.16666666666666 C 532.477853292712 249.16666666666666 532.623154441058 149.5 532.91375673775 149.5 C 533.010624169982 149.5 533.059057886098 149.5 533.15592531833 149.5 C 533.252792750562 149.5 533.301226466678 199.33333333333331 533.39809389891 199.33333333333331 C 533.4949613311421 199.33333333333331 533.5433950472581 199.33333333333331 533.64026247949 199.33333333333331 C 533.7371299117219 199.33333333333331 533.785563627838 199.33333333333331 533.88243106007 199.33333333333331 C 533.9792984923021 199.33333333333331 534.0277322084179 199.33333333333331 534.12459964065 199.33333333333331 C 534.221467072882 199.33333333333331 534.269900788998 199.33333333333331 534.36676822123 199.33333333333331 C 534.463635653462 199.33333333333331 534.5120693695781 199.33333333333331 534.60893680181 199.33333333333331 C 534.705804234042 199.33333333333331 534.754237950158 199.33333333333331 534.85110538239 199.33333333333331 C 534.947972814622 199.33333333333331 534.996406530738 199.33333333333331 535.09327396297 199.33333333333331 C 535.1901413952021 199.33333333333331 535.238575111318 199.33333333333331 535.33544254355 199.33333333333331 C 535.432309975782 199.33333333333331 535.4807436918979 199.33333333333331 535.57761112413 199.33333333333331 C 535.674478556362 199.33333333333331 535.722912272478 149.5 535.81977970471 149.5 C 535.916647136942 149.5 535.965080853058 199.33333333333331 536.06194828529 199.33333333333331 C 536.2556831497541 199.33333333333331 536.352550581986 149.5 536.54628544645 149.5 C 536.643152878682 149.5 536.691586594798 149.5 536.78845402703 149.5 C 536.8853214592621 149.5 536.933755175378 149.5 537.03062260761 149.5 C 537.321224904306 149.5 537.466526052654 149.5 537.75712834935 149.5 C 537.853995781582 149.5 537.902429497698 199.33333333333331 537.99929692993 199.33333333333331 C 538.096164362162 199.33333333333331 538.144598078278 199.33333333333331 538.24146551051 199.33333333333331 C 538.3383329427421 199.33333333333331 538.3867666588579 149.5 538.48363409109 149.5 C 538.580501523322 149.5 538.6289352394381 149.5 538.72580267167 149.5 C 538.8226701039019 149.5 538.8711038200179 149.5 538.96797125225 149.5 C 539.064838684482 149.5 539.113272400598 149.5 539.21013983283 149.5 C 539.307007265062 149.5 539.355440981178 149.5 539.45230841341 149.5 C 539.549175845638 149.5 539.5976095617519 149.5 539.69447699398 149.5 C 539.7913444262119 149.5 539.839778142328 149.5 539.93664557456 149.5 C 540.0335130067921 149.5 540.0819467229079 149.5 540.17881415514 149.5 C 540.275681587372 149.5 540.324115303488 149.5 540.42098273572 149.5 C 540.517850167952 149.5 540.566283884068 149.5 540.6631513163 149.5 C 540.7600187485319 149.5 540.808452464648 149.5 540.90531989688 149.5 C 541.002187329112 149.5 541.050621045228 149.5 541.14748847746 149.5 C 541.2443559096921 149.5 541.292789625808 149.5 541.38965705804 149.5 C 541.4865244902719 149.5 541.534958206388 149.5 541.63182563862 149.5 C 541.728693070852 149.5 541.7771267869679 149.5 541.8739942192 149.5 C 541.970861651432 149.5 542.019295367548 149.5 542.11616279978 149.5 C 542.213030232012 149.5 542.261463948128 149.5 542.35833138036 149.5 C 542.455198812592 149.5 542.5036325287081 149.5 542.60049996094 149.5 C 542.697367393172 149.5 542.745801109288 149.5 542.84266854152 149.5 C 542.9395359737521 149.5 542.987969689868 149.5 543.0848371221 149.5 C 543.181704554332 149.5 543.2301382704479 199.33333333333331 543.32700570268 199.33333333333331 C 543.423873134912 199.33333333333331 543.4723068510281 149.5 543.56917428326 149.5 C 543.666041715492 149.5 543.714475431608 149.5 543.81134286384 149.5 C 543.908210296072 149.5 543.956644012188 149.5 544.05351144442 149.5 C 544.150378876652 149.5 544.198812592768 149.5 544.295680025 149.5 C 544.3925474572321 149.5 544.440981173348 149.5 544.53784860558 149.5 C 544.634716037812 149.5 544.6831497539281 199.33333333333331 544.78001718616 199.33333333333331 C 544.876884618392 199.33333333333331 544.9253183345079 199.33333333333331 545.02218576674 199.33333333333331 C 545.119053198972 199.33333333333331 545.167486915088 199.33333333333331 545.26435434732 199.33333333333331 C 545.361221779552 199.33333333333331 545.4096554956681 149.5 545.5065229279 149.5 C 545.603390360132 149.5 545.651824076248 149.5 545.74869150848 149.5 C 545.845558940712 149.5 545.893992656828 149.5 545.99086008906 149.5 C 546.0877275212921 149.5 546.1361612374079 149.5 546.23302866964 149.5 C 546.3298961018679 149.5 546.378329817982 149.5 546.47519725021 149.5 C 546.572064682442 149.5 546.620498398558 149.5 546.71736583079 149.5 C 546.814233263022 149.5 546.862666979138 149.5 546.95953441137 149.5 C 547.056401843602 149.5 547.104835559718 149.5 547.20170299195 149.5 C 547.2985704241821 149.5 547.347004140298 149.5 547.44387157253 149.5 C 547.5407390047619 149.5 547.589172720878 149.5 547.68604015311 149.5 C 547.7829075853421 149.5 547.8313413014579 149.5 547.92820873369 149.5 C 548.025076165922 149.5 548.073509882038 199.33333333333331 548.17037731427 199.33333333333331 C 548.267244746502 199.33333333333331 548.315678462618 199.33333333333331 548.41254589485 199.33333333333331 C 548.509413327082 199.33333333333331 548.557847043198 199.33333333333331 548.65471447543 199.33333333333331 C 548.751581907662 199.33333333333331 548.800015623778 199.33333333333331 548.89688305601 199.33333333333331 C 548.9937504882421 199.33333333333331 549.042184204358 199.33333333333331 549.13905163659 199.33333333333331 C 549.235919068822 199.33333333333331 549.2843527849379 199.33333333333331 549.38122021717 199.33333333333331 C 549.478087649402 199.33333333333331 549.526521365518 199.33333333333331 549.62338879775 199.33333333333331 C 549.7202562299819 199.33333333333331 549.768689946098 199.33333333333331 549.86555737833 199.33333333333331 C 549.962424810562 199.33333333333331 550.010858526678 199.33333333333331 550.10772595891 199.33333333333331 C 550.204593391142 199.33333333333331 550.253027107258 199.33333333333331 550.34989453949 199.33333333333331 C 550.446761971722 199.33333333333331 550.495195687838 199.33333333333331 550.59206312007 199.33333333333331 C 550.688930552302 199.33333333333331 550.737364268418 99.66666666666666 550.83423170065 99.66666666666666 C 550.931099132882 99.66666666666666 550.9795328489979 149.5 551.07640028123 149.5 C 551.173267713462 149.5 551.221701429578 149.5 551.31856886181 149.5 C 551.415436294042 149.5 551.463870010158 186.04444444444962 551.56073744239 199.33333333333331 C 551.754472306854 225.91111111111627 551.8513397390859 249.16666666666666 552.04507460355 249.16666666666666 C 552.1419420357821 249.16666666666666 552.1903757518979 219.26666666667833 552.28724318413 199.33333333333331 C 552.384110616362 179.4000000000117 552.52941176471 149.5 552.52941176471 149.5" class="highcharts-graph" data-z-index="1" stroke="#000000" stroke-width="2" stroke-linejoin="round" stroke-linecap="round"></path></g><g data-z-index="0.1" class="highcharts-markers highcharts-series-0 highcharts-spline-series highcharts-color-0 " transform="translate(32,63) scale(1 1)" clip-path="none"></g></g><text x="300" text-anchor="middle" class="highcharts-title" data-z-index="4" style="color:#333333;font-size:18px;fill:#333333;" y="24"><tspan>Energy Over Time</tspan></text><text x="300" text-anchor="middle" class="highcharts-subtitle" data-z-index="4" style="color:#666666;fill:#666666;" y="46"><tspan>This chart shows how your Energy changes over time.</tspan></text><g class="highcharts-axis-labels highcharts-xaxis-labels " data-z-index="7"><text x="34.806733848918" style="color:#666666;cursor:default;font-size:11px;fill:#666666;" text-anchor="middle" transform="translate(0,0)" y="381" opacity="1">2013</text><text x="123.19826576049" style="color:#666666;cursor:default;font-size:11px;fill:#666666;" text-anchor="middle" transform="translate(0,0)" y="381" opacity="1">2014</text><text x="211.58979767206" style="color:#666666;cursor:default;font-size:11px;fill:#666666;" text-anchor="middle" transform="translate(0,0)" y="381" opacity="1">2015</text><text x="299.98132958363" style="color:#666666;cursor:default;font-size:11px;fill:#666666;" text-anchor="middle" transform="translate(0,0)" y="381" opacity="1">2016</text><text x="388.61503007578" style="color:#666666;cursor:default;font-size:11px;fill:#666666;" text-anchor="middle" transform="translate(0,0)" y="381" opacity="1">2017</text><text x="477.00656198734" style="color:#666666;cursor:default;font-size:11px;fill:#666666;" text-anchor="middle" transform="translate(0,0)" y="381" opacity="1">2018</text><text x="565.39809389891" style="color:#666666;cursor:default;font-size:11px;fill:#666666;" text-anchor="middle" transform="translate(0,0)" y="381" opacity="1">2019</text></g><g class="highcharts-axis-labels highcharts-yaxis-labels " data-z-index="7"><text x="17" style="color:#666666;cursor:default;font-size:11px;fill:#666666;" text-anchor="end" transform="translate(0,0)" y="366" opacity="1">0</text><text x="17" style="color:#666666;cursor:default;font-size:11px;fill:#666666;" text-anchor="end" transform="translate(0,0)" y="316" opacity="1">1</text><text x="17" style="color:#666666;cursor:default;font-size:11px;fill:#666666;" text-anchor="end" transform="translate(0,0)" y="266" opacity="1">2</text><text x="17" style="color:#666666;cursor:default;font-size:11px;fill:#666666;" text-anchor="end" transform="translate(0,0)" y="216" opacity="1">3</text><text x="17" style="color:#666666;cursor:default;font-size:11px;fill:#666666;" text-anchor="end" transform="translate(0,0)" y="166" opacity="1">4</text><text x="17" style="color:#666666;cursor:default;font-size:11px;fill:#666666;" text-anchor="end" transform="translate(0,0)" y="116" opacity="1">5</text><text x="17" style="color:#666666;cursor:default;font-size:11px;fill:#666666;" text-anchor="end" transform="translate(0,0)" y="67" opacity="1">6</text></g><a xlink:href="https://quantimo.do" target="_blank">
                    <text x="590" class="highcharts-credits" text-anchor="end" data-z-index="8"
                          style="cursor:pointer;color:#999999;font-size:9px;fill:#999999;" y="395">https://quantimo.do
                    </text>
                </a></svg>