<?xml version="1.0" standalone="no"?><!DOCTYPE svg PUBLIC "-//W3C//DTD SVG 1.1//EN" "http://www.w3.org/Graphics/SVG/1.1/DTD/svg11.dtd"><svg xmlns:xlink="http://www.w3.org/1999/xlink" version="1.1" class="highcharts-root" style="font-family:&quot;Lucida Grande&quot;, &quot;Lucida Sans Unicode&quot;, Arial, Helvetica, sans-serif;font-size:12px;" xmlns="http://www.w3.org/2000/svg" width="600" height="300"><desc>Created with Highstock 6.2.0</desc><defs><clipPath id="highcharts-3uj2qoh-28"><rect x="0" y="0" width="518" height="168" fill="none"></rect></clipPath><clipPath id="highcharts-3uj2qoh-50"><rect x="0" y="0" width="518" height="168" fill="none"></rect></clipPath><clipPath id="highcharts-3uj2qoh-51"><rect x="72" y="63" width="518" height="168" fill="none"></rect></clipPath></defs><rect fill="#ffffff" class="highcharts-background" x="0" y="0" width="600" height="300" rx="0" ry="0"></rect><rect fill="none" class="highcharts-plot-background" x="72" y="63" width="518" height="168"></rect><g class="highcharts-pane-group" data-z-index="0"></g><g class="highcharts-grid highcharts-xaxis-grid " data-z-index="1"><path fill="none" data-z-index="1" class="highcharts-grid-line" d="M 96.5 63 L 96.5 231" opacity="1"></path><path fill="none" data-z-index="1" class="highcharts-grid-line" d="M 120.5 63 L 120.5 231" opacity="1"></path><path fill="none" data-z-index="1" class="highcharts-grid-line" d="M 145.5 63 L 145.5 231" opacity="1"></path><path fill="none" data-z-index="1" class="highcharts-grid-line" d="M 170.5 63 L 170.5 231" opacity="1"></path><path fill="none" data-z-index="1" class="highcharts-grid-line" d="M 194.5 63 L 194.5 231" opacity="1"></path><path fill="none" data-z-index="1" class="highcharts-grid-line" d="M 219.5 63 L 219.5 231" opacity="1"></path><path fill="none" data-z-index="1" class="highcharts-grid-line" d="M 244.5 63 L 244.5 231" opacity="1"></path><path fill="none" data-z-index="1" class="highcharts-grid-line" d="M 268.5 63 L 268.5 231" opacity="1"></path><path fill="none" data-z-index="1" class="highcharts-grid-line" d="M 293.5 63 L 293.5 231" opacity="1"></path><path fill="none" data-z-index="1" class="highcharts-grid-line" d="M 318.5 63 L 318.5 231" opacity="1"></path><path fill="none" data-z-index="1" class="highcharts-grid-line" d="M 342.5 63 L 342.5 231" opacity="1"></path><path fill="none" data-z-index="1" class="highcharts-grid-line" d="M 367.5 63 L 367.5 231" opacity="1"></path><path fill="none" data-z-index="1" class="highcharts-grid-line" d="M 392.5 63 L 392.5 231" opacity="1"></path><path fill="none" data-z-index="1" class="highcharts-grid-line" d="M 416.5 63 L 416.5 231" opacity="1"></path><path fill="none" data-z-index="1" class="highcharts-grid-line" d="M 441.5 63 L 441.5 231" opacity="1"></path><path fill="none" data-z-index="1" class="highcharts-grid-line" d="M 466.5 63 L 466.5 231" opacity="1"></path><path fill="none" data-z-index="1" class="highcharts-grid-line" d="M 490.5 63 L 490.5 231" opacity="1"></path><path fill="none" data-z-index="1" class="highcharts-grid-line" d="M 515.5 63 L 515.5 231" opacity="1"></path><path fill="none" data-z-index="1" class="highcharts-grid-line" d="M 540.5 63 L 540.5 231" opacity="1"></path><path fill="none" data-z-index="1" class="highcharts-grid-line" d="M 564.5 63 L 564.5 231" opacity="1"></path><path fill="none" data-z-index="1" class="highcharts-grid-line" d="M 589.5 63 L 589.5 231" opacity="1"></path><path fill="none" data-z-index="1" class="highcharts-grid-line" d="M 71.5 63 L 71.5 231" opacity="1"></path></g><g class="highcharts-grid highcharts-yaxis-grid " data-z-index="1"><path fill="none" stroke="#e6e6e6" stroke-width="1" data-z-index="1" class="highcharts-grid-line" d="M 72 231.5 L 590 231.5" opacity="1"></path><path fill="none" stroke="#e6e6e6" stroke-width="1" data-z-index="1" class="highcharts-grid-line" d="M 72 147.5 L 590 147.5" opacity="1"></path><path fill="none" stroke="#e6e6e6" stroke-width="1" data-z-index="1" class="highcharts-grid-line" d="M 72 62.5 L 590 62.5" opacity="1"></path></g><rect fill="none" class="highcharts-plot-border" data-z-index="1" x="72" y="63" width="518" height="168"></rect><g class="highcharts-axis highcharts-xaxis " data-z-index="2"><path fill="none" class="highcharts-tick" stroke="#ccd6eb" stroke-width="1" d="M 96.5 231 L 96.5 241" opacity="1"></path><path fill="none" class="highcharts-tick" stroke="#ccd6eb" stroke-width="1" d="M 120.5 231 L 120.5 241" opacity="1"></path><path fill="none" class="highcharts-tick" stroke="#ccd6eb" stroke-width="1" d="M 145.5 231 L 145.5 241" opacity="1"></path><path fill="none" class="highcharts-tick" stroke="#ccd6eb" stroke-width="1" d="M 170.5 231 L 170.5 241" opacity="1"></path><path fill="none" class="highcharts-tick" stroke="#ccd6eb" stroke-width="1" d="M 194.5 231 L 194.5 241" opacity="1"></path><path fill="none" class="highcharts-tick" stroke="#ccd6eb" stroke-width="1" d="M 219.5 231 L 219.5 241" opacity="1"></path><path fill="none" class="highcharts-tick" stroke="#ccd6eb" stroke-width="1" d="M 244.5 231 L 244.5 241" opacity="1"></path><path fill="none" class="highcharts-tick" stroke="#ccd6eb" stroke-width="1" d="M 268.5 231 L 268.5 241" opacity="1"></path><path fill="none" class="highcharts-tick" stroke="#ccd6eb" stroke-width="1" d="M 293.5 231 L 293.5 241" opacity="1"></path><path fill="none" class="highcharts-tick" stroke="#ccd6eb" stroke-width="1" d="M 318.5 231 L 318.5 241" opacity="1"></path><path fill="none" class="highcharts-tick" stroke="#ccd6eb" stroke-width="1" d="M 342.5 231 L 342.5 241" opacity="1"></path><path fill="none" class="highcharts-tick" stroke="#ccd6eb" stroke-width="1" d="M 367.5 231 L 367.5 241" opacity="1"></path><path fill="none" class="highcharts-tick" stroke="#ccd6eb" stroke-width="1" d="M 392.5 231 L 392.5 241" opacity="1"></path><path fill="none" class="highcharts-tick" stroke="#ccd6eb" stroke-width="1" d="M 416.5 231 L 416.5 241" opacity="1"></path><path fill="none" class="highcharts-tick" stroke="#ccd6eb" stroke-width="1" d="M 441.5 231 L 441.5 241" opacity="1"></path><path fill="none" class="highcharts-tick" stroke="#ccd6eb" stroke-width="1" d="M 466.5 231 L 466.5 241" opacity="1"></path><path fill="none" class="highcharts-tick" stroke="#ccd6eb" stroke-width="1" d="M 490.5 231 L 490.5 241" opacity="1"></path><path fill="none" class="highcharts-tick" stroke="#ccd6eb" stroke-width="1" d="M 515.5 231 L 515.5 241" opacity="1"></path><path fill="none" class="highcharts-tick" stroke="#ccd6eb" stroke-width="1" d="M 540.5 231 L 540.5 241" opacity="1"></path><path fill="none" class="highcharts-tick" stroke="#ccd6eb" stroke-width="1" d="M 564.5 231 L 564.5 241" opacity="1"></path><path fill="none" class="highcharts-tick" stroke="#ccd6eb" stroke-width="1" d="M 590.5 231 L 590.5 241" opacity="1"></path><path fill="none" class="highcharts-tick" stroke="#ccd6eb" stroke-width="1" d="M 71.5 231 L 71.5 241" opacity="1"></path><text x="331" data-z-index="7" text-anchor="middle" transform="translate(0,0)" class="highcharts-axis-title" style="color:#666666;fill:#666666;" y="281.4558441227157"><tspan>Average Daily Value (%RDA)</tspan></text><path fill="none" class="highcharts-axis-line" stroke="#ccd6eb" stroke-width="1" data-z-index="7" d="M 72 231.5 L 590 231.5"></path></g><g class="highcharts-axis highcharts-yaxis " data-z-index="2"><text x="26" data-z-index="7" text-anchor="middle" transform="translate(0,0) rotate(270 26 147)" class="highcharts-axis-title" style="color:#666666;fill:#666666;" y="147"><tspan>Number of Days</tspan></text><path fill="none" class="highcharts-axis-line" data-z-index="7" d="M 72 63 L 72 231"></path></g><g class="highcharts-series-group" data-z-index="3"><g data-z-index="0.1" class="highcharts-series highcharts-series-0 highcharts-column-series highcharts-color-0 " transform="translate(72,63) scale(1 1)" clip-path="url(#highcharts-3uj2qoh-50)"><rect x="5.5" y="168.5" width="12" height="0" fill="#000000" stroke="#ffffff" stroke-width="1" class="highcharts-point highcharts-color-0"></rect><rect x="30.5" y="168.5" width="12" height="0" fill="#000000" stroke="#ffffff" stroke-width="1" class="highcharts-point highcharts-color-0"></rect><rect x="55.5" y="167.5" width="12" height="1" fill="#000000" stroke="#ffffff" stroke-width="1" class="highcharts-point highcharts-color-0"></rect><rect x="79.5" y="168.5" width="12" height="0" fill="#000000" stroke="#ffffff" stroke-width="1" class="highcharts-point highcharts-color-0"></rect><rect x="104.5" y="166.5" width="12" height="2" fill="#000000" stroke="#ffffff" stroke-width="1" class="highcharts-point highcharts-color-0"></rect><rect x="129.5" y="166.5" width="12" height="2" fill="#000000" stroke="#ffffff" stroke-width="1" class="highcharts-point highcharts-color-0"></rect><rect x="153.5" y="168.5" width="12" height="0" fill="#000000" stroke="#ffffff" stroke-width="1" class="highcharts-point highcharts-color-0"></rect><rect x="178.5" y="168.5" width="12" height="0" fill="#000000" stroke="#ffffff" stroke-width="1" class="highcharts-point highcharts-color-0"></rect><rect x="203.5" y="165.5" width="12" height="3" fill="#000000" stroke="#ffffff" stroke-width="1" class="highcharts-point highcharts-color-0"></rect><rect x="227.5" y="152.5" width="12" height="16" fill="#000000" stroke="#ffffff" stroke-width="1" class="highcharts-point highcharts-color-0"></rect><rect x="252.5" y="139.5" width="12" height="29" fill="#000000" stroke="#ffffff" stroke-width="1" class="highcharts-point highcharts-color-0"></rect><rect x="277.5" y="91.5" width="12" height="77" fill="#000000" stroke="#ffffff" stroke-width="1" class="highcharts-point highcharts-color-0"></rect><rect x="301.5" y="37.5" width="12" height="131" fill="#000000" stroke="#ffffff" stroke-width="1" class="highcharts-point highcharts-color-0"></rect><rect x="326.5" y="34.5" width="12" height="134" fill="#000000" stroke="#ffffff" stroke-width="1" class="highcharts-point highcharts-color-0"></rect><rect x="351.5" y="46.5" width="12" height="122" fill="#000000" stroke="#ffffff" stroke-width="1" class="highcharts-point highcharts-color-0"></rect><rect x="375.5" y="62.5" width="12" height="106" fill="#000000" stroke="#ffffff" stroke-width="1" class="highcharts-point highcharts-color-0"></rect><rect x="400.5" y="89.5" width="12" height="79" fill="#000000" stroke="#ffffff" stroke-width="1" class="highcharts-point highcharts-color-0"></rect><rect x="425.5" y="14.5" width="12" height="154" fill="#000000" stroke="#ffffff" stroke-width="1" class="highcharts-point highcharts-color-0"></rect><rect x="449.5" y="148.5" width="12" height="20" fill="#000000" stroke="#ffffff" stroke-width="1" class="highcharts-point highcharts-color-0"></rect><rect x="474.5" y="165.5" width="12" height="3" fill="#000000" stroke="#ffffff" stroke-width="1" class="highcharts-point highcharts-color-0"></rect><rect x="499.5" y="168.5" width="12" height="0" fill="#000000" stroke="#ffffff" stroke-width="1" class="highcharts-point highcharts-color-0"></rect></g><g data-z-index="0.1" class="highcharts-markers highcharts-series-0 highcharts-column-series highcharts-color-0 " transform="translate(72,63) scale(1 1)" clip-path="none"></g></g><text x="300" text-anchor="middle" class="highcharts-title" data-z-index="4" style="color:#333333;font-size:18px;fill:#333333;" y="24"><tspan>Daily Calcium Distribution</tspan></text><text x="300" text-anchor="middle" class="highcharts-subtitle" data-z-index="4" style="color:#666666;fill:#666666;" y="46"><tspan>Each column represents the number of days this value occurred.</tspan></text><g class="highcharts-axis-labels highcharts-xaxis-labels " data-z-index="7"><text x="86.92605819768434" style="color:#666666;cursor:default;font-size:11px;fill:#666666;" text-anchor="end" transform="translate(0,0) rotate(-45 86.92605819768434 247)" y="247" opacity="1">1</text><text x="111.59272486434735" style="color:#666666;cursor:default;font-size:11px;fill:#666666;" text-anchor="end" transform="translate(0,0) rotate(-45 111.59272486434735 247)" y="247" opacity="1">2</text><text x="136.25939153101734" style="color:#666666;cursor:default;font-size:11px;fill:#666666;" text-anchor="end" transform="translate(0,0) rotate(-45 136.25939153101734 247)" y="247" opacity="1">3</text><text x="160.92605819768735" style="color:#666666;cursor:default;font-size:11px;fill:#666666;" text-anchor="end" transform="translate(0,0) rotate(-45 160.92605819768735 247)" y="247" opacity="1">4</text><text x="185.59272486434733" style="color:#666666;cursor:default;font-size:11px;fill:#666666;" text-anchor="end" transform="translate(0,0) rotate(-45 185.59272486434733 247)" y="247" opacity="1">5</text><text x="210.25939153101734" style="color:#666666;cursor:default;font-size:11px;fill:#666666;" text-anchor="end" transform="translate(0,0) rotate(-45 210.25939153101734 247)" y="247" opacity="1">6</text><text x="234.92605819768735" style="color:#666666;cursor:default;font-size:11px;fill:#666666;" text-anchor="end" transform="translate(0,0) rotate(-45 234.92605819768735 247)" y="247" opacity="1">7</text><text x="259.59272486434736" style="color:#666666;cursor:default;font-size:11px;fill:#666666;" text-anchor="end" transform="translate(0,0) rotate(-45 259.59272486434736 247)" y="247" opacity="1">8</text><text x="284.25939153101734" style="color:#666666;cursor:default;font-size:11px;fill:#666666;" text-anchor="end" transform="translate(0,0) rotate(-45 284.25939153101734 247)" y="247" opacity="1">10</text><text x="308.9260581976873" style="color:#666666;cursor:default;font-size:11px;fill:#666666;" text-anchor="end" transform="translate(0,0) rotate(-45 308.9260581976873 247)" y="247" opacity="1">20</text><text x="333.59272486434736" style="color:#666666;cursor:default;font-size:11px;fill:#666666;" text-anchor="end" transform="translate(0,0) rotate(-45 333.59272486434736 247)" y="247" opacity="1">30</text><text x="358.25939153101734" style="color:#666666;cursor:default;font-size:11px;fill:#666666;" text-anchor="end" transform="translate(0,0) rotate(-45 358.25939153101734 247)" y="247" opacity="1">40</text><text x="382.9260581976873" style="color:#666666;cursor:default;font-size:11px;fill:#666666;" text-anchor="end" transform="translate(0,0) rotate(-45 382.9260581976873 247)" y="247" opacity="1">50</text><text x="407.59272486434736" style="color:#666666;cursor:default;font-size:11px;fill:#666666;" text-anchor="end" transform="translate(0,0) rotate(-45 407.59272486434736 247)" y="247" opacity="1">60</text><text x="432.25939153101734" style="color:#666666;cursor:default;font-size:11px;fill:#666666;" text-anchor="end" transform="translate(0,0) rotate(-45 432.25939153101734 247)" y="247" opacity="1">70</text><text x="456.9260581976873" style="color:#666666;cursor:default;font-size:11px;fill:#666666;" text-anchor="end" transform="translate(0,0) rotate(-45 456.9260581976873 247)" y="247" opacity="1">80</text><text x="481.59272486434736" style="color:#666666;cursor:default;font-size:11px;fill:#666666;" text-anchor="end" transform="translate(0,0) rotate(-45 481.59272486434736 247)" y="247" opacity="1">90</text><text x="506.25939153101734" style="color:#666666;cursor:default;font-size:11px;fill:#666666;" text-anchor="end" transform="translate(0,0) rotate(-45 506.25939153101734 247)" y="247" opacity="1">100</text><text x="530.9260581976873" style="color:#666666;cursor:default;font-size:11px;fill:#666666;" text-anchor="end" transform="translate(0,0) rotate(-45 530.9260581976873 247)" y="247" opacity="1">200</text><text x="555.5927248643472" style="color:#666666;cursor:default;font-size:11px;fill:#666666;" text-anchor="end" transform="translate(0,0) rotate(-45 555.5927248643472 247)" y="247" opacity="1">300</text><text x="580.2593915310173" style="color:#666666;cursor:default;font-size:11px;fill:#666666;" text-anchor="end" transform="translate(0,0) rotate(-45 580.2593915310173 247)" y="247" opacity="1">800</text></g><g class="highcharts-axis-labels highcharts-yaxis-labels " data-z-index="7"><text x="57" style="color:#666666;cursor:default;font-size:11px;fill:#666666;" text-anchor="end" transform="translate(0,0)" y="235" opacity="1">0</text><text x="57" style="color:#666666;cursor:default;font-size:11px;fill:#666666;" text-anchor="end" transform="translate(0,0)" y="151" opacity="1">200</text><text x="57" style="color:#666666;cursor:default;font-size:11px;fill:#666666;" text-anchor="end" transform="translate(0,0)" y="67" opacity="1">400</text></g><a xlink:href="https://quantimo.do" target="_blank">
                    <text x="590" class="highcharts-credits" text-anchor="end" data-z-index="8"
                          style="cursor:pointer;color:#999999;font-size:9px;fill:#999999;" y="295">https://quantimo.do
                    </text>
                </a></svg>