<?xml version="1.0" standalone="no"?><!DOCTYPE svg PUBLIC "-//W3C//DTD SVG 1.1//EN" "http://www.w3.org/Graphics/SVG/1.1/DTD/svg11.dtd"><svg xmlns:xlink="http://www.w3.org/1999/xlink" version="1.1" class="highcharts-root" style="font-family:&quot;Lucida Grande&quot;, &quot;Lucida Sans Unicode&quot;, Arial, Helvetica, sans-serif;font-size:12px;" xmlns="http://www.w3.org/2000/svg" width="600" height="300"><desc>Created with Highstock 6.2.0</desc><defs><clipPath id="highcharts-ucr621e-30"><rect x="0" y="0" width="518" height="165" fill="none"></rect></clipPath><clipPath id="highcharts-ucr621e-54"><rect x="0" y="0" width="518" height="165" fill="none"></rect></clipPath><clipPath id="highcharts-ucr621e-55"><rect x="72" y="63" width="518" height="165" fill="none"></rect></clipPath></defs><rect fill="#ffffff" class="highcharts-background" x="0" y="0" width="600" height="300" rx="0" ry="0"></rect><rect fill="none" class="highcharts-plot-background" x="72" y="63" width="518" height="165"></rect><g class="highcharts-pane-group" data-z-index="0"></g><g class="highcharts-grid highcharts-xaxis-grid " data-z-index="1"><path fill="none" data-z-index="1" class="highcharts-grid-line" d="M 94.5 63 L 94.5 228" opacity="1"></path><path fill="none" data-z-index="1" class="highcharts-grid-line" d="M 116.5 63 L 116.5 228" opacity="1"></path><path fill="none" data-z-index="1" class="highcharts-grid-line" d="M 139.5 63 L 139.5 228" opacity="1"></path><path fill="none" data-z-index="1" class="highcharts-grid-line" d="M 161.5 63 L 161.5 228" opacity="1"></path><path fill="none" data-z-index="1" class="highcharts-grid-line" d="M 184.5 63 L 184.5 228" opacity="1"></path><path fill="none" data-z-index="1" class="highcharts-grid-line" d="M 206.5 63 L 206.5 228" opacity="1"></path><path fill="none" data-z-index="1" class="highcharts-grid-line" d="M 229.5 63 L 229.5 228" opacity="1"></path><path fill="none" data-z-index="1" class="highcharts-grid-line" d="M 251.5 63 L 251.5 228" opacity="1"></path><path fill="none" data-z-index="1" class="highcharts-grid-line" d="M 274.5 63 L 274.5 228" opacity="1"></path><path fill="none" data-z-index="1" class="highcharts-grid-line" d="M 296.5 63 L 296.5 228" opacity="1"></path><path fill="none" data-z-index="1" class="highcharts-grid-line" d="M 319.5 63 L 319.5 228" opacity="1"></path><path fill="none" data-z-index="1" class="highcharts-grid-line" d="M 341.5 63 L 341.5 228" opacity="1"></path><path fill="none" data-z-index="1" class="highcharts-grid-line" d="M 364.5 63 L 364.5 228" opacity="1"></path><path fill="none" data-z-index="1" class="highcharts-grid-line" d="M 386.5 63 L 386.5 228" opacity="1"></path><path fill="none" data-z-index="1" class="highcharts-grid-line" d="M 409.5 63 L 409.5 228" opacity="1"></path><path fill="none" data-z-index="1" class="highcharts-grid-line" d="M 431.5 63 L 431.5 228" opacity="1"></path><path fill="none" data-z-index="1" class="highcharts-grid-line" d="M 454.5 63 L 454.5 228" opacity="1"></path><path fill="none" data-z-index="1" class="highcharts-grid-line" d="M 476.5 63 L 476.5 228" opacity="1"></path><path fill="none" data-z-index="1" class="highcharts-grid-line" d="M 499.5 63 L 499.5 228" opacity="1"></path><path fill="none" data-z-index="1" class="highcharts-grid-line" d="M 521.5 63 L 521.5 228" opacity="1"></path><path fill="none" data-z-index="1" class="highcharts-grid-line" d="M 544.5 63 L 544.5 228" opacity="1"></path><path fill="none" data-z-index="1" class="highcharts-grid-line" d="M 566.5 63 L 566.5 228" opacity="1"></path><path fill="none" data-z-index="1" class="highcharts-grid-line" d="M 589.5 63 L 589.5 228" opacity="1"></path><path fill="none" data-z-index="1" class="highcharts-grid-line" d="M 71.5 63 L 71.5 228" opacity="1"></path></g><g class="highcharts-grid highcharts-yaxis-grid " data-z-index="1"><path fill="none" stroke="#e6e6e6" stroke-width="1" data-z-index="1" class="highcharts-grid-line" d="M 72 228.5 L 590 228.5" opacity="1"></path><path fill="none" stroke="#e6e6e6" stroke-width="1" data-z-index="1" class="highcharts-grid-line" d="M 72 146.5 L 590 146.5" opacity="1"></path><path fill="none" stroke="#e6e6e6" stroke-width="1" data-z-index="1" class="highcharts-grid-line" d="M 72 62.5 L 590 62.5" opacity="1"></path></g><rect fill="none" class="highcharts-plot-border" data-z-index="1" x="72" y="63" width="518" height="165"></rect><g class="highcharts-axis highcharts-xaxis " data-z-index="2"><path fill="none" class="highcharts-tick" stroke="#ccd6eb" stroke-width="1" d="M 94.5 228 L 94.5 238" opacity="1"></path><path fill="none" class="highcharts-tick" stroke="#ccd6eb" stroke-width="1" d="M 116.5 228 L 116.5 238" opacity="1"></path><path fill="none" class="highcharts-tick" stroke="#ccd6eb" stroke-width="1" d="M 139.5 228 L 139.5 238" opacity="1"></path><path fill="none" class="highcharts-tick" stroke="#ccd6eb" stroke-width="1" d="M 161.5 228 L 161.5 238" opacity="1"></path><path fill="none" class="highcharts-tick" stroke="#ccd6eb" stroke-width="1" d="M 184.5 228 L 184.5 238" opacity="1"></path><path fill="none" class="highcharts-tick" stroke="#ccd6eb" stroke-width="1" d="M 206.5 228 L 206.5 238" opacity="1"></path><path fill="none" class="highcharts-tick" stroke="#ccd6eb" stroke-width="1" d="M 229.5 228 L 229.5 238" opacity="1"></path><path fill="none" class="highcharts-tick" stroke="#ccd6eb" stroke-width="1" d="M 251.5 228 L 251.5 238" opacity="1"></path><path fill="none" class="highcharts-tick" stroke="#ccd6eb" stroke-width="1" d="M 274.5 228 L 274.5 238" opacity="1"></path><path fill="none" class="highcharts-tick" stroke="#ccd6eb" stroke-width="1" d="M 296.5 228 L 296.5 238" opacity="1"></path><path fill="none" class="highcharts-tick" stroke="#ccd6eb" stroke-width="1" d="M 319.5 228 L 319.5 238" opacity="1"></path><path fill="none" class="highcharts-tick" stroke="#ccd6eb" stroke-width="1" d="M 341.5 228 L 341.5 238" opacity="1"></path><path fill="none" class="highcharts-tick" stroke="#ccd6eb" stroke-width="1" d="M 364.5 228 L 364.5 238" opacity="1"></path><path fill="none" class="highcharts-tick" stroke="#ccd6eb" stroke-width="1" d="M 386.5 228 L 386.5 238" opacity="1"></path><path fill="none" class="highcharts-tick" stroke="#ccd6eb" stroke-width="1" d="M 409.5 228 L 409.5 238" opacity="1"></path><path fill="none" class="highcharts-tick" stroke="#ccd6eb" stroke-width="1" d="M 431.5 228 L 431.5 238" opacity="1"></path><path fill="none" class="highcharts-tick" stroke="#ccd6eb" stroke-width="1" d="M 454.5 228 L 454.5 238" opacity="1"></path><path fill="none" class="highcharts-tick" stroke="#ccd6eb" stroke-width="1" d="M 476.5 228 L 476.5 238" opacity="1"></path><path fill="none" class="highcharts-tick" stroke="#ccd6eb" stroke-width="1" d="M 499.5 228 L 499.5 238" opacity="1"></path><path fill="none" class="highcharts-tick" stroke="#ccd6eb" stroke-width="1" d="M 521.5 228 L 521.5 238" opacity="1"></path><path fill="none" class="highcharts-tick" stroke="#ccd6eb" stroke-width="1" d="M 544.5 228 L 544.5 238" opacity="1"></path><path fill="none" class="highcharts-tick" stroke="#ccd6eb" stroke-width="1" d="M 566.5 228 L 566.5 238" opacity="1"></path><path fill="none" class="highcharts-tick" stroke="#ccd6eb" stroke-width="1" d="M 590.5 228 L 590.5 238" opacity="1"></path><path fill="none" class="highcharts-tick" stroke="#ccd6eb" stroke-width="1" d="M 71.5 228 L 71.5 238" opacity="1"></path><text x="331" data-z-index="7" text-anchor="middle" transform="translate(0,0)" class="highcharts-axis-title" style="color:#666666;fill:#666666;" y="280.57716446627535"><tspan>Daily Values (h)</tspan></text><path fill="none" class="highcharts-axis-line" stroke="#ccd6eb" stroke-width="1" data-z-index="7" d="M 72 228.5 L 590 228.5"></path></g><g class="highcharts-axis highcharts-yaxis " data-z-index="2"><text x="26" data-z-index="7" text-anchor="middle" transform="translate(0,0) rotate(270 26 145.5)" class="highcharts-axis-title" style="color:#666666;fill:#666666;" y="145.5"><tspan>Number of Days</tspan></text><path fill="none" class="highcharts-axis-line" data-z-index="7" d="M 72 63 L 72 228"></path></g><g class="highcharts-series-group" data-z-index="3"><g data-z-index="0.1" class="highcharts-series highcharts-series-0 highcharts-column-series highcharts-color-0 " transform="translate(72,63) scale(1 1)" clip-path="url(#highcharts-ucr621e-54)"><rect x="5.5" y="38.5" width="11" height="127" fill="#000000" stroke="#ffffff" stroke-width="1" class="highcharts-point highcharts-color-0"></rect><rect x="27.5" y="164.5" width="11" height="1" fill="#000000" stroke="#ffffff" stroke-width="1" class="highcharts-point highcharts-color-0"></rect><rect x="50.5" y="164.5" width="11" height="1" fill="#000000" stroke="#ffffff" stroke-width="1" class="highcharts-point highcharts-color-0"></rect><rect x="72.5" y="164.5" width="11" height="1" fill="#000000" stroke="#ffffff" stroke-width="1" class="highcharts-point highcharts-color-0"></rect><rect x="95.5" y="164.5" width="11" height="1" fill="#000000" stroke="#ffffff" stroke-width="1" class="highcharts-point highcharts-color-0"></rect><rect x="117.5" y="164.5" width="11" height="1" fill="#000000" stroke="#ffffff" stroke-width="1" class="highcharts-point highcharts-color-0"></rect><rect x="140.5" y="158.5" width="11" height="7" fill="#000000" stroke="#ffffff" stroke-width="1" class="highcharts-point highcharts-color-0"></rect><rect x="163.5" y="164.5" width="11" height="1" fill="#000000" stroke="#ffffff" stroke-width="1" class="highcharts-point highcharts-color-0"></rect><rect x="185.5" y="163.5" width="11" height="2" fill="#000000" stroke="#ffffff" stroke-width="1" class="highcharts-point highcharts-color-0"></rect><rect x="208.5" y="164.5" width="11" height="1" fill="#000000" stroke="#ffffff" stroke-width="1" class="highcharts-point highcharts-color-0"></rect><rect x="230.5" y="164.5" width="11" height="1" fill="#000000" stroke="#ffffff" stroke-width="1" class="highcharts-point highcharts-color-0"></rect><rect x="253.5" y="164.5" width="11" height="1" fill="#000000" stroke="#ffffff" stroke-width="1" class="highcharts-point highcharts-color-0"></rect><rect x="275.5" y="161.5" width="11" height="4" fill="#000000" stroke="#ffffff" stroke-width="1" class="highcharts-point highcharts-color-0"></rect><rect x="298.5" y="154.5" width="11" height="11" fill="#000000" stroke="#ffffff" stroke-width="1" class="highcharts-point highcharts-color-0"></rect><rect x="320.5" y="158.5" width="11" height="7" fill="#000000" stroke="#ffffff" stroke-width="1" class="highcharts-point highcharts-color-0"></rect><rect x="343.5" y="145.5" width="11" height="20" fill="#000000" stroke="#ffffff" stroke-width="1" class="highcharts-point highcharts-color-0"></rect><rect x="365.5" y="146.5" width="11" height="19" fill="#000000" stroke="#ffffff" stroke-width="1" class="highcharts-point highcharts-color-0"></rect><rect x="388.5" y="117.5" width="11" height="48" fill="#000000" stroke="#ffffff" stroke-width="1" class="highcharts-point highcharts-color-0"></rect><rect x="410.5" y="125.5" width="11" height="40" fill="#000000" stroke="#ffffff" stroke-width="1" class="highcharts-point highcharts-color-0"></rect><rect x="433.5" y="102.5" width="11" height="63" fill="#000000" stroke="#ffffff" stroke-width="1" class="highcharts-point highcharts-color-0"></rect><rect x="455.5" y="111.5" width="11" height="54" fill="#000000" stroke="#ffffff" stroke-width="1" class="highcharts-point highcharts-color-0"></rect><rect x="478.5" y="5.5" width="11" height="160" fill="#000000" stroke="#ffffff" stroke-width="1" class="highcharts-point highcharts-color-0"></rect><rect x="500.5" y="145.5" width="11" height="20" fill="#000000" stroke="#ffffff" stroke-width="1" class="highcharts-point highcharts-color-0"></rect></g><g data-z-index="0.1" class="highcharts-markers highcharts-series-0 highcharts-column-series highcharts-color-0 " transform="translate(72,63) scale(1 1)" clip-path="none"></g></g><text x="300" text-anchor="middle" class="highcharts-title" data-z-index="4" style="color:#333333;font-size:18px;fill:#333333;" y="24"><tspan>Daily Time Spent on Software Development Distribution</tspan></text><text x="300" text-anchor="middle" class="highcharts-subtitle" data-z-index="4" style="color:#666666;fill:#666666;" y="46"><tspan>Each column represents the number of days this value occurred.</tspan></text><g class="highcharts-axis-labels highcharts-xaxis-labels " data-z-index="7"><text x="85.85359442956828" style="color:#666666;cursor:default;font-size:11px;fill:#666666;" text-anchor="end" transform="translate(0,0) rotate(-45 85.85359442956828 244)" y="244" opacity="1">0</text><text x="108.37533356000328" style="color:#666666;cursor:default;font-size:11px;fill:#666666;" text-anchor="end" transform="translate(0,0) rotate(-45 108.37533356000328 244)" y="244" opacity="1">0.01</text><text x="130.89707269043328" style="color:#666666;cursor:default;font-size:11px;fill:#666666;" text-anchor="end" transform="translate(0,0) rotate(-45 130.89707269043328 244)" y="244" opacity="1">0.07</text><text x="153.41881182087332" style="color:#666666;cursor:default;font-size:11px;fill:#666666;" text-anchor="end" transform="translate(0,0) rotate(-45 153.41881182087332 244)" y="244" opacity="1">0.08</text><text x="175.9405509513033" style="color:#666666;cursor:default;font-size:11px;fill:#666666;" text-anchor="end" transform="translate(0,0) rotate(-45 175.9405509513033 244)" y="244" opacity="1">0.09</text><text x="198.46229008174328" style="color:#666666;cursor:default;font-size:11px;fill:#666666;" text-anchor="end" transform="translate(0,0) rotate(-45 198.46229008174328 244)" y="244" opacity="1">0.1</text><text x="220.9840292121733" style="color:#666666;cursor:default;font-size:11px;fill:#666666;" text-anchor="end" transform="translate(0,0) rotate(-45 220.9840292121733 244)" y="244" opacity="1">0.2</text><text x="243.5057683426133" style="color:#666666;cursor:default;font-size:11px;fill:#666666;" text-anchor="end" transform="translate(0,0) rotate(-45 243.5057683426133 244)" y="244" opacity="1">0.3</text><text x="266.0275074730433" style="color:#666666;cursor:default;font-size:11px;fill:#666666;" text-anchor="end" transform="translate(0,0) rotate(-45 266.0275074730433 244)" y="244" opacity="1">0.4</text><text x="288.54924660348325" style="color:#666666;cursor:default;font-size:11px;fill:#666666;" text-anchor="end" transform="translate(0,0) rotate(-45 288.54924660348325 244)" y="244" opacity="1">0.6</text><text x="311.0709857339133" style="color:#666666;cursor:default;font-size:11px;fill:#666666;" text-anchor="end" transform="translate(0,0) rotate(-45 311.0709857339133 244)" y="244" opacity="1">0.8</text><text x="333.5927248643533" style="color:#666666;cursor:default;font-size:11px;fill:#666666;" text-anchor="end" transform="translate(0,0) rotate(-45 333.5927248643533 244)" y="244" opacity="1">0.9</text><text x="356.1144639947833" style="color:#666666;cursor:default;font-size:11px;fill:#666666;" text-anchor="end" transform="translate(0,0) rotate(-45 356.1144639947833 244)" y="244" opacity="1">1</text><text x="378.6362031252233" style="color:#666666;cursor:default;font-size:11px;fill:#666666;" text-anchor="end" transform="translate(0,0) rotate(-45 378.6362031252233 244)" y="244" opacity="1">2</text><text x="401.15794225565327" style="color:#666666;cursor:default;font-size:11px;fill:#666666;" text-anchor="end" transform="translate(0,0) rotate(-45 401.15794225565327 244)" y="244" opacity="1">3</text><text x="423.6796813860933" style="color:#666666;cursor:default;font-size:11px;fill:#666666;" text-anchor="end" transform="translate(0,0) rotate(-45 423.6796813860933 244)" y="244" opacity="1">4</text><text x="446.2014205165233" style="color:#666666;cursor:default;font-size:11px;fill:#666666;" text-anchor="end" transform="translate(0,0) rotate(-45 446.2014205165233 244)" y="244" opacity="1">5</text><text x="468.72315964696327" style="color:#666666;cursor:default;font-size:11px;fill:#666666;" text-anchor="end" transform="translate(0,0) rotate(-45 468.72315964696327 244)" y="244" opacity="1">6</text><text x="491.2448987773933" style="color:#666666;cursor:default;font-size:11px;fill:#666666;" text-anchor="end" transform="translate(0,0) rotate(-45 491.2448987773933 244)" y="244" opacity="1">7</text><text x="513.7666379078332" style="color:#666666;cursor:default;font-size:11px;fill:#666666;" text-anchor="end" transform="translate(0,0) rotate(-45 513.7666379078332 244)" y="244" opacity="1">8</text><text x="536.2883770382633" style="color:#666666;cursor:default;font-size:11px;fill:#666666;" text-anchor="end" transform="translate(0,0) rotate(-45 536.2883770382633 244)" y="244" opacity="1">9</text><text x="558.8101161687033" style="color:#666666;cursor:default;font-size:11px;fill:#666666;" text-anchor="end" transform="translate(0,0) rotate(-45 558.8101161687033 244)" y="244" opacity="1">10</text><text x="581.3318552991333" style="color:#666666;cursor:default;font-size:11px;fill:#666666;" text-anchor="end" transform="translate(0,0) rotate(-45 581.3318552991333 244)" y="244" opacity="1">20</text></g><g class="highcharts-axis-labels highcharts-yaxis-labels " data-z-index="7"><text x="57" style="color:#666666;cursor:default;font-size:11px;fill:#666666;" text-anchor="end" transform="translate(0,0)" y="232" opacity="1">0</text><text x="57" style="color:#666666;cursor:default;font-size:11px;fill:#666666;" text-anchor="end" transform="translate(0,0)" y="149" opacity="1">100</text><text x="57" style="color:#666666;cursor:default;font-size:11px;fill:#666666;" text-anchor="end" transform="translate(0,0)" y="67" opacity="1">200</text></g><a xlink:href="https://quantimo.do" target="_blank">
                    <text x="590" class="highcharts-credits" text-anchor="end" data-z-index="8"
                          style="cursor:pointer;color:#999999;font-size:9px;fill:#999999;" y="295">https://quantimo.do
                    </text>
                </a></svg>